<svg id="Layer_1" data-name="Layer 1" xmlns="http://www.w3.org/2000/svg" viewBox="0 0 91 91">
    <circle cx="45.5" cy="45.5" r="44" style="fill:#primaryColor;stroke:#borderColor;stroke-linecap:round;stroke-width:#borderWidth;"/>
    <path opacity="0.5" style="fill:#secondaryColor;" d="M45.5,79.71A34.21,34.21,0,1,1,79.71,45.5,34.25,34.25,0,0,1,45.5,79.71Zm0-61.27A27.06,27.06,0,1,0,72.56,45.5,27.09,27.09,0,0,0,45.5,18.44Z"/>
    <path opacity="0.5" style="fill:#secondaryColor;" d="M32.32,56.37l.37,3.32a142.36,142.36,0,0,1,25.62,0l.37-3.32A135,135,0,0,0,32.32,56.37Z" />
    <path opacity="0.5" style="fill:#secondaryColor;" d="M65.48,41l-.19-.41L65,40.21,64.63,40l-.42-.14-.45,0-.43.1-.39.22-.32.32-.21.39-.11.44a1.33,1.33,0,0,1-.68,1.19l-1.15.63a1.33,1.33,0,0,1-.64.17A1.28,1.28,0,0,1,59,43a1.31,1.31,0,0,1-.5-1.35L59,39.52a1.29,1.29,0,0,1,.58-.84l.37-.23.3-.33.2-.4.08-.44,0-.45-.16-.42-.27-.35-.36-.27-.42-.16-.44,0-.44.08-.4.2-.33.3-.24.38-.12.43v.45a1.32,1.32,0,0,1-.4,1.31L55.48,40a1.3,1.3,0,0,1-.88.33,1.26,1.26,0,0,1-.47-.08,1.34,1.34,0,0,1-.85-1.1c-.14-1.36-.18-2.27-.18-2.79a1.35,1.35,0,0,1,.53-1.07l.24-.18.27-.35.17-.41,0-.45-.08-.44-.19-.4-.3-.33-.38-.23L53,32.37h-.44l-.43.12-.38.23-.31.33-.2.39-.08.44,0,.45A1.33,1.33,0,0,1,51,35.52l-1.5,2.18a1.33,1.33,0,0,1-1.09.57,1,1,0,0,1-.24,0,1.31,1.31,0,0,1-1-1l-.57-2.34a1.35,1.35,0,0,1,.15-1l.23-.39.11-.43v-.45l-.13-.43-.24-.37-.34-.3-.4-.19-.43-.07-.43.07-.4.19-.34.3-.24.37-.13.43v.45l.11.43.23.39a1.35,1.35,0,0,1,.15,1l-.57,2.34a1.31,1.31,0,0,1-1,1,1,1,0,0,1-.24,0,1.33,1.33,0,0,1-1.09-.57L40,35.52a1.33,1.33,0,0,1-.16-1.19l0-.45-.08-.44-.2-.39-.31-.33-.38-.23-.43-.12H38l-.43.13-.38.23-.3.33-.19.4-.08.44,0,.45.17.41.27.35.23.18a1.33,1.33,0,0,1,.54,1.07c0,.52,0,1.43-.18,2.79a1.34,1.34,0,0,1-.85,1.1,1.26,1.26,0,0,1-.47.08,1.3,1.3,0,0,1-.88-.33L34.1,38.74a1.32,1.32,0,0,1-.4-1.31V37l-.12-.43-.24-.38-.33-.3-.4-.2-.44-.08-.44,0-.42.16-.36.27-.27.35-.16.42-.05.45.08.44.2.4.3.33.37.23a1.29,1.29,0,0,1,.58.84l.47,2.12A1.31,1.31,0,0,1,32,43a1.28,1.28,0,0,1-.79.27,1.33,1.33,0,0,1-.64-.17l-1.15-.63a1.33,1.33,0,0,1-.68-1.19l-.11-.44-.21-.39-.32-.32-.39-.22-.43-.1-.45,0-.42.14-.38.25-.28.34-.19.4-.07.45.06.44.18.41.28.35.36.26.41.14a1.33,1.33,0,0,1,.76.69l1.15,2.43,0,.06,1.23,2.94,0,.05.85,2.29,0,0L31.94,55A.14.14,0,0,0,32,55l.11.41a141.78,141.78,0,0,1,26.86,0L59,55a.14.14,0,0,0,0-.06l1.14-3.47,0,0,.85-2.29,0-.05,1.23-2.94,0-.06,1.15-2.43a1.33,1.33,0,0,1,.76-.69l.41-.14L65,42.6l.28-.35.18-.41.06-.44ZM32.71,53.82a7,7,0,0,1-1.29-1.49,7.3,7.3,0,0,1,.17-2,7,7,0,0,1,1.28,1.49A6.94,6.94,0,0,1,32.71,53.82Zm5.52-.44a7.15,7.15,0,0,1-1.63-1.94,6.85,6.85,0,0,1,1.2-2.24,7.15,7.15,0,0,1,1.63,1.94A6.85,6.85,0,0,1,38.23,53.38Zm7.27-.24a7.86,7.86,0,0,1-1.74-2.34,7.73,7.73,0,0,1,1.74-2.34,7.73,7.73,0,0,1,1.74,2.34A7.86,7.86,0,0,1,45.5,53.14Zm7.27.24a6.85,6.85,0,0,1-1.2-2.24A7.15,7.15,0,0,1,53.2,49.2a6.85,6.85,0,0,1,1.2,2.24A7.15,7.15,0,0,1,52.77,53.38Zm6.81-1.05a7.28,7.28,0,0,1-1.29,1.49,6.94,6.94,0,0,1-.16-2,7,7,0,0,1,1.28-1.49A7.3,7.3,0,0,1,59.58,52.33Z" />
</svg>