<svg version="1.2" baseProfile="tiny-ps" xmlns="http://www.w3.org/2000/svg" viewBox="0 0 90 90" width="90" height="90">
	<title>Meeple 2D</title>
	<style>
		tspan { white-space:pre }
		.shp0 { fill: #primaryColor; stroke: #borderColor; stroke-width:#borderWidth; } 
	</style>
	<path id="Layer" class="shp0" d="M59.52 87C59.12 87.01 58.72 86.97 58.33 86.88C57.94 86.8 57.56 86.66 57.2 86.47C56.85 86.29 56.52 86.06 56.22 85.79C55.92 85.52 55.66 85.21 55.44 84.88C54.7 83.88 54.03 82.73 53.44 81.65C53.12 81.12 52.8 80.59 52.44 80.07C51.97 79.32 51.52 78.56 51.07 77.8C50.78 77.27 50.47 76.75 50.16 76.24C49.85 75.73 49.52 75.22 49.19 74.72C48.86 74.22 48.51 73.73 48.16 73.24C47.81 72.75 47.44 72.27 47.07 71.8C46.96 71.63 46.83 71.47 46.69 71.33C46.54 71.18 46.38 71.06 46.21 70.95C46.04 70.84 45.85 70.75 45.66 70.69C45.47 70.62 45.27 70.57 45.07 70.55C44.86 70.57 44.66 70.62 44.46 70.69C44.26 70.76 44.07 70.85 43.89 70.96C43.71 71.07 43.54 71.2 43.4 71.35C43.25 71.5 43.11 71.66 43 71.84C42.76 72.13 42.53 72.43 42.31 72.73C42.08 73.03 41.86 73.33 41.64 73.64C41.43 73.95 41.21 74.26 41.01 74.57C40.8 74.89 40.6 75.21 40.41 75.53L40.29 75.71C39.53 76.9 38.8 78.14 38.09 79.33C36.99 81.19 35.85 83.12 34.58 84.92C34.37 85.25 34.11 85.55 33.82 85.82C33.53 86.08 33.21 86.31 32.86 86.49C32.51 86.67 32.14 86.81 31.75 86.89C31.37 86.98 30.97 87.02 30.58 87C27.58 87 24.69 87 21.77 87L10.19 87C8.6 87 7.62 86.71 7.1 86.11C6.58 85.51 6.46 84.46 6.72 82.87C6.72 82.87 6.72 82.65 6.78 82.59C6.96 81.66 7.18 80.74 7.43 79.82C7.67 78.91 7.96 78 8.27 77.11C8.59 76.21 8.93 75.33 9.31 74.46C9.69 73.59 10.1 72.74 10.54 71.9C12.21 68.46 14.11 65.08 15.95 61.8C17.03 59.89 18.15 57.9 19.21 55.93C19.45 55.51 19.68 55.08 19.89 54.65C20.11 54.22 20.32 53.78 20.51 53.33C20.71 52.89 20.89 52.44 21.07 51.99C21.24 51.54 21.4 51.08 21.55 50.62C22.13 48.62 21.6 47.62 19.66 47.04C19.43 46.97 19.2 46.91 18.96 46.85C18.72 46.8 18.49 46.75 18.25 46.71C18.01 46.68 17.77 46.65 17.53 46.63C17.28 46.61 17.04 46.6 16.8 46.6C16.21 46.6 15.62 46.6 15.03 46.58C14.44 46.57 13.85 46.55 13.26 46.51C12.68 46.48 12.09 46.44 11.5 46.39C10.91 46.34 10.33 46.28 9.74 46.21C7.23 45.88 5.6 45.09 4.47 43.67C3.93 42.91 3.53 42.07 3.28 41.18C3.04 40.28 2.95 39.35 3.02 38.43C3.09 37.5 3.32 36.6 3.7 35.75C4.08 34.91 4.6 34.14 5.25 33.47C8.68 29.75 13.25 27.63 17.25 25.93C18.25 25.52 19.25 25.13 20.25 24.75C21.26 24.37 22.27 24 23.28 23.64C24.3 23.29 25.32 22.94 26.34 22.61C27.36 22.28 28.39 21.96 29.42 21.66C31.59 20.99 31.75 20.66 31.86 18.49C31.88 17.92 31.91 17.35 31.97 16.79C32.02 16.22 32.09 15.66 32.19 15.1C32.28 14.54 32.39 13.98 32.51 13.43C32.64 12.87 32.79 12.32 32.95 11.78C34.25 7.71 36.54 5.12 39.95 3.85C40.34 3.71 40.73 3.58 41.13 3.47C41.53 3.37 41.94 3.28 42.35 3.2C42.75 3.13 43.17 3.08 43.58 3.05C43.99 3.01 44.41 3 44.82 3C45.4 3 46 3 46.64 3.08C47.64 3.12 48.63 3.3 49.58 3.61C50.53 3.92 51.43 4.36 52.27 4.91C53.1 5.46 53.85 6.13 54.5 6.89C55.16 7.64 55.7 8.49 56.13 9.39C56.45 10.11 56.74 10.85 56.98 11.6C57.23 12.35 57.44 13.12 57.61 13.89C57.77 14.66 57.9 15.45 57.99 16.23C58.08 17.02 58.12 17.81 58.13 18.6C58.23 20.6 58.45 20.91 60.33 21.55L60.7 21.66L60.89 21.72C62.02 22.05 63.14 22.4 64.26 22.77C65.38 23.14 66.49 23.52 67.6 23.92C68.71 24.32 69.81 24.74 70.9 25.17C72 25.61 73.09 26.06 74.17 26.52C77.62 28.07 81.55 29.99 84.54 33.27C84.97 33.69 85.36 34.15 85.69 34.66C86.02 35.16 86.3 35.7 86.51 36.26C86.72 36.83 86.87 37.41 86.95 38.01C87.04 38.61 87.05 39.21 87 39.81C86.69 42.81 85.27 44.71 82.66 45.62C82.3 45.73 81.94 45.83 81.57 45.92C81.2 46.01 80.83 46.09 80.46 46.15C80.09 46.22 79.71 46.27 79.34 46.31C78.96 46.35 78.59 46.38 78.21 46.39C77.4 46.45 76.58 46.47 75.76 46.48C75.36 46.48 74.95 46.48 74.55 46.5C74.15 46.51 73.74 46.54 73.34 46.57C72.94 46.61 72.54 46.65 72.14 46.7C71.74 46.76 71.34 46.82 70.94 46.89C70.71 46.91 70.47 46.95 70.25 47.02C70.02 47.08 69.81 47.18 69.6 47.29C69.39 47.4 69.2 47.54 69.03 47.69C68.85 47.85 68.69 48.02 68.55 48.21C68.45 48.42 68.38 48.65 68.33 48.87C68.28 49.1 68.25 49.34 68.25 49.57C68.25 49.8 68.28 50.04 68.33 50.27C68.38 50.49 68.45 50.72 68.55 50.93C68.76 51.51 68.99 52.08 69.22 52.65C69.46 53.21 69.71 53.78 69.97 54.33C70.24 54.89 70.51 55.44 70.8 55.98C71.09 56.52 71.39 57.06 71.7 57.59L71.95 58.05C72.65 59.35 73.39 60.67 74.16 62C74.79 63.07 75.41 64.14 76.01 65.22C76.61 66.31 77.2 67.4 77.77 68.5C78.34 69.6 78.89 70.71 79.43 71.82C79.97 72.94 80.49 74.06 81 75.19C81.34 75.89 81.64 76.61 81.91 77.35C82.18 78.08 82.41 78.82 82.61 79.58C82.81 80.33 82.98 81.1 83.11 81.87C83.23 82.64 83.33 83.41 83.38 84.19C83.44 86.09 82.76 86.82 80.81 86.98C80.46 86.98 80.1 86.98 79.74 86.98L63.77 86.98C62.39 86.98 61.02 86.98 59.64 86.98L59.52 87Z" />
</svg>