<svg version="1.2" baseProfile="tiny-ps" xmlns="http://www.w3.org/2000/svg" viewBox="0 0 94 66" width="94" height="66">
	<title>Pig 2D</title>
	<style>
		tspan { white-space:pre }
		.shp0 { fill: #primaryColor; stroke: #borderColor; stroke-width:#borderWidth; } 
	</style>
	<path id="Layer" fill-rule="evenodd" class="shp0" d="M72.45 63.55C71.79 62.61 71.18 61.64 70.63 60.63C70.09 59.62 69.6 58.58 69.18 57.51C68.76 56.44 68.41 55.35 68.12 54.24C67.83 53.12 67.6 52 67.45 50.86C67.44 50.8 67.42 50.74 67.39 50.69C67.36 50.64 67.32 50.59 67.28 50.55C67.23 50.51 67.18 50.48 67.13 50.46C67.07 50.44 67.01 50.43 66.95 50.43L66.89 50.43C65.79 50.56 64.66 50.68 63.5 50.78C63.44 50.79 63.38 50.8 63.32 50.83C63.27 50.86 63.22 50.89 63.18 50.94C63.14 50.98 63.1 51.04 63.08 51.09C63.06 51.15 63.04 51.21 63.04 51.27C63.05 52.3 63.07 53.32 63.1 54.35C63.14 55.37 63.18 56.4 63.24 57.42C63.31 58.44 63.38 59.47 63.47 60.49C63.55 61.51 63.66 62.53 63.77 63.55L60.77 63.55C60.14 62.67 59.57 61.75 59.05 60.8C58.53 59.85 58.06 58.88 57.64 57.88C57.23 56.88 56.88 55.85 56.58 54.81C56.28 53.77 56.04 52.72 55.86 51.65C55.85 51.59 55.83 51.54 55.8 51.49C55.77 51.43 55.74 51.39 55.69 51.35C55.65 51.31 55.6 51.28 55.54 51.26C55.49 51.24 55.43 51.23 55.37 51.23C54.58 51.23 53.79 51.23 52.99 51.23C51.79 51.23 50.59 51.21 49.4 51.17C48.2 51.14 47 51.08 45.81 51C44.61 50.93 43.41 50.83 42.22 50.71C41.03 50.6 39.84 50.46 38.65 50.31L38.58 50.31C38.55 50.31 38.52 50.31 38.49 50.32C38.46 50.32 38.43 50.33 38.4 50.34C38.38 50.35 38.35 50.36 38.32 50.38C38.3 50.39 38.27 50.41 38.25 50.43C38.22 50.45 38.2 50.48 38.18 50.51C38.16 50.54 38.14 50.57 38.13 50.6C38.11 50.64 38.1 50.67 38.09 50.7C38.09 50.74 38.08 50.77 38.08 50.81C38.12 51.88 38.18 52.94 38.26 54.01C38.34 55.08 38.44 56.14 38.57 57.2C38.69 58.26 38.84 59.32 39 60.38C39.17 61.43 39.36 62.48 39.57 63.53L37 63.53C31.27 57.87 29.21 52.69 28.49 49.33C28.48 49.28 28.46 49.24 28.44 49.19C28.42 49.15 28.39 49.11 28.35 49.08C28.31 49.04 28.27 49.01 28.23 48.99C28.19 48.97 28.14 48.96 28.09 48.95L28 48.95C27.96 48.95 27.92 48.96 27.87 48.97C27.83 48.98 27.79 48.99 27.76 49.01C27.72 49.04 27.69 49.06 27.66 49.09C27.63 49.12 27.6 49.15 27.58 49.19C26.48 50.99 22.95 57.19 22.88 63.54L20 63.54L19.9 63.32C16.85 56.85 10 39.9 13.2 22.69C13.25 22.45 13.31 22.21 13.36 21.97L13.43 21.71C13.44 21.66 13.45 21.61 13.44 21.56C13.44 21.51 13.43 21.46 13.41 21.41C13.39 21.36 13.36 21.32 13.33 21.28C13.29 21.24 13.25 21.21 13.21 21.18C12.66 20.81 12.14 20.41 11.65 19.96C11.16 19.52 10.7 19.04 10.28 18.52C9.86 18.01 9.48 17.47 9.15 16.9C8.81 16.33 8.52 15.73 8.27 15.12C8.25 15.08 8.23 15.05 8.21 15.01C8.18 14.98 8.15 14.95 8.12 14.92C8.09 14.9 8.05 14.88 8.02 14.86C7.98 14.84 7.94 14.83 7.9 14.82C7.74 14.79 7.59 14.76 7.44 14.72C7.28 14.68 7.13 14.64 6.98 14.6C6.83 14.55 6.67 14.51 6.53 14.45C6.38 14.4 6.23 14.35 6.08 14.29C5.7 14.14 5.33 13.96 4.99 13.74C4.64 13.51 4.32 13.26 4.03 12.97C3.73 12.68 3.47 12.37 3.24 12.02C3.02 11.68 2.82 11.32 2.67 10.94C2.6 10.77 2.54 10.6 2.49 10.43C2.45 10.25 2.42 10.07 2.4 9.89C2.39 9.71 2.39 9.53 2.4 9.35C2.42 9.16 2.45 8.99 2.5 8.81C2.54 8.77 2.59 8.73 2.64 8.7C2.69 8.66 2.74 8.63 2.79 8.6C2.84 8.58 2.89 8.55 2.95 8.53C3.01 8.51 3.06 8.49 3.12 8.48C3.19 8.48 3.24 8.65 3.25 8.7C3.27 8.75 3.28 8.8 3.29 8.85C3.3 8.9 3.31 8.95 3.32 9C3.33 9.05 3.34 9.1 3.34 9.16C3.35 9.21 3.35 9.26 3.35 9.31C3.35 10.15 3.67 10.41 5.72 11.44C5.78 11.47 5.84 11.5 5.9 11.53C5.96 11.56 6.03 11.59 6.09 11.62C6.15 11.64 6.21 11.67 6.28 11.69C6.34 11.72 6.41 11.74 6.47 11.76C6.48 11.76 6.5 11.77 6.51 11.77C6.53 11.77 6.54 11.77 6.55 11.77C6.57 11.77 6.58 11.77 6.6 11.77C6.61 11.77 6.63 11.76 6.64 11.76C6.67 11.76 6.7 11.76 6.73 11.75C6.75 11.75 6.78 11.74 6.81 11.73C6.84 11.72 6.86 11.71 6.89 11.7C6.91 11.68 6.94 11.67 6.96 11.65C6.99 11.62 7.02 11.59 7.05 11.55C7.08 11.52 7.1 11.48 7.11 11.44C7.13 11.4 7.14 11.36 7.14 11.31C7.15 11.27 7.15 11.22 7.14 11.18C6.7 8.6 7.03 6.56 8.14 5.29C8.4 5.01 8.7 4.76 9.03 4.56C9.36 4.35 9.71 4.19 10.08 4.08C10.45 3.96 10.83 3.9 11.21 3.89C11.6 3.87 11.98 3.91 12.36 4C12.78 4.08 13.2 4.21 13.6 4.38C14 4.55 14.37 4.76 14.73 5.01C15.08 5.26 15.41 5.54 15.7 5.86C15.99 6.18 16.25 6.53 16.47 6.9C16.6 7.23 16.69 7.58 16.74 7.93C16.8 8.28 16.81 8.64 16.78 8.99C16.74 9.35 16.67 9.7 16.56 10.04C16.45 10.37 16.3 10.7 16.11 11C15.91 11.44 15.66 11.86 15.37 12.25C15.08 12.65 14.75 13 14.39 13.32C14.02 13.65 13.62 13.93 13.2 14.16C12.77 14.4 12.33 14.59 11.86 14.73C11.82 14.74 11.78 14.76 11.75 14.78C11.71 14.8 11.68 14.83 11.65 14.85C11.63 14.88 11.6 14.91 11.58 14.95C11.56 14.98 11.54 15.02 11.53 15.06C11.52 15.1 11.51 15.14 11.51 15.18C11.5 15.22 11.51 15.26 11.52 15.3C11.52 15.34 11.54 15.38 11.55 15.42C11.57 15.45 11.59 15.49 11.62 15.52C11.8 15.74 12 15.96 12.2 16.17C12.4 16.38 12.6 16.58 12.81 16.77C13.03 16.97 13.24 17.16 13.47 17.34C13.69 17.52 13.92 17.69 14.16 17.86C14.18 17.87 14.2 17.89 14.23 17.9C14.25 17.91 14.27 17.92 14.3 17.93C14.32 17.93 14.35 17.94 14.37 17.94C14.4 17.95 14.42 17.95 14.45 17.95L14.57 17.95C14.61 17.94 14.64 17.93 14.67 17.91C14.7 17.9 14.73 17.88 14.76 17.86C14.79 17.83 14.82 17.81 14.84 17.78C14.86 17.75 14.88 17.72 14.9 17.69C20.9 5.69 38.07 2.51 47.28 2.51C47.7 2.51 48.12 2.51 48.54 2.53C48.95 2.54 49.37 2.56 49.79 2.6C50.21 2.63 50.62 2.67 51.04 2.72C51.45 2.77 51.87 2.83 52.28 2.9C54.07 3.27 55.85 3.74 57.59 4.31C59.33 4.87 61.05 5.53 62.72 6.27C64.39 7.02 66.03 7.85 67.61 8.77C69.2 9.69 70.73 10.7 72.21 11.78C72.23 11.8 72.25 11.81 72.28 11.82C72.3 11.83 72.33 11.85 72.35 11.85C72.38 11.86 72.4 11.87 72.43 11.87C72.46 11.88 72.48 11.88 72.51 11.88C72.52 11.88 72.54 11.88 72.55 11.89C72.56 11.89 72.58 11.89 72.59 11.89C72.6 11.89 72.62 11.89 72.63 11.89C72.64 11.88 72.66 11.88 72.67 11.88C72.71 11.87 72.75 11.85 72.78 11.82C72.81 11.8 72.85 11.77 72.87 11.74C72.9 11.71 72.92 11.68 72.94 11.64C72.96 11.61 72.98 11.57 72.99 11.53C73.04 11.34 73.09 11.15 73.15 10.97C73.21 10.78 73.27 10.6 73.34 10.42C73.41 10.23 73.49 10.05 73.57 9.88C73.64 9.7 73.73 9.52 73.82 9.35C75.29 6.62 75.82 4.58 75.54 3.28C76.85 3.52 79.09 4.56 79.65 8.9C79.77 9.64 79.84 10.39 79.85 11.14C79.85 11.89 79.81 12.64 79.7 13.39C79.59 14.13 79.43 14.86 79.21 15.58C79 16.3 78.72 17 78.4 17.68C78.38 17.72 78.36 17.76 78.35 17.8C78.34 17.84 78.34 17.88 78.34 17.93C78.34 17.97 78.34 18.01 78.35 18.05C78.36 18.09 78.38 18.13 78.4 18.17L78.65 18.57C78.67 18.6 78.69 18.63 78.72 18.66C78.75 18.68 78.77 18.7 78.81 18.72C78.84 18.74 78.87 18.76 78.9 18.77C78.94 18.79 78.97 18.79 79.01 18.8L79.08 18.8C79.11 18.8 79.14 18.8 79.17 18.79C79.2 18.79 79.23 18.78 79.26 18.77C79.29 18.76 79.31 18.74 79.34 18.73C79.36 18.71 79.39 18.69 79.41 18.67C79.81 18.28 80.24 17.91 80.69 17.58C81.15 17.24 81.62 16.93 82.11 16.66C82.6 16.38 83.11 16.13 83.63 15.92C84.15 15.71 84.69 15.53 85.23 15.39C88.23 14.76 90.23 13.88 90.98 12.8C91.62 13.91 92.31 16.32 89.33 19.56C88.83 20.15 88.29 20.69 87.7 21.19C87.12 21.69 86.49 22.15 85.84 22.55C85.18 22.95 84.49 23.31 83.78 23.6C83.07 23.9 82.34 24.14 81.59 24.32C81.56 24.33 81.53 24.34 81.5 24.36C81.47 24.37 81.44 24.39 81.41 24.41C81.39 24.43 81.36 24.45 81.34 24.48C81.32 24.5 81.3 24.53 81.28 24.56C81.27 24.59 81.26 24.62 81.25 24.66C81.24 24.69 81.24 24.72 81.24 24.76C81.24 24.79 81.24 24.82 81.25 24.85C81.26 24.89 81.27 24.92 81.28 24.95C81.89 27.06 82.28 28.78 82.53 30.17C83.26 33.67 83.62 35.42 86.63 36.33C87 36.46 87.36 36.57 87.74 36.67C88.11 36.77 88.49 36.86 88.86 36.94C89.24 37.01 89.62 37.08 90.01 37.13C90.39 37.18 90.77 37.22 91.16 37.25L91.33 37.25C91.33 39.02 91 44.52 85.85 46.42C84.98 46.72 84.1 47.01 83.22 47.28C82.34 47.54 81.45 47.8 80.56 48.03C79.67 48.26 78.77 48.48 77.87 48.68C76.97 48.88 76.07 49.06 75.16 49.22C75.11 49.23 75.06 49.25 75.01 49.28C74.96 49.3 74.92 49.34 74.88 49.38C74.85 49.42 74.82 49.46 74.8 49.51C74.78 49.56 74.76 49.62 74.76 49.67C74.41 53.85 75.18 61.5 75.41 63.67L72.45 63.55ZM12.07 6.29C11.94 6.29 11.81 6.3 11.68 6.32C11.55 6.34 11.42 6.37 11.3 6.4C11.17 6.44 11.05 6.48 10.93 6.53C10.81 6.58 10.69 6.64 10.58 6.71C8.88 7.71 9.32 9.33 9.99 11.77C10 11.82 10.03 11.87 10.06 11.92C10.09 11.97 10.13 12.01 10.17 12.04C10.22 12.08 10.27 12.1 10.32 12.12C10.37 12.14 10.42 12.15 10.48 12.15L10.56 12.15C12.46 11.85 13.78 10.93 14.17 9.64C14.25 9.44 14.3 9.23 14.33 9.02C14.36 8.8 14.36 8.59 14.33 8.37C14.31 8.16 14.26 7.95 14.19 7.75C14.12 7.54 14.02 7.35 13.9 7.17C13.79 7.03 13.67 6.9 13.53 6.79C13.4 6.68 13.25 6.59 13.09 6.51C12.93 6.43 12.77 6.38 12.59 6.34C12.42 6.3 12.25 6.29 12.07 6.29Z" />
</svg>