<svg id="Layer_1" data-name="Layer 1" xmlns="http://www.w3.org/2000/svg" viewBox="0 0 91 91">
<circle cx="45.5" cy="45.5" r="44" style="fill:#primaryColor;stroke:#borderColor;stroke-linecap:round;stroke-width:#borderWidth;"/>
<circle cx="45.5" cy="45.5" r="29.73" style="fill:#labelColor"/>
<path style="fill:#accentColor2" d="M78.47,22.43l1.61-1.62a42.59,42.59,0,0,0-9.89-9.89l-1.62,1.61a1.93,1.93,0,0,0,.18,2.89,38.07,38.07,0,0,1,6.83,6.83A1.93,1.93,0,0,0,78.47,22.43Z"/>
<path style="fill:#accentColor2" d="M22.43,12.53l-1.62-1.61a42.59,42.59,0,0,0-9.89,9.89l1.61,1.62a1.93,1.93,0,0,0,2.89-.18,38.07,38.07,0,0,1,6.83-6.83A1.93,1.93,0,0,0,22.43,12.53Z" />
<path style="fill:#accentColor2" d="M12.53,68.57l-1.61,1.62a42.59,42.59,0,0,0,9.89,9.89l1.62-1.61a1.93,1.93,0,0,0-.18-2.89,38.07,38.07,0,0,1-6.83-6.83A1.93,1.93,0,0,0,12.53,68.57Z" />
<path style="fill:#accentColor2" d="M68.57,78.47l1.62,1.61a42.59,42.59,0,0,0,9.89-9.89l-1.61-1.62a1.93,1.93,0,0,0-2.89.18,38.07,38.07,0,0,1-6.83,6.83A1.93,1.93,0,0,0,68.57,78.47Z" />
<path style="fill:#accentColor1" d="M45.5,7.48a38.38,38.38,0,0,1,4.82.31A1.93,1.93,0,0,0,52.5,5.88V3.58a42.53,42.53,0,0,0-14,0v2.3a1.93,1.93,0,0,0,2.18,1.91A38.38,38.38,0,0,1,45.5,7.48Z"/>
<path style="fill:#accentColor1" d="M7.48,45.5a38.38,38.38,0,0,1,.31-4.82A1.93,1.93,0,0,0,5.88,38.5H3.58a42.53,42.53,0,0,0,0,14h2.3a1.93,1.93,0,0,0,1.91-2.18A38.38,38.38,0,0,1,7.48,45.5Z" />
<path style="fill:#accentColor1" d="M45.5,83.52a38.38,38.38,0,0,1-4.82-.31,1.93,1.93,0,0,0-2.18,1.91v2.3a42.53,42.53,0,0,0,14,0v-2.3a1.93,1.93,0,0,0-2.18-1.91A38.38,38.38,0,0,1,45.5,83.52Z" />
<path style="fill:#accentColor1" d="M87.42,38.5h-2.3a1.93,1.93,0,0,0-1.91,2.18,37.63,37.63,0,0,1,0,9.64,1.93,1.93,0,0,0,1.91,2.18h2.3a42.53,42.53,0,0,0,0-14Z" />
</svg>