<svg xmlns="http://www.w3.org/2000/svg" viewBox="0 0 448 512" width="448" height="512">
	<style>
		tspan { white-space:pre }
		.shp0 { fill: #ffffff } 
	</style>
	<path id="Layer" fill-rule="evenodd" class="shp0" d="M439.1 378.6C434.9 394 434.9 437.9 439.1 453.3C444.5 457.7 448 464.5 448 472L448 488C448 501.3 437.3 512 424 512L96 512C43 512 0 469 0 416L0 96C0 43 43 0 96 0L424 0C437.3 0 448 10.7 448 24L448 360C448 367.5 444.5 374.3 439.1 378.6ZM128 154C128 157.3 130.7 160 134 160L346 160C349.3 160 352 157.3 352 154L352 134C352 130.7 349.3 128 346 128L134 128C130.7 128 128 130.7 128 134L128 154ZM128 218C128 221.3 130.7 224 134 224L346 224C349.3 224 352 221.3 352 218L352 198C352 194.7 349.3 192 346 192L134 192C130.7 192 128 194.7 128 198L128 218ZM381.4 384L96 384C78.4 384 64 398.4 64 416C64 433.7 78.3 448 96 448L381.4 448C379.5 430.9 379.5 401.1 381.4 384Z" />
</svg>