<svg xmlns="http://www.w3.org/2000/svg" viewBox="0 0 512 512" width="512" height="512">
	<style>
		tspan { white-space:pre }
		.shp0 { fill: #ffffff } 
	</style>
	<path id="Layer" fill-rule="evenodd" class="shp0" d="M40.09 117.62C39.18 115.2 38.87 112.59 39.19 110.02C39.51 107.46 40.45 105 41.92 102.88C43.4 100.75 45.37 99.02 47.66 97.82C49.95 96.62 52.5 96 55.09 96L112 96L112 64L88 64C86.95 64 85.91 63.79 84.94 63.39C83.97 62.99 83.09 62.4 82.34 61.66C81.6 60.91 81.01 60.03 80.61 59.06C80.21 58.09 80 57.05 80 56L80 40C80 38.95 80.21 37.91 80.61 36.94C81.01 35.97 81.6 35.09 82.34 34.34C83.09 33.6 83.97 33.01 84.94 32.61C85.91 32.21 86.95 32 88 32L112 32L112 8C112 6.95 112.21 5.91 112.61 4.94C113.01 3.97 113.6 3.09 114.34 2.34C115.09 1.6 115.97 1.01 116.94 0.61C117.91 0.21 118.95 0 120 0L136 0C137.05 0 138.09 0.21 139.06 0.61C140.03 1.01 140.91 1.6 141.66 2.34C142.4 3.09 142.99 3.97 143.39 4.94C143.79 5.91 144 6.95 144 8L144 32L168 32C169.05 32 170.09 32.21 171.06 32.61C172.03 33.01 172.91 33.6 173.66 34.34C174.4 35.09 174.99 35.97 175.39 36.94C175.79 37.91 176 38.95 176 40L176 56C176 57.05 175.79 58.09 175.39 59.06C174.99 60.03 174.4 60.91 173.66 61.66C172.91 62.4 172.03 62.99 171.06 63.39C170.09 63.79 169.05 64 168 64L144 64L144 96L200.89 96C203.48 96 206.03 96.62 208.32 97.82C210.61 99.02 212.58 100.75 214.06 102.88C215.53 105 216.47 107.46 216.79 110.02C217.11 112.59 216.8 115.2 215.89 117.62L182 208L192 208C194.1 208 196.18 208.41 198.12 209.22C200.06 210.02 201.83 211.2 203.31 212.69C204.8 214.17 205.98 215.94 206.78 217.88C207.59 219.82 208 221.9 208 224L208 240C208 242.1 207.59 244.18 206.78 246.12C205.98 248.06 204.8 249.83 203.31 251.31C201.83 252.8 200.06 253.98 198.12 254.78C196.18 255.59 194.1 256 192 256L176.06 256C176.09 266.78 176.45 277.55 177.14 288.3C177.82 299.06 178.83 309.79 180.16 320.48C181.5 331.17 183.15 341.83 185.12 352.42C187.1 363.01 189.39 373.54 192 384L64 384C66.61 373.54 68.9 363.01 70.88 352.42C72.85 341.83 74.5 331.17 75.84 320.48C77.17 309.79 78.18 299.06 78.86 288.3C79.55 277.55 79.91 266.78 79.94 256L64 256C61.9 256 59.82 255.59 57.88 254.78C55.94 253.98 54.17 252.8 52.69 251.31C51.2 249.83 50.02 248.06 49.22 246.12C48.41 244.18 48 242.1 48 240L48 224C48 221.9 48.41 219.82 49.22 217.88C50.02 215.94 51.2 214.17 52.69 212.69C54.17 211.2 55.94 210.02 57.88 209.22C59.82 208.41 61.9 208 64 208L74 208L40.09 117.62ZM247.16 459.58C248.48 460.24 249.71 461.08 250.8 462.08C251.89 463.08 252.84 464.22 253.61 465.48C254.39 466.74 254.99 468.1 255.39 469.52C255.8 470.94 256 472.41 256 473.89L256 496C256 498.1 255.59 500.18 254.78 502.12C253.98 504.06 252.8 505.83 251.31 507.31C249.83 508.8 248.06 509.98 246.12 510.78C244.18 511.59 242.1 512 240 512L16 512C13.9 512 11.82 511.59 9.88 510.78C7.94 509.98 6.17 508.8 4.69 507.31C3.2 505.83 2.02 504.06 1.22 502.12C0.41 500.18 0 498.1 0 496L0 473.89C0 472.41 0.21 470.94 0.61 469.52C1.01 468.09 1.61 466.74 2.39 465.48C3.17 464.22 4.12 463.08 5.21 462.08C6.3 461.08 7.53 460.24 8.85 459.58L32 448L32 432C32 429.9 32.41 427.82 33.22 425.88C34.02 423.94 35.2 422.17 36.69 420.69C38.17 419.2 39.94 418.02 41.88 417.22C43.82 416.41 45.9 416 48 416L208 416C210.1 416 212.18 416.41 214.12 417.22C216.06 418.02 217.83 419.2 219.31 420.69C220.8 422.17 221.98 423.94 222.78 425.88C223.59 427.82 224 429.9 224 432L224 448L247.16 459.58ZM315.36 281C313.59 279.51 311.99 277.82 310.58 275.98C309.17 274.14 307.97 272.15 306.99 270.05C306.01 267.95 305.26 265.75 304.76 263.49C304.26 261.23 304 258.92 304 256.6L304 198C304 197.21 304.16 196.43 304.46 195.7C304.76 194.98 305.2 194.31 305.76 193.76C306.31 193.2 306.98 192.76 307.7 192.46C308.43 192.16 309.21 192 310 192L336.39 192C337.18 192 337.96 192.16 338.69 192.46C339.41 192.76 340.08 193.2 340.63 193.76C341.19 194.31 341.63 194.98 341.93 195.7C342.23 196.43 342.39 197.21 342.39 198L342.39 224L367.1 224L367.1 198C367.1 197.21 367.26 196.43 367.56 195.7C367.86 194.98 368.3 194.31 368.86 193.76C369.41 193.2 370.08 192.76 370.8 192.46C371.53 192.16 372.31 192 373.1 192L426.91 192C427.7 192 428.48 192.16 429.21 192.46C429.93 192.76 430.6 193.2 431.15 193.76C431.71 194.31 432.15 194.98 432.45 195.7C432.75 196.43 432.91 197.21 432.91 198L432.91 224L457.62 224L457.62 198C457.62 197.21 457.78 196.43 458.08 195.7C458.38 194.98 458.82 194.31 459.38 193.76C459.93 193.2 460.6 192.76 461.32 192.46C462.05 192.16 462.83 192 463.62 192L490 192C490.79 192 491.57 192.16 492.3 192.46C493.02 192.76 493.69 193.2 494.24 193.76C494.8 194.31 495.24 194.98 495.54 195.7C495.84 196.43 496 197.21 496 198L496 256.54C496 258.86 495.75 261.18 495.25 263.44C494.76 265.71 494.01 267.92 493.04 270.02C492.06 272.13 490.86 274.12 489.45 275.97C488.05 277.81 486.44 279.5 484.67 281L460.07 301.79L463.36 384L336.64 384L339.93 301.8L315.36 281ZM384 336L416 336L416 304C416 299.76 414.31 295.69 411.31 292.69C408.31 289.69 404.24 288 400 288C395.76 288 391.69 289.69 388.69 292.69C385.69 295.69 384 299.76 384 304L384 336ZM503.16 459.58C504.48 460.24 505.71 461.08 506.8 462.08C507.89 463.08 508.84 464.22 509.61 465.48C510.39 466.74 510.99 468.1 511.39 469.52C511.8 470.94 512 472.41 512 473.89L512 496C512 498.1 511.59 500.18 510.78 502.12C509.98 504.06 508.8 505.83 507.31 507.31C505.83 508.8 504.06 509.98 502.12 510.78C500.18 511.59 498.1 512 496 512L304 512C301.9 512 299.82 511.59 297.88 510.78C295.94 509.98 294.17 508.8 292.69 507.31C291.2 505.83 290.02 504.06 289.22 502.12C288.41 500.18 288 498.1 288 496L288 473.89C288 472.41 288.21 470.94 288.61 469.52C289.01 468.09 289.61 466.74 290.39 465.48C291.17 464.22 292.12 463.08 293.21 462.08C294.3 461.08 295.53 460.24 296.85 459.58L320 448L320 432C320 429.9 320.41 427.82 321.22 425.88C322.02 423.94 323.2 422.17 324.69 420.69C326.17 419.2 327.94 418.02 329.88 417.22C331.82 416.41 333.9 416 336 416L464 416C466.1 416 468.18 416.41 470.12 417.22C472.06 418.02 473.83 419.2 475.31 420.69C476.8 422.17 477.98 423.94 478.78 425.88C479.59 427.82 480 429.9 480 432L480 448L503.16 459.58Z" />
</svg>