<svg xmlns="http://www.w3.org/2000/svg" viewBox="0 0 512 512" width="512" height="512">
	<style>
		tspan { white-space:pre }
		.shp0 { fill: #ffffff } 
	</style>
	<path id="Layer" fill-rule="evenodd" class="shp0" d="M487.4 315.7C492.3 318.5 494.5 324.3 493 329.8C481.9 365.5 463 397.7 438.3 424.4C434.5 428.6 428.4 429.5 423.5 426.7L380.9 402.1C362.9 417.4 342.3 429.3 320.1 437.2L320.1 486.4C320.1 492 316.2 496.9 310.7 498.1C275.8 505.9 238.2 506.3 201.5 498.1C196 496.9 192.1 492 192.1 486.4L192.1 437.2C169.8 429.4 149.2 417.5 131.3 402.1L88.7 426.7C83.9 429.5 77.7 428.5 73.9 424.4C49.2 397.6 30.3 365.4 19.2 329.8C17.6 324.4 19.8 318.6 24.7 315.8L67.3 291.2C63 268 63 244.2 67.3 221L24.7 196.4C19.8 193.6 17.5 187.8 19.2 182.4C30.3 146.7 49.2 114.5 73.9 87.8C77.7 83.6 83.8 82.7 88.7 85.5L131.2 110.1C149.2 94.8 169.8 82.9 192 75L192 25.8C192 20.2 195.9 15.3 201.4 14.1C236.3 6.3 273.9 5.9 310.6 14.1C316.1 15.3 320 20.2 320 25.8L320 74.9C342.3 82.7 362.9 94.6 380.8 110L423.4 85.4C428.2 82.6 434.4 83.6 438.2 87.7C462.9 114.5 481.8 146.7 492.9 182.3C494.5 187.7 492.3 193.5 487.4 196.3L444.8 220.9C449.1 244.1 449.1 267.9 444.8 291.1L487.4 315.7ZM336 256C336 211.9 300.1 176 256 176C211.9 176 176 211.9 176 256C176 300.1 211.9 336 256 336C300.1 336 336 300.1 336 256Z" />
</svg>