<svg xmlns="http://www.w3.org/2000/svg" viewBox="0 0 448 512" width="448" height="512">
	<style>
		tspan { white-space:pre }
		.shp0 { fill: #ffffff } 
	</style>
	<path id="Layer" fill-rule="evenodd" class="shp0" d="M0 180L0 56C0 42.7 10.7 32 24 32L148 32C154.6 32 160 37.4 160 44L160 84C160 90.6 154.6 96 148 96L64 96L64 180C64 186.6 58.6 192 52 192L12 192C5.4 192 0 186.6 0 180ZM300 32L424 32C437.3 32 448 42.7 448 56L448 180C448 186.6 442.6 192 436 192L396 192C389.4 192 384 186.6 384 180L384 96L300 96C293.4 96 288 90.6 288 84L288 44C288 37.4 293.4 32 300 32ZM448 332L448 456C448 469.3 437.3 480 424 480L300 480C293.4 480 288 474.6 288 468L288 428C288 421.4 293.4 416 300 416L384 416L384 332C384 325.4 389.4 320 396 320L436 320C442.6 320 448 325.4 448 332ZM148 480L24 480C10.7 480 0 469.3 0 456L0 332C0 325.4 5.4 320 12 320L52 320C58.6 320 64 325.4 64 332L64 416L148 416C154.6 416 160 421.4 160 428L160 468C160 474.6 154.6 480 148 480Z" />
</svg>