<?xml version="1.0" encoding="utf-8"?>
<!-- Generator: Adobe Illustrator 26.0.1, SVG Export Plug-In . SVG Version: 6.00 Build 0)  -->
<svg version="1.1" id="Layer_1" xmlns="http://www.w3.org/2000/svg" xmlns:xlink="http://www.w3.org/1999/xlink" x="0px" y="0px"
	 viewBox="0 0 24 24" style="enable-background:new 0 0 24 24;" xml:space="preserve">
<style type="text/css">
	.st0{fill:none;}
	.st1{fill:#FFFFFF;}
</style>
<rect class="st0" width="24" height="24"/>
<g>
	<circle class="st1" cx="16.7" cy="15.2" r="0.4"/>
	<circle class="st1" cx="19.2" cy="17.7" r="0.4"/>
	<circle class="st1" cx="16.7" cy="17.7" r="0.4"/>
	<circle class="st1" cx="18" cy="16.4" r="0.4"/>
	<path class="st1" d="M20,6h-8l-2-2H4C2.9,4,2,4.9,2,6l0,12c0,1.1,0.9,2,2,2h16c1.1,0,2-0.9,2-2V8C22,6.9,21.1,6,20,6z M9.1,9.1
		c0.2-0.2,0.5-0.4,0.8-0.5c0.3-0.1,0.5-0.2,0.8-0.3c0.1,0,0.1,0,0.1-0.2c0-0.2,0-0.3,0.1-0.5c0.1-0.3,0.2-0.4,0.5-0.5
		c0.1-0.1,0.3-0.1,0.5-0.1c0.3,0,0.5,0.2,0.7,0.4c0.1,0.2,0.1,0.4,0.1,0.6c0,0.1,0,0.1,0.1,0.2c0,0,0,0,0,0c0.3,0.1,0.6,0.2,0.9,0.3
		c0.3,0.1,0.5,0.2,0.7,0.5c0.1,0.1,0.2,0.3,0.2,0.5c0,0.2-0.1,0.3-0.3,0.4c-0.1,0-0.2,0-0.3,0.1c-0.2,0-0.3,0-0.5,0
		c-0.1,0-0.2,0.1-0.1,0.2c0.1,0.2,0.1,0.3,0.2,0.5c0.2,0.4,0.4,0.7,0.6,1.1c0.1,0.2,0.2,0.4,0.2,0.6c0,0.1-0.1,0.2-0.2,0.2
		c0,0-0.1,0-0.1,0c-0.2,0-0.4,0-0.6,0c-0.2,0-0.4,0-0.7,0c-0.1,0-0.2,0-0.3-0.2c-0.1-0.1-0.1-0.2-0.2-0.3c-0.1-0.2-0.2-0.4-0.4-0.5
		c-0.1-0.1-0.1-0.1-0.2,0c-0.1,0.1-0.1,0.2-0.2,0.3c-0.1,0.2-0.2,0.4-0.4,0.6c-0.1,0.1-0.2,0.2-0.3,0.2c-0.4,0-0.9,0-1.3,0
		c-0.2,0-0.3-0.1-0.3-0.3c0,0,0,0,0,0c0-0.3,0.1-0.5,0.3-0.7c0.2-0.4,0.4-0.7,0.6-1.1c0.1-0.1,0.1-0.2,0.2-0.3c0-0.1,0-0.2-0.1-0.2
		c-0.1,0-0.1,0-0.2,0c-0.2,0-0.3,0-0.5,0C9.3,10,9.1,9.9,9,9.8C8.9,9.7,8.9,9.4,9.1,9.1z M13.2,18.9h-2.9l-1.4-2.5l1.4-2.5h2.9
		l1.4,2.5L13.2,18.9z M20.5,18.4c0,0.3-0.2,0.6-0.6,0.6H16c-0.3,0-0.6-0.2-0.6-0.6v-3.9c0-0.3,0.2-0.6,0.6-0.6h3.9
		c0.3,0,0.6,0.2,0.6,0.6V18.4z M18,12.7c-1.6-1.5-3.1-2.3-3.1-3.6c0-0.9,0.7-1.7,1.7-1.7c0.7,0,1.1,0.3,1.4,0.7
		c0.3-0.4,0.7-0.7,1.4-0.7c1,0,1.7,0.8,1.7,1.7C21.1,10.4,19.6,11.2,18,12.7z"/>
	<circle class="st1" cx="19.2" cy="15.2" r="0.4"/>
</g>
</svg>
