<?xml version="1.0" encoding="utf-8"?>
<!-- Generator: Adobe Illustrator 26.0.1, SVG Export Plug-In . SVG Version: 6.00 Build 0)  -->
<svg version="1.1" id="Layer_1" xmlns="http://www.w3.org/2000/svg" xmlns:xlink="http://www.w3.org/1999/xlink" x="0px" y="0px"
	 viewBox="0 0 24 24" style="enable-background:new 0 0 24 24;" xml:space="preserve">
<style type="text/css">
	.st0{fill:none;}
	.st1{fill:#FFFFFF;}
</style>
<rect class="st0" width="24" height="24"/>
<rect x="15" y="9" class="st1" width="2" height="2"/>
<rect x="15" y="6" class="st1" width="2" height="2"/>
<rect x="15" y="16" class="st1" width="2" height="2"/>
<path class="st1" d="M21,5V3h-7c-1.1,0-2,0.9-2,2v1.4c0.8,0.5,1.5,1.2,2,2V5h4v14h-4v-3.4c-0.5,0.8-1.2,1.4-2,2V19c0,1.1,0.9,2,2,2
	h7v-2h-1V5H21z"/>
<path class="st1" d="M8.5,6.5C5.5,6.5,3,9,3,12s2.5,5.5,5.5,5.5S14,15,14,12S11.5,6.5,8.5,6.5z M11.5,13h-6v-2h6V13z"/>
</svg>
