<svg xmlns="http://www.w3.org/2000/svg" viewBox="0 0 512 512" width="512" height="512">
	<style>
		tspan { white-space:pre }
		.shp0 { fill: #ffffff } 
	</style>
	<path id="Layer" fill-rule="evenodd" class="shp0" d="M326.97 399.98C326.86 400.1 326.73 400.23 326.61 400.35L259.41 467.55C200.14 526.82 103.71 526.81 44.45 467.55C-14.82 408.29 -14.82 311.85 44.45 252.59L81.56 215.48C91.4 205.64 108.34 212.18 108.85 226.09C109.5 243.81 112.68 261.62 118.54 278.81C120.53 284.63 119.11 291.07 114.76 295.42L101.67 308.51C73.65 336.54 72.77 382.17 100.52 410.47C128.54 439.05 174.6 439.22 202.84 410.98L270.04 343.79C298.23 315.6 298.12 270.03 270.04 241.96C266.34 238.27 262.61 235.4 259.7 233.39C258.67 232.69 257.73 231.86 256.9 230.94C256.06 230.02 255.33 229 254.73 227.91C254.13 226.82 253.66 225.66 253.33 224.46C252.99 223.26 252.8 222.03 252.75 220.79C252.36 210.22 256.1 199.33 264.45 190.98L285.51 169.92C291.03 164.4 299.69 163.73 306.09 168.19C307.92 169.47 309.73 170.79 311.5 172.15C313.27 173.51 315.02 174.91 316.73 176.34C318.44 177.78 320.12 179.25 321.77 180.76C323.42 182.27 325.03 183.81 326.61 185.39C386.36 245.2 385.54 341.09 326.97 399.98ZM467.55 44.45C526.82 103.71 526.82 200.15 467.55 259.41L430.44 296.51C420.6 306.35 403.66 299.81 403.15 285.91C402.5 268.19 399.32 250.38 393.46 233.19C391.47 227.37 392.89 220.93 397.24 216.58L410.33 203.49C438.35 175.46 439.23 129.83 411.48 101.53C383.46 72.95 337.39 72.78 309.16 101.02L241.96 168.21C213.77 196.4 213.88 241.97 241.96 270.04C245.66 273.73 249.39 276.6 252.3 278.61C253.32 279.31 254.26 280.13 255.1 281.06C255.94 281.98 256.66 283 257.26 284.09C257.87 285.18 258.34 286.33 258.67 287.53C259 288.73 259.2 289.97 259.24 291.21C259.64 301.78 255.9 312.67 247.55 321.02L226.49 342.07C220.97 347.59 212.31 348.27 205.91 343.8C204.08 342.53 202.27 341.21 200.5 339.85C198.73 338.49 196.98 337.09 195.27 335.66C193.56 334.22 191.88 332.75 190.23 331.24C188.58 329.73 186.97 328.19 185.39 326.61C125.64 266.8 126.46 170.91 185.03 112.02C185.14 111.9 185.27 111.77 185.39 111.65L252.59 44.45C311.86 -14.82 408.29 -14.81 467.55 44.45Z" />
</svg>