<svg xmlns="http://www.w3.org/2000/svg" viewBox="0 0 448 512" width="448" height="512">
	<style>
		tspan { white-space:pre }
		.shp0 { fill: #ffffff } 
	</style>
	<path id="Layer" class="shp0" d="M416 208L272 208L272 64C272 46.33 257.67 32 240 32L208 32C190.33 32 176 46.33 176 64L176 208L32 208C14.33 208 0 222.33 0 240L0 272C0 289.67 14.33 304 32 304L176 304L176 448C176 465.67 190.33 480 208 480L240 480C257.67 480 272 465.67 272 448L272 304L416 304C433.67 304 448 289.67 448 272L448 240C448 222.33 433.67 208 416 208Z" />
</svg>