<svg xmlns="http://www.w3.org/2000/svg" viewBox="0 0 448 512" width="448" height="512">
	<style>
		tspan { white-space:pre }
		.shp0 { fill: #ffffff } 
	</style>
	<path id="Layer" fill-rule="evenodd" class="shp0" d="M433.94 129.94C436.16 132.16 438.16 134.6 439.91 137.21C441.66 139.83 443.14 142.61 444.35 145.51C445.55 148.42 446.46 151.43 447.08 154.52C447.69 157.6 448 160.74 448 163.88L448 432C448 458.51 426.51 480 400 480L48 480C21.49 480 0 458.51 0 432L0 80C0 53.49 21.49 32 48 32L316.12 32C319.26 32 322.4 32.31 325.48 32.92C328.57 33.54 331.58 34.45 334.49 35.65C337.39 36.86 340.17 38.34 342.79 40.09C345.4 41.84 347.84 43.84 350.06 46.06L433.94 129.94ZM396.3 431.54C397.02 431.24 397.69 430.8 398.24 430.24C398.8 429.69 399.24 429.02 399.54 428.3C399.84 427.57 400 426.79 400 426L400 166.37C400 165.97 399.96 165.58 399.88 165.2C399.81 164.81 399.69 164.43 399.54 164.07C399.39 163.71 399.21 163.36 398.99 163.03C398.77 162.71 398.52 162.4 398.24 162.13L320 83.88L320 184C320 197.25 309.25 208 296 208L120 208C106.75 208 96 197.25 96 184L96 80L54 80C53.21 80 52.43 80.16 51.7 80.46C50.98 80.76 50.31 81.2 49.76 81.76C49.2 82.31 48.76 82.98 48.46 83.7C48.16 84.43 48 85.21 48 86L48 426C48 426.79 48.16 427.57 48.46 428.3C48.76 429.02 49.2 429.69 49.76 430.24C50.31 430.8 50.98 431.24 51.7 431.54C52.43 431.84 53.21 432 54 432L394 432C394.79 432 395.57 431.84 396.3 431.54ZM144 80L144 160L272 160L272 80L144 80ZM312 320C312 368.52 272.52 408 224 408C175.48 408 136 368.52 136 320C136 271.48 175.48 232 224 232C272.52 232 312 271.48 312 320ZM264 320C264 297.94 246.06 280 224 280C201.94 280 184 297.94 184 320C184 342.06 201.94 360 224 360C246.06 360 264 342.06 264 320Z" />
</svg>