<svg xmlns="http://www.w3.org/2000/svg" viewBox="0 0 512 512" width="512" height="512">
	<style>
		tspan { white-space:pre }
		.shp0 { fill: #ffffff } 
	</style>
	<path id="Layer" class="shp0" d="M370.72 133.28C339.46 104.01 298.89 87.96 255.85 88C178.39 88.07 111.52 141.18 93.06 214.85C91.71 220.21 86.94 224 81.41 224L24.1 224C16.61 224 10.91 217.19 12.3 209.82C33.93 94.92 134.81 8 256 8C322.45 8 382.79 34.14 427.31 76.69L463.03 40.97C478.15 25.85 504 36.56 504 57.94L504 192C504 205.25 493.25 216 480 216L345.94 216C324.56 216 313.85 190.15 328.97 175.03L370.72 133.28L370.72 133.28ZM32 296L166.06 296C187.44 296 198.15 321.85 183.03 336.97L141.28 378.72C172.54 407.99 213.12 424.04 256.16 424C333.57 423.93 400.47 370.86 418.94 297.15C420.29 291.79 425.06 288 430.59 288L487.9 288C495.4 288 501.09 294.81 499.71 302.18C478.07 417.08 377.19 504 256 504C189.55 504 129.21 477.86 84.69 435.31L48.97 471.03C33.85 486.15 8 475.44 8 454.06L8 320C8 306.75 18.74 296 32 296Z" />
</svg>