<svg xmlns="http://www.w3.org/2000/svg" viewBox="0 0 448 512" width="448" height="512">
	<style>
		tspan { white-space:pre }
		.shp0 { fill: #ffffff } 
	</style>
	<path id="Layer" fill-rule="evenodd" class="shp0" d="M32 128L416 128L416 464C416 470.3 414.76 476.55 412.35 482.37C409.93 488.19 406.4 493.48 401.94 497.94C397.48 502.4 392.19 505.93 386.37 508.35C380.55 510.76 374.3 512 368 512L80 512C73.7 512 67.45 510.76 61.63 508.35C55.81 505.93 50.52 502.4 46.06 497.94C41.6 493.48 38.07 488.19 35.65 482.37C33.24 476.55 32 470.3 32 464L32 128ZM304 432C304 436.24 305.69 440.31 308.69 443.31C311.69 446.31 315.76 448 320 448C324.24 448 328.31 446.31 331.31 443.31C334.31 440.31 336 436.24 336 432L336 208C336 203.76 334.31 199.69 331.31 196.69C328.31 193.69 324.24 192 320 192C315.76 192 311.69 193.69 308.69 196.69C305.69 199.69 304 203.76 304 208L304 432ZM208 432C208 436.24 209.69 440.31 212.69 443.31C215.69 446.31 219.76 448 224 448C228.24 448 232.31 446.31 235.31 443.31C238.31 440.31 240 436.24 240 432L240 208C240 203.76 238.31 199.69 235.31 196.69C232.31 193.69 228.24 192 224 192C219.76 192 215.69 193.69 212.69 196.69C209.69 199.69 208 203.76 208 208L208 432ZM112 432C112 436.24 113.69 440.31 116.69 443.31C119.69 446.31 123.76 448 128 448C132.24 448 136.31 446.31 139.31 443.31C142.31 440.31 144 436.24 144 432L144 208C144 203.76 142.31 199.69 139.31 196.69C136.31 193.69 132.24 192 128 192C123.76 192 119.69 193.69 116.69 196.69C113.69 199.69 112 203.76 112 208L112 432ZM438.12 33.22C440.06 34.02 441.83 35.2 443.31 36.69C444.8 38.17 445.98 39.94 446.78 41.88C447.59 43.82 448 45.9 448 48L448 80C448 82.1 447.59 84.18 446.78 86.12C445.98 88.06 444.8 89.83 443.31 91.31C441.83 92.8 440.06 93.98 438.12 94.78C436.18 95.59 434.1 96 432 96L16 96C13.9 96 11.82 95.59 9.88 94.78C7.94 93.98 6.17 92.8 4.69 91.31C3.2 89.83 2.02 88.06 1.22 86.12C0.41 84.18 0 82.1 0 80L0 48C0 45.9 0.41 43.82 1.22 41.88C2.02 39.94 3.2 38.17 4.69 36.69C6.17 35.2 7.94 34.02 9.88 33.22C11.82 32.41 13.9 32 16 32L136 32L145.4 13.3C146.37 11.31 147.62 9.46 149.11 7.82C150.6 6.17 152.3 4.74 154.19 3.57C156.07 2.4 158.11 1.5 160.24 0.9C162.38 0.29 164.58 -0.01 166.8 0L281.1 0C283.32 0 285.53 0.31 287.67 0.91C289.81 1.52 291.85 2.42 293.74 3.59C295.63 4.76 297.35 6.18 298.85 7.83C300.35 9.47 301.61 11.31 302.6 13.3L312 32L432 32C434.1 32 436.18 32.41 438.12 33.22Z" />
</svg>