<svg xmlns="http://www.w3.org/2000/svg" viewBox="0 0 640 512" width="640" height="512">
	<style>
		tspan { white-space:pre }
		.shp0 { fill: #ffffff } 
	</style>
	<path id="Layer" class="shp0" d="M192 256C253.9 256 304 205.9 304 144C304 82.1 253.9 32 192 32C130.1 32 80 82.1 80 144C80 205.9 130.1 256 192 256ZM268.8 288L260.5 288C239.7 298 216.6 304 192 304C167.4 304 144.4 298 123.5 288L115.2 288C51.6 288 0 339.6 0 403.2L0 432C0 458.5 21.5 480 48 480L336 480C362.5 480 384 458.5 384 432L384 403.2C384 339.6 332.4 288 268.8 288ZM480 256C533 256 576 213 576 160C576 107 533 64 480 64C427 64 384 107 384 160C384 213 427 256 480 256ZM528 288L524.2 288C510.3 292.8 495.6 296 480 296C464.4 296 449.7 292.8 435.8 288L432 288C411.6 288 392.8 293.9 376.3 303.4C400.7 329.7 416 364.6 416 403.2L416 441.6C416 443.8 415.5 445.9 415.4 448L592 448C618.5 448 640 426.5 640 400C640 338.1 589.9 288 528 288L528 288Z" />
</svg>