<svg xmlns="http://www.w3.org/2000/svg" viewBox="0 0 448 512" width="448" height="512">
	<style>
		tspan { white-space:pre }
		.shp0 { fill: #ffffff } 
	</style>
	<path id="Layer" class="shp0" d="M224 256C294.7 256 352 198.7 352 128C352 57.3 294.7 0 224 0C153.3 0 96 57.3 96 128C96 198.7 153.3 256 224 256ZM313.6 288L296.9 288C274.7 298.2 250 304 224 304C198 304 173.4 298.2 151.1 288L134.4 288C60.2 288 0 348.2 0 422.4L0 464C0 490.5 21.5 512 48 512L400 512C426.5 512 448 490.5 448 464L448 422.4C448 348.2 387.8 288 313.6 288Z" />
</svg>