<svg id="Layer_1" data-name="Layer 1" xmlns="http://www.w3.org/2000/svg" viewBox="0 0 512 512"><path d="M511.43,110.08a28,28,0,0,0-1.34-4.66L505,91.91a28.44,28.44,0,0,0-7.4-11.42,33,33,0,0,0-14.66-7.82,46.36,46.36,0,0,0-16.6-.93L322.93,88.2a99.2,99.2,0,0,1-13.42,42l147.7-15.57-89,253.06a9.22,9.22,0,0,1-1.53,2.7,11.16,11.16,0,0,1-2.52,2.33,8.6,8.6,0,0,1-2.54,1.21,3.15,3.15,0,0,1-1.23.14L45.85,329.76,152.33,149.63a7.65,7.65,0,0,1,.95-1.23,11.94,11.94,0,0,1,1.55-1.38,8,8,0,0,1,1.07-.67l34.25-3.61a61,61,0,0,1,16.12-7,94.49,94.49,0,0,1-14.69-32.48l-34.24,3.93a40,40,0,0,0-12,3.48A58.16,58.16,0,0,0,135,116.85a67.33,67.33,0,0,0-9.15,8.14,59.89,59.89,0,0,0-7.58,10L7.73,320.15a58.59,58.59,0,0,0-5.88,13.08A38.93,38.93,0,0,0,.06,347a28.41,28.41,0,0,0,1.67,8l2.92,8.44a24.6,24.6,0,0,0,3.94,7.74,23.24,23.24,0,0,0,14.76,8.77l164.81,29.69h0L325,434.29h0l31.29,5.64.18,0a47.91,47.91,0,0,0,7.86.65A52.16,52.16,0,0,0,377.18,439a61.35,61.35,0,0,0,18.72-8.33,66.88,66.88,0,0,0,15.34-14,62.28,62.28,0,0,0,10.38-18.57c0-.1.07-.2.1-.29L510,127.45A33.12,33.12,0,0,0,511.43,110.08Zm-50.8-5.21h0v0Z" style="fill:#fff"/><path d="M351.94,216.57c-4.15-19-10.44-35.33-19.09-46.94s-19.14-18.78-34.46-21.16l-19.68-3.05.22,0,.07,0,12.42-15.56c10.05-12.59,16.86-30.69,16.86-50.88,0-40.05-25-69.7-52.28-69.7l-5.13-.09C226.15,12.4,203.72,41.41,203.72,79c0,20.69,7.16,39,17.66,51.66l12.53,15.09h-.29l-19.27,3.63h0c-13.65,2.56-23.67,9.78-32.23,21.52S167,199,162.45,217.85C154.14,252,152.32,293.72,152,330.5H197.4l.4,5.41,117.52,16.54,1.45-21.95H360C359.94,293.28,359.47,251,351.94,216.57Z" style="fill:#fff"/><path d="M209.85,497.55a221.54,221.54,0,0,0,95.89,0l3.36-50.83L204.66,427.94Z" style="fill:#fff"/></svg>