<svg xmlns="http://www.w3.org/2000/svg" xmlns:xlink="http://www.w3.org/1999/xlink" width="180" height="280" xmlns:v="https://vecta.io/nano"><style><![CDATA[.D{fill:#dfc800}.E{fill:#fe0000}.F{fill-rule:evenodd}.G{fill:#0000fe}]]></style><path d="M23.9 69.9c-9.6-9.5-11.4-14.5-7.7-21.7 1.8-3.4 6.1-7.7 9.5-9.5 5.4-2.8 7.1-2.8 12.5.1 8.4 4.4 13.4 14.3 10.3 20.2-2.8 5.3-15 17.1-17.3 16.8-.9-.1-4.1-2.8-7.3-5.9z" class="D"/><g class="E"><path d="M27.7 72.6c-.8-1.9-.4-3.4.9-3.4 1.2 0 2.2 1.3 2.3 2.9.2 2.2.4 2.2 1.4 0 .6-1.6 2-2.9 3.1-2.9s1.5 1.5.7 3.4c-.7 1.9-2.6 3.4-4.2 3.4s-3.5-1.5-4.2-3.4z"/><path d="M16.9 61.5c-3.7-6-3.8-7.4-.8-13.1 1.8-3.5 6.1-7.9 9.5-9.6 5.4-2.9 7.1-2.9 12.5-.1 3.4 1.8 7.7 6.2 9.6 9.7 2.9 5.7 2.9 7.1-.7 12.9-3.4 5.6-5.3 6.5-15 6.7-9.9.2-11.5-.5-15.1-6.5zm30.4-5.3c3.3-1.8-.5-4.6-8.1-5.8-9.1-1.5-23.3 1-23.1 4.1.2 4.5 24.1 5.8 31.2 1.7zM35.5 39.8c-1.7-1.1-4.6-1.5-6.2-.9-4.9 1.9-3.6 3 3.2 3 4.5-.1 5.4-.6 3-2.1z" class="F"/></g><g class="G"><use xlink:href="#B"/><use xlink:href="#C"/></g><path d="M23.9 110.9c-9.6-9.5-11.4-14.5-7.7-21.7 1.8-3.4 6.1-7.7 9.5-9.5 5.4-2.8 7.1-2.8 12.5 0 8.4 4.4 13.4 14.4 10.3 20.3-2.8 5.3-15 17.1-17.3 16.8-.9-.2-4.1-2.8-7.3-5.9z" class="D"/><g class="E"><path d="M27.7 113.6c-.8-1.9-.4-3.4.9-3.4 1.2 0 2.2 1.3 2.3 2.8.2 2.3.4 2.3 1.4 0 .6-1.5 2-2.8 3.1-2.8s1.5 1.5.7 3.4c-.7 1.9-2.6 3.4-4.2 3.4s-3.5-1.5-4.2-3.4z"/><path d="M16.9 102.5c-3.7-6-3.8-7.4-.8-13.1 1.8-3.5 6.1-7.9 9.5-9.7 5.4-2.8 7.1-2.8 12.5 0 3.4 1.8 7.7 6.1 9.6 9.7 2.9 5.7 2.9 7-.7 12.9-3.4 5.6-5.3 6.5-15 6.7-9.9.2-11.5-.5-15.1-6.5zm30.4-5.3c3.3-1.9-.5-4.6-8.1-5.9-9.1-1.4-23.3 1.1-23.1 4.2.2 4.5 24.1 5.8 31.2 1.7zM35.5 80.8c-1.7-1.1-4.6-1.5-6.2-.9-4.9 1.9-3.6 3 3.2 2.9 4.5 0 5.4-.6 3-2z" class="F"/></g><g class="G"><use xlink:href="#B" y="41"/><use xlink:href="#C" y="41"/></g><path d="M58.1 49.4c-9.6-9.5-11.4-14.5-7.7-21.6 1.8-3.5 6-7.8 9.5-9.5 5.4-2.8 7.1-2.8 12.4 0 8.5 4.4 13.5 14.3 10.4 20.2-2.9 5.3-15.1 17.2-17.3 16.8-.9-.1-4.2-2.8-7.3-5.9z" class="D"/><g class="E"><path d="M61.8 52.1c-.7-1.8-.3-3.4.9-3.4s2.3 1.3 2.4 2.9c.2 2.2.4 2.2 1.3 0 .7-1.6 2.1-2.9 3.2-2.9s1.4 1.6.7 3.4c-.7 1.9-2.6 3.5-4.2 3.5s-3.5-1.6-4.3-3.5z"/><path d="M51.1 41c-3.7-6-3.8-7.4-.8-13.1 1.8-3.5 6.1-7.8 9.5-9.6 5.4-2.8 7.1-2.8 12.5 0 3.4 1.7 7.7 6.1 9.5 9.6 3 5.7 2.9 7.1-.6 12.9-3.4 5.7-5.3 6.5-15 6.7-9.9.2-11.5-.5-15.1-6.5zm30.4-5.3c3.3-1.8-.5-4.6-8.1-5.8-9.1-1.5-23.3 1-23.1 4.1.2 4.5 24 5.8 31.2 1.7zM69.7 19.3c-1.8-1.1-4.6-1.5-6.3-.9-4.8 1.9-3.6 3 3.2 3 4.6-.1 5.4-.6 3.1-2.1z" class="F"/></g><g class="G"><use xlink:href="#D"/><path d="M53.4 41.6c-2.4-4.5-2.2-4.8 2.7-3.2 3 1 7.5 1.7 10 1.7s7-.7 9.9-1.7c5-1.6 5.2-1.3 2.8 3.2-2.1 3.8-4.7 4.8-12.7 4.8s-10.7-1-12.7-4.8z"/></g><path d="M58.1 90.4c-9.6-9.5-11.4-14.5-7.7-21.7 1.8-3.4 6-7.7 9.5-9.5 5.4-2.8 7.1-2.8 12.4 0 8.5 4.4 13.5 14.4 10.4 20.3-2.9 5.3-15.1 17.1-17.3 16.8-.9-.1-4.2-2.8-7.3-5.9z" class="D"/><g class="E"><use xlink:href="#E"/><path d="M51.1 82c-3.7-6-3.8-7.4-.8-13.1 1.8-3.5 6.1-7.9 9.5-9.7 5.4-2.8 7.1-2.8 12.5 0 3.4 1.8 7.7 6.1 9.5 9.7 3 5.7 2.9 7.1-.6 12.9-3.4 5.6-5.3 6.5-15 6.7-9.9.2-11.5-.5-15.1-6.5zm30.4-5.3c3.3-1.9-.5-4.6-8.1-5.8-9.1-1.5-23.3 1-23.1 4.1.2 4.5 24 5.8 31.2 1.7zM69.7 60.3c-1.8-1.1-4.6-1.5-6.3-.9-4.8 1.9-3.6 3 3.2 2.9 4.6 0 5.4-.5 3.1-2z" class="F"/></g><g class="G"><use xlink:href="#D" y="41"/><use xlink:href="#F"/></g><path d="M58.1 131.4c-9.6-9.5-11.4-14.5-7.7-21.7 1.8-3.4 6-7.7 9.5-9.5 5.4-2.8 7.1-2.8 12.4 0 8.5 4.4 13.5 14.4 10.4 20.3-2.9 5.3-15.1 17.1-17.3 16.8-.9-.2-4.2-2.8-7.3-5.9z" class="D"/><g class="E"><use xlink:href="#E" y="41"/><path d="M51.1 123c-3.7-6.1-3.8-7.4-.8-13.1 1.8-3.6 6.1-7.9 9.5-9.7 5.4-2.8 7.1-2.8 12.5 0 3.4 1.8 7.7 6.1 9.5 9.6 3 5.8 2.9 7.1-.6 12.9-3.4 5.7-5.3 6.6-15 6.8-9.9.1-11.5-.5-15.1-6.5zm30.4-5.3c3.3-1.9-.5-4.6-8.1-5.9-9.1-1.4-23.3 1.1-23.1 4.2.2 4.5 24 5.8 31.2 1.7zm-11.8-16.4c-1.8-1.2-4.6-1.5-6.3-.9-4.8 1.8-3.6 3 3.2 2.9 4.6 0 5.4-.6 3.1-2z" class="F"/></g><g class="G"><path d="M53.4 108.2c2-3.8 4.7-4.8 12.7-4.8s10.6 1 12.7 4.8c2.4 4.5 2.2 4.8-2.8 3.2-2.9-1-7.4-1.7-9.9-1.7s-7 .7-10 1.7c-4.9 1.6-5.1 1.3-2.7-3.2z"/><use xlink:href="#F" y="41"/></g><path d="M103.7 49.4c-9.7-9.5-11.5-14.5-7.8-21.6 1.8-3.5 6.1-7.8 9.5-9.5 5.5-2.8 7.1-2.8 12.5 0 8.4 4.4 13.5 14.3 10.3 20.2-2.8 5.3-15 17.2-17.3 16.8-.8-.1-4.1-2.8-7.2-5.9z" class="D"/><g class="E"><path d="M107.4 52.1c-.7-1.8-.3-3.4.9-3.4s2.3 1.3 2.4 2.9c.1 2.2.4 2.2 1.3 0 .6-1.6 2.1-2.9 3.2-2.9s1.4 1.6.7 3.4c-.7 1.9-2.6 3.5-4.3 3.5-1.6 0-3.5-1.6-4.2-3.5z"/><path d="M96.6 41c-3.6-6-3.7-7.4-.7-13.1 1.8-3.5 6.1-7.8 9.5-9.6 5.3-2.8 7-2.8 12.4 0 3.5 1.7 7.8 6.1 9.6 9.6 3 5.7 2.9 7.1-.6 12.9-3.4 5.7-5.4 6.5-15 6.7-9.9.2-11.5-.5-15.2-6.5zm30.5-5.3c3.3-1.8-.5-4.6-8.2-5.8-9.1-1.5-23.3 1-23.1 4.1.3 4.5 24.1 5.8 31.3 1.7zm-11.8-16.4c-1.8-1.1-4.6-1.5-6.3-.9-4.8 1.9-3.6 3 3.2 3 4.6-.1 5.4-.6 3.1-2.1z" class="F"/></g><g class="G"><use xlink:href="#G"/><path d="M98.9 41.6c-2.4-4.5-2.2-4.8 2.8-3.2 3 1 7.4 1.7 9.9 1.7 2.6 0 7-.7 10-1.7 4.9-1.6 5.2-1.3 2.8 3.2-2.1 3.8-4.8 4.8-12.8 4.8-7.9 0-10.6-1-12.7-4.8z"/></g><path d="M103.7 90.4c-9.7-9.5-11.5-14.5-7.8-21.7 1.8-3.4 6.1-7.7 9.5-9.5 5.5-2.8 7.1-2.8 12.5 0 8.4 4.4 13.5 14.4 10.3 20.3-2.8 5.3-15 17.1-17.3 16.8-.8-.1-4.1-2.8-7.2-5.9z" class="D"/><g class="E"><use xlink:href="#H"/><path d="M96.6 82c-3.6-6-3.7-7.4-.7-13.1 1.8-3.5 6.1-7.9 9.5-9.7 5.3-2.8 7-2.8 12.4 0 3.5 1.8 7.8 6.1 9.6 9.7 3 5.7 2.9 7.1-.6 12.9-3.4 5.6-5.4 6.5-15 6.7-9.9.2-11.5-.5-15.2-6.5zm30.5-5.3c3.3-1.9-.5-4.6-8.2-5.8-9.1-1.5-23.3 1-23.1 4.1.3 4.5 24.1 5.8 31.3 1.7zm-11.8-16.4c-1.8-1.1-4.6-1.5-6.3-.9-4.8 1.9-3.6 3 3.2 2.9 4.6 0 5.4-.5 3.1-2z" class="F"/></g><g class="G"><use xlink:href="#G" y="41"/><use xlink:href="#I"/></g><path d="M103.7 131.4c-9.7-9.5-11.5-14.5-7.8-21.7 1.8-3.4 6.1-7.7 9.5-9.5 5.5-2.8 7.1-2.8 12.5 0 8.4 4.4 13.5 14.4 10.3 20.3-2.8 5.3-15 17.1-17.3 16.8-.8-.2-4.1-2.8-7.2-5.9z" class="D"/><g class="E"><use xlink:href="#H" y="41"/><path d="M96.6 123c-3.6-6.1-3.7-7.4-.7-13.1 1.8-3.6 6.1-7.9 9.5-9.7 5.3-2.8 7-2.8 12.4 0 3.5 1.8 7.8 6.1 9.6 9.6 3 5.8 2.9 7.1-.6 12.9-3.4 5.7-5.4 6.6-15 6.8-9.9.1-11.5-.5-15.2-6.5zm30.5-5.3c3.3-1.9-.5-4.6-8.2-5.9-9.1-1.4-23.3 1.1-23.1 4.2.3 4.5 24.1 5.8 31.3 1.7zm-11.8-16.4c-1.8-1.2-4.6-1.5-6.3-.9-4.8 1.8-3.6 3 3.2 2.9 4.6 0 5.4-.6 3.1-2z" class="F"/></g><g class="G"><path d="M98.9 108.2c2.1-3.8 4.8-4.8 12.7-4.8 8 0 10.7 1 12.8 4.8 2.4 4.5 2.1 4.8-2.8 3.2-3-1-7.4-1.7-10-1.7-2.5 0-6.9.7-9.9 1.7-5 1.6-5.2 1.3-2.8-3.2z"/><use xlink:href="#I" y="41"/></g><path d="M137.8 69.9c-9.6-9.5-11.4-14.5-7.7-21.7 1.8-3.4 6.1-7.7 9.5-9.5 5.4-2.8 7.1-2.8 12.5.1 8.4 4.4 13.5 14.3 10.3 20.2-2.8 5.3-15 17.1-17.3 16.8-.8-.1-4.1-2.8-7.3-5.9z" class="D"/><g class="E"><path d="M141.6 72.6c-.7-1.9-.3-3.4.9-3.4s2.3 1.3 2.4 2.9c.1 2.2.4 2.2 1.3 0 .6-1.6 2-2.9 3.2-2.9 1.1 0 1.4 1.5.7 3.4-.8 1.9-2.7 3.4-4.3 3.4s-3.5-1.5-4.2-3.4z"/><path d="M130.8 61.5c-3.7-6-3.7-7.4-.8-13.1 1.9-3.5 6.1-7.9 9.6-9.6 5.3-2.9 7-2.9 12.4-.1 3.5 1.8 7.8 6.2 9.6 9.7 3 5.7 2.9 7.1-.6 12.9-3.5 5.6-5.4 6.5-15 6.7-10 .2-11.5-.5-15.2-6.5zm30.4-5.3c3.3-1.8-.5-4.6-8.1-5.8-9.1-1.5-23.3 1-23.1 4.1.3 4.5 24.1 5.8 31.2 1.7zm-11.8-16.4c-1.7-1.1-4.5-1.5-6.2-.9-4.8 1.9-3.6 3 3.2 3 4.6-.1 5.4-.6 3-2.1z" class="F"/></g><g class="G"><use xlink:href="#J"/><use xlink:href="#K"/></g><path d="M137.8 110.9c-9.6-9.5-11.4-14.5-7.7-21.7 1.8-3.4 6.1-7.7 9.5-9.5 5.4-2.8 7.1-2.8 12.5 0 8.4 4.4 13.5 14.4 10.3 20.3-2.8 5.3-15 17.1-17.3 16.8-.8-.2-4.1-2.8-7.3-5.9z" class="D"/><g class="E"><path d="M141.6 113.6c-.7-1.9-.3-3.4.9-3.4s2.3 1.3 2.4 2.8c.1 2.3.4 2.3 1.3 0 .6-1.5 2-2.8 3.2-2.8 1.1 0 1.4 1.5.7 3.4-.8 1.9-2.7 3.4-4.3 3.4s-3.5-1.5-4.2-3.4z"/><path d="M130.8 102.5c-3.7-6-3.7-7.4-.8-13.1 1.9-3.5 6.1-7.9 9.6-9.7 5.3-2.8 7-2.8 12.4 0 3.5 1.8 7.8 6.1 9.6 9.7 3 5.7 2.9 7-.6 12.9-3.5 5.6-5.4 6.5-15 6.7-10 .2-11.5-.5-15.2-6.5zm30.4-5.3c3.3-1.9-.5-4.6-8.1-5.9-9.1-1.4-23.3 1.1-23.1 4.2.3 4.5 24.1 5.8 31.2 1.7zm-11.8-16.4c-1.7-1.1-4.5-1.5-6.2-.9-4.8 1.9-3.6 3 3.2 2.9 4.6 0 5.4-.6 3-2z" class="F"/></g><g class="G"><use xlink:href="#J" y="41"/><use xlink:href="#K" y="41"/></g><path d="M156.1 210.1c9.6 9.5 11.4 14.5 7.7 21.7-1.8 3.4-6.1 7.7-9.5 9.5-5.4 2.8-7.1 2.8-12.5-.1-8.4-4.4-13.4-14.3-10.3-20.2 2.8-5.3 15-17.1 17.3-16.8.9.1 4.1 2.8 7.3 5.9z" class="D"/><g class="E"><path d="M152.3 207.4c.8 1.9.4 3.4-.9 3.4-1.2 0-2.2-1.3-2.3-2.9-.2-2.2-.4-2.2-1.4 0-.6 1.6-2 2.9-3.1 2.9s-1.5-1.5-.7-3.4c.7-1.9 2.6-3.4 4.2-3.4s3.5 1.5 4.2 3.4z"/><path d="M163.1 218.5c3.7 6 3.8 7.4.8 13.1-1.8 3.5-6.1 7.9-9.5 9.6-5.4 2.9-7.1 2.9-12.5.1-3.4-1.8-7.7-6.2-9.6-9.7-2.9-5.7-2.9-7.1.7-12.9 3.4-5.6 5.3-6.5 15-6.7 9.9-.2 11.5.5 15.1 6.5zm-30.4 5.3c-3.3 1.8.5 4.6 8.1 5.8 9.1 1.5 23.3-1 23.1-4.1-.2-4.5-24.1-5.8-31.2-1.7zm11.8 16.4c1.7 1.1 4.6 1.5 6.2.9 4.9-1.9 3.6-3-3.2-3-4.5.1-5.4.6-3 2.1z" class="F"/></g><g class="G"><use xlink:href="#L"/><use xlink:href="#M"/></g><path d="M156.1 169.1c9.6 9.5 11.4 14.5 7.7 21.7-1.8 3.4-6.1 7.7-9.5 9.5-5.4 2.8-7.1 2.8-12.5 0-8.4-4.4-13.4-14.4-10.3-20.3 2.8-5.3 15-17.1 17.3-16.8.9.2 4.1 2.8 7.3 5.9z" class="D"/><g class="E"><path d="M152.3 166.4c.8 1.9.4 3.4-.9 3.4-1.2 0-2.2-1.3-2.3-2.8-.2-2.3-.4-2.3-1.4 0-.6 1.5-2 2.8-3.1 2.8s-1.5-1.5-.7-3.4c.7-1.9 2.6-3.4 4.2-3.4s3.5 1.5 4.2 3.4z"/><path d="M163.1 177.5c3.7 6 3.8 7.4.8 13.1-1.8 3.5-6.1 7.9-9.5 9.7-5.4 2.8-7.1 2.8-12.5 0-3.4-1.8-7.7-6.1-9.6-9.7-2.9-5.7-2.9-7 .7-12.9 3.4-5.6 5.3-6.5 15-6.7 9.9-.2 11.5.5 15.1 6.5zm-30.4 5.3c-3.3 1.9.5 4.6 8.1 5.9 9.1 1.4 23.3-1.1 23.1-4.2-.2-4.5-24.1-5.8-31.2-1.7zm11.8 16.4c1.7 1.1 4.6 1.5 6.2.9 4.9-1.9 3.6-3-3.2-2.9-4.5 0-5.4.6-3 2z" class="F"/></g><g class="G"><use xlink:href="#L" y="-41"/><use xlink:href="#M" y="-41"/></g><path d="M121.9 230.6c9.6 9.5 11.4 14.5 7.7 21.6-1.8 3.5-6 7.8-9.5 9.5-5.4 2.8-7.1 2.8-12.4 0-8.5-4.4-13.5-14.3-10.4-20.2 2.9-5.3 15.1-17.2 17.3-16.8.9.1 4.2 2.8 7.3 5.9z" class="D"/><g class="E"><path d="M118.2 227.9c.7 1.8.3 3.4-.9 3.4s-2.3-1.3-2.4-2.9c-.2-2.2-.4-2.2-1.3 0-.7 1.6-2.1 2.9-3.2 2.9s-1.4-1.6-.7-3.4c.7-1.9 2.6-3.5 4.2-3.5s3.5 1.6 4.3 3.5z"/><path d="M128.9 239c3.7 6 3.8 7.4.8 13.1-1.8 3.5-6.1 7.8-9.5 9.6-5.4 2.8-7.1 2.8-12.5 0-3.4-1.7-7.7-6.1-9.5-9.6-3-5.7-2.9-7.1.6-12.9 3.4-5.7 5.3-6.5 15-6.7 9.9-.2 11.5.5 15.1 6.5zm-30.4 5.3c-3.3 1.8.5 4.6 8.1 5.8 9.1 1.5 23.3-1 23.1-4.1-.2-4.5-24-5.8-31.2-1.7zm11.8 16.4c1.8 1.1 4.6 1.5 6.3.9 4.8-1.9 3.6-3-3.2-3-4.6.1-5.4.6-3.1 2.1z" class="F"/></g><g class="G"><use xlink:href="#N"/><path d="M126.6 238.4c2.4 4.5 2.2 4.8-2.7 3.2-3-1-7.5-1.7-10-1.7s-7 .7-9.9 1.7c-5 1.6-5.2 1.3-2.8-3.2 2.1-3.8 4.7-4.8 12.7-4.8s10.7 1 12.7 4.8z"/></g><path d="M121.9 189.6c9.6 9.5 11.4 14.5 7.7 21.7-1.8 3.4-6 7.7-9.5 9.5-5.4 2.8-7.1 2.8-12.4 0-8.5-4.4-13.5-14.4-10.4-20.3 2.9-5.3 15.1-17.1 17.3-16.8.9.1 4.2 2.8 7.3 5.9z" class="D"/><g class="E"><use xlink:href="#O"/><path d="M128.9 198c3.7 6 3.8 7.4.8 13.1-1.8 3.5-6.1 7.9-9.5 9.7-5.4 2.8-7.1 2.8-12.5 0-3.4-1.8-7.7-6.1-9.5-9.7-3-5.7-2.9-7.1.6-12.9 3.4-5.6 5.3-6.5 15-6.7 9.9-.2 11.5.5 15.1 6.5zm-30.4 5.3c-3.3 1.9.5 4.6 8.1 5.8 9.1 1.5 23.3-1 23.1-4.1-.2-4.5-24-5.8-31.2-1.7zm11.8 16.4c1.8 1.1 4.6 1.5 6.3.9 4.8-1.9 3.6-3-3.2-2.9-4.6 0-5.4.5-3.1 2z" class="F"/></g><g class="G"><use xlink:href="#N" y="-41"/><use xlink:href="#P"/></g><path d="M121.9 148.6c9.6 9.5 11.4 14.5 7.7 21.7-1.8 3.4-6 7.7-9.5 9.5-5.4 2.8-7.1 2.8-12.4 0-8.5-4.4-13.5-14.4-10.4-20.3 2.9-5.3 15.1-17.1 17.3-16.8.9.2 4.2 2.8 7.3 5.9z" class="D"/><g class="E"><use xlink:href="#O" y="-41"/><path d="M128.9 157c3.7 6.1 3.8 7.4.8 13.1-1.8 3.6-6.1 7.9-9.5 9.7-5.4 2.8-7.1 2.8-12.5 0-3.4-1.8-7.7-6.1-9.5-9.6-3-5.8-2.9-7.1.6-12.9 3.4-5.7 5.3-6.6 15-6.8 9.9-.1 11.5.5 15.1 6.5zm-30.4 5.3c-3.3 1.9.5 4.6 8.1 5.9 9.1 1.4 23.3-1.1 23.1-4.2-.2-4.5-24-5.8-31.2-1.7zm11.8 16.4c1.8 1.2 4.6 1.5 6.3.9 4.8-1.8 3.6-3-3.2-2.9-4.6 0-5.4.6-3.1 2z" class="F"/></g><g class="G"><path d="M126.6 171.8c-2 3.8-4.7 4.8-12.7 4.8s-10.6-1-12.7-4.8c-2.4-4.5-2.2-4.8 2.8-3.2 2.9 1 7.4 1.7 9.9 1.7s7-.7 10-1.7c4.9-1.6 5.1-1.3 2.7 3.2z"/><use xlink:href="#P" y="-41"/></g><path d="M76.3 230.6c9.7 9.5 11.5 14.5 7.8 21.6-1.8 3.5-6.1 7.8-9.5 9.5-5.5 2.8-7.1 2.8-12.5 0-8.4-4.4-13.5-14.3-10.3-20.2 2.8-5.3 15-17.2 17.3-16.8.8.1 4.1 2.8 7.2 5.9z" class="D"/><g class="E"><path d="M72.6 227.9c.7 1.8.3 3.4-.9 3.4s-2.3-1.3-2.4-2.9c-.1-2.2-.4-2.2-1.3 0-.6 1.6-2.1 2.9-3.2 2.9s-1.4-1.6-.7-3.4c.7-1.9 2.6-3.5 4.3-3.5 1.6 0 3.5 1.6 4.2 3.5z"/><path d="M83.4 239c3.6 6 3.7 7.4.7 13.1-1.8 3.5-6.1 7.8-9.5 9.6-5.3 2.8-7 2.8-12.4 0-3.5-1.7-7.8-6.1-9.6-9.6-3-5.7-2.9-7.1.6-12.9 3.4-5.7 5.4-6.5 15-6.7 9.9-.2 11.5.5 15.2 6.5zm-30.5 5.3c-3.3 1.8.5 4.6 8.2 5.8 9.1 1.5 23.3-1 23.1-4.1-.3-4.5-24.1-5.8-31.3-1.7zm11.8 16.4c1.8 1.1 4.6 1.5 6.3.9 4.8-1.9 3.6-3-3.2-3-4.6.1-5.4.6-3.1 2.1z" class="F"/></g><g class="G"><use xlink:href="#Q"/><path d="M81.1 238.4c2.4 4.5 2.2 4.8-2.8 3.2-3-1-7.4-1.7-9.9-1.7-2.6 0-7 .7-10 1.7-4.9 1.6-5.2 1.3-2.8-3.2 2.1-3.8 4.8-4.8 12.8-4.8 7.9 0 10.6 1 12.7 4.8z"/></g><path d="M76.3 189.6c9.7 9.5 11.5 14.5 7.8 21.7-1.8 3.4-6.1 7.7-9.5 9.5-5.5 2.8-7.1 2.8-12.5 0-8.4-4.4-13.5-14.4-10.3-20.3 2.8-5.3 15-17.1 17.3-16.8.8.1 4.1 2.8 7.2 5.9z" class="D"/><g class="E"><use xlink:href="#R"/><path d="M83.4 198c3.6 6 3.7 7.4.7 13.1-1.8 3.5-6.1 7.9-9.5 9.7-5.3 2.8-7 2.8-12.4 0-3.5-1.8-7.8-6.1-9.6-9.7-3-5.7-2.9-7.1.6-12.9 3.4-5.6 5.4-6.5 15-6.7 9.9-.2 11.5.5 15.2 6.5zm-30.5 5.3c-3.3 1.9.5 4.6 8.2 5.8 9.1 1.5 23.3-1 23.1-4.1-.3-4.5-24.1-5.8-31.3-1.7zm11.8 16.4c1.8 1.1 4.6 1.5 6.3.9 4.8-1.9 3.6-3-3.2-2.9-4.6 0-5.4.5-3.1 2z" class="F"/></g><g class="G"><use xlink:href="#Q" y="-41"/><use xlink:href="#S"/></g><path d="M76.3 148.6c9.7 9.5 11.5 14.5 7.8 21.7-1.8 3.4-6.1 7.7-9.5 9.5-5.5 2.8-7.1 2.8-12.5 0-8.4-4.4-13.5-14.4-10.3-20.3 2.8-5.3 15-17.1 17.3-16.8.8.2 4.1 2.8 7.2 5.9z" class="D"/><g class="E"><use xlink:href="#R" y="-41"/><path d="M83.4 157c3.6 6.1 3.7 7.4.7 13.1-1.8 3.6-6.1 7.9-9.5 9.7-5.3 2.8-7 2.8-12.4 0-3.5-1.8-7.8-6.1-9.6-9.6-3-5.8-2.9-7.1.6-12.9 3.4-5.7 5.4-6.6 15-6.8 9.9-.1 11.5.5 15.2 6.5zm-30.5 5.3c-3.3 1.9.5 4.6 8.2 5.9 9.1 1.4 23.3-1.1 23.1-4.2-.3-4.5-24.1-5.8-31.3-1.7zm11.8 16.4c1.8 1.2 4.6 1.5 6.3.9 4.8-1.8 3.6-3-3.2-2.9-4.6 0-5.4.6-3.1 2z" class="F"/></g><g class="G"><path d="M81.1 171.8c-2.1 3.8-4.8 4.8-12.7 4.8-8 0-10.7-1-12.8-4.8-2.4-4.5-2.1-4.8 2.8-3.2 3 1 7.4 1.7 10 1.7 2.5 0 6.9-.7 9.9-1.7 5-1.6 5.2-1.3 2.8 3.2z"/><use xlink:href="#S" y="-41"/></g><path d="M42.2 210.1c9.6 9.5 11.4 14.5 7.7 21.7-1.8 3.4-6.1 7.7-9.5 9.5-5.4 2.8-7.1 2.8-12.5-.1-8.4-4.4-13.5-14.3-10.3-20.2 2.8-5.3 15-17.1 17.3-16.8.8.1 4.1 2.8 7.3 5.9z" class="D"/><g class="E"><path d="M38.4 207.4c.7 1.9.3 3.4-.9 3.4s-2.3-1.3-2.4-2.9c-.1-2.2-.4-2.2-1.3 0-.6 1.6-2 2.9-3.2 2.9-1.1 0-1.4-1.5-.7-3.4.8-1.9 2.7-3.4 4.3-3.4s3.5 1.5 4.2 3.4z"/><path d="M49.2 218.5c3.7 6 3.7 7.4.8 13.1-1.9 3.5-6.1 7.9-9.6 9.6-5.3 2.9-7 2.9-12.4.1-3.5-1.8-7.8-6.2-9.6-9.7-3-5.7-2.9-7.1.6-12.9 3.5-5.6 5.4-6.5 15-6.7 10-.2 11.5.5 15.2 6.5zm-30.4 5.3c-3.3 1.8.5 4.6 8.1 5.8 9.1 1.5 23.3-1 23.1-4.1-.3-4.5-24.1-5.8-31.2-1.7zm11.8 16.4c1.7 1.1 4.5 1.5 6.2.9 4.8-1.9 3.6-3-3.2-3-4.6.1-5.4.6-3 2.1z" class="F"/></g><g class="G"><use xlink:href="#T"/><use xlink:href="#U"/></g><path d="M42.2 169.1c9.6 9.5 11.4 14.5 7.7 21.7-1.8 3.4-6.1 7.7-9.5 9.5-5.4 2.8-7.1 2.8-12.5 0-8.4-4.4-13.5-14.4-10.3-20.3 2.8-5.3 15-17.1 17.3-16.8.8.2 4.1 2.8 7.3 5.9z" class="D"/><g class="E"><path d="M38.4 166.4c.7 1.9.3 3.4-.9 3.4s-2.3-1.3-2.4-2.8c-.1-2.3-.4-2.3-1.3 0-.6 1.5-2 2.8-3.2 2.8-1.1 0-1.4-1.5-.7-3.4.8-1.9 2.7-3.4 4.3-3.4s3.5 1.5 4.2 3.4z"/><path d="M49.2 177.5c3.7 6 3.7 7.4.8 13.1-1.9 3.5-6.1 7.9-9.6 9.7-5.3 2.8-7 2.8-12.4 0-3.5-1.8-7.8-6.1-9.6-9.7-3-5.7-2.9-7 .6-12.9 3.5-5.6 5.4-6.5 15-6.7 10-.2 11.5.5 15.2 6.5zm-30.4 5.3c-3.3 1.9.5 4.6 8.1 5.9 9.1 1.4 23.3-1.1 23.1-4.2-.3-4.5-24.1-5.8-31.2-1.7zm11.8 16.4c1.7 1.1 4.5 1.5 6.2.9 4.8-1.9 3.6-3-3.2-2.9-4.6 0-5.4.6-3 2z" class="F"/></g><g class="G"><use xlink:href="#T" y="-41"/><use xlink:href="#U" y="-41"/></g><defs ><path id="B" d="M19.2 46.8c2.1-3.9 4.7-4.9 12.7-4.9s10.6 1 12.7 4.9c2.4 4.5 2.2 4.7-2.8 3.1-2.9-.9-7.4-1.7-9.9-1.7s-7 .8-9.9 1.7c-5 1.6-5.2 1.4-2.8-3.1z"/><path id="C" d="M19.2 62c-2.4-4.5-2.2-4.7 2.8-3.1 2.9.9 7.4 1.7 9.9 1.7s7-.8 9.9-1.7c5-1.6 5.2-1.4 2.8 3.1-2.1 3.9-4.7 4.9-12.7 4.9s-10.6-1-12.7-4.9z"/><path id="D" d="M53.4 26.3c2-3.9 4.7-4.9 12.7-4.9s10.6 1 12.7 4.9c2.4 4.5 2.2 4.7-2.8 3.1-2.9-.9-7.4-1.7-9.9-1.7s-7 .8-10 1.7c-4.9 1.6-5.1 1.4-2.7-3.1z"/><path id="E" d="M61.8 93.1c-.7-1.9-.3-3.4.9-3.4s2.3 1.3 2.4 2.8c.2 2.3.4 2.3 1.3 0 .7-1.5 2.1-2.8 3.2-2.8s1.4 1.5.7 3.4-2.6 3.4-4.2 3.4-3.5-1.5-4.3-3.4z"/><path id="F" d="M53.4 82.5c-2.4-4.5-2.2-4.7 2.7-3.1 3 .9 7.5 1.7 10 1.7s7-.8 9.9-1.7c5-1.6 5.2-1.4 2.8 3.1-2.1 3.9-4.7 4.9-12.7 4.9s-10.7-1-12.7-4.9z"/><path id="G" d="M98.9 26.3c2.1-3.9 4.8-4.9 12.7-4.9 8 0 10.7 1 12.8 4.9 2.4 4.5 2.1 4.7-2.8 3.1-3-.9-7.4-1.7-10-1.7-2.5 0-6.9.8-9.9 1.7-5 1.6-5.2 1.4-2.8-3.1z"/><path id="H" d="M107.4 93.1c-.7-1.9-.3-3.4.9-3.4s2.3 1.3 2.4 2.8c.1 2.3.4 2.3 1.3 0 .6-1.5 2.1-2.8 3.2-2.8s1.4 1.5.7 3.4-2.6 3.4-4.3 3.4c-1.6 0-3.5-1.5-4.2-3.4z"/><path id="I" d="M98.9 82.5c-2.4-4.5-2.2-4.7 2.8-3.1 3 .9 7.4 1.7 9.9 1.7 2.6 0 7-.8 10-1.7 4.9-1.6 5.2-1.4 2.8 3.1-2.1 3.9-4.8 4.9-12.8 4.9-7.9 0-10.6-1-12.7-4.9z"/><path id="J" d="M133.1 46.8c2.1-3.9 4.7-4.9 12.7-4.9s10.7 1 12.7 4.9c2.4 4.5 2.2 4.7-2.7 3.1-3-.9-7.5-1.7-10-1.7s-7 .8-9.9 1.7c-5 1.6-5.2 1.4-2.8-3.1z"/><path id="K" d="M133.1 62c-2.4-4.5-2.2-4.7 2.8-3.1 2.9.9 7.4 1.7 9.9 1.7s7-.8 10-1.7c4.9-1.6 5.1-1.4 2.7 3.1-2 3.9-4.7 4.9-12.7 4.9s-10.6-1-12.7-4.9z"/><path id="L" d="M160.8 233.2c-2.1 3.9-4.7 4.9-12.7 4.9s-10.6-1-12.7-4.9c-2.4-4.5-2.2-4.7 2.8-3.1 2.9.9 7.4 1.7 9.9 1.7s7-.8 9.9-1.7c5-1.6 5.2-1.4 2.8 3.1z"/><path id="M" d="M160.8 218c2.4 4.5 2.2 4.7-2.8 3.1-2.9-.9-7.4-1.7-9.9-1.7s-7 .8-9.9 1.7c-5 1.6-5.2 1.4-2.8-3.1 2.1-3.9 4.7-4.9 12.7-4.9s10.6 1 12.7 4.9z"/><path id="N" d="M126.6 253.7c-2 3.9-4.7 4.9-12.7 4.9s-10.6-1-12.7-4.9c-2.4-4.5-2.2-4.7 2.8-3.1 2.9.9 7.4 1.7 9.9 1.7s7-.8 10-1.7c4.9-1.6 5.1-1.4 2.7 3.1z"/><path id="O" d="M118.2 186.9c.7 1.9.3 3.4-.9 3.4s-2.3-1.3-2.4-2.8c-.2-2.3-.4-2.3-1.3 0-.7 1.5-2.1 2.8-3.2 2.8s-1.4-1.5-.7-3.4 2.6-3.4 4.2-3.4 3.5 1.5 4.3 3.4z"/><path id="P" d="M126.6 197.5c2.4 4.5 2.2 4.7-2.7 3.1-3-.9-7.5-1.7-10-1.7s-7 .8-9.9 1.7c-5 1.6-5.2 1.4-2.8-3.1 2.1-3.9 4.7-4.9 12.7-4.9s10.7 1 12.7 4.9z"/><path id="Q" d="M81.1 253.7c-2.1 3.9-4.8 4.9-12.7 4.9-8 0-10.7-1-12.8-4.9-2.4-4.5-2.1-4.7 2.8-3.1 3 .9 7.4 1.7 10 1.7 2.5 0 6.9-.8 9.9-1.7 5-1.6 5.2-1.4 2.8 3.1z"/><path id="R" d="M72.6 186.9c.7 1.9.3 3.4-.9 3.4s-2.3-1.3-2.4-2.8c-.1-2.3-.4-2.3-1.3 0-.6 1.5-2.1 2.8-3.2 2.8s-1.4-1.5-.7-3.4 2.6-3.4 4.3-3.4c1.6 0 3.5 1.5 4.2 3.4z"/><path id="S" d="M81.1 197.5c2.4 4.5 2.2 4.7-2.8 3.1-3-.9-7.4-1.7-9.9-1.7-2.6 0-7 .8-10 1.7-4.9 1.6-5.2 1.4-2.8-3.1 2.1-3.9 4.8-4.9 12.8-4.9 7.9 0 10.6 1 12.7 4.9z"/><path id="T" d="M46.9 233.2c-2.1 3.9-4.7 4.9-12.7 4.9s-10.7-1-12.7-4.9c-2.4-4.5-2.2-4.7 2.7-3.1 3 .9 7.5 1.7 10 1.7s7-.8 9.9-1.7c5-1.6 5.2-1.4 2.8 3.1z"/><path id="U" d="M46.9 218c2.4 4.5 2.2 4.7-2.8 3.1-2.9-.9-7.4-1.7-9.9-1.7s-7 .8-10 1.7c-4.9 1.6-5.1 1.4-2.7-3.1 2-3.9 4.7-4.9 12.7-4.9s10.6 1 12.7 4.9z"/></defs></svg>