<svg xmlns="http://www.w3.org/2000/svg" xmlns:xlink="http://www.w3.org/1999/xlink" width="158" height="246" xmlns:v="https://vecta.io/nano"><style><![CDATA[.C{fill:#fe0000}.D{fill:#bc0000}]]></style><use xlink:href="#B" class="C"/><use xlink:href="#C" class="D"/><use xlink:href="#B" y="36" class="C"/><use xlink:href="#C" y="36" class="D"/><use xlink:href="#B" x="30" y="-18" class="C"/><use xlink:href="#C" x="30" y="-18" class="D"/><use xlink:href="#B" x="30" y="18" class="C"/><use xlink:href="#C" x="30" y="18" class="D"/><use xlink:href="#B" x="30" y="54" class="C"/><use xlink:href="#C" x="30" y="54" class="D"/><use xlink:href="#B" x="70" y="-18" class="C"/><use xlink:href="#C" x="70" y="-18" class="D"/><use xlink:href="#B" x="70" y="18" class="C"/><use xlink:href="#C" x="70" y="18" class="D"/><use xlink:href="#B" x="70" y="54" class="C"/><use xlink:href="#C" x="70" y="54" class="D"/><use xlink:href="#B" x="100" class="C"/><use xlink:href="#C" x="100" class="D"/><use xlink:href="#B" x="100" y="36" class="C"/><use xlink:href="#C" x="100" y="36" class="D"/><use xlink:href="#D" class="C"/><use xlink:href="#E" class="D"/><use xlink:href="#D" y="-36" class="C"/><use xlink:href="#E" y="-36" class="D"/><use xlink:href="#D" x="-30" y="18" class="C"/><use xlink:href="#E" x="-30" y="18" class="D"/><use xlink:href="#D" x="-30" y="-18" class="C"/><use xlink:href="#E" x="-30" y="-18" class="D"/><use xlink:href="#D" x="-30" y="-54" class="C"/><use xlink:href="#E" x="-30" y="-54" class="D"/><use xlink:href="#D" x="-70" y="18" class="C"/><use xlink:href="#E" x="-70" y="18" class="D"/><use xlink:href="#D" x="-70" y="-18" class="C"/><use xlink:href="#E" x="-70" y="-18" class="D"/><use xlink:href="#D" x="-70" y="-54" class="C"/><use xlink:href="#E" x="-70" y="-54" class="D"/><use xlink:href="#D" x="-100" class="C"/><use xlink:href="#E" x="-100" class="D"/><use xlink:href="#D" x="-100" y="-36" class="C"/><use xlink:href="#E" x="-100" y="-36" class="D"/><defs ><path id="B" d="M18.4 55.9c-9.4-9.6-11.5-15.5-7-20 3.3-3.4 10.6-3 13.6.6 2.3 2.8 2.9 2.8 5.9 0 4.1-3.6 10.4-3.9 13.7-.6 4.6 4.6 2.4 10.7-7.2 20.2l-9.5 9.4z"/><path id="C" d="m29 51.3c0-13.8 2-17.8 9-17.8 2.3 0 5.3 1.1 6.6 2.4 4.5 4.5 2.4 10.7-6.6 19.6l-9 8.8z"/><path id="D" d="M139.6 190.1c9.4 9.6 11.5 15.5 7 20-3.3 3.4-10.6 3-13.6-.6-2.3-2.8-2.9-2.8-5.9 0-4.1 3.6-10.4 3.9-13.7.6-4.6-4.6-2.4-10.7 7.2-20.2l9.5-9.4z"/><path id="E" d="m129 194.7c0 13.8-2 17.8-9 17.8-2.3 0-5.3-1.1-6.6-2.4-4.5-4.5-2.4-10.7 6.6-19.6l9-8.8z"/></defs></svg>