<svg xmlns="http://www.w3.org/2000/svg" width="158" height="246" xmlns:v="https://vecta.io/nano"><path d="M136.4 184.8l3.6-4c2.6-2.8 3.9-7.3 4.6-15.1.9-10.2.6-11.2-3.3-13.8-6.8-1.9-3.4-2.1-10.2 0-3.9 2.5-4.1 3.6-3.3 13.8.7 8.1 1.9 12.1 4.7 15.1z" fill="#fe0000" stroke="#000" stroke-width=".4"/><path d="M136.3 183.8l3.7-3.5c2.7-2.6 3.9-6.5 4.6-14.6.8-10.2.6-11.2-3.3-13.8-1.8-1.2-3.8-2.5-4.4-4.3l-1.7-.1c-.7 1.8-2.1 3.3-4 4.6-7.1 4.7-5.9 8 3.2 8h7.9v8.1c0 5.2-1.1 9.6-3 11.9z" fill="#9b0000"/><path d="M136.3 183.8l3.7-3.5c2.7-2.6 3.9-6.5 4.6-14.6.8-10.2.6-11.2-3.3-13.8-1.6-1.1-3.7-2.7-4.5-4.4l-1.4-.1c-1 1.8-3.1 3.7-4.6 4.6-7 4.7-5.5 8.1 3.6 8.1h7.9v8.1c0 5.2-1.1 9.6-3 11.9z" fill="#009800"/><path fill-rule="evenodd" d="M135.6 181.5c.1-.2 3.6-1.5 3.7-1.7.2-.1-3.8.9-3.7.7s4.3-1.6 4.4-1.8-4.5.7-4.4.5c.1-.3 4.9-1.7 5-1.9 0-.3-5.1.6-5 .3.1-.2 5.4-1.8 5.5-2.1s-5.6.6-5.5.3 5.9-1.8 6-2.2c.1-.3-6 .2-6 .2l6.4-2.2c0-.4-6.4.2-6.4.2l6.8-2.3c0-.4-6.8.1-6.8.1l7-2.3c.1-.4-7 .1-7 .1l7.3-2.3c0-.4-7.3.1-7.3.1l7.4-2.3c0-.3-7.4.1-7.4.1l7.5-2.2s.1-5.3-1.3-7.6c-1-1.1-1.4-1.9-.9-1.9.6 0 1.8 1 2.8 2.2.9 1.2 1.3 7.1.9 13-.7 8.3-1.8 11.7-4.7 14.1-1.8 1.6-3.5 3.3-3.6 3.3 1.6-2.2 2.9-3.1-.7-2.4zm5.9-22.1c0-.2.2-.4.4-.4.3 0 .4.2.4.4s-.1.4-.4.4c-.2 0-.4-.2-.4-.4zm-2.9-.3c0-.2.2-.4.4-.4s.5.2.5.4c0 .3-.3.5-.5.5s-.4-.2-.4-.5zm-3.5-.5c0-.3.2-.5.4-.5s.4.2.4.5c0 .2-.2.4-.4.4s-.4-.2-.4-.4zm-2.8-.2a.47.47 0 0 1 .5-.5c.2 0 .4.2.4.5 0 .2-.2.3-.4.3-.3 0-.5-.1-.5-.3zm-2.1 0c0-.3.1-.5.4-.5.2 0 .4.2.4.5 0 .2-.2.3-.4.3-.3 0-.4-.1-.4-.3zm10.6-.9c0-.2.2-.3.5-.3.2 0 .4.1.4.3 0 .3-.2.5-.4.5a.47.47 0 0 1-.5-.5zm-2.9-.1c0-.2.2-.4.4-.4s.4.2.4.4c0 .3-.2.5-.4.5s-.4-.2-.4-.5zm-9.1-.2c0-.3.2-.5.4-.5s.4.2.4.5c0 .2-.2.3-.4.3s-.4-.1-.4-.3zm2.2-.1c0-.2.2-.4.4-.4.3 0 .4.2.4.4s-.1.4-.4.4c-.2 0-.4-.2-.4-.4zm3.3-.3c0-.3.2-.5.4-.5a.47.47 0 0 1 .5.5c0 .2-.2.4-.5.4-.2 0-.4-.2-.4-.4zm2-.7c0-.3.2-.5.4-.5s.5.2.5.5c0 .2-.3.4-.5.4s-.4-.2-.4-.4zm1.9-.5c0-.2.3-.4.5-.4s.4.2.4.4-.2.5-.4.5-.5-.3-.5-.5zm2-.3c0-.2.2-.4.4-.4s.4.2.4.4c0 .3-.2.4-.4.4s-.4-.1-.4-.4zm-6.7-.1c0-.2.2-.4.5-.4.2 0 .4.2.4.4 0 .3-.2.4-.4.4-.3 0-.5-.1-.5-.4zm-4 0c0-.2.1-.4.4-.4.2 0 .4.2.4.4 0 .3-.2.4-.4.4-.3 0-.4-.1-.4-.4zm5.7-.5c0-.2.2-.4.5-.4.2 0 .4.2.4.4 0 .3-.2.4-.4.4-.3 0-.5-.1-.5-.4zm-3.1 0c0-.2.2-.4.4-.4s.4.2.4.4c0 .3-.2.4-.4.4s-.4-.1-.4-.4zm6.2-.6c0-.2.2-.4.4-.4.3 0 .4.2.4.4 0 .3-.1.4-.4.4-.2 0-.4-.1-.4-.4zm-5.6-1c0-.2.1-.3.3-.3.3 0 .5.1.5.3a.47.47 0 0 1-.5.5c-.2 0-.3-.2-.3-.5zm2.5-.6c0-.2.2-.5.4-.5s.4.3.4.5-.2.4-.4.4-.4-.2-.4-.4zm2.6-.3c0-.2.2-.4.4-.4.3 0 .4.2.4.4s-.1.4-.4.4c-.2 0-.4-.2-.4-.4zm-4.5-.4c0-.3.1-.5.3-.5a.47.47 0 0 1 .5.5c0 .2-.2.4-.5.4-.2 0-.3-.2-.3-.4zm2.2-1.2c0-.2.2-.4.4-.4.3 0 .5.2.5.4s-.2.5-.5.5c-.2 0-.4-.3-.4-.5z"/><path d="M21.3 61.3l-3.7 4c-2.5 2.8-3.9 7.3-4.5 15.1-.9 10.2-.6 11.2 3.3 13.8 6.8 1.8 3.4 2.1 10.2 0 3.9-2.6 4.1-3.6 3.3-13.8-.7-8.2-1.9-12.2-4.7-15.1z" fill="#fe0000" stroke="#000" stroke-width=".4"/><path d="M21.4 62.3l-3.7 3.5c-2.7 2.6-3.9 6.4-4.6 14.6-.9 10.2-.6 11.2 3.3 13.8 1.8 1.2 3.8 2.5 4.4 4.3l1.7.1c.7-1.8 2.1-3.4 4-4.6 7.1-4.7 5.9-8-3.3-8h-7.9v-8.2c0-5.1 1.2-9.5 3.1-11.8z" fill="#9b0000"/><path d="M21.4 62.3l-3.7 3.5c-2.7 2.6-3.9 6.4-4.6 14.6-.9 10.2-.6 11.2 3.3 13.8 1.6 1 3.6 2.6 4.4 4.4l1.5.1c1-1.9 3-3.7 4.6-4.7 7-4.6 5.5-8-3.7-8h-7.9v-8.2c0-5.1 1.2-9.5 3.1-11.8z" fill="#009800"/><g fill-rule="evenodd"><path d="M22.1 64.6c-.1.1-3.7 1.5-3.8 1.6-.1.2 3.9-.8 3.8-.6s-4.3 1.6-4.4 1.8 4.5-.7 4.4-.5-4.9 1.7-5 1.9c-.1.3 5.1-.6 5-.4-.1.3-5.4 1.8-5.5 2.1s5.5-.6 5.5-.3c-.1.4-5.9 1.9-6 2.2-.1.4 6-.2 6-.2s-6.3 1.9-6.4 2.3c-.1.3 6.4-.2 6.4-.2l-6.8 2.3c0 .4 6.8-.1 6.8-.1L15 78.8c0 .4 7.1-.1 7.1-.1L14.8 81c0 .4 7.3-.1 7.3-.1s-7.4 1.9-7.4 2.3c-.1.3 7.4-.2 7.4-.2l-7.5 2.2s-.1 5.4 1.3 7.7c1 1 1.4 1.9.8 1.9-.5 0-1.7-1-2.7-2.2s-1.3-7.1-.9-13.1c.7-8.3 1.8-11.6 4.6-14 1.9-1.6 3.5-3.4 3.7-3.3-1.6 2.1-2.9 3.1.7 2.4zm-5.9 22.1c0 .2-.2.3-.4.3-.3 0-.4-.1-.4-.3 0-.3.1-.5.4-.5.2 0 .4.2.4.5zm2.9.2c0 .3-.2.5-.4.5a.47.47 0 0 1-.5-.5c0-.2.2-.4.5-.4.2 0 .4.2.4.4zm3.5.6c0 .2-.2.4-.4.4-.3 0-.5-.2-.5-.4s.2-.5.5-.5c.2 0 .4.3.4.5zm2.8.2c0 .2-.3.4-.5.4s-.4-.2-.4-.4.2-.4.4-.4.5.2.5.4zm2.1 0c0 .2-.2.4-.4.4s-.4-.2-.4-.4.2-.4.4-.4.4.2.4.4zm-10.6.8c0 .3-.3.4-.5.4s-.4-.1-.4-.4c0-.2.2-.4.4-.4s.5.2.5.4zm2.9.1c0 .3-.2.4-.4.4-.3 0-.5-.1-.5-.4 0-.2.2-.4.5-.4.2 0 .4.2.4.4zm9.1.3c0 .2-.2.5-.4.5s-.5-.3-.5-.5.3-.4.5-.4.4.2.4.4zm-2.2.1c0 .2-.2.4-.5.4-.2 0-.4-.2-.4-.4 0-.3.2-.4.4-.4.3 0 .5.1.5.4zm-3.3.3c0 .2-.2.4-.5.4-.2 0-.4-.2-.4-.4s.2-.4.4-.4c.3 0 .5.2.5.4zm-2 .7c0 .2-.2.5-.4.5-.3 0-.5-.3-.5-.5s.2-.4.5-.4c.2 0 .4.2.4.4zm-2 .5c0 .2-.2.3-.4.3s-.4-.1-.4-.3c0-.3.2-.5.4-.5s.4.2.4.5zm-1.9.2c0 .3-.2.5-.4.5-.3 0-.4-.2-.4-.5 0-.2.1-.4.4-.4.2 0 .4.2.4.4zm6.6.1c0 .3-.2.5-.4.5s-.4-.2-.4-.5c0-.2.2-.3.4-.3s.4.1.4.3zm4.1 0c0 .3-.1.5-.4.5-.2 0-.4-.2-.4-.5 0-.2.2-.3.4-.3.3 0 .4.1.4.3zm-5.8.5c0 .3-.2.5-.4.5s-.4-.2-.4-.5c0-.2.2-.4.4-.4s.4.2.4.4zm3.2 0c0 .3-.2.5-.4.5s-.4-.2-.4-.5c0-.2.2-.4.4-.4s.4.2.4.4zm-6.2.6a.47.47 0 0 1-.5.5c-.2 0-.3-.2-.3-.5 0-.2.1-.3.3-.3.3 0 .5.1.5.3zm5.6 1c0 .3-.1.4-.4.4-.2 0-.4-.1-.4-.4 0-.2.2-.4.4-.4.3 0 .4.2.4.4zm-2.5.7c0 .2-.2.4-.4.4-.3 0-.4-.2-.4-.4s.1-.5.4-.5c.2 0 .4.3.4.5zm-2.6.3c0 .2-.2.4-.5.4-.2 0-.4-.2-.4-.4 0-.3.2-.4.4-.4.3 0 .5.1.5.4zm4.5.4c0 .2-.1.4-.4.4-.2 0-.4-.2-.4-.4s.2-.4.4-.4c.3 0 .4.2.4.4zm-2.2 1.2c0 .2-.2.4-.5.4-.2 0-.4-.2-.4-.4 0-.3.2-.5.4-.5a.47.47 0 0 1 .5.5z"/><path d="M73.7 239c-1.4-1-5.1-1.7-8.2-1.8-4.2 0-6.8-1.5-10.8-6.3-4.8-5.8-5.3-6.1-7.1-3.1-1.6 2.8-2.1 2.9-3.7.6-.9-1.4-1.7-6.4-1.7-11-.1-6.3-.7-8.3-2.8-8.3s-2.3.7-.7 3.7c2.7 5.1 1.2 5.8-5.2 2.5-9.4-4.8-9.4-16.4.1-21.3 6.3-3.2 7.8-2.4 5.1 2.6-1.6 3-1.4 3.7.7 3.7 1.9 0 2.7-1.7 2.7-5.3 0-2.9-.7-5.2-1.6-5.2s-2.8-2.5-4.3-5.5c-2.3-4.6-2.4-5.1-.2-3.3 1.5 1.2 2.6 3.3 2.6 4.6s.8 2.4 1.8 2.4c.9 0 1.7-3.1 1.7-7 0-6.3-.6-7.3-6.7-10.4-3.7-1.9-9.2-6.2-12.1-9.6-6.1-6.9-12.8-23.2-12.8-31 0-2.9-.8-5.2-1.7-5.2A1.79 1.79 0 0 1 7 123c0-1 4.9-1.8 11.2-1.8h11.1l1.1-11.4C31.7 95.5 33 93 46.2 79.5c7.9-8 12-11 15.4-11 6.1 0 7.5-5.1 3.2-11.7-2.1-3.1-3.3-8.1-3.3-13.3-.1-5.9-.8-8.4-2.5-8.4-4.4 0-7.3-5.1-4.9-8.9 1.1-1.8 2.1-4.4 2.1-5.7 0-3.2 6.6-8.9 14.6-12.7 5.7-2.6 7.8-2.8 12.5-1.1 3.1 1.2 7.7 2.1 10.2 2.1 3.1 0 6.2 2 9.8 6.3 4.8 5.8 5.3 6.1 7.1 3.1 1.6-2.8 2.1-2.9 3.7-.6.9 1.4 1.7 6.4 1.7 11 .1 6.3.7 8.3 2.8 8.3s2.3-.7.7-3.7c-2.7-5.1-1.2-5.8 5.2-2.5 9.4 4.8 9.4 16.4-.1 21.3-6.3 3.2-7.8 2.4-5.1-2.6 1.6-3 1.4-3.7-.7-3.7-1.9 0-2.7 1.7-2.7 5.3 0 2.9.7 5.2 1.6 5.2s2.8 2.5 4.3 5.5c2.3 4.6 2.4 5.1.2 3.3-1.5-1.2-2.6-3.3-2.6-4.6s-.8-2.4-1.8-2.4c-.9 0-1.7 3.1-1.7 7 0 6.3.6 7.3 6.7 10.4 3.7 1.9 9.2 6.2 12.1 9.6 6.1 6.9 12.8 23.2 12.8 31 0 2.9.8 5.2 1.7 5.2a1.79 1.79 0 0 1 1.8 1.8c0 1-4.9 1.8-11.2 1.8h-11.1l-1.1 11.4c-1.3 14.3-2.6 16.8-15.8 30.3-7.9 8-12 11-15.4 11-6.1 0-7.5 5.1-3.2 11.7 2.1 3.1 3.3 8.1 3.3 13.3.1 5.9.8 8.4 2.5 8.4 4.4 0 7.3 5.1 4.9 8.9-1.1 1.8-2.1 4.4-2.1 5.7 0 3-6.3 8.7-13.9 12.3-6.8 3.3-10.4 3.6-14.2 1.2zm-18.5-32.2c2.7-2 2.8-3 1-6.4-1.5-2.9-1.6-4.5-.2-5.9 1.1-1.1 1.9-3.3 1.9-5s1.3-3.8 2.8-4.6c2.6-1.5 2.5-1.9-.1-4.5-1.6-1.6-4.8-2.9-7.2-2.9-3.5 0-4.2.8-4.2 5.2 0 6.7 3 7 4 .5l.7-4.8.3 4.8c.1 3-.8 5.3-2.4 5.9-1.9.8-2.6 3.7-2.6 10.5 0 10 .8 11 6 7.2zm53.6-143.5c0-6.7-3-7-4-.5l-.7 4.9-.3-4.9c-.1-3 .8-5.3 2.4-5.9 1.9-.8 2.6-3.7 2.6-10.5 0-10-.8-11-6-7.2-2.7 2-2.8 3-1 6.4 1.5 2.9 1.6 4.5.2 5.9-1.1 1.1-1.9 3.3-1.9 5s-1.3 3.8-2.8 4.6c-2.6 1.5-2.5 1.9.1 4.5 1.6 1.6 4.8 2.9 7.2 2.9 3.5 0 4.2-.8 4.2-5.2z" fill="#fec9cc"/><path d="M73.7 239c-1.4-1-5.1-1.7-8.2-1.8-4.2 0-6.8-1.5-10.8-6.3-4.8-5.8-5.3-6.1-7.1-3.1-1.6 2.8-2.1 2.9-3.7.6-.9-1.4-1.7-6.4-1.7-11-.1-6.3-.7-8.3-2.8-8.3s-2.3.7-.7 3.7c2.7 5.1 1.2 5.8-5.2 2.5-9.4-4.8-9.4-16.4.1-21.3 6.3-3.2 7.8-2.4 5.1 2.6-1.6 3-1.4 3.7.7 3.7 1.9 0 2.7-1.7 2.7-5.3 0-2.9-.7-5.2-1.6-5.2s-2.8-2.5-4.3-5.5c-2.3-4.6-2.4-5.1-.2-3.3 1.5 1.2 2.6 3.3 2.6 4.6s.8 2.4 1.8 2.4c.9 0 1.7-3.1 1.7-7 0-6.3-.6-7.3-6.7-10.4-3.7-1.9-9.2-6.2-12.1-9.6-6.1-6.9-12.8-23.2-12.8-31 0-2.9-.8-5.2-1.7-5.2A1.79 1.79 0 0 1 7 123c0-1 4.9-1.8 11.2-1.8h11.1l1.1-11.4C31.7 95.5 33 93 46.2 79.5c7.9-8 12-11 15.4-11 6.1 0 7.5-5.1 3.2-11.7-2.1-3.1-3.3-8.1-3.3-13.3-.1-5.9-.8-8.4-2.5-8.4-4.4 0-7.3-5.1-4.9-8.9 1.1-1.8 2.1-4.4 2.1-5.7 0-3.2 6.6-8.9 14.6-12.7 5.7-2.6 7.8-2.8 12.5-1.1 3.1 1.2 7.7 2.1 10.2 2.1 3.1 0 6.2 2 9.8 6.3 4.8 5.8 5.3 6.1 7.1 3.1 1.6-2.8 2.1-2.9 3.7-.6.9 1.4 1.7 6.4 1.7 11 .1 6.3.7 8.3 2.8 8.3s2.3-.7.7-3.7c-2.7-5.1-1.2-5.8 5.2-2.5 9.4 4.8 9.4 16.4-.1 21.3-6.3 3.2-7.8 2.4-5.1-2.6 1.6-3 1.4-3.7-.7-3.7-1.9 0-2.7 1.7-2.7 5.3 0 2.9.7 5.2 1.6 5.2s2.8 2.5 4.3 5.5c2.3 4.6 2.4 5.1.2 3.3-1.5-1.2-2.6-3.3-2.6-4.6s-.8-2.4-1.8-2.4c-.9 0-1.7 3.1-1.7 7 0 6.3.6 7.3 6.7 10.4 3.7 1.9 9.2 6.2 12.1 9.6 6.1 6.9 12.8 23.2 12.8 31 0 2.9.8 5.2 1.7 5.2a1.79 1.79 0 0 1 1.8 1.8c0 1-4.9 1.8-11.2 1.8h-11.1l-1.1 11.4c-1.3 14.3-2.6 16.8-15.8 30.3-7.9 8-12 11-15.4 11-6.1 0-7.5 5.1-3.2 11.7 2.1 3.1 3.3 8.1 3.3 13.3.1 5.9.8 8.4 2.5 8.4 4.4 0 7.3 5.1 4.9 8.9-1.1 1.8-2.1 4.4-2.1 5.7 0 3-6.3 8.7-13.9 12.3-6.8 3.3-10.4 3.6-14.2 1.2zM91 202.1c-.6-9.6-1.4-12.8-4.2-14.9-4.4-3.3-9.4-3.4-16.1 0-6.8 3.4-7.5 5.3-6.3 17.4l1 9.8h26.3zm-20.8 6.1c0-1.5 1.2-2.6 2.6-2.6 1.5 0 2.7 1.1 2.7 2.6 0 1.4-1.2 2.6-2.7 2.6a2.65 2.65 0 0 1-2.6-2.6zm13.4 0c.6-1.5 2.1-2.6 3.5-2.6 1.3 0 2.4 1.1 2.4 2.6 0 1.4-1.5 2.6-3.4 2.6-2.4 0-3.2-.8-2.5-2.6zm-28.4-1.5c2.7-1.9 2.8-2.9 1-6.3-1.5-2.9-1.6-4.5-.2-5.9 1.1-1.1 1.9-3.4 1.9-5.3 0-2 2-4 5.3-5.3 2.9-1.1 5.3-2.5 5.3-3.2 0-.6 3.2-1.7 7.1-2.4 5.5-.9 7.9-.5 10.5 1.9 3.3 2.9 3.4 2.9 3.4-1.2 0-2.8-2-5.5-6-8.3l-5.9-4-9 3.8c-8.8 3.8-10.6 5.7-7.2 7.8 1 .6 1.8 1.9 1.8 2.9s-1.2.5-2.8-1c-1.5-1.5-4.6-2.8-7-2.8-3.6 0-4.3.9-4.3 5.3 0 6.6 3.1 6.9 4.1.4l.7-4.8.3 4.9c.1 2.9-.8 5.3-2.4 5.9-1.9.7-2.7 3.7-2.7 10.5 0 10 .9 10.9 6.1 7.1zm22.5-16.3c.6-.6 2.1-.6 3.4-.1 1.4.6 1 1-1.1 1.1-1.8 0-2.9-.4-2.3-1zm1.6 15.1c-.2-2.5.5-5.4 1.6-6.4 2.8-2.8-8.7-4.7-12.3-1.9-2.5 2-2.5 1.9-.3-1 1.9-2.4 4.5-3 11.3-2.6 4.8.3 8.9 1.3 9.1 2.3.1 1-.1 1.2-.5.4-1.3-2.3-3.9-1.4-3.9 1.3 0 1.5-.8 2.7-1.7 2.7s-1.9 2.2-2.4 4.8c-.7 4.8-.7 4.8-.9.4zm-26.6-42.1c2.4-4.6-.6-10.6-5.4-10.6-4.7 0-12.2-5-12.2-8.1s-6.4-3.2-7.5 0c-1.2 3 5 16.8 8.9 19.8 4.7 3.6 14 3 16.2-1.1zm-12.3-1.8c-2.4-1.5-2.4-1.9 0-3.5 1.4-.9 4.2-1.6 6.1-1.5 3 .2 3 .3-.4 1-4.7.9-5.2 3.4-.9 4.6 2.2.5 2.3.8.4.9-1.4.1-3.8-.6-5.2-1.5zm90-60.3c1.2-3.1-5-16.9-8.9-19.8-4.8-3.7-14-3.1-16.2 1.1-2.4 4.5.6 10.5 5.4 10.5 4.6 0 12.2 5 12.2 8.1s6.3 3.2 7.5.1zm-18.5-13c4.7-.9 5.2-3.4.9-4.5-2.2-.6-2.3-.9-.5-1 1.5-.1 3.9.6 5.3 1.5 2.4 1.6 2.4 2 0 3.5-1.4.9-4.2 1.6-6.1 1.5-3.1-.2-3-.3.4-1zm-22.3-13c4.8-2 8.7-4.2 8.6-4.8-.2-4.3-8.7-9.8-8.7-5.7 0 .9-3.2 2.2-7.1 2.8-5.5 1-7.9.5-10.5-1.8-3.3-3-3.4-3-3.4 1.1 0 2.8 2 5.6 5.7 8.2 3.1 2.2 5.9 3.9 6.2 3.9s4.5-1.6 9.2-3.7zm19.2-12.1c0-6.6-3-6.9-4-.4l-.7 4.8-.3-4.9c-.1-2.9.8-5.3 2.4-5.9 1.9-.7 2.6-3.7 2.6-10.5 0-9.9-.8-10.9-6-7.1-2.7 2-2.9 2.9-1 6.3 1.5 2.9 1.6 4.6.2 6-1.1 1-1.9 3.3-1.9 5 0 1.6-1.3 3.7-2.8 4.6-2.6 1.4-2.6 1.8.1 4.5 1.6 1.6 4.8 2.9 7.2 2.9 3.5 0 4.2-.9 4.2-5.3zm-21.5-4.4c6.8-3.4 7.5-5.3 6.3-17.4l-1.1-9.8H66.3l.7 12.3c.5 9.6 1.4 12.8 4.1 14.8 4.5 3.4 9.5 3.4 16.2.1zM76 55.1c.5-.6 2.1-.6 3.3-.1 1.4.6 1 1-1 1.1-1.9 0-2.9-.4-2.3-1zm-6.7-4.3c-.7-1-.7-2.3-.1-2.9.5-.6 1-.2 1 1 0 1.1.8 2 1.8 2 .9 0 1.7-1.2 1.7-2.6 0-1.5.8-2.6 1.8-2.6.9 0 1.8-2.2 2-4.9.2-4.3.3-4.4 1-.8.4 2.3-.1 5.1-1.2 6.4-2.7 3.3 8.1 5.4 12 2.3 2.5-1.9 2.6-1.8.4.9-2.7 3.5-18.5 4.4-20.4 1.2zm-.8-13.1c0-1.4 1.5-2.6 3.4-2.6 2.4 0 3.1.9 2.5 2.6-.6 1.5-2.2 2.7-3.5 2.7s-2.4-1.2-2.4-2.7zm14 0a2.65 2.65 0 0 1 2.6-2.6c1.5 0 2.7 1.2 2.7 2.6a2.69 2.69 0 0 1-2.7 2.7c-1.4 0-2.6-1.2-2.6-2.7z" fill="#ccc9cc"/><path d="M73.7 239c-1.4-1-5.1-1.7-8.2-1.8-4.2 0-6.8-1.5-10.8-6.3-4.8-5.8-5.3-6.1-7.1-3.1-1.6 2.8-2.1 2.9-3.7.6-.9-1.4-1.7-6.4-1.7-11-.1-6.3-.7-8.3-2.8-8.3s-2.3.7-.7 3.7c2.7 5.1 1.2 5.8-5.2 2.5-9.4-4.8-9.4-16.4.1-21.3 6.3-3.2 7.8-2.4 5.1 2.6-1.6 3-1.4 3.7.7 3.7 1.9 0 2.7-1.7 2.7-5.3 0-2.9-.7-5.2-1.6-5.2s-2.8-2.5-4.3-5.5c-2.3-4.6-2.4-5.1-.2-3.3 1.5 1.2 2.6 3.3 2.6 4.6s.8 2.4 1.8 2.4c.9 0 1.7-3.1 1.7-7 0-6.3-.6-7.3-6.7-10.4-3.7-1.9-9.2-6.2-12.1-9.6-6.1-6.9-12.8-23.2-12.8-31 0-2.9-.8-5.2-1.7-5.2A1.79 1.79 0 0 1 7 123c0-1 4.9-1.8 11.2-1.8h11.1l1.1-11.4C31.7 95.5 33 93 46.2 79.5c7.9-8 12-11 15.4-11 6.1 0 7.5-5.1 3.2-11.7-2.1-3.1-3.3-8.1-3.3-13.3-.1-5.9-.8-8.4-2.5-8.4-4.4 0-7.3-5.1-4.9-8.9 1.1-1.8 2.1-4.4 2.1-5.7 0-3.2 6.6-8.9 14.6-12.7 5.7-2.6 7.8-2.8 12.5-1.1 3.1 1.2 7.7 2.1 10.2 2.1 3.1 0 6.2 2 9.8 6.3 4.8 5.8 5.3 6.1 7.1 3.1 1.6-2.8 2.1-2.9 3.7-.6.9 1.4 1.7 6.4 1.7 11 .1 6.3.7 8.3 2.8 8.3s2.3-.7.7-3.7c-2.7-5.1-1.2-5.8 5.2-2.5 9.4 4.8 9.4 16.4-.1 21.3-6.3 3.2-7.8 2.4-5.1-2.6 1.6-3 1.4-3.7-.7-3.7-1.9 0-2.7 1.7-2.7 5.3 0 2.9.7 5.2 1.6 5.2s2.8 2.5 4.3 5.5c2.3 4.6 2.4 5.1.2 3.3-1.5-1.2-2.6-3.3-2.6-4.6s-.8-2.4-1.8-2.4c-.9 0-1.7 3.1-1.7 7 0 6.3.6 7.3 6.7 10.4 3.7 1.9 9.2 6.2 12.1 9.6 6.1 6.9 12.8 23.2 12.8 31 0 2.9.8 5.2 1.7 5.2a1.79 1.79 0 0 1 1.8 1.8c0 1-4.9 1.8-11.2 1.8h-11.1l-1.1 11.4c-1.3 14.3-2.6 16.8-15.8 30.3-7.9 8-12 11-15.4 11-6.1 0-7.5 5.1-3.2 11.7 2.1 3.1 3.3 8.1 3.3 13.3.1 5.9.8 8.4 2.5 8.4 4.4 0 7.3 5.1 4.9 8.9-1.1 1.8-2.1 4.4-2.1 5.7 0 3-6.3 8.7-13.9 12.3-6.8 3.3-10.4 3.6-14.2 1.2zM91 202.1c-.6-9.6-1.4-12.8-4.2-14.9-4.4-3.3-9.4-3.4-16.1 0-6.8 3.4-7.5 5.3-6.3 17.4l1 9.8h26.3zm-20.8 6.1c0-1.5 1.2-2.6 2.6-2.6 1.5 0 2.7 1.1 2.7 2.6 0 1.4-1.2 2.6-2.7 2.6a2.65 2.65 0 0 1-2.6-2.6zm13.4 0c.6-1.5 2.1-2.6 3.5-2.6 1.3 0 2.4 1.1 2.4 2.6 0 1.4-1.5 2.6-3.4 2.6-2.4 0-3.2-.8-2.5-2.6zm-28.4-1.5c2.7-1.9 2.8-2.9 1-6.3-1.5-2.9-1.6-4.5-.2-5.9 1.1-1.1 1.9-3.4 1.9-5.3 0-2 2-4 5.3-5.3 2.9-1.1 5.3-2.5 5.3-3.2 0-.6 3.2-1.7 7.1-2.4 5.5-.9 7.9-.5 10.5 1.9 3.3 2.9 3.4 2.9 3.4-1.2 0-2.8-2-5.5-6-8.3l-5.9-4-9 3.8c-8.8 3.8-10.6 5.7-7.2 7.8 1 .6 1.8 1.9 1.8 2.9s-1.2.5-2.8-1c-1.5-1.5-4.6-2.8-7-2.8-3.6 0-4.3.9-4.3 5.3 0 6.6 3.1 6.9 4.1.4l.7-4.8.3 4.9c.1 2.9-.8 5.3-2.4 5.9-1.9.7-2.7 3.7-2.7 10.5 0 10 .9 10.9 6.1 7.1zm22.5-16.3c.6-.6 2.1-.6 3.4-.1 1.4.6 1 1-1.1 1.1-1.8 0-2.9-.4-2.3-1zm1.6 15.1c-.2-2.5.5-5.4 1.6-6.4 2.8-2.8-8.7-4.7-12.3-1.9-2.5 2-2.5 1.9-.3-1 1.9-2.4 4.5-3 11.3-2.6 4.8.3 8.9 1.3 9.1 2.3.1 1-.1 1.2-.5.4-1.3-2.3-3.9-1.4-3.9 1.3 0 1.5-.8 2.7-1.7 2.7s-1.9 2.2-2.4 4.8c-.7 4.8-.7 4.8-.9.4zm-14.2-34.7c7.9-3.7 10.2-5.7 10.3-8.7 0-2.2-.7-4-1.8-4-4.7 0-24.5 12.9-24.5 16 0 2.8 5.6 1.7 16-3.3zm37.5 3.2c1.2-1.8-17.6-15.9-21.3-15.9-1.3 0-2.3 1.8-2.3 4 .1 7.6 20.1 17.7 23.6 11.9zm-49.9-10.6c2.4-4.6-.6-10.6-5.4-10.6-4.7 0-12.2-5-12.2-8.1s-6.4-3.2-7.5 0c-1.2 3 5 16.8 8.9 19.8 4.7 3.6 14 3 16.2-1.1zm-12.3-1.8c-2.4-1.5-2.4-1.9 0-3.5 1.4-.9 4.2-1.6 6.1-1.5 3 .2 3 .3-.4 1-4.7.9-5.2 3.4-.9 4.6 2.2.5 2.3.8.4.9-1.4.1-3.8-.6-5.2-1.5zm90-60.3c1.2-3.1-5-16.9-8.9-19.8-4.8-3.7-14-3.1-16.2 1.1-2.4 4.5.6 10.5 5.4 10.5 4.6 0 12.2 5 12.2 8.1s6.3 3.2 7.5.1zm-18.5-13c4.7-.9 5.2-3.4.9-4.5-2.2-.6-2.3-.9-.5-1 1.5-.1 3.9.6 5.3 1.5 2.4 1.6 2.4 2 0 3.5-1.4.9-4.2 1.6-6.1 1.5-3.1-.2-3-.3.4-1zM79 83.9c-.1-7.5-20.1-17.7-23.6-12-1.2 1.8 17.6 15.9 21.2 15.9 1.3 0 2.4-1.8 2.4-3.9zm12.8 1c7.5-3.9 17-11.2 17-13.1 0-2.8-5.5-1.6-15.9 3.3-7.9 3.7-10.2 5.7-10.3 8.8-.1 4.7 1.7 4.9 9.2 1zm-2.2-9.6c4.8-2 8.7-4.2 8.6-4.8-.2-4.3-8.7-9.8-8.7-5.7 0 .9-3.2 2.2-7.1 2.8-5.5 1-7.9.5-10.5-1.8-3.3-3-3.4-3-3.4 1.1 0 2.8 2 5.6 5.7 8.2 3.1 2.2 5.9 3.9 6.2 3.9s4.5-1.6 9.2-3.7zm19.2-12.1c0-6.6-3-6.9-4-.4l-.7 4.8-.3-4.9c-.1-2.9.8-5.3 2.4-5.9 1.9-.7 2.6-3.7 2.6-10.5 0-9.9-.8-10.9-6-7.1-2.7 2-2.9 2.9-1 6.3 1.5 2.9 1.6 4.6.2 6-1.1 1-1.9 3.3-1.9 5 0 1.6-1.3 3.7-2.8 4.6-2.6 1.4-2.6 1.8.1 4.5 1.6 1.6 4.8 2.9 7.2 2.9 3.5 0 4.2-.9 4.2-5.3zm-21.5-4.4c6.8-3.4 7.5-5.3 6.3-17.4l-1.1-9.8H66.3l.7 12.3c.5 9.6 1.4 12.8 4.1 14.8 4.5 3.4 9.5 3.4 16.2.1zM76 55.1c.5-.6 2.1-.6 3.3-.1 1.4.6 1 1-1 1.1-1.9 0-2.9-.4-2.3-1zm-6.7-4.3c-.7-1-.7-2.3-.1-2.9.5-.6 1-.2 1 1 0 1.1.8 2 1.8 2 .9 0 1.7-1.2 1.7-2.6 0-1.5.8-2.6 1.8-2.6.9 0 1.8-2.2 2-4.9.2-4.3.3-4.4 1-.8.4 2.3-.1 5.1-1.2 6.4-2.7 3.3 8.1 5.4 12 2.3 2.5-1.9 2.6-1.8.4.9-2.7 3.5-18.5 4.4-20.4 1.2zm-.8-13.1c0-1.4 1.5-2.6 3.4-2.6 2.4 0 3.1.9 2.5 2.6-.6 1.5-2.2 2.7-3.5 2.7s-2.4-1.2-2.4-2.7zm14 0a2.65 2.65 0 0 1 2.6-2.6c1.5 0 2.7 1.2 2.7 2.6a2.69 2.69 0 0 1-2.7 2.7c-1.4 0-2.6-1.2-2.6-2.7z" fill="#fe9e00"/><path d="M73.7 239c-1.4-1-5.1-1.7-8.2-1.8-4.2 0-6.8-1.5-10.8-6.3-4.8-5.8-5.3-6.1-7.1-3.1-1.6 2.8-2.1 2.9-3.7.6-.9-1.4-1.7-6.4-1.7-11-.1-6.3-.7-8.3-2.8-8.3s-2.3.7-.7 3.7c2.7 5.1 1.2 5.8-5.2 2.5-9.4-4.8-9.4-16.4.1-21.3 6.3-3.2 7.8-2.4 5.1 2.6-1.6 3-1.4 3.7.7 3.7 1.9 0 2.7-1.7 2.7-5.3 0-2.9-.7-5.2-1.6-5.2s-2.8-2.5-4.3-5.5c-2.3-4.6-2.4-5.1-.2-3.3 1.5 1.2 2.6 3.3 2.6 4.6s.8 2.4 1.8 2.4c.9 0 1.7-3.1 1.7-7 0-6.3-.6-7.3-6.7-10.4-3.7-1.9-9.2-6.2-12.1-9.6-6.1-6.9-12.8-23.2-12.8-31 0-2.9-.8-5.2-1.7-5.2A1.79 1.79 0 0 1 7 123c0-1 4.9-1.8 11.2-1.8h11.1l1.1-11.4C31.7 95.5 33 93 46.2 79.5c7.9-8 12-11 15.4-11 6.1 0 7.5-5.1 3.2-11.7-2.1-3.1-3.3-8.1-3.3-13.3-.1-5.9-.8-8.4-2.5-8.4-4.4 0-7.3-5.1-4.9-8.9 1.1-1.8 2.1-4.4 2.1-5.7 0-3.2 6.6-8.9 14.6-12.7 5.7-2.6 7.8-2.8 12.5-1.1 3.1 1.2 7.7 2.1 10.2 2.1 3.1 0 6.2 2 9.8 6.3 4.8 5.8 5.3 6.1 7.1 3.1 1.6-2.8 2.1-2.9 3.7-.6.9 1.4 1.7 6.4 1.7 11 .1 6.3.7 8.3 2.8 8.3s2.3-.7.7-3.7c-2.7-5.1-1.2-5.8 5.2-2.5 9.4 4.8 9.4 16.4-.1 21.3-6.3 3.2-7.8 2.4-5.1-2.6 1.6-3 1.4-3.7-.7-3.7-1.9 0-2.7 1.7-2.7 5.3 0 2.9.7 5.2 1.6 5.2s2.8 2.5 4.3 5.5c2.3 4.6 2.4 5.1.2 3.3-1.5-1.2-2.6-3.3-2.6-4.6s-.8-2.4-1.8-2.4c-.9 0-1.7 3.1-1.7 7 0 6.3.6 7.3 6.7 10.4 3.7 1.9 9.2 6.2 12.1 9.6 6.1 6.9 12.8 23.2 12.8 31 0 2.9.8 5.2 1.7 5.2a1.79 1.79 0 0 1 1.8 1.8c0 1-4.9 1.8-11.2 1.8h-11.1l-1.1 11.4c-1.3 14.3-2.6 16.8-15.8 30.3-7.9 8-12 11-15.4 11-6.1 0-7.5 5.1-3.2 11.7 2.1 3.1 3.3 8.1 3.3 13.3.1 5.9.8 8.4 2.5 8.4 4.4 0 7.3 5.1 4.9 8.9-1.1 1.8-2.1 4.4-2.1 5.7 0 3-6.3 8.7-13.9 12.3-6.8 3.3-10.4 3.6-14.2 1.2zm21.7-7.2c2.6-2 4.7-4.7 4.7-6 0-4.2-10.2.9-11.1 5.6-.9 5 .5 5.1 6.4.4zM91 202.1c-.6-9.6-1.4-12.8-4.2-14.9-4.4-3.3-9.4-3.4-16.1 0-6.8 3.4-7.5 5.3-6.3 17.4l1 9.8h26.3zm-20.8 6.1c0-1.5 1.2-2.6 2.6-2.6 1.5 0 2.7 1.1 2.7 2.6 0 1.4-1.2 2.6-2.7 2.6a2.65 2.65 0 0 1-2.6-2.6zm13.4 0c.6-1.5 2.1-2.6 3.5-2.6 1.3 0 2.4 1.1 2.4 2.6 0 1.4-1.5 2.6-3.4 2.6-2.4 0-3.2-.8-2.5-2.6zm-28.4-1.5c2.7-1.9 2.8-2.9 1-6.3-1.5-2.9-1.6-4.5-.2-5.9 1.1-1.1 1.9-3.4 1.9-5.3 0-2 2-4 5.3-5.3 2.9-1.1 5.3-2.5 5.3-3.2 0-.6 3.2-1.7 7.1-2.4 5.5-.9 7.9-.5 10.5 1.9 3.3 2.9 3.4 2.9 3.4-1.2 0-2.8-2-5.5-6-8.3l-5.9-4-9 3.8c-8.8 3.8-10.6 5.7-7.2 7.8 1 .6 1.8 1.9 1.8 2.9s-1.2.5-2.8-1c-1.5-1.5-4.6-2.8-7-2.8-3.6 0-4.3.9-4.3 5.3 0 6.6 3.1 6.9 4.1.4l.7-4.8.3 4.9c.1 2.9-.8 5.3-2.4 5.9-1.9.7-2.7 3.7-2.7 10.5 0 10 .9 10.9 6.1 7.1zm22.5-16.3c.6-.6 2.1-.6 3.4-.1 1.4.6 1 1-1.1 1.1-1.8 0-2.9-.4-2.3-1zm1.6 15.1c-.2-2.5.5-5.4 1.6-6.4 2.8-2.8-8.7-4.7-12.3-1.9-2.5 2-2.5 1.9-.3-1 1.9-2.4 4.5-3 11.3-2.6 4.8.3 8.9 1.3 9.1 2.3.1 1-.1 1.2-.5.4-1.3-2.3-3.9-1.4-3.9 1.3 0 1.5-.8 2.7-1.7 2.7s-1.9 2.2-2.4 4.8c-.7 4.8-.7 4.8-.9.4zm-14.2-34.7c7.9-3.7 10.2-5.7 10.3-8.7 0-2.2-.7-4-1.8-4-4.7 0-24.5 12.9-24.5 16 0 2.8 5.6 1.7 16-3.3zm37.5 3.2c1.2-1.8-17.6-15.9-21.3-15.9-1.3 0-2.3 1.8-2.3 4 .1 7.6 20.1 17.7 23.6 11.9zm-49.9-10.6c2.4-4.6-.6-10.6-5.4-10.6-4.7 0-12.2-5-12.2-8.1s-6.4-3.2-7.5 0c-1.2 3 5 16.8 8.9 19.8 4.7 3.6 14 3 16.2-1.1zm-12.3-1.8c-2.4-1.5-2.4-1.9 0-3.5 1.4-.9 4.2-1.6 6.1-1.5 3 .2 3 .3-.4 1-4.7.9-5.2 3.4-.9 4.6 2.2.5 2.3.8.4.9-1.4.1-3.8-.6-5.2-1.5zm-7.6-21.1c3.6 0 4.1-.8 4.1-7.9v-7.9h-7.1c-7 0-7 0-7 6.9 0 9 1.6 13.3 4.1 10.8 1-1 3.7-1.9 5.9-1.9zm102.3-26.8c0-8.2-2.2-13.5-4.2-10.3-.7 1.1-3.1 2-5.5 2-3.9 0-4.3.7-4.3 7.9v7.9h14.1zm-4.7-12.5c1.1-3-5-16.8-8.9-19.8-4.8-3.6-14-3-16.2 1.1-2.5 4.6.5 10.6 5.3 10.6 4.7 0 12.2 5 12.2 8.1s6.4 3.2 7.6 0zm-18.6-12.9c4.7-.9 5.2-3.4.9-4.6-2.2-.5-2.3-.8-.4-1 1.4 0 3.8.7 5.2 1.6 2.4 1.5 2.4 1.9 0 3.5-1.4.9-4.2 1.6-6.1 1.5-3-.2-3-.3.4-1zm-32.9-4.5c-.1-7.5-20.1-17.6-23.6-11.9-1.2 1.8 17.7 15.9 21.3 15.9 1.3 0 2.3-1.8 2.3-4zm12.8 1.1c7.6-3.9 17.1-11.2 17.1-13.1 0-2.8-5.6-1.7-16 3.3-7.9 3.7-10.2 5.7-10.3 8.7-.1 4.7 1.7 5 9.2 1.1zm-2.1-9.6c4.7-2.1 8.6-4.3 8.6-4.9-.2-4.2-8.7-9.7-8.7-5.6 0 .9-3.3 2.1-7.2 2.8-5.5.9-7.9.5-10.5-1.9-3.3-2.9-3.4-2.9-3.4 1.2 0 2.7 2 5.6 5.7 8.2 3.1 2.1 5.9 3.9 6.2 3.9s4.5-1.7 9.3-3.7zm19.2-12.1c0-6.6-3.1-6.9-4-.4l-.8 4.8-.2-4.9c-.2-2.9.8-5.3 2.3-5.9 1.9-.7 2.7-3.7 2.7-10.5 0-10-.9-10.9-6.1-7.1-2.7 1.9-2.8 2.9-1 6.3 1.5 2.9 1.6 4.5.2 5.9-1.1 1.1-1.9 3.3-1.9 5s-1.3 3.8-2.8 4.7c-2.5 1.4-2.5 1.8.1 4.4 1.6 1.6 4.9 3 7.2 3 3.6 0 4.3-.9 4.3-5.3zm-21.5-4.4c6.7-3.4 7.4-5.4 6.2-17.4l-1-9.8H66.2l.7 12.2c.6 9.6 1.5 12.9 4.2 14.9 4.4 3.4 9.5 3.4 16.2.1zm-11.4-3.7c.6-.6 2.1-.6 3.3-.1 1.4.5 1 .9-1 1-1.9.1-2.9-.3-2.3-.9zm-6.7-4.3c-.6-1.1-.7-2.4-.1-3 .6-.5 1-.1 1 1 0 1.2.8 2.1 1.8 2.1s1.8-1.2 1.8-2.6c0-1.5.7-2.7 1.7-2.7s1.9-2.2 2-4.8c.2-4.3.3-4.4 1-.8.4 2.2-.1 5.1-1.1 6.4-2.7 3.2 8.1 5.3 12 2.3 2.5-2 2.5-1.9.4.9-2.8 3.5-18.5 4.4-20.5 1.2zm-.8-13.1c0-1.4 1.5-2.6 3.4-2.6 2.4 0 3.2.8 2.5 2.6-.6 1.5-2.1 2.6-3.5 2.6-1.3 0-2.4-1.1-2.4-2.6zm14 0c0-1.4 1.2-2.6 2.7-2.6a2.65 2.65 0 0 1 2.6 2.6c0 1.5-1.2 2.6-2.6 2.6-1.5 0-2.7-1.1-2.7-2.6zM68.9 14.5c.4-2.2.2-4-.5-4-2.5 0-10.5 7.3-10.5 9.6 0 4.2 10.1-.9 11-5.6z" fill="#9b989b"/><path d="M73.7 239c-1.4-1-5.1-1.7-8.2-1.8-4.2 0-6.8-1.5-10.8-6.3-4.8-5.8-5.3-6.1-7.1-3.1-1.6 2.8-2.1 2.9-3.7.6-.9-1.4-1.7-6.4-1.7-11-.1-6.5-.7-8.3-2.9-8.3s-2.4-.6-.9-2.3c1.4-1.7 1.3-2.9-.2-4.4-1.6-1.6-1.3-2.1.9-2.1s3-1.5 3-5.3c0-2.9-.7-5.2-1.6-5.2s-2.8-2.5-4.3-5.5c-2.3-4.6-2.4-5.1-.2-3.3 1.5 1.2 2.6 3.3 2.6 4.6s.8 2.4 1.8 2.4c.9 0 1.7-3.1 1.7-7 0-6.3-.6-7.3-6.7-10.4-3.7-1.9-9.2-6.2-12.1-9.6-6.1-6.9-12.8-23.2-12.8-31 0-2.9-.8-5.2-1.7-5.2A1.79 1.79 0 0 1 7 123c0-1 4.9-1.8 11.2-1.8h11.1l1.1-11.3c.6-6.3 2.2-13.6 3.6-16.3 2.8-5.2 22.6-25.4 22.1-22.4-.8 4.1.5 5.8 8.3 11.4 13.1 9.4 23.4 8.6 38.7-3.1 5.1-3.9 5.7-5.3 5.7-12.9 0-9.2-2.7-11.8-4-3.8l-.7 4.9-.3-4.9c-.1-3 .8-5.3 2.4-5.9 1.9-.8 2.6-3.7 2.6-10.5 0-10-.8-11-6-7.2-2.7 2-2.8 3-1 6.4 1.5 2.9 1.6 4.5.2 5.9-1.1 1.1-1.9 3.3-1.9 5s-1.3 3.8-2.8 4.6c-2.5 1.4-2.5 1.9.2 4.6 1.6 1.6 2.6 3.4 2 4-.5.5-2-.7-3.2-2.8-2.4-3.7-6.8-5-6.8-2 0 .8-3.2 2.1-7.1 2.8-5.5.9-7.9.5-10.4-1.8-3.1-2.8-3.3-2.7-4 .3q-.8 3.1-.4-.7c.2-2.1-1.1-6-2.9-8.7-2-3.1-3.2-8.2-3.2-13.3-.1-5.9-.8-8.4-2.5-8.4-4.4 0-7.3-5.1-4.9-8.9 1.1-1.8 2.1-4.4 2.1-5.7 0-3.2 6.6-8.9 14.6-12.7 5.7-2.6 7.8-2.8 12.5-1.1 3.1 1.2 7.7 2.1 10.2 2.1 3.1 0 6.2 2 9.8 6.3 4.8 5.8 5.3 6.1 7.1 3.1 1.6-2.8 2.1-2.9 3.7-.6.9 1.4 1.7 6.4 1.7 11 .1 6.5.7 8.3 2.9 8.3s2.4.6.9 2.3c-1.4 1.7-1.3 2.9.2 4.4 1.6 1.6 1.3 2.1-.9 2.1s-3 1.5-3 5.3c0 2.9.7 5.2 1.6 5.2s2.8 2.5 4.3 5.5c2.3 4.6 2.4 5.1.2 3.3-1.5-1.2-2.6-3.3-2.6-4.6s-.8-2.4-1.8-2.4c-.9 0-1.7 3.1-1.7 7 0 6.3.6 7.3 6.7 10.4 3.7 1.9 9.2 6.2 12.1 9.6 6.1 6.9 12.8 23.2 12.8 31 0 2.9.8 5.2 1.7 5.2a1.79 1.79 0 0 1 1.8 1.8c0 1-4.9 1.8-11.2 1.8h-11.1l-1.1 11.3c-.6 6.3-2.2 13.6-3.6 16.3-2.8 5.2-22.6 25.4-22.1 22.4.8-4.1-.5-5.8-8.3-11.4-13.1-9.4-23.4-8.6-38.7 3.1-5.1 3.9-5.7 5.3-5.7 12.9 0 9.2 2.7 11.8 4 3.8l.7-4.8.3 4.8c.1 3-.8 5.3-2.4 5.9-1.9.8-2.6 3.7-2.6 10.5 0 10 .8 11 6 7.2 2.7-2 2.8-3 1-6.4-1.5-2.9-1.6-4.5-.2-5.9 1.1-1.1 1.9-3.3 1.9-5s1.3-3.8 2.8-4.6c2.5-1.4 2.5-1.9-.2-4.6-1.6-1.6-2.6-3.4-2-4 .5-.5 2 .7 3.2 2.8 2.4 3.7 6.8 5 6.8 2 0-.8 3.2-2.1 7.1-2.8 5.5-.9 7.9-.5 10.4 1.8 3.1 2.8 3.3 2.7 4-.3q.8-3.1.4.7c-.2 2.1 1.1 6 2.9 8.7 2 3.1 3.2 8.2 3.2 13.3.1 5.9.8 8.4 2.5 8.4 4.4 0 7.3 5.1 4.9 8.9-1.1 1.8-2.1 4.4-2.1 5.7 0 3-6.3 8.7-13.9 12.3-6.8 3.3-10.4 3.6-14.2 1.2zm21.7-7.2c2.6-2 4.7-4.7 4.7-6 0-4.2-10.2.9-11.1 5.6-.9 5 .5 5.1 6.4.4zm-48.9-25.4c.1-9-.3-16-.8-15.5s-.9 8.3-1 17.3c0 9.1.4 16.1.9 15.6s.9-8.3.9-17.4zm44.5-4.3c-.6-9.6-1.4-12.8-4.2-14.9-4.4-3.3-9.4-3.4-16.1 0-6.8 3.4-7.5 5.3-6.3 17.4l1 9.8h26.3zm-19 5.2c0-1 .8-1.7 1.7-1.7 1 0 1.8.7 1.8 1.7a1.79 1.79 0 0 1-1.8 1.8c-.9 0-1.7-.8-1.7-1.8zm14 0c0-1 .8-1.7 1.8-1.7.9 0 1.7.7 1.7 1.7s-.8 1.8-1.7 1.8a1.79 1.79 0 0 1-1.8-1.8zm-17.6-11.1c1.8-2.4 4.4-3 11.2-2.6 4.8.3 8.9 1.3 9.1 2.3.1 1-.1 1.2-.5.4-1.2-2.2-17.1-1.5-19.7.9-2.1 1.9-2.2 1.7-.1-1zm-15.7-32.8c2.4-4.6-.6-10.6-5.4-10.6-4.7 0-12.2-5-12.2-8.1s-6.4-3.2-7.5 0c-1.2 3 5 16.8 8.9 19.8 4.7 3.6 14 3 16.2-1.1zm69.7-11.4c2.5-5.1 2.3-5-4.6 1.6-4 3.9-7.2 8.1-7.2 9.6 0 3.5 8.3-4.3 11.8-11.2zm-22.3 5.1c0-1.5-.8-2.2-1.8-1.6-2.3 1.4-2.3 4.4 0 4.4 1 0 1.8-1.3 1.8-2.8zM63.2 155c0-.8-3.2-4.5-7-8.3-8.4-8.2-9.6-4.6-1.4 3.9 5.4 5.6 8.4 7.2 8.4 4.4zm31-7.7c2.3-2.1 4.1-5.1 4.1-6.5 0-1.9-1.6-1.1-5.3 2.4-5 4.8-6.6 7.9-4 7.9.6 0 3-1.7 5.2-3.8zm-22.2.6c0-2.4-19.2-20.4-20.5-19.1-.7.7 3 5.6 8.2 10.9 9.1 9.2 12.3 11.3 12.3 8.2zm50.3-13.8c-1.7-1.7-13.5 10-13.5 13.3 0 1.7 2.8 0 7.4-4.6 4.1-4.1 6.8-8 6.1-8.7zm-89.5 6.4c3.6 0 4.1-.8 4.1-7.9v-7.9h-7.1c-7 0-7 0-7 6.9 0 9 1.6 13.3 4.1 10.8 1-1 3.7-1.9 5.9-1.9zm76.9-7c1.8-1.9 2.7-4 2.1-4.7-1.3-1.3-8.2 4.4-8.2 6.7 0 2.6 2.8 1.7 6.1-2zm-36 .6c0-2.4-7.7-9.4-10.3-9.4-1.8 0-1.1 1.6 2.4 5.3 4.9 5 7.9 6.6 7.9 4.1zm19-.9c1.1-1.2 2.1-3.3 2.1-4.7 0-2-.7-1.9-3.5.6-3.6 3.3-4.6 6.2-2.1 6.2.7 0 2.3-1 3.5-2.1zm-1-17.6c-3-3.1-6.1-5.1-6.8-4.4-1.7 1.7 6.4 10 9.7 10 1.9 0 1-1.8-2.9-5.6zm43.4-1.9c0-8.2-2.2-13.5-4.2-10.3-.7 1.1-3.1 2-5.5 2-3.9 0-4.3.7-4.3 7.9v7.9h14.1zm-65.5-2.4c-1.7-1.7-6.5 2.8-6.5 6.1 0 2.2.8 2 3.9-1.1 2.1-2.1 3.3-4.3 2.6-5zm-17.9 2.8c1.8-1.9 2.7-4 2.1-4.6-1.3-1.3-8.2 4.3-8.2 6.7 0 2.5 2.8 1.6 6.1-2.1zm55.3 2.2c0-2.5-19.2-20.4-20.5-19.1-.7.7 3 5.5 8.3 10.8 9 9.2 12.2 11.4 12.2 8.3zm-63.7-9.5c3.2-3.1 5.8-6.8 5.8-8.3 0-1.6-2.7-.1-7 4.2-6.7 6.5-8.6 9.7-5.8 9.7.6 0 3.8-2.5 7-5.6zm26.3-11.3c-1.7-1.8-10 6.3-10 9.7 0 1.9 1.8 1 5.6-2.9 3.1-3.1 5.1-6.2 4.4-6.8zm33.3-.4c-3.5-3.4-6.9-5.7-7.6-5s1.9 4.4 5.7 8.3c3.7 3.9 7.1 6.2 7.5 5.1s-2.1-4.9-5.6-8.4zm27.5 6.1c1.1-3-5-16.8-8.9-19.8-4.8-3.6-14-3-16.2 1.1-2.5 4.6.5 10.6 5.3 10.6 4.7 0 12.2 5 12.2 8.1s6.4 3.2 7.6 0zM47.3 82.7c0-3.5-8.3 4.3-11.8 11.2-2.5 5.1-2.3 5 4.6-1.6 4-3.9 7.2-8.1 7.2-9.6zm14.1 5c0-.9-.8-1.7-1.8-1.7s-1.7 1.3-1.7 2.8.7 2.2 1.7 1.6 1.8-1.8 1.8-2.7zm25.9-28.9c6.7-3.4 7.4-5.4 6.2-17.4l-1-9.8H66.2l.7 12.2c.6 9.6 1.5 12.9 4.2 14.9 4.4 3.4 9.5 3.4 16.2.1zm-18.1-8c-.6-1.1-.7-2.4-.1-3 .6-.5 1-.1 1 1 0 2.8 16.2 2.7 19.4-.1 2-1.9 2.1-1.7.1.9-2.6 3.5-18.4 4.4-20.4 1.2zm-.8-12.2c0-1 .8-1.8 1.7-1.8a1.79 1.79 0 0 1 1.8 1.8c0 1-.8 1.7-1.8 1.7-.9 0-1.7-.7-1.7-1.7zm14 0a1.79 1.79 0 0 1 1.8-1.8c1 0 1.7.8 1.7 1.8s-.7 1.7-1.7 1.7-1.8-.7-1.8-1.7zm30.8-.9c0-9.1-.4-16.1-.9-15.6s-.9 8.3-.9 17.4c-.1 9 .3 16.1.8 15.6s.9-8.4 1-17.4zM68.9 14.5c.4-2.2.2-4-.5-4-2.5 0-10.5 7.3-10.5 9.6 0 4.2 10.1-.9 11-5.6zm-36 200.6c-8.9-4.9-8.5-16.4.7-21.2 6.5-3.4 8-2.1 4.3 3.6-1.8 2.8-2.2 4.7-1 5.4 1.2.8 1.2 1.9.1 3.2-1.1 1.4-.8 3.2.8 5.5 4.8 6.5 2.9 7.7-4.9 3.5zm2.1-5.2c-1.4-1.7-1.4-2.6 0-3.5s1.4-1.8 0-3.5c-1.3-1.7-1.3-2.7 0-3.5 1-.6 1.4-1.9.8-2.9-1.8-2.9-7.3 3.4-7 8 .2 4.9 4.2 10.2 6.5 8.7 1-.6.9-1.9-.3-3.3zm-2.9.5c-2.4-3.9-1.9-10.1 1-12.4 2.5-1.9 2.5-1.8.5.8-1.6 2-1.7 3.2-.3 4.1 1.3.8 1.3 1.9.1 3.3-1.2 1.5-1.2 2.9.3 4.3 1.1 1.1 1.5 2 .9 2s-1.7-.9-2.5-2.1zM117.5 53c0-.8 1.2-3 2.5-4.8 1.7-2.3 1.9-4.1.8-5.5-1.1-1.3-1-2.4.1-3.2 1.2-.7.9-2.6-1-5.4-3.7-5.8-2.2-7 4.5-3.5 9.3 4.8 9.4 16.4.1 21.2-5.7 3-7 3.2-7 1.2zm11.6-11.6c-.3-4.9-4.2-10.2-6.6-8.8-1 .6-.8 2 .3 3.4 1.4 1.6 1.4 2.6 0 3.5-1.4.8-1.4 1.8 0 3.5 1.4 1.6 1.4 2.6.1 3.5-1.1.6-1.4 1.9-.8 2.9 1.7 2.8 7.2-3.4 7-8zm-4.8 5.7c1.6-2.2 1.7-3.3.2-4.2-1.4-.8-1.4-1.7-.1-3.1 1.3-1.3 1.2-2.6-.3-4.6-1.9-2.4-1.8-2.5.6-.6 3.4 2.7 3.3 10.1-.1 13.2-2.1 1.9-2.2 1.8-.3-.7z" fill="#9b9800"/><path d="M73.7 239c-1.4-1-5.1-1.7-8.2-1.8-4.2 0-6.8-1.5-10.8-6.3-4.8-5.8-5.3-6.1-7.1-3.1-1.6 2.8-2.1 2.9-3.7.6-.9-1.4-1.7-6.4-1.7-11-.1-6.5-.7-8.3-2.9-8.3s-2.4-.6-.9-2.3c1.4-1.7 1.3-2.9-.2-4.4-1.6-1.6-1.3-2.1.9-2.1s3-1.5 3-5.3c0-2.9-.7-5.2-1.6-5.2s-2.8-2.5-4.3-5.5c-2.3-4.6-2.4-5.1-.2-3.3 1.5 1.2 2.6 3.3 2.6 4.6s.8 2.4 1.8 2.4c.9 0 1.7-3.1 1.7-7 0-6.3-.6-7.3-6.7-10.4-3.7-1.9-9.2-6.2-12.1-9.6-6.1-6.9-12.8-23.2-12.8-31 0-2.9-.8-5.2-1.7-5.2A1.79 1.79 0 0 1 7 123c0-1 4.9-1.8 11.2-1.8h11.1l1.1-11.3c.6-6.3 2.2-13.6 3.6-16.3 2.8-5.2 22.6-25.4 22.1-22.4-.8 4.3.7 6.1 10.2 12.5l10.5 6.9c.3.1-1.1 6.5-3 14.1-4.2 16.7-4.2 16.5-1.1 16.5 1.4 0 2.9-2.7 3.6-6.5.6-3.7 2.4-10.7 3.9-15.6 2.3-7.3 3.8-9.3 8.3-11 3.1-1.1 8.9-4.4 12.9-7.4 7-5.1 7.4-6 7.4-14.1 0-9.2-2.7-11.8-4-3.8l-.7 4.9-.3-4.9c-.1-3 .8-5.3 2.4-5.9 1.9-.8 2.6-3.7 2.6-10.5 0-10-.8-11-6-7.2-2.7 2-2.8 3-1 6.4 1.5 2.9 1.6 4.5.2 5.9-1.1 1.1-1.9 3.3-1.9 5s-1.3 3.8-2.8 4.6c-2.5 1.4-2.5 1.9.2 4.6 1.6 1.6 2.6 3.4 2 4-.5.5-2-.7-3.2-2.8-2.4-3.7-6.8-5-6.8-2 0 .8-3.2 2.1-7.1 2.8-5.5.9-7.9.5-10.4-1.8-3.1-2.8-3.3-2.7-4 .3q-.8 3.1-.4-.7c.2-2.1-1.1-6-2.9-8.7-2-3.1-3.2-8.2-3.2-13.3-.1-5.9-.8-8.4-2.5-8.4-4.4 0-7.3-5.1-4.9-8.9 1.1-1.8 2.1-4.4 2.1-5.7 0-3.2 6.6-8.9 14.6-12.7 5.7-2.6 7.8-2.8 12.5-1.1 3.1 1.2 7.7 2.1 10.2 2.1 3.1 0 6.2 2 9.8 6.3 4.8 5.8 5.3 6.1 7.1 3.1 1.6-2.8 2.1-2.9 3.7-.6.9 1.4 1.7 6.4 1.7 11 .1 6.5.7 8.3 2.9 8.3s2.4.6.9 2.3c-1.4 1.7-1.3 2.9.2 4.4 1.6 1.6 1.3 2.1-.9 2.1s-3 1.5-3 5.3c0 2.9.7 5.2 1.6 5.2s2.8 2.5 4.3 5.5c2.3 4.6 2.4 5.1.2 3.3-1.5-1.2-2.6-3.3-2.6-4.6s-.8-2.4-1.8-2.4c-.9 0-1.7 3.1-1.7 7 0 6.3.6 7.3 6.7 10.4 3.7 1.9 9.2 6.2 12.1 9.6 6.1 6.9 12.8 23.2 12.8 31 0 2.9.8 5.2 1.7 5.2a1.79 1.79 0 0 1 1.8 1.8c0 1-4.9 1.8-11.2 1.8h-11.1l-1.1 11.3c-.6 6.3-2.2 13.6-3.6 16.3-2.8 5.2-22.6 25.4-22.1 22.4.8-4.3-.7-6.1-10.2-12.5l-10.5-6.9c-.3-.1 1.1-6.5 3-14.1 4.2-16.7 4.2-16.5 1.1-16.5-1.4 0-2.9 2.7-3.6 6.5-.6 3.7-2.4 10.7-3.9 15.6-2.3 7.3-3.8 9.3-8.3 11-3.1 1.1-8.9 4.4-12.9 7.4-7 5.1-7.4 6-7.4 14.1 0 9.2 2.7 11.8 4 3.8l.7-4.8.3 4.8c.1 3-.8 5.3-2.4 5.9-1.9.8-2.6 3.7-2.6 10.5 0 10 .8 11 6 7.2 2.7-2 2.8-3 1-6.4-1.5-2.9-1.6-4.5-.2-5.9 1.1-1.1 1.9-3.3 1.9-5s1.3-3.8 2.8-4.6c2.5-1.4 2.5-1.9-.2-4.6-1.6-1.6-2.6-3.4-2-4 .5-.5 2 .7 3.2 2.8 2.4 3.7 6.8 5 6.8 2 0-.8 3.2-2.1 7.1-2.8 5.5-.9 7.9-.5 10.4 1.8 3.1 2.8 3.3 2.7 4-.3q.8-3.1.4.7c-.2 2.1 1.1 6 2.9 8.7 2 3.1 3.2 8.2 3.2 13.3.1 5.9.8 8.4 2.5 8.4 4.4 0 7.3 5.1 4.9 8.9-1.1 1.8-2.1 4.4-2.1 5.7 0 3-6.3 8.7-13.9 12.3-6.8 3.3-10.4 3.6-14.2 1.2zm21.7-7.2c2.6-2 4.7-4.7 4.7-6 0-4.2-10.2.9-11.1 5.6-.9 5 .5 5.1 6.4.4zm-48.9-25.4c.1-9-.3-16-.8-15.5s-.9 8.3-1 17.3c0 9.1.4 16.1.9 15.6s.9-8.3.9-17.4zm44.5-4.3c-.6-9.6-1.4-12.8-4.2-14.9-4.4-3.3-9.4-3.4-16.1 0-6.8 3.4-7.5 5.3-6.3 17.4l1 9.8h26.3zm-19 5.2c0-1 .8-1.7 1.7-1.7 1 0 1.8.7 1.8 1.7a1.79 1.79 0 0 1-1.8 1.8c-.9 0-1.7-.8-1.7-1.8zm14 0c0-1 .8-1.7 1.8-1.7.9 0 1.7.7 1.7 1.7s-.8 1.8-1.7 1.8a1.79 1.79 0 0 1-1.8-1.8zm-17.6-11.1c1.8-2.4 4.4-3 11.2-2.6 4.8.3 8.9 1.3 9.1 2.3.1 1-.1 1.2-.5.4-1.2-2.2-17.1-1.5-19.7.9-2.1 1.9-2.2 1.7-.1-1zm-15.7-32.8c2.4-4.6-.6-10.6-5.4-10.6-4.7 0-12.2-5-12.2-8.1s-6.4-3.2-7.5 0c-1.2 3 5 16.8 8.9 19.8 4.7 3.6 14 3 16.2-1.1zm69.7-11.4c2.5-5.1 2.3-5-4.6 1.6-4 3.9-7.2 8.1-7.2 9.6 0 3.5 8.3-4.3 11.8-11.2zm-22.3 5.1c0-1.5-.8-2.2-1.8-1.6-2.3 1.4-2.3 4.4 0 4.4 1 0 1.8-1.3 1.8-2.8zM63.2 155c0-.8-3.2-4.5-7-8.3-8.4-8.2-9.6-4.6-1.4 3.9 5.4 5.6 8.4 7.2 8.4 4.4zm31-7.7c2.3-2.1 4.1-5.1 4.1-6.5 0-1.9-1.6-1.1-5.3 2.4-5 4.8-6.6 7.9-4 7.9.6 0 3-1.7 5.2-3.8zm-22.2.6c0-2.4-19.2-20.4-20.5-19.1-.7.7 3 5.6 8.2 10.9 9.1 9.2 12.3 11.3 12.3 8.2zm50.3-13.8c-1.7-1.7-13.5 10-13.5 13.3 0 1.7 2.8 0 7.4-4.6 4.1-4.1 6.8-8 6.1-8.7zm-89.5 6.4c3.6 0 4.1-.8 4.1-7.9v-7.9h-7.1c-7 0-7 0-7 6.9 0 9 1.6 13.3 4.1 10.8 1-1 3.7-1.9 5.9-1.9zm76.9-7c1.8-1.9 2.7-4 2.1-4.7-1.3-1.3-8.2 4.4-8.2 6.7 0 2.6 2.8 1.7 6.1-2zm-36 .6c0-2.4-7.7-9.4-10.3-9.4-1.8 0-1.1 1.6 2.4 5.3 4.9 5 7.9 6.6 7.9 4.1zm19-.9c1.1-1.2 2.1-3.3 2.1-4.7 0-2-.7-1.9-3.5.6-3.6 3.3-4.6 6.2-2.1 6.2.7 0 2.3-1 3.5-2.1zm-1-17.6c-3-3.1-6.1-5.1-6.8-4.4-1.7 1.7 6.4 10 9.7 10 1.9 0 1-1.8-2.9-5.6zm43.4-1.9c0-8.2-2.2-13.5-4.2-10.3-.7 1.1-3.1 2-5.5 2-3.9 0-4.3.7-4.3 7.9v7.9h14.1zm-65.5-2.4c-1.7-1.7-6.5 2.8-6.5 6.1 0 2.2.8 2 3.9-1.1 2.1-2.1 3.3-4.3 2.6-5zm-17.9 2.8c1.8-1.9 2.7-4 2.1-4.6-1.3-1.3-8.2 4.3-8.2 6.7 0 2.5 2.8 1.6 6.1-2.1zm55.3 2.2c0-2.5-19.2-20.4-20.5-19.1-.7.7 3 5.5 8.3 10.8 9 9.2 12.2 11.4 12.2 8.3zm-63.7-9.5c3.2-3.1 5.8-6.8 5.8-8.3 0-1.6-2.7-.1-7 4.2-6.7 6.5-8.6 9.7-5.8 9.7.6 0 3.8-2.5 7-5.6zm26.3-11.3c-1.7-1.8-10 6.3-10 9.7 0 1.9 1.8 1 5.6-2.9 3.1-3.1 5.1-6.2 4.4-6.8zm33.3-.4c-3.5-3.4-6.9-5.7-7.6-5s1.9 4.4 5.7 8.3c3.7 3.9 7.1 6.2 7.5 5.1s-2.1-4.9-5.6-8.4zm27.5 6.1c1.1-3-5-16.8-8.9-19.8-4.8-3.6-14-3-16.2 1.1-2.5 4.6.5 10.6 5.3 10.6 4.7 0 12.2 5 12.2 8.1s6.4 3.2 7.6 0zM47.3 82.7c0-3.5-8.3 4.3-11.8 11.2-2.5 5.1-2.3 5 4.6-1.6 4-3.9 7.2-8.1 7.2-9.6zm14.1 5c0-.9-.8-1.7-1.8-1.7s-1.7 1.3-1.7 2.8.7 2.2 1.7 1.6 1.8-1.8 1.8-2.7zm25.9-28.9c6.7-3.4 7.4-5.4 6.2-17.4l-1-9.8H66.2l.7 12.2c.6 9.6 1.5 12.9 4.2 14.9 4.4 3.4 9.5 3.4 16.2.1zm-18.1-8c-.6-1.1-.7-2.4-.1-3 .6-.5 1-.1 1 1 0 2.8 16.2 2.7 19.4-.1 2-1.9 2.1-1.7.1.9-2.6 3.5-18.4 4.4-20.4 1.2zm-.8-12.2c0-1 .8-1.8 1.7-1.8a1.79 1.79 0 0 1 1.8 1.8c0 1-.8 1.7-1.8 1.7-.9 0-1.7-.7-1.7-1.7zm14 0a1.79 1.79 0 0 1 1.8-1.8c1 0 1.7.8 1.7 1.8s-.7 1.7-1.7 1.7-1.8-.7-1.8-1.7zm30.8-.9c0-9.1-.4-16.1-.9-15.6s-.9 8.3-.9 17.4c-.1 9 .3 16.1.8 15.6s.9-8.4 1-17.4zM68.9 14.5c.4-2.2.2-4-.5-4-2.5 0-10.5 7.3-10.5 9.6 0 4.2 10.1-.9 11-5.6zm-36 200.6c-8.9-4.9-8.5-16.4.7-21.2 6.5-3.4 8-2.1 4.3 3.6-1.8 2.8-2.2 4.7-1 5.4 1.2.8 1.2 1.9.1 3.2-1.1 1.4-.8 3.2.8 5.5 4.8 6.5 2.9 7.7-4.9 3.5zm2.1-5.2c-1.4-1.7-1.4-2.6 0-3.5s1.4-1.8 0-3.5c-1.3-1.7-1.3-2.7 0-3.5 1-.6 1.4-1.9.8-2.9-1.8-2.9-7.3 3.4-7 8 .2 4.9 4.2 10.2 6.5 8.7 1-.6.9-1.9-.3-3.3zm-2.9.5c-2.4-3.9-1.9-10.1 1-12.4 2.5-1.9 2.5-1.8.5.8-1.6 2-1.7 3.2-.3 4.1 1.3.8 1.3 1.9.1 3.3-1.2 1.5-1.2 2.9.3 4.3 1.1 1.1 1.5 2 .9 2s-1.7-.9-2.5-2.1zM117.5 53c0-.8 1.2-3 2.5-4.8 1.7-2.3 1.9-4.1.8-5.5-1.1-1.3-1-2.4.1-3.2 1.2-.7.9-2.6-1-5.4-3.7-5.8-2.2-7 4.5-3.5 9.3 4.8 9.4 16.4.1 21.2-5.7 3-7 3.2-7 1.2zm11.6-11.6c-.3-4.9-4.2-10.2-6.6-8.8-1 .6-.8 2 .3 3.4 1.4 1.6 1.4 2.6 0 3.5-1.4.8-1.4 1.8 0 3.5 1.4 1.6 1.4 2.6.1 3.5-1.1.6-1.4 1.9-.8 2.9 1.7 2.8 7.2-3.4 7-8zm-4.8 5.7c1.6-2.2 1.7-3.3.2-4.2-1.4-.8-1.4-1.7-.1-3.1 1.3-1.3 1.2-2.6-.3-4.6-1.9-2.4-1.8-2.5.6-.6 3.4 2.7 3.3 10.1-.1 13.2-2.1 1.9-2.2 1.8-.3-.7z" fill="#fe0000"/><path d="M73.7 239c-1.4-1-5.1-1.7-8.2-1.8-4.2 0-6.8-1.5-10.8-6.3-4.8-5.8-5.3-6.1-7.1-3.1-1.6 2.8-2.1 2.9-3.7.6-.9-1.4-1.7-6.4-1.7-11-.1-6.5-.7-8.3-2.9-8.3s-2.4-.6-.9-2.3c1.4-1.7 1.3-2.9-.2-4.4-1.6-1.6-1.3-2.1.9-2.1s3-1.5 3-5.3c0-2.9-.7-5.2-1.6-5.2s-2.8-2.5-4.3-5.5c-2.3-4.6-2.4-5.1-.2-3.3 1.5 1.2 2.6 3.3 2.6 4.6s.8 2.4 1.8 2.4c.9 0 1.7-3.1 1.7-7 0-6.3-.6-7.3-6.7-10.4-3.7-1.9-9.2-6.2-12.1-9.6-6.1-6.9-12.8-23.2-12.8-31 0-2.9-.8-5.2-1.7-5.2A1.79 1.79 0 0 1 7 123c0-1 4.9-1.8 11.2-1.8h11.1l1.1-11.3c.6-6.3 2.2-13.6 3.6-16.3 2.8-5.2 22.6-25.4 22.1-22.4-.8 4.3.7 6.1 10.2 12.5l10.5 6.9c.3.1-1.1 6.5-3 14.1-4.2 16.7-4.2 16.5-1.1 16.5 1.4 0 2.9-2.7 3.6-6.5.6-3.7 2.4-10.7 3.9-15.6 2.3-7.3 3.8-9.3 8.3-11 3.1-1.1 8.9-4.4 12.9-7.4 7-5.1 7.4-6 7.4-14.1 0-9.2-2.7-11.8-4-3.8l-.7 4.9-.3-4.9c-.1-3 .8-5.3 2.4-5.9 1.9-.8 2.6-3.7 2.6-10.5 0-10-.8-11-6-7.2-2.7 2-2.8 3-1 6.4 1.5 2.9 1.6 4.5.2 5.9-1.1 1.1-1.9 3.3-1.9 5s-1.3 3.8-2.8 4.6c-2.5 1.4-2.5 1.9.2 4.6 1.6 1.6 2.6 3.4 2 4-.5.5-2-.7-3.2-2.8-2.4-3.7-6.8-5-6.8-2 0 .8-3.2 2.1-7.1 2.8-5.5.9-7.9.5-10.4-1.8-3.1-2.8-3.3-2.7-4 .3q-.8 3.1-.4-.7c.2-2.1-1.1-6-2.9-8.7-2-3.1-3.2-8.2-3.2-13.3-.1-5.9-.8-8.4-2.5-8.4-4.4 0-7.3-5.1-4.9-8.9 1.1-1.8 2.1-4.4 2.1-5.7 0-3.2 6.6-8.9 14.6-12.7 5.7-2.6 7.8-2.8 12.5-1.1 3.1 1.2 7.7 2.1 10.2 2.1 3.1 0 6.2 2 9.8 6.3 4.8 5.8 5.3 6.1 7.1 3.1 1.6-2.8 2.1-2.9 3.7-.6.9 1.4 1.7 6.4 1.7 11 .1 6.5.7 8.3 2.9 8.3s2.4.6.9 2.3c-1.4 1.7-1.3 2.9.2 4.4 1.6 1.6 1.3 2.1-.9 2.1s-3 1.5-3 5.3c0 2.9.7 5.2 1.6 5.2s2.8 2.5 4.3 5.5c2.3 4.6 2.4 5.1.2 3.3-1.5-1.2-2.6-3.3-2.6-4.6s-.8-2.4-1.8-2.4c-.9 0-1.7 3.1-1.7 7 0 6.3.6 7.3 6.7 10.4 3.7 1.9 9.2 6.2 12.1 9.6 6.1 6.9 12.8 23.2 12.8 31 0 2.9.8 5.2 1.7 5.2a1.79 1.79 0 0 1 1.8 1.8c0 1-4.9 1.8-11.2 1.8h-11.1l-1.1 11.3c-.6 6.3-2.2 13.6-3.6 16.3-2.8 5.2-22.6 25.4-22.1 22.4.8-4.3-.7-6.1-10.2-12.5l-10.5-6.9c-.3-.1 1.1-6.5 3-14.1 4.2-16.7 4.2-16.5 1.1-16.5-1.4 0-2.9 2.7-3.6 6.5-.6 3.7-2.4 10.7-3.9 15.6-2.3 7.3-3.8 9.3-8.3 11-3.1 1.1-8.9 4.4-12.9 7.4-7 5.1-7.4 6-7.4 14.1 0 9.2 2.7 11.8 4 3.8l.7-4.8.3 4.8c.1 3-.8 5.3-2.4 5.9-1.9.8-2.6 3.7-2.6 10.5 0 10 .8 11 6 7.2 2.7-2 2.8-3 1-6.4-1.5-2.9-1.6-4.5-.2-5.9 1.1-1.1 1.9-3.3 1.9-5s1.3-3.8 2.8-4.6c2.5-1.4 2.5-1.9-.2-4.6-1.6-1.6-2.6-3.4-2-4 .5-.5 2 .7 3.2 2.8 2.4 3.7 6.8 5 6.8 2 0-.8 3.2-2.1 7.1-2.8 5.5-.9 7.9-.5 10.4 1.8 3.1 2.8 3.3 2.7 4-.3q.8-3.1.4.7c-.2 2.1 1.1 6 2.9 8.7 2 3.1 3.2 8.2 3.2 13.3.1 5.9.8 8.4 2.5 8.4 4.4 0 7.3 5.1 4.9 8.9-1.1 1.8-2.1 4.4-2.1 5.7 0 3-6.3 8.7-13.9 12.3-6.8 3.3-10.4 3.6-14.2 1.2zm-4.9-7.5c.9-6.1-9.2-22.4-13.8-22.4-6.5 0-5.1 14.9 2.2 23 4.3 4.7 10.9 4.4 11.6-.6zm26.6.3c2.6-2 4.7-4.7 4.7-6 0-4.2-10.2.9-11.1 5.6-.9 5 .5 5.1 6.4.4zm-48.9-25.4c.1-9-.3-16-.8-15.5s-.9 8.3-1 17.3c0 9.1.4 16.1.9 15.6s.9-8.3.9-17.4zm44.5-4.3c-.6-9.6-1.4-12.8-4.2-14.9-4.4-3.3-9.4-3.4-16.1 0-6.8 3.4-7.5 5.3-6.3 17.4l1 9.8h26.3zm-19 5.2c0-1 .8-1.7 1.7-1.7 1 0 1.8.7 1.8 1.7a1.79 1.79 0 0 1-1.8 1.8c-.9 0-1.7-.8-1.7-1.8zm14 0c0-1 .8-1.7 1.8-1.7.9 0 1.7.7 1.7 1.7s-.8 1.8-1.7 1.8a1.79 1.79 0 0 1-1.8-1.8zm-17.6-11.1c1.8-2.4 4.4-3 11.2-2.6 4.8.3 8.9 1.3 9.1 2.3.1 1-.1 1.2-.5.4-1.2-2.2-17.1-1.5-19.7.9-2.1 1.9-2.2 1.7-.1-1zm-15.7-32.8c2.4-4.6-.6-10.6-5.4-10.6-4.7 0-12.2-5-12.2-8.1s-6.4-3.2-7.5 0c-1.2 3 5 16.8 8.9 19.8 4.7 3.6 14 3 16.2-1.1zm69.7-11.4c2.5-5.1 2.3-5-4.6 1.6-4 3.9-7.2 8.1-7.2 9.6 0 3.5 8.3-4.3 11.8-11.2zm-22.3 5.1c0-1.5-.8-2.2-1.8-1.6-2.3 1.4-2.3 4.4 0 4.4 1 0 1.8-1.3 1.8-2.8zM63.2 155c0-.8-3.2-4.5-7-8.3-8.4-8.2-9.6-4.6-1.4 3.9 5.4 5.6 8.4 7.2 8.4 4.4zm31-7.7c2.3-2.1 4.1-5.1 4.1-6.5 0-1.9-1.6-1.1-5.3 2.4-5 4.8-6.6 7.9-4 7.9.6 0 3-1.7 5.2-3.8zm-22.2.6c0-2.4-19.2-20.4-20.5-19.1-.7.7 3 5.6 8.2 10.9 9.1 9.2 12.3 11.3 12.3 8.2zm50.3-13.8c-1.7-1.7-13.5 10-13.5 13.3 0 1.7 2.8 0 7.4-4.6 4.1-4.1 6.8-8 6.1-8.7zm-89.5 6.4c3.6 0 4.1-.8 4.1-7.9v-7.9h-7.1c-7 0-7 0-7 6.9 0 9 1.6 13.3 4.1 10.8 1-1 3.7-1.9 5.9-1.9zm76.9-7c1.8-1.9 2.7-4 2.1-4.7-1.3-1.3-8.2 4.4-8.2 6.7 0 2.6 2.8 1.7 6.1-2zm-36 .6c0-2.4-7.7-9.4-10.3-9.4-1.8 0-1.1 1.6 2.4 5.3 4.9 5 7.9 6.6 7.9 4.1zm19-.9c1.1-1.2 2.1-3.3 2.1-4.7 0-2-.7-1.9-3.5.6-3.6 3.3-4.6 6.2-2.1 6.2.7 0 2.3-1 3.5-2.1zm-1-17.6c-3-3.1-6.1-5.1-6.8-4.4-1.7 1.7 6.4 10 9.7 10 1.9 0 1-1.8-2.9-5.6zm43.4-1.9c0-8.2-2.2-13.5-4.2-10.3-.7 1.1-3.1 2-5.5 2-3.9 0-4.3.7-4.3 7.9v7.9h14.1zm-65.5-2.4c-1.7-1.7-6.5 2.8-6.5 6.1 0 2.2.8 2 3.9-1.1 2.1-2.1 3.3-4.3 2.6-5zm-17.9 2.8c1.8-1.9 2.7-4 2.1-4.6-1.3-1.3-8.2 4.3-8.2 6.7 0 2.5 2.8 1.6 6.1-2.1zm55.3 2.2c0-2.5-19.2-20.4-20.5-19.1-.7.7 3 5.5 8.3 10.8 9 9.2 12.2 11.4 12.2 8.3zm-63.7-9.5c3.2-3.1 5.8-6.8 5.8-8.3 0-1.6-2.7-.1-7 4.2-6.7 6.5-8.6 9.7-5.8 9.7.6 0 3.8-2.5 7-5.6zm26.3-11.3c-1.7-1.8-10 6.3-10 9.7 0 1.9 1.8 1 5.6-2.9 3.1-3.1 5.1-6.2 4.4-6.8zm33.3-.4c-3.5-3.4-6.9-5.7-7.6-5s1.9 4.4 5.7 8.3c3.7 3.9 7.1 6.2 7.5 5.1s-2.1-4.9-5.6-8.4zm27.5 6.1c1.1-3-5-16.8-8.9-19.8-4.8-3.6-14-3-16.2 1.1-2.5 4.6.5 10.6 5.3 10.6 4.7 0 12.2 5 12.2 8.1s6.4 3.2 7.6 0zM47.3 82.7c0-3.5-8.3 4.3-11.8 11.2-2.5 5.1-2.3 5 4.6-1.6 4-3.9 7.2-8.1 7.2-9.6zm14.1 5c0-.9-.8-1.7-1.8-1.7s-1.7 1.3-1.7 2.8.7 2.2 1.7 1.6 1.8-1.8 1.8-2.7zm25.9-28.9c6.7-3.4 7.4-5.4 6.2-17.4l-1-9.8H66.2l.7 12.2c.6 9.6 1.5 12.9 4.2 14.9 4.4 3.4 9.5 3.4 16.2.1zm-18.1-8c-.6-1.1-.7-2.4-.1-3 .6-.5 1-.1 1 1 0 2.8 16.2 2.7 19.4-.1 2-1.9 2.1-1.7.1.9-2.6 3.5-18.4 4.4-20.4 1.2zm-.8-12.2c0-1 .8-1.8 1.7-1.8a1.79 1.79 0 0 1 1.8 1.8c0 1-.8 1.7-1.8 1.7-.9 0-1.7-.7-1.7-1.7zm14 0a1.79 1.79 0 0 1 1.8-1.8c1 0 1.7.8 1.7 1.8s-.7 1.7-1.7 1.7-1.8-.7-1.8-1.7zm30.8-.9c0-9.1-.4-16.1-.9-15.6s-.9 8.3-.9 17.4c-.1 9 .3 16.1.8 15.6s.9-8.4 1-17.4zm-6.4-4c1.9-3.6-1.4-14.7-6-19.8-1.7-1.9-4.9-3.4-7.1-3.4-5.4 0-6.2 6.2-1.7 14 7.1 12.5 11.6 15.2 14.8 9.2zM68.9 14.5c.4-2.2.2-4-.5-4-2.5 0-10.5 7.3-10.5 9.6 0 4.2 10.1-.9 11-5.6zm-36 200.6c-8.9-4.9-8.5-16.4.7-21.2 6.5-3.4 8-2.1 4.3 3.6-1.8 2.8-2.2 4.7-1 5.4 1.2.8 1.2 1.9.1 3.2-1.1 1.4-.8 3.2.8 5.5 4.8 6.5 2.9 7.7-4.9 3.5zm2.1-5.2c-1.4-1.7-1.4-2.6 0-3.5s1.4-1.8 0-3.5c-1.3-1.7-1.3-2.7 0-3.5 1-.6 1.4-1.9.8-2.9-1.8-2.9-7.3 3.4-7 8 .2 4.9 4.2 10.2 6.5 8.7 1-.6.9-1.9-.3-3.3zm-2.9.5c-2.4-3.9-1.9-10.1 1-12.4 2.5-1.9 2.5-1.8.5.8-1.6 2-1.7 3.2-.3 4.1 1.3.8 1.3 1.9.1 3.3-1.2 1.5-1.2 2.9.3 4.3 1.1 1.1 1.5 2 .9 2s-1.7-.9-2.5-2.1zM117.5 53c0-.8 1.2-3 2.5-4.8 1.7-2.3 1.9-4.1.8-5.5-1.1-1.3-1-2.4.1-3.2 1.2-.7.9-2.6-1-5.4-3.7-5.8-2.2-7 4.5-3.5 9.3 4.8 9.4 16.4.1 21.2-5.7 3-7 3.2-7 1.2zm11.6-11.6c-.3-4.9-4.2-10.2-6.6-8.8-1 .6-.8 2 .3 3.4 1.4 1.6 1.4 2.6 0 3.5-1.4.8-1.4 1.8 0 3.5 1.4 1.6 1.4 2.6.1 3.5-1.1.6-1.4 1.9-.8 2.9 1.7 2.8 7.2-3.4 7-8zm-4.8 5.7c1.6-2.2 1.7-3.3.2-4.2-1.4-.8-1.4-1.7-.1-3.1 1.3-1.3 1.2-2.6-.3-4.6-1.9-2.4-1.8-2.5.6-.6 3.4 2.7 3.3 10.1-.1 13.2-2.1 1.9-2.2 1.8-.3-.7z" fill="#0000fe"/><path d="M73.7 239c-1.4-1-5.1-1.7-8.2-1.8-4.2 0-6.8-1.5-10.8-6.3-4.8-5.8-5.3-6.1-7.1-3.1-1.6 2.8-2.1 2.9-3.7.6-.9-1.4-1.7-6.4-1.7-11-.1-6.5-.7-8.3-2.9-8.3s-2.4-.6-.9-2.3c1.4-1.7 1.3-2.9-.2-4.4-1.6-1.6-1.3-2.1.9-2.1s3-1.5 3-5.3c0-2.9-.7-5.2-1.6-5.2s-2.8-2.5-4.3-5.5c-2.3-4.6-2.4-5.1-.2-3.3 1.5 1.2 2.6 3.3 2.6 4.6s.8 2.4 1.8 2.4c.9 0 1.7-3.1 1.7-7 0-6.3-.6-7.3-6.7-10.4-3.7-1.9-9.2-6.2-12.1-9.6-6.1-6.9-12.8-23.2-12.8-31 0-2.9-.8-5.2-1.7-5.2A1.79 1.79 0 0 1 7 123c0-1 4.9-1.8 11.2-1.8h11.1l1.1-11.3c1.3-14.1 3.7-18.7 15.9-30.7 9.4-9.2 9.6-9.3 8.8-4.2-.9 6.2 3.4 17.9 5.5 14.6.7-1.2.3-2.8-1.1-3.7q-2.4-1.5-.4-1.5c3.6-.1 4.6 3.5 1.8 6.6-2.1 2.4-2.2 3.4-.4 5.1 1.7 1.5 2.9 1.3 5.1-.8 2.2-2.3 3.3-2.4 5-.8 1.7 1.7.9 3.4-3.9 7.9l-6 5.6c.3 1 .6 2.2 1 3.6 2.2 7.6 6.8 13 6.8 7.9 0-1.1-1-1.4-2.2-.7s-.7-.4 1.1-2.5c4-4.5 2.5-7.2-2-3.7-2.8 2.3-2.9 2.2-.7-.6 1.4-1.7 3.5-3.1 4.9-3.1 1.3 0 2.4-1.7 2.5-3.9.1-3.7 4.7-17.6 5-15.2.1.6-1.4 7.4-3.3 15-4.2 16.6-4.2 16.4-1.1 16.4 1.5 0 2.9-2.7 3.7-7.3 1.3-7.8 7.5-26.4 7.7-23.2.1 1.1-.9 5.1-2.2 8.8-1.4 3.8-3 10.2-3.7 14.3l-1.3 7.4h13.2l-4.1-4.4c-3.2-3.4-3.7-4.9-2.1-6.5 1.7-1.6 3.6-.6 8.8 4.4 4.1 4 8.3 6.5 11 6.5 3.9 0 4.5-.7 4.7-6.5.2-5.7-1-7.9-7.9-15-6.4-6.5-7.7-8.8-6.1-10.4 1.7-1.7 3.5-.8 8.3 3.8 7 6.8 8 5.9 2.3-1.8l-3.8-5.2 3.8-5.2c2.8-3.7 3.8-7.7 3.8-14.1 0-9.3-2.7-12.1-4-4l-.7 4.9-.3-4.9c-.1-3 .8-5.3 2.4-5.9 1.9-.8 2.6-3.7 2.6-10.5 0-10-.8-11-6-7.2-2.7 2-2.8 3-1 6.4 1.5 2.9 1.6 4.5.2 5.9-1.1 1.1-1.9 3.3-1.9 5s-1.3 3.8-2.8 4.6c-2.5 1.4-2.5 1.9.2 4.6 1.6 1.6 2.6 3.4 2 4-.5.5-2-.7-3.2-2.8-2.4-3.7-6.8-5-6.8-2 0 .8-3.2 2.1-7.1 2.8-5.5.9-7.9.5-10.4-1.8-3.1-2.8-3.3-2.7-4 .3q-.8 3.1-.4-.7c.2-2.1-1.1-6-2.9-8.7-2-3.1-3.2-8.2-3.2-13.3-.1-5.9-.8-8.4-2.5-8.4-4.4 0-7.3-5.1-4.9-8.9 1.1-1.8 2.1-4.4 2.1-5.7 0-3.2 6.6-8.9 14.6-12.7 5.7-2.6 7.8-2.8 12.5-1.1 3.1 1.2 7.7 2.1 10.2 2.1 3.1 0 6.2 2 9.8 6.3 4.8 5.8 5.3 6.1 7.1 3.1 1.6-2.8 2.1-2.9 3.7-.6.9 1.4 1.7 6.4 1.7 11 .1 6.5.7 8.3 2.9 8.3s2.4.6.9 2.3c-1.4 1.7-1.3 2.9.2 4.4 1.6 1.6 1.3 2.1-.9 2.1s-3 1.5-3 5.3c0 2.9.7 5.2 1.6 5.2s2.8 2.5 4.3 5.5c2.3 4.6 2.4 5.1.2 3.3-1.5-1.2-2.6-3.3-2.6-4.6s-.8-2.4-1.8-2.4c-.9 0-1.7 3.1-1.7 7 0 6.3.6 7.3 6.7 10.4 3.7 1.9 9.2 6.2 12.1 9.6 6.1 6.9 12.8 23.2 12.8 31 0 2.9.8 5.2 1.7 5.2a1.79 1.79 0 0 1 1.8 1.8c0 1-4.9 1.8-11.2 1.8h-11.1l-1.1 11.3c-1.3 14.1-3.7 18.7-15.9 30.7-9.4 9.2-9.6 9.3-8.8 4.2.9-6.2-3.4-17.9-5.5-14.6-.7 1.2-.3 2.8 1.1 3.7q2.4 1.5.4 1.5c-3.6.1-4.6-3.7-1.8-6.5 2-2.1 2.2-3.2.6-4.9-1.6-1.8-2.6-1.7-5.1.5-2.4 2.2-3.6 2.3-5.2.7-1.7-1.6-.8-3.4 3.9-7.8l6-5.6c-.3-1-.6-2.2-1-3.6-2.2-7.6-6.8-13-6.8-7.9 0 1.1 1 1.4 2.2.7s.7.4-1.1 2.5c-4 4.5-2.5 7.2 2 3.7 2.8-2.3 2.9-2.2.7.6-1.4 1.7-3.5 3.1-4.9 3.1-1.3 0-2.4 1.7-2.5 3.9-.1 3.7-4.7 17.6-5 15.2-.1-.6 1.4-7.4 3.3-15 4.2-16.6 4.2-16.4 1.1-16.4-1.5 0-2.9 2.7-3.7 7.3-1.3 7.8-7.5 26.4-7.7 23.2-.1-1.1.9-5.1 2.2-8.8 1.4-3.8 3-10.2 3.7-14.3l1.3-7.4H67.9l4.1 4.4c3.2 3.4 3.7 4.9 2.1 6.5-1.7 1.6-3.6.6-8.8-4.4-4.1-4-8.3-6.5-11-6.5-3.9 0-4.5.7-4.7 6.5-.2 5.7 1 7.9 7.9 15 6.4 6.5 7.7 8.8 6.1 10.4-1.7 1.7-3.5.8-8.3-3.8-7-6.8-8-5.9-2.3 1.8l3.8 5.2-3.8 5.2c-2.8 3.7-3.8 7.7-3.8 14.1 0 9.3 2.7 12.1 4 4l.7-4.8.3 4.8c.1 3-.8 5.3-2.4 5.9-1.9.8-2.6 3.7-2.6 10.5 0 10 .8 11 6 7.2 2.7-2 2.8-3 1-6.4-1.5-2.9-1.6-4.5-.2-5.9 1.1-1.1 1.9-3.3 1.9-5s1.3-3.8 2.8-4.6c2.5-1.4 2.5-1.9-.2-4.6-1.6-1.6-2.6-3.4-2-4 .5-.5 2 .7 3.2 2.8 2.4 3.7 6.8 5 6.8 2 0-.8 3.2-2.1 7.1-2.8 5.5-.9 7.9-.5 10.4 1.8 3.1 2.8 3.3 2.7 4-.3q.8-3.1.4.7c-.2 2.1 1.1 6 2.9 8.7 2 3.1 3.2 8.2 3.2 13.3.1 5.9.8 8.4 2.5 8.4 4.4 0 7.3 5.1 4.9 8.9-1.1 1.8-2.1 4.4-2.1 5.7 0 3-6.3 8.7-13.9 12.3-6.8 3.3-10.4 3.6-14.2 1.2zm-13-131q0 0 0 0l-.1.1zm5-5.6c6.2-6.9 4.5-10.1-1.8-3.7-3.6 3.6-4.3 4.5-3.2 9.3zM97.3 138q0 0 0 0l.1-.1zm-5.1 5.6c-6.1 6.9-4.4 10.1 1.9 3.7 3.6-3.6 4.3-4.5 3.2-9.3zm-6.3 92c2.9-5.5 2.1-8.9-2.5-11-8.6-3.9-18.2 7.8-10.2 12.5 4.9 2.8 10.7 2.2 12.7-1.5zm-17.2-4.1c.9-6.1-9.2-22.4-13.8-22.4-6.5 0-5.1 14.9 2.2 23 4.3 4.7 10.9 4.4 11.6-.6zm26.6.3c2.6-2 4.7-4.7 4.7-6 0-4.2-10.2.9-11.1 5.6-.9 5 .5 5.1 6.4.4zm-48.9-25.4c.1-9-.3-16-.8-15.5s-.9 8.3-1 17.3c0 9.1.4 16.1.9 15.6s.9-8.3.9-17.4zm44.5-4.3c-.6-9.6-1.4-12.8-4.2-14.9-4.4-3.3-9.4-3.4-16.1 0-6.8 3.4-7.5 5.3-6.3 17.4l1 9.8h26.3zm-19 5.2c0-1 .8-1.7 1.7-1.7 1 0 1.8.7 1.8 1.7a1.79 1.79 0 0 1-1.8 1.8c-.9 0-1.7-.8-1.7-1.8zm14 0c0-1 .8-1.7 1.8-1.7.9 0 1.7.7 1.7 1.7s-.8 1.8-1.7 1.8a1.79 1.79 0 0 1-1.8-1.8zm-17.6-11.1c1.8-2.4 4.4-3 11.2-2.6 4.8.3 8.9 1.3 9.1 2.3.1 1-.1 1.2-.5.4-1.2-2.2-17.1-1.5-19.7.9-2.1 1.9-2.2 1.7-.1-1zm-15.7-32.8c2.4-4.6-.6-10.6-5.4-10.6-4.7 0-12.2-5-12.2-8.1s-6.4-3.2-7.5 0c-1.2 3 5 16.8 8.9 19.8 4.7 3.6 14 3 16.2-1.1zm68.7-9.4c2.3-4.2 3.4-9 4.5-20.1l.9-9.2h-12.5c-11.3 0-12.5.4-12.5 3.5 0 4.3 1.4 4.5 5.6.6 2.5-2.2 3.8-2.5 5.3-.9 1.6 1.6 1 3.2-2.6 7-4.5 4.7-6.2 9.2-3.5 9.2.7 0 4.2-3 7.9-6.6 5.2-5 7.1-6 8.7-4.3 1.7 1.6.2 4.1-7 11.4-8.9 9-9 9.4-7 14.8l2.1 5.7 4.2-4c2.3-2.1 5-5.3 5.9-7.1zm-5.5-.3c3.2-3.4 6.3-6.1 6.8-6.1s-1.8 2.7-5.1 6.1-6.3 6.2-6.8 6.2 1.8-2.8 5.1-6.2zM63.1 155c0-.8-3.2-4.5-7-8.3-8.4-8.2-9.6-4.6-1.4 3.9 5.4 5.6 8.4 7.2 8.4 4.4zm59.1-20.9c-1.7-1.7-13.5 10-13.5 13.3 0 1.7 2.8 0 7.4-4.6 4.1-4.1 6.8-8 6.1-8.7zm-80.2 2c0-6.2-.7-11.4-1.5-11.4-1.6 0-3.9 19.2-2.5 21.5 2.3 4.2 4 0 4-10.1zm-9.3 4.4c3.6 0 4.1-.8 4.1-7.9v-7.9h-7.1c-7 0-7 0-7 6.9 0 9 1.6 13.3 4.1 10.8 1-1 3.7-1.9 5.9-1.9zm76.9-7c1.8-1.9 2.7-4 2.1-4.7-1.3-1.3-8.2 4.4-8.2 6.7 0 2.6 2.8 1.7 6.1-2zm-36 .6c0-2.4-7.7-9.4-10.3-9.4-1.8 0-1.1 1.6 2.4 5.3 4.9 5 7.9 6.6 7.9 4.1zm-17.5-16.4c0-4.3-1.4-4.4-5.6-.6-2.5 2.3-3.8 2.5-5.3.9-1.6-1.6-1-3.2 2.6-7 4.5-4.7 6.2-9.1 3.5-9.1-.7 0-4.2 2.9-7.9 6.5-5.2 5.1-7.1 6-8.8 4.4-1.6-1.7-.1-4.2 7.1-11.5 9.1-9.2 9.2-9.3 6.8-15l-2.4-5.7-5.5 6.3c-3.1 3.5-5.7 6.9-5.7 7.6-.1.7-.6 2.8-1 4.7-.5 2-1.3 7.7-1.9 12.8l-.9 9.2h12.5c11.3 0 12.5-.3 12.5-3.5zM40.3 92.2c3.2-3.4 6.3-6.1 6.8-6.1s-1.8 2.7-5.1 6.1c-3.2 3.4-6.3 6.2-6.8 6.2s1.8-2.8 5.1-6.2zm51.3 23.4c-3-3.1-6.1-5.1-6.8-4.4-1.7 1.7 6.4 10 9.7 10 1.9 0 1-1.8-2.9-5.6zm28-2.3l.4-10.8c.1-1.6-.8-3.3-2-3.7-1.7-.5-2.2 2.4-2.2 10.8 0 13 3.3 16.2 3.8 3.7zm15.4.4c0-8.2-2.2-13.5-4.2-10.3-.7 1.1-3.1 2-5.5 2-3.9 0-4.3.7-4.3 7.9v7.9h14.1zm-83.4.4c1.8-1.9 2.7-4 2.1-4.6-1.3-1.3-8.2 4.3-8.2 6.7 0 2.5 2.8 1.6 6.1-2.1zm-8.4-7.3c3.2-3.1 5.8-6.8 5.8-8.3 0-1.6-2.7-.1-7 4.2-6.7 6.5-8.6 9.7-5.8 9.7.6 0 3.8-2.5 7-5.6zm59.6-11.7c-3.5-3.4-6.9-5.7-7.6-5s1.9 4.4 5.7 8.3c3.7 3.9 7.1 6.2 7.5 5.1s-2.1-4.9-5.6-8.4zm27.5 6.1c1.1-3-5-16.8-8.9-19.8-4.8-3.6-14-3-16.2 1.1-2.5 4.6.5 10.6 5.3 10.6 4.7 0 12.2 5 12.2 8.1s6.4 3.2 7.6 0zM87.2 58.8c6.7-3.4 7.4-5.4 6.2-17.4l-1-9.8H66.1l.7 12.2c.6 9.6 1.5 12.9 4.2 14.9 4.4 3.4 9.5 3.4 16.2.1zm-18.1-8c-.6-1.1-.7-2.4-.1-3 .6-.5 1-.1 1 1 0 2.8 16.2 2.7 19.4-.1 2-1.9 2.1-1.7.1.9-2.6 3.5-18.4 4.4-20.4 1.2zm-.8-12.2c0-1 .8-1.8 1.7-1.8a1.79 1.79 0 0 1 1.8 1.8c0 1-.8 1.7-1.8 1.7-.9 0-1.7-.7-1.7-1.7zm14 0a1.79 1.79 0 0 1 1.8-1.8c1 0 1.7.8 1.7 1.8s-.7 1.7-1.7 1.7-1.8-.7-1.8-1.7zm30.8-.9c0-9.1-.4-16.1-.9-15.6s-.9 8.3-.9 17.4c-.1 9 .3 16.1.8 15.6s.9-8.4 1-17.4zm-6.4-4c1.9-3.6-1.4-14.7-6-19.8-1.7-1.9-4.9-3.4-7.1-3.4-5.4 0-6.2 6.2-1.7 14 7.1 12.5 11.6 15.2 14.8 9.2zM68.8 14.5c.4-2.2.2-4-.5-4-2.5 0-10.5 7.3-10.5 9.6 0 4.2 10.1-.9 11-5.6zM83.7 20c4.9-3.4 5-8.8.3-11.3-5.8-3.1-11.1-1.4-13 4.1-1.5 4.2-1.2 5.5 1.6 7.5 4.3 3.2 6.3 3.1 11.1-.3zM32.8 215.1c-8.9-4.9-8.5-16.4.7-21.2 6.5-3.4 8-2.1 4.3 3.6-1.8 2.8-2.2 4.7-1 5.4 1.2.8 1.2 1.9.1 3.2-1.1 1.4-.8 3.2.8 5.5 4.8 6.5 2.9 7.7-4.9 3.5zm2.1-5.2c-1.4-1.7-1.4-2.6 0-3.5s1.4-1.8 0-3.5c-1.3-1.7-1.3-2.7 0-3.5 1-.6 1.4-1.9.8-2.9-1.8-2.9-7.3 3.4-7 8 .2 4.9 4.2 10.2 6.5 8.7 1-.6.9-1.9-.3-3.3zm-2.9.5c-2.4-3.9-1.9-10.1 1-12.4 2.5-1.9 2.5-1.8.5.8-1.6 2-1.7 3.2-.3 4.1 1.3.8 1.3 1.9.1 3.3-1.2 1.5-1.2 2.9.3 4.3 1.1 1.1 1.5 2 .9 2s-1.7-.9-2.5-2.1zm27.4-69.5l-9.5-10.1 10 9.6c5.5 5.3 10.7 9 11.4 8.2.7-.7-3.5-6-9.4-11.7-6-5.8-10.3-10.5-9.6-10.5 2.7 0 21.6 20.9 20.5 22.7-2 3.2-3.3 2.4-13.4-8.2zm34.4-32c-8.3-8.3-10-11-8.3-12.7s4.3 0 12.2 8.3l10.1 10.5-10.1-9.6c-5.5-5.2-10.6-8.9-11.4-8.2-.7.8 3.6 6.1 9.5 11.8s10.2 10.4 9.6 10.4c-.7 0-5.9-4.7-11.6-10.5zM117.4 53c0-.8 1.2-3 2.5-4.8 1.7-2.3 1.9-4.1.8-5.5-1.1-1.3-1-2.4.1-3.2 1.2-.7.9-2.6-1-5.4-3.7-5.8-2.2-7 4.5-3.5 9.3 4.8 9.4 16.4.1 21.2-5.7 3-7 3.2-7 1.2zM129 41.4c-.3-4.9-4.2-10.2-6.6-8.8-1 .6-.8 2 .3 3.4 1.4 1.6 1.4 2.6 0 3.5-1.4.8-1.4 1.8 0 3.5 1.4 1.6 1.4 2.6.1 3.5-1.1.6-1.4 1.9-.8 2.9 1.7 2.8 7.2-3.4 7-8zm-4.8 5.7c1.6-2.2 1.7-3.3.2-4.2-1.4-.8-1.4-1.7-.1-3.1 1.3-1.3 1.2-2.6-.3-4.6-1.9-2.4-1.8-2.5.6-.6 3.4 2.7 3.3 10.1-.1 13.2-2.1 1.9-2.2 1.8-.3-.7z" fill="#9b0000"/><path d="M73.7 239c-1.4-1-5.1-1.7-8.2-1.8-4.2 0-6.8-1.5-10.8-6.3-4.8-5.8-5.3-6.1-7.1-3.1-1.6 2.8-2.1 2.9-3.7.6-.9-1.4-1.7-6.4-1.7-11-.1-6.5-.7-8.3-2.9-8.3s-2.4-.6-.9-2.3c1.4-1.7 1.3-2.9-.2-4.4-1.6-1.6-1.3-2.1.9-2.1s3-1.5 3-5.3c0-2.9-.7-5.2-1.6-5.2s-2.8-2.5-4.3-5.5c-2.3-4.6-2.4-5.1-.2-3.3 1.5 1.2 2.6 3.3 2.6 4.6s.8 2.4 1.8 2.4c.9 0 1.7-3.1 1.7-7 0-6.3-.6-7.3-6.7-10.4-3.7-1.9-9.2-6.2-12.1-9.6-6.1-6.9-12.8-23.2-12.8-31 0-2.9-.8-5.2-1.7-5.2A1.79 1.79 0 0 1 7 123c0-1 4.9-1.8 11.2-1.8h11.1l1.1-11.3c1.3-14.2 3.7-18.7 15.9-30.7 9.1-8.9 9.7-9.2 8.9-4.7-1.2 6.5.6 11.6 3.5 10.5 3.7-1.4 5.2 2.7 2.2 6-2.1 2.4-2.2 3.4-.4 5.1 1.7 1.5 2.9 1.3 5.1-.8 2.2-2.3 3.3-2.4 5-.8 1.6 1.7.8 3.4-3.5 7.9-6.3 6.5-8.4 14.9-2.4 9.5 1.7-1.6 4.1-3 5.2-3 1.2 0 2.1-1.7 2.2-3.9.1-3.7 4.7-17.6 5-15.2.1.6-1.4 7.4-3.3 15-4.2 16.6-4.2 16.4-1.1 16.4 1.5 0 2.9-2.7 3.7-7.3 1.3-7.8 7.5-26.4 7.7-23.2.1 1.1-.9 5.1-2.2 8.8-1.4 3.8-3 10.2-3.7 14.3l-1.3 7.4h13.2l-4.1-4.4c-3.2-3.4-3.7-4.9-2.1-6.5 1.7-1.6 3.6-.6 8.8 4.4 6.3 6.2 16.1 9.1 16.1 4.8 0-.9-1-1.3-2.2-.8s-6.9-3.9-12.6-9.7c-8.2-8.3-10-11-8.3-12.7s4.4.1 12.6 8.3c8 7.9 10.5 9.6 10.5 7 0-1.9-3.7-7.2-8.2-11.8-6.5-6.6-7.8-8.9-6.2-10.5 1.7-1.7 3.5-.8 8.3 3.8 7 6.8 8 5.9 2.3-1.8l-3.8-5.2 3.8-5.2c2.8-3.7 3.8-7.7 3.8-14.1 0-9.3-2.7-12.1-4-4l-.7 4.9-.3-4.9c-.1-3 .8-5.3 2.4-5.9 1.9-.8 2.6-3.7 2.6-10.5 0-10-.8-11-6-7.2-2.7 2-2.8 3-1 6.4 1.5 2.9 1.6 4.5.2 5.9-1.1 1.1-1.9 3.3-1.9 5s-1.3 3.8-2.8 4.6c-2.5 1.4-2.5 1.9.2 4.6 1.6 1.6 2.6 3.4 2 4-.5.5-2-.7-3.2-2.8-2.4-3.7-6.8-5-6.8-2 0 .8-3.2 2.1-7.1 2.8-5.5.9-7.9.5-10.4-1.8-3.1-2.8-3.3-2.7-4 .3q-.8 3.1-.4-.7c.2-2.1-1.1-6-2.9-8.7-2-3.1-3.2-8.2-3.2-13.3-.1-5.9-.8-8.4-2.5-8.4-4.4 0-7.3-5.1-4.9-8.9 1.1-1.8 2.1-4.4 2.1-5.7 0-3.2 6.6-8.9 14.6-12.7 5.7-2.6 7.8-2.8 12.5-1.1 3.1 1.2 7.7 2.1 10.2 2.1 3.1 0 6.2 2 9.8 6.3 4.8 5.8 5.3 6.1 7.1 3.1 1.6-2.8 2.1-2.9 3.7-.6.9 1.4 1.7 6.4 1.7 11 .1 6.5.7 8.3 2.9 8.3s2.4.6.9 2.3c-1.4 1.7-1.3 2.9.2 4.4 1.6 1.6 1.3 2.1-.9 2.1s-3 1.5-3 5.3c0 2.9.7 5.2 1.6 5.2s2.8 2.5 4.3 5.5c2.3 4.6 2.4 5.1.2 3.3-1.5-1.2-2.6-3.3-2.6-4.6s-.8-2.4-1.8-2.4c-.9 0-1.7 3.1-1.7 7 0 6.3.6 7.3 6.7 10.4 3.7 1.9 9.2 6.2 12.1 9.6 6.1 6.9 12.8 23.2 12.8 31 0 2.9.8 5.2 1.7 5.2a1.79 1.79 0 0 1 1.8 1.8c0 1-4.9 1.8-11.2 1.8h-11.1l-1.1 11.3c-1.3 14.2-3.7 18.7-15.9 30.7-9.1 8.9-9.7 9.2-8.9 4.7 1.2-6.5-.6-11.6-3.5-10.5-3.7 1.4-5.2-2.9-2.2-5.9 2-2.1 2.2-3.2.6-4.9-1.6-1.8-2.6-1.7-5.1.5-2.4 2.1-3.6 2.3-5.2.7s-.8-3.4 3.5-7.8c6.3-6.5 8.4-14.9 2.4-9.5-1.7 1.6-4.1 3-5.2 3-1.2 0-2.1 1.7-2.2 3.9-.1 3.7-4.7 17.6-5 15.2-.1-.6 1.4-7.4 3.3-15 4.2-16.6 4.2-16.4 1.1-16.4-1.5 0-2.9 2.7-3.7 7.3-1.3 7.8-7.5 26.4-7.7 23.2-.1-1.1.9-5.1 2.2-8.8 1.4-3.8 3-10.2 3.7-14.3l1.3-7.4H67.9l4.1 4.4c3.2 3.4 3.7 4.9 2.1 6.5-1.7 1.6-3.6.6-8.8-4.4-6.3-6.2-16.1-9.1-16.1-4.8 0 .9 1 1.3 2.2.8s6.9 3.9 12.6 9.7c8.2 8.3 10 11 8.3 12.7s-4.4-.1-12.6-8.3c-8-7.9-10.5-9.6-10.5-7 0 1.9 3.7 7.2 8.2 11.8 6.5 6.6 7.8 8.9 6.2 10.5-1.7 1.7-3.5.8-8.3-3.8-7-6.8-8-5.9-2.3 1.8l3.8 5.2-3.8 5.2c-2.8 3.7-3.8 7.7-3.8 14.1 0 9.3 2.7 12.1 4 4l.7-4.8.3 4.8c.1 3-.8 5.3-2.4 5.9-1.9.8-2.6 3.7-2.6 10.5 0 10 .8 11 6 7.2 2.7-2 2.8-3 1-6.4-1.5-2.9-1.6-4.5-.2-5.9 1.1-1.1 1.9-3.3 1.9-5s1.3-3.8 2.8-4.6c2.5-1.4 2.5-1.9-.2-4.6-1.6-1.6-2.6-3.4-2-4 .5-.5 2 .7 3.2 2.8 2.4 3.7 6.8 5 6.8 2 0-.8 3.2-2.1 7.1-2.8 5.5-.9 7.9-.5 10.4 1.8 3.1 2.8 3.3 2.7 4-.3q.8-3.1.4.7c-.2 2.1 1.1 6 2.9 8.7 2 3.1 3.2 8.2 3.2 13.3.1 5.9.8 8.4 2.5 8.4 4.4 0 7.3 5.1 4.9 8.9-1.1 1.8-2.1 4.4-2.1 5.7 0 3-6.3 8.7-13.9 12.3-6.8 3.3-10.4 3.6-14.2 1.2zm12.3-3.4c2.9-5.5 2.1-8.9-2.5-11-8.6-3.9-18.2 7.8-10.2 12.5 4.9 2.8 10.7 2.2 12.7-1.5zm-17.2-4.1c.9-6.1-9.2-22.4-13.8-22.4-6.5 0-5.1 14.9 2.2 23 4.3 4.7 10.9 4.4 11.6-.6zm26.6.3c2.6-2 4.7-4.7 4.7-6 0-4.2-10.2.9-11.1 5.6-.9 5 .5 5.1 6.4.4zm-48.9-25.4c.1-9-.3-16-.8-15.5s-.9 8.3-1 17.3c0 9.1.4 16.1.9 15.6s.9-8.3.9-17.4zm44.5-4.3c-.6-9.6-1.4-12.8-4.2-14.9-4.4-3.3-9.4-3.4-16.1 0-6.8 3.4-7.5 5.3-6.3 17.4l1 9.8h26.3zm-22.6-5.9c1.8-2.4 4.4-3 11.2-2.6 4.8.3 8.9 1.3 9.1 2.3.1 1-.1 1.2-.5.4-1.2-2.2-17.1-1.5-19.7.9-2.1 1.9-2.2 1.7-.1-1zm-21-17.9c0-5.3-.8-9.6-1.8-9.6-.9 0-1.7 4.3-1.7 9.6s.8 9.7 1.7 9.7c1 0 1.8-4.4 1.8-9.7zm59.7-19.2c-2-7.1-5.3-11-5.3-6.3 0 5.4 4.4 17.4 5.9 15.9 1-1 .8-4.6-.6-9.6zm-54.4 4.3c2.4-4.6-.6-10.6-5.4-10.6-4.7 0-12.2-5-12.2-8.1s-6.4-3.2-7.5 0c-1.2 3 5 16.8 8.9 19.8 4.7 3.6 14 3 16.2-1.1zm68.7-9.4c2.3-4.2 3.4-9 4.5-20.1l.9-9.2h-12.5c-11.3 0-12.5.4-12.5 3.5 0 4.3 1.4 4.5 5.6.6 2.5-2.2 3.8-2.5 5.3-.9 1.6 1.6 1 3.2-2.6 7-4.5 4.7-6.2 9.2-3.5 9.2.7 0 4.2-3 7.9-6.6 5.2-5 7.1-6 8.7-4.3 1.7 1.6.2 4.1-7 11.4-8.9 9-9 9.4-7 14.8l2.1 5.7 4.2-4c2.3-2.1 5-5.3 5.9-7.1zm-5.5-.3c3.2-3.4 6.3-6.1 6.8-6.1s-1.8 2.7-5.1 6.1-6.3 6.2-6.8 6.2 1.8-2.8 5.1-6.2zm-15.8 3.4c0-1.5-.8-2.2-1.8-1.6-2.3 1.4-2.3 4.4 0 4.4 1 0 1.8-1.3 1.8-2.8zM63.2 155c0-.8-3.2-4.5-7-8.3-8.4-8.2-9.6-4.6-1.4 3.9 5.4 5.6 8.4 7.2 8.4 4.4zm-15.8-17.1c0-7.6-.7-13.2-1.8-13.2-1 0-1.7 5.6-1.7 13.2s.7 13.2 1.7 13.2c1.1 0 1.8-5.6 1.8-13.2zm46.8 9.4c2.3-2.1 4.1-5.1 4.1-6.5 0-1.9-1.6-1.1-5.3 2.4-5 4.8-6.6 7.9-4 7.9.6 0 3-1.7 5.2-3.8zm-22.2.6c0-2.4-19.2-20.4-20.5-19.1-.7.7 3 5.6 8.2 10.9 9.1 9.2 12.3 11.3 12.3 8.2zm35.1-.3c0-1-2-1.8-4.4-1.8s-4.4.8-4.4 1.8c0 .9 2 1.7 4.4 1.7s4.4-.8 4.4-1.7zm15.2-13.5c-1.7-1.7-13.5 10-13.5 13.3 0 1.7 2.8 0 7.4-4.6 4.1-4.1 6.8-8 6.1-8.7zm-80.2 2c0-6.2-.7-11.4-1.5-11.4-1.6 0-3.9 19.2-2.5 21.5 2.3 4.2 4 0 4-10.1zm-9.3 4.4c3.6 0 4.1-.8 4.1-7.9v-7.9h-7.1c-7 0-7 0-7 6.9 0 9 1.6 13.3 4.1 10.8 1-1 3.7-1.9 5.9-1.9zm70-1l-2.2-9.7c-.9-4.8-4.1-7.2-4.1-3.2 0 4.8 4.2 17.5 5.7 17.5 1 0 1.3-2 .6-4.6zm6.9-6c1.8-1.9 2.7-4 2.1-4.7-1.3-1.3-8.2 4.4-8.2 6.7 0 2.6 2.8 1.7 6.1-2zm-36 .6c0-2.4-7.7-9.4-10.3-9.4-1.8 0-1.1 1.6 2.4 5.3 4.9 5 7.9 6.6 7.9 4.1zm19.3-1.4c1.2-1.5 1.7-3.9 1.2-5.3-1.2-3-4.7-3.6-4.7-.8 0 1 1 1.3 2.2.6s.8.3-.9 2.2c-1.6 1.9-3 4-3 4.7 0 2.1 3 1.2 5.2-1.4zm-36.8-15c0-4.3-1.4-4.4-5.6-.6-2.5 2.3-3.8 2.5-5.3.9-1.6-1.6-1-3.2 2.6-7 4.5-4.7 6.2-9.1 3.5-9.1-.7 0-4.2 2.9-7.9 6.5-5.2 5.1-7.1 6-8.8 4.4-1.6-1.7-.1-4.2 7.1-11.5 6.7-6.8 8.9-10.2 8.1-12.4-1.1-2.7-2.2-2.2-8.4 3.6l-7.3 6.7 6.6-7.1c7.6-8.1 9.2-14.4 2-7.7-7.4 7-9.1 11.3-10.7 27.6l-.9 9.2h12.5c11.3 0 12.5-.3 12.5-3.5zm5.2 1.7c0-4.8-4.1-17.5-5.6-17.5-1 0-1.3 1.9-.6 4.6l2.2 9.6c.9 4.8 4 7.3 4 3.3zm7.1-.1c0-1-1-1.2-2.2-.5s-.7-.5 1.1-2.6c4-4.5 2.3-7.5-1.9-3.4-1.5 1.6-2.3 4.1-1.7 5.6 1.2 3.1 4.7 3.8 4.7.9zm23.2-3.7c-3-3.1-6.1-5.1-6.8-4.4-1.7 1.7 6.4 10 9.7 10 1.9 0 1-1.8-2.9-5.6zm22.4-7.6c0-7.6-.7-13.1-1.8-13.1-1 0-1.7 5.5-1.7 13.1s.7 13.2 1.7 13.2c1.1 0 1.8-5.6 1.8-13.2zm5.6 5.3l.4-10.8c.1-1.6-.8-3.3-2-3.7-1.7-.5-2.2 2.4-2.2 10.8 0 13 3.3 16.2 3.8 3.7zm15.4.4c0-8.2-2.2-13.5-4.2-10.3-.7 1.1-3.1 2-5.5 2-3.9 0-4.3.7-4.3 7.9v7.9h14.1zm-83.4.4c1.8-1.9 2.7-4 2.1-4.6-1.3-1.3-8.2 4.3-8.2 6.7 0 2.5 2.8 1.6 6.1-2.1zm55.3 2.2c0-2.5-19.2-20.4-20.5-19.1-.7.7 3 5.5 8.3 10.8 9 9.2 12.2 11.4 12.2 8.3zm-63.7-9.5c3.2-3.1 5.8-6.8 5.8-8.3 0-1.6-2.7-.1-7 4.2-6.7 6.5-8.6 9.7-5.8 9.7.6 0 3.8-2.5 7-5.6zm26.3-11.3c-1.7-1.8-10 6.3-10 9.7 0 1.9 1.8 1 5.6-2.9 3.1-3.1 5.1-6.2 4.4-6.8zm33.3-.4c-3.5-3.4-6.9-5.7-7.6-5s1.9 4.4 5.7 8.3c3.7 3.9 7.1 6.2 7.5 5.1s-2.1-4.9-5.6-8.4zm27.5 6.1c1.1-3-5-16.8-8.9-19.8-4.8-3.6-14-3-16.2 1.1-2.5 4.6.5 10.6 5.3 10.6 4.7 0 12.2 5 12.2 8.1s6.4 3.2 7.6 0zm-70.8-2.9c0-.9-2-1.7-4.4-1.7s-4.4.8-4.4 1.7c0 1 2 1.8 4.4 1.8s4.4-.8 4.4-1.8zm-3.5-5.7c0-1.2-1.1-5.7-2.4-9.9-3-10.3-5.8-6.1-2.8 4.4 2 7.1 5.2 10.6 5.2 5.5zm5.3-4.9c0-.9-.8-1.7-1.8-1.7s-1.7 1.3-1.7 2.8.7 2.2 1.7 1.6 1.8-1.8 1.8-2.7zM114 67.6c0-5.3-.8-9.7-1.7-9.7-1 0-1.8 4.4-1.8 9.7s.8 9.6 1.8 9.6c.9 0 1.7-4.3 1.7-9.6zm-26.7-8.8c6.7-3.4 7.4-5.4 6.2-17.4l-1-9.8H66.2l.7 12.2c.6 9.6 1.5 12.9 4.2 14.9 4.4 3.4 9.5 3.4 16.2.1zm-18.1-8c-.6-1.1-.7-2.4-.1-3 .6-.5 1-.1 1 1 0 2.8 16.2 2.7 19.4-.1 2-1.9 2.1-1.7.1.9-2.6 3.5-18.4 4.4-20.4 1.2zm44-13.1c0-9.1-.4-16.1-.9-15.6s-.9 8.3-.9 17.4c-.1 9 .3 16.1.8 15.6s.9-8.4 1-17.4zm-6.4-4c1.9-3.6-1.4-14.7-6-19.8-1.7-1.9-4.9-3.4-7.1-3.4-5.4 0-6.2 6.2-1.7 14 7.1 12.5 11.6 15.2 14.8 9.2zM68.9 14.5c.4-2.2.2-4-.5-4-2.5 0-10.5 7.3-10.5 9.6 0 4.2 10.1-.9 11-5.6zM83.8 20c4.9-3.4 5-8.8.3-11.3-5.8-3.1-11.1-1.4-13 4.1-1.5 4.2-1.2 5.5 1.6 7.5 4.3 3.2 6.3 3.1 11.1-.3zM32.9 215.1c-8.9-4.9-8.5-16.4.7-21.2 6.5-3.4 8-2.1 4.3 3.6-1.8 2.8-2.2 4.7-1 5.4 1.2.8 1.2 1.9.1 3.2-1.1 1.4-.8 3.2.8 5.5 4.8 6.5 2.9 7.7-4.9 3.5zm2.1-5.2c-1.4-1.7-1.4-2.6 0-3.5s1.4-1.8 0-3.5c-1.3-1.7-1.3-2.7 0-3.5 1-.6 1.4-1.9.8-2.9-1.8-2.9-7.3 3.4-7 8 .2 4.9 4.2 10.2 6.5 8.7 1-.6.9-1.9-.3-3.3zm-2.9.5c-2.4-3.9-1.9-10.1 1-12.4 2.5-1.9 2.5-1.8.5.8-1.6 2-1.7 3.2-.3 4.1 1.3.8 1.3 1.9.1 3.3-1.2 1.5-1.2 2.9.3 4.3 1.1 1.1 1.5 2 .9 2s-1.7-.9-2.5-2.1zM117.5 53c0-.8 1.2-3 2.5-4.8 1.7-2.3 1.9-4.1.8-5.5-1.1-1.3-1-2.4.1-3.2 1.2-.7.9-2.6-1-5.4-3.7-5.8-2.2-7 4.5-3.5 9.3 4.8 9.4 16.4.1 21.2-5.7 3-7 3.2-7 1.2zm11.6-11.6c-.3-4.9-4.2-10.2-6.6-8.8-1 .6-.8 2 .3 3.4 1.4 1.6 1.4 2.6 0 3.5-1.4.8-1.4 1.8 0 3.5 1.4 1.6 1.4 2.6.1 3.5-1.1.6-1.4 1.9-.8 2.9 1.7 2.8 7.2-3.4 7-8zm-4.8 5.7c1.6-2.2 1.7-3.3.2-4.2-1.4-.8-1.4-1.7-.1-3.1 1.3-1.3 1.2-2.6-.3-4.6-1.9-2.4-1.8-2.5.6-.6 3.4 2.7 3.3 10.1-.1 13.2-2.1 1.9-2.2 1.8-.3-.7z" fill="#009800"/><path d="M73.7 239c-1.4-1-5.1-1.7-8.2-1.8-4.2 0-6.8-1.5-10.8-6.3-4.8-5.8-5.3-6.1-7.1-3.1-1.6 2.8-2.1 2.9-3.7.6-.9-1.4-1.7-6.4-1.7-11-.1-6.5-.7-8.3-2.9-8.3s-2.4-.6-.9-2.3c1.4-1.7 1.3-2.9-.2-4.4-1.6-1.6-1.3-2.1.9-2.1s3-1.5 3-5.3c0-2.9-.7-5.2-1.6-5.2s-2.8-2.5-4.3-5.5c-2.3-4.6-2.4-5.1-.2-3.3 1.5 1.2 2.6 3.3 2.6 4.6s.8 2.4 1.8 2.4c.9 0 1.7-3.1 1.7-7 0-6.3-.6-7.3-6.7-10.4-3.7-1.9-9.2-6.2-12.1-9.6-6.1-6.9-12.8-23.2-12.8-31 0-2.9-.8-5.2-1.7-5.2A1.79 1.79 0 0 1 7 123c0-1 4.9-1.8 11.2-1.8h11.1l1.1-11.3c1.3-14.2 3.7-18.7 15.9-30.7 9.1-8.9 9.7-9.2 8.9-4.7-1.2 6.5.6 11.6 3.5 10.5 3.7-1.4 5.2 2.7 2.2 6-2.1 2.4-2.2 3.4-.4 5.1 1.7 1.5 2.9 1.3 5.1-.8 2.2-2.3 3.3-2.4 5-.8 1.6 1.7.8 3.4-3.5 7.9-6.3 6.5-8.4 14.9-2.4 9.5 1.7-1.6 4.1-3 5.2-3 1.2 0 2.1-1.7 2.2-3.9.1-3.7 4.7-17.6 5-15.2.1.6-1.4 7.4-3.3 15-4.2 16.6-4.2 16.4-1.1 16.4 1.5 0 2.9-2.7 3.7-7.3 1.3-7.8 7.5-26.4 7.7-23.2.1 1.1-.9 5.1-2.2 8.8-1.4 3.8-3 10.2-3.7 14.3l-1.3 7.4h13.2l-4.1-4.4c-3.2-3.4-3.7-4.9-2.1-6.5 1.7-1.6 3.6-.6 8.8 4.4 6.3 6.2 16.1 9.1 16.1 4.8 0-.9-1-1.3-2.2-.8s-6.9-3.9-12.6-9.7c-8.2-8.3-10-11-8.3-12.7s4.4.1 12.6 8.3c8 7.9 10.5 9.6 10.5 7 0-1.9-3.7-7.2-8.2-11.8-6.5-6.6-7.8-8.9-6.2-10.5 1.7-1.7 3.5-.8 8.3 3.8 7 6.8 8 5.9 2.3-1.8l-3.8-5.2 3.8-5.2c2.8-3.7 3.8-7.7 3.8-14.1 0-9.3-2.7-12.1-4-4l-.7 4.9-.3-4.9c-.1-3 .8-5.3 2.4-5.9 1.9-.8 2.6-3.7 2.6-10.5 0-10-.8-11-6-7.2-2.7 2-2.8 3-1 6.4 1.5 2.9 1.6 4.5.2 5.9-1.1 1.1-1.9 3.3-1.9 5s-1.3 3.8-2.8 4.6c-2.5 1.4-2.5 1.9.2 4.6 1.6 1.6 2.6 3.4 2 4-.5.5-2-.7-3.2-2.8-2.4-3.7-6.8-5-6.8-2 0 .8-3.2 2.1-7.1 2.8-5.5.9-7.9.5-10.4-1.8-3.1-2.8-3.3-2.7-4 .3q-.8 3.1-.4-.7c.2-2.1-1.1-6-2.9-8.7-2-3.1-3.2-8.2-3.2-13.3-.1-5.9-.8-8.4-2.5-8.4-4.4 0-7.3-5.1-4.9-8.9 1.1-1.8 2.1-4.4 2.1-5.7 0-3.2 6.6-8.9 14.6-12.7 5.7-2.6 7.8-2.8 12.5-1.1 3.1 1.2 7.7 2.1 10.2 2.1 3.1 0 6.2 2 9.8 6.3 4.8 5.8 5.3 6.1 7.1 3.1 1.6-2.8 2.1-2.9 3.7-.6.9 1.4 1.7 6.4 1.7 11 .1 6.5.7 8.3 2.9 8.3s2.4.6.9 2.3c-1.4 1.7-1.3 2.9.2 4.4 1.6 1.6 1.3 2.1-.9 2.1s-3 1.5-3 5.3c0 2.9.7 5.2 1.6 5.2s2.8 2.5 4.3 5.5c2.3 4.6 2.4 5.1.2 3.3-1.5-1.2-2.6-3.3-2.6-4.6s-.8-2.4-1.8-2.4c-.9 0-1.7 3.1-1.7 7 0 6.3.6 7.3 6.7 10.4 3.7 1.9 9.2 6.2 12.1 9.6 6.1 6.9 12.8 23.2 12.8 31 0 2.9.8 5.2 1.7 5.2a1.79 1.79 0 0 1 1.8 1.8c0 1-4.9 1.8-11.2 1.8h-11.1l-1.1 11.3c-1.3 14.2-3.7 18.7-15.9 30.7-9.1 8.9-9.7 9.2-8.9 4.7 1.2-6.5-.6-11.6-3.5-10.5-3.7 1.4-5.2-2.9-2.2-5.9 2-2.1 2.2-3.2.6-4.9-1.6-1.8-2.6-1.7-5.1.5-2.4 2.1-3.6 2.3-5.2.7s-.8-3.4 3.5-7.8c6.3-6.5 8.4-14.9 2.4-9.5-1.7 1.6-4.1 3-5.2 3-1.2 0-2.1 1.7-2.2 3.9-.1 3.7-4.7 17.6-5 15.2-.1-.6 1.4-7.4 3.3-15 4.2-16.6 4.2-16.4 1.1-16.4-1.5 0-2.9 2.7-3.7 7.3-1.3 7.8-7.5 26.4-7.7 23.2-.1-1.1.9-5.1 2.2-8.8 1.4-3.8 3-10.2 3.7-14.3l1.3-7.4H67.9l4.1 4.4c3.2 3.4 3.7 4.9 2.1 6.5-1.7 1.6-3.6.6-8.8-4.4-6.3-6.2-16.1-9.1-16.1-4.8 0 .9 1 1.3 2.2.8s6.9 3.9 12.6 9.7c8.2 8.3 10 11 8.3 12.7s-4.4-.1-12.6-8.3c-8-7.9-10.5-9.6-10.5-7 0 1.9 3.7 7.2 8.2 11.8 6.5 6.6 7.8 8.9 6.2 10.5-1.7 1.7-3.5.8-8.3-3.8-7-6.8-8-5.9-2.3 1.8l3.8 5.2-3.8 5.2c-2.8 3.7-3.8 7.7-3.8 14.1 0 9.3 2.7 12.1 4 4l.7-4.8.3 4.8c.1 3-.8 5.3-2.4 5.9-1.9.8-2.6 3.7-2.6 10.5 0 10 .8 11 6 7.2 2.7-2 2.8-3 1-6.4-1.5-2.9-1.6-4.5-.2-5.9 1.1-1.1 1.9-3.3 1.9-5s1.3-3.8 2.8-4.6c2.5-1.4 2.5-1.9-.2-4.6-1.6-1.6-2.6-3.4-2-4 .5-.5 2 .7 3.2 2.8 2.4 3.7 6.8 5 6.8 2 0-.8 3.2-2.1 7.1-2.8 5.5-.9 7.9-.5 10.4 1.8 3.1 2.8 3.3 2.7 4-.3q.8-3.1.4.7c-.2 2.1 1.1 6 2.9 8.7 2 3.1 3.2 8.2 3.2 13.3.1 5.9.8 8.4 2.5 8.4 4.4 0 7.3 5.1 4.9 8.9-1.1 1.8-2.1 4.4-2.1 5.7 0 3-6.3 8.7-13.9 12.3-6.8 3.3-10.4 3.6-14.2 1.2zm12.3-3.4c2.9-5.5 2.1-8.9-2.5-11-8.6-3.9-18.2 7.8-10.2 12.5 4.9 2.8 10.7 2.2 12.7-1.5zm-17.2-4.1c.9-6.1-9.2-22.4-13.8-22.4-6.5 0-5.1 14.9 2.2 23 4.3 4.7 10.9 4.4 11.6-.6zm26.6.3c2.6-2 4.7-4.7 4.7-6 0-4.2-10.2.9-11.1 5.6-.9 5 .5 5.1 6.4.4zm-48.9-25.4c.1-9-.3-16-.8-15.5s-.9 8.3-1 17.3c0 9.1.4 16.1.9 15.6s.9-8.3.9-17.4zm29.2 16.7c2.4-1.4 5.1-1.3 9.5.3 5.1 1.9 7 1.7 12.2-.8 3.4-1.6 6.2-4.1 6.2-5.6 0-4.1-7.3-6.3-10.7-3.3-1.8 1.6-7.1 2.4-15.3 2.4H65l2 4.4c2.2 4.9 3.6 5.3 8.7 2.6zm15.3-21c-.6-9.6-1.4-12.8-4.2-14.9-4.4-3.3-9.4-3.4-16.1 0-6.8 3.4-7.5 5.3-6.3 17.4l1 9.8h26.3zm-22.6-5.9c1.8-2.4 4.4-3 11.2-2.6 4.8.3 8.9 1.3 9.1 2.3.1 1-.1 1.2-.5.4-1.2-2.2-17.1-1.5-19.7.9-2.1 1.9-2.2 1.7-.1-1zm-21-17.9c0-5.3-.8-9.6-1.8-9.6-.9 0-1.7 4.3-1.7 9.6s.8 9.7 1.7 9.7c1 0 1.8-4.4 1.8-9.7zm-5.3-7.5c0-.7-1.8-2.1-3.9-3.1-5.7-2.4-17-26-17.1-35.5 0-6.8-.4-7.5-4.4-7.5-3.7 0-4.4.8-4.4 5.2 0 7.3 6.4 23.7 11.7 30.1 2.5 2.9 7.4 6.8 10.9 8.6 7.5 4 7.2 3.9 7.2 2.2zm65-11.7c-2-7.1-5.3-11-5.3-6.3 0 5.4 4.4 17.4 5.9 15.9 1-1 .8-4.6-.6-9.6zm-54.4 4.3c2.4-4.6-.6-10.6-5.4-10.6-4.7 0-12.2-5-12.2-8.1s-6.4-3.2-7.5 0c-1.2 3 5 16.8 8.9 19.8 4.7 3.6 14 3 16.2-1.1zm68.7-9.4c2.3-4.2 3.4-9 4.5-20.1l.9-9.2h-12.5c-11.3 0-12.5.4-12.5 3.5 0 4.3 1.4 4.5 5.6.6 2.5-2.2 3.8-2.5 5.3-.9 1.6 1.6 1 3.2-2.6 7-4.5 4.7-6.2 9.2-3.5 9.2.7 0 4.2-3 7.9-6.6 5.2-5 7.1-6 8.7-4.3 1.7 1.6.2 4.1-7 11.4-8.9 9-9 9.4-7 14.8l2.1 5.7 4.2-4c2.3-2.1 5-5.3 5.9-7.1zm-5.5-.3c3.2-3.4 6.3-6.1 6.8-6.1s-1.8 2.7-5.1 6.1-6.3 6.2-6.8 6.2 1.8-2.8 5.1-6.2zm-15.8 3.4c0-1.5-.8-2.2-1.8-1.6-2.3 1.4-2.3 4.4 0 4.4 1 0 1.8-1.3 1.8-2.8zM63.2 155c0-.8-3.2-4.5-7-8.3-8.4-8.2-9.6-4.6-1.4 3.9 5.4 5.6 8.4 7.2 8.4 4.4zm-15.8-17.1c0-7.6-.7-13.2-1.8-13.2-1 0-1.7 5.6-1.7 13.2s.7 13.2 1.7 13.2c1.1 0 1.8-5.6 1.8-13.2zm46.8 9.4c2.3-2.1 4.1-5.1 4.1-6.5 0-1.9-1.6-1.1-5.3 2.4-5 4.8-6.6 7.9-4 7.9.6 0 3-1.7 5.2-3.8zm-22.2.6c0-2.4-19.2-20.4-20.5-19.1-.7.7 3 5.6 8.2 10.9 9.1 9.2 12.3 11.3 12.3 8.2zm35.1-.3c0-1-2-1.8-4.4-1.8s-4.4.8-4.4 1.8c0 .9 2 1.7 4.4 1.7s4.4-.8 4.4-1.7zm15.2-13.5c-1.7-1.7-13.5 10-13.5 13.3 0 1.7 2.8 0 7.4-4.6 4.1-4.1 6.8-8 6.1-8.7zm-80.2 2c0-6.2-.7-11.4-1.5-11.4-1.6 0-3.9 19.2-2.5 21.5 2.3 4.2 4 0 4-10.1zm-9.3 4.4c3.6 0 4.1-.8 4.1-7.9v-7.9h-7.1c-7 0-7 0-7 6.9 0 9 1.6 13.3 4.1 10.8 1-1 3.7-1.9 5.9-1.9zm70-1l-2.2-9.7c-.9-4.8-4.1-7.2-4.1-3.2 0 4.8 4.2 17.5 5.7 17.5 1 0 1.3-2 .6-4.6zm6.9-6c1.8-1.9 2.7-4 2.1-4.7-1.3-1.3-8.2 4.4-8.2 6.7 0 2.6 2.8 1.7 6.1-2zm-36 .6c0-2.4-7.7-9.4-10.3-9.4-1.8 0-1.1 1.6 2.4 5.3 4.9 5 7.9 6.6 7.9 4.1zm19.3-1.4c1.2-1.5 1.7-3.9 1.2-5.3-1.2-3-4.7-3.6-4.7-.8 0 1 1 1.3 2.2.6s.8.3-.9 2.2c-1.6 1.9-3 4-3 4.7 0 2.1 3 1.2 5.2-1.4zm-36.8-15c0-4.3-1.4-4.4-5.6-.6-2.5 2.3-3.8 2.5-5.3.9-1.6-1.6-1-3.2 2.6-7 4.5-4.7 6.2-9.1 3.5-9.1-.7 0-4.2 2.9-7.9 6.5-5.2 5.1-7.1 6-8.8 4.4-1.6-1.7-.1-4.2 7.1-11.5 6.7-6.8 8.9-10.2 8.1-12.4-1.1-2.7-2.2-2.2-8.4 3.6l-7.3 6.7 6.6-7.1c7.6-8.1 9.2-14.4 2-7.7-7.4 7-9.1 11.3-10.7 27.6l-.9 9.2h12.5c11.3 0 12.5-.3 12.5-3.5zm5.2 1.7c0-4.8-4.1-17.5-5.6-17.5-1 0-1.3 1.9-.6 4.6l2.2 9.6c.9 4.8 4 7.3 4 3.3zm7.1-.1c0-1-1-1.2-2.2-.5s-.7-.5 1.1-2.6c4-4.5 2.3-7.5-1.9-3.4-1.5 1.6-2.3 4.1-1.7 5.6 1.2 3.1 4.7 3.8 4.7.9zm23.2-3.7c-3-3.1-6.1-5.1-6.8-4.4-1.7 1.7 6.4 10 9.7 10 1.9 0 1-1.8-2.9-5.6zm22.4-7.6c0-7.6-.7-13.1-1.8-13.1-1 0-1.7 5.5-1.7 13.1s.7 13.2 1.7 13.2c1.1 0 1.8-5.6 1.8-13.2zm5.6 5.3l.4-10.8c.1-1.6-.8-3.3-2-3.7-1.7-.5-2.2 2.4-2.2 10.8 0 13 3.3 16.2 3.8 3.7zm26 2.7c0-7.3-6.4-23.7-11.8-30-4.4-5.3-18-13.5-18-10.9 0 .7 1.7 2.1 3.9 3.1 5.7 2.5 16.9 26 17 35.5.1 6.8.5 7.5 4.5 7.5 3.7 0 4.4-.8 4.4-5.2zm-10.6-2.3c0-8.2-2.2-13.5-4.2-10.3-.7 1.1-3.1 2-5.5 2-3.9 0-4.3.7-4.3 7.9v7.9h14.1zm-83.4.4c1.8-1.9 2.7-4 2.1-4.6-1.3-1.3-8.2 4.3-8.2 6.7 0 2.5 2.8 1.6 6.1-2.1zm55.3 2.2c0-2.5-19.2-20.4-20.5-19.1-.7.7 3 5.5 8.3 10.8 9 9.2 12.2 11.4 12.2 8.3zm-63.7-9.5c3.2-3.1 5.8-6.8 5.8-8.3 0-1.6-2.7-.1-7 4.2-6.7 6.5-8.6 9.7-5.8 9.7.6 0 3.8-2.5 7-5.6zm26.3-11.3c-1.7-1.8-10 6.3-10 9.7 0 1.9 1.8 1 5.6-2.9 3.1-3.1 5.1-6.2 4.4-6.8zm33.3-.4c-3.5-3.4-6.9-5.7-7.6-5s1.9 4.4 5.7 8.3c3.7 3.9 7.1 6.2 7.5 5.1s-2.1-4.9-5.6-8.4zm27.5 6.1c1.1-3-5-16.8-8.9-19.8-4.8-3.6-14-3-16.2 1.1-2.5 4.6.5 10.6 5.3 10.6 4.7 0 12.2 5 12.2 8.1s6.4 3.2 7.6 0zm-70.8-2.9c0-.9-2-1.7-4.4-1.7s-4.4.8-4.4 1.7c0 1 2 1.8 4.4 1.8s4.4-.8 4.4-1.8zm-3.5-5.7c0-1.2-1.1-5.7-2.4-9.9-3-10.3-5.8-6.1-2.8 4.4 2 7.1 5.2 10.6 5.2 5.5zm5.3-4.9c0-.9-.8-1.7-1.8-1.7s-1.7 1.3-1.7 2.8.7 2.2 1.7 1.6 1.8-1.8 1.8-2.7zM114 67.6c0-5.3-.8-9.7-1.7-9.7-1 0-1.8 4.4-1.8 9.7s.8 9.6 1.8 9.6c.9 0 1.7-4.3 1.7-9.6zm-26.7-8.8c6.7-3.4 7.4-5.4 6.2-17.4l-1-9.8H66.2l.7 12.2c.6 9.6 1.5 12.9 4.2 14.9 4.4 3.4 9.5 3.4 16.2.1zm-18.1-8c-.6-1.1-.7-2.4-.1-3 .6-.5 1-.1 1 1 0 2.8 16.2 2.7 19.4-.1 2-1.9 2.1-1.7.1.9-2.6 3.5-18.4 4.4-20.4 1.2zm44-13.1c0-9.1-.4-16.1-.9-15.6s-.9 8.3-.9 17.4c-.1 9 .3 16.1.8 15.6s.9-8.4 1-17.4zm-6.4-4c1.9-3.6-1.4-14.7-6-19.8-1.7-1.9-4.9-3.4-7.1-3.4-5.4 0-6.2 6.2-1.7 14 7.1 12.5 11.6 15.2 14.8 9.2zm-26.5-3.9h12.6l-2-4.4c-2.2-4.9-3.6-5.3-8.6-2.5-2.5 1.3-5.2 1.2-9.6-.4-5.1-1.8-6.9-1.7-12.2.8-3.4 1.6-6.2 4.2-6.2 5.7 0 4 7.3 6.2 10.7 3.2 1.8-1.6 7.1-2.4 15.3-2.4zM68.9 14.5c.4-2.2.2-4-.5-4-2.5 0-10.5 7.3-10.5 9.6 0 4.2 10.1-.9 11-5.6zM83.8 20c4.9-3.4 5-8.8.3-11.3-5.8-3.1-11.1-1.4-13 4.1-1.5 4.2-1.2 5.5 1.6 7.5 4.3 3.2 6.3 3.1 11.1-.3zM32.9 215.1c-8.9-4.9-8.5-16.4.7-21.2 6.5-3.4 8-2.1 4.3 3.6-1.8 2.8-2.2 4.7-1 5.4 1.2.8 1.2 1.9.1 3.2-1.1 1.4-.8 3.2.8 5.5 4.8 6.5 2.9 7.7-4.9 3.5zm2.1-5.2c-1.4-1.7-1.4-2.6 0-3.5s1.4-1.8 0-3.5c-1.3-1.7-1.3-2.7 0-3.5 1-.6 1.4-1.9.8-2.9-1.8-2.9-7.3 3.4-7 8 .2 4.9 4.2 10.2 6.5 8.7 1-.6.9-1.9-.3-3.3zm-2.9.5c-2.4-3.9-1.9-10.1 1-12.4 2.5-1.9 2.5-1.8.5.8-1.6 2-1.7 3.2-.3 4.1 1.3.8 1.3 1.9.1 3.3-1.2 1.5-1.2 2.9.3 4.3 1.1 1.1 1.5 2 .9 2s-1.7-.9-2.5-2.1zM117.5 53c0-.8 1.2-3 2.5-4.8 1.7-2.3 1.9-4.1.8-5.5-1.1-1.3-1-2.4.1-3.2 1.2-.7.9-2.6-1-5.4-3.7-5.8-2.2-7 4.5-3.5 9.3 4.8 9.4 16.4.1 21.2-5.7 3-7 3.2-7 1.2zm11.6-11.6c-.3-4.9-4.2-10.2-6.6-8.8-1 .6-.8 2 .3 3.4 1.4 1.6 1.4 2.6 0 3.5-1.4.8-1.4 1.8 0 3.5 1.4 1.6 1.4 2.6.1 3.5-1.1.6-1.4 1.9-.8 2.9 1.7 2.8 7.2-3.4 7-8zm-4.8 5.7c1.6-2.2 1.7-3.3.2-4.2-1.4-.8-1.4-1.7-.1-3.1 1.3-1.3 1.2-2.6-.3-4.6-1.9-2.4-1.8-2.5.6-.6 3.4 2.7 3.3 10.1-.1 13.2-2.1 1.9-2.2 1.8-.3-.7z"/></g></svg>