<svg xmlns="http://www.w3.org/2000/svg" width="158" height="246" fill-rule="evenodd" xmlns:v="https://vecta.io/nano"><path d="M74.3 238.7c-5.7-1.6-10.7-7.9-16.8-21.4-3.4-7.5-2.4-11.2 4.3-15.6 3.5-2.3 4-3.9 3.5-10.7-.6-7-1.3-8.3-5.7-9.8-4.7-1.6-5.3-1.3-10.3 6.7-3 4.6-5.4 9.9-5.4 11.8 0 5.7-1.8 5.9-9.2 1l-7-4.6 4.2-3.2c12.4-9.4 14.3-14.8 7.9-22.4-4.3-5.1-9-15.9-13.5-31.2-2-6.7-1.9-7.9.9-11 3.2-3.5 3.1-3.5-8.5-3.5-6.6 0-11.7-.8-11.7-1.8s5.5-1.8 13-1.8h13l.7-11.8c.7-12.6 7.2-29.5 14.1-36.9 2-2.1 7.9-5.1 13-6.6 8.2-2.4 9.4-3.3 9.4-7.2 0-2.4-2.7-8.1-6.1-12.5s-6.2-9.6-6.2-11.6c0-6 9.4-22.7 14.7-25.9 3.8-2.4 6.3-2.7 10.5-1.5C89.5 9 93 13.1 99.2 26c4.8 10.2 4.3 13.5-3 18.3-3.5 2.3-4 3.9-3.5 10.7.6 7 1.3 8.3 5.7 9.8 4.7 1.6 5.3 1.3 10.3-6.7 3-4.6 5.4-9.9 5.4-11.8 0-5.7 1.8-5.9 9.2-1l7 4.6-4.2 3.2c-12.4 9.4-14.3 14.8-7.9 22.4 4.3 5.1 9 15.9 13.5 31.2 2 6.7 1.9 7.9-.9 11-3.2 3.5-3.1 3.5 8.5 3.5 6.6 0 11.7.8 11.7 1.8s-5.5 1.8-13 1.8h-13l-.7 11.8c-.7 12.6-7.2 29.5-14.1 36.9-2 2.1-7.9 5.1-13 6.6-8.2 2.4-9.4 3.3-9.4 7.2 0 2.4 2.8 8.1 6.3 12.7 7.3 9.6 7.3 13.9-.2 27.2-5.7 10.1-11.7 13.6-19.6 11.5zm-19.4-99.3c-1.3-.5-1.8-1.6-1.3-2.4 1.4-2.3 6.3.1 4.9 2.4-.6 1.1-.5 1.4.4.7.8-.7 1.6-2.7 1.9-4.4.2-1.7.9-4.8 1.6-7 1-3.2.5-3.9-2.3-3.9-1.9 0-4.5 1.2-5.8 2.8-4.2 5-3.9 13.1.5 12.8 1.8-.1 1.8-.3.1-1zm-1.6-7c0-1.2.5-1.9 1.2-1.4.7.4 1.8-.4 2.3-1.9.6-1.4 2-2.6 3.3-2.6 1.5.1 1.4.6-.4 1.7-1.5 1-2.4 2.1-2.2 2.6 1 2.3.3 3.9-1.9 3.9a2.26 2.26 0 0 1-2.3-2.3zm50.6-14.2c2.9-3.5 3.3-11.4.6-11.9-1-.2-1.2 0-.5.5.8.4.9 1.4.4 2.2-1.4 2.3-6.3-.1-4.9-2.4.6-1.1.5-1.4-.4-.7-.8.7-1.6 2.7-1.9 4.4-.2 1.7-.9 4.8-1.6 7-1 3.2-.5 3.9 2.2 3.9 1.9 0 4.6-1.3 6.1-3zm-6.2-.1c2-1.2 2.4-2.1 2.4-5.3 0-.9 1-1.5 2.3-1.5a2.26 2.26 0 0 1 2.3 2.3c0 1.2-.5 1.9-1.2 1.4-.7-.4-1.8.4-2.3 1.9-.6 1.4-2 2.6-3.3 2.6-1.6-.1-1.7-.4-.2-1.4z" fill="#fec9cc"/><path d="M74.3 238.7c-5.7-1.6-10.7-7.9-16.8-21.4-3.4-7.5-2.4-11.2 4.3-15.6 3.5-2.3 4-3.9 3.5-10.7-.6-7-1.3-8.3-5.7-9.8-4.7-1.6-5.3-1.3-10.3 6.7-3 4.6-5.4 9.9-5.4 11.8 0 5.7-1.8 5.9-9.2 1l-7-4.6 4.2-3.2c12.4-9.4 14.3-14.8 7.9-22.4-4.3-5.1-9-15.9-13.5-31.2-2-6.7-1.9-7.9.9-11 3.2-3.5 3.1-3.5-8.5-3.5-6.6 0-11.7-.8-11.7-1.8s5.5-1.8 13-1.8h13l.7-11.8c.7-12.6 7.2-29.5 14.1-36.9 2-2.1 7.9-5.1 13-6.6 8.2-2.4 9.4-3.3 9.4-7.2 0-2.4-2.7-8.1-6.1-12.5s-6.2-9.6-6.2-11.6c0-6 9.4-22.7 14.7-25.9 3.8-2.4 6.3-2.7 10.5-1.5C89.5 9 93 13.1 99.2 26c4.8 10.2 4.3 13.5-3 18.3-3.5 2.3-4 3.9-3.5 10.7.6 7 1.3 8.3 5.7 9.8 4.7 1.6 5.3 1.3 10.3-6.7 3-4.6 5.4-9.9 5.4-11.8 0-5.7 1.8-5.9 9.2-1l7 4.6-4.2 3.2c-12.4 9.4-14.3 14.8-7.9 22.4 4.3 5.1 9 15.9 13.5 31.2 2 6.7 1.9 7.9-.9 11-3.2 3.5-3.1 3.5 8.5 3.5 6.6 0 11.7.8 11.7 1.8s-5.5 1.8-13 1.8h-13l-.7 11.8c-.7 12.6-7.2 29.5-14.1 36.9-2 2.1-7.9 5.1-13 6.6-8.2 2.4-9.4 3.3-9.4 7.2 0 2.4 2.8 8.1 6.3 12.7 7.3 9.6 7.3 13.9-.2 27.2-5.7 10.1-11.7 13.6-19.6 11.5zm13.4-11.6c3.2-2.6 3.9-5 4-14.8.2-11.9-2.8-19.8-8.4-21.9-4.4-1.7-11.2 1-14.2 5.7-4.1 6.3-3.9 26 .4 30.7 3.8 4.3 13.1 4.4 18.2.3zm-18.1-6.6c.5-1.4 2.1-2.6 3.4-2.6 1.4 0 2.5 1.2 2.5 2.6 0 1.5-1.6 2.7-3.5 2.7-2.3 0-3.1-.9-2.4-2.7zm10.6 1.5c-2-2-1.3-10.9 1-12.3 1.5-.9.8-1.7-2.2-2.5l-4.4-1.3 4.8-.1c3.2-.2 4.9.7 4.9 2.4 0 1.5-.8 2.7-1.8 2.7s-1.7 2.3-1.7 5.2.7 5.3 1.7 5.3a1.79 1.79 0 0 0 1.8-1.8c0-.9 1.2-1.7 2.6-1.7a2.65 2.65 0 0 1 2.6 2.6c0 2.7-7 3.8-9.3 1.5zm-1.6-22.8c1.2-.5 3.1-.5 4.4 0 1.2.4.2.8-2.2.8-2.5 0-3.4-.4-2.2-.8zm6-61.3c1.7-3.6 1.5-5-.6-7.2-4-4-19.8-1.6-22.4 3.5-1.8 3.2-1.9 3.3-.9.2 3-9.2 2.9-9.6-.5-9.6-7.1 0-12.3 13.7-5.8 15.2 1.6.3 1.8.2.5-.5-3.1-1.4-1-4.3 2.2-3.1 1.4.6 2.1 1.8 1.5 2.7-.6 1 .4.8 2.2-.3 2.5-1.5 4.7-1.4 9.4.7 8.8 3.8 12.1 3.5 14.4-1.6zM72 137c-2.4-1.5-2.4-1.9 0-3.4 1.4-1 4.2-1.7 6.1-1.5 3.1.1 3 .3-.4.9-4.7.9-5.2 3.5-.9 4.6 2.2.6 2.3.9.4 1-1.4.1-3.8-.6-5.2-1.6zm-18.7-4.6c0-1.2.5-1.9 1.2-1.4.7.4 1.8-.4 2.3-1.9.6-1.4 2-2.6 3.3-2.6 1.5.1 1.4.6-.4 1.7-1.5 1-2.4 2.1-2.2 2.6 1 2.3.3 3.9-1.9 3.9a2.26 2.26 0 0 1-2.3-2.3zm50.6-14.2c2.9-3.5 3.3-11.4.6-11.9-1-.2-1.2 0-.5.5 2.4 1.3-.4 3.8-3.1 2.8-1.4-.6-2-1.9-1.4-3 .7-1.1-.1-1-1.7.3-2.5 2.1-4 2-10-.4-9.7-3.8-12-3.6-14.4 1.6-1.7 3.6-1.5 5 .6 7.2 4 4 19.8 1.6 22.4-3.5 1.8-3.2 1.9-3.3.9-.2-3 9.2-2.9 9.6.5 9.6 1.9 0 4.6-1.3 6.1-3zm-6.2-.1c2-1.2 2.4-2.1 2.4-5.3 0-.9 1-1.5 2.3-1.5a2.26 2.26 0 0 1 2.3 2.3c0 1.2-.5 1.9-1.2 1.4-.7-.4-1.8.4-2.3 1.9-.6 1.4-2 2.6-3.3 2.6-1.6-.1-1.7-.4-.2-1.4zM80.3 113c4.7-.9 5.2-3.5.9-4.6-2.2-.6-2.3-.9-.4-1 1.4-.1 3.8.6 5.2 1.6 2.4 1.5 2.4 1.9 0 3.4-1.4 1-4.2 1.7-6.1 1.5-3.1-.1-3-.3.4-.9zm5.6-59.8c4.6-3.8 7.1-13.9 5.9-23.8C90.6 20 87 15.8 80 15.8c-8.6 0-12.7 4-13.7 13.2-2.3 20.6 8.1 33.5 19.6 24.2zm-10.8-6.9c1.2-.5 3.1-.5 4.3 0s.3.9-2.2.9c-2.4 0-3.4-.4-2.1-.9zm-1.4-8.5c0-1.5.8-2.7 1.8-2.7s1.7-2.3 1.7-5.2-.7-5.3-1.7-5.3a1.79 1.79 0 0 0-1.8 1.8c0 .9-1.2 1.7-2.6 1.7s-2.6-1.2-2.6-2.7c0-2 1.3-2.6 4.8-2.2 3.8.4 4.9 1.6 5.4 5.5.3 2.7-.3 6-1.4 7.3-1.6 1.9-1.2 2.6 2 3.2 3.6.6 3.6.8-.7 1q-4.9.2-4.9-2.4zm8.8-12.3c0-1.5 1.6-2.7 3.5-2.7 2.3 0 3.1.9 2.4 2.7-.5 1.4-2.1 2.6-3.4 2.6-1.4 0-2.5-1.2-2.5-2.6z" fill="#ccc9cc"/><path d="M74.1 238.3c-3.5-1.1-7.4-4.5-9.7-8-2-3.4-2.9-5.6-1.9-5 1 .7 1.8-.7 1.8-3.1s-.8-4.3-1.6-4.3c-.9 0-1.2 1.2-.6 2.6.5 1.5.2 2.7-.7 2.7-1.5 0-1.9-1-1.6-4.5 0-.5-1.2-2.2-2.7-3.6-1.5-1.5-2.7-3.4-2.7-4.2 0-2.3 6.9-9.9 7-7.7 0 1.1-1.2 3-2.6 4.2-2.4 2-2.4 2.6.2 5.5 1.7 1.8 3.9 3.2 4.9 3.2 1.1 0 .8-.7-.5-1.6-1.3-.8-1.9-2.4-1.2-3.4.8-1.3.1-1.6-2-1-2.8.9-2.7.7.4-2.2 1.9-1.8 3.6-4.1 3.8-5 .1-.9.4-2.5.6-3.5.2-.9.3-5 .2-9-.2-6.4-.9-7.5-5.4-9.1-4.9-1.7-5.4-1.4-10.5 6.6-3 4.6-5.4 9.9-5.4 11.8 0 5.7-1.8 5.9-9.2 1l-7-4.6 4.2-3.2c12.4-9.4 14.3-14.8 7.9-22.4-4.3-5.1-9-15.9-13.5-31.2-2-6.7-1.9-7.9.9-11 3.2-3.5 3.1-3.5-8.5-3.5-6.6 0-11.7-.8-11.7-1.8s5.5-1.8 13-1.8h13l.7-11.8c.7-12.6 7.2-29.5 14.1-36.9 2-2.1 7.9-5.1 13-6.6 8.2-2.4 9.4-3.3 9.4-7.2 0-2.4-2.7-8.1-6.1-12.5-5.4-7-8.7-18.1-4.7-15.6.8.5 1.4-.9 1.3-3-.1-2.3.8-3.7 2.2-3.4 1.3.3 1.8-.3 1.2-1.3-1.7-2.8 4-12.1 9.2-14.8 6.8-3.4 15.3-.2 20.3 7.6 2 3.4 2.9 5.6 1.9 5-1-.7-1.8.7-1.8 3.1s.8 4.3 1.6 4.3c.9 0 1.2-1.2.6-2.6-.5-1.5-.2-2.7.7-2.7 1.5 0 2.4 2.7 1.3 4.1-.3.3.9 2 2.6 3.7s3.1 3.7 3.1 4.5c0 2.3-6.9 9.9-7 7.7 0-1.1 1.2-3 2.6-4.2 2.4-2 2.4-2.6-.2-5.5-1.7-1.8-3.9-3.2-4.9-3.2-1.1 0-.8.7.5 1.6 1.3.8 1.9 2.4 1.2 3.4-.8 1.3-.1 1.6 2 1 2.8-.9 2.7-.7-.4 2.2-1.9 1.8-3.6 4.1-3.8 5-.1.9-.4 2.5-.6 3.5-.2.9-.3 5-.2 9 .2 6.4.9 7.5 5.4 9.1 4.9 1.7 5.4 1.4 10.5-6.6 3-4.6 5.4-9.9 5.4-11.8 0-5.7 1.8-5.9 9.2-1l7 4.6-4.2 3.2c-12.4 9.4-14.3 14.8-7.9 22.4 4.3 5.1 9 15.9 13.5 31.2 2 6.7 1.9 7.9-.9 11-3.2 3.5-3.1 3.5 8.5 3.5 6.6 0 11.7.8 11.7 1.8s-5.5 1.8-13 1.8h-13l-.7 11.8c-.7 12.6-7.2 29.5-14.1 36.9-2 2.1-7.9 5.1-13 6.6-8.2 2.4-9.4 3.3-9.4 7.2 0 2.4 2.7 8.1 6.1 12.5 5.4 7 8.7 18.1 4.7 15.6-.8-.5-1.4.9-1.3 3 .1 2.3-.8 3.7-2.2 3.4-1.3-.3-1.8.3-1.2 1.3 1.7 2.8-4 12.1-9.2 14.8-3.8 1.9-6 2-10.6.4zm4.3-3.7c0-1.5-.6-2.7-1.4-2.7-1.8 0-2 2.5-.3 4.1 1.6 1.7 1.7 1.6 1.7-1.4zm4.8-1.5c.2-1.5 2.2-4.1 4.3-5.9 3.4-2.7 4.1-5 4.2-14.9.2-11.9-2.8-19.8-8.4-21.9-4.4-1.7-11.2 1-14.2 5.7-4 6-3.9 26 .1 30.4 1.5 1.7 2.3 3.5 1.8 4.1-.6.6 1.6.9 4.8.7 4.9-.2 5.7.3 5.2 3.3-.3 1.9 0 3 .6 2.3.6-.6 1.4-2.3 1.6-3.8zm-13.6-12.6c.5-1.4 2.1-2.6 3.4-2.6 1.4 0 2.5 1.2 2.5 2.6 0 1.5-1.6 2.7-3.5 2.7-2.3 0-3.1-.9-2.4-2.7zm10.6 1.5c-2-2-1.3-10.9 1-12.3 1.5-.9.8-1.7-2.2-2.5l-4.4-1.3 4.8-.1c3.2-.2 4.9.7 4.9 2.4 0 1.5-.8 2.7-1.8 2.7s-1.7 2.3-1.7 5.2.7 5.3 1.7 5.3a1.79 1.79 0 0 0 1.8-1.8c0-.9 1.2-1.7 2.6-1.7a2.65 2.65 0 0 1 2.6 2.6c0 2.7-7 3.8-9.3 1.5zm-1.6-22.8c1.2-.5 3.1-.5 4.4 0 1.2.4.2.8-2.2.8-2.5 0-3.4-.4-2.2-.8zm16.4 4.2c-1.7-1.8-1.9-1.6-1 .9.7 1.8 1.7 2.8 2.2 2.2.6-.5 0-1.9-1.2-3.1zm-25.8-29c7.3-8.1 21.2-18.3 22.8-16.7.6.6.6 5.8 0 11.5l-1.2 10.4 5.9-1.2c3.3-.7 6.7-2 7.6-2.9 2.2-2-7.7-22.9-10.1-21.4-.9.6-1.1.2-.4-1 .7-1.1 2-1.6 2.9-1 1.8 1.1 12.1-19.4 12.1-24.3 0-2.2-1.4-3-5.1-3-4.4 0-5.4.9-7.2 6.5-1.2 3.7-4.2 10.6-6.7 15.4-2.5 4.9-4.3 9.5-4.1 10.3s-.3 1-1.1.5-4.8 0-8.9 1c-5.9 1.5-8.9 3.7-13.5 10-6.9 9.4-7.1 10.2-2.9 11.3 1.6.4 3.2.9 3.5 1 .2.1 3.1-2.8 6.4-6.4zm-5.1-2.2c-.6-1-.3-1.8.8-1.8a1.79 1.79 0 0 1 1.8 1.8c0 1-.3 1.8-.8 1.8-.4 0-1.2-.8-1.8-1.8zm28.9 0c0-1 .4-1.8.8-1.8s1.3.8 1.9 1.8.2 1.8-.8 1.8-1.9-.8-1.9-1.8zm6.4-.9c-.5-1.4-.2-2.6.7-2.6 1 0 1.7 1.2 1.7 2.6 0 1.5-.3 2.7-.7 2.7-.3 0-1.1-1.2-1.7-2.7zm-30.1-4.4c.6-.9 1.9-1.7 2.9-1.7s1.3.8.7 1.7c-.6 1-1.9 1.8-2.9 1.8s-1.3-.8-.7-1.8zm4.4-4.2c0-.3 1.6-1 3.5-1.6 2-.5 3.1-.2 2.6.7-1 1.6-6.1 2.3-6.1.9zm15.8-11.5c0-.9.8-2.1 1.8-2.7s1.3.1.7 1.6c-1.2 3.1-2.5 3.6-2.5 1.1zm6.1-3.5c.5-.8 0-1.9-1.1-2.3-1.2-.4-1.4-1.1-.5-1.7.9-.5 2.6 0 3.8 1.3 1.7 1.8 1.5 2.5-.5 3.3-1.5.6-2.2.3-1.7-.6zm2.7-5.3a1.79 1.79 0 0 1 1.8-1.8c2.2 0 2.2 1.2 0 2.6-1 .6-1.8.3-1.8-.8zm-1.7-4.4c0-.4.7-1.2 1.7-1.8s1.8-.3 1.8.8a1.79 1.79 0 0 1-1.8 1.8c-1 0-1.7-.3-1.7-.8zm7-8.7c0-3.1 1-3.6 2.5-1.1.6.8.2 2.1-.7 2.7-1 .6-1.8-.1-1.8-1.6zm-43.1 9c-.4-2 .4-5.4 1.8-7.5 3-4.7 1.9-6-4.6-6s-11.4 6.9-8.6 12.1c3.9 7.4 12.7 8.5 11.4 1.4zm24.1-.4c1.7-3.6 1.5-5-.6-7.2-3.5-3.4-20.1-1.6-21.6 2.4-1.2 3.2-1.8 2.7 6.9 6.2 9.9 4 13 3.7 15.3-1.4zM72 137c-2.4-1.5-2.4-1.9 0-3.4 1.4-1 4.2-1.7 6.1-1.5 3.1.1 3 .3-.4.9-4.7.9-5.2 3.5-.9 4.6 2.2.6 2.3.9.4 1-1.4.1-3.8-.6-5.2-1.6zm-10.5-22.3c1.2-3.7 4.2-10.6 6.7-15.4 2.5-4.9 4.3-9.5 4.1-10.3s.3-1 1.1-.5 4.8 0 8.9-1c5.9-1.5 8.9-3.7 13.5-10 7-9.6 7.1-10 2.4-11.3-2.7-.7-5.2.8-9.5 5.5-7.2 8-21.1 18.2-22.7 16.6-.6-.6-.6-5.8 0-11.5l1.2-10.4-5.9 1.2c-3.3.7-6.7 2-7.6 2.9-2.2 2 7.7 22.9 10.1 21.4.9-.6 1.1-.2.4 1-.7 1.1-2 1.6-2.9 1-1.8-1.1-12.1 19.4-12.1 24.3 0 2.2 1.4 3 5.1 3 4.4 0 5.4-.9 7.2-6.5zm-9.6 3.1c-.6-.8-.2-2.1.7-2.7 1-.6 1.8.1 1.8 1.6 0 3.1-1 3.6-2.5 1.1zm6-8.8a1.79 1.79 0 0 1 1.8-1.8c2.2 0 2.2 1.2 0 2.6-1 .6-1.8.3-1.8-.8zm-1.7-4.3c0-.5.8-1.3 1.7-1.9 1-.6 1.8-.3 1.8.8a1.79 1.79 0 0 1-1.8 1.8c-.9 0-1.7-.3-1.7-.7zm4-3.7c-1.7-1.8-1.5-2.5.5-3.3 1.5-.6 2.2-.3 1.7.6-.5.8 0 1.9 1.1 2.3 1.2.4 1.4 1.1.5 1.7-.9.5-2.6 0-3.8-1.3zm5.7-4.9c.7-1.7 1.7-2.7 2.2-2.1.6.5 0 1.9-1.2 3.1-1.7 1.7-1.9 1.5-1-1zM78.6 84c1-1 2.9-1.5 4.2-1 1.3.4.5 1.2-1.9 1.8-2.9.8-3.6.6-2.3-.8zm6.5-4.9c.6-1 1.9-1.8 2.9-1.8s1.3.8.7 1.8c-.6.9-1.9 1.7-2.9 1.7s-1.3-.8-.7-1.7zm-28.9-4.4c0-1.5.3-2.7.7-2.7.3 0 1.1 1.2 1.7 2.7.5 1.4.2 2.6-.7 2.6-1 0-1.7-1.2-1.7-2.6zm6.1-.9c-.6-1-.2-1.8.8-1.8s1.9.8 1.9 1.8-.4 1.8-.8 1.8-1.3-.8-1.9-1.8zm29 0c0-1 .3-1.8.8-1.8.4 0 1.2.8 1.8 1.8s.3 1.8-.8 1.8a1.79 1.79 0 0 1-1.8-1.8zm16.8 43.2c2.1-3.3 2.3-5.1.8-7.9-4-7.5-12.4-8.3-11.3-1 .3 1.9-.6 5.2-1.9 7.2-3 4.6-1.9 5.9 4.6 5.9q5 0 7.8-4.2zm-12.9-3.4c2.2-3.4 1.7-3.9-7-7-10.9-3.9-12.4-3.7-14.8 1.4-3.2 7.2.7 10.2 11.6 8.8 4.9-.7 9.5-2.1 10.2-3.2zm-14.9-.6c4.7-.9 5.2-3.5.9-4.6-2.2-.6-2.3-.9-.4-1 1.4-.1 3.8.6 5.2 1.6 2.4 1.5 2.4 1.9 0 3.4-1.4 1-4.2 1.7-6.1 1.5-3.1-.1-3-.3.4-.9zm5.6-59.8c6.9-5.6 8.4-27.2 2.5-34-1.3-1.5-1.9-3.2-1.4-3.8.6-.6-1.6-.9-4.8-.7-4.9.2-5.8-.3-5.3-3.3.4-2.8.1-3-1.2-.9-1 1.4-1.4 3.1-1 3.7.4.7-1.1 2.4-3.4 3.9-3 2-4.3 4.9-5 10.9-2.3 20.6 8.1 33.5 19.6 24.2zm-10.8-6.9c1.2-.5 3.1-.5 4.3 0s.3.9-2.2.9c-2.4 0-3.4-.4-2.1-.9zm-1.4-8.5c0-1.5.8-2.7 1.8-2.7s1.7-2.3 1.7-5.2-.7-5.3-1.7-5.3a1.79 1.79 0 0 0-1.8 1.8c0 .9-1.2 1.7-2.6 1.7s-2.6-1.2-2.6-2.7c0-2 1.3-2.6 4.8-2.2 3.8.4 4.9 1.6 5.4 5.5.3 2.7-.3 6-1.4 7.3-1.6 1.9-1.2 2.6 2 3.2 3.6.6 3.6.8-.7 1q-4.9.2-4.9-2.4zm8.8-12.3c0-1.5 1.6-2.7 3.5-2.7 2.3 0 3.1.9 2.4 2.7-.5 1.4-2.1 2.6-3.4 2.6-1.4 0-2.5-1.2-2.5-2.6zM63.8 41.2c-.6-1.5-1.4-2.3-1.9-1.9-.4.5-.3 1.7.4 2.8 1.7 2.8 2.7 2.2 1.5-.9zm18.7-28.8c0-.9-.6-2.1-1.5-2.6-.8-.5-1.4.3-1.4 1.7s.6 2.6 1.4 2.6c.9 0 1.5-.8 1.5-1.7z" fill="#fe9e00"/><path d="M74.1 238.3c-3.5-1.1-7.4-4.5-9.7-8-2-3.4-2.9-5.6-1.9-5 1 .7 1.8-.7 1.8-3.1s-.8-4.3-1.6-4.3c-.9 0-1.2 1.2-.6 2.6.5 1.5.2 2.7-.7 2.7-1.5 0-1.9-1-1.6-4.5 0-.5-1.2-2.2-2.7-3.6-1.5-1.5-2.7-3.4-2.7-4.2 0-2.3 6.9-9.9 7-7.7 0 1.1-1.2 3-2.6 4.2-2.4 2-2.4 2.6.2 5.5 1.7 1.8 3.9 3.2 4.9 3.2 1.1 0 .8-.7-.5-1.6-1.3-.8-1.9-2.4-1.2-3.4.8-1.3.1-1.6-2-1-2.8.9-2.7.7.4-2.2 1.9-1.8 3.6-4.1 3.8-5 .1-.9.4-2.5.6-3.5.2-.9.3-5 .2-9-.2-6.4-.9-7.5-5.4-9.1-4.9-1.7-5.4-1.4-10.5 6.6-3 4.6-5.4 9.9-5.4 11.8 0 5.7-1.8 5.9-9.2 1l-7-4.6 4.2-3.2c12.4-9.4 14.3-14.8 7.9-22.4-4.3-5.1-9-15.9-13.5-31.2-2-6.7-1.9-7.9.9-11 3.2-3.5 3.1-3.5-8.5-3.5-6.6 0-11.7-.8-11.7-1.8s5.5-1.8 13-1.8h13l.7-11.8c.7-12.6 7.2-29.5 14.1-36.9 2-2.1 7.9-5.1 13-6.6 8.2-2.4 9.4-3.3 9.4-7.2 0-2.4-2.7-8.1-6.1-12.5-5.4-7-8.7-18.1-4.7-15.6.8.5 1.4-.9 1.3-3-.1-2.3.8-3.7 2.2-3.4 1.3.3 1.8-.3 1.2-1.3-1.7-2.8 4-12.1 9.2-14.8 6.8-3.4 15.3-.2 20.3 7.6 2 3.4 2.9 5.6 1.9 5-1-.7-1.8.7-1.8 3.1s.8 4.3 1.6 4.3c.9 0 1.2-1.2.6-2.6-.5-1.5-.2-2.7.7-2.7 1.5 0 2.4 2.7 1.3 4.1-.3.3.9 2 2.6 3.7s3.1 3.7 3.1 4.5c0 2.3-6.9 9.9-7 7.7 0-1.1 1.2-3 2.6-4.2 2.4-2 2.4-2.6-.2-5.5-1.7-1.8-3.9-3.2-4.9-3.2-1.1 0-.8.7.5 1.6 1.3.8 1.9 2.4 1.2 3.4-.8 1.3-.1 1.6 2 1 2.8-.9 2.7-.7-.4 2.2-1.9 1.8-3.6 4.1-3.8 5-.1.9-.4 2.5-.6 3.5-.2.9-.3 5-.2 9 .2 6.4.9 7.5 5.4 9.1 4.9 1.7 5.4 1.4 10.5-6.6 3-4.6 5.4-9.9 5.4-11.8 0-5.7 1.8-5.9 9.2-1l7 4.6-4.2 3.2c-12.4 9.4-14.3 14.8-7.9 22.4 4.3 5.1 9 15.9 13.5 31.2 2 6.7 1.9 7.9-.9 11-3.2 3.5-3.1 3.5 8.5 3.5 6.6 0 11.7.8 11.7 1.8s-5.5 1.8-13 1.8h-13l-.7 11.8c-.7 12.6-7.2 29.5-14.1 36.9-2 2.1-7.9 5.1-13 6.6-8.2 2.4-9.4 3.3-9.4 7.2 0 2.4 2.7 8.1 6.1 12.5 5.4 7 8.7 18.1 4.7 15.6-.8-.5-1.4.9-1.3 3 .1 2.3-.8 3.7-2.2 3.4-1.3-.3-1.8.3-1.2 1.3 1.7 2.8-4 12.1-9.2 14.8-3.8 1.9-6 2-10.6.4zm4.3-3.7c0-1.5-.6-2.7-1.4-2.7-1.8 0-2 2.5-.3 4.1 1.6 1.7 1.7 1.6 1.7-1.4zm4.8-1.5c.2-1.5 2.2-4.1 4.3-5.9 3.4-2.7 4.1-5 4.2-14.9.2-11.9-2.8-19.8-8.4-21.9-4.4-1.7-11.2 1-14.2 5.7-4 6-3.9 26 .1 30.4 1.5 1.7 2.3 3.5 1.8 4.1-.6.6 1.6.9 4.8.7 4.9-.2 5.7.3 5.2 3.3-.3 1.9 0 3 .6 2.3.6-.6 1.4-2.3 1.6-3.8zm-13.6-12.6c.5-1.4 2.1-2.6 3.4-2.6 1.4 0 2.5 1.2 2.5 2.6 0 1.5-1.6 2.7-3.5 2.7-2.3 0-3.1-.9-2.4-2.7zm10.6 1.5c-2-2-1.3-10.9 1-12.3 1.5-.9.8-1.7-2.2-2.5l-4.4-1.3 4.8-.1c3.2-.2 4.9.7 4.9 2.4 0 1.5-.8 2.7-1.8 2.7s-1.7 2.3-1.7 5.2.7 5.3 1.7 5.3a1.79 1.79 0 0 0 1.8-1.8c0-.9 1.2-1.7 2.6-1.7a2.65 2.65 0 0 1 2.6 2.6c0 2.7-7 3.8-9.3 1.5zm-1.6-22.8c1.2-.5 3.1-.5 4.4 0 1.2.4.2.8-2.2.8-2.5 0-3.4-.4-2.2-.8zm16.4 4.2c-1.7-1.8-1.9-1.6-1 .9.7 1.8 1.7 2.8 2.2 2.2.6-.5 0-1.9-1.2-3.1zm-49.4-12.7c1.2-1.5 1.6-4 1-5.7-1.1-2.8-1.6-2.6-5 1.5-2.1 2.5-5.7 5.5-8 6.7l-4.1 2.1 5.9 4.1 5.9 4 1-5c.6-2.8 2.1-6.3 3.3-7.7zm23.6-16.3c7.3-8.1 21.2-18.3 22.8-16.7.6.6.6 5.8 0 11.5l-1.2 10.4 5.9-1.2c3.3-.7 6.7-2 7.6-2.9 2.2-2-7.7-22.9-10.1-21.4-.9.6-1.1.2-.4-1 .7-1.1 2-1.6 2.9-1 1.8 1.1 12.1-19.4 12.1-24.3 0-2.2-1.4-3-5.1-3-4.4 0-5.4.9-7.2 6.5-1.2 3.7-4.2 10.6-6.7 15.4-2.5 4.9-4.3 9.5-4.1 10.3s-.3 1-1.1.5-4.8 0-8.9 1c-5.9 1.5-8.9 3.7-13.5 10-6.9 9.4-7.1 10.2-2.9 11.3 1.6.4 3.2.9 3.5 1 .2.1 3.1-2.8 6.4-6.4zm-5.1-2.2c-.6-1-.3-1.8.8-1.8a1.79 1.79 0 0 1 1.8 1.8c0 1-.3 1.8-.8 1.8-.4 0-1.2-.8-1.8-1.8zm28.9 0c0-1 .4-1.8.8-1.8s1.3.8 1.9 1.8.2 1.8-.8 1.8-1.9-.8-1.9-1.8zm6.4-.9c-.5-1.4-.2-2.6.7-2.6 1 0 1.7 1.2 1.7 2.6 0 1.5-.3 2.7-.7 2.7-.3 0-1.1-1.2-1.7-2.7zm-30.1-4.4c.6-.9 1.9-1.7 2.9-1.7s1.3.8.7 1.7c-.6 1-1.9 1.8-2.9 1.8s-1.3-.8-.7-1.8zm4.4-4.2c0-.3 1.6-1 3.5-1.6 2-.5 3.1-.2 2.6.7-1 1.6-6.1 2.3-6.1.9zm15.8-11.5c0-.9.8-2.1 1.8-2.7s1.3.1.7 1.6c-1.2 3.1-2.5 3.6-2.5 1.1zm6.1-3.5c.5-.8 0-1.9-1.1-2.3-1.2-.4-1.4-1.1-.5-1.7.9-.5 2.6 0 3.8 1.3 1.7 1.8 1.5 2.5-.5 3.3-1.5.6-2.2.3-1.7-.6zm2.7-5.3a1.79 1.79 0 0 1 1.8-1.8c2.2 0 2.2 1.2 0 2.6-1 .6-1.8.3-1.8-.8zm-1.7-4.4c0-.4.7-1.2 1.7-1.8s1.8-.3 1.8.8a1.79 1.79 0 0 1-1.8 1.8c-1 0-1.7-.3-1.7-.8zm7-8.7c0-3.1 1-3.6 2.5-1.1.6.8.2 2.1-.7 2.7-1 .6-1.8-.1-1.8-1.6zM46.4 158c-.5-.9-1.7-1.2-2.7-.6-.9.5-1.2 1.7-.6 2.7.6.9 1.8 1.2 2.7.6s1.2-1.8.6-2.7zm66 .9c1.9-2.2 1.8-3.2-.6-5.6-2.8-2.7-3.2-2.7-5.9 0-2.4 2.4-2.5 3.4-.6 5.6 1.2 1.5 2.8 2.8 3.5 2.8.8 0 2.4-1.3 3.6-2.8zm-51.9-20.6c-.4-2 .4-5.4 1.8-7.5 3-4.7 1.9-6-4.6-6s-11.4 6.9-8.6 12.1c3.9 7.4 12.7 8.5 11.4 1.4zm24.1-.4c1.7-3.6 1.5-5-.6-7.2-3.5-3.4-20.1-1.6-21.6 2.4-1.2 3.2-1.8 2.7 6.9 6.2 9.9 4 13 3.7 15.3-1.4zM72 137c-2.4-1.5-2.4-1.9 0-3.4 1.4-1 4.2-1.7 6.1-1.5 3.1.1 3 .3-.4.9-4.7.9-5.2 3.5-.9 4.6 2.2.6 2.3.9.4 1-1.4.1-3.8-.6-5.2-1.6zm-10.5-22.3c1.2-3.7 4.2-10.6 6.7-15.4 2.5-4.9 4.3-9.5 4.1-10.3s.3-1 1.1-.5 4.8 0 8.9-1c5.9-1.5 8.9-3.7 13.5-10 7-9.6 7.1-10 2.4-11.3-2.7-.7-5.2.8-9.5 5.5-7.2 8-21.1 18.2-22.7 16.6-.6-.6-.6-5.8 0-11.5l1.2-10.4-5.9 1.2c-3.3.7-6.7 2-7.6 2.9-2.2 2 7.7 22.9 10.1 21.4.9-.6 1.1-.2.4 1-.7 1.1-2 1.6-2.9 1-1.8-1.1-12.1 19.4-12.1 24.3 0 2.2 1.4 3 5.1 3 4.4 0 5.4-.9 7.2-6.5zm-9.6 3.1c-.6-.8-.2-2.1.7-2.7 1-.6 1.8.1 1.8 1.6 0 3.1-1 3.6-2.5 1.1zm6-8.8a1.79 1.79 0 0 1 1.8-1.8c2.2 0 2.2 1.2 0 2.6-1 .6-1.8.3-1.8-.8zm-1.7-4.3c0-.5.8-1.3 1.7-1.9 1-.6 1.8-.3 1.8.8a1.79 1.79 0 0 1-1.8 1.8c-.9 0-1.7-.3-1.7-.7zm4-3.7c-1.7-1.8-1.5-2.5.5-3.3 1.5-.6 2.2-.3 1.7.6-.5.8 0 1.9 1.1 2.3 1.2.4 1.4 1.1.5 1.7-.9.5-2.6 0-3.8-1.3zm5.7-4.9c.7-1.7 1.7-2.7 2.2-2.1.6.5 0 1.9-1.2 3.1-1.7 1.7-1.9 1.5-1-1zM78.6 84c1-1 2.9-1.5 4.2-1 1.3.4.5 1.2-1.9 1.8-2.9.8-3.6.6-2.3-.8zm6.5-4.9c.6-1 1.9-1.8 2.9-1.8s1.3.8.7 1.8c-.6.9-1.9 1.7-2.9 1.7s-1.3-.8-.7-1.7zm-28.9-4.4c0-1.5.3-2.7.7-2.7.3 0 1.1 1.2 1.7 2.7.5 1.4.2 2.6-.7 2.6-1 0-1.7-1.2-1.7-2.6zm6.1-.9c-.6-1-.2-1.8.8-1.8s1.9.8 1.9 1.8-.4 1.8-.8 1.8-1.3-.8-1.9-1.8zm29 0c0-1 .3-1.8.8-1.8.4 0 1.2.8 1.8 1.8s.3 1.8-.8 1.8a1.79 1.79 0 0 1-1.8-1.8zm16.8 43.2c2.1-3.3 2.3-5.1.8-7.9-4-7.5-12.4-8.3-11.3-1 .3 1.9-.6 5.2-1.9 7.2-3 4.6-1.9 5.9 4.6 5.9q5 0 7.8-4.2zm-12.9-3.4c2.2-3.4 1.7-3.9-7-7-10.9-3.9-12.4-3.7-14.8 1.4-3.2 7.2.7 10.2 11.6 8.8 4.9-.7 9.5-2.1 10.2-3.2zm-14.9-.6c4.7-.9 5.2-3.5.9-4.6-2.2-.6-2.3-.9-.4-1 1.4-.1 3.8.6 5.2 1.6 2.4 1.5 2.4 1.9 0 3.4-1.4 1-4.2 1.7-6.1 1.5-3.1-.1-3-.3.4-.9zM52.7 92.2c1.9-2.3 1.8-3.3-.6-5.7-2.7-2.7-3.1-2.7-5.9 0-2.4 2.4-2.5 3.4-.6 5.7 1.2 1.5 2.8 2.7 3.6 2.7.7 0 2.3-1.2 3.5-2.7zm62.2-6.3c-.6-.9-1.8-1.2-2.7-.6s-1.2 1.8-.6 2.7c.5.9 1.7 1.2 2.7.6.9-.5 1.2-1.7.6-2.7zm10.3-34.1c2.6-1.5 2.2-2.2-3.2-5.7l-6.1-4v4.1c0 2.2-1.3 5.8-2.8 8-1.6 2.2-2.3 5.2-1.7 6.8.9 2.4 1.9 2.1 6-2.3 2.6-2.8 6.2-5.9 7.8-6.9zm-39.3 1.4c6.9-5.6 8.4-27.2 2.5-34-1.3-1.5-1.9-3.2-1.4-3.8.6-.6-1.6-.9-4.8-.7-4.9.2-5.8-.3-5.3-3.3.4-2.8.1-3-1.2-.9-1 1.4-1.4 3.1-1 3.7.4.7-1.1 2.4-3.4 3.9-3 2-4.3 4.9-5 10.9-2.3 20.6 8.1 33.5 19.6 24.2zm-10.8-6.9c1.2-.5 3.1-.5 4.3 0s.3.9-2.2.9c-2.4 0-3.4-.4-2.1-.9zm-1.4-8.5c0-1.5.8-2.7 1.8-2.7s1.7-2.3 1.7-5.2-.7-5.3-1.7-5.3a1.79 1.79 0 0 0-1.8 1.8c0 .9-1.2 1.7-2.6 1.7s-2.6-1.2-2.6-2.7c0-2 1.3-2.6 4.8-2.2 3.8.4 4.9 1.6 5.4 5.5.3 2.7-.3 6-1.4 7.3-1.6 1.9-1.2 2.6 2 3.2 3.6.6 3.6.8-.7 1q-4.9.2-4.9-2.4zm8.8-12.3c0-1.5 1.6-2.7 3.5-2.7 2.3 0 3.1.9 2.4 2.7-.5 1.4-2.1 2.6-3.4 2.6-1.4 0-2.5-1.2-2.5-2.6zM63.8 41.2c-.6-1.5-1.4-2.3-1.9-1.9-.4.5-.3 1.7.4 2.8 1.7 2.8 2.7 2.2 1.5-.9zm18.7-28.8c0-.9-.6-2.1-1.5-2.6-.8-.5-1.4.3-1.4 1.7s.6 2.6 1.4 2.6c.9 0 1.5-.8 1.5-1.7z" fill="#9b989b"/><path d="M72 219.6c0-.9.8-1.7 1.7-1.7 1 0 1.8.8 1.8 1.7a1.79 1.79 0 0 1-1.8 1.8c-.9 0-1.7-.8-1.7-1.8zm14 0c0-.9.8-1.7 1.8-1.7.9 0 1.7.8 1.7 1.7 0 1-.8 1.8-1.7 1.8a1.79 1.79 0 0 1-1.8-1.8zm25-.3c-4.1-4-2.1-9.5 6.2-17.7l8.4-8.3 8.3 8.4c8.3 8.4 10.1 13.6 6.2 17.6-2.9 2.9-9.3 2.6-12-.6-2-2.4-2.5-2.4-5.2 0-3.5 3.2-9 3.5-11.9.6zm-76.5-18.7l-6.8-4.5 4.2-3.2c12.4-9.4 14.3-14.8 7.9-22.4-4.3-5.1-9-15.9-13.5-31.2-2-6.7-1.9-7.9.9-11 3.2-3.5 3.1-3.5-8.5-3.5-6.6 0-11.7-.8-11.7-1.8s5.5-1.8 13-1.8h13l.7-11.8c.7-12.6 7.2-29.5 14.1-36.9 2-2.1 7.9-5.1 13-6.6 8.4-2.4 9.4-3.3 9.4-7.4 0-3.7.5-4.3 2.1-2.6 3.4 3.4 9.6 2.4 15.3-2.5l5.4-4.5v7c0 6.2.7 7.2 5.2 8.8 4.9 1.7 5.4 1.4 10.5-6.6 3-4.6 5.4-9.9 5.4-11.8 0-5.7 1.8-5.9 9.2-1l7 4.6-4.2 3.2c-12.4 9.4-14.3 14.8-7.9 22.4 4.3 5.1 9 15.9 13.5 31.2 2 6.7 1.9 7.9-.9 11-3.2 3.5-3.1 3.5 8.5 3.5 6.6 0 11.7.8 11.7 1.8s-5.5 1.8-13 1.8h-13l-.7 11.8c-.7 12.6-7.2 29.5-14.1 36.9-2 2.1-7.9 5.1-13 6.6-8.4 2.4-9.4 3.3-9.4 7.4 0 3.7-.5 4.3-2.1 2.6-3.4-3.4-9.6-2.4-15.3 2.5l-5.4 4.5v-7c0-6.2-.7-7.2-5.2-8.8-4.9-1.7-5.4-1.4-10.5 6.6-3 4.6-5.4 10-5.4 12 0 5.6-2 5.7-9.4.7zm11.1-9.9c1.2-1.5 1.6-4 1-5.7-1.1-2.8-1.6-2.6-5 1.5-2.1 2.5-5.7 5.5-8 6.7l-4.1 2.1 5.9 4.1 5.9 4 1-5c.6-2.8 2.1-6.3 3.3-7.7zm23.6-16.3c7.3-8.1 21.2-18.3 22.8-16.7.6.6.6 5.8 0 11.5l-1.2 10.4 5.9-1.2c3.3-.7 6.7-2 7.6-2.9 2.2-2-7.7-22.9-10.1-21.4-.9.6-1.1.2-.4-1 .7-1.1 2-1.6 2.9-1 1.8 1.1 12.1-19.4 12.1-24.3 0-2.2-1.4-3-5.1-3-4.4 0-5.4.9-7.2 6.5-1.2 3.7-4.2 10.6-6.7 15.4-2.5 4.9-4.3 9.5-4.1 10.3s-.3 1-1.1.5-4.8 0-8.9 1c-5.9 1.5-8.9 3.7-13.5 10-6.9 9.4-7.1 10.2-2.9 11.3 1.6.4 3.2.9 3.5 1 .2.1 3.1-2.8 6.4-6.4zm-5.1-2.2c-.6-1-.3-1.8.8-1.8a1.79 1.79 0 0 1 1.8 1.8c0 1-.3 1.8-.8 1.8-.4 0-1.2-.8-1.8-1.8zm28.9 0c0-1 .4-1.8.8-1.8s1.3.8 1.9 1.8.2 1.8-.8 1.8-1.9-.8-1.9-1.8zm6.4-.9c-.5-1.4-.2-2.6.7-2.6 1 0 1.7 1.2 1.7 2.6 0 1.5-.3 2.7-.7 2.7-.3 0-1.1-1.2-1.7-2.7zm-30.1-4.4c.6-.9 1.9-1.7 2.9-1.7s1.3.8.7 1.7c-.6 1-1.9 1.8-2.9 1.8s-1.3-.8-.7-1.8zm4.4-4.2c0-.3 1.6-1 3.5-1.6 2-.5 3.1-.2 2.6.7-1 1.6-6.1 2.3-6.1.9zm15.8-11.5c0-.9.8-2.1 1.8-2.7s1.3.1.7 1.6c-1.2 3.1-2.5 3.6-2.5 1.1zm6.1-3.5c.5-.8 0-1.9-1.1-2.3-1.2-.4-1.4-1.1-.5-1.7.9-.5 2.6 0 3.8 1.3 1.7 1.8 1.5 2.5-.5 3.3-1.5.6-2.2.3-1.7-.6zm2.7-5.3a1.79 1.79 0 0 1 1.8-1.8c2.2 0 2.2 1.2 0 2.6-1 .6-1.8.3-1.8-.8zm-1.7-4.4c0-.4.7-1.2 1.7-1.8s1.8-.3 1.8.8a1.79 1.79 0 0 1-1.8 1.8c-1 0-1.7-.3-1.7-.8zm7-8.7c0-3.1 1-3.6 2.5-1.1.6.8.2 2.1-.7 2.7-1 .6-1.8-.1-1.8-1.6zM46.4 158c-.5-.9-1.7-1.2-2.7-.6-.9.5-1.2 1.7-.6 2.7.6.9 1.8 1.2 2.7.6s1.2-1.8.6-2.7zm66 .9c1.9-2.2 1.8-3.2-.6-5.6-2.8-2.7-3.2-2.7-5.9 0-2.4 2.4-2.5 3.4-.6 5.6 1.2 1.5 2.8 2.8 3.5 2.8.8 0 2.4-1.3 3.6-2.8zm-51.9-20.6c-.4-2 .4-5.4 1.8-7.5 3-4.7 1.9-6-4.6-6s-11.4 6.9-8.6 12.1c3.9 7.4 12.7 8.5 11.4 1.4zm24.1-.4c1.7-3.6 1.5-5-.6-7.2-3.5-3.4-20.1-1.6-21.6 2.4-1.2 3.2-1.8 2.7 6.9 6.2 9.9 4 13 3.7 15.3-1.4zm-23.1-23.2c1.2-3.7 4.2-10.6 6.7-15.4 2.5-4.9 4.3-9.5 4.1-10.3s.3-1 1.1-.5 4.8 0 8.9-1c5.9-1.5 8.9-3.7 13.5-10 7-9.6 7.1-10 2.4-11.3-2.7-.7-5.2.8-9.5 5.5-7.2 8-21.1 18.2-22.7 16.6-.6-.6-.6-5.8 0-11.5l1.2-10.4-5.9 1.2c-3.3.7-6.7 2-7.6 2.9-2.2 2 7.7 22.9 10.1 21.4.9-.6 1.1-.2.4 1-.7 1.1-2 1.6-2.9 1-1.8-1.1-12.1 19.4-12.1 24.3 0 2.2 1.4 3 5.1 3 4.4 0 5.4-.9 7.2-6.5zm-9.6 3.1c-.6-.8-.2-2.1.7-2.7 1-.6 1.8.1 1.8 1.6 0 3.1-1 3.6-2.5 1.1zm6-8.8a1.79 1.79 0 0 1 1.8-1.8c2.2 0 2.2 1.2 0 2.6-1 .6-1.8.3-1.8-.8zm-1.7-4.3c0-.5.8-1.3 1.7-1.9 1-.6 1.8-.3 1.8.8a1.79 1.79 0 0 1-1.8 1.8c-.9 0-1.7-.3-1.7-.7zm4-3.7c-1.7-1.8-1.5-2.5.5-3.3 1.5-.6 2.2-.3 1.7.6-.5.8 0 1.9 1.1 2.3 1.2.4 1.4 1.1.5 1.7-.9.5-2.6 0-3.8-1.3zm5.7-4.9c.7-1.7 1.7-2.7 2.2-2.1.6.5 0 1.9-1.2 3.1-1.7 1.7-1.9 1.5-1-1zM78.6 84c1-1 2.9-1.5 4.2-1 1.3.4.5 1.2-1.9 1.8-2.9.8-3.6.6-2.3-.8zm6.5-4.9c.6-1 1.9-1.8 2.9-1.8s1.3.8.7 1.8c-.6.9-1.9 1.7-2.9 1.7s-1.3-.8-.7-1.7zm-28.9-4.4c0-1.5.3-2.7.7-2.7.3 0 1.1 1.2 1.7 2.7.5 1.4.2 2.6-.7 2.6-1 0-1.7-1.2-1.7-2.6zm6.1-.9c-.6-1-.2-1.8.8-1.8s1.9.8 1.9 1.8-.4 1.8-.8 1.8-1.3-.8-1.9-1.8zm29 0c0-1 .3-1.8.8-1.8.4 0 1.2.8 1.8 1.8s.3 1.8-.8 1.8a1.79 1.79 0 0 1-1.8-1.8zm16.8 43.2c2.1-3.3 2.3-5.1.8-7.9-4-7.5-12.4-8.3-11.3-1 .3 1.9-.6 5.2-1.9 7.2-3 4.6-1.9 5.9 4.6 5.9q5 0 7.8-4.2zm-12.9-3.4c2.2-3.4 1.7-3.9-7-7-10.9-3.9-12.4-3.7-14.8 1.4-3.2 7.2.7 10.2 11.6 8.8 4.9-.7 9.5-2.1 10.2-3.2zM52.7 92.2c1.9-2.3 1.8-3.3-.6-5.7-2.7-2.7-3.1-2.7-5.9 0-2.4 2.4-2.5 3.4-.6 5.7 1.2 1.5 2.8 2.7 3.6 2.7.7 0 2.3-1.2 3.5-2.7zm62.2-6.3c-.6-.9-1.8-1.2-2.7-.6s-1.2 1.8-.6 2.7c.5.9 1.7 1.2 2.7.6.9-.5 1.2-1.7.6-2.7zm10.3-34.1c2.6-1.5 2.2-2.2-3.2-5.7l-6.1-4v4.1c0 2.2-1.3 5.8-2.8 8-1.6 2.2-2.3 5.2-1.7 6.8.9 2.4 1.9 2.1 6-2.3 2.6-2.8 6.2-5.9 7.8-6.9zM24.1 44.3c-8.3-8.4-10.1-13.6-6.2-17.6 2.9-2.9 9.3-2.6 12 .6 2 2.4 2.5 2.4 5.2 0 3.5-3.2 9-3.5 11.9-.6 4.1 4 2.1 9.5-6.2 17.7l-8.4 8.3zm44.3-17.9a1.79 1.79 0 1 1 3.6 0c0 .9-.8 1.7-1.8 1.7s-1.8-.8-1.8-1.7zm14.1 0c0-1 .8-1.8 1.7-1.8a1.79 1.79 0 0 1 1.8 1.8c0 .9-.8 1.7-1.8 1.7-.9 0-1.7-.8-1.7-1.7z" fill="#fe0000"/><path d="M72 219.6c0-.9.8-1.7 1.7-1.7 1 0 1.8.8 1.8 1.7a1.79 1.79 0 0 1-1.8 1.8c-.9 0-1.7-.8-1.7-1.8zm14 0c0-.9.8-1.7 1.8-1.7.9 0 1.7.8 1.7 1.7 0 1-.8 1.8-1.7 1.8a1.79 1.79 0 0 1-1.8-1.8zm41.5-1.4c-2-2.3-2.9-6.5-2.9-14.4v-11.3l8.8 8.7c8.8 8.6 10.8 14 6.7 18.1-3.1 3.1-9.2 2.6-12.6-1.1zm-93-17.6l-6.8-4.5 4.2-3.2c12.4-9.4 14.3-14.8 7.9-22.4-4.3-5.1-9-15.9-13.5-31.2-2-6.7-1.9-7.9.9-11 3.2-3.5 3.1-3.5-8.5-3.5-6.6 0-11.7-.8-11.7-1.8s5.5-1.8 13-1.8h13l.7-11.8c.7-12.6 7.2-29.5 14.1-36.9 2-2.1 7.9-5.1 13-6.6 8.4-2.4 9.4-3.3 9.4-7.4 0-3.7.5-4.3 2.1-2.6 3.4 3.4 9.6 2.4 15.3-2.5l5.4-4.5v7c0 6.2.7 7.2 5.2 8.8 4.9 1.7 5.4 1.4 10.5-6.6 3-4.6 5.4-9.9 5.4-11.8 0-5.7 1.8-5.9 9.2-1l7 4.6-4.2 3.2c-12.4 9.4-14.3 14.8-7.9 22.4 4.3 5.1 9 15.9 13.5 31.2 2 6.7 1.9 7.9-.9 11-3.2 3.5-3.1 3.5 8.5 3.5 6.6 0 11.7.8 11.7 1.8s-5.5 1.8-13 1.8h-13l-.7 11.8c-.7 12.6-7.2 29.5-14.1 36.9-2 2.1-7.9 5.1-13 6.6-8.4 2.4-9.4 3.3-9.4 7.4 0 3.7-.5 4.3-2.1 2.6-3.4-3.4-9.6-2.4-15.3 2.5l-5.4 4.5v-7c0-6.2-.7-7.2-5.2-8.8-4.9-1.7-5.4-1.4-10.5 6.6-3 4.6-5.4 10-5.4 12 0 5.6-2 5.7-9.4.7zm11.1-9.9c1.2-1.5 1.6-4 1-5.7-1.1-2.8-1.6-2.6-5 1.5-2.1 2.5-5.7 5.5-8 6.7l-4.1 2.1 5.9 4.1 5.9 4 1-5c.6-2.8 2.1-6.3 3.3-7.7zm23.6-16.3c7.3-8.1 21.2-18.3 22.8-16.7.6.6.6 5.8 0 11.5l-1.2 10.4 5.9-1.2c3.3-.7 6.7-2 7.6-2.9 2.3-2-7.7-22.8-10.2-21.4-1.1.6-1.3.4-.5-.5s2.3-1.6 3.4-1.6c1 0 2.3-1.1 2.7-2.5.6-1.7-.1-2.1-2.1-1.3-1.8.7-2.5.4-1.9-.6s.2-1.8-.9-1.8-1.5-.8-.9-1.7c.7-1.1 2.3-.7 4 1.1 2.7 2.7 3.2 2.3 6.9-5.7 5.5-11.8 5.3-14.7-1-14.7-4.5 0-5.4 1-9.2 10.9l-4.8 12.6c-.4.8.2 1 1.2.3 1.3-.8 1.6-.2.9 1.7-.8 2-1.5 2.3-2.4.8-.8-1.4-1.7-1-2.6 1.2-.8 1.8-1.3 3.9-1.1 4.7s-.4 1-1.2.5-4.8 0-8.9 1c-5.9 1.5-8.9 3.7-13.5 10-6.9 9.4-7.1 10.2-2.9 11.3 1.6.4 3.2.9 3.5 1 .2.1 3.1-2.8 6.4-6.4zm-10-17.1c9.9-15 10.6-16.6 7.5-17.6-1.9-.6-4.2-.7-5.1-.1-1.8 1.1-1.4-6.2.6-9.3.6-1.1 3.3-2.1 5.9-2.2s6.7-.8 9.1-1.5c2.6-.8-5.8-1.5-20.3-1.6-22.8-.2-25 0-28 3.4-3.2 3.4-3.1 3.9 1.5 18 2.6 7.9 6.5 17.1 8.6 20.5l3.9 6.2.6-5c.4-2.7-.2-5.9-1.3-7.2-1.4-1.7-1.2-2.8.6-4.3s2.9-1.4 4.5.5c1.4 1.7 1.4 2.8.2 3.6-2.1 1.3-2.6 13.3-.5 13.2.7 0 6.2-7.5 12.2-16.6zM93 172.2c0-1 .4-1.8.8-1.8s1.3.8 1.9 1.8.2 1.8-.8 1.8-1.9-.8-1.9-1.8zm23.9-12.8c3.4-7.4 5.2-14.7 5.7-22.8l.7-11.8h-6.4c-5 0-6.3.6-6.3 3.3 0 1.8-2.7 8.6-6 15.2l-6 11.9 4.6 9.3c5.4 11 6.6 10.6 13.7-5.1zm-47.6 7.5c.6-.9 1.9-1.7 2.9-1.7s1.3.8.7 1.7c-.6 1-1.9 1.8-2.9 1.8s-1.3-.8-.7-1.8zm4.4-4.2c0-.3 1.6-1 3.5-1.6 2-.5 3.1-.2 2.6.7-1 1.6-6.1 2.3-6.1.9zm24.6-20.3a1.79 1.79 0 0 1 1.8-1.8c2.2 0 2.2 1.2 0 2.6-1 .6-1.8.3-1.8-.8zm-1.7-4.4c0-.4.7-1.2 1.7-1.8s1.8-.3 1.8.8a1.79 1.79 0 0 1-1.8 1.8c-1 0-1.7-.3-1.7-.8zm7-8.7c0-3.1 1-3.6 2.5-1.1.6.8.2 2.1-.7 2.7-1 .6-1.8-.1-1.8-1.6zm-39.5 42.9c-.6-1-.3-1.8.8-1.8a1.79 1.79 0 0 1 1.8 1.8c0 1-.3 1.8-.8 1.8-.4 0-1.2-.8-1.8-1.8zm-12.2-16.8c-.6-2.6-.8-5-.4-5.5.4-.4 1.3 1.4 1.9 4 .7 2.6.9 5 .4 5.4-.4.4-1.2-1.3-1.9-3.9zm-6.7-15c1.2-1.2 2.6-1.8 3.1-1.2.6.5-.4 1.5-2.1 2.1-2.5 1-2.7.8-1-.9zm-11.8-3.1c0-1.8 5-6.4 5.8-5.3.3.4-.9 2-2.6 3.7-1.8 1.7-3.2 2.4-3.2 1.6zm66 34c-.5-1.4-.2-2.6.7-2.6 1 0 1.7 1.2 1.7 2.6 0 1.5-.3 2.7-.7 2.7-.3 0-1.1-1.2-1.7-2.7zm5-11.5c-3.2-3.4-3.1-3.6.6-7.4l3.8-3.8 3.9 3.8c3.7 3.8 3.7 4 .6 7.4-1.8 2-3.8 3.6-4.5 3.6-.6 0-2.6-1.6-4.4-3.6zm8-.9c1.9-2.2 1.8-3.2-.6-5.6-2.8-2.7-3.2-2.7-5.9 0-2.4 2.4-2.5 3.4-.6 5.6 1.2 1.5 2.8 2.8 3.5 2.8.8 0 2.4-1.3 3.6-2.8zm3.1-19.3c.4-3.4 1.3-6.4 1.9-6.8.7-.4.9 2 .5 5.3-.3 3.3-1.2 6.4-1.9 6.8-.6.4-.8-2-.5-5.3zM46.4 158c-.5-.9-1.7-1.2-2.7-.6-.9.5-1.2 1.7-.6 2.7.6.9 1.8 1.2 2.7.6s1.2-1.8.6-2.7zm36.3-3.5c2.6-1.3 10.1-16.4 13-26 1-3.3.6-3.9-1.9-3.5-3.3.7-4.8 3-7.2 11.2-.8 2.9-3.1 6-5.1 6.8-3.2 1.4-11.3 11.7-11.3 14.3 0 1.1 8.5-.8 12.5-2.8zm1.9-16.6c1.7-3.6 1.5-5-.6-7.2-3.5-3.4-20.1-1.6-21.6 2.4-1.2 3.2-1.8 2.7 6.9 6.2 9.9 4 13 3.7 15.3-1.4zm-37.2-20c0-1.8 2.7-8.6 6-15.2l6-12-9.7-19.3-3.1 4.7c-6.5 9.9-11.4 24.9-11.4 35l-.1 10.1h6.2c4.8 0 6.1-.7 6.1-3.3zm-7.3-10c.3-3.3 1.2-6.4 1.9-6.8.6-.4.8 2 .5 5.3-.4 3.4-1.3 6.4-1.9 6.8-.7.4-.9-2-.5-5.3zm4.6-14.8c-3.1-3.5-3.1-3.7.6-7.5l3.9-3.8 3.8 3.8c3.7 3.8 3.8 4 .6 7.5-1.8 1.9-3.8 3.5-4.4 3.5-.7 0-2.7-1.6-4.5-3.5zm8-.9c1.9-2.3 1.8-3.3-.6-5.7-2.7-2.7-3.1-2.7-5.9 0-2.4 2.4-2.5 3.4-.6 5.7 1.2 1.5 2.8 2.7 3.6 2.7.7 0 2.3-1.2 3.5-2.7zm10.7 18.1l4.8-12.6c.4-.8-.2-1-1.2-.3-1.3.8-1.6.2-.9-1.7.8-2 1.5-2.3 2.4-.8.8 1.4 1.7 1 2.6-1.2.8-1.8 1.3-3.9 1.1-4.7s.4-1 1.2-.5 4.8 0 8.9-1c5.9-1.5 8.9-3.7 13.5-10 7-9.6 7.1-10 2.4-11.3-2.7-.7-5.2.8-9.5 5.5-7.2 8-21.1 18.2-22.7 16.6-.6-.6-.6-5.8 0-11.5l1.2-10.4-5.9 1.2c-3.3.7-6.7 2-7.6 2.9-2.2 2 7.7 22.9 10.1 21.4.9-.6 1.1-.2.4 1-.7 1.1-2 1.6-2.9 1-1.8-1.1-12.1 19.4-12.1 24.3 0 2.2 1.4 3 5 3 4.5 0 5.4-1 9.2-10.9zm-11.5 7.5c-.6-.8-.2-2.1.7-2.7 1-.6 1.8.1 1.8 1.6 0 3.1-1 3.6-2.5 1.1zm6-8.8a1.79 1.79 0 0 1 1.8-1.8c2.2 0 2.2 1.2 0 2.6-1 .6-1.8.3-1.8-.8zm-1.7-4.3c0-.5.8-1.3 1.7-1.9 1-.6 1.8-.3 1.8.8a1.79 1.79 0 0 1-1.8 1.8c-.9 0-1.7-.3-1.7-.7zm4-3.7c-1.7-1.8-1.5-2.5.5-3.3 1.5-.6 2.2-.3 1.7.6-.5.8 0 1.9 1.1 2.3 1.2.4 1.4 1.1.5 1.7-.9.5-2.6 0-3.8-1.3zm18.4-17c1-1 2.9-1.5 4.2-1 1.3.4.5 1.2-1.9 1.8-2.9.8-3.6.6-2.3-.8zm50.5 33.6c3.2-3.4 3.1-3.9-1.5-18-2.6-7.9-6.5-17.1-8.6-20.5l-3.9-6.2-.6 5c-.4 2.7.2 5.9 1.3 7.2 1.4 1.7 1.2 2.8-.6 4.3s-2.9 1.4-4.5-.5c-1.4-1.7-1.4-2.8-.2-3.6 2.1-1.3 2.6-13.3.5-13.2-.7 0-6.2 7.5-12.2 16.6-9.9 15-10.6 16.6-7.5 17.6 1.9.6 4.2.7 5.1.1 1.8-1.1 1.4 6.2-.6 9.3-.6 1.1-3.3 2.1-5.9 2.2s-6.7.8-9.1 1.5c-2.6.8 5.8 1.5 20.3 1.6 22.8.2 25 0 28-3.4zM56.2 74.7c0-1.5.3-2.7.7-2.7.3 0 1.1 1.2 1.7 2.7.5 1.4.2 2.6-.7 2.6-1 0-1.7-1.2-1.7-2.6zm6.1-.9c-.6-1-.2-1.8.8-1.8s1.9.8 1.9 1.8-.4 1.8-.8 1.8-1.3-.8-1.9-1.8zm29 0c0-1 .3-1.8.8-1.8.4 0 1.2.8 1.8 1.8s.3 1.8-.8 1.8a1.79 1.79 0 0 1-1.8-1.8zm-22.8 43.9c.7-1.4 2-5 2.9-7.9.8-2.9 3.1-6 5.1-6.8 3.5-1.6 12.2-13.1 10.9-14.4-.4-.3-3.7.2-7.3 1.2-5.9 1.6-7.3 3.1-11.6 12.7-7.3 15.9-8.1 19.2-4.3 18.5 1.6-.4 3.6-1.8 4.3-3.3zm16.6-38.6c.6-1 1.9-1.8 2.9-1.8s1.3.8.7 1.8c-.6.9-1.9 1.7-2.9 1.7s-1.3-.8-.7-1.7zm35.6 31.9c1.7-1.8 3.4-3 3.8-2.7 1 .8-3.6 5.9-5.3 5.9-.9 0-.2-1.4 1.5-3.2zm-11.9-4.5c0-.4 1.3-1.2 2.8-1.7 1.5-.6 2.2-.3 1.6.6-1 1.7-4.4 2.5-4.4 1.1zm-4.2-14.4c-.7-2.6-.9-5-.4-5.4.4-.4 1.2 1.3 1.9 3.9.6 2.6.8 5 .4 5.5-.4.4-1.3-1.4-1.9-4zm-9.4 21.5c2.2-3.4 1.7-3.9-7-7-10.9-3.9-12.4-3.7-14.8 1.4-3.2 7.2.7 10.2 11.6 8.8 4.9-.7 9.5-2.1 10.2-3.2zm19.7-27.7c-.6-.9-1.8-1.2-2.7-.6s-1.2 1.8-.6 2.7c.5.9 1.7 1.2 2.7.6.9-.5 1.2-1.7.6-2.7zm10.3-34.1c2.6-1.5 2.2-2.2-3.2-5.7l-6.1-4v4.1c0 2.2-1.3 5.8-2.8 8-1.6 2.2-2.3 5.2-1.7 6.8.9 2.4 1.9 2.1 6-2.3 2.6-2.8 6.2-5.9 7.8-6.9zM68.5 26.4c0-1 .8-1.8 1.7-1.8a1.79 1.79 0 0 1 1.8 1.8c0 .9-.8 1.7-1.8 1.7-.9 0-1.7-.8-1.7-1.7zm14 0a1.79 1.79 0 0 1 1.8-1.8c.9 0 1.7.8 1.7 1.8 0 .9-.8 1.7-1.7 1.7-1 0-1.8-.8-1.8-1.7z" fill="#0000fe"/><path d="M127.5 218.2c-2-2.3-2.9-6.5-2.9-14.4v-11.3l8.8 8.7c8.8 8.6 10.8 14 6.7 18.1-3.1 3.1-9.2 2.6-12.6-1.1zm-93-17.6l-6.8-4.5 4.2-3.2c12.4-9.4 14.3-14.8 7.9-22.4-4.3-5.1-9-15.9-13.5-31.2-2-6.7-1.9-7.9.9-11 3.2-3.5 3.1-3.5-8.5-3.5-6.6 0-11.7-.8-11.7-1.8s5.5-1.8 13-1.8h13l.7-11.8c.8-13.1 7.7-30.9 14.4-37.2 2.1-2 7.7-4.8 12.4-6.2 7.8-2.4 8.8-2.3 10.8.4 2.1 2.7 2.3 2.4 2.4-2.4 0-2.9-.6-6.1-1.3-7s-.5-1.1.4-.3c3.2 2.5 9.5 1.2 15.3-3.3 4.9-3.8 4.8-3.6-.8 1.5-7.5 7-8.9 12.8-2.6 10.9 2.2-.6 4.6-1.8 5.5-2.6.8-.7 4.1-.3 7.3 1.1l5.8 2.4 5.4-8.5c3-4.6 5.4-10 5.4-11.9 0-5.7 1.8-5.9 9.2-1l7 4.6-4.2 3.2c-12.4 9.4-14.3 14.8-7.9 22.4 4.3 5.1 9 15.9 13.5 31.2 2 6.7 1.9 7.9-.9 11-3.2 3.5-3.1 3.5 8.5 3.5 6.6 0 11.7.8 11.7 1.8s-5.5 1.8-13 1.8h-13l-.7 11.8c-.8 13.1-7.7 30.9-14.4 37.2-2.1 2-7.7 4.8-12.4 6.2-7.8 2.4-8.8 2.3-10.8-.4-2.1-2.7-2.3-2.4-2.4 2.4 0 2.9.8 6.3 1.7 7.4 1.3 1.6 1.2 1.6-.3.4-3.6-3-9.7-2-15.8 2.8-4.9 3.8-4.8 3.6.8-1.5 7.5-7 8.9-12.8 2.6-10.9-2.2.6-4.6 1.8-5.5 2.6-.8.7-4.1.3-7.3-1.1l-5.8-2.4-5.4 8.5c-3 4.6-5.4 10.1-5.4 12.1 0 5.6-2 5.7-9.4.7zm11.1-9.9c1.2-1.5 1.6-4 1-5.7-1.1-2.8-1.6-2.6-5 1.5-2.1 2.5-5.7 5.5-8 6.7l-4.1 2.1 5.9 4.1 5.9 4 1-5c.6-2.8 2.1-6.3 3.3-7.7zm23.6-16.3c7.3-8.1 21.2-18.3 22.8-16.7.6.6.6 5.8 0 11.5l-1.2 10.4 5.9-1.2c3.3-.7 6.7-2 7.6-2.9 2.3-2-7.7-22.8-10.2-21.4-1.1.6-1.3.4-.5-.5s2.3-1.6 3.4-1.6c1 0 2.3-1.1 2.7-2.5.6-1.7-.1-2.1-2.1-1.3-1.8.7-2.5.4-1.9-.6s.2-1.8-.9-1.8-1.5-.8-.9-1.7c.7-1.1 2.3-.7 4 1.1 2.7 2.7 3.2 2.3 6.9-5.7 5.5-11.8 5.3-14.7-1-14.7-4.5 0-5.4 1-9.2 10.9l-4.8 12.6c-.4.8.2 1 1.2.3 1.3-.8 1.6-.2.9 1.7-.8 2-1.5 2.3-2.4.8-.8-1.4-1.7-1-2.6 1.2-.8 1.8-1.3 3.9-1.1 4.7s-.4 1-1.2.5-4.8 0-8.9 1c-5.9 1.5-8.9 3.7-13.5 10-6.9 9.4-7.1 10.2-2.9 11.3 1.6.4 3.2.9 3.5 1 .2.1 3.1-2.8 6.4-6.4zm-10-17.1c9.9-15 10.6-16.6 7.5-17.6-1.9-.6-4.2-.7-5.1-.1-1.8 1.1-1.4-6.2.6-9.3.6-1.1 3.3-2.1 5.9-2.2s6.7-.8 9.1-1.5c2.6-.8-5.8-1.5-20.3-1.6-22.8-.2-25 0-28 3.4-3.2 3.4-3.1 3.9 1.5 18 2.6 7.9 6.5 17.1 8.6 20.5l3.9 6.2.6-5c.4-2.7-.2-5.9-1.3-7.2-1.4-1.7-1.2-2.8.6-4.3s2.9-1.4 4.5.5c1.4 1.7 1.4 2.8.2 3.6-2.1 1.3-2.6 13.3-.5 13.2.7 0 6.2-7.5 12.2-16.6zM93 172.2c0-1 .4-1.8.8-1.8s1.3.8 1.9 1.8.2 1.8-.8 1.8-1.9-.8-1.9-1.8zm23.9-12.8c3.4-7.4 5.2-14.7 5.7-22.8l.7-11.8h-6.4c-5 0-6.3.6-6.3 3.3 0 1.8-2.7 8.6-6 15.2l-6 11.9 4.6 9.3c5.4 11 6.6 10.6 13.7-5.1zm-47.6 7.5c.6-.9 1.9-1.7 2.9-1.7s1.3.8.7 1.7c-.6 1-1.9 1.8-2.9 1.8s-1.3-.8-.7-1.8zm4.4-4.2c0-.3 1.6-1 3.5-1.6 2-.5 3.1-.2 2.6.7-1 1.6-6.1 2.3-6.1.9zm24.6-20.3a1.79 1.79 0 0 1 1.8-1.8c2.2 0 2.2 1.2 0 2.6-1 .6-1.8.3-1.8-.8zm-1.7-4.4c0-.4.7-1.2 1.7-1.8s1.8-.3 1.8.8a1.79 1.79 0 0 1-1.8 1.8c-1 0-1.7-.3-1.7-.8zm7-8.7c0-3.1 1-3.6 2.5-1.1.6.8.2 2.1-.7 2.7-1 .6-1.8-.1-1.8-1.6zm-39.5 42.9c-.6-1-.3-1.8.8-1.8a1.79 1.79 0 0 1 1.8 1.8c0 1-.3 1.8-.8 1.8-.4 0-1.2-.8-1.8-1.8zm-12.2-16.8c-.6-2.6-.8-5-.4-5.5.4-.4 1.3 1.4 1.9 4 .7 2.6.9 5 .4 5.4-.4.4-1.2-1.3-1.9-3.9zm-6.7-15c1.2-1.2 2.6-1.8 3.1-1.2.6.5-.4 1.5-2.1 2.1-2.5 1-2.7.8-1-.9zm-11.8-3.1c0-1.8 5-6.4 5.8-5.3.3.4-.9 2-2.6 3.7-1.8 1.7-3.2 2.4-3.2 1.6zm66 34c-.5-1.4-.2-2.6.7-2.6 1 0 1.7 1.2 1.7 2.6 0 1.5-.3 2.7-.7 2.7-.3 0-1.1-1.2-1.7-2.7zm5-11.5c-3.2-3.4-3.1-3.6.6-7.4l3.8-3.8 3.9 3.8c3.7 3.8 3.7 4 .6 7.4-1.8 2-3.8 3.6-4.5 3.6-.6 0-2.6-1.6-4.4-3.6zm8-.9c1.9-2.2 1.8-3.2-.6-5.6-2.8-2.7-3.2-2.7-5.9 0-2.4 2.4-2.5 3.4-.6 5.6 1.2 1.5 2.8 2.8 3.5 2.8.8 0 2.4-1.3 3.6-2.8zm3.1-19.3c.4-3.4 1.3-6.4 1.9-6.8.7-.4.9 2 .5 5.3-.3 3.3-1.2 6.4-1.9 6.8-.6.4-.8-2-.5-5.3zM46.4 158c-.5-.9-1.7-1.2-2.7-.6-.9.5-1.2 1.7-.6 2.7.6.9 1.8 1.2 2.7.6s1.2-1.8.6-2.7zm36.3-3.5c2.6-1.3 10.1-16.4 13-26 1-3.3.6-3.9-1.9-3.5-3.3.7-4.8 3-7.2 11.2-.8 2.9-3.1 6-5.1 6.8-3.2 1.4-11.3 11.7-11.3 14.3 0 1.1 8.5-.8 12.5-2.8zm1.9-16.6c1.7-3.6 1.5-5-.6-7.2-3.5-3.4-20.1-1.6-21.6 2.4-1.2 3.2-1.8 2.7 6.9 6.2 9.9 4 13 3.7 15.3-1.4zm-37.2-20c0-1.8 2.7-8.6 6-15.2l6-12-9.7-19.3-3.1 4.7c-6.5 9.9-11.4 24.9-11.4 35l-.1 10.1h6.2c4.8 0 6.1-.7 6.1-3.3zm-7.3-10c.3-3.3 1.2-6.4 1.9-6.8.6-.4.8 2 .5 5.3-.4 3.4-1.3 6.4-1.9 6.8-.7.4-.9-2-.5-5.3zm4.6-14.8c-3.1-3.5-3.1-3.7.6-7.5l3.9-3.8 3.8 3.8c3.7 3.8 3.8 4 .6 7.5-1.8 1.9-3.8 3.5-4.4 3.5-.7 0-2.7-1.6-4.5-3.5zm8-.9c1.9-2.3 1.8-3.3-.6-5.7-2.7-2.7-3.1-2.7-5.9 0-2.4 2.4-2.5 3.4-.6 5.7 1.2 1.5 2.8 2.7 3.6 2.7.7 0 2.3-1.2 3.5-2.7zm10.7 18.1l4.8-12.6c.4-.8-.2-1-1.2-.3-1.3.8-1.6.2-.9-1.7.8-2 1.5-2.3 2.4-.8.8 1.4 1.7 1 2.6-1.2.8-1.8 1.3-3.9 1.1-4.7s.4-1 1.2-.5 4.8 0 8.9-1c5.9-1.5 8.9-3.7 13.5-10 7-9.6 7.1-10 2.4-11.3-2.7-.7-5.2.8-9.5 5.5-7.2 8-21.1 18.2-22.7 16.6-.6-.6-.6-5.8 0-11.5l1.2-10.4-5.9 1.2c-3.3.7-6.7 2-7.6 2.9-2.2 2 7.7 22.9 10.1 21.4.9-.6 1.1-.2.4 1-.7 1.1-2 1.6-2.9 1-1.8-1.1-12.1 19.4-12.1 24.3 0 2.2 1.4 3 5 3 4.5 0 5.4-1 9.2-10.9zm-11.5 7.5c-.6-.8-.2-2.1.7-2.7 1-.6 1.8.1 1.8 1.6 0 3.1-1 3.6-2.5 1.1zm6-8.8a1.79 1.79 0 0 1 1.8-1.8c2.2 0 2.2 1.2 0 2.6-1 .6-1.8.3-1.8-.8zm-1.7-4.3c0-.5.8-1.3 1.7-1.9 1-.6 1.8-.3 1.8.8a1.79 1.79 0 0 1-1.8 1.8c-.9 0-1.7-.3-1.7-.7zm4-3.7c-1.7-1.8-1.5-2.5.5-3.3 1.5-.6 2.2-.3 1.7.6-.5.8 0 1.9 1.1 2.3 1.2.4 1.4 1.1.5 1.7-.9.5-2.6 0-3.8-1.3zm18.4-17c1-1 2.9-1.5 4.2-1 1.3.4.5 1.2-1.9 1.8-2.9.8-3.6.6-2.3-.8zm50.5 33.6c3.2-3.4 3.1-3.9-1.5-18-2.6-7.9-6.5-17.1-8.6-20.5l-3.9-6.2-.6 5c-.4 2.7.2 5.9 1.3 7.2 1.4 1.7 1.2 2.8-.6 4.3s-2.9 1.4-4.5-.5c-1.4-1.7-1.4-2.8-.2-3.6 2.1-1.3 2.6-13.3.5-13.2-.7 0-6.2 7.5-12.2 16.6-9.9 15-10.6 16.6-7.5 17.6 1.9.6 4.2.7 5.1.1 1.8-1.1 1.4 6.2-.6 9.3-.6 1.1-3.3 2.1-5.9 2.2s-6.7.8-9.1 1.5c-2.6.8 5.8 1.5 20.3 1.6 22.8.2 25 0 28-3.4zM56.2 74.7c0-1.5.3-2.7.7-2.7.3 0 1.1 1.2 1.7 2.7.5 1.4.2 2.6-.7 2.6-1 0-1.7-1.2-1.7-2.6zm6.1-.9c-.6-1-.2-1.8.8-1.8s1.9.8 1.9 1.8-.4 1.8-.8 1.8-1.3-.8-1.9-1.8zm29 0c0-1 .3-1.8.8-1.8.4 0 1.2.8 1.8 1.8s.3 1.8-.8 1.8a1.79 1.79 0 0 1-1.8-1.8zm-22.8 43.9c.7-1.4 2-5 2.9-7.9.8-2.9 3.1-6 5.1-6.8 3.5-1.6 12.2-13.1 10.9-14.4-.4-.3-3.7.2-7.3 1.2-5.9 1.6-7.3 3.1-11.6 12.7-7.3 15.9-8.1 19.2-4.3 18.5 1.6-.4 3.6-1.8 4.3-3.3zm16.6-38.6c.6-1 1.9-1.8 2.9-1.8s1.3.8.7 1.8c-.6.9-1.9 1.7-2.9 1.7s-1.3-.8-.7-1.7zm35.6 31.9c1.7-1.8 3.4-3 3.8-2.7 1 .8-3.6 5.9-5.3 5.9-.9 0-.2-1.4 1.5-3.2zm-11.9-4.5c0-.4 1.3-1.2 2.8-1.7 1.5-.6 2.2-.3 1.6.6-1 1.7-4.4 2.5-4.4 1.1zm-4.2-14.4c-.7-2.6-.9-5-.4-5.4.4-.4 1.2 1.3 1.9 3.9.6 2.6.8 5 .4 5.5-.4.4-1.3-1.4-1.9-4zm-9.4 21.5c2.2-3.4 1.7-3.9-7-7-10.9-3.9-12.4-3.7-14.8 1.4-3.2 7.2.7 10.2 11.6 8.8 4.9-.7 9.5-2.1 10.2-3.2zm19.7-27.7c-.6-.9-1.8-1.2-2.7-.6s-1.2 1.8-.6 2.7c.5.9 1.7 1.2 2.7.6.9-.5 1.2-1.7.6-2.7zm10.3-34.1c2.6-1.5 2.2-2.2-3.2-5.7l-6.1-4v4.1c0 2.2-1.3 5.8-2.8 8-1.6 2.2-2.3 5.2-1.7 6.8.9 2.4 1.9 2.1 6-2.3 2.6-2.8 6.2-5.9 7.8-6.9zM24.1 44.4c-8.3-8.5-10.1-13.7-6.2-17.7 3.1-3.1 9.2-2.5 12.6 1.2 2.3 2.5 2.9 5.9 2.5 14.1l-.5 10.9z" fill="#ac0000"/><path d="M34.5 200.6l-6.8-4.5 4.2-3.2c12.4-9.4 14.3-14.8 7.9-22.4-4.3-5.1-9-15.9-13.5-31.2-2-6.7-1.9-7.9.9-11 3.2-3.5 3.1-3.5-8.5-3.5-6.6 0-11.7-.8-11.7-1.8s5.5-1.8 13-1.8h13l.7-11.8c.8-13.1 7.7-30.9 14.4-37.2 2.1-2 7.7-4.8 12.4-6.2 7.8-2.4 8.8-2.3 10.8.4 2.1 2.7 2.3 2.4 2.4-2.4 0-2.9-.6-6.1-1.3-7s-.5-1.1.4-.3c3.2 2.5 9.5 1.2 15.3-3.3 4.9-3.8 4.8-3.6-.8 1.5-7.5 7-8.9 12.8-2.6 10.9 2.2-.6 4.6-1.8 5.5-2.6.8-.7 4.1-.3 7.3 1.1l5.8 2.4 5.4-8.5c3-4.6 5.4-10 5.4-11.9 0-5.7 1.8-5.9 9.2-1l7 4.6-4.2 3.2c-12.4 9.4-14.3 14.8-7.9 22.4 4.3 5.1 9 15.9 13.5 31.2 2 6.7 1.9 7.9-.9 11-3.2 3.5-3.1 3.5 8.5 3.5 6.6 0 11.7.8 11.7 1.8s-5.5 1.8-13 1.8h-13l-.7 11.8c-.8 13.1-7.7 30.9-14.4 37.2-2.1 2-7.7 4.8-12.4 6.2-7.8 2.4-8.8 2.3-10.8-.4-2.1-2.7-2.3-2.4-2.4 2.4 0 2.9.8 6.3 1.7 7.4 1.3 1.6 1.2 1.6-.3.4-3.6-3-9.7-2-15.8 2.8-4.9 3.8-4.8 3.6.8-1.5 7.5-7 8.9-12.8 2.6-10.9-2.2.6-4.6 1.8-5.5 2.6-.8.7-4.1.3-7.3-1.1l-5.8-2.4-5.4 8.5c-3 4.6-5.4 10.1-5.4 12.1 0 5.6-2 5.7-9.4.7zm11.1-9.9c1.2-1.5 1.6-4 1-5.7-1.1-2.8-1.6-2.6-5 1.5-2.1 2.5-5.7 5.5-8 6.7l-4.1 2.1 5.9 4.1 5.9 4 1-5c.6-2.8 2.1-6.3 3.3-7.7zm17.2-25.6c11.5-17.4 13.7-22.8 9.3-22.8-.8 0-7.1 8.7-14.1 19.3-11.1 16.8-13.6 23-9.2 22.9.7-.1 7-8.8 14-19.4zm6.4 9.3c7.3-8.1 21.2-18.3 22.8-16.7.6.6.6 5.8 0 11.5l-1.2 10.4 5.9-1.2c3.3-.7 6.7-2 7.6-2.9 2.3-2-7.7-22.8-10.2-21.4-1.1.6-1.3.4-.5-.5s2.3-1.6 3.4-1.6c1 0 2.3-1.1 2.7-2.5.6-1.7-.1-2.1-2.1-1.3-1.8.7-2.5.4-1.9-.6s.2-1.8-.9-1.8-1.5-.8-.9-1.7c.7-1.1 2.3-.7 4 1.1 2.7 2.7 3.2 2.3 6.9-5.7 5.5-11.8 5.3-14.7-1-14.7-4.5 0-5.4 1-9.2 10.9l-4.8 12.6c-.4.8.2 1 1.2.3 1.3-.8 1.6-.2.9 1.7-.8 2-1.5 2.3-2.4.8-.8-1.4-1.7-1-2.6 1.2-.8 1.8-1.3 3.9-1.1 4.7s-.4 1-1.2.5-4.8 0-8.9 1c-5.9 1.5-8.9 3.7-13.5 10-6.9 9.4-7.1 10.2-2.9 11.3 1.6.4 3.2.9 3.5 1 .2.1 3.1-2.8 6.4-6.4zm-10-17.1c9.9-15 10.6-16.6 7.5-17.6-1.9-.6-4.2-.7-5.1-.1-1.8 1.1-1.4-6.2.6-9.3.6-1.1 3.3-2.1 5.9-2.2s6.7-.8 9.1-1.5c2.6-.8-5.8-1.5-20.3-1.6-22.8-.2-25 0-28 3.4-3.2 3.4-3.1 3.9 1.5 18 2.6 7.9 6.5 17.1 8.6 20.5l3.9 6.2.6-5c.4-2.7-.2-5.9-1.3-7.2-1.4-1.7-1.2-2.8.6-4.3s2.9-1.4 4.5.5c1.4 1.7 1.4 2.8.2 3.6-2.1 1.3-2.6 13.3-.5 13.2.7 0 6.2-7.5 12.2-16.6zM93 172.2c0-1 .4-1.8.8-1.8s1.3.8 1.9 1.8.2 1.8-.8 1.8-1.9-.8-1.9-1.8zm23.9-12.8c3.4-7.4 5.2-14.7 5.7-22.8l.7-11.8h-6.4c-5 0-6.3.6-6.3 3.3 0 1.8-2.7 8.6-6 15.2l-6 11.9 4.6 9.3c5.4 11 6.6 10.6 13.7-5.1zm-47.6 7.5c.6-.9 1.9-1.7 2.9-1.7s1.3.8.7 1.7c-.6 1-1.9 1.8-2.9 1.8s-1.3-.8-.7-1.8zm4.4-4.2c0-.3 1.6-1 3.5-1.6 2-.5 3.1-.2 2.6.7-1 1.6-6.1 2.3-6.1.9zm24.6-20.3a1.79 1.79 0 0 1 1.8-1.8c2.2 0 2.2 1.2 0 2.6-1 .6-1.8.3-1.8-.8zm-1.7-4.4c0-.4.7-1.2 1.7-1.8s1.8-.3 1.8.8a1.79 1.79 0 0 1-1.8 1.8c-1 0-1.7-.3-1.7-.8zm7-8.7c0-3.1 1-3.6 2.5-1.1.6.8.2 2.1-.7 2.7-1 .6-1.8-.1-1.8-1.6zm-39.5 42.9c-.6-1-.3-1.8.8-1.8a1.79 1.79 0 0 1 1.8 1.8c0 1-.3 1.8-.8 1.8-.4 0-1.2-.8-1.8-1.8zm-12.2-16.8c-.6-2.6-.8-5-.4-5.5.4-.4 1.3 1.4 1.9 4 .7 2.6.9 5 .4 5.4-.4.4-1.2-1.3-1.9-3.9zm-6.7-15c1.2-1.2 2.6-1.8 3.1-1.2.6.5-.4 1.5-2.1 2.1-2.5 1-2.7.8-1-.9zm-11.8-3.1c0-1.8 5-6.4 5.8-5.3.3.4-.9 2-2.6 3.7-1.8 1.7-3.2 2.4-3.2 1.6zm66 34c-.5-1.4-.2-2.6.7-2.6 1 0 1.7 1.2 1.7 2.6 0 1.5-.3 2.7-.7 2.7-.3 0-1.1-1.2-1.7-2.7zm5-11.5c-3.2-3.4-3.1-3.6.6-7.4l3.8-3.8 3.9 3.8c3.7 3.8 3.7 4 .6 7.4-1.8 2-3.8 3.6-4.5 3.6-.6 0-2.6-1.6-4.4-3.6zm8-.9c1.9-2.2 1.8-3.2-.6-5.6-2.8-2.7-3.2-2.7-5.9 0-2.4 2.4-2.5 3.4-.6 5.6 1.2 1.5 2.8 2.8 3.5 2.8.8 0 2.4-1.3 3.6-2.8zm3.1-19.3c.4-3.4 1.3-6.4 1.9-6.8.7-.4.9 2 .5 5.3-.3 3.3-1.2 6.4-1.9 6.8-.6.4-.8-2-.5-5.3zM46.4 158c-.5-.9-1.7-1.2-2.7-.6-.9.5-1.2 1.7-.6 2.7.6.9 1.8 1.2 2.7.6s1.2-1.8.6-2.7zm36.3-3.5c2.6-1.3 10.1-16.4 13-26 1-3.3.6-3.9-1.9-3.5-3.3.7-4.8 3-7.2 11.2-.8 2.9-3.1 6-5.1 6.8-3.2 1.4-11.3 11.7-11.3 14.3 0 1.1 8.5-.8 12.5-2.8zm1.9-16.6c1.7-3.6 1.5-5-.6-7.2-3.5-3.4-20.1-1.6-21.6 2.4-1.2 3.2-1.8 2.7 6.9 6.2 9.9 4 13 3.7 15.3-1.4zm4.1-11.4c.6-1-.6-1.7-2.7-1.7-2 0-3.2.7-2.6 1.7s1.8 1.8 2.6 1.8c.9 0 2.1-.8 2.7-1.8zm-41.3-8.6c0-1.8 2.7-8.6 6-15.2l6-12-9.7-19.3-3.1 4.7c-6.5 9.9-11.4 24.9-11.4 35l-.1 10.1h6.2c4.8 0 6.1-.7 6.1-3.3zm-7.3-10c.3-3.3 1.2-6.4 1.9-6.8.6-.4.8 2 .5 5.3-.4 3.4-1.3 6.4-1.9 6.8-.7.4-.9-2-.5-5.3zm4.6-14.8c-3.1-3.5-3.1-3.7.6-7.5l3.9-3.8 3.8 3.8c3.7 3.8 3.8 4 .6 7.5-1.8 1.9-3.8 3.5-4.4 3.5-.7 0-2.7-1.6-4.5-3.5zm8-.9c1.9-2.3 1.8-3.3-.6-5.7-2.7-2.7-3.1-2.7-5.9 0-2.4 2.4-2.5 3.4-.6 5.7 1.2 1.5 2.8 2.7 3.6 2.7.7 0 2.3-1.2 3.5-2.7zm10.7 18.1l4.8-12.6c.4-.8-.2-1-1.2-.3-1.3.8-1.6.2-.9-1.7.8-2 1.5-2.3 2.4-.8.8 1.4 1.7 1 2.6-1.2.8-1.8 1.3-3.9 1.1-4.7s.4-1 1.2-.5 4.8 0 8.9-1c5.9-1.5 8.9-3.7 13.5-10 7-9.6 7.1-10 2.4-11.3-2.7-.7-5.2.8-9.5 5.5-7.2 8-21.1 18.2-22.7 16.6-.6-.6-.6-5.8 0-11.5l1.2-10.4-5.9 1.2c-3.3.7-6.7 2-7.6 2.9-2.2 2 7.7 22.9 10.1 21.4.9-.6 1.1-.2.4 1-.7 1.1-2 1.6-2.9 1-1.8-1.1-12.1 19.4-12.1 24.3 0 2.2 1.4 3 5 3 4.5 0 5.4-1 9.2-10.9zm-11.5 7.5c-.6-.8-.2-2.1.7-2.7 1-.6 1.8.1 1.8 1.6 0 3.1-1 3.6-2.5 1.1zm6-8.8a1.79 1.79 0 0 1 1.8-1.8c2.2 0 2.2 1.2 0 2.6-1 .6-1.8.3-1.8-.8zm-1.7-4.3c0-.5.8-1.3 1.7-1.9 1-.6 1.8-.3 1.8.8a1.79 1.79 0 0 1-1.8 1.8c-.9 0-1.7-.3-1.7-.7zm4-3.7c-1.7-1.8-1.5-2.5.5-3.3 1.5-.6 2.2-.3 1.7.6-.5.8 0 1.9 1.1 2.3 1.2.4 1.4 1.1.5 1.7-.9.5-2.6 0-3.8-1.3zm18.4-17c1-1 2.9-1.5 4.2-1 1.3.4.5 1.2-1.9 1.8-2.9.8-3.6.6-2.3-.8zm50.5 33.6c3.2-3.4 3.1-3.9-1.5-18-2.6-7.9-6.5-17.1-8.6-20.5l-3.9-6.2-.6 5c-.4 2.7.2 5.9 1.3 7.2 1.4 1.7 1.2 2.8-.6 4.3s-2.9 1.4-4.5-.5c-1.4-1.7-1.4-2.8-.2-3.6 2.1-1.3 2.6-13.3.5-13.2-.7 0-6.2 7.5-12.2 16.6-9.9 15-10.6 16.6-7.5 17.6 1.9.6 4.2.7 5.1.1 1.8-1.1 1.4 6.2-.6 9.3-.6 1.1-3.3 2.1-5.9 2.2s-6.7.8-9.1 1.5c-2.6.8 5.8 1.5 20.3 1.6 22.8.2 25 0 28-3.4zM56.2 74.7c0-1.5.3-2.7.7-2.7.3 0 1.1 1.2 1.7 2.7.5 1.4.2 2.6-.7 2.6-1 0-1.7-1.2-1.7-2.6zm6.1-.9c-.6-1-.2-1.8.8-1.8s1.9.8 1.9 1.8-.4 1.8-.8 1.8-1.3-.8-1.9-1.8zm37.8 10.5c9.6-14.6 12.3-19.9 10.8-21.4-1.1-1.1-2.3-1.7-2.6-1.3-5.5 6.4-25.7 39.1-24.9 40.4 2.1 3.4 4.2 1.3 16.7-17.7zm-31.6 33.4c.7-1.4 2-5 2.9-7.9.8-2.9 3.1-6 5.1-6.8 3.5-1.6 12.2-13.1 10.9-14.4-.4-.3-3.7.2-7.3 1.2-5.9 1.6-7.3 3.1-11.6 12.7-7.3 15.9-8.1 19.2-4.3 18.5 1.6-.4 3.6-1.8 4.3-3.3zm5.6 1.4c-1.7-1.6-2.6-1.6-4.2 0-1.7 1.7-1.2 2.1 2.1 2.1s3.7-.4 2.1-2.1zm11-40c.6-1 1.9-1.8 2.9-1.8s1.3.8.7 1.8c-.6.9-1.9 1.7-2.9 1.7s-1.3-.8-.7-1.7zm35.6 31.9c1.7-1.8 3.4-3 3.8-2.7 1 .8-3.6 5.9-5.3 5.9-.9 0-.2-1.4 1.5-3.2zm-11.9-4.5c0-.4 1.3-1.2 2.8-1.7 1.5-.6 2.2-.3 1.6.6-1 1.7-4.4 2.5-4.4 1.1zm-4.2-14.4c-.7-2.6-.9-5-.4-5.4.4-.4 1.2 1.3 1.9 3.9.6 2.6.8 5 .4 5.5-.4.4-1.3-1.4-1.9-4zm-9.4 21.5c2.2-3.4 1.7-3.9-7-7-10.9-3.9-12.4-3.7-14.8 1.4-3.2 7.2.7 10.2 11.6 8.8 4.9-.7 9.5-2.1 10.2-3.2zm-3.9-39.8c0-1 .3-1.8.8-1.8.4 0 1.2.8 1.8 1.8s.3 1.8-.8 1.8a1.79 1.79 0 0 1-1.8-1.8zm23.6 12.1c-.6-.9-1.8-1.2-2.7-.6s-1.2 1.8-.6 2.7c.5.9 1.7 1.2 2.7.6.9-.5 1.2-1.7.6-2.7zm10.3-34.1c2.6-1.5 2.2-2.2-3.2-5.7l-6.1-4v4.1c0 2.2-1.3 5.8-2.8 8-1.6 2.2-2.3 5.2-1.7 6.8.9 2.4 1.9 2.1 6-2.3 2.6-2.8 6.2-5.9 7.8-6.9z" fill="#009800"/><path d="M34.5 200.6l-6.8-4.5 4.2-3.2c12.4-9.4 14.3-14.8 7.9-22.4-4.3-5.1-9-15.9-13.5-31.2-2-6.7-1.9-7.9.9-11 3.2-3.5 3.1-3.5-8.5-3.5-6.6 0-11.7-.8-11.7-1.8s5.5-1.8 13-1.8h13l.7-11.8c.8-13.1 7.7-30.9 14.4-37.2 2.1-2 7.7-4.8 12.4-6.2 7.8-2.4 8.8-2.3 10.8.4 2.1 2.7 2.3 2.4 2.4-2.4 0-2.9-.6-6.1-1.3-7s-.5-1.1.4-.3c3.2 2.5 9.5 1.2 15.3-3.3 4.9-3.8 4.8-3.6-.8 1.5-7.5 7-8.9 12.8-2.6 10.9 2.2-.6 4.6-1.8 5.5-2.6.8-.7 4.1-.3 7.3 1.1l5.8 2.4 5.4-8.5c3-4.6 5.4-10 5.4-11.9 0-5.7 1.8-5.9 9.2-1l7 4.6-4.2 3.2c-12.4 9.4-14.3 14.8-7.9 22.4 4.3 5.1 9 15.9 13.5 31.2 2 6.7 1.9 7.9-.9 11-3.2 3.5-3.1 3.5 8.5 3.5 6.6 0 11.7.8 11.7 1.8s-5.5 1.8-13 1.8h-13l-.7 11.8c-.8 13.1-7.7 30.9-14.4 37.2-2.1 2-7.7 4.8-12.4 6.2-7.8 2.4-8.8 2.3-10.8-.4-2.1-2.7-2.3-2.4-2.4 2.4 0 2.9.8 6.3 1.7 7.4 1.3 1.6 1.2 1.6-.3.4-3.6-3-9.7-2-15.8 2.8-4.9 3.8-4.8 3.6.8-1.5 7.5-7 8.9-12.8 2.6-10.9-2.2.6-4.6 1.8-5.5 2.6-.8.7-4.1.3-7.3-1.1l-5.8-2.4-5.4 8.5c-3 4.6-5.4 10.1-5.4 12.1 0 5.6-2 5.7-9.4.7zm11.1-9.9c1.2-1.5 1.6-4 1-5.7-1.1-2.8-1.6-2.6-5 1.5-2.1 2.5-5.7 5.5-8 6.7l-4.1 2.1 5.9 4.1 5.9 4 1-5c.6-2.8 2.1-6.3 3.3-7.7zm36.9-9.7c0-5.7 1.9-6.7 5.1-2.8.6.7 1.3 1.2 2.1 1.4l1.8-21.5c1.6.8 1.3 4.7-.1 12.4l-1.6 9.1c1.3.3 3.3 0 6.7-1 3.8-1.2 7.4-2.7 8.2-3.4 1.9-1.9-8.4-22.4-10.6-21.1-1.1.6-1.3.4-.5-.5s2.3-1.6 3.4-1.6c1 0 2.3-1.1 2.7-2.5.6-1.7-.1-2.1-2.1-1.3-1.8.7-2.5.4-1.9-.6s.2-1.8-.9-1.8-1.5-.8-.9-1.7c.7-1.1 2.3-.7 4 1.1 2.7 2.7 3.2 2.3 6.9-5.7 5.5-11.8 5.3-14.7-1-14.7-4.5 0-5.4 1-9.2 10.9l-4.8 12.6c-.4.8.2 1 1.2.3 1.3-.8 1.6-.2.9 1.7-.8 2-1.5 2.3-2.4.8-.8-1.4-1.7-1-2.6 1.2-.8 1.8-1.3 3.9-1.1 4.7s-.4 1-1.2.5-4.8 0-8.9 1c-5.9 1.5-8.9 3.7-13.5 10-7 9.6-7.1 10-2.4 11.3 2.7.7 5.2-.8 9.5-5.5 3.2-3.6 9.5-9.1 13.9-12.3 3.9-2.8 6.4-4.3 7.8-4.1l-6.2 4.6c-8.7 6.5-18.1 15.3-18.1 17 0 .8 2 .6 4.5-.3 6.7-2.6 7.8-2.2 7.8 2.7 0 2.4.8 4.4 1.8 4.4.9 0 1.7-2.4 1.7-5.3zm7.3-1.4q-.1 0-.1 0v.5zm1.7-21.5q-.2-.1-.5-.2l.5-.4zm-28.6 7c11.5-17.4 13.6-22.7 9.3-22.7-.8 0-7.2 8.7-14.1 19.2-11.2 16.9-13.7 23.1-9.2 22.9.6 0 6.9-8.7 14-19.4zm30.2 7.2c0-1 .3-1.8.8-1.8.4 0 1.2.8 1.8 1.8.6.9.3 1.7-.7 1.7-1.1 0-1.9-.8-1.9-1.7zm23.8-12.8c3.4-7.4 5.2-14.7 5.7-22.8l.7-11.9H117c-5 0-6.3.7-6.3 3.3 0 1.9-2.7 8.7-6 15.3l-6 11.9 4.5 9.3c5.4 11 6.6 10.6 13.7-5.1zm-57.7-2.1c9.9-15 10.6-16.7 7.5-17.6-1.9-.6-4.1-.7-5-.1-1.9 1.1-1.4-6.2.5-9.3.7-1.1 3.4-2.1 6-2.2s6.7-.8 9.1-1.6c2.6-.7-5.8-1.4-20.4-1.5-22.8-.2-25 0-28 3.3-3.1 3.5-3.1 4 1.5 18 2.6 8 6.5 17.2 8.7 20.6l3.9 6.2.6-5c.3-2.7-.3-6-1.3-7.2-1.4-1.7-1.3-2.9.5-4.3 1.9-1.6 2.9-1.4 4.5.5 1.4 1.7 1.5 2.8.2 3.6-2 1.3-2.5 13.3-.5 13.2.7 0 6.2-7.5 12.2-16.6zm14.6 5.4c0-.4 1.6-1.1 3.5-1.6s3.1-.2 2.5.7c-.9 1.5-6 2.3-6 .9zm24.6-20.3c0-1 .8-1.8 1.7-1.8 2.3 0 2.3 1.2 0 2.6-.9.6-1.7.2-1.7-.8zm-1.8-4.4c0-.4.8-1.2 1.8-1.8.9-.6 1.7-.3 1.7.7 0 1.1-.8 1.9-1.7 1.9-1 0-1.8-.4-1.8-.8zm7-8.8c0-3.1 1.1-3.5 2.6-1.1.5.9.2 2.2-.8 2.8s-1.8-.2-1.8-1.7zm-39.5 43c-.6-1-.2-1.8.8-1.8s1.9.8 1.9 1.8c0 .9-.4 1.7-.8 1.7s-1.3-.8-1.9-1.7zm5.3-5.3c.6-1 1.9-1.7 2.8-1.7 1 0 1.3.7.7 1.7s-1.9 1.8-2.8 1.8c-1 0-1.3-.8-.7-1.8zM52 155.5c-.7-2.6-.9-5.1-.5-5.5.5-.4 1.3 1.4 2 4 .6 2.5.8 5 .4 5.4s-1.3-1.4-1.9-3.9zm-6.8-15.1c1.2-1.2 2.6-1.7 3.2-1.2.5.6-.5 1.6-2.2 2.2-2.5 1-2.7.8-1-1zm-11.8-3c0-1.8 5.1-6.4 5.9-5.3.3.3-.9 2-2.7 3.7-1.7 1.7-3.2 2.4-3.2 1.6zm66.1 34c-.6-1.4-.3-2.6.7-2.6.9 0 1.7 1.2 1.7 2.6 0 1.5-.3 2.6-.7 2.6s-1.2-1.1-1.7-2.6zm5-11.5c-3.2-3.5-3.2-3.7.6-7.4l3.8-3.8 3.8 3.8c3.8 3.7 3.8 3.9.6 7.4-1.7 2-3.7 3.6-4.4 3.6s-2.7-1.6-4.4-3.6zm8-.9c1.8-2.2 1.7-3.2-.7-5.6-2.7-2.8-3.1-2.8-5.8 0-2.4 2.4-2.6 3.4-.7 5.6 1.3 1.5 2.9 2.7 3.6 2.7s2.3-1.2 3.6-2.7zm3.1-19.4c.4-3.3 1.2-6.3 1.9-6.7.7-.5.9 1.9.5 5.3-.4 3.3-1.3 6.3-1.9 6.7-.7.4-.9-1.9-.5-5.3zm-69.1 18.5c-.6-.9-1.8-1.2-2.7-.7-.9.6-1.2 1.8-.6 2.7.5.9 1.7 1.2 2.6.7 1-.6 1.2-1.8.7-2.7zm36.2-3.5c2.6-1.4 10.2-16.5 13-26 1-3.3.7-4-1.8-3.5-3.3.7-4.8 3-7.2 11.2-.9 2.9-3.2 5.9-5.2 6.8-3.1 1.4-11.2 11.7-11.2 14.3 0 1.1 8.5-.8 12.4-2.8zm2-16.6c1.6-3.7 1.5-5-.7-7.2-3.4-3.4-20-1.6-21.6 2.4-1.2 3.2-1.7 2.7 7 6.2 9.8 4 12.9 3.7 15.3-1.4zm4-11.4c.6-1-.6-1.8-2.6-1.8-2.1 0-3.3.8-2.7 1.8s1.8 1.8 2.7 1.8c.8 0 2-.8 2.6-1.8zM47.5 118c0-1.8 2.7-8.7 6-15.2l6-12-9.8-19.3-3.1 4.7c-6.5 9.9-11.4 24.9-11.4 35v10.1h6.1c4.9 0 6.2-.7 6.2-3.3zm-7.4-10c.4-3.3 1.3-6.4 1.9-6.8.7-.4.9 2 .5 5.3s-1.2 6.4-1.9 6.8-.9-2-.5-5.3zm4.7-14.9c-3.2-3.4-3.2-3.6.6-7.4l3.8-3.8 3.8 3.8c3.8 3.8 3.8 4 .7 7.4-1.8 2-3.8 3.6-4.5 3.6s-2.7-1.6-4.4-3.6zm8-.9c1.9-2.2 1.7-3.2-.7-5.6-2.7-2.7-3.1-2.7-5.8 0-2.4 2.4-2.5 3.4-.7 5.6 1.3 1.5 2.9 2.8 3.6 2.8s2.3-1.3 3.6-2.8zm10.6 18.1l4.9-12.5c.4-.9-.2-1-1.3-.4-1.3.8-1.6.2-.8-1.6.7-2 1.4-2.3 2.3-.8.9 1.4 1.7 1 2.7-1.2.8-1.8 1.2-3.9 1.1-4.7-.2-.8.3-1 1.1-.5s4.9 0 9-1c5.9-1.5 8.8-3.7 13.5-10 7-9.6 7.1-10.1 2.3-11.3-2.6-.7-5.2.8-9.4 5.5-3.2 3.6-9.5 9.1-14 12.3-3.8 2.8-6.3 4.2-7.8 4.1l6.2-4.6c8.7-6.5 18.1-15.3 18.1-17.1 0-.7-2-.5-4.5.4-6.6 2.5-7.7 2.2-7.7-2.7 0-2.4-.8-4.4-1.8-4.4s-1.8 2.4-1.8 5.3c0 5.7-1.8 6.7-5.1 2.8-.6-.7-1.2-1.2-2.1-1.4L66.6 88c-1.6-.8-1.3-4.7.1-12.4l1.6-9.1c-1.4-.3-3.3 0-6.7 1-3.8 1.1-7.5 2.6-8.2 3.4-1.8 1.8 8.3 22.4 10.4 21.1 1-.6 1.2-.2.5 1-.7 1.1-2 1.6-2.9 1-1.9-1.1-12.2 19.4-12.2 24.2 0 2.3 1.4 3.1 5 3.1 4.6 0 5.5-1 9.2-11zm4.9-43.8q0 0 0 0l.1-.5zM66.6 88q.2.1.4.1l-.5.4zM52 117.9c-.6-.8-.2-2.1.7-2.7 1-.6 1.8.1 1.8 1.6 0 3.1-1 3.6-2.5 1.1zm6-8.8a1.79 1.79 0 0 1 1.8-1.8c2.2 0 2.2 1.2 0 2.6-1 .6-1.8.3-1.8-.8zm-1.7-4.3c0-.5.8-1.3 1.7-1.9 1-.6 1.8-.3 1.8.8a1.79 1.79 0 0 1-1.8 1.8c-.9 0-1.7-.3-1.7-.7zm4-3.7c-1.7-1.8-1.5-2.5.5-3.3 1.5-.6 2.2-.3 1.7.6-.5.8 0 1.9 1.1 2.3 1.2.4 1.4 1.1.5 1.7-.9.5-2.6 0-3.8-1.3zm18.4-17c1-1 2.9-1.5 4.2-1 1.3.4.5 1.2-1.9 1.8-2.9.8-3.6.6-2.3-.8zm50.5 33.6c3.2-3.4 3.1-3.9-1.5-18-2.6-7.9-6.5-17.1-8.6-20.5l-3.9-6.2-.6 5c-.4 2.7.2 5.9 1.3 7.2 1.4 1.7 1.2 2.8-.6 4.3s-2.9 1.4-4.5-.5c-1.4-1.7-1.4-2.8-.2-3.6 2.1-1.3 2.6-13.3.5-13.2-.7 0-6.2 7.5-12.2 16.6-9.9 15-10.6 16.6-7.5 17.6 1.9.6 4.2.7 5.1.1 1.8-1.1 1.4 6.2-.6 9.3-.6 1.1-3.3 2.1-5.9 2.2s-6.7.8-9.1 1.5c-2.6.8 5.8 1.5 20.3 1.6 22.8.2 25 0 28-3.4zM56.3 74.8c0-1.5.3-2.7.7-2.7.3 0 1.1 1.2 1.7 2.7.5 1.4.2 2.6-.7 2.6-1 0-1.7-1.2-1.7-2.6zm6.1-.9c-.6-1-.2-1.8.8-1.8s1.9.8 1.9 1.8-.4 1.8-.8 1.8-1.3-.8-1.9-1.8zm37.8 10.5c9.6-14.6 12.3-19.9 10.8-21.4-1.1-1.1-2.3-1.7-2.6-1.3-5.5 6.4-25.7 39.1-24.9 40.4 2.1 3.4 4.2 1.3 16.7-17.7zm-31.6 33.4c.7-1.4 2-5 2.9-7.9.8-2.9 3.1-6 5.1-6.8 3.5-1.6 12.2-13.1 10.9-14.4-.4-.3-3.7.2-7.3 1.2-5.9 1.6-7.3 3.1-11.6 12.7-7.3 15.9-8.1 19.2-4.3 18.5 1.6-.4 3.6-1.8 4.3-3.3zm5.6 1.4c-1.7-1.6-2.6-1.6-4.2 0-1.7 1.7-1.2 2.1 2.1 2.1s3.7-.4 2.1-2.1zm11-40c.6-1 1.9-1.8 2.9-1.8s1.3.8.7 1.8c-.6.9-1.9 1.7-2.9 1.7s-1.3-.8-.7-1.7zm35.6 31.9c1.7-1.8 3.4-3 3.8-2.7 1 .8-3.6 5.9-5.3 5.9-.9 0-.2-1.4 1.5-3.2zm-11.9-4.5c0-.4 1.3-1.2 2.8-1.7 1.5-.6 2.2-.3 1.6.6-1 1.7-4.4 2.5-4.4 1.1zm-4.2-14.4c-.7-2.6-.9-5-.4-5.4.4-.4 1.2 1.3 1.9 3.9.6 2.6.8 5 .4 5.5-.4.4-1.3-1.4-1.9-4zm-9.4 21.5c2.2-3.4 1.7-3.9-7-7-10.9-3.9-12.4-3.7-14.8 1.4-3.2 7.2.7 10.2 11.6 8.8 4.9-.7 9.5-2.1 10.2-3.2zm-3.9-39.8c0-1 .3-1.8.8-1.8.4 0 1.2.8 1.8 1.8s.3 1.8-.8 1.8a1.79 1.79 0 0 1-1.8-1.8zM115 86c-.6-.9-1.8-1.2-2.7-.6s-1.2 1.8-.6 2.7c.5.9 1.7 1.2 2.7.6.9-.5 1.2-1.7.6-2.7zm10.3-34.1c2.6-1.5 2.2-2.2-3.2-5.7l-6.1-4v4.1c0 2.2-1.3 5.8-2.8 8-1.6 2.2-2.3 5.2-1.7 6.8.9 2.4 1.9 2.1 6-2.3 2.6-2.8 6.2-5.9 7.8-6.9z"/></svg>