<svg xmlns="http://www.w3.org/2000/svg" width="180" height="280" xmlns:v="https://vecta.io/nano"><path d="M141.5 227.7c-.8 2.2-2.3 2.2-6 2-4.6-.2-6.5.7-7.1 3.4-1.3 6.2 1.4 12.9 7.9 20.4l6.3 7.1 5.6-5.3c6.6-6.4 10.4-14.8 9.5-21.2-.5-3.9-1.8-4.6-7.2-4.4-3.9.2-5.5.3-6.2-2z" fill="#009800"/><path fill-rule="evenodd" d="M147.3 254.4c6.1-7.1 8.7-12.9 8.7-19.1 0-5-.5-5.3-6.5-4.3-5.6 1-5.9.9-2.1-1 1.7-.8 3.2-1.2 4.5-1.3 9.2-.4 7.9 16.5-4.2 26.7l-4.7 4zm-4.8-7.4c-.3-3.1-.6-3.7-2.5-1.1-.8 1.1-2.4 1.1-4.3 2.1 1.8-1.1 7-4.4 6.9-6.7.3-1 .1-.1.1-2.6.1-2.4.3-3.6-2.1-1.5-2.5 2-5.4 2.4-8 3.6l7.8-4.2c4.1-2.4 2-7.9 2.6-8.3s.5.9.7 1.7l-.5 3.5c-.1 1.6.7 2.2 1.5 2.4 2.5 1.4 5 1.4 7.5 2-2.3-.4-5.1-.4-7.1-1.3-1.9-.9-2-.3-1.7 1.9.1 1.4-.6 3.6.3 3.9 2.1-1 7 4.3 7 4.3s-7.3-6.6-7.5-2.3l-.3 14.1s-.1-8.3-.4-11.5zm-7.5 1.4q.3-.2.7-.4c-.5.3-.7.4-.7.4z"/><path d="M37.9 52.4c.8-2.1 2.3-2.1 6-2 4.6.2 6.5-.7 7.1-3.4 1.3-6.1-1.4-12.9-7.9-20.3l-6.3-7.2-5.6 5.4c-6.6 6.3-10.4 14.7-9.5 21.1.5 3.9 1.8 4.7 7.2 4.4 3.9-.2 5.5-.2 6.2 2z" fill="#009800"/><g fill-rule="evenodd"><path d="M32.1 25.8c-6 7.1-8.7 12.9-8.7 19.1 0 5 .5 5.3 6.5 4.2 5.6-1 5.9-.8 2.1 1-1.7.9-3.2 1.3-4.5 1.3-9.2.5-7.8-16.4 4.2-26.6l4.7-4zm4.8 7.3c.3 3.2.6 3.8 2.5 1.2.8-1.2 2.4-1.1 4.3-2.2-1.8 1.2-7 4.5-6.9 6.8-.3.9-.1.1-.1 2.5-.1 2.5-.3 3.6 2.1 1.6 2.5-2 5.4-2.4 8-3.6L39 43.6c-4.1 2.4-2 7.9-2.6 8.3s-.5-1-.7-1.8l.5-3.5c.1-1.5-.7-2.1-1.5-2.3-2.5-1.5-5-1.4-7.5-2 2.4.4 5.1.4 7.1 1.3 1.9.8 2 .3 1.7-1.9-.1-1.4.6-3.6-.3-3.9-2.1 1-7-4.3-7-4.3s7.3 6.6 7.5 2.3l.3-14.1s.1 8.3.4 11.4zm7.5-1.3q-.3.2-.7.3c.5-.2.7-.3.7-.3z"/><path d="M84.7 271.7c-6.6-1.8-12.2-9-19.2-24.4-3.9-8.5-2.7-12.7 5-17.8 3.9-2.5 4.5-4.3 3.8-12.1-.6-8-1.4-9.4-6.4-11.1-5.4-1.9-6-1.5-11.8 7.5-3.3 5.3-6.1 11.3-6.1 13.5 0 6.5-2 6.8-10.4 1.2l-8-5.3 4.7-3.6c14.2-10.8 16.4-16.8 9.1-25.5-4.9-5.9-10.3-18.1-15.5-35.6-2.3-7.6-2.1-8.9 1.1-12.5 3.6-4 3.5-4-9.7-4-7.5 0-13.3-.9-13.3-2 0-1.2 6.3-2 14.8-2h14.7l.9-13.5c.8-14.4 8.2-33.6 16-41.9 2.3-2.5 9-5.9 14.9-7.6 9.3-2.7 10.7-3.8 10.7-8.2 0-2.8-3.1-9.2-7-14.2-3.8-5-7-11-7-13.2 0-6.9 10.7-25.8 16.7-29.5 4.4-2.7 7.2-3.1 12-1.7 7.3 2.1 11.3 6.7 18.3 21.4 5.5 11.6 4.9 15.4-3.5 20.9-3.9 2.5-4.5 4.3-3.8 12.1.6 8 1.4 9.4 6.4 11.1 5.4 1.9 6 1.5 11.8-7.5 3.3-5.3 6.1-11.3 6.1-13.5 0-6.5 2-6.8 10.4-1.2l8 5.3-4.7 3.6c-14.2 10.8-16.4 16.8-9.1 25.5 4.9 5.9 10.3 18.1 15.5 35.6 2.3 7.6 2.1 8.9-1.1 12.5-3.6 4-3.5 4 9.7 4 7.5 0 13.3.9 13.3 2 0 1.2-6.3 2-14.8 2h-14.7l-.9 13.5c-.8 14.4-8.2 33.6-16 41.9-2.3 2.5-9 5.9-14.9 7.6-9.3 2.7-10.7 3.8-10.7 8.2 0 2.8 3.2 9.3 7.2 14.4 8.3 10.9 8.3 15.8-.2 31-6.5 11.5-13.4 15.5-22.3 13.1zm-22.2-113c-1.4-.6-2-1.8-1.4-2.8 1.6-2.6 7.1.2 5.6 2.8-.8 1.3-.6 1.6.4.8.9-.9 1.9-3.1 2.1-5a64.6 64.6 0 0 1 1.9-8c1.1-3.6.6-4.5-2.6-4.5-2.2 0-5.2 1.4-6.7 3.2-4.8 5.8-4.4 15 .6 14.6 2.1-.1 2.1-.3.1-1.1zm-1.8-7.9c0-1.5.6-2.2 1.4-1.7s2-.5 2.6-2.1c.7-1.7 2.3-3 3.7-3 1.8.1 1.7.6-.4 2-1.6 1-2.8 2.3-2.5 2.9 1.2 2.6.3 4.4-2.2 4.4-1.4 0-2.6-1.1-2.6-2.5zm57.6-16.3c3.4-3.9 3.8-13 .7-13.5-1.1-.2-1.3 0-.5.5s1 1.6.4 2.6c-1.6 2.6-7.1-.2-5.6-2.8.8-1.3.6-1.6-.4-.8-.9.9-1.9 3.1-2.1 5a64.6 64.6 0 0 1-1.9 8c-1.1 3.6-.6 4.5 2.6 4.5 2.1 0 5.2-1.6 6.8-3.5zm-7 0c2.2-1.4 2.7-2.5 2.7-6.2 0-.9 1.2-1.6 2.7-1.6 1.4 0 2.6 1.1 2.6 2.5 0 1.5-.6 2.2-1.4 1.7s-2 .5-2.6 2.1c-.7 1.7-2.3 3-3.7 3-1.9-.1-2-.5-.3-1.5z" fill="#fec9cc"/><path d="M84.7 271.7c-6.6-1.8-12.2-9-19.2-24.4-3.9-8.5-2.7-12.7 5-17.8 3.9-2.5 4.5-4.3 3.8-12.1-.6-8-1.4-9.4-6.4-11.1-5.4-1.9-6-1.5-11.8 7.5-3.3 5.3-6.1 11.3-6.1 13.5 0 6.5-2 6.8-10.4 1.2l-8-5.3 4.7-3.6c14.2-10.8 16.4-16.8 9.1-25.5-4.9-5.9-10.3-18.1-15.5-35.6-2.3-7.6-2.1-8.9 1.1-12.5 3.6-4 3.5-4-9.7-4-7.5 0-13.3-.9-13.3-2 0-1.2 6.3-2 14.8-2h14.7l.9-13.5c.8-14.4 8.2-33.6 16-41.9 2.3-2.5 9-5.9 14.9-7.6 9.3-2.7 10.7-3.8 10.7-8.2 0-2.8-3.1-9.2-7-14.2-3.8-5-7-11-7-13.2 0-6.9 10.7-25.8 16.7-29.5 4.4-2.7 7.2-3.1 12-1.7 7.3 2.1 11.3 6.7 18.3 21.4 5.5 11.6 4.9 15.4-3.5 20.9-3.9 2.5-4.5 4.3-3.8 12.1.6 8 1.4 9.4 6.4 11.1 5.4 1.9 6 1.5 11.8-7.5 3.3-5.3 6.1-11.3 6.1-13.5 0-6.5 2-6.8 10.4-1.2l8 5.3-4.7 3.6c-14.2 10.8-16.4 16.8-9.1 25.5 4.9 5.9 10.3 18.1 15.5 35.6 2.3 7.6 2.1 8.9-1.1 12.5-3.6 4-3.5 4 9.7 4 7.5 0 13.3.9 13.3 2 0 1.2-6.3 2-14.8 2h-14.7l-.9 13.5c-.8 14.4-8.2 33.6-16 41.9-2.3 2.5-9 5.9-14.9 7.6-9.3 2.7-10.7 3.8-10.7 8.2 0 2.8 3.2 9.3 7.2 14.4 8.3 10.9 8.3 15.8-.2 31-6.5 11.5-13.4 15.5-22.3 13.1zm15.2-13.2c3.7-3 4.4-5.8 4.6-16.9.2-13.6-3.2-22.5-9.6-24.9-5-1.9-12.7 1.2-16.2 6.5-4.7 7.1-4.4 29.6.5 35 4.3 4.8 14.9 5 20.7.3zM79.3 251c.6-1.6 2.4-3 3.9-3s2.8 1.4 2.8 3c0 1.7-1.8 3-3.9 3-2.7 0-3.6-1-2.8-3zm12 1.7c-2.3-2.3-1.4-12.4 1.2-14 1.7-1 .9-2-2.5-2.9l-5-1.4 5.5-.2c3.6-.1 5.5.8 5.5 2.8 0 1.6-.9 3-2 3s-2 2.7-2 6 .9 6 2 6 2-.9 2-2 1.4-2 3-2c1.7 0 3 1.3 3 3 0 3-8 4.3-10.7 1.7zm-1.8-26c1.4-.6 3.6-.6 5 0 1.4.5.3 1-2.5 1-2.7 0-3.9-.5-2.5-1zm6.9-69.8c1.9-4.1 1.7-5.6-.7-8.1-4.6-4.6-22.5-1.8-25.6 3.9-1.9 3.7-2.1 3.8-.9.3 3.3-10.4 3.3-11-.7-11-8 0-13.9 15.7-6.5 17.3 1.8.4 2 .2.5-.5-3.5-1.6-1.1-4.9 2.6-3.5 1.6.6 2.3 2 1.7 3.1-.7 1 .5.9 2.5-.4 2.9-1.8 5.3-1.6 10.7.8 10 4.3 13.8 3.9 16.4-1.9zM82 156c-2.7-1.8-2.7-2.2 0-4 1.7-1.1 4.8-1.8 7-1.7 3.4.2 3.4.4-.5 1.1-5.4 1-5.9 3.9-1 5.2 2.5.7 2.6 1 .5 1.1-1.6.1-4.3-.6-6-1.7zm-21.3-5.2c0-1.5.6-2.2 1.4-1.7s2-.5 2.6-2.1c.7-1.7 2.3-3 3.7-3 1.8.1 1.7.6-.4 2-1.6 1-2.8 2.3-2.5 2.9 1.2 2.6.3 4.4-2.2 4.4-1.4 0-2.6-1.1-2.6-2.5zm57.6-16.3c3.4-3.9 3.8-13 .7-13.5-1.1-.2-1.3 0-.5.5 2.7 1.5-.5 4.4-3.6 3.2-1.6-.6-2.3-2.1-1.5-3.4s-.1-1.1-2 .4c-2.8 2.3-4.6 2.3-11.4-.5-11-4.4-13.7-4.1-16.4 1.9-1.9 4.1-1.7 5.6.7 8.1 4.6 4.6 22.5 1.8 25.6-3.9 1.9-3.7 2.1-3.8.9-.3-3.3 10.4-3.3 11 .7 11 2.1 0 5.2-1.6 6.8-3.5zm-7 0c2.2-1.4 2.7-2.5 2.7-6.2 0-.9 1.2-1.6 2.7-1.6 1.4 0 2.6 1.1 2.6 2.5 0 1.5-.6 2.2-1.4 1.7s-2 .5-2.6 2.1c-.7 1.7-2.3 3-3.7 3-1.9-.1-2-.5-.3-1.5zm-19.8-5.9c5.4-1 5.9-3.9 1-5.2-2.5-.7-2.6-1-.5-1.1 1.7-.1 4.4.6 6 1.7 2.7 1.8 2.7 2.2 0 4-1.6 1.1-4.8 1.8-7 1.7-3.4-.2-3.4-.4.5-1.1zm6.4-68.1c5.2-4.3 8.1-15.7 6.6-27.1C103.2 22.7 99.1 18 91.1 18c-9.7 0-14.4 4.5-15.6 15-2.6 23.4 9.3 38.1 22.4 27.5zm-12.4-7.8c1.4-.6 3.6-.6 5 0 1.4.5.3 1-2.5 1-2.7 0-3.9-.5-2.5-1zM84 43c0-1.6.9-3 2-3s2-2.7 2-6-.9-6-2-6-2 .9-2 2-1.3 2-3 2c-1.6 0-3-1.4-3-3.1 0-2.3 1.6-3 5.5-2.5 4.4.5 5.6 1.8 6.1 6.2.4 3.1-.3 6.9-1.6 8.4-1.8 2.1-1.3 2.9 2.4 3.6 4.1.8 4 .9-.9 1.1Q84 46 84 43zm10-14c0-1.7 1.8-3 3.9-3 2.7 0 3.6 1 2.8 3-.6 1.7-2.4 3-3.9 3S94 30.7 94 29z" fill="#ccc9cc"/><path d="M84.4 271.3c-3.9-1.4-8.4-5.2-11-9.2-2.3-3.8-3.4-6.3-2.2-5.6 1.1.7 2-.8 2-3.6 0-2.7-.8-4.9-1.8-4.9s-1.3 1.4-.7 3c.7 1.7.3 3-.8 3-1.7 0-2.1-1.1-1.8-5.1 0-.6-1.3-2.4-3-4.1S62 241 62 240.1c0-2.6 7.9-11.4 7.9-8.8.1 1.2-1.3 3.3-3 4.7-2.7 2.3-2.6 3 .4 6.3 1.8 2 4.3 3.7 5.5 3.7s1-.8-.6-1.8c-1.5-1-2.1-2.7-1.4-4 .9-1.4.1-1.7-2.2-1-3.2 1-3.1.7.4-2.6 2.2-2.1 4.2-4.6 4.3-5.7.2-1 .5-2.8.8-3.9.2-1.1.3-5.7.1-10.3-.2-7.3-.9-8.6-6.1-10.4-5.6-1.9-6.1-1.6-12 7.5-3.3 5.3-6.1 11.3-6.1 13.5 0 6.5-2 6.8-10.4 1.2l-8-5.3 4.7-3.6c14.2-10.8 16.4-16.8 9.1-25.5-4.9-5.9-10.3-18.1-15.5-35.6-2.3-7.6-2.1-8.9 1.1-12.5 3.6-4 3.5-4-9.7-4-7.5 0-13.3-.9-13.3-2 0-1.2 6.3-2 14.8-2h14.7l.9-13.5c.8-14.4 8.2-33.6 16-41.9 2.3-2.5 9-5.9 14.9-7.6 9.3-2.7 10.7-3.8 10.7-8.2 0-2.8-3.1-9.2-7-14.2-6.1-8-9.9-20.6-5.4-17.8 1 .5 1.6-1 1.5-3.4 0-2.6 1-4.2 2.5-3.9 1.5.4 2.1-.3 1.5-1.4-2-3.2 4.5-13.8 10.4-16.8 7.7-4 17.5-.4 23.1 8.6 2.3 3.8 3.4 6.3 2.2 5.6-1.1-.7-2 .8-2 3.6 0 2.7.8 4.9 1.8 4.9s1.3-1.3.7-3c-.7-1.6-.3-3 .8-3 1.7 0 2.7 3 1.4 4.6-.3.4 1.1 2.3 3 4.2s3.5 4.2 3.5 5.1c0 2.6-7.9 11.4-7.9 8.8-.1-1.2 1.3-3.3 3-4.7 2.7-2.3 2.6-3-.4-6.3-1.8-2-4.3-3.7-5.5-3.7s-1 .8.6 1.8c1.5 1 2.1 2.7 1.4 4-.9 1.4-.1 1.7 2.2 1 3.2-1 3.1-.7-.4 2.6-2.2 2.1-4.1 4.6-4.3 5.7-.2 1-.5 2.8-.8 3.9-.2 1.1-.3 5.7-.1 10.3.2 7.3.9 8.6 6.1 10.4 5.6 1.9 6.1 1.6 12-7.5 3.3-5.3 6.1-11.3 6.1-13.5 0-6.5 2-6.8 10.4-1.2l8 5.3-4.7 3.6c-14.2 10.8-16.4 16.8-9.1 25.5 4.9 5.9 10.3 18.1 15.5 35.6 2.3 7.6 2.1 8.9-1.1 12.5-3.6 4-3.5 4 9.7 4 7.5 0 13.3.9 13.3 2 0 1.2-6.3 2-14.8 2h-14.7l-.9 13.5c-.8 14.4-8.2 33.6-16 41.9-2.3 2.5-9 5.9-14.9 7.6-9.3 2.7-10.7 3.8-10.7 8.2 0 2.8 3.2 9.2 7 14.2 6.1 8 9.9 20.6 5.4 17.8-1-.5-1.6 1-1.5 3.4 0 2.6-1 4.2-2.5 3.9-1.5-.4-2.1.3-1.5 1.4 2 3.2-4.5 13.8-10.4 16.8-4.4 2.3-6.9 2.4-12.1.6zm4.9-4.3c0-1.6-.7-3-1.6-3-2 0-2.2 2.8-.4 4.7 1.9 1.8 2 1.7 2-1.7zm5.4-1.7c.3-1.6 2.5-4.7 5-6.7 3.9-3.1 4.6-5.7 4.8-17 .2-13.6-3.2-22.5-9.6-24.9-5-1.9-12.7 1.2-16.2 6.5-4.5 6.8-4.4 29.6.2 34.6 1.7 2 2.6 4 2 4.7-.7.6 1.8 1 5.5.8 5.6-.3 6.5.3 5.9 3.7-.4 2.2-.1 3.4.7 2.7.7-.7 1.5-2.7 1.7-4.4zM79.3 251c.6-1.6 2.4-3 3.9-3s2.8 1.4 2.8 3c0 1.7-1.8 3-3.9 3-2.7 0-3.6-1-2.8-3zm12 1.7c-2.3-2.3-1.4-12.4 1.2-14 1.7-1 .9-2-2.5-2.9l-5-1.4 5.5-.2c3.6-.1 5.5.8 5.5 2.8 0 1.6-.9 3-2 3s-2 2.7-2 6 .9 6 2 6 2-.9 2-2 1.4-2 3-2c1.7 0 3 1.3 3 3 0 3-8 4.3-10.7 1.7zm-1.8-26c1.4-.6 3.6-.6 5 0 1.4.5.3 1-2.5 1-2.7 0-3.9-.5-2.5-1zm18.7 4.8c-1.9-2-2.2-1.8-1.1 1.1.8 2 1.9 3.1 2.5 2.5.6-.7 0-2.3-1.4-3.6zm-29.4-33c8.3-9.2 24.2-20.8 26-19 .7.7.7 6.6 0 13.1l-1.4 11.8 6.8-1.4c3.7-.8 7.6-2.2 8.7-3.2 2.4-2.3-8.8-26.1-11.5-24.4-1.2.7-1.4.2-.6-1.1s2.3-1.8 3.4-1.2c2.1 1.3 13.8-22.1 13.8-27.6 0-2.5-1.6-3.5-5.8-3.5-5 0-6.2 1.1-8.3 7.5-1.4 4.1-4.8 12-7.6 17.5s-4.9 10.7-4.7 11.6c.3 1-.3 1.2-1.2.7-.9-.6-5.5-.1-10.2 1.1-6.7 1.7-10.1 4.2-15.3 11.4-7.9 10.7-8.1 11.6-3.4 12.8 1.9.5 3.7 1 4 1.2.3.1 3.6-3.2 7.3-7.3zM73 196c-.7-1.1-.3-2 .9-2 1.1 0 2.1.9 2.1 2s-.4 2-.9 2-1.4-.9-2.1-2zm33 0c0-1.1.4-2 .9-2s1.4.9 2.1 2 .3 2-.9 2c-1.1 0-2.1-.9-2.1-2zm7.3-1c-.7-1.6-.3-3 .8-3 1 0 1.9 1.4 1.9 3 0 1.7-.4 3-.8 3s-1.3-1.3-1.9-3zM79 190c.7-1.1 2.1-2 3.2-2s1.5.9.8 2-2.1 2-3.2 2-1.5-.9-.8-2zm5-4.8c0-.4 1.8-1.2 4-1.8s3.5-.2 2.9.8c-1.1 1.7-6.9 2.6-6.9 1zm18-13.1c0-1 .9-2.4 2-3.1s1.4.1.8 1.9c-1.4 3.5-2.8 4.1-2.8 1.2zm6.9-4c.6-.9 0-2.1-1.3-2.6-1.4-.4-1.6-1.3-.5-1.9 1-.7 3 0 4.3 1.4 1.9 2.1 1.8 2.9-.6 3.8-1.7.6-2.5.3-1.9-.7zm3.1-6c0-1.1.9-2.1 2-2.1 2.6 0 2.6 1.4 0 3-1.1.7-2 .3-2-.9zm-2-5c0-.5.9-1.4 2-2.1s2-.3 2 .9c0 1.1-.9 2.1-2 2.1s-2-.4-2-.9zm8-10c0-3.5 1.2-4 2.9-1.2.6 1 .3 2.4-.9 3.1-1.1.7-2-.2-2-1.9zm-49.1 10.3c-.5-2.3.5-6.2 2-8.6 3.5-5.2 2.3-6.8-5.2-6.8-7.4 0-13 7.9-9.8 13.8 4.5 8.4 14.5 9.7 13 1.6zm27.5-.5c1.9-4.1 1.7-5.6-.7-8.1-4-3.9-22.9-1.9-24.6 2.7-1.4 3.6-2 3.1 7.9 7.1 11.2 4.5 14.7 4.2 17.4-1.7zM82 156c-2.7-1.8-2.7-2.2 0-4 1.7-1.1 4.8-1.8 7-1.7 3.4.2 3.4.4-.5 1.1-5.4 1-5.9 3.9-1 5.2 2.5.7 2.6 1 .5 1.1-1.6.1-4.3-.6-6-1.7zm-11.9-25.5c1.4-4.1 4.8-12 7.6-17.5s4.9-10.7 4.7-11.6c-.3-1 .3-1.2 1.2-.7.9.6 5.5.1 10.2-1.1 6.7-1.7 10.1-4.2 15.3-11.4 8-10.9 8.1-11.4 2.8-12.8-3.1-.8-6 .9-10.8 6.3-8.2 9-24.1 20.6-25.9 18.8-.7-.7-.7-6.6 0-13.1l1.4-11.8-6.8 1.4c-3.7.8-7.6 2.2-8.7 3.2-2.4 2.3 8.8 26.1 11.5 24.4 1.2-.7 1.4-.2.6 1.1s-2.3 1.8-3.4 1.2C67.7 105.6 56 129 56 134.5c0 2.5 1.6 3.5 5.8 3.5 5 0 6.2-1.1 8.3-7.5zm-11 3.6c-.6-1-.3-2.4.9-3.1 1.1-.7 2 .2 2 1.9 0 3.5-1.2 4-2.9 1.2zm6.9-10c0-1.1.9-2.1 2-2.1 2.6 0 2.6 1.4 0 3-1.1.7-2 .3-2-.9zm-2-5c0-.5.9-1.4 2-2.1s2-.3 2 .9c0 1.1-.9 2.1-2 2.1s-2-.4-2-.9zm4.6-4.1c-1.9-2.1-1.8-2.9.6-3.8 1.7-.6 2.5-.3 1.9.7-.6.9 0 2.1 1.3 2.6 1.4.4 1.6 1.3.5 1.9-1 .7-3 0-4.3-1.4zm6.5-5.6c.8-2 1.9-3.1 2.5-2.5.6.7 0 2.3-1.4 3.6-1.9 2-2.2 1.8-1.1-1.1zm14.4-13.7c1.2-1.2 3.3-1.8 4.8-1.3s.6 1.4-2.1 2.1c-3.4.9-4.1.6-2.7-.8zM97 90c.7-1.1 2.1-2 3.2-2s1.5.9.8 2-2.1 2-3.2 2-1.5-.9-.8-2zm-33-5c0-1.6.4-3 .8-3s1.3 1.4 1.9 3c.7 1.7.3 3-.8 3-1 0-1.9-1.3-1.9-3zm7-1c-.7-1.1-.3-2 .9-2 1.1 0 2.1.9 2.1 2s-.4 2-.9 2-1.4-.9-2.1-2zm33 0c0-1.1.4-2 .9-2s1.4.9 2.1 2 .3 2-.9 2c-1.1 0-2.1-.9-2.1-2zm19.1 49.1c2.5-3.7 2.7-5.8 1-8.9-4.6-8.6-14.2-9.5-12.9-1.2.3 2.2-.7 5.9-2.2 8.3-3.4 5.1-2.1 6.7 5.3 6.7q5.6 0 8.8-4.9zm-14.6-3.8c2.4-3.8 1.8-4.4-8-7.9-12.5-4.5-14.2-4.3-16.8 1.5-3.8 8.3.8 11.7 13.2 10 5.5-.8 10.8-2.4 11.6-3.6zm-17-.7c5.4-1 5.9-3.9 1-5.2-2.5-.7-2.6-1-.5-1.1 1.7-.1 4.4.6 6 1.7 2.7 1.8 2.7 2.2 0 4-1.6 1.1-4.8 1.8-7 1.7-3.4-.2-3.4-.4.5-1.1zm6.4-68.1c7.8-6.3 9.6-30.9 2.8-38.7-1.5-1.7-2.2-3.6-1.6-4.3.7-.6-1.8-1-5.5-.8-5.5.3-6.5-.3-6-3.7.4-3.2.2-3.4-1.4-1.1-1.1 1.6-1.6 3.5-1.1 4.3.5.7-1.3 2.8-3.8 4.4-3.5 2.3-5 5.6-5.8 12.4-2.6 23.4 9.3 38.1 22.4 27.5zm-12.4-7.8c1.4-.6 3.6-.6 5 0 1.4.5.3 1-2.5 1-2.7 0-3.9-.5-2.5-1zM84 43c0-1.6.9-3 2-3s2-2.7 2-6-.9-6-2-6-2 .9-2 2-1.3 2-3 2c-1.6 0-3-1.4-3-3.1 0-2.3 1.6-3 5.5-2.5 4.4.5 5.6 1.8 6.1 6.2.4 3.1-.3 6.9-1.6 8.4-1.8 2.1-1.3 2.9 2.4 3.6 4.1.8 4 .9-.9 1.1Q84 46 84 43zm10-14c0-1.7 1.8-3 3.9-3 2.7 0 3.6 1 2.8 3-.6 1.7-2.4 3-3.9 3S94 30.7 94 29zM72.7 46.9c-.7-1.7-1.6-2.6-2.1-2.1-.6.5-.4 1.9.3 3.1 2 3.2 3.1 2.5 1.8-1zM94 14.1c0-1-.7-2.3-1.7-2.9-.9-.6-1.6.3-1.6 1.9s.7 2.9 1.6 2.9c1 0 1.7-.8 1.7-1.9z" fill="#fe9e00"/><path d="M84.4 271.3c-3.9-1.4-8.4-5.2-11-9.2-2.3-3.8-3.4-6.3-2.2-5.6 1.1.7 2-.8 2-3.6 0-2.7-.8-4.9-1.8-4.9s-1.3 1.4-.7 3c.7 1.7.3 3-.8 3-1.7 0-2.1-1.1-1.8-5.1 0-.6-1.3-2.4-3-4.1S62 241 62 240.1c0-2.6 7.9-11.4 7.9-8.8.1 1.2-1.3 3.3-3 4.7-2.7 2.3-2.6 3 .4 6.3 1.8 2 4.3 3.7 5.5 3.7s1-.8-.6-1.8c-1.5-1-2.1-2.7-1.4-4 .9-1.4.1-1.7-2.2-1-3.2 1-3.1.7.4-2.6 3.9-3.7 5.4-7 5.6-12.3 0-1.5 3.1-5.1 6.7-8 7.9-6.3 9.3-13.4 2.2-11.2-2.5.7-5.3 2.1-6.2 2.9-1 .9-4.7.4-8.3-1.1l-6.6-2.8-6.2 9.6c-3.4 5.3-6.2 11.4-6.2 13.6 0 6.5-2 6.8-10.4 1.2l-8-5.3 4.7-3.6c14.2-10.8 16.4-16.8 9.1-25.5-4.9-5.9-10.3-18.1-15.5-35.6-2.3-7.6-2.1-8.9 1.1-12.5 3.6-4 3.5-4-9.7-4-7.5 0-13.3-.9-13.3-2 0-1.2 6.3-2 14.8-2h14.7l.9-13.5c.9-14.8 8.8-35.1 16.4-42.3 2.4-2.3 8.8-5.5 14.2-7.1 8.9-2.7 9.9-2.6 12.3.5 2.3 3 2.6 2.7 2.6-2.6 0-4-3-9.9-9-17.8-4.9-6.6-8.9-14-8.9-16.7 0-2.6.7-4.3 1.6-3.7 1 .5 1.6-1 1.5-3.4 0-2.6 1-4.2 2.5-3.9 1.5.4 2.1-.3 1.5-1.4-2-3.2 4.5-13.8 10.4-16.8 7.7-4 17.5-.4 23.1 8.6 2.3 3.8 3.4 6.3 2.2 5.6-1.1-.7-2 .8-2 3.6 0 2.7.8 4.9 1.8 4.9s1.3-1.3.7-3c-.7-1.6-.3-3 .8-3 1.7 0 2.7 3 1.4 4.6-.3.4 1.1 2.3 3 4.2s3.5 4.2 3.5 5.1c0 2.6-7.9 11.4-7.9 8.8-.1-1.2 1.3-3.3 3-4.7 2.7-2.3 2.6-3-.4-6.3-1.8-2-4.3-3.7-5.5-3.7s-1 .8.6 1.8c1.5 1 2.1 2.7 1.4 4-.9 1.4-.1 1.7 2.2 1 3.2-1 3.1-.7-.4 2.6-3.9 3.7-5.4 7-5.6 12.3 0 1.5-3.1 5.1-6.7 8-7.9 6.3-9.3 13.4-2.2 11.2 2.5-.7 5.3-2.1 6.2-2.9 1-.9 4.7-.4 8.3 1.1l6.6 2.8 6.2-9.6c3.4-5.3 6.2-11.4 6.2-13.6 0-6.5 2-6.8 10.4-1.2l8 5.3-4.7 3.6c-14.2 10.8-16.4 16.8-9.1 25.5 4.9 5.9 10.3 18.1 15.5 35.6 2.3 7.6 2.1 8.9-1.1 12.5-3.6 4-3.5 4 9.7 4 7.5 0 13.3.9 13.3 2 0 1.2-6.3 2-14.8 2h-14.7l-.9 13.5c-.9 14.8-8.8 35.1-16.4 42.3-2.4 2.3-8.8 5.5-14.2 7.1-8.9 2.7-9.9 2.6-12.3-.5-2.3-3-2.6-2.7-2.6 2.6 0 4 3 9.9 9 17.8 4.9 6.6 8.9 14 8.9 16.7 0 2.6-.7 4.3-1.6 3.7-1-.5-1.6 1-1.5 3.4 0 2.6-1 4.2-2.5 3.9-1.5-.4-2.1.3-1.5 1.4 2 3.2-4.5 13.8-10.4 16.8-4.4 2.3-6.9 2.4-12.1.6zm4.9-4.3c0-1.6-.7-3-1.6-3-2 0-2.2 2.8-.4 4.7 1.9 1.8 2 1.7 2-1.7zm5.4-1.7c.3-1.6 2.5-4.7 5-6.7 3.9-3.1 4.6-5.7 4.8-17 .2-13.6-3.2-22.5-9.6-24.9-5-1.9-12.7 1.2-16.2 6.5-4.5 6.8-4.4 29.6.2 34.6 1.7 2 2.6 4 2 4.7-.7.6 1.8 1 5.5.8 5.6-.3 6.5.3 5.9 3.7-.4 2.2-.1 3.4.7 2.7.7-.7 1.5-2.7 1.7-4.4zM79.3 251c.6-1.6 2.4-3 3.9-3s2.8 1.4 2.8 3c0 1.7-1.8 3-3.9 3-2.7 0-3.6-1-2.8-3zm12 1.7c-2.3-2.3-1.4-12.4 1.2-14 1.7-1 .9-2-2.5-2.9l-5-1.4 5.5-.2c3.6-.1 5.5.8 5.5 2.8 0 1.6-.9 3-2 3s-2 2.7-2 6 .9 6 2 6 2-.9 2-2 1.4-2 3-2c1.7 0 3 1.3 3 3 0 3-8 4.3-10.7 1.7zm-1.8-26c1.4-.6 3.6-.6 5 0 1.4.5.3 1-2.5 1-2.7 0-3.9-.5-2.5-1zm18.7 4.8c-1.9-2-2.2-1.8-1.1 1.1.8 2 1.9 3.1 2.5 2.5.6-.7 0-2.3-1.4-3.6zM52 217c1.3-1.6 1.8-4.5 1.1-6.5-1.3-3.1-1.9-2.9-5.8 1.7-2.3 2.9-6.4 6.4-9 7.7l-4.7 2.4 6.7 4.6 6.7 4.7 1.2-5.8c.7-3.2 2.4-7.1 3.8-8.8zm26.8-18.5c8.3-9.2 24.2-20.8 26-19 .7.7.7 6.6 0 13.1l-1.4 11.8 6.8-1.4c3.7-.8 7.6-2.2 8.7-3.2 2.4-2.3-8.8-26.1-11.5-24.4-1.2.7-1.4.2-.6-1.1s2.3-1.8 3.4-1.2c2.1 1.3 13.8-22.1 13.8-27.6 0-2.5-1.6-3.5-5.8-3.5-5 0-6.2 1.1-8.3 7.5-1.4 4.1-4.8 12-7.6 17.5s-4.9 10.7-4.7 11.6c.3 1-.3 1.2-1.2.7-.9-.6-5.5-.1-10.2 1.1-6.7 1.7-10.1 4.2-15.3 11.4-7.9 10.7-8.1 11.6-3.4 12.8 1.9.5 3.7 1 4 1.2.3.1 3.6-3.2 7.3-7.3zM73 196c-.7-1.1-.3-2 .9-2 1.1 0 2.1.9 2.1 2s-.4 2-.9 2-1.4-.9-2.1-2zm33 0c0-1.1.4-2 .9-2s1.4.9 2.1 2 .3 2-.9 2c-1.1 0-2.1-.9-2.1-2zm7.3-1c-.7-1.6-.3-3 .8-3 1 0 1.9 1.4 1.9 3 0 1.7-.4 3-.8 3s-1.3-1.3-1.9-3zM79 190c.7-1.1 2.1-2 3.2-2s1.5.9.8 2-2.1 2-3.2 2-1.5-.9-.8-2zm5-4.8c0-.4 1.8-1.2 4-1.8s3.5-.2 2.9.8c-1.1 1.7-6.9 2.6-6.9 1zm18-13.1c0-1 .9-2.4 2-3.1s1.4.1.8 1.9c-1.4 3.5-2.8 4.1-2.8 1.2zm6.9-4c.6-.9 0-2.1-1.3-2.6-1.4-.4-1.6-1.3-.5-1.9 1-.7 3 0 4.3 1.4 1.9 2.1 1.8 2.9-.6 3.8-1.7.6-2.5.3-1.9-.7zm3.1-6c0-1.1.9-2.1 2-2.1 2.6 0 2.6 1.4 0 3-1.1.7-2 .3-2-.9zm-2-5c0-.5.9-1.4 2-2.1s2-.3 2 .9c0 1.1-.9 2.1-2 2.1s-2-.4-2-.9zm8-10c0-3.5 1.2-4 2.9-1.2.6 1 .3 2.4-.9 3.1-1.1.7-2-.2-2-1.9zm-49.1 10.3c-.5-2.3.5-6.2 2-8.6 3.5-5.2 2.3-6.8-5.2-6.8-7.4 0-13 7.9-9.8 13.8 4.5 8.4 14.5 9.7 13 1.6zm27.5-.5c1.9-4.1 1.7-5.6-.7-8.1-4-3.9-22.9-1.9-24.6 2.7-1.4 3.6-2 3.1 7.9 7.1 11.2 4.5 14.7 4.2 17.4-1.7zM82 156c-2.7-1.8-2.7-2.2 0-4 1.7-1.1 4.8-1.8 7-1.7 3.4.2 3.4.4-.5 1.1-5.4 1-5.9 3.9-1 5.2 2.5.7 2.6 1 .5 1.1-1.6.1-4.3-.6-6-1.7zm-11.9-25.5c1.4-4.1 4.8-12 7.6-17.5s4.9-10.7 4.7-11.6c-.3-1 .3-1.2 1.2-.7.9.6 5.5.1 10.2-1.1 6.7-1.7 10.1-4.2 15.3-11.4 8-10.9 8.1-11.4 2.8-12.8-3.1-.8-6 .9-10.8 6.3-8.2 9-24.1 20.6-25.9 18.8-.7-.7-.7-6.6 0-13.1l1.4-11.8-6.8 1.4c-3.7.8-7.6 2.2-8.7 3.2-2.4 2.3 8.8 26.1 11.5 24.4 1.2-.7 1.4-.2.6 1.1s-2.3 1.8-3.4 1.2C67.7 105.6 56 129 56 134.5c0 2.5 1.6 3.5 5.8 3.5 5 0 6.2-1.1 8.3-7.5zm-11 3.6c-.6-1-.3-2.4.9-3.1 1.1-.7 2 .2 2 1.9 0 3.5-1.2 4-2.9 1.2zm6.9-10c0-1.1.9-2.1 2-2.1 2.6 0 2.6 1.4 0 3-1.1.7-2 .3-2-.9zm-2-5c0-.5.9-1.4 2-2.1s2-.3 2 .9c0 1.1-.9 2.1-2 2.1s-2-.4-2-.9zm4.6-4.1c-1.9-2.1-1.8-2.9.6-3.8 1.7-.6 2.5-.3 1.9.7-.6.9 0 2.1 1.3 2.6 1.4.4 1.6 1.3.5 1.9-1 .7-3 0-4.3-1.4zm6.5-5.6c.8-2 1.9-3.1 2.5-2.5.6.7 0 2.3-1.4 3.6-1.9 2-2.2 1.8-1.1-1.1zm14.4-13.7c1.2-1.2 3.3-1.8 4.8-1.3s.6 1.4-2.1 2.1c-3.4.9-4.1.6-2.7-.8zM97 90c.7-1.1 2.1-2 3.2-2s1.5.9.8 2-2.1 2-3.2 2-1.5-.9-.8-2zm-33-5c0-1.6.4-3 .8-3s1.3 1.4 1.9 3c.7 1.7.3 3-.8 3-1 0-1.9-1.3-1.9-3zm7-1c-.7-1.1-.3-2 .9-2 1.1 0 2.1.9 2.1 2s-.4 2-.9 2-1.4-.9-2.1-2zm33 0c0-1.1.4-2 .9-2s1.4.9 2.1 2 .3 2-.9 2c-1.1 0-2.1-.9-2.1-2zm19.1 49.1c2.5-3.7 2.7-5.8 1-8.9-4.6-8.6-14.2-9.5-12.9-1.2.3 2.2-.7 5.9-2.2 8.3-3.4 5.1-2.1 6.7 5.3 6.7q5.6 0 8.8-4.9zm-14.6-3.8c2.4-3.8 1.8-4.4-8-7.9-12.5-4.5-14.2-4.3-16.8 1.5-3.8 8.3.8 11.7 13.2 10 5.5-.8 10.8-2.4 11.6-3.6zm-17-.7c5.4-1 5.9-3.9 1-5.2-2.5-.7-2.6-1-.5-1.1 1.7-.1 4.4.6 6 1.7 2.7 1.8 2.7 2.2 0 4-1.6 1.1-4.8 1.8-7 1.7-3.4-.2-3.4-.4.5-1.1zM142.6 59c3-1.7 2.6-2.6-3.6-6.5l-7-4.5v4.5c0 2.6-1.4 6.7-3.2 9.1-1.7 2.5-2.6 6.1-1.9 7.9 1.1 2.7 2.1 2.3 6.8-2.6 3-3.3 7.1-6.8 8.9-7.9zm-44.7 1.5c7.8-6.3 9.6-30.9 2.8-38.7-1.5-1.7-2.2-3.6-1.6-4.3.7-.6-1.8-1-5.5-.8-5.5.3-6.5-.3-6-3.7.4-3.2.2-3.4-1.4-1.1-1.1 1.6-1.6 3.5-1.1 4.3.5.7-1.3 2.8-3.8 4.4-3.5 2.3-5 5.6-5.8 12.4-2.6 23.4 9.3 38.1 22.4 27.5zm-12.4-7.8c1.4-.6 3.6-.6 5 0 1.4.5.3 1-2.5 1-2.7 0-3.9-.5-2.5-1zM84 43c0-1.6.9-3 2-3s2-2.7 2-6-.9-6-2-6-2 .9-2 2-1.3 2-3 2c-1.6 0-3-1.4-3-3.1 0-2.3 1.6-3 5.5-2.5 4.4.5 5.6 1.8 6.1 6.2.4 3.1-.3 6.9-1.6 8.4-1.8 2.1-1.3 2.9 2.4 3.6 4.1.8 4 .9-.9 1.1Q84 46 84 43zm10-14c0-1.7 1.8-3 3.9-3 2.7 0 3.6 1 2.8 3-.6 1.7-2.4 3-3.9 3S94 30.7 94 29zM72.7 46.9c-.7-1.7-1.6-2.6-2.1-2.1-.6.5-.4 1.9.3 3.1 2 3.2 3.1 2.5 1.8-1zM94 14.1c0-1-.7-2.3-1.7-2.9-.9-.6-1.6.3-1.6 1.9s.7 2.9 1.6 2.9c1 0 1.7-.8 1.7-1.9z" fill="#9b989b"/><path d="M82 250c0-1.1.9-2 2-2s2 .9 2 2-.9 2-2 2-2-.9-2-2zm16 0c0-1.1.9-2 2-2s2 .9 2 2-.9 2-2 2-2-.9-2-2zm-58.7-21.7l-7.7-5.1 4.7-3.6c14.2-10.8 16.4-16.8 9.1-25.5-4.9-5.9-10.3-18.1-15.5-35.6-2.3-7.6-2.1-8.9 1.1-12.5 3.6-4 3.5-4-9.7-4-7.5 0-13.3-.9-13.3-2 0-1.2 6.3-2 14.8-2h14.7l.9-13.5c.9-14.8 8.8-35.1 16.4-42.3 2.4-2.3 8.8-5.5 14.2-7.1 8.9-2.7 9.9-2.6 12.3.5 2.3 3 2.6 2.7 2.6-2.7.1-3.4-.6-7-1.4-8s-.6-1.2.4-.4c3.7 2.9 10.9 1.4 17.4-3.7 5.7-4.4 5.5-4.1-.8 1.7-8.6 7.9-10.2 14.6-3 12.4 2.5-.7 5.3-2.1 6.2-2.9 1-.9 4.7-.4 8.3 1.1l6.6 2.8 6.2-9.6c3.4-5.3 6.2-11.4 6.2-13.6 0-6.5 2-6.8 10.4-1.2l8 5.3-4.7 3.6c-14.2 10.8-16.4 16.8-9.1 25.5 4.9 5.9 10.3 18.1 15.5 35.6 2.3 7.6 2.1 8.9-1.1 12.5-3.6 4-3.5 4 9.7 4 7.5 0 13.3.9 13.3 2 0 1.2-6.3 2-14.8 2h-14.7l-.9 13.5c-.9 14.8-8.8 35.1-16.4 42.3-2.4 2.3-8.8 5.5-14.2 7.1-8.9 2.7-9.9 2.6-12.3-.5-2.3-3-2.6-2.7-2.6 2.7-.1 3.4.8 7.2 1.9 8.5 1.5 1.7 1.3 1.9-.4.4-4.1-3.4-11-2.2-17.9 3.2-5.7 4.4-5.5 4.1.8-1.7 8.6-7.9 10.2-14.6 3-12.4-2.5.7-5.3 2.1-6.2 2.9-1 .9-4.7.4-8.3-1.1l-6.6-2.8-6.2 9.6c-3.4 5.3-6.2 11.5-6.2 13.9 0 6.3-2.2 6.4-10.7.7zM52 217c1.3-1.6 1.8-4.5 1.1-6.5-1.3-3.1-1.9-2.9-5.8 1.7-2.3 2.9-6.4 6.4-9 7.7l-4.7 2.4 6.7 4.6 6.7 4.7 1.2-5.8c.7-3.2 2.4-7.1 3.8-8.8zm26.8-18.5c8.3-9.2 24.2-20.8 26-19 .7.7.7 6.6 0 13.1l-1.4 11.8 6.8-1.4c3.7-.8 7.6-2.2 8.7-3.2 2.4-2.3-8.8-26.1-11.5-24.4-1.2.7-1.4.2-.6-1.1s2.3-1.8 3.4-1.2c2.1 1.3 13.8-22.1 13.8-27.6 0-2.5-1.6-3.5-5.8-3.5-5 0-6.2 1.1-8.3 7.5-1.4 4.1-4.8 12-7.6 17.5s-4.9 10.7-4.7 11.6c.3 1-.3 1.2-1.2.7-.9-.6-5.5-.1-10.2 1.1-6.7 1.7-10.1 4.2-15.3 11.4-7.9 10.7-8.1 11.6-3.4 12.8 1.9.5 3.7 1 4 1.2.3.1 3.6-3.2 7.3-7.3zM73 196c-.7-1.1-.3-2 .9-2 1.1 0 2.1.9 2.1 2s-.4 2-.9 2-1.4-.9-2.1-2zm33 0c0-1.1.4-2 .9-2s1.4.9 2.1 2 .3 2-.9 2c-1.1 0-2.1-.9-2.1-2zm7.3-1c-.7-1.6-.3-3 .8-3 1 0 1.9 1.4 1.9 3 0 1.7-.4 3-.8 3s-1.3-1.3-1.9-3zM79 190c.7-1.1 2.1-2 3.2-2s1.5.9.8 2-2.1 2-3.2 2-1.5-.9-.8-2zm5-4.8c0-.4 1.8-1.2 4-1.8s3.5-.2 2.9.8c-1.1 1.7-6.9 2.6-6.9 1zm18-13.1c0-1 .9-2.4 2-3.1s1.4.1.8 1.9c-1.4 3.5-2.8 4.1-2.8 1.2zm6.9-4c.6-.9 0-2.1-1.3-2.6-1.4-.4-1.6-1.3-.5-1.9 1-.7 3 0 4.3 1.4 1.9 2.1 1.8 2.9-.6 3.8-1.7.6-2.5.3-1.9-.7zm3.1-6c0-1.1.9-2.1 2-2.1 2.6 0 2.6 1.4 0 3-1.1.7-2 .3-2-.9zm-2-5c0-.5.9-1.4 2-2.1s2-.3 2 .9c0 1.1-.9 2.1-2 2.1s-2-.4-2-.9zm8-10c0-3.5 1.2-4 2.9-1.2.6 1 .3 2.4-.9 3.1-1.1.7-2-.2-2-1.9zm-49.1 10.3c-.5-2.3.5-6.2 2-8.6 3.5-5.2 2.3-6.8-5.2-6.8-7.4 0-13 7.9-9.8 13.8 4.5 8.4 14.5 9.7 13 1.6zm27.5-.5c1.9-4.1 1.7-5.6-.7-8.1-4-3.9-22.9-1.9-24.6 2.7-1.4 3.6-2 3.1 7.9 7.1 11.2 4.5 14.7 4.2 17.4-1.7zm-26.3-26.4c1.4-4.1 4.8-12 7.6-17.5s4.9-10.7 4.7-11.6c-.3-1 .3-1.2 1.2-.7.9.6 5.5.1 10.2-1.1 6.7-1.7 10.1-4.2 15.3-11.4 8-10.9 8.1-11.4 2.8-12.8-3.1-.8-6 .9-10.8 6.3-8.2 9-24.1 20.6-25.9 18.8-.7-.7-.7-6.6 0-13.1l1.4-11.8-6.8 1.4c-3.7.8-7.6 2.2-8.7 3.2-2.4 2.3 8.8 26.1 11.5 24.4 1.2-.7 1.4-.2.6 1.1s-2.3 1.8-3.4 1.2C67.7 105.6 56 129 56 134.5c0 2.5 1.6 3.5 5.8 3.5 5 0 6.2-1.1 8.3-7.5zm-11 3.6c-.6-1-.3-2.4.9-3.1 1.1-.7 2 .2 2 1.9 0 3.5-1.2 4-2.9 1.2zm6.9-10c0-1.1.9-2.1 2-2.1 2.6 0 2.6 1.4 0 3-1.1.7-2 .3-2-.9zm-2-5c0-.5.9-1.4 2-2.1s2-.3 2 .9c0 1.1-.9 2.1-2 2.1s-2-.4-2-.9zm4.6-4.1c-1.9-2.1-1.8-2.9.6-3.8 1.7-.6 2.5-.3 1.9.7-.6.9 0 2.1 1.3 2.6 1.4.4 1.6 1.3.5 1.9-1 .7-3 0-4.3-1.4zm6.5-5.6c.8-2 1.9-3.1 2.5-2.5.6.7 0 2.3-1.4 3.6-1.9 2-2.2 1.8-1.1-1.1zm14.4-13.7c1.2-1.2 3.3-1.8 4.8-1.3s.6 1.4-2.1 2.1c-3.4.9-4.1.6-2.7-.8zM97 90c.7-1.1 2.1-2 3.2-2s1.5.9.8 2-2.1 2-3.2 2-1.5-.9-.8-2zm-33-5c0-1.6.4-3 .8-3s1.3 1.4 1.9 3c.7 1.7.3 3-.8 3-1 0-1.9-1.3-1.9-3zm7-1c-.7-1.1-.3-2 .9-2 1.1 0 2.1.9 2.1 2s-.4 2-.9 2-1.4-.9-2.1-2zm33 0c0-1.1.4-2 .9-2s1.4.9 2.1 2 .3 2-.9 2c-1.1 0-2.1-.9-2.1-2zm19.1 49.1c2.5-3.7 2.7-5.8 1-8.9-4.6-8.6-14.2-9.5-12.9-1.2.3 2.2-.7 5.9-2.2 8.3-3.4 5.1-2.1 6.7 5.3 6.7q5.6 0 8.8-4.9zm-14.6-3.8c2.4-3.8 1.8-4.4-8-7.9-12.5-4.5-14.2-4.3-16.8 1.5-3.8 8.3.8 11.7 13.2 10 5.5-.8 10.8-2.4 11.6-3.6zM142.6 59c3-1.7 2.6-2.6-3.6-6.5l-7-4.5v4.5c0 2.6-1.4 6.7-3.2 9.1-1.7 2.5-2.6 6.1-1.9 7.9 1.1 2.7 2.1 2.3 6.8-2.6 3-3.3 7.1-6.8 8.9-7.9zM78 30c0-1.1.9-2 2-2s2 .9 2 2-.9 2-2 2-2-.9-2-2zm16 0c0-1.1.9-2 2-2s2 .9 2 2-.9 2-2 2-2-.9-2-2z" fill="#fe0000"/><path d="M82 250c0-1.1.9-2 2-2s2 .9 2 2-.9 2-2 2-2-.9-2-2zm16 0c0-1.1.9-2 2-2s2 .9 2 2-.9 2-2 2-2-.9-2-2zm-58.7-21.7l-7.7-5.1 4.7-3.6c14.2-10.8 16.4-16.8 9.1-25.5-4.9-5.9-10.3-18.1-15.5-35.6-2.3-7.6-2.1-8.9 1.1-12.5 3.6-4 3.5-4-9.7-4-7.5 0-13.3-.9-13.3-2 0-1.2 6.3-2 14.8-2h14.7l.9-13.5c.9-14.8 8.8-35.1 16.4-42.3 2.4-2.3 8.8-5.5 14.2-7.1 8.9-2.7 9.9-2.6 12.3.5 2.3 3 2.6 2.7 2.6-2.7.1-3.4-.6-7-1.4-8s-.6-1.2.4-.4c3.7 2.9 10.9 1.4 17.4-3.7 5.7-4.4 5.5-4.1-.8 1.7-8.6 7.9-10.2 14.6-3 12.4 2.5-.7 5.3-2.1 6.2-2.9 1-.9 4.7-.4 8.3 1.1l6.6 2.8 6.2-9.6c3.4-5.3 6.2-11.4 6.2-13.6 0-6.5 2-6.8 10.4-1.2l8 5.3-4.7 3.6c-14.2 10.8-16.4 16.8-9.1 25.5 4.9 5.9 10.3 18.1 15.5 35.6 2.3 7.6 2.1 8.9-1.1 12.5-3.6 4-3.5 4 9.7 4 7.5 0 13.3.9 13.3 2 0 1.2-6.3 2-14.8 2h-14.7l-.9 13.5c-.9 14.8-8.8 35.1-16.4 42.3-2.4 2.3-8.8 5.5-14.2 7.1-8.9 2.7-9.9 2.6-12.3-.5-2.3-3-2.6-2.7-2.6 2.7-.1 3.4.8 7.2 1.9 8.5 1.5 1.7 1.3 1.9-.4.4-4.1-3.4-11-2.2-17.9 3.2-5.7 4.4-5.5 4.1.8-1.7 8.6-7.9 10.2-14.6 3-12.4-2.5.7-5.3 2.1-6.2 2.9-1 .9-4.7.4-8.3-1.1l-6.6-2.8-6.2 9.6c-3.4 5.3-6.2 11.5-6.2 13.9 0 6.3-2.2 6.4-10.7.7zM52 217c1.3-1.6 1.8-4.5 1.1-6.5-1.3-3.1-1.9-2.9-5.8 1.7-2.3 2.9-6.4 6.4-9 7.7l-4.7 2.4 6.7 4.6 6.7 4.7 1.2-5.8c.7-3.2 2.4-7.1 3.8-8.8zm26.8-18.5c8.3-9.2 24.2-20.8 26-19 .7.7.7 6.6 0 13.1l-1.4 11.8 6.8-1.4c3.7-.8 7.6-2.2 8.7-3.2 2.4-2.3-8.8-26.1-11.5-24.4-1.2.7-1.4.2-.6-1.1s2.3-1.8 3.4-1.2c2.1 1.3 13.8-22.1 13.8-27.6 0-2.5-1.6-3.5-5.8-3.5-5 0-6.2 1.1-8.3 7.5-1.4 4.1-4.8 12-7.6 17.5s-4.9 10.7-4.7 11.6c.3 1-.3 1.2-1.2.7-.9-.6-5.5-.1-10.2 1.1-6.7 1.7-10.1 4.2-15.3 11.4-7.9 10.7-8.1 11.6-3.4 12.8 1.9.5 3.7 1 4 1.2.3.1 3.6-3.2 7.3-7.3zM73 196c-.7-1.1-.3-2 .9-2 1.1 0 2.1.9 2.1 2s-.4 2-.9 2-1.4-.9-2.1-2zm33 0c0-1.1.4-2 .9-2s1.4.9 2.1 2 .3 2-.9 2c-1.1 0-2.1-.9-2.1-2zm7.3-1c-.7-1.6-.3-3 .8-3 1 0 1.9 1.4 1.9 3 0 1.7-.4 3-.8 3s-1.3-1.3-1.9-3zM79 190c.7-1.1 2.1-2 3.2-2s1.5.9.8 2-2.1 2-3.2 2-1.5-.9-.8-2zm5-4.8c0-.4 1.8-1.2 4-1.8s3.5-.2 2.9.8c-1.1 1.7-6.9 2.6-6.9 1zm18-13.1c0-1 .9-2.4 2-3.1s1.4.1.8 1.9c-1.4 3.5-2.8 4.1-2.8 1.2zm6.9-4c.6-.9 0-2.1-1.3-2.6-1.4-.4-1.6-1.3-.5-1.9 1-.7 3 0 4.3 1.4 1.9 2.1 1.8 2.9-.6 3.8-1.7.6-2.5.3-1.9-.7zm3.1-6c0-1.1.9-2.1 2-2.1 2.6 0 2.6 1.4 0 3-1.1.7-2 .3-2-.9zm-2-5c0-.5.9-1.4 2-2.1s2-.3 2 .9c0 1.1-.9 2.1-2 2.1s-2-.4-2-.9zm8-10c0-3.5 1.2-4 2.9-1.2.6 1 .3 2.4-.9 3.1-1.1.7-2-.2-2-1.9zm-65.1 32.7c-.6-1-2-1.3-3.1-.7-1 .6-1.3 2-.7 3.1.6 1 2 1.3 3.1.7 1-.6 1.3-2 .7-3.1zm75.2 1.1c2.1-2.6 2-3.7-.8-6.4-3.1-3.1-3.5-3.1-6.6 0-2.8 2.7-2.9 3.8-.8 6.4 1.4 1.7 3.3 3.1 4.1 3.1s2.7-1.4 4.1-3.1zm-59.2-23.5c-.5-2.3.5-6.2 2-8.6 3.5-5.2 2.3-6.8-5.2-6.8-7.4 0-13 7.9-9.8 13.8 4.5 8.4 14.5 9.7 13 1.6zm27.5-.5c1.9-4.1 1.7-5.6-.7-8.1-4-3.9-22.9-1.9-24.6 2.7-1.4 3.6-2 3.1 7.9 7.1 11.2 4.5 14.7 4.2 17.4-1.7zm-26.3-26.4c1.4-4.1 4.8-12 7.6-17.5s4.9-10.7 4.7-11.6c-.3-1 .3-1.2 1.2-.7.9.6 5.5.1 10.2-1.1 6.7-1.7 10.1-4.2 15.3-11.4 8-10.9 8.1-11.4 2.8-12.8-3.1-.8-6 .9-10.8 6.3-8.2 9-24.1 20.6-25.9 18.8-.7-.7-.7-6.6 0-13.1l1.4-11.8-6.8 1.4c-3.7.8-7.6 2.2-8.7 3.2-2.4 2.3 8.8 26.1 11.5 24.4 1.2-.7 1.4-.2.6 1.1s-2.3 1.8-3.4 1.2C67.7 105.6 56 129 56 134.5c0 2.5 1.6 3.5 5.8 3.5 5 0 6.2-1.1 8.3-7.5zm-11 3.6c-.6-1-.3-2.4.9-3.1 1.1-.7 2 .2 2 1.9 0 3.5-1.2 4-2.9 1.2zm6.9-10c0-1.1.9-2.1 2-2.1 2.6 0 2.6 1.4 0 3-1.1.7-2 .3-2-.9zm-2-5c0-.5.9-1.4 2-2.1s2-.3 2 .9c0 1.1-.9 2.1-2 2.1s-2-.4-2-.9zm4.6-4.1c-1.9-2.1-1.8-2.9.6-3.8 1.7-.6 2.5-.3 1.9.7-.6.9 0 2.1 1.3 2.6 1.4.4 1.6 1.3.5 1.9-1 .7-3 0-4.3-1.4zm6.5-5.6c.8-2 1.9-3.1 2.5-2.5.6.7 0 2.3-1.4 3.6-1.9 2-2.2 1.8-1.1-1.1zm14.4-13.7c1.2-1.2 3.3-1.8 4.8-1.3s.6 1.4-2.1 2.1c-3.4.9-4.1.6-2.7-.8zM97 90c.7-1.1 2.1-2 3.2-2s1.5.9.8 2-2.1 2-3.2 2-1.5-.9-.8-2zm-33-5c0-1.6.4-3 .8-3s1.3 1.4 1.9 3c.7 1.7.3 3-.8 3-1 0-1.9-1.3-1.9-3zm7-1c-.7-1.1-.3-2 .9-2 1.1 0 2.1.9 2.1 2s-.4 2-.9 2-1.4-.9-2.1-2zm33 0c0-1.1.4-2 .9-2s1.4.9 2.1 2 .3 2-.9 2c-1.1 0-2.1-.9-2.1-2zm19.1 49.1c2.5-3.7 2.7-5.8 1-8.9-4.6-8.6-14.2-9.5-12.9-1.2.3 2.2-.7 5.9-2.2 8.3-3.4 5.1-2.1 6.7 5.3 6.7q5.6 0 8.8-4.9zm-14.6-3.8c2.4-3.8 1.8-4.4-8-7.9-12.5-4.5-14.2-4.3-16.8 1.5-3.8 8.3.8 11.7 13.2 10 5.5-.8 10.8-2.4 11.6-3.6zm-48.4-24.4c2.1-2.6 2-3.7-.8-6.4-3.1-3.1-3.5-3.1-6.6 0-2.8 2.7-2.9 3.8-.8 6.4 1.4 1.7 3.3 3.1 4.1 3.1s2.7-1.4 4.1-3.1zm70.8-7.1c-.6-1-2-1.3-3.1-.7-1 .6-1.3 2-.7 3.1.6 1 2 1.3 3.1.7 1-.6 1.3-2 .7-3.1zM142.6 59c3-1.7 2.6-2.6-3.6-6.5l-7-4.5v4.5c0 2.6-1.4 6.7-3.2 9.1-1.7 2.5-2.6 6.1-1.9 7.9 1.1 2.7 2.1 2.3 6.8-2.6 3-3.3 7.1-6.8 8.9-7.9zM78 30c0-1.1.9-2 2-2s2 .9 2 2-.9 2-2 2-2-.9-2-2zm16 0c0-1.1.9-2 2-2s2 .9 2 2-.9 2-2 2-2-.9-2-2z" fill="#0000fe"/><path d="M39.3 228.3l-7.7-5.1 4.7-3.6c14.2-10.8 16.4-16.8 9.1-25.5-4.9-5.9-10.3-18.1-15.5-35.6-2.3-7.6-2.1-8.9 1.1-12.5 3.6-4 3.5-4-9.7-4-7.5 0-13.3-.9-13.3-2 0-1.2 6.3-2 14.8-2h14.7l.9-13.5c.9-14.8 8.8-35.1 16.4-42.3 2.4-2.3 8.8-5.5 14.2-7.1 8.9-2.7 9.9-2.6 12.3.5 2.3 3 2.6 2.7 2.6-2.7.1-3.4-.6-7-1.4-8s-.6-1.2.4-.4c3.7 2.9 10.9 1.4 17.4-3.7 5.7-4.4 5.5-4.1-.8 1.7-8.6 7.9-10.2 14.6-3 12.4 2.5-.7 5.3-2.1 6.2-2.9 1-.9 4.7-.4 8.3 1.1l6.6 2.8 6.2-9.6c3.4-5.3 6.2-11.4 6.2-13.6 0-6.5 2-6.8 10.4-1.2l8 5.3-4.7 3.6c-14.2 10.8-16.4 16.8-9.1 25.5 4.9 5.9 10.3 18.1 15.5 35.6 2.3 7.6 2.1 8.9-1.1 12.5-3.6 4-3.5 4 9.7 4 7.5 0 13.3.9 13.3 2 0 1.2-6.3 2-14.8 2h-14.7l-.9 13.5c-.9 14.8-8.8 35.1-16.4 42.3-2.4 2.3-8.8 5.5-14.2 7.1-8.9 2.7-9.9 2.6-12.3-.5-2.3-3-2.6-2.7-2.6 2.7-.1 3.4.8 7.2 1.9 8.5 1.5 1.7 1.3 1.9-.4.4-4.1-3.4-11-2.2-17.9 3.2-5.7 4.4-5.5 4.1.8-1.7 8.6-7.9 10.2-14.6 3-12.4-2.5.7-5.3 2.1-6.2 2.9-1 .9-4.7.4-8.3-1.1l-6.6-2.8-6.2 9.6c-3.4 5.3-6.2 11.5-6.2 13.9 0 6.3-2.2 6.4-10.7.7zM52 217c1.3-1.6 1.8-4.5 1.1-6.5-1.3-3.1-1.9-2.9-5.8 1.7-2.3 2.9-6.4 6.4-9 7.7l-4.7 2.4 6.7 4.6 6.7 4.7 1.2-5.8c.7-3.2 2.4-7.1 3.8-8.8zm42-11c0-6.5 2.1-7.7 5.8-3.2.7.8 1.4 1.4 2.4 1.6l2-24.5c1.8.9 1.5 5.3-.1 14.2l-1.8 10.3c1.5.4 3.7 0 7.6-1.2 4.3-1.2 8.5-2.9 9.3-3.8 2.1-2.1-9.4-25.5-11.8-24-1.2.7-1.4.2-.6-1.1s2.3-1.8 3.4-1.2c2.1 1.3 13.8-22.1 13.8-27.6 0-2.5-1.6-3.5-5.8-3.5-5 0-6.2 1.1-8.3 7.5-1.4 4.1-4.8 12-7.6 17.5s-4.9 10.7-4.7 11.6c.3 1-.3 1.2-1.2.7-.9-.6-5.5-.1-10.2 1.1-6.7 1.7-10.1 4.2-15.3 11.4-8 10.9-8.1 11.4-2.8 12.8 3.1.8 6-.9 10.8-6.3 3.7-4 10.8-10.3 15.9-13.9 4.4-3.2 7.3-4.9 8.9-4.6l-7.1 5.2c-9.9 7.3-20.6 17.4-20.6 19.3 0 .9 2.3.7 5.1-.3 7.6-2.9 8.9-2.5 8.9 3 0 2.8.9 5 2 5s2-2.7 2-6zm8.3-1.6q-.1 0-.1 0v.6zm1.9-24.5q-.2-.1-.5-.2l.6-.4zM72.9 196c-.6-1.1-.2-2 .9-2 1.2 0 2.1.9 2.1 2s-.4 2-.8 2c-.5 0-1.5-.9-2.2-2zm33 0c0-1.1.4-2 .9-2s1.5.9 2.1 2c.7 1.1.3 2-.8 2-1.2 0-2.2-.9-2.2-2zm7.3-1c-.6-1.7-.3-3 .8-3s1.9 1.3 1.9 3c0 1.6-.3 3-.7 3-.5 0-1.3-1.4-2-3zm-34.3-5c.7-1.1 2.2-2 3.3-2s1.4.9.7 2c-.6 1.1-2.1 2-3.2 2s-1.4-.9-.8-2zm5-4.8c0-.4 1.8-1.2 4-1.8 2.3-.6 3.5-.2 2.9.8-1 1.7-6.9 2.6-6.9 1zm18-13.1c0-1 .9-2.4 2-3.1 1.2-.7 1.5.1.8 1.9-1.3 3.4-2.8 4.1-2.8 1.2zm7-4c.6-1 0-2.1-1.3-2.6-1.4-.4-1.6-1.3-.6-1.9 1.1-.7 3 0 4.4 1.4 1.9 2.1 1.7 2.9-.6 3.8-1.7.6-2.6.3-1.9-.7zm3-6c0-1.2.9-2.1 2-2.1 2.6 0 2.6 1.4 0 3-1.1.7-2 .3-2-.9zm-2-5c0-.5.9-1.4 2-2.1s2-.3 2 .9c0 1.1-.9 2.1-2 2.1s-2-.4-2-.9zm8-10c0-3.5 1.2-4 3-1.3.6 1.1.2 2.5-.9 3.2-1.1.6-2.1-.2-2.1-1.9zm-65.1 32.7c-.6-1-2-1.4-3-.7-1.1.6-1.4 2-.7 3 .6 1.1 2 1.4 3 .8 1.1-.7 1.4-2.1.7-3.1zm75.2 1.1c2.2-2.6 2-3.7-.7-6.5-3.1-3.1-3.6-3.1-6.7 0-2.7 2.8-2.9 3.9-.7 6.5 1.4 1.7 3.2 3.1 4 3.1.9 0 2.7-1.4 4.1-3.1zm-59.2-23.5c-.4-2.3.5-6.2 2.1-8.6 3.4-5.3 2.2-6.8-5.2-6.8s-13 7.8-9.9 13.8c4.6 8.4 14.6 9.7 13 1.6zm27.5-.5c1.9-4.1 1.8-5.7-.7-8.1-3.9-4-22.8-1.9-24.6 2.7-1.4 3.6-2 3 7.9 7.1 11.3 4.5 14.8 4.1 17.4-1.7zm-26.2-26.4c1.3-4.1 4.7-12 7.5-17.5s4.9-10.8 4.7-11.7c-.3-.9.3-1.2 1.2-.6s5.5.1 10.3-1.1c6.6-1.7 10-4.2 15.3-11.4 8-10.9 8.1-11.4 2.7-12.8-3-.8-5.9.9-10.8 6.2-3.6 4.1-10.8 10.4-15.9 14-4.4 3.2-7.2 4.8-8.8 4.6l7-5.2c9.9-7.3 20.6-17.4 20.6-19.4 0-.8-2.3-.6-5.1.4-7.6 2.9-8.9 2.5-8.9-3 0-2.8-.9-5-2-5s-2 2.7-2 6c0 6.4-2.1 7.6-5.8 3.2-.7-.9-1.4-1.4-2.4-1.6l-2 24.5c-1.8-1-1.5-5.4.1-14.2l1.9-10.3c-1.6-.4-3.8 0-7.7 1.1-4.3 1.3-8.5 3-9.3 3.8-2.1 2.1 9.5 25.6 11.9 24.1 1.1-.7 1.3-.2.5 1.1s-2.3 1.8-3.3 1.2c-2.1-1.3-13.9 22.1-13.9 27.6 0 2.5 1.7 3.5 5.9 3.5 5 0 6.2-1.1 8.3-7.5zm7.6-54.9q0 0 0 0l.1-.6zm-2 24.5q.3.1.6.1l-.6.5zm-16.7 34c-.6-1-.3-2.4.9-3.1 1.1-.7 2 .2 2 1.9 0 3.5-1.2 4-2.9 1.2zm6.9-10c0-1.1.9-2.1 2-2.1 2.6 0 2.6 1.4 0 3-1.1.7-2 .3-2-.9zm-2-5c0-.5.9-1.4 2-2.1s2-.3 2 .9c0 1.1-.9 2.1-2 2.1s-2-.4-2-.9zm4.6-4.1c-1.9-2.1-1.8-2.9.6-3.8 1.7-.6 2.5-.3 1.9.7-.6.9 0 2.1 1.3 2.6 1.4.4 1.6 1.3.5 1.9-1 .7-3 0-4.3-1.4zm6.5-5.6c.8-2 1.9-3.1 2.5-2.5.6.7 0 2.3-1.4 3.6-1.9 2-2.2 1.8-1.1-1.1zm14.4-13.7c1.2-1.2 3.3-1.8 4.8-1.3s.6 1.4-2.1 2.1c-3.4.9-4.1.6-2.7-.8zm7.5-5.7c.7-1.1 2.1-2 3.2-2s1.5.9.8 2-2.1 2-3.2 2-1.5-.9-.8-2zm-33-5c0-1.7.4-3 .8-3s1.3 1.3 1.9 3c.7 1.6.3 3-.8 3-1 0-1.9-1.4-1.9-3zm7-1c-.7-1.1-.3-2 .9-2 1.1 0 2.1.9 2.1 2s-.4 2-.9 2-1.4-.9-2.1-2zm33 0c0-1.1.4-2 .9-2s1.4.9 2.1 2 .3 2-.9 2c-1.1 0-2.1-.9-2.1-2zm19.1 49.1c2.5-3.7 2.7-5.8 1-8.9-4.6-8.6-14.2-9.5-12.9-1.2.3 2.2-.7 5.9-2.2 8.3-3.4 5.1-2.1 6.7 5.3 6.7q5.6 0 8.8-4.9zm-14.6-3.8c2.4-3.8 1.8-4.4-8-7.9-12.5-4.5-14.2-4.3-16.8 1.5-3.8 8.3.8 11.7 13.2 10 5.5-.8 10.8-2.4 11.6-3.6zM60 104.9c2.1-2.6 2-3.7-.8-6.4-3.1-3.1-3.5-3.1-6.6 0-2.8 2.7-2.9 3.8-.8 6.4 1.4 1.7 3.3 3.1 4.1 3.1s2.7-1.4 4.1-3.1zm70.8-7.1c-.6-1-2-1.3-3.1-.7-1 .6-1.3 2-.7 3.1.6 1 2 1.3 3.1.7 1-.6 1.3-2 .7-3.1zM142.5 59c3-1.7 2.6-2.6-3.6-6.5l-7-4.5v4.5c0 2.6-1.4 6.7-3.2 9.1-1.7 2.5-2.6 6.1-1.9 7.9 1.1 2.7 2.1 2.3 6.8-2.6 3-3.3 7.1-6.8 8.9-7.9z" fill="#9b0000"/><path d="M39.3 228.3l-7.7-5.1 4.7-3.6c14.2-10.8 16.4-16.8 9.1-25.5-4.9-5.9-10.3-18.1-15.5-35.6-2.3-7.6-2.1-8.9 1.1-12.5 3.6-4 3.5-4-9.7-4-7.5 0-13.3-.9-13.3-2 0-1.2 6.3-2 14.8-2h14.7l.9-13.5c.9-14.8 8.8-35.1 16.4-42.3 2.4-2.3 8.8-5.5 14.2-7.1 8.9-2.7 9.9-2.6 12.3.5 2.3 3 2.6 2.7 2.6-2.7.1-3.4-.6-7-1.4-8s-.6-1.2.4-.4c3.7 2.9 10.9 1.4 17.4-3.7 5.7-4.4 5.5-4.1-.8 1.7-8.6 7.9-10.2 14.6-3 12.4 2.5-.7 5.3-2.1 6.2-2.9 1-.9 4.7-.4 8.3 1.1l6.6 2.8 6.2-9.6c3.4-5.3 6.2-11.4 6.2-13.6 0-6.5 2-6.8 10.4-1.2l8 5.3-4.7 3.6c-14.2 10.8-16.4 16.8-9.1 25.5 4.9 5.9 10.3 18.1 15.5 35.6 2.3 7.6 2.1 8.9-1.1 12.5-3.6 4-3.5 4 9.7 4 7.5 0 13.3.9 13.3 2 0 1.2-6.3 2-14.8 2h-14.7l-.9 13.5c-.9 14.8-8.8 35.1-16.4 42.3-2.4 2.3-8.8 5.5-14.2 7.1-8.9 2.7-9.9 2.6-12.3-.5-2.3-3-2.6-2.7-2.6 2.7-.1 3.4.8 7.2 1.9 8.5 1.5 1.7 1.3 1.9-.4.4-4.1-3.4-11-2.2-17.9 3.2-5.7 4.4-5.5 4.1.8-1.7 8.6-7.9 10.2-14.6 3-12.4-2.5.7-5.3 2.1-6.2 2.9-1 .9-4.7.4-8.3-1.1l-6.6-2.8-6.2 9.6c-3.4 5.3-6.2 11.5-6.2 13.9 0 6.3-2.2 6.4-10.7.7zM52 217c1.3-1.6 1.8-4.5 1.1-6.5-1.3-3.1-1.9-2.9-5.8 1.7-2.3 2.9-6.4 6.4-9 7.7l-4.7 2.4 6.7 4.6 6.7 4.7 1.2-5.8c.7-3.2 2.4-7.1 3.8-8.8zm42-11c0-6.5 2.1-7.7 5.8-3.2.7.8 1.4 1.4 2.4 1.6l2-24.5c1.8.9 1.5 5.3-.1 14.2l-1.8 10.3c1.5.4 3.7 0 7.6-1.2 4.3-1.2 8.5-2.9 9.3-3.8 2.1-2.1-9.4-25.5-11.8-24-1.2.7-1.4.2-.6-1.1s2.3-1.8 3.4-1.2c2.1 1.3 13.8-22.1 13.8-27.6 0-2.5-1.6-3.5-5.8-3.5-5 0-6.2 1.1-8.3 7.5-1.4 4.1-4.8 12-7.6 17.5s-4.9 10.7-4.7 11.6c.3 1-.3 1.2-1.2.7-.9-.6-5.5-.1-10.2 1.1-6.7 1.7-10.1 4.2-15.3 11.4-8 10.9-8.1 11.4-2.8 12.8 3.1.8 6-.9 10.8-6.3 3.7-4 10.8-10.3 15.9-13.9 4.4-3.2 7.3-4.9 8.9-4.6l-7.1 5.2c-9.9 7.3-20.6 17.4-20.6 19.3 0 .9 2.3.7 5.1-.3 7.6-2.9 8.9-2.5 8.9 3 0 2.8.9 5 2 5s2-2.7 2-6zm8.3-1.6q-.1 0-.1 0v.6zm1.9-24.5q-.2-.1-.5-.2l.6-.4zm-32.7 7.9C84.6 168.1 87.1 162 82.1 162c-.9 0-8.1 9.8-16.1 21.9-12.6 19.1-15.5 26.2-10.4 26 .7 0 7.9-9.9 15.9-22.1zm34.4 8.2c0-1.1.4-2 .9-2s1.5.9 2.1 2c.7 1.1.3 2-.8 2-1.2 0-2.2-.9-2.2-2zm7.3-1c-.6-1.7-.3-3 .8-3s1.9 1.3 1.9 3c0 1.6-.3 3-.7 3-.5 0-1.3-1.4-2-3zm-34.3-5c.7-1.1 2.2-2 3.3-2s1.4.9.7 2c-.6 1.1-2.1 2-3.2 2s-1.4-.9-.8-2zm5-4.8c0-.4 1.8-1.2 4-1.8 2.3-.6 3.5-.2 2.9.8-1 1.7-6.9 2.6-6.9 1zm18-13.1c0-1 .9-2.4 2-3.1 1.2-.7 1.5.1.8 1.9-1.3 3.4-2.8 4.1-2.8 1.2zm7-4c.6-1 0-2.1-1.3-2.6-1.4-.4-1.6-1.3-.6-1.9 1.1-.7 3 0 4.4 1.4 1.9 2.1 1.7 2.9-.6 3.8-1.7.6-2.6.3-1.9-.7zm3-6c0-1.2.9-2.1 2-2.1 2.6 0 2.6 1.4 0 3-1.1.7-2 .3-2-.9zm-2-5c0-.5.9-1.4 2-2.1s2-.3 2 .9c0 1.1-.9 2.1-2 2.1s-2-.4-2-.9zm8-10c0-3.5 1.2-4 3-1.3.6 1.1.2 2.5-.9 3.2-1.1.6-2.1-.2-2.1-1.9zm-45 48.9c-.6-1.1-.2-2 .9-2 1.2 0 2.1.9 2.1 2s-.4 2-.8 2c-.5 0-1.5-.9-2.2-2zm-20.1-16.2c-.6-1-2-1.4-3-.7-1.1.6-1.4 2-.7 3 .6 1.1 2 1.4 3 .8 1.1-.7 1.4-2.1.7-3.1zm75.2 1.1c2.2-2.6 2-3.7-.7-6.5-3.1-3.1-3.6-3.1-6.7 0-2.7 2.8-2.9 3.9-.7 6.5 1.4 1.7 3.2 3.1 4 3.1.9 0 2.7-1.4 4.1-3.1zm-59.2-23.5c-.4-2.3.5-6.2 2.1-8.6 3.4-5.3 2.2-6.8-5.2-6.8s-13 7.8-9.9 13.8c4.6 8.4 14.6 9.7 13 1.6zm27.5-.5c1.9-4.1 1.8-5.7-.7-8.1-3.9-4-22.8-1.9-24.6 2.7-1.4 3.6-2 3 7.9 7.1 11.3 4.5 14.8 4.1 17.4-1.7zm4.6-12.9c.7-1.1-.6-2-3-2-2.3 0-3.6.9-3 2 .7 1.1 2.1 2 3 2 1 0 2.4-.9 3-2zm-30.8-13.5c1.3-4.1 4.7-12 7.5-17.5s4.9-10.8 4.7-11.7c-.3-.9.3-1.2 1.2-.6s5.5.1 10.3-1.1c6.6-1.7 10-4.2 15.3-11.4 8-10.9 8.1-11.4 2.7-12.8-3-.8-5.9.9-10.8 6.2-3.6 4.1-10.8 10.4-15.9 14-4.4 3.2-7.2 4.8-8.8 4.6l7-5.2c9.9-7.3 20.6-17.4 20.6-19.4 0-.8-2.3-.6-5.1.4-7.6 2.9-8.9 2.5-8.9-3 0-2.8-.9-5-2-5s-2 2.7-2 6c0 6.4-2.1 7.6-5.8 3.2-.7-.9-1.4-1.4-2.4-1.6l-2 24.5c-1.8-1-1.5-5.4.1-14.2l1.9-10.3c-1.6-.4-3.8 0-7.7 1.1-4.3 1.3-8.5 3-9.3 3.8-2.1 2.1 9.5 25.6 11.9 24.1 1.1-.7 1.3-.2.5 1.1s-2.3 1.8-3.3 1.2c-2.1-1.3-13.9 22.1-13.9 27.6 0 2.5 1.7 3.5 5.9 3.5 5 0 6.2-1.1 8.3-7.5zm7.6-54.9q0 0 0 0l.1-.6zm-2 24.5q.3.1.6.1l-.6.5zm-16.7 34c-.6-1-.3-2.4.9-3.1 1.1-.7 2 .2 2 1.9 0 3.5-1.2 4-2.9 1.2zm6.9-10c0-1.1.9-2.1 2-2.1 2.6 0 2.6 1.4 0 3-1.1.7-2 .3-2-.9zm-2-5c0-.5.9-1.4 2-2.1s2-.3 2 .9c0 1.1-.9 2.1-2 2.1s-2-.4-2-.9zm4.6-4.1c-1.9-2.1-1.8-2.9.6-3.8 1.7-.6 2.5-.3 1.9.7-.6.9 0 2.1 1.3 2.6 1.4.4 1.6 1.3.5 1.9-1 .7-3 0-4.3-1.4zm6.5-5.6c.8-2 1.9-3.1 2.5-2.5.6.7 0 2.3-1.4 3.6-1.9 2-2.2 1.8-1.1-1.1zm14.4-13.7c1.2-1.2 3.3-1.8 4.8-1.3s.6 1.4-2.1 2.1c-3.4.9-4.1.6-2.7-.8zm24.6.2c10.9-16.6 14-22.6 12.3-24.3-1.3-1.3-2.7-1.9-3.1-1.5-6.2 7.3-29.1 44.5-28.3 46 2.5 3.9 4.7 1.5 19.1-20.2zM63.9 85c0-1.7.4-3 .8-3s1.3 1.3 1.9 3c.7 1.6.3 3-.8 3-1 0-1.9-1.4-1.9-3zm7-1c-.7-1.1-.3-2 .9-2 1.1 0 2.1.9 2.1 2s-.4 2-.9 2-1.4-.9-2.1-2zm33 0c0-1.1.4-2 .9-2s1.4.9 2.1 2 .3 2-.9 2c-1.1 0-2.1-.9-2.1-2zm-19.6 51.6c-1.9-1.9-2.9-1.9-4.8 0s-1.3 2.4 2.4 2.4 4.3-.5 2.4-2.4zm38.7-2.5c2.5-3.7 2.7-5.8 1-8.9-4.6-8.6-14.2-9.5-12.9-1.2.3 2.2-.7 5.9-2.2 8.3-3.4 5.1-2.1 6.7 5.3 6.7q5.6 0 8.8-4.9zm-14.6-3.8c2.4-3.8 1.8-4.4-8-7.9-12.5-4.5-14.2-4.3-16.8 1.5-3.8 8.3.8 11.7 13.2 10 5.5-.8 10.8-2.4 11.6-3.6zM96.9 90c.7-1.1 2.1-2 3.2-2s1.5.9.8 2-2.1 2-3.2 2-1.5-.9-.8-2zM60 104.9c2.1-2.6 2-3.7-.8-6.4-3.1-3.1-3.5-3.1-6.6 0-2.8 2.7-2.9 3.8-.8 6.4 1.4 1.7 3.3 3.1 4.1 3.1s2.7-1.4 4.1-3.1zm70.8-7.1c-.6-1-2-1.3-3.1-.7-1 .6-1.3 2-.7 3.1.6 1 2 1.3 3.1.7 1-.6 1.3-2 .7-3.1zM142.5 59c3-1.7 2.6-2.6-3.6-6.5l-7-4.5v4.5c0 2.6-1.4 6.7-3.2 9.1-1.7 2.5-2.6 6.1-1.9 7.9 1.1 2.7 2.1 2.3 6.8-2.6 3-3.3 7.1-6.8 8.9-7.9z" fill="#009800"/><path d="M39.3 228.3l-7.7-5.1 4.7-3.6c14.2-10.8 16.4-16.8 9.1-25.5-4.9-5.9-10.3-18.1-15.5-35.6-2.3-7.6-2.1-8.9 1.1-12.5 3.6-4 3.5-4-9.7-4-7.5 0-13.3-.9-13.3-2 0-1.2 6.3-2 14.8-2h14.7l.9-13.5c.9-14.8 8.8-35.1 16.4-42.3 2.4-2.3 8.8-5.5 14.2-7.1 8.9-2.7 9.9-2.6 12.3.5 2.3 3 2.6 2.7 2.6-2.7.1-3.4-.6-7-1.4-8s-.6-1.2.4-.4c3.7 2.9 10.9 1.4 17.4-3.7 5.7-4.4 5.5-4.1-.8 1.7-8.6 7.9-10.2 14.6-3 12.4 2.5-.7 5.3-2.1 6.2-2.9 1-.9 4.7-.4 8.3 1.1l6.6 2.8 6.2-9.6c3.4-5.3 6.2-11.4 6.2-13.6 0-6.5 2-6.8 10.4-1.2l8 5.3-4.7 3.6c-14.2 10.8-16.4 16.8-9.1 25.5 4.9 5.9 10.3 18.1 15.5 35.6 2.3 7.6 2.1 8.9-1.1 12.5-3.6 4-3.5 4 9.7 4 7.5 0 13.3.9 13.3 2 0 1.2-6.3 2-14.8 2h-14.7l-.9 13.5c-.9 14.8-8.8 35.1-16.4 42.3-2.4 2.3-8.8 5.5-14.2 7.1-8.9 2.7-9.9 2.6-12.3-.5-2.3-3-2.6-2.7-2.6 2.7-.1 3.4.8 7.2 1.9 8.5 1.5 1.7 1.3 1.9-.4.4-4.1-3.4-11-2.2-17.9 3.2-5.7 4.4-5.5 4.1.8-1.7 8.6-7.9 10.2-14.6 3-12.4-2.5.7-5.3 2.1-6.2 2.9-1 .9-4.7.4-8.3-1.1l-6.6-2.8-6.2 9.6c-3.4 5.3-6.2 11.5-6.2 13.9 0 6.3-2.2 6.4-10.7.7zM52 217c1.3-1.6 1.8-4.5 1.1-6.5-1.3-3.1-1.9-2.9-5.8 1.7-2.3 2.9-6.4 6.4-9 7.7l-4.7 2.4 6.7 4.6 6.7 4.7 1.2-5.8c.7-3.2 2.4-7.1 3.8-8.8zm42-11c0-6.5 2.1-7.7 5.8-3.2.7.8 1.4 1.4 2.4 1.6l2-24.5c1.8.9 1.5 5.3-.1 14.2l-1.8 10.3c1.5.4 3.7 0 7.6-1.2 4.3-1.2 8.5-2.9 9.3-3.8 2.2-2.2-9.4-25.5-12-24-1.3.7-1.5.5-.5-.6.9-1 2.6-1.8 3.8-1.8s2.6-1.3 3.1-2.8c.7-2-.1-2.4-2.4-1.5-2 .7-2.9.4-2.2-.7s.2-2-1-2-1.7-.9-1-2c.8-1.2 2.5-.7 4.6 1.3 3.1 3.1 3.6 2.6 7.8-6.5 6.2-13.4 6-16.8-1.1-16.8-5.2 0-6.2 1.2-10.5 12.5l-5.5 14.3c-.5 1 .2 1.1 1.4.4 1.5-.9 1.8-.3 1 1.9-.9 2.3-1.7 2.5-2.7.9s-1.9-1.2-3 1.3c-.9 2-1.5 4.4-1.3 5.3.2 1-.4 1.2-1.3.7-.9-.6-5.5-.1-10.2 1.1-6.7 1.7-10.1 4.2-15.3 11.4-8 10.9-8.1 11.4-2.8 12.8 3.1.8 6-.9 10.8-6.3 3.7-4 10.8-10.3 15.9-13.9 4.4-3.2 7.3-4.9 8.9-4.6l-7.1 5.2c-9.9 7.3-20.6 17.4-20.6 19.3 0 .9 2.3.7 5.1-.3 7.6-2.9 8.9-2.5 8.9 3 0 2.8.9 5 2 5s2-2.7 2-6zm8.3-1.6q-.1 0-.1 0v.6zm1.9-24.5q-.2-.1-.5-.2l.6-.4zm-32.7 7.9C84.6 168.1 87.1 162 82.1 162c-.9 0-8.1 9.8-16.1 21.9-12.6 19.1-15.5 26.2-10.4 26 .7 0 7.9-9.9 15.9-22.1zm34.4 8.2c0-1.1.4-2 .9-2s1.5.9 2.1 2c.7 1.1.3 2-.8 2-1.2 0-2.2-.9-2.2-2zm27.2-14.6c3.8-8.4 5.9-16.7 6.5-25.9l.8-13.5h-7.2c-5.8 0-7.3.8-7.3 3.7 0 2.1-3 9.9-6.8 17.4l-6.8 13.5 5.2 10.6c6.2 12.6 7.5 12.1 15.6-5.8zM67.4 179c11.2-17 12-18.9 8.5-20-2.2-.7-4.7-.8-5.8-.1-2 1.2-1.5-7 .7-10.6.7-1.3 3.8-2.4 6.8-2.5 2.9-.1 7.6-.9 10.3-1.8 3-.9-6.6-1.6-23.2-1.8-26-.2-28.4.1-31.8 3.9-3.6 3.9-3.6 4.5 1.6 20.5 3 9 7.4 19.5 9.9 23.4l4.5 7 .7-5.6c.3-3.1-.3-6.8-1.5-8.3-1.6-1.9-1.5-3.2.6-4.9s3.3-1.6 5.1.6c1.6 1.9 1.7 3.2.2 4.1-2.3 1.5-2.9 15.1-.6 15 .9 0 7.1-8.5 14-18.9zm16.5 6.2c0-.4 1.8-1.2 4-1.8 2.3-.6 3.5-.2 2.9.8-1 1.7-6.9 2.6-6.9 1zm28-23.1c0-1.2.9-2.1 2-2.1 2.6 0 2.6 1.4 0 3-1.1.7-2 .3-2-.9zm-2-5c0-.5.9-1.4 2-2.1s2-.3 2 .9c0 1.1-.9 2.1-2 2.1s-2-.4-2-.9zm8-10c0-3.5 1.2-4 3-1.3.6 1.1.2 2.5-.9 3.2-1.1.6-2.1-.2-2.1-1.9zm-45 48.9c-.6-1.1-.2-2 .9-2 1.2 0 2.1.9 2.1 2s-.4 2-.8 2c-.5 0-1.5-.9-2.2-2zm6-6c.7-1.1 2.2-2 3.3-2s1.4.9.7 2c-.6 1.1-2.1 2-3.2 2s-1.4-.9-.8-2zm-19.8-13.2c-.7-2.9-1-5.7-.5-6.2.5-.4 1.5 1.6 2.2 4.5.7 3 1 5.7.5 6.2s-1.5-1.5-2.2-4.5zm-7.7-17.1c1.4-1.3 3-2 3.6-1.3.6.6-.5 1.7-2.5 2.4-2.8 1.1-3 .9-1.1-1.1zm-13.5-3.5c0-2 5.8-7.2 6.8-6 .3.4-1.1 2.4-3.1 4.3s-3.7 2.7-3.7 1.7zm75.3 38.8c-.6-1.7-.3-3 .8-3s1.9 1.3 1.9 3c0 1.6-.3 3-.7 3-.5 0-1.3-1.4-2-3zm5.7-13.1c-3.6-4-3.6-4.2.7-8.4l4.3-4.4 4.4 4.4c4.3 4.2 4.3 4.4.7 8.4-2 2.2-4.3 4.1-5.1 4.1-.7 0-3-1.9-5-4.1zm9.1-1c2.2-2.6 2-3.7-.7-6.5-3.1-3.1-3.6-3.1-6.7 0-2.7 2.8-2.9 3.9-.7 6.5 1.4 1.7 3.2 3.1 4 3.1.9 0 2.7-1.4 4.1-3.1zm3.6-22.1c.4-3.8 1.4-7.2 2.1-7.7.8-.5 1 2.3.6 6-.4 3.8-1.4 7.3-2.2 7.8-.7.4-1-2.3-.5-6.1zm-78.8 21c-.6-1-2-1.4-3-.7-1.1.6-1.4 2-.7 3 .6 1.1 2 1.4 3 .8 1.1-.7 1.4-2.1.7-3.1zm41.3-4c3-1.5 11.6-18.7 14.8-29.5 1.2-3.8.8-4.6-2-4-3.8.7-5.5 3.4-8.2 12.7-1 3.3-3.7 6.8-5.9 7.8-3.6 1.6-12.9 13.2-12.9 16.2 0 1.3 9.7-.9 14.2-3.2zm2.2-18.9c1.9-4.1 1.8-5.7-.7-8.1-3.9-4-22.8-1.9-24.6 2.7-1.4 3.6-2 3 7.9 7.1 11.3 4.5 14.8 4.1 17.4-1.7zm4.6-12.9c.7-1.1-.6-2-3-2-2.3 0-3.6.9-3 2 .7 1.1 2.1 2 3 2 1 0 2.4-.9 3-2zm-47-9.8c0-2.1 3.1-9.9 6.9-17.3l6.8-13.7-11.1-22-3.5 5.4c-7.4 11.3-13 28.3-13 39.9l-.1 11.5h7c5.6 0 7-.8 7-3.8zm-8.3-11.4c.4-3.8 1.4-7.2 2.1-7.7.8-.5 1 2.3.6 6-.4 3.8-1.4 7.3-2.2 7.8-.7.4-1-2.3-.5-6.1zm5.3-16.9c-3.6-4-3.6-4.2.7-8.4l4.3-4.4 4.4 4.4c4.3 4.2 4.3 4.4.7 8.4-2 2.2-4.3 4.1-5.1 4.1-.7 0-3-1.9-5-4.1zm9.1-1c2.2-2.6 2-3.7-.7-6.5-3.1-3.1-3.6-3.1-6.7 0-2.7 2.8-2.9 3.9-.7 6.5 1.4 1.7 3.2 3.1 4 3.1.9 0 2.7-1.4 4.1-3.1zm12.2 20.6l5.5-14.3c.4-1-.2-1.2-1.5-.4-1.4.9-1.8.2-1-1.9.9-2.3 1.7-2.6 2.7-.9 1 1.6 2 1.2 3.1-1.4.9-2 1.4-4.4 1.2-5.3s.4-1.2 1.3-.6 5.5.1 10.3-1.1c6.6-1.7 10-4.2 15.3-11.4 8-10.9 8.1-11.4 2.7-12.8-3-.8-5.9.9-10.8 6.2-3.6 4.1-10.8 10.4-15.9 14-4.4 3.2-7.2 4.8-8.8 4.6l7-5.2c9.9-7.3 20.6-17.4 20.6-19.4 0-.8-2.3-.6-5.1.4-7.6 2.9-8.9 2.5-8.9-3 0-2.8-.9-5-2-5s-2 2.7-2 6c0 6.4-2.1 7.6-5.8 3.2-.7-.9-1.4-1.4-2.4-1.6l-2 24.5c-1.8-1-1.5-5.4.1-14.2l1.9-10.3c-1.6-.4-3.8 0-7.7 1.1-4.3 1.3-8.5 3-9.3 3.8-2.1 2.1 9.5 25.6 11.9 24.1 1.1-.7 1.3-.2.5 1.1s-2.3 1.8-3.3 1.2c-2.1-1.3-13.9 22.1-13.9 27.6 0 2.5 1.7 3.5 5.8 3.5 5.2 0 6.2-1.2 10.5-12.5zm5.5-49.9q0 0 0 0l.1-.6zm-2 24.5q.3.1.6.1l-.6.5zm-16.7 34c-.6-1-.3-2.4.9-3.1 1.1-.7 2 .2 2 1.9 0 3.5-1.2 4-2.9 1.2zm6.9-10c0-1.1.9-2.1 2-2.1 2.6 0 2.6 1.4 0 3-1.1.7-2 .3-2-.9zm-2-5c0-.5.9-1.4 2-2.1s2-.3 2 .9c0 1.1-.9 2.1-2 2.1s-2-.4-2-.9zm4.6-4.1c-1.9-2.1-1.8-2.9.6-3.8 1.7-.6 2.5-.3 1.9.7-.6.9 0 2.1 1.3 2.6 1.4.4 1.6 1.3.5 1.9-1 .7-3 0-4.3-1.4zm20.9-19.3c1.2-1.2 3.3-1.8 4.8-1.3s.6 1.4-2.1 2.1c-3.4.9-4.1.6-2.7-.8zm57.6 38.2c3.6-4 3.5-4.5-1.7-20.5-3-9-7.4-19.6-9.8-23.4l-4.5-7-.7 5.6c-.4 3.1.3 6.8 1.5 8.3 1.6 1.9 1.4 3.2-.6 4.9-2.1 1.7-3.3 1.6-5.1-.6-1.6-1.9-1.7-3.3-.3-4.1 2.4-1.5 2.9-15.1.6-15.1-.8.1-7.1 8.6-13.9 18.9-11.3 17.1-12.1 19-8.6 20.1 2.2.7 4.8.7 5.8.1 2.1-1.3 1.6 7-.6 10.6-.8 1.3-3.9 2.4-6.8 2.5-3 .1-7.6.9-10.4 1.7-2.9.9 6.6 1.7 23.2 1.8 26 .3 28.5 0 31.9-3.8zM63.9 85c0-1.7.4-3 .8-3s1.3 1.3 1.9 3c.7 1.6.3 3-.8 3-1 0-1.9-1.4-1.9-3zm7-1c-.7-1.1-.3-2 .9-2 1.1 0 2.1.9 2.1 2s-.4 2-.9 2-1.4-.9-2.1-2zM114 95.9c10.9-16.6 14-22.6 12.3-24.3-1.3-1.3-2.7-1.9-3.1-1.5-6.2 7.3-29.1 44.5-28.3 46 2.5 3.9 4.7 1.5 19.1-20.2zM78 134c.8-1.7 2.2-5.7 3.2-9s3.6-6.8 5.9-7.8c4-1.8 13.8-14.8 12.3-16.3-.4-.5-4.1.1-8.3 1.3-6.6 1.8-8.2 3.5-13.2 14.4-8.3 18.1-9.2 21.9-4.9 21.1 1.9-.4 4.1-2.1 5-3.7zm6.3 1.6c-1.9-1.9-2.9-1.9-4.8 0s-1.3 2.4 2.4 2.4 4.3-.5 2.4-2.4zM96.9 90c.7-1.1 2.1-2 3.2-2s1.5.9.8 2-2.1 2-3.2 2-1.5-.9-.8-2zm40.5 36.3c1.9-2 3.9-3.4 4.3-3 1.2.9-4 6.7-6 6.7-1 0-.2-1.7 1.7-3.7zm-13.5-5.1c0-.4 1.4-1.3 3.1-2 1.8-.6 2.6-.3 1.9.8-1.2 1.9-5 2.8-5 1.2zm-4.9-16.3c-.7-3-.9-5.8-.4-6.2.4-.5 1.4 1.5 2.2 4.4.7 3 .9 5.8.4 6.2-.4.5-1.4-1.5-2.2-4.4zm-10.6 24.4c2.4-3.8 1.8-4.4-8-7.9-12.5-4.5-14.2-4.3-16.8 1.5-3.8 8.3.8 11.7 13.2 10 5.5-.8 10.8-2.4 11.6-3.6zM103.9 84c0-1.1.4-2 .9-2s1.4.9 2.1 2 .3 2-.9 2c-1.1 0-2.1-.9-2.1-2zm26.9 13.8c-.6-1-2-1.3-3.1-.7-1 .6-1.3 2-.7 3.1.6 1 2 1.3 3.1.7 1-.6 1.3-2 .7-3.1zM142.5 59c3-1.7 2.6-2.6-3.6-6.5l-7-4.5v4.5c0 2.6-1.4 6.7-3.2 9.1-1.7 2.5-2.6 6.1-1.9 7.9 1.1 2.7 2.1 2.3 6.8-2.6 3-3.3 7.1-6.8 8.9-7.9z"/></g></svg>