<svg xmlns="http://www.w3.org/2000/svg" xmlns:xlink="http://www.w3.org/1999/xlink" width="158" height="246" xmlns:v="https://vecta.io/nano"><style><![CDATA[.N{fill:#fe0000}.O{fill:#9b0000}.P{fill:#009800}.Q{stroke:#000}.R{stroke-width:.4}.S{fill-rule:evenodd}]]></style><path d="M32.2 231.7l3.7-4c2.6-2.8 3.9-7.3 4.6-15.1.8-10.2.6-11.2-3.3-13.8-6.8-1.9-3.4-2.1-10.2 0-3.9 2.6-4.2 3.6-3.3 13.8.7 8.1 1.9 12.1 4.7 15.1z" class="N Q R"/><path d="M32.2 230.7l3.7-3.5c2.7-2.6 3.9-6.5 4.6-14.6.8-10.2.6-11.2-3.3-13.8-1.8-1.2-3.8-2.5-4.5-4.3l-1.6-.1c-.7 1.8-2.1 3.3-4 4.6-7.2 4.7-5.9 8 3.2 8h7.9v8.1c0 5.2-1.1 9.6-3 11.9z" class="O"/><path d="M32.2 230.7l3.7-3.5c2.7-2.6 3.9-6.5 4.6-14.6.8-10.2.6-11.2-3.3-13.8-1.6-1.1-3.7-2.7-4.5-4.4l-1.5-.1c-.9 1.8-3 3.7-4.5 4.7-7 4.6-5.5 8 3.6 8h7.9v8.1c0 5.2-1.1 9.6-3 11.9z" class="P"/><path d="M31.5 228.4c.1-.2 3.6-1.5 3.7-1.7.1-.1-3.8.9-3.7.7s4.3-1.6 4.4-1.8-4.5.7-4.4.5c.1-.3 4.8-1.7 4.9-1.9.1-.3-5 .6-4.9.3.1-.2 5.4-1.7 5.5-2s-5.6.5-5.5.2 5.9-1.8 6-2.2c.1-.3-6 .2-6 .2l6.4-2.2c0-.4-6.4.2-6.4.2l6.7-2.3c.1-.4-6.7.1-6.7.1l7-2.3c.1-.4-7 .1-7 .1l7.2-2.3c.1-.4-7.2.1-7.2.1l7.4-2.3c0-.3-7.4.1-7.4.1l7.5-2.2s.1-5.3-1.3-7.6c-1.1-1.1-1.4-1.9-.9-1.9.6 0 1.8 1 2.8 2.2.9 1.2 1.3 7.1.8 13-.6 8.3-1.7 11.7-4.6 14.1-1.8 1.6-3.5 3.3-3.6 3.3 1.6-2.2 2.9-3.1-.7-2.4zm5.9-22.1c0-.2.2-.4.4-.4s.4.2.4.4-.2.4-.4.4-.4-.2-.4-.4zm-2.9-.3c0-.2.2-.4.4-.4s.4.2.4.4c0 .3-.2.5-.4.5s-.4-.2-.4-.5zm-3.5-.5c0-.2.2-.5.4-.5s.4.3.4.5-.2.4-.4.4-.4-.2-.4-.4zm-2.8-.2c0-.3.2-.5.4-.5a.47.47 0 0 1 .5.5c0 .2-.2.3-.5.3-.2 0-.4-.1-.4-.3zm-2.1 0c0-.3.1-.5.4-.5.2 0 .4.2.4.5 0 .2-.2.3-.4.3-.3 0-.4-.1-.4-.3zm10.6-.9c0-.2.2-.3.5-.3.2 0 .3.1.3.3 0 .3-.1.5-.3.5a.47.47 0 0 1-.5-.5zm-3-.1c0-.2.3-.4.5-.4s.4.2.4.4c0 .3-.2.5-.4.5s-.5-.2-.5-.5zm-9.1-.2c0-.3.3-.5.5-.5s.4.2.4.5c0 .2-.2.3-.4.3s-.5-.1-.5-.3zm2.3-.1c0-.2.2-.4.4-.4.3 0 .4.2.4.4s-.1.4-.4.4c-.2 0-.4-.2-.4-.4zm3.3-.3c0-.3.2-.5.4-.5a.47.47 0 0 1 .5.5c0 .2-.2.4-.5.4-.2 0-.4-.2-.4-.4zm2-.7c0-.3.2-.5.4-.5s.4.2.4.5c0 .2-.2.4-.4.4s-.4-.2-.4-.4zm1.9-.5c0-.2.2-.4.5-.4.2 0 .4.2.4.4 0 .3-.2.5-.4.5a.47.47 0 0 1-.5-.5zm2-.3c0-.2.2-.4.4-.4s.4.2.4.4c0 .3-.2.4-.4.4s-.4-.1-.4-.4zm-6.7-.1c0-.2.2-.4.5-.4.2 0 .3.2.3.4 0 .3-.1.4-.3.4-.3 0-.5-.1-.5-.4zm-4 0c0-.2.1-.4.3-.4.3 0 .5.2.5.4 0 .3-.2.4-.5.4-.2 0-.3-.1-.3-.4zm5.7-.5c0-.2.2-.4.5-.4.2 0 .3.2.3.4 0 .3-.1.4-.3.4-.3 0-.5-.1-.5-.4zm-3.1 0c0-.2.1-.4.4-.4.2 0 .4.2.4.4 0 .3-.2.4-.4.4-.3 0-.4-.1-.4-.4zm6.2-.6c0-.2.2-.4.4-.4.3 0 .4.2.4.4 0 .3-.1.4-.4.4-.2 0-.4-.1-.4-.4zm-5.7-1c0-.2.2-.3.4-.3.3 0 .5.1.5.3a.47.47 0 0 1-.5.5c-.2 0-.4-.2-.4-.5zm2.6-.6c0-.2.2-.4.4-.4s.4.2.4.4-.2.4-.4.4-.4-.2-.4-.4zm2.6-.3c0-.2.2-.4.4-.4.3 0 .4.2.4.4s-.1.4-.4.4c-.2 0-.4-.2-.4-.4zm-4.6-.4c0-.3.2-.5.4-.5a.47.47 0 0 1 .5.5c0 .2-.2.4-.5.4-.2 0-.4-.2-.4-.4zm2.3-1.2c0-.2.2-.4.4-.4.3 0 .5.2.5.4a.47.47 0 0 1-.5.5c-.2 0-.4-.2-.4-.5z" class="S"/><path d="M125.4 231.7l3.6-4c2.6-2.8 3.9-7.3 4.6-15.1.9-10.2.6-11.2-3.3-13.8-6.8-1.9-3.4-2.1-10.2 0-3.9 2.6-4.1 3.6-3.3 13.8.7 8.1 1.9 12.1 4.7 15.1z" class="N Q R"/><path d="M125.3 230.7l3.7-3.5c2.7-2.6 3.9-6.5 4.6-14.6.9-10.2.6-11.2-3.3-13.8-1.8-1.2-3.8-2.5-4.4-4.3l-1.7-.1c-.7 1.8-2.1 3.3-4 4.6-7.1 4.7-5.9 8 3.3 8h7.9v8.1c0 5.2-1.2 9.6-3.1 11.9z" class="O"/><path d="M125.3 230.7l3.7-3.5c2.7-2.6 3.9-6.5 4.6-14.6.9-10.2.6-11.2-3.3-13.8-1.6-1.1-3.7-2.7-4.4-4.4l-1.5-.1c-1 1.8-3.1 3.7-4.6 4.7-7 4.6-5.5 8 3.7 8h7.9v8.1c0 5.2-1.2 9.6-3.1 11.9z" class="P"/><path d="M124.6 228.4c.1-.2 3.7-1.5 3.8-1.7.1-.1-3.9.9-3.8.7s4.3-1.6 4.4-1.8-4.5.7-4.4.5c.1-.3 4.9-1.7 5-1.9.1-.3-5.1.6-5 .3.1-.2 5.4-1.7 5.5-2s-5.6.5-5.5.2 5.9-1.8 6-2.2c.1-.3-6 .2-6 .2l6.4-2.2c.1-.4-6.4.2-6.4.2l6.8-2.3c0-.4-6.8.1-6.8.1l7-2.3c.1-.4-7 .1-7 .1l7.3-2.3c0-.4-7.3.1-7.3.1l7.4-2.3c.1-.3-7.4.1-7.4.1l7.5-2.2s.1-5.3-1.3-7.6c-1-1.1-1.4-1.9-.9-1.9.6 0 1.8 1 2.8 2.2.9 1.2 1.3 7.1.9 13-.7 8.3-1.8 11.7-4.6 14.1-1.9 1.6-3.5 3.3-3.7 3.3 1.6-2.2 2.9-3.1-.7-2.4zm5.9-22.1c0-.2.2-.4.4-.4.3 0 .4.2.4.4s-.1.4-.4.4c-.2 0-.4-.2-.4-.4zm-2.9-.3c0-.2.2-.4.4-.4.3 0 .5.2.5.4a.47.47 0 0 1-.5.5c-.2 0-.4-.2-.4-.5zm-3.5-.5c0-.2.2-.5.4-.5s.5.3.5.5-.3.4-.5.4-.4-.2-.4-.4zm-2.8-.2a.47.47 0 0 1 .5-.5c.2 0 .4.2.4.5 0 .2-.2.3-.4.3-.3 0-.5-.1-.5-.3zm-2.1 0c0-.3.1-.5.4-.5.2 0 .4.2.4.5 0 .2-.2.3-.4.3-.3 0-.4-.1-.4-.3zm10.6-.9c0-.2.2-.3.5-.3.2 0 .4.1.4.3 0 .3-.2.5-.4.5a.47.47 0 0 1-.5-.5zm-2.9-.1c0-.2.2-.4.4-.4s.5.2.5.4c0 .3-.3.5-.5.5s-.4-.2-.4-.5zm-9.1-.2c0-.3.2-.5.4-.5s.4.2.4.5c0 .2-.2.3-.4.3s-.4-.1-.4-.3zm2.2-.1c0-.2.2-.4.5-.4.2 0 .3.2.3.4s-.1.4-.3.4c-.3 0-.5-.2-.5-.4zm3.3-.3c0-.3.2-.5.4-.5a.47.47 0 0 1 .5.5c0 .2-.2.4-.5.4-.2 0-.4-.2-.4-.4zm2-.7c0-.3.2-.5.4-.5a.47.47 0 0 1 .5.5c0 .2-.2.4-.5.4-.2 0-.4-.2-.4-.4zm2-.5c0-.2.2-.4.4-.4s.4.2.4.4c0 .3-.2.5-.4.5s-.4-.2-.4-.5zm1.9-.3c0-.2.2-.4.4-.4s.4.2.4.4c0 .3-.2.4-.4.4s-.4-.1-.4-.4zm-6.7-.1c0-.2.2-.4.5-.4.2 0 .4.2.4.4 0 .3-.2.4-.4.4-.3 0-.5-.1-.5-.4zm-4 0c0-.2.1-.4.4-.4.2 0 .4.2.4.4 0 .3-.2.4-.4.4-.3 0-.4-.1-.4-.4zm5.7-.5c0-.2.2-.4.5-.4.2 0 .4.2.4.4 0 .3-.2.4-.4.4-.3 0-.5-.1-.5-.4zm-3.1 0c0-.2.2-.4.4-.4s.4.2.4.4c0 .3-.2.4-.4.4s-.4-.1-.4-.4zm6.2-.6c0-.2.2-.4.5-.4.2 0 .3.2.3.4 0 .3-.1.4-.3.4-.3 0-.5-.1-.5-.4zm-5.6-1c0-.2.1-.3.3-.3.3 0 .5.1.5.3a.47.47 0 0 1-.5.5c-.2 0-.3-.2-.3-.5zm2.5-.6c0-.2.2-.4.4-.4.3 0 .4.2.4.4s-.1.4-.4.4c-.2 0-.4-.2-.4-.4zm2.6-.3c0-.2.2-.4.5-.4.2 0 .3.2.3.4s-.1.4-.3.4c-.3 0-.5-.2-.5-.4zm-4.5-.4c0-.3.1-.5.4-.5.2 0 .4.2.4.5 0 .2-.2.4-.4.4-.3 0-.4-.2-.4-.4zm2.2-1.2c0-.2.2-.4.5-.4.2 0 .4.2.4.4 0 .3-.2.5-.4.5a.47.47 0 0 1-.5-.5z" class="S"/><path d="M125.4 14.5l-3.7 4c-2.5 2.9-3.9 7.3-4.5 15.1-.9 10.2-.6 11.3 3.3 13.8 6.8 1.9 3.4 2.1 10.2 0 3.9-2.5 4.1-3.6 3.3-13.8-.7-8.1-1.9-12.1-4.8-15.1z" class="N Q R"/><path d="M125.5 15.5l-3.7 3.5c-2.7 2.6-3.9 6.5-4.6 14.6-.9 10.2-.6 11.3 3.3 13.8 1.8 1.2 3.8 2.5 4.4 4.3l1.7.1c.6-1.8 2.1-3.3 4-4.6 7.1-4.7 5.9-8-3.3-8h-7.9v-8.1c0-5.2 1.2-9.6 3-11.9z" class="O"/><path d="M125.5 15.5l-3.7 3.5c-2.7 2.6-3.9 6.5-4.6 14.6-.9 10.2-.6 11.3 3.3 13.8 1.6 1.1 3.6 2.7 4.4 4.4l1.5.1c1-1.8 3-3.6 4.5-4.6 7.1-4.7 5.5-8.1-3.6-8.1h-7.9v-8.1c0-5.2 1.2-9.6 3-11.9z" class="P"/><path d="M126.2 17.8c-.2.2-3.7 1.5-3.8 1.7-.1.1 3.9-.9 3.8-.7s-4.3 1.6-4.4 1.8 4.4-.7 4.4-.5c-.1.3-4.9 1.7-5 2-.1.2 5-.7 5-.4-.1.3-5.4 1.8-5.5 2.1s5.5-.6 5.5-.3c-.1.3-6 1.9-6 2.2-.1.3 6-.2 6-.2l-6.4 2.2c-.1.4 6.4-.2 6.4-.2l-6.8 2.4c0 .3 6.8-.2 6.8-.2l-7.1 2.3c0 .4 7.1-.1 7.1-.1l-7.3 2.3c0 .4 7.3-.1 7.3-.1l-7.5 2.3c0 .3 7.5-.1 7.5-.1l-7.5 2.2s-.1 5.3 1.3 7.6c1 1.1 1.4 1.9.8 1.9-.5 0-1.8-1-2.7-2.2-1-1.2-1.4-7-.9-13 .7-8.3 1.8-11.7 4.6-14.1 1.9-1.5 3.5-3.3 3.6-3.3-1.5 2.2-2.8 3.2.8 2.4zm-5.9 22.1c0 .2-.2.4-.5.4-.2 0-.3-.2-.3-.4s.1-.4.3-.4c.3 0 .5.2.5.4zm2.9.3c0 .2-.2.4-.4.4-.3 0-.5-.2-.5-.4a.47.47 0 0 1 .5-.5c.2 0 .4.2.4.5zm3.4.5c0 .3-.1.5-.3.5a.47.47 0 0 1-.5-.5c0-.2.2-.4.5-.4.2 0 .3.2.3.4zm2.8.2c0 .3-.2.5-.4.5s-.4-.2-.4-.5c0-.2.2-.3.4-.3s.4.1.4.3zm2.2 0c0 .3-.2.5-.4.5s-.4-.2-.4-.5c0-.2.2-.3.4-.3s.4.1.4.3zm-10.7.9c0 .2-.2.4-.4.4s-.4-.2-.4-.4c0-.3.2-.5.4-.5s.4.2.4.5zm3 .1c0 .2-.2.4-.4.4-.3 0-.5-.2-.5-.4a.47.47 0 0 1 .5-.5c.2 0 .4.2.4.5zm9.1.3c0 .2-.2.4-.4.4-.3 0-.5-.2-.5-.4 0-.3.2-.4.5-.4.2 0 .4.1.4.4zm-2.2 0c0 .2-.2.4-.5.4-.2 0-.4-.2-.4-.4s.2-.4.4-.4c.3 0 .5.2.5.4zm-3.3.3a.47.47 0 0 1-.5.5c-.2 0-.4-.2-.4-.5 0-.2.2-.4.4-.4.3 0 .5.2.5.4zm-2.1.8c0 .2-.1.4-.3.4-.3 0-.5-.2-.5-.4a.47.47 0 0 1 .5-.5c.2 0 .3.2.3.5zm-1.9.4c0 .2-.2.4-.4.4s-.4-.2-.4-.4.2-.4.4-.4.4.2.4.4zm-1.9.3c0 .2-.2.4-.4.4-.3 0-.4-.2-.4-.4 0-.3.1-.4.4-.4.2 0 .4.1.4.4zm6.6.1c0 .2-.2.4-.4.4s-.4-.2-.4-.4c0-.3.2-.4.4-.4s.4.1.4.4zm4.1 0c0 .2-.2.4-.4.4s-.4-.2-.4-.4c0-.3.2-.4.4-.4s.4.1.4.4zm-5.8.5c0 .2-.2.4-.4.4s-.4-.2-.4-.4c0-.3.2-.4.4-.4s.4.1.4.4zm3.2 0c0 .2-.2.4-.4.4-.3 0-.5-.2-.5-.4 0-.3.2-.4.5-.4.2 0 .4.1.4.4zm-6.2.6c0 .2-.2.4-.5.4-.2 0-.4-.2-.4-.4 0-.3.2-.4.4-.4.3 0 .5.1.5.4zm5.6 1c0 .2-.1.3-.4.3-.2 0-.4-.1-.4-.3 0-.3.2-.5.4-.5.3 0 .4.2.4.5zm-2.5.6c0 .3-.2.5-.4.5-.3 0-.4-.2-.4-.5 0-.2.1-.4.4-.4.2 0 .4.2.4.4zm-2.6.3c0 .2-.2.4-.5.4-.2 0-.4-.2-.4-.4s.2-.4.4-.4c.3 0 .5.2.5.4zm4.5.4c0 .3-.1.5-.4.5-.2 0-.4-.2-.4-.5 0-.2.2-.4.4-.4.3 0 .4.2.4.4zm-2.2 1.2c0 .2-.2.4-.5.4-.2 0-.4-.2-.4-.4s.2-.5.4-.5c.3 0 .5.3.5.5z" class="S"/><path d="M32.3 14.5l-3.7 4c-2.6 2.9-3.9 7.3-4.5 15.1-.9 10.2-.7 11.3 3.2 13.8 6.9 1.9 3.4 2.1 10.2 0 4-2.5 4.2-3.6 3.3-13.8-.6-8.1-1.9-12.1-4.7-15.1z" class="N Q R"/><path d="M32.3 15.5L28.7 19c-2.7 2.6-4 6.5-4.6 14.6-.9 10.2-.7 11.3 3.2 13.8 1.9 1.2 3.9 2.5 4.5 4.3l1.7.1c.6-1.8 2-3.3 4-4.6 7.1-4.7 5.9-8-3.3-8h-7.9v-8.1c0-5.2 1.1-9.6 3-11.9z" class="O"/><path d="M32.3 15.5L28.7 19c-2.7 2.6-4 6.5-4.6 14.6-.9 10.2-.7 11.3 3.2 13.8 1.7 1.1 3.7 2.7 4.5 4.4l1.5.1c.9-1.8 3-3.6 4.5-4.6 7.1-4.7 5.5-8.1-3.6-8.1h-7.9v-8.1c0-5.2 1.1-9.6 3-11.9z" class="P"/><g class="S"><path d="M33 17.8c-.1.2-3.6 1.5-3.7 1.7-.1.1 3.8-.9 3.7-.7s-4.3 1.6-4.4 1.8 4.5-.7 4.4-.5c-.1.3-4.8 1.7-4.9 2-.1.2 5-.7 4.9-.4s-5.4 1.8-5.5 2.1c0 .3 5.6-.6 5.5-.3s-5.9 1.9-6 2.2c0 .3 6-.2 6-.2l-6.3 2.2c-.1.4 6.3-.2 6.3-.2s-6.7 2-6.7 2.4c-.1.3 6.7-.2 6.7-.2L26 32c0 .4 7-.1 7-.1l-7.2 2.3c0 .4 7.2-.1 7.2-.1s-7.4 1.9-7.4 2.3c0 .3 7.4-.1 7.4-.1l-7.4 2.2s-.1 5.3 1.2 7.6c1.1 1.1 1.5 1.9.9 1.9s-1.8-1-2.7-2.2c-1-1.2-1.4-7-.9-13 .6-8.3 1.7-11.7 4.6-14.1 1.8-1.5 3.5-3.3 3.6-3.3-1.5 2.2-2.8 3.2.7 2.4zm-5.8 22.1c0 .2-.2.4-.5.4-.2 0-.4-.2-.4-.4s.2-.4.4-.4c.3 0 .5.2.5.4zm2.9.3c0 .2-.2.4-.5.4-.2 0-.4-.2-.4-.4 0-.3.2-.5.4-.5a.47.47 0 0 1 .5.5zm3.4.5c0 .3-.1.5-.4.5-.2 0-.4-.2-.4-.5 0-.2.2-.4.4-.4.3 0 .4.2.4.4zm2.8.2c0 .3-.2.5-.4.5a.47.47 0 0 1-.5-.5c0-.2.2-.3.5-.3.2 0 .4.1.4.3zm2.2 0c0 .3-.2.5-.4.5a.47.47 0 0 1-.5-.5c0-.2.2-.3.5-.3.2 0 .4.1.4.3zm-10.7.9c0 .2-.2.4-.4.4-.3 0-.4-.2-.4-.4 0-.3.1-.5.4-.5.2 0 .4.2.4.5zm3 .1c0 .2-.2.4-.5.4-.2 0-.4-.2-.4-.4 0-.3.2-.5.4-.5a.47.47 0 0 1 .5.5zm9.1.3c0 .2-.2.4-.5.4-.2 0-.4-.2-.4-.4 0-.3.2-.4.4-.4.3 0 .5.1.5.4zm-2.3 0c0 .2-.2.4-.4.4s-.4-.2-.4-.4.2-.4.4-.4.4.2.4.4zm-3.3.3c0 .3-.2.5-.4.5s-.4-.2-.4-.5c0-.2.2-.4.4-.4s.4.2.4.4zm-2 .8c0 .2-.1.4-.4.4-.2 0-.4-.2-.4-.4 0-.3.2-.5.4-.5.3 0 .4.2.4.5zm-1.9.4c0 .2-.2.4-.4.4-.3 0-.4-.2-.4-.4s.1-.4.4-.4c.2 0 .4.2.4.4zm-1.9.3c0 .2-.2.4-.5.4-.2 0-.3-.2-.3-.4 0-.3.1-.4.3-.4.3 0 .5.1.5.4zm6.6.1c0 .2-.2.4-.4.4-.3 0-.4-.2-.4-.4 0-.3.1-.4.4-.4.2 0 .4.1.4.4zm4.1 0c0 .2-.2.4-.4.4s-.5-.2-.5-.4c0-.3.3-.4.5-.4s.4.1.4.4zm-5.8.5c0 .2-.2.4-.4.4-.3 0-.4-.2-.4-.4 0-.3.1-.4.4-.4.2 0 .4.1.4.4zm3.1 0c0 .2-.1.4-.3.4-.3 0-.5-.2-.5-.4 0-.3.2-.4.5-.4.2 0 .3.1.3.4zm-6.2.6c0 .2-.2.4-.4.4s-.4-.2-.4-.4c0-.3.2-.4.4-.4s.4.1.4.4zm5.7 1c0 .2-.2.3-.4.3s-.4-.1-.4-.3c0-.3.2-.5.4-.5s.4.2.4.5zm-2.5.6a.47.47 0 0 1-.5.5c-.2 0-.4-.2-.4-.5 0-.2.2-.4.4-.4.3 0 .5.2.5.4zm-2.7.3c0 .2-.2.4-.4.4s-.4-.2-.4-.4.2-.4.4-.4.4.2.4.4zm4.6.4c0 .3-.2.5-.4.5s-.4-.2-.4-.5c0-.2.2-.4.4-.4s.4.2.4.4zm-2.3 1.2c0 .2-.2.4-.4.4s-.4-.2-.4-.4.2-.5.4-.5.4.3.4.5z"/><path d="M70.2 239c0-1-3.4-1.8-7.5-1.8-10.8 0-16.9-7.4-10.9-13.4 2-2 2.4-4.9 1.5-12.6-.7-5.5-1.8-10.3-2.7-10.6-.8-.3-1.4-2.1-1.4-3.9 0-4.2-4.5-4.5-6.8-.4-1.6 2.7-2 2.6-5.3-1.3-2.6-3.1-3.6-6.9-3.7-13.3 0-8-.9-10-8.7-19.7-8.6-10.8-13.6-21.6-11.5-25 1.8-2.9-1-12.2-3.7-12.2-1.4 0-2.5-.8-2.5-1.8s1.2-1.8 2.5-1.8c4.6 0 5-6.8 1-15.3-3.3-7.1-3.5-8.6-1.4-12.5 1.3-2.4 3.7-4.7 5.4-5.1 3-.8 4.4-5.7 1.6-5.7-.7 0-2.9-1.1-4.7-2.4-3.1-2.3-3-2.6 2.3-5.3 3.1-1.6 5.6-4 5.6-5.2s1.1-3.8 2.5-5.7c2.4-3.2 2.7-3.1 5.3 3.2l2.8 6.7 7.4-4c4.1-2.2 7.9-4.5 8.3-5 .5-.6 2.3-1.5 4-2.2 1.8-.6 3.1-2.9 3.1-5.7 0-2.5 1.2-5.7 2.6-7.2 1.4-1.4 2.6-5.3 2.6-8.5s.8-6.1 1.7-6.5c3.2-1.1 4-9.6 1.1-12.5-6.1-6.1-.2-13.5 10.8-13.5C75.6 8.8 79 8 79 7c0-.9 2-1.7 4.4-1.7s4.4.8 4.4 1.7c0 1 3.4 1.8 7.5 1.8 10.8 0 16.9 7.4 10.9 13.4-2 2-2.4 4.9-1.5 12.6.7 5.5 1.8 10.3 2.7 10.6.8.3 1.4 2.1 1.4 3.9 0 4.2 4.5 4.5 6.8.4 1.6-2.7 2-2.6 5.3 1.3 2.6 3.1 3.6 6.9 3.7 13.3 0 8 .9 10 8.7 19.7 8.6 10.8 13.6 21.6 11.5 25-1.8 2.9 1 12.2 3.7 12.2 1.4 0 2.5.8 2.5 1.8s-1.2 1.8-2.5 1.8c-4.6 0-5 6.8-1 15.3 3.3 7.1 3.5 8.6 1.4 12.5-1.3 2.4-3.7 4.7-5.4 5.1-3 .8-4.4 5.7-1.6 5.7.7 0 2.9 1.1 4.7 2.4 3.1 2.3 3 2.6-2.3 5.3-3.1 1.6-5.6 4-5.6 5.2s-1.1 3.8-2.5 5.7c-2.4 3.2-2.7 3.1-5.3-3.2l-2.8-6.7-7.4 4c-4.1 2.2-7.9 4.5-8.3 5-.5.6-2.3 1.5-4 2.2-1.8.6-3.1 2.9-3.1 5.7 0 2.5-1.2 5.7-2.6 7.2-1.4 1.4-2.6 5.3-2.6 8.5s-.8 6.1-1.7 6.5c-3.2 1.1-4 9.6-1.1 12.5 6.1 6.1.2 13.5-10.8 13.5-4.1 0-7.5.8-7.5 1.8 0 .9-2 1.7-4.4 1.7s-4.4-.8-4.4-1.7zm-2.5-7.1c1.4 0 2.5-1.1 2.5-2.4 0-1.4 1-2.9 2.2-3.4 1.4-.6 1.1-1-.7-1-1.7-.1-4 .9-5.4 2.2-1.9 2-2.7 1.9-4.9-.4-2.3-2.5-2.6-2.5-3.1.3-.6 3.1-3 4-4.3 1.7-.4-.8-.6-.6-.5.4.2 1 2.2 1.9 4.5 2s4.5 1.3 5 2.6c.6 1.8 1 1.9 1.5.2.4-1.2 1.9-2.2 3.2-2.2zm23.7-.6c2.2-.1 4.1-1 4.3-2 .1-1-.1-1.2-.5-.4-1.3 2.3-3.6 1.4-4.2-1.7-.6-2.8-.9-2.8-3.2-.3-2.1 2.3-2.9 2.4-4.9.4-1.3-1.3-3.7-2.3-5.3-2.2-1.9 0-2.2.4-.8 1 1.2.5 2.2 2 2.2 3.4 0 1.3 1.2 2.4 2.6 2.4 1.5 0 2.7 1 2.7 2.2 0 1.6.4 1.6 1.6-.2.8-1.3 3.3-2.5 5.5-2.6zM72 17.3c0-1 1.2-.5 2.7 1 1.6 1.5 4.1 2.7 5.7 2.6 1.9 0 2.2-.4.8-1-1.2-.5-2.2-2-2.2-3.4 0-1.3-1.2-2.4-2.6-2.4-1.5 0-2.7-1-2.7-2.2 0-1.6-.4-1.6-1.6.2-.8 1.3-3.3 2.5-5.5 2.6s-4.1 1-4.3 2c-.1 1 .1 1.2.5.4 1.2-2.3 3.9-1.4 3.9 1.3 0 1.6 1 2.2 2.6 1.6 1.5-.6 2.7-1.8 2.7-2.7zm19.7 1.4c1.9-2 2.7-1.9 4.9.4 2.3 2.5 2.6 2.5 3.1-.3.6-3.1 3-4 4.3-1.7.4.8.6.6.5-.4-.2-1-2.1-1.9-4.3-2s-4.7-1.3-5.6-2.6c-1.1-1.8-1.5-1.8-1.5-.2 0 1.2-1.2 2.2-2.7 2.2-1.4 0-2.6 1.1-2.6 2.4 0 1.4-1 2.9-2.2 3.4-1.4.6-1.1 1 .7 1 1.7.1 4-.9 5.4-2.2z" fill="#fec9cc"/><path d="M70.2 239c0-1-3.4-1.8-7.5-1.8-10.8 0-16.9-7.4-10.9-13.4 2-2 2.4-4.9 1.5-12.6-.7-5.5-1.8-10.3-2.7-10.6-.8-.3-1.4-2.1-1.4-3.9 0-4.2-4.5-4.5-6.8-.4-1.6 2.7-2 2.6-5.3-1.3-2.6-3.1-3.6-6.9-3.7-13.3 0-8-.9-10-8.7-19.7-8.6-10.8-13.6-21.6-11.5-25 1.8-2.9-1-12.2-3.7-12.2-1.4 0-2.5-.8-2.5-1.8s1.2-1.8 2.5-1.8c4.6 0 5-6.8 1-15.3-3.3-7.1-3.5-8.6-1.4-12.5 1.3-2.4 3.7-4.7 5.4-5.1 3-.8 4.4-5.7 1.6-5.7-.7 0-2.9-1.1-4.7-2.4-3.1-2.3-3-2.6 2.3-5.3 3.1-1.6 5.6-4 5.6-5.2s1.1-3.8 2.5-5.7c2.4-3.2 2.7-3.1 5.3 3.2l2.8 6.7 7.4-4c4.1-2.2 7.9-4.5 8.3-5 .5-.6 2.3-1.5 4-2.2 1.8-.6 3.1-2.9 3.1-5.7 0-2.5 1.2-5.7 2.6-7.2 1.4-1.4 2.6-5.3 2.6-8.5s.8-6.1 1.7-6.5c3.2-1.1 4-9.6 1.1-12.5-6.1-6.1-.2-13.5 10.8-13.5C75.6 8.8 79 8 79 7c0-.9 2-1.7 4.4-1.7s4.4.8 4.4 1.7c0 1 3.4 1.8 7.5 1.8 10.8 0 16.9 7.4 10.9 13.4-2 2-2.4 4.9-1.5 12.6.7 5.5 1.8 10.3 2.7 10.6.8.3 1.4 2.1 1.4 3.9 0 4.2 4.5 4.5 6.8.4 1.6-2.7 2-2.6 5.3 1.3 2.6 3.1 3.6 6.9 3.7 13.3 0 8 .9 10 8.7 19.7 8.6 10.8 13.6 21.6 11.5 25-1.8 2.9 1 12.2 3.7 12.2 1.4 0 2.5.8 2.5 1.8s-1.2 1.8-2.5 1.8c-4.6 0-5 6.8-1 15.3 3.3 7.1 3.5 8.6 1.4 12.5-1.3 2.4-3.7 4.7-5.4 5.1-3 .8-4.4 5.7-1.6 5.7.7 0 2.9 1.1 4.7 2.4 3.1 2.3 3 2.6-2.3 5.3-3.1 1.6-5.6 4-5.6 5.2s-1.1 3.8-2.5 5.7c-2.4 3.2-2.7 3.1-5.3-3.2l-2.8-6.7-7.4 4c-4.1 2.2-7.9 4.5-8.3 5-.5.6-2.3 1.5-4 2.2-1.8.6-3.1 2.9-3.1 5.7 0 2.5-1.2 5.7-2.6 7.2-1.4 1.4-2.6 5.3-2.6 8.5s-.8 6.1-1.7 6.5c-3.2 1.1-4 9.6-1.1 12.5 6.1 6.1.2 13.5-10.8 13.5-4.1 0-7.5.8-7.5 1.8 0 .9-2 1.7-4.4 1.7s-4.4-.8-4.4-1.7zm-2.5-7.1c1.4 0 2.5-1.1 2.5-2.4 0-1.4 1-2.9 2.2-3.4 1.4-.6 1.1-1-.7-1-1.7-.1-4 .9-5.4 2.2-1.9 2-2.7 1.9-4.9-.4-2.3-2.5-2.6-2.5-3.1.3-.6 3.1-3 4-4.3 1.7-.4-.8-.6-.6-.5.4.2 1 2.2 1.9 4.5 2s4.5 1.3 5 2.6c.6 1.8 1 1.9 1.5.2.4-1.2 1.9-2.2 3.2-2.2zm23.7-.6c2.2-.1 4.1-1 4.3-2 .1-1-.1-1.2-.5-.4-1.3 2.3-3.6 1.4-4.2-1.7-.6-2.8-.9-2.8-3.2-.3-2.1 2.3-2.9 2.4-4.9.4-1.3-1.3-3.7-2.3-5.3-2.2-1.9 0-2.2.4-.8 1 1.2.5 2.2 2 2.2 3.4 0 1.3 1.2 2.4 2.6 2.4 1.5 0 2.7 1 2.7 2.2 0 1.6.4 1.6 1.6-.2.8-1.3 3.3-2.5 5.5-2.6zm1-20c3.3-4.4 2.9-15-.7-21.4-3-5.3-5.7-7-5.7-3.6 0 .9-2.3 1.7-5.2 1.7s-5.3-.8-5.3-1.7c0-2.6-4.8-2.2-5.9.4-.7 1.7-.9 1.7-1-.1-.1-1.2 1.2-2.7 2.9-3.4 1.7-.6 4.2-2.2 5.4-3.4 3-3 6.8-3 8.6.1 2.1 3.5 9.3 5.4 9.3 2.5 0-3.3-9.2-8.4-14.9-8.4-4.4 0-14.8 4.8-15.1 6.9-.6 5-.8 29.6-.2 31.3.5 1.5 4.8 2.2 13.1 2.2 9.7 0 12.8-.7 14.7-3.1zm-22.8-3.1c.5-1.4 2.1-2.6 3.4-2.6 1.4 0 2.5 1.2 2.5 2.6 0 1.5-1.6 2.7-3.5 2.7-2.3 0-3.1-.9-2.4-2.7zm10.6 1.5c-2-2-1.3-9.1 1-10.5 1.5-.9.8-1.8-2.2-2.6l-4.4-1.2 4.8-.2c3.2-.1 4.9.7 4.9 2.5 0 1.4-.8 2.6-1.8 2.6s-1.7 2-1.7 4.4.7 4.4 1.7 4.4a1.79 1.79 0 0 0 1.8-1.8c0-.9 1.2-1.7 2.6-1.7a2.65 2.65 0 0 1 2.6 2.6c0 2.7-7 3.8-9.3 1.5zm-3.4-19.3c1.2-.5 3.5-.5 5.2-.1 1.7.5.8.9-2.1.9s-4.3-.3-3.1-.8zm-30.5-48.5c2.8-4.5-.2-8.3-9-11.2-6.6-2.3-7.9-2.2-11.8.4-4.7 3-4.7 3.1 2.4 11.8 3.4 4.1 15.7 3.4 18.4-1zm-13.9-1.5c-1.8-2.9 1.8-5.5 6.5-4.6 3.8.7 3.7.8-.7 1-5.4.3-6.5 3.1-1.8 4.3 2.8.7 2.8.8.1 1-1.6.1-3.5-.6-4.1-1.7zm110.2-7.2c-1-4-9.6-4.3-13.4-.4-1.6 1.5-2.8 2.9-2.8 3.2 0 .2 3.8.4 8.5.4 7.4 0 8.4-.5 7.7-3.2zm-9.6-18.6l4-3.1-4.9-5.8c-4.2-5-5.7-5.7-11.7-5.2-12.6 1-13.2 10.2-1 14.6 8.3 3 9.1 3 13.6-.5zm-12.3-5.2c4.3-.8 5.3-3.3 1.8-4.5-1.3-.4-1.1-.6.4-.5 4.6.3 3 5.4-1.8 5.6-3.8.1-3.8.1-.4-.6zm-91.9 3.8c1.6-1.5 2.8-2.9 2.8-3.2 0-.2-3.8-.4-8.5-.4-7.4 0-8.4.5-7.7 3.2 1 4 9.6 4.3 13.4.4zM87.9 69c2.9-1.6 5.2-3.4 5.3-3.9.6-5 .8-29.6.2-31.3-.5-1.5-4.8-2.2-13.1-2.2-9.7 0-12.8.7-14.7 3.1-3.3 4.4-2.9 15 .7 21.4 3 5.3 5.7 7 5.7 3.6 0-.9 2.3-1.7 5.2-1.7s5.3.8 5.3 1.7c0 2.6 4.8 2.2 5.9-.4.7-1.7.9-1.7 1 .1.1 1.2-1.2 2.7-2.9 3.4-1.7.6-4.2 2.2-5.4 3.4-3 3-6.8 3-8.6-.1-.8-1.3-3.2-2.9-5.3-3.6-5.8-1.8-5.2 2.7.8 6.5 6.2 3.8 13.5 3.8 19.9 0zM75 55.1c1.2-.5 3.6-.5 5.3-.1 1.7.5.7.9-2.2.9s-4.3-.3-3.1-.8zm-1.3-6.8c0-1.4.8-2.6 1.8-2.6s1.7-2 1.7-4.4-.7-4.4-1.7-4.4a1.79 1.79 0 0 0-1.8 1.8c0 .9-1.2 1.7-2.6 1.7s-2.6-1.2-2.6-2.7c0-2 1.3-2.6 4.8-2.2 5.3.6 7.6 6.7 4 11-1.6 1.9-1.2 2.6 2 3.2 3.6.7 3.6.8-.7 1q-4.9.3-4.9-2.4zm8.8-10.5c0-1.5 1.6-2.7 3.5-2.7 2.3 0 3.1.9 2.4 2.7-.5 1.4-2.1 2.6-3.4 2.6-1.4 0-2.5-1.2-2.5-2.6zM72 17.3c0-1 1.2-.5 2.7 1 1.6 1.5 4.1 2.7 5.7 2.6 1.9 0 2.2-.4.8-1-1.2-.5-2.2-2-2.2-3.4 0-1.3-1.2-2.4-2.6-2.4-1.5 0-2.7-1-2.7-2.2 0-1.6-.4-1.6-1.6.2-.8 1.3-3.3 2.5-5.5 2.6s-4.1 1-4.3 2c-.1 1 .1 1.2.5.4 1.2-2.3 3.9-1.4 3.9 1.3 0 1.6 1 2.2 2.6 1.6 1.5-.6 2.7-1.8 2.7-2.7zm19.7 1.4c1.9-2 2.7-1.9 4.9.4 2.3 2.5 2.6 2.5 3.1-.3.6-3.1 3-4 4.3-1.7.4.8.6.6.5-.4-.2-1-2.1-1.9-4.3-2s-4.7-1.3-5.6-2.6c-1.1-1.8-1.5-1.8-1.5-.2 0 1.2-1.2 2.2-2.7 2.2-1.4 0-2.6 1.1-2.6 2.4 0 1.4-1 2.9-2.2 3.4-1.4.6-1.1 1 .7 1 1.7.1 4-.9 5.4-2.2z" fill="#ccc9cc"/><path d="M70.2 239c0-1-3.4-1.8-7.5-1.8-10.8 0-16.9-7.4-10.9-13.4 2-2 2.4-4.9 1.5-12.6-.7-5.5-1.8-10.3-2.7-10.6-.8-.3-1.4-2.1-1.4-3.9 0-4.2-4.5-4.5-6.8-.4-1.6 2.7-2 2.6-5.3-1.3-2.6-3.1-3.6-6.9-3.7-13.3 0-8-.9-10-8.7-19.7-8.6-10.8-13.6-21.6-11.5-25 1.8-2.9-1-12.2-3.7-12.2-1.4 0-2.5-.8-2.5-1.8s1.2-1.8 2.5-1.8c4.6 0 5-6.8 1-15.3-3.3-7.1-3.5-8.6-1.4-12.5 1.3-2.4 3.7-4.7 5.4-5.1 3-.8 4.4-5.7 1.6-5.7-.7 0-2.9-1.1-4.7-2.4-3.1-2.3-3-2.6 2.3-5.3 3.1-1.6 5.6-4 5.6-5.2s1.1-3.8 2.5-5.7c2.4-3.2 2.7-3.1 5.3 3.2l2.8 6.7 7.4-4c4.1-2.2 7.9-4.5 8.3-5 .5-.6 2.3-1.5 4-2.2 1.8-.6 3.1-2.9 3.1-5.7 0-2.5 1.2-5.7 2.6-7.2 1.4-1.4 2.6-5.3 2.6-8.5s.8-6.1 1.7-6.5c3.2-1.1 4-9.6 1.1-12.5-6.1-6.1-.2-13.5 10.8-13.5C75.6 8.8 79 8 79 7c0-.9 2-1.7 4.4-1.7s4.4.8 4.4 1.7c0 1 3.4 1.8 7.5 1.8 10.8 0 16.9 7.4 10.9 13.4-2 2-2.4 4.9-1.5 12.6.7 5.5 1.8 10.3 2.7 10.6.8.3 1.4 2.1 1.4 3.9 0 4.2 4.5 4.5 6.8.4 1.6-2.7 2-2.6 5.3 1.3 2.6 3.1 3.6 6.9 3.7 13.3 0 8 .9 10 8.7 19.7 8.6 10.8 13.6 21.6 11.5 25-1.8 2.9 1 12.2 3.7 12.2 1.4 0 2.5.8 2.5 1.8s-1.2 1.8-2.5 1.8c-4.6 0-5 6.8-1 15.3 3.3 7.1 3.5 8.6 1.4 12.5-1.3 2.4-3.7 4.7-5.4 5.1-3 .8-4.4 5.7-1.6 5.7.7 0 2.9 1.1 4.7 2.4 3.1 2.3 3 2.6-2.3 5.3-3.1 1.6-5.6 4-5.6 5.2s-1.1 3.8-2.5 5.7c-2.4 3.2-2.7 3.1-5.3-3.2l-2.8-6.7-7.4 4c-4.1 2.2-7.9 4.5-8.3 5-.5.6-2.3 1.5-4 2.2-1.8.6-3.1 2.9-3.1 5.7 0 2.5-1.2 5.7-2.6 7.2-1.4 1.4-2.6 5.3-2.6 8.5s-.8 6.1-1.7 6.5c-3.2 1.1-4 9.6-1.1 12.5 6.1 6.1.2 13.5-10.8 13.5-4.1 0-7.5.8-7.5 1.8 0 .9-2 1.7-4.4 1.7s-4.4-.8-4.4-1.7zm-2.5-7.1c1.4 0 2.5-1.1 2.5-2.4 0-1.4 1-2.9 2.2-3.4 1.4-.6 1.1-1-.7-1-1.7-.1-4 .9-5.4 2.2-1.9 2-2.7 1.9-4.9-.4-2.3-2.5-2.6-2.5-3.1.3-.6 3.1-3 4-4.3 1.7-.4-.8-.6-.6-.5.4.2 1 2.2 1.9 4.5 2s4.5 1.3 5 2.6c.6 1.8 1 1.9 1.5.2.4-1.2 1.9-2.2 3.2-2.2zm23.7-.6c2.2-.1 4.1-1 4.3-2 .1-1-.1-1.2-.5-.4-1.3 2.3-3.6 1.4-4.2-1.7-.6-2.8-.9-2.8-3.2-.3-2.1 2.3-2.9 2.4-4.9.4-1.3-1.3-3.7-2.3-5.3-2.2-1.9 0-2.2.4-.8 1 1.2.5 2.2 2 2.2 3.4 0 1.3 1.2 2.4 2.6 2.4 1.5 0 2.7 1 2.7 2.2 0 1.6.4 1.6 1.6-.2.8-1.3 3.3-2.5 5.5-2.6zm1-20c3.3-4.4 2.9-15-.7-21.4-3-5.3-5.7-7-5.7-3.6 0 .9-2.3 1.7-5.2 1.7s-5.3-.8-5.3-1.7c0-2.6-4.8-2.2-5.9.4-.7 1.7-.9 1.7-1-.1-.1-1.2 1.2-2.7 2.9-3.4 1.7-.6 4.2-2.2 5.4-3.4 3-3 6.8-3 8.6.1 2.1 3.5 9.3 5.4 9.3 2.5 0-3.3-9.2-8.4-14.9-8.4-4.4 0-14.8 4.8-15.1 6.9-.6 5-.8 29.6-.2 31.3.5 1.5 4.8 2.2 13.1 2.2 9.7 0 12.8-.7 14.7-3.1zm-22.8-3.1c.5-1.4 2.1-2.6 3.4-2.6 1.4 0 2.5 1.2 2.5 2.6 0 1.5-1.6 2.7-3.5 2.7-2.3 0-3.1-.9-2.4-2.7zm10.6 1.5c-2-2-1.3-9.1 1-10.5 1.5-.9.8-1.8-2.2-2.6l-4.4-1.2 4.8-.2c3.2-.1 4.9.7 4.9 2.5 0 1.4-.8 2.6-1.8 2.6s-1.7 2-1.7 4.4.7 4.4 1.7 4.4a1.79 1.79 0 0 0 1.8-1.8c0-.9 1.2-1.7 2.6-1.7a2.65 2.65 0 0 1 2.6 2.6c0 2.7-7 3.8-9.3 1.5zm-3.4-19.3c1.2-.5 3.5-.5 5.2-.1 1.7.5.8.9-2.1.9s-4.3-.3-3.1-.8zm-21.6-16.9c5.5-19.7 6.8-30.5 4.6-39.6-2.1-8.5-2.1-8.6-9.4-8.8-5.3-.2-6.6.2-4.8 1.4 1.8 1.1 2.7 4.5 2.7 10.5q0 8.8 2.2 8.8c3.1 0 2.7 4.7-.5 5.9-2 .8-2.6 4-2.6 13.3 0 19.9 3.5 23.8 7.8 8.5zm-6-2.3c0-1.5.7-2.2 1.7-1.6 2.3 1.4 2.3 4.4 0 4.4-1 0-1.7-1.3-1.7-2.8zm.4-6.4c.3-1.1 1.6-2.4 2.7-2.7 1.3-.5 1.7.3 1.1 2-1.3 3.2-4.9 3.9-3.8.7zm0-7.7c.6-.6 2.1-.7 3.4-.2 1.4.6 1 1-1.1 1.1-1.8.1-2.9-.3-2.3-.9zm4.8-6.7c0-1.4.8-3.1 1.8-3.7.9-.6 1.7.1 1.7 1.6 0 1.4-.8 3.1-1.7 3.7-1 .6-1.8-.1-1.8-1.6zm-1.7-10.8c0-1.5.8-2.3 1.7-1.7 2.3 1.4 2.3 4.4 0 4.4-.9 0-1.7-1.2-1.7-2.7zm1.1-5.5c-2.1-2.1-1.2-4 1.5-2.9 1.4.5 2.6 1.7 2.6 2.5 0 1.9-2.4 2.1-4.1.4zm59.3 44.2c3.2-2.4 3.3-3.3 1.1-16.7-1.8-11.4-1.9-15.6 0-22.4 1.2-4.6 2.9-9 3.7-10 2.7-3 1.5-3.9-4.9-3.7-9.4.4-11.2 4.1-11.2 23.4 0 17.6 2.7 32.1 5.9 32 1.1 0 3.5-1.2 5.4-2.6zm-6-2.7c0-1 1.2-3.1 2.6-4.5 2.8-2.8 3.4-1.2 1.6 3.6-1.2 3.1-4.2 3.8-4.2.9zm-1.4-10.7c.9-2.7 4.7-3.2 5.3-.6.3.9-1 2-2.8 2.3-2.1.4-3-.2-2.5-1.7zm-.4-9.4c0-1.4.3-2.6.7-2.6s1.2 1.2 1.7 2.6c.6 1.5.3 2.6-.7 2.6-.9 0-1.7-1.1-1.7-2.6zm.4-6.3c.4-1.2 1.8-2.6 3-3 1.4-.5 2 .2 1.6 1.5-.5 1.3-1.8 2.7-3.1 3.1s-2-.2-1.5-1.6zm-1-7.9c-.6-1.4 0-2.5 1.5-2.5 3.5 0 4.9 3 1.9 4.1-1.4.5-2.9-.2-3.4-1.6zm2.4-7.6c0-.8 1.2-2 2.6-2.5 1.6-.7 2.7-.1 2.7 1.5 0 1.4-1.2 2.6-2.7 2.6-1.4 0-2.6-.7-2.6-1.6zm-60.8 8.2c2.8-4.5-.2-8.3-9-11.2-6.6-2.3-7.9-2.2-11.8.4-4.7 3-4.7 3.1 2.4 11.8 3.4 4.1 15.7 3.4 18.4-1zm-13.9-1.5c-1.8-2.9 1.8-5.5 6.5-4.6 3.8.7 3.7.8-.7 1-5.4.3-6.5 3.1-1.8 4.3 2.8.7 2.8.8.1 1-1.6.1-3.5-.6-4.1-1.7zm110.2-7.2c-1-4-9.6-4.3-13.4-.4-1.6 1.5-2.8 2.9-2.8 3.2 0 .2 3.8.4 8.5.4 7.4 0 8.4-.5 7.7-3.2zm-88.9-16.3c5.1-6.9 2.1-52-3.4-51.8-1.1 0-3.5 1.2-5.4 2.6-3.2 2.4-3.3 3.3-1.1 16.7 1.8 11.4 1.9 15.6 0 22.4-1.2 4.6-2.9 9-3.7 10-2.7 3-1.5 3.9 4.9 3.7 4-.2 7.2-1.5 8.7-3.6zm-8.1-3.6c0-1.4 1.2-2.6 2.7-2.6 3.4 0 3.4 2.8 0 4.1-1.6.7-2.7.1-2.7-1.5zm2.8-7.7c-.5-.9.1-2 1.5-2.5s2.9.2 3.4 1.6c1.1 2.7-3.3 3.5-4.9.9zm-.7-7.3c.5-1.3 1.8-2.7 3.1-3.1s2 .2 1.5 1.6c-.4 1.2-1.8 2.6-3 3-1.4.5-2-.2-1.6-1.5zm2.6-7.8c-.6-1.5-.3-2.6.7-2.6.9 0 1.7 1.1 1.7 2.6 0 1.4-.3 2.6-.7 2.6s-1.2-1.2-1.7-2.6zm-3.8-7.9c-.6-1 .2-2.3 1.7-2.9 3.4-1.3 5.3.2 3.7 2.8-1.5 2.3-4 2.4-5.4.1zm-.9-6.8c0-3.1 2.1-7.3 3.7-7.3 2.5 0 1.9 3.5-1 6.4-1.5 1.5-2.7 1.9-2.7.9zm66.8 43.7c-1.8-1.1-2.7-4.5-2.7-10.5q0-8.8-2.2-8.8c-3.1 0-2.7-4.7.5-5.9 2-.8 2.6-4 2.6-13.3 0-19.9-3.5-23.8-7.8-8.5-5.5 19.7-6.8 30.5-4.6 39.6 2.1 8.5 2.1 8.6 9.4 8.8 5.3.2 6.6-.2 4.8-1.4zm-10.6-5.3c-1.4-.8-1.9-2.1-1.2-2.8.7-.8 2.2-.4 3.3.7 2.7 2.7 1.2 4.1-2.1 2.1zm1-6.8c-.7-1.2-.9-2.7-.3-3.3 1.6-1.5 3.3.8 2.5 3.3-.6 1.8-1 1.8-2.2 0zm-2.7-9.7c0-1.4.8-3.1 1.7-3.7 1-.6 1.8.1 1.8 1.6 0 1.4-.8 3.1-1.8 3.7-.9.6-1.7-.1-1.7-1.6zm4-9.1c.5-.6 2.1-.7 3.3-.2 1.4.6 1 1-1 1.1-1.9.1-2.9-.4-2.3-.9zm.5-6.7c.6-1.6 1.9-2.8 2.8-2.8 2.3 0 .9 4-1.7 4.8-1.3.5-1.7-.3-1.1-2zm1.8-6.1c-.8-1.2-.9-2.7-.4-3.3 1.6-1.6 3.3.8 2.5 3.3-.6 1.8-1 1.8-2.1 0zm26.6 38.8l4-3.1-4.9-5.8c-4.2-5-5.7-5.7-11.7-5.2-12.6 1-13.2 10.2-1 14.6 8.3 3 9.1 3 13.6-.5zm-12.3-5.2c4.3-.8 5.3-3.3 1.8-4.5-1.3-.4-1.1-.6.4-.5 4.6.3 3 5.4-1.8 5.6-3.8.1-3.8.1-.4-.6zm-91.9 3.8c1.6-1.5 2.8-2.9 2.8-3.2 0-.2-3.8-.4-8.5-.4-7.4 0-8.4.5-7.7 3.2 1 4 9.6 4.3 13.4.4zM87.9 69c2.9-1.6 5.2-3.4 5.3-3.9.6-5 .8-29.6.2-31.3-.5-1.5-4.8-2.2-13.1-2.2-9.7 0-12.8.7-14.7 3.1-3.3 4.4-2.9 15 .7 21.4 3 5.3 5.7 7 5.7 3.6 0-.9 2.3-1.7 5.2-1.7s5.3.8 5.3 1.7c0 2.6 4.8 2.2 5.9-.4.7-1.7.9-1.7 1 .1.1 1.2-1.2 2.7-2.9 3.4-1.7.6-4.2 2.2-5.4 3.4-3 3-6.8 3-8.6-.1-.8-1.3-3.2-2.9-5.3-3.6-5.8-1.8-5.2 2.7.8 6.5 6.2 3.8 13.5 3.8 19.9 0zM75 55.1c1.2-.5 3.6-.5 5.3-.1 1.7.5.7.9-2.2.9s-4.3-.3-3.1-.8zm-1.3-6.8c0-1.4.8-2.6 1.8-2.6s1.7-2 1.7-4.4-.7-4.4-1.7-4.4a1.79 1.79 0 0 0-1.8 1.8c0 .9-1.2 1.7-2.6 1.7s-2.6-1.2-2.6-2.7c0-2 1.3-2.6 4.8-2.2 5.3.6 7.6 6.7 4 11-1.6 1.9-1.2 2.6 2 3.2 3.6.7 3.6.8-.7 1q-4.9.3-4.9-2.4zm8.8-10.5c0-1.5 1.6-2.7 3.5-2.7 2.3 0 3.1.9 2.4 2.7-.5 1.4-2.1 2.6-3.4 2.6-1.4 0-2.5-1.2-2.5-2.6zM72 17.3c0-1 1.2-.5 2.7 1 1.6 1.5 4.1 2.7 5.7 2.6 1.9 0 2.2-.4.8-1-1.2-.5-2.2-2-2.2-3.4 0-1.3-1.2-2.4-2.6-2.4-1.5 0-2.7-1-2.7-2.2 0-1.6-.4-1.6-1.6.2-.8 1.3-3.3 2.5-5.5 2.6s-4.1 1-4.3 2c-.1 1 .1 1.2.5.4 1.2-2.3 3.9-1.4 3.9 1.3 0 1.6 1 2.2 2.6 1.6 1.5-.6 2.7-1.8 2.7-2.7zm19.7 1.4c1.9-2 2.7-1.9 4.9.4 2.3 2.5 2.6 2.5 3.1-.3.6-3.1 3-4 4.3-1.7.4.8.6.6.5-.4-.2-1-2.1-1.9-4.3-2s-4.7-1.3-5.6-2.6c-1.1-1.8-1.5-1.8-1.5-.2 0 1.2-1.2 2.2-2.7 2.2-1.4 0-2.6 1.1-2.6 2.4 0 1.4-1 2.9-2.2 3.4-1.4.6-1.1 1 .7 1 1.7.1 4-.9 5.4-2.2z" fill="#fe9e00"/><path d="M70.2 239c0-1-3.4-1.8-7.5-1.8-10.8 0-16.9-7.4-10.9-13.4 2-2 2.4-4.9 1.5-12.6-.7-5.5-1.8-10.3-2.7-10.6-.8-.3-1.4-2.1-1.4-3.9 0-4.2-4.5-4.5-6.8-.4-1.6 2.7-2 2.6-5.3-1.3-2.6-3.1-3.6-6.9-3.7-13.3 0-8-.9-10-8.7-19.7-8.6-10.8-13.6-21.6-11.5-25 1.8-2.9-1-12.2-3.7-12.2-1.4 0-2.5-.8-2.5-1.8s1.2-1.8 2.5-1.8c4.6 0 5-6.8 1-15.3-3.3-7.1-3.5-8.6-1.4-12.5 1.3-2.4 3.7-4.7 5.4-5.1 3-.8 4.4-5.7 1.6-5.7-.7 0-2.9-1.1-4.7-2.4-3.1-2.3-3-2.6 2.3-5.3 3.1-1.6 5.6-4 5.6-5.2s1.1-3.8 2.5-5.7c2.4-3.2 2.7-3.1 5.3 3.2l2.8 6.7 7.4-4c4.1-2.2 7.9-4.5 8.3-5 .5-.6 2.3-1.5 4-2.2 1.8-.6 3.1-2.9 3.1-5.7 0-2.5 1.2-5.7 2.6-7.2 1.4-1.4 2.6-5.3 2.6-8.5s.8-6.1 1.7-6.5c3.2-1.1 4-9.6 1.1-12.5-6.1-6.1-.2-13.5 10.8-13.5C75.6 8.8 79 8 79 7c0-.9 2-1.7 4.4-1.7s4.4.8 4.4 1.7c0 1 3.4 1.8 7.5 1.8 10.8 0 16.9 7.4 10.9 13.4-2 2-2.4 4.9-1.5 12.6.7 5.5 1.8 10.3 2.7 10.6.8.3 1.4 2.1 1.4 3.9 0 4.2 4.5 4.5 6.8.4 1.6-2.7 2-2.6 5.3 1.3 2.6 3.1 3.6 6.9 3.7 13.3 0 8 .9 10 8.7 19.7 8.6 10.8 13.6 21.6 11.5 25-1.8 2.9 1 12.2 3.7 12.2 1.4 0 2.5.8 2.5 1.8s-1.2 1.8-2.5 1.8c-4.6 0-5 6.8-1 15.3 3.3 7.1 3.5 8.6 1.4 12.5-1.3 2.4-3.7 4.7-5.4 5.1-3 .8-4.4 5.7-1.6 5.7.7 0 2.9 1.1 4.7 2.4 3.1 2.3 3 2.6-2.3 5.3-3.1 1.6-5.6 4-5.6 5.2s-1.1 3.8-2.5 5.7c-2.4 3.2-2.7 3.1-5.3-3.2l-2.8-6.7-7.4 4c-4.1 2.2-7.9 4.5-8.3 5-.5.6-2.3 1.5-4 2.2-1.8.6-3.1 2.9-3.1 5.7 0 2.5-1.2 5.7-2.6 7.2-1.4 1.4-2.6 5.3-2.6 8.5s-.8 6.1-1.7 6.5c-3.2 1.1-4 9.6-1.1 12.5 6.1 6.1.2 13.5-10.8 13.5-4.1 0-7.5.8-7.5 1.8 0 .9-2 1.7-4.4 1.7s-4.4-.8-4.4-1.7zm-2.5-7.1c1.4 0 2.5-1.1 2.5-2.4 0-1.4 1-2.9 2.2-3.4 1.4-.6 1.1-1-.7-1-1.7-.1-4 .9-5.4 2.2-1.9 2-2.7 1.9-4.9-.4-2.3-2.5-2.6-2.5-3.1.3-.6 3.1-3 4-4.3 1.7-.4-.8-.6-.6-.5.4.2 1 2.2 1.9 4.5 2s4.5 1.3 5 2.6c.6 1.8 1 1.9 1.5.2.4-1.2 1.9-2.2 3.2-2.2zm23.7-.6c2.2-.1 4.1-1 4.3-2 .1-1-.1-1.2-.5-.4-1.3 2.3-3.6 1.4-4.2-1.7-.6-2.8-.9-2.8-3.2-.3-2.1 2.3-2.9 2.4-4.9.4-1.3-1.3-3.7-2.3-5.3-2.2-1.9 0-2.2.4-.8 1 1.2.5 2.2 2 2.2 3.4 0 1.3 1.2 2.4 2.6 2.4 1.5 0 2.7 1 2.7 2.2 0 1.6.4 1.6 1.6-.2.8-1.3 3.3-2.5 5.5-2.6zm1-20c3.3-4.4 2.9-15-.7-21.4-3-5.3-5.7-7-5.7-3.6 0 .9-2.3 1.7-5.2 1.7s-5.3-.8-5.3-1.7c0-2.6-4.8-2.2-5.9.4-.7 1.7-.9 1.7-1-.1-.1-1.2 1.2-2.7 2.9-3.4 1.7-.6 4.2-2.2 5.4-3.4 3-3 6.8-3 8.6.1 2.1 3.5 9.3 5.4 9.3 2.5 0-3.3-9.2-8.4-14.9-8.4-4.4 0-14.8 4.8-15.1 6.9-.6 5-.8 29.6-.2 31.3.5 1.5 4.8 2.2 13.1 2.2 9.7 0 12.8-.7 14.7-3.1zm-22.8-3.1c.5-1.4 2.1-2.6 3.4-2.6 1.4 0 2.5 1.2 2.5 2.6 0 1.5-1.6 2.7-3.5 2.7-2.3 0-3.1-.9-2.4-2.7zm10.6 1.5c-2-2-1.3-9.1 1-10.5 1.5-.9.8-1.8-2.2-2.6l-4.4-1.2 4.8-.2c3.2-.1 4.9.7 4.9 2.5 0 1.4-.8 2.6-1.8 2.6s-1.7 2-1.7 4.4.7 4.4 1.7 4.4a1.79 1.79 0 0 0 1.8-1.8c0-.9 1.2-1.7 2.6-1.7a2.65 2.65 0 0 1 2.6 2.6c0 2.7-7 3.8-9.3 1.5zm-3.4-19.3c1.2-.5 3.5-.5 5.2-.1 1.7.5.8.9-2.1.9s-4.3-.3-3.1-.8zm-21.6-16.9c5.5-19.7 6.8-30.5 4.6-39.6-2.1-8.5-2.1-8.6-9.4-8.8-5.3-.2-6.6.2-4.8 1.4 1.8 1.1 2.7 4.5 2.7 10.5q0 8.8 2.2 8.8c3.1 0 2.7 4.7-.5 5.9-2 .8-2.6 4-2.6 13.3 0 19.9 3.5 23.8 7.8 8.5zm-6-2.3c0-1.5.7-2.2 1.7-1.6 2.3 1.4 2.3 4.4 0 4.4-1 0-1.7-1.3-1.7-2.8zm.4-6.4c.3-1.1 1.6-2.4 2.7-2.7 1.3-.5 1.7.3 1.1 2-1.3 3.2-4.9 3.9-3.8.7zm0-7.7c.6-.6 2.1-.7 3.4-.2 1.4.6 1 1-1.1 1.1-1.8.1-2.9-.3-2.3-.9zm4.8-6.7c0-1.4.8-3.1 1.8-3.7.9-.6 1.7.1 1.7 1.6 0 1.4-.8 3.1-1.7 3.7-1 .6-1.8-.1-1.8-1.6zm-1.7-10.8c0-1.5.8-2.3 1.7-1.7 2.3 1.4 2.3 4.4 0 4.4-.9 0-1.7-1.2-1.7-2.7zm1.1-5.5c-2.1-2.1-1.2-4 1.5-2.9 1.4.5 2.6 1.7 2.6 2.5 0 1.9-2.4 2.1-4.1.4zm59.3 44.2c3.2-2.4 3.3-3.3 1.1-16.7-1.8-11.4-1.9-15.6 0-22.4 1.2-4.6 2.9-9 3.7-10 2.7-3 1.5-3.9-4.9-3.7-9.4.4-11.2 4.1-11.2 23.4 0 17.6 2.7 32.1 5.9 32 1.1 0 3.5-1.2 5.4-2.6zm-6-2.7c0-1 1.2-3.1 2.6-4.5 2.8-2.8 3.4-1.2 1.6 3.6-1.2 3.1-4.2 3.8-4.2.9zm-1.4-10.7c.9-2.7 4.7-3.2 5.3-.6.3.9-1 2-2.8 2.3-2.1.4-3-.2-2.5-1.7zm-.4-9.4c0-1.4.3-2.6.7-2.6s1.2 1.2 1.7 2.6c.6 1.5.3 2.6-.7 2.6-.9 0-1.7-1.1-1.7-2.6zm.4-6.3c.4-1.2 1.8-2.6 3-3 1.4-.5 2 .2 1.6 1.5-.5 1.3-1.8 2.7-3.1 3.1s-2-.2-1.5-1.6zm-1-7.9c-.6-1.4 0-2.5 1.5-2.5 3.5 0 4.9 3 1.9 4.1-1.4.5-2.9-.2-3.4-1.6zm2.4-7.6c0-.8 1.2-2 2.6-2.5 1.6-.7 2.7-.1 2.7 1.5 0 1.4-1.2 2.6-2.7 2.6-1.4 0-2.6-.7-2.6-1.6zm29.8 42.2c0-1.7 2-4.1 4.3-5.4l4.3-2.3-4.1-3.3c-2.3-1.8-5.5-3.2-7.1-3.2s-4.8 1.4-7.1 3.2l-4.1 3.3 4.3 2.3c2.3 1.3 4.3 3.6 4.3 5.2s.5 3.4 1.1 4.1c1.8 1.7 4.1-.5 4.1-3.9zm-7.8-7.1c-.6-1.1 0-2.4 1.5-2.9 3.5-1.4 9-.2 9 1.9 0 2.4-9.1 3.3-10.5 1zm.2-13.3c-3-2.9-6.4-3.5-6.4-1 0 1.4 3 2.8 7.6 3.4.8.2.2-.9-1.2-2.4zm14.8.9c.9 0 1.6-.8 1.6-1.8 0-2.7-3.4-2.1-6.7 1.2-2.8 2.8-2.7 2.9.3 1.8 1.7-.7 3.9-1.2 4.8-1.2zm2.1-5.3c1.6 0 3-.8 3-1.7 0-1.1-6.1-1.8-14.9-1.8-8.2 0-14.9.7-14.9 1.6 0 2.1 9.4 3.5 17.5 2.6 3.4-.4 7.6-.7 9.3-.7zm-99.9-9.2c2.8-4.5-.2-8.3-9-11.2-6.6-2.3-7.9-2.2-11.8.4-4.7 3-4.7 3.1 2.4 11.8 3.4 4.1 15.7 3.4 18.4-1zm-13.9-1.5c-1.8-2.9 1.8-5.5 6.5-4.6 3.8.7 3.7.8-.7 1-5.4.3-6.5 3.1-1.8 4.3 2.8.7 2.8.8.1 1-1.6.1-3.5-.6-4.1-1.7zm114.8 3.9c.4-.1-.3-1.4-1.5-2.8-1.2-1.5-2.8-2.2-3.6-1.8-.8.5-1.9.2-2.4-.7-.8-1.3-6-1.4-7.6-.1-.2.2-1.8.5-3.5.6-4 .3-7.7 2.7-6.7 4.3.6 1 22.4 1.4 25.3.5zm-23.2-1.9c.5-.5 2.5-1 4.3-1.2 1.9-.1 3.6-.3 3.8-.5 1.6-1.4 6.8-1.3 7.6.1.5.9 1.7 1.2 2.5.7.8-.6 1.9-.4 2.4.4.4.8-4.2 1.4-10.3 1.4-6.2 0-10.8-.4-10.3-.9zm18.6-9.2c-1-4-9.6-4.3-13.4-.4-1.6 1.5-2.8 2.9-2.8 3.2 0 .2 3.8.4 8.5.4 7.4 0 8.4-.5 7.7-3.2zm-39.2-5.4c2.2-2.9 1-3-20.7-3-19.1 0-23 .4-23 2.5 0 2.2 2.4 2.4 13.6 1.6 7.5-.5 16.8-.2 20.6.7 3.9.9 7.1 1.5 7.1 1.5 0-.1 1.1-1.6 2.4-3.3zm-49.7-10.9c5.1-6.9 2.1-52-3.4-51.8-1.1 0-3.5 1.2-5.4 2.6-3.2 2.4-3.3 3.3-1.1 16.7 1.8 11.4 1.9 15.6 0 22.4-1.2 4.6-2.9 9-3.7 10-2.7 3-1.5 3.9 4.9 3.7 4-.2 7.2-1.5 8.7-3.6zm-8.1-3.6c0-1.4 1.2-2.6 2.7-2.6 3.4 0 3.4 2.8 0 4.1-1.6.7-2.7.1-2.7-1.5zm2.8-7.7c-.5-.9.1-2 1.5-2.5s2.9.2 3.4 1.6c1.1 2.7-3.3 3.5-4.9.9zm-.7-7.3c.5-1.3 1.8-2.7 3.1-3.1s2 .2 1.5 1.6c-.4 1.2-1.8 2.6-3 3-1.4.5-2-.2-1.6-1.5zm2.6-7.8c-.6-1.5-.3-2.6.7-2.6.9 0 1.7 1.1 1.7 2.6 0 1.4-.3 2.6-.7 2.6s-1.2-1.2-1.7-2.6zm-3.8-7.9c-.6-1 .2-2.3 1.7-2.9 3.4-1.3 5.3.2 3.7 2.8-1.5 2.3-4 2.4-5.4.1zm-.9-6.8c0-3.1 2.1-7.3 3.7-7.3 2.5 0 1.9 3.5-1 6.4-1.5 1.5-2.7 1.9-2.7.9zm52.7 42.9c0-2.2-2.4-2.4-13.6-1.6-7.5.5-16.8.2-20.8-.7-6.2-1.5-7.5-1.2-9.2 1.6-2 3.1-1 3.2 20.8 3.2 18.9 0 22.8-.4 22.8-2.5zm14.1.8c-1.8-1.1-2.7-4.5-2.7-10.5q0-8.8-2.2-8.8c-3.1 0-2.7-4.7.5-5.9 2-.8 2.6-4 2.6-13.3 0-19.9-3.5-23.8-7.8-8.5-5.5 19.7-6.8 30.5-4.6 39.6 2.1 8.5 2.1 8.6 9.4 8.8 5.3.2 6.6-.2 4.8-1.4zm-10.6-5.3c-1.4-.8-1.9-2.1-1.2-2.8.7-.8 2.2-.4 3.3.7 2.7 2.7 1.2 4.1-2.1 2.1zm1-6.8c-.7-1.2-.9-2.7-.3-3.3 1.6-1.5 3.3.8 2.5 3.3-.6 1.8-1 1.8-2.2 0zm-2.7-9.7c0-1.4.8-3.1 1.7-3.7 1-.6 1.8.1 1.8 1.6 0 1.4-.8 3.1-1.8 3.7-.9.6-1.7-.1-1.7-1.6zm4-9.1c.5-.6 2.1-.7 3.3-.2 1.4.6 1 1-1 1.1-1.9.1-2.9-.4-2.3-.9zm.5-6.7c.6-1.6 1.9-2.8 2.8-2.8 2.3 0 .9 4-1.7 4.8-1.3.5-1.7-.3-1.1-2zm1.8-6.1c-.8-1.2-.9-2.7-.4-3.3 1.6-1.6 3.3.8 2.5 3.3-.6 1.8-1 1.8-2.1 0zm26.6 38.8l4-3.1-4.9-5.8c-4.2-5-5.7-5.7-11.7-5.2-12.6 1-13.2 10.2-1 14.6 8.3 3 9.1 3 13.6-.5zm-12.3-5.2c4.3-.8 5.3-3.3 1.8-4.5-1.3-.4-1.1-.6.4-.5 4.6.3 3 5.4-1.8 5.6-3.8.1-3.8.1-.4-.6zm-91.9 3.8c1.6-1.5 2.8-2.9 2.8-3.2 0-.2-3.8-.4-8.5-.4-7.4 0-8.4.5-7.7 3.2 1 4 9.6 4.3 13.4.4zm-2.9-6.1c.2-.2 1.8-.5 3.5-.6 4-.3 7.7-2.7 6.7-4.3-.6-1-22.4-1.4-25.3-.5-.4.1.3 1.4 1.5 2.8 1.2 1.5 2.8 2.2 3.6 1.8.8-.5 1.9-.2 2.4.7.8 1.3 6 1.4 7.6.1zm-7.6-1.9c-.5-.9-1.7-1.2-2.5-.6-.8.5-1.9.3-2.4-.5-.4-.8 4.2-1.4 10.3-1.4 6.2 0 10.8.4 10.3.9s-2.5 1-4.3 1.2c-1.9.1-3.6.3-3.8.5-1.6 1.4-6.8 1.3-7.6-.1zm20.3-8.3c0-2.2-13.6-3.7-22.4-2.6C3.6 96 8 98.4 23.7 98.4c8.2 0 14.9-.7 14.9-1.5zM19 90.2c2.8-2.8 2.7-2.9-.3-1.8-1.7.7-3.9 1.2-4.8 1.2s-1.6.8-1.6 1.8c0 2.7 3.4 2.1 6.7-1.2zm16.1 1.2c0-1-.7-1.8-1.6-1.8s-3-.5-4.8-1.2c-2.8-1.1-2.9-.9-.6 1.7 2.9 3.2 7 4 7 1.3zm-4.3-10.3l4.1-3.3-4.2-2.2c-2.3-1.3-4.4-4-4.7-6s-1.3-3.7-2.3-3.7-2 1.7-2.3 3.7-2.4 4.7-4.7 5.9l-4.2 2.3 3.8 3.2c5 4.1 9.3 4.2 14.5.1zm-12.3-1.9c-.6-1.1 0-2.4 1.5-2.9 3.5-1.4 9-.2 9 1.9 0 2.4-9.1 3.2-10.5 1zM87.9 69c2.9-1.6 5.2-3.4 5.3-3.9.6-5 .8-29.6.2-31.3-.5-1.5-4.8-2.2-13.1-2.2-9.7 0-12.8.7-14.7 3.1-3.3 4.4-2.9 15 .7 21.4 3 5.3 5.7 7 5.7 3.6 0-.9 2.3-1.7 5.2-1.7s5.3.8 5.3 1.7c0 2.6 4.8 2.2 5.9-.4.7-1.7.9-1.7 1 .1.1 1.2-1.2 2.7-2.9 3.4-1.7.6-4.2 2.2-5.4 3.4-3 3-6.8 3-8.6-.1-.8-1.3-3.2-2.9-5.3-3.6-5.8-1.8-5.2 2.7.8 6.5 6.2 3.8 13.5 3.8 19.9 0zM75 55.1c1.2-.5 3.6-.5 5.3-.1 1.7.5.7.9-2.2.9s-4.3-.3-3.1-.8zm-1.3-6.8c0-1.4.8-2.6 1.8-2.6s1.7-2 1.7-4.4-.7-4.4-1.7-4.4a1.79 1.79 0 0 0-1.8 1.8c0 .9-1.2 1.7-2.6 1.7s-2.6-1.2-2.6-2.7c0-2 1.3-2.6 4.8-2.2 5.3.6 7.6 6.7 4 11-1.6 1.9-1.2 2.6 2 3.2 3.6.7 3.6.8-.7 1q-4.9.3-4.9-2.4zm8.8-10.5c0-1.5 1.6-2.7 3.5-2.7 2.3 0 3.1.9 2.4 2.7-.5 1.4-2.1 2.6-3.4 2.6-1.4 0-2.5-1.2-2.5-2.6zM72 17.3c0-1 1.2-.5 2.7 1 1.6 1.5 4.1 2.7 5.7 2.6 1.9 0 2.2-.4.8-1-1.2-.5-2.2-2-2.2-3.4 0-1.3-1.2-2.4-2.6-2.4-1.5 0-2.7-1-2.7-2.2 0-1.6-.4-1.6-1.6.2-.8 1.3-3.3 2.5-5.5 2.6s-4.1 1-4.3 2c-.1 1 .1 1.2.5.4 1.2-2.3 3.9-1.4 3.9 1.3 0 1.6 1 2.2 2.6 1.6 1.5-.6 2.7-1.8 2.7-2.7zm19.7 1.4c1.9-2 2.7-1.9 4.9.4 2.3 2.5 2.6 2.5 3.1-.3.6-3.1 3-4 4.3-1.7.4.8.6.6.5-.4-.2-1-2.1-1.9-4.3-2s-4.7-1.3-5.6-2.6c-1.1-1.8-1.5-1.8-1.5-.2 0 1.2-1.2 2.2-2.7 2.2-1.4 0-2.6 1.1-2.6 2.4 0 1.4-1 2.9-2.2 3.4-1.4.6-1.1 1 .7 1 1.7.1 4-.9 5.4-2.2z" fill="#9b989b"/><path d="M70.2 239c0-1-3.4-1.8-7.5-1.8-10.8 0-16.9-7.4-10.9-13.4 2-2 2.4-4.9 1.5-12.6-.7-5.5-1.8-10.3-2.7-10.6-.8-.3-1.4-2.1-1.4-3.9 0-4.2-4.5-4.5-6.8-.4-1.6 2.7-2 2.6-5.3-1.3-2.6-3.1-3.6-6.9-3.7-13.3 0-8-.9-10-8.7-19.7-8.6-10.8-13.6-21.6-11.5-25 1.8-2.9-1-12.2-3.7-12.2-1.4 0-2.5-.8-2.5-1.8s1.1-1.8 2.5-1.8c1.3 0 2.9-1.1 3.4-2.6.7-1.8 3.5-2.6 8.6-2.7 8.4 0 15.5-5.6 14.7-11.5-.5-2.9-2.1-3.3-12.4-3.4-6.4-.1-12.1.5-12.6 1.2-.4.7.9 1 2.8.6 2-.4 3.3-.1 2.9.6-.5.7 1.8 1.3 5 1.3 3.3 0 5.6-.6 5.2-1.3-1.2-1.8 4.3-.6 6.4 1.4 1.2 1.3.3 1.7-3.1 1.5-2.7-.2-5.9.4-7 1.2-1.2 1-2.5.9-3.1-.1s-2.6-1.5-4.6-1.1c-2.2.5-4.5-.8-6.3-3.7-2.5-3.8-2.6-4.9-.4-8.9 1.3-2.6 3.8-5 5.5-5.4 3-.8 4.4-5.7 1.6-5.7-.7 0-2.9-1.1-4.7-2.4-3.1-2.3-3-2.6 2.3-5.3 3.1-1.6 5.6-4 5.6-5.2s1.1-3.8 2.5-5.7c2.4-3.2 2.7-3.1 5.4 3.4 2.8 6.7 2.8 6.7 7.3 3.8 2.4-1.6 4.6-2.7 4.8-2.4.3.3 1.5 7.2 2.7 15.1 1.9 11.8 1.9 16.2.1 22.9-1.2 4.6-2.9 9-3.7 10-.9.9-1.5 2.2-1.5 2.8 0 .7 17.9 1.3 39.9 1.2 22 0 38.6-.3 36.9-.8-3.4-.9-5.8-10.5-4-16.2.8-2.6.4-3.6-1.6-3.6-3.6 0-3.6-4.6 0-6 2.2-.8 2.6-4 2.3-17.5-.4-14.6-.7-16.4-3.4-15.7-5 1.3-13.3 36.3-11.3 47.8 1 6.4.9 6.7-4.5 7.8-7.1 1.4-18.1 1.4-26.7 0l-6.6-1.1V97.2c0-17.5-2.5-33.9-5.1-33.9-2.1 0 .2-11.2 2.8-13.7 1.3-1.3 2.3-5.1 2.3-8.3s.8-6.1 1.7-6.5c3.2-1.1 4-9.6 1.1-12.5-6.1-6.1-.2-13.5 10.8-13.5C75.6 8.8 79 8 79 7c0-.9 2-1.7 4.4-1.7s4.4.8 4.4 1.7c0 1 3.4 1.8 7.5 1.8 10.8 0 16.9 7.4 10.9 13.4-2 2-2.4 4.9-1.5 12.6.7 5.5 1.8 10.3 2.7 10.6.8.3 1.4 2.1 1.4 3.9 0 4.2 4.5 4.5 6.8.4 1.6-2.7 2-2.6 5.3 1.3 2.6 3.1 3.6 6.9 3.7 13.3 0 8 .9 10 8.7 19.7 8.6 10.8 13.6 21.6 11.5 25-1.8 2.9 1 12.2 3.7 12.2 1.4 0 2.5.8 2.5 1.8s-1.1 1.8-2.5 1.8c-1.3 0-2.9 1.1-3.4 2.6-.7 1.8-3.5 2.6-8.6 2.7-8.4 0-15.5 5.6-14.7 11.5.5 2.9 2.1 3.3 12.4 3.4 6.4.1 12.1-.5 12.6-1.2.4-.7-.9-1-2.8-.6-2 .4-3.3.1-2.9-.6.5-.7-1.8-1.3-5-1.3-3.3 0-5.6.6-5.2 1.3 1.2 1.8-4.3.6-6.4-1.4-1.2-1.3-.3-1.7 3.1-1.5 2.7.2 5.9-.4 7-1.2 1.2-1 2.5-.9 3.1.1s2.6 1.5 4.6 1.1c2.2-.5 4.5.8 6.3 3.7 2.5 3.8 2.6 4.9.4 8.9-1.3 2.6-3.8 5-5.5 5.4-3 .8-4.4 5.7-1.6 5.7.7 0 2.9 1.1 4.7 2.4 3.1 2.3 3 2.6-2.3 5.3-3.1 1.6-5.6 4-5.6 5.2s-1.1 3.8-2.5 5.7c-2.4 3.2-2.7 3.1-5.4-3.4-2.8-6.7-2.8-6.7-7.3-3.8-2.4 1.6-4.6 2.7-4.8 2.4-.3-.3-1.5-7.2-2.7-15.1-1.9-11.8-1.9-16.2-.1-22.9 1.2-4.6 2.9-9 3.7-10 .9-.9 1.5-2.2 1.5-2.8 0-.7-17.9-1.3-39.9-1.2-22 0-38.6.3-36.9.8 3.4.9 5.8 10.5 4 16.2-.8 2.6-.4 3.6 1.6 3.6 3.6 0 3.6 4.6 0 6-2.2.8-2.6 4-2.3 17.5.4 14.6.7 16.4 3.4 15.7 5-1.3 13.3-36.3 11.3-47.8-1-6.4-.9-6.7 4.5-7.8 7.1-1.4 18.1-1.4 26.7 0l6.6 1.1v18.3c0 17.5 2.5 33.9 5.1 33.9 2.1 0-.2 11.2-2.8 13.7-1.3 1.3-2.3 5.1-2.3 8.3s-.8 6.1-1.7 6.5c-3.2 1.1-4 9.6-1.1 12.5 6.1 6.1.2 13.5-10.8 13.5-4.1 0-7.5.8-7.5 1.8 0 .9-2 1.7-4.4 1.7s-4.4-.8-4.4-1.7zm-2.5-7.1c1.4 0 2.5-1.1 2.5-2.4 0-1.4 1-2.9 2.2-3.4 1.4-.6 1.1-1-.7-1-1.7-.1-4 .9-5.4 2.2-1.9 2-2.7 1.9-4.9-.4-2.3-2.5-2.6-2.5-3.1.3-.6 3.1-3 4-4.3 1.7-.4-.8-.6-.6-.5.4.2 1 2.2 1.9 4.5 2s4.5 1.3 5 2.6c.6 1.8 1 1.9 1.5.2.4-1.2 1.9-2.2 3.2-2.2zm23.7-.6c2.2-.1 4.1-1 4.3-2 .1-1-.1-1.2-.5-.4-1.3 2.3-3.6 1.4-4.2-1.7-.6-2.8-.9-2.8-3.2-.3-2.1 2.3-2.9 2.4-4.9.4-1.3-1.3-3.7-2.3-5.3-2.2-1.9 0-2.2.4-.8 1 1.2.5 2.2 2 2.2 3.4 0 1.3 1.2 2.4 2.6 2.4 1.5 0 2.7 1 2.7 2.2 0 1.6.4 1.6 1.6-.2.8-1.3 3.3-2.5 5.5-2.6zm1-20c3.2-4.3 3-15.5-.4-20.7-2.6-4-2.6-4.4 0-5.4 1.5-.6 2.8-2 2.8-3.1 0-3-9.4-8.1-14.9-8.1-4.4 0-14.8 4.8-15.1 6.9-.6 5-.8 29.6-.2 31.3.5 1.5 4.8 2.2 13.1 2.2 9.7 0 12.8-.7 14.7-3.1zm-20.4-4c0-.9.8-1.7 1.7-1.7 1 0 1.8.8 1.8 1.7a1.79 1.79 0 0 1-1.8 1.8c-.9 0-1.7-.8-1.7-1.8zm14 0c0-.9.8-1.7 1.8-1.7.9 0 1.7.8 1.7 1.7 0 1-.8 1.8-1.7 1.8a1.79 1.79 0 0 1-1.8-1.8zm-10.5-23.6c0-2.7 1.3-4.6 3.5-5.3 4.7-1.6 7 .2 7 5.3 0 3.6-.8 4.3-5.2 4.3-4.5 0-5.3-.7-5.3-4.3zm-32 9.2c2.7-2.6 3-40 .4-40-1.1 0-1.8 7.9-1.8 20.2s-.7 20.2-1.7 20.2c-1.1 0-1.8-7.9-1.8-20.2s-.7-20.2-1.7-20.2c-2.7 0-2.3 37.4.3 40 1.2 1.2 2.6 2.1 3.2 2.1s2-.9 3.1-2.1zm93.4-17c0-1.7 2-4.1 4.3-5.4l4.3-2.3-4.1-3.3c-2.3-1.8-5.5-3.2-7.1-3.2s-4.8 1.4-7.1 3.2l-4.1 3.3 4.3 2.3c2.3 1.3 4.3 3.6 4.3 5.2s.5 3.4 1.1 4.1c1.8 1.7 4.1-.5 4.1-3.9zm-7.8-7.1c-.6-1.1 0-2.4 1.5-2.9 3.5-1.4 9-.2 9 1.9 0 2.4-9.1 3.3-10.5 1zm.2-13.3c-3-2.9-6.4-3.5-6.4-1 0 1.4 3 2.8 7.6 3.4.8.2.2-.9-1.2-2.4zm14.8.9c.9 0 1.6-.8 1.6-1.8 0-2.7-3.4-2.1-6.7 1.2-2.8 2.8-2.7 2.9.3 1.8 1.7-.7 3.9-1.2 4.8-1.2zm2.1-5.3c1.6 0 3-.8 3-1.7 0-1.1-6.1-1.8-14.9-1.8-8.2 0-14.9.7-14.9 1.6 0 2.1 9.4 3.5 17.5 2.6 3.4-.4 7.6-.7 9.3-.7zm-97-1.7c0-1-4-1.8-8.8-1.8s-8.8.8-8.8 1.8c0 .9 4 1.7 8.8 1.7s8.8-.8 8.8-1.7zm-2.9-7.5c2.8-4.5-.2-8.3-9-11.2-6.6-2.3-7.9-2.2-11.8.4-4.7 3-4.7 3.1 2.4 11.8 3.4 4.1 15.7 3.4 18.4-1zm-2.9-13.1c-1.7-.4-4.1-.4-5.3.1-1.1.5.3.8 3.2.8s3.8-.4 2.1-.9zm89.6-14.2l4-3.1-4.9-5.8c-4.2-5-5.7-5.7-11.7-5.2-12.6 1-13.2 10.2-1 14.6 8.3 3 9.1 3 13.6-.5zm-14.1 1.9c-1.7-.4-4.1-.4-5.3.1-1.1.5.2.8 3.1.8s3.9-.4 2.2-.9zM38.6 96.9c0-2.2-13.6-3.7-22.4-2.6C3.6 96 8 98.4 23.7 98.4c8.2 0 14.9-.7 14.9-1.5zm87.8-.3c0-.9-3.9-1.7-8.8-1.7-4.8 0-8.8.8-8.8 1.7 0 1 4 1.8 8.8 1.8 4.9 0 8.8-.8 8.8-1.8zM19 90.2c2.8-2.8 2.7-2.9-.3-1.8-1.7.7-3.9 1.2-4.8 1.2s-1.6.8-1.6 1.8c0 2.7 3.4 2.1 6.7-1.2zm16.1 1.2c0-1-.7-1.8-1.6-1.8s-3-.5-4.8-1.2c-2.8-1.1-2.9-.9-.6 1.7 2.9 3.2 7 4 7 1.3zm80.8-18.5c0-12.3.7-20.2 1.7-20.2 1.1 0 1.8 7.9 1.8 20.2s.7 20.2 1.7 20.2c1.1 0 1.8-7.5 1.8-19.1 0-14.8-.6-19.6-2.6-21.3-2.1-1.7-3.2-1.7-5.3 0s-2.6 6.5-2.6 21.3c0 11.6.6 19.1 1.7 19.1s1.8-7.9 1.8-20.2zm-85.1 8.2l4.1-3.3-4.2-2.2c-2.3-1.3-4.4-4-4.7-6s-1.3-3.7-2.3-3.7-2 1.7-2.3 3.7-2.4 4.7-4.7 5.9l-4.2 2.3 3.8 3.2c5 4.1 9.3 4.2 14.5.1zm-12.3-1.9c-.6-1.1 0-2.4 1.5-2.9 3.5-1.4 9-.2 9 1.9 0 2.4-9.1 3.2-10.5 1zM87.9 69c2.9-1.6 5.2-3.4 5.3-3.9.6-5 .8-29.6.2-31.3-.5-1.5-4.8-2.2-13.1-2.2-9.7 0-12.8.7-14.7 3.1-3.2 4.3-3 15.5.4 20.7 2.6 4 2.6 4.4 0 5.4-4.2 1.6-3.4 4.8 2 8.2 6.2 3.8 13.5 3.8 19.9 0zm-14.8-1.6c-.6-.7-1.1-3.1-1.1-5.3 0-3.4.9-4.1 5.2-4.1 4.4 0 5.3.7 5.3 4.2 0 4.9-6.2 8.3-9.4 5.2zm-4.6-28.7c0-1 .8-1.8 1.7-1.8a1.79 1.79 0 0 1 1.8 1.8c0 .9-.8 1.7-1.8 1.7-.9 0-1.7-.8-1.7-1.7zm14 0a1.79 1.79 0 0 1 1.8-1.8c.9 0 1.7.8 1.7 1.8 0 .9-.8 1.7-1.7 1.7-1 0-1.8-.8-1.8-1.7zM72 17.3c0-1 1.2-.5 2.7 1 1.6 1.5 4.1 2.7 5.7 2.6 1.9 0 2.2-.4.8-1-1.2-.5-2.2-2-2.2-3.4 0-1.3-1.2-2.4-2.6-2.4-1.5 0-2.7-1-2.7-2.2 0-1.6-.4-1.6-1.6.2-.8 1.3-3.3 2.5-5.5 2.6s-4.1 1-4.3 2c-.1 1 .1 1.2.5.4 1.2-2.3 3.9-1.4 3.9 1.3 0 1.6 1 2.2 2.6 1.6 1.5-.6 2.7-1.8 2.7-2.7zm19.7 1.4c1.9-2 2.7-1.9 4.9.4 2.3 2.5 2.6 2.5 3.1-.3.6-3.1 3-4 4.3-1.7.4.8.6.6.5-.4-.2-1-2.1-1.9-4.3-2s-4.7-1.3-5.6-2.6c-1.1-1.8-1.5-1.8-1.5-.2 0 1.2-1.2 2.2-2.7 2.2-1.4 0-2.6 1.1-2.6 2.4 0 1.4-1 2.9-2.2 3.4-1.4.6-1.1 1 .7 1 1.7.1 4-.9 5.4-2.2zm15.4 156.9c0-1 1.2-3.1 2.6-4.5 2.8-2.8 3.4-1.2 1.6 3.6-1.2 3.1-4.2 3.8-4.2.9zm-57.9-4.4c0-1.5.7-2.2 1.7-1.6 2.3 1.4 2.3 4.4 0 4.4-1 0-1.7-1.3-1.7-2.8zm.4-6.4c.3-1.1 1.6-2.4 2.7-2.7 1.3-.5 1.7.3 1.1 2-1.3 3.2-4.9 3.9-3.8.7zm56.1.1c.9-2.7 4.7-3.2 5.3-.6.3.9-1 2-2.8 2.3-2.1.4-3-.2-2.5-1.7zm-56.1-7.8c.6-.6 2.1-.7 3.4-.2 1.4.6 1 1-1.1 1.1-1.8.1-2.9-.3-2.3-.9zm55.7-1.6c0-1.4.3-2.6.7-2.6s1.2 1.2 1.7 2.6c.6 1.5.3 2.6-.7 2.6-.9 0-1.7-1.1-1.7-2.6zm-50.9-5.1c0-1.4.8-3.1 1.8-3.7.9-.6 1.7.1 1.7 1.6 0 1.4-.8 3.1-1.7 3.7-1 .6-1.8-.1-1.8-1.6zm51.3-1.2c.4-1.2 1.8-2.6 3-3 1.4-.5 2 .2 1.6 1.5-.5 1.3-1.8 2.7-3.1 3.1s-2-.2-1.5-1.6zm-1-7.9c-.6-1.4 0-2.5 1.5-2.5 3.5 0 4.9 3 1.9 4.1-1.4.5-2.9-.2-3.4-1.6zm-52-1.7c0-1.5.8-2.3 1.7-1.7 2.3 1.4 2.3 4.4 0 4.4-.9 0-1.7-1.2-1.7-2.7zm1.1-5.5c-2.1-2.1-1.2-4 1.5-2.9 1.4.5 2.6 1.7 2.6 2.5 0 1.9-2.4 2.1-4.1.4zm53.3-.4c0-.8 1.2-2 2.6-2.5 1.6-.7 2.7-.1 2.7 1.5 0 1.4-1.2 2.6-2.7 2.6-1.4 0-2.6-.7-2.6-1.6zm-61.5-20.4c0-1.4 1.2-2.6 2.7-2.6 3.4 0 3.4 2.8 0 4.1-1.6.7-2.7.1-2.7-1.5zm56.2.9c-1.4-.8-1.9-2.1-1.2-2.8.7-.8 2.2-.4 3.3.7 2.7 2.7 1.2 4.1-2.1 2.1zm1-6.8c-.7-1.2-.9-2.7-.3-3.3 1.6-1.5 3.3.8 2.5 3.3-.6 1.8-1 1.8-2.2 0zm-54.4-1.8c-.5-.9.1-2 1.5-2.5s2.9.2 3.4 1.6c1.1 2.7-3.3 3.5-4.9.9zm-.7-7.3c.5-1.3 1.8-2.7 3.1-3.1s2 .2 1.5 1.6c-.4 1.2-1.8 2.6-3 3-1.4.5-2-.2-1.6-1.5zm52.4-.6c0-1.4.8-3.1 1.7-3.7 1-.6 1.8.1 1.8 1.6 0 1.4-.8 3.1-1.8 3.7-.9.6-1.7-.1-1.7-1.6zm-49.8-7.2c-.6-1.5-.3-2.6.7-2.6.9 0 1.7 1.1 1.7 2.6 0 1.4-.3 2.6-.7 2.6s-1.2-1.2-1.7-2.6zm53.8-1.9c.5-.6 2.1-.7 3.3-.2 1.4.6 1 1-1 1.1-1.9.1-2.9-.4-2.3-.9zm-57.6-6c-.6-1 .2-2.3 1.7-2.9 3.4-1.3 5.3.2 3.7 2.8-1.5 2.3-4 2.4-5.4.1zm58.1-.7c.6-1.6 1.9-2.8 2.8-2.8 2.3 0 .9 4-1.7 4.8-1.3.5-1.7-.3-1.1-2zm-59-6.1c0-3.1 2.1-7.3 3.7-7.3 2.5 0 1.9 3.5-1 6.4-1.5 1.5-2.7 1.9-2.7.9zm60.8 0c-.8-1.2-.9-2.7-.4-3.3 1.6-1.6 3.3.8 2.5 3.3-.6 1.8-1 1.8-2.1 0z" fill="#9b9800"/><path d="M53.8 215c-.6-.7-1.1-4.2-1.1-8 0-3.7-.8-6.7-1.8-6.7s-1.7-1.6-1.7-3.5c0-4.3-4.5-4.6-6.8-.5-1.6 2.7-2 2.6-5.3-1.3-2.6-3.1-3.6-6.9-3.7-13.3 0-8-.9-10-8.7-19.7-8.6-10.8-13.6-21.6-11.5-25 1.8-2.9-1-12.2-3.7-12.2-1.4 0-2.5-.8-2.5-1.8s1.1-1.8 2.5-1.8c1.3 0 2.9-1.1 3.4-2.6.7-1.8 3.5-2.6 8.6-2.7 8.3 0 13-3.7 16.9-13.4 2-4.7 1.8-6.2-.7-10.1-1.7-2.5-4.1-4.5-5.4-4.5-4.2 0-2.7-4.7 2.3-6.9l4.8-2.2-3.9-3-3.9-2.9 3.7-2.3c2-1.3 3.8-2.1 4.1-1.8.2.4 1.4 7.2 2.6 15.1 1.9 11.8 1.9 16.2.1 22.9-1.2 4.6-2.9 9-3.7 10-.9.9-1.5 2.2-1.5 2.8 0 .7 17.9 1.3 39.9 1.2 22 0 38.6-.3 36.9-.8-3.4-.9-5.8-10.5-4-16.2.8-2.6.4-3.6-1.6-3.6-3.6 0-3.6-4.6 0-6 2.2-.8 2.6-4 2.3-17.5-.4-14.6-.7-16.4-3.4-15.7-5 1.3-13.3 36.3-11.3 47.8 1 6.4.9 6.7-4.5 7.8-7.1 1.4-18.1 1.4-26.7 0l-6.6-1.1V97.2c0-17.5-2.5-33.9-5.1-33.9-2.1 0 .2-11.2 2.8-13.7 1.3-1.3 2.3-5.1 2.3-8.4s.8-6.1 1.8-6.1 1.7-1.2 1.7-2.6c0-2.3 3.2-2.7 21.6-2.2l21.5.5.5 7.4c.3 4.1 1.3 7.5 2.2 7.5s1.6 1.6 1.6 3.5c0 4.3 4.5 4.6 6.8.5 1.6-2.7 2-2.6 5.3 1.3 2.6 3.1 3.6 6.9 3.7 13.3 0 8 .9 10 8.7 19.7 8.6 10.8 13.6 21.6 11.5 25-1.8 2.9 1 12.2 3.7 12.2 1.4 0 2.5.8 2.5 1.8s-1.1 1.8-2.5 1.8c-1.3 0-2.9 1.1-3.4 2.6-.7 1.8-3.5 2.6-8.6 2.7-8.3 0-13 3.7-16.9 13.4-2 4.7-1.8 6.2.7 10.1 1.7 2.5 4.1 4.5 5.4 4.5 4.2 0 2.7 4.7-2.3 6.9l-4.8 2.2 3.9 3 3.9 2.9-3.7 2.3c-2 1.3-3.8 2.1-4.1 1.8-.2-.4-1.4-7.2-2.6-15.1-1.9-11.8-1.9-16.2-.1-22.9 1.2-4.6 2.9-9 3.7-10 .9-.9 1.5-2.2 1.5-2.8 0-.7-17.9-1.3-39.9-1.2-22 0-38.6.3-36.9.8 3.4.9 5.8 10.5 4 16.2-.8 2.6-.4 3.6 1.6 3.6 3.6 0 3.6 4.6 0 6-2.2.8-2.6 4-2.3 17.5.4 14.6.7 16.4 3.4 15.7 5-1.3 13.3-36.3 11.3-47.8-1-6.4-.9-6.7 4.5-7.8 7.1-1.4 18.1-1.4 26.7 0l6.6 1.1v18.3c0 17.5 2.5 33.9 5.1 33.9 2.1 0-.2 11.2-2.8 13.7-1.3 1.3-2.3 5.1-2.3 8.4s-.8 6.1-1.8 6.1-1.7 1.1-1.7 2.6c0 2.2-3.5 2.6-20.8 2.6-11.4 0-21.3-.5-22-1.1zm38.6-3.7c3.2-4.3 3-15.5-.4-20.7-2.6-4-2.6-4.4 0-5.4 1.5-.6 2.8-2 2.8-3.1 0-3-9.4-8.1-14.9-8.1-4.4 0-14.8 4.8-15.1 6.9-.6 5-.8 29.6-.2 31.3.5 1.5 4.8 2.2 13.1 2.2 9.7 0 12.8-.7 14.7-3.1zm-20.4-4c0-.9.8-1.7 1.7-1.7 1 0 1.8.8 1.8 1.7a1.79 1.79 0 0 1-1.8 1.8c-.9 0-1.7-.8-1.7-1.8zm14 0c0-.9.8-1.7 1.8-1.7.9 0 1.7.8 1.7 1.7 0 1-.8 1.8-1.7 1.8a1.79 1.79 0 0 1-1.8-1.8zm-10.5-23.6c0-2.7 1.3-4.6 3.5-5.3 4.7-1.6 7 .2 7 5.3 0 3.6-.8 4.3-5.2 4.3-4.5 0-5.3-.7-5.3-4.3zm-32 9.2c2.7-2.6 3-40 .4-40-1.1 0-1.8 7.9-1.8 20.2s-.7 20.2-1.7 20.2c-1.1 0-1.8-7.9-1.8-20.2s-.7-20.2-1.7-20.2c-2.7 0-2.3 37.4.3 40 1.2 1.2 2.6 2.1 3.2 2.1s2-.9 3.1-2.1zm42-34.6c.5-1.8 2.4-3.7 4.2-4.2 4.5-1.2 4.5-8.3 0-9.5-1.8-.4-3.7-2.3-4.2-4.2-.6-2-2.4-3.3-4.7-3.3s-4.2 1.3-4.8 3.3c-.4 1.9-2.3 3.8-4.2 4.2-4.4 1.2-4.4 8.3 0 9.5 1.9.5 3.8 2.4 4.2 4.2.6 2 2.5 3.4 4.8 3.4s4.1-1.4 4.7-3.4zm-8.3-1.2c0-1.5-1.5-3.2-3.5-3.7-4.1-1.1-4.7-7.6-.7-7.6 1.6 0 3.2-1.5 3.7-3.5.5-1.9 2.3-3.5 4.1-3.5 1.7 0 3.5 1.6 4 3.5.5 2 2.2 3.5 3.7 3.5 1.6 0 2.8 1.5 2.8 3.6 0 2-1.2 3.5-2.8 3.5-1.5 0-3.2 1.6-3.7 3.5-1.1 4.2-7.6 4.8-7.6.7zm7.1-6c2.3-1.6 2.3-1.9 0-3.5-1.5-.9-3.1-1.7-3.5-1.7-.5 0-2.1.8-3.6 1.7-2.3 1.6-2.3 1.9 0 3.5 1.5.9 3.1 1.7 3.6 1.7.4 0 2-.8 3.5-1.7zm-35.1-1.7c0-1-4-1.8-8.8-1.8s-8.8.8-8.8 1.8c0 .9 4 1.7 8.8 1.7s8.8-.8 8.8-1.7zm-2.9-7.5c2.8-4.5-.2-8.3-9-11.2-6.6-2.3-7.9-2.2-11.8.4-4.7 3-4.7 3.1 2.4 11.8 3.4 4.1 15.7 3.4 18.4-1zm-2.9-13.1c-1.7-.4-4.1-.4-5.3.1-1.1.5.3.8 3.2.8s3.8-.4 2.1-.9zm89.6-14.2l4-3.1-4.9-5.8c-4.2-5-5.7-5.7-11.7-5.2-12.6 1-13.2 10.2-1 14.6 8.3 3 9.1 3 13.6-.5zm-14.1 1.9c-1.7-.4-4.1-.4-5.3.1-1.1.5.2.8 3.1.8s3.9-.4 2.2-.9zM82 105.6c.4-1.9 2.3-3.8 4.2-4.2 4.4-1.2 4.4-8.3 0-9.5-1.9-.5-3.8-2.4-4.2-4.2-.6-2-2.5-3.4-4.8-3.4s-4.1 1.4-4.7 3.4c-.5 1.8-2.4 3.7-4.2 4.2-4.5 1.2-4.5 8.3 0 9.5 1.8.4 3.7 2.3 4.2 4.2.6 2 2.4 3.3 4.7 3.3s4.2-1.3 4.8-3.3zm-8.3-1.2c0-1.6-1.5-3.2-3.5-3.7-4.1-1.1-4.8-7.6-.7-7.6 1.5 0 3.2-1.6 3.7-3.5s2.3-3.5 4-3.5c1.8 0 3.6 1.6 4.1 3.5s2.1 3.5 3.7 3.5 2.8 1.5 2.8 3.5c0 2.1-1.2 3.6-2.8 3.6s-3.2 1.5-3.7 3.5c-1.1 4.1-7.6 4.8-7.6.7zm7.1-6c2.3-1.6 2.3-1.9 0-3.5-1.5-.9-3.1-1.7-3.6-1.7-.4 0-2 .8-3.5 1.7-2.3 1.6-2.3 1.9 0 3.5 1.5.9 3.1 1.7 3.5 1.7.5 0 2.1-.8 3.6-1.7zm45.6-1.8c0-.9-3.9-1.7-8.8-1.7-4.8 0-8.8.8-8.8 1.7 0 1 4 1.8 8.8 1.8 4.9 0 8.8-.8 8.8-1.8zm-10.5-23.7c0-12.3.7-20.2 1.7-20.2 1.1 0 1.8 7.9 1.8 20.2s.7 20.2 1.7 20.2c1.1 0 1.8-7.5 1.8-19.1 0-14.8-.6-19.6-2.6-21.3-2.1-1.7-3.2-1.7-5.3 0s-2.6 6.5-2.6 21.3c0 11.6.6 19.1 1.7 19.1s1.8-7.9 1.8-20.2zm-28-3.9c2.9-1.6 5.2-3.4 5.3-3.9.6-5 .8-29.6.2-31.3-.5-1.5-4.8-2.2-13.1-2.2-9.7 0-12.8.7-14.7 3.1-3.2 4.3-3 15.5.4 20.7 2.6 4 2.6 4.4 0 5.4-4.2 1.6-3.4 4.8 2 8.2 6.2 3.8 13.5 3.8 19.9 0zm-14.8-1.6c-.6-.7-1.1-3.1-1.1-5.3 0-3.4.9-4.1 5.2-4.1 4.4 0 5.3.7 5.3 4.2 0 4.9-6.2 8.3-9.4 5.2zm-4.6-28.7c0-1 .8-1.8 1.7-1.8a1.79 1.79 0 0 1 1.8 1.8c0 .9-.8 1.7-1.8 1.7-.9 0-1.7-.8-1.7-1.7zm14 0a1.79 1.79 0 0 1 1.8-1.8c.9 0 1.7.8 1.7 1.8 0 .9-.8 1.7-1.7 1.7-1 0-1.8-.8-1.8-1.7zm24.6 136.9c0-1 1.2-3.1 2.6-4.5 2.8-2.8 3.4-1.2 1.6 3.6-1.2 3.1-4.2 3.8-4.2.9zm-57.9-4.4c0-1.5.7-2.2 1.7-1.6 2.3 1.4 2.3 4.4 0 4.4-1 0-1.7-1.3-1.7-2.8zm.4-6.4c.3-1.1 1.6-2.4 2.7-2.7 1.3-.5 1.7.3 1.1 2-1.3 3.2-4.9 3.9-3.8.7zm56.1.1c.9-2.7 4.7-3.2 5.3-.6.3.9-1 2-2.8 2.3-2.1.4-3-.2-2.5-1.7zm-56.1-7.8c.6-.6 2.1-.7 3.4-.2 1.4.6 1 1-1.1 1.1-1.8.1-2.9-.3-2.3-.9zm55.7-1.6c0-1.4.3-2.6.7-2.6s1.2 1.2 1.7 2.6c.6 1.5.3 2.6-.7 2.6-.9 0-1.7-1.1-1.7-2.6zm-50.9-5.1c0-1.4.8-3.1 1.8-3.7.9-.6 1.7.1 1.7 1.6 0 1.4-.8 3.1-1.7 3.7-1 .6-1.8-.1-1.8-1.6zm51.3-1.2c.4-1.2 1.8-2.6 3-3 1.4-.5 2 .2 1.6 1.5-.5 1.3-1.8 2.7-3.1 3.1s-2-.2-1.5-1.6zm-1-7.9c-.6-1.4 0-2.5 1.5-2.5 3.5 0 4.9 3 1.9 4.1-1.4.5-2.9-.2-3.4-1.6zm-52-1.7c0-1.5.8-2.3 1.7-1.7 2.3 1.4 2.3 4.4 0 4.4-.9 0-1.7-1.2-1.7-2.7zm1.1-5.5c-2.1-2.1-1.2-4 1.5-2.9 1.4.5 2.6 1.7 2.6 2.5 0 1.9-2.4 2.1-4.1.4zm53.3-.4c0-.8 1.2-2 2.6-2.5 1.6-.7 2.7-.1 2.7 1.5 0 1.4-1.2 2.6-2.7 2.6-1.4 0-2.6-.7-2.6-1.6zm-61.5-20.4c0-1.4 1.2-2.6 2.7-2.6 3.4 0 3.4 2.8 0 4.1-1.6.7-2.7.1-2.7-1.5zm56.2.9c-1.4-.8-1.9-2.1-1.2-2.8.7-.8 2.2-.4 3.3.7 2.7 2.7 1.2 4.1-2.1 2.1zm1-6.8c-.7-1.2-.9-2.7-.3-3.3 1.6-1.5 3.3.8 2.5 3.3-.6 1.8-1 1.8-2.2 0zm-54.4-1.8c-.5-.9.1-2 1.5-2.5s2.9.2 3.4 1.6c1.1 2.7-3.3 3.5-4.9.9zm-.7-7.3c.5-1.3 1.8-2.7 3.1-3.1s2 .2 1.5 1.6c-.4 1.2-1.8 2.6-3 3-1.4.5-2-.2-1.6-1.5zm52.4-.6c0-1.4.8-3.1 1.7-3.7 1-.6 1.8.1 1.8 1.6 0 1.4-.8 3.1-1.8 3.7-.9.6-1.7-.1-1.7-1.6zm-49.8-7.2c-.6-1.5-.3-2.6.7-2.6.9 0 1.7 1.1 1.7 2.6 0 1.4-.3 2.6-.7 2.6s-1.2-1.2-1.7-2.6zm53.8-1.9c.5-.6 2.1-.7 3.3-.2 1.4.6 1 1-1 1.1-1.9.1-2.9-.4-2.3-.9zm-57.6-6c-.6-1 .2-2.3 1.7-2.9 3.4-1.3 5.3.2 3.7 2.8-1.5 2.3-4 2.4-5.4.1zm58.1-.7c.6-1.6 1.9-2.8 2.8-2.8 2.3 0 .9 4-1.7 4.8-1.3.5-1.7-.3-1.1-2zm-59-6.1c0-3.1 2.1-7.3 3.7-7.3 2.5 0 1.9 3.5-1 6.4-1.5 1.5-2.7 1.9-2.7.9zm60.8 0c-.8-1.2-.9-2.7-.4-3.3 1.6-1.6 3.3.8 2.5 3.3-.6 1.8-1 1.8-2.1 0z" fill="#00989b"/><path d="M53.8 215c-.6-.7-1.1-4.2-1.1-8 0-3.7-.8-6.7-1.8-6.7s-1.7-1.6-1.7-3.5c0-4.3-4.5-4.6-6.8-.5-1.6 2.7-2 2.6-5.3-1.3-2.6-3.1-3.6-6.9-3.7-13.3 0-8-.9-10-8.7-19.7-8.6-10.8-13.6-21.6-11.5-25 1.8-2.9-1-12.2-3.7-12.2-1.4 0-2.5-.8-2.5-1.8s1.1-1.8 2.5-1.8c1.3 0 2.9-1.1 3.4-2.6.7-1.8 3.5-2.6 8.6-2.7 8.3 0 13-3.7 16.9-13.4 2-4.7 1.8-6.2-.7-10.1-1.7-2.5-4.1-4.5-5.4-4.5-4.2 0-2.7-4.7 2.3-6.9l4.8-2.2-3.9-3-3.9-2.9 3.7-2.3c2-1.3 3.8-2.1 4.1-1.8.2.4 1.4 7.2 2.6 15.1 1.9 11.8 1.9 16.2.1 22.9-1.2 4.6-2.9 9-3.7 10-.9.9-1.5 2.2-1.5 2.8 0 .7 17.9 1.3 39.9 1.2 22 0 38.6-.3 36.9-.8-3.4-.9-5.8-10.5-4-16.2.8-2.6.4-3.6-1.6-3.6-3.6 0-3.6-4.6 0-6 2.2-.8 2.6-4 2.3-17.5-.4-14.7-.7-16.4-3.5-15.7-1.6.5-3.5 2.9-4.2 5.5-.6 2.6-5.2 9-10.2 14.3l-8.2 8.7-4-3.7 9.9-10c5.4-5.5 9.9-10.5 9.9-11.1 0-.7-4.5 3.5-10 9.2-5.4 5.8-11.2 10.4-12.9 10.4-3.1 0-19.3-16.1-19.3-19.2 0-1-1.4-1.8-3.2-1.8-2.6 0-3-1.1-2.4-5.7.5-3.1 1.9-6.7 3.3-8 1.3-1.3 2.3-5.1 2.3-8.4s.8-6.1 1.8-6.1 1.7-1.2 1.7-2.6c0-2.3 3.2-2.7 21.6-2.2l21.5.5.5 7.4c.3 4.1 1.3 7.5 2.2 7.5s1.6 1.6 1.6 3.5c0 4.3 4.5 4.6 6.8.5 1.6-2.7 2-2.6 5.3 1.3 2.6 3.1 3.6 6.9 3.7 13.3 0 8 .9 10 8.7 19.7 8.6 10.8 13.6 21.6 11.5 25-1.8 2.9 1 12.2 3.7 12.2 1.4 0 2.5.8 2.5 1.8s-1.1 1.8-2.5 1.8c-1.3 0-2.9 1.1-3.4 2.6-.7 1.8-3.5 2.6-8.6 2.7-8.3 0-13 3.7-16.9 13.4-2 4.7-1.8 6.2.7 10.1 1.7 2.5 4.1 4.5 5.4 4.5 4.2 0 2.7 4.7-2.3 6.9l-4.8 2.2 3.9 3 3.9 2.9-3.7 2.3c-2 1.3-3.8 2.1-4.1 1.8-.2-.4-1.4-7.2-2.6-15.1-1.9-11.8-1.9-16.2-.1-22.9 1.2-4.6 2.9-9 3.7-10 .9-.9 1.5-2.2 1.5-2.8 0-.7-17.9-1.3-39.9-1.2-22 0-38.6.3-36.9.8 3.4.9 5.8 10.5 4 16.2-.8 2.6-.4 3.6 1.6 3.6 3.6 0 3.6 4.6 0 6-2.2.8-2.6 4-2.3 17.5.4 14.7.7 16.4 3.5 15.7 1.6-.5 3.5-2.9 4.2-5.5.6-2.6 5.2-9 10.2-14.3l8.2-8.7 4 3.7-9.9 10c-5.4 5.5-9.9 10.5-9.9 11.1 0 .7 4.5-3.5 10-9.2 5.4-5.8 11.2-10.4 12.9-10.4 3.1 0 19.3 16.1 19.3 19.2 0 1 1.4 1.8 3.2 1.8 2.6 0 3 1.1 2.4 5.7-.5 3.1-1.9 6.7-3.3 8-1.3 1.3-2.3 5.1-2.3 8.4s-.8 6.1-1.8 6.1-1.7 1.1-1.7 2.6c0 2.2-3.5 2.6-20.8 2.6-11.4 0-21.3-.5-22-1.1zM84.3 89.5v.1l-.9.9zm7.6-7c6.1-5.6 8.3-6.9 7.6-4.4-3.2 11.9-4.8 24.8-3.8 30.6 1 6.5.9 6.8-4.5 7.9-7 1.4-18.1 1.4-26.7-.1l-6.6-1V78.3l6.6 6.1c6.4 5.9 6.4 5.8-.6-1.9-4-4.3-7.8-10.2-8.5-13.1s-.9-4.9-.6-4.4c.4.4 4.9 5.3 10 10.9l9.3 10-4.6 4.2c-5.4 5-5.9 10-1.2 11.2 1.9.5 3.8 2.4 4.2 4.2 1.2 4.5 8.3 4.5 9.5 0 .5-1.8 2.4-3.7 4.2-4.2 4.7-1.2 4.1-6.2-1.3-11.2l-.5-.6zm-18.2 73.9h-.1l.9-.9zm-7.6 6.9c-6.1 5.6-8.3 6.9-7.6 4.4 3.2-11.8 4.9-24.8 3.9-30.6-1.1-6.4-.9-6.7 4.4-7.8 7.1-1.4 18.2-1.4 26.7 0l6.6 1.1v37.1l-6.6-6c-6.4-5.9-6.4-5.9.7 1.8 4 4.4 7.8 10.3 8.4 13.2.7 2.9 1 4.9.6 4.4s-4.9-5.4-10-10.9l-9.3-10 4.6-4.3c5.4-4.9 5.9-9.9 1.2-11.1-1.8-.5-3.7-2.4-4.2-4.3-.5-2-2.4-3.3-4.7-3.3s-4.2 1.3-4.7 3.3c-.5 1.9-2.4 3.8-4.3 4.3-4.7 1.2-4.1 6.2 1.3 11.2l.6.5zm26.3 47.9c3.2-4.3 3-15.5-.4-20.7-2.6-4-2.6-4.4 0-5.4 1.5-.6 2.8-2 2.8-3.1 0-3-9.4-8.1-14.9-8.1-4.4 0-14.8 4.8-15.1 6.9-.6 5-.8 29.6-.2 31.3.5 1.5 4.8 2.2 13.1 2.2 9.7 0 12.8-.7 14.7-3.1zm-20.4-4c0-.9.8-1.7 1.7-1.7 1 0 1.8.8 1.8 1.7a1.79 1.79 0 0 1-1.8 1.8c-.9 0-1.7-.8-1.7-1.8zm14 0c0-.9.8-1.7 1.8-1.7.9 0 1.7.8 1.7 1.7 0 1-.8 1.8-1.7 1.8a1.79 1.79 0 0 1-1.8-1.8zm-10.5-23.6c0-2.7 1.3-4.6 3.5-5.3 4.7-1.6 7 .2 7 5.3 0 3.6-.8 4.3-5.2 4.3-4.5 0-5.3-.7-5.3-4.3zm-32 9.2c2.7-2.6 3-40 .4-40-1.1 0-1.8 7.9-1.8 20.2s-.7 20.2-1.7 20.2c-1.1 0-1.8-7.9-1.8-20.2s-.7-20.2-1.7-20.2c-2.7 0-2.3 37.4.3 40 1.2 1.2 2.6 2.1 3.2 2.1s2-.9 3.1-2.1zm5.7-43.5c0-1-4-1.8-8.8-1.8s-8.8.8-8.8 1.8c0 .9 4 1.7 8.8 1.7s8.8-.8 8.8-1.7zm-2.9-7.5c2.8-4.5-.2-8.3-9-11.2-6.6-2.3-7.9-2.2-11.8.4-4.7 3-4.7 3.1 2.4 11.8 3.4 4.1 15.7 3.4 18.4-1zm-2.9-13.1c-1.7-.4-4.1-.4-5.3.1-1.1.5.3.8 3.2.8s3.8-.4 2.1-.9zm89.6-14.2l4-3.1-4.9-5.8c-4.2-5-5.7-5.7-11.7-5.2-12.6 1-13.2 10.2-1 14.6 8.3 3 9.1 3 13.6-.5zm-14.1 1.9c-1.7-.4-4.1-.4-5.3.1-1.1.5.2.8 3.1.8s3.9-.4 2.2-.9zm7.5-19.9c0-.9-3.9-1.7-8.8-1.7-4.8 0-8.8.8-8.8 1.7 0 1 4 1.8 8.8 1.8 4.9 0 8.8-.8 8.8-1.8zm-10.5-23.7c0-12.3.7-20.2 1.7-20.2 1.1 0 1.8 7.9 1.8 20.2s.7 20.2 1.7 20.2c1.1 0 1.8-7.5 1.8-19.1 0-14.8-.6-19.6-2.6-21.3-2.1-1.7-3.2-1.7-5.3 0s-2.6 6.5-2.6 21.3c0 11.6.6 19.1 1.7 19.1s1.8-7.9 1.8-20.2zm-28-3.9c2.9-1.6 5.2-3.4 5.3-3.9.6-5 .8-29.6.2-31.3-.5-1.5-4.8-2.2-13.1-2.2-9.7 0-12.8.7-14.7 3.1-3.2 4.3-3 15.5.4 20.7 2.6 4 2.6 4.4 0 5.4-4.2 1.6-3.4 4.8 2 8.2 6.2 3.8 13.5 3.8 19.9 0zm-14.8-1.6c-.6-.7-1.1-3.1-1.1-5.3 0-3.4.9-4.1 5.2-4.1 4.4 0 5.3.7 5.3 4.2 0 4.9-6.2 8.3-9.4 5.2zm-4.6-28.7c0-1 .8-1.8 1.7-1.8a1.79 1.79 0 0 1 1.8 1.8c0 .9-.8 1.7-1.8 1.7-.9 0-1.7-.8-1.7-1.7zm14 0a1.79 1.79 0 0 1 1.8-1.8c.9 0 1.7.8 1.7 1.8 0 .9-.8 1.7-1.7 1.7-1 0-1.8-.8-1.8-1.7zm24.6 136.9c0-1 1.2-3.1 2.6-4.5 2.8-2.8 3.4-1.2 1.6 3.6-1.2 3.1-4.2 3.8-4.2.9zm-57.9-4.4c0-1.5.7-2.2 1.7-1.6 2.3 1.4 2.3 4.4 0 4.4-1 0-1.7-1.3-1.7-2.8zm.4-6.4c.3-1.1 1.6-2.4 2.7-2.7 1.3-.5 1.7.3 1.1 2-1.3 3.2-4.9 3.9-3.8.7zm56.1.1c.9-2.7 4.7-3.2 5.3-.6.3.9-1 2-2.8 2.3-2.1.4-3-.2-2.5-1.7zM77.2 157c0-1.5-1.5-3.2-3.5-3.7-4.1-1.1-4.7-7.6-.7-7.6 1.6 0 3.2-1.5 3.7-3.5.5-1.9 2.3-3.5 4.1-3.5 1.7 0 3.5 1.6 4 3.5.5 2 2.2 3.5 3.7 3.5 1.6 0 2.8 1.5 2.8 3.6 0 2-1.2 3.5-2.8 3.5-1.5 0-3.2 1.6-3.7 3.5-1.1 4.2-7.6 4.8-7.6.7zm7.1-6c2.3-1.6 2.3-1.9 0-3.5-1.5-.9-3.1-1.7-3.5-1.7-.5 0-2.1.8-3.6 1.7-2.3 1.6-2.3 1.9 0 3.5 1.5.9 3.1 1.7 3.6 1.7.4 0 2-.8 3.5-1.7zm-34.7 6c.6-.6 2.1-.7 3.4-.2 1.4.6 1 1-1.1 1.1-1.8.1-2.9-.3-2.3-.9zm55.7-1.6c0-1.4.3-2.6.7-2.6s1.2 1.2 1.7 2.6c.6 1.5.3 2.6-.7 2.6-.9 0-1.7-1.1-1.7-2.6zm-50.9-5.1c0-1.4.8-3.1 1.8-3.7.9-.6 1.7.1 1.7 1.6 0 1.4-.8 3.1-1.7 3.7-1 .6-1.8-.1-1.8-1.6zm51.3-1.2c.4-1.2 1.8-2.6 3-3 1.4-.5 2 .2 1.6 1.5-.5 1.3-1.8 2.7-3.1 3.1s-2-.2-1.5-1.6zm-1-7.9c-.6-1.4 0-2.5 1.5-2.5 3.5 0 4.9 3 1.9 4.1-1.4.5-2.9-.2-3.4-1.6zm-52-1.7c0-1.5.8-2.3 1.7-1.7 2.3 1.4 2.3 4.4 0 4.4-.9 0-1.7-1.2-1.7-2.7zm1.1-5.5c-2.1-2.1-1.2-4 1.5-2.9 1.4.5 2.6 1.7 2.6 2.5 0 1.9-2.4 2.1-4.1.4zm53.3-.4c0-.8 1.2-2 2.6-2.5 1.6-.7 2.7-.1 2.7 1.5 0 1.4-1.2 2.6-2.7 2.6-1.4 0-2.6-.7-2.6-1.6zm-61.5-20.4c0-1.4 1.2-2.6 2.7-2.6 3.4 0 3.4 2.8 0 4.1-1.6.7-2.7.1-2.7-1.5zm56.2.9c-1.4-.8-1.9-2.1-1.2-2.8.7-.8 2.2-.4 3.3.7 2.7 2.7 1.2 4.1-2.1 2.1zm1-6.8c-.7-1.2-.9-2.7-.3-3.3 1.6-1.5 3.3.8 2.5 3.3-.6 1.8-1 1.8-2.2 0zm-54.4-1.8c-.5-.9.1-2 1.5-2.5s2.9.2 3.4 1.6c1.1 2.7-3.3 3.5-4.9.9zm25.3-1.2c0-1.6-1.5-3.2-3.5-3.7-4.1-1.1-4.8-7.6-.7-7.6 1.5 0 3.2-1.6 3.7-3.5s2.3-3.5 4-3.5c1.8 0 3.6 1.6 4.1 3.5S83.4 93 85 93s2.8 1.5 2.8 3.5c0 2.1-1.2 3.6-2.8 3.6s-3.2 1.5-3.7 3.5c-1.1 4.1-7.6 4.8-7.6.7zm7.1-6c2.3-1.6 2.3-1.9 0-3.5-1.5-.9-3.1-1.7-3.6-1.7-.4 0-2 .8-3.5 1.7-2.3 1.6-2.3 1.9 0 3.5 1.5.9 3.1 1.7 3.5 1.7.5 0 2.1-.8 3.6-1.7zm-33.1-.1c.5-1.3 1.8-2.7 3.1-3.1s2 .2 1.5 1.6c-.4 1.2-1.8 2.6-3 3-1.4.5-2-.2-1.6-1.5zm52.4-.6c0-1.4.8-3.1 1.7-3.7 1-.6 1.8.1 1.8 1.6 0 1.4-.8 3.1-1.8 3.7-.9.6-1.7-.1-1.7-1.6zm-49.8-7.2c-.6-1.5-.3-2.6.7-2.6.9 0 1.7 1.1 1.7 2.6 0 1.4-.3 2.6-.7 2.6s-1.2-1.2-1.7-2.6zm53.8-1.9c.5-.6 2.1-.7 3.3-.2 1.4.6 1 1-1 1.1-1.9.1-2.9-.4-2.3-.9zm-57.6-6c-.6-1 .2-2.3 1.7-2.9 3.4-1.3 5.3.2 3.7 2.8-1.5 2.3-4 2.4-5.4.1zm58.1-.7c.6-1.6 1.9-2.8 2.8-2.8 2.3 0 .9 4-1.7 4.8-1.3.5-1.7-.3-1.1-2zm-59-6.1c0-3.1 2.1-7.3 3.7-7.3 2.5 0 1.9 3.5-1 6.4-1.5 1.5-2.7 1.9-2.7.9zm60.8 0c-.8-1.2-.9-2.7-.4-3.3 1.6-1.6 3.3.8 2.5 3.3-.6 1.8-1 1.8-2.1 0z" class="N"/><use xlink:href="#B" fill="#00fe00"/><use xlink:href="#B" fill="#0000fe"/><path d="M53.8 215c-.6-.7-1.1-4.2-1.1-8 0-3.7-.8-6.7-1.8-6.7s-1.7-1.6-1.7-3.5c0-4.3-4.5-4.6-6.8-.5-1.6 2.7-2 2.6-5.3-1.3-2.6-3.1-3.6-6.9-3.7-13.3 0-8-.9-10-8.7-19.7-8.6-10.8-13.6-21.6-11.5-25 1.8-2.9-1-12.2-3.7-12.2-1.4 0-2.5-.8-2.5-1.8s1.1-1.8 2.5-1.8c1.3 0 2.9-1.2 3.5-2.7.8-2.2 3.3-2.6 11.4-2.2 7.8.4 10 1 8.8 2.6-1.4 1.5 8.4 2 40.9 2 23.4-.1 41.3-.5 39.6-.9-3.4-.9-5.8-10.5-4-16.2.8-2.6.4-3.6-1.6-3.6-3.6 0-3.6-4.6 0-6 2.2-.8 2.6-4 2.3-17.5-.4-14.8-.7-16.4-3.5-15.7-1.7.5-3.6 3-4.2 5.6C101.3 73 83.4 90.9 82 87.4c-.6-1.6 2.7-6.2 8.6-12 9.9-9.8 11.2-12.1 6.8-12.1-1.4 0-2.6.7-2.6 1.6 0 2.7-11.6 8.9-16.7 8.9s-16.7-6.2-16.7-8.9c0-.9-2.2-1.6-4.9-1.6-4.6 0-4.9-.5-4.2-5.7.5-3.1 1.9-6.7 3.3-8 1.3-1.3 2.3-5.1 2.3-8.4s.8-6.1 1.8-6.1 1.7-1.2 1.7-2.6c0-2.3 3.2-2.7 21.6-2.2l21.5.5.5 7.4c.3 4.1 1.3 7.5 2.2 7.5s1.6 1.6 1.6 3.5c0 4.3 4.5 4.6 6.8.5 1.6-2.7 2-2.6 5.3 1.3 2.6 3.1 3.6 6.9 3.7 13.3 0 8 .9 10 8.7 19.7 8.6 10.8 13.6 21.6 11.5 25-1.8 2.9 1 12.2 3.7 12.2 1.4 0 2.5.8 2.5 1.8s-1.1 1.8-2.5 1.8c-1.3 0-2.9 1.2-3.5 2.7-.8 2.2-3.3 2.6-11.4 2.2-7.8-.4-10-1-8.8-2.6 1.4-1.5-8.4-2-40.9-2-23.4.1-41.3.5-39.6.9 3.4.9 5.8 10.5 4 16.2-.8 2.6-.4 3.6 1.6 3.6 3.6 0 3.6 4.6 0 6-2.2.8-2.6 4-2.3 17.5.4 14.8.7 16.4 3.5 15.7 1.7-.5 3.6-3 4.2-5.6 1.4-6.4 19.3-24.3 20.7-20.8.6 1.6-2.7 6.2-8.6 12-9.9 9.8-11.2 12.1-6.8 12.1 1.4 0 2.6-.7 2.6-1.6 0-2.7 11.6-8.9 16.7-8.9s16.7 6.2 16.7 8.9c0 .9 2.2 1.6 4.9 1.6 4.6 0 4.9.5 4.2 5.7-.5 3.1-1.9 6.7-3.3 8-1.3 1.3-2.3 5.1-2.3 8.4s-.8 6.1-1.8 6.1-1.7 1.1-1.7 2.6c0 2.2-3.5 2.6-20.8 2.6-11.4 0-21.3-.5-22-1.1zm38.6-3.7c3.2-4.3 3-15.5-.4-20.7-2.6-4-2.6-4.4 0-5.4 1.5-.6 2.8-2 2.8-3.1 0-3-9.4-8.1-14.9-8.1-4.4 0-14.8 4.8-15.1 6.9-.6 5-.8 29.6-.2 31.3.5 1.5 4.8 2.2 13.1 2.2 9.7 0 12.8-.7 14.7-3.1zm-20.4-4c0-.9.8-1.7 1.7-1.7 1 0 1.8.8 1.8 1.7a1.79 1.79 0 0 1-1.8 1.8c-.9 0-1.7-.8-1.7-1.8zm14 0c0-.9.8-1.7 1.8-1.7.9 0 1.7.8 1.7 1.7 0 1-.8 1.8-1.7 1.8a1.79 1.79 0 0 1-1.8-1.8zm-10.5-23.6c0-2.7 1.3-4.6 3.5-5.3 4.7-1.6 7 .2 7 5.3 0 3.6-.8 4.3-5.2 4.3-4.5 0-5.3-.7-5.3-4.3zm-32 9.2c2.7-2.6 3-40 .4-40-1.1 0-1.8 7.9-1.8 20.2s-.7 20.2-1.7 20.2c-1.1 0-1.8-7.9-1.8-20.2s-.7-20.2-1.7-20.2c-2.7 0-2.3 37.4.3 40 1.2 1.2 2.6 2.1 3.2 2.1s2-.9 3.1-2.1zm-12.2-41.7c-3.6-7.1-10.9-15.9-13.2-15.9-6.7 0-3.4 12 7.1 25.1l7.3 9.2.5-6.9c.4-3.8-.4-9-1.7-11.5zm-7.2.5c-3.6-5.3-5.8-9.1-4.8-8.5 2.2 1.4 12.8 16.8 12 17.5-.3.3-3.5-3.7-7.2-9zm25.1-2.3c0-1-4-1.8-8.8-1.8s-8.8.8-8.8 1.8c0 .9 4 1.7 8.8 1.7s8.8-.8 8.8-1.7zm-2.9-7.5c2.8-4.5-.2-8.3-9-11.2-6.6-2.3-7.9-2.2-11.8.4-4.7 3-4.7 3.1 2.4 11.8 3.4 4.1 15.7 3.4 18.4-1zm-2.9-13.1c-1.7-.4-4.1-.4-5.3.1-1.1.5.3.8 3.2.8s3.8-.4 2.1-.9zm-6.5-3.3c0-.4-2.2-.7-4.9-.6-4.2.1-4.3.3-1.3 1.5 3.3 1.3 6.2.9 6.2-.9zm93-4.9c0-1.6-7.1-2.4-8-.9-.5.8 1 1.5 3.5 1.5s4.5-.3 4.5-.6zm3.1-6l4-3.1-4.9-5.8c-4.2-5-5.7-5.7-11.7-5.2-12.6 1-13.2 10.2-1 14.6 8.3 3 9.1 3 13.6-.5zm-14.1 1.9c-1.7-.4-4.1-.4-5.3.1-1.1.5.2.8 3.1.8s3.9-.4 2.2-.9zm24.4-8.3c1.4-3.7-5-16.7-12.2-24.7l-6.3-7.1-.1 7.3c-.1 13.8 15 33.7 18.6 24.5zm-10.7-12.9c-3.4-4.6-6.1-9-6.2-9.9 0-.9.2-1.3.5-.9 6 8.1 13.3 19.2 12.7 19.2-.5 0-3.6-3.8-7-8.4zm-6.2 1.3c0-.9-3.9-1.7-8.8-1.7-4.8 0-8.8.8-8.8 1.7 0 1 4 1.8 8.8 1.8 4.9 0 8.8-.8 8.8-1.8zm-10.5-23.7c0-12.3.7-20.2 1.7-20.2 1.1 0 1.8 7.9 1.8 20.2s.7 20.2 1.7 20.2c1.1 0 1.8-7.5 1.8-19.1 0-14.8-.6-19.6-2.6-21.3-2.1-1.7-3.2-1.7-5.3 0s-2.6 6.5-2.6 21.3c0 11.6.6 19.1 1.7 19.1s1.8-7.9 1.8-20.2zm-28-3.9c2.9-1.6 5.2-3.4 5.3-3.9.6-5 .8-29.6.2-31.3-.5-1.5-4.8-2.2-13.1-2.2-9.7 0-12.8.7-14.7 3.1-3.2 4.3-3 15.5.4 20.7 2.6 4 2.6 4.4 0 5.4-4.2 1.6-3.4 4.8 2 8.2 6.2 3.8 13.5 3.8 19.9 0zm-14.8-1.6c-.6-.7-1.1-3.1-1.1-5.3 0-3.4.9-4.1 5.2-4.1 4.4 0 5.3.7 5.3 4.2 0 4.9-6.2 8.3-9.4 5.2zm-4.6-28.7c0-1 .8-1.8 1.7-1.8a1.79 1.79 0 0 1 1.8 1.8c0 .9-.8 1.7-1.8 1.7-.9 0-1.7-.8-1.7-1.7zm14 0a1.79 1.79 0 0 1 1.8-1.8c.9 0 1.7.8 1.7 1.8 0 .9-.8 1.7-1.7 1.7-1 0-1.8-.8-1.8-1.7zm11.1 132c-5.4-6.1-8.6-11-7.8-12.2 1.8-2.9 15.2 11.4 16.7 17.7.6 2.6.9 4.7.7 4.7-.3-.1-4.6-4.7-9.6-10.2zm13.5 4.9c0-1 1.2-3.1 2.6-4.5 2.8-2.8 3.4-1.2 1.6 3.6-1.2 3.1-4.2 3.8-4.2.9zm13.3-.7c1.8-1.4 4.1-2.6 5-2.6.9-.1.1 1.1-1.7 2.5-1.9 1.4-4.2 2.6-5.1 2.6s-.1-1.1 1.8-2.5zm-71.2-3.7c0-1.5.7-2.2 1.7-1.6 2.3 1.4 2.3 4.4 0 4.4-1 0-1.7-1.3-1.7-2.8zm.4-6.4c.3-1.1 1.6-2.4 2.7-2.7 1.3-.5 1.7.3 1.1 2-1.3 3.2-4.9 3.9-3.8.7zm56.1.1c.9-2.7 4.7-3.2 5.3-.6.3.9-1 2-2.8 2.3-2.1.4-3-.2-2.5-1.7zm-56.1-7.8c.6-.6 2.1-.7 3.4-.2 1.4.6 1 1-1.1 1.1-1.8.1-2.9-.3-2.3-.9zm55.7-1.6c0-1.4.3-2.6.7-2.6s1.2 1.2 1.7 2.6c.6 1.5.3 2.6-.7 2.6-.9 0-1.7-1.1-1.7-2.6zm-50.9-5.1c0-1.4.8-3.1 1.8-3.7.9-.6 1.7.1 1.7 1.6 0 1.4-.8 3.1-1.7 3.7-1 .6-1.8-.1-1.8-1.6zm51.3-1.2c.4-1.2 1.8-2.6 3-3 1.4-.5 2 .2 1.6 1.5-.5 1.3-1.8 2.7-3.1 3.1s-2-.2-1.5-1.6zm-1-7.9c-.6-1.4 0-2.5 1.5-2.5 3.5 0 4.9 3 1.9 4.1-1.4.5-2.9-.2-3.4-1.6zm-52-1.7c0-1.5.8-2.3 1.7-1.7 2.3 1.4 2.3 4.4 0 4.4-.9 0-1.7-1.2-1.7-2.7zm1.1-5.5c-2.1-2.1-1.2-4 1.5-2.9 1.4.5 2.6 1.7 2.6 2.5 0 1.9-2.4 2.1-4.1.4zm53.3-.4c0-.8 1.2-2 2.6-2.5 1.6-.7 2.7-.1 2.7 1.5 0 1.4-1.2 2.6-2.7 2.6-1.4 0-2.6-.7-2.6-1.6zm-41.8-3.9c5.1-1.5 23.5-1.5 30.3 0 2.9.6-3.7 1.1-14.6 1.1-10.8 0-17.9-.5-15.7-1.1zm-2.9-13.6c-2.9-.6 3.7-1.1 14.6-1.1 10.8 0 17.9.5 15.7 1.1-5.1 1.5-23.5 1.5-30.3 0zm-16.8-2.9c0-1.4 1.2-2.6 2.7-2.6 3.4 0 3.4 2.8 0 4.1-1.6.7-2.7.1-2.7-1.5zm56.2.9c-1.4-.8-1.9-2.1-1.2-2.8.7-.8 2.2-.4 3.3.7 2.7 2.7 1.2 4.1-2.1 2.1zm1-6.8c-.7-1.2-.9-2.7-.3-3.3 1.6-1.5 3.3.8 2.5 3.3-.6 1.8-1 1.8-2.2 0zm-54.4-1.8c-.5-.9.1-2 1.5-2.5s2.9.2 3.4 1.6c1.1 2.7-3.3 3.5-4.9.9zm-.7-7.3c.5-1.3 1.8-2.7 3.1-3.1s2 .2 1.5 1.6c-.4 1.2-1.8 2.6-3 3-1.4.5-2-.2-1.6-1.5zm52.4-.6c0-1.4.8-3.1 1.7-3.7 1-.6 1.8.1 1.8 1.6 0 1.4-.8 3.1-1.8 3.7-.9.6-1.7-.1-1.7-1.6zm-49.8-7.2c-.6-1.5-.3-2.6.7-2.6.9 0 1.7 1.1 1.7 2.6 0 1.4-.3 2.6-.7 2.6s-1.2-1.2-1.7-2.6zm13.5-8.4c-4-4.1-7.7-9.8-8.4-12.7s-1-4.9-.6-4.4 4.8 5.3 9.7 10.6c5.5 6 8.5 10.6 7.7 11.9-.9 1.4-3.5-.3-8.4-5.4zm40.3 6.5c.5-.6 2.1-.7 3.3-.2 1.4.6 1 1-1 1.1-1.9.1-2.9-.4-2.3-.9zm-57.6-6c-.6-1 .2-2.3 1.7-2.9 3.4-1.3 5.3.2 3.7 2.8-1.5 2.3-4 2.4-5.4.1zm58.1-.7c.6-1.6 1.9-2.8 2.8-2.8 2.3 0 .9 4-1.7 4.8-1.3.5-1.7-.3-1.1-2zm-59-6.1c0-3.1 2.1-7.3 3.7-7.3 2.5 0 1.9 3.5-1 6.4-1.5 1.5-2.7 1.9-2.7.9zm60.8 0c-.8-1.2-.9-2.7-.4-3.3 1.6-1.6 3.3.8 2.5 3.3-.6 1.8-1 1.8-2.1 0zm-72.1-4.6c1.9-1.4 4.2-2.6 5.1-2.6s.1 1.1-1.8 2.5c-1.8 1.4-4.1 2.6-5 2.6-.9.1-.1-1.1 1.7-2.5z" class="O"/><path d="M72 207.3c0-.9.8-1.7 1.7-1.7 1 0 1.8.8 1.8 1.7a1.79 1.79 0 0 1-1.8 1.8c-.9 0-1.7-.8-1.7-1.8zm14 0c0-.9.8-1.7 1.8-1.7.9 0 1.7.8 1.7 1.7 0 1-.8 1.8-1.7 1.8a1.79 1.79 0 0 1-1.8-1.8zm-49.6-13.1c-1.9-2.6-3-7.4-3-12.8 0-7.7-1-9.8-8.7-19.4-8.6-10.8-13.6-21.6-11.5-25 1.8-2.9-1-12.2-3.7-12.2-1.4 0-2.5-.8-2.5-1.8s1.1-1.8 2.5-1.8c1.3 0 2.9-1.2 3.5-2.7.8-2.2 3.3-2.6 11.4-2.2 7.8.4 10 1 8.8 2.6-1.4 1.5 8.4 2 40.9 2 23.4-.1 41.3-.5 39.6-.9-3.4-.9-5.8-10.5-4-16.2.8-2.6.4-3.6-1.6-3.6-3.6 0-3.6-4.6 0-6 2.3-.9 2.7-3.8 2.5-15.6-.5-20.9-.2-22.8 3.6-27.4l3.4-4.1 3.5 4.1c2.4 2.9 3.4 6.8 3.5 13.1 0 8 .9 10 8.7 19.7 8.6 10.8 13.6 21.6 11.5 25-1.8 2.9 1 12.2 3.7 12.2 1.4 0 2.5.8 2.5 1.8s-1.1 1.8-2.5 1.8c-1.3 0-2.9 1.2-3.5 2.7-.8 2.2-3.3 2.6-11.4 2.2-7.8-.4-10-1-8.8-2.6 1.4-1.5-8.4-2-40.9-2-23.4.1-41.3.5-39.6.9 3.4.9 5.8 10.5 4 16.2-.8 2.6-.4 3.6 1.6 3.6 3.5 0 3.6 4.6.1 6-2.2.8-2.6 4.3-2.4 19.3.3 15.4-.2 18.9-3 22.8-4.1 5.6-4.3 5.6-8.2.3zm7.1-1.3c2.7-2.6 3-40 .4-40-1.1 0-1.8 7.9-1.8 20.2s-.7 20.2-1.7 20.2c-1.1 0-1.8-7.9-1.8-20.2s-.7-20.2-1.7-20.2c-2.7 0-2.3 37.4.3 40 1.2 1.2 2.6 2.1 3.2 2.1s2-.9 3.1-2.1zm-12.2-41.7c-3.6-7.1-10.9-15.9-13.2-15.9-6.7 0-3.4 12 7.1 25.1l7.3 9.2.5-6.9c.4-3.8-.4-9-1.7-11.5zm-7.2.5c-3.6-5.3-5.8-9.1-4.8-8.5 2.2 1.4 12.8 16.8 12 17.5-.3.3-3.5-3.7-7.2-9zm25.1-2.3c0-1-4-1.8-8.8-1.8s-8.8.8-8.8 1.8c0 .9 4 1.7 8.8 1.7s8.8-.8 8.8-1.7zm-2.9-7.5c2.8-4.5-.2-8.3-9-11.2-6.6-2.3-7.9-2.2-11.8.4-4.7 3-4.7 3.1 2.4 11.8 3.4 4.1 15.7 3.4 18.4-1zm-24.4-10.4c6.6-3 5.6-6.7-1.7-6.7-6.2 0-7 .9-5.1 6 1.3 3.3 1.1 3.3 6.8.7zm21.5-2.7c-1.7-.4-4.1-.4-5.3.1-1.1.5.3.8 3.2.8s3.8-.4 2.1-.9zm-6.5-3.3c0-.4-2.2-.7-4.9-.6-4.2.1-4.3.3-1.3 1.5 3.3 1.3 6.2.9 6.2-.9zm107.1 1c0-1-3.6-1.7-7.9-1.7-4.4 0-7.9.7-7.9 1.7s3.5 1.8 7.9 1.8c4.3 0 7.9-.8 7.9-1.8zm-114.2-7c0-1-3.5-1.8-7.9-1.8-4.3 0-7.9.8-7.9 1.8s3.6 1.7 7.9 1.7c4.4 0 7.9-.7 7.9-1.7zm100.1 1.1c0-1.6-7.1-2.4-8-.9-.5.8 1 1.5 3.5 1.5s4.5-.3 4.5-.6zm14-1.6c0-5.2-2.7-6.8-7.6-4.6-6.7 3.1-5.9 6.8 1.5 6.8 3.8 0 6.1-.8 6.1-2.2zm-10.9-4.4l4-3.1-4.9-5.8c-4.2-5-5.7-5.7-11.7-5.2-12.6 1-13.2 10.2-1 14.6 8.3 3 9.1 3 13.6-.5zm-14.1 1.9c-1.7-.4-4.1-.4-5.3.1-1.1.5.2.8 3.1.8s3.9-.4 2.2-.9zm24.4-8.3c1.4-3.7-5-16.7-12.2-24.7l-6.3-7.1-.1 7.3c-.1 13.8 15 33.7 18.6 24.5zm-10.7-12.9c-3.4-4.6-6.1-9-6.2-9.9 0-.9.2-1.3.5-.9 6 8.1 13.3 19.2 12.7 19.2-.5 0-3.6-3.8-7-8.4zm-6.2 1.3c0-.9-3.9-1.7-8.8-1.7-4.8 0-8.8.8-8.8 1.7 0 1 4 1.8 8.8 1.8 4.9 0 8.8-.8 8.8-1.8zm-10.5-23.7c0-12.3.7-20.2 1.7-20.2 1.1 0 1.8 7.9 1.8 20.2s.7 20.2 1.7 20.2c1.1 0 1.8-7.5 1.8-19.1 0-14.8-.6-19.6-2.6-21.3-2.1-1.7-3.2-1.7-5.3 0s-2.6 6.5-2.6 21.3c0 11.6.6 19.1 1.7 19.1s1.8-7.9 1.8-20.2zM62.5 182.3c1.5-4.2 11.6-10.1 17.4-10.1 5.5 0 15.8 5.8 17.3 9.7.6 1.4.2 2.6-.7 2.6s-1.7-1-1.7-2.3c0-3.2-9.3-8.2-15.2-8.2-5.1 0-11.9 3.7-16 8.7-1.9 2.4-2 2.3-1.1-.4zm-7.1-3.5c1.7-5.9 19.4-23.3 20.5-20.3.8 2.1-18.3 24.2-20.9 24.2-.4 0-.3-1.7.4-3.9zm38.2-8.1c-5.4-6.1-8.6-11-7.8-12.2 1.8-2.9 15.2 11.4 16.7 17.7.6 2.6.9 4.7.7 4.7-.3-.1-4.6-4.7-9.6-10.2zm13.5 4.9c0-1 1.2-3.1 2.6-4.5 2.8-2.8 3.4-1.2 1.6 3.6-1.2 3.1-4.2 3.8-4.2.9zm13.3-.7c1.8-1.4 4.1-2.6 5-2.6.9-.1.1 1.1-1.7 2.5-1.9 1.4-4.2 2.6-5.1 2.6s-.1-1.1 1.8-2.5zm-71.2-3.7c0-1.5.7-2.2 1.7-1.6 2.3 1.4 2.3 4.4 0 4.4-1 0-1.7-1.3-1.7-2.8zm.4-6.4c.3-1.1 1.6-2.4 2.7-2.7 1.3-.5 1.7.3 1.1 2-1.3 3.2-4.9 3.9-3.8.7zm56.1.1c.9-2.7 4.7-3.2 5.3-.6.3.9-1 2-2.8 2.3-2.1.4-3-.2-2.5-1.7zm-56.1-7.8c.6-.6 2.1-.7 3.4-.2 1.4.6 1 1-1.1 1.1-1.8.1-2.9-.3-2.3-.9zm55.7-1.6c0-1.4.3-2.6.7-2.6s1.2 1.2 1.7 2.6c.6 1.5.3 2.6-.7 2.6-.9 0-1.7-1.1-1.7-2.6zm-50.9-5.1c0-1.4.8-3.1 1.8-3.7.9-.6 1.7.1 1.7 1.6 0 1.4-.8 3.1-1.7 3.7-1 .6-1.8-.1-1.8-1.6zm51.3-1.2c.4-1.2 1.8-2.6 3-3 1.4-.5 2 .2 1.6 1.5-.5 1.3-1.8 2.7-3.1 3.1s-2-.2-1.5-1.6zm-1-7.9c-.6-1.4 0-2.5 1.5-2.5 3.5 0 4.9 3 1.9 4.1-1.4.5-2.9-.2-3.4-1.6zm-52-1.7c0-1.5.8-2.3 1.7-1.7 2.3 1.4 2.3 4.4 0 4.4-.9 0-1.7-1.2-1.7-2.7zm1.1-5.5c-2.1-2.1-1.2-4 1.5-2.9 1.4.5 2.6 1.7 2.6 2.5 0 1.9-2.4 2.1-4.1.4zm53.3-.4c0-.8 1.2-2 2.6-2.5 1.6-.7 2.7-.1 2.7 1.5 0 1.4-1.2 2.6-2.7 2.6-1.4 0-2.6-.7-2.6-1.6zm-41.8-3.9c5.1-1.5 23.5-1.5 30.3 0 2.9.6-3.7 1.1-14.6 1.1-10.8 0-17.9-.5-15.7-1.1zm-2.9-13.6c-2.9-.6 3.7-1.1 14.6-1.1 10.8 0 17.9.5 15.7 1.1-5.1 1.5-23.5 1.5-30.3 0zm-16.8-2.9c0-1.4 1.2-2.6 2.7-2.6 3.4 0 3.4 2.8 0 4.1-1.6.7-2.7.1-2.7-1.5zm56.2.9c-1.4-.8-1.9-2.1-1.2-2.8.7-.8 2.2-.4 3.3.7 2.7 2.7 1.2 4.1-2.1 2.1zm1-6.8c-.7-1.2-.9-2.7-.3-3.3 1.6-1.5 3.3.8 2.5 3.3-.6 1.8-1 1.8-2.2 0zm-54.4-1.8c-.5-.9.1-2 1.5-2.5s2.9.2 3.4 1.6c1.1 2.7-3.3 3.5-4.9.9zm-.7-7.3c.5-1.3 1.8-2.7 3.1-3.1s2 .2 1.5 1.6c-.4 1.2-1.8 2.6-3 3-1.4.5-2-.2-1.6-1.5zm52.4-.6c0-1.4.8-3.1 1.7-3.7 1-.6 1.8.1 1.8 1.6 0 1.4-.8 3.1-1.8 3.7-.9.6-1.7-.1-1.7-1.6zm-49.8-7.2c-.6-1.5-.3-2.6.7-2.6.9 0 1.7 1.1 1.7 2.6 0 1.4-.3 2.6-.7 2.6s-1.2-1.2-1.7-2.6zm13.5-8.4c-4-4.1-7.7-9.8-8.4-12.7s-1-4.9-.6-4.4 4.8 5.3 9.7 10.6c5.5 6 8.5 10.6 7.7 11.9-.9 1.4-3.5-.3-8.4-5.4zm18.3 5.4c-.9-2.3 19.3-25.2 20.9-23.7 1.8 1.8-3.4 9.9-11.3 17.6-6.1 5.9-9 7.8-9.6 6.1zm22 1.1c.5-.6 2.1-.7 3.3-.2 1.4.6 1 1-1 1.1-1.9.1-2.9-.4-2.3-.9zm-57.6-6c-.6-1 .2-2.3 1.7-2.9 3.4-1.3 5.3.2 3.7 2.8-1.5 2.3-4 2.4-5.4.1zm58.1-.7c.6-1.6 1.9-2.8 2.8-2.8 2.3 0 .9 4-1.7 4.8-1.3.5-1.7-.3-1.1-2zm-59-6.1c0-3.1 2.1-7.3 3.7-7.3 2.5 0 1.9 3.5-1 6.4-1.5 1.5-2.7 1.9-2.7.9zm60.8 0c-.8-1.2-.9-2.7-.4-3.3 1.6-1.6 3.3.8 2.5 3.3-.6 1.8-1 1.8-2.1 0zm-72.1-4.6c1.9-1.4 4.2-2.6 5.1-2.6s.1 1.1-1.8 2.5c-1.8 1.4-4.1 2.6-5 2.6-.9.1-.1-1.1 1.7-2.5zm33.4-.8c-5.6-3.7-9.3-8.9-6.3-8.9 1 0 1.8 1 1.8 2.3 0 3.2 9.3 8.2 15.2 8.2 5.1 0 11.9-3.7 16-8.7 1.9-2.4 2-2.3 1.1.4C94 68 83.9 73.8 77.9 73.8c-2.8 0-7.4-1.5-10.2-3.4zm.8-31.7c0-1 .8-1.8 1.7-1.8a1.79 1.79 0 0 1 1.8 1.8c0 .9-.8 1.7-1.8 1.7-.9 0-1.7-.8-1.7-1.7zm14 0a1.79 1.79 0 0 1 1.8-1.8c.9 0 1.7.8 1.7 1.8 0 .9-.8 1.7-1.7 1.7-1 0-1.8-.8-1.8-1.7z" class="P"/><path d="M72 207.3c0-.9.8-1.7 1.7-1.7 1 0 1.8.8 1.8 1.7a1.79 1.79 0 0 1-1.8 1.8c-.9 0-1.7-.8-1.7-1.8zm14 0c0-.9.8-1.7 1.8-1.7.9 0 1.7.8 1.7 1.7 0 1-.8 1.8-1.7 1.8a1.79 1.79 0 0 1-1.8-1.8zm-49.6-13.1c-1.9-2.6-3-7.4-3-12.8 0-7.7-1-9.8-8.7-19.4-8.6-10.8-13.6-21.6-11.5-25 1.8-2.9-1-12.2-3.7-12.2-1.4 0-2.5-.8-2.5-1.8s1.1-1.8 2.5-1.8c1.3 0 2.9-1.2 3.5-2.7.8-2.2 3.3-2.6 11.4-2.2 7.8.4 10 1 8.8 2.6-1.4 1.5 8.4 2 40.9 2 23.4-.1 41.3-.5 39.6-.9-3.4-.9-5.8-10.5-4-16.2.8-2.6.4-3.6-1.6-3.6-3.6 0-3.6-4.6 0-6 2.3-.9 2.7-3.8 2.5-15.6-.5-20.9-.2-22.8 3.6-27.4l3.4-4.1 3.5 4.1c2.4 2.9 3.4 6.8 3.5 13.1 0 8 .9 10 8.7 19.7 8.6 10.8 13.6 21.6 11.5 25-1.8 2.9 1 12.2 3.7 12.2 1.4 0 2.5.8 2.5 1.8s-1.1 1.8-2.5 1.8c-1.3 0-2.9 1.2-3.5 2.7-.8 2.2-3.3 2.6-11.4 2.2-7.8-.4-10-1-8.8-2.6 1.4-1.5-8.4-2-40.9-2-23.4.1-41.3.5-39.6.9 3.4.9 5.8 10.5 4 16.2-.8 2.6-.4 3.6 1.6 3.6 3.5 0 3.6 4.6.1 6-2.2.8-2.6 4.3-2.4 19.3.3 15.4-.2 18.9-3 22.8-4.1 5.6-4.3 5.6-8.2.3zm7.1-1.3c2.7-2.6 3-40 .4-40-1.1 0-1.8 7.9-1.8 20.2s-.7 20.2-1.7 20.2c-1.1 0-1.8-7.9-1.8-20.2s-.7-20.2-1.7-20.2c-2.7 0-2.3 37.4.3 40 1.2 1.2 2.6 2.1 3.2 2.1s2-.9 3.1-2.1zm-12.2-41.7c-3.6-7.1-10.9-15.9-13.2-15.9-6.7 0-3.4 12 7.1 25.1l7.3 9.2.5-6.9c.4-3.8-.4-9-1.7-11.5zm-7.2.5c-3.6-5.3-5.8-9.1-4.8-8.5 2.2 1.4 12.8 16.8 12 17.5-.3.3-3.5-3.7-7.2-9zm25.1-2.3c0-1-4-1.8-8.8-1.8s-8.8.8-8.8 1.8c0 .9 4 1.7 8.8 1.7s8.8-.8 8.8-1.7zm-2.9-7.5c2.8-4.5-.2-8.3-9-11.2-6.6-2.3-7.9-2.2-11.8.4-4.7 3-4.7 3.1 2.4 11.8 3.4 4.1 15.7 3.4 18.4-1zm-24.4-10.4c6.6-3 5.6-6.7-1.7-6.7-6.2 0-7 .9-5.1 6 1.3 3.3 1.1 3.3 6.8.7zm21.5-2.7c-1.7-.4-4.1-.4-5.3.1-1.1.5.3.8 3.2.8s3.8-.4 2.1-.9zm-6.5-3.3c0-.4-2.2-.7-4.9-.6-4.2.1-4.3.3-1.3 1.5 3.3 1.3 6.2.9 6.2-.9zm107.1 1c0-1-3.6-1.7-7.9-1.7-4.4 0-7.9.7-7.9 1.7s3.5 1.8 7.9 1.8c4.3 0 7.9-.8 7.9-1.8zm-114.2-7c0-1-3.5-1.8-7.9-1.8-4.3 0-7.9.8-7.9 1.8s3.6 1.7 7.9 1.7c4.4 0 7.9-.7 7.9-1.7zm100.1 1.1c0-1.6-7.1-2.4-8-.9-.5.8 1 1.5 3.5 1.5s4.5-.3 4.5-.6zm14-1.6c0-5.2-2.7-6.8-7.6-4.6-6.7 3.1-5.9 6.8 1.5 6.8 3.8 0 6.1-.8 6.1-2.2zm-10.9-4.4l4-3.1-4.9-5.8c-4.2-5-5.7-5.7-11.7-5.2-12.6 1-13.2 10.2-1 14.6 8.3 3 9.1 3 13.6-.5zm-14.1 1.9c-1.7-.4-4.1-.4-5.3.1-1.1.5.2.8 3.1.8s3.9-.4 2.2-.9zm24.4-8.3c1.4-3.7-5-16.7-12.2-24.7l-6.3-7.1-.1 7.3c-.1 13.8 15 33.7 18.6 24.5zm-10.7-12.9c-3.4-4.6-6.1-9-6.2-9.9 0-.9.2-1.3.5-.9 6 8.1 13.3 19.2 12.7 19.2-.5 0-3.6-3.8-7-8.4zm-6.2 1.3c0-.9-3.9-1.7-8.8-1.7-4.8 0-8.8.8-8.8 1.7 0 1 4 1.8 8.8 1.8 4.9 0 8.8-.8 8.8-1.8zm-10.5-23.7c0-12.3.7-20.2 1.7-20.2 1.1 0 1.8 7.9 1.8 20.2s.7 20.2 1.7 20.2c1.1 0 1.8-7.5 1.8-19.1 0-14.8-.6-19.6-2.6-21.3-2.1-1.7-3.2-1.7-5.3 0s-2.6 6.5-2.6 21.3c0 11.6.6 19.1 1.7 19.1s1.8-7.9 1.8-20.2zM62.5 182.3c1.5-4.2 11.6-10.1 17.4-10.1 5.5 0 15.8 5.8 17.3 9.7.6 1.4.2 2.6-.7 2.6s-1.7-1-1.7-2.3c0-3.2-9.3-8.2-15.2-8.2-5.1 0-11.9 3.7-16 8.7-1.9 2.4-2 2.3-1.1-.4zm44.6-6.7c0-1 1.2-3.1 2.6-4.5 2.8-2.8 3.4-1.2 1.6 3.6-1.2 3.1-4.2 3.8-4.2.9zm13.3-.7c1.8-1.4 4.1-2.6 5-2.6.9-.1.1 1.1-1.7 2.5-1.9 1.4-4.2 2.6-5.1 2.6s-.1-1.1 1.8-2.5zm-71.2-3.7c0-1.5.7-2.2 1.7-1.6 2.3 1.4 2.3 4.4 0 4.4-1 0-1.7-1.3-1.7-2.8zm.4-6.4c.3-1.1 1.6-2.4 2.7-2.7 1.3-.5 1.7.3 1.1 2-1.3 3.2-4.9 3.9-3.8.7zm56.1.1c.9-2.7 4.7-3.2 5.3-.6.3.9-1 2-2.8 2.3-2.1.4-3-.2-2.5-1.7zm-56.1-7.8c.6-.6 2.1-.7 3.4-.2 1.4.6 1 1-1.1 1.1-1.8.1-2.9-.3-2.3-.9zm55.7-1.6c0-1.4.3-2.6.7-2.6s1.2 1.2 1.7 2.6c.6 1.5.3 2.6-.7 2.6-.9 0-1.7-1.1-1.7-2.6zm-50.9-5.1c0-1.4.8-3.1 1.8-3.7.9-.6 1.7.1 1.7 1.6 0 1.4-.8 3.1-1.7 3.7-1 .6-1.8-.1-1.8-1.6zm51.3-1.2c.4-1.2 1.8-2.6 3-3 1.4-.5 2 .2 1.6 1.5-.5 1.3-1.8 2.7-3.1 3.1s-2-.2-1.5-1.6zm-1-7.9c-.6-1.4 0-2.5 1.5-2.5 3.5 0 4.9 3 1.9 4.1-1.4.5-2.9-.2-3.4-1.6zm-52-1.7c0-1.5.8-2.3 1.7-1.7 2.3 1.4 2.3 4.4 0 4.4-.9 0-1.7-1.2-1.7-2.7zm1.1-5.5c-2.1-2.1-1.2-4 1.5-2.9 1.4.5 2.6 1.7 2.6 2.5 0 1.9-2.4 2.1-4.1.4zm53.3-.4c0-.8 1.2-2 2.6-2.5 1.6-.7 2.7-.1 2.7 1.5 0 1.4-1.2 2.6-2.7 2.6-1.4 0-2.6-.7-2.6-1.6zm-41.8-3.9c5.1-1.5 23.5-1.5 30.3 0 2.9.6-3.7 1.1-14.6 1.1-10.8 0-17.9-.5-15.7-1.1zm-2.9-13.6c-2.9-.6 3.7-1.1 14.6-1.1 10.8 0 17.9.5 15.7 1.1-5.1 1.5-23.5 1.5-30.3 0zm-16.8-2.9c0-1.4 1.2-2.6 2.7-2.6 3.4 0 3.4 2.8 0 4.1-1.6.7-2.7.1-2.7-1.5zm56.2.9c-1.4-.8-1.9-2.1-1.2-2.8.7-.8 2.2-.4 3.3.7 2.7 2.7 1.2 4.1-2.1 2.1zm1-6.8c-.7-1.2-.9-2.7-.3-3.3 1.6-1.5 3.3.8 2.5 3.3-.6 1.8-1 1.8-2.2 0zm-54.4-1.8c-.5-.9.1-2 1.5-2.5s2.9.2 3.4 1.6c1.1 2.7-3.3 3.5-4.9.9zm-.7-7.3c.5-1.3 1.8-2.7 3.1-3.1s2 .2 1.5 1.6c-.4 1.2-1.8 2.6-3 3-1.4.5-2-.2-1.6-1.5zm52.4-.6c0-1.4.8-3.1 1.7-3.7 1-.6 1.8.1 1.8 1.6 0 1.4-.8 3.1-1.8 3.7-.9.6-1.7-.1-1.7-1.6zm-49.8-7.2c-.6-1.5-.3-2.6.7-2.6.9 0 1.7 1.1 1.7 2.6 0 1.4-.3 2.6-.7 2.6s-1.2-1.2-1.7-2.6zm53.8-1.9c.5-.6 2.1-.7 3.3-.2 1.4.6 1 1-1 1.1-1.9.1-2.9-.4-2.3-.9zm-57.6-6c-.6-1 .2-2.3 1.7-2.9 3.4-1.3 5.3.2 3.7 2.8-1.5 2.3-4 2.4-5.4.1zm58.1-.7c.6-1.6 1.9-2.8 2.8-2.8 2.3 0 .9 4-1.7 4.8-1.3.5-1.7-.3-1.1-2zm-59-6.1c0-3.1 2.1-7.3 3.7-7.3 2.5 0 1.9 3.5-1 6.4-1.5 1.5-2.7 1.9-2.7.9zm60.8 0c-.8-1.2-.9-2.7-.4-3.3 1.6-1.6 3.3.8 2.5 3.3-.6 1.8-1 1.8-2.1 0zm-72.1-4.6c1.9-1.4 4.2-2.6 5.1-2.6s.1 1.1-1.8 2.5c-1.8 1.4-4.1 2.6-5 2.6-.9.1-.1-1.1 1.7-2.5zm33.4-.8c-5.6-3.7-9.3-8.9-6.3-8.9 1 0 1.8 1 1.8 2.3 0 3.2 9.3 8.2 15.2 8.2 5.1 0 11.9-3.7 16-8.7 1.9-2.4 2-2.3 1.1.4C94 68 83.9 73.8 77.9 73.8c-2.8 0-7.4-1.5-10.2-3.4zm.8-31.7c0-1 .8-1.8 1.7-1.8a1.79 1.79 0 0 1 1.8 1.8c0 .9-.8 1.7-1.8 1.7-.9 0-1.7-.8-1.7-1.7zm14 0a1.79 1.79 0 0 1 1.8-1.8c.9 0 1.7.8 1.7 1.8 0 .9-.8 1.7-1.7 1.7-1 0-1.8-.8-1.8-1.7z"/></g><defs ><path id="B" d="M53.8 215c-.6-.7-1.1-4.2-1.1-8 0-3.7-.8-6.7-1.8-6.7s-1.7-1.6-1.7-3.5c0-4.3-4.5-4.6-6.8-.5-1.6 2.7-2 2.6-5.3-1.3-2.6-3.1-3.6-6.9-3.7-13.3 0-8-.9-10-8.7-19.7-8.6-10.8-13.6-21.6-11.5-25 1.8-2.9-1-12.2-3.7-12.2-1.4 0-2.5-.8-2.5-1.8s1.1-1.8 2.5-1.8c1.3 0 2.9-1.1 3.4-2.6.7-1.8 3.5-2.6 8.6-2.7 8.3 0 13-3.7 16.9-13.4 2-4.7 1.8-6.2-.7-10.1-1.7-2.5-4.1-4.5-5.4-4.5-4.2 0-2.7-4.7 2.3-6.9l4.8-2.2-3.9-3-3.9-2.9 3.7-2.3c2-1.3 3.8-2.1 4.1-1.8.2.4 1.4 7.2 2.6 15.1 1.9 11.8 1.9 16.2.1 22.9-1.2 4.6-2.9 9-3.7 10-.9.9-1.5 2.2-1.5 2.8 0 .7 17.9 1.3 39.9 1.2 22 0 38.6-.3 36.9-.8-3.4-.9-5.8-10.5-4-16.2.8-2.6.4-3.6-1.6-3.6-3.6 0-3.6-4.6 0-6 2.2-.8 2.6-4 2.3-17.5-.4-14.7-.7-16.4-3.5-15.7-1.6.5-3.5 2.9-4.2 5.5-.6 2.6-5.2 9-10.2 14.3l-8.2 8.7-4-3.7 9.9-10c5.4-5.5 9.9-10.5 9.9-11.1 0-.7-4.5 3.5-10 9.2-5.4 5.8-11.2 10.4-12.9 10.4-3.1 0-19.3-16.1-19.3-19.2 0-1-1.4-1.8-3.2-1.8-2.6 0-3-1.1-2.4-5.7.5-3.1 1.9-6.7 3.3-8 1.3-1.3 2.3-5.1 2.3-8.4s.8-6.1 1.8-6.1 1.7-1.2 1.7-2.6c0-2.3 3.2-2.7 21.6-2.2l21.5.5.5 7.4c.3 4.1 1.3 7.5 2.2 7.5s1.6 1.6 1.6 3.5c0 4.3 4.5 4.6 6.8.5 1.6-2.7 2-2.6 5.3 1.3 2.6 3.1 3.6 6.9 3.7 13.3 0 8 .9 10 8.7 19.7 8.6 10.8 13.6 21.6 11.5 25-1.8 2.9 1 12.2 3.7 12.2 1.4 0 2.5.8 2.5 1.8s-1.1 1.8-2.5 1.8c-1.3 0-2.9 1.1-3.4 2.6-.7 1.8-3.5 2.6-8.6 2.7-8.3 0-13 3.7-16.9 13.4-2 4.7-1.8 6.2.7 10.1 1.7 2.5 4.1 4.5 5.4 4.5 4.2 0 2.7 4.7-2.3 6.9l-4.8 2.2 3.9 3 3.9 2.9-3.7 2.3c-2 1.3-3.8 2.1-4.1 1.8-.2-.4-1.4-7.2-2.6-15.1-1.9-11.8-1.9-16.2-.1-22.9 1.2-4.6 2.9-9 3.7-10 .9-.9 1.5-2.2 1.5-2.8 0-.7-17.9-1.3-39.9-1.2-22 0-38.6.3-36.9.8 3.4.9 5.8 10.5 4 16.2-.8 2.6-.4 3.6 1.6 3.6 3.6 0 3.6 4.6 0 6-2.2.8-2.6 4-2.3 17.5.4 14.7.7 16.4 3.5 15.7 1.6-.5 3.5-2.9 4.2-5.5.6-2.6 5.2-9 10.2-14.3l8.2-8.7 4 3.7-9.9 10c-5.4 5.5-9.9 10.5-9.9 11.1 0 .7 4.5-3.5 10-9.2 5.4-5.8 11.2-10.4 12.9-10.4 3.1 0 19.3 16.1 19.3 19.2 0 1 1.4 1.8 3.2 1.8 2.6 0 3 1.1 2.4 5.7-.5 3.1-1.9 6.7-3.3 8-1.3 1.3-2.3 5.1-2.3 8.4s-.8 6.1-1.8 6.1-1.7 1.1-1.7 2.6c0 2.2-3.5 2.6-20.8 2.6-11.4 0-21.3-.5-22-1.1zM84.3 89.5v.1l-.9.9zm7.6-7c6.1-5.6 8.3-6.9 7.6-4.4-3.2 11.9-4.8 24.8-3.8 30.6 1 6.5.9 6.8-4.5 7.9-7 1.4-18.1 1.4-26.7-.1l-6.6-1V78.3l6.6 6.1c6.4 5.9 6.4 5.8-.6-1.9-4-4.3-7.8-10.2-8.5-13.1s-.9-4.9-.6-4.4c.4.4 4.9 5.3 10 10.9l9.3 10-4.6 4.2c-5.4 5-5.9 10-1.2 11.2 1.9.5 3.8 2.4 4.2 4.2 1.2 4.5 8.3 4.5 9.5 0 .5-1.8 2.4-3.7 4.2-4.2 4.7-1.2 4.1-6.2-1.3-11.2l-.5-.6zm-18.2 73.9h-.1l.9-.9zm-7.6 6.9c-6.1 5.6-8.3 6.9-7.6 4.4 3.2-11.8 4.9-24.8 3.9-30.6-1.1-6.4-.9-6.7 4.4-7.8 7.1-1.4 18.2-1.4 26.7 0l6.6 1.1v37.1l-6.6-6c-6.4-5.9-6.4-5.9.7 1.8 4 4.4 7.8 10.3 8.4 13.2.7 2.9 1 4.9.6 4.4s-4.9-5.4-10-10.9l-9.3-10 4.6-4.3c5.4-4.9 5.9-9.9 1.2-11.1-1.8-.5-3.7-2.4-4.2-4.3-.5-2-2.4-3.3-4.7-3.3s-4.2 1.3-4.7 3.3c-.5 1.9-2.4 3.8-4.3 4.3-4.7 1.2-4.1 6.2 1.3 11.2l.6.5zm26.3 47.9c3.2-4.3 3-15.5-.4-20.7-2.6-4-2.6-4.4 0-5.4 1.5-.6 2.8-2 2.8-3.1 0-3-9.4-8.1-14.9-8.1-4.4 0-14.8 4.8-15.1 6.9-.6 5-.8 29.6-.2 31.3.5 1.5 4.8 2.2 13.1 2.2 9.7 0 12.8-.7 14.7-3.1zm-20.4-4c0-.9.8-1.7 1.7-1.7 1 0 1.8.8 1.8 1.7a1.79 1.79 0 0 1-1.8 1.8c-.9 0-1.7-.8-1.7-1.8zm14 0c0-.9.8-1.7 1.8-1.7.9 0 1.7.8 1.7 1.7 0 1-.8 1.8-1.7 1.8a1.79 1.79 0 0 1-1.8-1.8zm-10.5-23.6c0-2.7 1.3-4.6 3.5-5.3 4.7-1.6 7 .2 7 5.3 0 3.6-.8 4.3-5.2 4.3-4.5 0-5.3-.7-5.3-4.3zm-32 9.2c2.7-2.6 3-40 .4-40-1.1 0-1.8 7.9-1.8 20.2s-.7 20.2-1.7 20.2c-1.1 0-1.8-7.9-1.8-20.2s-.7-20.2-1.7-20.2c-2.7 0-2.3 37.4.3 40 1.2 1.2 2.6 2.1 3.2 2.1s2-.9 3.1-2.1zm5.7-43.5c0-1-4-1.8-8.8-1.8s-8.8.8-8.8 1.8c0 .9 4 1.7 8.8 1.7s8.8-.8 8.8-1.7zm-2.9-7.5c2.8-4.5-.2-8.3-9-11.2-6.6-2.3-7.9-2.2-11.8.4-4.7 3-4.7 3.1 2.4 11.8 3.4 4.1 15.7 3.4 18.4-1zm-2.9-13.1c-1.7-.4-4.1-.4-5.3.1-1.1.5.3.8 3.2.8s3.8-.4 2.1-.9zm89.6-14.2l4-3.1-4.9-5.8c-4.2-5-5.7-5.7-11.7-5.2-12.6 1-13.2 10.2-1 14.6 8.3 3 9.1 3 13.6-.5zm-14.1 1.9c-1.7-.4-4.1-.4-5.3.1-1.1.5.2.8 3.1.8s3.9-.4 2.2-.9zm7.5-19.9c0-.9-3.9-1.7-8.8-1.7-4.8 0-8.8.8-8.8 1.7 0 1 4 1.8 8.8 1.8 4.9 0 8.8-.8 8.8-1.8zm-10.5-23.7c0-12.3.7-20.2 1.7-20.2 1.1 0 1.8 7.9 1.8 20.2s.7 20.2 1.7 20.2c1.1 0 1.8-7.5 1.8-19.1 0-14.8-.6-19.6-2.6-21.3-2.1-1.7-3.2-1.7-5.3 0s-2.6 6.5-2.6 21.3c0 11.6.6 19.1 1.7 19.1s1.8-7.9 1.8-20.2zm-28-3.9c2.9-1.6 5.2-3.4 5.3-3.9.6-5 .8-29.6.2-31.3-.5-1.5-4.8-2.2-13.1-2.2-9.7 0-12.8.7-14.7 3.1-3.2 4.3-3 15.5.4 20.7 2.6 4 2.6 4.4 0 5.4-4.2 1.6-3.4 4.8 2 8.2 6.2 3.8 13.5 3.8 19.9 0zm-14.8-1.6c-.6-.7-1.1-3.1-1.1-5.3 0-3.4.9-4.1 5.2-4.1 4.4 0 5.3.7 5.3 4.2 0 4.9-6.2 8.3-9.4 5.2zm-4.6-28.7c0-1 .8-1.8 1.7-1.8a1.79 1.79 0 0 1 1.8 1.8c0 .9-.8 1.7-1.8 1.7-.9 0-1.7-.8-1.7-1.7zm14 0a1.79 1.79 0 0 1 1.8-1.8c.9 0 1.7.8 1.7 1.8 0 .9-.8 1.7-1.7 1.7-1 0-1.8-.8-1.8-1.7zm24.6 136.9c0-1 1.2-3.1 2.6-4.5 2.8-2.8 3.4-1.2 1.6 3.6-1.2 3.1-4.2 3.8-4.2.9zm-57.9-4.4c0-1.5.7-2.2 1.7-1.6 2.3 1.4 2.3 4.4 0 4.4-1 0-1.7-1.3-1.7-2.8zm.4-6.4c.3-1.1 1.6-2.4 2.7-2.7 1.3-.5 1.7.3 1.1 2-1.3 3.2-4.9 3.9-3.8.7zm56.1.1c.9-2.7 4.7-3.2 5.3-.6.3.9-1 2-2.8 2.3-2.1.4-3-.2-2.5-1.7zM49.6 157c.6-.6 2.1-.7 3.4-.2 1.4.6 1 1-1.1 1.1-1.8.1-2.9-.3-2.3-.9zm55.7-1.6c0-1.4.3-2.6.7-2.6s1.2 1.2 1.7 2.6c.6 1.5.3 2.6-.7 2.6-.9 0-1.7-1.1-1.7-2.6zm-50.9-5.1c0-1.4.8-3.1 1.8-3.7.9-.6 1.7.1 1.7 1.6 0 1.4-.8 3.1-1.7 3.7-1 .6-1.8-.1-1.8-1.6zm51.3-1.2c.4-1.2 1.8-2.6 3-3 1.4-.5 2 .2 1.6 1.5-.5 1.3-1.8 2.7-3.1 3.1s-2-.2-1.5-1.6zm-1-7.9c-.6-1.4 0-2.5 1.5-2.5 3.5 0 4.9 3 1.9 4.1-1.4.5-2.9-.2-3.4-1.6zm-52-1.7c0-1.5.8-2.3 1.7-1.7 2.3 1.4 2.3 4.4 0 4.4-.9 0-1.7-1.2-1.7-2.7zm1.1-5.5c-2.1-2.1-1.2-4 1.5-2.9 1.4.5 2.6 1.7 2.6 2.5 0 1.9-2.4 2.1-4.1.4zm53.3-.4c0-.8 1.2-2 2.6-2.5 1.6-.7 2.7-.1 2.7 1.5 0 1.4-1.2 2.6-2.7 2.6-1.4 0-2.6-.7-2.6-1.6zm-61.5-20.4c0-1.4 1.2-2.6 2.7-2.6 3.4 0 3.4 2.8 0 4.1-1.6.7-2.7.1-2.7-1.5zm56.2.9c-1.4-.8-1.9-2.1-1.2-2.8.7-.8 2.2-.4 3.3.7 2.7 2.7 1.2 4.1-2.1 2.1zm1-6.8c-.7-1.2-.9-2.7-.3-3.3 1.6-1.5 3.3.8 2.5 3.3-.6 1.8-1 1.8-2.2 0zm-54.4-1.8c-.5-.9.1-2 1.5-2.5s2.9.2 3.4 1.6c1.1 2.7-3.3 3.5-4.9.9zm-.7-7.3c.5-1.3 1.8-2.7 3.1-3.1s2 .2 1.5 1.6c-.4 1.2-1.8 2.6-3 3-1.4.5-2-.2-1.6-1.5zm52.4-.6c0-1.4.8-3.1 1.7-3.7 1-.6 1.8.1 1.8 1.6 0 1.4-.8 3.1-1.8 3.7-.9.6-1.7-.1-1.7-1.6zm-49.8-7.2c-.6-1.5-.3-2.6.7-2.6.9 0 1.7 1.1 1.7 2.6 0 1.4-.3 2.6-.7 2.6s-1.2-1.2-1.7-2.6zm53.8-1.9c.5-.6 2.1-.7 3.3-.2 1.4.6 1 1-1 1.1-1.9.1-2.9-.4-2.3-.9zm-57.6-6c-.6-1 .2-2.3 1.7-2.9 3.4-1.3 5.3.2 3.7 2.8-1.5 2.3-4 2.4-5.4.1zm58.1-.7c.6-1.6 1.9-2.8 2.8-2.8 2.3 0 .9 4-1.7 4.8-1.3.5-1.7-.3-1.1-2zm-59-6.1c0-3.1 2.1-7.3 3.7-7.3 2.5 0 1.9 3.5-1 6.4-1.5 1.5-2.7 1.9-2.7.9zm60.8 0c-.8-1.2-.9-2.7-.4-3.3 1.6-1.6 3.3.8 2.5 3.3-.6 1.8-1 1.8-2.1 0z"/></defs></svg>