<svg xmlns="http://www.w3.org/2000/svg" xmlns:xlink="http://www.w3.org/1999/xlink" width="180" height="280" xmlns:v="https://vecta.io/nano"><style><![CDATA[.M{fill-rule:evenodd}.N{fill:#009800}]]></style><g class="M"><path d="M80 272c0-1.1-3.8-2-8.6-2-12.3 0-19.2-8.5-12.4-15.3 2.3-2.3 2.7-5.6 1.7-14.3-.7-6.3-2.1-11.7-3-12.1-.9-.3-1.7-2.4-1.7-4.5 0-4.7-5.1-5-7.7-.4-1.8 3.2-2.3 3-6.1-1.5-2.9-3.5-4.1-7.8-4.1-15.1-.1-9.1-1.1-11.4-9.9-22.4-9.9-12.3-15.6-24.5-13.2-28.4 2.1-3.4-1.1-14-4.2-14-1.5 0-2.8-.9-2.8-2s1.3-2 2.9-2c5.1 0 5.6-7.8 1.1-17.4-3.8-8.1-4-9.9-1.7-14.2 1.5-2.8 4.3-5.4 6.2-5.9 3.4-.9 5.1-6.5 1.9-6.5-.9 0-3.3-1.2-5.4-2.8-3.6-2.6-3.4-2.9 2.6-6 3.5-1.8 6.4-4.5 6.4-5.9s1.3-4.3 2.9-6.4c2.7-3.7 3-3.5 6 3.6l3.2 7.6 8.4-4.6c4.7-2.5 8.9-5 9.5-5.6.5-.7 2.6-1.8 4.5-2.5 2.1-.8 3.5-3.3 3.5-6.5 0-2.8 1.4-6.5 3-8.2 1.7-1.6 3-6 3-9.7s.8-7 1.9-7.3c3.6-1.4 4.5-11 1.2-14.3C62.2 18.5 69 10 81.4 10c4.8 0 8.6-.9 8.6-2s2.3-2 5-2c2.8 0 5 .9 5 2s3.8 2 8.6 2c12.3 0 19.2 8.5 12.4 15.3-2.3 2.3-2.7 5.6-1.7 14.3.7 6.3 2.1 11.7 3 12.1.9.3 1.7 2.4 1.7 4.5 0 4.7 5.1 5 7.7.4 1.8-3.2 2.3-3 6.1 1.5 2.9 3.5 4.1 7.8 4.1 15.1.1 9.1 1.1 11.4 9.9 22.4 9.9 12.3 15.6 24.5 13.2 28.4-2.1 3.4 1.1 14 4.2 14 1.5 0 2.8.9 2.8 2s-1.3 2-2.9 2c-5.1 0-5.6 7.8-1.1 17.4 3.8 8.1 4 9.9 1.7 14.2-1.5 2.8-4.3 5.4-6.2 5.9-3.4.9-5.1 6.5-1.9 6.5.9 0 3.3 1.2 5.4 2.8 3.6 2.6 3.4 2.9-2.6 6-3.5 1.8-6.4 4.5-6.4 5.9s-1.3 4.3-2.9 6.4c-2.7 3.7-3 3.5-6-3.6l-3.2-7.6-8.4 4.6c-4.7 2.5-8.9 5-9.5 5.6-.5.7-2.6 1.8-4.5 2.5-2.1.8-3.5 3.3-3.5 6.5 0 2.8-1.3 6.5-3 8.2-1.6 1.6-3 6-3 9.7s-.8 7-1.9 7.3c-3.6 1.4-4.5 11-1.2 14.3 6.9 6.9.1 15.4-12.3 15.4-4.8 0-8.6.9-8.6 2s-2.2 2-5 2c-2.7 0-5-.9-5-2zm-2.8-8c1.5 0 2.8-1.3 2.8-2.8 0-1.6 1.1-3.3 2.5-3.9 1.5-.6 1.2-1-.9-1.1-1.8-.1-4.5 1-6 2.5-2.3 2.3-3.2 2.2-5.6-.4-2.7-2.9-3-2.8-3.6.3-.7 3.5-3.4 4.6-4.9 1.9-.5-.8-.7-.6-.5.5s2.5 2.1 5.1 2.2c2.6.2 5.1 1.5 5.6 3 .7 2.1 1.2 2.2 1.8.3.5-1.4 2.1-2.5 3.7-2.5zm26.9-.8c2.5-.1 4.7-1.1 4.9-2.2s0-1.3-.5-.5c-1.5 2.7-4.2 1.6-4.9-1.9-.6-3.1-.9-3.2-3.6-.3-2.4 2.6-3.3 2.7-5.6.4-1.5-1.5-4.2-2.6-6-2.5-2.1.1-2.4.5-.9 1.1 1.4.6 2.5 2.3 2.5 3.9 0 1.5 1.4 2.8 3 2.8 1.7 0 3 1.1 3 2.5.1 1.8.5 1.7 1.8-.3 1-1.5 3.8-2.8 6.3-3zM82 19.6c0-1 1.4-.5 3.1 1.3 1.8 1.7 4.7 3 6.5 2.9 2.1-.1 2.4-.5.9-1.1-1.4-.6-2.5-2.3-2.5-3.9 0-1.5-1.3-2.8-3-2.8-1.6 0-3-1.1-3-2.5-.1-1.8-.5-1.7-1.8.3-1 1.5-3.8 2.8-6.3 3-2.5.1-4.7 1.1-4.9 2.2s0 1.3.5.5c1.4-2.6 4.5-1.6 4.5 1.4 0 1.8 1.2 2.5 3 1.8 1.7-.6 3-2 3-3.1zm22.4 1.7c2.3-2.3 3.2-2.2 5.6.4 2.7 2.9 3 2.8 3.6-.3.7-3.5 3.4-4.6 4.9-1.9.5.8.7.6.5-.5s-2.4-2.1-4.9-2.2c-2.5-.2-5.3-1.5-6.3-3-1.3-2-1.7-2.1-1.8-.3 0 1.4-1.3 2.5-3 2.5-1.6 0-3 1.3-3 2.8 0 1.6-1.1 3.3-2.5 3.9-1.5.6-1.2 1 .9 1.1 1.8.1 4.5-1 6-2.5z" fill="#fec9cc"/><path d="M80 272c0-1.1-3.8-2-8.6-2-12.3 0-19.2-8.5-12.4-15.3 2.3-2.3 2.7-5.6 1.7-14.3-.7-6.3-2.1-11.7-3-12.1-.9-.3-1.7-2.4-1.7-4.5 0-4.7-5.1-5-7.7-.4-1.8 3.2-2.3 3-6.1-1.5-2.9-3.5-4.1-7.8-4.1-15.1-.1-9.1-1.1-11.4-9.9-22.4-9.9-12.3-15.6-24.5-13.2-28.4 2.1-3.4-1.1-14-4.2-14-1.5 0-2.8-.9-2.8-2s1.3-2 2.9-2c5.1 0 5.6-7.8 1.1-17.4-3.8-8.1-4-9.9-1.7-14.2 1.5-2.8 4.3-5.4 6.2-5.9 3.4-.9 5.1-6.5 1.9-6.5-.9 0-3.3-1.2-5.4-2.8-3.6-2.6-3.4-2.9 2.6-6 3.5-1.8 6.4-4.5 6.4-5.9s1.3-4.3 2.9-6.4c2.7-3.7 3-3.5 6 3.6l3.2 7.6 8.4-4.6c4.7-2.5 8.9-5 9.5-5.6.5-.7 2.6-1.8 4.5-2.5 2.1-.8 3.5-3.3 3.5-6.5 0-2.8 1.4-6.5 3-8.2 1.7-1.6 3-6 3-9.7s.8-7 1.9-7.3c3.6-1.4 4.5-11 1.2-14.3C62.2 18.5 69 10 81.4 10c4.8 0 8.6-.9 8.6-2s2.3-2 5-2c2.8 0 5 .9 5 2s3.8 2 8.6 2c12.3 0 19.2 8.5 12.4 15.3-2.3 2.3-2.7 5.6-1.7 14.3.7 6.3 2.1 11.7 3 12.1.9.3 1.7 2.4 1.7 4.5 0 4.7 5.1 5 7.7.4 1.8-3.2 2.3-3 6.1 1.5 2.9 3.5 4.1 7.8 4.1 15.1.1 9.1 1.1 11.4 9.9 22.4 9.9 12.3 15.6 24.5 13.2 28.4-2.1 3.4 1.1 14 4.2 14 1.5 0 2.8.9 2.8 2s-1.3 2-2.9 2c-5.1 0-5.6 7.8-1.1 17.4 3.8 8.1 4 9.9 1.7 14.2-1.5 2.8-4.3 5.4-6.2 5.9-3.4.9-5.1 6.5-1.9 6.5.9 0 3.3 1.2 5.4 2.8 3.6 2.6 3.4 2.9-2.6 6-3.5 1.8-6.4 4.5-6.4 5.9s-1.3 4.3-2.9 6.4c-2.7 3.7-3 3.5-6-3.6l-3.2-7.6-8.4 4.6c-4.7 2.5-8.9 5-9.5 5.6-.5.7-2.6 1.8-4.5 2.5-2.1.8-3.5 3.3-3.5 6.5 0 2.8-1.3 6.5-3 8.2-1.6 1.6-3 6-3 9.7s-.8 7-1.9 7.3c-3.6 1.4-4.5 11-1.2 14.3 6.9 6.9.1 15.4-12.3 15.4-4.8 0-8.6.9-8.6 2s-2.2 2-5 2c-2.7 0-5-.9-5-2zm-2.8-8c1.5 0 2.8-1.3 2.8-2.8 0-1.6 1.1-3.3 2.5-3.9 1.5-.6 1.2-1-.9-1.1-1.8-.1-4.5 1-6 2.5-2.3 2.3-3.2 2.2-5.6-.4-2.7-2.9-3-2.8-3.6.3-.7 3.5-3.4 4.6-4.9 1.9-.5-.8-.7-.6-.5.5s2.5 2.1 5.1 2.2c2.6.2 5.1 1.5 5.6 3 .7 2.1 1.2 2.2 1.8.3.5-1.4 2.1-2.5 3.7-2.5zm26.9-.8c2.5-.1 4.7-1.1 4.9-2.2s0-1.3-.5-.5c-1.5 2.7-4.2 1.6-4.9-1.9-.6-3.1-.9-3.2-3.6-.3-2.4 2.6-3.3 2.7-5.6.4-1.5-1.5-4.2-2.6-6-2.5-2.1.1-2.4.5-.9 1.1 1.4.6 2.5 2.3 2.5 3.9 0 1.5 1.4 2.8 3 2.8 1.7 0 3 1.1 3 2.5.1 1.8.5 1.7 1.8-.3 1-1.5 3.8-2.8 6.3-3zm1.1-22.7c3.8-5 3.4-17.1-.7-24.3-3.5-6.1-6.5-8.1-6.5-4.2 0 1.1-2.7 2-6 2s-6-.9-6-2c0-2.9-5.5-2.5-6.7.5-.8 2-1 1.9-1.1-.1-.1-1.4 1.4-3.1 3.3-3.9 1.9-.7 4.7-2.5 6.1-3.9 3.5-3.4 7.8-3.3 9.8.1 2.3 4.1 10.6 6.3 10.6 2.9 0-3.7-10.4-9.6-17-9.6-5 0-16.8 5.5-17.1 7.9-.8 5.7-1 33.7-.4 35.6.6 1.7 5.5 2.5 15 2.5 11 0 14.6-.8 16.7-3.5zM79.3 237c.6-1.6 2.4-3 3.9-3s2.8 1.4 2.8 3c0 1.7-1.8 3-3.9 3-2.7 0-3.6-1-2.8-3zm12 1.7c-2.2-2.3-1.4-10.4 1.2-12 1.7-1 .9-2-2.5-2.9l-5-1.4 5.5-.2c3.6-.1 5.5.8 5.5 2.8 0 1.6-.9 3-2 3s-2 2.2-2 5c0 2.7.9 5 2 5s2-.9 2-2 1.4-2 3-2c1.7 0 3 1.3 3 3 0 3-8 4.3-10.7 1.7zm-3.8-22c1.3-.6 4-.6 6-.1 1.9.5.8 1-2.5 1-3.3.1-4.9-.4-3.5-.9zm-34.7-55.2c3.2-5.1-.3-9.4-10.3-12.8-7.6-2.5-9-2.5-13.5.5-5.3 3.5-5.3 3.6 2.8 13.4 3.9 4.7 17.8 4 21-1.1zm-15.9-1.7c-2.1-3.3 2.1-6.2 7.4-5.2 4.3.8 4.2.9-.8 1.1-6.1.3-7.4 3.5-2 4.9 3.2.8 3.2 1 .1 1.2-1.8.1-4-.8-4.7-2zm125.6-8.2c-1.2-4.6-11-4.9-15.4-.5-1.7 1.8-3.1 3.4-3.1 3.7 0 .2 4.4.4 9.7.4 8.4 0 9.6-.5 8.8-3.6zm-11-21.2l4.6-3.5-5.6-6.6c-4.8-5.7-6.5-6.5-13.3-6-14.4 1.3-15.1 11.7-1.1 16.7 9.4 3.4 10.3 3.4 15.4-.6zm-14-5.8c4.9-.9 6-3.8 2-5.1-1.4-.5-1.2-.8.5-.7 5.2.4 3.4 6.2-2 6.4-4.4.2-4.4.1-.5-.6zm-104.6 4.3c1.7-1.8 3.1-3.4 3.1-3.7 0-.2-4.4-.4-9.7-.4-8.4 0-9.6.5-8.8 3.6 1.2 4.6 11 4.9 15.4.5zm67.3-50.3c3.2-1.9 5.9-3.9 5.9-4.5.8-5.7 1-33.7.4-35.6-.6-1.7-5.5-2.5-15-2.5-11 0-14.6.8-16.7 3.5-3.8 5-3.4 17.1.7 24.3C79 69.9 82 71.9 82 68c0-1.1 2.7-2 6-2s6 .9 6 2c0 2.9 5.5 2.5 6.7-.5.8-2 1-1.9 1.1.1.1 1.4-1.4 3.1-3.3 3.9-1.9.7-4.7 2.5-6.1 3.9-3.5 3.4-7.8 3.3-9.8-.1-.9-1.5-3.6-3.4-6.1-4.2-6.5-2-5.8 3.2 1 7.4 7.1 4.4 15.4 4.4 22.7.1zM85.5 62.7c1.3-.6 4-.6 6-.1 1.9.5.8 1-2.5 1-3.3.1-4.9-.4-3.5-.9zM84 55c0-1.6.9-3 2-3s2-2.2 2-5c0-2.7-.9-5-2-5s-2 .9-2 2-1.3 2-3 2c-1.6 0-3-1.4-3-3.1 0-2.3 1.6-3 5.5-2.5 6.1.7 8.6 7.6 4.5 12.6-1.8 2.1-1.3 2.9 2.4 3.6 4.1.8 4 .9-.9 1.1Q84 58 84 55zm10-12c0-1.7 1.8-3 3.9-3 2.7 0 3.6 1 2.8 3-.6 1.7-2.4 3-3.9 3S94 44.7 94 43zM82 19.6c0-1 1.4-.5 3.1 1.3 1.8 1.7 4.7 3 6.5 2.9 2.1-.1 2.4-.5.9-1.1-1.4-.6-2.5-2.3-2.5-3.9 0-1.5-1.3-2.8-3-2.8-1.6 0-3-1.1-3-2.5-.1-1.8-.5-1.7-1.8.3-1 1.5-3.8 2.8-6.3 3-2.5.1-4.7 1.1-4.9 2.2s0 1.3.5.5c1.4-2.6 4.5-1.6 4.5 1.4 0 1.8 1.2 2.5 3 1.8 1.7-.6 3-2 3-3.1zm22.4 1.7c2.3-2.3 3.2-2.2 5.6.4 2.7 2.9 3 2.8 3.6-.3.7-3.5 3.4-4.6 4.9-1.9.5.8.7.6.5-.5s-2.4-2.1-4.9-2.2c-2.5-.2-5.3-1.5-6.3-3-1.3-2-1.7-2.1-1.8-.3 0 1.4-1.3 2.5-3 2.5-1.6 0-3 1.3-3 2.8 0 1.6-1.1 3.3-2.5 3.9-1.5.6-1.2 1 .9 1.1 1.8.1 4.5-1 6-2.5z" fill="#ccc9cc"/><path d="M29.6 79.2c.4 2.3 2.8 5.4 5.4 6.8l4.8 2.6-4.7 3.7c-5.9 4.7-10.8 4.6-16.5-.1l-4.3-3.6L19 86c2.6-1.4 5-4.5 5.4-6.8.3-2.3 1.5-4.2 2.6-4.2s2.3 1.9 2.6 4.2zm-6.8 7.6c-1.7.6-2.5 2.2-1.7 3.3C22.7 92.7 33 91.7 33 89c0-1.8-3.5-3-6.9-2.8-1.2 0-2.3.2-3.3.6zM92.6 102c.5 2.2 2.5 4 4.2 4 1.9 0 3.2 1.7 3.2 4s-1.3 4-3.2 4c-1.7 0-3.7 1.8-4.2 4-1.3 4.8-8.6 5.4-8.6.8 0-1.7-1.8-3.7-4-4.2-4.8-1.3-5.4-8.6-.8-8.6 1.7 0 3.7-1.8 4.2-4 .6-2.2 2.7-4 4.6-4s4 1.8 4.6 4zm-71 .6c-3.7 3.8-7.6 4.5-7.6 1.4 0-1.1.8-2 1.8-2s3.5-.6 5.5-1.4c1.3-.5 2.1-.8 2.5-.8.5 0-.2.8-2.2 2.8zm11.2-2c1.9.8 4.4 1.4 5.4 1.4s1.8.9 1.8 2c0 3.1-4.7 2.2-7.9-1.4-1.7-1.9-2.2-2.6-1.7-2.7q.5 0 2.4.7zM84 108c-2.7 1.8-2.7 2.2 0 4 1.7 1.1 3.5 1.9 4 1.9.6 0 2.4-.8 4-1.9 2.7-1.8 2.7-2.2 0-4-1.6-1.1-3.4-1.9-4-1.9-.5 0-2.3.8-4 1.9zm-40 2.3c0 .9-7.6 1.7-17 1.7-17.9 0-22.9-2.7-8.5-4.6 2.5-.4 5.3-.5 8.2-.5 8.6.1 17.3 1.5 17.3 3.4zm-2.8 6c1.1 1.8-3.2 4.6-7.7 5-1.9.1-3.7.4-4 .6-1.9 1.5-7.7 1.4-8.6-.1-.7-1-1.9-1.4-2.8-.9-.9.6-2.7-.3-4.1-1.9s-2.2-3.1-1.7-3.2c1.2-.4 5.5-.6 10.4-.6 8.2 0 18.1.4 18.5 1.1zm-25.9 2.2c.5.9 1.8 1.1 2.7.5s2.2-.2 2.9.8c.9 1.5 6.7 1.6 8.6.1.3-.2 2.2-.5 4.3-.6 2.1-.2 4.3-.8 4.9-1.4.6-.5-4.6-1-11.6-1s-12.3.7-11.8 1.6zm143.8 39.7c.7 1 1.9 1.4 2.8.9.9-.6 2.7.3 4.1 1.9s2.2 3.1 1.8 3.3c-3.4 1-28.3.5-29-.6-1.1-1.8 3.2-4.6 7.7-4.9 1.9-.2 3.7-.5 4-.7.9-.7 2.8-1.1 4.6-1.1s3.6.4 4 1.2zM96.6 162c.5 2.2 2.5 4 4.2 4 1.9 0 3.2 1.7 3.2 4s-1.3 4-3.2 4c-1.7 0-3.7 1.8-4.2 4-1.3 4.8-8.6 5.4-8.6.8 0-1.7-1.8-3.7-4-4.2-4.8-1.3-5.4-8.6-.8-8.6 1.7 0 3.7-1.8 4.2-4 .6-2.2 2.7-4 4.6-4s4 1.8 4.6 4zm53.9-1.9c-.3.2-2.2.5-4.3.7-2.1.1-4.3.7-4.9 1.3-.6.5 4.6 1 11.6 1s12.3-.7 11.8-1.6-1.8-1.1-2.7-.5-2.2.2-2.9-.8c-.4-.8-2.2-1.2-4-1.2s-3.7.4-4.6 1.1zM88 168c-2.7 1.8-2.7 2.2 0 4 1.7 1.1 3.5 1.9 4 1.9.6 0 2.4-.8 4-1.9 2.7-1.8 2.7-2.2 0-4-1.6-1.1-3.4-1.9-4-1.9-.5 0-2.3.8-4 1.9zm82 2c0 1.1-1.6 2-3.5 2s-6.6.4-10.5.8c-9.3 1-20-.6-20-2.9 0-1.1 7.7-1.9 17-1.9 10 0 17 .8 17 2zm-22.7 7c1.7 1.7 2.2 2.9 1.3 2.8-5.2-.8-8.6-2.3-8.6-3.9 0-1.1.6-1.7 1.4-1.8 1.5-.3 3.8.8 5.9 2.9zm18.7-1c0 1.1-.8 2-1.8 2s-3.5.6-5.5 1.4c-3.4 1.3-3.5 1.1-.3-2 2.3-2.4 4.7-3.6 6.2-3.3.8.1 1.4.7 1.4 1.9zm-4.9 11.7l4.7 3.7-4.9 2.7c-2.7 1.4-4.9 4.2-4.9 6.2 0 3.8-2.7 6.3-4.7 4.3-.8-.7-1.3-2.8-1.3-4.6s-2.2-4.5-4.9-5.9l-4.9-2.7 4.7-3.7c2.6-2.1 6.2-3.7 8.1-3.7s5.5 1.6 8.1 3.7zm-12.3 1.1c-1.7.6-2.5 2.2-1.7 3.3 1.6 2.6 11.9 1.6 11.9-1.1 0-1.8-3.5-3-6.9-2.8-1.2 0-2.3.2-3.3.6z" fill="#fe9e00"/><path d="M80 272c0-1.1-3.8-2-8.6-2-12.3 0-19.2-8.5-12.4-15.3 2.3-2.3 2.7-5.6 1.7-14.3-.7-6.3-2.1-11.7-3-12.1-.9-.3-1.7-2.4-1.7-4.5 0-4.7-5.1-5-7.7-.4-1.8 3.2-2.3 3-6.1-1.5-2.9-3.5-4.1-7.8-4.1-15.1-.1-9.1-1.1-11.4-9.9-22.4-9.9-12.3-15.6-24.5-13.2-28.4 2.1-3.4-1.1-14-4.2-14-1.5 0-2.8-.9-2.8-2s1.3-2 2.9-2c5.1 0 5.6-7.8 1.1-17.4-3.8-8.1-4-9.9-1.7-14.2 1.5-2.8 4.3-5.4 6.2-5.9 3.4-.9 5.1-6.5 1.9-6.5-.9 0-3.3-1.2-5.4-2.8-3.6-2.6-3.4-2.9 2.6-6 3.5-1.8 6.4-4.5 6.4-5.9s1.3-4.3 2.9-6.4c2.7-3.7 3-3.5 6 3.6l3.2 7.6 8.4-4.6c4.7-2.5 8.9-5 9.5-5.6.5-.7 2.6-1.8 4.5-2.5 2.1-.8 3.5-3.3 3.5-6.5 0-2.8 1.4-6.5 3-8.2 1.7-1.6 3-6 3-9.7s.8-7 1.9-7.3c3.6-1.4 4.5-11 1.2-14.3C62.2 18.5 69 10 81.4 10c4.8 0 8.6-.9 8.6-2s2.3-2 5-2c2.8 0 5 .9 5 2s3.8 2 8.6 2c12.3 0 19.2 8.5 12.4 15.3-2.3 2.3-2.7 5.6-1.7 14.3.7 6.3 2.1 11.7 3 12.1.9.3 1.7 2.4 1.7 4.5 0 4.7 5.1 5 7.7.4 1.8-3.2 2.3-3 6.1 1.5 2.9 3.5 4.1 7.8 4.1 15.1.1 9.1 1.1 11.4 9.9 22.4 9.9 12.3 15.6 24.5 13.2 28.4-2.1 3.4 1.1 14 4.2 14 1.5 0 2.8.9 2.8 2s-1.3 2-2.9 2c-5.1 0-5.6 7.8-1.1 17.4 3.8 8.1 4 9.9 1.7 14.2-1.5 2.8-4.3 5.4-6.2 5.9-3.4.9-5.1 6.5-1.9 6.5.9 0 3.3 1.2 5.4 2.8 3.6 2.6 3.4 2.9-2.6 6-3.5 1.8-6.4 4.5-6.4 5.9s-1.3 4.3-2.9 6.4c-2.7 3.7-3 3.5-6-3.6l-3.2-7.6-8.4 4.6c-4.7 2.5-8.9 5-9.5 5.6-.5.7-2.6 1.8-4.5 2.5-2.1.8-3.5 3.3-3.5 6.5 0 2.8-1.3 6.5-3 8.2-1.6 1.6-3 6-3 9.7s-.8 7-1.9 7.3c-3.6 1.4-4.5 11-1.2 14.3 6.9 6.9.1 15.4-12.3 15.4-4.8 0-8.6.9-8.6 2s-2.2 2-5 2c-2.7 0-5-.9-5-2zm-2.8-8c1.5 0 2.8-1.3 2.8-2.8 0-1.6 1.1-3.3 2.5-3.9 1.5-.6 1.2-1-.9-1.1-1.8-.1-4.5 1-6 2.5-2.3 2.3-3.2 2.2-5.6-.4-2.7-2.9-3-2.8-3.6.3-.7 3.5-3.4 4.6-4.9 1.9-.5-.8-.7-.6-.5.5s2.5 2.1 5.1 2.2c2.6.2 5.1 1.5 5.6 3 .7 2.1 1.2 2.2 1.8.3.5-1.4 2.1-2.5 3.7-2.5zm26.9-.8c2.5-.1 4.7-1.1 4.9-2.2s0-1.3-.5-.5c-1.5 2.7-4.2 1.6-4.9-1.9-.6-3.1-.9-3.2-3.6-.3-2.4 2.6-3.3 2.7-5.6.4-1.5-1.5-4.2-2.6-6-2.5-2.1.1-2.4.5-.9 1.1 1.4.6 2.5 2.3 2.5 3.9 0 1.5 1.4 2.8 3 2.8 1.7 0 3 1.1 3 2.5.1 1.8.5 1.7 1.8-.3 1-1.5 3.8-2.8 6.3-3zm1.1-22.7c3.8-5 3.4-17.1-.7-24.3-3.5-6.1-6.5-8.1-6.5-4.2 0 1.1-2.7 2-6 2s-6-.9-6-2c0-2.9-5.5-2.5-6.7.5-.8 2-1 1.9-1.1-.1-.1-1.4 1.4-3.1 3.3-3.9 1.9-.7 4.7-2.5 6.1-3.9 3.5-3.4 7.8-3.3 9.8.1 2.3 4.1 10.6 6.3 10.6 2.9 0-3.7-10.4-9.6-17-9.6-5 0-16.8 5.5-17.1 7.9-.8 5.7-1 33.7-.4 35.6.6 1.7 5.5 2.5 15 2.5 11 0 14.6-.8 16.7-3.5zM79.3 237c.6-1.6 2.4-3 3.9-3s2.8 1.4 2.8 3c0 1.7-1.8 3-3.9 3-2.7 0-3.6-1-2.8-3zm12 1.7c-2.2-2.3-1.4-10.4 1.2-12 1.7-1 .9-2-2.5-2.9l-5-1.4 5.5-.2c3.6-.1 5.5.8 5.5 2.8 0 1.6-.9 3-2 3s-2 2.2-2 5c0 2.7.9 5 2 5s2-.9 2-2 1.4-2 3-2c1.7 0 3 1.3 3 3 0 3-8 4.3-10.7 1.7zm-3.8-22c1.3-.6 4-.6 6-.1 1.9.5.8 1-2.5 1-3.3.1-4.9-.4-3.5-.9zm-24.7-19.2c6.4-22.5 7.8-34.7 5.3-45-2.3-9.8-2.4-9.9-10.7-10.1-6-.3-7.5.2-5.4 1.6 2 1.2 3 5.2 3 11.9q0 10.1 2.5 10.1c3.5 0 3.1 5.3-.5 6.7-2.3.9-3 4.6-3 15.1 0 22.7 4 27.1 8.8 9.7zm-6.8-2.6c0-1.7.9-2.6 2-1.9 2.6 1.6 2.6 5 0 5-1.1 0-2-1.4-2-3.1zm.5-7.3c.4-1.3 1.8-2.7 3.1-3.1 1.5-.5 1.9.4 1.2 2.3-1.4 3.7-5.5 4.4-4.3.8zm0-8.8c.7-.7 2.4-.7 3.9-.2 1.6.7 1.1 1.1-1.2 1.2-2.1.1-3.3-.3-2.7-1zm5.5-7.6c0-1.6.9-3.5 2-4.2s2 .1 2 1.8c0 1.6-.9 3.5-2 4.2s-2-.1-2-1.8zm-2-12.3c0-1.7.9-2.6 2-1.9 2.6 1.6 2.6 5 0 5-1.1 0-2-1.4-2-3.1zm1.3-6.2c-2.4-2.5-1.3-4.6 1.7-3.4 1.7.6 3 1.9 3 2.9 0 2.1-2.8 2.4-4.7.5zm67.6 50.3c3.6-2.8 3.7-3.8 1.2-19-2.1-13.1-2.1-17.9-.1-25.5 1.4-5.2 3.4-10.4 4.3-11.4 3.1-3.5 1.8-4.5-5.5-4.2-10.8.4-12.8 4.6-12.8 26.6 0 20 3 36.5 6.7 36.4 1.3 0 4-1.3 6.2-2.9zm-6.9-3.1c0-1.2 1.4-3.5 3-5.2 3.1-3.1 3.9-1.3 1.8 4.1-1.4 3.6-4.8 4.3-4.8 1.1zm-1.6-12.2c1.1-3.1 5.4-3.6 6.1-.7.3 1.1-1.2 2.3-3.2 2.7-2.5.4-3.4-.3-2.9-2zM120 177c0-1.6.4-3 .8-3s1.3 1.4 1.9 3c.7 1.7.3 3-.8 3-1 0-1.9-1.3-1.9-3zm.4-7.1c.5-1.5 2-3 3.5-3.5s2.2.2 1.7 1.7-2 3-3.5 3.5-2.2-.2-1.7-1.7zm-1.2-9c-.6-1.7.1-2.9 1.7-2.9 4 0 5.6 3.4 2.3 4.7-1.6.6-3.4-.2-4-1.8zm2.8-8.7c0-1 1.4-2.3 3-2.9 1.8-.7 3 0 3 1.8 0 1.6-1.3 2.9-3 2.9-1.6 0-3-.8-3-1.8zm34 48c0-1.9 2.2-4.7 4.9-6.1l4.9-2.7-4.7-3.7c-2.6-2-6.2-3.7-8.1-3.7s-5.5 1.7-8.1 3.7l-4.7 3.7 4.9 2.7c2.7 1.4 4.9 4.1 4.9 5.9s.6 3.9 1.3 4.6c2 2 4.7-.5 4.7-4.4zm-8.9-8.1c-.8-1.2 0-2.6 1.7-3.3 4-1.5 10.2-.2 10.2 2.2 0 2.8-10.3 3.7-11.9 1.1zM96.6 178c.6-2.2 2.5-4 4.2-4 1.9 0 3.2-1.7 3.2-4s-1.3-4-3.2-4c-1.7 0-3.6-1.8-4.2-4s-2.7-4-4.6-4-4 1.8-4.6 4-2.5 4-4.2 4c-4.6 0-4 7.3.8 8.6 2.2.6 4 2.5 4 4.2 0 4.6 7.3 4 8.6-.8zm-8.6-6c-2.7-1.8-2.7-2.2 0-4 1.7-1.1 3.5-1.9 4-1.9.6 0 2.4.8 4 1.9 2.7 1.8 2.7 2.2 0 4-1.6 1.1-3.4 1.9-4 1.9-.5 0-2.3-.8-4-1.9zm59.3 5c-3.4-3.4-7.3-4-7.3-1.1 0 1.6 3.4 3.1 8.6 3.9.9.1.3-1.1-1.3-2.8zm16.9 1c1 0 1.8-.9 1.8-2 0-3.1-3.9-2.4-7.6 1.4-3.2 3.2-3.2 3.3.3 2 2-.8 4.5-1.4 5.5-1.4zm2.3-6c1.9 0 3.5-.9 3.5-2 0-1.2-7-2-17-2-9.3 0-17 .8-17 1.9 0 2.3 10.7 3.9 20 2.9 3.9-.4 8.6-.8 10.5-.8zM52.8 161.5c3.2-5.1-.3-9.4-10.3-12.8-7.6-2.5-9-2.5-13.5.5-5.3 3.5-5.3 3.6 2.8 13.4 3.9 4.7 17.8 4 21-1.1zm-15.9-1.7c-2.1-3.3 2.1-6.2 7.4-5.2 4.3.8 4.2.9-.8 1.1-6.1.3-7.4 3.5-2 4.9 3.2.8 3.2 1 .1 1.2-1.8.1-4-.8-4.7-2zm130.8 4.4c.5-.1-.3-1.5-1.7-3.2-1.3-1.6-3.2-2.5-4.1-1.9-.9.5-2.1.1-2.8-.9-.9-1.5-6.7-1.6-8.6-.1-.3.2-2.1.5-4 .7-4.5.3-8.8 3.1-7.7 4.9.7 1.1 25.6 1.6 28.9.5zm-26.4-2.2c.6-.5 2.8-1.1 4.9-1.2 2.1-.2 4-.5 4.3-.7 1.9-1.5 7.7-1.4 8.6.1.7 1 2 1.4 2.9.8s2.2-.4 2.7.5-4.8 1.6-11.7 1.6c-7 0-12.3-.5-11.7-1.1zm21.2-10.4c-1.2-4.6-11-4.9-15.4-.5-1.7 1.8-3.1 3.4-3.1 3.7 0 .2 4.4.4 9.7.4 8.4 0 9.6-.5 8.8-3.6zM61.2 133c5.8-7.8 2.3-59.1-3.9-58.9-1.3 0-4 1.3-6.2 2.9-3.6 2.8-3.7 3.8-1.2 19 2.1 13.1 2.1 17.9.1 25.5-1.4 5.2-3.4 10.4-4.3 11.4-3.1 3.5-1.8 4.5 5.5 4.2 4.6-.2 8.2-1.6 10-4.1zm-9.2-4.1c0-1.6 1.4-2.9 3-2.9 3.9 0 3.9 3.2 0 4.7-1.8.7-3 0-3-1.8zm3.1-8.7c-.6-1 .2-2.3 1.7-2.9 1.6-.6 3.4.2 4 1.8 1.2 3.1-3.8 4.1-5.7 1.1zm-.7-8.3c.5-1.5 2-3 3.5-3.5s2.2.2 1.7 1.7-2 3-3.5 3.5-2.2-.2-1.7-1.7zm2.9-8.9c-.7-1.6-.3-3 .8-3 1 0 1.9 1.4 1.9 3 0 1.7-.4 3-.8 3s-1.3-1.3-1.9-3zM53 94c-.7-1.1.2-2.6 2-3.3 3.8-1.4 5.9.2 4.1 3.2-1.7 2.7-4.5 2.7-6.1.1zm-1-7.7c0-3.6 2.4-8.3 4.2-8.3 2.8 0 2.1 4-1.2 7.3-1.6 1.6-3 2.1-3 1zm76 49.7c-2-1.2-3-5.2-3-11.9q0-10.1-2.5-10.1c-3.5 0-3.1-5.3.5-6.7 2.3-.9 3-4.6 3-15.1 0-22.7-4-27.1-8.8-9.7-6.4 22.5-7.8 34.7-5.3 45 2.3 9.8 2.4 9.9 10.7 10.1 6 .3 7.5-.2 5.4-1.6zm-12-6c-1.6-1-2.2-2.4-1.4-3.3.8-.8 2.5-.4 3.8.9 3 3 1.3 4.7-2.4 2.4zm1.2-7.7c-.9-1.4-1.1-3.1-.4-3.8 1.8-1.8 3.7.9 2.8 3.8-.7 2-1.2 2-2.4 0zm-3.2-11.1c0-1.6.9-3.5 2-4.2s2 .1 2 1.8c0 1.6-.9 3.5-2 4.2s-2-.1-2-1.8zm4.5-10.4c.7-.7 2.4-.7 3.9-.2 1.6.7 1.1 1.1-1.2 1.2-2.1.1-3.3-.3-2.7-1zm.7-7.6c.7-1.8 2.1-3.2 3.2-3.2 2.6 0 1 4.5-2 5.5-1.5.5-1.9-.4-1.2-2.3zm2-6.9c-.9-1.4-1.1-3.1-.4-3.8 1.8-1.8 3.7.9 2.8 3.8-.7 2-1.2 2-2.4 0zm30.3 44.1l4.6-3.5-5.6-6.6c-4.8-5.7-6.5-6.5-13.3-6-14.4 1.3-15.1 11.7-1.1 16.7 9.4 3.4 10.3 3.4 15.4-.6zm-14-5.8c4.9-.9 6-3.8 2-5.1-1.4-.5-1.2-.8.5-.7 5.2.4 3.4 6.2-2 6.4-4.4.2-4.4.1-.5-.6zm-104.6 4.3c1.7-1.8 3.1-3.4 3.1-3.7 0-.2-4.4-.4-9.7-.4-8.4 0-9.6.5-8.8 3.6 1.2 4.6 11 4.9 15.4.5zm-3.4-7c.3-.2 2.1-.5 4-.7 4.5-.3 8.8-3.1 7.7-4.9-.7-1.1-25.6-1.6-28.9-.5-.5.1.3 1.5 1.7 3.2 1.3 1.6 3.2 2.5 4.1 1.9.9-.5 2.1-.1 2.8.9.9 1.5 6.7 1.6 8.6.1zm-8.6-2.1c-.7-1-2-1.4-2.9-.8s-2.2.4-2.7-.5 4.8-1.6 11.7-1.6c7 0 12.3.5 11.7 1.1-.6.5-2.8 1.1-4.9 1.3-2.1.1-4 .4-4.3.6-1.9 1.5-7.7 1.4-8.6-.1zm71.7-1.8c.6-2.2 2.5-4 4.2-4 1.9 0 3.2-1.7 3.2-4s-1.3-4-3.2-4c-1.7 0-3.6-1.8-4.2-4s-2.7-4-4.6-4-4 1.8-4.6 4-2.5 4-4.2 4c-4.6 0-4 7.3.8 8.6 2.2.6 4 2.5 4 4.2 0 4.6 7.3 4 8.6-.8zm-8.6-6c-2.7-1.8-2.7-2.2 0-4 1.7-1.1 3.5-1.9 4-1.9.6 0 2.4.8 4 1.9 2.7 1.8 2.7 2.2 0 4-1.6 1.1-3.4 1.9-4 1.9-.5 0-2.3-.8-4-1.9zm-40-1.7c0-2.5-15.5-4.3-25.5-2.9-14.4 1.9-9.4 4.6 8.5 4.6 9.4 0 17-.8 17-1.7zm-22.4-7.7c3.2-3.2 3.2-3.3-.3-2-2 .8-4.5 1.4-5.5 1.4s-1.8.9-1.8 2c0 3.1 3.9 2.4 7.6-1.4zM40 104c0-1.1-.8-2-1.8-2s-3.5-.6-5.5-1.4c-3.2-1.2-3.3-1-.6 1.9 3.2 3.7 7.9 4.6 7.9 1.5zm-4.9-11.7l4.7-3.7L35 86c-2.6-1.4-5.1-4.5-5.4-6.8S28.1 75 27 75s-2.3 1.9-2.6 4.2-2.8 5.4-5.4 6.8l-4.8 2.5 4.4 3.7c5.6 4.7 10.6 4.7 16.5.1zm-14-2.2c-.8-1.2 0-2.6 1.7-3.3 4-1.5 10.2-.2 10.2 2.2 0 2.8-10.3 3.7-11.9 1.1zm79.1-11.5c3.2-1.9 5.9-3.9 5.9-4.5.8-5.7 1-33.7.4-35.6-.6-1.7-5.5-2.5-15-2.5-11 0-14.6.8-16.7 3.5-3.8 5-3.4 17.1.7 24.3C79 69.9 82 71.9 82 68c0-1.1 2.7-2 6-2s6 .9 6 2c0 2.9 5.5 2.5 6.7-.5.8-2 1-1.9 1.1.1.1 1.4-1.4 3.1-3.3 3.9-1.9.7-4.7 2.5-6.1 3.9-3.5 3.4-7.8 3.3-9.8-.1-.9-1.5-3.6-3.4-6.1-4.2-6.5-2-5.8 3.2 1 7.4 7.1 4.4 15.4 4.4 22.7.1zM85.5 62.7c1.3-.6 4-.6 6-.1 1.9.5.8 1-2.5 1-3.3.1-4.9-.4-3.5-.9zM84 55c0-1.6.9-3 2-3s2-2.2 2-5c0-2.7-.9-5-2-5s-2 .9-2 2-1.3 2-3 2c-1.6 0-3-1.4-3-3.1 0-2.3 1.6-3 5.5-2.5 6.1.7 8.6 7.6 4.5 12.6-1.8 2.1-1.3 2.9 2.4 3.6 4.1.8 4 .9-.9 1.1Q84 58 84 55zm10-12c0-1.7 1.8-3 3.9-3 2.7 0 3.6 1 2.8 3-.6 1.7-2.4 3-3.9 3S94 44.7 94 43zM82 19.6c0-1 1.4-.5 3.1 1.3 1.8 1.7 4.7 3 6.5 2.9 2.1-.1 2.4-.5.9-1.1-1.4-.6-2.5-2.3-2.5-3.9 0-1.5-1.3-2.8-3-2.8-1.6 0-3-1.1-3-2.5-.1-1.8-.5-1.7-1.8.3-1 1.5-3.8 2.8-6.3 3-2.5.1-4.7 1.1-4.9 2.2s0 1.3.5.5c1.4-2.6 4.5-1.6 4.5 1.4 0 1.8 1.2 2.5 3 1.8 1.7-.6 3-2 3-3.1zm22.4 1.7c2.3-2.3 3.2-2.2 5.6.4 2.7 2.9 3 2.8 3.6-.3.7-3.5 3.4-4.6 4.9-1.9.5.8.7.6.5-.5s-2.4-2.1-4.9-2.2c-2.5-.2-5.3-1.5-6.3-3-1.3-2-1.7-2.1-1.8-.3 0 1.4-1.3 2.5-3 2.5-1.6 0-3 1.3-3 2.8 0 1.6-1.1 3.3-2.5 3.9-1.5.6-1.2 1 .9 1.1 1.8.1 4.5-1 6-2.5z" fill="#9b989b"/><path d="M100 8c0 1.1 3.9 2 8.6 2 12.3 0 19.2 8.5 12.4 15.3-1.8 1.9-2.5 4.4-2.1 9.7l-24.4-.6c-16-.3-21.9-.2-23.7 1 .8-3.4.4-7.9-1.7-10-6.9-6.9-.2-15.4 12.3-15.4 4.7 0 8.6-.9 8.6-2s2.3-2 5-2c2.8 0 5 .9 5 2zm19 27c.4 5.3.3 4.6-.1 0zM82.2 13.8c-1 1.5-3.8 2.8-6.3 3-2.6.1-4.7 1.1-4.9 2.2s0 1.3.5.5c1.4-2.6 4.5-1.6 4.5 1.4 0 1.8 1.1 2.6 3 1.9 1.6-.7 3-2.1 3-3.2 0-1 1.4-.5 3.1 1.3 1.7 1.7 4.7 3 6.5 2.9 2.1-.1 2.4-.5.9-1.1-1.4-.6-2.5-2.3-2.5-3.9 0-1.5-1.4-2.8-3-2.8-1.7 0-3-1.1-3-2.5q0-1.4-.5-1.3-.4.1-1.3 1.6zm23.8-.3c0 1.4-1.4 2.5-3 2.5-1.7 0-3 1.3-3 2.8 0 1.6-1.1 3.3-2.5 3.9-1.6.6-1.2 1 .9 1.1 1.8.1 4.5-1 6-2.5 2.3-2.3 3.2-2.2 5.6.5 2.7 2.8 3 2.7 3.6-.4.7-3.5 3.4-4.6 4.9-1.9.4.8.7.6.5-.5s-2.4-2.1-4.9-2.2c-2.5-.2-5.4-1.5-6.3-3q-1-1.5-1.4-1.6-.4-.1-.4 1.3zM69.9 37.6c0-.2.1-.4.1-.7 0-.6.2-1 .7-1.4-.2.8-.5 1.5-.8 2.1zm-39 39.1c2.4 5.7 3.1 7.1 5.4 6.1l-.3.2 4.4 3.3 4.5 3.4-5.5 2.5c-5.7 2.6-7.5 7.8-2.7 7.8 1.5 0 4.3 2.3 6.2 5.2 2.9 4.4 3.1 6.1.9 11.5-1 2.5-2.2 4.7-3.3 6.6.6-1.4.9-2.9.7-4.4-.5-3.3-2.4-3.9-14-4-7.4 0-13.9.6-14.4 1.4s.9 1.1 3.2.7c2.2-.4 3.7-.1 3.2.7s2.1 1.4 5.8 1.4 6.3-.6 5.8-1.3c-1.3-2.2 4.9-.8 7.3 1.5 1.4 1.4.4 2-3.5 1.7-3.1-.2-6.7.5-7.9 1.4-1.4 1.1-2.9 1-3.6-.1s-3-1.7-5.2-1.3c-2.6.5-5.1-1-7.2-4.2-2.9-4.3-3-5.6-.5-10.2 1.5-2.8 4.4-5.7 6.3-6.2 3.4-.9 5-6.4 1.9-6.4-.9 0-3.4-1.2-5.4-2.7-3.6-2.7-3.4-3 2.6-6.1 3.5-1.8 6.4-4.5 6.4-5.9s1.3-4.3 2.9-6.4c1.1-1.6 1.9-2.5 2.6-2.4.9.2 1.7 2.1 3.4 6.2zm-6.5 2.5c-.4 2.3-2.8 5.4-5.4 6.8l-4.8 2.6 4.4 3.6c5.6 4.7 10.5 4.8 16.4.1l4.8-3.7L35 86c-2.7-1.4-5.1-4.5-5.4-6.8S28.1 75 27 75s-2.3 1.9-2.6 4.2zM39.2 81c-1.2.8-2.1 1.5-2.9 1.8zm5.4-2.7h-.2.2zm-1.1.3q.4-.1.7-.2-.3.1-.7.2zm-.6.3q.4-.2.6-.3-.2.1-.6.3zm-1.2.6q.7-.4 1.2-.6-.5.2-1.2.6zm-.5.3q.3-.2.5-.3-.2.1-.5.3zm3.6-1.4c.1.2.5 2.2 1.1 5.3l-1.1-5.3zM32.9 89c0 2.8-10.3 3.7-11.9 1.1-.7-1.1 0-2.6 1.7-3.3 1-.4 2.1-.5 3.3-.6 3.5-.2 6.9 1 6.9 2.8zm-11.6 11.6c-2.1.8-4.5 1.4-5.5 1.4-1.1 0-1.9.9-1.9 2 0 3.1 3.9 2.4 7.7-1.4 1.9-1.9 2.7-2.8 2.1-2.8-.4 0-1.2.3-2.4.8zm10.7 2c3.3 3.7 7.9 4.5 7.9 1.4 0-1.1-.8-2-1.8-2s-3.4-.6-5.4-1.4q-1.8-.7-2.3-.6c-.6 0 0 .7 1.6 2.6zm-13.6 4.8C4.1 109.3 9 112 26.9 112c9.4 0 17-.8 17-1.7 0-1.9-8.7-3.3-17.3-3.3-2.8-.1-5.7.1-8.2.4zm120.4 53.7c.4 3.3 2.3 3.9 14 4 7.4 0 13.8-.6 14.3-1.4s-.9-1.1-3.2-.7c-2.2.4-3.6.1-3.1-.7.4-.8-2.2-1.4-5.9-1.4s-6.2.6-5.8 1.4c1.3 2.1-4.9.8-7.3-1.6-1.4-1.4-.4-2 3.5-1.7 3.1.2 6.7-.4 8-1.4 1.3-1.1 2.8-1 3.5.2.7 1 3 1.6 5.2 1.2 2.6-.5 5.1 1 7.3 4.2 2.8 4.3 2.9 5.6.5 10.2-1.6 2.9-4.4 5.7-6.4 6.2-3.4.9-5 6.4-1.8 6.4.9 0 3.3 1.2 5.3 2.8 3.6 2.6 3.5 2.9-2.6 6-3.5 1.8-6.4 4.5-6.4 5.9s-1.3 4.3-2.8 6.4c-2.8 3.7-3 3.5-6.1-3.8-2.4-5.7-3.1-7.1-5.4-6.1l.3-.2-4.4-3.3-4.4-3.4 5.4-2.5c5.7-2.6 7.5-7.8 2.7-7.8-1.5 0-4.3-2.3-6.2-5.2-2.9-4.4-3.1-6.1-.9-11.5 1.1-2.5 2.2-4.7 3.3-6.5-.6 1.4-.9 2.8-.6 4.3zm6.1 26.6l-4.8 3.8 5 2.6c2.7 1.4 4.8 4.1 4.8 5.9s.6 3.9 1.3 4.6c2 2.1 4.7-.4 4.7-4.3 0-2 2.2-4.8 4.9-6.2l5-2.6-4.8-3.8c-2.6-2-6.2-3.7-8.1-3.7-1.8 0-5.4 1.7-8 3.7zm-9-17.8c0 2.3 10.8 3.9 20 2.9 3.9-.4 8.6-.8 10.5-.8 2 0 3.5-.9 3.5-2 0-1.2-7-2-17-2-9.3 0-17 .9-17 1.9zm4 6c0 1.6 3.5 3.1 8.7 3.9.9.1.3-1.1-1.3-2.8-2.1-2.1-4.5-3.1-5.9-2.9-.9.1-1.5.7-1.5 1.8zm18.4 1.5c-3.1 3.2-3.1 3.3.3 2 2-.8 4.5-1.4 5.5-1.4s1.8-.9 1.8-2-.5-1.8-1.4-1.9c-1.5-.2-3.9.9-6.2 3.3zM140.7 199c1.2-.8 2.2-1.5 2.9-1.8zm18.3-8c0 2.7-10.4 3.7-12 1.1-.7-1.1.1-2.7 1.7-3.3 1-.4 2.2-.6 3.3-.6 3.5-.2 7 1 7 2.8zm-23.8 10.6h-.1c-.1-.2-.5-2.2-1.1-5.3.6 3.1 1 5.1 1.2 5.3zm3.5-1.3q-.2.1-.5.2.3-.1.5-.2zm-.5.2q-.7.4-1.2.6.5-.2 1.2-.6zm-1.2.6q-.3.2-.6.3.3-.1.6-.3zm-.6.3q-.4.2-.7.2.3-.1.7-.2zm-.9.3q-.1 0-.2 0h.2zm-74.2 43c.7.7 12 1.3 25 1.3 15.5 0 21.2-.3 23-1.7-1 3.5-.5 8.2 1.6 10.3 6.9 6.9.1 15.4-12.4 15.4-4.7 0-8.5.9-8.5 2s-2.3 2-5 2c-2.8 0-5-.9-5-2s-3.9-2-8.6-2c-12.3 0-19.2-8.5-12.4-15.3 1.9-1.9 2.5-4.6 2-10.4q.2.2.3.4zm48.8-2.3c0 .2-.1.4-.1.6 0 .5-.2.9-.7 1.3.2-.7.5-1.3.8-1.9zm-43.7 16.2c-.7 3.5-3.4 4.6-4.9 1.9-.5-.8-.7-.6-.5.5s2.4 2.1 5 2.3c2.6.1 5.2 1.4 5.7 3 .7 2 1.1 2.1 1.8.2.4-1.4 2.1-2.5 3.7-2.5 1.5 0 2.8-1.3 2.8-2.8 0-1.6 1.1-3.3 2.5-3.9 1.5-.6 1.2-1-.9-1.1-1.8-.1-4.6 1-6.1 2.5-2.2 2.3-3.1 2.2-5.6-.4-1.3-1.5-2.1-2.2-2.5-2.1-.5 0-.8.8-1 2.4zm21.1-1.3c1.4.6 2.5 2.3 2.5 3.9 0 1.5 1.3 2.8 3 2.8 1.6 0 3 1.1 3 2.5 0 1.8.5 1.7 1.8-.2.9-1.6 3.8-2.9 6.3-3 2.5-.2 4.7-1.2 4.9-2.3s-.1-1.3-.5-.5c-1.5 2.7-4.2 1.6-4.9-1.9-.6-3.1-.9-3.2-3.6-.3-2.4 2.6-3.3 2.7-5.6.4-1.5-1.5-4.2-2.6-6-2.5-2.1.1-2.5.5-.9 1.1z" fill="#9b9800"/><path d="M61.3 244.7c-.7-.8-1.3-4.8-1.3-9s-.9-7.7-2-7.7-2-1.8-2-4c0-4.9-5.1-5.3-7.7-.6-1.8 3.2-2.3 3-6.1-1.5-2.9-3.5-4.1-7.8-4.1-15.1-.1-9.1-1.1-11.4-9.9-22.4-9.9-12.3-15.6-24.5-13.2-28.4 2.1-3.4-1.1-14-4.2-14-1.5 0-2.8-.9-2.8-2s1.3-2 2.8-2 3.3-1.3 3.9-3c.8-2 4-3 9.7-3 9.6-.1 15-4.3 19.4-15.3 2.2-5.4 2.1-7.1-.9-11.5-1.8-2.9-4.6-5.2-6.1-5.2-4.8 0-3-5.2 2.6-7.8l5.5-2.5-4.5-3.4L36 83l4.2-2.7c2.3-1.4 4.4-2.3 4.6-1.9.3.3 1.7 8 3.1 17.1 2.1 13.5 2.1 18.4.1 26-1.4 5.2-3.4 10.4-4.3 11.4-3.3 3.6-1.6 4.6 7.5 4.3 13.1-.3 14.8-3.5 14.8-27.7C66 90.6 63.1 72 60.1 72c-2.3 0 .3-12.7 3.2-15.6 1.5-1.5 2.7-5.8 2.7-9.5 0-3.8.9-6.9 2-6.9s2-1.4 2-3.1c0-2.6 3.6-2.9 24.5-2.5l24.5.6.6 8.5c.4 4.7 1.5 8.5 2.5 8.5 1.1 0 1.9 1.8 1.9 4 0 4.9 5.1 5.3 7.7.6 1.8-3.2 2.3-3 6.1 1.5 2.9 3.5 4.1 7.8 4.1 15.1.1 9.1 1.1 11.4 9.9 22.4 9.9 12.3 15.6 24.5 13.2 28.4-2.1 3.4 1.1 14 4.2 14 1.5 0 2.8.9 2.8 2s-1.3 2-2.8 2-3.3 1.4-3.9 3c-.8 2-4 3-9.7 3-9.6.1-15 4.3-19.4 15.3-2.2 5.4-2.1 7.1.9 11.5 1.8 2.9 4.6 5.2 6.1 5.2 4.8 0 3 5.2-2.6 7.8l-5.5 2.5 4.5 3.4 4.4 3.3-4.2 2.7c-2.3 1.4-4.4 2.3-4.6 1.9-.3-.3-1.7-8-3.1-17.1-2.1-13.5-2.1-18.4-.1-26 1.4-5.2 3.4-10.4 4.3-11.4 3.3-3.6 1.6-4.6-7.5-4.3-13.1.3-14.8 3.5-14.8 27.7 0 18.9 2.9 37.5 5.9 37.5 2.3 0-.3 12.7-3.2 15.6-1.5 1.5-2.7 5.8-2.7 9.5 0 3.8-.9 6.9-2 6.9s-2 1.4-2 3c0 2.5-4 3-23.7 3-13 0-24.2-.6-25-1.3zm43.9-4.2c3.7-4.8 3.5-17.6-.4-23.5-3-4.6-3-5.1 0-6.2 1.8-.7 3.2-2.3 3.2-3.6 0-3.4-10.7-9.2-17-9.2-5 0-16.8 5.5-17.1 7.9-.8 5.7-1 33.7-.4 35.6.6 1.7 5.5 2.5 15 2.5 11 0 14.6-.8 16.7-3.5zM82 236c0-1.1.9-2 2-2s2 .9 2 2-.9 2-2 2-2-.9-2-2zm16 0c0-1.1.9-2 2-2s2 .9 2 2-.9 2-2 2-2-.9-2-2zm-12-26.9c0-3.1 1.4-5.3 4-6.1 5.4-1.7 8 .3 8 6.1 0 4.1-1 4.9-6 4.9s-6-.8-6-4.9zm-36.4 10.5c3-3 3.4-45.6.4-45.6-1.2 0-2 9-2 23s-.8 23-2 23-2-9-2-23-.8-23-2-23c-3 0-2.6 42.6.4 45.6 1.3 1.3 2.9 2.4 3.6 2.4s2.3-1.1 3.6-2.4zm15.1-21.3c6.6-24.1 7.9-35.5 5.4-45.9l-2.4-9.9H57.4c-5.7 0-8.9.4-7 .9 3.9 1 6.7 12 4.7 18.4-1 3-.5 4.2 1.8 4.2 4 0 4 5.2 0 6.8-2.6.9-3 4.5-2.7 19.9.4 16.6.9 18.6 3.9 17.8 2.2-.5 4.6-4.9 6.6-12.2zm-8.7-3.4c0-1.7.9-2.6 2-1.9 2.6 1.6 2.6 5 0 5-1.1 0-2-1.4-2-3.1zm.5-7.3c.4-1.3 1.8-2.7 3.1-3.1 1.5-.5 1.9.4 1.2 2.3-1.4 3.7-5.5 4.4-4.3.8zm0-8.8c.7-.7 2.4-.7 3.9-.2 1.6.7 1.1 1.1-1.2 1.2-2.1.1-3.3-.3-2.7-1zm5.5-7.6c0-1.6.9-3.5 2-4.2s2 .1 2 1.8c0 1.6-.9 3.5-2 4.2s-2-.1-2-1.8zm-2-12.3c0-1.7.9-2.6 2-1.9 2.6 1.6 2.6 5 0 5-1.1 0-2-1.4-2-3.1zm1.3-6.2c-2.4-2.5-1.3-4.6 1.7-3.4 1.7.6 3 1.9 3 2.9 0 2.1-2.8 2.4-4.7.5zm36.1 27.5c.5-2.1 2.7-4.3 4.8-4.8 5.1-1.4 5.1-9.4 0-10.8-2.1-.5-4.3-2.7-4.8-4.8-.6-2.3-2.8-3.8-5.4-3.8s-4.8 1.5-5.4 3.8c-.5 2.1-2.7 4.3-4.8 4.8-5.1 1.4-5.1 9.4 0 10.8 2.1.5 4.3 2.7 4.8 4.8.6 2.3 2.8 3.8 5.4 3.8s4.8-1.5 5.4-3.8zM56 170c0-1.1-4.5-2-10-2s-10 .9-10 2 4.5 2 10 2 10-.9 10-2zm-3.2-8.5c3.2-5.1-.3-9.4-10.3-12.8-7.6-2.5-9-2.5-13.5.5-5.3 3.5-5.3 3.6 2.8 13.4 3.9 4.7 17.8 4 21-1.1zm-3.3-14.9c-2-.5-4.7-.5-6 .1-1.4.5.2 1 3.5.9 3.3 0 4.4-.5 2.5-1zm80.1-10c-3.9-1-6.7-12-4.7-18.4 1-3 .5-4.2-1.8-4.2-4 0-4-5.2 0-6.8 2.6-.9 3-4.5 2.7-19.9-.4-16.6-.9-18.6-3.9-17.8-3.6.9-7.6 12.9-12 35.9-1.8 9.5-1.8 14.6 0 22.2l2.4 9.9h10.3c5.7 0 8.9-.4 7-.9zM116 130c-1.6-1-2.2-2.4-1.4-3.3.8-.8 2.5-.4 3.8.9 3 3 1.3 4.7-2.4 2.4zm1.2-7.7c-.9-1.4-1.1-3.1-.4-3.8 1.8-1.8 3.7.9 2.8 3.8-.7 2-1.2 2-2.4 0zm-3.2-11.1c0-1.6.9-3.5 2-4.2s2 .1 2 1.8c0 1.6-.9 3.5-2 4.2s-2-.1-2-1.8zm4.5-10.4c.7-.7 2.4-.7 3.9-.2 1.6.7 1.1 1.1-1.2 1.2-2.1.1-3.3-.3-2.7-1zm.7-7.6c.7-1.8 2.1-3.2 3.2-3.2 2.6 0 1 4.5-2 5.5-1.5.5-1.9-.4-1.2-2.3zm2-6.9c-.9-1.4-1.1-3.1-.4-3.8 1.8-1.8 3.7.9 2.8 3.8-.7 2-1.2 2-2.4 0zm30.3 44.1l4.6-3.5-5.6-6.6c-4.8-5.7-6.5-6.5-13.3-6-14.4 1.3-15.1 11.7-1.1 16.7 9.4 3.4 10.3 3.4 15.4-.6zm-16 2.2c-2-.5-4.7-.5-6 .1-1.4.5.2 1 3.5.9 3.3 0 4.4-.5 2.5-1zm-42.1-12.4c.5-2.1 2.7-4.3 4.8-4.8 5.1-1.4 5.1-9.4 0-10.8-2.1-.5-4.3-2.7-4.8-4.8-.6-2.3-2.8-3.8-5.4-3.8s-4.8 1.5-5.4 3.8c-.5 2.1-2.7 4.3-4.8 4.8-5.1 1.4-5.1 9.4 0 10.8 2.1.5 4.3 2.7 4.8 4.8.6 2.3 2.8 3.8 5.4 3.8s4.8-1.5 5.4-3.8zM144 110c0-1.1-4.5-2-10-2s-10 .9-10 2 4.5 2 10 2 10-.9 10-2zm-12-27c0-14 .8-23 2-23s2 9 2 23 .8 23 2 23 2-8.6 2-21.8c0-16.9-.7-22.3-3-24.2-2.4-2-3.6-2-6 0-2.3 1.9-3 7.3-3 24.2 0 13.2.8 21.8 2 21.8s2-9 2-23zm-31.8-4.4c3.2-1.9 5.9-3.9 5.9-4.5.8-5.7 1-33.7.4-35.6-.6-1.7-5.5-2.5-15-2.5-11 0-14.6.8-16.7 3.5-3.7 4.8-3.5 17.6.4 23.5 3 4.6 3 5.1 0 6.2-4.8 1.8-3.9 5.4 2.3 9.3 7.1 4.4 15.4 4.4 22.7.1zm-16.9-1.9c-.7-.8-1.3-3.5-1.3-6 0-3.9 1-4.7 6-4.7s6 .8 6 4.8c0 5.6-7 9.5-10.7 5.9zM78 44c0-1.1.9-2 2-2s2 .9 2 2-.9 2-2 2-2-.9-2-2zm16 0c0-1.1.9-2 2-2s2 .9 2 2-.9 2-2 2-2-.9-2-2zm28 155.9c0-1.2 1.4-3.5 3-5.2 3.1-3.1 3.9-1.3 1.8 4.1-1.4 3.6-4.8 4.3-4.8 1.1zm-1.6-12.2c1.1-3.1 5.4-3.6 6.1-.7.3 1.1-1.2 2.3-3.2 2.7-2.5.4-3.4-.3-2.9-2zM120 177c0-1.6.4-3 .8-3s1.3 1.4 1.9 3c.7 1.7.3 3-.8 3-1 0-1.9-1.3-1.9-3zm.4-7.1c.5-1.5 2-3 3.5-3.5s2.2.2 1.7 1.7-2 3-3.5 3.5-2.2-.2-1.7-1.7zm-1.2-9c-.6-1.7.1-2.9 1.7-2.9 4 0 5.6 3.4 2.3 4.7-1.6.6-3.4-.2-4-1.8zm2.8-8.7c0-1 1.4-2.3 3-2.9 1.8-.7 3 0 3 1.8 0 1.6-1.3 2.9-3 2.9-1.6 0-3-.8-3-1.8zm-70-23.3c0-1.6 1.4-2.9 3-2.9 3.9 0 3.9 3.2 0 4.7-1.8.7-3 0-3-1.8zm3.1-8.7c-.6-1 .2-2.3 1.7-2.9 1.6-.6 3.4.2 4 1.8 1.2 3.1-3.8 4.1-5.7 1.1zm-.7-8.3c.5-1.5 2-3 3.5-3.5s2.2.2 1.7 1.7-2 3-3.5 3.5-2.2-.2-1.7-1.7zm2.9-8.9c-.7-1.6-.3-3 .8-3 1 0 1.9 1.4 1.9 3 0 1.7-.4 3-.8 3s-1.3-1.3-1.9-3zM53 94c-.7-1.1.2-2.6 2-3.3 3.8-1.4 5.9.2 4.1 3.2-1.7 2.7-4.5 2.7-6.1.1zm-1-7.7c0-3.6 2.4-8.3 4.2-8.3 2.8 0 2.1 4-1.2 7.3-1.6 1.6-3 2.1-3 1z" fill="#00989b"/><path d="M125.8 87.3c-.4-14.6-.8-17.9-2.9-18l2.4-.9zm-5-17.1c.3-.3.7-.6 1.1-.7q.5-.1.9-.1zm-3.6 5.6c-.7 2.9-6 10.3-11.7 16.3l-9.3 9.9-4.6-4.2 11.3-11.4c5.3-5.4 9.8-10.3 10.9-12.1-3.4 2.6-7.4 6.2-11 10 6.2-6.6 11.3-11.3 11.3-10.6q0 .1-.2.5c2.4-1.9 4.5-3.2 5.8-3.6l1.1-.4c-1.5 1.1-3 3.3-3.6 5.6zm-21 26.2l.1.1-1.2 1zm8.7-7.8c5.3-4.9 7.9-6.9 8.6-6.3-.7-.4-3.4 1.6-8.1 6.2-7.5 7.2-8.6 9.2-6.2 10.6 2.4 1.3 3.3 4.2 2.8 6.7 0-2.4-1.7-5.5-5.1-8.7l-.6-.5zm-5.8 21c1.6-.7 2.5-2.1 2.9-3.8-.1 1.8-1 3.1-2.9 3.8zm-36.5-41c.4.5 5.5 6.1 11.4 12.4L84.5 98l-5.2 4.8c-3.3 3.1-5 6.2-5 8.6-.5-2.5.4-5.4 2.8-6.7 2.5-1.4 1.8-3-4-8.5l-7-6.8 7.5 6.9c7.3 6.7 7.3 6.6-.7-2.1-4.6-5-8.9-11.7-9.7-15-.7-2.9-1-5-.7-5.1q0 0 .1.1zm14.5 41c-1.8-.7-2.8-2-2.8-3.8.4 1.7 1.3 3.1 2.8 3.8zM113.6 88q0 .1 0 .1 0 0 0-.1zm0 .1c.1.2 0 .6-.1 1.1.1-.5.2-.9.1-1.1zM92 94.2l3.9-3.2-3.9 3.2zm-10.9 70.9c-1.5.7-2.4 2.2-2.8 3.8 0-1.7.9-3.1 2.7-3.8h.1zm2.3 12.5l.6.6 1.1-1-1 1.1q0 0 0 0l-.1-.1-8.6 8c-5.3 4.8-7.9 6.8-8.6 6.2.7.5 3.4-1.6 8.2-6.2 7.4-7.1 8.5-9.2 6.1-10.5-2.4-1.4-3.3-4.3-2.8-6.8 0 2.4 1.7 5.6 5.1 8.7zm.7.7l4.6 4.2-11.3 11.4c-5.3 5.4-9.8 10.3-10.9 12.1 3.3-2.6 7.4-6.2 11-10-6.3 6.6-11.4 11.3-11.4 10.6q0-.1.3-.5c-2.4 1.9-4.5 3.2-5.8 3.6l-1.1.4c1.5-1.1 3-3.3 3.6-5.6.7-2.9 6-10.3 11.7-16.3zm-25.8 32.4q-.5.1-.9.1l2-.7c-.4.2-.7.5-1.1.6zm47.6-41.8c-.3-1.7-1.3-3.1-2.8-3.8 1.9.7 2.8 2 2.8 3.8zm-2.8 6.7c-2.4 1.4-1.7 3 4 8.5l7 6.9-7.5-7c-7.3-6.7-7.3-6.6.8 2.1 4.5 5 8.9 11.7 9.7 15 .7 3.3 1 5.6.6 5-.4-.5-5.6-6.1-11.4-12.4l-10.5-11.4 5.1-4.8c3.4-3.1 5.1-6.2 5-8.6.5 2.5-.4 5.4-2.8 6.7zm-18.7 13.7c1.4-1.2 2.7-2.3 3.9-3.2l-3.9 3.2zm-17.7 2.9c-.1-.2 0-.6.1-1.1-.1.5-.2.9-.1 1.1zm0 .1q0-.1 0-.1 0 0 0 .1zm-9.5 18.5l-2.4.9-.4-18.8c.3 14.6.7 17.9 2.8 17.9z" fill="#fe0000"/><use xlink:href="#B" fill="#00fe00"/><use xlink:href="#B" fill="#0000fe"/><path d="M83.1 34.3l35.9.7c.8 5.7-.3 12.2 3.1 17 2.5 6.1 8.5 6.3 5 11l-1.8 5.4c-8.6 2.2-14.8 8-20.9 14.1 2.9-3.2 5.4-6.6 6.5-10.6-1.7-.6-3.4.2-5.1 1.6 1.9-4.9.2-11.9 1-17.1-.8-7.7 3.9-22.5-9-20.3-8.1.7-21.3-3.2-24.7 6.8-3.5 8.8 1.8 18.1 3.8 25.5-3.8 1.6-4.7 3.7-3.8 5.8q-.8-1.3-1.3-2.8c-7.2-1.4-4.8 4.5-1.4 9.4-.2-.3-.5-.7-.8-.9-2.6-4.6-4.8-8.4-10-9.1-2.2-10 8.2-16.7 6.6-26.6 1.4-6.4 6.1-10.1 12.4-10.3q2.1-.1 4.5.4zm-7.3 52.3l-.7-.7c-1.3-.9-3.1-2.9-4.7-5.1 1.8 1.8 3.6 3.8 5.4 5.8zm18.1-17.2c1.2 5.5-5.9 11.5-10.6 7.3-5-5.8.4-11.1 5.3-11.1 2.2 0 4.3 1.2 5.3 3.8zm6.3 9.2c-.2.1-.3.1-.5.2 2.2-1.7 4.1-3.7 6.1-5.2-1 2.2-2.6 3.9-5.6 5zm-7.4 3q-1.4.2-3 .2h.4c3.3-.3 6.6-1.4 9.5-3-2.1 1.6-4.3 2.9-6.9 2.8zM80.3 80c3 1.3 6.4 1.9 9.5 1.8-2.5.5-6.1-.3-9.5-1.8zm0 0q-.6-.3-1.1-.5.5.2 1.1.5zm-1.1-.5q-.2-.1-.3-.2.1.1.3.2zm-.3-.2q-.7-.4-1.4-.8.7.4 1.4.8zm-5.7-4.9c1.1 1.6 2.6 3 4.3 4.1-2-1.2-3.6-2.6-4.3-4.1zm21.6 17.5c-2 2.4-3.8 3.4-5.6 3.7 5.6-3.4 10.3-8.2 15-12.8-3 3.2-6.4 6.1-9.4 9.1zm-5.9 3.9q-.2-.1-.5-.2.4 0 .8 0-.2.1-.3.2zm-9.3-5.5c2.6 2.4 5.5 4.4 8.8 5.3-3.1 0-6.1-2.5-8.8-5.3zm-.5-.4c-1-1-2-1.9-3-3l3 3zm13.2 94.7c-.6-.1-1.1-.1-1.7 0q.3-.2.5-.3l1.2.3zm-16.5 12.7c3-3.3 6.4-6.2 9.5-9.2 1.7-2.3 3.5-3.3 5.3-3.5-5.5 3.3-10.1 8-14.8 12.7zm25.8-6.5c-2.8-2.7-5.7-4.9-9-6.1 3.1.6 6.2 3.3 9 6.1zm3.2 3.3c-.7-.7-1.3-1.4-2-2.2q1 1.1 2 2.2zm5 5.4c-1.7-1.7-3.3-3.5-5-5.4 1.4 1 3.3 3.1 5 5.4zm10.6 9.8c2.2 9.9-8.2 16.6-6.6 26.5-1.7 7.7-8.3 11.5-16.7 10.1-11.9 0-24 .7-35.8-1.2-1.2-8.9-2.3-17.1-7-24.3-3.6.1-4 1.1-1.6-3.1l2-5.7c8.6-2.2 14.8-8 20.9-14.1-2.9 3.2-5.4 6.6-6.5 10.6 1.6.7 3.4-.2 5.2-1.7-.5 1.1-.8 2.3-.7 3.7-.4 10.4-.8 20.9 0 31.4 7.8 4.2 17.9 2.3 26.6 1.8 1.9-.4 3.8-1.2 5-2.8 5-8.7 2.4-19.8-2.6-27.9 5.2-2.1 5.5-5.1 3.6-7.7.9 1.1 1.6 2.3 2 3.7 5.9 1.2 5.5-2.7 3.2-6.7 2.2 3.7 4.5 6.7 9 7.4zm-10-9.2q.4.8.8 1.5c-.4-.7-1-1.4-1.4-2.1q.3.3.6.6zm1 1.8q-.1-.2-.2-.3.1.1.2.3zm-30-1.5c-2.6 1.7-4.9 4.3-7.1 6 1.3-2.7 3.9-4.7 7.1-6zm5.8-2c1.6-.2 3.5-.3 5.3-.1-3.4 0-7.5.6-11.1 2.1 1.8-1.3 3.7-2.1 5.8-2zm6.4-.1c1.6.1 3.6.7 5.5 1.5-2.1-.8-4.4-1.4-6.6-1.5.3-.1.7-.1 1.1 0zm12.6 6.6q-.9-1.2-2.1-2.1 1.3 1 2.1 2.1zm-4.9-4.1c1 .6 2 1.2 2.8 2-.8-.7-1.8-1.4-2.8-2zm-4.4 12.3c-3.5 1.4-12 2.2-10.9-4 .1-4.4 2.6-6.3 5.4-6.4 4.6-.2 9.9 4.4 5.5 10.4z" fill="#9b0000"/><path d="M41.5 221.1c-6.3-9-.4-21.5-8.1-29.9C26 180.9 16 171 14.5 157.8c4.3-7.6-2.3-14.8-6.3-18.6 6.6-3.9 12.2-9.1 21.2-7.7 9.6-2.1 15.6-13 15.7-22.2.2-8.4-17.6-8.9-7.6-16.1 1.6-1.9 10.2-2.6 5.3-5.1-1.5-1.8-7.1-3.9-5.9-5.7 4.4-3.6 10.1-6 9.2 2.5 2.3 13.9 6 28.7.1 42.2-1.2 4.6-7.8 11.2 1.3 9.7 27.3 1 54.6 1.1 81.8 0-6.5-4.5-4.3-15.8-4.8-22.6-11.1-2.1 4.1-8.4 1.5-14.8.6-12.1-1.7-24.5 1.1-36.4 1.6-3 4.7-7.8 7.2-9.1 4.7 4.8 8 11.1 7.6 18-1.2 9.2 4.1 17.1 9.9 23.7 5.9 7.9 12.7 16.4 13.7 26.6-4.3 7.6 2.3 14.8 6.3 18.6-6.6 3.9-12.2 9.1-21.2 7.7-9.6 2.1-15.6 13-15.7 22.2-.2 8.4 17.6 8.9 7.6 16.1-1.6 1.9-10.2 2.6-5.3 5.1 1.5 1.8 7.1 3.9 5.9 5.7-4.4 3.6-10.1 6-9.2-2.5-2.3-13.9-6-28.7-.1-42.2 1.2-4.6 7.8-11.2-1.3-9.7-27.3-1-54.6-1.1-81.8 0 6.5 4.5 4.3 15.8 4.8 22.6 10.9 2-3.6 8.4-1.2 14.7-.9 12.2 1.5 24.8-1.6 36.7-2.4 5-7.3 13-11.2 3.9zm8.1-1.5c3.3-10.8 2.2-22.6 2.3-33.8.6-3.7-1.9-18-3.2-7-1.6 13.6.5 27.4-2.3 40.8-3.6-5.3-1.8-16.3-2.4-23.9-.6-6.7 1.1-17.1-2.5-21.2-2.7 13-1.5 26.6-.5 39.8-.3 4.7 4.5 10.8 8.6 5.3zM56 170c-4.4-2.8-18.3-3.5-19.2.8 5.9 1.4 14 2.4 19.2-.8zm-3.2-8.5c4.1-10.1-10.8-13.5-18.2-14.6-8.6.5-11.9 9-4.2 14 4.6 6.8 17.2 6.3 22.4.6zm-27.9-11.8c9-2.6 2.5-10.1-4.3-7.6-9.1-.7-2.4 15.6 4.3 7.6zm24.6-3.1c-3.9-1.6-9.5 1.4-2.5 1 .5.1 5.3-.1 2.5-1zM164 144c-3.8-2.8-16.6-3.4-17.3.8 5.3 1.5 12.7 2.3 17.3-.8zm-130-8c-3.8-2.8-16.6-3.4-17.3.8 5.3 1.5 12.7 2.3 17.3-.8zm130-.5c2.5-13.4-22.4-1.4-9.8 2.3 3 .1 8.1 1 9.8-2.3zm-12.5-5.1c2.5-1.9 6.4-3.6 2.3-6.2-4.1-4.7-8.1-11.4-15.4-9.9-10.2-2-17.7 11-5.9 15.2 6 2.4 13.6 6.9 19 .9zm-16 2.2c-3.9-1.6-9.5 1.4-2.5 1 .5.1 5.3-.1 2.5-1zM144 110c-4.4-2.8-18.3-3.5-19.2.8 5.9 1.4 14 2.4 19.2-.8zm-12-27c.6-7.2-1.1-17.7 2.4-22.6 3.3 14.8-.1 30.4 3.2 45.2 3.6-5 1.8-15.7 2.4-22.9-1.1-7.9 2.8-20.2-6-24.2-8.8 4-4.9 16.3-6 24.2.6 7.2-1.2 17.9 2.4 22.9 1.9-7.3 1.4-15.1 1.6-22.6zM69.1 208.1c2.3-8.2 10.1-14.1 16.2-20 6.6-8.8 14.4.7 19.5 5.9 4.3 3.1 13.9 16.6 3.4 14.6-2.4-8-13.3-11.4-21-10.2-7.5-.5-13.1 11.8-18.1 9.7zm52.9-8.2c.4-5.7 9.2-9.7 4.8-1.1-.4 2.3-4.8 5.1-4.8 1.1zm-66-5c3-7.2 5.5 8.3.2 1.2zm10.6-3.9c3.4-13.2 6-26.9 3.8-40.5 7.5-6.8 20.7-3.8 30.3-3.9 4.1.9 10 .6 13.3 2.4q0 20.9 0 41.8c-4.2-4.5-9.6-8-12.4-13.5 5.9-4 5.2-12.6-2.4-14.5-1.9-8.5-12.5-8.5-14.4 0-8.1 2-7.7 10.3-2.8 14.8-2.9 4.2-12 15.6-15.4 13.4zm53.8-3.3c3.2-7.2 10.1 2.9 1.3 2.1-1.2.2-1.9-1.2-1.3-2.1zM120 177c.6-8.8 5.5 8 .1 1.2zm.4-7.1c1.7-6 9-2.8 2.8 1.2-1.1 1-3.8.9-2.8-1.2zm-1.2-9.1c-.1-7.9 11.3 3.1 1.6 1.8l-.9-.7zm-59.2-2c2.9-7.2 5.5 8.3.1 1.2zm11.5-26.3c-3.5-.2-6.8-.6-5.5-4.9q0-19.3 0-38.5c4.1 4.5 9.6 8.1 12.4 13.5-5.9 4.1-5.3 12.6 2.4 14.5 1.9 8.5 12.5 8.5 14.4 0 8.1-2 7.7-10.3 2.8-14.7 3.2-4.7 11.5-15.1 15.4-13.5-3.5 13.2-6 27-3.9 40.6-5.3 5.9-15.6 3.4-23.1 4.1-5-.1-10-.4-14.9-1.1zM52 128.9c1.8-7.4 10.5 1.3 1.8 2-1.1.1-1.9-1.1-1.8-2zm65.2-6.7c-3.3-7.1 6.3-3 1.4 1.5l-.6-.4-.8-1.1zm-62.8-10.4c1.7-6 9-2.7 2.8 1.2-1.1 1.1-3.8 1-2.8-1.2zm2.9-8.9c-.1-9.2 5.7 7 .5 1.2zm-4.3-9c-.8-6.4 11.7-3.5 4.7 1.4-1.6 1.2-3.9.2-4.7-1.4zm22.2-8.1c-4.3-3.1-13.8-16.6-3.4-14.5 2.4 8 13.4 11.4 21 10.1 7.7.4 12.8-11.4 18.2-9.6-2.4 8.2-10.2 14.1-16.2 20-7.4 9.3-14-1-19.6-6zm-23.2.4c-2-5.6 8.5-12.3 5-3.6-.8 1.1-3.6 5.5-5 3.6zm69.2-.1c-3.3-7 6.4-2.9 1.4 1.6l-.6-.4-.8-1.2z" class="N"/><path d="M41.5 221.1c-6.2-9.7-.4-23.5-9.5-31.8-7.2-9.6-16-19.1-17.5-31.5 7.9-8.3-13-18.5.3-23.1 9.5-6.1 19.6-1.2 28.8 2 28.3 1.6 56.7.9 85 .1-7.2-6.5-.4-18.5-7.3-24 1.3-7.3 7.6-13.7 4.8-22.1-.3-10.2-1.8-21.2 2.5-30.8 6.7-12.1 14.8 4.5 13.2 12.2-1.2 13.9 10.9 23.2 17.6 33.9 6 7.3 5.4 16.6 5.7 25.3.5 6.3 10.8 9.6 1.2 13.4-9.5 6.4-20.3 2.2-29.7-1.5-13.6-1.3-27.3-.4-41-.8-15.1 0-30.2.1-45.3.9 8.9 5.6 2.1 20.3 8.3 26.2-6.1 8.2-4.8 18.6-4.3 28.1.2 8.8 1.1 26.9-10.7 26.9-1.1-.9-1.7-2.2-2.1-3.4zm8.1-1.5c3.7-13.6 2.3-27.8 1.9-41.6-4.1-6.2-3.2 8.7-3.5 11.7-.1 10 .5 20.1-1.6 29.9-4.4-10.2-1.4-21.7-2.5-32.4 1.4-4.5-2.9-17.6-3.4-6.3-1.1 12.7-1 25.8 1.7 38.3 1.5 2.8 5.8 3.6 7.4.4zm-13.9-47.5c-4.2-5.9-10.6-22.3-18.7-14.5.3 13.9 11.6 23.8 19.1 34.4 2.9-4.4 1.7-14.4-.4-19.9zm-8.2.6c-2.7-2.1-7.2-13.1-1.6-5.2 2 2.8 10.5 13 7.1 12.6-2-2.4-3.7-4.9-5.5-7.4zM56 170c-4.2-2.9-18.5-4-17 1.3 5.6 1 11.8 1.6 17-1.3zm-3.2-8.5c2.5-10.4-10.7-14.8-18.9-14.2-14.8 1.2-4.1 19.9 6.2 18.5 4.5.4 9.4-.9 12.7-4.3zm-27.9-11.8c13.5-5.5-13.3-14.3-8.1-1.1 1.3 3.3 6.2 4.7 8.1 1.1zm24.6-3.1c-5.9-2.1-6 3.1.3.8l.5-.4zm-7.5-3.7c-4.6-3.6-12.2 2.1-3 1.8 1.2.1 3-.3 3-1.8zm122 1.1c-3.7-3-16.9-3.8-15.3 1.3 5.1 1 10.7 1.5 15.3-1.3zm-130-8c-3.7-3-16.9-3.8-15.3 1.3 5.1 1 10.7 1.5 15.3-1.3zm114 1.2c-2.4-5.5-13.3 1.6-3.8.7 1.3 0 2.7.1 3.8-.7zm16-1.7c2.9-13.9-23.2.5-7.4 2.4 2.6.1 6 .3 7.4-2.4zm-28.5-2.9c-5.9-2.1-5.9 3 .3.8l.5-.4zm16.1-2.2c9-5.8-5.9-16.1-12.2-16.8-12.8-2.1-17.3 15.6-3.6 17.3 4.9 2.3 11.6 4.1 15.8-.5zm11.7-7.3c-.8-14-11.1-24.9-20-34.8-3.3 3.5-.3 14 1.6 19.7 2.9 6.9 7.1 14 13.7 17.6 1.9.4 3.9-.7 4.7-2.5zm-12.2-14.6c-3.6-2.6-9-16.3-2.5-6.8 2.5 3.8 10.2 13.3 8.4 14.2-2.2-2.3-3.9-5-5.9-7.4zM144 110c-4.2-3-18.5-4.1-16.9 1.2 5.6 1.1 11.8 1.7 16.9-1.2zm-12-27c.7-5.3-1.5-20.6 3-19.9 2.3 14.1-.4 28.5 2.6 42.4 4.8-10.1.9-21.5 2.6-32.2 1.8-6.2-5.1-20.4-10.6-10-3.2 10.8-.6 22.3-1.6 33.3-.4 3.8 3.4 12.1 3.5 3.4.6-5.7.4-11.4.5-17zM71.2 207.5c6.1-9.8 20.4-14.9 30.5-8.3 5.5-1 11.9 14.4 5 6.2-7.6-9.6-23.3-9.5-31.3-.5-.5.3-6.5 7.1-4.2 2.6zm50.8-7.7c-.6-6.6 10.1-6.9 4.5-.1-.8 1.9-4.7 3.5-4.5.1zm-1.6-30c3.2-8.6 7.1 4-.1 1.3-.2-.4 0-.9.1-1.3zm-1.1-9c.6-7.9 9.6 5 1.2 1.4l-.7-.6zm-57.9-8.2c-4.4-8.6 10.2 3.4.6.2l-.5-.1-.1-.1zm13-4.9c11.7-1.8 23.7-1.8 35.3.3-11.8 1.5-24.1 1.4-35.7-.1l.4-.2zm-3.3-15.5c10.8-2.2 22.4-1.6 33.2-.3-8.9 2.8-21.3 1.6-31.3.6zm-16.7-20.4c3.2-8.6 7 4-.2 1.3-.2-.5.1-.9.2-1.3zm2.9-8.9c-.4-8.5 5 5.6.9 1.4zm-4.3-9c.2-8.5 12.5 1.9 2.4 1.9-1.1-.3-1.9-.9-2.4-1.9zm-1-7.6c-3.5-6 10.4-10.3 4.1-2.3-1 .9-2.5 3.8-4.1 2.3zm25.2-6.2c-5.7.1-10.2-14.9-3.4-5.2 7.6 9.6 23.7 8.8 31.2-.5 8.7-7.1-2.8 7.5-7.3 7.4-6.6 2.8-14.7 2.5-20.5-1.7z"/></g><path d="M144.3 52.8c.8-2.2 2.3-2.2 6-2 4.7.2 6.6-.7 7.1-3.4 1.3-6.2-1.3-12.9-7.9-20.4l-6.2-7.1-5.6 5.3c-6.7 6.4-10.5 14.8-9.6 21.2.6 3.9 1.8 4.6 7.2 4.4 3.9-.2 5.5-.3 6.2 2z" class="N"/><path d="M138.6 26.1c-6.1 7.2-8.8 13-8.8 19.1 0 5 .5 5.3 6.5 4.3 5.7-1 6-.9 2.2 1-1.8.8-3.3 1.2-4.6 1.3-9.1.4-7.8-16.5 4.3-26.7l4.6-4zm4.9 7.4c.3 3.1.6 3.8 2.5 1.1.8-1.1 2.3-1 4.3-2.1-1.9 1.1-7 4.5-6.9 6.7-.4 1-.1.2-.2 2.6 0 2.4-.3 3.6 2.2 1.6 2.5-2.1 5.3-2.5 8-3.7l-7.9 4.2c-4 2.5-2 7.9-2.5 8.3-.6.4-.6-.9-.8-1.7l.5-3.5c.1-1.6-.6-2.1-1.5-2.3-2.5-1.5-5-1.4-7.5-2 2.4.3 5.2.4 7.1 1.2 2 .9 2.1.3 1.8-1.9-.2-1.3.6-3.5-.3-3.8-2.2.9-7-4.3-7-4.3s7.3 6.6 7.4 2.2l.4-14.1s.1 8.3.4 11.5zm7.5-1.4q-.4.2-.7.4c.4-.3.7-.4.7-.4z" class="M"/><path d="M38.2 52.8c.8-2.2 2.3-2.2 6-2 4.7.2 6.6-.7 7.2-3.4 1.2-6.2-1.4-12.9-8-20.4l-6.2-7.1-5.6 5.3C24.9 31.6 21.1 40 22 46.4c.6 3.9 1.8 4.6 7.2 4.4 3.9-.2 5.5-.3 6.2 2z" class="N"/><path d="M32.5 26.1c-6.1 7.2-8.7 13-8.7 19.1 0 5 .4 5.3 6.5 4.3 5.6-1 5.9-.9 2.1 1-1.8.8-3.3 1.2-4.6 1.3-9.1.4-7.8-16.5 4.3-26.7l4.7-4zm4.8 7.4c.3 3.1.6 3.8 2.5 1.1.8-1.1 2.3-1 4.3-2.1-1.9 1.1-7 4.5-6.9 6.7-.4 1-.1.2-.2 2.6 0 2.4-.3 3.6 2.2 1.6 2.5-2.1 5.3-2.5 8-3.7l-7.9 4.2c-4 2.5-2 7.9-2.5 8.3-.6.4-.5-.9-.8-1.7l.5-3.5c.1-1.6-.6-2.1-1.5-2.3-2.5-1.5-5-1.4-7.5-2 2.4.3 5.2.4 7.1 1.2 2 .9 2.1.3 1.8-1.9-.2-1.3.6-3.5-.3-3.8-2.2.9-7-4.3-7-4.3s7.3 6.6 7.4 2.2l.4-14.1s.1 8.3.4 11.5zm7.5-1.4q-.4.2-.7.4c.4-.3.7-.4.7-.4z" class="M"/><use xlink:href="#C" class="N"/><path d="M41 254.1c6.1-7.1 8.8-12.9 8.8-19.1 0-5-.5-5.3-6.5-4.2-5.7.9-6 .8-2.2-1 1.8-.9 3.3-1.3 4.6-1.4 9.1-.4 7.8 16.5-4.3 26.7l-4.6 4zm-4.9-7.3c-.3-3.2-.6-3.8-2.5-1.2-.7 1.2-2.3 1.1-4.3 2.1 1.9-1.1 7-4.4 6.9-6.7.4-.9.1-.1.2-2.6.1-2.4.3-3.5-2.2-1.5s-5.3 2.4-8 3.6l7.9-4.2c4.1-2.4 2-7.9 2.5-8.3.6-.4.6 1 .8 1.8l-.5 3.5c-.1 1.5.6 2.1 1.5 2.3 2.5 1.5 5 1.4 7.5 2-2.4-.4-5.2-.4-7.1-1.3-2-.8-2-.3-1.8 1.9.2 1.4-.6 3.6.3 3.9 2.2-1 7 4.3 7 4.3s-7.3-6.6-7.4-2.3l-.4 14.1s-.1-8.3-.4-11.4zm-7.5 1.3q.4-.2.7-.4c-.4.3-.6.4-.7.4z" class="M"/><use xlink:href="#C" x="106.1" class="N"/><path d="M147.1 254.1c6.1-7.1 8.8-12.9 8.8-19.1 0-5-.5-5.3-6.5-4.2-5.7.9-6 .8-2.2-1 1.8-.9 3.3-1.3 4.6-1.4 9.1-.4 7.8 16.5-4.3 26.7l-4.6 4zm-4.9-7.3c-.3-3.2-.6-3.8-2.5-1.2-.8 1.2-2.3 1.1-4.3 2.1 1.9-1.1 7-4.4 6.9-6.7.4-.9.1-.1.2-2.6 0-2.4.3-3.5-2.2-1.5s-5.3 2.4-8 3.6l7.9-4.2c4-2.4 2-7.9 2.5-8.3.6-.4.6 1 .8 1.8l-.5 3.5c-.1 1.5.6 2.1 1.5 2.3 2.5 1.5 5 1.4 7.5 2-2.4-.4-5.2-.4-7.1-1.3-2-.8-2.1-.3-1.8 1.9.2 1.4-.6 3.6.3 3.9 2.2-1 7 4.3 7 4.3s-7.3-6.6-7.4-2.3l-.4 14.1s-.1-8.3-.4-11.4zm-7.5 1.3q.4-.2.7-.4c-.4.3-.7.4-.7.4z" class="M"/><defs ><path id="B" d="M61.3 244.7c-.7-.8-1.3-4.8-1.3-9s-.9-7.7-2-7.7-2-1.8-2-4c0-4.9-5.1-5.3-7.7-.6-1.8 3.2-2.3 3-6.1-1.5-2.9-3.5-4.1-7.8-4.1-15.1-.1-9.1-1.1-11.4-9.9-22.4-9.9-12.3-15.6-24.5-13.2-28.4 2.1-3.4-1.1-14-4.2-14-1.5 0-2.8-.9-2.8-2s1.3-2 2.8-2 3.3-1.3 3.9-3c.8-2 4-3 9.7-3 9.6-.1 15-4.3 19.4-15.3 2.2-5.4 2.1-7.1-.9-11.5-1.8-2.9-4.6-5.2-6.1-5.2-4.8 0-3-5.2 2.6-7.8l5.5-2.5-4.5-3.4L36 83l4.2-2.7c2.3-1.4 4.4-2.3 4.6-1.9.3.3 1.7 8 3.1 17.1 2.1 13.5 2.1 18.4.1 26-1.4 5.2-3.4 10.4-4.3 11.4-3.3 3.6-1.6 4.6 7.5 4.3 13.1-.3 14.8-3.5 14.8-28v-20l7 6.8c5.8 5.6 6.5 7.1 4 8.5-4.3 2.4-3.8 9.7.8 10.9 2.1.5 4.3 2.7 4.8 4.8 1.4 5.1 9.4 5.1 10.8 0 .5-2.1 2.7-4.3 4.8-4.8 4.5-1.2 5.1-8.5.8-10.9-2.4-1.3-1.2-3.4 6.2-10.6 6.4-6.1 8.9-7.7 8.1-4.9q-6.8 24.6-3.4 38.6l2.4 9.9h10.3c5.7 0 8.9-.4 7-.9-3.9-1-6.7-12-4.7-18.4 1-3 .5-4.2-1.8-4.2-4 0-4-5.2 0-6.8 2.6-.9 3-4.5 2.7-20l-.5-18.8-5.7 2c-3.2 1.1-10.8 7.3-17 13.8S89.9 96 88 96c-3.6 0-22-18.3-22-21.9 0-1.2-1.6-2.1-3.7-2.1-2.9 0-3.4-1.2-2.7-6.4.6-3.6 2.2-7.7 3.7-9.2s2.7-5.8 2.7-9.5c0-3.8.9-6.9 2-6.9s2-1.4 2-3.1c0-2.6 3.6-2.9 24.5-2.5l24.5.6.6 8.5c.4 4.7 1.5 8.5 2.5 8.5 1.1 0 1.9 1.8 1.9 4 0 4.9 5.1 5.3 7.7.6 1.8-3.2 2.3-3 6.1 1.5 2.9 3.5 4.1 7.8 4.1 15.1.1 9.1 1.1 11.4 9.9 22.4 9.9 12.3 15.6 24.5 13.2 28.4-2.1 3.4 1.1 14 4.2 14 1.5 0 2.8.9 2.8 2s-1.3 2-2.8 2-3.3 1.4-3.9 3c-.8 2-4 3-9.7 3-9.6.1-15 4.3-19.4 15.3-2.2 5.4-2.1 7.1.9 11.5 1.8 2.9 4.6 5.2 6.1 5.2 4.8 0 3 5.2-2.6 7.8l-5.5 2.5 4.5 3.4 4.4 3.3-4.2 2.7c-2.3 1.4-4.4 2.3-4.6 1.9-.3-.3-1.7-8-3.1-17.1-2.1-13.5-2.1-18.4-.1-26 1.4-5.2 3.4-10.4 4.3-11.4 3.3-3.6 1.6-4.6-7.5-4.3-13.1.3-14.8 3.5-14.8 28v20l-7-6.8c-5.8-5.6-6.5-7.1-4-8.5 4.3-2.4 3.8-9.7-.8-10.9-2.1-.5-4.3-2.7-4.8-4.8-.6-2.3-2.8-3.8-5.4-3.8s-4.8 1.5-5.4 3.8c-.5 2.1-2.7 4.3-4.8 4.8-4.5 1.2-5.1 8.5-.8 10.9 2.4 1.3 1.2 3.4-6.2 10.6-6.4 6.1-8.9 7.7-8.1 4.9q6.8-24.6 3.4-38.6l-2.4-9.9H57.4c-5.7 0-8.9.4-7 .9 3.9 1 6.7 12 4.7 18.4-1 3-.5 4.2 1.8 4.2 4 0 4 5.2 0 6.8-2.6.9-3 4.5-2.7 20l.5 18.8 5.7-2c3.2-1.1 10.8-7.3 17-13.8S90.1 184 92 184c3.6 0 22 18.3 22 21.9 0 1.2 1.6 2.1 3.7 2.1 2.9 0 3.4 1.2 2.7 6.4-.6 3.6-2.2 7.7-3.7 9.2s-2.7 5.8-2.7 9.5c0 3.8-.9 6.9-2 6.9s-2 1.4-2 3c0 2.5-4 3-23.7 3-13 0-24.2-.6-25-1.3zm43.9-4.2c3.7-4.8 3.5-17.6-.4-23.5-3-4.6-3-5.1 0-6.2 1.8-.7 3.2-2.3 3.2-3.6 0-3.4-10.7-9.2-17-9.2-5 0-16.8 5.5-17.1 7.9-.8 5.7-1 33.7-.4 35.6.6 1.7 5.5 2.5 15 2.5 11 0 14.6-.8 16.7-3.5zM82 236c0-1.1.9-2 2-2s2 .9 2 2-.9 2-2 2-2-.9-2-2zm16 0c0-1.1.9-2 2-2s2 .9 2 2-.9 2-2 2-2-.9-2-2zm-12-26.9c0-3.1 1.4-5.3 4-6.1 5.4-1.7 8 .3 8 6.1 0 4.1-1 4.9-6 4.9s-6-.8-6-4.9zm-36.4 10.5c3-3 3.4-45.6.4-45.6-1.2 0-2 9-2 23s-.8 23-2 23-2-9-2-23-.8-23-2-23c-3 0-2.6 42.6.4 45.6 1.3 1.3 2.9 2.4 3.6 2.4s2.3-1.1 3.6-2.4zM56 170c0-1.1-4.5-2-10-2s-10 .9-10 2 4.5 2 10 2 10-.9 10-2zm-3.2-8.5c3.2-5.1-.3-9.4-10.3-12.8-7.6-2.5-9-2.5-13.5.5-5.3 3.5-5.3 3.6 2.8 13.4 3.9 4.7 17.8 4 21-1.1zm-3.3-14.9c-2-.5-4.7-.5-6 .1-1.4.5.2 1 3.5.9 3.3 0 4.4-.5 2.5-1zm102-16.2l4.6-3.5-5.6-6.6c-4.8-5.7-6.5-6.5-13.3-6-14.4 1.3-15.1 11.7-1.1 16.7 9.4 3.4 10.3 3.4 15.4-.6zm-16 2.2c-2-.5-4.7-.5-6 .1-1.4.5.2 1 3.5.9 3.3 0 4.4-.5 2.5-1zM144 110c0-1.1-4.5-2-10-2s-10 .9-10 2 4.5 2 10 2 10-.9 10-2zm-12-27c0-14 .8-23 2-23s2 9 2 23 .8 23 2 23 2-8.6 2-21.8c0-16.9-.7-22.3-3-24.2-2.4-2-3.6-2-6 0-2.3 1.9-3 7.3-3 24.2 0 13.2.8 21.8 2 21.8s2-9 2-23zm-31.8-4.4c3.2-1.9 5.9-3.9 5.9-4.5.8-5.7 1-33.7.4-35.6-.6-1.7-5.5-2.5-15-2.5-11 0-14.6.8-16.7 3.5-3.7 4.8-3.5 17.6.4 23.5 3 4.6 3 5.1 0 6.2-4.8 1.8-3.9 5.4 2.3 9.3 7.1 4.4 15.4 4.4 22.7.1zm-16.9-1.9c-.7-.8-1.3-3.5-1.3-6 0-3.9 1-4.7 6-4.7s6 .8 6 4.8c0 5.6-7 9.5-10.7 5.9zM78 44c0-1.1.9-2 2-2s2 .9 2 2-.9 2-2 2-2-.9-2-2zm16 0c0-1.1.9-2 2-2s2 .9 2 2-.9 2-2 2-2-.9-2-2zm28 155.9c0-1.2 1.4-3.5 3-5.2 3.1-3.1 3.9-1.3 1.8 4.1-1.4 3.6-4.8 4.3-4.8 1.1zm-66-5c0-1.7.9-2.6 2-1.9 2.6 1.6 2.6 5 0 5-1.1 0-2-1.4-2-3.1zm.5-7.3c.4-1.3 1.8-2.7 3.1-3.1 1.5-.5 1.9.4 1.2 2.3-1.4 3.7-5.5 4.4-4.3.8zm63.9.1c1.1-3.1 5.4-3.6 6.1-.7.3 1.1-1.2 2.3-3.2 2.7-2.5.4-3.4-.3-2.9-2zm-63.9-8.9c.7-.7 2.4-.7 3.9-.2 1.6.7 1.1 1.1-1.2 1.2-2.1.1-3.3-.3-2.7-1zM120 177c0-1.6.4-3 .8-3s1.3 1.4 1.9 3c.7 1.7.3 3-.8 3-1 0-1.9-1.3-1.9-3zm-58-5.8c0-1.6.9-3.5 2-4.2s2 .1 2 1.8c0 1.6-.9 3.5-2 4.2s-2-.1-2-1.8zm58.4-1.3c.5-1.5 2-3 3.5-3.5s2.2.2 1.7 1.7-2 3-3.5 3.5-2.2-.2-1.7-1.7zm-1.2-9c-.6-1.7.1-2.9 1.7-2.9 4 0 5.6 3.4 2.3 4.7-1.6.6-3.4-.2-4-1.8zm-59.2-2c0-1.7.9-2.6 2-1.9 2.6 1.6 2.6 5 0 5-1.1 0-2-1.4-2-3.1zm1.3-6.2c-2.4-2.5-1.3-4.6 1.7-3.4 1.7.6 3 1.9 3 2.9 0 2.1-2.8 2.4-4.7.5zm60.7-.5c0-1 1.4-2.3 3-2.9 1.8-.7 3 0 3 1.8 0 1.6-1.3 2.9-3 2.9-1.6 0-3-.8-3-1.8zm-70-23.3c0-1.6 1.4-2.9 3-2.9 3.9 0 3.9 3.2 0 4.7-1.8.7-3 0-3-1.8zm64 1.1c-1.6-1-2.2-2.4-1.4-3.3.8-.8 2.5-.4 3.8.9 3 3 1.3 4.7-2.4 2.4zm1.2-7.7c-.9-1.4-1.1-3.1-.4-3.8 1.8-1.8 3.7.9 2.8 3.8-.7 2-1.2 2-2.4 0zm-62.1-2.1c-.6-1 .2-2.3 1.7-2.9 1.6-.6 3.4.2 4 1.8 1.2 3.1-3.8 4.1-5.7 1.1zm-.7-8.3c.5-1.5 2-3 3.5-3.5s2.2.2 1.7 1.7-2 3-3.5 3.5-2.2-.2-1.7-1.7zm59.6-.7c0-1.6.9-3.5 2-4.2s2 .1 2 1.8c0 1.6-.9 3.5-2 4.2s-2-.1-2-1.8zM57.3 103c-.7-1.6-.3-3 .8-3 1 0 1.9 1.4 1.9 3 0 1.7-.4 3-.8 3s-1.3-1.3-1.9-3zm61.2-2.2c.7-.7 2.4-.7 3.9-.2 1.6.7 1.1 1.1-1.2 1.2-2.1.1-3.3-.3-2.7-1zM53 94c-.7-1.1.2-2.6 2-3.3 3.8-1.4 5.9.2 4.1 3.2-1.7 2.7-4.5 2.7-6.1.1zm66.2-.8c.7-1.8 2.1-3.2 3.2-3.2 2.6 0 1 4.5-2 5.5-1.5.5-1.9-.4-1.2-2.3zM52 86.3c0-3.6 2.4-8.3 4.2-8.3 2.8 0 2.1 4-1.2 7.3-1.6 1.6-3 2.1-3 1zm69.2 0c-.9-1.4-1.1-3.1-.4-3.8 1.8-1.8 3.7.9 2.8 3.8-.7 2-1.2 2-2.4 0z"/><path id="C" d="M35.3 227.5c-.8 2.1-2.3 2.1-6 2-4.7-.2-6.6.6-7.1 3.3-1.3 6.2 1.3 12.9 7.9 20.4l6.2 7.1 5.6-5.3c6.7-6.4 10.5-14.7 9.6-21.2-.6-3.9-1.8-4.6-7.2-4.3-3.9.1-5.5.2-6.2-2z"/></defs></svg>