<svg xmlns="http://www.w3.org/2000/svg" width="158" height="246" xmlns:v="https://vecta.io/nano"><style><![CDATA[.G{fill-rule:evenodd}.H{fill:#fe0000}.I{stroke:#000}.J{stroke-width:.4}.K{fill:#9b0000}.L{fill:#009800}]]></style><path d="M52.7 169.5c0-12.6.8-20.1 2.4-23.3 3.2-6.1 10.9-13.2 18.4-17 7-3.5 13-1.7 22.6 6.7 9.5 8.4 11 12.9 11 33.6V188H79.9 52.7zm20.2-52.9c-7.1-3.7-14.7-10.9-17.8-16.8-1.6-3.2-2.4-10.7-2.4-23.2V58h27.2 27.2v18.6c0 20.1-1.4 24.7-9.9 32.6-5 4.6-15 10.4-17.7 10.3-.7-.1-3.7-1.4-6.6-2.9z" fill="#ccc9cc"/><path d="M54.4 168.6c0-19.4 1.7-24.7 10.3-31.9 9-7.6 14.8-9.1 21.6-5.7 15.5 7.8 19 14.8 19 37.6v17.7H54.4zm47.4-2.2c0-19.2-2.8-25.4-14.2-31.2-7.1-3.6-7.5-3.7-14-.8-12.9 5.9-14.7 9.4-15.4 30l-.6 18.3h44.2v-16.3zm-28.9-51.6c-15-7.9-18.5-14.9-18.5-37.4V59.7h50.9v17.7c0 22.7-3.5 29.7-18.8 37.4-6.7 3.5-7 3.5-13.6 0zm14.5-4c12.1-6.1 13.5-8.9 14.1-29.3l.6-18.3H57.9v16.3c0 19 2.8 25.3 13.6 31 8.2 4.4 8 4.4 15.9.3z" fill="#9b989b" class="G"/><path d="M23 14.3l-1.5 6.9c-1.1 4.8.3 10.7 4.6 19.9 5.7 12.1 6.6 13.1 12.7 13.5 9-2.4 5.3.2 11.6-6.7 2.7-5.4 2.3-6.7-5.3-17.7C39 21.5 35 17.8 29.9 16.3z" class="H I J"/><path d="M23.7 15.4l-1.9 6.3c-1.3 4.7-.2 9.8 4.3 19.4 5.7 12.1 6.6 13.1 12.7 13.5 2.9.1 6 .3 7.9 2l1.9-1c-.4-2.5.2-5.2 1.5-7.8 5-10 1.5-12.9-8.8-6.9l-9 5.1-5.3-9.2c-3.3-5.8-4.9-11.5-4.3-15.3z" class="K"/><path d="M23.7 15.4l-1.9 6.3c-1.3 4.7-.2 9.8 4.3 19.4 5.7 12.1 6.6 13.1 12.7 13.5 2.5.1 5.9.6 7.9 2l1.8-.8c-.1-2.7 1-6.1 2.1-8.2 4.9-9.8.9-12.6-9.3-6.7l-9 5.1-5.3-9.2c-3.3-5.8-4.9-11.5-4.3-15.3z" class="L"/><path d="M26 17.5c-.1.2-3.1 4-3.2 4.3 0 .3 3.8-3.5 3.8-3.2s-3.8 4.6-3.7 4.9c0 .3 4.5-3.7 4.6-3.4 0 .3-4.4 5-4.3 5.4 0 .4 5.2-4 5.3-3.7.1.4-4.9 5.6-4.8 6s5.9-4.3 6-3.9-5.5 5.9-5.4 6.4c.2.4 6.7-4.2 6.7-4.2l-5.8 6.7c.2.4 7.1-4.3 7.1-4.3s-6.3 6.5-6.1 7c.2.4 7.5-4.6 7.5-4.6l-6.4 7.2c.2.5 7.9-4.7 7.9-4.7l-6.7 7.3c.2.5 8.1-4.8 8.1-4.8s-7.1 7-6.9 7.4 8.3-5 8.3-5l-7 7.4s3.4 6 6.4 7.7c1.9.5 2.9 1.3 2.2 1.6-.6.4-2.6.1-4.5-.7-1.8-.7-6.1-7.1-9.5-14.1-4.7-9.8-5.6-14.3-3.9-18.9 1-2.9 1.7-6 1.9-6.1-.3 3.5-1.2 5.5 2.4 2.3zm7.7 28.7c.2.3 0 .6-.2.7-.3.2-.5.1-.7-.1-.1-.3-.1-.6.1-.8.3-.1.7 0 .8.2zm3.5-1.6c.1.3 0 .7-.2.8-.3.2-.6.1-.8-.2-.2-.2-.1-.6.2-.8.3-.1.6 0 .8.2zm4.2-1.6c.2.3.2.6-.1.8-.3.1-.6 0-.8-.3-.1-.2 0-.6.2-.7.3-.2.6-.1.7.2zm3.4-1.6c.1.3 0 .7-.3.8-.2.2-.6.1-.7-.2-.2-.3-.1-.6.2-.7.3-.2.6-.1.8.1zm2.4-1.4c.1.3.1.6-.2.8-.2.1-.6 0-.8-.2-.1-.3 0-.6.3-.7.2-.2.5-.1.7.1zm-11.5 7.9c.1.3 0 .6-.3.7-.2.2-.5.1-.6-.2-.2-.2-.2-.6.1-.7.3-.2.6-.1.8.2zm3.4-1.8c.2.3 0 .6-.2.7-.3.2-.6.1-.8-.1-.1-.3 0-.7.2-.8.3-.2.7-.1.8.2zm10.5-5.6c.1.2 0 .6-.2.8-.3.1-.7 0-.8-.3-.2-.2 0-.5.2-.7.3-.1.6-.1.8.2zM47.1 42c.1.3 0 .6-.3.8-.2.1-.5 0-.7-.3-.1-.2 0-.5.2-.6.3-.2.6-.2.8.1zm-3.5 2.5c.1.3 0 .6-.3.8-.2.1-.6 0-.7-.2-.2-.3-.1-.6.2-.8.2-.1.6 0 .8.2zm-1.9 2.1c.2.3.1.6-.1.8-.3.1-.6 0-.8-.2-.1-.3 0-.7.2-.8.3-.2.6 0 .7.2zm-1.8 1.8c.1.3 0 .6-.3.7-.3.2-.5.1-.7-.2-.1-.2-.1-.6.2-.7.2-.2.6-.1.8.2zm-2 1.6c.1.2 0 .6-.2.7-.3.2-.6 0-.8-.2-.1-.3 0-.5.2-.7.3-.1.6-.1.8.2zm7.5-4.3c.2.3.1.7-.2.8-.2.2-.6 0-.7-.2-.2-.3-.1-.5.2-.7.2-.1.6-.1.7.1zm4.6-2.6c.2.3.1.6-.1.7-.3.2-.7.1-.8-.2-.2-.2 0-.5.2-.7.3-.1.6-.1.7.2zm-6.2 4.3c.2.3.1.6-.2.8-.2.1-.5 0-.7-.2-.2-.3-.1-.6.2-.7.2-.2.6-.1.7.1zm3.6-2c.1.2.1.6-.2.7-.3.2-.6.1-.8-.2-.1-.2 0-.6.3-.7.2-.2.5-.1.7.2zm-6.6 4.7c.1.3 0 .6-.3.8-.2.1-.5 0-.7-.3-.1-.2-.1-.5.2-.6.3-.2.6-.2.8.1zm7-2.6c.1.3.1.6-.2.7-.3.2-.6.1-.8-.1-.1-.3 0-.7.3-.8.2-.2.5 0 .7.2zm-2.4 2.4c.1.3 0 .6-.3.8-.2.1-.5 0-.7-.2-.1-.3-.1-.6.2-.8.2-.1.6 0 .8.2zm-2.8 2c.1.3 0 .7-.2.8-.3.2-.6 0-.8-.2-.1-.3 0-.6.2-.7.3-.2.6-.1.8.1zm5.4-2.4c.1.2.1.6-.2.7-.2.2-.6.1-.7-.2-.2-.3-.1-.6.2-.8.2-.1.5 0 .7.3zm-1.8 2.7c.2.3.1.7-.2.8-.3.2-.6.1-.8-.2-.1-.3 0-.6.2-.8.3-.1.6 0 .8.2z" class="G"/><path d="M134.3 13.9l-6.7 2.1c-4.8 1.5-9.2 5.7-15 14-7.6 11-8 12.3-5.3 17.8 6.5 6.5 2.5 4.6 11.5 6.6 6.1-.3 7.1-1.4 12.8-13.5 4.5-9.5 5.7-14.8 4.4-20z" class="H I J"/><path d="M133.7 15l-6.4 1.6c-4.7 1.1-8.6 4.7-14.7 13.4-7.6 11-8 12.3-5.3 17.8 1.3 2.5 2.7 5.3 2.2 7.7l1.9 1.2c1.9-1.6 4.5-2.4 7.5-2.6 11.1-.6 11.8-5.1 1.5-11.1l-8.9-5.2 5.3-9.2c3.4-5.8 7.5-10 11.1-11.4z" class="K"/><path d="M133.7 15l-6.4 1.6c-4.7 1.1-8.6 4.7-14.7 13.4-7.6 11-8 12.3-5.3 17.8 1.1 2.2 2.4 5.3 2.2 7.8l1.6 1.1c2.3-1.5 5.8-2.2 8.2-2.3 10.9-.6 11.4-5.5 1.1-11.4l-8.9-5.2 5.3-9.2c3.4-5.8 7.5-10 11.1-11.4z" class="L"/><path d="M133 18.1c-.2.1-5.1-.7-5.3-.6s4.9 1.5 4.7 1.7c-.3.1-5.9-1-6.2-.8-.2.2 5.6 2.1 5.3 2.3s-6.5-1.3-6.8-1.1c-.3.3 6.1 2.6 5.8 2.8-.3.3-7.3-1.5-7.5-1.2-.3.3 6.6 3 6.3 3.3s-7.9-1.8-8.2-1.5c-.3.4 6.9 3.7 6.9 3.7s-8.3-2-8.6-1.6c-.3.3 7.3 3.9 7.3 3.9l-9.1-1.8c-.3.4 7.6 4.3 7.6 4.3l-9.4-2c-.3.4 8 4.5 8 4.5l-9.7-2.1c-.2.4 8.3 4.6 8.3 4.6s-9.6-2.7-9.8-2.3c-.3.4 8.4 4.7 8.4 4.7l-9.9-2.4s-3.5 6-3.5 9.4c.5 1.9.4 3.1-.3 2.8-.6-.4-1.3-2.3-1.6-4.3s3.1-8.8 7.5-15.3c6.1-8.9 9.6-12 14.3-12.9 3.1-.5 6.2-1.4 6.3-1.3-3.2 1.4-5.3 1.7-.8 3.2zm-21 21c-.1.3-.5.3-.7.2-.3-.2-.4-.4-.2-.7.1-.2.4-.4.7-.2.3.1.4.5.2.7zm3.1 2.3c-.1.2-.5.3-.8.2-.2-.2-.3-.6-.2-.8.2-.3.5-.4.8-.2.3.1.4.5.2.8zm3.6 2.8c-.2.3-.5.4-.8.3-.2-.2-.3-.6-.2-.8.2-.3.5-.4.8-.2.3.1.3.5.2.7zm3 2.1c-.2.3-.5.4-.8.2-.3-.1-.4-.5-.2-.8.1-.2.5-.3.7-.1.3.1.4.4.3.7zm2.4 1.4c-.2.3-.5.4-.7.2-.3-.1-.4-.5-.2-.7.1-.3.4-.3.7-.2.3.2.3.4.2.7zm-12.6-6c-.1.2-.4.3-.7.1-.3-.1-.3-.4-.2-.7.2-.2.5-.3.7-.2.3.2.4.5.2.8zm3.3 2c-.1.3-.5.3-.7.2-.3-.2-.4-.5-.3-.7.2-.3.5-.4.8-.2.3.1.4.5.2.7zm10.1 6.3c-.1.2-.5.3-.8.2-.2-.2-.3-.5-.2-.8.2-.3.5-.3.8-.1.2.1.4.4.2.7zm-2.6-1.4c-.1.2-.5.3-.7.2-.3-.2-.3-.5-.2-.8.2-.2.4-.3.7-.1.3.1.4.4.2.7zm-3.9-1.8c-.1.3-.5.4-.8.2-.2-.1-.3-.5-.2-.8.2-.2.5-.3.8-.2.3.2.4.5.2.8zm-2.8-.5c-.1.2-.4.4-.7.2-.2-.1-.3-.5-.2-.8.2-.2.5-.3.8-.2.3.2.3.5.1.8zm-2.4-.8c-.2.3-.5.3-.8.2-.2-.2-.3-.4-.1-.7.1-.3.4-.4.7-.3.2.2.3.6.2.8zm-2.4-.9c-.1.2-.5.3-.7.2-.3-.2-.3-.5-.2-.7.2-.3.4-.4.7-.2.3.1.4.4.2.7zm7.5 4.4c-.2.3-.5.4-.8.2-.3-.1-.3-.4-.2-.7.2-.3.5-.3.7-.2.3.2.4.5.3.7zm4.6 2.7c-.2.2-.5.4-.8.2-.2-.1-.3-.5-.2-.8.2-.2.5-.3.8-.1.2.2.3.4.2.7zm-6.9-3.2c-.1.2-.5.3-.8.2-.2-.2-.3-.5-.1-.7.2-.3.4-.4.7-.2.2.1.4.4.2.7zm3.6 2c-.2.3-.5.4-.8.3-.2-.2-.3-.6-.2-.8.2-.3.5-.3.8-.2.2.2.3.5.2.7zm-7.4-3.3c-.2.2-.6.3-.8.2-.3-.2-.3-.5-.2-.8.2-.2.5-.3.7-.2.3.2.4.5.3.8zm5.7 4.8c-.1.2-.4.3-.7.1-.2-.1-.4-.4-.2-.7.1-.2.5-.3.8-.2.2.2.3.5.1.8zm-3.3-.9c-.1.2-.5.3-.8.2-.2-.2-.3-.5-.1-.8.1-.2.5-.4.7-.2.3.1.4.5.2.8zm-3.1-1.4c-.2.2-.5.3-.8.2-.3-.2-.3-.5-.2-.8.2-.2.5-.3.7-.2.3.2.4.5.3.8zm4.8 3.4c-.1.3-.4.4-.7.3-.3-.2-.4-.6-.2-.8.1-.3.5-.4.8-.2.2.1.3.5.1.7zM113 53c-.1.2-.5.3-.7.2-.3-.2-.4-.6-.3-.8.2-.3.6-.4.8-.2.3.1.4.5.2.8z" class="G"/><path d="M78.7 68.5l-3.7 4c-2.6 2.9-3.9 7.3-4.6 15.1-.8 10.3-.6 11.3 3.3 13.9 6.9 1.8 3.5 2.1 10.3 0 3.9-2.6 4.1-3.6 3.3-13.9-.7-8.1-1.9-12.1-4.8-15.1z" class="H I J"/><path d="M78.7 69.5L75.1 73c-2.7 2.6-4 6.5-4.7 14.6-.8 10.3-.6 11.3 3.3 13.9 1.9 1.2 3.9 2.5 4.5 4.3l1.7.1c.6-1.8 2-3.4 4-4.6 7.1-4.7 5.9-8-3.3-8h-7.9v-8.2c0-5.2 1.1-9.6 3-11.9z" class="K"/><path d="M78.7 69.5L75.1 73c-2.7 2.6-4 6.5-4.7 14.6-.8 10.3-.6 11.3 3.3 13.9 1.7 1 3.7 2.6 4.5 4.4l1.5.1c1-1.9 3-3.7 4.5-4.7 7.1-4.6 5.6-8-3.6-8h-7.9v-8.2c0-5.2 1.1-9.6 3-11.9z" class="L"/><path d="M79.4 71.8c-.1.2-3.6 1.5-3.7 1.7-.1.1 3.8-.9 3.7-.7s-4.3 1.6-4.4 1.8c-.1.3 4.5-.7 4.4-.5-.1.3-4.8 1.7-4.9 2-.1.2 5-.7 4.9-.4 0 .3-5.4 1.8-5.5 2.1 0 .3 5.6-.6 5.5-.3 0 .3-5.9 1.9-6 2.2 0 .3 6-.2 6-.2l-6.3 2.2c-.1.4 6.3-.1 6.3-.1s-6.7 1.9-6.7 2.3c-.1.3 6.7-.1 6.7-.1s-7 1.9-7 2.3c0 .3 7-.1 7-.1s-7.2 1.9-7.2 2.3c-.1.3 7.2-.1 7.2-.1L72 90.4c0 .4 7.4-.1 7.4-.1L72 92.5s-.1 5.4 1.2 7.7c1.1 1 1.5 1.9.9 1.9s-1.8-1-2.7-2.2c-1-1.2-1.4-7.1-.9-13.1.6-8.3 1.7-11.7 4.6-14.1 1.8-1.5 3.5-3.3 3.6-3.3-1.5 2.2-2.8 3.2.7 2.4zm-5.8 22.1c0 .3-.3.4-.5.4s-.4-.1-.4-.4c0-.2.2-.4.4-.4s.5.2.5.4zm2.9.3c0 .2-.2.5-.5.5-.2 0-.4-.3-.4-.5s.2-.4.4-.4c.3 0 .5.2.5.4zm3.4.6c0 .2-.1.4-.3.4-.3 0-.5-.2-.5-.4a.47.47 0 0 1 .5-.5c.2 0 .3.2.3.5zm2.8.2c0 .2-.2.4-.4.4s-.4-.2-.4-.4.2-.4.4-.4.4.2.4.4zm2.2 0c0 .2-.2.4-.4.4s-.4-.2-.4-.4.2-.4.4-.4.4.2.4.4zm-10.7.8c0 .2-.2.4-.4.4-.3 0-.4-.2-.4-.4s.1-.4.4-.4c.2 0 .4.2.4.4zm3 .1c0 .3-.2.4-.5.4-.2 0-.4-.1-.4-.4 0-.2.2-.4.4-.4.3 0 .5.2.5.4zm9.1.3c0 .2-.2.4-.4.4-.3 0-.5-.2-.5-.4s.2-.4.5-.4c.2 0 .4.2.4.4zm-2.2.1c0 .2-.2.4-.5.4-.2 0-.4-.2-.4-.4 0-.3.2-.4.4-.4.3 0 .5.1.5.4zm-3.3.3c0 .2-.2.4-.5.4-.2 0-.4-.2-.4-.4 0-.3.2-.5.4-.5a.47.47 0 0 1 .5.5zm-2.1.7c0 .2-.1.4-.4.4-.2 0-.4-.2-.4-.4s.2-.4.4-.4c.3 0 .4.2.4.4zm-1.9.4c0 .3-.2.4-.4.4-.3 0-.4-.1-.4-.4 0-.2.1-.4.4-.4.2 0 .4.2.4.4zm-1.9.3c0 .2-.2.5-.5.5-.2 0-.3-.3-.3-.5s.1-.4.3-.4c.3 0 .5.2.5.4zm6.6.1c0 .3-.2.5-.4.5s-.4-.2-.4-.5c0-.2.2-.4.4-.4s.4.2.4.4zm4.1 0c0 .3-.2.5-.4.5s-.4-.2-.4-.5c0-.2.2-.4.4-.4s.4.2.4.4zm-5.8.5c0 .2-.2.5-.4.5s-.4-.3-.4-.5.2-.4.4-.4.4.2.4.4zm3.2 0c0 .2-.2.5-.4.5-.3 0-.5-.3-.5-.5s.2-.4.5-.4c.2 0 .4.2.4.4zm-6.3.6c0 .3-.2.5-.4.5s-.4-.2-.4-.5c0-.2.2-.4.4-.4s.4.2.4.4zm5.7 1c0 .2-.1.4-.4.4-.2 0-.4-.2-.4-.4s.2-.4.4-.4c.3 0 .4.2.4.4zm-2.5.7c0 .2-.2.4-.5.4-.2 0-.3-.2-.3-.4 0-.3.1-.5.3-.5a.47.47 0 0 1 .5.5zm-2.7.2c0 .3-.2.5-.4.5s-.4-.2-.4-.5c0-.2.2-.3.4-.3s.4.1.4.3zm4.6.5c0 .2-.1.4-.4.4-.2 0-.4-.2-.4-.4s.2-.5.4-.5c.3 0 .4.3.4.5zm-2.2 1.1c0 .3-.3.5-.5.5s-.4-.2-.4-.5c0-.2.2-.4.4-.4s.5.2.5.4z" class="G"/><path d="M78.7 177.5l-3.7-4c-2.6-2.9-3.9-7.3-4.6-15.1-.8-10.3-.6-11.3 3.3-13.9 6.9-1.8 3.5-2.1 10.3 0 3.9 2.6 4.1 3.6 3.3 13.9-.7 8.1-1.9 12.1-4.8 15.1z" class="H I J"/><path d="M78.7 176.5l-3.6-3.5c-2.7-2.6-4-6.5-4.7-14.6-.8-10.3-.6-11.3 3.3-13.9 1.9-1.2 3.9-2.5 4.5-4.3l1.7-.1c.6 1.8 2 3.4 4 4.6 7.1 4.7 5.9 8-3.3 8h-7.9v8.2c0 5.2 1.1 9.6 3 11.9z" class="K"/><path d="M78.7 176.5l-3.6-3.5c-2.7-2.6-4-6.5-4.7-14.6-.8-10.3-.6-11.3 3.3-13.9 1.7-1 3.7-2.6 4.5-4.4l1.5-.1c1 1.9 3 3.7 4.5 4.7 7.1 4.6 5.6 8-3.6 8h-7.9v8.2c0 5.2 1.1 9.6 3 11.9z" class="L"/><path d="M78.7 176.6c-.1 0-1.8-1.8-3.6-3.3-2.9-2.4-4-5.8-4.6-14.1-.5-6-.1-11.9.9-13.1.9-1.2 2.1-2.2 2.7-2.2s.2.9-.9 1.9c-1.3 2.3-1.2 7.7-1.2 7.7l7.4 2.2s-7.4-.5-7.4-.1c0 .3 7.4 2.2 7.4 2.2s-7.3-.4-7.2-.1c0 .4 7.2 2.3 7.2 2.3s-7-.4-7-.1c0 .4 7 2.3 7 2.3s-6.8-.4-6.7-.1c0 .4 6.7 2.3 6.7 2.3s-6.4-.5-6.3-.1c0 .3 6.3 2.2 6.3 2.2s-6-.5-6-.2c.1.3 6 1.9 6 2.2.1.3-5.5-.6-5.5-.3.1.3 5.5 1.8 5.5 2.1.1.3-5-.6-4.9-.4.1.3 4.8 1.7 4.9 2 .1.2-4.5-.8-4.4-.5.1.2 4.3 1.6 4.4 1.8s-3.8-.8-3.7-.7c.1.2 3.6 1.5 3.7 1.7-3.5-.8-2.2.2-.7 2.4zm-5.6-24.1c-.2 0-.4-.2-.4-.4 0-.3.2-.4.4-.4s.5.1.5.4c0 .2-.3.4-.5.4zm2.9-.3c-.2 0-.4-.2-.4-.4s.2-.5.4-.5c.3 0 .5.3.5.5s-.2.4-.5.4zm3.6-.5a.47.47 0 0 1-.5-.5c0-.2.2-.4.5-.4.2 0 .3.2.3.4 0 .3-.1.5-.3.5zm2.7-.3c-.2 0-.4-.2-.4-.4s.2-.4.4-.4.4.2.4.4-.2.4-.4.4zm2.2 0c-.2 0-.4-.2-.4-.4s.2-.4.4-.4.4.2.4.4-.2.4-.4.4zm-10.7-.8c-.3 0-.4-.2-.4-.4s.1-.4.4-.4c.2 0 .4.2.4.4s-.2.4-.4.4zm2.9-.1c-.2 0-.4-.2-.4-.4 0-.3.2-.4.4-.4.3 0 .5.1.5.4 0 .2-.2.4-.5.4zm9.2-.3c-.3 0-.5-.2-.5-.4s.2-.4.5-.4c.2 0 .4.2.4.4s-.2.4-.4.4zm-2.3-.1c-.2 0-.4-.1-.4-.4 0-.2.2-.4.4-.4.3 0 .5.2.5.4 0 .3-.2.4-.5.4zm-3.3-.2c-.2 0-.4-.2-.4-.5 0-.2.2-.4.4-.4.3 0 .5.2.5.4a.47.47 0 0 1-.5.5zm-2-.8c-.2 0-.4-.2-.4-.4s.2-.4.4-.4c.3 0 .4.2.4.4s-.1.4-.4.4zm-1.9-.4c-.3 0-.4-.2-.4-.4 0-.3.1-.4.4-.4.2 0 .4.1.4.4 0 .2-.2.4-.4.4zm-2-.3c-.2 0-.3-.2-.3-.4s.1-.5.3-.5c.3 0 .5.3.5.5s-.2.4-.5.4zm6.7-.1c-.2 0-.4-.2-.4-.4 0-.3.2-.5.4-.5s.4.2.4.5c0 .2-.2.4-.4.4zm4.1 0c-.2 0-.4-.2-.4-.4 0-.3.2-.5.4-.5s.4.2.4.5c0 .2-.2.4-.4.4zm-5.8-.5c-.2 0-.4-.2-.4-.4s.2-.5.4-.5.4.3.4.5-.2.4-.4.4zm3.2 0c-.3 0-.5-.2-.5-.4s.2-.5.5-.5c.2 0 .4.3.4.5s-.2.4-.4.4zm-6.3-.6c-.2 0-.4-.2-.4-.4 0-.3.2-.5.4-.5s.4.2.4.5c0 .2-.2.4-.4.4zm5.7-1c-.2 0-.4-.2-.4-.4s.2-.4.4-.4c.3 0 .4.2.4.4s-.1.4-.4.4zm-2.6-.6c-.2 0-.3-.2-.3-.5 0-.2.1-.4.3-.4.3 0 .5.2.5.4a.47.47 0 0 1-.5.5zm-2.6-.4c-.2 0-.4-.1-.4-.3 0-.3.2-.5.4-.5s.4.2.4.5c0 .2-.2.3-.4.3zm4.6-.3c-.2 0-.4-.3-.4-.5s.2-.4.4-.4c.3 0 .4.2.4.4s-.1.5-.4.5zm-2.3-1.2c-.2 0-.4-.2-.4-.4 0-.3.2-.5.4-.5s.5.2.5.5c0 .2-.3.4-.5.4z" class="G"/><path d="M23 231.7l-1.5-6.9c-1.1-4.8.3-10.7 4.6-19.9 5.7-12.1 6.6-13.1 12.7-13.5 9 2.4 5.3-.2 11.6 6.7 2.7 5.4 2.3 6.7-5.3 17.7-6.1 8.7-10.1 12.4-15.2 13.9z" class="H I J"/><path d="M23.7 230.6l-1.9-6.3c-1.3-4.7-.2-9.8 4.3-19.4 5.7-12.1 6.6-13.1 12.7-13.5 2.9-.1 6-.3 7.9-2l1.9 1c-.4 2.5.2 5.2 1.5 7.8 5 10 1.5 12.9-8.8 6.9l-9-5.1-5.3 9.2c-3.3 5.8-4.9 11.5-4.3 15.3z" class="K"/><path d="M23.7 230.6l-1.9-6.3c-1.3-4.7-.2-9.8 4.3-19.4 5.7-12.1 6.6-13.1 12.7-13.5 2.5-.1 5.9-.6 7.9-2l1.8.8c-.1 2.7 1 6.1 2.1 8.2 4.9 9.8.9 12.6-9.3 6.7l-9-5.1-5.3 9.2c-3.3 5.8-4.9 11.5-4.3 15.3z" class="L"/><path d="M23.6 230.8c-.2-.1-.9-3.2-1.9-6.1-1.7-4.6-.8-9.1 3.9-18.9 3.4-7 7.7-13.4 9.5-14.1 1.9-.8 3.9-1.1 4.5-.7.7.3-.3 1.1-2.2 1.6-3 1.7-6.4 7.7-6.4 7.7l7 7.4s-8.1-5.4-8.3-5 6.9 7.4 6.9 7.4-7.9-5.3-8.1-4.8c-.2.4 6.7 7.3 6.7 7.3s-7.7-5.2-7.9-4.7c-.2.4 6.4 7.2 6.4 7.2s-7.3-5-7.5-4.6c-.2.5 6.1 7 6.1 7s-6.9-4.7-7.1-4.3c-.1.4 5.8 6.7 5.8 6.7s-6.5-4.6-6.7-4.2c-.1.5 5.5 6 5.4 6.4s-5.9-4.3-6-3.9 4.9 5.6 4.8 6c-.1.3-5.3-4.1-5.3-3.7-.1.4 4.3 5.1 4.3 5.4-.1.3-4.6-3.7-4.6-3.4-.1.3 3.7 4.6 3.7 4.9s-3.8-3.5-3.8-3.2c.1.3 3.1 4.1 3.2 4.3-3.6-3.2-2.7-1.2-2.4 2.3zm9.3-30.8c-.2-.2-.2-.5-.1-.8.2-.2.4-.3.7-.1.2.1.4.4.2.7-.1.2-.5.3-.8.2zm3.5 1.6c-.3-.2-.4-.6-.2-.8.2-.3.5-.4.8-.2.2.1.3.5.2.8-.2.2-.5.3-.8.2zm4.3 1.6c-.2-.1-.3-.5-.2-.7.2-.3.5-.4.8-.3.3.2.3.5.1.8-.1.3-.4.4-.7.2zm3.3 1.5c-.3-.1-.4-.4-.2-.7.1-.3.5-.4.7-.2.3.1.4.5.3.8-.2.2-.5.3-.8.1zm2.5 1.4c-.3-.1-.4-.4-.3-.7.2-.2.6-.3.8-.2.3.2.3.5.2.8-.2.2-.5.3-.7.1zm-11.6-7.8c-.3-.1-.3-.5-.1-.7.1-.3.4-.4.6-.2.3.1.4.4.3.7-.2.3-.5.4-.8.2zm3.4 1.8c-.2-.1-.3-.5-.2-.8.2-.2.5-.3.8-.1.2.1.4.4.2.7-.1.3-.5.4-.8.2zm10.5 5.6c-.2-.2-.4-.5-.2-.7.1-.3.5-.4.8-.3.2.2.3.6.2.8-.2.3-.5.3-.8.2zm-2.5-1.6c-.2-.1-.3-.4-.2-.6.2-.3.5-.4.7-.3.3.2.4.5.3.8-.2.3-.5.3-.8.1zm-3.5-2.4c-.3-.2-.4-.5-.2-.8.1-.2.5-.3.7-.2.3.2.4.5.3.8-.2.2-.6.3-.8.2zm-1.8-2.1c-.2-.1-.3-.5-.2-.8.2-.2.5-.3.8-.2.2.2.3.5.1.8-.1.2-.4.4-.7.2zm-1.9-1.8c-.3-.1-.3-.5-.2-.7.2-.3.4-.4.7-.2.3.1.4.4.3.7-.2.3-.6.4-.8.2zm-2-1.6c-.2-.2-.3-.4-.2-.7.2-.2.5-.4.8-.2.2.1.3.5.2.7-.2.3-.5.3-.8.2zm7.6 4.2c-.3-.2-.4-.4-.2-.7.1-.2.5-.4.7-.2.3.1.4.5.2.8-.1.2-.5.2-.7.1zm4.6 2.7c-.2-.2-.4-.5-.2-.7.1-.3.5-.4.8-.2.2.1.3.4.1.7-.1.3-.4.3-.7.2zm-6.2-4.4c-.3-.1-.4-.4-.2-.7.2-.2.5-.3.7-.2.3.2.4.5.2.8-.1.2-.5.3-.7.1zm3.6 2.1c-.3-.1-.4-.5-.3-.7.2-.3.5-.4.8-.2.3.1.3.5.2.7-.2.3-.5.4-.7.2zM40 196c-.3-.1-.3-.4-.2-.6.2-.3.5-.4.7-.3.3.2.4.5.3.8-.2.3-.5.3-.8.1zm7.1 2.7c-.3-.1-.4-.5-.3-.8.2-.2.5-.3.8-.1.3.1.3.4.2.7-.2.2-.5.4-.7.2zm-2.5-2.4c-.3-.2-.3-.5-.2-.8.2-.2.5-.3.7-.2.3.2.4.5.3.8-.2.2-.6.3-.8.2zm-2.8-2.1c-.2-.1-.3-.4-.2-.7.2-.2.5-.4.8-.2.2.1.3.5.2.8-.2.2-.5.3-.8.1zm5.5 2.6c-.3-.2-.4-.5-.2-.8.1-.3.5-.4.7-.2.3.1.3.5.2.7-.2.3-.5.4-.7.3zm-1.9-2.8c-.2-.2-.3-.5-.2-.8.2-.3.5-.4.8-.2.3.1.4.5.2.8-.2.2-.5.3-.8.2z" class="G"/><path d="M134.3 232.1l-6.7-2.1c-4.8-1.5-9.2-5.7-15-14-7.6-11-8-12.3-5.3-17.8 6.5-6.5 2.5-4.6 11.5-6.6 6.1.3 7.1 1.4 12.8 13.5 4.5 9.5 5.7 14.8 4.4 20z" class="H I J"/><path d="M133.7 231l-6.4-1.6c-4.7-1.1-8.6-4.7-14.7-13.4-7.6-11-8-12.3-5.3-17.8 1.3-2.5 2.7-5.3 2.2-7.7l1.9-1.2c1.9 1.6 4.5 2.4 7.5 2.6 11.1.6 11.8 5.1 1.5 11.1l-8.9 5.2 5.3 9.2c3.4 5.8 7.5 10 11.1 11.4z" class="K"/><path d="M133.7 231l-6.4-1.6c-4.7-1.1-8.6-4.7-14.7-13.4-7.6-11-8-12.3-5.3-17.8 1.1-2.2 2.4-5.3 2.2-7.8l1.6-1.1c2.3 1.5 5.8 2.2 8.2 2.3 10.9.6 11.4 5.5 1.1 11.4l-8.9 5.2 5.3 9.2c3.4 5.8 7.5 10 11.1 11.4z" class="L"/><path d="M133.8 231.1c-.1.1-3.2-.8-6.3-1.3-4.7-.9-8.2-4-14.3-12.9-4.4-6.5-7.8-13.3-7.5-15.3s1-3.9 1.6-4.3c.7-.3.8.9.3 2.8 0 3.4 3.5 9.4 3.5 9.4l9.9-2.4s-8.7 4.3-8.4 4.7c.2.4 9.8-2.3 9.8-2.3s-8.5 4.2-8.3 4.6c.3.4 9.7-2.1 9.7-2.1s-8.3 4.1-8 4.5c.3.3 9.4-2 9.4-2s-7.9 3.9-7.6 4.3c.3.3 9.1-1.8 9.1-1.8s-7.6 3.6-7.3 3.9c.3.4 8.6-1.6 8.6-1.6s-7.2 3.3-6.9 3.7c.3.3 7.9-1.8 8.2-1.5s-6.6 3-6.3 3.3c.2.3 7.2-1.5 7.5-1.2.3.2-6.1 2.5-5.8 2.8.3.2 6.5-1.3 6.8-1.1s-5.5 2.1-5.3 2.3c.3.2 5.9-.9 6.2-.8.2.2-4.9 1.6-4.7 1.7s5.1-.7 5.3-.6c-4.5 1.5-2.4 1.8.8 3.2zm-22-23.5c-.3.2-.6 0-.7-.2-.2-.3-.1-.5.2-.7.2-.1.6-.1.7.2.2.2.1.6-.2.7zm3.1-2.2c-.3.2-.6.1-.8-.2-.1-.2 0-.6.2-.8.3-.1.7 0 .8.2.2.3.1.7-.2.8zm3.6-2.9c-.3.2-.6.1-.8-.2-.1-.2 0-.6.2-.8.3-.1.6 0 .8.3.1.2.1.6-.2.7zm2.9-2.1c-.2.2-.6.1-.7-.1-.2-.3-.1-.7.2-.8.3-.2.6-.1.8.2.1.3 0 .6-.3.7zm2.5-1.4c-.3.1-.6.1-.7-.2-.2-.2-.1-.6.2-.7.2-.2.5-.1.7.2.1.3.1.5-.2.7zm-12.6 6.1c-.2.1-.5 0-.7-.2-.1-.3-.1-.6.2-.7.3-.2.6-.1.7.1.2.3.1.6-.2.8zm3.3-2.1c-.3.2-.6.1-.8-.2-.1-.2 0-.5.3-.7.2-.1.6-.1.7.2.2.2.1.6-.2.7zm10.1-6.3c-.3.2-.6.2-.8-.1-.1-.3 0-.6.2-.8.3-.1.7 0 .8.2.2.3 0 .6-.2.7zm-2.6 1.4c-.3.2-.5.1-.7-.1-.1-.3-.1-.6.2-.8.2-.1.6 0 .7.2.2.3.1.6-.2.7zm-3.9 1.9c-.3.1-.6 0-.8-.2-.1-.3 0-.7.2-.8.3-.2.7-.1.8.2.2.3.1.6-.2.8zm-2.7.5c-.3.1-.6 0-.8-.2-.1-.3 0-.7.2-.8.3-.2.6 0 .7.2.2.3.2.6-.1.8zm-2.5.8c-.3.1-.6 0-.7-.3-.2-.3-.1-.5.1-.7.3-.1.6-.1.8.2.1.2 0 .6-.2.8zm-2.4.8c-.3.2-.5.1-.7-.2-.1-.2-.1-.5.2-.7.2-.1.6 0 .7.2.2.3.1.6-.2.7zm7.4-4.4c-.2.1-.5.1-.7-.2-.1-.3-.1-.6.2-.7.3-.2.6-.1.8.2.1.2 0 .5-.3.7zm4.7-2.7c-.3.2-.6.1-.8-.1-.1-.3 0-.7.2-.8.3-.2.6 0 .8.2.1.3 0 .5-.2.7zm-6.9 3.2c-.3.2-.5.1-.7-.2-.2-.2-.1-.5.1-.7.3-.1.7 0 .8.2.2.3 0 .6-.2.7zm3.6-2c-.3.1-.6.1-.8-.2-.1-.2 0-.6.2-.8.3-.1.6 0 .8.3.1.2 0 .5-.2.7zm-7.5 3.4c-.2.1-.5 0-.7-.2-.1-.3-.1-.6.2-.8.2-.1.6 0 .8.2.1.3 0 .6-.3.8zm5.9-4.8c-.3.1-.7 0-.8-.2-.2-.3 0-.6.2-.7.3-.2.6-.1.7.1.2.3.1.6-.1.8zm-3.4.9c-.2.2-.6 0-.7-.2-.2-.3-.1-.6.1-.8.3-.1.7 0 .8.2.2.3.1.7-.2.8zm-3.2 1.4c-.2.1-.5 0-.7-.2-.1-.3-.1-.6.2-.8.3-.1.6 0 .8.2.1.3 0 .6-.3.8zm5-3.5c-.3.2-.7.1-.8-.2-.2-.2-.1-.6.2-.8.3-.1.6 0 .7.3.2.2.1.6-.1.7zm-3.4.2c-.2.2-.6.1-.8-.2-.1-.2 0-.6.3-.8.2-.1.6 0 .7.2.2.3.1.7-.2.8z" class="G"/></svg>