<svg xmlns="http://www.w3.org/2000/svg" width="180" height="280" xmlns:v="https://vecta.io/nano"><style><![CDATA[.F{fill-rule:evenodd}.G{fill:#dfc800}.H{fill:#fe0000}.I{fill:#0000fe}]]></style><path d="M60 192.9c0-14.3.9-22.8 2.8-26.5 3.6-6.9 12.4-15 20.9-19.3 8-4.1 14.8-2 25.8 7.6 10.8 9.5 12.5 14.7 12.5 38.2V214H91 60zm23-60.2c-8-4.2-16.7-12.5-20.2-19.1-1.9-3.7-2.8-12.2-2.8-26.5V66h31 31v21.1c0 22.9-1.6 28.1-11.3 37.2-5.6 5.2-17 11.8-20.1 11.6-.9 0-4.3-1.5-7.6-3.2z" fill="#ccc9cc"/><path d="M62 191.9c0-22.1 1.9-28.1 11.7-36.3 10.2-8.7 16.9-10.4 24.6-6.5C116 158 120 165.9 120 191.9V212H62zm54-2.4c0-21.9-3.2-29-16.2-35.6-8.1-4.1-8.6-4.1-16-.8-14.7 6.6-16.7 10.6-17.5 34.1l-.7 20.8H116v-18.5zm-33-58.8c-17.1-9-21-17-21-42.6V68h58v20.1c0 25.8-4 33.9-21.4 42.7-7.7 3.9-8 3.9-15.6-.1zm16.6-4.5c13.8-7 15.3-10.2 16.1-33.4l.7-20.8H66v18.5c0 21.6 3.2 28.9 15.4 35.3 9.5 5 9.2 5 18.2.4z" fill="#9b989b" class="F"/><path d="M42 59c-15-3.9-19.6-7.8-20-17-.2-4.5 1.6-11.1 3.9-14.9 3.8-5.8 5.5-6.8 12.4-7.1 10.9-.4 21.6 6.5 21.8 14.2.3 6.8-5.1 25.6-7.5 26.5-.9.4-5.7-.4-10.6-1.7z" class="G"/><g class="H"><path d="M47.3 59.6c-1.8-1.5-2.3-3.2-1.1-3.9s3-.1 4 1.4c1.5 2.2 1.7 2.1 1.3-.7-.2-1.9.4-4 1.5-4.7 1.1-.6 2.3.8 2.7 3 .3 2.3-.7 4.9-2.3 5.8-1.6 1-4.3.5-6.1-.9z"/><path d="M30.2 54.7c-7-3.9-7.9-5.1-8.2-12.5-.2-4.5 1.5-11.3 3.9-15 3.7-5.9 5.4-6.8 12.3-7.2 4.5-.2 11.2 1.7 15 4.1 6.2 4 7 5.4 6.8 13.2-.2 7.5-1.6 9.5-11 15.2-9.7 5.8-11.7 6.1-18.8 2.2zm27.2-22.6c2.2-3.7-3.2-4.3-11.4-1.2-9.9 3.8-22.5 14.4-20.6 17.3 2.9 4.3 27.2-8 32-16.1zm-21.1-9.5c-2.4-.1-5.4 1.1-6.7 2.7-3.7 4.6-1.9 5 4.8 1 4.5-2.6 5-3.6 1.9-3.7z" class="F"/></g><path d="M24.1 38.8c-.2-5 1.9-7.5 9.8-12.1s11.1-5.1 15.4-2.4c4.9 3.1 4.9 3.4-1 4.7-3.4.7-8.3 2.5-10.8 4-2.5 1.4-6.5 4.7-8.9 7.4-4 4.4-4.3 4.2-4.5-1.6zm8.7 15.1c-4.9-3-4.8-3.4 1-4.7 3.5-.7 8.3-2.5 10.8-3.9 2.5-1.5 6.5-4.8 8.9-7.4 4-4.4 4.3-4.3 4.5 1.5.2 5-1.9 7.5-9.8 12.1s-11.1 5.1-15.4 2.4z" class="I"/><path d="M119.9 48.6c-4.1-14.9-3-20.9 4.8-25.9 3.7-2.4 10.4-4.2 14.8-4 7 .4 8.6 1.3 12.4 7.2 5.8 9.1 5.1 21.9-1.4 26-5.8 3.6-24.7 8.3-26.8 6.7-.7-.6-2.5-5.1-3.8-10z" class="G"/><g class="H"><path d="M122.1 53.4c.3-2.2 1.6-3.5 2.8-2.8 1.2.6 1.5 2.5.7 4.1-1.1 2.4-.9 2.5 1.3.8 1.6-1.2 3.7-1.6 4.8-1s.5 2.3-1.2 3.8c-1.8 1.4-4.6 1.9-6.2.9-1.6-.9-2.6-3.5-2.2-5.8z"/><path d="M117.8 36.2c-.2-8 .5-9.4 6.7-13.4 3.8-2.4 10.5-4.3 14.9-4.1 7 .3 8.6 1.3 12.4 7.1 2.4 3.7 4.2 10.5 4 15-.4 7.4-1.2 8.7-8 12.5-6.7 3.6-9.1 3.4-18.8-2-9.9-5.4-11.1-7-11.2-15.1zm33.1 12.2c4.4 0 2.2-4.8-4.7-10.4-8.2-6.7-23.7-12.3-25.2-9.1-2.4 4.6 20.5 19.5 29.9 19.5zm-2.3-23c-1.1-2.1-3.6-4.1-5.7-4.4-5.8-1-5.2.8 1.5 4.7 4.6 2.6 5.7 2.5 4.2-.3z" class="F"/></g><path d="M128.5 23c4.2-2.7 7.4-2.2 15.4 2.4 7.9 4.6 9.9 7.1 9.7 12.1-.1 5.8-.5 6-4.5 1.5-2.4-2.6-6.4-5.9-8.9-7.4-2.4-1.4-7.3-3.2-10.8-3.9-5.8-1.3-5.9-1.6-.9-4.7zm-8.8 15.1c.2-5.8.6-5.9 4.6-1.5 2.4 2.6 6.3 5.9 8.8 7.4 2.5 1.4 7.4 3.2 10.9 3.9 5.8 1.3 5.9 1.7.9 4.7-4.3 2.7-7.5 2.2-15.4-2.4s-9.9-7.1-9.8-12.1z" class="I"/><path d="M82 115.6c-8.5-8.4-10.1-12.8-6.8-19.1 1.6-3 5.3-6.8 8.3-8.3 4.8-2.5 6.3-2.5 11 0 7.4 3.9 11.9 12.6 9.1 17.8-2.5 4.7-13.2 15.1-15.2 14.8-.8-.1-3.7-2.5-6.4-5.2z" class="G"/><g class="H"><path d="M85.3 118c-.7-1.7-.3-3 .8-3 1 0 2 1.1 2.1 2.5.1 2 .3 2 1.1 0 .6-1.4 1.8-2.5 2.8-2.5s1.3 1.3.6 3c-.6 1.6-2.3 3-3.7 3s-3.1-1.4-3.7-3z"/><path d="M75.8 108.2c-3.2-5.3-3.3-6.5-.7-11.5 1.6-3.1 5.4-6.9 8.4-8.5 4.7-2.5 6.2-2.5 11 0 3 1.5 6.8 5.4 8.4 8.5 2.6 5 2.5 6.2-.6 11.3-3 5-4.7 5.8-13.2 5.9-8.7.2-10.1-.4-13.3-5.7zm26.8-4.6c2.9-1.7-.5-4.1-7.2-5.2-8-1.3-20.5.9-20.3 3.7.2 3.9 21.2 5.1 27.5 1.5zM92.2 89.1c-1.6-1-4-1.3-5.5-.8-4.3 1.7-3.2 2.7 2.8 2.6 4 0 4.7-.5 2.7-1.8z" class="F"/></g><path d="M77.8 95.3C79.6 91.8 82 91 89 91s9.4.8 11.2 4.3c2.1 3.9 1.9 4.1-2.5 2.7-2.6-.8-6.5-1.5-8.7-1.5s-6.1.7-8.8 1.5c-4.3 1.4-4.5 1.2-2.4-2.7zm0 13.4c-2.1-4-1.9-4.2 2.4-2.8 2.7.9 6.6 1.5 8.8 1.5s6.1-.6 8.7-1.5c4.4-1.4 4.6-1.2 2.5 2.8-1.8 3.4-4.2 4.3-11.2 4.3s-9.4-.9-11.2-4.3z" class="I"/><path d="M82 164.4c-8.5 8.4-10.1 12.8-6.8 19.1 1.6 3 5.3 6.8 8.3 8.3 4.8 2.5 6.3 2.5 11 0 7.4-3.9 11.9-12.6 9.1-17.8-2.5-4.7-13.2-15.1-15.2-14.8-.8.1-3.7 2.5-6.4 5.2z" class="G"/><g class="H"><path d="M85.3 162c-.7 1.7-.3 3 .8 3 1 0 2-1.1 2.1-2.5.1-2 .3-2 1.1 0 .6 1.4 1.8 2.5 2.8 2.5s1.3-1.3.6-3c-.6-1.6-2.3-3-3.7-3s-3.1 1.4-3.7 3z"/><path d="M89.1 166.1c8.5.1 10.2.9 13.2 5.9 3.1 5.1 3.2 6.3.6 11.3-1.6 3.1-5.4 7-8.4 8.5-4.8 2.5-6.3 2.5-11 0-3-1.6-6.8-5.4-8.4-8.5-2.6-5-2.5-6.2.7-11.5s4.6-5.9 13.3-5.7zm-14 11.8c-.2 2.8 12.3 5 20.3 3.7 6.7-1.1 10.1-3.5 7.2-5.2-6.3-3.6-27.3-2.4-27.5 1.5zm14.4 11.2c-6-.1-7.1.9-2.8 2.6 1.5.5 3.9.2 5.5-.8 2-1.3 1.3-1.8-2.7-1.8z" class="F"/></g><path d="M77.8 184.7c1.8 3.5 4.2 4.3 11.2 4.3s9.4-.8 11.2-4.3c2.1-3.9 1.9-4.1-2.5-2.7-2.6.8-6.5 1.5-8.7 1.5s-6.1-.7-8.8-1.5c-4.3-1.4-4.5-1.2-2.4 2.7zm0-13.4c-2.1 4-1.9 4.2 2.4 2.8 2.7-.9 6.6-1.5 8.8-1.5s6.1.6 8.7 1.5c4.4 1.4 4.6 1.2 2.5-2.8-1.8-3.4-4.2-4.3-11.2-4.3s-9.4.9-11.2 4.3z" class="I"/><path d="M42 221c-15 3.9-19.6 7.8-20 17-.2 4.5 1.6 11.1 3.9 14.9 3.8 5.8 5.5 6.8 12.4 7.1 10.9.4 21.6-6.5 21.8-14.2.3-6.8-5.1-25.6-7.5-26.5-.9-.4-5.7.4-10.6 1.7z" class="G"/><g class="H"><path d="M47.3 220.4c-1.8 1.5-2.3 3.2-1.1 3.9s3 .1 4-1.4c1.5-2.2 1.7-2.1 1.3.7-.2 1.9.4 4 1.5 4.7 1.1.6 2.3-.8 2.7-3 .3-2.3-.7-4.9-2.3-5.8-1.6-1-4.3-.5-6.1.9z"/><path d="M49 227.5c9.4 5.7 10.8 7.7 11 15.2.2 7.8-.6 9.2-6.8 13.2-3.8 2.4-10.5 4.3-15 4.1-6.9-.4-8.6-1.3-12.3-7.2-2.4-3.7-4.1-10.5-3.9-15 .3-7.4 1.2-8.6 8.2-12.5 7.1-3.9 9.1-3.6 18.8 2.2zm-23.6 4.3c-1.9 2.9 10.7 13.5 20.6 17.3 8.2 3.1 13.6 2.5 11.4-1.2-4.8-8.1-29.1-20.4-32-16.1zm9 21.9c-6.7-4-8.5-3.6-4.8 1 1.3 1.6 4.3 2.8 6.7 2.7 3.1-.1 2.6-1.1-1.9-3.7z" class="F"/></g><path d="M24.1 241.2c-.2 5 1.9 7.5 9.8 12.1s11.1 5.1 15.4 2.4c4.9-3.1 4.9-3.4-1-4.7-3.4-.7-8.3-2.5-10.8-4-2.5-1.4-6.5-4.7-8.9-7.4-4-4.4-4.3-4.2-4.5 1.6zm8.7-15.1c-4.9 3-4.8 3.4 1 4.7 3.5.7 8.3 2.5 10.8 3.9 2.5 1.5 6.5 4.8 8.9 7.4 4 4.4 4.3 4.3 4.5-1.5.2-5-1.9-7.5-9.8-12.1s-11.1-5.1-15.4-2.4z" class="I"/><path d="M119.9 231.4c-4.1 14.9-3 20.9 4.8 25.9 3.7 2.4 10.4 4.2 14.8 4 7-.4 8.6-1.3 12.4-7.2 5.8-9.1 5.1-21.9-1.4-26-5.8-3.6-24.7-8.3-26.8-6.7-.7.6-2.5 5.1-3.8 10z" class="G"/><g class="H"><path d="M122.1 226.6c.3 2.2 1.6 3.5 2.8 2.8 1.2-.6 1.5-2.5.7-4.1-1.1-2.4-.9-2.5 1.3-.8 1.6 1.2 3.7 1.6 4.8 1s.5-2.3-1.2-3.8c-1.8-1.4-4.6-1.9-6.2-.9-1.6.9-2.6 3.5-2.2 5.8z"/><path d="M129 228.7c9.7-5.4 12.1-5.6 18.8-2 6.8 3.8 7.6 5.1 8 12.5.2 4.5-1.6 11.3-4 15-3.8 5.8-5.4 6.8-12.4 7.1-4.4.2-11.1-1.7-14.9-4.1-6.2-4-6.9-5.4-6.7-13.4.1-8.1 1.3-9.7 11.2-15.1zm-8 22.4c1.5 3.2 17-2.4 25.2-9.1 6.9-5.6 9.1-10.4 4.7-10.4-9.4 0-32.3 14.9-29.9 19.5zm23.4 3.2c-6.7 3.9-7.3 5.7-1.5 4.7 2.1-.3 4.6-2.3 5.7-4.4 1.5-2.8.4-2.9-4.2-.3z" class="F"/></g><path d="M128.5 257c4.2 2.7 7.4 2.2 15.4-2.4 7.9-4.6 9.9-7.1 9.7-12.1-.1-5.8-.5-6-4.5-1.5-2.4 2.6-6.4 5.9-8.9 7.4-2.4 1.4-7.3 3.2-10.8 3.9-5.8 1.3-5.9 1.6-.9 4.7zm-8.8-15.1c.2 5.8.6 5.9 4.6 1.5 2.4-2.6 6.3-5.9 8.8-7.4 2.5-1.4 7.4-3.2 10.9-3.9 5.8-1.3 5.9-1.7.9-4.7-4.3-2.7-7.5-2.2-15.4 2.4s-9.9 7.1-9.8 12.1z" class="I"/></svg>