<svg xmlns="http://www.w3.org/2000/svg" width="158" height="246" xmlns:v="https://vecta.io/nano"><path d="M52.7 169.5c0-12.6.8-20.1 2.4-23.3 3.2-6.1 10.9-13.2 18.4-17 7-3.5 13-1.7 22.6 6.7 9.5 8.4 11 12.9 11 33.6V188H79.9 52.7zm20.2-52.9c-7.1-3.7-14.7-10.9-17.8-16.8-1.6-3.2-2.4-10.7-2.4-23.2V58h27.2 27.2v18.6c0 20.1-1.4 24.7-9.9 32.6-5 4.6-15 10.4-17.7 10.3-.7-.1-3.7-1.4-6.6-2.9z" fill="#ccc9cc"/><path fill-rule="evenodd" d="M54.4 168.6c0-19.4 1.7-24.7 10.3-31.9 9-7.6 14.8-9.1 21.6-5.7 15.5 7.8 19 14.8 19 37.6v17.7H54.4zm47.4-2.2c0-19.2-2.8-25.4-14.2-31.2-7.1-3.6-7.5-3.7-14-.8-12.9 5.9-14.7 9.4-15.4 30l-.6 18.3h44.2v-16.3zm-28.9-51.6c-15-7.9-18.5-14.9-18.5-37.4V59.7h50.9v17.7c0 22.7-3.5 29.7-18.8 37.4-6.7 3.5-7 3.5-13.6 0zm14.5-4c12.1-6.1 13.5-8.9 14.1-29.3l.6-18.3H57.9v16.3c0 19 2.8 25.3 13.6 31 8.2 4.4 8 4.4 15.9.3z" fill="#9b989b"/><path d="M35.2 49.9C20.4 45.8 14.9 41.1 16.8 34c1.4-5.2 8.8-9 13.9-7.1 3.8 1.4 4.4 1 5.8-3.4 1.9-5.9 8-9.8 13.2-8.5 7.1 2 8.5 9.3 4.4 24.1L50 54z" fill="#fe0000"/><path d="m43 39.2c-7.9-13.6-8.1-18.8-1.2-22.8 2.2-1.3 5.8-1.9 7.9-1.4 7 1.9 8.5 9.3 4.6 23.2l-3.8 13.9z" fill="#bc0000"/><path d="M101.9 37.8c-3.9-14.9-2.6-22 4.5-23.9 5.2-1.4 12.2 3.1 13.1 8.5.7 4 1.3 4.3 5.8 3.3 6.1-1.3 12.6 2 13.9 7.2 2 7.2-3.7 12-18.6 15.9l-14.9 3.9z" fill="#fe0000"/><path d="m115 39.2c7.9-13.6 12.2-16.4 19.1-12.5 2.3 1.4 4.6 4.1 5.1 6.2 1.9 7.1-3.7 12-17.7 15.6l-14 3.6z" fill="#bc0000"/><path d="M69.7 96.7c-8.3-8.4-10.1-13.6-6.2-17.6 3-2.9 9.4-2.6 12 .6 2 2.4 2.6 2.4 5.2 0 3.6-3.3 9.1-3.5 12-.6 4.1 4 2.1 9.5-6.3 17.8l-8.4 8.2z" fill="#fe0000"/><path d="M79 92.7C79 80.5 80.8 77 86.9 77c2.1 0 4.7.9 5.8 2.1 4 4 2.2 9.5-5.8 17.2l-7.9 7.8z" fill="#bc0000"/><path d="M69.7 149.3c-8.3 8.4-10.1 13.6-6.2 17.6 3 2.9 9.4 2.6 12-.6 2-2.4 2.6-2.4 5.2 0 3.6 3.3 9.1 3.5 12 .6 4.1-4 2.1-9.5-6.3-17.8l-8.4-8.2z" fill="#fe0000"/><path d="M79 153.3c0 12.2 1.8 15.7 7.9 15.7 2.1 0 4.7-.9 5.8-2.1 4-4 2.2-9.5-5.8-17.2l-7.9-7.8z" fill="#bc0000"/><path d="M35.2 196.1c-14.8 4.1-20.3 8.8-18.4 15.9 1.4 5.2 8.8 9 13.9 7.1 3.8-1.4 4.4-1 5.8 3.4 1.9 5.9 8 9.8 13.2 8.5 7.1-2 8.5-9.3 4.4-24.1L50 192z" fill="#fe0000"/><path d="m43 206.8c-7.9 13.6-8.1 18.8-1.2 22.8 2.2 1.3 5.8 1.9 7.9 1.4 7-1.9 8.5-9.3 4.6-23.2l-3.8-13.9z" fill="#bc0000"/><path d="M101.9 208.2c-3.9 14.9-2.6 22 4.5 23.9 5.2 1.4 12.2-3.1 13.1-8.5.7-4 1.3-4.3 5.8-3.3 6.1 1.3 12.6-2 13.9-7.2 2-7.2-3.7-12-18.6-15.9l-14.9-3.9z" fill="#fe0000"/><path d="m115 206.8c7.9 13.6 12.2 16.4 19.1 12.5 2.3-1.4 4.6-4.1 5.1-6.2 1.9-7.1-3.7-12-17.7-15.6l-14-3.6z" fill="#bc0000"/></svg>