<svg xmlns="http://www.w3.org/2000/svg" width="180" height="280" xmlns:v="https://vecta.io/nano"><style><![CDATA[.E{fill-rule:evenodd}.F{fill:#009800}]]></style><path d="M60 192.9c0-14.3.9-22.8 2.8-26.5 3.6-6.9 12.4-15 20.9-19.3 8-4.1 14.8-2 25.8 7.6 10.8 9.5 12.5 14.7 12.5 38.2V214H91 60zm23-60.2c-8-4.2-16.7-12.5-20.2-19.1-1.9-3.7-2.8-12.2-2.8-26.5V66h31 31v21.1c0 22.9-1.6 28.1-11.3 37.2-5.6 5.2-17 11.8-20.1 11.6-.9 0-4.3-1.5-7.6-3.2z" fill="#ccc9cc"/><path d="M62 191.9c0-22.1 1.9-28.1 11.7-36.3 10.2-8.7 16.9-10.4 24.6-6.5C116 158 120 165.9 120 191.9V212H62zm54-2.4c0-21.9-3.2-29-16.2-35.6-8.1-4.1-8.6-4.1-16-.8-14.7 6.6-16.7 10.6-17.5 34.1l-.7 20.8H116v-18.5zm-33-58.8c-17.1-9-21-17-21-42.6V68h58v20.1c0 25.8-4 33.9-21.4 42.7-7.7 3.9-8 3.9-15.6-.1zm16.6-4.5c13.8-7 15.3-10.2 16.1-33.4l.7-20.8H66v18.5c0 21.6 3.2 28.9 15.4 35.3 9.5 5 9.2 5 18.2.4z" fill="#9b989b" class="E"/><path d="M51.4 51.6c-.5-2.9 1.2-3.9 5.5-6.1 5.4-2.8 7-5.1 5.9-8.5-2.6-7.8-10-13.6-22.3-17.8l-11.7-4-2.8 9.6c-3.4 11.6-2.2 23.5 3 30.2 3.2 4 5 4 11 .2 4.3-2.7 6-3.8 8.3-1.8z" class="F"/><path d="M27.6 25.3c-2.2 12-1.4 20.3 2.6 27.2 3.2 5.6 4 5.7 10.1.6 5.7-4.8 6.1-4.8 3-.3-1.4 2.1-2.8 3.6-4.2 4.5C29 63.7 19.5 43.8 26.5 24.4l2.6-7.5zm10.3 5.1c2.4 3.4 3.1 3.9 3.5-.3.2-1.8 2-2.7 3.6-5.2-1.4 2.5-5 9.6-3.4 12.1.2 1.3-.1.2 1.4 3s2 4.2 3.5.3 4.5-6.2 6.7-9.3L47 40.9c-3 5.4 2.9 10.2 2.5 11s-1.2-.7-2-1.5l-1.7-4.2c-.9-1.9-2.1-2-3.2-1.7-3.8 0-6.5 1.7-9.7 2.7 2.9-1.2 6.1-3 8.8-3.3 2.8-.3 2.5-.9.8-3.2-1.1-1.5-1.7-4.4-2.9-4.2-1.8 2.5-10.7-.3-10.7-.3s12.5 2.7 9.8-2.3L30 17.8s5.5 9.3 7.9 12.6zm7.6-6.4q-.3.5-.5.9c.3-.6.4-.9.5-.9z" class="E"/><path d="M131 53c2.3-1.8 4-.9 8.1 1.7 5.1 3.3 7.9 3.5 10.3.8 5.4-6.1 6.8-15.4 4.3-28.1l-2.4-12.1-9.8 2.4c-11.7 2.8-21.4 9.8-24.6 17.6-1.9 4.8-1 6.4 5.3 9.6 4.5 2.4 6.3 3.3 5.7 6.3z" class="F"/><path d="M142 19.2c-11.6 4.1-18.4 9-22.4 15.9-3.2 5.6-2.9 6.3 4.6 9 7 2.6 7.2 2.9 1.7 2.6-2.5-.2-4.5-.8-6-1.5-10.6-5.5 2-23.7 22.2-27.4l7.9-1.4zm.6 11.4c-1.7 3.8-1.7 4.7 2.1 2.9 1.6-.7 3.4.4 6.3.5-2.8 0-10.8.4-12.2 3.1-1 .8-.2 0-1.9 2.7-1.6 2.7-2.6 3.9 1.5 3.2s7.6.8 11.4 1.1l-11.6-.4c-6.2.1-7.5 7.7-8.3 7.7-.9.1 0-1.4.2-2.4l2.9-3.6c1.1-1.7.7-2.8-.2-3.6-1.9-3.3-4.7-4.9-7.2-7.2 2.5 2 5.6 3.8 7.3 6.1 1.6 2.2 2 1.7 3.2-1 .7-1.7 3-3.7 2.1-4.6-3-.3-5.1-9.4-5.1-9.4s4 12.2 7 7.4l9.6-15.6s-5.4 9.4-7.1 13.1zM152 34q-.5 0-1 0c.6-.1 1 0 1 0z" class="E"/><path d="M91.1 114.3c.8-2.1 2.3-2.2 6-2 4.7.2 6.6-.7 7.2-3.4 1.2-6.2-1.4-12.9-8-20.4L90 81.4l-5.5 5.3c-6.7 6.4-10.5 14.8-9.6 21.2.5 3.9 1.8 4.6 7.2 4.4 3.9-.2 5.5-.2 6.2 2z" class="F"/><path d="M85.4 87.6c-6.1 7.1-8.8 13-8.8 19.1 0 5 .5 5.3 6.5 4.3 5.7-1 6-.9 2.1 1-1.7.8-3.2 1.2-4.5 1.3-9.2.5-7.9-16.5 4.2-26.7l4.7-4zm4.8 7.4c.3 3.1.7 3.7 2.6 1.1.8-1.1 2.3-1.1 4.3-2.1-1.9 1.1-7 4.5-6.9 6.7-.4 1-.1.1-.2 2.6-.1 2.4-.3 3.6 2.2 1.5 2.5-2 5.4-2.4 8-3.6l-7.9 4.2c-4.1 2.5-2 8-2.6 8.3-.5.4-.5-.9-.7-1.7l.5-3.5c.1-1.6-.6-2.1-1.5-2.3-2.5-1.5-5-1.4-7.5-2 2.4.3 5.2.3 7.1 1.2 2 .9 2 .3 1.8-1.9-.2-1.3.5-3.6-.3-3.8-2.2.9-7.1-4.4-7.1-4.4s7.4 6.6 7.5 2.3l.4-14.1s0 8.3.3 11.5zm7.6-1.4q-.4.2-.7.4c.4-.3.7-.4.7-.4z" class="E"/><path d="M91.1 165.7c.8 2.1 2.3 2.2 6 2 4.7-.2 6.6.7 7.2 3.4 1.2 6.2-1.4 12.9-8 20.4l-6.3 7.1-5.5-5.3c-6.7-6.4-10.5-14.8-9.6-21.2.5-3.9 1.8-4.6 7.2-4.4 3.9.2 5.5.2 6.2-2z" class="F"/><path d="M89.6 197.4l-4.7-4c-12.1-10.2-13.4-27.2-4.2-26.7 1.3.1 2.8.5 4.5 1.3 3.9 1.9 3.6 2-2.1 1-6-1-6.5-.7-6.5 4.3 0 6.1 2.7 12 8.8 19.1zm.2-.9l-.4-14.1c-.1-4.4-7.5 2.2-7.5 2.2s4.9-5.2 7-4.3c.9-.3.2-2.5.3-3.9.3-2.2.2-2.7-1.7-1.8-1.9.8-4.7.8-7.1 1.2 2.5-.6 5-.5 7.5-2 .8-.2 1.6-.7 1.5-2.3l-.5-3.5c.2-.8.2-2.1.7-1.8.6.4-1.5 5.9 2.6 8.4l7.9 4.2c-2.7-1.2-5.5-1.6-8-3.7-2.5-2-2.3-.8-2.2 1.6 0 2.4-.2 1.6.2 2.6-.1 2.2 5 5.6 6.9 6.7-2-1-3.6-1-4.4-2.1-1.8-2.7-2.2-2-2.5 1.1-.3 3.2-.3 11.5-.3 11.5zM97 186q.3.2.6.4s-.2-.1-.6-.4z" class="E"/><path d="M51.4 228.4c-.5 2.9 1.2 3.9 5.5 6.1 5.4 2.8 7 5.1 5.9 8.5-2.6 7.8-10 13.6-22.3 17.8l-11.7 4-2.8-9.6c-3.4-11.6-2.2-23.5 3-30.2 3.2-4 5-4 11-.2 4.3 2.7 6 3.8 8.3 1.8z" class="F"/><path d="M29.1 263.1l-2.6-7.5c-7-19.4 2.5-39.3 12.6-32.9 1.4.9 2.8 2.4 4.2 4.5 3.1 4.5 2.7 4.5-3-.3-6.1-5.1-6.9-5-10.1.6-4 6.9-4.8 15.2-2.6 27.2zm.8-.9l8.8-16.1c2.7-5-9.9-2.3-9.9-2.3s8.9-2.8 10.7-.3c1.2.2 1.8-2.7 2.9-4.2 1.7-2.3 2-2.9-.8-3.2-2.7-.3-5.9-2.1-8.8-3.3 3.2 1 6 2.7 9.8 2.7 1.1.3 2.3.2 3.2-1.7l1.7-4.2c.8-.8 1.6-2.3 2-1.5s-5.6 5.6-2.6 11l6.2 9.9c-2.2-3.1-5.2-5.4-6.7-9.3-1.4-3.9-1.9-2.5-3.5.3-1.5 2.8-1.2 1.7-1.4 3-1.6 2.5 2 9.6 3.4 12.1-1.6-2.5-3.4-3.4-3.5-5.2-.4-4.2-1.2-3.7-3.6-.4-2.4 3.4-7.9 12.7-7.9 12.7zm15-7.1q.2.4.5.9s-.2-.3-.5-.9z" class="E"/><path d="M131 227c2.3 1.8 4 .9 8.1-1.7 5.1-3.3 7.9-3.5 10.3-.8 5.4 6.1 6.8 15.4 4.3 28.1l-2.4 12.1-9.8-2.4c-11.7-2.8-21.4-9.8-24.6-17.6-1.9-4.8-1-6.4 5.3-9.6 4.5-2.4 6.3-3.3 5.7-6.3z" class="F"/><path d="M150 263.6l-7.9-1.4c-20.2-3.7-32.8-21.9-22.2-27.4 1.5-.7 3.5-1.3 6-1.5 5.5-.3 5.3 0-1.7 2.6-7.5 2.7-7.8 3.4-4.6 9 4 6.9 10.8 11.8 22.4 15.9zm-.4-1.2l-9.6-15.6c-3-4.9-7 7.3-7 7.3s2.1-9 5.1-9.4c.8-.9-1.4-2.9-2.1-4.6-1.2-2.6-1.6-3.2-3.2-.9-1.7 2.2-4.8 4-7.3 6 2.5-2.3 5.3-3.8 7.2-7.1.8-.8 1.3-1.9.2-3.6l-2.9-3.6c-.2-1.1-1.2-2.5-.3-2.5.9.1 2.2 7.6 8.4 7.7l11.6-.4c-3.8.4-7.3 1.8-11.4 1.1-4.1-.6-3.1.5-1.5 3.2 1.7 2.7.9 1.9 1.9 2.8 1.4 2.6 9.3 3 12.2 3.1-2.9.1-4.7 1.2-6.3.4-3.8-1.7-3.8-.8-2.1 2.9 1.7 3.8 7.1 13.2 7.1 13.2zm1.3-16.5q.5 0 1 0h-1z" class="E"/></svg>