<svg xmlns="http://www.w3.org/2000/svg" xmlns:xlink="http://www.w3.org/1999/xlink" width="158" height="246" xmlns:v="https://vecta.io/nano"><style><![CDATA[.C{fill:#fe0000}.D{fill:#bc0000}]]></style><use xlink:href="#B" class="C"/><use xlink:href="#C" class="D"/><use xlink:href="#B" y="26" class="C"/><use xlink:href="#C" y="26" class="D"/><use xlink:href="#B" y="52" class="C"/><use xlink:href="#C" y="52" class="D"/><use xlink:href="#B" x="84" class="C"/><use xlink:href="#C" x="84" class="D"/><use xlink:href="#B" x="84" y="26" class="C"/><use xlink:href="#C" x="84" y="26" class="D"/><use xlink:href="#B" x="84" y="52" class="C"/><use xlink:href="#C" x="84" y="52" class="D"/><use xlink:href="#D" class="C"/><use xlink:href="#E" class="D"/><use xlink:href="#D" y="-26" class="C"/><use xlink:href="#E" y="-26" class="D"/><use xlink:href="#D" y="-52" class="C"/><use xlink:href="#E" y="-52" class="D"/><use xlink:href="#D" x="-84" class="C"/><use xlink:href="#E" x="-84" class="D"/><use xlink:href="#D" x="-84" y="-26" class="C"/><use xlink:href="#E" x="-84" y="-26" class="D"/><use xlink:href="#D" x="-81" y="-53" class="C"/><use xlink:href="#E" x="-81" y="-53" class="D"/><defs ><path id="B" d="M26.4 55.9c-9.4-9.6-11.5-15.5-7-20 3.3-3.4 10.6-3 13.6.6 2.3 2.8 2.9 2.8 5.9 0 4.1-3.6 10.4-3.9 13.7-.6 4.6 4.6 2.4 10.7-7.2 20.2l-9.5 9.4z"/><path id="C" d="m37 51.3c0-13.8 2-17.8 9-17.8 2.3 0 5.3 1.1 6.6 2.4 4.5 4.5 2.4 10.7-6.6 19.6l-9 8.8z"/><path id="D" d="M129.6 190.1c9.4 9.6 11.5 15.5 7 20-3.3 3.4-10.6 3-13.6-.6-2.3-2.8-2.9-2.8-5.9 0-4.1 3.6-10.4 3.9-13.7.6-4.6-4.6-2.4-10.7 7.2-20.2l9.5-9.4z"/><path id="E" d="m119 194.7c0 13.8-2 17.8-9 17.8-2.3 0-5.3-1.1-6.6-2.4-4.5-4.5-2.4-10.7 6.6-19.6l9-8.8z"/></defs></svg>