<svg xmlns="http://www.w3.org/2000/svg" xmlns:xlink="http://www.w3.org/1999/xlink" width="180" height="280" xmlns:v="https://vecta.io/nano"><style><![CDATA[.D{fill:#dfc800}.E{fill:#fe0000}.F{fill-rule:evenodd}.G{fill:#0000fe}]]></style><use xlink:href="#B" class="D"/><g class="E"><use xlink:href="#C"/><path d="M26 120.7c-3.7-6-3.7-7.4-.8-13.1 1.8-3.5 6.1-7.9 9.5-9.7 5.4-2.8 7.1-2.8 12.5 0 3.5 1.8 7.8 6.1 9.6 9.7 2.9 5.7 2.9 7.1-.6 12.9-3.5 5.6-5.4 6.5-15 6.7-10 .2-11.5-.5-15.2-6.5zm30.4-5.3c3.3-1.9-.5-4.6-8.1-5.8-9.1-1.5-23.3 1-23.1 4.1.3 4.5 24.1 5.8 31.2 1.7zM44.6 99c-1.7-1.1-4.5-1.5-6.2-.9-4.8 1.9-3.6 3 3.2 2.9 4.5 0 5.4-.5 3-2z" class="F"/></g><g class="G"><use xlink:href="#D"/><use xlink:href="#E"/></g><path d="M33 99.5C23.4 90 21.6 85 25.3 77.8c1.8-3.4 6.1-7.7 9.5-9.5 5.4-2.8 7.1-2.8 12.5.1 8.4 4.4 13.4 14.3 10.3 20.2-2.8 5.3-15 17.1-17.3 16.8-.9-.1-4.1-2.8-7.3-5.9z" class="D"/><g class="E"><use xlink:href="#C" y="-29.6"/><path d="M26 91.1c-3.7-6-3.7-7.4-.8-13.1 1.8-3.5 6.1-7.9 9.5-9.6 5.4-2.9 7.1-2.9 12.5-.1 3.5 1.8 7.8 6.1 9.6 9.7 2.9 5.7 2.9 7.1-.6 12.9-3.5 5.6-5.4 6.5-15 6.7-10 .2-11.5-.5-15.2-6.5zm30.4-5.3c3.3-1.9-.5-4.6-8.1-5.8-9.1-1.5-23.3 1-23.1 4.1.3 4.5 24.1 5.8 31.2 1.7zM44.6 69.4c-1.7-1.1-4.5-1.5-6.2-.9-4.8 1.9-3.6 3 3.2 3 4.5-.1 5.4-.6 3-2.1z" class="F"/></g><g class="G"><use xlink:href="#D" y="-29.6"/><use xlink:href="#E" y="-29.6"/></g><use xlink:href="#F" class="D"/><g class="E"><path d="M36.8 72.6c-.8-1.9-.3-3.4.9-3.4s2.3 1.3 2.4 2.9c.1 2.2.4 2.2 1.3 0 .6-1.6 2-2.9 3.1-2.9 1.2 0 1.5 1.5.8 3.4-.8 1.9-2.7 3.4-4.3 3.4s-3.5-1.5-4.2-3.4z"/><path d="M26 61.5c-3.7-6-3.7-7.4-.8-13.1 1.8-3.5 6.1-7.9 9.5-9.6 5.4-2.9 7.1-2.9 12.5-.1 3.5 1.8 7.8 6.2 9.6 9.7 2.9 5.7 2.9 7.1-.6 12.9-3.5 5.6-5.4 6.5-15 6.7-10 .2-11.5-.5-15.2-6.5zm30.4-5.3c3.3-1.8-.5-4.6-8.1-5.8-9.1-1.5-23.3 1-23.1 4.1.3 4.5 24.1 5.8 31.2 1.7zM44.6 39.8c-1.7-1.1-4.5-1.5-6.2-.9-4.8 1.9-3.6 3 3.2 3 4.5-.1 5.4-.6 3-2.1z" class="F"/></g><g class="G"><use xlink:href="#D" y="-59.2"/><use xlink:href="#E" y="-59.2"/></g><path d="M80.9 115.5c-9.7-9.6-11.4-14.6-7.7-21.7 1.7-3.5 6-7.8 9.5-9.5 5.4-2.8 7.1-2.8 12.4 0 8.4 4.4 13.5 14.3 10.3 20.3-2.8 5.2-15 17.1-17.2 16.7-.9-.1-4.2-2.7-7.3-5.8z" class="D"/><g class="E"><use xlink:href="#G"/><path d="M73.8 107c-3.6-6-3.7-7.3-.7-13.1 1.8-3.5 6.1-7.8 9.5-9.6 5.4-2.8 7.1-2.8 12.5 0 3.4 1.7 7.7 6.1 9.5 9.6 3 5.7 2.9 7.1-.6 12.9-3.4 5.7-5.4 6.5-15 6.7-9.9.2-11.5-.5-15.2-6.5zm30.5-5.2c3.3-1.9-.5-4.7-8.2-5.9C87 94.4 72.9 97 73 100c.3 4.5 24.1 5.8 31.3 1.8zM92.5 85.3c-1.8-1.1-4.6-1.5-6.3-.8-4.8 1.8-3.6 2.9 3.2 2.9 4.6 0 5.4-.6 3.1-2.1z" class="F"/></g><g class="G"><use xlink:href="#H"/><path d="M76.2 107.6c-2.5-4.5-2.2-4.8 2.7-3.2 3 1 7.5 1.8 10 1.8s6.9-.8 9.9-1.8c5-1.6 5.2-1.3 2.8 3.2-2.1 3.8-4.7 4.9-12.7 4.9s-10.7-1.1-12.7-4.9z"/></g><path d="M80.9 85.9c-9.7-9.6-11.4-14.6-7.7-21.7 1.7-3.5 6-7.7 9.5-9.5 5.4-2.8 7.1-2.8 12.4 0 8.4 4.4 13.5 14.3 10.3 20.3-2.8 5.2-15 17.1-17.2 16.7-.9-.1-4.2-2.7-7.3-5.8z" class="D"/><g class="E"><use xlink:href="#G" y="-29.6"/><path d="M73.8 77.4c-3.6-6-3.7-7.3-.7-13.1 1.8-3.5 6.1-7.8 9.5-9.6 5.4-2.8 7.1-2.8 12.5 0 3.4 1.8 7.7 6.1 9.5 9.6 3 5.7 2.9 7.1-.6 12.9-3.4 5.7-5.4 6.5-15 6.7-9.9.2-11.5-.5-15.2-6.5zm30.5-5.2c3.3-1.9-.5-4.7-8.2-5.9-9.1-1.5-23.2 1.1-23.1 4.1.3 4.5 24.1 5.9 31.3 1.8zM92.5 55.7c-1.8-1.1-4.6-1.5-6.3-.8-4.8 1.8-3.6 2.9 3.2 2.9 4.6 0 5.4-.6 3.1-2.1z" class="F"/></g><g class="G"><use xlink:href="#H" y="-29.6"/><path d="M76.2 78c-2.5-4.5-2.2-4.8 2.7-3.2 3 1 7.5 1.8 10 1.8s6.9-.8 9.9-1.8c5-1.6 5.2-1.3 2.8 3.2-2.1 3.9-4.7 4.9-12.7 4.9s-10.7-1-12.7-4.9z"/></g><use xlink:href="#B" x="95.7" class="D"/><g class="E"><use xlink:href="#I"/><path d="M121.7 120.7c-3.7-6-3.7-7.4-.8-13.1 1.8-3.5 6.1-7.9 9.5-9.7 5.4-2.8 7.1-2.8 12.5 0 3.4 1.8 7.8 6.1 9.6 9.7 2.9 5.7 2.9 7.1-.6 12.9-3.5 5.6-5.4 6.5-15.1 6.7-9.9.2-11.4-.5-15.1-6.5zm30.4-5.3c3.3-1.9-.5-4.6-8.1-5.8-9.1-1.5-23.3 1-23.1 4.1.3 4.5 24.1 5.8 31.2 1.7zM140.3 99c-1.7-1.1-4.6-1.5-6.2-.9-4.9 1.9-3.6 3 3.2 2.9 4.5 0 5.4-.5 3-2z" class="F"/></g><g class="G"><use xlink:href="#J"/><use xlink:href="#K"/></g><path d="M128.7 99.5C119.1 90 117.3 85 121 77.8c1.8-3.4 6.1-7.7 9.5-9.5 5.4-2.8 7.1-2.8 12.5.1 8.4 4.4 13.4 14.3 10.3 20.2-2.8 5.3-15 17.1-17.3 16.8-.9-.1-4.1-2.8-7.3-5.9z" class="D"/><g class="E"><use xlink:href="#I" y="-29.6"/><path d="M121.7 91.1c-3.7-6-3.7-7.4-.8-13.1 1.8-3.5 6.1-7.9 9.5-9.6 5.4-2.9 7.1-2.9 12.5-.1 3.4 1.8 7.8 6.1 9.6 9.7 2.9 5.7 2.9 7.1-.6 12.9-3.5 5.6-5.4 6.5-15.1 6.7-9.9.2-11.4-.5-15.1-6.5zm30.4-5.3c3.3-1.9-.5-4.6-8.1-5.8-9.1-1.5-23.3 1-23.1 4.1.3 4.5 24.1 5.8 31.2 1.7zm-11.8-16.4c-1.7-1.1-4.6-1.5-6.2-.9-4.9 1.9-3.6 3 3.2 3 4.5-.1 5.4-.6 3-2.1z" class="F"/></g><g class="G"><use xlink:href="#J" y="-29.6"/><use xlink:href="#K" y="-29.6"/></g><use xlink:href="#F" x="95.7" class="D"/><g class="E"><path d="M132.5 72.6c-.8-1.9-.4-3.4.9-3.4 1.2 0 2.3 1.3 2.3 2.9.2 2.2.5 2.2 1.4 0 .6-1.6 2-2.9 3.1-2.9 1.2 0 1.5 1.5.8 3.4-.8 1.9-2.7 3.4-4.3 3.4s-3.5-1.5-4.2-3.4z"/><path d="M121.7 61.5c-3.7-6-3.7-7.4-.8-13.1 1.8-3.5 6.1-7.9 9.5-9.6 5.4-2.9 7.1-2.9 12.5-.1 3.4 1.8 7.8 6.2 9.6 9.7 2.9 5.7 2.9 7.1-.6 12.9-3.5 5.6-5.4 6.5-15.1 6.7-9.9.2-11.4-.5-15.1-6.5zm30.4-5.3c3.3-1.8-.5-4.6-8.1-5.8-9.1-1.5-23.3 1-23.1 4.1.3 4.5 24.1 5.8 31.2 1.7zm-11.8-16.4c-1.7-1.1-4.6-1.5-6.2-.9-4.9 1.9-3.6 3 3.2 3 4.5-.1 5.4-.6 3-2.1z" class="F"/></g><g class="G"><use xlink:href="#J" y="-59.2"/><use xlink:href="#K" y="-59.2"/></g><path d="M144.7 150.9c9.6 9.5 11.4 14.5 7.7 21.7-1.8 3.4-6.1 7.7-9.5 9.5-5.4 2.8-7.1 2.8-12.5 0-8.4-4.4-13.4-14.4-10.3-20.3 2.8-5.3 15.1-17.1 17.3-16.8.9.1 4.2 2.8 7.3 5.9z" class="D"/><g class="E"><use xlink:href="#L"/><path d="M151.7 159.3c3.7 6 3.8 7.4.8 13.1-1.8 3.5-6.1 7.9-9.5 9.7-5.4 2.8-7.1 2.8-12.5 0-3.4-1.8-7.7-6.1-9.6-9.7-2.9-5.7-2.9-7.1.7-12.9 3.4-5.6 5.3-6.5 15-6.7 9.9-.2 11.5.5 15.1 6.5zm-30.4 5.3c-3.3 1.9.5 4.6 8.1 5.8 9.1 1.5 23.3-1 23.1-4.1-.2-4.5-24.1-5.8-31.2-1.7zm11.8 16.4c1.8 1.1 4.6 1.5 6.3.9 4.8-1.9 3.5-3-3.3-2.9-4.5 0-5.4.5-3 2z" class="F"/></g><g class="G"><use xlink:href="#M"/><use xlink:href="#N"/></g><use xlink:href="#O" class="D"/><g class="E"><use xlink:href="#L" y="29.6"/><path d="M151.7 188.9c3.7 6 3.8 7.4.8 13.1-1.8 3.5-6.1 7.9-9.5 9.6-5.4 2.9-7.1 2.9-12.5.1-3.4-1.8-7.7-6.1-9.6-9.7-2.9-5.7-2.9-7.1.7-12.9 3.4-5.6 5.3-6.5 15-6.7 9.9-.2 11.5.5 15.1 6.5zm-30.4 5.3c-3.3 1.9.5 4.6 8.1 5.8 9.1 1.5 23.3-1 23.1-4.1-.2-4.5-24.1-5.8-31.2-1.7zm11.8 16.4c1.8 1.1 4.6 1.5 6.3.9 4.8-1.9 3.5-3-3.3-3-4.5.1-5.4.6-3 2.1z" class="F"/></g><g class="G"><use xlink:href="#M" y="29.6"/><use xlink:href="#N" y="29.6"/></g><use xlink:href="#O" y="29.6" class="D"/><g class="E"><use xlink:href="#P"/><path d="M151.7 218.5c3.7 6 3.8 7.4.8 13.1-1.8 3.5-6.1 7.9-9.5 9.6-5.4 2.9-7.1 2.9-12.5.1-3.4-1.8-7.7-6.2-9.6-9.7-2.9-5.7-2.9-7.1.7-12.9 3.4-5.6 5.3-6.5 15-6.7 9.9-.2 11.5.5 15.1 6.5zm-30.4 5.3c-3.3 1.8.5 4.6 8.1 5.8 9.1 1.5 23.3-1 23.1-4.1-.2-4.5-24.1-5.8-31.2-1.7zm11.8 16.4c1.8 1.1 4.6 1.5 6.3.9 4.8-1.9 3.5-3-3.3-3-4.5.1-5.4.6-3 2.1z" class="F"/></g><g class="G"><use xlink:href="#M" y="59.2"/><use xlink:href="#N" y="59.2"/></g><path d="M96.8 164.5c9.7 9.6 11.5 14.6 7.8 21.7-1.8 3.5-6.1 7.8-9.5 9.5-5.4 2.8-7.1 2.8-12.5 0-8.4-4.4-13.5-14.3-10.3-20.3 2.8-5.2 15-17.1 17.3-16.7.8.1 4.1 2.7 7.2 5.8z" class="D"/><g class="E"><use xlink:href="#Q"/><path d="M103.9 173c3.6 6 3.7 7.3.7 13.1-1.8 3.5-6.1 7.8-9.5 9.6-5.3 2.8-7 2.8-12.4 0-3.5-1.7-7.8-6.1-9.6-9.6-3-5.7-2.9-7.1.6-12.9 3.4-5.7 5.4-6.5 15-6.7 9.9-.2 11.5.5 15.2 6.5zm-30.5 5.2c-3.3 1.9.5 4.7 8.2 5.9 9.1 1.5 23.3-1.1 23.1-4.1-.3-4.5-24.1-5.8-31.3-1.8zm11.8 16.5c1.8 1.1 4.6 1.5 6.3.8 4.8-1.8 3.6-2.9-3.2-2.9-4.6 0-5.4.6-3.1 2.1z" class="F"/></g><g class="G"><use xlink:href="#R"/><path d="M101.6 172.4c2.4 4.5 2.2 4.8-2.8 3.2-3-1-7.4-1.8-9.9-1.8s-7 .8-10 1.8c-4.9 1.6-5.2 1.3-2.7-3.2 2-3.8 4.7-4.9 12.7-4.9s10.6 1.1 12.7 4.9z"/></g><path d="M96.8 194.1c9.7 9.6 11.5 14.6 7.8 21.7-1.8 3.5-6.1 7.7-9.5 9.5-5.4 2.8-7.1 2.8-12.5 0-8.4-4.4-13.5-14.3-10.3-20.3 2.8-5.2 15-17.1 17.3-16.7.8.1 4.1 2.7 7.2 5.8z" class="D"/><g class="E"><use xlink:href="#Q" y="29.6"/><path d="M103.9 202.6c3.6 6 3.7 7.3.7 13.1-1.8 3.5-6.1 7.8-9.5 9.6-5.3 2.8-7 2.8-12.4 0-3.5-1.8-7.8-6.1-9.6-9.6-3-5.7-2.9-7.1.6-12.9 3.4-5.7 5.4-6.5 15-6.7 9.9-.2 11.5.5 15.2 6.5zm-30.5 5.2c-3.3 1.9.5 4.7 8.2 5.9 9.1 1.5 23.3-1.1 23.1-4.1-.3-4.5-24.1-5.9-31.3-1.8zm11.8 16.5c1.8 1.1 4.6 1.5 6.3.8 4.8-1.8 3.6-2.9-3.2-2.9-4.6 0-5.4.6-3.1 2.1z" class="F"/></g><g class="G"><use xlink:href="#R" y="29.6"/><path d="M101.6 202c2.4 4.5 2.2 4.8-2.8 3.2-3-1-7.4-1.8-9.9-1.8s-7 .8-10 1.8c-4.9 1.6-5.2 1.3-2.7-3.2 2-3.9 4.7-4.9 12.7-4.9s10.6 1 12.7 4.9z"/></g><path d="M49 150.9c9.6 9.5 11.4 14.5 7.7 21.7-1.8 3.4-6 7.7-9.5 9.5-5.4 2.8-7.1 2.8-12.5 0-8.4-4.4-13.4-14.4-10.3-20.3 2.9-5.3 15.1-17.1 17.3-16.8.9.1 4.2 2.8 7.3 5.9z" class="D"/><g class="E"><use xlink:href="#L" x="-95.7"/><path d="M56 159.3c3.7 6 3.8 7.4.8 13.1-1.8 3.5-6.1 7.9-9.5 9.7-5.4 2.8-7.1 2.8-12.5 0-3.4-1.8-7.7-6.1-9.6-9.7-2.9-5.7-2.9-7.1.7-12.9 3.4-5.6 5.3-6.5 15-6.7 9.9-.2 11.5.5 15.1 6.5zm-30.4 5.3c-3.3 1.9.5 4.6 8.1 5.8 9.1 1.5 23.3-1 23.1-4.1-.2-4.5-24-5.8-31.2-1.7zM37.4 181c1.8 1.1 4.6 1.5 6.3.9 4.8-1.9 3.5-3-3.3-2.9-4.5 0-5.3.5-3 2z" class="F"/></g><g class="G"><use xlink:href="#S"/><use xlink:href="#T"/></g><use xlink:href="#U" class="D"/><g class="E"><use xlink:href="#L" x="-95.7" y="29.6"/><path d="M56 188.9c3.7 6 3.8 7.4.8 13.1-1.8 3.5-6.1 7.9-9.5 9.6-5.4 2.9-7.1 2.9-12.5.1-3.4-1.8-7.7-6.1-9.6-9.7-2.9-5.7-2.9-7.1.7-12.9 3.4-5.6 5.3-6.5 15-6.7 9.9-.2 11.5.5 15.1 6.5zm-30.4 5.3c-3.3 1.9.5 4.6 8.1 5.8 9.1 1.5 23.3-1 23.1-4.1-.2-4.5-24-5.8-31.2-1.7zm11.8 16.4c1.8 1.1 4.6 1.5 6.3.9 4.8-1.9 3.5-3-3.3-3-4.5.1-5.3.6-3 2.1z" class="F"/></g><g class="G"><use xlink:href="#S" y="29.6"/><use xlink:href="#T" y="29.6"/></g><use xlink:href="#U" y="29.6" class="D"/><g class="E"><use xlink:href="#P" x="-95.7"/><path d="M56 218.5c3.7 6 3.8 7.4.8 13.1-1.8 3.5-6.1 7.9-9.5 9.6-5.4 2.9-7.1 2.9-12.5.1-3.4-1.8-7.7-6.2-9.6-9.7-2.9-5.7-2.9-7.1.7-12.9 3.4-5.6 5.3-6.5 15-6.7 9.9-.2 11.5.5 15.1 6.5zm-30.4 5.3c-3.3 1.8.5 4.6 8.1 5.8 9.1 1.5 23.3-1 23.1-4.1-.2-4.5-24-5.8-31.2-1.7zm11.8 16.4c1.8 1.1 4.6 1.5 6.3.9 4.8-1.9 3.5-3-3.3-3-4.5.1-5.3.6-3 2.1z" class="F"/></g><g class="G"><use xlink:href="#S" y="59.2"/><use xlink:href="#T" y="59.2"/></g><defs ><path id="B" d="M33 129.1c-9.6-9.5-11.4-14.5-7.7-21.7 1.8-3.4 6.1-7.7 9.5-9.5 5.4-2.8 7.1-2.8 12.5 0 8.4 4.4 13.4 14.4 10.3 20.3-2.8 5.3-15 17.1-17.3 16.8-.9-.1-4.1-2.8-7.3-5.9z"/><path id="C" d="M36.8 131.8c-.8-1.9-.3-3.4.9-3.4s2.3 1.3 2.4 2.8c.1 2.3.4 2.3 1.3 0 .6-1.5 2-2.8 3.1-2.8 1.2 0 1.5 1.5.8 3.4-.8 1.9-2.7 3.4-4.3 3.4s-3.5-1.5-4.2-3.4z"/><path id="D" d="M28.3 106c2.1-3.9 4.7-4.9 12.7-4.9s10.7 1 12.7 4.9c2.4 4.5 2.2 4.7-2.7 3.1-3-.9-7.5-1.7-10-1.7s-7 .8-9.9 1.7c-5 1.6-5.2 1.4-2.8-3.1z"/><path id="E" d="M28.3 121.2c-2.4-4.5-2.2-4.7 2.8-3.1 2.9.9 7.4 1.7 9.9 1.7s7-.8 10-1.7c4.9-1.6 5.1-1.4 2.7 3.1-2 3.9-4.7 4.9-12.7 4.9s-10.6-1-12.7-4.9z"/><path id="F" d="M33 69.9c-9.6-9.5-11.4-14.5-7.7-21.7 1.8-3.4 6.1-7.7 9.5-9.5 5.4-2.8 7.1-2.8 12.5.1 8.4 4.4 13.4 14.3 10.3 20.2-2.8 5.3-15 17.1-17.3 16.8-.9-.1-4.1-2.8-7.3-5.9z"/><path id="G" d="M84.6 118.2c-.7-1.9-.3-3.5.9-3.5s2.3 1.3 2.4 2.9c.1 2.3.4 2.3 1.3 0 .7-1.6 2.1-2.9 3.2-2.9s1.4 1.6.7 3.5c-.7 1.8-2.6 3.4-4.2 3.4-1.7 0-3.6-1.6-4.3-3.4z"/><path id="H" d="M76.2 92.3c2-3.9 4.7-4.9 12.7-4.9s10.6 1 12.7 4.9c2.4 4.5 2.2 4.8-2.8 3.2-3-1-7.4-1.8-9.9-1.8s-7 .8-10 1.8c-4.9 1.6-5.2 1.3-2.7-3.2z"/><path id="I" d="M132.5 131.8c-.8-1.9-.4-3.4.9-3.4 1.2 0 2.3 1.3 2.3 2.8.2 2.3.5 2.3 1.4 0 .6-1.5 2-2.8 3.1-2.8 1.2 0 1.5 1.5.8 3.4-.8 1.9-2.7 3.4-4.3 3.4s-3.5-1.5-4.2-3.4z"/><path id="J" d="M124 106c2.1-3.9 4.7-4.9 12.7-4.9s10.6 1 12.7 4.9c2.4 4.5 2.2 4.7-2.7 3.1-3-.9-7.5-1.7-10-1.7s-7 .8-9.9 1.7c-5 1.6-5.2 1.4-2.8-3.1z"/><path id="K" d="M124 121.2c-2.4-4.5-2.2-4.7 2.8-3.1 2.9.9 7.4 1.7 9.9 1.7s7-.8 10-1.7c4.9-1.6 5.1-1.4 2.7 3.1-2.1 3.9-4.7 4.9-12.7 4.9s-10.6-1-12.7-4.9z"/><path id="L" d="M141 148.2c.7 1.9.3 3.4-.9 3.4-1.3 0-2.3-1.3-2.4-2.8-.2-2.3-.4-2.3-1.4 0-.6 1.5-2 2.8-3.1 2.8s-1.5-1.5-.7-3.4c.7-1.9 2.6-3.4 4.2-3.4s3.5 1.5 4.3 3.4z"/><path id="M" d="M149.4 174c-2.1 3.9-4.7 4.9-12.7 4.9s-10.6-1-12.7-4.9c-2.4-4.5-2.2-4.7 2.8-3.1 2.9.9 7.4 1.7 9.9 1.7s7-.8 10-1.7c4.9-1.6 5.1-1.4 2.7 3.1z"/><path id="N" d="M149.4 158.8c2.4 4.5 2.2 4.7-2.7 3.1-3-.9-7.5-1.7-10-1.7s-7 .8-9.9 1.7c-5 1.6-5.2 1.4-2.8-3.1 2.1-3.9 4.7-4.9 12.7-4.9s10.6 1 12.7 4.9z"/><path id="O" d="M144.7 180.5c9.6 9.5 11.4 14.5 7.7 21.7-1.8 3.4-6.1 7.7-9.5 9.5-5.4 2.8-7.1 2.8-12.5-.1-8.4-4.4-13.4-14.3-10.3-20.2 2.8-5.3 15.1-17.1 17.3-16.8.9.1 4.2 2.8 7.3 5.9z"/><path id="P" d="M141 207.4c.7 1.9.3 3.4-.9 3.4-1.3 0-2.3-1.3-2.4-2.9-.2-2.2-.4-2.2-1.4 0-.6 1.6-2 2.9-3.1 2.9s-1.5-1.5-.7-3.4c.7-1.9 2.6-3.4 4.2-3.4s3.5 1.5 4.3 3.4z"/><path id="Q" d="M93.1 161.8c.7 1.9.3 3.5-.9 3.5s-2.3-1.3-2.4-2.9c-.1-2.3-.4-2.3-1.3 0-.6 1.6-2.1 2.9-3.2 2.9s-1.4-1.6-.7-3.5c.7-1.8 2.6-3.4 4.3-3.4 1.6 0 3.5 1.6 4.2 3.4z"/><path id="R" d="M101.6 187.7c-2.1 3.9-4.7 4.9-12.7 4.9s-10.7-1-12.7-4.9c-2.5-4.5-2.2-4.8 2.7-3.2 3 1 7.5 1.8 10 1.8s6.9-.8 9.9-1.8c5-1.6 5.2-1.3 2.8 3.2z"/><path id="S" d="M53.7 174c-2 3.9-4.7 4.9-12.7 4.9s-10.6-1-12.7-4.9c-2.4-4.5-2.2-4.7 2.8-3.1 2.9.9 7.4 1.7 9.9 1.7s7-.8 10-1.7c4.9-1.6 5.1-1.4 2.7 3.1z"/><path id="T" d="M53.7 158.8c2.4 4.5 2.2 4.7-2.7 3.1-3-.9-7.5-1.7-10-1.7s-7 .8-9.9 1.7c-5 1.6-5.2 1.4-2.8-3.1 2.1-3.9 4.7-4.9 12.7-4.9s10.7 1 12.7 4.9z"/><path id="U" d="M49 180.5c9.6 9.5 11.4 14.5 7.7 21.7-1.8 3.4-6 7.7-9.5 9.5-5.4 2.8-7.1 2.8-12.5-.1-8.4-4.4-13.4-14.3-10.3-20.2 2.9-5.3 15.1-17.1 17.3-16.8.9.1 4.2 2.8 7.3 5.9z"/></defs></svg>