<svg xmlns="http://www.w3.org/2000/svg" xmlns:xlink="http://www.w3.org/1999/xlink" width="180" height="280" xmlns:v="https://vecta.io/nano"><style><![CDATA[.F{fill:#009800}.G{fill-rule:evenodd}.H{fill:#9b0000}.I{stroke:#000}.J{stroke-width:.4}]]></style><g class="I J"><path d="M86.2 87.1c-.6 3.8-1.4 4-6.5 1.4-3.1-1.6-11.3-3-18.3-3H48.9v2.3h11.8c15.5 0 23.2 3.1 24.9 9.9 2 6.6-1.3 10.4 4.2 10.4 3.2 0 3.5-.2 3.6-3 0-12.6 4.3-15.9 22-16.9l15.7-.8v-1.9h-12.5c-7 0-15.5 1.5-18.9 3.3-6.2 3.2-6.3 3.2-6.3-4.1.3-4.8.3-10-3.6-10-5.4 0-2.9 8.2-3.6 12.4z" class="H"/><path d="M48.9 85.5v1.9l15.7.8c12.2.7 16.4 1.9 19.1 5.3 2 2.7 3 3.2 2.4 1.1-1.7-5.5-11.2-9.1-24.7-9.1zm69.7 0c-13.5 0-23 3.6-24.7 9.1-.6 2.1.4 1.6 2.5-1.1 2.6-3.4 6.8-4.6 19.1-5.3l15.6-.8v-1.9z" class="F"/></g><path d="M120.6 85.3c2.5-.9 2.5-2.7 2.3-6.9-.2-5.3.8-7.5 3.9-8.1 7-1.4 14.7 1.6 23.2 9l8.1 7.2-6.1 6.3c-7.2 7.6-16.8 11.9-24.1 10.9-4.4-.7-5.3-2.1-5-8.2.2-4.5.3-6.2-2.3-7z" class="F"/><path d="M156.7 86.9l-4.5 5.4c-11.7 13.7-31 15.2-30.4 4.8 0-1.5.5-3.2 1.5-5.2 2.1-4.3 2.2-4 1.1 2.4-1.2 6.9-.8 7.4 4.8 7.4 7 0 13.7-3 21.8-9.9zm-1-.2l-16.1.4c-4.9.1 2.6 8.4 2.6 8.4s-6-5.5-4.9-7.9c-.3-1-2.9-.2-4.4-.4-2.5-.3-3.2-.2-2.2 2s1 5.4 1.5 8.1c-.7-2.8-.6-5.7-2.3-8.5-.3-1-.9-1.8-2.7-1.7l-3.9.6c-1-.3-2.5-.3-2-.9.4-.7 6.6 1.7 9.4-2.9l4.8-9c-1.4 3-1.8 6.3-4.1 9.1s-1 2.6 1.8 2.5c2.7 0 1.8.2 2.9-.2 2.6.1 6.4-5.7 7.6-7.9-1.2 2.3-1.1 4.1-2.4 5-3 2.1-2.3 2.5 1.3 2.8 3.6.4 13.1.5 13.1.5zm-12-8.3q.2-.3.5-.7s-.2.3-.5.7z" class="G"/><path d="M61.6 85.3c-2.4-.9-2.4-2.7-2.2-6.9.2-5.3-.8-7.5-3.9-8.1-7-1.4-14.7 1.6-23.2 9l-8.1 7.2 6 6.3c7.3 7.6 16.9 11.9 24.2 10.9 4.4-.7 5.2-2.1 5-8.2-.2-4.5-.3-6.2 2.2-7z" class="F"/><path d="M31.3 91.8c8.1 6.9 14.7 9.9 21.7 9.9 5.7 0 6.1-.5 4.9-7.4-1.1-6.4-1-6.7 1.1-2.4 1 2 1.4 3.7 1.5 5.2.5 10.4-18.8 8.9-30.4-4.8l-4.5-5.4zm8.4-5.4c3.5-.4 4.3-.8 1.2-2.9-1.2-.9-1.2-2.7-2.4-4.9 1.3 2.1 5.1 7.9 7.7 7.8 1.1.4.2.2 2.9.2 2.8.1 4.1.4 1.8-2.5-2.3-2.8-2.7-6-4.1-9.1l4.8 9c2.7 4.6 9 2.3 9.4 2.9.5.7-1.1.6-2 .9l-4-.6c-1.8-.1-2.4.7-2.6 1.7-1.7 2.9-1.6 5.7-2.3 8.6.5-2.8.5-6 1.5-8.2.9-2.2.3-2.3-2.2-2-1.6.2-4.1-.6-4.4.4 1.1 2.5-4.9 8-4.9 8s7.5-8.4 2.6-8.5l-16.1-.4s9.5-.1 13.1-.4zm-1.6-8.6q.2.4.4.8c-.2-.5-.4-.8-.4-.8z" class="G"/><g class="I J"><path d="M86.2 68.9c-.6 3.8-1.4 4-6.5 1.4-3.1-1.6-11.3-3-18.3-3H48.9v2.3h11.8c15.5 0 23.2 3.1 24.9 9.9 2 6.6-1.3 10.4 4.2 10.4 3.2 0 3.5-.2 3.6-3 0-12.6 4.3-15.9 22-16.9l15.7-.9v-1.8h-12.5c-7 0-15.5 1.5-18.9 3.3-6.2 3.2-6.3 3.2-6.3-4.2.3-4.7.3-9.9-3.6-9.9-5.4 0-2.9 8.2-3.6 12.4z" class="H"/><path d="M48.9 67.3v1.8l15.7.9c12.2.7 16.4 1.9 19.1 5.3 2 2.7 3 3.2 2.4 1.1-1.7-5.5-11.2-9.1-24.7-9.1zm69.7 0c-13.5 0-23 3.6-24.7 9.1-.6 2.1.4 1.6 2.5-1.1 2.6-3.4 6.8-4.6 19.1-5.3l15.6-.9v-1.8z" class="F"/></g><use xlink:href="#B" class="F"/><path d="M156.7 68.7l-4.5 5.4c-11.7 13.7-31 15.2-30.4 4.8 0-1.5.5-3.2 1.5-5.2 2.1-4.3 2.2-4 1.1 2.4-1.2 6.9-.8 7.4 4.8 7.4 7 0 13.7-3 21.8-9.9zm-1-.3l-16.1.5c-4.9.1 2.6 8.4 2.6 8.4s-6-5.5-4.9-7.9c-.3-1-2.9-.2-4.4-.4-2.5-.3-3.2-.2-2.2 2s1 5.4 1.5 8.1c-.7-2.8-.6-5.7-2.3-8.5-.3-1-.9-1.9-2.7-1.7l-3.9.5c-1-.2-2.5-.2-2-.8.4-.7 6.6 1.7 9.4-2.9l4.8-9c-1.4 3-1.8 6.3-4.1 9.1s-1 2.6 1.8 2.5c2.7-.1 1.8.2 2.9-.2 2.6.1 6.4-5.7 7.6-7.9-1.2 2.3-1.1 4.1-2.4 5-3 2.1-2.3 2.5 1.3 2.8 3.6.4 13.1.4 13.1.4zm-12-8.2q.2-.3.5-.7s-.2.3-.5.7z" class="G"/><path d="M61.6 67c-2.4-.9-2.4-2.6-2.2-6.8.2-5.3-.8-7.5-3.9-8.1-7-1.4-14.7 1.6-23.2 9l-8.1 7.1 6 6.4c7.3 7.6 16.9 11.9 24.2 10.9 4.4-.7 5.2-2.1 5-8.2-.2-4.5-.3-6.3 2.2-7.1z" class="F"/><path d="M31.3 73.6c8.1 6.9 14.7 9.9 21.7 9.9 5.7 0 6.1-.5 4.9-7.4-1.1-6.4-1-6.7 1.1-2.4 1 2 1.4 3.7 1.5 5.2.5 10.4-18.8 8.9-30.4-4.8l-4.5-5.4zm8.4-5.5c3.5-.3 4.3-.7 1.2-2.8-1.2-.9-1.2-2.7-2.4-4.9 1.3 2.1 5.1 7.9 7.7 7.8 1.1.4.2.2 2.9.2 2.8.1 4.1.4 1.8-2.5-2.3-2.8-2.7-6.1-4.1-9.1l4.8 9c2.7 4.6 9 2.3 9.4 2.9.5.7-1.1.6-2 .9l-4-.6c-1.8-.1-2.4.7-2.6 1.7-1.7 2.9-1.6 5.7-2.3 8.5.5-2.7.5-5.9 1.5-8.1.9-2.2.3-2.3-2.2-2-1.6.2-4.1-.6-4.4.4 1.1 2.4-4.9 8-4.9 8s7.5-8.4 2.6-8.5l-16.1-.4s9.5-.1 13.1-.5zm-1.6-8.5q.2.4.4.8c-.2-.5-.4-.8-.4-.8z" class="G"/><g class="I J"><path d="M86.2 50.6c-.6 3.9-1.4 4.1-6.5 1.5-3.1-1.6-11.3-3-18.3-3H48.9v2.3h11.8c15.5 0 23.2 3.1 24.9 9.9 2 6.5-1.3 10.4 4.2 10.4 3.2 0 3.5-.2 3.6-3 0-12.6 4.3-15.9 22-16.9l15.7-.9v-1.8h-12.5c-7 0-15.5 1.5-18.9 3.3-6.2 3.2-6.3 3.2-6.3-4.2.3-4.7.3-9.9-3.6-9.9-5.4 0-2.9 8.1-3.6 12.3z" class="H"/><path d="M48.9 49.1v1.8l15.7.9c12.2.7 16.4 1.8 19.1 5.3 2 2.7 3 3.1 2.4 1.1-1.7-5.5-11.2-9.1-24.7-9.1zm69.7 0c-13.5 0-23 3.6-24.7 9.1-.6 2 .4 1.6 2.5-1.1 2.6-3.5 6.8-4.6 19.1-5.3l15.6-.9v-1.8z" class="F"/></g><use xlink:href="#B" y="-18.2" class="F"/><path d="M156.7 50.5l-4.5 5.3c-11.7 13.8-31 15.3-30.4 4.9 0-1.5.5-3.2 1.5-5.2 2.1-4.4 2.2-4 1.1 2.4-1.2 6.8-.8 7.4 4.8 7.4 7 0 13.7-3 21.8-10zm-1-.2l-16.1.5c-4.9.1 2.6 8.4 2.6 8.4s-6-5.5-4.9-7.9c-.3-1.1-2.9-.2-4.4-.4-2.5-.3-3.2-.2-2.2 2s1 5.4 1.5 8.1c-.7-2.8-.6-5.7-2.3-8.5-.3-1-.9-1.9-2.7-1.7l-3.9.5c-1-.2-2.5-.2-2-.8.4-.7 6.6 1.7 9.4-2.9l4.8-9c-1.4 3-1.8 6.3-4.1 9.1s-1 2.6 1.8 2.5c2.7-.1 1.8.2 2.9-.2 2.6.1 6.4-5.8 7.6-7.9-1.2 2.3-1.1 4.1-2.4 5-3 2.1-2.3 2.5 1.3 2.8s13.1.4 13.1.4zm-12-8.2q.2-.3.5-.7s-.2.3-.5.7z" class="G"/><path d="M61.6 48.8c-2.4-.9-2.4-2.6-2.2-6.8.2-5.3-.8-7.5-3.9-8.1-7-1.4-14.7 1.6-23.2 9L24.2 50l6 6.4c7.3 7.6 16.9 11.9 24.2 10.9 4.4-.7 5.2-2.1 5-8.2-.2-4.5-.3-6.3 2.2-7.1z" class="F"/><path d="M31.3 55.3c8.1 7 14.7 10 21.7 10 5.7 0 6.1-.6 4.9-7.4-1.1-6.4-1-6.8 1.1-2.4 1 2 1.4 3.7 1.5 5.2.5 10.4-18.8 8.9-30.4-4.9l-4.5-5.3zm8.4-5.5c3.5-.3 4.3-.7 1.2-2.8-1.2-.9-1.2-2.7-2.4-5 1.3 2.2 5.1 8 7.7 7.9 1.1.4.2.2 2.9.2 2.8.1 4.1.3 1.8-2.5s-2.7-6.1-4.1-9.1l4.8 9c2.7 4.6 9 2.2 9.4 2.9.5.7-1.1.6-2 .9l-4-.6c-1.8-.1-2.4.7-2.6 1.7-1.7 2.8-1.6 5.7-2.3 8.5.5-2.7.5-5.9 1.5-8.1.9-2.2.3-2.3-2.2-2-1.6.2-4.1-.6-4.4.4 1.1 2.4-4.9 7.9-4.9 7.9s7.5-8.3 2.6-8.4l-16.1-.4s9.5-.1 13.1-.5zm-1.6-8.5q.2.4.4.7c-.2-.4-.4-.7-.4-.7z" class="G"/><path d="M88.9 40.8l-4.7-4.3c-3.4-3-9.3-4.5-20.3-5.1l-14.8-.9v2.7h11.6c15.5 0 23.2 3.1 24.9 10 1.5 9-1.1 10.7 4.1 10.7 4.3 0 3.7-.3 3.7-3.3 0-12.6 4.3-15.9 22-16.9l15.2-.9v-2.3l-14.5.9c-11 .6-16.9 2.1-20.3 5.1l-4.7 4.3c-.6.6-1.3.9-2.2 0z" class="H"/><g class="F"><path d="M49.1 31v1.8l15.5.9c12.2.6 16.4 1.8 19.1 5.3 2 2.7 3 3.1 2.4 1.1-1.7-5.6-11.2-9.1-24.9-9.1zm69.7 0c-13.8 0-23.3 3.5-25 9.1-.6 2 .4 1.6 2.5-1.1 2.6-3.5 6.8-4.7 19.1-5.3l15.1-.9V31z"/><path d="M120.6 30.6c2.5-.9 2.5-2.6 2.3-6.8-.2-5.3.8-7.5 3.9-8.1 7-1.5 14.7 1.6 23.2 9l8.1 7.1-6.1 6.4c-7.2 7.5-16.8 11.9-24.1 10.8-4.4-.6-5.3-2-5-8.1.2-4.5.3-6.3-2.3-7.1z"/></g><path d="M156.7 32.3l-4.5 5.3c-11.7 13.8-31 15.3-30.4 4.9 0-1.5.5-3.3 1.5-5.2 2.1-4.4 2.2-4 1.1 2.4-1.2 6.8-.8 7.4 4.8 7.4 7 0 13.7-3 21.8-10zm-1-.2l-16.1.4c-4.9.2 2.6 8.5 2.6 8.5s-6-5.5-4.9-8c-.3-1-2.9-.1-4.4-.3-2.5-.3-3.2-.2-2.2 2s1 5.4 1.5 8.1c-.7-2.9-.6-5.7-2.3-8.5-.3-1-.9-1.9-2.7-1.8l-3.9.6c-1-.3-2.5-.2-2-.8.4-.7 6.6 1.7 9.4-3l4.8-8.9c-1.4 3-1.8 6.3-4.1 9.1s-1 2.5 1.8 2.5c2.7-.1 1.8.2 2.9-.2 2.6.1 6.4-5.8 7.6-7.9-1.2 2.3-1.1 4-2.4 4.9-3 2.2-2.3 2.6 1.3 2.9s13.1.4 13.1.4zm-12-8.2q.2-.4.5-.7s-.2.2-.5.7z" class="G"/><path d="M61.6 30.6c-2.4-.9-2.4-2.6-2.2-6.8.2-5.3-.8-7.5-3.9-8.1-7-1.5-14.7 1.6-23.2 9l-8.1 7.1 6 6.4c7.3 7.5 16.9 11.9 24.2 10.8 4.4-.6 5.2-2 5-8.1-.2-4.5-.3-6.3 2.2-7.1z" class="F"/><path d="M31.3 37.1c8.1 7 14.7 10 21.7 10 5.7 0 6.1-.6 4.9-7.4-1.1-6.4-1-6.8 1.1-2.4 1 1.9 1.4 3.7 1.5 5.2.5 10.4-18.8 8.9-30.4-4.9l-4.5-5.3zm8.4-5.5c3.5-.3 4.3-.7 1.2-2.8-1.2-.9-1.2-2.7-2.4-5 1.3 2.2 5.1 8 7.7 7.9 1.1.4.2.1 2.9.2 2.8.1 4.1.3 1.8-2.5s-2.7-6.1-4.1-9.1l4.8 9c2.7 4.6 9 2.2 9.4 2.9.5.6-1.1.6-2 .8l-4-.5c-1.8-.2-2.4.7-2.6 1.7-1.7 2.8-1.6 5.7-2.3 8.5.5-2.7.5-5.9 1.5-8.1.9-2.2.3-2.3-2.2-2-1.6.2-4.1-.6-4.4.4 1.1 2.4-4.9 7.9-4.9 7.9s7.5-8.3 2.6-8.4L26.6 32s9.5 0 13.1-.4zm-1.6-8.5q.2.4.4.7c-.2-.4-.4-.7-.4-.7z" class="G"/><g class="I J"><path d="M93.8 192.9c.6-3.8 1.4-4 6.5-1.4 3.1 1.6 11.3 3 18.3 3h12.5v-2.3h-11.8c-15.5 0-23.2-3.1-24.9-9.9-2-6.6 1.3-10.4-4.2-10.4-3.2 0-3.5.2-3.6 3 0 12.6-4.3 15.9-22 16.9l-15.7.8v1.9h12.5c7 0 15.5-1.5 18.9-3.3 6.2-3.2 6.3-3.2 6.3 4.1-.3 4.8-.3 10 3.6 10 5.4 0 2.9-8.2 3.6-12.4z" class="H"/><path d="M131.1 194.5v-1.9l-15.7-.8c-12.2-.7-16.4-1.9-19.1-5.3-2-2.7-3-3.2-2.4-1.1 1.7 5.5 11.2 9.1 24.7 9.1zm-69.7 0c13.5 0 23-3.6 24.7-9.1.6-2.1-.4-1.6-2.5 1.1-2.6 3.4-6.8 4.6-19.1 5.3l-15.6.8v1.9z" class="F"/></g><path d="M59.4 194.7c-2.5.9-2.5 2.7-2.3 6.9.2 5.3-.8 7.5-3.9 8.1-7 1.4-14.7-1.6-23.2-9l-8.1-7.2 6.1-6.3c7.2-7.6 16.8-11.9 24.1-10.9 4.4.7 5.3 2.1 5 8.2-.2 4.5-.3 6.2 2.3 7z" class="F"/><path d="M23.3 193.1l4.5-5.4c11.7-13.7 31-15.2 30.4-4.8 0 1.5-.5 3.2-1.5 5.2-2.1 4.3-2.2 4-1.1-2.4 1.2-6.9.8-7.4-4.8-7.4-7 0-13.7 3-21.8 9.9zm1 .2l16.1-.4c4.9-.1-2.6-8.4-2.6-8.4s6 5.5 4.9 7.9c.3 1 2.9.2 4.4.4 2.5.3 3.2.2 2.2-2s-1-5.4-1.5-8.1c.7 2.8.6 5.7 2.3 8.5.3 1 .9 1.8 2.7 1.7l3.9-.6c1 .3 2.5.3 2 .9-.4.7-6.6-1.7-9.4 2.9l-4.8 9c1.4-3 1.8-6.3 4.1-9.1s1-2.6-1.8-2.5c-2.7 0-1.8-.2-2.9.2-2.6-.1-6.4 5.7-7.6 7.9 1.2-2.3 1.1-4.1 2.4-5 3-2.1 2.3-2.5-1.3-2.8-3.6-.4-13.1-.5-13.1-.5zm12 8.3q-.2.3-.5.7s.2-.3.5-.7z" class="G"/><path d="M118.4 194.7c2.4.9 2.4 2.7 2.2 6.9-.2 5.3.8 7.5 3.9 8.1 7 1.4 14.7-1.6 23.2-9l8.1-7.2-6-6.3c-7.3-7.6-16.9-11.9-24.2-10.9-4.4.7-5.2 2.1-5 8.2.2 4.5.3 6.2-2.2 7z" class="F"/><path d="M148.7 188.2c-8.1-6.9-14.7-9.9-21.7-9.9-5.7 0-6.1.5-4.9 7.4 1.1 6.4 1 6.7-1.1 2.4-1-2-1.4-3.7-1.5-5.2-.5-10.4 18.8-8.9 30.4 4.8l4.5 5.4zm-8.4 5.4c-3.5.4-4.3.8-1.2 2.9 1.2.9 1.2 2.7 2.4 4.9-1.3-2.1-5.1-7.9-7.7-7.8-1.1-.4-.2-.2-2.9-.2-2.8-.1-4.1-.4-1.8 2.5 2.3 2.8 2.7 6 4.1 9.1l-4.8-9c-2.7-4.6-9-2.3-9.4-2.9-.5-.7 1.1-.6 2-.9l4 .6c1.8.1 2.4-.7 2.6-1.7 1.7-2.9 1.6-5.7 2.3-8.6-.5 2.8-.5 6-1.5 8.2-.9 2.2-.3 2.3 2.2 2 1.6-.2 4.1.6 4.4-.4-1.1-2.5 4.9-8 4.9-8s-7.5 8.4-2.6 8.5l16.1.4s-9.5.1-13.1.4zm1.6 8.6q-.2-.4-.4-.8c.2.5.4.8.4.8z" class="G"/><g class="I J"><path d="M93.8 211.1c.6-3.8 1.4-4 6.5-1.4 3.1 1.6 11.3 3 18.3 3h12.5v-2.3h-11.8c-15.5 0-23.2-3.1-24.9-9.9-2-6.6 1.3-10.4-4.2-10.4-3.2 0-3.5.2-3.6 3 0 12.6-4.3 15.9-22 16.9l-15.7.9v1.8h12.5c7 0 15.5-1.5 18.9-3.3 6.2-3.2 6.3-3.2 6.3 4.2-.3 4.7-.3 9.9 3.6 9.9 5.4 0 2.9-8.2 3.6-12.4z" class="H"/><path d="M131.1 212.7v-1.8l-15.7-.9c-12.2-.7-16.4-1.9-19.1-5.3-2-2.7-3-3.2-2.4-1.1 1.7 5.5 11.2 9.1 24.7 9.1zm-69.7 0c13.5 0 23-3.6 24.7-9.1.6-2.1-.4-1.6-2.5 1.1-2.6 3.4-6.8 4.6-19.1 5.3l-15.6.9v1.8z" class="F"/></g><path d="M59.4 213c-2.5.9-2.5 2.6-2.3 6.8.2 5.3-.8 7.5-3.9 8.1-7 1.4-14.7-1.6-23.2-9l-8.1-7.2 6.1-6.3c7.2-7.6 16.8-11.9 24.1-10.9 4.4.7 5.3 2.1 5 8.2-.2 4.5-.3 6.3 2.3 7.1z" class="F"/><path d="M23.3 211.3l4.5-5.4c11.7-13.7 31-15.2 30.4-4.8 0 1.5-.5 3.2-1.5 5.2-2.1 4.3-2.2 4-1.1-2.4 1.2-6.9.8-7.4-4.8-7.4-7 0-13.7 3-21.8 9.9zm1 .3l16.1-.5c4.9-.1-2.6-8.4-2.6-8.4s6 5.5 4.9 7.9c.3 1 2.9.2 4.4.4 2.5.3 3.2.2 2.2-2s-1-5.4-1.5-8.1c.7 2.8.6 5.7 2.3 8.5.3 1 .9 1.9 2.7 1.7l3.9-.5c1 .2 2.5.2 2 .8-.4.7-6.6-1.7-9.4 2.9l-4.8 9c1.4-3 1.8-6.3 4.1-9.1s1-2.6-1.8-2.5c-2.7.1-1.8-.2-2.9.2-2.6-.1-6.4 5.7-7.6 7.9 1.2-2.3 1.1-4.1 2.4-5 3-2.1 2.3-2.5-1.3-2.8-3.6-.4-13.1-.4-13.1-.4zm12 8.2q-.2.3-.5.7s.2-.3.5-.7z" class="G"/><path d="M118.4 213c2.4.9 2.4 2.6 2.2 6.8-.2 5.3.8 7.5 3.9 8.1 7 1.4 14.7-1.6 23.2-9l8.1-7.2-6-6.3c-7.3-7.6-16.9-11.9-24.2-10.9-4.4.7-5.2 2.1-5 8.2.2 4.5.3 6.3-2.2 7.1z" class="F"/><path d="M148.7 206.4c-8.1-6.9-14.7-9.9-21.7-9.9-5.7 0-6.1.5-4.9 7.4 1.1 6.4 1 6.7-1.1 2.4-1-2-1.4-3.7-1.5-5.2-.5-10.4 18.8-8.9 30.4 4.8l4.5 5.4zm-8.4 5.5c-3.5.3-4.3.7-1.2 2.8 1.2.9 1.2 2.7 2.4 4.9-1.3-2.1-5.1-7.9-7.7-7.8-1.1-.4-.2-.2-2.9-.2-2.8-.1-4.1-.4-1.8 2.5 2.3 2.8 2.7 6.1 4.1 9.1l-4.8-9c-2.7-4.6-9-2.3-9.4-2.9-.5-.7 1.1-.6 2-.9l4 .6c1.8.1 2.4-.7 2.6-1.7 1.7-2.9 1.6-5.7 2.3-8.5-.5 2.7-.5 5.9-1.5 8.1-.9 2.2-.3 2.3 2.2 2 1.6-.2 4.1.6 4.4-.4-1.1-2.4 4.9-8 4.9-8s-7.5 8.4-2.6 8.5l16.1.4s-9.5.1-13.1.5zm1.6 8.5q-.2-.4-.4-.8c.2.5.4.8.4.8z" class="G"/><g class="I J"><path d="M93.8 229.4c.6-3.9 1.4-4.1 6.5-1.5 3.1 1.6 11.3 3 18.3 3h12.5v-2.3h-11.8c-15.5 0-23.2-3.1-24.9-9.9-2-6.5 1.3-10.4-4.2-10.4-3.2 0-3.5.2-3.6 3 0 12.6-4.3 15.9-22 16.9l-15.7.9v1.8h12.5c7 0 15.5-1.5 18.9-3.3 6.2-3.2 6.3-3.2 6.3 4.2-.3 4.7-.3 9.9 3.6 9.9 5.4 0 2.9-8.1 3.6-12.3z" class="H"/><path d="M131.1 230.9v-1.8l-15.7-.9c-12.2-.7-16.4-1.8-19.1-5.3-2-2.7-3-3.1-2.4-1.1 1.7 5.5 11.2 9.1 24.7 9.1zm-69.7 0c13.5 0 23-3.6 24.7-9.1.6-2-.4-1.6-2.5 1.1-2.6 3.5-6.8 4.6-19.1 5.3l-15.6.9v1.8z" class="F"/></g><path d="M59.4 231.2c-2.5.9-2.5 2.6-2.3 6.8.2 5.3-.8 7.5-3.9 8.1-7 1.4-14.7-1.6-23.2-9l-8.1-7.1 6.1-6.4c7.2-7.6 16.8-11.9 24.1-10.9 4.4.7 5.3 2.1 5 8.2-.2 4.5-.3 6.3 2.3 7.1z" class="F"/><path d="M23.3 229.5l4.5-5.3c11.7-13.8 31-15.3 30.4-4.9 0 1.5-.5 3.2-1.5 5.2-2.1 4.4-2.2 4-1.1-2.4 1.2-6.8.8-7.4-4.8-7.4-7 0-13.7 3-21.8 10zm1 .2l16.1-.5c4.9-.1-2.6-8.4-2.6-8.4s6 5.5 4.9 7.9c.3 1.1 2.9.2 4.4.4 2.5.3 3.2.2 2.2-2s-1-5.4-1.5-8.1c.7 2.8.6 5.7 2.3 8.5.3 1 .9 1.9 2.7 1.7l3.9-.5c1 .2 2.5.2 2 .8-.4.7-6.6-1.7-9.4 2.9l-4.8 9c1.4-3 1.8-6.3 4.1-9.1s1-2.6-1.8-2.5c-2.7.1-1.8-.2-2.9.2-2.6-.1-6.4 5.8-7.6 7.9 1.2-2.3 1.1-4.1 2.4-5 3-2.1 2.3-2.5-1.3-2.8s-13.1-.4-13.1-.4zm12 8.2q-.2.3-.5.7s.2-.3.5-.7z" class="G"/><path d="M118.4 231.2c2.4.9 2.4 2.6 2.2 6.8-.2 5.3.8 7.5 3.9 8.1 7 1.4 14.7-1.6 23.2-9l8.1-7.1-6-6.4c-7.3-7.6-16.9-11.9-24.2-10.9-4.4.7-5.2 2.1-5 8.2.2 4.5.3 6.3-2.2 7.1z" class="F"/><path d="M148.7 224.7c-8.1-7-14.7-10-21.7-10-5.7 0-6.1.6-4.9 7.4 1.1 6.4 1 6.8-1.1 2.4-1-2-1.4-3.7-1.5-5.2-.5-10.4 18.8-8.9 30.4 4.9l4.5 5.3zm-8.4 5.5c-3.5.3-4.3.7-1.2 2.8 1.2.9 1.2 2.7 2.4 5-1.3-2.2-5.1-8-7.7-7.9-1.1-.4-.2-.2-2.9-.2-2.8-.1-4.1-.3-1.8 2.5s2.7 6.1 4.1 9.1l-4.8-9c-2.7-4.6-9-2.2-9.4-2.9-.5-.7 1.1-.6 2-.9l4 .6c1.8.1 2.4-.7 2.6-1.7 1.7-2.8 1.6-5.7 2.3-8.5-.5 2.7-.5 5.9-1.5 8.1-.9 2.2-.3 2.3 2.2 2 1.6-.2 4.1.6 4.4-.4-1.1-2.4 4.9-7.9 4.9-7.9s-7.5 8.3-2.6 8.4l16.1.4s-9.5.1-13.1.5zm1.6 8.5q-.2-.4-.4-.7c.2.4.4.7.4.7z" class="G"/><path d="M91.1 239.2l4.7 4.3c3.4 3 9.3 4.5 20.3 5.1l14.8.9v-2.7h-11.6c-15.5 0-23.2-3.1-24.9-10-1.5-9 1.1-10.7-4.1-10.7-4.3 0-3.7.3-3.7 3.3 0 12.6-4.3 15.9-22 16.9l-15.2.9v2.3l14.5-.9c11-.6 16.9-2.1 20.3-5.1l4.7-4.3c.6-.6 1.3-.9 2.2 0z" class="H"/><g class="F"><path d="M130.9 249v-1.8l-15.5-.9c-12.2-.6-16.4-1.8-19.1-5.3-2-2.7-3-3.1-2.4-1.1 1.7 5.6 11.2 9.1 24.9 9.1zm-69.7 0c13.8 0 23.3-3.5 25-9.1.6-2-.4-1.6-2.5 1.1-2.6 3.5-6.8 4.7-19.1 5.3l-15.1.9v1.8z"/><path d="M59.4 249.4c-2.5.9-2.5 2.6-2.3 6.8.2 5.3-.8 7.5-3.9 8.1-7 1.5-14.7-1.6-23.2-9l-8.1-7.1 6.1-6.4c7.2-7.5 16.8-11.9 24.1-10.8 4.4.6 5.3 2 5 8.1-.2 4.5-.3 6.3 2.3 7.1z"/></g><path d="M23.3 247.7l4.5-5.3c11.7-13.8 31-15.3 30.4-4.9 0 1.5-.5 3.3-1.5 5.2-2.1 4.4-2.2 4-1.1-2.4 1.2-6.8.8-7.4-4.8-7.4-7 0-13.7 3-21.8 10zm1 .2l16.1-.4c4.9-.2-2.6-8.5-2.6-8.5s6 5.5 4.9 8c.3 1 2.9.1 4.4.3 2.5.3 3.2.2 2.2-2s-1-5.4-1.5-8.1c.7 2.9.6 5.7 2.3 8.5.3 1 .9 1.9 2.7 1.8l3.9-.6c1 .3 2.5.2 2 .8-.4.7-6.6-1.7-9.4 3l-4.8 8.9c1.4-3 1.8-6.3 4.1-9.1s1-2.5-1.8-2.5c-2.7.1-1.8-.2-2.9.2-2.6-.1-6.4 5.8-7.6 7.9 1.2-2.3 1.1-4 2.4-4.9 3-2.2 2.3-2.6-1.3-2.9s-13.1-.4-13.1-.4zm12 8.2q-.2.4-.5.7s.2-.2.5-.7z" class="G"/><path d="M118.4 249.4c2.4.9 2.4 2.6 2.2 6.8-.2 5.3.8 7.5 3.9 8.1 7 1.5 14.7-1.6 23.2-9l8.1-7.1-6-6.4c-7.3-7.5-16.9-11.9-24.2-10.8-4.4.6-5.2 2-5 8.1.2 4.5.3 6.3-2.2 7.1z" class="F"/><path d="M148.7 242.9c-8.1-7-14.7-10-21.7-10-5.7 0-6.1.6-4.9 7.4 1.1 6.4 1 6.8-1.1 2.4-1-1.9-1.4-3.7-1.5-5.2-.5-10.4 18.8-8.9 30.4 4.9l4.5 5.3zm-8.4 5.5c-3.5.3-4.3.7-1.2 2.8 1.2.9 1.2 2.7 2.4 5-1.3-2.2-5.1-8-7.7-7.9-1.1-.4-.2-.1-2.9-.2-2.8-.1-4.1-.3-1.8 2.5s2.7 6.1 4.1 9.1l-4.8-9c-2.7-4.6-9-2.2-9.4-2.9-.5-.6 1.1-.6 2-.8l4 .5c1.8.2 2.4-.7 2.6-1.7 1.7-2.8 1.6-5.7 2.3-8.5-.5 2.7-.5 5.9-1.5 8.1-.9 2.2-.3 2.3 2.2 2 1.6-.2 4.1.6 4.4-.4-1.1-2.4 4.9-7.9 4.9-7.9s-7.5 8.3-2.6 8.4l16.1.5s-9.5 0-13.1.4zm1.6 8.5q-.2-.4-.4-.7c.2.4.4.7.4.7z" class="G"/><defs ><path id="B" d="M120.6 67c2.5-.9 2.5-2.6 2.3-6.8-.2-5.3.8-7.5 3.9-8.1 7-1.4 14.7 1.6 23.2 9l8.1 7.1-6.1 6.4c-7.2 7.6-16.8 11.9-24.1 10.9-4.4-.7-5.3-2.1-5-8.2.2-4.5.3-6.3-2.3-7.1z"/></defs></svg>