<svg xmlns="http://www.w3.org/2000/svg" xmlns:xlink="http://www.w3.org/1999/xlink" width="180" height="280" xmlns:v="https://vecta.io/nano"><style><![CDATA[.F{fill:#009800}.G{fill-rule:evenodd}.H{fill:#9b0000}.I{stroke:#000}.J{stroke-width:.4}]]></style><g class="I J"><path d="M86.2 105.3c-.6 3.8-1.4 4-6.5 1.4-3.1-1.6-11.3-3-18.3-3H48.9v2.3h11.8c15.5 0 23.2 3.1 24.9 10 2 6.5-1.3 10.3 4.2 10.3 3.2 0 3.5-.2 3.6-2.9 0-12.7 4.3-16 22-17l15.7-.8v-1.9h-12.5c-7 0-15.5 1.5-18.9 3.3-6.2 3.2-6.3 3.2-6.3-4.1.3-4.8.3-10-3.6-10-5.4 0-2.9 8.2-3.6 12.4z" class="H"/><path d="M48.9 103.7v1.9l15.7.8c12.2.7 16.4 1.9 19.1 5.4 2 2.6 3 3.1 2.4 1-1.7-5.5-11.2-9-24.7-9.1zm69.7 0c-13.5.1-23 3.6-24.7 9.1-.6 2.1.4 1.6 2.5-1 2.6-3.5 6.8-4.7 19.1-5.4l15.6-.8v-1.9z" class="F"/></g><use xlink:href="#B" class="F"/><use xlink:href="#C" class="G"/><path d="M61.6 103.5c-2.4-.9-2.4-2.7-2.2-6.9.2-5.3-.8-7.4-3.9-8.1-7-1.4-14.7 1.6-23.2 9.1l-8.1 7.1 6 6.3c7.3 7.6 16.9 11.9 24.2 10.9 4.4-.6 5.2-2 5-8.2-.2-4.4-.3-6.2 2.2-7z" class="F"/><path d="M31.3 110c8.1 6.9 14.7 9.9 21.7 9.9 5.7 0 6.1-.5 4.9-7.4-1.1-6.4-1-6.7 1.1-2.4 1 2 1.4 3.7 1.5 5.2.5 10.4-18.8 8.9-30.4-4.8l-4.5-5.4zm8.4-5.4c3.5-.4 4.3-.7 1.2-2.9-1.2-.9-1.2-2.7-2.4-4.9 1.3 2.1 5.1 8 7.7 7.8 1.1.4.2.2 2.9.2 2.8.1 4.1.4 1.8-2.4-2.3-2.9-2.7-6.1-4.1-9.1l4.8 8.9c2.7 4.6 9 2.3 9.4 2.9.5.7-1.1.6-2 .9l-4-.6c-1.8-.1-2.4.7-2.6 1.7-1.7 2.9-1.6 5.7-2.3 8.6.5-2.8.5-5.9 1.5-8.1.9-2.3.3-2.3-2.2-2-1.6.2-4.1-.7-4.4.3 1.1 2.5-4.9 8-4.9 8s7.5-8.4 2.6-8.5l-16.1-.4s9.5-.1 13.1-.4zM38.1 96q.2.4.4.8c-.2-.5-.4-.8-.4-.8z" class="G"/><g class="I J"><path d="M86.2 87.1c-.6 3.8-1.4 4-6.5 1.4-3.1-1.6-11.3-3-18.3-3H48.9v2.3h11.8c15.5 0 23.2 3.1 24.9 9.9 2 6.6-1.3 10.4 4.2 10.4 3.2 0 3.5-.2 3.6-3 0-12.6 4.3-15.9 22-16.9l15.7-.8v-1.9h-12.5c-7 0-15.5 1.5-18.9 3.3-6.2 3.2-6.3 3.2-6.3-4.1.3-4.8.3-10-3.6-10-5.4 0-2.9 8.2-3.6 12.4z" class="H"/><path d="M48.9 85.5v1.9l15.7.8c12.2.7 16.4 1.9 19.1 5.3 2 2.7 3 3.2 2.4 1.1-1.7-5.5-11.2-9.1-24.7-9.1zm69.7 0c-13.5 0-23 3.6-24.7 9.1-.6 2.1.4 1.6 2.5-1.1 2.6-3.4 6.8-4.6 19.1-5.3l15.6-.8v-1.9z" class="F"/></g><path d="M120.6 85.3c2.5-.9 2.5-2.7 2.3-6.9-.2-5.3.8-7.5 3.9-8.1 7-1.4 14.7 1.6 23.2 9l8.1 7.2-6.1 6.3c-7.2 7.6-16.8 11.9-24.1 10.9-4.4-.7-5.3-2.1-5-8.2.2-4.5.3-6.2-2.3-7z" class="F"/><path d="M156.7 86.9l-4.5 5.4c-11.7 13.7-31 15.2-30.4 4.8 0-1.5.5-3.2 1.5-5.2 2.1-4.3 2.2-4 1.1 2.4-1.2 6.9-.8 7.4 4.8 7.4 7 0 13.7-3 21.8-9.9zm-1-.2l-16.1.4c-4.9.1 2.6 8.4 2.6 8.4s-6-5.5-4.9-7.9c-.3-1-2.9-.2-4.4-.4-2.5-.3-3.2-.2-2.2 2s1 5.4 1.5 8.1c-.7-2.8-.6-5.7-2.3-8.5-.3-1-.9-1.8-2.7-1.7l-3.9.6c-1-.3-2.5-.3-2-.9.4-.7 6.6 1.7 9.4-2.9l4.8-9c-1.4 3-1.8 6.3-4.1 9.1s-1 2.6 1.8 2.5c2.7 0 1.8.2 2.9-.2 2.6.1 6.4-5.7 7.6-7.9-1.2 2.3-1.1 4.1-2.4 5-3 2.1-2.3 2.5 1.3 2.8 3.6.4 13.1.5 13.1.5zm-12-8.3q.2-.3.5-.7s-.2.3-.5.7z" class="G"/><path d="M61.6 85.3c-2.4-.9-2.4-2.7-2.2-6.9.2-5.3-.8-7.5-3.9-8.1-7-1.4-14.7 1.6-23.2 9l-8.1 7.2 6 6.3c7.3 7.6 16.9 11.9 24.2 10.9 4.4-.7 5.2-2.1 5-8.2-.2-4.5-.3-6.2 2.2-7z" class="F"/><path d="M31.3 91.8c8.1 6.9 14.7 9.9 21.7 9.9 5.7 0 6.1-.5 4.9-7.4-1.1-6.4-1-6.7 1.1-2.4 1 2 1.4 3.7 1.5 5.2.5 10.4-18.8 8.9-30.4-4.8l-4.5-5.4zm8.4-5.4c3.5-.4 4.3-.8 1.2-2.9-1.2-.9-1.2-2.7-2.4-4.9 1.3 2.1 5.1 7.9 7.7 7.8 1.1.4.2.2 2.9.2 2.8.1 4.1.4 1.8-2.5-2.3-2.8-2.7-6-4.1-9.1l4.8 9c2.7 4.6 9 2.3 9.4 2.9.5.7-1.1.6-2 .9l-4-.6c-1.8-.1-2.4.7-2.6 1.7-1.7 2.9-1.6 5.7-2.3 8.6.5-2.8.5-6 1.5-8.2.9-2.2.3-2.3-2.2-2-1.6.2-4.1-.6-4.4.4 1.1 2.5-4.9 8-4.9 8s7.5-8.4 2.6-8.5l-16.1-.4s9.5-.1 13.1-.4zm-1.6-8.6q.2.4.4.8c-.2-.5-.4-.8-.4-.8z" class="G"/><g class="I J"><path d="M86.2 66.6c-.6 3.8-1.4 4-6.5 1.4-3.1-1.6-11.3-3-18.3-3H48.9v2.3h11.8c15.5 0 23.2 3.1 24.9 10 2 6.5-1.3 10.3 4.2 10.3 3.2 0 3.5-.2 3.6-2.9 0-12.7 4.3-16 22-17l15.7-.8V65h-12.5c-7 0-15.5 1.5-18.9 3.3-6.2 3.2-6.3 3.2-6.3-4.1.3-4.8.3-10-3.6-10-5.4 0-2.9 8.2-3.6 12.4z" class="H"/><path d="M48.9 65v1.9l15.7.8c12.2.7 16.4 1.9 19.1 5.4 2 2.6 3 3.1 2.4 1-1.7-5.5-11.2-9-24.7-9.1zm69.7 0c-13.5.1-23 3.6-24.7 9.1-.6 2.1.4 1.6 2.5-1 2.6-3.5 6.8-4.7 19.1-5.4l15.6-.8V65z" class="F"/></g><use xlink:href="#B" y="-38.7" class="F"/><use xlink:href="#C" y="-38.7" class="G"/><path d="M61.6 64.8c-2.4-.9-2.4-2.7-2.2-6.9.2-5.3-.8-7.4-3.9-8.1-7-1.4-14.7 1.6-23.2 9.1L24.2 66l6 6.3c7.3 7.6 16.9 11.9 24.2 10.9 4.4-.6 5.2-2 5-8.2-.2-4.4-.3-6.2 2.2-7z" class="F"/><path d="M31.3 71.3c8.1 6.9 14.7 9.9 21.7 9.9 5.7 0 6.1-.5 4.9-7.4-1.1-6.4-1-6.7 1.1-2.4 1 2 1.4 3.7 1.5 5.2.5 10.4-18.8 8.9-30.4-4.8l-4.5-5.4zm8.4-5.4c3.5-.4 4.3-.7 1.2-2.9-1.2-.9-1.2-2.7-2.4-4.9 1.3 2.1 5.1 8 7.7 7.8 1.1.4.2.2 2.9.2 2.8.1 4.1.4 1.8-2.4-2.3-2.9-2.7-6.1-4.1-9.1l4.8 8.9c2.7 4.6 9 2.3 9.4 2.9.5.7-1.1.6-2 .9l-4-.6c-1.8-.1-2.4.7-2.6 1.7-1.7 2.9-1.6 5.7-2.3 8.6.5-2.8.5-5.9 1.5-8.1.9-2.3.3-2.3-2.2-2-1.6.2-4.1-.7-4.4.3 1.1 2.5-4.9 8-4.9 8s7.5-8.3 2.6-8.5l-16.1-.4s9.5-.1 13.1-.4zm-1.6-8.6q.2.4.4.8c-.2-.5-.4-.8-.4-.8z" class="G"/><path d="M88.9 30.1v11.7 12.6l-4.7-4.2c-3.4-3.1-9.3-4.5-20.3-5.2l-14.8-.8v2.7h11.6c15.5 0 23.2 3.1 24.9 9.9 1.5 8-1.7 10.4 4.1 10.7 4.5.3 3.7-.3 3.7-3.3 0-12.6 4.3-15.9 22-16.9l15.2-.8v-2.3l-14.5.8c-11 .7-16.9 2.1-20.3 5.2l-4.7 4.2V41.8 30.1z" class="H"/><g class="F"><path d="M88.9 30.1v4.1l.4 6.6.4 11.8.8-11.8.6-6.4v-4.3zM49.2 44.6v1.9l15.5.8c12.2.7 16.4 1.9 19 5.4 2.1 2.6 3.1 3.1 2.5 1-1.7-5.5-11.2-9.1-25-9.1zm69.7 0c-13.7 0-23.2 3.6-24.9 9.1-.6 2.1.4 1.6 2.4-1 2.7-3.5 6.9-4.7 19.1-5.4l15.2-.8v-1.9z"/><path d="M120.6 44.3c2.5-.9 2.5-2.6 2.3-6.9-.2-5.3.8-7.4 3.9-8.1 7-1.4 14.7 1.6 23.2 9.1l8.1 7.1-6.1 6.3c-7.2 7.6-16.8 11.9-24.1 10.9-4.4-.6-5.3-2-5-8.2.2-4.4.3-6.2-2.3-7z"/></g><path d="M156.7 46l-4.5 5.3c-11.7 13.7-31 15.2-30.4 4.8 0-1.5.5-3.2 1.5-5.2 2.1-4.3 2.2-4 1.1 2.5-1.2 6.8-.8 7.4 4.8 7.4 7 0 13.7-3.1 21.8-10zm-1-.2l-16.1.4c-4.9.1 2.6 8.5 2.6 8.5s-6-5.5-4.9-8c-.3-1-2.9-.2-4.4-.4-2.5-.3-3.2-.2-2.2 2s1 5.4 1.5 8.1c-.7-2.8-.6-5.6-2.3-8.5-.3-1-.9-1.8-2.7-1.7l-3.9.6c-1-.3-2.5-.2-2-.9.4-.6 6.6 1.7 9.4-2.9l4.8-9c-1.4 3.1-1.8 6.3-4.1 9.1-2.3 2.9-1 2.6 1.8 2.5 2.7 0 1.8.2 2.9-.2 2.6.1 6.4-5.7 7.6-7.8-1.2 2.2-1.1 4-2.4 4.9-3 2.1-2.3 2.5 1.3 2.9 3.6.3 13.1.4 13.1.4zm-12-8.2q.2-.4.5-.8s-.2.3-.5.8z" class="G"/><path d="M61.6 44.3c-2.4-.9-2.4-2.6-2.2-6.9.2-5.3-.8-7.4-3.9-8.1-7-1.4-14.7 1.6-23.2 9.1l-8.1 7.1 6 6.3c7.3 7.6 16.9 11.9 24.2 10.9 4.4-.6 5.2-2 5-8.2-.2-4.4-.3-6.2 2.2-7z" class="F"/><path d="M31.3 50.8c8.1 6.9 14.7 10 21.7 10 5.7 0 6.1-.6 4.9-7.4-1.1-6.5-1-6.8 1.1-2.5 1 2 1.4 3.7 1.5 5.2.5 10.4-18.8 8.9-30.4-4.8L25.6 46zm8.4-5.5c3.5-.4 4.3-.7 1.2-2.9-1.2-.9-1.2-2.6-2.4-4.9 1.3 2.1 5.1 8 7.7 7.8 1.1.5.2.2 2.9.3 2.8 0 4.1.3 1.8-2.5S48.2 37 46.8 34l4.8 8.9c2.7 4.7 9 2.3 9.4 2.9.5.7-1.1.6-2 .9l-4-.6c-1.8-.1-2.4.7-2.6 1.7-1.7 2.9-1.6 5.7-2.3 8.6.5-2.7.5-5.9 1.5-8.1.9-2.2.3-2.3-2.2-2-1.6.2-4.1-.7-4.4.3 1.1 2.5-4.9 8-4.9 8s7.5-8.3 2.6-8.5l-16.1-.4s9.5-.1 13.1-.4zm-1.6-8.6q.2.4.4.8c-.2-.5-.4-.8-.4-.8z" class="G"/><path d="M89 43.4c-.9-2.5-2.6-2.5-6.9-2.3-5.3.2-7.4-.8-8.1-3.8-1.4-7.1 1.6-14.7 9.1-23.2L90.2 6l6.3 6c7.6 7.3 12 16.8 10.9 24.1-.6 4.5-2 5.3-8.2 5-4.4-.2-6.2-.3-7 2.3z" class="F"/><path d="M90.7 7.3l5.3 4.6c13.7 11.6 15.2 30.9 4.8 30.4-1.4-.1-3.2-.6-5.2-1.5-4.3-2.2-4-2.3 2.5-1.2 6.8 1.2 7.4.8 7.4-4.8 0-7-3.1-13.6-10-21.8zm-.2 1.1l.4 16c.1 4.9 8.5-2.6 8.5-2.6s-5.5 6-8 4.9c-1 .4-.2 2.9-.3 4.4-.4 2.6-.3 3.2 1.9 2.2 2.3-1 5.4-1 8.2-1.4-2.9.6-5.7.6-8.6 2.2-1 .3-1.8.9-1.7 2.7l.6 4c-.3.9-.2 2.4-.9 1.9-.6-.4 1.7-6.6-2.9-9.4l-9-4.8c3.1 1.4 6.3 1.8 9.1 4.1 2.9 2.3 2.6 1 2.5-1.7 0-2.8.2-1.9-.2-3 .2-2.5-5.7-6.3-7.8-7.6 2.2 1.2 4 1.1 4.9 2.4 2.1 3 2.5 2.3 2.9-1.3.3-3.6.4-13 .4-13zm-8.2 11.9q-.4-.2-.8-.5a21.98 21.98 0 0 0 .8.5z" class="G"/><g class="I J"><path d="M93.8 174.7c.6-3.8 1.4-4 6.5-1.4 3.1 1.6 11.3 3 18.3 3h12.5V174h-11.8c-15.5 0-23.2-3.1-24.9-10-2-6.5 1.3-10.3-4.2-10.3-3.2 0-3.5.2-3.6 2.9 0 12.7-4.3 16-22 17l-15.7.8v1.9h12.5c7 0 15.5-1.5 18.9-3.3 6.2-3.2 6.3-3.2 6.3 4.1-.3 4.8-.3 10 3.6 10 5.4 0 2.9-8.2 3.6-12.4z" class="H"/><use xlink:href="#D" class="F"/></g><path d="M59.4 176.5c-2.5.9-2.5 2.7-2.3 6.9.2 5.3-.8 7.4-3.9 8.1-7 1.4-14.7-1.6-23.2-9.1l-8.1-7.1L28 169c7.2-7.6 16.8-11.9 24.1-10.9 4.4.6 5.3 2 5 8.2-.2 4.4-.3 6.2 2.3 7z" class="F"/><use xlink:href="#E" class="G"/><use xlink:href="#F" class="F"/><path d="M148.7 170c-8.1-6.9-14.7-9.9-21.7-9.9-5.7 0-6.1.5-4.9 7.4 1.1 6.4 1 6.7-1.1 2.4-1-2-1.4-3.7-1.5-5.2-.5-10.4 18.8-8.9 30.4 4.8l4.5 5.4zm-8.4 5.4c-3.5.4-4.3.7-1.2 2.9 1.2.9 1.2 2.7 2.4 4.9-1.3-2.1-5.1-8-7.7-7.8-1.1-.4-.2-.2-2.9-.2-2.8-.1-4.1-.4-1.8 2.4 2.3 2.9 2.7 6.1 4.1 9.1l-4.8-8.9c-2.7-4.6-9-2.3-9.4-2.9-.5-.7 1.1-.6 2-.9l4 .6c1.8.1 2.4-.7 2.6-1.7 1.7-2.9 1.6-5.7 2.3-8.6-.5 2.8-.5 5.9-1.5 8.1-.9 2.3-.3 2.3 2.2 2 1.6-.2 4.1.7 4.4-.3-1.1-2.5 4.9-8 4.9-8s-7.5 8.4-2.6 8.5l16.1.4s-9.5.1-13.1.4zm1.6 8.6q-.2-.4-.4-.8c.2.5.4.8.4.8z" class="G"/><g class="I J"><path d="M93.8 192.9c.6-3.8 1.4-4 6.5-1.4 3.1 1.6 11.3 3 18.3 3h12.5v-2.3h-11.8c-15.5 0-23.2-3.1-24.9-9.9-2-6.6 1.3-10.4-4.2-10.4-3.2 0-3.5.2-3.6 3 0 12.6-4.3 15.9-22 16.9l-15.7.8v1.9h12.5c7 0 15.5-1.5 18.9-3.3 6.2-3.2 6.3-3.2 6.3 4.1-.3 4.8-.3 10 3.6 10 5.4 0 2.9-8.2 3.6-12.4z" class="H"/><path d="M131.1 194.5v-1.9l-15.7-.8c-12.2-.7-16.4-1.9-19.1-5.3-2-2.7-3-3.2-2.4-1.1 1.7 5.5 11.2 9.1 24.7 9.1zm-69.7 0c13.5 0 23-3.6 24.7-9.1.6-2.1-.4-1.6-2.5 1.1-2.6 3.4-6.8 4.6-19.1 5.3l-15.6.8v1.9z" class="F"/></g><path d="M59.4 194.7c-2.5.9-2.5 2.7-2.3 6.9.2 5.3-.8 7.5-3.9 8.1-7 1.4-14.7-1.6-23.2-9l-8.1-7.2 6.1-6.3c7.2-7.6 16.8-11.9 24.1-10.9 4.4.7 5.3 2.1 5 8.2-.2 4.5-.3 6.2 2.3 7z" class="F"/><path d="M23.3 193.1l4.5-5.4c11.7-13.7 31-15.2 30.4-4.8 0 1.5-.5 3.2-1.5 5.2-2.1 4.3-2.2 4-1.1-2.4 1.2-6.9.8-7.4-4.8-7.4-7 0-13.7 3-21.8 9.9zm1 .2l16.1-.4c4.9-.1-2.6-8.4-2.6-8.4s6 5.5 4.9 7.9c.3 1 2.9.2 4.4.4 2.5.3 3.2.2 2.2-2s-1-5.4-1.5-8.1c.7 2.8.6 5.7 2.3 8.5.3 1 .9 1.8 2.7 1.7l3.9-.6c1 .3 2.5.3 2 .9-.4.7-6.6-1.7-9.4 2.9l-4.8 9c1.4-3 1.8-6.3 4.1-9.1s1-2.6-1.8-2.5c-2.7 0-1.8-.2-2.9.2-2.6-.1-6.4 5.7-7.6 7.9 1.2-2.3 1.1-4.1 2.4-5 3-2.1 2.3-2.5-1.3-2.8-3.6-.4-13.1-.5-13.1-.5zm12 8.3q-.2.3-.5.7s.2-.3.5-.7z" class="G"/><path d="M118.4 194.7c2.4.9 2.4 2.7 2.2 6.9-.2 5.3.8 7.5 3.9 8.1 7 1.4 14.7-1.6 23.2-9l8.1-7.2-6-6.3c-7.3-7.6-16.9-11.9-24.2-10.9-4.4.7-5.2 2.1-5 8.2.2 4.5.3 6.2-2.2 7z" class="F"/><path d="M148.7 188.2c-8.1-6.9-14.7-9.9-21.7-9.9-5.7 0-6.1.5-4.9 7.4 1.1 6.4 1 6.7-1.1 2.4-1-2-1.4-3.7-1.5-5.2-.5-10.4 18.8-8.9 30.4 4.8l4.5 5.4zm-8.4 5.4c-3.5.4-4.3.8-1.2 2.9 1.2.9 1.2 2.7 2.4 4.9-1.3-2.1-5.1-7.9-7.7-7.8-1.1-.4-.2-.2-2.9-.2-2.8-.1-4.1-.4-1.8 2.5 2.3 2.8 2.7 6 4.1 9.1l-4.8-9c-2.7-4.6-9-2.3-9.4-2.9-.5-.7 1.1-.6 2-.9l4 .6c1.8.1 2.4-.7 2.6-1.7 1.7-2.9 1.6-5.7 2.3-8.6-.5 2.8-.5 6-1.5 8.2-.9 2.2-.3 2.3 2.2 2 1.6-.2 4.1.6 4.4-.4-1.1-2.5 4.9-8 4.9-8s-7.5 8.4-2.6 8.5l16.1.4s-9.5.1-13.1.4zm1.6 8.6q-.2-.4-.4-.8c.2.5.4.8.4.8z" class="G"/><g class="I J"><path d="M93.8 213.4c.6-3.8 1.4-4 6.5-1.4 3.1 1.6 11.3 3 18.3 3h12.5v-2.3h-11.8c-15.5 0-23.2-3.1-24.9-10-2-6.5 1.3-10.3-4.2-10.3-3.2 0-3.5.2-3.6 2.9 0 12.7-4.3 16-22 17l-15.7.8v1.9h12.5c7 0 15.5-1.5 18.9-3.3 6.2-3.2 6.3-3.2 6.3 4.1-.3 4.8-.3 10 3.6 10 5.4 0 2.9-8.2 3.6-12.4z" class="H"/><use xlink:href="#D" y="38.7" class="F"/></g><path d="M59.4 215.2c-2.5.9-2.5 2.7-2.3 6.9.2 5.3-.8 7.4-3.9 8.1-7 1.4-14.7-1.6-23.2-9.1l-8.1-7.1 6.1-6.3c7.2-7.6 16.8-11.9 24.1-10.9 4.4.6 5.3 2 5 8.2-.2 4.4-.3 6.2 2.3 7z" class="F"/><use xlink:href="#E" y="38.7" class="G"/><use xlink:href="#F" y="38.7" class="F"/><path d="M148.7 208.7c-8.1-6.9-14.7-9.9-21.7-9.9-5.7 0-6.1.5-4.9 7.4 1.1 6.4 1 6.7-1.1 2.4-1-2-1.4-3.7-1.5-5.2-.5-10.4 18.8-8.9 30.4 4.8l4.5 5.4zm-8.4 5.4c-3.5.4-4.3.7-1.2 2.9 1.2.9 1.2 2.7 2.4 4.9-1.3-2.1-5.1-8-7.7-7.8-1.1-.4-.2-.2-2.9-.3-2.8 0-4.1-.3-1.8 2.5 2.3 2.9 2.7 6.1 4.1 9.1l-4.8-8.9c-2.7-4.6-9-2.3-9.4-2.9-.5-.7 1.1-.6 2-.9l4 .6c1.8.1 2.4-.7 2.6-1.7 1.7-2.9 1.6-5.7 2.3-8.6-.5 2.8-.5 5.9-1.5 8.1-.9 2.3-.3 2.3 2.2 2 1.6-.2 4.1.7 4.4-.3-1.1-2.5 4.9-8 4.9-8s-7.5 8.3-2.6 8.5l16.1.4s-9.5.1-13.1.4zm1.6 8.6q-.2-.4-.4-.8c.2.5.4.8.4.8z" class="G"/><path d="M91.1 249.9v-11.7-12.6l4.7 4.2c3.4 3.1 9.3 4.5 20.3 5.2l14.8.8v-2.7h-11.6c-15.5 0-23.2-3.1-24.9-9.9-1.5-8 1.7-10.4-4.1-10.7-4.5-.3-3.7.3-3.7 3.3 0 12.6-4.3 15.9-22 16.9l-15.2.8v2.3l14.5-.8c11-.7 16.9-2.1 20.3-5.2l4.7-4.2v12.6 11.7z" class="H"/><g class="F"><path d="M91.1 249.9v-4.1l-.4-6.6-.4-11.8-.8 11.8-.6 6.4v4.3zm39.7-14.5v-1.9l-15.5-.8c-12.2-.7-16.4-1.9-19-5.4-2.1-2.6-3.1-3.1-2.5-1 1.7 5.5 11.2 9.1 25 9.1zm-69.7 0c13.7 0 23.2-3.6 24.9-9.1.6-2.1-.4-1.6-2.4 1-2.7 3.5-6.9 4.7-19.1 5.4l-15.2.8v1.9z"/><path d="M59.4 235.7c-2.5.9-2.5 2.6-2.3 6.9.2 5.3-.8 7.4-3.9 8.1-7 1.4-14.7-1.6-23.2-9.1l-8.1-7.1 6.1-6.3c7.2-7.6 16.8-11.9 24.1-10.9 4.4.6 5.3 2 5 8.2-.2 4.4-.3 6.2 2.3 7z"/></g><path d="M23.3 234l4.5-5.3c11.7-13.7 31-15.2 30.4-4.8 0 1.5-.5 3.2-1.5 5.2-2.1 4.3-2.2 4-1.1-2.5 1.2-6.8.8-7.4-4.8-7.4-7 0-13.7 3.1-21.8 10zm1 .2l16.1-.4c4.9-.1-2.6-8.5-2.6-8.5s6 5.5 4.9 8c.3 1 2.9.2 4.4.4 2.5.3 3.2.2 2.2-2s-1-5.4-1.5-8.2c.7 2.9.6 5.7 2.3 8.6.3 1 .9 1.8 2.7 1.7l3.9-.6c1 .3 2.5.2 2 .9-.4.6-6.6-1.7-9.4 2.9l-4.8 9c1.4-3.1 1.8-6.3 4.1-9.1 2.3-2.9 1-2.6-1.8-2.5-2.7 0-1.8-.2-2.9.2-2.6-.1-6.4 5.7-7.6 7.8 1.2-2.2 1.1-4 2.4-4.9 3-2.1 2.3-2.5-1.3-2.9-3.6-.3-13.1-.4-13.1-.4zm12 8.2q-.2.4-.5.8s.2-.3.5-.8z" class="G"/><path d="M118.4 235.7c2.4.9 2.4 2.6 2.2 6.9-.2 5.3.8 7.4 3.9 8.1 7 1.4 14.7-1.6 23.2-9.1l8.1-7.1-6-6.3c-7.3-7.6-16.9-11.9-24.2-10.9-4.4.6-5.2 2-5 8.2.2 4.4.3 6.2-2.2 7z" class="F"/><path d="M148.7 229.2c-8.1-6.9-14.7-10-21.7-10-5.7 0-6.1.6-4.9 7.4 1.1 6.5 1 6.8-1.1 2.5-1-2-1.4-3.7-1.5-5.2-.5-10.4 18.8-8.9 30.4 4.8l4.5 5.3zm-8.4 5.5c-3.5.4-4.3.7-1.2 2.9 1.2.9 1.2 2.6 2.4 4.9-1.3-2.1-5.1-8-7.7-7.8-1.1-.5-.2-.2-2.9-.3-2.8 0-4.1-.3-1.8 2.5s2.7 6.1 4.1 9.1l-4.8-8.9c-2.7-4.7-9-2.3-9.4-2.9-.5-.7 1.1-.6 2-.9l4 .6c1.8.1 2.4-.7 2.6-1.7 1.7-2.9 1.6-5.7 2.3-8.6-.5 2.7-.5 5.9-1.5 8.1-.9 2.2-.3 2.3 2.2 2 1.6-.2 4.1.7 4.4-.3-1.1-2.5 4.9-8 4.9-8s-7.5 8.3-2.6 8.5l16.1.4s-9.5.1-13.1.4zm1.6 8.6q-.2-.4-.4-.8c.2.5.4.8.4.8z" class="G"/><path d="M91 236.6c.9 2.5 2.6 2.5 6.9 2.3 5.3-.2 7.4.8 8.1 3.8 1.4 7.1-1.6 14.7-9.1 23.2l-7.1 8.1-6.3-6c-7.6-7.3-12-16.8-10.9-24.1.6-4.5 2-5.3 8.2-5 4.4.2 6.2.3 7-2.3z" class="F"/><path d="M89.3 272.7l-5.3-4.6c-13.7-11.6-15.2-30.9-4.8-30.4 1.4.1 3.2.6 5.2 1.5 4.3 2.2 4 2.3-2.5 1.2-6.8-1.2-7.4-.8-7.4 4.8 0 7 3.1 13.6 10 21.8zm.2-1.1l-.4-16c-.1-4.9-8.5 2.6-8.5 2.6s5.5-6 8-4.9c1-.4.2-2.9.3-4.4.4-2.6.3-3.2-1.9-2.2-2.3 1-5.4 1-8.2 1.4 2.9-.6 5.7-.6 8.6-2.2 1-.3 1.8-.9 1.7-2.7l-.6-4c.3-.9.2-2.4.9-1.9.6.4-1.7 6.6 2.9 9.4l9 4.8c-3.1-1.4-6.3-1.8-9.1-4.1-2.9-2.3-2.6-1-2.5 1.7 0 2.8-.2 1.9.2 3-.2 2.5 5.7 6.3 7.8 7.6-2.2-1.2-4-1.1-4.9-2.4-2.1-3-2.5-2.3-2.9 1.3-.3 3.6-.4 13-.4 13zm8.2-11.9q.4.2.8.5s-.3-.2-.8-.5z" class="G"/><defs ><path id="B" d="M120.6 103.5c2.5-.9 2.5-2.7 2.3-6.9-.2-5.3.8-7.4 3.9-8.1 7-1.4 14.7 1.6 23.2 9.1l8.1 7.1-6.1 6.3c-7.2 7.6-16.8 11.9-24.1 10.9-4.4-.6-5.3-2-5-8.2.2-4.4.3-6.2-2.3-7z"/><path id="C" d="M156.7 105.1l-4.5 5.4c-11.7 13.7-31 15.2-30.4 4.8 0-1.5.5-3.2 1.5-5.2 2.1-4.3 2.2-4 1.1 2.4-1.2 6.9-.8 7.4 4.8 7.4 7 0 13.7-3 21.8-9.9zm-1-.2l-16.1.4c-4.9.1 2.6 8.5 2.6 8.5s-6-5.6-4.9-8c-.3-1-2.9-.2-4.4-.4-2.5-.3-3.2-.2-2.2 2s1 5.4 1.5 8.1c-.7-2.8-.6-5.7-2.3-8.5-.3-1-.9-1.8-2.7-1.7l-3.9.6c-1-.3-2.5-.2-2-.9.4-.6 6.6 1.7 9.4-2.9l4.8-9c-1.4 3-1.8 6.3-4.1 9.1-2.3 2.9-1 2.6 1.8 2.5 2.7 0 1.8.2 2.9-.2 2.6.1 6.4-5.7 7.6-7.8-1.2 2.2-1.1 4-2.4 4.9-3 2.1-2.3 2.5 1.3 2.8 3.6.4 13.1.5 13.1.5zm-12-8.2q.2-.4.5-.8s-.2.3-.5.8z"/><path id="D" d="M131.1 176.3v-1.9l-15.7-.8c-12.2-.7-16.4-1.9-19.1-5.4-2-2.6-3-3.1-2.4-1 1.7 5.5 11.2 9 24.7 9.1zm-69.7 0c13.5-.1 23-3.6 24.7-9.1.6-2.1-.4-1.6-2.5 1-2.6 3.5-6.8 4.7-19.1 5.4l-15.6.8v1.9z"/><path id="E" d="M23.3 174.9l4.5-5.4c11.7-13.7 31-15.2 30.4-4.8 0 1.5-.5 3.2-1.5 5.2-2.1 4.3-2.2 4-1.1-2.4 1.2-6.9.8-7.4-4.8-7.4-7 0-13.7 3-21.8 9.9zm1 .2l16.1-.4c4.9-.1-2.6-8.5-2.6-8.5s6 5.6 4.9 8c.3 1 2.9.2 4.4.4 2.5.3 3.2.2 2.2-2s-1-5.4-1.5-8.1c.7 2.8.6 5.7 2.3 8.5.3 1 .9 1.8 2.7 1.7l3.9-.6c1 .3 2.5.2 2 .9-.4.6-6.6-1.7-9.4 2.9l-4.8 9c1.4-3 1.8-6.3 4.1-9.1 2.3-2.9 1-2.6-1.8-2.5-2.7 0-1.8-.2-2.9.2-2.6-.1-6.4 5.7-7.6 7.8 1.2-2.2 1.1-4 2.4-4.9 3-2.1 2.3-2.5-1.3-2.8-3.6-.4-13.1-.5-13.1-.5zm12 8.2q-.2.4-.5.8s.2-.3.5-.8z"/><path id="F" d="M118.4 176.5c2.4.9 2.4 2.7 2.2 6.9-.2 5.3.8 7.4 3.9 8.1 7 1.4 14.7-1.6 23.2-9.1l8.1-7.1-6-6.3c-7.3-7.6-16.9-11.9-24.2-10.9-4.4.6-5.2 2-5 8.2.2 4.4.3 6.2-2.2 7z"/></defs></svg>