<svg xmlns="http://www.w3.org/2000/svg" width="18.841" height="37.792" xmlns:v="https://vecta.io/nano"><g transform="matrix(-1 0 0 -1 88.662 106)"><path d="M78.7 68.5l-3.7 4c-2.6 2.9-3.9 7.3-4.6 15.1-.8 10.3-.6 11.3 3.3 13.9 6.9 1.8 3.5 2.1 10.3 0 3.9-2.6 4.1-3.6 3.3-13.9-.7-8.1-1.9-12.1-4.8-15.1z" fill="#fe0000" stroke="#000" stroke-width=".4"/><path d="M78.7 69.5L75.1 73c-2.7 2.6-4 6.5-4.7 14.6-.8 10.3-.6 11.3 3.3 13.9 1.9 1.2 3.9 2.5 4.5 4.3l1.7.1c.6-1.8 2-3.4 4-4.6 7.1-4.7 5.9-8-3.3-8h-7.9v-8.2c0-5.2 1.1-9.6 3-11.9z" fill="#9b0000"/><path d="M78.7 69.5L75.1 73c-2.7 2.6-4 6.5-4.7 14.6-.8 10.3-.6 11.3 3.3 13.9 1.7 1 3.7 2.6 4.5 4.4l1.5.1c1-1.9 3-3.7 4.5-4.7 7.1-4.6 5.6-8-3.6-8h-7.9v-8.2c0-5.2 1.1-9.6 3-11.9z" fill="#009800"/><path d="M79.4 71.8c-.1.2-3.6 1.5-3.7 1.7-.1.1 3.8-.9 3.7-.7s-4.3 1.6-4.4 1.8c-.1.3 4.5-.7 4.4-.5-.1.3-4.8 1.7-4.9 2-.1.2 5-.7 4.9-.4 0 .3-5.4 1.8-5.5 2.1 0 .3 5.6-.6 5.5-.3 0 .3-5.9 1.9-6 2.2 0 .3 6-.2 6-.2l-6.3 2.2c-.1.4 6.3-.1 6.3-.1s-6.7 1.9-6.7 2.3c-.1.3 6.7-.1 6.7-.1s-7 1.9-7 2.3c0 .3 7-.1 7-.1s-7.2 1.9-7.2 2.3c-.1.3 7.2-.1 7.2-.1L72 90.4c0 .4 7.4-.1 7.4-.1L72 92.5s-.1 5.4 1.2 7.7c1.1 1 1.5 1.9.9 1.9s-1.8-1-2.7-2.2c-1-1.2-1.4-7.1-.9-13.1.6-8.3 1.7-11.7 4.6-14.1 1.8-1.5 3.5-3.3 3.6-3.3-1.5 2.2-2.8 3.2.7 2.4zm-5.8 22.1c0 .3-.3.4-.5.4s-.4-.1-.4-.4c0-.2.2-.4.4-.4s.5.2.5.4zm2.9.3c0 .2-.2.5-.5.5-.2 0-.4-.3-.4-.5s.2-.4.4-.4c.3 0 .5.2.5.4zm3.4.6c0 .2-.1.4-.3.4-.3 0-.5-.2-.5-.4a.47.47 0 0 1 .5-.5c.2 0 .3.2.3.5zm2.8.2c0 .2-.2.4-.4.4s-.4-.2-.4-.4.2-.4.4-.4.4.2.4.4zm2.2 0c0 .2-.2.4-.4.4s-.4-.2-.4-.4.2-.4.4-.4.4.2.4.4zm-10.7.8c0 .2-.2.4-.4.4-.3 0-.4-.2-.4-.4s.1-.4.4-.4c.2 0 .4.2.4.4zm3 .1c0 .3-.2.4-.5.4-.2 0-.4-.1-.4-.4 0-.2.2-.4.4-.4.3 0 .5.2.5.4zm9.1.3c0 .2-.2.4-.4.4-.3 0-.5-.2-.5-.4s.2-.4.5-.4c.2 0 .4.2.4.4zm-2.2.1c0 .2-.2.4-.5.4-.2 0-.4-.2-.4-.4 0-.3.2-.4.4-.4.3 0 .5.1.5.4zm-3.3.3c0 .2-.2.4-.5.4-.2 0-.4-.2-.4-.4 0-.3.2-.5.4-.5a.47.47 0 0 1 .5.5zm-2.1.7c0 .2-.1.4-.4.4-.2 0-.4-.2-.4-.4s.2-.4.4-.4c.3 0 .4.2.4.4zm-1.9.4c0 .3-.2.4-.4.4-.3 0-.4-.1-.4-.4 0-.2.1-.4.4-.4.2 0 .4.2.4.4zm-1.9.3c0 .2-.2.5-.5.5-.2 0-.3-.3-.3-.5s.1-.4.3-.4c.3 0 .5.2.5.4zm6.6.1c0 .3-.2.5-.4.5s-.4-.2-.4-.5c0-.2.2-.4.4-.4s.4.2.4.4zm4.1 0c0 .3-.2.5-.4.5s-.4-.2-.4-.5c0-.2.2-.4.4-.4s.4.2.4.4zm-5.8.5c0 .2-.2.5-.4.5s-.4-.3-.4-.5.2-.4.4-.4.4.2.4.4zm3.2 0c0 .2-.2.5-.4.5-.3 0-.5-.3-.5-.5s.2-.4.5-.4c.2 0 .4.2.4.4zm-6.3.6c0 .3-.2.5-.4.5s-.4-.2-.4-.5c0-.2.2-.4.4-.4s.4.2.4.4zm5.7 1c0 .2-.1.4-.4.4-.2 0-.4-.2-.4-.4s.2-.4.4-.4c.3 0 .4.2.4.4zm-2.5.7c0 .2-.2.4-.5.4-.2 0-.3-.2-.3-.4 0-.3.1-.5.3-.5a.47.47 0 0 1 .5.5zm-2.7.2c0 .3-.2.5-.4.5s-.4-.2-.4-.5c0-.2.2-.3.4-.3s.4.1.4.3zm4.6.5c0 .2-.1.4-.4.4-.2 0-.4-.2-.4-.4s.2-.5.4-.5c.3 0 .4.3.4.5zm-2.2 1.1c0 .3-.3.5-.5.5s-.4-.2-.4-.5c0-.2.2-.4.4-.4s.5.2.5.4z" fill-rule="evenodd"/></g></svg>