<svg xmlns="http://www.w3.org/2000/svg" width="31.481" height="34.675" xmlns:v="https://vecta.io/nano"><path d="M8.735 29.275c-8.5-8.4-10.1-12.8-6.8-19.1 1.6-3 5.3-6.8 8.3-8.3 4.8-2.5 6.3-2.5 11 0 7.4 3.9 11.9 12.6 9.1 17.8-2.5 4.7-13.2 15.1-15.2 14.8-.8-.1-3.7-2.5-6.4-5.2z" fill="#dfc800"/><g fill="#fe0000"><path d="M12.035 31.675c-.7-1.7-.3-3 .8-3 1 0 2 1.1 2.1 2.5.1 2 .3 2 1.1 0 .6-1.4 1.8-2.5 2.8-2.5s1.3 1.3.6 3c-.6 1.6-2.3 3-3.7 3s-3.1-1.4-3.7-3z"/><path d="M2.535 21.875c-3.2-5.3-3.3-6.5-.7-11.5 1.6-3.1 5.4-6.9 8.4-8.5 4.7-2.5 6.2-2.5 11 0 3 1.5 6.8 5.4 8.4 8.5 2.6 5 2.5 6.2-.6 11.3-3 5-4.7 5.8-13.2 5.9-8.7.2-10.1-.4-13.3-5.7zm26.8-4.6c2.9-1.7-.5-4.1-7.2-5.2-8-1.3-20.5.9-20.3 3.7.2 3.9 21.2 5.1 27.5 1.5zm-10.4-14.5c-1.6-1-4-1.3-5.5-.8-4.3 1.7-3.2 2.7 2.8 2.6 4 0 4.7-.5 2.7-1.8z" fill-rule="evenodd"/></g><path d="M4.535 8.975c1.8-3.5 4.2-4.3 11.2-4.3s9.4.8 11.2 4.3c2.1 3.9 1.9 4.1-2.5 2.7-2.6-.8-6.5-1.5-8.7-1.5s-6.1.7-8.8 1.5c-4.3 1.4-4.5 1.2-2.4-2.7zm0 13.4c-2.1-4-1.9-4.2 2.4-2.8 2.7.9 6.6 1.5 8.8 1.5s6.1-.6 8.7-1.5c4.4-1.4 4.6-1.2 2.5 2.8-1.8 3.4-4.2 4.3-11.2 4.3s-9.4-.9-11.2-4.3z" fill="#0000fe"/></svg>