<svg version="1.2" baseProfile="tiny-ps" xmlns="http://www.w3.org/2000/svg" viewBox="0 0 1000 1000" width="1000" height="1000">
	<title>White-Play/Pause</title>
	<style>
		tspan { white-space:pre }
		.shp0 { fill: #ffffff } 
	</style>
	<path id="Play" fill-rule="evenodd" class="shp0" d="M52.02 191.14C52.02 191.82 52.02 192.53 52.02 193.27C52.02 193.27 52.02 193.98 52.02 195.4C52.02 196.82 51.68 199.68 51 203.99C51 216.81 51 238.91 51 270.28C51 374.43 51 552.04 51 803.11C51 810.26 53.13 816.7 57.38 822.42C62.38 827.42 68.1 830.62 74.57 832.04C81.66 832.72 88.07 831.28 93.8 827.71L98.06 825.58L160.09 789.24L618.04 523.85C635.91 511.76 638.77 497.49 626.64 481.05C625.9 480.36 625.19 479.65 624.51 478.92C623.77 478.24 623.06 477.53 622.38 476.79C621.64 476.11 620.91 475.4 620.17 474.66C619.49 473.93 618.78 473.56 618.04 473.56L610.56 468.2L553.88 435.09L94.82 169.7C83.42 166.86 73.44 167.57 64.87 171.83C57.04 175.4 52.76 181.84 52.02 191.14Z" />
	<path id="Forma 1" class="shp0" d="M688 169L731 169C747.59 169 761 182.41 761 199L761 801.14C761 817.73 747.59 831.14 731 831.14L688 831.14C671.41 831.14 658 817.73 658 801.14L658 199C658 182.41 671.41 169 688 169Z" />
	<path id="Forma 1 copy" class="shp0" d="M875 169L918 169C934.59 169 948 182.41 948 199L948 801.14C948 817.73 934.59 831.14 918 831.14L875 831.14C858.41 831.14 845 817.73 845 801.14L845 199C845 182.41 858.41 169 875 169Z" />
</svg>