<svg xmlns="http://www.w3.org/2000/svg" viewBox="0 0 640 512" width="640" height="512">
	<style>
		tspan { white-space:pre }
		.shp0 { fill: #ffffff } 
	</style>
	<path id="Layer" fill-rule="evenodd" class="shp0" d="M640 240L640 464C640 490.51 618.51 512 592 512L368 512C341.49 512 320 490.51 320 464L320 417.58L456.26 281.32C480.38 257.2 485.95 221.59 473.26 192L592 192C618.51 192 640 213.49 640 240ZM504 352C504 338.74 493.25 328 480 328C466.75 328 456 338.74 456 352C456 365.25 466.75 376 480 376C493.25 376 504 365.25 504 352ZM433.63 189.3C452.79 208.46 452.79 239.53 433.63 258.7L258.69 433.63C239.53 452.79 208.46 452.79 189.3 433.63L14.37 258.69C-4.79 239.53 -4.79 208.46 14.37 189.3L189.31 14.37C208.47 -4.79 239.54 -4.79 258.7 14.37L433.63 189.3ZM120 224C120 210.74 109.25 200 96 200C82.75 200 72 210.74 72 224C72 237.25 82.75 248 96 248C109.25 248 120 237.25 120 224ZM248 352C248 338.74 237.25 328 224 328C210.75 328 200 338.74 200 352C200 365.25 210.75 376 224 376C237.25 376 248 365.25 248 352ZM248 224C248 210.74 237.25 200 224 200C210.75 200 200 210.74 200 224C200 237.25 210.75 248 224 248C237.25 248 248 237.25 248 224ZM248 96C248 82.74 237.25 72 224 72C210.75 72 200 82.74 200 96C200 109.25 210.75 120 224 120C237.25 120 248 109.25 248 96ZM376 224C376 210.74 365.25 200 352 200C338.75 200 328 210.74 328 224C328 237.25 338.75 248 352 248C365.25 248 376 237.25 376 224Z" />
</svg>