<svg xmlns="http://www.w3.org/2000/svg" viewBox="0 0 512 512" width="512" height="512">
	<style>
		tspan { white-space:pre }
		.shp0 { fill: #ffffff } 
	</style>
	<path id="Layer" fill-rule="evenodd" class="shp0" d="M504 256C504 393 392.96 504 256 504C119.04 504 8 393 8 256C8 119.08 119.04 8 256 8C392.96 8 504 119.08 504 256ZM214 160C214 183.2 232.8 202 256 202C279.2 202 298 183.2 298 160C298 136.8 279.2 118 256 118C232.8 118 214 136.8 214 160ZM312 348C312 341.37 306.63 336 300 336L288 336L288 236C288 229.37 282.63 224 276 224L212 224C205.37 224 200 229.37 200 236L200 260C200 266.63 205.37 272 212 272L224 272L224 336L212 336C205.37 336 200 341.37 200 348L200 372C200 378.63 205.37 384 212 384L300 384C306.63 384 312 378.63 312 372L312 348Z" />
</svg>