<svg xmlns="http://www.w3.org/2000/svg" xmlns:xlink="http://www.w3.org/1999/xlink" width="178.998" height="289.999" viewBox="0 0 47.36 76.729" xmlns:v="https://vecta.io/nano"><style><![CDATA[.B{stroke:#000}.C{stroke-miterlimit:7.3333}.D{fill:none}.E{stroke:#2e3436}.F{fill:#edd400}.G{stroke-width:.3}.H{stroke-linecap:round}.I{fill:#c00}.J{fill-rule:evenodd}.K{color-interpolation-filters:sRGB}.L{fill:#3465a4}.M{stroke-linecap:square}.N{fill:#e9b96e}.O{stroke-width:1.833}.P{stroke-miterlimit:5.6667}.Q{stroke-width:1.055}.R{stroke-width:.668}.S{stroke-width:3.064}.T{stroke-width:1.575}.U{stroke-width:.917}.V{stroke-width:2.929}.W{stroke-width:3.294}.X{stroke-width:2.63}]]></style><defs><radialGradient id="A" cx="100" cy="144" r="60.5" gradientTransform="matrix(-.52727 .52727 -.53636 -.53636 229.96 168.51)" xlink:href="#AZ"><stop stop-color="#c4a000" offset="0"/><stop stop-color="#c4a000" offset=".808"/><stop stop-color="#edd400" offset="1"/></radialGradient><radialGradient id="B" cx="1987.1" cy="910.46" r="43.716" gradientTransform="matrix(1.2651 -.012818 .0068095 .26331 -1318 -145.52)" xlink:href="#AZ"><stop stop-color="#8f5902" offset="0"/><stop stop-color="#8f5902" stop-opacity=".498" offset=".566"/><stop stop-color="#fff" offset="1"/></radialGradient><radialGradient id="C" cx="247.1" cy="465.93" r="69.12" gradientTransform="matrix(-.049403 -.56242 2.4476 -.215 -940.52 1148.1)" xlink:href="#AZ"><stop stop-color="#fff" offset="0"/><stop stop-color="#ccc" offset="1"/></radialGradient><linearGradient id="D" x1="80.515" x2="124.574" y1="874.788" y2="918.847" xlink:href="#E"/><linearGradient id="E" xlink:href="#AZ"><stop offset="0"/><stop stop-color="#333" stop-opacity="0" offset="1"/></linearGradient><linearGradient id="F" x1="261.994" x2="250.166" y1="876.759" y2="897.143" xlink:href="#E"/><linearGradient id="G" x1="226.17" x2="204.76" y1="462.34" y2="467.59" xlink:href="#AZ"><stop stop-color="#e6e6e6" offset="0"/><stop stop-color="#e6e6e6" stop-opacity="0" offset="1"/></linearGradient><filter id="H" x="-.05" y="-.046" width="1.1" height="1.093" class="K"><feGaussianBlur stdDeviation=".436"/></filter><filter id="I" x="-.053" y="-.069" width="1.107" height="1.137" class="K"><feGaussianBlur stdDeviation=".965"/></filter><filter id="J" x="-.01" y="-.014" width="1.021" height="1.028" class="K"><feGaussianBlur stdDeviation=".536"/></filter><filter id="K" x="-.169" y="-.168" width="1.338" height="1.336" class="K"><feGaussianBlur stdDeviation="3.927"/></filter><path id="L" d="M1933.4-384.86s-.97 1.293.388-2.328l1.617-3.88"/><path id="M" d="M1977.646 133.38l1.124 39.089s-9.557 6.173-17.266-2.188 10.313-28.661 11.361-36.815"/><path id="N" d="M1978.846 138.47s-9.242 14.621-9.331 21.837 4.25 13.951 4.25 13.951-1.581-8.061-1.018-13.518 6.099-22.27 6.099-22.27z"/><path id="O" d="M1973.246 139.55s-7.17 8.051-9.054 15.262 2.845 19.142 2.845 19.142-1.532-9.815.259-18.625 5.949-15.779 5.949-15.779z"/><path id="P" d="M2015.446 91.37s-2.501 10.454-5.67 18.932-7.408 17.834-7.408 17.834"/><path id="Q" d="M1999.646 70.36s2.395 14.482 2.328 22.505c-.067 8.034-7.243 36.474-7.243 36.474"/><path id="R" d="M1975.946 72.36s-2.395 14.482-2.328 22.505c.067 8.034 7.243 36.474 7.243 36.474"/><path id="S" d="M2002.7-464c1.325.451 2.133 1.704 2.744 2.37 1.155 1.261 3.312 4.041 3.312 4.041m-6.603-7.176c1.641.38 3.044 1.962 3.657 2.642 1.685 1.87 3.794 5.665 3.794 5.665m-8.849-10.12c3.227.975 4.824 2.661 5.774 3.721 2.571 2.871 4.67 8.676 4.67 8.676m-11.133-13.209c3.537.747 5.718 2.922 6.738 4.027 3.15 3.412 4.984 10.163 4.984 10.163m-10.454-12.482c2.971 1.001 3.967 2.221 4.77 3.11 2.225 2.463 4.34 7.409 4.34 7.409"/><path id="T" d="M2007.246 140c7.862 18.082 11.488 25.983 10.108 32.883s-13.458 5.055-15.127 3.94c-1.95-1.523-5.813-30.866-4.587-43.006.425-4.204 6.737-1.464 6.737-1.464s.122-4.017 2.869 7.647z"/><path id="U" d="M2001.646 136.45s5.246 18.915 5.432 26.127-2.845 14.486-2.845 14.486 6.229-7.745 5.432-15.262-6.232-16.771-8.019-25.351z"/><path id="V" d="M2010.846 148.61s2.789 8.568 2.975 15.779-2.07 13.71-2.07 13.71 4.677-6.193 4.656-11.382-5.562-18.108-5.562-18.108z"/><path id="W" d="M1977.146 133.59c1.845 8.763-6.817 30.949 1.698 39.881 3.676 6.345 18.751 5.839 24.944 1.545s-4.822-34.464-3.492-42.626z"/><path id="X" d="M1981.546 139.06s-2.256 13.483-2.069 19.66 1.293 17.073 1.293 17.073 1.831-13.178 1.811-17.59.753-10.563-1.035-19.142z"/><path id="Y" d="M1996.346 138.06s3.048 13.326 3.226 19.503 1.01 19.448 1.01 19.448-3.899-15.375-4.14-19.781-1.375-10.5-.097-19.17z"/><path id="Z" d="M1988.846 138.72s1.537 10.706 1.918 17.132.352 22.615.352 22.615-3.606-19.087-3.437-23.496-.911-7.737 1.167-16.251z"/><path id="a" d="M1969.046 172.31l6.951 23.413 10.426 30.364c.469 1.577 1.463 9.512 1.463 9.512"/><path id="b" d="M2000.246 277.33s-.73-10.396-.365-18.749c.547-11.463-.092-21.218-.092-21.218"/><path id="c" d="M166.93 854.44l40.348 2.128c9.428-1.552 14.407-5.986 19.576-10.297-1.854 3.701-2.924 7.251-8.966 11.758 5.702-.967 9.006-3.659 11.955-6.608-2.015 2.561-2.255 4.736-7.92 8.091l12.553.61c11.248-1.822 19.688-5.759 27.795-9.946-4.675 6.248-10.029 9.329-15.243 12.765 17.919 6.421 29.801 5.861 41.693-.968-3.218 2.893-6.597 5.776-12.553 8.506 11.23 1.626 23.787-3.616 36.164-7.928-6.541 5.561-12.285 11.437-23.013 15.341 21.239 6.448 31.512 2.888 42.739.199-4.924 4.014-9.892 8.006-17.932 10.395 16.5 6.196 25.05 3.274 35.118 2.093-5.321 3.467-10.043 7.271-19.576 8.364 11.242 3.866 21.63 5.447 30.485 2.922-8.489 6.697-18.361 10.116-30.037 9.26 3.735 4.516 10.467 6.593 21.37 5.279-7.935 2.068-15.906 4.091-29.29-.64l-2.242 3.319c8.587 3.521 11.474 7.456 14.645 11.37-5.64-4.766-12.503-7.065-19.726-8.634-2.729 2.358-3.961 2.948-5.679 3.943 9.349 3.872 12.603 7.381 16.587 10.933-6.774-4.049-13.549-7.01-20.323-8.117l-5.38 2.304c7.117 4.315 10.976 6.551 15.99 13.245-7.2-4.476-14.349-8.991-26.6-9.458l-11.656 5.383c4.66 2.391 9.133 5.116 13.001 8.924-10.909-6.195-21.721-9.135-34.819-4.975 7.17 4.032 12.454 9.478 16.438 15.896-8.275-7.223-17.035-12.133-26.899-14.31 3.755 2.848 5.641 5.585 7.024 8.291-7.937-6.512-17.617-9.191-29.14-7.814 4.283 2.553 7.456 5.126 9.116 8.968-10.393-9.053-27.972-11.261-46.624-12.447 2.181-26.356 10.283-30.571-18.979-88.145z"/><path id="d" d="M59.693 919.09c-1.366 1.193-.544 1.763.109 2.48 1.09 1.15 3.944 1.953 5.279 2.93 1.821 1.342 8.296-.287 10.324.866 2.566 1.452 5.346 2.66 8.158 3.815 6.972 2.794 14.081 5.384 21.289 7.813a310.42 310.42 0 0 0 9.185 2.997c3.234 1.058 6.563 1.928 9.915 2.751 3.771.907 7.628 1.6 11.485 2.279 3.986.696 8.013 1.258 12.049 1.783 4.111.535 8.253.927 12.406 1.259 4.51.361 9.04.569 13.573.743l13.767.35c4.536.085 9.078.06 13.619-.005 4.416-.057 8.831-.247 13.242-.476 4.27-.201 8.527-.568 12.776-.981 4.106-.392 8.173-.994 12.228-1.644 4.022-.636 7.99-1.456 11.943-2.322 4.01-.874 7.972-1.873 11.903-2.949 3.815-1.037 7.556-2.229 11.271-3.467 3.617-1.22 7.137-2.602 10.621-4.036 3.393-1.431 6.724-2.947 10.028-4.498l9.589-4.515 8.777-4.297c2.822-1.448 5.584-2.966 8.312-4.518 2.7-1.542 7.514-6.615 10.182-8.188.426-.255-1.307 2.977-.881 2.721l-11.669-4.89-1.269.761-8.002 4.685c-2.719 1.533-5.464 3.039-8.275 4.47l-8.742 4.276-9.572 4.515c-3.287 1.537-6.602 3.038-9.983 4.447-3.462 1.412-6.963 2.766-10.558 3.963-3.695 1.221-7.42 2.387-11.213 3.41-3.915 1.056-7.863 2.033-11.854 2.892-3.937.845-7.892 1.633-11.894 2.257-4.033.634-8.084 1.196-12.165 1.575-4.232.397-8.47.746-12.721.935-4.398.214-8.798.396-13.2.438-4.528.055-9.056.066-13.579-.026l-13.748-.375c-4.525-.185-9.046-.417-13.545-.798-4.143-.356-8.275-.773-12.376-1.321-4.022-.539-8.034-1.116-12.004-1.832-3.846-.697-7.692-1.412-11.44-2.362-3.344-.847-6.647-1.775-9.886-2.826l-9.151-3.016-4.773-1.653-1.586-.578 8.668 3.251c-2.809-1.111-5.592-2.271-8.176-3.665-2.026-1.107-4.012-2.26-5.847-3.548-1.303-.949-2.653-1.867-3.814-2.923-.643-.616-1.272-1.253-1.722-1.968-5.076 1.01-9.519 1.521-16.722-2.15z"/><path id="e" d="M199.59 862.44c-4.736.056-9.498.195-14.226.547-4.866.34-9.741.745-14.591 1.337l-14.713 1.945c-4.846.752-9.664 1.587-14.469 2.675-2.069.472-4.142.99-6.201 1.52-.965 4.223-1.52 8.616-1.52 13.132 0 32.425 26.303 58.729 58.729 58.729s58.729-26.303 58.729-58.729c0-4.646-.561-9.162-1.581-13.497-3.434-1.106-6.856-2.104-10.335-2.979-4.283-1.075-8.611-2.049-12.95-2.736-4.373-.702-8.785-1.261-13.193-1.52-4.57-.275-9.102-.51-13.679-.426z"/><path id="f" d="M59.239 921.34c.247-1.442-.621-4.538.002-5.776 1.045-1.989 2.379-2.212 3.687-3.941 1.783-2.373 5.245-4.185 7.254-6.264 2.541-2.621 5.317-4.862 8.129-7.017 6.978-5.231 14.109-10.139 21.352-14.792 3.047-1.997 6.129-3.912 9.235-5.769 3.251-2.035 5.955-3.77 9.343-5.43 3.812-1.836 7.727-3.33 11.642-4.799 4.047-1.509 8.145-2.803 12.253-4.036 4.185-1.257 8.412-2.281 12.653-3.208 4.606-1.007 9.242-1.766 13.884-2.467 4.695-.696 9.4-1.288 14.108-1.84 4.651-.556 9.314-.932 13.979-1.244 4.536-.312 9.08-.405 13.622-.435 4.395-.062 8.788.149 13.176.437 4.239.266 8.453.883 12.657 1.577 4.168.675 8.294 1.658 12.407 2.717 4.172 1.068 8.303 2.345 12.406 3.752 3.983 1.353 7.898 2.967 11.791 4.66 3.791 1.673 7.492 3.62 11.16 5.654 3.574 2.039 7.091 4.223 10.58 6.469l10.132 6.536 9.284 6.253c2.99 2.12 5.921 4.36 8.82 6.658 2.87 2.285 6.859 6.141 9.698 8.481.453.38-.255-.734.198-.354-3.888 5.966-7.776 6.279-11.664 9.105-.45-.378-.237-.756-.687-1.134-2.826-2.343-6.313-4.689-9.177-6.961-2.889-2.268-5.803-4.491-8.779-6.583-3.058-2.127-6.15-4.181-9.247-6.222l-10.114-6.539c-3.472-2.223-6.971-4.384-10.531-6.389-3.644-2.002-7.324-3.905-11.09-5.541-3.871-1.667-7.769-3.24-11.727-4.572-4.086-1.375-8.2-2.618-12.352-3.662-4.095-1.027-8.205-1.958-12.352-2.615-4.18-.671-8.374-1.222-12.587-1.47-4.369-.263-8.742-.448-13.117-.367-4.527.053-9.056.157-13.576.494-4.651.325-9.3.725-13.936 1.291l-14.087 1.879c-4.633.719-9.258 1.516-13.852 2.556-4.23.966-8.444 2.03-12.619 3.308-4.093 1.255-8.175 2.572-12.204 4.113-3.903 1.499-7.147 3.026-10.933 4.931-3.378 1.699-6.709 3.527-9.966 5.551a332.75 332.75 0 0 0-9.2 5.796l-4.793 3.154-1.591 1.095 8.689-6.138c-2.812 2.083-5.594 4.244-8.157 6.773-2.009 2.005-1.814 4.745-3.616 7.03-1.277 1.679-3.434 3.809-4.558 5.65-.621 1.071-4.713.681-5.129 1.897-8.565 1.222-6.988 4.67-10.501 7.747z"/><path id="g" d="M239.81 841.46c-9.637 7.541-16.022 17.24-24.618 24.205l-36.215-4.847c22.407-3.955 43.292-6.929 60.833-19.357z"/><path id="h" d="M247.41 452.47l-.344.563 3.719-.375.875-.094-4.25-.094zm5.125.156l-1.469.875-2.187.125-1.687.094c-.031.002-.062-.002-.094 0-.146 0-.292 0-.437 0l-.687 1.188 3.031-.062-3.625 2.625c-.19.03-.182.1-.344-.031-.002.072-.006.162-.031.25l-.719.281-.031.063h.406l-.5.438c-.022-.029-.04-.063-.062-.094l-1.344 2.781h.156c-.004.006.004.025 0 .031-.062 0-.125 0-.187 0l-.312.656h.094l-.156.25c-.009-.021-.024-.041-.031-.062-1.463 3.128-2.654 5.486-5.562 7.969-.014.018-.017.045-.031.063l-1.719 2.063.156-.281c.063-.136.185-.318.094-.437-.069-.091-.193-.026-.312 0l-2.5 1.625c-.029.024-.065.038-.094.063l-.562.469-1.75 1.313 1.5-1.25-2.25 1.25-.187.375-1.375 1.156-.625.563-1.25.813.125.156.219-.125-.156.156.25.281 1.594-1.562.813-.531-.687 1.469.281-.125-1.375 1.406.25.25 7.156-7.281c.101.089-.007.284-.062.406-.134.298-.331.564-.5.844l-.906 1.375-2.5 2.281-1.219 1.063-.437.406a11.54 11.54 0 0 0-1.062 1.344l.438.406c.437-.783.978-1.506 1.594-2.156l2.406-2.125-.719 1.063-2.844 3.594a24.72 24.72 0 0 0 1.656 1.281 33.61 33.61 0 0 1 1.406-2.156l5.688-7.875-.062.188-1.25 1.781-2.437 3.563a81.95 81.95 0 0 0-1.437 2.281l-1.312 1.719-.344.5c-.034.04-.06.086-.094.125l1.406.906.938-1.469-.75 1.594c.269.159.568.289.844.438l.75-.687-.281.781c.069-.092.059-.052.094-.094-.058.08-.119.142-.156.219-.004.008.003.024 0 .031l1.344.625c.008-.031.023-.062.031-.094.345-.958.771-1.895 1.219-2.812l-1.031 3a24.91 24.91 0 0 0 3.125 1.094l.031-.719.219-2.281.688-1.75 1.656-3.937-.25 1.531-.781 6.156-.125 1.344 1.125.219.906.156.094-.937.031-.25c.029 0 .073-.016.094-.031l.594-.437-.187 1.063-.094.656a25.15 25.15 0 0 0 1.156.094l.031-.25a33.96 33.96 0 0 0 .188-1.094l.656-5.187c.017.082.018.167.031.25l.063.469.063.281c.008.104-.007.209 0 .313v3.031 1.688l-.094.531h.531.531c-.006-.022.005-.043 0-.062.087-.195.063-.447.063-.844l.063.719c.004.05.025.103.031.156a24.85 24.85 0 0 0 2.25-.156l.188-1.062a40.43 40.43 0 0 0 .281-2.562c.056.151.014.051.219.594l.406 1.094-.156 1.813a24.39 24.39 0 0 0 1.594-.312l.031-.687c.007.053.021.104.031.156l.125.5a24.72 24.72 0 0 0 1.094-.281l-.031-.469-.094-.844-.094-1.062-.094-.594c.007-.026.007-.062 0-.094l-.437-2.969-.344-1.5.031-1.719a216.17 216.17 0 0 0 2.094 6.531l.188 2.344.969-.344c-.001-.01.001-.021 0-.031.034-.011.09-.02.125-.031l.313-.125-.531-1.562-.094-2.75.688 1.063c.008.012.024.019.031.031l.156 2.813c.001.1-.018.209-.031.313 2.004-.841 3.866-1.938 5.562-3.25l-1.406-1.906-.5-2.25 1.875 2.438.75 1.188c1.036-.863 1.992-1.825 2.875-2.844l-.281-.312c.677-.16.199-.553-.219-1.062l-1-1-1.156-1.344 3.906 2.125 1.219-1.781-.875-.562c-.038-.078-.167-.128-.281-.187-.028-.015-.073-.015-.094-.031-.035-.027-.059-.067-.094-.094l-.437-.344.438.125 1.375 1.063c.253-.418.459-.879.688-1.312l-2.594-1.937-.562-.437 3.344 2.063.375-.812-1.687-1.031.906.281.125.063c.05.016.106.016.156.031.072.026.145.08.219.094.114.053.227.088.344.063l.125-.031c.024.01.039.022.063.031l.313-.781c-.04-.015-.084-.02-.125-.031.05-.113-.178-.151-.281-.219-.296-.193-.625-.363-.937-.531.04-.104.095-.158.156-.187.047-.045.199-.118.344-.187a10.97 10.97 0 0 1 .594.344c-.165.012-.298-.003-.437 0 .263.18.555.43.813.531l.438-1.25c-.222-.075-.465-.124-.656-.219l-.906-.437 1.625.438.188-.594-6.219-1.781-1.344-.594 3.625.281c.021.002.042-.002.063 0 .053.004.104.027.156.031l3.125.5.938.156a24.73 24.73 0 0 0 .469-3l-1.156-.062h1.188l.031-.562h-6.75l3.438-.25 3.313.125.063-1.625-.031-.937-.937-.125c.02-.045.057-.072.063-.125.029-.307-.6-.177-.906-.219-.679-.093-2.235-.193-3.281-.25h1.844l3.156.031h.031c-.017-.253-.069-.5-.094-.75l-3.062-.031c-.667-.004-1.333.004-2 0l.156-.094c.022-.012.036-.028.031-.031l3.938-.219c.251-.209.866-.341.813-.625-.008.004-.024-.004-.031 0-.003-.011.005-.019 0-.031h.063l-.156-1.031-.25-.031-1.781-.125 1-.094.938-.125-.125-.625a30.23 30.23 0 0 0-1.656.031h-9.125a20.2 20.2 0 0 0 .875-.5l6.969.063 1.75.031 1.156.219c-.007-.032-.024-.062-.031-.094l-3.812-1.125-2.5-.312h.375c.312.025.631.048.938 0l-4.812-1-1.187-.156c-.052.002-.104-.003-.156 0-.083 0-.167 0-.25 0h-3.812c-.248-.001-.513-.072-.75 0-.031 0-.063 0-.094 0-.012 0-.045.001-.062 0l.688-.375c.029-.015.064-.016.094-.031.017-.007.043.009.063 0 .01-.003.021-.028.031-.031s.022.003.031 0c-.062-.004-.125-.028-.187-.031-.073-.004-.146.004-.219 0l-.875.5c-.053.006-.107-.014-.156 0l.75-.531c-.052-.003-.104.003-.156 0zm14.312 17.094c-.19-.13-.37-.219-.5-.156-.139.132.11.166.5.156zm-15.062-16.5c-.049.034-.076.097-.094.156-.044.027-.081.066-.125.094-.052.004-.104-.004-.156 0l.375-.25zm6.594 1.25l1.281.125-.437.344c-.985-.004-1.985.009-2.969-.031.072-.016.146-.046.219-.062l1.906-.375zm-2.625.125c-.185.048-.343.103-.5.188-.273-.062-.559-.058-.5.375-.081.074-.156.121-.25.219-.067.069.189.067.281.094l3.594.031-.344.219a1.78 1.78 0 0 1-.187.094l-.406.188c-1.053-.001-2.103 0-3.156 0-.383 0-.761-.039-1.094.063-.303.013-.556.111-.562.438-.038.053-.089.092-.125.156-.048.087.052.108.188.094.105.054.307-.004.5-.062l2.406.125-.781.313c-.101.039-.211.057-.312.094l-4.625.188c-.271.006-.541-.004-.812 0-.009.003-.022-.003-.031 0-.083.001-.167-.001-.25 0-.178-.027-.375-.114-.5 0-.007.007.006.024 0 .031-.261.003-.52-.001-.781 0h-.094l7-2.781 1.344-.062zm4.313.063l2.875.313-3.281-.031.406-.281zm-6.625.031l-5.406 2.219-1.125.5c-.329-.022-.677-.049-1 0a57.68 57.68 0 0 1 3.438-2.562l1.656-.062 2.438-.094zm8.531 1.875h2.5l-1 .094-1.5-.094zm-5.812.281l2.219.094.656.031-3.687.219.813-.344zm6.563.344l.781.031 3.5.219c-2.061.007-2.621-.001-4.75 0-1.021 0-2.041.001-3.062 0l3.531-.25zm-16.688.875c.042-.005.083.005.125 0h.75.531.156l3.844.063-.156.031-.437.313-.656.063c-.272.026-.559-.039-.812.063-.077.031-.147.086-.219.125-.049.044-.145.054-.219.094l-1.687.031c-.007-.002-.023.001-.031 0l-.937.031.031-.062c.114-.141.246-.301.188-.375l.063-.187-.281.156c-.177.022-.352.128-.531.219.033-.142.037-.294.063-.437.064-.031.154-.094.219-.125zm6.781.094l1.781.031-2.5.188.719-.219zm10.312.25l-8.406.313 2.188-.125 6.219-.187zm.625.469h.438c-.069.012-.215.051-.375.094-.003-.033-.029-.068-.062-.094zm-17.906.938h.063a3.8 3.8 0 0 0-.125.094c.02-.032.046-.061.063-.094zm.531 0h.25c.016.026.022.067.031.094-.017.063-.047.124-.062.188-.19-.001-.234.001-.531 0l.313-.281zm1.094.031h1.25c-.028.022-.07.04-.094.063-.064.061-.049.13-.031.219-.269-.007-.97.002-1.187 0l.063-.281zm2.219 0l7.344.188 1.281.063 4.781.375-6.719.031-6.406-.344c-.202-.005-.119.004-.281 0 .014-.103.017-.225 0-.312zm15.719.844l.938.094a1.57 1.57 0 0 1-.375.125c-.094-.003-.188.003-.281 0-.01 0-.021 0-.031 0-.105-.033-.182-.091-.25-.219zm1.656.188l.719.094-1.687-.031c.094-.004.188-.027.281-.031l.688-.031zm-23.875.969h.063l-.094.219c.003-.066.031-.176.031-.219zm9.781.813h1.531.125c.006.007-.007.025 0 .031.086.074.176.13.281.156l-1.906-.156c-.004-.005-.027.004-.031 0s.005-.025 0-.031zm5.281.031h.125l2.813.094-1.687.156c-.01-.002-.021.002-.031 0l-.875-.187-.344-.062zm-10.406.563c.094.004.187.028.281.031l.75.094c.008.005.022-.004.031 0 .004.083.027.167.031.25-.148-.044-.275-.01-.437.219-.111-.106-.211-.211-.312-.25l-.344-.344zm-3.5.156a5.45 5.45 0 0 1 .406.75l-.531.188c-.036.223.078.508.188.75l-.344-.125.031-.406c.049-.382.274-.781.25-1.156zm21.281 1.406l2.313.375c.222.03-.809-.074-1.687-.187l-.625-.187zm-18.719.188l.656.375c-.187.178-.321.479-.406.813l-.25-1.187zm-6.125.875l-.031.219-.156.219.031-.156.156-.281zm17.375 0l2.875.875 1.531.656 2.281 1.063.344.156-4.531-1.594-2.5-1.156zm-13.719.719l.313.125-.094.469c-.123.092-.249.197-.344.313-.013-.03-.018-.064-.031-.094-.021-.14-.063-.228-.094-.344l.25-.469zm14.438.531c.04.015.085.016.125.031s.082.046.125.063l1.5.75-1.344-.5-.406-.344zm-10.188 1.156l.406.156v.375.563l-.125.344-.125-.187-.094-.812-.062-.437zm-2.437.75l.25.438.156.875-.094 1.031c-.002.01.002.021 0 .031s.001.021 0 .031l-.156.656c-.037-.08-.056-.17-.094-.25l-.062-2.812zm-8.125.281l-.031.094-.312.313.344-.406zm20.625.188l1.188.5 1.188.781 1.781 1.313-.75-.187-1.656-1.062-1.75-1.344zm-17.656.875v.25.906l-1.187 1.906.281-1.156.906-1.906zm9.125.5l.625.781.344.719.156.625.219 1.625-.406-.812-.937-1.906v-1.031zm-13.156.125l-4.062 5.469-.75 1c1.084-1.821 2.293-3.584 3.563-5.281l1.25-1.187zm17.406 2.25c.015.017.016.046.031.063l.156.5-.156-.25-.031-.312zm-22.375.375l-2.875 2.938.531-1.187 1.156-.844 1.188-.906zm8.219.094l-.5 1.406-.719 1.344.406-1.5.813-1.25zm-2.344.25l-1.031 3.563-.375.781-.031.063-.969 1.219 2.406-5.625zm7 .656l.188.469-.062.875c-.017-.455-.077-.892-.125-1.344zm3.031.313l.219 1.094-.125-.312-.062-.125-.031-.656zm8.188.875l.281.813c-.016-.024-.046-.039-.062-.062l-.219-.75zm-2.75 1.031c.045.087.111.163.156.25.005.052-.005.105 0 .156l-.156-.406zm-1.812.844l.281.438.063.688-.344-1.125zm-3.562.594l.219.438.406.938c.018.053.045.103.063.156v.344l-.094 1.594c-.023-.058.258.624-.656-1.687l.063-1.25v-.531zm-13.031.25l-1.156 3.125-1.094 1.094a100.21 100.21 0 0 0 1.844-3.562c.007-.012.024-.019.031-.031l.375-.625zm-1.875.375l-1.25 1.875.719-1.187.531-.687zm-2.875.906l-.437.813-.344.406c.237-.416.521-.817.781-1.219zm5.125.688l-.906 1.781.563-1.375.344-.406zm11.719 0c.005.012.026.019.031.031l-.437 4.844-.062-.281.063-.5.25-2.25.156-1.844zm-4.969 2.031c.05.019-.027.098-.094.125 0-.011-.031-.02-.031-.031l.125-.094zm-8.156.938c-.025.061-.038.126-.062.188.005-.056-.007-.132 0-.156.017-.015.046-.015.063-.031zm16.125 1.25c.033-.009-.072.067-.156.125.001-.01-.001-.021 0-.031.016-.024.043-.043.063-.062.028-.012.065-.023.094-.031z"/><path id="i" d="M248.35 839.32c-5.929-.042-11.001-.107-1.439-.806-18.475.465-22.314.3-.199-1.744-28.585 1.541-31.213 1.204-.41-3.54-34.872 3.831-36.313 3.253-1.128-5.925-36.204 7.574-37.114 6.854-4.042-6.257l-.144-.061c-29.701 10.056-30.846 9.568-7.082-2.713l-.489-.173c-17.283 7.788-17.244 7.096-3.32-1.154l-.643-.219c-5.178 2.626-5.084 2.289-1.047-.339l-2.338-.736c-2.156 1.208-2.499 1.231-.667-.2l-.924-.274c-8.568 5.389-9.656 5.556-2.233-.632l-1.079-.296c-10.636 7.474-11.935 7.516-3.736-.925l-1.472-.33c-8.484 7.088-9.614 6.973-3.874-.76l-1.857-.312c-3.799 3.814-4.438 3.696-2.182-.303-2.765-.351-5.451-.557-8.038-.584-13.12-.131-25.034.694-35.957 2.193 2.125 3.399 1.486 3.498-2.113.294l-2.002.311c6.024 7.271 4.804 7.353-4.119.682l-1.573.276c9.163 8.426 7.656 8.316-4.274.834l-1.094.229c9.149 6.76 7.77 6.5-2.765.597l-.846.195c4.041 2.678 3.292 2.515-1.1.249l-2.54.612c6.896 3.866 7.333 4.427-1.589.391l-.501.131c17.888 9.242 18.02 9.976-4.453 1.197l-.271.077c28.593 12.75 28.233 13.527-5.474 4.095 35.735 11.912 35.516 12.81-1.75 7.12 35.641 7.243 34.236 7.895-.798 5.979 31.023 3.052 28.416 3.534-.211 3.56 22.196.828 18.372 1.203-.101 1.752 9.585.176 4.527.518-1.392.885 5.928.044 11.002.11 1.438.808 18.475-.466 22.316-.3.201 1.743 28.584-1.541 31.213-1.202.411 3.544 34.872-3.833 36.31-3.256 1.128 5.921 36.89-7.717 37.16-6.831 2.142 7.009 34.408-11.693 33.53-10.43 2.353 5.499 28.291-12.954 26.284-11.243 1.604 3.112 19.557-10.417 16.444-8.188.776 1.512 8.353-4.661 4.153-1.845-.776 1.415 5.134-2.933 9.54-5.424 1.626-.064 15.711-9.63 19.103-11.412 1.01 1.338 23.914-15.568 26.342-16.599 2.067 2.75 28.223-20.614 29.741-20.843 3.827 4.417 28.092-24.877 28.749-24.259 5.211 4.884 24.046-27.013 23.895-25.497 4.667 3.545 18.172-25.069 17.266-22.61 2.883 1.893 11.864-18.595 10.251-15.14 1.406.925 4.969-8.121 2.702-3.626.024 1.609 3.018-5.053 5.624-9.359 1.387-.842 8.918-16.029 10.995-19.229 1.565.682 13.117-25.195 14.735-27.272 3.228 1.417 14.346-31.708 15.572-32.645 5.679 2.027 12.027-35.394 12.937-35.176 7.191 1.735 7.312-35.303 7.972-33.911 6.039.787 3.081-30.725 3.567-28.143 3.595.211.839-21.984 1.217-18.194 1.771.1.174-9.495.519-4.483.892 1.379.045-5.872.112-10.896.816-1.424-.471-18.299-.302-22.102 1.759-.197-1.554-28.312-1.216-30.916 3.573-.404-3.867-34.539-3.286-35.965 5.979-1.119-7.791-36.541-6.898-36.807 7.077-2.121-11.805-34.082-10.53-33.211 5.553-2.333-13.079-28.022-11.354-26.033 3.143-1.59-10.52-19.371-8.27-16.287 1.525-.767-4.706-8.276-1.863-4.115 1.429.767-2.964-5.083-5.474-9.45-.064-1.609-9.724-15.562-11.524-18.922 1.352-1.001-15.72-23.684-16.762-26.092 2.773-2.045-20.81-27.955-21.044-29.459 4.461-3.79-25.116-27.823-24.494-28.474 4.933-5.159-27.275-23.82-25.747-23.67 3.577-4.624-25.314-18-22.829-17.101 1.913-2.856-18.774-11.75-15.29-10.152.934-1.391-8.2-4.921-3.663-2.677 1.627-.024-5.103-2.991-9.453-5.571-.853-1.375-16.183-8.834-19.415-10.89.692-1.551-25.44-12.994-27.539-14.592 1.429-3.195-32.013-14.209-32.961-15.424 2.045-5.623-35.735-11.915-35.516-12.812 1.753-7.123-35.641-7.243-34.24-7.898.796-5.979-31.023-3.055-28.415-3.531.211-3.56-22.194-.829-18.372-1.207.103-1.754-9.589-.169-4.528-.514 1.39-.883z"/><path id="j" d="m270 481.47a30.179 30.179 0 1 1-60.357 0 30.179 30.179 0 1 1 60.357 0z"/><path id="k" d="M210.152 884.416c.036 6.299-3.303 12.134-8.752 15.294s-12.173 3.16-17.621 0-8.788-8.996-8.752-15.294c-.036-6.299 3.303-12.134 8.752-15.294s12.173-3.16 17.621 0 8.788 8.996 8.752 15.294z"/><path id="l" d="m91.298 938.88c29.858 24.345 155.21 45.599 240.44-16.605"/><path id="m" d="M134.64 851.2c-3.956 7.464-5.177 14.808-8.635 21.587l-24.742 11.125c13.239-10.43 25.79-19.788 33.376-32.712z"/><path id="n" d="M146.99 852.86c-4.33 5.158-6.728 10.73-10.567 15.44l-19.589 4.184c11.425-5.774 22.145-10.829 30.156-19.623z"/><path id="o" d="M174.52 842.26c-5.648 8.441-16.388 22.665-26.005 28.129l-23.401 3.002c18.27-9.069 35.43-15.503 49.405-31.131z"/><path id="p" d="M186.58 836.26c-6.235 9.671-13.211 25.104-23.422 30.314l-23.045 5.055c18.129-10.442 35.618-19.231 46.466-35.369z"/><path id="q" d="M196.77 838.23c-3.272 8.565-12.665 20.174-19.854 24.92l-19.534 4.155c14.425-8.76 27.019-14.67 39.388-29.076z"/><path id="r" d="M218.8 832.6c-6.805 7.009-16.361 19.963-22.417 26.329l-22.056 4.39c16.552-9.794 32.019-18.583 44.474-30.719z"/><path id="s" d="M222.91 840.81c-4.442 5.062-6.962 10.579-10.903 15.204l-19.676 3.752c11.549-5.521 22.378-10.34 30.579-18.956z"/><path id="t" d="M357.14 890.74c-7.599 6.005-21.602 14.724-28.38 20.269l-20.588-9.672c17.67-3.149 35.136-.702 48.968-10.598z"/><path id="u" d="M334.21 869.37c-9.764 6.595-27.755 16.171-36.464 22.262l-26.452-10.622c22.703-3.459 45.144-.771 62.916-11.64z"/><path id="v" d="M161.81 847.44c-4.707 6.186-13.477 16.524-20.6 20.105l-16.303.681c13.402-5.78 25.781-9.582 36.903-20.786z"/><path id="w" d="M307.67 857.86c-9.311 4.393-18.034 13.781-26.374 17.86l-28.352-9.29c19.702-1.003 37.964-1.456 54.725-8.571z"/><path id="x" d="M318.85 862.37c-9.076 4.785-17.578 15.012-25.707 19.457l-27.635-10.12c19.204-1.093 37.004-1.586 53.342-9.337z"/><path id="y" d="M153.948 955.553c-2.3-4.211-2.723-9.327-4.719-13.201l-16.409.588c8.525 3.075 16.639 5.59 21.128 12.613z"/><path id="z" d="M158.737 953.828c-1.504-3.224-1.357-6.822-2.64-9.772l-13.72-1.79c6.798 3.271 13.308 6.098 16.36 11.562z"/><path id="AA" d="M176.777 961.845c-1.343-5.349-4.557-14.3-10.06-17.457l-17.11-.805c10.93 5.121 21.949 8.539 27.171 18.263z"/><path id="AB" d="M185.87 965.476c-1.355-6.141-1.206-16.092-7.263-19.049l-16.092-2.195c10.325 6.046 20.749 11.02 23.356 21.244z"/><path id="AC" d="M192.861 961.755c.575-5.554-2.681-12.827-6.737-15.628l-14.325-1.774c8.427 5.112 16.441 8.414 21.061 17.403z"/><path id="AD" d="M205.133 963.915c-2.759-4.333-5.512-12.496-7.922-16.438l-15.563-1.802c9.333 5.694 18.184 10.772 23.486 18.24z"/><path id="AE" d="M210.12 958.222c-1.626-3.154-1.593-6.71-2.987-9.597l-13.943-1.498c6.986 3.096 13.665 5.76 16.93 11.095z"/><path id="AF" d="M242.107 956.645c-4.804-3.551-6.635-8.405-10.851-11.7l-27.594 4.306c15.074 1.034 29.329 1.62 38.446 7.393z"/><path id="AG" d="M335.565 921.98c-3.74-3.621-11.478-8.728-14.746-12.084l-19.5 7.516c12.601 1.197 27.065-1.333 34.246 4.568z"/><path id="AH" d="M310.026 937.423c-5.21-3.905-15.74-9.379-20.311-13.001l-24.403 8.452c16.403 1.146 34.822-1.8 44.715 4.549z"/><path id="AI" d="M259.021 953.745c-4.231-3.766-5.859-9.276-9.572-12.788l-24.197 7.123c13.232.051 25.745-.358 33.769 5.665z"/><path id="AJ" d="M268.23 954.386c-4.087-5.911-4.309-14.903-10.685-16.833l-29.37 9.161c9.618-2.508 20.052-3.329 40.054 7.673z"/><path id="AK" d="M231.954 957.623c-4.77-4.543-6.232-10.695-10.4-14.906l-29.908 5.095c15.994 1.493 31.158 2.409 40.308 9.812z"/><path id="AL" d="M168.061 957.401c-1.426-3.891-4.511-10.347-8.756-12.374l-12.43.381c8.333 3.174 16.584 5.079 21.186 11.992z"/><path id="AM" d="M287.896 946.476c-5.653-2.457-9.045-8.28-14.056-10.578l-25.399 7.66c14.956-.34 28.992-.975 39.455 2.919z"/><path id="AN" d="M300.875 942.886c-5.329-2.731-8.246-9.127-12.961-11.679l-25.142 8.177c14.537-.255 28.198-.838 38.103 3.501z"/><path id="AO" d="m79.315 882.76c25.394-38.916 144.31-95.779 241.62-26.322"/><path id="AP" d="M79.179 879.5c3.202-8.758 28.215-33.146 46.258-39.396"/><path id="AQ" d="m77.343 886.7c24.921-38.916 141.63-95.779 237.12-26.322"/><path id="AR" d="M258.83 843.58c-8.967 6.005-14.909 13.728-22.908 19.273l-33.698-3.86c20.85-3.149 40.284-5.518 56.606-15.413z"/><path id="AS" d="M290.69 847.33c-9.712 9.594-16.492 23.576-26.387 27.226l-32.565-11.214c11.019 2.908 24.343 3.115 58.952-16.012z"/><path id="AT" d="M26.36 820.84c2.801 5.405 3.321 7.027 2.552 3.791-3.003-12.641 10.086-19.646 10.086-19.646-4.422 6.923-1.878 11.734-1.878 11.734s5.276-14.808 16.311-15.93c-7.921 11.89 9.146-.63 13.743-.757-1.599 1.662-1.973 2.559-.73 3.248a84.72 84.72 0 0 0 3.56-.252c3.822-1.665 8.466-3.171 14.058-4.125-3.6 1.254-6.418 2.435-8.682 3.531 2.882-.377 6.011-.869 9.3-1.458 4.42-2.322 10.43-4.617 18.249-5.87-4.903 1.625-8.393 3.129-10.932 4.46l5.674-1.217c4.554-2.639 11.352-5.501 20.708-6.906-5.666 1.788-9.48 3.434-12.082 4.846 3.638-.91 7.279-1.887 10.856-2.93 3.557-2.679 8.908-5.453 16.819-7.097-4.594 1.781-7.646 3.444-9.672 4.912l1.027-.323 9.577-3.241c2.68-2.227 6.536-4.461 12.183-6.193-2.933 1.547-5.041 2.946-6.54 4.189l4.327-1.596 5.126-2.447c2.22-1.461 5.025-2.881 8.588-4.097 21.598-7.37 41.971-15.984 64.245-22.249 14.652-4.12 33.318-7.893 48.799-7.905 72.056-.053 124.2 36.206 129.12 38.541-.001 0-45.132-24.522-96.83-32.129-51.925-8.688-104.69 29.154-145 52.71-27.294 18.668-55.378 30.495-80.209 36.218-14.325 3.817-22.447 3.628-25.634 3.523-6.257-.205-17.238-2.403-21.511-8.521-4.272-6.175-5.621-13.226-5.201-16.814z"/><path id="AU" d="M58.018 816.36c-2.243.715-2.692 3.136-4.594 3.651-.237.065-.497.099-.786.096-.632-.215-1.072-.462-1.368-.732a1.52 1.52 0 0 1-.503-.89c-.479-2.775 2.137-3.853 3.365-6.026-1.219.498-2.564.422-3.739 1.047-1.215.646-2.204 1.652-3.066 2.601-1.039 1.144-1.922 3.524-3.247 4.344-.295.182-.559.367-.798.559-3.095 2.45-1.722 5.769-2.959 9.244l-.252.482c-.255.441-.522.751-.834.901-2.132 1.031-5.579-3.724-6.121-14.918-2.099 4.073-3.881 14.122-2.155 18.359 1.691 4.151-2.561-.596-5.957-4.74-1.279 15.999 11.744 21.682 29.971 21.151 12.876-.375 25.693-2.15 37.968-5.463 16.174-4.364 31.271-11.372 45.487-19.097 4.08-2.216 8.101-4.511 12.08-6.856 5.049-2.975 10.024-6.04 14.944-9.166 40.276-23.73 77.747-57.15 143.08-51.886 38.738 3.121 92.217 26.83 92.217 26.83s-41.522-26.765-97.971-33.272c-56.579-7.124-85.411 8.774-138.99 31.377-40.727 22.185-73.763 32.335-93.653 35.79l-.632.104-.499-.309c-.233-1.576-1.928-3.712-.233-5.137-4.237 0-4.237 3.561-6.535 4.778a3.24 3.24 0 0 1-.826.403c-.604.191-1.323.218-2.224-.035a3.76 3.76 0 0 1-.323-.57c-.358-.779-.454-1.612-.649-2.207-.056-.159-.121-.298-.196-.412z"/><path id="AV" d="M39.782 834.48s-4.528-7.544-1.941-12.521c.038 8.232 6.59 8.836 6.59 8.836-1.535-4.078-4.546-9.038-2.288-12.925.277 3.977 1.711 7.771 5.937 11.099 1.564-1.865 2.658-3.923 2.472-6.11.604.683 1.611 1.33 2.21 2.013 1.428-.856 2.319-2.146 2.4-3.365.258.949 1.67 1.558 2.267 2.236 3.534-2.224 3.184-6.517 6.132-9.357-.039 2.862-1.511 6.565 2.1 9.139 6.683-4.343 9.053-12.248 17.847-14.885-.586 2.156-2.405 6.743-1.394 8.394 5.186-2.224 8.816-7.031 12.554-9.97-.388 1.6-1.111 3.45-1.489 5.059 5.79-1.511 6.661-5.808 11.002-8.046-.51 1.133-.554 2.464-.247 3.553 7.967-1.13 10.649-7.787 16.059-10.601-.108 1.072-.513 2.588-.154 3.856 7.692-2.06 13.354-8.352 19.504-11.426.113 1.842-1.304 4.151-2.819 6.065 7.023-2.923 10.727-7.285 16.908-10.223.174.592.511 1.778.388 2.774 4.829-1.891 5.922-5.246 9.891-7.244.113.388 1.626 1.338 1.733 1.724 4.136-1.398 5.307-4.467 7.641-6.374.273.947.964 1.893.826 2.841 2.801-1.714 4.203-3.968 6.604-5.638 2.134 4.47 8.702-4.225 8.757-4.042 1.318 1.613 7.971-2.126 9.977-3.685 1.055 2.617 37.675-18.311 79.105-17.789l2.275.067.78.03 1.59.065.968.046 1.502.08 1.058.061 1.537.1 1.078.073 2.274.178 1.558.137 1.325.122 1.574.159 1.158.122 1.719.193 1.032.124 1.905.237.631.085c2.411.321 4.893.69 7.445 1.118l.416.069 2.476.435.547.099 2.584.49.283.055a230.36 230.36 0 0 1 15.213 3.536c.021.005.043.011.063.017 11.739 3.153 24.441 7.548 37.83 13.648l.19.085 3.59 1.672 2.243 1.075 2.709 1.346.956.481 2.947 1.516 1.256.664 3.499 1.883.633.352 3.246 1.812c2.044 1.165 7.074 3.78 9.142 5.029.016.01-3.9-1.212-11.295-3.549-12.529-3.962-23.306-5.17-23.292-5.242-.016.063 4.904.021 11.55 1.019-1.93-.528-3.884-1.276-6.366-1.755-5.541-1.088-11.256-1.464-11.254-1.509-.008.048 5.701-.36 11.507-.022l2.183.149c-.071-.023-.133-.044-.178-.055-.026-.938-42.185-7.901-42.28-7.673-.003-.154 18.627 1.034 30.975 2.637-1.696-.221-9.413-1.878-9.925-1.989-.154-.072-8.989-2.248-18.176-3.325-10.736-1.258-21.215-.01-23.476-.052-.005.024 14.24-1.819 23.611-1.489 1.579.03 3.158.101 4.693.197l-6.52-1.53c-1.089-.039-8.407-.305-15.733-.007-7.854.304-24.265 1.78-24.276 1.727 3.183-.674 16.207-2.178 24.059-3.263 1.76-.247 3.526-.461 5.213-.643-15.138-2.776-30.27-4.208-43.513-3.316-54.585 3.678-88.799 35.952-125.53 56.988l-1.861 1.055c-35.325 23.192-71.546 31.296-94.206 32.957-5.306.384-12.101-.555-16.186-3.354-7.032-5.453-6.931-8.796-8.152-12.239 1.408 2.136 5.095 3.444 8.629 3.633z"/><path id="AW" d="M517.46 395.59c9.548-9.253 7.159-22.909 7.159-22.909s-2.52 16.517-17.641 19.386c-3.16 3.379.964 12.595 10.482 3.523z"/><path id="AX" d="M525.44 396.36c-2.623 1.846-5.854 3.339-8.481 4.379 6.757-5.14 10.458-10.87 10.458-10.87s-5.986 7.015-23.176 12.03c-3.293.962-23.312 3.074-23.497 6.256 24.126 2.686 34.406-.737 41.627-5.654-1.724.549-3.924.985-5.993 1.316 5.352-3.258 13.225-10.405 9.062-7.457z"/><path id="AY" d="M280.01 844.18c-8.358 6.279-14.502 14.999-21.987 20.831l-27.135-8.58c17.685-1.434 34.077-2.081 49.123-12.251z"/><linearGradient id="AZ" gradientUnits="userSpaceOnUse"/></defs><g transform="matrix(.26458 0 0 .26458 -291.57326 54.78019)"><path d="m1258 72.034a55.462 11.302 0 1 1-110.92 0 55.462 11.302 0 1 1 110.92 0z" fill="url(#B)"/><g transform="translate(-781.48 -220.12)"><g transform="translate(10.046 539.09)" class="L"><path d="M1926.929-400.017l-1.233 15.009s-.52 6.189 10.405-.666 29.173-6.034 29.13-6.016l-5.979-28.833" class="B"/><g transform="matrix(1.0963 .037899 -.041577 .99928 -201.29 -74.379)" stroke-width=".286" class="E"><use xlink:href="#L"/><use xlink:href="#L" x="-0.6" y="0.52"/><use xlink:href="#L" x="-1.3" y="1.1"/><use xlink:href="#L" x="-1.8" y="1.3"/><use xlink:href="#L" x="-2.4" y="1.62"/><use xlink:href="#L" x="-3" y="1.88"/><use xlink:href="#L" x="-3.7" y="2.27"/><use xlink:href="#L" x="-4.2" y="2.46"/><use xlink:href="#L" x="-4.8" y="2.59"/><use xlink:href="#L" x="-5.3" y="2.53"/><use xlink:href="#L" x="-5.9" y="2.43"/><use xlink:href="#L" x="-6.4" y="2.08"/><use xlink:href="#L" x="-6.7" y="1.3"/></g></g><g class="B"><path d="M1956.1 123.9c-4.037 7.208-11.814 10.495-7.697 17.565s17.441-9.179 17.441-9.179-.962.121-1.637-5.362c-.291-2.36 3.003-6.49 3.003-6.49 3.062-5.026-7.073-3.743-11.11 3.465z" class="L"/><g class="F"><path d="M1970.8 131.36c-12.235 3.044-13.953-9.451-16.059-18.259-2.418-10.112-1.62-18.19.12-24.5 7.027-3.909 15.296-2.52 17.736 2.758-.882 2.603-4.872 15.736-4.872 15.736l.159 18.395" class="P"/><use xlink:href="#M" class="C M"/></g><g class="I"><use xlink:href="#N"/><use xlink:href="#O"/></g></g><g class="F"><path d="M1962.046 83.27c-.589 7.862 2.085 19.725 4.994 29.854 3.085 10.743 6.434 19.535 6.434 19.535l30.089-5.842c7.053-14.355 21.96-50.191 6.132-55.948-9.649-4.874-35.355-.927-35.355-.927-13.895 1.753-12.104 5.966-12.293 13.329z" class="B C"/><g class="E G"><use xlink:href="#P"/><use xlink:href="#P" x="-0.3" y="-0.16"/><use xlink:href="#P" x="-0.9"/><use xlink:href="#P" x="-1.6"/><use xlink:href="#P" x="-2.2" y="0.1"/><use xlink:href="#P" x="-2.9" y="0.29"/><use xlink:href="#P" x="-1.4" y="0.33"/><use xlink:href="#P" x="0.2" y="0.75"/><use xlink:href="#P" x="-3.6" y="0.13"/><use xlink:href="#P" x="-4.3" y="-0.26"/><use xlink:href="#P" x="-5.4" y="-0.55"/></g><g stroke="#555753" class="G"><use xlink:href="#Q"/><use xlink:href="#Q" x="-0.4" y="0.13"/><use xlink:href="#Q" x="-1.2" y="0.26"/><use xlink:href="#Q" x="-2.2" y="0.26"/><use xlink:href="#Q" x="-3.5" y="0.26"/><use xlink:href="#R"/><use xlink:href="#R" x="1.2" y="0.13"/><use xlink:href="#R" x="2" y="0.26"/><use xlink:href="#R" x="2.7" y="0.26"/><use xlink:href="#R" x="3.1" y="0.26"/></g></g><g class="B"><path d="M1949.1 95.71l2.115-6.122c-1.675-1.569-7.071-5.66-11.025-7.764-1.945-1.035-5.424-1.396-5.589-.357s2.619 1.165 4.396 2.095c1.644.86 2.115 1.74 2.115 1.74s-2.042.056-2.453.75-.056 1.758-.056 1.758-1.115.656-1.368 1.444.144 1.455.144 1.455-1.239.6-.996 1.823 8.846 2.405 12.718 3.178z" class="N Q"/><path d="M1954.946 94.66s-1.918-4.073-2.348-6.01c-.401-1.805-.023-3.714.407-5.56.819-3.521 2.926-6.731 5.889-8.712 4.694-3.558 9.342-3.292 9.342-3.292s-2.394 6.538-2.946 12.895.294 10.2.294 10.2-7.672 2.544-10.638.478z" fill="#a40000" stroke-width=".871" class="C"/></g><g class="D E G"><use xlink:href="#S" transform="matrix(-.68858 -1.3331 .76055 -.73481 3696.346 2420.49)"/><path d="M1965.7 115.85c-14.187 6.499-18.28 24.859-18.28 24.859"/></g><g transform="translate(10.046 539.09)"><path d="M1955.9-423.31c-13.153 6.111-18.28 24.859-18.28 24.859m18.48-24.579c-12.118 5.335-18.28 24.859-18.28 24.859m18.78-24.989c-11.471 5.141-18.28 24.859-18.28 24.859M1957-423.09c-11.148 5.205-18.28 24.859-18.28 24.859m18.98-24.899c-11.277 4.882-18.28 24.859-18.28 24.859m18.68-24.309c-11.601 4.236-18.28 24.859-18.28 24.859M1958.5-422c-11.213 2.619-18.28 24.859-18.28 24.859" class="D E G"/><g fill="#a40000" class="B"><path d="M1953.6-467.3s-7.513.101-9.509 6.326c-4.327 20.603-8.098 35.625-9.041 38.736s-3.415 10.502-7.366 19.105-1.921 18.136-1.921 18.136 6.12-4.849 9.359-5.915c5.158-2.436 9.214-5.15 12.438-7.844-3.369 2.416-6.832 3.652-8.594.625-4.117-7.071 3.65-10.355 7.687-17.562s14.187-8.495 11.125-3.469c0 0-3.291 4.14-3 6.5.351 2.851.763 4.187 1.094 4.813 1.932-2.904 2.598-4.858 2.5-4.812l1.75-7.312s0-3.789-3.891-19.086-2.631-28.239-2.631-28.239z"/><path d="M1947.1-452.82s1.035 17.073-1.552 27.42-7.76 22.246-7.76 22.246"/></g><path d="M1954.1-445.48l3.614 16.231 1.552 8.18m-5.666-24.551l3.774 16.506 1.552 8.18m-5.726-24.526l3.659 16.529 1.323 6.488m-5.382-23.037l3.362 16.597 1.278 6.076M1952-445.64l3.271 16.849 1.278 5.848" class="D E G"/><path d="M1982.4-448.04c-2.003.571-7.213 2.847-11.014 3.369-5.523.759-10.564 1.942-15.518-.117-8.237-3.425-10.692-.198-14.799-7.724l-7.893 9.577c11.47 3.239 13.256 8.094 28.846 10.206 4.849.889 16.362 1.556 21.188 1.057 6.4-.663 7.506-4.831 11.151-6.876s5.834-9.258 5.834-9.258z" class="B C F Q"/><g class="D"><use xlink:href="#S" transform="matrix(-.31848 .91152 -.72855 -.25186 2290.1 -2380.3)" class="E G"/><g class="B"><path d="M1966-443.78s-.876 1.116-.587 2.119.786 1.445.786 1.445" stroke-width=".6"/><path d="M1941.6-450.98l-6.859 8.505"/></g><path d="M1944.9-439.04s9.625 2.794 15.16 4.085c6.297 1.469 13.812 1.347 13.812 1.347m-28.972-5.368s8.773 3.049 14.901 4.538c6.638 1.613 13.812 1.347 13.812 1.347m-28.584-5.885s8.322 3.784 14.772 5.055c6.579 1.296 13.812 1.347 13.812 1.347m-28.584-6.407s7.487 3.964 14.901 5.508c6.33 1.318 13.812 1.347 13.812 1.347" transform="rotate(358.717 1959.4 -435.59)" class="E G"/></g></g><g class="B"><path d="M1971.7 65.866c.057-.34-.892-.128-.544-.797s.791.099 1.246-.553-.839-.201-.28-.832.749.164 1.407-.44-.762-.269-.01-.844.686.225 1.529-.316-.665-.33.263-.833.604.28 1.61-.183-.55-.381.527-.8.506.327 1.647-.045-.42-.423.777-.745.394.365 1.639.095-.278-.452 1.006-.669.271.393 1.586.232-.129-.469 1.207-.575.141.411 1.49.362.024-.474 1.376-.465.01.417 1.353.483.176-.466 1.507-.343-.127.412 1.179.59.323-.444 1.597-.212-.258.396.974.681.461-.411 1.643-.074-.382.368.741.754.587-.367 1.644.065-.495.331.489.806.697-.312 1.601.203-.595.285.223.836.788-.249 1.514.335-.678.231-.049.844l-16.847 13.677z" fill="#888a85" class="C"/><path d="M1975.2 46.977c-.486 0-.839.309-.839.706s.706 1.501.706 1.501" class="D"/><use xlink:href="#T" class="C F"/><g class="I"><use xlink:href="#U"/><use xlink:href="#V"/></g><use xlink:href="#W" class="C F"/><g class="I"><use xlink:href="#X"/><use xlink:href="#Y"/><use xlink:href="#Z"/></g></g><g class="F"><path d="M1964.546 169.42c2.597.129 8.461 22.231 9.579 26.073l9.909 29.305c1.917 5.571 1.915 11.665 2.849 17.444 1.473 9.112 3.948 18.07 4.41 27.318.161 3.222-.803 7.137-2.332 9.069l12.528-.358c-.545-2.47-.601-5.931-.716-8.327-.427-8.847.212-17.736.072-26.593-.225-14.223-3.571-52.069-8.065-70.663" class="B C M"/><g class="E G"><path d="M1968.446 172.34l6.951 23.413 10.426 30.364c.469 1.577 1.463 9.511 1.463 9.511"/><use xlink:href="#a"/><use xlink:href="#a" x="0.7"/><use xlink:href="#a" x="1.4"/><use xlink:href="#a" x="2.3"/><use xlink:href="#a" x="3.8" y="-0.18"/><use xlink:href="#a" x="5.4"/><use xlink:href="#b"/><use xlink:href="#b" x="-0.5" y="0.16"/><use xlink:href="#b" x="-1.1" y="0.34"/><use xlink:href="#b" x="-1.9" y="0.25"/><use xlink:href="#b" x="-3" y="-0.12"/></g></g><g class="B"><g fill="#333"><path d="M1989.646 276.17c-4.018 5.076-12.621 6.664-17.8 10.929 5.964 4.519 14.392.377 20.751-.173 4.44-.384 10.256 4.443 10.467-3.992.053-2.126-.391-4.357-.886-6.604z" stroke-width=".964" class="C"/><path d="M2002.346 277.88l-13.444-.274"/></g><path d="M1987.9 170.76c1.327 9.22-.625 20.502-.804 30.093-.171 9.113.953 18.591.167 27.523-1.393 15.812-2.005 37.507-9.919 52.334l11.136-4.581c-.616-10.657 8.395-24.374 10.84-34.762 2.038-8.661.8-17.054 2.014-25.73 1.284-9.18 3.748-18.11 6.169-27.047 1.652-6.099-.939-13.612 2.147-18.104 1.561-2.273 3.994-1.06 2.854-4.908" class="C F M"/></g><path d="M1996.7-363.3s1.025 6.763.183 10.975l-6.402 30.181m5.819-41.246s1.025 6.763.183 10.975l-6.219 29.266m5.336-40.151s1.025 6.763.183 10.975l-5.762 28.26m4.779-39.325s1.025 6.763.183 10.975l-5.122 27.437" transform="rotate(0.258 -117603 2155.6)" class="D E G"/><path d="M1998.8 174.28c-1.116.322-1.649 6.456-1.882 8.295s-2.257 34.048-2.257 34.048l5.675-36.455c.163-3.249-.421-6.209-1.537-5.887z" class="L"/><path d="M1987.6 223.96s.318 3.149 2.705 4.157 5.569-2.142 5.569-2.142" stroke-width=".774" class="B D"/><path d="M1993.4 242.32c-.78.047-1.031 2.631-1.326 3.525S1987.473 261 1987.473 261s6.241-13.593 6.594-15.197.112-3.53-.667-3.483z" class="L"/><g class="D E G"><path d="M1999.646 233.13s-.382 5.885-1.63 10.077c-1.15 3.863-4.447 11.392-4.447 11.392"/><path d="M1999.046 234.23s-.318 4.915-1.565 9.107c-1.15 3.863-3.413 8.935-3.413 8.935"/><path d="M1998.446 235.72s-.188 3.299-1.436 7.49c-1.15 3.863-2.507 6.671-2.507 6.671"/></g><g class="B"><g fill="#333"><path d="M1977.146 280.09c-.987 1.677-2.057 3.262-3.222 4.736-3.099 3.922-12.983 10.641-3.741 11.225 5.836.368 12.786-5.272 16.773-8.146 6.515-4.699 2.802-5.667 2.69-12.567z" class="C"/><path d="M1970.346 289.1c2.469-.64 4.39.823 4.39.823m.71-7.133l14.359-5.945"/><path transform="matrix(1.7922 -.24984 -.7024 1.9249 -917.544 -998.21)" d="m1976.9 923.57a0.9603 0.9603 0 1 1-1.9206 0 0.9603 0.9603 0 1 1 1.9206 0z" stroke-width=".553"/></g><use xlink:href="#M" class="C F M"/><g class="I"><use xlink:href="#N"/><use xlink:href="#O"/></g><use xlink:href="#T" class="C F"/><g class="I"><use xlink:href="#U"/><use xlink:href="#V"/></g><use xlink:href="#W" class="C F"/><g class="I"><use xlink:href="#X"/><use xlink:href="#Y"/><use xlink:href="#Z"/></g><path d="M1971.946 128.58s10.713 1.188 16.324.556 16.724-3.903 16.724-3.903l.031 7.365s-10.495 2.727-16.138 3.337-16.823-.079-16.823-.079z" fill="#fce94f" class="C"/></g><g class="D E"><path d="M1973.946 134.9s8.268.544 13.71.129 15.715-3.104 15.715-3.104" class="G"/><path d="M2003.946 126.121l.065 5.522m-.565-4.852l.065 5.055m-.565-4.543l.065 4.587m-.665-4.167l.065 4.417" stroke-width=".35"/></g><g transform="translate(10.046 539.09)" class="F"><g class="B"><path d="M1995.1-438.75s5.962-4.098 8.201-6.217c2.087-1.975 3.304-4.348 4.4-6.666.92-1.944 1.731-3.964 1.791-5.996.053-1.788-.146-3.677-1.265-5.265-1.095-1.555-2.691-3.265-5.066-3.796-2.854-.638-6.313.117-8.944 1.201-3.267 1.346-4.769 3.611-7.306 6.097-2.061 2.019-3.207 5.866-2.91 7.105s-3.207 5.866-3.207 5.866c.688 4.371 8.818 9.043 14.306 7.671z" stroke-width=".869" class="C"/><path d="M1994.3-462.14s-2.204.175-3.668 1.943-1.626 3.277-1.626 3.277 1.422-.472 2.671-1.721 2.623-3.499 2.623-3.499zm7.9 13.44s2.13-.593 3.228-2.608.969-3.527.969-3.527-1.306.735-2.293 2.2-1.905 3.936-1.905 3.936z" stroke-width=".638"/><path d="M1981.6-447.31s2.866 4.959 7.396 6.407c3.801 1.215 8.416.563 8.416.563"/><path d="M1993.7-454.18s2.441-.686 3.7-3.017 2-4.379 2-4.379-2.386 1.149-3.517 2.843-2.183 4.552-2.183 4.552z" stroke-width=".735"/><path d="M1998.8-451.33s3.461-2.545 4.447-5.048.504-3.147.504-3.147-2.371 1.493-3.319 3.344-1.632 4.851-1.632 4.851z" stroke-width=".766"/></g><path d="M2002.7-463.72c1.376.522 1.988.982 2.598 1.649 1.155 1.261 1.633 4.281 1.633 4.281m-4.833-6.697c1.753.316 2.953 1.243 3.565 1.923 1.685 1.87 1.731 5.523 1.731 5.523m-6.496-8.772c2.835-.135 4.534 1.455 5.484 2.516 2.571 2.871 1.721 8.003 1.721 8.003m-7.856-10.919c3.377-.695 5.39 1.305 6.41 2.41 3.15 3.412 1.684 9.296 1.684 9.296m-6.96-10.755c2.72.444 3.772 1.361 4.575 2.25 2.225 2.463 1.802 6.813 1.802 6.813" transform="matrix(.87041 -.037585 .035427 .94562 276.4 50.322)" class="E G"/></g><g class="B"><path d="M1973.496 128.32c-1.279-2.944.198-10.811 1.343-12.597.893-1.392 2.305-2.352 3.778.316s1.147 9.392-.335 11.685-3.588 3.356-4.787.596z" fill="#babdb6" stroke-width="1.004" class="C"/><path d="M1971.016 121.5l2.391 5.019c2.031-.161 6.738.094 10.4-1.615.398-.186 2.488-.964 1.959-1.69s-1.269-.791-1.792-.313c-1.235 1.13-2.417.347-2.417.347s-.945-.622.653-1.561c2.615-1.537 7.156-1.49 6.984-2.546-.282-1.385-4.715-.469-8.431 1.204 3.807-1.69 7.909-2.222 7.851-2.79.15-1.701-5.197-.099-7.445 1.04 2.223-1.134 6.574-1.723 5.783-2.769-.161-.622-3.089.019-6.393 1.382 1.704-.735 4.417-1.663 4.158-2.38.052-.512-2.495.387-3.083.6-5.249 1.894-8.521 4.604-10.619 6.074z" stroke-width=".932" class="N"/><path d="M1964.327 126.09s.725-6.389 4.174-7.441c.757-.231 1.143-.27 1.143-.27s2.44-.179 4.885-2.548c0 0-1.934 7.784-.782 11.128s4.114 1.629 4.114 1.629c-.614 2.558-9.405 4.551-14.116 2.644" class="F P"/><path d="M1972.646 117.46c-1.309 6.107-1.398 13.241 3.245 12.913" class="D"/></g><g transform="matrix(.58276 0 0 .63504 1946.5 27.32)"><path d="M58.931 80.529s.648-4.716-1.668-14.14c-.971-3.952-2.112-12.874-2.112-12.874l26.443.295S79.223 56.637 77 68.014s-1.946 12.84-1.946 12.84z" stroke-width="1.644" class="B N"/><path d="M56.514 56.275l2.197 12.817m-1.753-12.511l2.197 12.817m-1.531-12.817l2.197 12.817" stroke-width=".329" class="D E"/></g><g transform="translate(10.046 539.09)"><path d="M1964.5-487.43c.562 5.045 2.795 8.252 4.471 10.646 1.95 2.786 3.543 4.338 7.064 4.338 4.065 0 6.374-.266 8.115-4.532 1.063-2.604 2.306-5.718 2.467-10.205.335-9.37 1.889-16.242-10.582-17.227-4.097-.323-7.92 3.046-10.08 8.05l-1.242 3.947s-2.577.484-.794 3.876z" class="B C N"/><g transform="matrix(-.016468 .003043 .003043 .016468 1976.266865 -505.467427)"><use xlink:href="#c" class="B J R"/><path d="M204.13 859c70.07 12.005 92.062 30.42 110.46 49.314-31.39 29.444-71.118 33.876-109.15 43.397-50.808-2.219-100.63-10.367-147.94-33.534 46.927-46.034 96.204-60.354 146.63-59.177z" fill="url(#C)"/><path d="M204.13 859c70.07 12.005 92.062 30.42 110.46 49.314-31.39 29.444-71.118 33.876-109.15 43.397-50.808-2.219-100.63-10.367-147.94-33.534 46.927-46.034 96.204-60.354 146.63-59.177z" fill="url(#D)"/><path d="M204.13 859c70.07 12.005 92.062 30.42 110.46 49.314-31.39 29.444-71.118 33.876-109.15 43.397-50.808-2.219-100.63-10.367-147.94-33.534 46.927-46.034 96.204-60.354 146.63-59.177z" fill="url(#F)"/><use xlink:href="#d"/><use xlink:href="#e" class="B S"/><path transform="matrix(-1.817 .69526 .69526 1.817 314.4 -119.5)" d="M216.94 453.93c-.398 3.065-.247 7.072.246 10.28.562 3.652 1.712 7.056 3.307 10.175l17.222-6.602c-4.35-3.854-4.819-6.906-3.28-11.866l-6.629-4.121c-3.855.805-7.711 1.07-10.866 2.133z" fill="url(#G)" filter="url(#H)" opacity=".932"/><use xlink:href="#f"/><use xlink:href="#g"/><g fill="#cdde87"><use xlink:href="#h" transform="matrix(1.9455 0 0 1.9455 -283.01 -10.716)" filter="url(#I)" opacity=".525"/><use xlink:href="#i" transform="matrix(.82146 0 0 .82146 39.494 196.44)" filter="url(#J)" opacity=".396"/></g><g class="B"><use xlink:href="#j" transform="matrix(.63717 0 0 .63717 39.782 577.63)" fill="#445016" filter="url(#K)" opacity=".721" class="T"/><use xlink:href="#k" class="U"/><use xlink:href="#l" class="D H V"/></g><use xlink:href="#m"/><use xlink:href="#n"/><use xlink:href="#o"/><use xlink:href="#p"/><use xlink:href="#q"/><use xlink:href="#r"/><use xlink:href="#s"/><use xlink:href="#t"/><use xlink:href="#t" x="-9.63" y="-7.64"/><use xlink:href="#t" x="-21.68" y="-13.99"/><use xlink:href="#u"/><use xlink:href="#v"/><use xlink:href="#w"/><use xlink:href="#x"/><use xlink:href="#y"/><use xlink:href="#z"/><use xlink:href="#AA"/><use xlink:href="#AB"/><use xlink:href="#AC"/><use xlink:href="#AD"/><use xlink:href="#AE"/><use xlink:href="#AF"/><use xlink:href="#AG"/><use xlink:href="#AG" x="-10.244" y="5.594"/><use xlink:href="#AG" x="-21.9" y="10.449"/><use xlink:href="#AH"/><use xlink:href="#AI"/><use xlink:href="#AJ"/><use xlink:href="#AK"/><use xlink:href="#AL"/><use xlink:href="#AM"/><use xlink:href="#AN"/><g class="B D H"><g class="W"><use xlink:href="#AO"/><use xlink:href="#AP"/></g><use xlink:href="#AQ" class="X"/></g><use xlink:href="#AR"/><use xlink:href="#AS"/><use xlink:href="#AT"/><use xlink:href="#AU"/><use xlink:href="#AV"/><g transform="matrix(-.88368 0 0 .82146 489.32 510.58)"><use xlink:href="#AW"/><use xlink:href="#AX"/></g><use xlink:href="#AY"/></g><g class="B"><path d="M1965.5-499.29l-1.481 6.198 1.932-.494 1.065 3.168 2.712-3.678 1.538-.618 1.687-1.368-.149 1.103 2.183-2.604-.248 1.545 3.225-2.78-1.389 1.854 2.58-1.412-.397 1.147 1.786-.53-.992 1.5 3.671-2.03-1.488 1.942 3.374-1.059-1.389 1.677 2.154-1.04 1.264-.626 1.639-.922s1.79-6.416-9.72-5.18-13.555 4.206-13.555 4.206z" fill="#8f5902"/><path d="M1978.4-483.03c-.568 1.111-.232.985 1.064 1.173s1.489.532.765-2.128c-.408-1.823-.694-2.242-.742-3.325s-.012-1.476.402-2.994" stroke-width=".698" class="D"/></g><g transform="matrix(.016747 0 0 .016747 1980.696519 -505.05831)"><use xlink:href="#c" class="B J R"/><path d="M204.13 859c70.07 12.005 92.062 30.42 110.46 49.314-31.39 29.444-71.118 33.876-109.15 43.397-50.808-2.219-100.63-10.367-147.94-33.534 46.927-46.034 96.204-60.354 146.63-59.177z" fill="url(#C)"/><path d="M204.13 859c70.07 12.005 92.062 30.42 110.46 49.314-31.39 29.444-71.118 33.876-109.15 43.397-50.808-2.219-100.63-10.367-147.94-33.534 46.927-46.034 96.204-60.354 146.63-59.177z" fill="url(#D)"/><path d="M204.13 859c70.07 12.005 92.062 30.42 110.46 49.314-31.39 29.444-71.118 33.876-109.15 43.397-50.808-2.219-100.63-10.367-147.94-33.534 46.927-46.034 96.204-60.354 146.63-59.177z" fill="url(#F)"/><use xlink:href="#f"/><use xlink:href="#d"/><use xlink:href="#e" class="B S"/><g fill="#cdde87"><use xlink:href="#h" transform="matrix(1.9455 0 0 1.9455 -283.01 -10.716)" filter="url(#I)" opacity=".525"/><use xlink:href="#i" transform="matrix(.82146 0 0 .82146 39.494 196.44)" filter="url(#J)" opacity=".396"/></g><g class="B"><use xlink:href="#j" transform="matrix(.63717 0 0 .63717 39.782 577.63)" fill="#445016" filter="url(#K)" opacity=".721" class="T"/><use xlink:href="#k" class="U"/></g><path transform="matrix(1.9455 0 0 1.9455 -283.01 -10.716)" d="M216.94 453.93c-.398 3.065-.247 7.072.246 10.28.562 3.652 1.712 7.056 3.307 10.175l17.222-6.602c-4.35-3.854-4.819-6.906-3.28-11.866l-6.629-4.121c-3.855.805-7.711 1.07-10.866 2.133z" fill="url(#G)" filter="url(#H)" opacity=".932"/><use xlink:href="#l" class="B D H V"/><use xlink:href="#m"/><use xlink:href="#n"/><use xlink:href="#o"/><use xlink:href="#p"/><use xlink:href="#q"/><use xlink:href="#r"/><use xlink:href="#s"/><use xlink:href="#AR"/><use xlink:href="#t"/><use xlink:href="#t" x="-9.63" y="-7.64"/><use xlink:href="#t" x="-21.68" y="-13.99"/><use xlink:href="#u"/><use xlink:href="#AY"/><use xlink:href="#AS"/><use xlink:href="#g"/><use xlink:href="#v"/><use xlink:href="#w"/><use xlink:href="#x"/><use xlink:href="#y"/><use xlink:href="#z"/><use xlink:href="#AA"/><use xlink:href="#AB"/><use xlink:href="#AC"/><use xlink:href="#AD"/><use xlink:href="#AE"/><use xlink:href="#AF"/><use xlink:href="#AG"/><use xlink:href="#AG" x="-10.244" y="5.594"/><use xlink:href="#AG" x="-21.9" y="10.449"/><use xlink:href="#AH"/><use xlink:href="#AI"/><use xlink:href="#AJ"/><use xlink:href="#AK"/><use xlink:href="#AL"/><use xlink:href="#AM"/><use xlink:href="#AN"/><g class="B D H"><g class="W"><use xlink:href="#AO"/><use xlink:href="#AP"/></g><use xlink:href="#AQ" class="X"/></g><use xlink:href="#AT"/><use xlink:href="#AU"/><use xlink:href="#AV"/><g transform="matrix(-.88368 0 0 .82146 489.32 510.58)"><use xlink:href="#AW"/><use xlink:href="#AX"/></g></g><g transform="matrix(.63505 0 0 .63505 1937.1 -517.15)"><path d="M60.373 59.807s1.687 2.662 4.566 2.677 5.642-2.584 5.476-2.873c-.079-.137-.957.209-1.606.273-.662.066-2.022-.072-2.678.025-.369.105-.716.448-1.109.446-.5-.003-.748-.289-.973-.374-.439-.131-3.615-.317-3.675-.174z"/><path d="M69.843 59.691s-.406.212-.751.258l-1.702.205c-.334.105-1.466.539-2.335.535s-1.712-.104-1.772-.176-.772-.23-.843-.254-.13-.096-.261-.132-.333-.049-.44-.062-.392-.073-.392-.073l-.63-.122.938.279c.047.06.035.119.13.132s.262-.129.345-.081.058.298.117.346.18-.201.251-.153-.001.238.082.274.108-.166.215-.165-.002.285.046.286.239-.213.299-.213.153.251.213.239-.035-.131.072-.142.166.144.213.144.262-.106.298-.094.034.238.07.25.097-.249.168-.249.095.119.095.119.048-.071.108-.083-.014.309.034.309.097-.273.156-.273-.013.262.034.262.228-.296.311-.272.105.334.165.346.025-.178.061-.19.106.143.19.132.12-.225.168-.237.166.156.201.156.014-.309.121-.309.081.334.153.322.037-.321.109-.344.106.227.165.215.073-.285.156-.308.237.239.32.204.001-.262.073-.297.249.239.296.204.001-.274.061-.309.284.228.332.204.002-.297.073-.321.462.312.534.241-.046-.286.026-.321.94-.078 1.036-.113.692-.365.692-.365z" fill="#1a1a1a"/><g fill="#ccc"><path d="M63.971 61.58s.314-.046.338-.126-.075-.171-.075-.224.077-.161.068-.194-.085-.114-.132-.115-.133.075-.153.127.042.185.027.247-.125.218-.073.285zm-.38-.03c.062.01.043-.076.077-.104s.166-.004.195-.065-.018-.2-.032-.266.015-.152-.047-.171-.264.564-.193.607zm-.356-.035c.071.005-.046-.366-.022-.39s.114.034.143-.013.029-.147.01-.161-.086.114-.133.09.001-.138.025-.176.034-.114.001-.142-.133.066-.153.132l-.097.356c0 .047.018.138.051.157s.1.01.123.02.009.124.052.129z"/><path d="M62.865 61.323c.081 0 .09-.042.095-.085s-.033-.105-.032-.143a1.33 1.33 0 0 1 .082-.27c.024-.047.034-.119.001-.142s-.081.047-.11.118-.178.45-.036.522zm-.246-.106c.062 0 .062-.104.082-.147s.053-.057.057-.09a.39.39 0 0 0-.047-.162c-.019-.024-.023-.062-.061-.062s-.1.056-.081.118a.96.96 0 0 1 .046.214c-.001.048-.043.099.004.128z"/><path d="M62.788 60.7c.005-.043.005-.095-.028-.105s-.119.056-.096.099.123.043.123.005zm-.519.297c.033-.005.039-.114.053-.161l.058-.166c.01-.019.076-.057.1-.09s.062-.08.048-.099-.129.132-.153.127.029-.114-.009-.119-.091.147-.096.18-.053.085-.067.123.023.081.023.114-.062.071.042.09z"/><path d="M62.032 60.919c.038 0 .038-.095.024-.128s-.014-.09-.061-.091-.02.237.037.219zm.049-.337c.028 0 .038-.081.039-.119s.02-.157-.037-.162-.054.266-.002.28zm1.353 1.005c.048-.023-.018-.114-.018-.162s.025-.218.068-.294.091-.194.082-.242-.075-.143-.113-.138-.048.142-.053.175-.06.617.034.66zm.988.015c.071.01.019-.047.057-.061s.143-.061.138-.118-.052-.034-.066-.072a.38.38 0 0 1-.013-.147c.005-.043.048-.099.048-.147s-.023-.071-.071-.062-.086.08-.086.156.013.271-.006.313-.048.085-.001.138zm.38-.131c.048-.009.024-.085.029-.128s.033-.038.038-.085.006-.185-.023-.209.001-.104-.037-.105-.096.132-.096.223.042.171.056.205 0 .076.033.1zm.223.029c.057.005.038-.076.062-.08s.061.081.09.072.025-.223.025-.271.029-.062.067-.061.1-.028.123.001.046.276.046.318-.03.204.013.223.109-.009.095-.085-.007-.37-.007-.418-.018-.195-.061-.209-.119.071-.162.066-.137-.072-.171-.072-.058.152-.091.109-.066-.162-.104-.167-.048.099-.053.166-.015.166.028.166.067-.109.091-.061-.035.266.008.304z"/><path d="M65.77 61.69c.057.01.063-.199.063-.247s.049-.204.049-.27-.027-.19-.07-.19-.072.099-.11.099-.033-.105-.076-.086-.03.204-.03.256.008.185.056.195.043-.038.071-.047-.011.275.046.29zm.329-.255c.048-.005.029-.171.058-.175s.104.162.132.157.006-.256-.008-.309-.094-.19-.132-.191-.029.095-.077.099-.09-.024-.114.023.061.119.089.171-.001.204.051.223zm.461-.045c.033 0-.003-.247-.013-.276s-.099-.19-.137-.191-.025.247-.025.29.004.147.037.166.029-.09.072-.099.028.105.066.11zm.204-.051c.062 0 .062-.095.029-.176s-.046-.228-.098-.233.009.147.013.195.013.209.056.214z"/><path d="M66.931 61.316c.071-.004.015-.085-.004-.138a.47.47 0 0 1 .02-.252c.024-.015.079.328.126.328s.073-.261.025-.318-.175-.2-.227-.196-.035.252-.026.332-.015.233.084.243zm.333-.15c.043 0 .019-.062.057-.08s.081-.014.091-.061-.013-.185-.027-.228-.042-.109-.109-.134-.076.019-.086.066.123.029.147.082.056.176.008.185-.109-.005-.124.014-.039.142.042.157z"/><path d="M67.611 61.058c.076-.004-.027-.19-.046-.204s.048-.09.005-.109-.076.004-.076.057.047.048.057.091-.006.157.061.167zm.229-.089c.057-.023.048-.133.015-.199s-.07-.19-.099-.214-.108-.157-.146-.143.028.09.042.138a4.22 4.22 0 0 1 .056.261c.009.052.037.181.132.157zm.19-.084c.038-.005.019-.085.02-.123s.015-.176-.047-.176-.005.104-.01.161-.024.123.037.138z"/><path d="M68.301 60.848c.029-.014-.004-.052-.009-.076s-.003-.261-.06-.262-.044.18-.001.228-.02.109.071.11zm.114-.037c.038-.019.019-.085-.004-.133s-.052-.114-.085-.11.033.095.033.138-.01.1.056.105zm-.545-.236c.071-.009.081-.047.076-.095s-.042-.09-.071-.072-.077.142-.006.166zm.475-.064c.062-.023.029-.133-.023-.133s-.076.066-.058.104.024.024.081.029zm.591-.296c.057-.014.02-.104-.037-.095s-.048.109.037.095zm-.367.317c.052-.014.024-.1-.033-.09s-.029.085.033.09zm.18.043c.057-.038.019-.081-.033-.067s-.048.099.033.067z"/></g></g><g class="D"><path d="M1977.6-476.91c.685.309 1.63-.044 1.63-.044" stroke-width=".43" class="B"/><g transform="matrix(-.60577 .80097 -.72867 -.66588 2820.3 -2389.1)" stroke-width=".201" class="E"><path d="M1985.9-485.67s-.274 2.927-1.372 6.036-2.362 4.79-2.362 4.79"/><path d="M1985.4-484.69s0 1.921-1.097 5.03-1.921 3.933-1.921 3.933"/><path d="M1984.9-483.74s.091.915-1.006 4.024-1.463 3.11-1.463 3.11"/></g></g></g><g class="F"><g transform="matrix(-.075418 -.067221 -.067221 .075418 2030.6 34.136)" class="B O"><g class="J"><path d="M335.19 343.62c5.155 14.362 33.817 16.123 34.125-10.954-6.717-55.122-6.406-92.796-23.3-147.43-3.226-10.827-10.33-12.446-11.861-28.847l-1.63 11.954c-5.148-11.9-3.995-20.407-1.63-29.884-1.992 5.252-4.712 7.597-5.977 15.757-2.354-7.245-3.74-14.489-7.063-21.734-3.885-5.803 3.135-7.487 6.52-10.867-10.408 3.242-13.061 6.485-10.867 24.994-.35-15.719-7.969-18.836-11.954-28.254-1.288-5.627 3.482-8.347 13.584-5.977-12.096-7.346-19.346-.395-17.387 13.584-.658-6.038-1.074-12.561-7.063-17.387-2.898-3.803-6.765-5.183-8.694-11.41-1.036 8.097 3.26 12.316 4.89 18.474-7.324-15.877-46.641-16.535-58.589 4.85-14.407-6.237-42.05 13.308-40.3 41.878 1.921-9.181 8.204-18.119 15.214-23.907-10.954 12.867-14.637 22.583-10.324 32.057 4.546 7.551 5.214 16.798-1.63 19.017 10.226-1.612 8.094-11.464 9.839-20.104 1.084-8.283 2.895-10.992 5.918-14.67-8.604 13.469-4.122 27.422 1.087 35.318 4.714 5.676 8.459 9.655 9.78 16.3 2.117-3.862 2.78-8.451 1.747-13.283 5.954 11.79 18.936 21.884 38.46 20.346-12.872-4.939-23.805-12.058-25.53-25.236 4.997 11.545 13.872 19.213 24.201 21.308 7.252.974 11.354-.475 15.456-3.135l-10.324-3.803c27.381 6.941 29.802-25.861 2.173-29.341 14.456 2.332 19.219 5.633 21.558 17.9 1.51-5.918 1.082-6.99-.801-12.181 6.239 3.921 4.724 13.173 3.694 19.275 1.992-4.709 4.712-6.025 4.523-11.704-.23-4.107-3.367-8.456-9.413-13.29 6.648 3.316 8.691 5.178 11.219 8.495-1.778-16.326-7.918-20.293-30.779-22.078 13.591-2.872 32.999 3.222 32.292 20.948-1.184 15.846-12.061 21.757-21.969 23.063 5.737 1.867 11.716 4.462 15.757 9.237l-13.584-.543c10.808 3.612 23.555 10.132 30.971 19.56-4.709-1.811-5.541-5.561-12.915-5.434 6.706 3.074 8.808 10.752 14.545 13.584l-11.41.543c7.671 7.362 17.765 13.028 20.104 24.994-3.579.35-4.25-.028 3.803 11.954-5.816-2.069 0 5.071 0 7.607 13.558 21.992 14.272 48.345 13.532 58.462z"/><path d="M226 119.73c-1.126 6.294-2.054 12.191-.994 17.094-6.427.133-16.233-2.319-19.281 15.902 2.849-6.626 5.301-9.674 10.336-12.125 3.578-1.391 6.758-.994 9.541 0l1.59 7.553c-11.197 8.15-11.264 11.926-10.932 26.834.47-.925 1.694.446 1.608-.587-.867-10.472 3.632-23.527 10.318-23.464l4.572 8.547c-7.222 3.512-6.493 13.384.596 17.094-3.313-7.023-3.048-10.667 1.193-13.318l5.764 5.764c-.861 5.102.265 10.005 3.379 13.516-1.06-4.439-2.12-8.282-.199-10.336.928-1.789 3.445-1.193 5.168-1.789-2.385-.729-5.367-1.855-7.752-4.572-.729-1.193-.861-2.584.199-4.77 2.12-2.054 5.632-3.114 11.131-3.18-3.843-1.391-7.885-1.789-12.324 2.186-1.391.199-2.584 1.59-4.174-.596-1.988-2.915-3.578-6.427-5.168-9.74-.53-4.307 3.313-7.222 8.547-8.348 5.566-1.06 12.92-.53 18.486 1.789-3.379-3.18-9.342-4.174-15.504-4.572-5.102-.464-9.21 2.452-12.324 4.969l-2.385-9.541c5.102-4.837 17.558-8.481 26.635-8.547-8.15-2.65-17.492-.133-26.238 4.572-.729-3.379.53-6.758.795-10.137l-2.584-.199z"/></g><path d="M215.47 148.55c-1.988.133-3.578 2.65-4.77 4.572m28.22-19.482c2.982 3.644 4.969 3.114 6.559.795M214.47 182.74l3.777 7.553m26.443 1.987c2.12 3.445 4.24 6.294 6.957 7.951m8.343-12.521c1.723 3.843 3.644 5.897 6.361 6.758m2.189-8.158c.066 3.512 1.325 5.632 3.18 6.957m-15.3-77.717h3.975m-.995 11.53c3.247-.199 4.505 1.193 4.373 2.385m-5.963 4.775h4.771m-4.971 13.31c2.253-.663 6.493 1.06 6.758-1.988" class="H"/><path d="M320.02 167.03c-4.784 4.311-12.61 15.119-8.547 27.033-4.199-3.691-7.431-8.073-5.963-17.293-.861 2.385-.617 3.526-2.446 5.497-2.353-.142-2.771-.007-3.742-3.328-.095-2.961-.051-3.572 2.204-4.598 2.982 1.193 6.101 3.353 7.977 1.643-2.325-1.694-5.894-2.697-6.974-5.773 1.257-8.584 5.831-12.191 8.746-18.287-4.298 1.991-7.49 5.641-8.746 10.535-1.843-8.833-1.474-18.91 3.18-29.816-4.928 3.944-7.783 10.792-8.15 18.883-5.751-6.461-8.323-11.125.994-16.896-2.745-.919-4.108.928-6.162 1.391l-7.951-10.932c-1.958-2.699-1.566-5.537 1.59-9.342-2.457 1.058-6.85 1.839-6.68 9.255-3.396-1.572-7.622-1.762-9.221 2.472 6.043-.245 9.875-.074 12.324 2.584l7.355 8.348c-1.316 3.828.133 5.168.199 7.752-7.737.662-16.166-2.824-19.48-7.553-.303 9.096 15.014 8.101 22.037 10.976 7.97 5.476 9.442 15.1 7.044 20.3-2.394-11.859-6.309-7.597-11.192-14.778 3.37 6.236 7.846 7.911 5.963 13.318 1.723 5.301.404 5.486 5.168 15.902l12.721 14.312c-5.117-3.825-12.307-3.226-19.082-3.18 23.052 4.651 25.367 9.855 35.978 32.201-9.484-8.748-19.935-15.976-32.599-21.269 12.966 8.882 27.038 18.731 35.58 31.207-8.38-6.478-15.931-13.372-27.629-15.703 25.173 13.341 31.269 16.591 35.706 45l-34.895-26.842c1.652 1.438-1.446.101.171 1.442 28.729 23.834 36.992 27.415 39.086 45.196-8.671-9.481-16.236-15.231-26.842-21.809 10.06 9.269 27.169 20.75 28.52 31.54-8.164-6.263-16.191-13.909-24.493-18.789 8.5 9.059 26.953 18.671 25.5 27.178-6.238-6.14-8.053-5.368-12.079-8.053 11.365 9.429 13.607 10.149 15.434 22.48-4.809-3.579-8.512-7.573-14.428-10.737 5.27 5.948 11.785 7.61 12.079 15.77l-7.046-2.684 4.697 5.033 7.382 9.73 1.342 17.447 3.02-1.342-.671-16.105-2.349-20.467 1.678-12.414-3.355 2.684c-.685-5.486-.126-10.42 1.678-18.118l-3.691 6.375c-2.035-8.672 1.322-13.336 3.02-19.796l-6.039 9.73c1.23-9.954-3.484-23.364 3.691-29.862-4.949 2.308-4.921 7.382-7.382 11.072.202-7.099 3.722-15.442 9.73-20.467l-11.408 12.414c1.999-6.204 5.243-12.685 9.73-17.783-3.329 1.597-8.178 6.097-10.401 13.086-6.564-9.579 1.249-18.33 4.362-25.836-3.987 1.518-6.039 9.395-9.059 14.092-7.623-13.803-5.846-15.441 2.013-38.921-5.067 5.005-6.263 14.987-9.395 22.48-8.144-12.835-2.878-25.671 3.355-38.921-6.041 6.697-8.902 15.329-11.072 23.822-5.3-10.401-2.167-19.42 2.349-31.204-3.849 4.479-6.178 12.137-9.059 22.145-3.296-10.175-1.2-21.594 4.627-33.427z" class="J"/><path d="M272.16 148.96c.354 3.287 10.265 1.416 11.074 5.765" class="H"/><path d="M260.02 109.06c8.546 2.124 15.878 2.276 16.536 10.923l1.062-.759c.657-8.394-4.298-11.631-16.232-10.619l-1.365.455z" class="J"/></g><path d="M1974.746 32.97s5.677-3.192 8.8-3.526c2.901-.31 13.355 5.171 13.355 5.171 5.679 2.781 7.681 6.452 6.543 8.587-.994 1.865-2.914 1.044-6.331.283 0 0-2.489-1.499-5.711-3.166-2.575-1.333-6.944-1.837-8.204-1.501-4.336 1.158-7.471 2.928-7.471 2.928-3.101 3.536-6.611 1.67-6.882-.761s1.908-4.998 5.902-8.014z" class="B C"/><g class="E G"><path d="M1988.846 31.78s4.923 1.861 8.795 4.139c5.446 3.204 5.786 6.177 4.915 7.178-1.006 1.157-5.82-.582-5.82-.582"/><path d="M1989.046 32.29s4.765 1.724 8.512 3.834c5.271 2.967 5.6 5.722 4.757 6.649-.974 1.071-5.633-.539-5.633-.539m-7.936-9.754s4.688 1.652 8.376 3.674c5.186 2.844 5.51 5.483 4.681 6.372-.958 1.027-5.543-.517-5.543-.517m-7.014-8.779s4.168 1.493 7.446 3.319c4.611 2.569 4.899 4.954 4.161 5.757-.852.928-4.928-.467-4.928-.467"/></g></g><path d="M1971.146 65.49s6.344.977 10.186 4.533c1.768 1.637 3.7 6.138 3.7 6.138s.259-3.778 3.068-6.506c5.873-5.705 14.953-5.901 14.953-5.901s-2.873 7.434-5.481 10.604-12.413 7.851-12.413 7.851-5.772-4.018-8.559-6.71-5.454-10.009-5.454-10.009z" fill="#d3d7cf" class="B C"/><g class="D E G"><path d="M1996.446 67.71s-.806 2.9-2.561 5.853c-2.468 4.153-8.597 8.414-8.597 8.414"/><path d="M1977.246 71.89s.527 1.394 2.465 4.264c1.623 2.404 5.83 5.811 5.83 5.811"/></g><g transform="matrix(.45433 0 0 .45433 1886.9 -19.266)"><path d="M132.693 203.055l-.313 3.443-3.193-1.326-.582 3.408-3.079-1.572-.848 3.352-2.946-1.809-1.108 3.275-2.795-2.034-1.362 3.178-2.627-2.248-1.607 3.061-2.442-2.447-1.842 2.926-2.243-2.631-2.066 2.772-2.03-2.799-2.277 2.601-1.804-2.949-2.474 2.415-1.567-3.082-2.656 2.213-1.32-3.195-2.821 1.998-1.065-3.289-2.969 1.77-.804-3.362-3.099 1.532-.538-3.415-3.21 1.284-.268-3.447-3.301 1.028.003-3.457-3.371.766.274-3.446-3.421.499.544-3.414-3.449.229.81-3.361-3.457-.042 1.071-3.287-3.443-.313 1.326-3.193-3.408-.582 1.572-3.079-3.352-.848 1.809-2.946-3.275-1.108 2.034-2.795-3.178-1.362 2.248-2.627-3.061-1.607 2.447-2.442-2.926-1.842 2.631-2.243-2.772-2.066 2.799-2.03-2.601-2.277 2.949-1.804-2.415-2.474 3.082-1.567-2.213-2.656 3.195-1.32-1.998-2.821 3.289-1.065-1.77-2.969 3.362-.804-1.532-3.099 3.415-.538-1.284-3.21 3.447-.268-1.028-3.301 3.457.003-.766-3.371 3.446.274-.499-3.421 3.414.544-.229-3.449 3.361.81.042-3.457 3.287 1.071.313-3.443 3.193 1.326.582-3.408 3.079 1.572.848-3.352 2.946 1.809 1.108-3.275 2.795 2.034 1.362-3.178 2.627 2.248 1.607-3.061 2.442 2.447 1.842-2.926 2.243 2.631 2.066-2.772 2.03 2.799 2.277-2.601 1.804 2.949 2.474-2.415 1.567 3.082 2.656-2.213 1.32 3.195 2.821-1.998 1.065 3.289 2.969-1.77.804 3.362 3.099-1.532.538 3.415 3.21-1.284.268 3.447 3.301-1.028-.003 3.457 3.371-.766-.274 3.446 3.421-.499-.544 3.414 3.449-.229-.81 3.361 3.457.042-1.071 3.287 3.443.313-1.326 3.193 3.408.582-1.572 3.079 3.352.848-1.809 2.946 3.275 1.108-2.034 2.795 3.178 1.362-2.248 2.627 3.061 1.607-2.447 2.442 2.926 1.842-2.631 2.243 2.772 2.066-2.799 2.03 2.601 2.277-2.949 1.804 2.415 2.474-3.082 1.567 2.213 2.656-3.195 1.32 1.998 2.821-3.289 1.065 1.77 2.969-3.362.804 1.532 3.099-3.415.538 1.284 3.21-3.447.268 1.028 3.301-3.457-.003.766 3.371-3.446-.274.499 3.421-3.414-.544.229 3.449-3.361-.81-.042 3.457z" stroke-width=".249" class="E"/><g class="B"><path transform="matrix(.8595 0 0 .8595 18.05 35.731)" d="m160 144a60 60 0 1 1-120 0 60 60 0 1 1 120 0z" fill="url(#A)"/><path d="M124.4 165.19c.48.033 1.106.248 1.525 1 .342.614 1.145.712 1.519.588.624-.206 1.421-.349 2.194.201s1.607.134 1.46-.869-.509-1.897-1.471-2.45c-2.101-1.208-.641-2.05-1.794-3.262s-.9-1.587-.862-3.238c3.904-.587 6.117-1.712 8.588-4.799s3.429-5.629 3.685-9.5.034-6.379-1.638-9.592-3.433-4.76-6.485-6.364-6.041-1.988-8.805-1.942-4.605.249-6.166 1.14-2.99 2.012-3.9 2.02-1.531-.231-1.973-.57c-.118 3.001 2.582 3.261 4.998 3.325s3.901-.936 6.126-.564 5.869 1.384 7.643 4.474 1.835 4.181 1.688 6.772-2.377 4.524-3.636 4.545-1.54-.343-2.641-1.062-6.727-7.682-8.646-9.246-3.813-2.047-5.859-2.072-2.568.044-4.217.72-2.663 1.921-3.993 2.682c-.68-.4-1.102-.997-1.726-1.453-2.231-1.63-3.389-2.07-6.04-1.812-1.524.148-3.445 1.019-4.591 2.016-2.041 1.775-3.728 4.246-5.09 6.123-1.061 1.462-2.31 3.211-4.092 3.758-1.946.597-3.411-1.924-3.626-3.322-.122-.792-.281-1.487-.282-2.359s.088-1.93.339-2.839.682-1.813 1.148-2.563c.759-1.22 2.001-2.498 3.292-3.155.725-.369 2.431-1.039 3.506-1.063 1.317-.029 2.321.414 3.54.497 1.474.101 4.108.432 5.264-.707.736-.725.828-1.208.954-2.154-.325.268-.779.444-1.184.478-.923.078-1.788-.676-2.533-1.113-.614-.36-1.483-1.003-2.29-1.328-2.072-.835-4.617-.811-6.804-.587-1.753.179-4.026.959-5.563 1.829-1.545.874-3.033 2.347-4.124 3.736-1.372 1.748-2.122 3.247-2.618 5.427-.635 2.784-.811 6.965-.043 9.71.605 2.163 2.614 5.485 4.324 7.114 1.687 1.606 3.634 2.382 5.849 2.806-.087.447-.101.864-.216 1.23-.163.52-.474 1.1-1.114.917-.255-.073-.392-.136-.728.158s-.161 1.431.785 1.941c.48.259.986.315 1.754.33s1.967.019 2.801-.127 1.332-.808 2.255-.911c1.427-.16 2.52-1.191 3.665-1.928.478-.308.639-.311.914-.467l-.446 1.365s-.057.843-.109 1.193-.149.622-.206.906c-.229.204-.302.515-.686.613s-.986-.054-1.379-.107-.657-.267-.965-.208-.601.28-.86.487-.481.237-.69.754-.401 1.575-.43 2.282.051 1.346.26 1.907.394.81.961 1.366 1.492 1.372 2.414 1.94c-.17.251-.245.482-.51.755s-.817.579-1.063.867-.37.495-.374.818.013.743.274 1.095c.653.877 1.425 1.034 2.365 1.446-.158.986-.287 1.691-.058 2.675.093.401.3 1.311.795 1.544s1.45.12 2.054.216.942.187 1.413.281c.286.414.713.87.859 1.241s.102.504-.021.883-.541.93-.659 1.374-.141.921-.031 1.366.3.767.679 1.162 1.124.705 1.496 1.025.742.359.64.889c-.139.728-1.203 1.908-1.972 2.189-.461.168-1.08.115-1.64-.121.038.622.576 1.041.927 1.453-.952-.272-1.875-.793-2.513-1.484.198.6.879 1.563 1.898 2.408s1.013.672 1.519 1.009a6.65 6.65 0 0 1-2.499.006c.392.216 1.036.521 1.888.61s1.377.026 2.145-.16 1.469-.885 2.4-1.366c-.091.345-.155.76-.546 1.115s-.983.536-1.613.843l2.43-.292c.583-.129.974-.265 1.401-.476s.755-.519 1.133-.779c-.181.346-.235.752-.543 1.037s-.808.391-1.213.587c.422-.01.828.082 1.266-.028s.849-.283 1.304-.619.925-.748 1.313-1.171.868-.97 1.013-1.359-.087-.662-.131-.992c.268.176.598.273.804.529s.389.489.298.935-.503.991-.794 1.487c.868-.71 1.353-.983 1.559-1.839.193-.802-.307-1.529-.687-2.136-.189-.301-.471-.581-.648-.872.392-.384.84-.713 1.176-1.151s.477-1.03.82-1.448.805-.684 1.207-1.025c-.353.759-.934 1.69-1.06 2.277s.141.947.35 1.264.545.388.864.583.816.041 1.006.331.241.724.059 1.011l-.745 1.177c.275-.139.748-.542.961-.828s.541-.55.585-.937.067-.722-.184-1.067-.937-.46-1.243-.724-.479-.437-.462-.779.352-.587.639-.803c.877-.658 2.002-1.264 2.747-2.057.421-.448.623-.81.707-1.119s-.006-.55-.214-.93-.926-.888-1.013-1.301.275-.502.602-.647.948.075 1.251-.179-.089-.786.253-1.078 1.123-.129 1.527-.443.57-.704.709-1.16.155-.955.061-1.285-.377-.388-.548-.559-.319-.313-.091-.568.973.014 1.402-.313.166-1.112.469-1.442.847-.201 1.134-.307.4.267.576-.322.181-2.346.418-3.001.702-.044.918-.696.011-1.693.109-2.677l.441-2.677c1.538 1.033 2.553 1.357 4.204 1.649.138 4.042.518 6.422-.854 10.906s-4.148 7.127-7.894 10.923c4.942-3.703 7.302-6.713 8.779-10.569s1.193-7.082 1.045-10.796z" stroke-width=".1" class="F"/></g><path d="M124.4 165.19c.48.033 1.106.248 1.525 1 .342.614 1.145.712 1.519.588.624-.206 1.421-.349 2.194.201s1.607.134 1.46-.869-.509-1.897-1.471-2.45c-2.101-1.208-.641-2.05-1.794-3.262s-.9-1.587-.862-3.238c3.904-.587 6.117-1.712 8.588-4.799s3.429-5.629 3.685-9.5.034-6.379-1.638-9.592-3.433-4.76-6.485-6.364-6.041-1.988-8.805-1.942-4.605.249-6.166 1.14-2.99 2.012-3.9 2.02-1.531-.231-1.973-.57c-.118 3.001 2.582 3.261 4.998 3.325s3.901-.936 6.126-.564 5.869 1.384 7.643 4.474 1.835 4.181 1.688 6.772-2.377 4.524-3.636 4.545-1.54-.343-2.641-1.062-6.727-7.682-8.646-9.246-3.813-2.047-5.859-2.072-2.568.044-4.217.72-2.663 1.921-3.993 2.682c-.68-.4-1.102-.997-1.726-1.453-2.231-1.63-3.389-2.07-6.04-1.812-1.524.148-3.445 1.019-4.591 2.016-2.041 1.775-3.728 4.246-5.09 6.123-1.061 1.462-2.31 3.211-4.092 3.758-1.946.597-3.411-1.924-3.626-3.322-.122-.792-.281-1.487-.282-2.359s.088-1.93.339-2.839.682-1.813 1.148-2.563c.759-1.22 2.001-2.498 3.292-3.155.725-.369 2.431-1.039 3.506-1.063 1.317-.029 2.321.414 3.54.497 1.474.101 4.108.432 5.264-.707.736-.725.828-1.208.954-2.154-.325.268-.779.444-1.184.478-.923.078-1.788-.676-2.533-1.113-.614-.36-1.483-1.003-2.29-1.328-2.072-.835-4.617-.811-6.804-.587-1.753.179-4.026.959-5.563 1.829-1.545.874-3.033 2.347-4.124 3.736-1.372 1.748-2.122 3.247-2.618 5.427-.635 2.784-.811 6.965-.043 9.71.605 2.163 2.614 5.485 4.324 7.114 1.687 1.606 3.634 2.382 5.849 2.806-.087.447-.101.864-.216 1.23-.163.52-.474 1.1-1.114.917-.255-.073-.392-.136-.728.158s-.161 1.431.785 1.941c.48.259.986.315 1.754.33s1.967.019 2.801-.127 1.332-.808 2.255-.911c1.427-.16 2.52-1.191 3.665-1.928.478-.308.639-.311.914-.467l-.446 1.365s-.057.843-.109 1.193-.149.622-.206.906c-.229.204-.302.515-.686.613s-.986-.054-1.379-.107-.657-.267-.965-.208-.601.28-.86.487-.481.237-.69.754-.401 1.575-.43 2.282.051 1.346.26 1.907.394.81.961 1.366 1.492 1.372 2.414 1.94c-.17.251-.245.482-.51.755s-.817.579-1.063.867-.37.495-.374.818.013.743.274 1.095c.653.877 1.425 1.034 2.365 1.446-.158.986-.287 1.691-.058 2.675.093.401.3 1.311.795 1.544s1.45.12 2.054.216.942.187 1.413.281c.286.414.713.87.859 1.241s.102.504-.021.883-.541.93-.659 1.374-.141.921-.031 1.366.3.767.679 1.162 1.124.705 1.496 1.025.742.359.64.889c-.139.728-1.203 1.908-1.972 2.189-.461.168-1.08.115-1.64-.121.038.622.576 1.041.927 1.453-.952-.272-1.875-.793-2.513-1.484.198.6.879 1.563 1.898 2.408s1.013.672 1.519 1.009a6.65 6.65 0 0 1-2.499.006c.392.216 1.036.521 1.888.61s1.377.026 2.145-.16 1.469-.885 2.4-1.366c-.091.345-.155.76-.546 1.115s-.983.536-1.613.843l2.43-.292c.583-.129.974-.265 1.401-.476s.755-.519 1.133-.779c-.181.346-.235.752-.543 1.037s-.808.391-1.213.587c.422-.01.828.082 1.266-.028s.849-.283 1.304-.619.925-.748 1.313-1.171.868-.97 1.013-1.359-.087-.662-.131-.992c.268.176.598.273.804.529s.389.489.298.935-.503.991-.794 1.487c.868-.71 1.353-.983 1.559-1.839.193-.802-.307-1.529-.687-2.136-.189-.301-.471-.581-.648-.872.392-.384.84-.713 1.176-1.151s.477-1.03.82-1.448.805-.684 1.207-1.025c-.353.759-.934 1.69-1.06 2.277s.141.947.35 1.264.545.388.864.583.816.041 1.006.331.241.724.059 1.011l-.745 1.177c.275-.139.748-.542.961-.828s.541-.55.585-.937.067-.722-.184-1.067-.937-.46-1.243-.724-.479-.437-.462-.779.352-.587.639-.803c.877-.658 2.002-1.264 2.747-2.057.421-.448.623-.81.707-1.119s-.006-.55-.214-.93-.926-.888-1.013-1.301.275-.502.602-.647.948.075 1.251-.179-.089-.786.253-1.078 1.123-.129 1.527-.443.57-.704.709-1.16.155-.955.061-1.285-.377-.388-.548-.559-.319-.313-.091-.568.973.014 1.402-.313.166-1.112.469-1.442.847-.201 1.134-.307.4.267.576-.322.181-2.346.418-3.001.702-.044.918-.696.011-1.693.109-2.677l.441-2.677c1.538 1.033 2.553 1.357 4.204 1.649.138 4.042.518 6.422-.854 10.906s-4.148 7.127-7.894 10.923c4.942-3.703 7.302-6.713 8.779-10.569s1.193-7.082 1.045-10.796zm-26.262-1.625c-.38.017-.842.114-1.109.287s-.551.315-.793.562c-.605.616-1.058 1.359-1.259 2.212-.128.544-.147 1.242-.193 1.881.183-.59.306-1.206.567-1.735.411-.834 1.11-1.649 1.977-2.023.286-.124.477-.101.635-.079-.07.118-.188.217-.194.391s.034.512.327.655c.474.23 1 .068 1.366-.255a1.21 1.21 0 0 0 .301-1.351c-.23-.565-1.107-.566-1.626-.543zm4.767-.804c-.048-.971-.398-1.789-1.268-2.265-.45-.246-1.143-.564-1.78-.639-.612-.072-2.1-.019-2.995.389-.687.314-1.156.802-1.759 1.159s-1.033.596-1.607.997c-.882.615-1.399 1.292-2.011 1.697-.294.195-.708.166-1.098.285.304.09.7.19 1.028.085.408-.131.979-.504 1.296-.772.56-.473.85-.704 1.461-1.06.365-.213.965-.463 1.366-.724s1.097-.835 1.483-1.029c.49-.247 1.372-.384 1.917-.368.751.022 1.839.146 2.421.673s.797.986.667 1.667c-.218-.251-.362-.565-.58-.752-.451-.386-.97-.404-1.531-.331-.631.082-.949.447-1.158 1.046.14-.103.398-.329.602-.4.478-.165.84-.114 1.287.126.529.284.385.703.461 1.17.035.215.116.389.174.583.199-.053.383-.135.533-.284-.006.218.025.409-.019.654s-.164.536-.246.805c.368-.368.745-.711.983-1.186s.399-1.004.374-1.526zm-.637-7.065c-.271-.403-.351-1.02-.518-1.523.067.636-.062 1.336.249 1.796s.856.38 1.308.514c-.352-.268-.767-.385-1.039-.788zm6.496 9.432c-.348-.282-1.289-.056-1.992-.006l1.516.388c.047.172.026.369.141.516s.335.201.502.301c-.016-.452.181-.917-.168-1.199zm-4.955-19.589c-.42.226-.952.525-1.323.534s-.468-.242-.686-.388c-.343 1.119-.737 2.348-1.321 3.363-.245.425-.401.228-.587.655s-.268 1.297-.445 1.843-.407.948-.61 1.422c.516-.732 1.184-1.665 1.472-2.274s.104-.662.336-1.242.704-1.484 1.055-2.226c.252.034.564.079.755.02s.153-.263.326-.394.464-.081.707-.291.298-.641.32-1.022zm2.26 5.52c-.395-.035-.886.071-1.255.05s-.634-.117-.951-.176c.059-.557.002-1.581.517-1.953.332-.24 1.697-.059 2.061.019.82.177 1.775.666 2.569.972-.76-.531-1.417-1.023-2.329-1.297-.548-.165-1.827-.379-2.393-.226-.258.07-.31.177-.467.395-.538.752-.537 1.401-.677 2.277-.137.214-.284.357-.395.577s-.174.568-.205.852c.141-.204.055-.461.445-.613s.988-.01 1.515.045c-.384.277-.574.543-.589 1.128-.017.687.564 1.181 1.172 1.228.843.065 1.278-.12 1.619-.84.149-.316.041-.695.054-1.003 1.013.07.997.037 1.737.655-.402.59-.656.929-1.321 1.281-.373.198-.795.39-1.257.469s-1.221.155-1.706.08-.761-.213-1.121-.546-.393-.81-.534-1.187c.032.363.074.825.208 1.088.41.8 1.118 1.037 1.964 1.04.812.002 1.816-.185 2.572-.498.604-.25 1.605-.959 1.843-1.575.162-.421.034-.937.051-1.406-.836-.556-1.043-.419-2.033-.582-.414-.068-.699-.222-1.094-.257zm4.872-3.767c-.023-.333-.061-.326-.091-.489.762-.204 1.067.291 1.514 1.208.167.343.002.548.181.774s.468.194.759.412.579.633.851.857c.558.461 1.313.743 1.96 1.054-.442-.326-1.3-.821-1.578-1.295-.147-.251-.126-.725-.355-.951s-.309-.382-.605-.44-.177-.4-.272-.673-.285-.466-.488-.738-.457-.681-.857-.829-1.022.013-1.324-.073-.129-.305-.348-.437-.647-.074-.941-.215c-.52-.25-.769-.668-1.082-1.115-.045.962-.034 1.655.312 2.561.389 1.019.784 1.619 1.89 2.246.381.216.76.291 1.076.404-.184-.251-.448-.36-.552-.753s-.026-1.174-.05-1.507zm-17.847 4.693c.526.034.65-.035 1.071.262l-.684 1.064c.02-.7-.048-.841-.387-1.326zm1.377-.509c-.728-.31-1.362-.561-2.154-.61-.317-.02-.81.029-1.131.044-.273-.402-.621-.719-.749-1.178-.085-.304-.043-1.717.107-2.084.435-1.067.859-1.112 1.458-1.724.435-.443.452-1.119.582-1.875.048-.278.184-.63.248-.916.783-.132 1.626-.176 2.527-.13-.437-.419-.86-.802-.985-1.432s-.023-1.403.335-1.968.929-1.056 1.454-1.516 1.277-.839 1.774-1.215c-.647-.232-1.307-.572-1.94-.695-1.65-.32-3.072.169-4.664 1.132-.925.56-1.691 1.091-2.658 2.104s-2.167 2.87-3.103 3.972-1.692 1.973-2.509 2.63-1.556.844-2.335 1.266l-1.213 1.288-.981-1.214-1.579.179-.326-1.773-1.449-.397.236-2.389-1.042-.74.783-1.487-.796-1.625 1.037-1.857-.4-1.788 1.201-1.024.157-1.9 1.676-.639.672-1.653 1.884-.021.924-1.227 1.268.089 1.414-.154.799-.59 1.16.77 1.404-.732 2.791 1.06-1.819-1.582-1.885-.301-1.444-.368-1.95.64-1.716-.435-1.655.978-1.751-.097-.86 1.544-1.744.201-.944 1.716-1.097.599-.291 2.199-.977.926.43 1.924-1.151 1.457 1.079 1.561-1.154.976 1.475 1.307-1.494 1.556 1.804.582-1.175 1.669 1.474.254-.966 1.835 1.661-.022-.837 1.374 1.822-.219-.436 1.977 1.377-1.211.472 2.396.95-1.72.515 2.146 1.173-1.582-.032 2.25 1.296-2.023c-.273 1.148-.219 2.405-.973 3.487-2.336-.316-3.863-.905-5.653-2.627-1.63-1.569-3.579-4.839-4.106-6.913-.602-2.367-.621-6.72-.028-9.13.571-2.32 1.312-3.429 2.638-5.322 1.267-1.345 2.512-2.766 4.12-3.726 2.36-1.408 5.386-1.788 8.075-1.751 1.489.02 2.487.306 3.377.63 1.557.566 2.802 1.801 4.385 2.412.516.199.93.205 1.337-.013-.398.796-.831 1.154-1.824 1.444-.718.21-2.432.077-3.612-.032-1.266-.117-1.927-.493-3.65-.47-1.683.023-3.017.663-3.746 1.079-1.505.86-2.584 1.815-3.521 3.327-.515.83-.876 1.767-1.13 2.723s-.365 2.027-.382 2.962.055 1.771.284 2.613c.535 1.972 1.716 3.978 4.143 3.668 1.485-.19 3.723-2.977 4.473-3.999 1.513-2.064 3.069-4.347 4.97-6.065a7.66 7.66 0 0 1 4.304-1.911c2.923-.267 3.79.288 5.99 2.101-.448.143-.885.222-1.343.428-1.018.459-1.949 1.052-2.761 1.812-.851.797-1.233 1.302-1.263 2.443-.02.758.603 1.366 1.175 1.912.35.335.813.641 1.096.901.375.345.84.722.369 1.271-.177.206-.485.362-.745.555-.412.306-.223 1.443.32 1.745.695.386 1.525.342 2.098-.174-.723-.108-1.183-.204-1.164-.796.011-.343.447-.628.875-.823 1.032-.47 1.812-.401 2.839-1.14 1.037-.747 1.06-1.156 1.341-2.328.5.052.961.064 1.63.285s1.408.748 2.015.879c1.529.329 1.834.232 2.671.015 1.474-.381 3.392.272 5.298.881.317.101 1.599.002 2.462.306 1.333.468 3.203 1.6 4.283 2.51 1.636 1.378 3.787 5.503 5.002 10.238.128 1.439-.282 2.409.625 3.112s.882 2.504 1.189 3.009.663.282 1.325.991.999.591.982 1.932c-.57-.375-1.402-.811-2.132-.837-.647-.023-.653.828-2.313-.813-.887-.878-2.593-.905-3.775-1.292s-3.315-1.185-5.45-3.572-3.157-4.9-3.571-8.533c-.066.644-.18 1.371.096 3.148s.87 3.773-.382 6.163l-.78 1.489c.465-.634 1.372-1.668 1.645-2.405l.63-1.7c1.41 2.214 1.734 2.609 3.692 4.195.078.984.097 2.01-.224 2.951s.191 2.026-.054 2.646-.81.267-.995.895.097 1.869-.19 2.48-.99.241-1.33.438-.452.469-.634.729.071.874-.299 1.074-.948.03-1.334.222-.444.652-.352 1.064.504.602.685 1.021.161.711-.057 1.097-.698.597-1.178.792-1.153.085-1.648.354-.94.804-1.201 1.194a1.6 1.6 0 0 0-.32 1.073c.014.409.179.881.398 1.276s.7.876-.052 1.631-.725.429-1.156.919c.047-.847.397-1.537.141-2.175s-1.025-.749-1.43-1.035-.638-.681-.958-1.022c.004.438-.042.909.006 1.239.101.671.299 1.266-.7 1.374-.45.048-.878-.244-1.352-.419.248.444.68.802.745 1.334s-.013 1.116-.381 1.644-1.004.919-1.47 1.229-.716.335-1.074.503c-.018.523.085 1.076.026 1.569a2.86 2.86 0 0 1-.499 1.335c-.285.407-.742.641-1.172.942.236-.549.714-1.071.708-1.648s-.18-.987-.743-1.499-1.882-.957-2.504-1.455-.822-.804-1.046-1.287-.161-1.263-.202-1.698a5.11 5.11 0 0 0-.3 1.436c-.067.638.371 1.532.557 2.004-.769-.372-1.257-.965-1.504-1.546-.165.098-.082.366-.142.883-.274-.273-.586-.483-.862-.74s-.579-.483-.716-.843-.081-.741.021-1.158.568-.901.819-1.357-.044-.904-.027-1.454c.502-.086.929-.342 1.506-.259s1.239.731 1.83.739.922-.546 1.406-.698.974-.135 1.46-.203c-.616-.59-3.009-.872-4.645-1.139-1.44-.235-2.869-.371-4.328-.391-.652-.01-1.489.206-1.941.076s-.356-.438-.49-.774c-.376-.939-.19-1.776.014-2.722 1.31-.154 2.674-.341 3.994-.24 1.29.099 2.818.712 4.149.754 1.157.036 2.87-.222 3.864-.827 1.214-.74 2.153-2.329 2.487-2.839.543-.831 1.228-2.462 1.645-3.207s.508-.954.855-1.265.822-.335 1.232-.503c-.473.048-.99-.101-1.42.145-.646.371-1.369 1.907-1.771 2.576-.426-1.428-.327-1.989-1.559-2.794.993 1.113 1.018 1.957 1.26 3.268-.826 1.356-1.974 3.515-3.477 4.114-.543.217-1.475.352-2.062.425-1.826.226-3.588-.353-5.381-.795-1.311-.324-2.641-.193-4.236-.1-.541.032-1.818-.294-2.082-.841-.143-.295-.132-.65.073-.965s.752-.467 1.045-.75.462-.62.692-.93c1.218.234 2.22.323 3.124.348-.648-.267-1.27-.419-1.945-.683a11.62 11.62 0 0 1-1.986-1.057c-.545-.36-.892-.568-1.287-.987s-.899-.85-1.189-1.362-.336-1.084-.352-1.718.011-1.522.255-2.032.714-.665 1.093-.785.637.185 1.03.226.761.289 1.33.022 1.243-.812 1.818-1.62.986-2.129 1.572-3.146c1.01-1.752 2.269-3.388 3.474-5.012.099-.4.248-.954.298-1.497.086-.946.103-1.929-.191-2.852-.225-.707-.552-1.453-1.292-1.743-.296-.116-.671-.162-.935-.064s-.525.397-.421.742c.114.38.377.39.556.582.303.325.425.564.539.969-.328-.006-.771-.03-1.04.041-.351.093-.678.325-.857.823.419-.372.628-.542 1.151-.556.24-.006.531.08.796.12.099.322.157.718.297.967s.412.19.515.481.108.765.057 1.148zm-3.663-.437c-.161.063-.222.077-.425.232s-.484.309-.645.679-.154.942-.12 1.175c.141-.042.334-.014.481-.139s.234-.409.421-.531.345-.095.552-.121c-.107.303-.158.607-.109.882.108.601.461.905 1.032.977.25.031.646-.051.863-.09-.101.225-.271.422-.372.647-.483-.07-.842-.06-1.102-.182s-.539-.394-.872-.509-.631-.114-.996-.17c.288.248.476.496.764.744l-.632 1.837c-.447.279-.866.427-1.428.772s-1.238.962-1.971 1.299-1.17.52-1.936.664-1.375.765-2.129.866a16.34 16.34 0 0 1-2.742.065c-.659-.064-1.516-.405-1.593-1.128.553.136 1.397.014 1.824-1.026.189-.462.096-1.312.386-1.858s.693-.722 1.176-1.395 1.272-1.735 1.715-2.637.547-1.923.922-2.732.94-1.461 1.377-2.084c.956-1.361 1.727-2.292 3.302-2.978.758-.33 1.62-.418 2.43-.628.33.148.782.311.862.696a1.57 1.57 0 0 1-.354 1.244c-.468.484-1.162 1.007-1.435 1.776-.175.493-.226 2.148-.074 2.597.158.466.524.748.828 1.059zm-.153 3.916c.146.126.258.256.493.361s.556.132.868.21c-.438.681-.897 1.369-1.317 2.086s-.783 1.5-1.183 2.25c.019-.43-.007-.888.056-1.29s.245-.753.425-1.356l.657-2.261zm11.774-14.977c.062.67-.052 1.718-.19 2.374-.166.785-.326 1.192-.964 1.666-1.167.866-1.912.72-2.81 1.223-.427.239-.968.64-1.126 1.063s.104.884.428 1.064c-.567.084-1.202-.554-.937-1.21.131-.323.752-.467.943-.792s.19-.661.1-.991c-.162-.596-1.341-1.138-1.758-1.609-.641-.725-.887-1.332-.524-2.265.51-1.312 2.48-2.364 3.66-2.879.54-.236.843-.252 1.264-.379-.862.505-1.772.908-2.208 2.038-.364.944-.049 1.299-.061 2.12-.006.381-.507.571-.73.812-.194.209-.178.364-.023.653a.75.75 0 0 1 .328-.596c.33-.234.686-.184.862-.664.267-.73-.262-1.421.333-2.24.445-.613 1.037-1.299 1.836-1.317.378-.008.662.048 1.066.168l.538-.648.013-.008c1.095-1 1.845-1.823 3.381-2.51s2.294-.791 4.055-.752 3.51.186 5.55 1.946 7.299 8.497 8.574 9.35 1.558 1.142 3.151 1.142 4.08-2.253 4.178-5.07.137-3.818-1.821-7.211-5.505-4.435-8.137-4.787-4.214.575-6.16.58-3.871-.332-4.438-1.88c.278.165.65.352 1.696.297s2.497-1.266 4.129-2.078 3.448-.907 5.777-.951 5.235.134 8.115 1.688 4.845 3.204 6.515 6.246 1.919 5.526 1.65 9.21-1.405 6.423-3.593 9.119-4.374 4.015-8.315 4.506l-.83-3.66 1.481 2.126-.037-2.364 1.34 1.663.588-2.255 1.086 1.808.539-2.518 1.573 1.272-.498-2.077 2.082.23-.956-1.444 1.898.023-1.104-1.928 1.684-.267-1.343-1.753 2.062-.611-1.707-1.635 1.685-1.374-1.318-1.025 1.233-1.64-1.315-1.531.491-2.022-1.117-.973-.332-2.31-1.253-.629-1.078-1.804-1.993-.212-.983-1.622-2.002.102-1.891-1.028-1.962.457-2.228-.673-1.65.387-2.154.317-2.079 1.663 3.189-1.113 1.604.769 1.326-.809.913.62 1.616.162 1.449-.094 1.056 1.289 2.153.022.768 1.737 1.915.672.179 1.997 1.373 1.076-.457 1.879 1.186 1.951-.91 1.707.895 1.562-1.191.777.27 2.511-1.656.417-.373 1.863-1.805-.188-1.121 1.276-1.386-1.353c-2.526-1.26-3.567-1.964-5.536-4.094-2.241-2.424-3.526-4.666-6.512-6.325-2.141-1.19-3.888-1.619-6.293-1.203-2.258.39-3.015 1.745-4.678 3.172-.176-.319-.212-.404-.503-.639.091.414.236.844.273 1.243z"/><g transform="matrix(-1.084 0 0 -1.084 216.72 331.69)"><path d="M140.42 135.13l-4.897 3.151 1.753 2.725-.621.399-2.206-3.428 5.517-3.55.453.704m2.791 4.819l-5.835 3-.387-.752 5.835-3 .387.752m-1.66 8.21c-.528.199-1.014.193-1.459-.018s-.77-.589-.975-1.133l-1.043-2.771 6.14-2.312.939 2.493c.129.343.19.659.185.95s-.07.53-.192.717a1.75 1.75 0 0 1-.392.465 1.65 1.65 0 0 1-.474.274 1.46 1.46 0 0 1-1.66-.346c-.004.45-.091.807-.261 1.07s-.438.472-.808.612m.884-2.939c.309.82.789 1.107 1.44.862s.823-.778.514-1.598l-.571-1.516-1.954.736.571 1.516m-2.656 1.452c.104.275.247.478.431.607s.367.192.534.193a1.4 1.4 0 0 0 .503-.093c.32-.121.54-.312.659-.575.125-.265.12-.574-.013-.928l-.72-1.912-2.114.796.72 1.912m3.412 3.566l-2.206.442.76 3.795-.724.145-.924-4.615 6.433-1.288.892 4.457-.724.145-.728-3.636-2.056.412.702 3.504-.724.145-.702-3.504m1.331 9.598a1.75 1.75 0 0 1-.282.486c-.11.136-.236.233-.378.291a1.68 1.68 0 0 1-.401.13 3.23 3.23 0 0 1-.449.041 3.89 3.89 0 0 1-.234-.002l-.225.007c-.246.008-.452.041-.618.101a.79.79 0 0 0-.404.328l-.207.007-.032-1.017c.272-.129.627-.2 1.065-.214l.585-.019c.402-.013.693-.109.873-.289.186-.18.274-.456.262-.828l-.069-2.159-2.825.09-.027-.837 6.558-.208.096 3.023c.02.642-.117 1.138-.412 1.49-.289.357-.715.545-1.279.563-.372.012-.683-.059-.934-.213s-.472-.411-.664-.771m1.453.116c.432-.014.725-.137.88-.37s.226-.55.213-.952l-.064-2.024-2.258.072.064 2.024c.014.444.114.765.301.963.187.204.475.3.865.288m.707 5.363l-5.781-.698.1-.831 5.781.698.259-2.144.733.089-.617 5.111-.733-.089.258-2.136m-5.2 5.8l.669-2.439-1.717-1.19.236-.859 5.708 3.993-.286 1.042-6.937.486.248-.903 2.079-.129m.739-.04l3.148-.181-2.596-1.832-.553 2.014m-3.418 1.948l5.948 2.768-1.067 2.293c-.352.756-.892 1.226-1.619 1.41s-1.554.061-2.479-.369-1.552-.987-1.883-1.671c-.328-.675-.317-1.388.033-2.139l1.067-2.293m.316 1.07l-.653 1.403c-.273.587-.285 1.125-.035 1.612s.75.905 1.501 1.254 1.401.467 1.934.344.937-.477 1.21-1.065l.653-1.403-4.61-2.146m-72.792-.398l2.127-.735-1.264-3.658.698-.241 1.537 4.449-6.201 2.143-1.484-4.296.698-.241 1.211 3.505 1.982-.685-1.167-3.377.698-.241 1.167 3.377"/><path d="M66.789 166.09c-.059-.331-.147-.605-.265-.821s-.248-.367-.391-.451a1.11 1.11 0 0 0-.404-.166c-.132-.025-.267-.026-.402-.001-.49.087-.768.545-.834 1.374l-.139 1.679c-.068.884-.495 1.395-1.28 1.536-.585.104-1.082-.017-1.491-.365-.416-.352-.688-.883-.814-1.592-.133-.744-.059-1.355.222-1.831.275-.476.728-.773 1.359-.891l.139.78c-.418.081-.715.28-.89.597-.181.319-.225.735-.134 1.249.078.437.241.771.489 1.001.247.224.533.307.858.249.248-.044.429-.159.542-.343s.188-.482.225-.89l.145-1.699c.04-.458.181-.831.422-1.118a1.54 1.54 0 0 1 .954-.545 2.01 2.01 0 0 1 .527-.021c.173.012.361.06.565.146a1.92 1.92 0 0 1 .55.368c.168.159.324.384.468.675a3.69 3.69 0 0 1 .316 1.004 3.96 3.96 0 0 1 .063.711 2.86 2.86 0 0 1-.084.71 2.17 2.17 0 0 1-.293.665c-.136.195-.33.373-.581.533a2.73 2.73 0 0 1-.909.336l-.139-.78.044-.008a1.64 1.64 0 0 0 .5-.171c.149-.088.289-.207.421-.358.13-.157.221-.368.271-.633.043-.27.034-.579-.028-.927m-2.928-12.372c.97.063 1.757.403 2.36 1.019s.874 1.404.811 2.362c-.062.946-.425 1.689-1.092 2.229s-1.521.776-2.544.709-1.831-.411-2.422-1.032c-.597-.622-.865-1.403-.804-2.343.062-.958.429-1.704 1.102-2.237.672-.54 1.535-.775 2.589-.706m-2.954 2.992c-.045.695.167 1.27.636 1.728.463.457 1.099.712 1.907.764s1.475-.118 1.999-.51c.519-.399.801-.946.846-1.641s-.164-1.27-.627-1.727c-.463-.463-1.09-.72-1.88-.772-.826-.054-1.502.116-2.026.509s-.81.942-.856 1.649m4.195-8.583a1.75 1.75 0 0 1 .403-.391c.143-.101.29-.16.443-.177a1.68 1.68 0 0 1 .421-.016c.127.013.274.041.443.083l.225.065.218.054c.239.059.446.083.622.071a.79.79 0 0 0 .478-.206l.201.05-.246.987c-.297.05-.658.022-1.083-.084l-.568-.141c-.39-.097-.696-.084-.919.04s-.387.364-.477.725l-.522 2.096 2.742.683-.202.812-6.367-1.585.73-2.935c.155-.623.422-1.064.802-1.321.375-.265.836-.33 1.384-.194.361.09.641.243.841.46s.343.524.429.923m-1.367-.507c-.419-.104-.735-.065-.947.117s-.367.468-.464.858l-.489 1.965 2.192.546.489-1.965c.107-.431.098-.767-.027-1.008-.124-.247-.375-.418-.754-.512m4.727-7.673c.886.4 1.503.994 1.852 1.783s.325 1.621-.069 2.496c-.39.864-.991 1.432-1.805 1.704s-1.696.193-2.632-.229-1.57-1.027-1.906-1.817-.317-1.617.07-2.476c.395-.875 1-1.445 1.817-1.708.819-.269 1.71-.187 2.672.248m-3.817 1.764c-.286.634-.29 1.248-.011 1.841.273.591.779 1.052 1.518 1.385s1.422.408 2.051.224c.626-.192 1.082-.605 1.368-1.239s.292-1.247.019-1.838c-.271-.596-.767-1.057-1.489-1.382-.755-.34-1.447-.419-2.076-.235s-1.089.598-1.38 1.244"/></g></g></g></g></svg>