<svg xmlns="http://www.w3.org/2000/svg" xmlns:xlink="http://www.w3.org/1999/xlink" width="178.998" height="289.999" viewBox="0 0 47.36 76.729" xmlns:v="https://vecta.io/nano"><style><![CDATA[.B{color-interpolation-filters:sRGB}.C{stroke:#000}.D{fill:none}.E{stroke:#2e3436}.F{fill:#edd400}.G{stroke-width:.3}.H{stroke-width:1.02}.I{fill:#729fcf}.J{opacity:.976}.K{opacity:.424}.L{fill:#c00}.M{fill:#e9b96e}.N{fill:#364e59}.O{fill:#0e232e}.P{fill:#2e3436}.Q{fill:#80705c}.R{stroke:#947070}.S{stroke-width:.136}.T{opacity:.595}.U{stroke:#003854}.V{stroke-width:.326}.W{filter:url(#R)}.X{opacity:.702}.Y{filter:url(#U)}.Z{stroke:#8c897f}.a{stroke-width:1.6}.b{filter:url(#V)}.c{stroke-width:.024}.d{stroke-width:.1}.e{fill:#73d216}.f{fill:#a40000}.g{stroke-width:.856}.h{stroke-width:.094}.i{stroke-width:.148}.j{stroke-width:.112}.k{stroke-width:.038}.l{stroke-width:.021}.m{stroke-width:.035}.n{stroke-width:.032}.o{stroke-width:.034}.p{stroke-width:.196}.q{stroke-width:.294}.r{stroke-width:1.059}.s{stroke-width:1.038}.t{stroke-width:1.039}]]></style><defs><filter id="A" height="1.756" width="1.202" y="-.378" x="-.101" class="B"><feGaussianBlur stdDeviation="1.193"/></filter><filter id="B" height="1.628" width="1.205" y="-.314" x="-.103" class="B"><feGaussianBlur stdDeviation="1.193"/></filter><filter id="C" height="1.936" width="2.198" y="-.465" x="-.594" class="B"><feGaussianBlur stdDeviation="1.193"/></filter><filter id="D" height="1.752" width="1.205" y="-.376" x="-.102" class="B"><feGaussianBlur stdDeviation="1.193"/></filter><filter id="E" height="2.116" width="1.87" y="-.555" x="-.433" class="B"><feGaussianBlur stdDeviation="1.193"/></filter><filter id="F" height="2.131" width="2.187" y="-.56" x="-.591" class="B"><feGaussianBlur stdDeviation="1.193"/></filter><filter id="G" height="2.194" width="2.311" y="-.591" x="-.653" class="B"><feGaussianBlur stdDeviation="1.193"/></filter><filter id="H" height="2.694" width="2.546" y="-.844" x="-.766" class="B"><feGaussianBlur stdDeviation="1.193"/></filter><filter id="I" height="1.982" width="2.342" y="-.488" x="-.677" class="B"><feGaussianBlur stdDeviation="1.193"/></filter><filter id="J" height="2.214" width="3.25" y="-.603" x="-1.121" class="B"><feGaussianBlur stdDeviation="1.193"/></filter><radialGradient xlink:href="#L" id="K" gradientTransform="matrix(-0.73601399,0.02495248,-0.01296092,-0.38230946,190.77315,1301.97)" cx="102.857" cy="942.195" fx="102.857" fy="942.195" r="14.315"/><linearGradient id="L" xlink:href="#Ac"><stop offset="0" stop-color="#ecdfdf"/><stop offset="1" stop-color="#fff"/></linearGradient><filter id="M" x="-.021" y="-.05" width="1.04" height="1.1" class="B"><feGaussianBlur stdDeviation=".18"/></filter><radialGradient xlink:href="#O" id="N" gradientTransform="matrix(-1.5153672,0.32856219,-0.21157706,-0.92729741,118.17157,313.66369)" cx="45.34" cy="170.187" fx="45.34" fy="170.187" r="19.821"/><linearGradient id="O" xlink:href="#Ac"><stop offset="0" stop-color="#b4e2ff"/><stop offset="1" stop-color="#283f51"/></linearGradient><radialGradient xlink:href="#Q" id="P" gradientTransform="matrix(-1.4550368,0.05681875,-0.04332794,-0.96155259,87.177204,351.34932)" cx="44.004" cy="189.704" fx="44.004" fy="189.704" r="19.984"/><linearGradient id="Q" xlink:href="#Ac"><stop offset="0" stop-color="#b4e2ff"/><stop offset="1" stop-color="#3b576c"/></linearGradient><filter id="R" x="-.035" y="-.034" width="1.07" height="1.067" class="B"><feGaussianBlur stdDeviation=".466"/></filter><radialGradient xlink:href="#T" id="S" gradientTransform="matrix(0.39851674,-0.48118568,0.7312207,0.60914594,-86.812914,20.342457)" cx="-32.462" cy="92.021" fx="-32.462" fy="92.021" r="27.52"/><linearGradient id="T" xlink:href="#Ac"><stop offset="0" stop-color="#9cf"/><stop offset="1" stop-color="#22394b"/></linearGradient><filter id="U" x="-.04" y="-.04" width="1.081" height="1.081" class="B"><feGaussianBlur stdDeviation=".911"/></filter><filter id="V" height="1.331" width="1.275" y="-.165" x="-.137" class="B"><feGaussianBlur stdDeviation=".873"/></filter><linearGradient id="W" x1="23.903" y1="178.605" x2="13.39" y2="173.421" xlink:href="#Ac"><stop offset="0" stop-color="#112c41"/><stop offset="1" stop-color="#112c41" stop-opacity="0"/></linearGradient><filter id="X" height="1.295" width="1.08" y="-.148" x="-.04" class="B"><feGaussianBlur stdDeviation=".468"/></filter><filter id="Y" x="-.021" y="-.094" width="1.043" height="1.189" class="B"><feGaussianBlur stdDeviation=".244"/></filter><filter id="Z" height="1.69" width="1.205" y="-.345" x="-.103" class="B"><feGaussianBlur stdDeviation="1.193"/></filter><filter id="a" height="1.589" width="1.216" y="-.295" x="-.109" class="B"><feGaussianBlur stdDeviation="1.193"/></filter><filter id="b" height="1.656" width="1.484" y="-.323" x="-.242" class="B"><feGaussianBlur stdDeviation="1.798"/></filter><filter id="c" height="1.723" width="1.198" y="-.361" x="-.099" class="B"><feGaussianBlur stdDeviation="1.193"/></filter><filter id="d" height="2.116" width="1.87" y="-.555" x="-.437" class="B"><feGaussianBlur stdDeviation="1.193"/></filter><filter id="e" height="2.131" width="2.187" y="-.56" x="-.596" class="B"><feGaussianBlur stdDeviation="1.193"/></filter><filter id="f" height="2.194" width="2.311" y="-.591" x="-.658" class="B"><feGaussianBlur stdDeviation="1.193"/></filter><filter id="g" height="2.694" width="2.546" y="-.844" x="-.78" class="B"><feGaussianBlur stdDeviation="1.193"/></filter><filter id="h" height="2.348" width="3.419" y="-.67" x="-1.213" class="B"><feGaussianBlur stdDeviation="1.193"/></filter><filter id="i" height="1.677" width="1.199" y="-.339" x="-.099" class="B"><feGaussianBlur stdDeviation="1.193"/></filter><filter id="j" height="1.924" width="1.206" y="-.462" x="-.103" class="B"><feGaussianBlur stdDeviation="1.193"/></filter><radialGradient xlink:href="#L" id="k" gradientTransform="matrix(-0.54889191,-0.01247761,0.00869354,-0.3824303,154.80165,1304.3206)" cx="105.229" cy="941.662" fx="105.229" fy="941.662" r="14.315"/><radialGradient xlink:href="#O" id="l" gradientTransform="matrix(-1.515367,0.32856219,-0.21157706,-0.927297,118.17157,313.66369)" cx="45.34" cy="170.187" fx="45.34" fy="170.187" r="19.821"/><radialGradient xlink:href="#Q" id="m" gradientTransform="matrix(-1.455037,0.05681875,-0.04332794,-0.961553,87.177204,351.34932)" cx="44.004" cy="189.704" fx="44.004" fy="189.704" r="19.984"/><radialGradient xlink:href="#T" id="n" gradientTransform="matrix(0.398517,-0.48118568,0.7312207,0.609146,-86.812914,20.342457)" cx="-32.462" cy="92.021" fx="-32.462" fy="92.021" r="27.52"/><filter id="o" x="-.026" y="-.093" width="1.051" height="1.187" class="B"><feGaussianBlur stdDeviation=".308"/></filter><filter id="p" height="1.628" width="1.158" y="-.318" x="-.069" class="B"><feGaussianBlur stdDeviation="1.193"/></filter><filter id="q" height="2.069" width="1.147" y="-.535" x="-.074" class="B"><feGaussianBlur stdDeviation="1.193"/></filter><filter id="r" x="-inf" y="-inf" width="inf" height="inf" class="B"><feGaussianBlur stdDeviation="1.193"/></filter><filter id="s" height="2.077" width="1.594" y="-.539" x="-.298" class="B"><feGaussianBlur stdDeviation="1.193"/></filter><filter id="t" height="2.045" width="2.283" y="-.523" x="-.641" class="B"><feGaussianBlur stdDeviation="1.193"/></filter><filter id="u" height="2.085" width="2.193" y="-.543" x="-.597" class="B"><feGaussianBlur stdDeviation="1.193"/></filter><filter id="v" height="1.988" width="2.034" y="-.494" x="-.517" class="B"><feGaussianBlur stdDeviation="1.193"/></filter><filter id="w" height="2.081" width="2.453" y="-.542" x="-.726" class="B"><feGaussianBlur stdDeviation="1.193"/></filter><filter id="x" height="2.193" width="2.71" y="-.594" x="-.855" class="B"><feGaussianBlur stdDeviation="1.193"/></filter><filter id="y" height="2.025" width="1.746" y="-.515" x="-.371" class="B"><feGaussianBlur stdDeviation="1.193"/></filter><filter id="z" height="1.929" width="1.12" y="-.465" x="-.06" class="B"><feGaussianBlur stdDeviation="1.193"/></filter><filter id="AA" height="1.312" width="1.12" y="-.156" x="-.06" class="B"><feGaussianBlur stdDeviation="1.193"/></filter><radialGradient id="AB" gradientTransform="matrix(1.2470725,-0.09894278,0.07401334,0.3194906,-2027.2523,1022.626)" cx="1987.14" cy="910.459" fx="1987.14" fy="910.459" r="43.716" xlink:href="#Ac"><stop offset="0" stop-color="#8f5902"/><stop offset=".566" stop-color="#8f5902" stop-opacity=".498"/><stop offset="1" stop-color="#fff"/></radialGradient><path id="AC" d="M493.81 1014.083c-.16 2.34 1.945 11.815 3.118 17.69-.51.98-1.196 9.032 1.378 15.37 0 0-2.543 13.666 4.235 49.535"/><path id="AD" d="M110.386 947.138c-3.114-4.842-3.455-5.028-11.579-7.217-6.605-1.78-14.606 2.764-16.403 5.696 0 0 5.77-7.143 16.445-5.047 6.792 1.333 11.538 6.568 11.538 6.568z"/><path id="AE" d="M81.971 945.303c3.269-.997 6.793-3.909 12.879-4.58 8.225-.443 13.56 1.909 14.751 6.576-7.983-1.048-11.19 9.286-27.63-1.996z"/><path id="AF" d="m 35.714286,172.67857 a 19.821428,19.107143 0 1 1 -39.6428567,0 19.821428,19.107143 0 1 1 39.6428567,0 z"/><path id="AG" d="M35.714 172.679c0 2.117-10.434 1.421-11.094 3.324-.857 2.474 7.852 7.456 6.094 9.363-2.307 2.503-7.449 8.848-8.664 5.48-6.225-17.249-4.008.94-6.157.94-3.972 0-3.262-7.041-6.364-8.98-2.174-1.359-8.462 2.797-9.937.747-2.22-3.087 4.666-8.979 4.666-13.019 0-5.173-6.055-7.722-2.59-11.162 1.763-1.751 8.594 4.861 10.941 3.861 2.448-1.043.434-9.661 3.283-9.661 4.905 0 9.394 1.718 12.855 4.563 2.405 1.977-5.133 8.049-3.927 10.918.932 2.216 10.893 1.088 10.893 3.627z"/><path id="AH" d="M-11.429 108.571l-9.635-10.14 1.497 13.907-5.821-12.719-3.1 13.64-1.375-13.919-7.36 11.894 3.219-13.612-10.824 8.86 7.464-11.829-13.114 4.865 10.901-8.765-13.983.344 13.156-4.75-13.337-4.215 13.986-.221-11.246-8.317 13.3 4.332-7.936-11.518 11.172 8.415-3.766-13.471 7.835 11.587.812-13.964 3.648 13.503 5.302-12.943-.934 13.956 9.218-10.52-5.415 12.896 12.134-6.957-9.309 10.439 13.736-2.64-12.195 6.851L.45 85.521l-13.758 2.52 12.461 6.353-13.831-2.084 9.723 10.055-12.405-6.462z"/><path id="AI" d="m 26.428572,171.60715 a 10.535714,8.7500108 0 1 1 -21.0714286,0 10.535714,8.7500108 0 1 1 21.0714286,0 z"/><path id="AJ" d="M35.999 825.047l1.168 1.423 1.707-.771-.629-1.252z"/><path id="AK" d="M41.332 825.075l-1.158.892-1.693.194.152-1.451z"/><path id="AL" d="M126.628 944.613c3.057-5.071 3.392-5.265 11.368-7.557 6.485-1.864 15.742 3.829 17.507 6.9 0 0-8.47-7.48-17.548-6.22-6.739.935-11.327 6.878-11.327 6.878z"/><path id="AM" d="M109.851 947.377c-3.856-.615-2.146.703-11.401 3.645-6.519 2.073-14.606-2.764-16.403-5.696 0 0 7.456 8.455 16.266 5.404 7.221-2.5 11.538-3.353 11.538-3.353z"/><path id="AN" d="M519.692 1017.386s2.755 15.515 2.755 19.285c0 4.124-1.248 5.874-2.32 15.805-1.327 12.29.751 26.349 4.205 41.76"/><path id="AO" d="M1967.009 575.027c-3.939-.083-7.811 2.052-9.476 5.832-2.002 4.546-.02 10.122 4.674 12.119 4.206 1.79 9.35-.021 11.177-4.276 1.624-3.782-.035-8.392-3.959-10.013-3.456-1.428-7.668.068-9.126 3.584-1.271 3.064.09 6.78 3.291 8.048 2.756 1.092 6.104-.111 7.218-2.939.945-2.398-.153-5.3-2.687-6.24-2.11-.783-4.642.159-5.437 2.358-.648 1.791.182 3.951 2.115 4.59 1.529.505 3.361-.212 3.863-1.855.383-1.252-.238-2.754-1.653-3.112a2.1 2.1 0 0 0-1.495.157c-.464.237-.876.71-.986 1.305-.075.404-.01.793.207 1.147s.643.681 1.161.707c.277.014.494-.086.715-.22-.359.284-.805.453-1.272.299-.97-.32-1.43-1.488-1.081-2.452.458-1.266 2-1.841 3.275-1.368 1.604.595 2.32 2.499 1.701 4.071v.016c-.761 1.91-3.092 2.756-5.008 1.996-2.291-.908-3.298-3.64-2.369-5.879 1.088-2.622 4.295-3.771 6.916-2.688 3.026 1.25 4.338 4.887 3.069 7.844-1.448 3.372-5.595 4.83-8.967 3.395-3.801-1.618-5.428-6.2-3.8-9.919v-.016c1.834-4.164 6.963-5.946 11.129-4.134 3.791 1.649 5.96 5.829 5.278 9.856l1.653.267c.807-4.769-1.722-9.68-6.248-11.648-1.25-.544-2.566-.806-3.879-.833zm-1.288 9.887l.238.126.97.487a1 1 0 0 1-.731.409c-.274-.005-.368-.095-.429-.141s-.084-.074-.111-.11-.058-.035-.111-.236.082-.432.175-.534z"/><path id="AP" d="M1987.556 575.027c3.939-.083 7.811 2.052 9.476 5.832 2.002 4.546.02 10.122-4.674 12.119-4.206 1.79-9.35-.021-11.177-4.276-1.624-3.782.035-8.392 3.959-10.013 3.456-1.428 7.668.068 9.126 3.584 1.271 3.064-.09 6.78-3.291 8.048-2.756 1.092-6.104-.111-7.218-2.939-.944-2.398.153-5.3 2.687-6.24 2.11-.783 4.642.159 5.437 2.358.648 1.791-.182 3.951-2.115 4.59-1.529.505-3.361-.212-3.863-1.855-.383-1.252.238-2.754 1.653-3.112a2.1 2.1 0 0 1 1.495.157c.464.237.876.71.986 1.305.075.404.01.793-.207 1.147s-.643.681-1.161.707c-.277.014-.494-.086-.715-.22.359.284.805.453 1.272.299.97-.32 1.43-1.488 1.081-2.452-.458-1.266-2-1.841-3.275-1.368-1.604.595-2.32 2.499-1.701 4.071v.016c.761 1.91 3.092 2.756 5.008 1.996 2.291-.908 3.298-3.64 2.369-5.879-1.088-2.622-4.295-3.771-6.916-2.688-3.026 1.25-4.338 4.887-3.069 7.844 1.448 3.372 5.595 4.83 8.967 3.395 3.801-1.618 5.428-6.2 3.8-9.919v-.016c-1.834-4.164-6.963-5.946-11.129-4.134-3.791 1.649-5.96 5.829-5.278 9.856l-1.653.267c-.807-4.769 1.722-9.68 6.248-11.648 1.25-.544 2.566-.806 3.879-.833zm1.288 9.887l-.238.126-.97.487a1 1 0 0 0 .731.409c.274-.005.368-.095.429-.141s.084-.074.111-.11.058-.035.111-.236-.082-.432-.175-.534z"/><path id="AQ" d="M1987.556 612.287c3.939.083 7.811-2.052 9.476-5.832 2.002-4.546.02-10.122-4.674-12.119-4.206-1.79-9.35.021-11.177 4.276-1.624 3.782.035 8.392 3.959 10.013 3.456 1.428 7.668-.068 9.126-3.584 1.271-3.064-.09-6.78-3.291-8.048-2.756-1.092-6.104.111-7.218 2.939-.944 2.398.153 5.3 2.687 6.24 2.11.783 4.642-.159 5.437-2.358.648-1.791-.182-3.951-2.115-4.59-1.529-.505-3.361.212-3.863 1.855-.383 1.252.238 2.754 1.653 3.112a2.1 2.1 0 0 0 1.495-.157c.464-.237.876-.71.986-1.305.075-.404.01-.793-.207-1.147s-.643-.681-1.161-.707c-.277-.014-.494.086-.715.22.359-.284.805-.453 1.272-.299.97.32 1.43 1.488 1.081 2.452-.458 1.266-2 1.841-3.275 1.368-1.604-.595-2.32-2.499-1.701-4.071v-.016c.761-1.91 3.092-2.756 5.008-1.996 2.291.908 3.298 3.64 2.369 5.879-1.088 2.622-4.295 3.771-6.916 2.688-3.026-1.25-4.338-4.887-3.069-7.844 1.448-3.372 5.595-4.83 8.967-3.395 3.801 1.618 5.428 6.2 3.8 9.919v.016c-1.834 4.165-6.963 5.946-11.129 4.134-3.791-1.649-5.96-5.829-5.278-9.856l-1.653-.267c-.807 4.769 1.722 9.68 6.248 11.648 1.25.544 2.566.806 3.879.833zm1.288-9.887l-.238-.126-.97-.487a1 1 0 0 1 .731-.409c.274.005.368.095.429.141s.084.074.111.11.058.035.111.236-.082.432-.175.534z"/><path id="AR" d="M1967.009 612.287c-3.939.083-7.811-2.052-9.476-5.832-2.002-4.546-.02-10.122 4.674-12.119 4.206-1.79 9.35.021 11.177 4.276 1.624 3.782-.035 8.392-3.959 10.013-3.456 1.428-7.668-.068-9.126-3.584-1.271-3.064.09-6.78 3.291-8.048 2.756-1.092 6.104.111 7.218 2.939.945 2.398-.153 5.3-2.687 6.24-2.11.783-4.642-.159-5.437-2.358-.648-1.791.182-3.951 2.115-4.59 1.529-.505 3.361.212 3.863 1.855.383 1.252-.238 2.754-1.653 3.112a2.1 2.1 0 0 1-1.495-.157c-.464-.237-.876-.71-.986-1.305-.075-.404-.01-.793.207-1.147s.643-.681 1.161-.707c.277-.014.494.086.715.22-.359-.284-.805-.453-1.272-.299-.97.32-1.43 1.488-1.081 2.452.458 1.266 2 1.841 3.275 1.368 1.604-.595 2.32-2.499 1.701-4.071v-.016c-.761-1.91-3.092-2.756-5.008-1.996-2.291.908-3.298 3.64-2.369 5.879 1.088 2.622 4.295 3.771 6.916 2.688 3.026-1.25 4.338-4.887 3.069-7.844-1.448-3.372-5.595-4.83-8.967-3.395-3.801 1.618-5.428 6.2-3.8 9.919v.016c1.834 4.165 6.963 5.946 11.129 4.134 3.791-1.649 5.96-5.829 5.278-9.856l1.653-.267c.807 4.769-1.722 9.68-6.248 11.648-1.25.544-2.566.806-3.879.833zm-1.288-9.887l.238-.126.97-.487a1 1 0 0 0-.731-.409c-.274.005-.368.095-.429.141s-.084.074-.111.11-.058.035-.111.236.082.432.175.534z"/><path id="AS" d="M1972.061 547.197s-5.924 11.567-6.368 26.502.148 25.477.148 25.477"/><path id="AT" d="M1981.156 545.339s-3.665 12.43-3.939 28.478.092 27.377.092 27.377"/><path id="AU" d="M1995.776 546.309s5.55 7.144 7.644 22.053 1.78 32.302 1.78 32.302"/><path id="AV" d="M1970.921 543.901s-6.008 11.865-6.458 27.184.15 26.133.15 26.133"/><path id="AW" d="M1987.338 545.626s.942 10.353 1.257 28.782l.419 28.057"/><path id="AX" d="M493.527 934.151l1.025 8.408c.256 2.102-.227 4.078.543 6.33.527 1.54 1.382 3.033 3.097 4.128 1.558.995 3.127 4.306 3.127 4.306"/><path id="AY" d="M1963.143 680.308c3.043.017 6.594-2.065 6.725 1.398.054 2.773-4.026 3.311-6.725 3.355s-6.493-1.037-6.314-3.355c.198-3.406 3.272-1.414 6.314-1.398z"/><path id="AZ" d="M47.513 65.52c-1.044-.859-2.293-1.462-2.778-1.341s-.926 2.057-.926 3.438v3.411c0 1.382.494 3.52 1.095 4.752 0 0 2.197 4.492 6.258 4.492 3.703 0 5.964-3.655 5.964-3.655.718-1.163.453-2.817-.591-3.676z"/><path id="Aa" d="M47.731 51.462c-1.045-.857-2.311-1.64-2.812-1.739s-1.349 1.687-1.349 3.069v.333c0 1.382.857 3.21 1.904 4.064l10.898 8.879c1.048.853 1.905.421 1.905-.961v-2.478c0-1.382-.854-3.213-1.899-4.07z"/><path id="Ab" d="M47.262 58.645c-1.047-.853-2.307-1.591-2.798-1.639s-.894 1.989-.894 3.364.854 3.202 1.897 4.06l10.829 8.906c1.043.859 1.916 1.419 1.939 1.244s.041-1.775.041-3.157v-1.294c0-1.381-.857-3.211-1.905-4.063z"/><linearGradient id="Ac" gradientUnits="userSpaceOnUse"/></defs><g transform="matrix(.264583 0 0 .264583 -113.738599 -224.544583)"><g class="I"><path d="M491.862 995.688s.265 11.774 1.097 18.558 3.032 17.894 3.032 17.894c-.489 4.372-.816 8.753 1.271 14.739l-.089 13.343c.568 14.284 5.062 38.545 5.062 38.545l9.118.361s3.958-30.843 3.536-41.109-1.495-14.197-1.677-18.018c-.248-5.245 2.809-15.218 3.659-28.92s-3.397-15.835-3.397-15.835z" class="C H"/><path d="M511.592 1047.374s.307 9.039.222 16.817-1.043 29.834-1.043 29.834 2.358-26.901 2.256-33.322-1.435-13.329-1.435-13.329zm-4.325-7.418c.221-4.597.702-8.082-3.721-11.642 4.406 1.827 4.9 7.915 3.721 11.642zm6.753-21.087l-2.655 17.179s.421.875 1.873-7.989.782-9.19.782-9.19z"/><g class="E G"><use xlink:href="#AC"/><use xlink:href="#AC" x="0.461"/><use xlink:href="#AC" x="1.179"/><use xlink:href="#AC" x="2.205"/></g><path d="M496.008 1031.994s.716-2.058 2.059-2.411m-.346 14.489c2.048 7.058 7.043 3.242 9.207 0" class="C"/></g><path d="M499.645 872.524l.01 6.225 1.08 8.1-.678 7.787-1.808 6.229-1.808 3.764-1.695 5.451 10.171-4.153 6.555-3.244 8.363.13 8.702 3.244 3.842 2.725-3.277-10.512-1.356-8.306.452-5.84.113-5.451-6.629-8.927z" fill="#8f5902" stroke-width="1.035" class="C"/><g transform="matrix(1.014145 0 0 1.025752 -1495.1517 399.7756)"><g transform="matrix(.986052 0 0 .974894 27.575689 16.712586)"><path transform="matrix(1.014145 0 0 1.025752 -27.96575 -17.14297)" d="M2004.173 496.99s-5.218-9.19-13.491-11.531c-3.744-1.06-3.924-14.036-3.924-14.036l-12.977 1.247s4.889 12.371-.51 14.103c-7.649 2.454-13.281 3.814-13.281 3.814l.517 27.97 46.528-.76z" class="C M"/><path d="M1976.595 477.256c-.106 2.124-.478 3.398-1.328 4.407s-2.389 1.327-2.389 1.327m4.013-5.656c-.106 2.124-.515 3.661-1.365 4.67s-1.676 1.065-1.676 1.065m3.432-5.62c-.033 2.126-.399 3.552-1.349 4.832-.482.651-1.456.965-1.456.965" stroke-width=".2" class="D E"/></g><g transform="matrix(1.037513 0 0 1.037513 -74.169723 -16.255753)"><g transform="matrix(1 0 0 .948672 0 23.105968)"><g transform="matrix(1.023663 0 0 1.023663 -46.769518 -6.887234)"><path transform="matrix(.88338 -.088756 .080887 .969324 1820.5136 -281.82507)" d="M98.899 766.062c-2.736 3.799.737 5.86.154 8.911s-.679 17.054 7.37 18.107c13.37 1.75 12.285-10.011 13.529-12.469 1.516-1.942 3.55-2.746 1.724-4.886 0 0-.704-2.613-1.425-8.012-3.065-4.362-14.636-9.919-21.351-1.651z" stroke-width="1.076" class="C M"/><g transform="matrix(.706431 .083506 -.066295 .889835 649.47842 -478.96342)"><g fill="#333" transform="matrix(.217945 0 0 .217824 1934.7332 665.58819)"><path d="M77.782 941.478s7.139-7.578 14.142-7.576c2.514.385 18.043 2.894 13.385 5.556 0 0-10.522-4.047-13.637-4.293-6.714-.531-13.89 6.313-13.89 6.313z" filter="url(#A)"/><path d="M109.822 947.173c-.923-2.164.048-5.218-10.512-8.264-11.598-3.346-15.579 3.949-17.36 6.728.116.347 8.172-6.301 17.249-5.009 9.455 1.345 10.623 6.546 10.623 6.546z" filter="url(#B)"/><path d="M98.676 939.968c-2.972-.435-3.452-3.715-4.851-6.275 1.926 2.634 2.238 5.561 4.949 6.075z" stroke-width=".173" filter="url(#C)" class="C"/><use xlink:href="#AD" filter="url(#D)"/><g class="C"><path d="M86.979 942.263c-3.025-.495-5.183-2.296-6.607-5.203 1.96 2.992 3.948 4.392 6.707 4.977z" filter="url(#E)" class="h"/><path d="M88.277 941.64c-2.244-.492-3.845-2.284-4.901-5.176 1.454 2.977 2.929 4.37 4.975 4.951z" stroke-width=".16" filter="url(#F)"/><path d="M90.632 940.964c-2.027-.465-3.473-2.16-4.426-4.896 1.313 2.815 2.645 4.133 4.494 4.683z" filter="url(#G)" class="i"/><path d="M93.343 939.842c-2.281-.239-2.649-2.037-3.723-3.441 1.478 1.444 1.718 3.049 3.798 3.331z" filter="url(#H)" class="j"/><path d="M98.148 939.537c-2.653-.406-3.082-3.465-4.33-5.851 1.719 2.456.589 5.48 3.009 5.96z" stroke-width=".158" filter="url(#I)"/><path d="M97.895 939.487c-1.561-.332-1.813-2.836-2.548-4.79 1.011 2.011 1.176 4.245 2.599 4.638z" stroke-width=".11" filter="url(#J)"/></g></g><path d="M1951.518 870.868s1.813-2.13 3.715-2.209c.689.076 4.947.577 3.726 1.35 0 0-2.924-.975-3.774-1.006-1.832-.067-3.667 1.865-3.667 1.865z" class="P"/><path d="M1958.668 871.905c-.201-.471.011-1.137-2.291-1.8-2.528-.729-3.395.86-3.784 1.465.025.076 1.781-1.373 3.759-1.091 2.061.293 2.315 1.426 2.315 1.426z" class="Q"/><use xlink:href="#AE" transform="matrix(.217945 0 0 .217824 1934.7332 665.58819)" fill="url(#K)" filter="url(#M)" class="R S"/><path d="M1956.239 870.336c-.648-.095-.752-.809-1.057-1.367.42.574.488 1.211 1.079 1.323z" class="C N k"/><g transform="matrix(.144611 0 0 .144531 1949.48 751.94363)"><use xlink:href="#AF" transform="matrix(.449809 .025067 0 .425828 31.827536 753.04184)" fill="url(#N)"/><use xlink:href="#AG" transform="matrix(.400977 .022346 0 .3796 32.729878 760.6889)" fill="url(#P)" class="T U V W"/><use xlink:href="#AH" transform="matrix(.290384 .015138 0 .298603 46.600579 801.7546)" fill="url(#S)" class="X Y"/><use xlink:href="#AI" transform="matrix(.442352 .023061 0 .525621 31.674188 736.52828)" class="J Z a b"/><use xlink:href="#AI" transform="matrix(.369775 .018325 0 .417682 32.764512 754.87416)" fill="url(#W)" class="J"/><use xlink:href="#AJ" fill="#b4e2ff" class="K"/><use xlink:href="#AK" fill="#fff" class="K"/></g><use xlink:href="#AD" transform="matrix(.217945 0 0 .217824 1934.7332 665.58819)" fill="#000c12" filter="url(#X)"/><g class="C"><path d="M1953.69 870.836c-.659-.108-1.13-.5-1.44-1.133.427.652.86.957 1.462 1.084z" class="N l"/><g class="O"><path d="M1953.973 870.7c-.489-.107-.838-.498-1.068-1.128.317.648.638.952 1.084 1.079z" class="m"/><path d="M1954.486 870.553c-.442-.101-.757-.471-.965-1.067.286.613.576.9.979 1.02z" class="n"/><path d="M1955.077 870.308c-.497-.052-.577-.444-.811-.749.322.315.374.664.828.726z" class="c"/><path d="M1956.124 870.242c-.578-.088-.672-.755-.944-1.275.375.535.128 1.194.656 1.298z" class="o"/><path d="M1956.069 870.231c-.34-.072-.395-.618-.555-1.043.22.438.256.925.566 1.01z" class="c"/></g></g><path transform="matrix(.217945 0 0 .217824 1934.7332 665.58819)" d="M109.335 946.346c-3.856-.615-1.631 1.734-10.886 4.677-6.519 2.073-14.606-2.764-16.403-5.696 0 0 7.456 8.455 16.266 5.404 7.221-2.5 11.022-4.384 11.022-4.384z" fill="#ce964f" filter="url(#Y)"/></g><g transform="matrix(.896491 .018437 -.018437 .896491 235.95354 -357.32871)"><g fill="#333"><path transform="matrix(.217945 0 0 .217824 1934.7332 665.58819)" d="M126.657 944.647c.923-2.164-.436-7.296 10.512-8.264 5.527-.489 15.579 3.949 17.36 6.728-.116.347-8.172-6.301-17.249-5.009-9.455 1.345-10.623 6.546-10.623 6.546z" filter="url(#Z)"/><use xlink:href="#AE" y="-2" transform="matrix(-.217945 0 0 .217824 1986.2726 665.47375)" filter="url(#a)" class="R S"/><g transform="matrix(-.144611 0 0 .144531 1971.5258 751.39354)" filter="url(#b)"><use xlink:href="#AF" transform="matrix(.449809 .025067 0 .425828 31.827536 753.04184)"/><use xlink:href="#AG" transform="matrix(.400977 .022346 0 .3796 32.729878 760.6889)" class="T U V W"/><use xlink:href="#AH" transform="matrix(.290384 .015138 0 .298603 46.600579 801.7546)" class="X Y"/><use xlink:href="#AI" transform="matrix(.442352 .023061 0 .525621 31.674188 736.52828)" class="J Z a b"/><use xlink:href="#AI" transform="matrix(.369775 .018325 0 .417682 32.764512 754.87416)" class="J"/><use xlink:href="#AJ" class="K"/><use xlink:href="#AK" class="K"/></g><g transform="matrix(.217945 0 0 .217824 1934.7332 665.58819)"><use xlink:href="#AL" filter="url(#c)"/><g class="C"><path d="M149.499 939.738c3.025-.495 5.183-2.296 6.607-5.203-1.96 2.992-3.948 4.392-6.707 4.977z" filter="url(#d)" class="h"/><path d="M148.201 939.115c2.244-.492 3.845-2.284 4.901-5.176-1.454 2.977-2.929 4.37-4.975 4.951z" stroke-width=".16" filter="url(#e)"/><path d="M145.847 938.438c2.027-.465 3.473-2.16 4.426-4.896-1.313 2.815-2.645 4.133-4.494 4.683z" filter="url(#f)" class="i"/><path d="M143.136 937.317c2.281-.239 2.649-2.037 3.723-3.441-1.478 1.444-1.718 3.049-3.798 3.331z" filter="url(#g)" class="j"/><path d="M135.742 937.992c1.45-.299 1.684-2.552 2.366-4.31-.939 1.809-1.092 3.819-2.414 4.173z" filter="url(#h)" class="d"/></g><path d="M126.411 942.649c.956-2.661 4.513-6.321 12.137-7.131 8.055-.856 15.621 4.958 16.709 8.374 0 0-6.638-7.793-15.955-7.271-11.535.645-12.891 6.028-12.891 6.028z" filter="url(#i)"/></g><use xlink:href="#AM" transform="matrix(-.217945 0 0 .217824 1986.1302 664.84914)" filter="url(#j)"/></g><path d="M1969.01 870.135s-1.911-2.028-3.786-2.027c-.673.103-4.831.774-3.584 1.487 0 0 2.817-1.083 3.651-1.149 1.798-.142 3.719 1.689 3.719 1.689z" class="P"/><path d="M1962.337 871.355c.201-.471-.095-1.589 2.291-1.8 1.205-.106 3.395.86 3.784 1.465-.025.076-1.781-1.372-3.759-1.091-2.061.293-2.315 1.426-2.315 1.426z" class="Q"/><path transform="matrix(-.217945 0 0 .217824 1986.2726 665.47375)" d="M81.971 943.303c3.269-.997 6.793-3.909 12.879-4.58 8.225-.443 13.56 1.909 14.751 6.576-7.983-1.048-11.19 9.286-27.63-1.996z" fill="url(#k)" filter="url(#M)" class="R S"/><path d="M1964.767 869.786c.648-.095.752-.809 1.057-1.367-.42.574-.488 1.211-1.079 1.323z" class="C N k"/><g transform="matrix(-.144611 0 0 .144531 1971.5258 751.39354)"><use xlink:href="#AF" transform="matrix(.449809 .025067 0 .425828 31.827536 753.04184)" fill="url(#l)"/><use xlink:href="#AG" transform="matrix(.400977 .022346 0 .3796 32.729878 760.6889)" fill="url(#m)" class="T U V W"/><use xlink:href="#AH" transform="matrix(.290384 .015138 0 .298603 46.600579 801.7546)" fill="url(#n)" class="X Y"/><use xlink:href="#AI" transform="matrix(.442352 .023061 0 .525621 31.674188 736.52828)" class="J Z a b"/><use xlink:href="#AI" transform="matrix(.369775 .018325 0 .417682 32.764512 754.87416)" fill="url(#W)" class="J"/><use xlink:href="#AJ" fill="#b4e2ff" class="K"/><use xlink:href="#AK" fill="#fff" class="K"/></g><use xlink:href="#AL" transform="matrix(.217945 0 0 .217824 1934.7332 665.58819)" filter="url(#o)" class="O"/><g class="C"><path d="M1967.316 870.286c.659-.108 1.13-.5 1.44-1.133-.427.652-.86.957-1.462 1.084z" class="N l"/><g class="O"><path d="M1967.033 870.15c.489-.107.838-.498 1.068-1.128-.317.648-.638.952-1.084 1.078z" class="m"/><path d="M1966.52 870.003c.442-.101.757-.471.965-1.066-.286.613-.576.9-.979 1.02z" class="n"/><path d="M1965.929 869.758c.497-.052.577-.444.811-.749-.322.315-.374.664-.828.726z" class="c"/><path d="M1964.882 869.692c.578-.088.672-.755.944-1.275-.375.535-.128 1.194-.656 1.298z" class="o"/><path d="M1964.318 869.905c.316-.065.367-.556.516-.939-.205.394-.238.832-.526.909z" stroke-width=".022"/></g></g><path d="M1962.284 870.92c.208-.58.984-1.377 2.645-1.553 1.756-.186 3.405 1.08 3.642 1.824 0 0-1.447-1.697-3.477-1.584-2.514.141-2.81 1.313-2.81 1.313z" class="Q"/><use xlink:href="#AM" transform="matrix(-.217945 0 0 .217824 1986.1302 664.84914)" fill="#ce964f" filter="url(#Y)"/></g><path d="M1976.083 459.308s1.103 2.795.743 4.269-1.278 2.96-1.088 4.196 2.313.288 2.313.288" stroke-width=".462" class="C D"/></g><path d="M1971.507 470.365s.648 4.117 2.277 7.045c1.296 2.526 3.174 3.51 3.174 3.51m-5.843-13.181s1.225 6.539 2.854 9.467c1.296 2.526 3.272 3.827 3.272 3.827m-6.183-14.443s1.513 7.367 3.142 10.296c1.296 2.526 3.252 4.261 3.252 4.261" class="D E p"/><g transform="matrix(1.023663 0 0 1.023663 -46.769518 -8.934555)"><g transform="translate(.791 -.527)"><g transform="matrix(.108237 0 0 .086203 1963.8712 389.0679)"><g fill="#333"><path transform="matrix(.980209 0 0 .979664 2.47392 804.90431)" d="M97.005 176.437l11.586 6.64 9.344 2.273 4.546.758 10.607-3.03 5.556-3.788 3.283-4.041-6.819.505-10.607 3.283-6.819.505-7.324-1.263z" filter="url(#p)" class="C"/><g transform="matrix(.980209 0 0 .979664 2.47392 18.858788)"><path d="M101.429 979.505l16.607 3.75 8.214-.357 8.75-3.571 5.357-1.429-13.75 3.214-9.464.357-5.714-.714z" filter="url(#q)"/><path d="M123.571 980.934z" filter="url(#r)" class="C"/><g stroke="#e88989" class="d"><path d="M101.446 979.627l.505 1.585 1.01.226.253-1.811.253 2.264 2.525.453-.253-2.716v2.037l1.515 1.811 1.01-.226v-2.943h-.253l-.253 2.264 1.768 2.49 1.515-.679.253-2.943-.474-.548-2.735-.143-.074.013z" filter="url(#s)"/><path d="M112.127 980.758l-.579 2.716.253 1.358c1.263 1.543 2.525 1.711 3.788 1.358l.505-2.264-.801-2.455z" filter="url(#t)"/><path d="M115.715 981.738l-.031 4.67 4.398.71c.92-2.332.439-3.867-.619-4.971z" filter="url(#u)"/><path d="M121.619 981.759c-1.533 1.084-.675 3.405-.936 5.337 3.708.411 4.633-.39 5.63-.953l-.579-4.837z" filter="url(#v)"/><path d="M126.06 981.211c-.253 1.358.013 4.61.013 4.61 1.992.333 2.792-.526 3.893-1.084l-.61-4.24z" filter="url(#w)"/><path d="M129.83 980.532l.357 4.384 3.03-1.358s.253-2.276-1.01-3.182-2.377.156-2.377.156z" filter="url(#x)"/><path d="M140.474 977.321l-.403 1.35-.805.356-.201-1.399-.201 1.848-2.013.799.201-2.208v1.623l-1.208 1.706-.805-.01v-2.345l.201-.044.201 1.76-1.409 2.291-1.208-.278-.201-2.301.378-.519 2.179-.588h.059z" filter="url(#y)"/></g><path d="M96.074 978.295s7.069.752 16.81 2.852l4.546.758c2.859.359 4.018.174 6.819-.505l7.829-1.515 12.066-3.566-16.864.283c-3.072.01-4.262.757-7.324 1.01-3.188.264-5.495-2.083-8.678-1.768-7.306.724-5.685.231-8.999 1.01l-6.204 1.441z" stroke="#f3cccc" filter="url(#z)" class="d"/><path d="M95.638 978.055c5.627 2.098 17.825 10.736 26.338 10.668 12.367-3.731 18.063-8.701 21.201-12.109-1.898 3.314-8.272 14.346-16.907 17.918-20.139 3.114-20.955-10.294-30.631-16.476z" filter="url(#AA)"/></g></g><g stroke-width=".98" class="C"><path d="M97.559 977.754l11.357 6.505 9.159 2.227 4.456.742 10.397-2.969 5.446-3.711 3.218-3.958-6.684.495-10.397 3.216-6.684.495-7.179-1.237z" class="O"/><path d="M123.6 979.844z" class="D"/></g><g class="P"><path d="M96.647 977.259s6.929.737 16.477 2.794l4.456.742c2.803.352 3.938.171 6.684-.495l7.674-1.484 11.827-3.494-16.53.277c-3.011.01-4.177.741-7.179.99-3.125.258-5.386-2.041-8.506-1.732-7.161.71-5.573.226-8.821.99l-6.081 1.412z" stroke="#f3cccc" stroke-width=".098"/><path d="M96.219 977.024c5.516 2.055 17.472 10.517 25.817 10.451 12.122-3.655 17.706-8.524 20.781-11.863-1.86 3.246-8.108 14.054-16.573 17.553-19.74 3.051-20.54-10.085-30.025-16.141z"/></g></g><path d="M1976.063 475.215c.844.494 1.591 0 1.591 0" stroke-width=".4" class="C D"/></g><g class="C D"><path d="M1989.743 462.276c.403 1.144-.551 1.73-.551 1.73" stroke-width=".4"/><path d="M1990.732 461.299c-.285-.248-.619-.595-1.333-.397s-.857.347-.857.347" stroke-width=".948"/></g></g></g><g transform="matrix(.841139 -.084512 .077019 .922972 1830.2288 -247.17275)"><path d="M107.801 763.524s-4.615-2.063-7.2-.586-4.939 3.172-6.215 5.041c-1.352 1.981.151.868-2.435 3.823s-1.865 7.824-2.973 10.779 1.477 5.91.369 9.234-1.847 8.495-2.586 10.342-4.608 2.973-3.13 5.559 7.608-8.647 7.608-10.124 1.19-4.983 1.005-7.199.196-4.353.239-6.865c.045-2.662 1.58-4.505 1.396-5.613s-.666-3.834-.112-4.942 2.048-1.415 5.373-2.892 4.201 3.061 4.866 1.626zm-3.796 8.184l3.796-8.184s3.473-1.694 6.058-.217 9.234 4.802 8.865 7.387 2.359 3.518 1.974 5.591c-.717 3.86.07 3.71 1.178 6.665s-1.477 5.91-.369 9.234 1.847 8.495 2.586 10.342 3.694 4.802 2.216 7.387-5.91-2.77-5.91-4.248-3.491-3.748-6.621-9.941c-1.003-1.985 1.277-4.746 1.198-7.257-.175-5.535 1.459-3.698 1.643-4.806s.879-1.546-1.471-4.673c-4.852-5.397-3.347-6.133-6.632-7.696-5.725-2.724-6.43 2.215-8.51.414z" stroke-width="1.13" class="C F"/><g transform="matrix(1.162536 .106447 -.095912 1.047473 -2145.2752 90.275646)" class="D E"><path d="M1987.169 457.268s.923.526.851 2.256-1.268 1.549-1.313 2.717.439 2.644-.051 4.793-.937 2.846-.29 4.417c.513 1.246 4.34 5.888 4.34 5.888" class="G"/><path d="M1986.736 456.562s1.954 2.195 2.086 4.02-1.209 1.634-1.116 2.866.806 2.789.529 5.057-.685 3.003.219 4.66c.718 1.315 5.505 6.212 5.505 6.212" stroke-width=".324"/><path d="M1983.864 453.533s6.084 4.088 6.51 6.762-1.197 2.53-.905 4.334 1.368 4.022 1.372 7.389 2.497 4.081 3.816 6.426l2.227 4.269" class="G"/></g><g transform="matrix(1.162536 .106447 -.095912 1.047473 -2145.5292 90.270964)" class="D E"><path d="M1979.761 443.478s-.718-2.563-5.537-.103c-3.896-1.64-5.537 0-5.537 0m10.522 1.538s.355-2.563-5.494-.103c-3.21-1.64-5.537 0-5.537 0" class="G"/><path d="M1979.243 446.548s-.777-2.54-5.993-.102c-4.217-1.626-5.993 0-5.993 0" stroke-width=".311"/><path d="M1980.274 447.886s-3.589-2.973-7.587.923c-4.409-3.486-6.87-.205-6.87-.205" class="G"/></g><path d="M123.702 780.629c-1.147-1.892-2.126-7.008-4.348-9.229s-5.771-4.882-5.771-4.882-.264 1.099.975 2.459c.887.974 2.713 2.112 3.82 3.81.851 1.305 1.11 2.418 5.323 7.842zm-30.609-8.672c-2.418 7.109-.416 4.036-1.621 10.079.287 6.301-1.029 10.593-1.029 10.593s.384-8.545 0-11.863c-.43-3.752 2.646-8.81 2.646-8.81z" fill="#8f5902"/></g></g></g><g class="I"><g class="C"><path d="M540.221 989.141s.159 12.111-.428 19.119l-2.109 22.215c.646 4.471 1.102 9.058-.767 15.301l.569 13.708c-.053 14.704-4.788 38.071-4.788 38.071l-8.19-.123s-4.573-16.22-5.376-34.894c-.026-14.046 1.79-18.338 2.438-23.69s-2.236-14.435-3.578-28.478.621-20.736.621-20.736z" class="H"/><path d="M534.902 1043.272a10.52 10.52 0 0 0 .58 1.957c.435 1.087 1.45.87 1.45.87"/></g><g class="E G"><use xlink:href="#AN"/><use xlink:href="#AN" x="0.508"/><use xlink:href="#AN" x="1.196"/><use xlink:href="#AN" x="2.175"/></g><path d="M536.194 1030.243a191.13 191.13 0 0 0 .461 12.355c.775-5.053.757-8.595-.461-12.355zm-.308 22.095l-2.973 38.654c2.703-12.647 3.865-25.768 2.973-38.654z"/></g><g transform="matrix(1.014145 0 0 1.025752 -1495.151783 399.775601)"><path d="M1968.86 546.1s-7.625 4.598-10.406 17.003c-2.001 8.927-2.402 33.581-2.402 33.581 14.299 5.726 45.391 10.547 56.835.425 0 0 0-28.905-5.603-40.808s-6.804-12.752-6.804-12.752c.697-7.466 11.076-32.372 7.205-43.358-2.27-8.011-9.606-9.777-9.606-9.777s-2.269 18.241-14.809 19.129c-6.004.425-16.204-20.807-16.204-20.807s-5.009.828-7.411 10.18c-2.515 9.082 2.064 27.306 1.711 32.333s1.944 7.096 3.796 8.719 2.597 3.098 3.699 6.132z" class="C I"/><g transform="matrix(.673505 .144571 -.01355 .60106 647.01939 -53.891095)" stroke-width=".307" class="C F"><use xlink:href="#AO"/><use xlink:href="#AP"/><use xlink:href="#AQ"/><use xlink:href="#AR"/></g><g transform="matrix(-.662107 .084877 .002353 .588434 3305.8593 73.49144)" stroke-width=".314" class="C F"><use xlink:href="#AO"/><use xlink:href="#AP"/><use xlink:href="#AQ"/><use xlink:href="#AR"/></g><g class="D E"><g class="p"><use xlink:href="#AS"/><use xlink:href="#AS" x="0.269" y="0.109"/><use xlink:href="#AS" x="0.704" y="0.366"/><use xlink:href="#AS" x="1.315" y="0.622"/><use xlink:href="#AS" x="2.056" y="0.622"/></g><g stroke-width=".171"><use xlink:href="#AT"/><use xlink:href="#AT" x="0.166" y="0.118"/><use xlink:href="#AT" x="0.436" y="0.393"/><use xlink:href="#AT" x="0.814" y="0.668"/><use xlink:href="#AT" x="1.272" y="0.668"/></g><g class="q"><path d="M1996.587 546.09s5.55 7.144 7.645 22.052 1.78 32.302 1.78 32.302"/><use xlink:href="#AU"/><use xlink:href="#AU" x="-0.603" y="0.037"/><use xlink:href="#AU" x="-1.021" y="0.202"/><use xlink:href="#AU" x="-1.388" y="0.33"/></g></g><g transform="matrix(.984929 -.031267 -.026687 .866119 37.593947 140.71092)" stroke-width=".2" class="D E"><use xlink:href="#AV"/><use xlink:href="#AV" x="0.273" y="0.113"/><use xlink:href="#AV" x="0.715" y="0.376"/><use xlink:href="#AV" x="1.335" y="0.639"/><use xlink:href="#AV" x="2.086" y="0.639"/></g><g class="D E q"><use xlink:href="#AW"/><use xlink:href="#AW" x="0.389"/><use xlink:href="#AW" x="0.908"/><use xlink:href="#AW" x="1.574"/><use xlink:href="#AW" x="2.389"/></g></g><path d="M508.51 956.676c-4.819-7.997-3.589-11.176-3.589-11.176m-2.46-18.045c4.716 5.229 5.434 20.711 9.74 21.326s7.895-3.999 7.895-3.999m6.05 9.332c2.256-3.076 2.461-7.895 2.461-7.895" class="C D"/><g class="E G D"><use xlink:href="#AX"/><use xlink:href="#AX" x="0.363" y="-0.217"/><path d="M494.18 932.556l1.243 9.64c.256 2.102-.227 4.078.543 6.33.527 1.54 1.382 3.033 3.097 4.128 1.558.995 3.127 4.306 3.127 4.306m-7.358-25.129l1.388 10.003c.256 2.102-.227 4.078.543 6.33.527 1.54 1.382 3.033 3.097 4.128 1.558.995 3.127 4.306 3.127 4.306"/></g><g class="C"><path d="M487.417 913.271s-9.094 23.573-10.891 26.667c-5.002 8.338-13.688 19.618-16.088 23.797-.681 7.127.775 8.206.775 8.206 1.814-.937 4.19-4.429 7.8-.743.189-3.344 16.772-19.412 19.184-25.651s7.697-16.319 13.057-24.911z" class="H I"/><path d="M487.792 946.553s.87-2.175.87-5.293-1.45-5.872-1.45-5.872m-10.096 3.408s-.797 1.378-.217 2.393.87 1.16.87 1.16m2.32 14.572s-.29 0 .725-5.22-1.305-6.525-1.305-6.525" class="D"/><path d="M499.611 901.057c-11.392.004-19.726 10.154-15.979 21.081 5.827 1.291 8.891 2.476 11.981 7.963 7.374-7.867 9.796-12.327 9.301-21.375-3.259-5.925-3.421-2.991-5.302-7.67z" class="F H"/></g><g class="D E G"><path d="M493.636 902.674c-8.128 3.74-11.101 9.908-10.049 18.288m10.42-18.388c-7.205 3.535-11.255 10.369-10.203 18.749"/><path d="M493.993 902.566c-8.436 5.945-9.82 10.472-10.151 18.595"/><path d="M494.291 902.428c-6.129 5.74-9.204 11.292-10.459 18.749"/></g><g class="C L"><path d="M484.272 916.031s2.469-2.414 3.796-4.656 1.973-4.693 1.973-4.693-2.846 2.047-3.793 3.921-1.976 5.428-1.976 5.428z" stroke-width=".555"/><path d="M493.523 914.49c-.995 2.309-1.748 5.295-1.748 5.295s2.516-2.979 3.267-4.699 1.242-5.013 1.242-5.013-1.766 2.108-2.762 4.417z" stroke-width=".564"/></g><path d="M1961.59 486.328s2.154 3.661 2.934 6.589l1.682 7.796m-5.014-14.768l3.288 8.255 1.527 6.375m-5.292-14.783l2.732 6.863 2.337 8.012m-5.376-15.045l2.117 6.906 2.997 8.126" transform="matrix(.846908 1.01691 -.862496 .687793 -737.58438 -1414.6024)" class="D E G"/><g class="C"><path d="M501.72 918.391c.436-1.726.574-4.928.574-4.928s-1.747 3.166-2.289 4.935-1.222 5.747-1.222 5.747 2.503-4.028 2.938-5.754z" stroke-width=".506" class="L"/><path d="M501.567 900.951s-4.9 2.36-9.57 8.7-4.64 13.34-4.64 13.34m13.05-19.14s.25 6.996-1.885 12.615-6.235 8.99-6.235 8.99" class="D"/><g class="H"><path d="M546.089 958.085c-2.291 2.3-7.248-5.323-5.459-9.183 4.961.055 5.84 6.163 5.459 9.183z" class="e"/><path d="M500.39 957.78c18.977-5.709 33.879-2.484 33.879-2.484l1.462 5.236s-24.369-2.684-39.124 4.278z" class="F"/><path d="M530.491 957.23c.805.952 3.65-2.578 6.168-2.462 0 0-8.592 5.939-7.141 7.476.971 1.03 8.39-6.201 10.041-5.519-.827-.598-7.603 4.119-6.706 5.063.722.76 5.572-3.273 7.717-2.964-1.476-.101-6.192 2.083-5.922 3.531s4.845-2.143 7.067-2.083c-.827-.248-6.357 2.458-5.446 2.67s4.71-.733 5.477-.947 4.63-6.083 6.572-6.356c1.55-.217-1.752-7.384-1.752-7.384-9.424.565-17.293 7.141-16.076 8.974z" class="M"/></g></g><path d="M574.259 1117.218a13.885 54.974 86.739 1 1-109.629 7.31 13.885 54.974 86.739 1 1 109.629-7.31z" fill="url(#AB)"/><g transform="matrix(.849404 0 0 .912425 -1161.0113 477.79492)"><g class="C e r"><path d="M1958.363 683.077s1.231.688-.238 5.242c-2.637 8.814-15.47 15.59-12.395 18.482 4.161 4.217 20.972-8.237 20.972-8.237s5.036-2.007 1.995-7.913c-1.964-3.814-.646-7.796-.646-7.796z"/><use xlink:href="#AY"/></g><path d="M1957.003 682.036c3.764 1.909 7.94 1.766 11.031.667m-2.74 8s0-.436-2.73-1.089-4.758-.073-4.758-.073" class="D s C"/><path d="M1944.427 708.803c3.281 1.9 23.58-8.51 25.15-10.885s.464-5.707-1.271-8.152l-2.978.513c-1.121 4.219-5.347 9.795-14.172 7.844 0 0-11.427 8.668-6.729 10.68z" class="C f t"/><path d="M1968.427 692.254c1.146 3.74-3.521 7.645-15.769 13.746 0 0 14.917-6.73 16.033-9.143s-.264-4.603-.264-4.603z" class="F"/></g><g transform="matrix(.86811 0 0 .932519 -1195.636 465.09577)"><g class="C e r"><path d="M1990.889 680.377s-.101 1.613 2.099 5.717c1.507 2.811 9.117 6.467 9.117 6.467s8.309 2.912 6.917 5.579c-4.05 4.104-25.862-2.654-25.862-2.654-2.203-.348-2.586-5.265-1.739-7.421s.107-7.497.107-7.497z"/><use xlink:href="#AY" x="22.91" y="-2.512"/></g><path d="M1979.669 679.556c3.764 1.909 7.94 1.766 11.031.667" class="C D s"/><path d="M2008.674 698.919c-2.429 2.562-23.947-1.76-26.071-3.523s-2.093-5.075-1.23-7.74l2.86-.289c2.255 3.554 7.733 7.556 15.191 3.541 0 0 12.935 4.987 9.249 8.01z" stroke-width=".986" class="C f"/><path d="M1984.179 687.39c1.124-1.141 4.823-2.087 8.97-1.307" class="C D t"/><path d="M1999.11 692.122c11.191 5.326 8.226 6.259 8.226 6.259z" class="F"/></g><g transform="matrix(-.448841 -.02308 .021486 -.482143 486.70775 1002.2437)"><g transform="matrix(1 0 0 1.223503 2.354564 -14.949158)" class="C"><g class="L g"><use xlink:href="#AZ"/><use xlink:href="#AZ"/></g><g stroke-width=".852"><path d="M57.316 51.939l-9.423-7.756c-.333-.304-1.626-.14-1.986.081-.888.628-1.234 1.149-1.661 2.028-.427 2.197.975 2.98 1.077 3.156l11.156 9.187c1.019.274 1.767-.131 1.799-1.534v-2.376c0-.649.217-1.565-.962-2.785z" class="F"/><path d="M50.924 42.453a7.86 7.86 0 0 0-2.214.319c-.762.278-1.144 1.107-.388 1.76l7.098 5.844c1.472 1.217 2.85 1.015 2.859-1.077v-.114c-.001-3.718-3.294-6.732-7.355-6.732z" class="L"/></g><g class="L g"><use xlink:href="#Aa"/><use xlink:href="#Aa"/></g><g class="F g"><use xlink:href="#Ab"/><use xlink:href="#Ab"/></g></g><g class="C"><g class="F"><g stroke-width=".785"><path d="M53.287 37.744c-2.196 0-3.983-1.835-3.983-4.091s1.787-4.091 3.983-4.091 3.983 1.835 3.983 4.091-1.786 4.091-3.983 4.091z"/><path d="M53.287 30.125c1.894 0 3.434 1.583 3.434 3.529s-1.541 3.528-3.434 3.528-3.435-1.583-3.435-3.528 1.541-3.529 3.435-3.529"/></g><path d="M53.287 29c-2.499 0-4.533 2.087-4.533 4.654s2.033 4.653 4.533 4.653 4.532-2.087 4.532-4.653S55.786 29 53.287 29z" stroke-width=".901"/></g><g stroke-linecap="round" stroke-width="1.027" class="I"><path d="M53.334 289c-1.069-2.168-7.601-7.982-7.601-15l.057-189.709c0-.498.293-.902.653-.902h7.028"/><path d="M53.32 288.987c1.069-2.168 7.601-7.545 7.601-14.987l-.057-189.722c0-.498-.293-.902-.653-.902h-7.028" fill="#3465a4"/></g></g><g transform="matrix(.795147 0 0 .795147 -29.647451 3.632079)"><path d="M124.957 114.065c-2.356 0-4.274-1.851-4.274-4.125v-6.531l-.18.004-2.028.05c-5.23.157-13.335 6.625-13.728 6.942-.2.178-.46.276-.734.276a1.2 1.2 0 0 1-.742-.262c-.087-.071-8.408-6.795-13.743-6.956l-2.209-.055v6.532c0 2.275-1.917 4.125-4.273 4.125s-4.276-1.851-4.276-4.125v-6.336h-4.252c-2.093 0-3.796-1.704-3.796-3.798a3.8 3.8 0 0 1 3.796-3.798h4.252v-6.735c0-2.361 1.918-4.279 4.276-4.279s4.273 1.919 4.273 4.279v6.855l.828.001c5.284 0 14.962-9.069 15.059-9.161l.048-.044a1.07 1.07 0 0 1 .73-.283c.294 0 .589.119.812.326 3.367 3.169 10.848 9.162 15.061 9.162l.827-.001v-6.855c0-2.361 1.918-4.279 4.274-4.279s4.276 1.919 4.276 4.279v6.735h4.251a3.8 3.8 0 0 1 3.796 3.798c0 2.094-1.702 3.798-3.796 3.798h-4.251v6.336c0 2.276-1.919 4.125-4.276 4.125z" fill="#fcef3c"/><path d="M124.957 85.611c2.018 0 3.659 1.644 3.659 3.663v7.351h4.867c1.753 0 3.179 1.428 3.179 3.182s-1.427 3.181-3.179 3.181h-4.867v6.952c0 1.935-1.642 3.509-3.66 3.509s-3.658-1.574-3.658-3.509v-7.163l-2.842.069c-5.531.165-13.764 6.807-14.113 7.091a.48.48 0 0 1-.331.128.57.57 0 0 1-.356-.128c-.348-.283-8.582-6.924-14.11-7.091l-2.843-.069v7.163c0 1.935-1.64 3.509-3.657 3.509s-3.659-1.574-3.659-3.509v-6.952h-4.867c-1.753 0-3.18-1.427-3.18-3.181s1.428-3.182 3.18-3.182h4.867v-7.351c0-2.02 1.642-3.663 3.659-3.663s3.657 1.644 3.657 3.663v7.468l1.444.004c5.5 0 15.078-8.947 15.482-9.328l.043-.039c.089-.083.199-.12.311-.12.139 0 .281.058.39.16.405.381 9.983 9.328 15.482 9.328l1.444-.004v-7.468c0-2.021 1.642-3.664 3.658-3.664" fill="#313131"/><g class="C"><path d="M124.957 84.377a4.9 4.9 0 0 0-4.892 4.896v6.238h-.211c-4.011 0-11.329-5.883-14.638-8.993a1.8 1.8 0 0 0-1.235-.494 1.68 1.68 0 0 0-1.153.453l-.038.034c-3.316 3.117-10.634 9-14.645 9h-.209v-6.238a4.9 4.9 0 0 0-4.891-4.896c-2.698 0-4.893 2.197-4.893 4.896v6.117h-3.635a4.42 4.42 0 0 0-4.413 4.415 4.42 4.42 0 0 0 4.413 4.414h3.635v5.719c0 2.615 2.195 4.743 4.893 4.743s4.891-2.128 4.891-4.743v-5.9l1.569.039c5.139.154 13.29 6.747 13.371 6.814.326.262.728.404 1.136.404a1.71 1.71 0 0 0 1.132-.422c2.843-2.308 9.257-6.673 13.348-6.796l1.572-.039v5.9c0 2.615 2.194 4.743 4.891 4.743s4.893-2.127 4.893-4.743v-5.719h3.634a4.42 4.42 0 0 0 4.413-4.414 4.42 4.42 0 0 0-4.413-4.416h-3.634v-6.117a4.9 4.9 0 0 0-4.892-4.895z" stroke-width="1" class="F"/><g stroke-width="1" class="L"><path d="M104.058 105.109c-3.141 0-5.697-2.562-5.697-5.711s2.556-5.709 5.697-5.709a5.71 5.71 0 0 1 5.696 5.709c0 3.149-2.555 5.711-5.696 5.711z"/><path d="M104.059 94.304c2.8 0 5.079 2.285 5.079 5.093s-2.279 5.093-5.079 5.093-5.081-2.284-5.081-5.093 2.28-5.093 5.081-5.093"/><path d="M104.059 93.071a6.33 6.33 0 0 0-6.314 6.327 6.33 6.33 0 0 0 6.314 6.327c3.481 0 6.312-2.839 6.312-6.327s-2.831-6.327-6.312-6.327z"/></g></g></g></g><g transform="matrix(1.081059 .085967 -.080029 1.161268 -1565.5454 158.08994)" stroke-width=".908" class="C M"><path d="M1923.78 557.233c.442.144 1.128.974 1.128 2.102-.254 3.42.931 4.651 0 4.87-1.025.205-2.245-1.279-2.871-2.563s-.308-4.716-.308-4.716 1.433.107 2.051.308z"/><path d="M1915.002 566.083c.25-.45-.028-.923-.266-1.306-.266-.538-.178-1.184.13-1.686.347-.457.28-1.05-.01-1.516-.411-.519-.283-1.125.124-1.601.161-.401.201-.872.085-1.294-.159-.549-.606-1.043-.469-1.648.043-.438.368-.84.8-.876l7.154.923s1.745.261 1.692 1.846-3.562 1.055-5.485 1.077c1.666.163 5.841-.011 5.793 1.538s-5.844 1.025-5.844 1.025 5.229.113 5.28 1.487-4.665 1.179-4.665 1.179 3.734-.227 3.691.564c-.058 1.077-1.128 1.282-1.128 1.282s-2.409.974-4.05 1.077-2.048-.154-2.048-.154c-.692-.507-1.034-1.521-.782-1.916z"/></g><path d="M501.107 958.117l-3.004 5.519m3.455-5.669l-3.004 5.519m3.717-5.745l-3.004 5.519m3.905-5.781l-3.004 5.519m4.281-5.97l-3.004 5.519" class="D E G"/><g class="C"><g stroke-width="1.021"><path d="M546.257 914.526s17.995 18.906 15.39 28.201c-2.04 7.279-13.345 13.905-13.345 13.905s-.015-2.869-1.499-5.482c-1.499-2.641-5.608-3.728-5.608-3.728l9.372-9.537-14-21.781h0z" class="I"/><path d="M546.312 957.961l1.849-1.164c-.313-7.529-5.18-8.83-7.031-9.21l-1.717 1.588c2.766.615 6.335 1.694 6.899 8.786z" class="F"/></g><path d="M548.974 941.253c2.899-2.295 5.011-.311 5.114-.043" class="D"/><path d="M499.476 901.356s11.423 25.35 13.18 38.472c2.841 21.22 39.525 12.044 45.802-13.224 1.01-4.065-3.248-5.082-5.008-6.6-1.879-1.62-2.032-3.601-3.093-4.446s-3.288-.825-5.107-3.889c-1.562-2.632-.865-3.359-2.493-5.106s-4.132-2.149-6.463-4.03c-3.56-2.873-4.026-5.67-7.088-6.79s-7.883-1.309-7.883-1.309 1.142 4.418 3.993 5.773c0 0 2.056 4.265-9.362 6.961s-16.48-5.814-16.48-5.814z" class="H f"/><g class="D"><path d="M500.551 903.193s16.095 21.895 22.04 23.345 21.025-11.02 21.895-12.325-.435-5.474-.435-5.474m-43.645-5.836s11.455 9.86 13.775 11.165 17.835-2.32 19.575-4.495 2.755-2.03 2.175-4.64-2.973-5.945-2.973-5.945"/><path d="M513.311 918.708c10.103 14.574 12.534 13.113 28.449 11.969 4.061-.292 14.436-3.801 10.121-12.694m-51.33-14.79c12.602 19.428 13.445 28.823 26.825 37.99"/><path d="M509.946 919.253l7.485 18.763"/></g></g><g class="E G D"><path d="M533.709 922.85c-.863 1.129-7.258 4.135-9.86 4.35s-4.858-2.102-4.858-2.102"/><path d="M533.709 923.031c-.863 1.129-7.258 4.389-9.86 4.604s-4.821-2.501-4.821-2.501"/><path d="M533.673 923.103c-.863 1.129-6.569 5.041-9.171 5.256s-5.437-3.19-5.437-3.19"/></g><g transform="matrix(-1.241193 -.322189 -.338575 1.181121 3152.3633 952.5601)" stroke-width=".239" class="D E"><path transform="translate(0 -225.262)" d="M1996.15 730.514c-1.232 1.116-7.483 4.204-10.085 4.419s-5.264-1.823-5.264-1.823"/><path d="M1995.925 505.502c-.863 1.129-7.258 4.389-9.86 4.604s-5.255-2.272-5.255-2.272"/><path d="M1995.889 505.574c-.863 1.129-6.569 5.041-9.171 5.256s-5.795-2.94-5.795-2.94"/></g><g class="F"><path d="M550.287 916.974c6.598 12.47-12.47 12.905-12.47 12.905 16.548-1.361 12.47-12.905 12.47-12.905z"/><path d="M502.605 902.335a2.194 2.357 0 0 1-4.389 0 2.194 2.357 0 1 1 4.389 0z" class="C H"/></g></g></svg>