<svg xmlns="http://www.w3.org/2000/svg" xmlns:xlink="http://www.w3.org/1999/xlink" width="178.998" height="289.999" viewBox="0 0 47.36 76.729" xmlns:v="https://vecta.io/nano"><style><![CDATA[.B{stroke-linejoin:round}.C{fill-rule:evenodd}.D{stroke-linecap:round}.E{stroke:#000}.F{fill:none}.G{fill:#c4a000}.H{stroke-width:1.14}.I{stroke-width:2.704}.J{fill:#edd400}.K{fill:#deaa87}.L{stroke-width:.826}]]></style><defs><radialGradient id="A" cx="100" cy="144" r="60.5" gradientTransform="matrix(-.52727 .52727 -.53636 -.53636 229.96 168.51)" gradientUnits="userSpaceOnUse"><stop stop-color="#c4a000" offset="0"/><stop stop-color="#c4a000" offset=".808"/><stop stop-color="#edd400" offset="1"/></radialGradient><radialGradient id="B" cx="1987.1" cy="910.46" r="43.716" gradientTransform="matrix(1.2651 -.012818 .0068095 .26331 -199.72 1140.5)" gradientUnits="userSpaceOnUse"><stop stop-color="#8f5902" offset="0"/><stop stop-color="#8f5902" stop-opacity=".498" offset=".566"/><stop stop-color="#fff" offset="1"/></radialGradient><filter id="C" x="-.023" y="-.05" width="1.045" height="1.1" color-interpolation-filters="sRGB"><feTurbulence baseFrequency="0.2" numOctaves="7" seed="300"/><feDisplacementMap xChannelSelector="R"/><feBlend in2="SourceGraphic" mode="screen"/><feColorMatrix values="1 0 0 -1 0 1 0 1 -1 0 1 0 0 -1 0 -0.8 -1 0 4 -2.5 "/><feGaussianBlur stdDeviation=".5"/><feSpecularLighting specularExponent="5" surfaceScale="5"><feDistantLight azimuth="225" elevation="35"/></feSpecularLighting><feComposite in2="SourceGraphic" k2="0.5" k3="1" operator="arithmetic"/><feComposite in2="SourceGraphic" operator="in"/></filter><path id="D" d="M2347.5 298.94c0-2.083 1.703-3.777 3.797-3.777 2.104 0 3.808 1.694 3.808 3.777 0 2.094-1.703 3.788-3.808 3.788-2.094 0-3.797-1.694-3.797-3.788"/></defs><g transform="translate(-.633 -.328)"><g transform="matrix(.12021 0 0 .12021 27.067 -10.687)"><path d="M132.693 203.055l-.313 3.443-3.193-1.326-.582 3.408-3.079-1.572-.848 3.352-2.946-1.809-1.108 3.275-2.795-2.034-1.362 3.178-2.627-2.248-1.607 3.061-2.442-2.447-1.842 2.926-2.243-2.631-2.066 2.772-2.03-2.799-2.277 2.601-1.804-2.949-2.474 2.415-1.567-3.082-2.656 2.213-1.32-3.195-2.821 1.998-1.065-3.289-2.969 1.77-.804-3.362-3.099 1.532-.538-3.415-3.21 1.284-.268-3.447-3.301 1.028.003-3.457-3.371.766.274-3.446-3.421.499.544-3.414-3.449.229.81-3.361-3.457-.042 1.071-3.287-3.443-.313 1.326-3.193-3.408-.582 1.572-3.079-3.352-.848 1.809-2.946-3.275-1.108 2.034-2.795-3.178-1.362 2.248-2.627-3.061-1.607 2.447-2.442-2.926-1.842 2.631-2.243-2.772-2.066 2.799-2.03-2.601-2.277 2.949-1.804-2.415-2.474 3.082-1.567-2.213-2.656 3.195-1.32-1.998-2.821 3.289-1.065-1.77-2.969 3.362-.804-1.532-3.099 3.415-.538-1.284-3.21 3.447-.268-1.028-3.301 3.457.003-.766-3.371 3.446.274-.499-3.421 3.414.544-.229-3.449 3.361.81.042-3.457 3.287 1.071.313-3.443 3.193 1.326.582-3.408 3.079 1.572.848-3.352 2.946 1.809 1.108-3.275 2.795 2.034 1.362-3.178 2.627 2.248 1.607-3.061 2.442 2.447 1.842-2.926 2.243 2.631 2.066-2.772 2.03 2.799 2.277-2.601 1.804 2.949 2.474-2.415 1.567 3.082 2.656-2.213 1.32 3.195 2.821-1.998 1.065 3.289 2.969-1.77.804 3.362 3.099-1.532.538 3.415 3.21-1.284.268 3.447 3.301-1.028-.003 3.457 3.371-.766-.274 3.446 3.421-.499-.544 3.414 3.449-.229-.81 3.361 3.457.042-1.071 3.287 3.443.313-1.326 3.193 3.408.582-1.572 3.079 3.352.848-1.809 2.946 3.275 1.108-2.034 2.795 3.178 1.362-2.248 2.627 3.061 1.607-2.447 2.442 2.926 1.842-2.631 2.243 2.772 2.066-2.799 2.03 2.601 2.277-2.949 1.804 2.415 2.474-3.082 1.567 2.213 2.656-3.195 1.32 1.998 2.821-3.289 1.065 1.77 2.969-3.362.804 1.532 3.099-3.415.538 1.284 3.21-3.447.268 1.028 3.301-3.457-.003.766 3.371-3.446-.274.499 3.421-3.414-.544.229 3.449-3.361-.81-.042 3.457z" stroke="#2e3436" stroke-width=".249"/><g class="E"><path transform="matrix(.8595 0 0 .8595 18.05 35.731)" d="m160 144a60 60 0 1 1-120 0 60 60 0 1 1 120 0z" fill="url(#A)"/><path d="M124.4 165.19c.48.033 1.106.248 1.525 1 .342.614 1.145.712 1.519.588.624-.206 1.421-.349 2.194.201s1.607.134 1.46-.869-.509-1.897-1.471-2.45c-2.101-1.208-.641-2.05-1.794-3.262s-.9-1.587-.862-3.238c3.904-.587 6.117-1.712 8.588-4.799s3.429-5.629 3.685-9.5.034-6.379-1.638-9.592-3.433-4.76-6.485-6.364-6.041-1.988-8.805-1.942-4.605.249-6.166 1.14-2.99 2.012-3.9 2.02-1.531-.231-1.973-.57c-.118 3.001 2.582 3.261 4.998 3.325s3.901-.936 6.126-.564 5.869 1.384 7.643 4.474 1.835 4.181 1.688 6.772-2.377 4.524-3.636 4.545-1.54-.343-2.641-1.062-6.727-7.682-8.646-9.246-3.813-2.047-5.859-2.072-2.568.044-4.217.72-2.663 1.921-3.993 2.682c-.68-.4-1.102-.997-1.726-1.453-2.231-1.63-3.389-2.07-6.04-1.812-1.524.148-3.445 1.019-4.591 2.016-2.041 1.775-3.728 4.246-5.09 6.123-1.061 1.462-2.31 3.211-4.092 3.758-1.946.597-3.411-1.924-3.626-3.322-.122-.792-.281-1.487-.282-2.359s.088-1.93.339-2.839.682-1.813 1.148-2.563c.759-1.22 2.001-2.498 3.292-3.155.725-.369 2.431-1.039 3.506-1.063 1.317-.029 2.321.414 3.54.497 1.474.101 4.108.432 5.264-.707.736-.725.828-1.208.954-2.154-.325.268-.779.444-1.184.478-.923.078-1.788-.676-2.533-1.113-.614-.36-1.483-1.003-2.29-1.328-2.072-.835-4.617-.811-6.804-.587-1.753.179-4.026.959-5.563 1.829-1.545.874-3.033 2.347-4.124 3.736-1.372 1.748-2.122 3.247-2.618 5.427-.635 2.784-.811 6.965-.043 9.71.605 2.163 2.614 5.485 4.324 7.114 1.687 1.606 3.634 2.382 5.849 2.806-.087.447-.101.864-.216 1.23-.163.52-.474 1.1-1.114.917-.255-.073-.392-.136-.728.158s-.161 1.431.785 1.941c.48.259.986.315 1.754.33s1.967.019 2.801-.127 1.332-.808 2.255-.911c1.427-.16 2.52-1.191 3.665-1.928.478-.308.639-.311.914-.467l-.446 1.365s-.057.843-.109 1.193-.149.622-.206.906c-.229.204-.302.515-.686.613s-.986-.054-1.379-.107-.657-.267-.965-.208-.601.28-.86.487-.481.237-.69.754-.401 1.575-.43 2.282.051 1.346.26 1.907.394.81.961 1.366 1.492 1.372 2.414 1.94c-.17.251-.245.482-.51.755s-.817.579-1.063.867-.37.495-.374.818.013.743.274 1.095c.653.877 1.425 1.034 2.365 1.446-.158.986-.287 1.691-.058 2.675.093.401.3 1.311.795 1.544s1.45.12 2.054.216.942.187 1.413.281c.286.414.713.87.859 1.241s.102.504-.021.883-.541.93-.659 1.374-.141.921-.031 1.366.3.767.679 1.162 1.124.705 1.496 1.025.742.359.64.889c-.139.728-1.203 1.908-1.972 2.189-.461.168-1.08.115-1.64-.121.038.622.576 1.041.927 1.453-.952-.272-1.875-.793-2.513-1.484.198.6.879 1.563 1.898 2.408s1.013.672 1.519 1.009a6.65 6.65 0 0 1-2.499.006c.392.216 1.036.521 1.888.61s1.377.026 2.145-.16 1.469-.885 2.4-1.366c-.091.345-.155.76-.546 1.115s-.983.536-1.613.843l2.43-.292c.583-.129.974-.265 1.401-.476s.755-.519 1.133-.779c-.181.346-.235.752-.543 1.037s-.808.391-1.213.587c.422-.01.828.082 1.266-.028s.849-.283 1.304-.619.925-.748 1.313-1.171.868-.97 1.013-1.359-.087-.662-.131-.992c.268.176.598.273.804.529s.389.489.298.935-.503.991-.794 1.487c.868-.71 1.353-.983 1.559-1.839.193-.802-.307-1.529-.687-2.136-.189-.301-.471-.581-.648-.872.392-.384.84-.713 1.176-1.151s.477-1.03.82-1.448.805-.684 1.207-1.025c-.353.759-.934 1.69-1.06 2.277s.141.947.35 1.264.545.388.864.583.816.041 1.006.331.241.724.059 1.011l-.745 1.177c.275-.139.748-.542.961-.828s.541-.55.585-.937.067-.722-.184-1.067-.937-.46-1.243-.724-.479-.437-.462-.779.352-.587.639-.803c.877-.658 2.002-1.264 2.747-2.057.421-.448.623-.81.707-1.119s-.006-.55-.214-.93-.926-.888-1.013-1.301.275-.502.602-.647.948.075 1.251-.179-.089-.786.253-1.078 1.123-.129 1.527-.443.57-.704.709-1.16.155-.955.061-1.285-.377-.388-.548-.559-.319-.313-.091-.568.973.014 1.402-.313.166-1.112.469-1.442.847-.201 1.134-.307.4.267.576-.322.181-2.346.418-3.001.702-.044.918-.696.011-1.693.109-2.677l.441-2.677c1.538 1.033 2.553 1.357 4.204 1.649.138 4.042.518 6.422-.854 10.906s-4.148 7.127-7.894 10.923c4.942-3.703 7.302-6.713 8.779-10.569s1.193-7.082 1.045-10.796z" stroke-width=".1" class="J"/></g><path d="M124.4 165.19c.48.033 1.106.248 1.525 1 .342.614 1.145.712 1.519.588.624-.206 1.421-.349 2.194.201s1.607.134 1.46-.869-.509-1.897-1.471-2.45c-2.101-1.208-.641-2.05-1.794-3.262s-.9-1.587-.862-3.238c3.904-.587 6.117-1.712 8.588-4.799s3.429-5.629 3.685-9.5.034-6.379-1.638-9.592-3.433-4.76-6.485-6.364-6.041-1.988-8.805-1.942-4.605.249-6.166 1.14-2.99 2.012-3.9 2.02-1.531-.231-1.973-.57c-.118 3.001 2.582 3.261 4.998 3.325s3.901-.936 6.126-.564 5.869 1.384 7.643 4.474 1.835 4.181 1.688 6.772-2.377 4.524-3.636 4.545-1.54-.343-2.641-1.062-6.727-7.682-8.646-9.246-3.813-2.047-5.859-2.072-2.568.044-4.217.72-2.663 1.921-3.993 2.682c-.68-.4-1.102-.997-1.726-1.453-2.231-1.63-3.389-2.07-6.04-1.812-1.524.148-3.445 1.019-4.591 2.016-2.041 1.775-3.728 4.246-5.09 6.123-1.061 1.462-2.31 3.211-4.092 3.758-1.946.597-3.411-1.924-3.626-3.322-.122-.792-.281-1.487-.282-2.359s.088-1.93.339-2.839.682-1.813 1.148-2.563c.759-1.22 2.001-2.498 3.292-3.155.725-.369 2.431-1.039 3.506-1.063 1.317-.029 2.321.414 3.54.497 1.474.101 4.108.432 5.264-.707.736-.725.828-1.208.954-2.154-.325.268-.779.444-1.184.478-.923.078-1.788-.676-2.533-1.113-.614-.36-1.483-1.003-2.29-1.328-2.072-.835-4.617-.811-6.804-.587-1.753.179-4.026.959-5.563 1.829-1.545.874-3.033 2.347-4.124 3.736-1.372 1.748-2.122 3.247-2.618 5.427-.635 2.784-.811 6.965-.043 9.71.605 2.163 2.614 5.485 4.324 7.114 1.687 1.606 3.634 2.382 5.849 2.806-.087.447-.101.864-.216 1.23-.163.52-.474 1.1-1.114.917-.255-.073-.392-.136-.728.158s-.161 1.431.785 1.941c.48.259.986.315 1.754.33s1.967.019 2.801-.127 1.332-.808 2.255-.911c1.427-.16 2.52-1.191 3.665-1.928.478-.308.639-.311.914-.467l-.446 1.365s-.057.843-.109 1.193-.149.622-.206.906c-.229.204-.302.515-.686.613s-.986-.054-1.379-.107-.657-.267-.965-.208-.601.28-.86.487-.481.237-.69.754-.401 1.575-.43 2.282.051 1.346.26 1.907.394.81.961 1.366 1.492 1.372 2.414 1.94c-.17.251-.245.482-.51.755s-.817.579-1.063.867-.37.495-.374.818.013.743.274 1.095c.653.877 1.425 1.034 2.365 1.446-.158.986-.287 1.691-.058 2.675.093.401.3 1.311.795 1.544s1.45.12 2.054.216.942.187 1.413.281c.286.414.713.87.859 1.241s.102.504-.021.883-.541.93-.659 1.374-.141.921-.031 1.366.3.767.679 1.162 1.124.705 1.496 1.025.742.359.64.889c-.139.728-1.203 1.908-1.972 2.189-.461.168-1.08.115-1.64-.121.038.622.576 1.041.927 1.453-.952-.272-1.875-.793-2.513-1.484.198.6.879 1.563 1.898 2.408s1.013.672 1.519 1.009a6.65 6.65 0 0 1-2.499.006c.392.216 1.036.521 1.888.61s1.377.026 2.145-.16 1.469-.885 2.4-1.366c-.091.345-.155.76-.546 1.115s-.983.536-1.613.843l2.43-.292c.583-.129.974-.265 1.401-.476s.755-.519 1.133-.779c-.181.346-.235.752-.543 1.037s-.808.391-1.213.587c.422-.01.828.082 1.266-.028s.849-.283 1.304-.619.925-.748 1.313-1.171.868-.97 1.013-1.359-.087-.662-.131-.992c.268.176.598.273.804.529s.389.489.298.935-.503.991-.794 1.487c.868-.71 1.353-.983 1.559-1.839.193-.802-.307-1.529-.687-2.136-.189-.301-.471-.581-.648-.872.392-.384.84-.713 1.176-1.151s.477-1.03.82-1.448.805-.684 1.207-1.025c-.353.759-.934 1.69-1.06 2.277s.141.947.35 1.264.545.388.864.583.816.041 1.006.331.241.724.059 1.011l-.745 1.177c.275-.139.748-.542.961-.828s.541-.55.585-.937.067-.722-.184-1.067-.937-.46-1.243-.724-.479-.437-.462-.779.352-.587.639-.803c.877-.658 2.002-1.264 2.747-2.057.421-.448.623-.81.707-1.119s-.006-.55-.214-.93-.926-.888-1.013-1.301.275-.502.602-.647.948.075 1.251-.179-.089-.786.253-1.078 1.123-.129 1.527-.443.57-.704.709-1.16.155-.955.061-1.285-.377-.388-.548-.559-.319-.313-.091-.568.973.014 1.402-.313.166-1.112.469-1.442.847-.201 1.134-.307.4.267.576-.322.181-2.346.418-3.001.702-.044.918-.696.011-1.693.109-2.677l.441-2.677c1.538 1.033 2.553 1.357 4.204 1.649.138 4.042.518 6.422-.854 10.906s-4.148 7.127-7.894 10.923c4.942-3.703 7.302-6.713 8.779-10.569s1.193-7.082 1.045-10.796zm-26.262-1.625c-.38.017-.842.114-1.109.287s-.551.315-.793.562c-.605.616-1.058 1.359-1.259 2.212-.128.544-.147 1.242-.193 1.881.183-.59.306-1.206.567-1.735.411-.834 1.11-1.649 1.977-2.023.286-.124.477-.101.635-.079-.07.118-.188.217-.194.391s.034.512.327.655c.474.23 1 .068 1.366-.255a1.21 1.21 0 0 0 .301-1.351c-.23-.565-1.107-.566-1.626-.543zm4.767-.804c-.048-.971-.398-1.789-1.268-2.265-.45-.246-1.143-.564-1.78-.639-.612-.072-2.1-.019-2.995.389-.687.314-1.156.802-1.759 1.159s-1.033.596-1.607.997c-.882.615-1.399 1.292-2.011 1.697-.294.195-.708.166-1.098.285.304.09.7.19 1.028.085.408-.131.979-.504 1.296-.772.56-.473.85-.704 1.461-1.06.365-.213.965-.463 1.366-.724s1.097-.835 1.483-1.029c.49-.247 1.372-.384 1.917-.368.751.022 1.839.146 2.421.673s.797.986.667 1.667c-.218-.251-.362-.565-.58-.752-.451-.386-.97-.404-1.531-.331-.631.082-.949.447-1.158 1.046.14-.103.398-.329.602-.4.478-.165.84-.114 1.287.126.529.284.385.703.461 1.17.035.215.116.389.174.583.199-.053.383-.135.533-.284-.006.218.025.409-.019.654s-.164.536-.246.805c.368-.368.745-.711.983-1.186s.399-1.004.374-1.526zm-.637-7.065c-.271-.403-.351-1.02-.518-1.523.067.636-.062 1.336.249 1.796s.856.38 1.308.514c-.352-.268-.767-.385-1.039-.788zm6.496 9.432c-.348-.282-1.289-.056-1.992-.006l1.516.388c.047.172.026.369.141.516s.335.201.502.301c-.016-.452.181-.917-.168-1.199zm-4.955-19.589c-.42.226-.952.525-1.323.534s-.468-.242-.686-.388c-.343 1.119-.737 2.348-1.321 3.363-.245.425-.401.228-.587.655s-.268 1.297-.445 1.843-.407.948-.61 1.422c.516-.732 1.184-1.665 1.472-2.274s.104-.662.336-1.242.704-1.484 1.055-2.226c.252.034.564.079.755.02s.153-.263.326-.394.464-.081.707-.291.298-.641.32-1.022zm2.26 5.52c-.395-.035-.886.071-1.255.05s-.634-.117-.951-.176c.059-.557.002-1.581.517-1.953.332-.24 1.697-.059 2.061.019.82.177 1.775.666 2.569.972-.76-.531-1.417-1.023-2.329-1.297-.548-.165-1.827-.379-2.393-.226-.258.07-.31.177-.467.395-.538.752-.537 1.401-.677 2.277-.137.214-.284.357-.395.577s-.174.568-.205.852c.141-.204.055-.461.445-.613s.988-.01 1.515.045c-.384.277-.574.543-.589 1.128-.017.687.564 1.181 1.172 1.228.843.065 1.278-.12 1.619-.84.149-.316.041-.695.054-1.003 1.013.07.997.037 1.737.655-.402.59-.656.929-1.321 1.281-.373.198-.795.39-1.257.469s-1.221.155-1.706.08-.761-.213-1.121-.546-.393-.81-.534-1.187c.032.363.074.825.208 1.088.41.8 1.118 1.037 1.964 1.04.812.002 1.816-.185 2.572-.498.604-.25 1.605-.959 1.843-1.575.162-.421.034-.937.051-1.406-.836-.556-1.043-.419-2.033-.582-.414-.068-.699-.222-1.094-.257zm4.872-3.767c-.023-.333-.061-.326-.091-.489.762-.204 1.067.291 1.514 1.208.167.343.002.548.181.774s.468.194.759.412.579.633.851.857c.558.461 1.313.743 1.96 1.054-.442-.326-1.3-.821-1.578-1.295-.147-.251-.126-.725-.355-.951s-.309-.382-.605-.44-.177-.4-.272-.673-.285-.466-.488-.738-.457-.681-.857-.829-1.022.013-1.324-.073-.129-.305-.348-.437-.647-.074-.941-.215c-.52-.25-.769-.668-1.082-1.115-.045.962-.034 1.655.312 2.561.389 1.019.784 1.619 1.89 2.246.381.216.76.291 1.076.404-.184-.251-.448-.36-.552-.753s-.026-1.174-.05-1.507zm-17.847 4.693c.526.034.65-.035 1.071.262l-.684 1.064c.02-.7-.048-.841-.387-1.326zm1.377-.509c-.728-.31-1.362-.561-2.154-.61-.317-.02-.81.029-1.131.044-.273-.402-.621-.719-.749-1.178-.085-.304-.043-1.717.107-2.084.435-1.067.859-1.112 1.458-1.724.435-.443.452-1.119.582-1.875.048-.278.184-.63.248-.916.783-.132 1.626-.176 2.527-.13-.437-.419-.86-.802-.985-1.432s-.023-1.403.335-1.968.929-1.056 1.454-1.516 1.277-.839 1.774-1.215c-.647-.232-1.307-.572-1.94-.695-1.65-.32-3.072.169-4.664 1.132-.925.56-1.691 1.091-2.658 2.104s-2.167 2.87-3.103 3.972-1.692 1.973-2.509 2.63-1.556.844-2.335 1.266l-1.213 1.288-.981-1.214-1.579.179-.326-1.773-1.449-.397.236-2.389-1.042-.74.783-1.487-.796-1.625 1.037-1.857-.4-1.788 1.201-1.024.157-1.9 1.676-.639.672-1.653 1.884-.021.924-1.227 1.268.089 1.414-.154.799-.59 1.16.77 1.404-.732 2.791 1.06-1.819-1.582-1.885-.301-1.444-.368-1.95.64-1.716-.435-1.655.978-1.751-.097-.86 1.544-1.744.201-.944 1.716-1.097.599-.291 2.199-.977.926.43 1.924-1.151 1.457 1.079 1.561-1.154.976 1.475 1.307-1.494 1.556 1.804.582-1.175 1.669 1.474.254-.966 1.835 1.661-.022-.837 1.374 1.822-.219-.436 1.977 1.377-1.211.472 2.396.95-1.72.515 2.146 1.173-1.582-.032 2.25 1.296-2.023c-.273 1.148-.219 2.405-.973 3.487-2.336-.316-3.863-.905-5.653-2.627-1.63-1.569-3.579-4.839-4.106-6.913-.602-2.367-.621-6.72-.028-9.13.571-2.32 1.312-3.429 2.638-5.322 1.267-1.345 2.512-2.766 4.12-3.726 2.36-1.408 5.386-1.788 8.075-1.751 1.489.02 2.487.306 3.377.63 1.557.566 2.802 1.801 4.385 2.412.516.199.93.205 1.337-.013-.398.796-.831 1.154-1.824 1.444-.718.21-2.432.077-3.612-.032-1.266-.117-1.927-.493-3.65-.47-1.683.023-3.017.663-3.746 1.079-1.505.86-2.584 1.815-3.521 3.327-.515.83-.876 1.767-1.13 2.723s-.365 2.027-.382 2.962.055 1.771.284 2.613c.535 1.972 1.716 3.978 4.143 3.668 1.485-.19 3.723-2.977 4.473-3.999 1.513-2.064 3.069-4.347 4.97-6.065a7.66 7.66 0 0 1 4.304-1.911c2.923-.267 3.79.288 5.99 2.101-.448.143-.885.222-1.343.428-1.018.459-1.949 1.052-2.761 1.812-.851.797-1.233 1.302-1.263 2.443-.02.758.603 1.366 1.175 1.912.35.335.813.641 1.096.901.375.345.84.722.369 1.271-.177.206-.485.362-.745.555-.412.306-.223 1.443.32 1.745.695.386 1.525.342 2.098-.174-.723-.108-1.183-.204-1.164-.796.011-.343.447-.628.875-.823 1.032-.47 1.812-.401 2.839-1.14 1.037-.747 1.06-1.156 1.341-2.328.5.052.961.064 1.63.285s1.408.748 2.015.879c1.529.329 1.834.232 2.671.015 1.474-.381 3.392.272 5.298.881.317.101 1.599.002 2.462.306 1.333.468 3.203 1.6 4.283 2.51 1.636 1.378 3.787 5.503 5.002 10.238.128 1.439-.282 2.409.625 3.112s.882 2.504 1.189 3.009.663.282 1.325.991.999.591.982 1.932c-.57-.375-1.402-.811-2.132-.837-.647-.023-.653.828-2.313-.813-.887-.878-2.593-.905-3.775-1.292s-3.315-1.185-5.45-3.572-3.157-4.9-3.571-8.533c-.066.644-.18 1.371.096 3.148s.87 3.773-.382 6.163l-.78 1.489c.465-.634 1.372-1.668 1.645-2.405l.63-1.7c1.41 2.214 1.734 2.609 3.692 4.195.078.984.097 2.01-.224 2.951s.191 2.026-.054 2.646-.81.267-.995.895.097 1.869-.19 2.48-.99.241-1.33.438-.452.469-.634.729.071.874-.299 1.074-.948.03-1.334.222-.444.652-.352 1.064.504.602.685 1.021.161.711-.057 1.097-.698.597-1.178.792-1.153.085-1.648.354-.94.804-1.201 1.194a1.6 1.6 0 0 0-.32 1.073c.014.409.179.881.398 1.276s.7.876-.052 1.631-.725.429-1.156.919c.047-.847.397-1.537.141-2.175s-1.025-.749-1.43-1.035-.638-.681-.958-1.022c.004.438-.042.909.006 1.239.101.671.299 1.266-.7 1.374-.45.048-.878-.244-1.352-.419.248.444.68.802.745 1.334s-.013 1.116-.381 1.644-1.004.919-1.47 1.229-.716.335-1.074.503c-.018.523.085 1.076.026 1.569a2.86 2.86 0 0 1-.499 1.335c-.285.407-.742.641-1.172.942.236-.549.714-1.071.708-1.648s-.18-.987-.743-1.499-1.882-.957-2.504-1.455-.822-.804-1.046-1.287-.161-1.263-.202-1.698a5.11 5.11 0 0 0-.3 1.436c-.067.638.371 1.532.557 2.004-.769-.372-1.257-.965-1.504-1.546-.165.098-.082.366-.142.883-.274-.273-.586-.483-.862-.74s-.579-.483-.716-.843-.081-.741.021-1.158.568-.901.819-1.357-.044-.904-.027-1.454c.502-.086.929-.342 1.506-.259s1.239.731 1.83.739.922-.546 1.406-.698.974-.135 1.46-.203c-.616-.59-3.009-.872-4.645-1.139-1.44-.235-2.869-.371-4.328-.391-.652-.01-1.489.206-1.941.076s-.356-.438-.49-.774c-.376-.939-.19-1.776.014-2.722 1.31-.154 2.674-.341 3.994-.24 1.29.099 2.818.712 4.149.754 1.157.036 2.87-.222 3.864-.827 1.214-.74 2.153-2.329 2.487-2.839.543-.831 1.228-2.462 1.645-3.207s.508-.954.855-1.265.822-.335 1.232-.503c-.473.048-.99-.101-1.42.145-.646.371-1.369 1.907-1.771 2.576-.426-1.428-.327-1.989-1.559-2.794.993 1.113 1.018 1.957 1.26 3.268-.826 1.356-1.974 3.515-3.477 4.114-.543.217-1.475.352-2.062.425-1.826.226-3.588-.353-5.381-.795-1.311-.324-2.641-.193-4.236-.1-.541.032-1.818-.294-2.082-.841-.143-.295-.132-.65.073-.965s.752-.467 1.045-.75.462-.62.692-.93c1.218.234 2.22.323 3.124.348-.648-.267-1.27-.419-1.945-.683a11.62 11.62 0 0 1-1.986-1.057c-.545-.36-.892-.568-1.287-.987s-.899-.85-1.189-1.362-.336-1.084-.352-1.718.011-1.522.255-2.032.714-.665 1.093-.785.637.185 1.03.226.761.289 1.33.022 1.243-.812 1.818-1.62.986-2.129 1.572-3.146c1.01-1.752 2.269-3.388 3.474-5.012.099-.4.248-.954.298-1.497.086-.946.103-1.929-.191-2.852-.225-.707-.552-1.453-1.292-1.743-.296-.116-.671-.162-.935-.064s-.525.397-.421.742c.114.38.377.39.556.582.303.325.425.564.539.969-.328-.006-.771-.03-1.04.041-.351.093-.678.325-.857.823.419-.372.628-.542 1.151-.556.24-.006.531.08.796.12.099.322.157.718.297.967s.412.19.515.481.108.765.057 1.148zm-3.663-.437c-.161.063-.222.077-.425.232s-.484.309-.645.679-.154.942-.12 1.175c.141-.042.334-.014.481-.139s.234-.409.421-.531.345-.095.552-.121c-.107.303-.158.607-.109.882.108.601.461.905 1.032.977.25.031.646-.051.863-.09-.101.225-.271.422-.372.647-.483-.07-.842-.06-1.102-.182s-.539-.394-.872-.509-.631-.114-.996-.17c.288.248.476.496.764.744l-.632 1.837c-.447.279-.866.427-1.428.772s-1.238.962-1.971 1.299-1.17.52-1.936.664-1.375.765-2.129.866a16.34 16.34 0 0 1-2.742.065c-.659-.064-1.516-.405-1.593-1.128.553.136 1.397.014 1.824-1.026.189-.462.096-1.312.386-1.858s.693-.722 1.176-1.395 1.272-1.735 1.715-2.637.547-1.923.922-2.732.94-1.461 1.377-2.084c.956-1.361 1.727-2.292 3.302-2.978.758-.33 1.62-.418 2.43-.628.33.148.782.311.862.696a1.57 1.57 0 0 1-.354 1.244c-.468.484-1.162 1.007-1.435 1.776-.175.493-.226 2.148-.074 2.597.158.466.524.748.828 1.059zm-.153 3.916c.146.126.258.256.493.361s.556.132.868.21c-.438.681-.897 1.369-1.317 2.086s-.783 1.5-1.183 2.25c.019-.43-.007-.888.056-1.29s.245-.753.425-1.356l.657-2.261zm11.774-14.977c.062.67-.052 1.718-.19 2.374-.166.785-.326 1.192-.964 1.666-1.167.866-1.912.72-2.81 1.223-.427.239-.968.64-1.126 1.063s.104.884.428 1.064c-.567.084-1.202-.554-.937-1.21.131-.323.752-.467.943-.792s.19-.661.1-.991c-.162-.596-1.341-1.138-1.758-1.609-.641-.725-.887-1.332-.524-2.265.51-1.312 2.48-2.364 3.66-2.879.54-.236.843-.252 1.264-.379-.862.505-1.772.908-2.208 2.038-.364.944-.049 1.299-.061 2.12-.006.381-.507.571-.73.812-.194.209-.178.364-.023.653a.75.75 0 0 1 .328-.596c.33-.234.686-.184.862-.664.267-.73-.262-1.421.333-2.24.445-.613 1.037-1.299 1.836-1.317.378-.008.662.048 1.066.168l.538-.648.013-.008c1.095-1 1.845-1.823 3.381-2.51s2.294-.791 4.055-.752 3.51.186 5.55 1.946 7.299 8.497 8.574 9.35 1.558 1.142 3.151 1.142 4.08-2.253 4.178-5.07.137-3.818-1.821-7.211-5.505-4.435-8.137-4.787-4.214.575-6.16.58-3.871-.332-4.438-1.88c.278.165.65.352 1.696.297s2.497-1.266 4.129-2.078 3.448-.907 5.777-.951 5.235.134 8.115 1.688 4.845 3.204 6.515 6.246 1.919 5.526 1.65 9.21-1.405 6.423-3.593 9.119-4.374 4.015-8.315 4.506l-.83-3.66 1.481 2.126-.037-2.364 1.34 1.663.588-2.255 1.086 1.808.539-2.518 1.573 1.272-.498-2.077 2.082.23-.956-1.444 1.898.023-1.104-1.928 1.684-.267-1.343-1.753 2.062-.611-1.707-1.635 1.685-1.374-1.318-1.025 1.233-1.64-1.315-1.531.491-2.022-1.117-.973-.332-2.31-1.253-.629-1.078-1.804-1.993-.212-.983-1.622-2.002.102-1.891-1.028-1.962.457-2.228-.673-1.65.387-2.154.317-2.079 1.663 3.189-1.113 1.604.769 1.326-.809.913.62 1.616.162 1.449-.094 1.056 1.289 2.153.022.768 1.737 1.915.672.179 1.997 1.373 1.076-.457 1.879 1.186 1.951-.91 1.707.895 1.562-1.191.777.27 2.511-1.656.417-.373 1.863-1.805-.188-1.121 1.276-1.386-1.353c-2.526-1.26-3.567-1.964-5.536-4.094-2.241-2.424-3.526-4.666-6.512-6.325-2.141-1.19-3.888-1.619-6.293-1.203-2.258.39-3.015 1.745-4.678 3.172-.176-.319-.212-.404-.503-.639.091.414.236.844.273 1.243z"/><g transform="matrix(-1.084 0 0 -1.084 216.72 331.69)"><path d="M140.42 135.13l-4.897 3.151 1.753 2.725-.621.399-2.206-3.428 5.517-3.55.453.704m2.791 4.819l-5.835 3-.387-.752 5.835-3 .387.752m-1.66 8.21c-.528.199-1.014.193-1.459-.018s-.77-.589-.975-1.133l-1.043-2.771 6.14-2.312.939 2.493c.129.343.19.659.185.95s-.07.53-.192.717a1.75 1.75 0 0 1-.392.465 1.65 1.65 0 0 1-.474.274 1.46 1.46 0 0 1-1.66-.346c-.004.45-.091.807-.261 1.07s-.438.472-.808.612m.884-2.939c.309.82.789 1.107 1.44.862s.823-.778.514-1.598l-.571-1.516-1.954.736.571 1.516m-2.656 1.452c.104.275.247.478.431.607s.367.192.534.193a1.4 1.4 0 0 0 .503-.093c.32-.121.54-.312.659-.575.125-.265.12-.574-.013-.928l-.72-1.912-2.114.796.72 1.912m3.412 3.566l-2.206.442.76 3.795-.724.145-.924-4.615 6.433-1.288.892 4.457-.724.145-.728-3.636-2.056.412.702 3.504-.724.145-.702-3.504m1.331 9.598a1.75 1.75 0 0 1-.282.486c-.11.136-.236.233-.378.291a1.68 1.68 0 0 1-.401.13 3.23 3.23 0 0 1-.449.041 3.89 3.89 0 0 1-.234-.002l-.225.007c-.246.008-.452.041-.618.101a.79.79 0 0 0-.404.328l-.207.007-.032-1.017c.272-.129.627-.2 1.065-.214l.585-.019c.402-.013.693-.109.873-.289.186-.18.274-.456.262-.828l-.069-2.159-2.825.09-.027-.837 6.558-.208.096 3.023c.02.642-.117 1.138-.412 1.49-.289.357-.715.545-1.279.563-.372.012-.683-.059-.934-.213s-.472-.411-.664-.771m1.453.116c.432-.014.725-.137.88-.37s.226-.55.213-.952l-.064-2.024-2.258.072.064 2.024c.014.444.114.765.301.963.187.204.475.3.865.288m.707 5.363l-5.781-.698.1-.831 5.781.698.259-2.144.733.089-.617 5.111-.733-.089.258-2.136m-5.2 5.8l.669-2.439-1.717-1.19.236-.859 5.708 3.993-.286 1.042-6.937.486.248-.903 2.079-.129m.739-.04l3.148-.181-2.596-1.832-.553 2.014m-3.418 1.948l5.948 2.768-1.067 2.293c-.352.756-.892 1.226-1.619 1.41s-1.554.061-2.479-.369-1.552-.987-1.883-1.671c-.328-.675-.317-1.388.033-2.139l1.067-2.293m.316 1.07l-.653 1.403c-.273.587-.285 1.125-.035 1.612s.75.905 1.501 1.254 1.401.467 1.934.344.937-.477 1.21-1.065l.653-1.403-4.61-2.146m-72.792-.398l2.127-.735-1.264-3.658.698-.241 1.537 4.449-6.201 2.143-1.484-4.296.698-.241 1.211 3.505 1.982-.685-1.167-3.377.698-.241 1.167 3.377"/><path d="M66.789 166.09c-.059-.331-.147-.605-.265-.821s-.248-.367-.391-.451a1.11 1.11 0 0 0-.404-.166c-.132-.025-.267-.026-.402-.001-.49.087-.768.545-.834 1.374l-.139 1.679c-.068.884-.495 1.395-1.28 1.536-.585.104-1.082-.017-1.491-.365-.416-.352-.688-.883-.814-1.592-.133-.744-.059-1.355.222-1.831.275-.476.728-.773 1.359-.891l.139.78c-.418.081-.715.28-.89.597-.181.319-.225.735-.134 1.249.078.437.241.771.489 1.001.247.224.533.307.858.249.248-.044.429-.159.542-.343s.188-.482.225-.89l.145-1.699c.04-.458.181-.831.422-1.118a1.54 1.54 0 0 1 .954-.545 2.01 2.01 0 0 1 .527-.021c.173.012.361.06.565.146a1.92 1.92 0 0 1 .55.368c.168.159.324.384.468.675a3.69 3.69 0 0 1 .316 1.004 3.96 3.96 0 0 1 .063.711 2.86 2.86 0 0 1-.084.71 2.17 2.17 0 0 1-.293.665c-.136.195-.33.373-.581.533a2.73 2.73 0 0 1-.909.336l-.139-.78.044-.008a1.64 1.64 0 0 0 .5-.171c.149-.088.289-.207.421-.358.13-.157.221-.368.271-.633.043-.27.034-.579-.028-.927m-2.928-12.372c.97.063 1.757.403 2.36 1.019s.874 1.404.811 2.362c-.062.946-.425 1.689-1.092 2.229s-1.521.776-2.544.709-1.831-.411-2.422-1.032c-.597-.622-.865-1.403-.804-2.343.062-.958.429-1.704 1.102-2.237.672-.54 1.535-.775 2.589-.706m-2.954 2.992c-.045.695.167 1.27.636 1.728.463.457 1.099.712 1.907.764s1.475-.118 1.999-.51c.519-.399.801-.946.846-1.641s-.164-1.27-.627-1.727c-.463-.463-1.09-.72-1.88-.772-.826-.054-1.502.116-2.026.509s-.81.942-.856 1.649m4.195-8.583a1.75 1.75 0 0 1 .403-.391c.143-.101.29-.16.443-.177a1.68 1.68 0 0 1 .421-.016c.127.013.274.041.443.083l.225.065.218.054c.239.059.446.083.622.071a.79.79 0 0 0 .478-.206l.201.05-.246.987c-.297.05-.658.022-1.083-.084l-.568-.141c-.39-.097-.696-.084-.919.04s-.387.364-.477.725l-.522 2.096 2.742.683-.202.812-6.367-1.585.73-2.935c.155-.623.422-1.064.802-1.321.375-.265.836-.33 1.384-.194.361.09.641.243.841.46s.343.524.429.923m-1.367-.507c-.419-.104-.735-.065-.947.117s-.367.468-.464.858l-.489 1.965 2.192.546.489-1.965c.107-.431.098-.767-.027-1.008-.124-.247-.375-.418-.754-.512m4.727-7.673c.886.4 1.503.994 1.852 1.783s.325 1.621-.069 2.496c-.39.864-.991 1.432-1.805 1.704s-1.696.193-2.632-.229-1.57-1.027-1.906-1.817-.317-1.617.07-2.476c.395-.875 1-1.445 1.817-1.708.819-.269 1.71-.187 2.672.248m-3.817 1.764c-.286.634-.29 1.248-.011 1.841.273.591.779 1.052 1.518 1.385s1.422.408 2.051.224c.626-.192 1.082-.605 1.368-1.239s.292-1.247.019-1.838c-.271-.596-.767-1.057-1.489-1.382-.755-.34-1.447-.419-2.076-.235s-1.089.598-1.38 1.244"/></g></g><g transform="matrix(.31897 0 0 .28857 -718.31 -318.5)"><path d="m2376.3 1358.1a55.462 11.302 0 1 1-110.92 0 55.462 11.302 0 1 1 110.92 0z" fill="url(#B)"/><g fill="#b3b3b3"><path d="M2292.393 1137.001l8.983 2.92-6.403 19.696-8.983-2.92z"/><g class="C E"><path d="M2303.6 1120.7c.523 4.463-2.971 13.698-7.008 15.977-8.554 5.085-3.651 11.038-8.651 18.479-5.33 3.193-3.991 2.458-4.317-.471-.222-4.232 4.993-17.687 9.837-19.786 5.599-2.922 5.859-14.979 10.139-14.199z"/><path d="M2323.7 1121.1c.653.591.093 2.91.646 4.073.419.881.787 1.001 1.033 2.037.22.923 1.879 1.505 2.325 2.444.936 1.966 1.679 1.216 1.679 3.53 0 1.15.646 2.307.904 3.394.301 1.266.493 1.876 1.292 2.716.516.542.536 2.232.775 2.987.378 1.19 2.193 2.183 1.938 3.258-.247 1.038.516 2.037-.258 2.851-1.235 1.298.437 2.935-.775 4.209-.754.793-1.67.639-1.938 1.765-.33 1.389-1.674 1.431-2.454 2.58-2.19 3.223-5.001 3.118-8.138 3.53-1.929.253-4.316 1.163-6.071 1.901-1.492.627-4.408.136-5.942.136-2.698 0-5.648.438-8.138-.543-2.029-.8-3.891-2.179-5.813-2.987-.721-.303-.428-1.578-.775-2.308-.595-1.25-1.987-.7-.646-2.58.344-.482-.216-1.926-.517-2.715-.381-1.001.775-2.186.775-3.259 0-.687-.021-2.215-.258-2.715-.469-.986 1.034-2.168 1.034-3.123 0-.831-.048-1.698.129-2.444.211-.888 1.118-1.259 1.292-2.172.224-1.177 1.616-1.354 1.292-2.716-.213-.895 1.106-1.823 1.55-2.172.945-.745 1.162-1.707 1.162-2.987 0-.943.416-2.096.775-2.851.438-.92.313-2.29.129-3.258-.206-1.084.6-1.957 1.033-2.716.574-1.006 1.295-2.114 1.679-3.123.323-.848 4.627-.815 5.296-.815 1.488 0 3.166-.203 4.521.272.755.264 1.821.071 2.584.272 1.183.311 2.232.477 3.359.95 1.094.46 2.464-.116 2.971.95.122.255 1.17.963 1.55 1.629z"/></g></g><g class="E K"><path d="M2304.6 1148c.195 1.611-.136 2.213-1.163 3.244-.674.677-2.113 2.16-1.292 2.985.355.357.861.519 1.292.779 2.266 1.366 5.668.763 7.751 2.855.552.555 1.44 1.335 2.325 1.557 1.305.328 2.909.13 4.263.13 2.394 0 4.717-1.038 7.234-1.038.403 0 .274-2.141.388-2.595.176-.708-.867-.87-1.421-1.428-1.049-1.053-2.557-1.796-3.617-2.595-.669-.504-.557-1.248-.904-1.947-.615-1.236-1.326-1.518-2.842-1.687-2.531-.283-5.191 0-7.751 0-1.037 0-2.194-.389-3.359-.389-.305 0-.603.087-.904.13z" class="C"/><ellipse transform="matrix(.78789 0 0 .89935 1180.1 811.33)" cx="1438.4" cy="361.6" rx="15.248" ry="18.795" stroke-width="1.188" class="B"/></g><g class="C"><g class="E"><path d="M2341.3 1343.6a7.01 7.01 0 0 0-3.476 1.152c-.86.487-1.736 1.014-2.727 1.124-3.246 1.449-2.349 7.711 1.364 7.56 3.234.673 6.651-.176 9.84.871 3.348 1.61 7.012 2.508 10.642 3.007 4.138-1.327.551-6.222-2.032-7.223-2.267-2.222-5.269-3.1-7.808-4.834-1.722-1.122-3.788-1.785-5.802-1.658zm-41.553 1.799c-.218.023-.426.076-.642.14-4.41 1.089-5.39.395-9.374 2.893-2.328 2.301-7.502 7.962-4.771 10.203 3.098 1.428 6.195-.906 8.824-2.417 2.726-3.216 7.719-.544 10.375-3.85 2.146-3.076-1.147-7.31-4.412-6.97z" fill="maroon"/><path d="M2284 1210.5h-.277c-.298 0-2.381 9.991-3.323 11.64-1.773 3.107-1.108 7.274-1.108 10.767 0 2.473-.095 4.573-.554 6.984-.552 2.899-1.904 5.639-3.046 8.439-.981 2.405-.277 6.765-.277 9.312v9.603c0 2.603-.277 5.44-.277 8.148 0 3.173.277 6.123.277 9.312v11.058c0 3.159.277 6.137.277 9.312 0 3.921.275 6.835 1.661 10.476.671 1.762.831 4.202.831 6.111v6.984c0 2.371 1.384 4.641 1.384 7.275v14.259c0 2.274.743 1.746 2.769 1.746 2.014 0 3.26-.873 5.261-.873 1.539 0 3.327.582 5.261.582 2.416 0 3.656-1.834 5.537-2.328 2.665-.7 4.626.873 6.922.873 1.607 0 3.33.873 5.261.873 2.574 0 4.579-1.164 6.922-1.164 2.843 0 3.081-.253 4.984 1.746 1.494 1.571 5.861 1.164 7.753 1.164 2.305 0 3.916-.582 6.091-.582 2.359 0 5.449-.021 7.476-.873 1.47-.618 4.73.01 5.814.291 2.161.568 4.257.306 6.368-.582 1.84-.774-1.883-3.666-2.769-5.529-.938-1.972-1.108-3.388-1.108-5.82 0-2.627-.554-4.065-.554-6.693 0-2.189.277-3.727.277-6.111v-19.206c0-4.053.052-8.112-.554-11.931-.461-2.908-.277-6.213-.277-9.312v-9.021c0-4.938-4.195-10.911-4.707-16.296-.618-6.492-4.171-11.708-5.814-17.752-.976-3.589-2.598-7.85-4.43-11.058-1.699-2.976-2.693-5.326-4.707-8.148l-.831-1.164c-4.598-6.444-14.648-8.011-21.042-11.931-5.938-3.64-17.333-6.46-22.98-3.492-1.17.615-1.539 1.659-2.492 2.91z" class="J"/></g><path d="M2292.2 1206.3c-6.668-.04-8.504 7.838-12.324 12.081-3.934 4.096-5.226 14.084 1.249 16.166 6.286 1.483 13.836-.442 19.028 4.418 4.85 5.74 3.671 13.956 5.426 20.871 2.53-2.452 2.49-8.574 4.761-12.142 2.593-5.854 7.191-10.329 12.171-13.916 3.748-3.979.109-9.535-2.794-12.726-4.016-4.544-7.788-9.823-13.69-11.744-4-1.891-8.469-1.33-12.619-2.349l-.616-.288zm34.146 37.66c-.291.764-.827 2.174 0 0zm-.428 1.124c-1.4 7.89-.248 16.065-1.494 23.915-2.836 6.71-6.618 13.739-5.182 21.357.271 8.958.73 18.076-1.305 26.864.88 9.194-1.874 18.563.521 27.63 6.197-2.573 4.875-11.757 8.472-16.83 2.048-5.014 3.02-11.315 7.99-14.168 4.219-.748 3.106 12.542 5.057 4.735 2.393-7.03 5.517-15.111 1.832-22.307-4.177-9.665-3.215-20.39-2.444-30.641.486-6.458-.776-13.667-6.159-17.642-2.068-1.719-4.627-2.878-7.289-2.914zm-33.627 52.418c-2.351 9.634-4.141 19.542-3.797 29.531-.746 5.181-6.034 9.368-4.508 14.841 3.525 4.309 8.959-2.133 12.256-4.434 2.271-6.182-1.709-12.979-1.132-19.534-.474-6.982-.745-14.053-2.524-20.838-.139.111-.202.285-.295.433z" opacity=".25" stroke="#4d4d4d" class="G"/></g><path fill="#ed1c24" d="M2304.6 1173h37.088v25.997H2304.6z"/><g class="E"><g class="C G"><path d="M2284.9 1171.3c-1.731 0-5.388 1.982-6.275 4.312-.563 1.479-1.695 2.796-2.896 4.059l-.724.761c-.561.589 0 5.323 0 6.088 0 3.551.517 6.902 2.413 9.893 1.856 2.926 5.125 3.581 7.964 5.073 1.702.895 6.382 0 8.206 0 1.964 0 5.499-1.862 6.999-3.044.144-.113.322-.169.483-.254 1.796-.944 3.204-3.346 3.861-5.073.939-2.468 3.402-4.362 4.585-6.849.931-1.956-.604-4.569-.965-6.088-.639-2.688-6.262-4.559-8.206-5.581-2.211-1.162-4.942-2.561-7.24-3.044-2.017-.424-3.488-.941-5.551-.507-.158.033-.322 0-.483 0-.729 0-1.444.254-2.172.254zm57.8-10.7c.659.251 2.662 1.692 3.576 2.653.664.698 2.028 1.589 2.945 2.874 1.289 1.806 1.355 4.004 2.103 5.969.494 1.297.997 2.558 1.683 3.758l2.945 5.085c1.216 2.13 1.262 6.221 1.262 8.622 0 3.425-4.073 3.778-6.521 4.421-1.605.422-3.82.221-5.469.221-6.478 0-7.851-9.184-9.465-13.707-1.983-5.558-.867-11.739 2.314-15.918.968-1.272 2.378-2.398 3.155-3.758.255-.447.986-.119 1.472-.221z"/><path d="M2356.8 1178.2c-.209 1.918 1.336 4.734 1.893 7.074a37.6 37.6 0 0 0 2.103 5.969c.418.88 0 3.355 0 4.422v3.758c0 2.227-.313 3.752-1.262 5.748-.593 1.247-1.617 2.584-2.314 3.316-.492.517-2.995.221-3.786.221-1.075 0-2.154-.013-2.945-.221-2.118-.557-2.818-.367-3.997-2.432-1.599-2.8-1.683-5.637-1.683-9.285 0-2.657-.631-5.526-.631-8.18v-7.074c0-1.231 2.59-2.356 3.155-2.653 1.426-.749 3.23-1.054 4.417-1.99 1.379-1.087 3.047-1.244 4.417-.884.591.155.568 1.882.631 2.211z"/></g><g transform="matrix(.45604 -.073577 .14563 .90266 1572.2 756.49)" fill="#eac102" class="B"><g stroke-width="1.082" transform="matrix(.76373 0 0 .76373 305.49 115.74)"><circle transform="matrix(.58621 0 0 .58621 635.08 403.76)" cx="1420.2" cy="423.35" r="6.456"/><circle transform="matrix(.58621 0 0 .58621 640.42 402.42)" cx="1420.2" cy="423.35" r="6.456"/><circle transform="matrix(.58621 0 0 .58621 645.77 401.31)" cx="1420.2" cy="423.35" r="6.456"/><circle transform="matrix(.58621 0 0 .58621 650.22 401.31)" cx="1420.2" cy="423.35" r="6.456"/><circle transform="matrix(.58621 0 0 .58621 655.12 401.31)" cx="1420.2" cy="423.35" r="6.456"/><circle transform="matrix(.58621 0 0 .58621 660.69 399.98)" cx="1420.2" cy="423.35" r="6.456"/><circle transform="matrix(.58621 0 0 .58621 665.58 399.98)" cx="1420.2" cy="423.35" r="6.456"/><circle transform="matrix(.58621 0 0 .58621 670.04 399.98)" cx="1420.2" cy="423.35" r="6.456"/><circle transform="matrix(.58621 0 0 .58621 674.93 399.98)" cx="1420.2" cy="423.35" r="6.456"/><circle transform="matrix(.58621 0 0 .58621 680.5 401.31)" cx="1420.2" cy="423.35" r="6.456"/><circle transform="matrix(.58621 0 0 .58621 685.39 401.31)" cx="1420.2" cy="423.35" r="6.456"/><circle transform="matrix(.58621 0 0 .58621 689.85 401.31)" cx="1420.2" cy="423.35" r="6.456"/><circle transform="matrix(.58621 0 0 .58621 694.75 401.31)" cx="1420.2" cy="423.35" r="6.456"/><circle transform="matrix(.58621 0 0 .58621 698.75 401.76)" cx="1420.2" cy="423.35" r="6.456"/><circle transform="matrix(.58621 0 0 .58621 704.1 403.54)" cx="1420.2" cy="423.35" r="6.456"/></g><g stroke-width=".977" transform="matrix(.83083 0 0 .86139 204.24 47.91)"><circle transform="matrix(.58621 0 0 .58621 635.08 403.76)" cx="1420.2" cy="423.35" r="6.456"/><circle transform="matrix(.58621 0 0 .58621 640.42 402.42)" cx="1420.2" cy="423.35" r="6.456"/><circle transform="matrix(.58621 0 0 .58621 645.77 401.31)" cx="1420.2" cy="423.35" r="6.456"/><circle transform="matrix(.58621 0 0 .58621 650.22 401.31)" cx="1420.2" cy="423.35" r="6.456"/><circle transform="matrix(.58621 0 0 .58621 655.12 401.31)" cx="1420.2" cy="423.35" r="6.456"/><circle transform="matrix(.58621 0 0 .58621 660.69 399.98)" cx="1420.2" cy="423.35" r="6.456"/><circle transform="matrix(.58621 0 0 .58621 665.58 399.98)" cx="1420.2" cy="423.35" r="6.456"/><circle transform="matrix(.58621 0 0 .58621 670.04 399.98)" cx="1420.2" cy="423.35" r="6.456"/><circle transform="matrix(.58621 0 0 .58621 674.93 399.98)" cx="1420.2" cy="423.35" r="6.456"/><circle transform="matrix(.58621 0 0 .58621 680.5 401.31)" cx="1420.2" cy="423.35" r="6.456"/><circle transform="matrix(.58621 0 0 .58621 685.39 401.31)" cx="1420.2" cy="423.35" r="6.456"/><circle transform="matrix(.58621 0 0 .58621 689.85 401.31)" cx="1420.2" cy="423.35" r="6.456"/><circle transform="matrix(.58621 0 0 .58621 694.75 401.31)" cx="1420.2" cy="423.35" r="6.456"/><circle transform="matrix(.58621 0 0 .58621 698.75 401.76)" cx="1420.2" cy="423.35" r="6.456"/><circle transform="matrix(.58621 0 0 .58621 704.1 403.54)" cx="1420.2" cy="423.35" r="6.456"/></g><g stroke-width=".959" transform="matrix(.86139 0 0 .86139 158.34 43.198)"><circle transform="matrix(.58621 0 0 .58621 635.08 403.76)" cx="1420.2" cy="423.35" r="6.456"/><circle transform="matrix(.58621 0 0 .58621 640.42 402.42)" cx="1420.2" cy="423.35" r="6.456"/><circle transform="matrix(.58621 0 0 .58621 645.77 401.31)" cx="1420.2" cy="423.35" r="6.456"/><circle transform="matrix(.58621 0 0 .58621 650.22 401.31)" cx="1420.2" cy="423.35" r="6.456"/><circle transform="matrix(.58621 0 0 .58621 655.12 401.31)" cx="1420.2" cy="423.35" r="6.456"/><circle transform="matrix(.58621 0 0 .58621 660.69 399.98)" cx="1420.2" cy="423.35" r="6.456"/><circle transform="matrix(.58621 0 0 .58621 665.58 399.98)" cx="1420.2" cy="423.35" r="6.456"/><circle transform="matrix(.58621 0 0 .58621 670.04 399.98)" cx="1420.2" cy="423.35" r="6.456"/><circle transform="matrix(.58621 0 0 .58621 674.93 399.98)" cx="1420.2" cy="423.35" r="6.456"/><circle transform="matrix(.58621 0 0 .58621 680.5 401.31)" cx="1420.2" cy="423.35" r="6.456"/><circle transform="matrix(.58621 0 0 .58621 685.39 401.31)" cx="1420.2" cy="423.35" r="6.456"/><circle transform="matrix(.58621 0 0 .58621 689.85 401.31)" cx="1420.2" cy="423.35" r="6.456"/><circle transform="matrix(.58621 0 0 .58621 694.75 401.31)" cx="1420.2" cy="423.35" r="6.456"/><circle transform="matrix(.58621 0 0 .58621 698.75 401.76)" cx="1420.2" cy="423.35" r="6.456"/><circle transform="matrix(.58621 0 0 .58621 704.1 403.54)" cx="1420.2" cy="423.35" r="6.456"/></g><g stroke-width=".861" transform="matrix(.94224 0 0 .9769 36.887 -37.523)"><circle transform="matrix(.58621 0 0 .58621 635.08 403.76)" cx="1420.2" cy="423.35" r="6.456"/><circle transform="matrix(.58621 0 0 .58621 640.42 402.42)" cx="1420.2" cy="423.35" r="6.456"/><circle transform="matrix(.58621 0 0 .58621 645.77 401.31)" cx="1420.2" cy="423.35" r="6.456"/><circle transform="matrix(.58621 0 0 .58621 650.22 401.31)" cx="1420.2" cy="423.35" r="6.456"/><circle transform="matrix(.58621 0 0 .58621 655.12 401.31)" cx="1420.2" cy="423.35" r="6.456"/><circle transform="matrix(.58621 0 0 .58621 660.69 399.98)" cx="1420.2" cy="423.35" r="6.456"/><circle transform="matrix(.58621 0 0 .58621 665.58 399.98)" cx="1420.2" cy="423.35" r="6.456"/><circle transform="matrix(.58621 0 0 .58621 670.04 399.98)" cx="1420.2" cy="423.35" r="6.456"/><circle transform="matrix(.58621 0 0 .58621 674.93 399.98)" cx="1420.2" cy="423.35" r="6.456"/><circle transform="matrix(.58621 0 0 .58621 680.5 401.31)" cx="1420.2" cy="423.35" r="6.456"/><circle transform="matrix(.58621 0 0 .58621 685.39 401.31)" cx="1420.2" cy="423.35" r="6.456"/><circle transform="matrix(.58621 0 0 .58621 689.85 401.31)" cx="1420.2" cy="423.35" r="6.456"/><circle transform="matrix(.58621 0 0 .58621 694.75 401.31)" cx="1420.2" cy="423.35" r="6.456"/><circle transform="matrix(.58621 0 0 .58621 698.75 401.76)" cx="1420.2" cy="423.35" r="6.456"/><circle transform="matrix(.58621 0 0 .58621 704.1 403.54)" cx="1420.2" cy="423.35" r="6.456"/></g><g stroke-width=".846" transform="matrix(.9769 0 0 .9769 -15.164 -42.866)"><circle transform="matrix(.58621 0 0 .58621 635.08 403.76)" cx="1420.2" cy="423.35" r="6.456"/><circle transform="matrix(.58621 0 0 .58621 640.42 402.42)" cx="1420.2" cy="423.35" r="6.456"/><circle transform="matrix(.58621 0 0 .58621 645.77 401.31)" cx="1420.2" cy="423.35" r="6.456"/><circle transform="matrix(.58621 0 0 .58621 650.22 401.31)" cx="1420.2" cy="423.35" r="6.456"/><circle transform="matrix(.58621 0 0 .58621 655.12 401.31)" cx="1420.2" cy="423.35" r="6.456"/><circle transform="matrix(.58621 0 0 .58621 660.69 399.98)" cx="1420.2" cy="423.35" r="6.456"/><circle transform="matrix(.58621 0 0 .58621 665.58 399.98)" cx="1420.2" cy="423.35" r="6.456"/><circle transform="matrix(.58621 0 0 .58621 670.04 399.98)" cx="1420.2" cy="423.35" r="6.456"/><circle transform="matrix(.58621 0 0 .58621 674.93 399.98)" cx="1420.2" cy="423.35" r="6.456"/><circle transform="matrix(.58621 0 0 .58621 680.5 401.31)" cx="1420.2" cy="423.35" r="6.456"/><circle transform="matrix(.58621 0 0 .58621 685.39 401.31)" cx="1420.2" cy="423.35" r="6.456"/><circle transform="matrix(.58621 0 0 .58621 689.85 401.31)" cx="1420.2" cy="423.35" r="6.456"/><circle transform="matrix(.58621 0 0 .58621 694.75 401.31)" cx="1420.2" cy="423.35" r="6.456"/><circle transform="matrix(.58621 0 0 .58621 698.75 401.76)" cx="1420.2" cy="423.35" r="6.456"/><circle transform="matrix(.58621 0 0 .58621 704.1 403.54)" cx="1420.2" cy="423.35" r="6.456"/></g><g class="L"><circle transform="matrix(.58621 0 0 .58621 585.21 339.641)" cx="1420.2" cy="423.35" r="6.456"/><circle transform="matrix(.58621 0 0 .58621 590.55 338.301)" cx="1420.2" cy="423.35" r="6.456"/><circle transform="matrix(.58621 0 0 .58621 595.9 337.191)" cx="1420.2" cy="423.35" r="6.456"/><circle transform="matrix(.58621 0 0 .58621 600.35 337.191)" cx="1420.2" cy="423.35" r="6.456"/><circle transform="matrix(.58621 0 0 .58621 605.25 337.191)" cx="1420.2" cy="423.35" r="6.456"/><circle transform="matrix(.58621 0 0 .58621 610.82 335.861)" cx="1420.2" cy="423.35" r="6.456"/><circle transform="matrix(.58621 0 0 .58621 615.71 335.861)" cx="1420.2" cy="423.35" r="6.456"/><circle transform="matrix(.58621 0 0 .58621 620.17 335.861)" cx="1420.2" cy="423.35" r="6.456"/><circle transform="matrix(.58621 0 0 .58621 625.06 335.861)" cx="1420.2" cy="423.35" r="6.456"/><circle transform="matrix(.58621 0 0 .58621 630.63 337.191)" cx="1420.2" cy="423.35" r="6.456"/><circle transform="matrix(.58621 0 0 .58621 635.52 337.191)" cx="1420.2" cy="423.35" r="6.456"/><circle transform="matrix(.58621 0 0 .58621 639.98 337.191)" cx="1420.2" cy="423.35" r="6.456"/><circle transform="matrix(.58621 0 0 .58621 644.88 337.191)" cx="1420.2" cy="423.35" r="6.456"/><circle transform="matrix(.58621 0 0 .58621 648.88 337.641)" cx="1420.2" cy="423.35" r="6.456"/><circle transform="matrix(.58621 0 0 .58621 654.23 339.421)" cx="1420.2" cy="423.35" r="6.456"/><circle transform="matrix(.58621 0 0 .58621 585.21 333.407)" cx="1420.2" cy="423.35" r="6.456"/><circle transform="matrix(.58621 0 0 .58621 590.55 332.067)" cx="1420.2" cy="423.35" r="6.456"/><circle transform="matrix(.58621 0 0 .58621 595.9 330.957)" cx="1420.2" cy="423.35" r="6.456"/><circle transform="matrix(.58621 0 0 .58621 600.35 330.957)" cx="1420.2" cy="423.35" r="6.456"/><circle transform="matrix(.58621 0 0 .58621 605.25 330.957)" cx="1420.2" cy="423.35" r="6.456"/><circle transform="matrix(.58621 0 0 .58621 610.82 329.627)" cx="1420.2" cy="423.35" r="6.456"/><circle transform="matrix(.58621 0 0 .58621 615.71 329.627)" cx="1420.2" cy="423.35" r="6.456"/><circle transform="matrix(.58621 0 0 .58621 620.17 329.627)" cx="1420.2" cy="423.35" r="6.456"/><circle transform="matrix(.58621 0 0 .58621 625.06 329.627)" cx="1420.2" cy="423.35" r="6.456"/><circle transform="matrix(.58621 0 0 .58621 630.63 330.957)" cx="1420.2" cy="423.35" r="6.456"/><circle transform="matrix(.58621 0 0 .58621 635.52 330.957)" cx="1420.2" cy="423.35" r="6.456"/><circle transform="matrix(.58621 0 0 .58621 639.98 330.957)" cx="1420.2" cy="423.35" r="6.456"/><circle transform="matrix(.58621 0 0 .58621 644.88 330.957)" cx="1420.2" cy="423.35" r="6.456"/><circle transform="matrix(.58621 0 0 .58621 648.88 331.407)" cx="1420.2" cy="423.35" r="6.456"/><circle transform="matrix(.58621 0 0 .58621 654.23 333.187)" cx="1420.2" cy="423.35" r="6.456"/></g></g><path d="M2333 1153.5c-.123-4.601-6.345-4.828-7.374-.575-2.372 3.087-6.371 3.237-9.517 4.802-3.91.59-5.918-4.299-9.92-3.682-3.476-.286-5.61-4.744-9.439-3.622-2.888.097-3.249 4.486-6.239 4.247-3.224.495-5.735 3.259-8.36 4.866-2.124 2.123-3.423 5.012-6.153 6.422-1.39 3.351-3.445 6.46-4.414 9.944-.067 2.533-.463 9.128 3.462 7.533 2.085-2.34 2.6-6.558 6.573-6.454 3.026-.662 6.138-.461 9.217-.487 3.205-.193 5.365 2.913 8.544 2.803 3.692.795 7.326-.461 11.01-.261 2.921 1.26 6.15 1.357 9.253.734 5.579-1.18 10.961-3.172 16.355-5.041 4.343-.427 3.27-7.47 7.247-7.928 1.783-1.103 2.619-3.802 3.867-5.134-.603-3.406-5.005-4.395-6.311-7.058-2.479.798-4.825.146-6.786-1.226l-.512.032-.503.086h0z" fill="#e3e4e5" filter="url(#C)" class="B C"/><g class="B J"><path d="M2310.646 1196.335c.757 4.888 2.168 9.733 3.892 14.327 1.778 5.148 2.013 10.68 3.911 15.805 2.504 9.82 4.369 19.832 5.599 29.878.881 4.209 2.537 8.799.574 12.962-1.64 7.086 2.389 14.766-1.289 21.47-2.666 4.856-.339 10.316-.73 15.565 2.035 7.793 7.987-2.227 12.384-1.086 6.025.745 12.312-.317 18.289 1.273 5.659-.802 4.184-6.88 2.179-10.293l-.876-16.337c-2.185-10.731-3.248-18.464-3.794-29.748-1.035-4.642-1.826-12.988-2.3-18.454-.057-3.663.364-3.851-2.117-13.624-.908-6.252-5.218-7.625-4.241-14.184-.59-4.212 1.444-14.619-5.355-14.364-9.681.771-12.682 2.786-22.285 3.988-1.138.909-6.22.109-3.839 2.821z" stroke-width=".3" class="C"/><path d="M2329.256 1217.119c-.987.308.514 3.036.852 4.513 3.547 15.469 6.476 22.726 6.476 37.963l.17 20.973" class="D"/></g><path d="M2322.6 1209.9c-.216.568 0 3.4 0 4.82 0 1.72.471 3.069-.241 4.566-.623 1.309-1.857 2.636-2.413 3.805-.66 1.389-.724 2.275-.724 4.059 0 1.883-.254 2.042-1.448 3.298-1.643 1.727-3.931 1.359-5.551.507-2.057-1.081-3.168-1.141-3.861-4.059-.793-3.333.225-6.492.724-9.639.465-2.929.62-6.449 2.172-8.624 1.816-2.545 5.345-1.776 7.964-1.776 3.366 0 3.023 2.576 4.344 4.312" fill="#500" class="C"/><g transform="matrix(.85567 0 0 .89935 1214.2 669.09)" class="B H"><path d="M1335.8 561.53l-2.602-3.545c-1.422-1.55-3.664-2.057-5.69-1.801-1.014-.114-2.291-.105-2.911.857-.764.759-.917 1.986-.463 2.947.072 1.039-1.626 1.573-.876 2.722.34 1.012-.491 1.838-.566 2.794-.097.813.411 1.594.071 2.388-.278.996-.824 2.085-.377 3.108.708.903 1.988.586 2.98.631.935-.046 1.895.104 2.609.751.63.44 1.263.904 1.999 1.149.593 1.114 2.01 1.036 2.948.59 1.049.053 2.118-.621 2.412-1.651.66-.912.913-2.049.838-3.159.036-1.056.299-2.084.536-3.105.156-1.565-.663-2.99-.921-4.486l.013-.193z" class="C K"/><path d="M1324.63 560.14c-.215-.43 2.554-.613 3.101-.535.071.01.143 0 .214 0m-4.615 3.855c1.061.152 2.644-.428 3.85-.428.253 0 .329.131.535.214m-4.785 4.174c1.291 0 3.033-.014 4.171.214.26.052.442.221.642.321" class="D F"/></g><path d="M2293.3 1153.7c3.053.686 5.909 2.559 8.851 3.685 2.481 2.681 5.463 4.481 8.689 5.962 1.22.582 2.574.88 3.915.744m18.045-10.391c-.44 3.636-5.586 1.936-7.719 4.098-1.075.866-1.619 2.227-2.588 3.198m18.307-6.396c-1.677 3.789-4.452 7.276-8.343 8.59-1.038.585-2.25 1.091-3.436.695m-43.921-5.785c.096 2.134 4.385.233 6.029.864 2.143-.069 4.946-.295 6.171 2.01m-19.6 4.026c3.029 2.033 7.348-.897 9.866 2.528.736.673 1.429 1.395 2.124 2.115m-15.99 6.657c1.875-1.62 3.533-3.845 6.1-4.2m13.7-8c3.256.648 5.419 3.675 7.385 6.227.414.65.76 1.381.818 2.174" class="B D F"/><g transform="matrix(.85567 0 0 .89935 1216.7 663.8)" class="B H"><path d="M1283.2 595.98c4.044 1.159 7.38.258 10.831-.899 2.311-.865 11.147-1.711 10.243 1.797-1.921-.104-7.917.55-2.677 1.226 4.54 1.971 8.225-1.282 12.337-.91.691 3.862-1.476 7.408-4.308 10.016-4.059 3.204-10.159 3.471-15.364 2.904-5.075.564-9.442-1.4-13.766-3.687 1.119-3.049.657-8.532 2.704-10.447z" class="C K"/><path d="M1304.83 601.51c.939.383 3.397-.285 4.793-.983.762-.381 1.709-.882 2.335-1.352.552-.414 1.074-.459 1.598-.983m-7.826 5.778c1.266-.95 3.255-.152 4.67-.86l2.704-1.352c.032-.016.638-.426.737-.492m-9.111 5.404c1.918-.959 4.688-.255 6.391-1.106" class="D F"/></g><path d="M2279.8 1210.6c-3.081 3.986-3.966 10.24-5.595 15.025-.199 4.794-1.171 6.25-3.828 10.413 3.503 3.717 1.033 9.071.989 13.933-3.579 9.965-.897 9.671-1.518 14.974-.623 5.172.676 10.955-2.597 15.467-2.07 5.075-.044 10.948-.711 16.344-.292 7.491-3.189 14.913-1.263 22.407-.037 5.428 4.108 8.908 8.773 10.014 5.208 3.514 5.72-4.625 3.889-7.953-.642-4.227.327-8.518-.041-12.777-.934-4.393 1.055-8.195 3.846-10.916-1.093-4.952-4.68-9.324-3.712-14.831.279-9.85 4.792-16.77 5.062-26.624 2.46-5.151.523-13.28 4.459-17.261 2.907-4.469.874-10.544 3.914-15.11 2.424-5.781-4.535-6.511-7.021-9.915-1.316-1.367-2.759-2.813-4.647-3.189z" class="B C G"/><path d="M2272.9 1237.5c3.6-1.479 7.562-1.106 9.848-5.149a30.32 30.32 0 0 0 1.488-1.446M2277.4 1219c1.516.782 1.437 2.937 2.172 4.312m3.928 13.488c-3.168 4.766-4.749 10.481-7.346 15.568l-.618.666m4.064 47.166c-2.688 4.822-9.381 6.41-10.09 12.608-.562 3.787-2.674 7.242-2.942 10.983" class="B D F"/><path d="M2274.8 1183c-.226.949-.28 2.365-.724 3.298l-.241.507c-.572 1.504-.965 3.446-.965 5.073 0 2.052-.724 3.798-.724 5.834 0 1.245-.285 2.952.241 4.059.647 1.36 1.232 2.563 2.172 3.551.686.721 2.046 2.884 2.655 3.044 1.408.37 1.781 1.57 3.137 2.283 1.069.562 1.881.786 3.137 1.776 1.321 1.041 2.874 1.752 3.861 2.79 1.345 1.414 3.035 2.582 4.586 3.805 1.449 1.142 2.385 1.814 4.103 2.537 1.503.632 4.157-.225 5.068.254.322.169 3.485 3.044 3.861 3.044 1.289 0 1.689-2.862 1.689-1.015 0 1.625-.474 4.837.241 6.341.702 1.475 2.174 5.327 3.62 5.327 1.026 0 2.871.281 3.62-.507 1.143-1.202 2.53-.755 3.62-2.283 1.029-1.442 2.523-3.366 2.896-5.327.349-1.835 1.332-3.814 2.172-5.581.552-1.16 1.207-2.659 1.207-4.312 0-.819 1.136-4.82 0-4.82-2.552 0-2.308.066-2.896 2.537-.34 1.429-.965 2.673-.965 4.312 0 2.602-.406 4.346-1.689 6.595-.423.741-1.865 4.312-2.655 4.312-1.122 0-2.633.09-2.896-1.015-.387-1.628-.965-2.771-.965-4.566v-10.4c0-2.655 1.137-3.259 1.689-5.58.382-1.606 1.931-4.816 1.931-6.849 0-1.743 2.816-4.65 1.207-5.073.684-1.437-3.392 1.004-4.586 0-1.213-1.02-4.344-.575-4.344-1.522 0-1.963-2.389-1.268-4.103-1.268-1.872 0-.654-.724-2.172-1.522-2.277-1.197-5.876-.726-8.206.254" class="C G"/><g class="F B D"><path d="M2300.8 1194.9c-3.85.41-9.522.968-12.067 4.312m19.567-2.012c-3.706 1.855-6.275 5.2-8.93 8.117m14.03-6.617c-2.978 3.405-6.381 7.297-7.481 11.922m-2.219 5.078c-1.454 0-1.207 4.81-1.207 6.341M2294.3 1183c-2.676 2.566-7.866 6.645-12.067 8.117"/><path d="M2310.376 1285.53c-.017 6.186 5.003 10.809 5.262 16.964.254 3.385.973 6.689 1.761 9.954 1.211 10.924-.242 21.951.781 32.894l.225 4.5m17.385-29.391c.04 7.881 1.218 15.696 1.384 23.572m-34.584-103.893c-.054 14.206.678 28.441 2.769 42.487" stroke-width="1.001"/></g><path d="M2310.8 1134.6c-.382-.203-1.756-.132-2.368 0-1.36.292-1.439.504-1.105 1.222.088.19 2.111.363 2.368.407 1.82.313 2.226-.666 1.105-1.629zm6.8 0c.382-.203 1.756-.132 2.368 0 1.36.292 1.439.504 1.105 1.222-.088.19-2.111.363-2.368.407-1.82.313-2.226-.666-1.105-1.629z" class="C"/><path d="M2305.9 1133.2c.607.022 1.681-.453 2.52-.95.513-.304 1.803 0 2.406 0h1.146m10.528.95c-.633.022-1.753-.453-2.628-.95-.535-.304-1.88 0-2.508 0h-1.194m-.67 5.35c0-1.625.459 3.243 1.033 4.752.355.932-1.315.679-1.938.679-.251 0-.405.085-.646.136m-.949 3.633h2.971c.434 0 .722-.216 1.033-.543" class="B D F"/><g fill="#b3b3b3" class="C"><path d="M2303.2 1130.9c-.542.042-1.349.257-1.452.703l-.648 2.558c0 .835-.233 1.726-.233 2.586v2.305c0 .918.372 2.505.233 3.26-.273 1.478.401 1.818 1.011 3.007.666 1.299.863 2.494 1.763 3.794.51.738.904 1.178 1.737 1.63.865.469 1.396 1.417 2.256 1.883.683.37 1.69 1.253 2.385 1.63.794.43.965.562 1.997.562h3.008c.961 0 2.01-.421 2.878-.421.881 0 1.328-.203 1.893-.815.86-.932 1.564-2.041 2.126-3.26l1.244-2.698c.32-.866.957-2.214 1.374-3.12.512-1.111.57-1.882.752-3.26.154-1.167.13-2.354.13-3.541l-.13-2.839c0-.668.211-3.247-.233-2.445l-1.374 2.557c-.457.991-.444 2.293-.648 3.401-.087.471-.077 2.556-.363 2.867l-.363.393c-.664.72-1.145.96-1.763 1.63-.138.15-1.227 1.67-1.504 1.489-.701-.456-1.517-.675-2.645-.675l-3.111.141c-1.121 0-1.779.691-2.878.393-.661-.179-1.175-.48-1.893-.675-.565-.153-1.357-.253-2.126-.253-1.287 0-.821-.319-1.374-1.518-.443-.961-.881-2.132-.882-3.232 0-.93-.067-1.61-.259-2.445-.212-.921-.493-1.292-.493-2.445v-3.148c-.082-.018-.234-.014-.415 0zm12.913 14.418c.561-.038 1.106-.041 1.53.112l.752.281c0 .554-.099 1.063-.493 1.49s-.853 1.428-1.141 2.052c-.365.79-1.194.534-1.997.534-.565 0-1.712.137-1.867-.534-.219-.951-.519-1.458-.259-2.586.236-1.024.817-1.237 1.867-1.237.463 0 1.046-.074 1.608-.112z"/><g class="B D"><path d="M2298.3 1141.2c.784-.466 2.144-1.277 2.454-2.58.27-1.137.276-1.24 1.033-2.037.546-.574.387-1.783.387-2.58 0-.858 1.809-1.217 1.809-2.58 0-.743.57-1.318 1.163-1.629 1.168-.614.437-.934 2.454-1.358.609-.128 2.551-1.679 2.842-2.444.51-1.34 2.005.054 2.325-1.629.228-1.198.387-1.798.387-3.123 0-.389-.387-1.528-.387-2.308 0-.571-1.211-1.828-1.679-2.444-.439-.578-2.499-.136-3.229-.136-1.204 0-1.222 1.358-2.454 1.358"/><path d="M2327.2 1135c-.32 0-1.061.182-1.292 0-.328-.258-1.399-1.04-1.679-1.629-.614-1.29-.354-2.359-1.55-2.987-1.541-.81-1.525-.437-1.938-2.172-.287-1.207-.638-.743-1.55-1.222-.442-.232-2.325-1.494-2.325-1.494-1.124-.197-2.431.259-3.1-.679-.597-.837-.248-1.179-.517-2.308-.344-1.448.174-2.977 0-4.48.074.058 2.412-.113 2.842 0 1.503.395 1.31-1.717 2.971-.407.642.506.886.742 1.679.95.105.028.293.205.387.272"/></g></g></g><g fill="#fff"><ellipse cx="2309.43" cy="1135.36" rx="1.532" ry=".674"/><ellipse cx="2319.13" cy="1135.36" rx="1.532" ry=".674"/></g><circle cx="2309.36" cy="1135.34" r=".582" fill="#483737"/><g fill="#fff"><circle cx="2319.26" cy="1135.34" r=".582"/><circle cx="2309.63" cy="1135.3" r=".123"/><circle cx="2309.63" cy="1135.3" r=".123"/></g><circle cx="2319.26" cy="1135.36" r=".582" fill="#483737"/><circle transform="matrix(1 0 0 1.0884 1999.7 592.43)" cx="319.73" cy="498.77" r=".123" fill="#fff"/><g transform="matrix(.22372 0 0 .23908 1773.3 1045.7)" class="E I"><path d="M2409.4 257.48c-3.687 4.58-11.09 4.917-9.788 11.424-1.231 2.913 8.132 4.692.996 3.17-6.725-2.46-1.173 4.224-1.548 4.136-7.759-4.203-10.038 9.038-1.216 7.568 2.115-1.489-4.508 7.949 1.722 5.513 2.521-3.84 4.075-3.222 2.17 1.122-2.287 5.216 1.921 4.056 4.93 3.601.042 6.385-10.957 9.952-14.243 3.473-1.832-3.538-3.871-6.196-3.83-.349-1.959 6.611-17.054 5.299-14.802-.308 6.609 1.367 4.365-3.515 1.492-6.521-1.283-3.894 5.742 5.427 5.921-.88-.112-4.043-6.263-4.474-.178-3.971 6.805-3.434-.865-12.168-5.663-6.763 2.037-2.72 3.378-6.948-1.64-3.768-6.111 3.459 4.861-3.526-.503-6.668-.547-3.931-6.671-1.307-8.555-5.238-4.853-.926-6.523 6.573-10.032 7.579.903 4.448.119 7.336 5.578 8.063-3.624-1.744-9.09.551-3.886 3.962 2.244-.298-6.451-1.115-5.676 3.277-1.339 4.768 4.806 6.235 7.163 3.685-1.548 2.678-1.224 10.117 2.339 4.882 5.152-8.189-2.575 9.168 5.491 4.65 5.648-2.193-2.458 7.627-6.221 6.037-4.489 2.124-8.424-9.594-8.62-1.384-.119 5.589-9.213 4.735-7.467-1.06-2.536-2.273-6.188-4.927-.301-3.277 7.47-.074-6.106-6.391.58-5.966 7.665-5.935-6.967-10.415-5.899-5.238 2.328-4.949-2.367-5.521-4.202-2.145 2.238-3.134 2.348-6.491-.454-6.396-2.112-5.761-8.358 1.09-12.59.336-7.1 5.735 6.494 4.892 7.01 10.99 3.203 6.284 4.783 14.328 11.833 17.592 3.957.954 5.442 3.839 4.445 6.483 5.906 4.505 7.01 11.736 6.985 18.273 6.707 1.022 13.273-4.195 20.307-4.238 24.497-4.389 49.706-3.772 74.3-.527 7.685 1.221 15.298 3.035 22.585 5.788.748-7.275.111-16.067 7.718-19.653-2.816-6.334 9.048-6.199 10.673-12.603 3.418-6.89 4.906-14.948 12.957-18.166 4.297-5.503-9.362-3.228-11.38-7.984.446 3.902-5.488 5.164-4.303 5.783 2.653 3.898 1.041 4.953-1.7 1.71-2.945.744 1.819 8.942-2.247 3.312-6.23-5.028-7.753 7.769-2.055 7.723-7.631 2.356-.882 6.606 1.665 4.952-3.644 2.175-5.015 6.431-3.596 7.667-5.132 4.319-8.26-6.804-8.811-6.243-3.76 6.191-15.093 5.144-15.755-2.664 2.221-1.487 6.546 5.122 5.989-1.515-.292-2.588-.495-7.241 1.128-2.038 5.899 5.986 3.367-6.423 3.69-4.446 7.829 3.989 8.459-11.097-.251-7.659 5.035-1.006 3.854-5.416-.937-4.049-5.832-.136 6.833-.445 2.767-4.979 3.611-4.501-5.099-4.949-4.777-9.497-4.403-2.585-8.888 2.031-12.601 2.7-1.362 4.41-2.774 6.609 1.678 9.562-2.573-3.078-8.491-3.279-5.189 1.989 2.142.653-5.4-3.672-6.529.618-3.21 3.791 1.776 7.608 4.968 6.364-2.484 1.799-5.325 8.647.087 5.347 8.073-5.236-5.99 6.988 2.847 6.506 6.31.42-4.97 7.437-8.376 4.597-5.364-.478-5.595-14.458-8.305-4.448-3.616 6.969-18.518.82-14.175-3.94 7.209 4.629 3.361-5.142 3.372-6.755 1.849 4.56 9.102 3.255 4.655-1.531-3.257-4.549 5.141 1.91 5.352-3.579 2.727-5.881-7.901-6.984-6.941-5.402 5.543-4.665-1.308-4.801-4.356-3.355 3.098-1.546 5.802-2.478 3.396-6.02 2.436-5.315-6.6-3.489-7.464-8.25l-.843-.516-.883-.443zm.062 41.094c4.274 9.531 15.723 1.763 22.888 5.061 7.751 2.937-5.071.394-7.367.754-14.316-.742-28.685-.452-42.959.872 5.59-3.204 11.354-4.089 16.949-1.154 4.096-.06 8.219-2.068 10.489-5.533zm-38.562 2.719c1.304 3.48 12.729 4.281 4.122 4.642-2.574.213-13.673 2.938-6.484-1.191a10.67 10.67 0 0 0 2.362-3.45zm77.125 0c.579 3.169 9.458 7.659 1.401 5.402-2.749-.696-14.382-.825-6.055-2.175 1.771-.7 3.384-1.806 4.654-3.227zm-94.75 5.25c3.523 1.442 8.208 2.211 1.588 2.76-4.264 1.774-4.053.026-1.588-2.76zm112.38 0c7.353 6.526-11.693 1.334-2.623 1.119l1.414-.454z" fill="#eac102"/><g fill="#e3e4e5"><use xlink:href="#D"/><use xlink:href="#D" x="38.4" y="-7.26"/><use xlink:href="#D" x="116.4"/><path d="M2425.9 291.68c0-2.083 1.703-3.777 3.797-3.777 2.104 0 3.807 1.694 3.807 3.777 0 2.094-1.703 3.788-3.807 3.788-2.094 0-3.797-1.694-3.797-3.788m-16.5-18.78c-2.526 0-4.581 3.177-4.581 7.113s2.055 7.123 4.581 7.123c2.534 0 4.581-3.183 4.581-7.123s-2.055-7.113-4.581-7.113zm43.1 4.41c-2.213.053-4.448 2.58-5.212 6.065-.844 3.849.426 7.385 2.843 7.909 2.425.526 5.074-2.153 5.918-6.002s-.447-7.385-2.864-7.909a2.93 2.93 0 0 0-.684-.063zm-86.2 0a2.92 2.92 0 0 0-.684.063c-2.417.524-3.707 4.063-2.864 7.909s3.493 6.529 5.918 6.002c2.417-.524 3.687-4.06 2.843-7.909-.764-3.485-3-6.013-5.212-6.065zm-38.5 11.94a2.84 2.84 0 0 0-1.095.23c-.098.042-.172.125-.263.178l.169 1.278.147.838c-.554 1.006.012 2.854.937 4.976 1.005 2.304 2.087 4.155 3.338 4.222l.316.346 1.158 1.152c2.128-1.041 2.622-4.653 1.074-8.202-1.329-3.047-3.729-5.044-5.781-5.018zm163 0c-1.999.118-4.27 2.084-5.549 5.018-1.548 3.549-1.054 7.162 1.074 8.202l1.158-1.152.316-.346c1.251-.067 2.334-1.918 3.338-4.222.925-2.122 1.492-3.97.937-4.976l.148-.838.168-1.278c-.092-.053-.165-.136-.263-.178a2.88 2.88 0 0 0-1.327-.23z"/></g><path d="M2409.4 310.85c-5.396 0-9.751 2.033-9.751 4.525s4.355 4.515 9.751 4.515 9.772-2.023 9.772-4.515c0-2.5-4.371-4.525-9.772-4.525zm56.2 6.57c-2.719.059-4.731.914-5.17 2.409-.699 2.382 2.88 5.506 8.024 7.019.259-.315.538-.578.779-.911.073-.101.14-.202.211-.304.045.008.091.01.137.021.307-.228.632-.422.906-.691a5.7 5.7 0 0 0 .684-.807 3.68 3.68 0 0 0 .453-.89c.11-.315.175-.656.211-1.006a6.76 6.76 0 0 0 .032-1.068c-.024-.427-.134-.833-.211-1.247l-.116-.042a1.48 1.48 0 0 0 .021-.147c.045-.488.01-.899.01-1.351-.184-.059-.328-.144-.516-.199-1.942-.564-3.823-.821-5.454-.786zm-112.6 0c-1.631-.035-3.512.221-5.455.786-.188.055-.332.14-.516.199l.011 1.351c0 .049.016.097.021.147l-.116.042c-.077.414-.176.82-.2 1.247a6.66 6.66 0 0 0 .021 1.068c.036.35.111.691.221 1.006a3.68 3.68 0 0 0 .453.89c.195.282.431.557.684.807.274.269.588.463.895.691l.137-.031.221.314c.241.333.52.596.779.911 5.144-1.512 8.723-4.637 8.024-7.019-.439-1.495-2.462-2.351-5.181-2.409z" fill="#ed1c24"/><path d="M2376.9 311.4l-9.814 6.956 11.172 4.274 9.814-6.956zm65.1 0l-11.172 4.274 9.814 6.956 11.172-4.274z" fill="#008f4c" class="C"/></g><ellipse cx="2323.58" cy="1170.72" rx=".858" ry="1.348"/><ellipse cx="2318.68" cy="1174.4" rx=".858" ry="1.348"/><ellipse cx="2336.78" cy="1166.31" rx=".858" ry="1.348"/><ellipse cx="2330.18" cy="1171.21" rx=".858" ry="1.348"/><ellipse cx="2313.78" cy="1169.74" rx=".858" ry="1.348"/><ellipse cx="2288.78" cy="1164.6" rx=".858" ry="1.348"/><ellipse cx="2295.88" cy="1173.42" rx=".858" ry="1.348"/><ellipse cx="2325.58" cy="1164.11" rx=".858" ry="1.348"/><ellipse cx="2305.68" cy="1166.31" rx=".858" ry="1.348"/><ellipse cx="2307.68" cy="1172.93" rx=".858" ry="1.348"/><ellipse cx="2336.28" cy="1159.7" rx=".858" ry="1.348"/><ellipse cx="2298.38" cy="1156.51" rx=".858" ry="1.348"/></g></g></svg>