<svg xmlns="http://www.w3.org/2000/svg" xmlns:xlink="http://www.w3.org/1999/xlink" width="178.998" height="289.999" viewBox="0 0 47.36 76.729" xmlns:v="https://vecta.io/nano"><style><![CDATA[.B{fill-rule:evenodd}.C{stroke-linejoin:round}.D{stroke-width:1.178}.E{stroke-linecap:round}.F{fill:none}.G{fill:#edd400}.H{stroke:#000}.I{stroke-width:.813}.J{stroke-width:1.14}.K{stroke-width:2.704}.L{stroke-width:.707}.M{fill:#3465a4}.N{fill:#deaa87}.O{fill:#a40000}.P{stroke-width:.826}]]></style><defs><radialGradient id="A" cx="1987.1" cy="910.46" r="43.716" gradientTransform="matrix(1.6168 -.013927 .0087025 .28609 -1618.8 159.03)" gradientUnits="userSpaceOnUse"><stop stop-color="#8f5902" offset="0"/><stop stop-color="#8f5902" stop-opacity=".498" offset=".566"/><stop stop-color="#fff" offset="1"/></radialGradient><filter id="B" x="-.023" y="-.05" width="1.045" height="1.1" color-interpolation-filters="sRGB"><feTurbulence baseFrequency="0.2" numOctaves="7" seed="300"/><feDisplacementMap xChannelSelector="R"/><feBlend in2="SourceGraphic" mode="screen"/><feColorMatrix values="1 0 0 -1 0 1 0 1 -1 0 1 0 0 -1 0 -0.8 -1 0 4 -2.5 "/><feGaussianBlur stdDeviation=".5"/><feSpecularLighting specularExponent="5" surfaceScale="5"><feDistantLight azimuth="225" elevation="35"/></feSpecularLighting><feComposite in2="SourceGraphic" k2="0.5" k3="1" operator="arithmetic"/><feComposite in2="SourceGraphic" operator="in"/></filter><path id="C" d="M2347.5 298.94c0-2.083 1.703-3.777 3.797-3.777 2.104 0 3.808 1.694 3.808 3.777 0 2.094-1.703 3.788-3.808 3.788-2.094 0-3.797-1.694-3.797-3.788"/><path id="D" d="M109.25 151.24c15.34-.117 32.374 6.154 32.374 6.154"/><path id="E" d="M-822.64-270.91l-2.467.037-1.567-1.906.513-2.413 2.207-1.103 2.239 1.037.585 2.397z"/><path id="F" d="M112.2 180.5c1.322.611 1.496 1.559 0 2.114-3.035.799-13.551.799-16.586 0-1.496-.555-1.322-1.502 0-2.114"/></defs><g transform="matrix(.26458 0 0 .26458 -402.17326 -31.83581)"><path d="m1673.3 395.41a70.88 12.28 0 1 1-141.76 0 70.88 12.28 0 1 1 141.76 0z" fill="url(#A)"/><g fill="#b3b3b3"><path d="M1572.827 154.881l11.48 3.173-8.182 21.4-11.48-3.173z"/><g class="B D H"><path d="M1587.1 137.17c.668 4.849-3.796 14.883-8.957 17.36-10.932 5.526-4.666 11.993-11.056 20.077-6.812 3.47-5.101 2.671-5.517-.512-.283-4.598 6.381-19.217 12.572-21.498 7.155-3.175 7.487-16.275 12.957-15.428z"/><path d="M1612.8 137.63c.835.642.118 3.162.825 4.426.536.958 1.006 1.088 1.321 2.213.281 1.003 2.401 1.636 2.972 2.655 1.196 2.137 2.146 1.321 2.146 3.835 0 1.25.825 2.506 1.156 3.688.385 1.375.63 2.038 1.651 2.95.659.589.685 2.426.991 3.245.482 1.293 2.803 2.372 2.476 3.541-.315 1.128.66 2.213-.33 3.098-1.579 1.411.559 3.189-.991 4.573-.964.861-2.134.694-2.476 1.918-.422 1.509-2.139 1.555-3.137 2.803-2.799 3.501-6.391 3.388-10.4 3.835-2.466.275-5.516 1.263-7.759 2.065-1.907.682-5.633.148-7.594.148-3.448 0-7.218.476-10.401-.59-2.593-.869-4.973-2.368-7.429-3.245-.921-.329-.547-1.715-.991-2.508-.76-1.359-2.54-.76-.825-2.803.44-.524-.276-2.093-.66-2.95-.487-1.088.991-2.375.991-3.541 0-.746-.026-2.406-.33-2.95-.599-1.071 1.321-2.355 1.321-3.393 0-.902-.061-1.845.165-2.655.27-.965 1.429-1.368 1.651-2.36.286-1.279 2.065-1.471 1.651-2.95-.272-.972 1.414-1.98 1.981-2.36 1.208-.81 1.486-1.854 1.486-3.245 0-1.025.531-2.277.991-3.098.56-1 .401-2.488.165-3.541-.264-1.178.767-2.126 1.321-2.95.734-1.093 1.655-2.297 2.146-3.393.413-.922 5.913-.885 6.769-.885 1.901 0 4.046-.221 5.778.295.964.287 2.328.077 3.302.295 1.512.338 2.853.518 4.292 1.033 1.398.5 3.149-.126 3.797 1.033.155.277 1.495 1.046 1.981 1.77z"/></g></g><g class="H"><g class="N"><path d="M1588.4 166.83c.25 1.75-.174 2.404-1.486 3.525-.862.736-2.7 2.347-1.651 3.243.454.388 1.101.564 1.651.846 2.896 1.484 7.244.829 9.905 3.102.706.603 1.841 1.451 2.972 1.692 1.668.356 3.717.141 5.448.141 3.059 0 6.029-1.128 9.245-1.128.514 0 .351-2.326.495-2.82.225-.77-1.107-.946-1.816-1.551-1.34-1.145-3.267-1.952-4.622-2.82-.855-.548-.711-1.356-1.156-2.115-.786-1.343-1.695-1.649-3.632-1.833-3.235-.307-6.634 0-9.905 0-1.325 0-2.804-.423-4.292-.423-.389 0-.77.094-1.156.141z" class="B D"/><ellipse transform="matrix(1.0069 0 0 .97716 151.24 -198.97)" cx="1438.4" cy="361.6" rx="15.248" ry="18.795" stroke-width="1.188" class="C"/></g><g class="B D"><path d="M1635.3 379.31c-1.545.083-3.069.475-4.443 1.252-1.099.529-2.219 1.102-3.486 1.221-4.148 1.575-3.003 8.378 1.743 8.214 4.133.731 8.5-.191 12.576.947 4.279 1.749 8.961 2.726 13.601 3.267 5.289-1.442.704-6.76-2.597-7.848-2.897-2.414-6.734-3.368-9.978-5.252-2.201-1.219-4.841-1.939-7.415-1.802zm-53.104 1.954c-.278.025-.545.082-.82.153-5.636 1.183-6.889.429-11.98 3.144-2.975 2.5-9.588 8.651-6.098 11.086 3.959 1.552 7.917-.984 11.277-2.626 3.484-3.494 9.865-.592 13.259-4.183 2.742-3.342-1.466-7.942-5.639-7.573z" fill="maroon"/><path d="M1562 234.68h-.354c-.381 0-3.043 10.855-4.246 12.647-2.267 3.376-1.415 7.904-1.415 11.699 0 2.687-.121 4.969-.708 7.589-.705 3.149-2.433 6.127-3.892 9.169-1.253 2.613-.354 7.351-.354 10.118v10.434c0 2.828-.354 5.91-.354 8.853 0 3.448.354 6.652.354 10.118v12.015c0 3.433.354 6.668.354 10.118 0 4.26.352 7.426 2.123 11.383.857 1.915 1.062 4.566 1.062 6.64v7.589c0 2.576 1.769 5.042 1.769 7.905v15.493c0 2.47.95 1.897 3.538 1.897 2.573 0 4.167-.949 6.723-.949 1.967 0 4.252.632 6.723.632 3.088 0 4.672-1.992 7.077-2.529 3.406-.761 5.912.949 8.846.949 2.053 0 4.255.949 6.723.949 3.29 0 5.851-1.265 8.846-1.265 3.634 0 3.938-.275 6.369 1.897 1.91 1.707 7.49 1.265 9.908 1.265 2.947 0 5.005-.632 7.784-.632 3.015 0 6.964-.023 9.554-.949 1.879-.671 6.045.007 7.431.316 2.761.617 5.44.332 8.138-.632 2.351-.84-2.406-3.983-3.538-6.007-1.199-2.142-1.415-3.681-1.415-6.324 0-2.854-.708-4.417-.708-7.272 0-2.378.354-4.049.354-6.64v-20.868c0-4.404.067-8.814-.708-12.964-.589-3.159-.354-6.75-.354-10.118v-9.802c0-5.365-5.361-11.855-6.015-17.706-.789-7.054-5.331-12.72-7.431-19.287-1.247-3.9-3.32-8.529-5.661-12.015-2.171-3.233-3.442-5.787-6.015-8.853l-1.062-1.265c-5.876-7.001-18.72-8.704-26.892-12.964-7.588-3.955-22.152-7.019-29.369-3.794-1.495.668-1.967 1.802-3.185 3.162z" fill="#c00"/></g></g><path d="M1572.5 230.14c-8.521-.044-10.868 8.516-15.75 13.126-5.027 4.451-6.678 15.302 1.597 17.565 8.034 1.612 17.683-.48 24.317 4.801 6.198 6.236 4.691 15.163 6.934 22.677 3.233-2.664 3.182-9.316 6.084-13.192 3.314-6.36 9.189-11.222 15.554-15.12 4.79-4.323.139-10.36-3.571-13.827-5.132-4.937-9.953-10.673-17.496-12.76-5.112-2.055-10.823-1.445-16.127-2.553l-.787-.313zm43.638 40.919c-.372.83-1.057 2.362 0 0zm-.547 1.221c-1.789 8.573-.317 17.455-1.91 25.984-3.624 7.29-8.457 14.927-6.622 23.205.347 9.733.933 19.639-1.667 29.188 1.125 9.99-2.394 20.169.667 30.021 7.92-2.796 6.23-12.774 10.827-18.286 2.617-5.447 3.859-12.294 10.211-15.393 5.392-.813 3.97 13.627 6.463 5.145 3.059-7.638 7.051-16.419 2.342-24.237-5.338-10.501-4.108-22.154-3.123-33.292.621-7.017-.992-14.849-7.871-19.168-2.643-1.867-5.913-3.127-9.315-3.166zm-42.975 56.954c-3.005 10.467-5.292 21.233-4.852 32.086-.953 5.629-7.711 10.179-5.761 16.125 4.505 4.682 11.449-2.318 15.663-4.818 2.902-6.716-2.184-14.102-1.447-21.224-.606-7.586-.951-15.268-3.226-22.641-.177.12-.258.309-.377.471z" fill="#4d4d4d" opacity=".25" stroke="#4d4d4d" class="B D"/><path fill="#ed1c24" d="M1588.4 193.96h47.398v28.246H1588.4z"/><g class="H"><g class="B D O"><path d="M1563.2 192.17c-2.213 0-6.886 2.154-8.019 4.685-.719 1.607-2.167 3.038-3.701 4.41l-.925.827c-.717.64 0 5.784 0 6.614 0 3.858.66 7.499 3.084 10.749 2.372 3.179 6.55 3.891 10.178 5.512 2.176.972 8.156 0 10.486 0 2.51 0 7.028-2.023 8.944-3.307.184-.123.411-.184.617-.276 2.296-1.026 4.095-3.635 4.935-5.512 1.2-2.681 4.348-4.739 5.86-7.441 1.189-2.126-.772-4.964-1.234-6.614-.817-2.921-8.003-4.954-10.486-6.063-2.826-1.263-6.316-2.782-9.253-3.307-2.578-.461-4.457-1.022-7.094-.551-.201.036-.411 0-.617 0-.931 0-1.845.276-2.776.276zm73.8-11.7c.842.273 3.401 1.839 4.57 2.882.849.758 2.591 1.726 3.763 3.123 1.647 1.963 1.732 4.35 2.688 6.486.631 1.409 1.274 2.779 2.151 4.083l3.763 5.525c1.554 2.314 1.613 6.76 1.613 9.368 0 3.721-5.206 4.105-8.333 4.804-2.051.458-4.882.24-6.989.24-8.279 0-10.034-9.978-12.096-14.893-2.534-6.039-1.107-12.755 2.957-17.295 1.237-1.382 3.04-2.606 4.032-4.083.326-.485 1.26-.129 1.882-.24z"/><path d="M1655 199.69c-.268 2.084 1.708 5.143 2.419 7.687.474 1.693 1.709 4.735 2.688 6.486.535.956 0 3.645 0 4.804v4.083c0 2.419-.4 4.077-1.613 6.245-.758 1.355-2.066 2.807-2.957 3.603-.628.561-3.828.24-4.839.24-1.373 0-2.753-.014-3.763-.24-2.707-.605-3.601-.398-5.108-2.642-2.043-3.042-2.15-6.125-2.15-10.089 0-2.887-.806-6.004-.806-8.888v-7.687c0-1.338 3.31-2.56 4.032-2.882 1.822-.814 4.128-1.145 5.645-2.162 1.762-1.181 3.894-1.352 5.645-.961.755.169.726 2.045.806 2.402z"/></g><g transform="matrix(.58282 -.079942 .18612 .98076 652.35 -258.55)" fill="#eac102" class="C"><g stroke-width="1.082" transform="matrix(.76373 0 0 .76373 305.49 115.74)"><circle transform="matrix(.58621 0 0 .58621 635.08 403.76)" cx="1420.2" cy="423.35" r="6.456"/><circle transform="matrix(.58621 0 0 .58621 640.42 402.42)" cx="1420.2" cy="423.35" r="6.456"/><circle transform="matrix(.58621 0 0 .58621 645.77 401.31)" cx="1420.2" cy="423.35" r="6.456"/><circle transform="matrix(.58621 0 0 .58621 650.22 401.31)" cx="1420.2" cy="423.35" r="6.456"/><circle transform="matrix(.58621 0 0 .58621 655.12 401.31)" cx="1420.2" cy="423.35" r="6.456"/><circle transform="matrix(.58621 0 0 .58621 660.69 399.98)" cx="1420.2" cy="423.35" r="6.456"/><circle transform="matrix(.58621 0 0 .58621 665.58 399.98)" cx="1420.2" cy="423.35" r="6.456"/><circle transform="matrix(.58621 0 0 .58621 670.04 399.98)" cx="1420.2" cy="423.35" r="6.456"/><circle transform="matrix(.58621 0 0 .58621 674.93 399.98)" cx="1420.2" cy="423.35" r="6.456"/><circle transform="matrix(.58621 0 0 .58621 680.5 401.31)" cx="1420.2" cy="423.35" r="6.456"/><circle transform="matrix(.58621 0 0 .58621 685.39 401.31)" cx="1420.2" cy="423.35" r="6.456"/><circle transform="matrix(.58621 0 0 .58621 689.85 401.31)" cx="1420.2" cy="423.35" r="6.456"/><circle transform="matrix(.58621 0 0 .58621 694.75 401.31)" cx="1420.2" cy="423.35" r="6.456"/><circle transform="matrix(.58621 0 0 .58621 698.75 401.76)" cx="1420.2" cy="423.35" r="6.456"/><circle transform="matrix(.58621 0 0 .58621 704.1 403.54)" cx="1420.2" cy="423.35" r="6.456"/></g><g stroke-width=".977" transform="matrix(.83083 0 0 .86139 204.24 47.91)"><circle transform="matrix(.58621 0 0 .58621 635.08 403.76)" cx="1420.2" cy="423.35" r="6.456"/><circle transform="matrix(.58621 0 0 .58621 640.42 402.42)" cx="1420.2" cy="423.35" r="6.456"/><circle transform="matrix(.58621 0 0 .58621 645.77 401.31)" cx="1420.2" cy="423.35" r="6.456"/><circle transform="matrix(.58621 0 0 .58621 650.22 401.31)" cx="1420.2" cy="423.35" r="6.456"/><circle transform="matrix(.58621 0 0 .58621 655.12 401.31)" cx="1420.2" cy="423.35" r="6.456"/><circle transform="matrix(.58621 0 0 .58621 660.69 399.98)" cx="1420.2" cy="423.35" r="6.456"/><circle transform="matrix(.58621 0 0 .58621 665.58 399.98)" cx="1420.2" cy="423.35" r="6.456"/><circle transform="matrix(.58621 0 0 .58621 670.04 399.98)" cx="1420.2" cy="423.35" r="6.456"/><circle transform="matrix(.58621 0 0 .58621 674.93 399.98)" cx="1420.2" cy="423.35" r="6.456"/><circle transform="matrix(.58621 0 0 .58621 680.5 401.31)" cx="1420.2" cy="423.35" r="6.456"/><circle transform="matrix(.58621 0 0 .58621 685.39 401.31)" cx="1420.2" cy="423.35" r="6.456"/><circle transform="matrix(.58621 0 0 .58621 689.85 401.31)" cx="1420.2" cy="423.35" r="6.456"/><circle transform="matrix(.58621 0 0 .58621 694.75 401.31)" cx="1420.2" cy="423.35" r="6.456"/><circle transform="matrix(.58621 0 0 .58621 698.75 401.76)" cx="1420.2" cy="423.35" r="6.456"/><circle transform="matrix(.58621 0 0 .58621 704.1 403.54)" cx="1420.2" cy="423.35" r="6.456"/></g><g stroke-width=".959" transform="matrix(.86139 0 0 .86139 158.34 43.198)"><circle transform="matrix(.58621 0 0 .58621 635.08 403.76)" cx="1420.2" cy="423.35" r="6.456"/><circle transform="matrix(.58621 0 0 .58621 640.42 402.42)" cx="1420.2" cy="423.35" r="6.456"/><circle transform="matrix(.58621 0 0 .58621 645.77 401.31)" cx="1420.2" cy="423.35" r="6.456"/><circle transform="matrix(.58621 0 0 .58621 650.22 401.31)" cx="1420.2" cy="423.35" r="6.456"/><circle transform="matrix(.58621 0 0 .58621 655.12 401.31)" cx="1420.2" cy="423.35" r="6.456"/><circle transform="matrix(.58621 0 0 .58621 660.69 399.98)" cx="1420.2" cy="423.35" r="6.456"/><circle transform="matrix(.58621 0 0 .58621 665.58 399.98)" cx="1420.2" cy="423.35" r="6.456"/><circle transform="matrix(.58621 0 0 .58621 670.04 399.98)" cx="1420.2" cy="423.35" r="6.456"/><circle transform="matrix(.58621 0 0 .58621 674.93 399.98)" cx="1420.2" cy="423.35" r="6.456"/><circle transform="matrix(.58621 0 0 .58621 680.5 401.31)" cx="1420.2" cy="423.35" r="6.456"/><circle transform="matrix(.58621 0 0 .58621 685.39 401.31)" cx="1420.2" cy="423.35" r="6.456"/><circle transform="matrix(.58621 0 0 .58621 689.85 401.31)" cx="1420.2" cy="423.35" r="6.456"/><circle transform="matrix(.58621 0 0 .58621 694.75 401.31)" cx="1420.2" cy="423.35" r="6.456"/><circle transform="matrix(.58621 0 0 .58621 698.75 401.76)" cx="1420.2" cy="423.35" r="6.456"/><circle transform="matrix(.58621 0 0 .58621 704.1 403.54)" cx="1420.2" cy="423.35" r="6.456"/></g><g stroke-width=".861" transform="matrix(.94224 0 0 .9769 36.887 -37.523)"><circle transform="matrix(.58621 0 0 .58621 635.08 403.76)" cx="1420.2" cy="423.35" r="6.456"/><circle transform="matrix(.58621 0 0 .58621 640.42 402.42)" cx="1420.2" cy="423.35" r="6.456"/><circle transform="matrix(.58621 0 0 .58621 645.77 401.31)" cx="1420.2" cy="423.35" r="6.456"/><circle transform="matrix(.58621 0 0 .58621 650.22 401.31)" cx="1420.2" cy="423.35" r="6.456"/><circle transform="matrix(.58621 0 0 .58621 655.12 401.31)" cx="1420.2" cy="423.35" r="6.456"/><circle transform="matrix(.58621 0 0 .58621 660.69 399.98)" cx="1420.2" cy="423.35" r="6.456"/><circle transform="matrix(.58621 0 0 .58621 665.58 399.98)" cx="1420.2" cy="423.35" r="6.456"/><circle transform="matrix(.58621 0 0 .58621 670.04 399.98)" cx="1420.2" cy="423.35" r="6.456"/><circle transform="matrix(.58621 0 0 .58621 674.93 399.98)" cx="1420.2" cy="423.35" r="6.456"/><circle transform="matrix(.58621 0 0 .58621 680.5 401.31)" cx="1420.2" cy="423.35" r="6.456"/><circle transform="matrix(.58621 0 0 .58621 685.39 401.31)" cx="1420.2" cy="423.35" r="6.456"/><circle transform="matrix(.58621 0 0 .58621 689.85 401.31)" cx="1420.2" cy="423.35" r="6.456"/><circle transform="matrix(.58621 0 0 .58621 694.75 401.31)" cx="1420.2" cy="423.35" r="6.456"/><circle transform="matrix(.58621 0 0 .58621 698.75 401.76)" cx="1420.2" cy="423.35" r="6.456"/><circle transform="matrix(.58621 0 0 .58621 704.1 403.54)" cx="1420.2" cy="423.35" r="6.456"/></g><g stroke-width=".846" transform="matrix(.9769 0 0 .9769 -15.164 -42.866)"><circle transform="matrix(.58621 0 0 .58621 635.08 403.76)" cx="1420.2" cy="423.35" r="6.456"/><circle transform="matrix(.58621 0 0 .58621 640.42 402.42)" cx="1420.2" cy="423.35" r="6.456"/><circle transform="matrix(.58621 0 0 .58621 645.77 401.31)" cx="1420.2" cy="423.35" r="6.456"/><circle transform="matrix(.58621 0 0 .58621 650.22 401.31)" cx="1420.2" cy="423.35" r="6.456"/><circle transform="matrix(.58621 0 0 .58621 655.12 401.31)" cx="1420.2" cy="423.35" r="6.456"/><circle transform="matrix(.58621 0 0 .58621 660.69 399.98)" cx="1420.2" cy="423.35" r="6.456"/><circle transform="matrix(.58621 0 0 .58621 665.58 399.98)" cx="1420.2" cy="423.35" r="6.456"/><circle transform="matrix(.58621 0 0 .58621 670.04 399.98)" cx="1420.2" cy="423.35" r="6.456"/><circle transform="matrix(.58621 0 0 .58621 674.93 399.98)" cx="1420.2" cy="423.35" r="6.456"/><circle transform="matrix(.58621 0 0 .58621 680.5 401.31)" cx="1420.2" cy="423.35" r="6.456"/><circle transform="matrix(.58621 0 0 .58621 685.39 401.31)" cx="1420.2" cy="423.35" r="6.456"/><circle transform="matrix(.58621 0 0 .58621 689.85 401.31)" cx="1420.2" cy="423.35" r="6.456"/><circle transform="matrix(.58621 0 0 .58621 694.75 401.31)" cx="1420.2" cy="423.35" r="6.456"/><circle transform="matrix(.58621 0 0 .58621 698.75 401.76)" cx="1420.2" cy="423.35" r="6.456"/><circle transform="matrix(.58621 0 0 .58621 704.1 403.54)" cx="1420.2" cy="423.35" r="6.456"/></g><g class="P"><circle transform="matrix(.58621 0 0 .58621 585.21 339.641)" cx="1420.2" cy="423.35" r="6.456"/><circle transform="matrix(.58621 0 0 .58621 590.55 338.301)" cx="1420.2" cy="423.35" r="6.456"/><circle transform="matrix(.58621 0 0 .58621 595.9 337.191)" cx="1420.2" cy="423.35" r="6.456"/><circle transform="matrix(.58621 0 0 .58621 600.35 337.191)" cx="1420.2" cy="423.35" r="6.456"/><circle transform="matrix(.58621 0 0 .58621 605.25 337.191)" cx="1420.2" cy="423.35" r="6.456"/><circle transform="matrix(.58621 0 0 .58621 610.82 335.861)" cx="1420.2" cy="423.35" r="6.456"/><circle transform="matrix(.58621 0 0 .58621 615.71 335.861)" cx="1420.2" cy="423.35" r="6.456"/><circle transform="matrix(.58621 0 0 .58621 620.17 335.861)" cx="1420.2" cy="423.35" r="6.456"/><circle transform="matrix(.58621 0 0 .58621 625.06 335.861)" cx="1420.2" cy="423.35" r="6.456"/><circle transform="matrix(.58621 0 0 .58621 630.63 337.191)" cx="1420.2" cy="423.35" r="6.456"/><circle transform="matrix(.58621 0 0 .58621 635.52 337.191)" cx="1420.2" cy="423.35" r="6.456"/><circle transform="matrix(.58621 0 0 .58621 639.98 337.191)" cx="1420.2" cy="423.35" r="6.456"/><circle transform="matrix(.58621 0 0 .58621 644.88 337.191)" cx="1420.2" cy="423.35" r="6.456"/><circle transform="matrix(.58621 0 0 .58621 648.88 337.641)" cx="1420.2" cy="423.35" r="6.456"/><circle transform="matrix(.58621 0 0 .58621 654.23 339.421)" cx="1420.2" cy="423.35" r="6.456"/><circle transform="matrix(.58621 0 0 .58621 585.21 333.407)" cx="1420.2" cy="423.35" r="6.456"/><circle transform="matrix(.58621 0 0 .58621 590.55 332.067)" cx="1420.2" cy="423.35" r="6.456"/><circle transform="matrix(.58621 0 0 .58621 595.9 330.957)" cx="1420.2" cy="423.35" r="6.456"/><circle transform="matrix(.58621 0 0 .58621 600.35 330.957)" cx="1420.2" cy="423.35" r="6.456"/><circle transform="matrix(.58621 0 0 .58621 605.25 330.957)" cx="1420.2" cy="423.35" r="6.456"/><circle transform="matrix(.58621 0 0 .58621 610.82 329.627)" cx="1420.2" cy="423.35" r="6.456"/><circle transform="matrix(.58621 0 0 .58621 615.71 329.627)" cx="1420.2" cy="423.35" r="6.456"/><circle transform="matrix(.58621 0 0 .58621 620.17 329.627)" cx="1420.2" cy="423.35" r="6.456"/><circle transform="matrix(.58621 0 0 .58621 625.06 329.627)" cx="1420.2" cy="423.35" r="6.456"/><circle transform="matrix(.58621 0 0 .58621 630.63 330.957)" cx="1420.2" cy="423.35" r="6.456"/><circle transform="matrix(.58621 0 0 .58621 635.52 330.957)" cx="1420.2" cy="423.35" r="6.456"/><circle transform="matrix(.58621 0 0 .58621 639.98 330.957)" cx="1420.2" cy="423.35" r="6.456"/><circle transform="matrix(.58621 0 0 .58621 644.88 330.957)" cx="1420.2" cy="423.35" r="6.456"/><circle transform="matrix(.58621 0 0 .58621 648.88 331.407)" cx="1420.2" cy="423.35" r="6.456"/><circle transform="matrix(.58621 0 0 .58621 654.23 333.187)" cx="1420.2" cy="423.35" r="6.456"/></g></g><path transform="matrix(1.278 0 0 1.0865 1231.4 -473.71)" d="M307.69 595.01c-.123-4.601-6.345-4.828-7.374-.575-2.372 3.087-6.371 3.237-9.517 4.802-3.91.59-5.918-4.299-9.92-3.682-3.476-.287-5.61-4.744-9.439-3.622-2.888.097-3.25 4.486-6.239 4.247-3.224.495-5.735 3.259-8.36 4.866-2.124 2.123-3.423 5.012-6.153 6.422-1.39 3.351-3.445 6.46-4.414 9.944-.067 2.533-.463 9.128 3.462 7.533 2.085-2.34 2.6-6.558 6.573-6.454 3.026-.662 6.139-.461 9.217-.487 3.205-.192 5.365 2.913 8.544 2.803 3.692.795 7.325-.461 11.01-.261 2.921 1.26 6.15 1.357 9.253.734 5.579-1.18 10.961-3.172 16.355-5.041 4.343-.427 3.27-7.47 7.247-7.929 1.783-1.103 2.619-3.802 3.867-5.134-.603-3.406-5.005-4.395-6.311-7.058-2.479.798-4.825.146-6.786-1.226l-.512.032-.503.086h0z" fill="#e3e4e5" filter="url(#B)" class="B C"/><g fill="#c00" class="C"><path d="M1595.973 219.348c.968 5.311 2.77 10.575 4.974 15.566 2.273 5.594 2.572 11.604 4.997 17.173a224.48 224.48 0 0 1 7.155 32.463c1.125 4.573 3.242 9.561.733 14.084-2.096 7.699 3.054 16.044-1.648 23.328-3.407 5.276-.433 11.209-.933 16.912 2.6 8.468 10.206-2.42 15.826-1.18 7.7.809 15.734-.345 23.373 1.384 7.231-.871 5.346-7.475 2.784-11.184l-1.12-17.75c-2.793-11.659-4.151-20.061-4.849-32.322-1.323-5.044-2.334-14.112-2.939-20.05-.072-3.98.465-4.184-2.705-14.803-1.161-6.793-6.668-8.284-5.419-15.411-.754-4.577 1.845-15.884-6.843-15.607-12.371.837-16.207 3.027-28.479 4.333-1.454.987-7.948.118-4.906 3.066z" stroke-width=".355" class="B"/><path d="M1619.756 241.93c-1.261.334.656 3.299 1.089 4.904 4.532 16.807 8.276 24.692 8.276 41.248l.218 22.787" stroke-width="1.185" class="E"/></g><path d="M1611.3 234.07c-.276.618 0 3.694 0 5.237 0 1.869.602 3.334-.308 4.961-.796 1.422-2.374 2.864-3.084 4.134-.844 1.509-.925 2.472-.925 4.41 0 2.046-.324 2.219-1.85 3.583-2.099 1.876-5.024 1.476-7.094.551-2.628-1.174-4.048-1.24-4.935-4.41-1.013-3.621.287-7.053.925-10.473.594-3.183.792-7.007 2.776-9.37 2.321-2.765 6.832-1.929 10.178-1.929 4.302 0 3.863 2.799 5.552 4.685" fill="#500" class="B D"/><g transform="matrix(1.0935 0 0 .97716 194.83 -353.51)" class="C J"><path d="M1335.8 561.53l-2.602-3.545c-1.422-1.55-3.664-2.057-5.69-1.801-1.014-.114-2.291-.105-2.911.857-.764.759-.917 1.986-.463 2.947.072 1.039-1.626 1.573-.876 2.722.34 1.012-.491 1.838-.566 2.794-.097.813.411 1.594.071 2.388-.278.996-.824 2.085-.377 3.108.708.903 1.988.586 2.98.631.935-.046 1.895.104 2.609.751.63.44 1.263.904 1.999 1.149.593 1.114 2.01 1.036 2.948.59 1.049.053 2.118-.621 2.412-1.651.66-.912.913-2.049.838-3.159.036-1.056.299-2.084.536-3.105.156-1.565-.663-2.99-.921-4.486l.013-.193z" class="B N"/><path d="M1324.63 560.14c-.215-.43 2.554-.613 3.101-.535.071.01.143 0 .214 0m-4.615 3.855c1.061.152 2.644-.428 3.85-.428.253 0 .329.131.535.214m-4.785 4.174c1.291 0 3.033-.014 4.171.214.26.052.442.221.642.321" class="E F"/></g><path d="M1573.9 173.02c3.901.745 7.551 2.78 11.311 4.004 3.171 2.913 6.982 4.869 11.105 6.478 1.56.633 3.289.956 5.003.808m23.081-11.29c-.562 3.951-7.139 2.103-9.864 4.452-1.374.941-2.069 2.42-3.307 3.475m23.371-6.967c-2.143 4.117-5.69 7.905-10.662 9.333-1.327.636-2.876 1.186-4.391.755m-56.147-6.238c.123 2.319 5.604.253 7.705.938 2.738-.075 6.321-.321 7.887 2.184M1554 185.27c3.871 2.208 9.39-.975 12.608 2.747.941.731 1.827 1.516 2.714 2.298m-20.422 7.205c2.396-1.76 4.515-4.178 7.795-4.564m17.405-8.646c4.161.704 6.926 3.993 9.438 6.766.529.707.972 1.501 1.046 2.362" class="C D E F"/><g transform="matrix(1.0935 0 0 .97716 198.06 -359.26)" class="C J"><path d="M1283.2 595.98c4.044 1.159 7.38.258 10.831-.899 2.311-.865 11.147-1.711 10.243 1.797-1.921-.104-7.917.55-2.677 1.226 4.54 1.971 8.225-1.282 12.337-.91.691 3.862-1.476 7.408-4.308 10.016-4.059 3.204-10.159 3.471-15.364 2.904-5.075.564-9.442-1.4-13.766-3.687 1.119-3.049.657-8.532 2.704-10.447z" class="B N"/><path d="M1304.83 601.51c.939.383 3.397-.285 4.793-.983.762-.381 1.709-.882 2.335-1.352.552-.414 1.074-.459 1.598-.983m-7.826 5.778c1.266-.95 3.255-.152 4.67-.86l2.704-1.352c.032-.016.638-.426.737-.492m-9.111 5.404c1.918-.959 4.688-.255 6.391-1.106" class="E F"/></g><path d="M1556.7 234.89c-3.937 4.331-5.068 11.126-7.15 16.325-.254 5.209-1.496 6.79-4.892 11.314 4.476 4.039 1.32 9.855 1.264 15.139-4.574 10.828-1.146 10.507-1.94 16.27-.796 5.62.864 11.902-3.319 16.806-2.645 5.514-.056 11.895-.908 17.758-.373 8.139-4.076 16.203-1.614 24.345-.047 5.897 5.25 9.679 11.212 10.88 6.655 3.818 7.311-5.025 4.97-8.641-.821-4.593.418-9.255-.053-13.883-1.193-4.773 1.349-8.904 4.915-11.86-1.397-5.381-5.981-10.13-4.744-16.114.356-10.703 6.125-18.221 6.469-28.927 3.144-5.596.668-14.428 5.698-18.754 3.716-4.856 1.117-11.456 5.002-16.418 3.098-6.281-5.796-7.074-8.972-10.773-1.682-1.485-3.526-3.056-5.939-3.465z" class="B C D O"/><path d="M1547.8 264.11c4.6-1.608 9.664-1.201 12.585-5.594a36.61 36.61 0 0 0 1.901-1.572m-8.686-12.954c1.937.85 1.836 3.191 2.776 4.685m4.924 14.605c-4.049 5.179-6.069 11.388-9.388 16.915l-.79.724m5.278 51.261c-3.435 5.239-11.989 6.965-12.894 13.698-.718 4.114-3.418 7.869-3.76 11.933" class="C D E F"/><path d="M1550.2 204.85c-.288 1.031-.358 2.569-.925 3.583l-.309.551c-.731 1.634-1.234 3.744-1.234 5.512 0 2.23-.925 4.127-.925 6.339 0 1.352-.364 3.208.309 4.41.827 1.478 1.575 2.785 2.776 3.858.877.784 2.615 3.134 3.393 3.307 1.799.402 2.276 1.706 4.01 2.48 1.366.61 2.404.854 4.009 1.929 1.688 1.131 3.672 1.904 4.935 3.032 1.719 1.536 3.878 2.806 5.86 4.134 1.852 1.241 3.047 1.971 5.243 2.756 1.921.687 5.313-.245 6.477.276.412.184 4.454 3.307 4.935 3.307 1.647 0 2.159-3.109 2.159-1.102 0 1.765-.606 5.256.308 6.89.897 1.602 2.778 5.788 4.626 5.788 1.312 0 3.668.305 4.626-.551 1.461-1.306 3.233-.821 4.626-2.48 1.315-1.567 3.224-3.657 3.701-5.788.446-1.994 1.702-4.144 2.776-6.063.705-1.26 1.542-2.889 1.542-4.685 0-.89 1.452-5.237 0-5.237-3.261 0-2.95.072-3.701 2.756-.434 1.553-1.234 2.904-1.234 4.685 0 2.827-.518 4.722-2.159 7.166-.54.805-2.383 4.685-3.393 4.685-1.434 0-3.365.098-3.701-1.102-.495-1.768-1.234-3.011-1.234-4.961v-11.3c0-2.884 1.453-3.541 2.159-6.063.488-1.745 2.467-5.233 2.467-7.441 0-1.894 3.598-5.053 1.542-5.512.874-1.561-4.335 1.09-5.86 0-1.55-1.108-5.552-.625-5.552-1.654 0-2.132-3.053-1.378-5.243-1.378-2.392 0-.836-.787-2.776-1.654-2.91-1.3-7.509-.789-10.486.276" class="B D O"/><g class="F C E"><path d="M1583.5 217.81c-4.92.446-12.169 1.052-15.421 4.685m25.021-2.205c-4.737 2.016-8.02 5.65-11.412 8.819m17.912-7.169c-3.806 3.699-8.155 7.928-9.561 12.953m-2.839 5.507c-1.858 0-1.542 5.226-1.542 6.89m-10.458-42.44c-3.42 2.788-10.053 7.22-15.421 8.819" class="D"/><path d="M1595.639 316.26c-.022 6.722 6.394 11.744 6.724 18.432.324 3.677 1.243 7.267 2.251 10.815 1.547 11.869-.309 23.851.998 35.74l.288 4.889m22.216-31.932c.051 8.563 1.556 17.054 1.769 25.611m-44.197-112.882c-.069 15.435.867 30.902 3.538 46.163" stroke-width="1.182"/></g><path d="M1596.3 152.24c-.489-.22-2.244-.143-3.027 0-1.738.318-1.839.548-1.413 1.328.113.206 2.698.394 3.027.443 2.326.34 2.845-.723 1.413-1.77zm8.7 0c.489-.22 2.244-.143 3.027 0 1.738.318 1.839.548 1.412 1.328-.113.206-2.698.394-3.027.443-2.326.34-2.845-.723-1.413-1.77z" class="B D"/><path d="M1590 150.76c.775.024 2.149-.493 3.221-1.033.656-.331 2.305 0 3.074 0h1.464m13.441 1.033c-.809.024-2.24-.493-3.358-1.033-.684-.331-2.403 0-3.205 0h-1.526m-.911 5.753c0-1.765.587 3.524 1.321 5.163.453 1.012-1.681.738-2.476.738-.32 0-.517.093-.825.148m-1.12 3.981h3.797c.555 0 .922-.234 1.321-.59" class="C D E F"/><g fill="#b3b3b3" class="B D"><path d="M1586.6 148.24c-.693.045-1.724.28-1.856.763l-.828 2.779c0 .907-.298 1.875-.298 2.809v2.504c0 .998.476 2.722.298 3.542-.349 1.606.513 1.975 1.293 3.267.851 1.411 1.103 2.709 2.253 4.122.652.802 1.155 1.28 2.22 1.771 1.105.509 1.784 1.54 2.883 2.046.872.402 2.16 1.362 3.049 1.771 1.015.468 1.234.611 2.552.611h3.844c1.228 0 2.569-.458 3.678-.458 1.126 0 1.697-.22 2.419-.886 1.099-1.013 1.999-2.218 2.717-3.542l1.591-2.931c.408-.94 1.223-2.406 1.756-3.389.655-1.207.729-2.045.961-3.542.197-1.268.166-2.558.166-3.848 0-.999-.166-2.013-.166-3.084 0-.726.269-3.528-.298-2.657l-1.756 2.779c-.584 1.077-.567 2.491-.829 3.695-.111.512-.098 2.778-.464 3.115l-.464.428c-.849.782-1.463 1.043-2.253 1.771-.177.163-1.568 1.814-1.922 1.618-.896-.495-1.938-.733-3.38-.733l-3.976.153c-1.433 0-2.273.751-3.678.428-.845-.195-1.501-.521-2.419-.733-.722-.166-1.735-.275-2.717-.275-1.645 0-1.049-.346-1.756-1.649-.566-1.044-1.127-2.317-1.127-3.512 0-1.01-.085-1.749-.331-2.657-.271-1-.63-1.404-.63-2.657v-3.42c-.105-.019-.299-.015-.53 0zm16.502 15.665c.717-.042 1.414-.044 1.955.122l.961.305c0 .603-.127 1.155-.63 1.618-.508.468-1.09 1.552-1.458 2.229-.466.859-1.526.58-2.552.58-.722 0-2.188.149-2.386-.58-.28-1.033-.664-1.585-.332-2.809.302-1.112 1.044-1.344 2.386-1.344.591 0 1.337-.081 2.054-.122z"/><path d="M1580.3 159.47c1.002-.506 2.741-1.387 3.137-2.803.345-1.235.352-1.348 1.321-2.213.698-.624.495-1.937.495-2.803 0-.933 2.311-1.323 2.311-2.803 0-.807.729-1.432 1.486-1.77 1.493-.667.558-1.014 3.137-1.475.778-.139 3.26-1.825 3.632-2.655.652-1.456 2.562.059 2.972-1.77.291-1.302.495-1.954.495-3.393 0-.423-.495-1.66-.495-2.508 0-.621-1.547-1.986-2.146-2.655-.562-.627-3.194-.148-4.127-.148-1.538 0-1.562 1.475-3.137 1.475m27.919 18.731c-.409 0-1.357.197-1.651 0-.419-.281-1.788-1.13-2.146-1.77-.784-1.402-.453-2.563-1.981-3.245-1.97-.88-1.949-.475-2.476-2.36-.367-1.312-.815-.807-1.981-1.328-.564-.252-2.972-1.623-2.972-1.623-1.437-.214-3.107.282-3.962-.738-.763-.909-.317-1.281-.66-2.508-.44-1.573.223-3.234 0-4.868.094.063 3.083-.123 3.632 0 1.921.429 1.674-1.865 3.797-.443.82.55 1.132.806 2.146 1.033.134.03.374.223.495.295" class="C E"/></g></g><g fill="#fff"><ellipse transform="matrix(1.278 0 0 1.0865 1184.9 -389.16)" cx="320.53" cy="499.08" rx="1.532" ry=".674"/><ellipse transform="matrix(1.278 0 0 1.0865 1197.3 -389.16)" cx="320.53" cy="499.08" rx="1.532" ry=".674"/></g><circle transform="matrix(1.278 0 0 1.0865 1185.8 -389.03)" cx="319.76" cy="498.93" r=".582" fill="#483737"/><g fill="#fff"><circle transform="matrix(1.278 0 0 1.0865 1198.4 -389.03)" cx="319.76" cy="498.93" r=".582"/><g transform="matrix(1.278 0 0 1.0865 1186.1 -388.89)"><circle cx="319.73" cy="498.77" r=".123"/><circle cx="319.73" cy="498.77" r=".123"/></g></g><circle transform="matrix(1.278 0 0 1.0865 1198.5 -389)" cx="319.76" cy="498.93" r=".582" fill="#483737"/><circle transform="matrix(1.278 0 0 1.1826 1198.7 -436.8)" cx="319.73" cy="498.77" r=".123" fill="#fff"/><g transform="matrix(.28591 0 0 .25976 909.41 55.689)" class="H K"><path d="M2409.4 257.48c-3.687 4.58-11.09 4.917-9.788 11.424-1.231 2.913 8.132 4.692.996 3.17-6.725-2.46-1.173 4.224-1.548 4.136-7.759-4.203-10.038 9.038-1.216 7.568 2.115-1.489-4.508 7.949 1.722 5.513 2.521-3.84 4.075-3.222 2.17 1.122-2.287 5.216 1.921 4.056 4.93 3.601.042 6.385-10.957 9.952-14.243 3.473-1.832-3.538-3.871-6.196-3.83-.349-1.959 6.611-17.054 5.299-14.802-.308 6.609 1.367 4.365-3.515 1.492-6.521-1.283-3.894 5.742 5.427 5.921-.88-.112-4.043-6.263-4.474-.178-3.971 6.805-3.434-.865-12.168-5.663-6.763 2.037-2.72 3.378-6.948-1.64-3.768-6.111 3.459 4.861-3.526-.503-6.668-.547-3.931-6.671-1.307-8.555-5.238-4.853-.926-6.523 6.573-10.032 7.579.903 4.448.119 7.336 5.578 8.063-3.624-1.744-9.09.551-3.886 3.962 2.244-.298-6.451-1.115-5.676 3.277-1.339 4.768 4.806 6.235 7.163 3.685-1.548 2.678-1.224 10.117 2.339 4.882 5.152-8.189-2.575 9.168 5.491 4.65 5.648-2.193-2.458 7.627-6.221 6.037-4.489 2.124-8.424-9.594-8.62-1.384-.119 5.589-9.213 4.735-7.467-1.06-2.536-2.273-6.188-4.927-.301-3.277 7.47-.074-6.106-6.391.58-5.966 7.665-5.935-6.967-10.415-5.899-5.238 2.328-4.949-2.367-5.521-4.202-2.145 2.238-3.134 2.348-6.491-.454-6.396-2.112-5.761-8.358 1.09-12.59.336-7.1 5.735 6.494 4.892 7.01 10.99 3.203 6.284 4.783 14.328 11.833 17.592 3.957.954 5.442 3.839 4.445 6.483 5.906 4.505 7.01 11.736 6.985 18.273 6.707 1.022 13.273-4.195 20.307-4.238 24.497-4.389 49.706-3.772 74.3-.527 7.685 1.221 15.298 3.035 22.585 5.788.748-7.275.111-16.067 7.718-19.653-2.816-6.334 9.048-6.199 10.673-12.603 3.418-6.89 4.906-14.948 12.957-18.166 4.297-5.503-9.362-3.228-11.38-7.984.446 3.902-5.488 5.164-4.303 5.783 2.653 3.898 1.041 4.953-1.7 1.71-2.945.744 1.819 8.942-2.247 3.312-6.23-5.028-7.753 7.769-2.055 7.723-7.631 2.356-.882 6.606 1.665 4.952-3.644 2.175-5.015 6.431-3.596 7.667-5.132 4.319-8.26-6.804-8.811-6.243-3.76 6.191-15.093 5.144-15.755-2.664 2.221-1.487 6.546 5.122 5.989-1.515-.292-2.588-.495-7.241 1.128-2.038 5.899 5.986 3.367-6.423 3.69-4.446 7.829 3.989 8.459-11.097-.251-7.659 5.035-1.006 3.854-5.416-.937-4.049-5.832-.136 6.833-.445 2.767-4.979 3.611-4.501-5.099-4.949-4.777-9.497-4.403-2.585-8.888 2.031-12.601 2.7-1.362 4.41-2.774 6.609 1.678 9.562-2.573-3.078-8.491-3.279-5.189 1.989 2.142.653-5.4-3.672-6.529.618-3.21 3.791 1.776 7.608 4.968 6.364-2.484 1.799-5.325 8.647.087 5.347 8.073-5.236-5.99 6.988 2.847 6.506 6.31.42-4.97 7.437-8.376 4.597-5.364-.478-5.595-14.458-8.305-4.448-3.616 6.969-18.518.82-14.175-3.94 7.209 4.629 3.361-5.142 3.372-6.755 1.849 4.56 9.102 3.255 4.655-1.531-3.257-4.549 5.141 1.91 5.352-3.579 2.727-5.881-7.901-6.984-6.941-5.402 5.543-4.665-1.308-4.801-4.356-3.355 3.098-1.546 5.802-2.478 3.396-6.02 2.436-5.315-6.6-3.489-7.464-8.25l-.843-.516-.883-.443zm.062 41.094c4.274 9.531 15.723 1.763 22.888 5.061 7.751 2.937-5.071.394-7.367.754-14.316-.742-28.685-.452-42.959.872 5.59-3.204 11.354-4.089 16.949-1.154 4.096-.06 8.219-2.068 10.489-5.533zm-38.562 2.719c1.304 3.48 12.729 4.281 4.122 4.642-2.574.213-13.673 2.938-6.484-1.191a10.67 10.67 0 0 0 2.362-3.45zm77.125 0c.579 3.169 9.458 7.659 1.401 5.402-2.749-.696-14.382-.825-6.055-2.175 1.771-.7 3.384-1.806 4.654-3.227zm-94.75 5.25c3.523 1.442 8.208 2.211 1.588 2.76-4.264 1.774-4.053.026-1.588-2.76zm112.38 0c7.353 6.526-11.693 1.334-2.623 1.119l1.414-.454z" fill="#eac102"/><g fill="#e3e4e5"><use xlink:href="#C"/><use xlink:href="#C" x="38.4" y="-7.26"/><use xlink:href="#C" x="116.4"/><path d="M2425.9 291.68c0-2.083 1.703-3.777 3.797-3.777 2.104 0 3.807 1.694 3.807 3.777 0 2.094-1.703 3.788-3.807 3.788-2.094 0-3.797-1.694-3.797-3.788m-16.5-18.78c-2.526 0-4.581 3.177-4.581 7.113s2.055 7.123 4.581 7.123c2.534 0 4.581-3.183 4.581-7.123s-2.055-7.113-4.581-7.113zm43.1 4.41c-2.213.053-4.448 2.58-5.212 6.065-.844 3.849.426 7.385 2.843 7.909 2.425.526 5.074-2.153 5.918-6.002s-.447-7.385-2.864-7.909a2.93 2.93 0 0 0-.684-.063zm-86.2 0a2.92 2.92 0 0 0-.684.063c-2.417.524-3.707 4.063-2.864 7.909s3.493 6.529 5.918 6.002c2.417-.524 3.687-4.06 2.843-7.909-.764-3.485-3-6.013-5.212-6.065zm-38.5 11.94a2.84 2.84 0 0 0-1.095.23c-.098.042-.172.125-.263.178l.169 1.278.147.838c-.554 1.006.012 2.854.937 4.976 1.005 2.304 2.087 4.155 3.338 4.222l.316.346 1.158 1.152c2.128-1.041 2.622-4.653 1.074-8.202-1.329-3.047-3.729-5.044-5.781-5.018zm163 0c-1.999.118-4.27 2.084-5.549 5.018-1.548 3.549-1.054 7.162 1.074 8.202l1.158-1.152.316-.346c1.251-.067 2.334-1.918 3.338-4.222.925-2.122 1.492-3.97.937-4.976l.148-.838.168-1.278c-.092-.053-.165-.136-.263-.178a2.88 2.88 0 0 0-1.327-.23z"/></g><path d="M2409.4 310.85c-5.396 0-9.751 2.033-9.751 4.525s4.355 4.515 9.751 4.515 9.772-2.023 9.772-4.515c0-2.5-4.371-4.525-9.772-4.525zm56.2 6.57c-2.719.059-4.731.914-5.17 2.409-.699 2.382 2.88 5.506 8.024 7.019.259-.315.538-.578.779-.911.073-.101.14-.202.211-.304.045.008.091.01.137.021.307-.228.632-.422.906-.691a5.7 5.7 0 0 0 .684-.807 3.68 3.68 0 0 0 .453-.89c.11-.315.175-.656.211-1.006a6.76 6.76 0 0 0 .032-1.068c-.024-.427-.134-.833-.211-1.247l-.116-.042a1.48 1.48 0 0 0 .021-.147c.045-.488.01-.899.01-1.351-.184-.059-.328-.144-.516-.199-1.942-.564-3.823-.821-5.454-.786zm-112.6 0c-1.631-.035-3.512.221-5.455.786-.188.055-.332.14-.516.199l.011 1.351c0 .049.016.097.021.147l-.116.042c-.077.414-.176.82-.2 1.247a6.66 6.66 0 0 0 .021 1.068c.036.35.111.691.221 1.006a3.68 3.68 0 0 0 .453.89c.195.282.431.557.684.807.274.269.588.463.895.691l.137-.031.221.314c.241.333.52.596.779.911 5.144-1.512 8.723-4.637 8.024-7.019-.439-1.495-2.462-2.351-5.181-2.409z" fill="#ed1c24"/><path d="M2376.9 311.4l-9.814 6.956 11.172 4.274 9.814-6.956zm65.1 0l-11.172 4.274 9.814 6.956 11.172-4.274z" fill="#008f4c" class="B"/></g><ellipse transform="matrix(1.278 0 0 1.0865 1344.6 -414.19)" cx="209.68" cy="557.48" rx=".858" ry="1.348"/><ellipse transform="matrix(1.278 0 0 1.0865 1338.4 -410.2)" cx="209.68" cy="557.48" rx=".858" ry="1.348"/><ellipse transform="matrix(1.278 0 0 1.0865 1361.5 -418.99)" cx="209.68" cy="557.48" rx=".858" ry="1.348"/><ellipse transform="matrix(1.278 0 0 1.0865 1353.1 -413.66)" cx="209.68" cy="557.48" rx=".858" ry="1.348"/><ellipse transform="matrix(1.278 0 0 1.0865 1332.1 -415.26)" cx="209.68" cy="557.48" rx=".858" ry="1.348"/><ellipse transform="matrix(1.278 0 0 1.0865 1300.2 -420.85)" cx="209.68" cy="557.48" rx=".858" ry="1.348"/><ellipse transform="matrix(1.278 0 0 1.0865 1309.2 -411.26)" cx="209.68" cy="557.48" rx=".858" ry="1.348"/><ellipse transform="matrix(1.278 0 0 1.0865 1347.1 -421.38)" cx="209.68" cy="557.48" rx=".858" ry="1.348"/><ellipse transform="matrix(1.278 0 0 1.0865 1321.8 -418.99)" cx="209.68" cy="557.48" rx=".858" ry="1.348"/><ellipse transform="matrix(1.278 0 0 1.0865 1324.3 -411.8)" cx="209.68" cy="557.48" rx=".858" ry="1.348"/><ellipse transform="matrix(1.278 0 0 1.0865 1360.9 -426.18)" cx="209.68" cy="557.48" rx=".858" ry="1.348"/><ellipse transform="matrix(1.278 0 0 1.0865 1312.4 -429.64)" cx="209.68" cy="557.48" rx=".858" ry="1.348"/><g transform="matrix(.50566 0 0 .4986 2064.6 274.79)"><path d="M-754.57-268.14c-14.187 10.565 4.312 43.085-36.135 43.085s-24-32.519-37.481-43.085c0 0 24.538-4.241 36.808-4.241s36.808 4.241 36.808 4.241z" fill="#c00" class="B H L"/><g transform="matrix(.7069 0 0 .7069 -864.9 -349.22)" stroke="#2e3436" stroke-width=".566" class="F"><use xlink:href="#D"/><use xlink:href="#D" x="-1.07" y="2.83"/><use xlink:href="#D" x="-2.81" y="5.65"/><use xlink:href="#D" x="1.2" y="-2.83"/><use xlink:href="#D" x="2.14" y="-5.66"/><use xlink:href="#D" x="2.81" y="-8.49"/><use xlink:href="#D" x="3.21" y="-11.32"/><use xlink:href="#D" x="3.34" y="-14.15"/><use xlink:href="#D" x="3.75" y="-16.98"/><use xlink:href="#D" x="4.15" y="-19.81"/><use xlink:href="#D" x="4.68" y="-22.64"/><use xlink:href="#D" x="5.35" y="-25.47"/><use xlink:href="#D" x="5.89" y="-28.3"/><use xlink:href="#D" x="6.55" y="-31.13"/><use xlink:href="#D" x="7.4" y="-33.96"/><use xlink:href="#D" x="8.74" y="-36.78"/><use xlink:href="#D" x="10.63" y="-39.61"/><use xlink:href="#D" x="-5.62" y="8.48"/><use xlink:href="#D" x="-8.7" y="11.31"/><use xlink:href="#D" x="13.32" y="-42.44"/><use xlink:href="#D" x="-0.936" y="1.452"/><use xlink:href="#D" x="-2.006" y="4.282"/><use xlink:href="#D" x="-3.746" y="7.102"/><use xlink:href="#D" x="0.264" y="-1.378"/><use xlink:href="#D" x="1.204" y="-4.208"/><use xlink:href="#D" x="1.874" y="-7.038"/><use xlink:href="#D" x="2.274" y="-9.868"/><use xlink:href="#D" x="2.404" y="-12.698"/><use xlink:href="#D" x="2.814" y="-15.528"/><use xlink:href="#D" x="3.214" y="-18.358"/><use xlink:href="#D" x="3.744" y="-21.188"/><use xlink:href="#D" x="4.414" y="-24.018"/><use xlink:href="#D" x="4.954" y="-26.848"/><use xlink:href="#D" x="5.614" y="-29.678"/><use xlink:href="#D" x="6.464" y="-32.508"/><use xlink:href="#D" x="7.804" y="-35.328"/><use xlink:href="#D" x="9.694" y="-38.158"/><use xlink:href="#D" x="-6.556" y="9.932"/><use xlink:href="#D" x="-9.636" y="12.762"/><use xlink:href="#D" x="12.384" y="-40.988"/></g><g class="H"><path d="M-827.14-278.78s23.837-4.241 35.755-4.241 35.755 4.241 35.755 4.241a4.88 4.88 0 0 1 4.892 4.892v.82a4.88 4.88 0 0 1-4.892 4.892s-23.837-4.241-35.755-4.241-35.755 4.241-35.755 4.241a4.88 4.88 0 0 1-4.892-4.892v-.82a4.88 4.88 0 0 1 4.892-4.892z" class="G L"/><g class="L M"><use xlink:href="#E"/><use xlink:href="#E" x="9.29" y="-2.05"/><use xlink:href="#E" x="18.58" y="-3.4"/><use xlink:href="#E" x="27.88" y="-4.46"/><use xlink:href="#E" x="37.17" y="-4.46"/><use xlink:href="#E" x="46.46" y="-3.4"/><use xlink:href="#E" x="65.04"/><use xlink:href="#E" x="55.75" y="-2.05"/></g><g stroke-width=".838" class="G"><path d="M-786.097-236.018c-.295-1.349-10.27-1.348-10.565 0a3.75 3.75 0 0 0-.051.296c-.265 1.964.286 7.319 5.334 12.431 5.047-5.111 5.598-10.467 5.333-12.431a3.77 3.77 0 0 0-.051-.296z" class="B"/><path d="M-791.38-223.292c-7.451-1.558-12.002-6.828-12.33-12.372-.134-2.272 7.09-1.832 6.997-.058"/><g class="B"><path d="M-786.043-235.724c.265 1.964-.286 7.319-5.333 12.431 7.451-1.558 12.002-6.828 12.33-12.372.134-2.272-7.09-1.832-6.997-.058z"/><path d="M-791.38-223.292c-5.048-5.111-5.599-10.467-5.334-12.431.093-1.774-7.132-2.214-6.997.058.328 5.544 4.879 10.814 12.331 12.372z"/></g><path d="M-774.549-234.034c.309-1.447 4.768-1.456 4.63-.499-.1 1.965-1.729 9.898-21.461 11.242m-16.89-10.743c-.31-1.447-4.784-1.456-4.646-.499.101 1.965 1.735 9.898 21.536 11.242"/><path d="M-803.298-234.828c-.175-2.171-6.923-2.416-6.882-1.064.078 2.572 1.409 10.583 19.999 12.6"/><path d="M-791.38-223.292c-7.451-1.76-12.002-7.71-12.33-13.97-.134-2.566 7.09-2.069 6.997-.066"/><path d="M-779.516-234.828c.176-2.171 6.975-2.416 6.934-1.064-.079 2.572-1.42 10.583-20.149 12.6"/><path d="M-791.38-223.292c7.451-1.76 12.002-7.71 12.33-13.97.134-2.566-7.09-2.069-6.997-.066"/><path d="M-791.38-223.292c-5.328-7.061-5.645-14.478-5.282-16.653.295-1.764 10.27-1.765 10.565 0 .363 2.175.046 9.592-5.282 16.653"/></g><g transform="matrix(.97835 0 0 .97835 -893.13 -396.25)"><g transform="matrix(.88918 0 0 .88918 11.525 18.652)" class="I"><path d="M127.36 207.74c-15.746-10.995-12.562-21.253-16.852-20.396H97.427c-4.2-.851-1.62 9.729-16.418 20.396z" class="G"/><g class="B"><path d="M93.619 176.89c4.731.618 15.846.618 20.577 0a13.35 13.35 0 0 0 1.314-.227c2.967-.706 3.71-2.181 2.349-3.341-4.437.441-9.116.677-13.952.677a141.48 141.48 0 0 1-13.951-.677c-1.361 1.159-.618 2.635 2.349 3.341.349.083.793.158 1.314.227z" fill="#c00"/><g fill="#ffd42a"><path d="M112.2 180.5c-3.035.799-13.551.799-16.586 0-1.322.611-1.496 1.559 0 2.114.278.073.618.139 1.009.199 3.496.533 11.072.533 14.568 0 .391-.06.731-.126 1.009-.199 1.496-.555 1.322-1.502 0-2.114z"/><use xlink:href="#F"/><path d="M95.614 180.5c3.035.799 13.551.799 16.586 0"/></g><path d="M109.98 182.81c-2.891.441-9.156.441-12.047 0 .383.651.486 1.544.248 2.489 3.544.469 8.007.469 11.548 0-.235-.945-.132-1.839.251-2.489z" class="M"/><use xlink:href="#F" fill="#c00"/></g><path d="M95.614 180.5c3.035.799 13.551.799 16.586 0" class="G"/><path d="M95.614 180.5c3.035.799 13.551.799 16.586 0 .039-.868-.061-2.296 1.995-3.612-4.732.618-15.846.618-20.577 0 2.057 1.316 1.957 2.745 1.995 3.612z" class="B M"/><path d="M101.58 188c-.671 12.756-3.027 15.689-9.215 24.193m23.198 0c-6.186-8.375-8.542-11.18-9.213-23.936" class="G"/><path d="M97.264 187.63c4.337.62 8.817.62 13.011 0 2.178-.342 1.74-2.594-.751-2.5a41.62 41.62 0 0 1-11.505 0c-2.494-.094-2.932 2.157-.754 2.5h0z" fill="#c4a000" class="B"/></g><g stroke-width=".723"><path d="M76.143 206.77h55.717v4.117H76.143z" class="G"/><path d="M78.978 202.44h50.043v4.117H78.978z" class="M"/></g></g><g class="G L"><path transform="matrix(.99224 -.1243 .17639 .98432 0 0)" d="M-765.12-357.34h4.648v10.536h-4.648z"/><path d="M-795.09-260.78h7.418v10.173h-7.418z"/><path transform="matrix(-.99231 -.12375 -.1414 .98995 0 0)" d="M789.55-160.54h4.669v10.476h-4.669z"/></g></g></g></g></svg>