<svg xmlns="http://www.w3.org/2000/svg" xmlns:xlink="http://www.w3.org/1999/xlink" width="178.998" height="289.999" viewBox="0 0 47.36 76.729" xmlns:v="https://vecta.io/nano"><style><![CDATA[.B{stroke-linejoin:round}.C{fill-rule:evenodd}.D{stroke-width:1.178}.E{stroke-linecap:round}.F{stroke:#000}.G{fill:none}.H{stroke-width:1.14}.I{fill:#edd400}.J{stroke-width:2.704}.K{fill:#deaa87}.L{fill:#729fcf}.M{stroke-width:.856}.N{stroke-width:.826}]]></style><defs><radialGradient id="A" cx="1987.1" cy="910.46" r="43.716" gradientTransform="matrix(1.6168 -.013927 .0087025 .28609 -836.86 695.43)" gradientUnits="userSpaceOnUse"><stop stop-color="#8f5902" offset="0"/><stop stop-color="#8f5902" stop-opacity=".498" offset=".566"/><stop stop-color="#fff" offset="1"/></radialGradient><filter id="B" x="-.023" y="-.05" width="1.045" height="1.1" color-interpolation-filters="sRGB"><feTurbulence baseFrequency="0.2" numOctaves="7" seed="300"/><feDisplacementMap xChannelSelector="R"/><feBlend in2="SourceGraphic" mode="screen"/><feColorMatrix values="1 0 0 -1 0 1 0 1 -1 0 1 0 0 -1 0 -0.8 -1 0 4 -2.5 "/><feGaussianBlur stdDeviation=".5"/><feSpecularLighting specularExponent="5" surfaceScale="5"><feDistantLight azimuth="225" elevation="35"/></feSpecularLighting><feComposite in2="SourceGraphic" k2="0.5" k3="1" operator="arithmetic"/><feComposite in2="SourceGraphic" operator="in"/></filter><path id="C" d="M47.513 65.519c-1.044-.859-2.293-1.462-2.778-1.341s-.926 2.057-.926 3.438v3.411c0 1.382.494 3.52 1.095 4.752 0 0 2.197 4.492 6.258 4.492 3.703 0 5.963-3.655 5.963-3.655.718-1.163.453-2.817-.591-3.676z"/><path id="D" d="M47.73 51.462c-1.045-.857-2.311-1.64-2.812-1.739s-1.349 1.687-1.349 3.069v.333c0 1.382.857 3.21 1.904 4.064l10.898 8.879c1.048.853 1.905.421 1.905-.961v-2.478c0-1.382-.854-3.213-1.898-4.07z"/><path id="E" d="M47.261 58.643c-1.047-.853-2.307-1.591-2.798-1.639s-.894 1.989-.894 3.364.854 3.202 1.897 4.06l10.829 8.906c1.043.859 1.916 1.419 1.939 1.244s.041-1.775.041-3.157v-1.294c0-1.381-.857-3.21-1.905-4.063z"/><path id="F" d="M2347.5 298.94c0-2.083 1.703-3.777 3.797-3.777 2.104 0 3.808 1.694 3.808 3.777 0 2.094-1.703 3.788-3.808 3.788-2.094 0-3.797-1.694-3.797-3.788"/></defs><g transform="matrix(.26458 0 0 .26458 -608.13326 -173.17781)"><path d="m2455.2 931.8a70.88 12.28 0 1 1-141.76 0 70.88 12.28 0 1 1 141.76 0z" fill="url(#A)"/><g fill="#b3b3b3"><path d="M2415.175 690.494l-11.48 3.173 8.182 21.4 11.48-3.173z"/><g class="C D F"><path d="M2400.8 672.78c-.668 4.849 3.796 14.883 8.957 17.36 10.932 5.526 4.666 11.993 11.056 20.077 6.812 3.47 5.101 2.671 5.517-.512.283-4.598-6.381-19.217-12.572-21.498-7.155-3.175-7.488-16.275-12.957-15.428z"/><path d="M2375.1 673.24c-.835.642-.119 3.162-.825 4.426-.536.958-1.006 1.088-1.321 2.213-.281 1.003-2.401 1.635-2.972 2.655-1.195 2.137-2.146 1.321-2.146 3.836 0 1.25-.825 2.506-1.156 3.688-.385 1.375-.63 2.038-1.651 2.95-.659.589-.685 2.426-.99 3.245-.483 1.293-2.803 2.372-2.476 3.54.316 1.128-.66 2.213.33 3.098 1.579 1.411-.559 3.189.99 4.573.964.861 2.134.694 2.476 1.918.422 1.509 2.139 1.555 3.137 2.803 2.799 3.501 6.391 3.388 10.4 3.836 2.465.275 5.516 1.263 7.759 2.065 1.907.682 5.633.148 7.594.148 3.448 0 7.218.476 10.4-.59 2.593-.869 4.973-2.368 7.429-3.245.921-.329.547-1.715.991-2.508.76-1.359 2.54-.76.825-2.803-.44-.524.276-2.093.66-2.95.487-1.088-.99-2.375-.99-3.54 0-.746.026-2.406.33-2.95.599-1.071-1.321-2.355-1.321-3.393 0-.902.061-1.845-.165-2.655-.27-.965-1.429-1.368-1.651-2.36-.286-1.279-2.065-1.471-1.651-2.95.272-.972-1.414-1.98-1.981-2.36-1.208-.81-1.486-1.854-1.486-3.245 0-1.025-.531-2.277-.991-3.098-.559-1-.401-2.488-.165-3.54.264-1.178-.767-2.126-1.321-2.95-.734-1.093-1.655-2.297-2.146-3.393-.413-.922-5.913-.885-6.769-.885-1.901 0-4.046-.221-5.778.295-.964.287-2.328.077-3.302.295-1.512.338-2.853.518-4.292 1.033-1.398.5-3.149-.126-3.797 1.033-.155.277-1.495 1.046-1.981 1.77z"/></g></g><g class="F K"><path d="M2399.6 702.44c-.25 1.75.174 2.404 1.486 3.525.862.736 2.7 2.347 1.651 3.243-.454.388-1.101.564-1.651.846-2.896 1.484-7.244.829-9.905 3.102-.706.603-1.841 1.45-2.972 1.692-1.668.356-3.717.141-5.448.141-3.059 0-6.029-1.128-9.245-1.128-.514 0-.351-2.326-.495-2.82-.225-.77 1.107-.946 1.816-1.551 1.34-1.145 3.267-1.952 4.622-2.82.856-.548.711-1.356 1.156-2.115.786-1.343 1.695-1.649 3.632-1.833 3.235-.307 6.634 0 9.905 0 1.325 0 2.804-.423 4.292-.423.389 0 .77.094 1.156.141z" class="C D"/><ellipse transform="matrix(-1.0069 0 0 .97716 3836.7 336.64)" cx="1438.4" cy="361.6" rx="15.248" ry="18.795" stroke-width="1.188" class="B"/></g><g class="C D"><g class="F"><path d="M2352.7 914.91c1.545.083 3.069.475 4.443 1.252 1.099.529 2.219 1.102 3.486 1.221 4.148 1.574 3.003 8.379-1.743 8.214-4.133.731-8.5-.191-12.576.947-4.279 1.749-8.961 2.726-13.601 3.267-5.289-1.442-.704-6.76 2.597-7.848 2.898-2.414 6.734-3.368 9.979-5.252 2.201-1.219 4.841-1.939 7.415-1.802zm53.104 1.954c.278.025.544.082.82.153 5.636 1.183 6.889.429 11.98 3.144 2.975 2.5 9.588 8.651 6.098 11.086-3.959 1.552-7.917-.984-11.277-2.626-3.484-3.494-9.865-.592-13.259-4.183-2.742-3.342 1.466-7.942 5.639-7.573z" fill="maroon"/><path d="M2425.9 770.29h.354c.381 0 3.043 10.855 4.246 12.647 2.267 3.376 1.415 7.904 1.415 11.699 0 2.687.121 4.969.708 7.588.705 3.149 2.433 6.127 3.892 9.169 1.253 2.613.354 7.35.354 10.118v10.434c0 2.828.354 5.91.354 8.853 0 3.448-.354 6.652-.354 10.118v12.015c0 3.433-.354 6.668-.354 10.118 0 4.26-.352 7.426-2.123 11.383-.857 1.915-1.061 4.566-1.061 6.64v7.588c0 2.576-1.769 5.042-1.769 7.905v8.537 6.956c0 2.47-.95 1.897-3.539 1.897-2.573 0-4.166-.949-6.723-.949-1.967 0-4.252.632-6.723.632-3.088 0-4.672-1.992-7.077-2.529-3.406-.761-5.912.949-8.846.949-2.054 0-4.255.949-6.723.949-3.29 0-5.851-1.265-8.846-1.265-3.634 0-3.938-.275-6.369 1.897-1.91 1.707-7.49 1.265-9.907 1.265-2.947 0-5.005-.632-7.785-.632-3.015 0-6.964-.023-9.554-.949-1.878-.671-6.045.007-7.431.316-2.762.617-5.44.332-8.138-.632-2.351-.84 2.406-3.984 3.538-6.008 1.199-2.142 1.415-3.681 1.415-6.324 0-2.854.708-4.417.708-7.272 0-2.378-.354-4.049-.354-6.64v-8.221-12.647c0-4.404-.067-8.814.708-12.964.589-3.159.354-6.75.354-10.118v-9.802c0-5.365 5.36-11.855 6.015-17.706.789-7.054 5.331-12.72 7.431-19.287 1.247-3.9 3.32-8.529 5.661-12.015 2.171-3.233 3.442-5.787 6.015-8.853l1.061-1.265c5.876-7.001 18.72-8.704 26.892-12.964 7.588-3.955 22.152-7.019 29.369-3.794 1.495.668 1.967 1.802 3.185 3.162z" class="L"/></g><path d="M2415.5 765.74c8.521-.044 10.868 8.516 15.75 13.126 5.027 4.451 6.678 15.302-1.597 17.565-8.034 1.612-17.683-.48-24.317 4.801-6.198 6.236-4.691 15.163-6.934 22.677-3.233-2.664-3.182-9.316-6.084-13.192-3.314-6.36-9.189-11.222-15.554-15.12-4.79-4.323-.14-10.36 3.571-13.827 5.132-4.937 9.953-10.673 17.496-12.76 5.112-2.055 10.823-1.445 16.127-2.553l.787-.313zm-43.638 40.919c.372.83 1.057 2.362 0 0zm.547 1.221c1.789 8.573.317 17.455 1.91 25.984 3.624 7.29 8.457 14.927 6.623 23.205-.347 9.733-.933 19.639 1.667 29.188-1.125 9.99 2.394 20.169-.666 30.021-7.92-2.796-6.23-12.774-10.827-18.286-2.617-5.447-3.859-12.294-10.211-15.393-5.392-.813-3.97 13.627-6.462 5.145-3.059-7.638-7.051-16.419-2.342-24.237 5.338-10.501 4.108-22.154 3.123-33.292-.621-7.017.992-14.849 7.871-19.168 2.643-1.867 5.913-3.126 9.316-3.166zm42.975 56.954c3.005 10.467 5.292 21.233 4.852 32.086.953 5.629 7.711 10.179 5.761 16.125-4.505 4.682-11.449-2.318-15.663-4.818-2.902-6.716 2.184-14.102 1.447-21.224.606-7.586.951-15.268 3.226-22.641.177.12.258.309.377.471z" fill="#3465a4" opacity=".25" stroke="#4d4d4d"/></g><path fill="#ed1c24" d="M2399.6 729.56h-47.398v28.246h47.398z"/><g class="F"><g fill="green" class="C D"><path d="M2424.8 727.78c2.213 0 6.886 2.154 8.019 4.685.72 1.607 2.167 3.038 3.701 4.41l.925.827c.717.64 0 5.784 0 6.615 0 3.858-.66 7.499-3.084 10.749-2.372 3.179-6.55 3.891-10.178 5.512-2.175.972-8.156 0-10.486 0-2.51 0-7.028-2.023-8.944-3.307-.184-.123-.411-.184-.617-.276-2.296-1.026-4.095-3.635-4.935-5.512-1.2-2.681-4.348-4.739-5.86-7.441-1.189-2.126.772-4.964 1.234-6.615.817-2.92 8.003-4.954 10.486-6.063 2.826-1.263 6.316-2.783 9.253-3.307 2.578-.461 4.457-1.022 7.094-.551.202.036.411 0 .617 0 .931 0 1.845.276 2.776.276zm-73.9-11.71c-.842.273-3.401 1.838-4.57 2.882-.849.758-2.591 1.726-3.763 3.123-1.647 1.963-1.732 4.35-2.688 6.486-.631 1.409-1.275 2.779-2.151 4.083l-3.763 5.525c-1.554 2.314-1.613 6.76-1.613 9.368 0 3.721 5.206 4.105 8.333 4.804 2.052.458 4.882.24 6.989.24 8.279 0 10.034-9.978 12.096-14.893 2.534-6.039 1.107-12.755-2.957-17.295-1.237-1.382-3.04-2.606-4.032-4.083-.326-.485-1.26-.129-1.882-.24z"/><path d="M2332.9 735.29c.268 2.085-1.708 5.143-2.419 7.687-.474 1.693-1.709 4.735-2.688 6.486-.535.956 0 3.645 0 4.804v4.083c0 2.419.399 4.077 1.613 6.245.758 1.355 2.066 2.807 2.957 3.603.628.562 3.828.24 4.838.24 1.374 0 2.753-.014 3.763-.24 2.707-.605 3.601-.398 5.108-2.642 2.043-3.043 2.15-6.125 2.15-10.089 0-2.887.807-6.004.807-8.888v-7.687c0-1.338-3.31-2.56-4.032-2.882-1.822-.814-4.128-1.145-5.645-2.162-1.762-1.181-3.894-1.352-5.645-.961-.755.169-.727 2.045-.807 2.402z"/></g><g transform="matrix(-.58282 -.079942 -.18612 .98076 3335.6 277.06)" fill="#eac102" class="B"><g stroke-width="1.082" transform="matrix(.76373 0 0 .76373 305.49 115.74)"><circle transform="matrix(.58621 0 0 .58621 635.08 403.76)" cx="1420.2" cy="423.35" r="6.456"/><circle transform="matrix(.58621 0 0 .58621 640.42 402.42)" cx="1420.2" cy="423.35" r="6.456"/><circle transform="matrix(.58621 0 0 .58621 645.77 401.31)" cx="1420.2" cy="423.35" r="6.456"/><circle transform="matrix(.58621 0 0 .58621 650.22 401.31)" cx="1420.2" cy="423.35" r="6.456"/><circle transform="matrix(.58621 0 0 .58621 655.12 401.31)" cx="1420.2" cy="423.35" r="6.456"/><circle transform="matrix(.58621 0 0 .58621 660.69 399.98)" cx="1420.2" cy="423.35" r="6.456"/><circle transform="matrix(.58621 0 0 .58621 665.58 399.98)" cx="1420.2" cy="423.35" r="6.456"/><circle transform="matrix(.58621 0 0 .58621 670.04 399.98)" cx="1420.2" cy="423.35" r="6.456"/><circle transform="matrix(.58621 0 0 .58621 674.93 399.98)" cx="1420.2" cy="423.35" r="6.456"/><circle transform="matrix(.58621 0 0 .58621 680.5 401.31)" cx="1420.2" cy="423.35" r="6.456"/><circle transform="matrix(.58621 0 0 .58621 685.39 401.31)" cx="1420.2" cy="423.35" r="6.456"/><circle transform="matrix(.58621 0 0 .58621 689.85 401.31)" cx="1420.2" cy="423.35" r="6.456"/><circle transform="matrix(.58621 0 0 .58621 694.75 401.31)" cx="1420.2" cy="423.35" r="6.456"/><circle transform="matrix(.58621 0 0 .58621 698.75 401.76)" cx="1420.2" cy="423.35" r="6.456"/><circle transform="matrix(.58621 0 0 .58621 704.1 403.54)" cx="1420.2" cy="423.35" r="6.456"/></g><g stroke-width=".977" transform="matrix(.83083 0 0 .86139 204.24 47.91)"><circle transform="matrix(.58621 0 0 .58621 635.08 403.76)" cx="1420.2" cy="423.35" r="6.456"/><circle transform="matrix(.58621 0 0 .58621 640.42 402.42)" cx="1420.2" cy="423.35" r="6.456"/><circle transform="matrix(.58621 0 0 .58621 645.77 401.31)" cx="1420.2" cy="423.35" r="6.456"/><circle transform="matrix(.58621 0 0 .58621 650.22 401.31)" cx="1420.2" cy="423.35" r="6.456"/><circle transform="matrix(.58621 0 0 .58621 655.12 401.31)" cx="1420.2" cy="423.35" r="6.456"/><circle transform="matrix(.58621 0 0 .58621 660.69 399.98)" cx="1420.2" cy="423.35" r="6.456"/><circle transform="matrix(.58621 0 0 .58621 665.58 399.98)" cx="1420.2" cy="423.35" r="6.456"/><circle transform="matrix(.58621 0 0 .58621 670.04 399.98)" cx="1420.2" cy="423.35" r="6.456"/><circle transform="matrix(.58621 0 0 .58621 674.93 399.98)" cx="1420.2" cy="423.35" r="6.456"/><circle transform="matrix(.58621 0 0 .58621 680.5 401.31)" cx="1420.2" cy="423.35" r="6.456"/><circle transform="matrix(.58621 0 0 .58621 685.39 401.31)" cx="1420.2" cy="423.35" r="6.456"/><circle transform="matrix(.58621 0 0 .58621 689.85 401.31)" cx="1420.2" cy="423.35" r="6.456"/><circle transform="matrix(.58621 0 0 .58621 694.75 401.31)" cx="1420.2" cy="423.35" r="6.456"/><circle transform="matrix(.58621 0 0 .58621 698.75 401.76)" cx="1420.2" cy="423.35" r="6.456"/><circle transform="matrix(.58621 0 0 .58621 704.1 403.54)" cx="1420.2" cy="423.35" r="6.456"/></g><g stroke-width=".959" transform="matrix(.86139 0 0 .86139 158.34 43.198)"><circle transform="matrix(.58621 0 0 .58621 635.08 403.76)" cx="1420.2" cy="423.35" r="6.456"/><circle transform="matrix(.58621 0 0 .58621 640.42 402.42)" cx="1420.2" cy="423.35" r="6.456"/><circle transform="matrix(.58621 0 0 .58621 645.77 401.31)" cx="1420.2" cy="423.35" r="6.456"/><circle transform="matrix(.58621 0 0 .58621 650.22 401.31)" cx="1420.2" cy="423.35" r="6.456"/><circle transform="matrix(.58621 0 0 .58621 655.12 401.31)" cx="1420.2" cy="423.35" r="6.456"/><circle transform="matrix(.58621 0 0 .58621 660.69 399.98)" cx="1420.2" cy="423.35" r="6.456"/><circle transform="matrix(.58621 0 0 .58621 665.58 399.98)" cx="1420.2" cy="423.35" r="6.456"/><circle transform="matrix(.58621 0 0 .58621 670.04 399.98)" cx="1420.2" cy="423.35" r="6.456"/><circle transform="matrix(.58621 0 0 .58621 674.93 399.98)" cx="1420.2" cy="423.35" r="6.456"/><circle transform="matrix(.58621 0 0 .58621 680.5 401.31)" cx="1420.2" cy="423.35" r="6.456"/><circle transform="matrix(.58621 0 0 .58621 685.39 401.31)" cx="1420.2" cy="423.35" r="6.456"/><circle transform="matrix(.58621 0 0 .58621 689.85 401.31)" cx="1420.2" cy="423.35" r="6.456"/><circle transform="matrix(.58621 0 0 .58621 694.75 401.31)" cx="1420.2" cy="423.35" r="6.456"/><circle transform="matrix(.58621 0 0 .58621 698.75 401.76)" cx="1420.2" cy="423.35" r="6.456"/><circle transform="matrix(.58621 0 0 .58621 704.1 403.54)" cx="1420.2" cy="423.35" r="6.456"/></g><g stroke-width=".861" transform="matrix(.94224 0 0 .9769 36.887 -37.523)"><circle transform="matrix(.58621 0 0 .58621 635.08 403.76)" cx="1420.2" cy="423.35" r="6.456"/><circle transform="matrix(.58621 0 0 .58621 640.42 402.42)" cx="1420.2" cy="423.35" r="6.456"/><circle transform="matrix(.58621 0 0 .58621 645.77 401.31)" cx="1420.2" cy="423.35" r="6.456"/><circle transform="matrix(.58621 0 0 .58621 650.22 401.31)" cx="1420.2" cy="423.35" r="6.456"/><circle transform="matrix(.58621 0 0 .58621 655.12 401.31)" cx="1420.2" cy="423.35" r="6.456"/><circle transform="matrix(.58621 0 0 .58621 660.69 399.98)" cx="1420.2" cy="423.35" r="6.456"/><circle transform="matrix(.58621 0 0 .58621 665.58 399.98)" cx="1420.2" cy="423.35" r="6.456"/><circle transform="matrix(.58621 0 0 .58621 670.04 399.98)" cx="1420.2" cy="423.35" r="6.456"/><circle transform="matrix(.58621 0 0 .58621 674.93 399.98)" cx="1420.2" cy="423.35" r="6.456"/><circle transform="matrix(.58621 0 0 .58621 680.5 401.31)" cx="1420.2" cy="423.35" r="6.456"/><circle transform="matrix(.58621 0 0 .58621 685.39 401.31)" cx="1420.2" cy="423.35" r="6.456"/><circle transform="matrix(.58621 0 0 .58621 689.85 401.31)" cx="1420.2" cy="423.35" r="6.456"/><circle transform="matrix(.58621 0 0 .58621 694.75 401.31)" cx="1420.2" cy="423.35" r="6.456"/><circle transform="matrix(.58621 0 0 .58621 698.75 401.76)" cx="1420.2" cy="423.35" r="6.456"/><circle transform="matrix(.58621 0 0 .58621 704.1 403.54)" cx="1420.2" cy="423.35" r="6.456"/></g><g stroke-width=".846" transform="matrix(.9769 0 0 .9769 -15.164 -42.866)"><circle transform="matrix(.58621 0 0 .58621 635.08 403.76)" cx="1420.2" cy="423.35" r="6.456"/><circle transform="matrix(.58621 0 0 .58621 640.42 402.42)" cx="1420.2" cy="423.35" r="6.456"/><circle transform="matrix(.58621 0 0 .58621 645.77 401.31)" cx="1420.2" cy="423.35" r="6.456"/><circle transform="matrix(.58621 0 0 .58621 650.22 401.31)" cx="1420.2" cy="423.35" r="6.456"/><circle transform="matrix(.58621 0 0 .58621 655.12 401.31)" cx="1420.2" cy="423.35" r="6.456"/><circle transform="matrix(.58621 0 0 .58621 660.69 399.98)" cx="1420.2" cy="423.35" r="6.456"/><circle transform="matrix(.58621 0 0 .58621 665.58 399.98)" cx="1420.2" cy="423.35" r="6.456"/><circle transform="matrix(.58621 0 0 .58621 670.04 399.98)" cx="1420.2" cy="423.35" r="6.456"/><circle transform="matrix(.58621 0 0 .58621 674.93 399.98)" cx="1420.2" cy="423.35" r="6.456"/><circle transform="matrix(.58621 0 0 .58621 680.5 401.31)" cx="1420.2" cy="423.35" r="6.456"/><circle transform="matrix(.58621 0 0 .58621 685.39 401.31)" cx="1420.2" cy="423.35" r="6.456"/><circle transform="matrix(.58621 0 0 .58621 689.85 401.31)" cx="1420.2" cy="423.35" r="6.456"/><circle transform="matrix(.58621 0 0 .58621 694.75 401.31)" cx="1420.2" cy="423.35" r="6.456"/><circle transform="matrix(.58621 0 0 .58621 698.75 401.76)" cx="1420.2" cy="423.35" r="6.456"/><circle transform="matrix(.58621 0 0 .58621 704.1 403.54)" cx="1420.2" cy="423.35" r="6.456"/></g><g class="N"><circle transform="matrix(.58621 0 0 .58621 585.21 339.641)" cx="1420.2" cy="423.35" r="6.456"/><circle transform="matrix(.58621 0 0 .58621 590.55 338.301)" cx="1420.2" cy="423.35" r="6.456"/><circle transform="matrix(.58621 0 0 .58621 595.9 337.191)" cx="1420.2" cy="423.35" r="6.456"/><circle transform="matrix(.58621 0 0 .58621 600.35 337.191)" cx="1420.2" cy="423.35" r="6.456"/><circle transform="matrix(.58621 0 0 .58621 605.25 337.191)" cx="1420.2" cy="423.35" r="6.456"/><circle transform="matrix(.58621 0 0 .58621 610.82 335.861)" cx="1420.2" cy="423.35" r="6.456"/><circle transform="matrix(.58621 0 0 .58621 615.71 335.861)" cx="1420.2" cy="423.35" r="6.456"/><circle transform="matrix(.58621 0 0 .58621 620.17 335.861)" cx="1420.2" cy="423.35" r="6.456"/><circle transform="matrix(.58621 0 0 .58621 625.06 335.861)" cx="1420.2" cy="423.35" r="6.456"/><circle transform="matrix(.58621 0 0 .58621 630.63 337.191)" cx="1420.2" cy="423.35" r="6.456"/><circle transform="matrix(.58621 0 0 .58621 635.52 337.191)" cx="1420.2" cy="423.35" r="6.456"/><circle transform="matrix(.58621 0 0 .58621 639.98 337.191)" cx="1420.2" cy="423.35" r="6.456"/><circle transform="matrix(.58621 0 0 .58621 644.88 337.191)" cx="1420.2" cy="423.35" r="6.456"/><circle transform="matrix(.58621 0 0 .58621 648.88 337.641)" cx="1420.2" cy="423.35" r="6.456"/><circle transform="matrix(.58621 0 0 .58621 654.23 339.421)" cx="1420.2" cy="423.35" r="6.456"/><circle transform="matrix(.58621 0 0 .58621 585.21 333.407)" cx="1420.2" cy="423.35" r="6.456"/><circle transform="matrix(.58621 0 0 .58621 590.55 332.067)" cx="1420.2" cy="423.35" r="6.456"/><circle transform="matrix(.58621 0 0 .58621 595.9 330.957)" cx="1420.2" cy="423.35" r="6.456"/><circle transform="matrix(.58621 0 0 .58621 600.35 330.957)" cx="1420.2" cy="423.35" r="6.456"/><circle transform="matrix(.58621 0 0 .58621 605.25 330.957)" cx="1420.2" cy="423.35" r="6.456"/><circle transform="matrix(.58621 0 0 .58621 610.82 329.627)" cx="1420.2" cy="423.35" r="6.456"/><circle transform="matrix(.58621 0 0 .58621 615.71 329.627)" cx="1420.2" cy="423.35" r="6.456"/><circle transform="matrix(.58621 0 0 .58621 620.17 329.627)" cx="1420.2" cy="423.35" r="6.456"/><circle transform="matrix(.58621 0 0 .58621 625.06 329.627)" cx="1420.2" cy="423.35" r="6.456"/><circle transform="matrix(.58621 0 0 .58621 630.63 330.957)" cx="1420.2" cy="423.35" r="6.456"/><circle transform="matrix(.58621 0 0 .58621 635.52 330.957)" cx="1420.2" cy="423.35" r="6.456"/><circle transform="matrix(.58621 0 0 .58621 639.98 330.957)" cx="1420.2" cy="423.35" r="6.456"/><circle transform="matrix(.58621 0 0 .58621 644.88 330.957)" cx="1420.2" cy="423.35" r="6.456"/><circle transform="matrix(.58621 0 0 .58621 648.88 331.407)" cx="1420.2" cy="423.35" r="6.456"/><circle transform="matrix(.58621 0 0 .58621 654.23 333.187)" cx="1420.2" cy="423.35" r="6.456"/></g></g><path transform="matrix(-1.278 0 0 1.0865 2349.8 -115.2)" d="M-10.535 758.01c-.123-4.601-6.345-4.828-7.374-.575-2.372 3.087-6.371 3.237-9.517 4.802-3.91.59-5.918-4.299-9.92-3.682-3.476-.287-5.61-4.744-9.439-3.622-2.888.097-3.25 4.486-6.239 4.247-3.224.495-5.735 3.259-8.359 4.866-2.123 2.123-3.423 5.012-6.153 6.422-1.39 3.351-3.445 6.46-4.414 9.944-.067 2.533-.463 9.128 3.462 7.533 2.085-2.34 2.6-6.558 6.573-6.454 3.026-.662 6.139-.461 9.217-.487 3.205-.192 5.365 2.913 8.544 2.803 3.692.795 7.325-.461 11.01-.261 2.921 1.26 6.15 1.357 9.253.734 5.579-1.18 10.961-3.172 16.355-5.041 4.343-.427 3.27-7.47 7.247-7.929 1.783-1.103 2.619-3.802 3.867-5.134-.603-3.406-5.005-4.395-6.311-7.058-2.479.798-4.825.146-6.786-1.226l-.512.032-.503.086h0z" fill="#e3e4e5" filter="url(#B)" class="B C"/><g transform="matrix(-1.1325 0 0 .97716 3841.4 175.59)" class="B L"><path d="M1279.8 592.9c.854 5.435 2.446 10.822 4.392 15.93 2.007 5.725 2.271 11.875 4.413 17.574 2.825 10.919 4.93 22.051 6.318 33.222.994 4.68 2.862 9.784.648 14.413-1.851 7.879 2.696 16.419-1.455 23.873-3.008 5.4-.383 11.471-.823 17.307 2.296 8.666 9.012-2.477 13.974-1.207 6.799.828 13.893-.353 20.638 1.416 6.385-.891 4.721-7.65 2.458-11.445l-.989-18.165c-2.466-11.932-3.665-20.53-4.282-33.077-1.168-5.162-2.061-14.442-2.595-20.519-.064-4.073.41-4.282-2.389-15.149-1.025-6.952-5.888-8.478-4.785-15.771-.666-4.684 1.629-16.255-6.042-15.972-10.924.857-14.311 3.097-25.147 4.434-1.284 1.01-7.018.121-4.332 3.137z" stroke-width=".336" class="C"/><path d="M1300.8 616.01c-1.114.342.58 3.376.962 5.018 4.002 17.2 7.308 25.269 7.308 42.212l.192 23.32" stroke-width="1.12" class="E"/></g></g><g transform="matrix(-.45671 .11346 -.16086 -.37852 2395.6 782.3)"><g class="F"><g transform="matrix(1 0 0 1.2235 2.3546 -14.949)"><g fill="#c00" class="M"><use xlink:href="#C"/><use xlink:href="#C"/></g><g stroke-width=".852"><path d="M57.316 51.939l-9.423-7.756c-.333-.304-1.626-.14-1.986.081-.888.628-1.234 1.149-1.661 2.028-.427 2.197.975 2.98 1.077 3.156l11.156 9.187c1.02.274 1.767-.131 1.799-1.535v-2.376c0-.649.217-1.565-.962-2.785z" class="I"/><path d="M50.924 42.453a7.86 7.86 0 0 0-2.214.319c-.762.278-1.144 1.107-.388 1.761l7.098 5.844c1.472 1.217 2.85 1.014 2.859-1.077v-.114c-.001-3.718-3.294-6.732-7.355-6.732z" fill="#c00"/></g><g fill="#c00" class="M"><use xlink:href="#D"/><use xlink:href="#D"/></g><g class="I M"><use xlink:href="#E"/><use xlink:href="#E"/></g></g><g class="I"><g stroke-width=".785"><path d="M53.288 37.745c-2.196 0-3.983-1.835-3.983-4.091s1.787-4.091 3.983-4.091 3.983 1.835 3.983 4.091-1.786 4.091-3.983 4.091z"/><path d="M53.288 30.125c1.894 0 3.434 1.583 3.434 3.529s-1.541 3.528-3.434 3.528-3.435-1.583-3.435-3.528 1.541-3.529 3.435-3.529"/></g><path d="M53.288 29c-2.499 0-4.533 2.087-4.533 4.654s2.033 4.653 4.533 4.653 4.532-2.087 4.532-4.653S55.786 29 53.288 29z" stroke-width=".901"/></g><g stroke-width="1.027" class="E L"><path d="M53.332 288.999c-1.069-2.168-7.6-7.982-7.601-15l.057-189.708c0-.498.293-.902.653-.902h7.028"/><path d="M53.318 288.986c1.069-2.168 7.6-7.544 7.601-14.986l-.057-189.72c0-.498-.293-.902-.653-.902h-7.028" fill="#3465a4"/></g></g><g transform="matrix(.79515 0 0 .79515 -29.647 3.6321)"><path d="M124.958 114.063c-2.356 0-4.274-1.851-4.274-4.125v-6.531l-.18.004-2.028.05c-5.23.157-13.335 6.625-13.728 6.942-.2.178-.46.276-.734.276a1.2 1.2 0 0 1-.742-.262c-.087-.071-8.408-6.795-13.743-6.956l-2.209-.055v6.532c0 2.275-1.917 4.125-4.273 4.125s-4.276-1.851-4.276-4.125v-6.336h-4.252c-2.093 0-3.796-1.704-3.796-3.798a3.8 3.8 0 0 1 3.796-3.798h4.252v-6.735c0-2.361 1.918-4.279 4.276-4.279a4.28 4.28 0 0 1 4.273 4.279v6.855l.828.001c5.284 0 14.962-9.069 15.059-9.161l.048-.044a1.07 1.07 0 0 1 .73-.283c.294 0 .589.119.812.326 3.367 3.169 10.848 9.162 15.061 9.162h.827v-6.855c0-2.361 1.918-4.279 4.274-4.279s4.276 1.919 4.276 4.279v6.735h4.251a3.8 3.8 0 0 1 3.796 3.798c0 2.094-1.702 3.798-3.796 3.798h-4.251v6.336c0 2.276-1.919 4.125-4.276 4.125z" fill="#fcef3c"/><path d="M124.958 85.609c2.018 0 3.659 1.644 3.659 3.663v7.351h4.867c1.753 0 3.179 1.428 3.179 3.182s-1.427 3.181-3.179 3.181h-4.867v6.952c0 1.935-1.642 3.509-3.66 3.509s-3.658-1.574-3.658-3.509v-7.163l-2.842.069c-5.531.165-13.764 6.807-14.113 7.091a.48.48 0 0 1-.331.128.57.57 0 0 1-.356-.128c-.348-.283-8.582-6.924-14.11-7.091l-2.843-.069v7.163c0 1.935-1.64 3.509-3.657 3.509s-3.659-1.574-3.659-3.509v-6.952h-4.867c-1.753 0-3.18-1.427-3.18-3.181s1.428-3.182 3.18-3.182h4.867v-7.351c0-2.02 1.642-3.663 3.659-3.663s3.657 1.644 3.657 3.663v7.468l1.444.004c5.5 0 15.078-8.947 15.482-9.328l.043-.039c.089-.083.199-.12.311-.12.139 0 .281.058.39.16.405.381 9.983 9.328 15.482 9.328l1.444-.004v-7.468c0-2.021 1.642-3.664 3.658-3.664" fill="#313131"/><g class="F"><path d="M124.958 84.375a4.9 4.9 0 0 0-4.892 4.896v6.238h-.211c-4.011 0-11.329-5.883-14.637-8.993a1.8 1.8 0 0 0-1.235-.494 1.68 1.68 0 0 0-1.153.453l-.038.034c-3.316 3.117-10.634 9-14.645 9h-.209v-6.238a4.9 4.9 0 0 0-4.891-4.896c-2.698 0-4.893 2.197-4.893 4.896v6.117h-3.635a4.42 4.42 0 0 0-4.413 4.415 4.42 4.42 0 0 0 4.413 4.414h3.635v5.719c0 2.615 2.195 4.743 4.893 4.743s4.891-2.128 4.891-4.743v-5.9l1.569.039c5.139.154 13.29 6.747 13.371 6.814.326.262.728.404 1.136.404a1.71 1.71 0 0 0 1.132-.422c2.843-2.308 9.257-6.673 13.348-6.796l1.572-.039v5.9c0 2.615 2.194 4.743 4.891 4.743s4.893-2.127 4.893-4.743v-5.719h3.634a4.42 4.42 0 0 0 4.413-4.414 4.42 4.42 0 0 0-4.413-4.416h-3.634V89.27a4.9 4.9 0 0 0-4.892-4.895z" stroke-width="1" class="I"/><g fill="#c00" stroke-width="1"><path d="M104.057 105.109c-3.141 0-5.697-2.562-5.697-5.711s2.556-5.709 5.697-5.709a5.71 5.71 0 0 1 5.696 5.709c0 3.149-2.555 5.711-5.696 5.711z"/><path d="M104.057 94.303c2.8 0 5.079 2.285 5.079 5.093s-2.279 5.093-5.079 5.093-5.081-2.284-5.081-5.093 2.28-5.093 5.081-5.093"/><path d="M104.057 93.07a6.33 6.33 0 0 0-6.314 6.327 6.33 6.33 0 0 0 6.314 6.327c3.481 0 6.312-2.839 6.312-6.327s-2.831-6.327-6.312-6.327z"/></g></g></g></g><g class="F"><path d="M2376.7 769.67c.276.618 0 3.694 0 5.236 0 1.869-.602 3.334.309 4.961.796 1.422 2.374 2.864 3.084 4.134.844 1.509.925 2.472.925 4.41 0 2.046.324 2.219 1.851 3.583 2.099 1.876 5.023 1.476 7.094.551 2.628-1.174 4.048-1.24 4.935-4.41 1.013-3.621-.287-7.053-.925-10.473-.594-3.183-.792-7.007-2.776-9.37-2.32-2.765-6.831-1.929-10.178-1.929-4.302 0-3.863 2.799-5.552 4.685" fill="#500" class="C D"/><g transform="matrix(-1.0935 0 0 .97716 3793.1 182.09)" class="B H"><path d="M1335.8 561.53l-2.602-3.545c-1.422-1.55-3.664-2.057-5.69-1.801-1.014-.114-2.291-.105-2.911.857-.764.759-.917 1.986-.463 2.947.072 1.039-1.626 1.573-.876 2.722.34 1.012-.491 1.838-.566 2.794-.097.813.411 1.594.071 2.388-.278.996-.824 2.085-.377 3.108.708.903 1.988.586 2.98.631.935-.046 1.895.104 2.609.751.63.44 1.263.904 1.999 1.149.593 1.114 2.01 1.036 2.948.59 1.049.053 2.118-.621 2.412-1.651.66-.912.913-2.049.838-3.159.036-1.056.299-2.084.536-3.105.156-1.565-.663-2.99-.921-4.486l.013-.193z" class="C K"/><path d="M1324.63 560.14c-.215-.43 2.554-.613 3.101-.535.071.01.143 0 .214 0m-4.615 3.855c1.061.152 2.644-.428 3.85-.428.253 0 .329.131.535.214m-4.785 4.174c1.291 0 3.033-.014 4.171.214.26.052.442.221.642.321" class="E G"/></g><path d="M2414.1 708.63c-3.901.745-7.551 2.78-11.311 4.004-3.171 2.913-6.981 4.869-11.105 6.478-1.56.633-3.289.956-5.003.808m-23.081-11.29c.562 3.951 7.139 2.103 9.864 4.452 1.374.941 2.069 2.42 3.308 3.475m-23.472-6.967c2.143 4.117 5.69 7.905 10.662 9.333 1.327.636 2.876 1.186 4.392.755m56.246-6.248c-.123 2.319-5.604.253-7.704.938-2.738-.075-6.321-.321-7.887 2.184M2434 720.88c-3.871 2.208-9.39-.975-12.608 2.747-.941.731-1.827 1.516-2.714 2.298m20.422 7.205c-2.396-1.76-4.515-4.178-7.795-4.564m-17.505-8.646c-4.161.704-6.926 3.993-9.438 6.766-.529.707-.972 1.501-1.046 2.362" class="B D E G"/><g transform="matrix(-1.0935 0 0 .97716 3789.9 176.35)" class="B H"><path d="M1283.2 595.98c4.044 1.159 7.38.258 10.831-.899 2.311-.865 11.147-1.711 10.243 1.797-1.921-.104-7.917.55-2.677 1.226 4.54 1.971 8.225-1.282 12.337-.91.691 3.862-1.476 7.408-4.308 10.016-4.059 3.204-10.159 3.471-15.364 2.904-5.075.564-9.442-1.4-13.766-3.687 1.119-3.049.657-8.532 2.704-10.447z" class="C K"/><path d="M1304.83 601.51c.939.383 3.397-.285 4.793-.983.762-.381 1.709-.882 2.335-1.352.552-.414 1.074-.459 1.598-.983m-7.826 5.778c1.266-.95 3.255-.152 4.67-.86l2.704-1.352c.032-.016.638-.426.737-.492m-9.111 5.404c1.918-.959 4.688-.255 6.391-1.106" class="E G"/></g><path d="M2431.2 770.5c3.937 4.331 5.068 11.126 7.15 16.325.254 5.209 1.496 6.79 4.892 11.314-4.477 4.039-1.32 9.855-1.264 15.139 4.574 10.828 1.146 10.507 1.94 16.27.796 5.62-.864 11.902 3.319 16.806 2.645 5.514.056 11.895.908 17.758.373 8.139 4.076 16.203 1.614 24.345.047 5.897-5.25 9.679-11.212 10.88-6.655 3.818-7.311-5.025-4.97-8.641.821-4.593-.418-9.255.052-13.883 1.193-4.773-1.349-8.904-4.915-11.86 1.397-5.381 5.981-10.13 4.744-16.114-.356-10.703-6.125-18.221-6.469-28.927-3.144-5.596-.668-14.428-5.698-18.754-3.716-4.856-1.117-11.456-5.002-16.418-3.098-6.281 5.796-7.074 8.972-10.773 1.682-1.485 3.526-3.056 5.939-3.465z" fill="green" class="B C D"/><path d="M2440.2 799.71c-4.6-1.607-9.664-1.201-12.585-5.594-.651-.507-1.291-1.026-1.901-1.572m8.586-12.954c-1.937.85-1.836 3.191-2.776 4.685m-4.924 14.605c4.049 5.179 6.069 11.388 9.388 16.915l.79.724m-5.178 51.271c3.435 5.239 11.989 6.965 12.895 13.698.718 4.114 3.418 7.869 3.76 11.933" class="B D E G"/><path d="M2437.7 740.46c.288 1.031.358 2.569.925 3.583l.309.551c.731 1.634 1.234 3.744 1.234 5.512 0 2.23.925 4.127.925 6.339 0 1.352.364 3.208-.309 4.41-.827 1.478-1.575 2.785-2.776 3.858-.877.784-2.615 3.134-3.393 3.307-1.799.402-2.276 1.706-4.01 2.48-1.366.61-2.405.854-4.01 1.929-1.688 1.131-3.672 1.904-4.935 3.032-1.719 1.536-3.878 2.806-5.86 4.134-1.852 1.241-3.048 1.971-5.243 2.756-1.921.687-5.313-.245-6.477.276-.412.184-4.454 3.307-4.935 3.307-1.647 0-2.159-3.11-2.159-1.102 0 1.765.606 5.256-.308 6.89-.897 1.602-2.778 5.788-4.626 5.788-1.312 0-3.669.305-4.626-.551-1.461-1.306-3.233-.821-4.626-2.48-1.315-1.567-3.224-3.657-3.701-5.788-.446-1.994-1.702-4.144-2.776-6.063-.705-1.26-1.542-2.889-1.542-4.685 0-.89-1.452-5.236 0-5.236 3.261 0 2.95.072 3.701 2.756.434 1.553 1.234 2.904 1.234 4.685 0 2.827.518 4.722 2.159 7.166.54.805 2.383 4.685 3.393 4.685 1.434 0 3.365.098 3.701-1.102.495-1.769 1.234-3.01 1.234-4.961v-5.512-5.788c0-2.884-1.453-3.541-2.159-6.063-.488-1.745-2.467-5.233-2.467-7.441 0-1.894-3.598-5.053-1.542-5.512-.874-1.561 4.335 1.09 5.86 0 1.55-1.108 5.552-.625 5.552-1.654 0-2.132 3.053-1.378 5.243-1.378 2.392 0 .836-.787 2.776-1.654 2.91-1.3 7.509-.789 10.486.276" fill="green" class="C D"/><g class="G B E"><path d="M2404.4 753.41c4.921.446 12.169 1.052 15.421 4.685m-24.921-2.205c4.737 2.015 8.019 5.65 11.412 8.819m-17.912-7.169c3.806 3.699 8.155 7.928 9.561 12.953m2.739 5.517c1.858 0 1.542 5.226 1.542 6.89m10.458-42.44c3.42 2.788 10.053 7.22 15.421 8.819" class="D"/><path d="M1277.1 691.31c-.02 6.879 5.847 12.019 6.149 18.863.297 3.763 1.137 7.437 2.058 11.068 1.415 12.146-.283 24.408.913 36.575l.263 5.003m20.317-32.679c.047 8.763 1.423 17.453 1.618 26.21M1268 640.83c-.063 15.796.793 31.624 3.236 47.242" transform="matrix(-1.0935 0 0 .97716 3788.8 176.35)" class="H"/></g><path d="M2391.6 687.84c.489-.22 2.244-.143 3.027 0 1.738.318 1.839.548 1.412 1.328-.113.206-2.698.394-3.027.443-2.326.34-2.845-.723-1.413-1.77zm-8.7 0c-.489-.22-2.244-.143-3.027 0-1.738.318-1.839.548-1.412 1.328.113.206 2.698.394 3.027.443 2.326.34 2.845-.723 1.413-1.77z" class="C D"/><path d="M2397.9 686.37c-.776.024-2.149-.493-3.221-1.033-.656-.331-2.305 0-3.074 0h-1.464m-13.341 1.033c.809.024 2.24-.493 3.358-1.033.684-.331 2.403 0 3.205 0h1.526m.811 5.753h0c0-1.765-.587 3.524-1.321 5.163-.453 1.012 1.681.738 2.476.738.32 0 .517.092.825.148m1.12 3.981h-3.797c-.555 0-.923-.234-1.321-.59" class="B D E G"/><g fill="#b3b3b3" class="C D"><path d="M2401.4 683.84c.693.045 1.724.28 1.856.763l.828 2.779c0 .907.298 1.875.298 2.809v2.504c0 .998-.476 2.722-.298 3.542.349 1.606-.513 1.975-1.292 3.267-.851 1.411-1.103 2.71-2.253 4.122-.652.802-1.155 1.28-2.22 1.771-1.105.509-1.784 1.54-2.883 2.046-.872.402-2.16 1.362-3.049 1.771-1.015.468-1.234.611-2.552.611h-3.844c-1.228 0-2.569-.458-3.678-.458-1.126 0-1.697-.22-2.419-.886-1.099-1.013-1.999-2.218-2.717-3.542l-1.59-2.932c-.408-.94-1.223-2.406-1.756-3.389-.655-1.207-.729-2.045-.961-3.542-.197-1.268-.166-2.558-.166-3.848 0-.999.166-2.013.166-3.084 0-.726-.269-3.528.298-2.657l1.756 2.779c.584 1.077.567 2.491.829 3.695.111.512.098 2.777.464 3.115l.464.428c.849.782 1.463 1.043 2.253 1.771.177.163 1.568 1.814 1.922 1.618.896-.495 1.938-.733 3.38-.733l3.976.153c1.433 0 2.273.751 3.678.428.845-.195 1.501-.521 2.419-.733.722-.166 1.735-.275 2.717-.275 1.645 0 1.049-.346 1.756-1.649.566-1.044 1.126-2.317 1.127-3.512a9.33 9.33 0 0 1 .331-2.657c.271-1 .63-1.404.63-2.657v-3.42c.105-.019.299-.015.53 0zm-16.502 15.665c-.717-.042-1.414-.044-1.955.122l-.961.305c0 .603.126 1.155.63 1.618.508.468 1.09 1.552 1.458 2.229.466.859 1.526.58 2.552.58.722 0 2.188.149 2.386-.58.28-1.033.664-1.585.331-2.809-.302-1.112-1.044-1.344-2.386-1.344-.591 0-1.337-.081-2.055-.122z"/><path d="M2407.7 695.07c-1.002-.506-2.741-1.387-3.137-2.803-.345-1.235-.352-1.348-1.321-2.213-.698-.624-.495-1.937-.495-2.803 0-.933-2.311-1.323-2.311-2.803 0-.807-.729-1.432-1.486-1.77-1.493-.667-.558-1.014-3.137-1.475-.778-.139-3.26-1.825-3.632-2.655-.652-1.456-2.562.059-2.972-1.77-.291-1.302-.495-1.954-.495-3.393 0-.423.495-1.66.495-2.508 0-.621 1.547-1.986 2.146-2.655.562-.628 3.194-.148 4.127-.148 1.538 0 1.562 1.475 3.137 1.475M2370.7 688.28c.409 0 1.356.197 1.651 0 .419-.281 1.788-1.13 2.146-1.77.784-1.402.453-2.563 1.981-3.245 1.97-.88 1.949-.475 2.476-2.36.367-1.312.815-.807 1.981-1.328.564-.252 2.972-1.623 2.972-1.623 1.436-.214 3.107.282 3.962-.738.763-.909.317-1.281.66-2.508.44-1.573-.223-3.234 0-4.868-.094.063-3.083-.123-3.632 0-1.921.429-1.674-1.865-3.797-.443-.82.55-1.132.806-2.146 1.033-.135.03-.374.223-.495.295" class="B E"/></g></g><g fill="#fff"><ellipse transform="matrix(-1.278 0 0 1.0865 2803.1 146.45)" cx="320.53" cy="499.08" rx="1.532" ry=".674"/><ellipse transform="matrix(-1.278 0 0 1.0865 2790.7 146.45)" cx="320.53" cy="499.08" rx="1.532" ry=".674"/></g><circle transform="matrix(-1.278 0 0 1.0865 2802.1 146.58)" cx="319.76" cy="498.93" r=".582" fill="#483737"/><g fill="#fff"><circle transform="matrix(-1.278 0 0 1.0865 2789.5 146.58)" cx="319.76" cy="498.93" r=".582"/><g transform="matrix(-1.278 0 0 1.0865 2801.8 146.71)"><circle cx="319.73" cy="498.77" r=".123"/><circle cx="319.73" cy="498.77" r=".123"/></g></g><circle transform="matrix(-1.278 0 0 1.0865 2789.5 146.6)" cx="319.76" cy="498.93" r=".582" fill="#483737"/><circle transform="matrix(-1.278 0 0 1.1826 2789.2 98.8)" cx="319.73" cy="498.77" r=".123" fill="#fff"/><g transform="matrix(-.28591 0 0 .25976 3078.5 591.29)" class="F J"><path d="M2409.4 257.48c-3.687 4.58-11.09 4.917-9.788 11.424-1.231 2.913 8.132 4.692.996 3.17-6.725-2.46-1.173 4.224-1.548 4.136-7.759-4.203-10.038 9.038-1.216 7.568 2.115-1.489-4.508 7.949 1.722 5.513 2.521-3.84 4.075-3.222 2.17 1.122-2.287 5.216 1.921 4.056 4.93 3.601.042 6.385-10.957 9.952-14.243 3.473-1.832-3.538-3.871-6.196-3.83-.349-1.959 6.611-17.054 5.299-14.802-.308 6.609 1.367 4.365-3.515 1.492-6.521-1.283-3.894 5.742 5.427 5.921-.88-.112-4.043-6.263-4.474-.178-3.971 6.805-3.434-.865-12.168-5.663-6.763 2.037-2.72 3.378-6.948-1.64-3.768-6.111 3.459 4.861-3.526-.503-6.668-.547-3.931-6.671-1.307-8.555-5.238-4.853-.926-6.523 6.573-10.032 7.579.903 4.448.119 7.336 5.578 8.063-3.624-1.744-9.09.551-3.886 3.962 2.244-.298-6.451-1.115-5.676 3.277-1.339 4.768 4.806 6.235 7.163 3.685-1.548 2.678-1.224 10.117 2.339 4.882 5.152-8.189-2.575 9.168 5.491 4.65 5.648-2.193-2.458 7.627-6.221 6.037-4.489 2.124-8.424-9.594-8.62-1.384-.119 5.589-9.213 4.735-7.467-1.06-2.536-2.273-6.188-4.927-.301-3.277 7.47-.074-6.106-6.391.58-5.966 7.665-5.935-6.967-10.415-5.899-5.238 2.328-4.949-2.367-5.521-4.202-2.145 2.238-3.134 2.348-6.491-.454-6.396-2.112-5.761-8.358 1.09-12.59.336-7.1 5.735 6.494 4.892 7.01 10.99 3.203 6.284 4.783 14.328 11.833 17.592 3.957.954 5.442 3.839 4.445 6.483 5.906 4.505 7.01 11.736 6.985 18.273 6.707 1.022 13.273-4.195 20.307-4.238 24.497-4.389 49.706-3.772 74.3-.527 7.685 1.221 15.298 3.035 22.585 5.788.748-7.275.111-16.067 7.718-19.653-2.816-6.334 9.048-6.199 10.673-12.603 3.418-6.89 4.906-14.948 12.957-18.166 4.297-5.503-9.362-3.228-11.38-7.984.446 3.902-5.488 5.164-4.303 5.783 2.653 3.898 1.041 4.953-1.7 1.71-2.945.744 1.819 8.942-2.247 3.312-6.23-5.028-7.753 7.769-2.055 7.723-7.631 2.356-.882 6.606 1.665 4.952-3.644 2.175-5.015 6.431-3.596 7.667-5.132 4.319-8.26-6.804-8.811-6.243-3.76 6.191-15.093 5.144-15.755-2.664 2.221-1.487 6.546 5.122 5.989-1.515-.292-2.588-.495-7.241 1.128-2.038 5.899 5.986 3.367-6.423 3.69-4.446 7.829 3.989 8.459-11.097-.251-7.659 5.035-1.006 3.854-5.416-.937-4.049-5.832-.136 6.833-.445 2.767-4.979 3.611-4.501-5.099-4.949-4.777-9.497-4.403-2.585-8.888 2.031-12.601 2.7-1.362 4.41-2.774 6.609 1.678 9.562-2.573-3.078-8.491-3.279-5.189 1.989 2.142.653-5.4-3.672-6.529.618-3.21 3.791 1.776 7.608 4.968 6.364-2.484 1.799-5.325 8.647.087 5.347 8.073-5.236-5.99 6.988 2.847 6.506 6.31.42-4.97 7.437-8.376 4.597-5.364-.478-5.595-14.458-8.305-4.448-3.616 6.969-18.518.82-14.175-3.94 7.209 4.629 3.361-5.142 3.372-6.755 1.849 4.56 9.102 3.255 4.655-1.531-3.257-4.549 5.141 1.91 5.352-3.579 2.727-5.881-7.901-6.984-6.941-5.402 5.543-4.665-1.308-4.801-4.356-3.355 3.098-1.546 5.802-2.478 3.396-6.02 2.436-5.315-6.6-3.489-7.464-8.25l-.843-.516-.883-.443zm.062 41.094c4.274 9.531 15.723 1.763 22.888 5.061 7.751 2.937-5.071.394-7.367.754-14.316-.742-28.685-.452-42.959.872 5.59-3.204 11.354-4.089 16.949-1.154 4.096-.06 8.219-2.068 10.489-5.533zm-38.562 2.719c1.304 3.48 12.729 4.281 4.122 4.642-2.574.213-13.673 2.938-6.484-1.191a10.67 10.67 0 0 0 2.362-3.45zm77.125 0c.579 3.169 9.458 7.659 1.401 5.402-2.749-.696-14.382-.825-6.055-2.175 1.771-.7 3.384-1.806 4.654-3.227zm-94.75 5.25c3.523 1.442 8.208 2.211 1.588 2.76-4.264 1.774-4.053.026-1.588-2.76zm112.38 0c7.353 6.526-11.693 1.334-2.623 1.119l1.414-.454z" fill="#eac102"/><g fill="#e3e4e5"><use xlink:href="#F"/><use xlink:href="#F" x="38.4" y="-7.26"/><use xlink:href="#F" x="116.4"/><path d="M2425.9 291.68c0-2.083 1.703-3.777 3.797-3.777 2.104 0 3.807 1.694 3.807 3.777 0 2.094-1.703 3.788-3.807 3.788-2.094 0-3.797-1.694-3.797-3.788m-16.5-18.78c-2.526 0-4.581 3.177-4.581 7.113s2.055 7.123 4.581 7.123c2.534 0 4.581-3.183 4.581-7.123s-2.055-7.113-4.581-7.113zm43.1 4.41c-2.213.053-4.448 2.58-5.212 6.065-.844 3.849.426 7.385 2.843 7.909 2.425.526 5.074-2.153 5.918-6.002s-.447-7.385-2.864-7.909a2.93 2.93 0 0 0-.684-.063zm-86.2 0a2.92 2.92 0 0 0-.684.063c-2.417.524-3.707 4.063-2.864 7.909s3.493 6.529 5.918 6.002c2.417-.524 3.687-4.06 2.843-7.909-.764-3.485-3-6.013-5.212-6.065zm-38.5 11.94a2.84 2.84 0 0 0-1.095.23c-.098.042-.172.125-.263.178l.169 1.278.147.838c-.554 1.006.012 2.854.937 4.976 1.005 2.304 2.087 4.155 3.338 4.222l.316.346 1.158 1.152c2.128-1.041 2.622-4.653 1.074-8.202-1.329-3.047-3.729-5.044-5.781-5.018zm163 0c-1.999.118-4.27 2.084-5.549 5.018-1.548 3.549-1.054 7.162 1.074 8.202l1.158-1.152.316-.346c1.251-.067 2.334-1.918 3.338-4.222.925-2.122 1.492-3.97.937-4.976l.148-.838.168-1.278c-.092-.053-.165-.136-.263-.178a2.88 2.88 0 0 0-1.327-.23z"/></g><path d="M2409.4 310.85c-5.396 0-9.751 2.033-9.751 4.525s4.355 4.515 9.751 4.515 9.772-2.023 9.772-4.515c0-2.5-4.371-4.525-9.772-4.525zm56.2 6.57c-2.719.059-4.731.914-5.17 2.409-.699 2.382 2.88 5.506 8.024 7.019.259-.315.538-.578.779-.911.073-.101.14-.202.211-.304.045.008.091.01.137.021.307-.228.632-.422.906-.691a5.7 5.7 0 0 0 .684-.807 3.68 3.68 0 0 0 .453-.89c.11-.315.175-.656.211-1.006a6.76 6.76 0 0 0 .032-1.068c-.024-.427-.134-.833-.211-1.247l-.116-.042a1.48 1.48 0 0 0 .021-.147c.045-.488.01-.899.01-1.351-.184-.059-.328-.144-.516-.199-1.942-.564-3.823-.821-5.454-.786zm-112.6 0c-1.631-.035-3.512.221-5.455.786-.188.055-.332.14-.516.199l.011 1.351c0 .049.016.097.021.147l-.116.042c-.077.414-.176.82-.2 1.247a6.66 6.66 0 0 0 .021 1.068c.036.35.111.691.221 1.006a3.68 3.68 0 0 0 .453.89c.195.282.431.557.684.807.274.269.588.463.895.691l.137-.031.221.314c.241.333.52.596.779.911 5.144-1.512 8.723-4.637 8.024-7.019-.439-1.495-2.462-2.351-5.181-2.409z" fill="#ed1c24"/><path d="M2376.9 311.4l-9.814 6.956 11.172 4.274 9.814-6.956zm65.1 0l-11.172 4.274 9.814 6.956 11.172-4.274z" fill="#008f4c" class="C"/></g><ellipse transform="matrix(-1.278 0 0 1.0865 2643.3 121.41)" cx="209.68" cy="557.48" rx=".858" ry="1.348"/><ellipse transform="matrix(-1.278 0 0 1.0865 2649.6 125.41)" cx="209.68" cy="557.48" rx=".858" ry="1.348"/><ellipse transform="matrix(-1.278 0 0 1.0865 2626.4 116.62)" cx="209.68" cy="557.48" rx=".858" ry="1.348"/><ellipse transform="matrix(-1.278 0 0 1.0865 2634.9 121.95)" cx="209.68" cy="557.48" rx=".858" ry="1.348"/><ellipse transform="matrix(-1.278 0 0 1.0865 2655.9 120.35)" cx="209.68" cy="557.48" rx=".858" ry="1.348"/><ellipse transform="matrix(-1.278 0 0 1.0865 2687.8 114.76)" cx="209.68" cy="557.48" rx=".858" ry="1.348"/><ellipse transform="matrix(-1.278 0 0 1.0865 2678.7 124.34)" cx="209.68" cy="557.48" rx=".858" ry="1.348"/><ellipse transform="matrix(-1.278 0 0 1.0865 2640.8 114.22)" cx="209.68" cy="557.48" rx=".858" ry="1.348"/><ellipse transform="matrix(-1.278 0 0 1.0865 2666.2 116.62)" cx="209.68" cy="557.48" rx=".858" ry="1.348"/><ellipse transform="matrix(-1.278 0 0 1.0865 2663.7 123.81)" cx="209.68" cy="557.48" rx=".858" ry="1.348"/><ellipse transform="matrix(-1.278 0 0 1.0865 2629.5 109.43)" cx="209.68" cy="557.48" rx=".858" ry="1.348"/><ellipse transform="matrix(-1.278 0 0 1.0865 2675.6 105.97)" cx="209.68" cy="557.48" rx=".858" ry="1.348"/></g></svg>