<svg xmlns="http://www.w3.org/2000/svg" xmlns:xlink="http://www.w3.org/1999/xlink" width="178.998" height="289.999" viewBox="0 0 47.36 76.729" xmlns:v="https://vecta.io/nano"><style><![CDATA[.B{fill:#fce94f}.C{stroke:#000}.D{fill:#a40000}.E{stroke-linejoin:round}.F{stroke-width:.769}]]></style><g transform="matrix(.24386 -.140182 .140792 .242803 -13.115074 7.369843)"><g class="C"><path transform="matrix(1.890588 .97238 -.844038 2.264923 93.873763 -438.19501)" d="m104.06 269.5a1.5595 4.9188 0 1 1-3.119 0 1.5595 4.9188 0 1 1 3.119 0z" stroke-width=".443" class="B"/><path d="M56.454 271.714c-.024 2.72-.374 5.236-.918 6.594s-1.198 1.351-1.714-.02-.816-3.893-.786-6.613c.024-2.72.374-5.236.918-6.594s1.198-1.351 1.714.02.816 3.893.786 6.613z" stroke-width="1.926" class="D E"/><path d="M36.451 83.923c1.721 10.681 3.224 38.82 5.354 60.863l1.233 12.299 2.706 24.681c.47 4.089-1.053 8.153-.573 12.169.882 7.377 3.773 14.594 4.647 21.508.988 7.813 3.048 15.685 3.71 22.63 2.363 24.791 1.596 42.175 1.596 42.175s2.052-14.966 9.875-19.25l3.224-32.722c.329-2.486 3.472-5.835 3.745-8.34s-2.573-4.293-1.999-9.823l4.903-51.822s.883-7.922 1.485-10.537 1.97-5.191 2.086-6.7c-.353-.979-1.622.651-1.644-2.534s2.478-8.511-.833-8.672l.52-8.558c.156-2.841 1.073-5.101 1.198-7.842.412-9.821-.623-18.907-.766-28.69-.05-3.152.587-4.534.698-6.575s-.626-11.038-1.315-13.69-1.865-3.498-1.865-3.498c-1.915-1.367-6.361-21.289-12.727-20.988h0c-1.425.141-2.93.856-4.9.911-6.305.175-14.64 7.362-19.219 21.17-1.478 4.459 2.129 13.079 2.307 24.488 0 0-2.74-5.692-3.447-2.652z" fill="#4e9a06" stroke-width=".88"/></g><path d="M58.502 158.46c1.26 15.853 2.212 31.78 2.488 47.753.074 1.855.137 9.788.147 4.197l.202-44.383c-.174-11.291 1.226-21.335 1.205-32.622.112-7.36.227-14.695-.16-22.059-.076-13.089 1.319-23.816 1.046-36.907-1.19-6.026-.087-20.999-5.287-21.332-5.621 3.432-2.479 8.731-2.93 13.298.119 8.247-.08 21.377-.065 25.698.898 2.962 2.554 44.377 3.353 66.357z" class="B"/><g transform="matrix(-.58608 -.1939 .31347 -.94747 88.416 206.42)" class="C"><g class="B"><use xlink:href="#B" transform="matrix(.77366 .43656 -.33439 1.0443 104.16 -214.21)"/><path d="M89.773 108.57s.379-2.297-.757-6.207"/></g><path d="M97.648 114.33s1.589-2.201 5.345-2.231" fill="none" class="F"/><use xlink:href="#C" transform="matrix(.68424 .61043 -.76487 .77911 115.23 -32.258)" class="D E"/></g><g stroke="#2e3436" fill="none"><path transform="matrix(-.2263 .013612 .14872 1.3282 49.281 3.7656)" d="M97.493 143.39c-1.436-2.633 1.568-3.191 2.974-1.622 1.486 1.658.835 4.252-.878 5.466-2.149 1.523-5.162.741-6.562-1.408-1.619-2.483-.715-5.86 1.756-7.403 2.752-1.718 6.44-.711 8.104 2.025 1.813 2.98.716 6.943-2.247 8.714-3.182 1.901-7.391.726-9.258-2.439-1.984-3.364-.738-7.797 2.609-9.752 2.909-1.7 6.695-1.149 9.05 1.244" stroke-width=".697"/><path d="M38.417 65.429c-.533-1.585 1.523-7.862 4.414-12.595 4.098-6.708 7.008-8.534 11.948-10.554M39.435 63.184c.011-1.863 2.021-6.778 4.158-10.288 3.588-5.892 6.923-7.874 10.265-9.128M40.674 61.961c-.071-1.526 1.796-5.715 3.639-8.758 3.033-5.005 5.268-6.356 8.548-7.824M42.076 59.861c.126-1.23 1.744-4.574 2.986-6.642 2.414-4.019 4.881-5.537 6.694-6.053m-7.863 10.093c.217-.723 1.495-3.075 2.05-4.021 1.684-2.871 3.273-3.844 4.534-4.005m-4.196 5.496c.64-1.332 1.884-2.604 2.545-2.827" stroke-width=".438"/></g><g transform="translate(.611 .294)" class="C"><use xlink:href="#B" transform="matrix(-.099526 -.63974 .5203 -.7523 -60.305 487.97)" stroke-width="1.566" class="B"/><use xlink:href="#C" transform="matrix(-.003597 -.56026 .6263 -.28362 -.17319 303.84)" stroke-width="1.274" class="D E"/></g><path d="M55.144 222.13s.065.705 1.9 10.076c1.93 14.959 1.812 23.556 1.812 23.556m-5.005-37.167s.463 4.241 2.298 13.612c1.93 14.959 1.944 27.047 1.944 27.047m-5.535-43.664s.816 7.246 2.652 16.617c1.93 14.959 2.121 30.406 2.121 30.406m-6.243-50.028s1.347 10.251 3.182 19.622c1.93 14.959 2.298 34.471 2.298 34.471M44.327 111.95s.472 3.978.958 13.251c1.026 19.597 1.811 25.615 1.811 25.615m-4.216-46.054s.611 4.531 1.511 20.438c1.108 19.592 2.779 35.152 2.779 35.152m-5.633-61.09s.798 3.812 1.979 25.938c1.046 19.596 3.341 39.433 3.341 39.433M40.42 94.135s.6.251 2.156 31.065c.99 19.599 4.048 45.444 4.048 45.444m-7.579-82.509s1.1 6.001 2.656 36.815c.99 19.599 4.798 49.694 4.798 49.694" fill="none" stroke="#2e3436" stroke-width=".4"/><g transform="matrix(.9583 -.40801 -.40801 -.9583 3.4496 273.72)" class="C"><g class="B"><use xlink:href="#B" transform="matrix(.77366 .43656 -.33439 1.0443 104.16 -214.21)"/><path d="M89.773 108.57s.379-2.297-.757-6.207"/></g><path d="M97.648 114.33s1.589-2.201 5.345-2.231" fill="none" class="F"/><use xlink:href="#C" transform="rotate(31.561 93.406 112.09)" class="D E"/></g></g><defs ><path id="B" d="m107.98 269.5a5.4776 2.9164 0 1 1-10.955 0 5.4776 2.9164 0 1 1 10.955 0z"/><path id="C" d="m96.07 112.09a2.6637 1.0344 0 1 1-5.3274 0 2.6637 1.0344 0 1 1 5.3274 0z"/></defs></svg>