<svg xmlns="http://www.w3.org/2000/svg" xmlns:xlink="http://www.w3.org/1999/xlink" width="178.998" height="289.999" viewBox="0 0 47.36 76.729" xmlns:v="https://vecta.io/nano"><style><![CDATA[.B{fill:#edd400}.C{fill-rule:evenodd}.D{stroke-width:.415}.E{stroke-width:3.074}.F{stroke-width:.4}.G{stroke-width:.387}.H{fill:#729fcf}.I{fill:#3465a4}.J{fill:none}.K{stroke-width:1.154}.L{fill:#c00}.M{fill:#204a87}.N{stroke-width:.813}.O{stroke-width:1.284}.P{stroke-width:1.054}.Q{stroke-width:.438}.R{stroke-width:.386}.S{stroke-linecap:round}.T{stroke-width:22.636}.U{fill:#4e9a06}.V{stroke-width:1.009}.W{stroke-width:.967}.X{stroke-width:.943}.Y{stroke-width:.948}.Z{stroke-width:1.362}.a{stroke-width:3.367}.b{stroke-width:3.375}]]></style><g transform="matrix(.26459 0 0 .26371 -3.86716 55.397924)"><g transform="matrix(.92765 0 0 .92765 5.395 4.7923)"><path d="M177.38-104.13c-27.278 22.738-15.881 92.133-69.479 92.722S61.753-81.393 35.834-104.13c0 0 47.182-9.128 70.773-9.128s70.773 9.128 70.773 9.128z" stroke="#000" stroke-width="1.438" class="C L"/><g stroke="#2e3436" stroke-width=".539" class="J"><use xlink:href="#B"/><use xlink:href="#B" x="1.87" y="-2.156"/><use xlink:href="#B" x="3.87" y="-4.312"/><use xlink:href="#B" x="5.59" y="-6.468"/><use xlink:href="#B" x="6.99" y="-8.624"/><use xlink:href="#B" x="8.32" y="-10.78"/><use xlink:href="#B" x="9.69" y="-12.936"/><use xlink:href="#B" x="10.82" y="-15.091"/><use xlink:href="#B" x="11.92" y="-17.247"/><use xlink:href="#B" x="12.78" y="-19.403"/><use xlink:href="#B" x="13.58" y="-21.559"/><use xlink:href="#B" x="14.67" y="-23.715"/><use xlink:href="#B" x="15.28" y="-25.871"/><use xlink:href="#B" x="16.02" y="-28.027"/><use xlink:href="#B" x="16.9" y="-30.183"/><use xlink:href="#B" x="17.71" y="-32.339"/><use xlink:href="#B" x="18.12" y="-34.495"/><use xlink:href="#B" x="18.66" y="-36.651"/><use xlink:href="#B" x="18.93" y="-38.807"/><use xlink:href="#B" x="20.01" y="-40.963"/><use xlink:href="#B" x="21.09" y="-43.119"/><use xlink:href="#B" x="21.5" y="-45.275"/><use xlink:href="#B" x="25.23" y="-56.055"/><use xlink:href="#B" x="22.58" y="-47.431"/><use xlink:href="#B" x="23.12" y="-49.587"/><use xlink:href="#B" x="27.62" y="-62.523"/><use xlink:href="#B" x="26.95" y="-60.367"/><use xlink:href="#B" x="26.09" y="-58.211"/><use xlink:href="#B" x="24.47" y="-53.899"/><use xlink:href="#B" x="23.61" y="-51.743"/><use xlink:href="#B" x="28.58" y="-64.679"/><use xlink:href="#B" x="29.73" y="-66.835"/><use xlink:href="#B" x="30.68" y="-68.991"/><use xlink:href="#B" x="31.93" y="-71.147"/><use xlink:href="#B" x="33.17" y="-73.305"/><use xlink:href="#B" x="34.61" y="-75.455"/><use xlink:href="#B" x="36.52" y="-77.615"/><use xlink:href="#B" x="38.14" y="-79.775"/></g><g stroke="#000"><g transform="matrix(1.1304 0 0 .47196 -10.582 -84.725)"><g stroke-width="1.416" class="B"><path d="M110.77 134.08c-.381-4.182-13.296-4.181-13.678 0a26.85 26.85 0 0 0-.066.918c-.342 6.089.37 22.694 6.905 38.543 6.534-15.848 7.247-32.454 6.905-38.543-.019-.339-.042-.646-.066-.918z" class="C"/><path d="M103.93 173.54c-9.647-4.832-15.538-21.171-15.963-38.362-.174-7.046 9.179-5.681 9.059-.18"/><g class="C"><path d="M110.84 134.99c.343 6.089-.37 22.694-6.905 38.543 9.647-4.832 15.538-21.171 15.963-38.363.174-7.046-9.179-5.681-9.058-.18z"/><path d="M103.93 173.54c-6.535-15.848-7.248-32.454-6.905-38.543.12-5.501-9.233-6.866-9.059.18.425 17.191 6.317 33.531 15.964 38.363z"/></g><path d="M125.72 140.23c.4-4.487 6.172-4.514 5.994-1.546-.13 6.093-2.239 30.692-27.784 34.858M82.064 140.23c-.402-4.487-6.194-4.514-6.015-1.546.13 6.093 2.247 30.692 27.881 34.858"/><path d="M88.501 137.77c-.226-6.731-8.963-7.49-8.909-3.299.101 7.976 1.825 32.816 25.891 39.068"/><path d="M103.93 173.54c-9.647-5.456-15.538-23.906-15.963-43.318-.174-7.956 9.179-6.415 9.059-.204"/><path d="M119.29 137.77c.228-6.731 9.03-7.49 8.976-3.299-.102 7.976-1.838 32.816-26.085 39.068"/><path d="M103.93 173.54c9.647-5.456 15.538-23.906 15.963-43.318.174-7.956-9.179-6.415-9.058-.204"/><path d="M103.93 173.54c-6.898-21.893-7.308-44.891-6.838-51.636.381-5.471 13.296-5.472 13.678 0 .47 6.744.06 29.742-6.838 51.636"/></g><path transform="matrix(.95364 0 0 2.2841 5.3216 -1066.3)" d="m106.17 524.89a2.7683 2.7683 0 1 1-5.5366 0 2.7683 2.7683 0 1 1 5.5366 0z" stroke-width=".8" class="M"/></g><path d="M111.748-68.875c0 5.342-2.301 9.672-5.138 9.672s-5.138-4.33-5.138-9.672 2.301-9.672 5.138-9.672 5.138 4.33 5.138 9.672z" stroke-width="1.042" class="B"/><use xlink:href="#C" transform="matrix(-.488433 -.834401 .488433 -.834401 1.9098 -2.1592)" class="H K"/><use xlink:href="#D" class="B V"/><use xlink:href="#C" transform="matrix(-.490765 -.794668 .439585 -.794668 -5.09 -5.0989)" class="H K"/><use xlink:href="#E" class="B W"/><use xlink:href="#C" transform="matrix(-.480302 -.754935 .40353 -.754935 -12.168 -7.3219)" class="H K"/><use xlink:href="#F" class="B X"/><use xlink:href="#C" transform="matrix(-.495429 -.715202 .341887 -.715202 -16.529 -9.8574)" class="H K"/><use xlink:href="#G" class="B Y"/><use xlink:href="#C" transform="matrix(-.500069 -.675469 .093366 -.675469 9.5838 -11.221)" class="H Z"/><g transform="matrix(-1 0 0 1 213.09 0)"><use xlink:href="#D" class="B V"/><use xlink:href="#C" transform="matrix(-.490765 -.794668 .439585 -.794668 -5.09 -5.0989)" class="H K"/><use xlink:href="#E" class="B W"/><use xlink:href="#C" transform="matrix(-.480302 -.754935 .40353 -.754935 -12.168 -7.3219)" class="H K"/><use xlink:href="#F" class="B X"/><use xlink:href="#C" transform="matrix(-.495429 -.715202 .341887 -.715202 -16.529 -9.8574)" class="H K"/><use xlink:href="#G" class="B Y"/><use xlink:href="#C" transform="matrix(-.500069 -.675469 .093366 -.675469 9.5838 -11.221)" class="H Z"/></g><g transform="matrix(1.4317 0 0 1.9394 -44.9 -379.48)"><g transform="matrix(.83779 0 0 .88918 18.741 38.689)" class="N"><path d="M127.36 207.74c-15.746-10.995-12.562-21.253-16.852-20.396H97.427c-4.2-.851-1.62 9.729-16.418 20.396z" class="B"/><g class="C"><path d="M93.619 176.89c4.731.618 15.846.618 20.577 0a13.35 13.35 0 0 0 1.314-.227c2.967-.706 3.71-2.181 2.349-3.341-4.437.441-9.116.677-13.952.677a141.48 141.48 0 0 1-13.951-.677c-1.361 1.159-.618 2.635 2.349 3.341.349.083.793.158 1.314.227z" class="L"/><g fill="#ffd42a"><path d="M112.2 180.5c-3.035.799-13.551.799-16.586 0-1.322.611-1.496 1.559 0 2.114.278.073.618.139 1.009.199 3.496.533 11.072.533 14.568 0 .391-.06.731-.126 1.009-.199 1.496-.555 1.322-1.502 0-2.114z"/><use xlink:href="#H"/><path d="M95.614 180.5c3.035.799 13.551.799 16.586 0"/></g><path d="M109.98 182.81c-2.891.441-9.156.441-12.047 0 .383.651.486 1.544.248 2.489 3.544.469 8.007.469 11.548 0-.235-.945-.132-1.839.251-2.489z" class="I"/><use xlink:href="#H" class="L"/></g><path d="M95.614 180.5c3.035.799 13.551.799 16.586 0" class="B"/><path d="M95.614 180.5c3.035.799 13.551.799 16.586 0 .039-.868-.061-2.296 1.995-3.612-4.732.618-15.846.618-20.577 0 2.057 1.316 1.957 2.745 1.995 3.612z" class="C I"/><path d="M101.58 188c-.671 12.756-3.027 15.689-9.215 24.193m23.198 0c-6.186-8.375-8.542-11.18-9.213-23.936" class="B"/><path d="M97.264 187.63c4.337.62 8.817.62 13.011 0 2.178-.342 1.74-2.594-.751-2.5a41.62 41.62 0 0 1-11.505 0c-2.494-.094-2.932 2.157-.754 2.5h0z" fill="#c4a000" class="C"/></g><g stroke-width=".758"><path d="M71.006 226.335h72.073v3.176H71.006z" class="B"/><path d="M74.674 222.994h64.733v3.176H74.674z" class="I"/></g></g></g></g><g stroke="#000" transform="matrix(1 0 0 .88627 0 -10.1)"><g transform="matrix(-1 0 0 1 208.66 0)"><path d="M83.905-144.05s10.369-1.778 20.086-1.778 21.43 1.778 21.43 1.778-6.742-8.319-9.856-16.89c-2.629-7.237-3.254-16.432-3.254-16.432H96.287s-1.382 9.715-4.259 17.064-8.123 16.258-8.123 16.258z" fill="#75507b" stroke-width="1.116"/><path d="M96.98-177.48c-1.385 14.229-6.905 24.825-11.865 32.843m12.49-32.843c-1.385 14.229-6.733 24.584-11.693 32.602m12.312-32.332c-1.385 14.229-6.733 24.584-11.693 32.602M98.98-176.79c-1.385 14.229-6.733 24.584-11.693 32.602m13.073-33.152c-1.385 14.229-6.733 25.409-11.693 33.427" class="F J"/></g><path d="M97.782 101.52c7.609 0 27.681-1.506 27.959 7.715v.958c-1.748 10.529-13.957 9.376-27.489 9.376s-27.645 1.051-27.959-9.376v-.958c1.169-8.338 19.88-7.715 27.489-7.715z" stroke-width=".825" transform="matrix(.5705 0 0 .67253 48.081 -251.36)" class="B"/><g fill="#75507b" stroke-width=".478"><use xlink:href="#I"/><use xlink:href="#I" x="7.723" y="-1.243"/><use xlink:href="#I" x="15.444" y="-1.661"/><use xlink:href="#I" x="23.163" y="-1.243"/><use xlink:href="#I" x="30.894"/></g><g transform="matrix(.82457 0 0 .82457 16.352 -6.4528)" fill="#c4a000"><path d="M35.349-109.63c0-27.151 31.764-51.452 70.946-51.452s70.946 24.301 70.946 51.452c0 0-44.513-7.873-70.671-7.563s-71.221 7.563-71.221 7.563z" stroke-width="1.07"/><path d="M107.57-160.84s-48.978 10.429-59.701 49.797"/><path d="m105.87-160.84s48.978 10.429 59.701 49.797"/><path d="M86.938-114.9c.851-28.787 19.534-45.945 19.534-45.945m19.178 46.505c-.851-28.787-19.534-45.945-19.534-45.945"/></g><path d="M53.341 104.76s33.773-3.992 50.659-3.992 50.659 3.992 50.659 3.992c3.84 0 6.931 2.053 6.931 4.604v.772c0 2.551-3.091 4.604-6.931 4.604 0 0-33.773-3.992-50.659-3.992s-50.659 3.992-50.659 3.992c-3.84 0-6.931-2.053-6.931-4.604v-.772c0-2.551 3.091-4.604 6.931-4.604z" stroke-width=".816" transform="matrix(1.1726 0 0 1.1184 -17.95 -217.61)" class="B"/><g transform="matrix(.92765 0 0 .92765 5.4366 5.4973)"><g transform="matrix(.99186 .10505 -.12969 .99447 23.588 -10.315)"><g transform="matrix(.43798 0 0 .43798 69.462 -164.05)" class="B"><use xlink:href="#J" class="O"/><g class="P"><use xlink:href="#K"/><use xlink:href="#L"/></g></g><g transform="matrix(1.0345 0 0 1.0345 -3.5862 -227.14)"><use xlink:href="#M" class="B Q"/><use xlink:href="#N" class="B G"/><use xlink:href="#O" class="M R"/><g class="B G"><use xlink:href="#P"/><use xlink:href="#Q"/></g></g><g class="B"><g class="F"><use xlink:href="#R"/><use xlink:href="#R" y="2.68"/><use xlink:href="#R" x="0.395" y="-2.58"/><use xlink:href="#R" x="1.228" y="-5.04"/><use xlink:href="#R" x="2.413" y="-7.54"/><use xlink:href="#R" x="3.992" y="-9.65"/><use xlink:href="#R" x="5.79" y="-11.62"/><use xlink:href="#R" x="7.94" y="-13.2"/><use xlink:href="#R" x="10.359" y="-14.52"/><use xlink:href="#R" x="12.806" y="-15.53"/></g><g transform="matrix(-1 0 0 1 212.39 0)" class="F"><use xlink:href="#R"/><use xlink:href="#R" y="2.68"/><use xlink:href="#R" x="0.395" y="-2.58"/><use xlink:href="#R" x="1.228" y="-5.04"/><use xlink:href="#R" x="2.413" y="-7.54"/><use xlink:href="#R" x="3.992" y="-9.65"/><use xlink:href="#R" x="5.79" y="-11.62"/><use xlink:href="#R" x="7.94" y="-13.2"/><use xlink:href="#R" x="10.359" y="-14.52"/><use xlink:href="#R" x="12.806" y="-15.53"/></g><g class="C D"><use xlink:href="#S"/><use xlink:href="#T"/></g><use xlink:href="#U" class="D"/><use xlink:href="#V" class="C D"/><use xlink:href="#W" class="D"/></g></g><g transform="matrix(.38016 .051012 -.1846 .92327 108.487 -10.254)"><g transform="matrix(.43798 0 0 .43798 69.462 -164.05)" class="B"><use xlink:href="#J" class="O"/><g class="P"><use xlink:href="#K"/><use xlink:href="#L"/></g></g><g transform="matrix(1.0345 0 0 1.0345 -3.5862 -227.14)"><use xlink:href="#M" class="B Q"/><use xlink:href="#N" class="B G"/><use xlink:href="#O" class="M R"/><g class="B G"><use xlink:href="#P"/><use xlink:href="#Q"/></g></g><g class="B"><g class="F"><use xlink:href="#R"/><use xlink:href="#R" y="2.68"/><use xlink:href="#R" x="0.395" y="-2.58"/><use xlink:href="#R" x="1.228" y="-5.04"/><use xlink:href="#R" x="2.413" y="-7.54"/><use xlink:href="#R" x="3.992" y="-9.65"/><use xlink:href="#R" x="5.79" y="-11.62"/><use xlink:href="#R" x="7.94" y="-13.2"/><use xlink:href="#R" x="10.359" y="-14.52"/><use xlink:href="#R" x="12.806" y="-15.53"/></g><g transform="matrix(-1 0 0 1 212.39 0)" class="F"><use xlink:href="#R"/><use xlink:href="#R" y="2.68"/><use xlink:href="#R" x="0.395" y="-2.58"/><use xlink:href="#R" x="1.228" y="-5.04"/><use xlink:href="#R" x="2.413" y="-7.54"/><use xlink:href="#R" x="3.992" y="-9.65"/><use xlink:href="#R" x="5.79" y="-11.62"/><use xlink:href="#R" x="7.94" y="-13.2"/><use xlink:href="#R" x="10.359" y="-14.52"/><use xlink:href="#R" x="12.806" y="-15.53"/></g><g class="C D"><use xlink:href="#S"/><use xlink:href="#T"/></g><use xlink:href="#U" class="D"/><use xlink:href="#V" class="C D"/><use xlink:href="#W" class="D"/></g></g><g transform="matrix(-1 0 0 1 212.68 .19454)"><g transform="matrix(.99186 .10505 -.12969 .99447 23.771 -10.704)"><g transform="matrix(.43798 0 0 .43798 69.462 -164.05)" class="B"><use xlink:href="#J" class="O"/><g class="P"><use xlink:href="#K"/><use xlink:href="#L"/></g></g><g transform="matrix(1.0345 0 0 1.0345 -3.5862 -227.14)"><use xlink:href="#M" class="B Q"/><use xlink:href="#N" class="B G"/><use xlink:href="#O" class="M R"/><g class="B G"><use xlink:href="#P"/><use xlink:href="#Q"/></g></g><g class="B"><g class="F"><use xlink:href="#R"/><use xlink:href="#R" y="2.68"/><use xlink:href="#R" x="0.395" y="-2.58"/><use xlink:href="#R" x="1.228" y="-5.04"/><use xlink:href="#R" x="2.413" y="-7.54"/><use xlink:href="#R" x="3.992" y="-9.65"/><use xlink:href="#R" x="5.79" y="-11.62"/><use xlink:href="#R" x="7.94" y="-13.2"/><use xlink:href="#R" x="10.359" y="-14.52"/><use xlink:href="#R" x="12.806" y="-15.53"/></g><g transform="matrix(-1 0 0 1 212.39 0)" class="F"><use xlink:href="#R"/><use xlink:href="#R" y="2.68"/><use xlink:href="#R" x="0.395" y="-2.58"/><use xlink:href="#R" x="1.228" y="-5.04"/><use xlink:href="#R" x="2.413" y="-7.54"/><use xlink:href="#R" x="3.992" y="-9.65"/><use xlink:href="#R" x="5.79" y="-11.62"/><use xlink:href="#R" x="7.94" y="-13.2"/><use xlink:href="#R" x="10.359" y="-14.52"/><use xlink:href="#R" x="12.806" y="-15.53"/></g><g class="C D"><use xlink:href="#S"/><use xlink:href="#T"/></g><use xlink:href="#U" class="D"/><use xlink:href="#V" class="C D"/><use xlink:href="#W" class="D"/></g></g><g transform="matrix(.38016 .051012 -.1846 .92327 108.67 -10.643)"><g transform="matrix(.43798 0 0 .43798 69.462 -164.05)" class="B"><use xlink:href="#J" class="O"/><g class="P"><use xlink:href="#K"/><use xlink:href="#L"/></g></g><g transform="matrix(1.0345 0 0 1.0345 -3.5862 -227.14)"><use xlink:href="#M" class="B Q"/><use xlink:href="#N" class="B G"/><use xlink:href="#O" class="M R"/><g class="B G"><use xlink:href="#P"/><use xlink:href="#Q"/></g></g><g class="B"><g class="F"><use xlink:href="#R"/><use xlink:href="#R" y="2.68"/><use xlink:href="#R" x="0.395" y="-2.58"/><use xlink:href="#R" x="1.228" y="-5.04"/><use xlink:href="#R" x="2.413" y="-7.54"/><use xlink:href="#R" x="3.992" y="-9.65"/><use xlink:href="#R" x="5.79" y="-11.62"/><use xlink:href="#R" x="7.94" y="-13.2"/><use xlink:href="#R" x="10.359" y="-14.52"/><use xlink:href="#R" x="12.806" y="-15.53"/></g><g transform="matrix(-1 0 0 1 212.39 0)" class="F"><use xlink:href="#R"/><use xlink:href="#R" y="2.68"/><use xlink:href="#R" x="0.395" y="-2.58"/><use xlink:href="#R" x="1.228" y="-5.04"/><use xlink:href="#R" x="2.413" y="-7.54"/><use xlink:href="#R" x="3.992" y="-9.65"/><use xlink:href="#R" x="5.79" y="-11.62"/><use xlink:href="#R" x="7.94" y="-13.2"/><use xlink:href="#R" x="10.359" y="-14.52"/><use xlink:href="#R" x="12.806" y="-15.53"/></g><g class="C D"><use xlink:href="#S"/><use xlink:href="#T"/></g><use xlink:href="#U" class="D"/><use xlink:href="#V" class="C D"/><use xlink:href="#W" class="D"/></g></g></g><g transform="matrix(.43798 0 0 .43798 69.462 -164.828)" class="B"><use xlink:href="#J" class="O"/><g class="P"><use xlink:href="#K"/><use xlink:href="#L"/></g></g><g transform="matrix(1.0345 0 0 1.0345 -3.5862 -227.918)"><use xlink:href="#M" class="B Q"/><use xlink:href="#N" class="B G"/><use xlink:href="#O" class="M R"/><g class="B G"><use xlink:href="#P"/><use xlink:href="#Q"/></g></g><g class="B"><g class="F"><use xlink:href="#R" y="-0.778"/><use xlink:href="#R" y="1.902"/><use xlink:href="#R" x="0.395" y="-3.358"/><use xlink:href="#R" x="1.228" y="-5.818"/><use xlink:href="#R" x="2.413" y="-8.318"/><use xlink:href="#R" x="3.992" y="-10.428"/><use xlink:href="#R" x="5.79" y="-12.398"/><use xlink:href="#R" x="7.94" y="-13.978"/><use xlink:href="#R" x="10.359" y="-15.298"/><use xlink:href="#R" x="12.806" y="-16.308"/></g><g transform="matrix(-1 0 0 1 212.39 -.778)" class="F"><use xlink:href="#R"/><use xlink:href="#R" y="2.68"/><use xlink:href="#R" x="0.395" y="-2.58"/><use xlink:href="#R" x="1.228" y="-5.04"/><use xlink:href="#R" x="2.413" y="-7.54"/><use xlink:href="#R" x="3.992" y="-9.65"/><use xlink:href="#R" x="5.79" y="-11.62"/><use xlink:href="#R" x="7.94" y="-13.2"/><use xlink:href="#R" x="10.359" y="-14.52"/><use xlink:href="#R" x="12.806" y="-15.53"/></g><g class="C D"><use xlink:href="#S" y="-0.778"/><use xlink:href="#T" y="-0.778"/></g><use xlink:href="#U" y="-0.778" class="D"/><use xlink:href="#V" y="-0.778" class="C D"/><use xlink:href="#W" y="-0.778" class="D"/></g></g><g transform="matrix(.044312 0 0 .033214 88.043 -209.58)" class="T"><g class="U"><path d="M407.62 609.2c1.425-61.956 16.751-119.54 45.29-174.11 74.714-157.19 302.92-153.43 252.62 38.811-18.537 70.839-81.509 112.47-156.32 119.62 5.4-18.665 35.1-84.652 11.124-97.562-38.338 1.448-85.944 67.705-97.393 99.301-1.653 4.536-1.19 9.778-3.036 14.24m-147.325 3.8c-1.425-61.956-16.751-119.54-45.29-174.11C192.576 282-35.63 285.76 14.67 478.001c18.537 70.839 81.509 112.47 156.32 119.62-5.4-18.665-35.1-84.652-11.124-97.562 38.338 1.448 85.944 67.705 97.393 99.301 1.653 4.536 1.19 9.778 3.036 14.24" class="C"/><path d="M355.68 13.043c-78.714 84.849-131.56 182.96-108.78 298.03 12.57 63.484 43.042 122.28 64.531 183.44 13.436 38.37 16.872 78.452 15.281 118.78h66.781c-3.197-40.626 3.807-79.998 15.281-118.78 20.474-61.538 51.626-119.91 64.531-183.44 24.128-118.78-32.507-208.36-108.44-297.66l-4.64-5.918z"/><path d="M293.4 660.32c-13.962 39.13-70.888 110.79-101.12 131.22-7.842 5.298 37.486-3.052 57.781-7.5 26.619-5.835 61.217-34.198 60.406-24.188-.076 45.838 12.811 122.32 46.406 157.47l3.182 3.388 3.287-3.388c33.578-39.171 46.238-108.04 46.406-157.47-.811-10.01 33.787 18.353 60.406 24.188 20.295 4.448 65.623 12.798 57.781 7.5-30.237-20.427-87.132-92.089-101.09-131.22z" class="C"/></g><path d="M201.41 611.3H519.3v51.503H201.41z" class="B"/></g><g transform="matrix(.11761 0 0 .13637 84.549271 -255.119997)"><g class="B E"><path d="M164.8 830.16c-69.274.135-131.45 8.818-175.21 22.295 3.636-1.725-1.739-17.184-6.259-28.837-5.467-14.094-13.492-16.174-13.492-16.174 48.384-14.292 120.3-24.373 195.26-24.469 74.99.096 147.27 9.85 195.66 24.142 0 0-9.57 3.128-15.033 17.224-4.519 11.651-8.196 26.388-4.554 28.114-43.759-13.477-107.1-22.16-176.37-22.295"/><path d="M165.22 786.41c-74.962.118-142.31 9.037-190.7 23.352-3.226.967-6.637-.298-7.683-3.35-1.045-3.057.691-6.564 3.917-7.553 48.592-14.905 117.68-24.262 194.48-24.419 76.817.14 146.17 9.515 194.77 24.419 3.226.989 4.963 4.496 3.917 7.553-1.051 3.052-4.462 4.316-7.683 3.35-48.39-14.314-116.03-23.234-191.02-23.352"/><path d="M165.5 728.73l6.56 1.233c-1.057 2.712-1.276 5.674-1.276 8.795 0 13.908 11.69 25.223 26.08 25.223 11.551 0 21.388-7.311 24.767-17.41.379.267 2.487-9.123 3.576-9.008.913.098.817 9.755 1.153 9.581 1.671 12.718 13.04 21.322 25.84 21.322 14.369 0 26.022-11.256 26.022-25.191 0-1.037-.059-2.073-.198-3.077l8.167-8.271 4.388 10.541c-1.745 3.312-2.439 7.027-2.439 11.01 0 13.296 11.129 24.05 24.869 24.05 8.642 0 16.232-4.25 20.689-10.699l5.226-6.793-.037 8.331c0 8.37 3.459 15.877 11.45 17.203 0 0 9.176.578 21.33-9.177 12.165-9.755 18.864-17.836 18.864-17.836l1.046 9.772s-10.094 15.954-21.084 22.457c-6.005 3.579-15.127 7.327-22.381 6.116-7.676-1.271-13.142-7.562-15.96-14.813-5.471 3.29-11.93 5.211-18.848 5.211-14.866 0-28.226-8.331-33.511-20.875-6.838 7.54-16.36 12.178-27.527 12.178-11.871 0-22.744-5.462-29.561-13.853-6.699 6.236-15.805 10.083-25.84 10.083-13.142 0-24.863-6.58-31.509-16.51-6.635 9.93-18.346 16.51-31.466 16.51-10.03 0-19.157-3.846-25.861-10.083-6.79 8.391-17.684 13.853-29.55 13.853-11.172 0-20.695-4.638-27.538-12.178-5.279 12.544-18.634 20.875-33.505 20.875-6.923 0-13.355-1.921-18.821-5.211-2.845 7.251-8.311 13.542-15.965 14.813-7.254 1.211-16.376-2.537-22.397-6.116-10.996-6.504-21.079-22.457-21.079-22.457l1.057-9.772s6.704 8.081 18.848 17.836c12.165 9.772 21.33 9.177 21.33 9.177 7.991-1.326 11.444-8.833 11.444-17.203l-.037-8.331 5.226 6.793c4.452 6.449 12.069 10.699 20.695 10.699 13.734 0 24.863-10.754 24.863-24.05 0-3.983-.699-7.698-2.445-11.01l4.388-10.541 8.178 8.271c-.123 1.004-.198 2.041-.198 3.077 0 13.935 11.636 25.191 26.016 25.191 12.821 0 24.169-8.604 25.84-21.322.358.175.262-9.483 1.169-9.581 1.078-.115 3.203 9.275 3.56 9.008 3.4 10.099 13.222 17.41 24.81 17.41 14.385 0 26.038-11.316 26.038-25.223 0-3.121-.181-6.083-1.254-8.795l6.8-1.233"/><path d="M165.23 635.68c-1.015.303-4.816 2.886-8.442 5.735-4.222 3.317-6.946 10.864-6.946 10.864s-4.267-.89-6.981-.89-6.91.89-6.91.89-.449 3.314.962 7.729 1.783 7.398 2.778 7.729l-3.847 1.674c-2.111.905-2.885 3.063-2.885 3.063s5.727 4.526 8.442 5.129 3.286.608 5.699 1.211 3.491 4.88 3.491 4.88-2.182.052-4.595-.249-2.221-2.856-6.34-4.915-13.037 0-13.037 0 1.028 4.751 4.346 8.371 7.266 2.707 7.266 2.707l1.282 3.811s-3.972 1.525-6.554-.427c-2.538-1.919-3.471-5.11-8.157-4.809-4.898.315-5.103 4.946-7.516 8.264s-6.661 5.913-6.661 5.913 4.012 3.81 6.875 7.088c3.442 3.942 4.448 6.305 7.765 6.305s7.48-5.2 7.48-5.2l2.956.107-.641 4.559s-2.009.332-5.628 3.348-2.743 13.464-2.743 13.464 9.432.82 12.894-2.85c3.567-3.781 3.313-8.834 3.313-8.834l3.918-1.425.356 5.129s-4.243 2.902-5.45 7.124-.39 5.449-.321 9.047c.053 2.746-2.244 7.053-2.244 7.053s13.11-2.488 18.237-5.806c13.642-11.59 2.791-10.48 15.958 0 5.127 3.317 18.237 5.806 18.237 5.806s-2.297-4.307-2.244-7.053c.069-3.599.886-4.825-.321-9.047s-5.45-7.124-5.45-7.124l.356-5.129 3.918 1.425c0 0-.255 5.053 3.313 8.834 3.462 3.669 12.894 2.85 12.894 2.85s.876-10.448-2.743-13.464-5.628-3.348-5.628-3.348l-.641-4.559 2.956-.107c0 0 4.198 5.2 7.516 5.2s4.287-2.362 7.729-6.305c2.863-3.278 6.875-7.088 6.875-7.088s-4.248-2.595-6.661-5.913-2.618-7.948-7.516-8.264c-4.685-.302-5.619 2.889-8.157 4.809-2.582 1.953-6.518.427-6.518.427l1.247-3.811s3.949.912 7.266-2.707 4.346-8.371 4.346-8.371-8.918-2.059-13.037 0-3.928 4.614-6.34 4.915-4.595.249-4.595.249 1.078-4.277 3.491-4.88 2.985-.608 5.699-1.211 8.442-5.129 8.442-5.129-.774-2.159-2.885-3.063l-3.847-1.674c.995-.332 1.367-3.314 2.778-7.729s.962-7.729.962-7.729-4.196-.89-6.91-.89-6.981.89-6.981.89-2.724-7.546-6.946-10.864c-2.766-1.987-5.582-4.587-8.727-5.735z" class="C"/></g><path d="M159.43 721.15s-1.248 4.243-2.246 5.99-4.493 5.241-4.493 5.241m-.751-22.211c-4.917.28-8.841 2.634-12.48 5.241m11.73-12.981c-4.957-1.116-10.768-1.379-17.721-.499m18.971-8.241s-2.746-2.746-5.242-3.494-4.243-2.746-4.243-2.746m21.965-6.24c-.499-1.248 0-19.968 0-19.968m-4.74 21.718s-.17-1.379-2.746-5.241c-2.496-3.744-5.741-5.741-5.741-5.741m19.217 49.172s1.248 4.243 2.246 5.99 4.493 5.241 4.493 5.241m.751-22.211c4.917.28 8.841 2.634 12.48 5.241m-11.74-12.981c4.957-1.116 10.768-1.379 17.721-.499M177.9 693.69s2.746-2.746 5.242-3.494 4.243-2.746 4.243-2.746m-17.225-4.49s.17-1.379 2.746-5.241c2.496-3.744 5.741-5.741 5.741-5.741" class="E J S"/><g class="E"><path d="M151.78 702.91c0-11.743 6.083-21.216 13.579-21.216s13.604 9.473 13.604 21.216c0 11.753-6.083 21.258-13.604 21.258-7.496 0-13.579-9.505-13.579-21.258" class="B"/><path d="M156.05 702.92c0-8.722 4.174-15.758 9.318-15.758s9.336 7.036 9.336 15.758c0 8.73-4.174 15.789-9.336 15.789-5.144 0-9.318-7.059-9.318-15.789" class="I"/><path d="M305.05 650.05c-1.036.085-5.223 1.815-9.3 3.842-4.747 2.36-8.961 9.165-8.961 9.165s-3.894-1.76-6.491-2.327-6.802-.572-6.802-.572-1.136 3.144-.726 7.753.13 7.6 1.012 8.132l-4.038.833c-2.213.443-3.413 2.391-3.413 2.391s4.516 5.617 6.985 6.773 3.015 1.28 5.195 2.372 2.301 5.496 2.301 5.496-2.099-.404-4.344-1.202-1.517-3.254-5.02-6.126-12.475-2.72-12.475-2.72-.029 4.857 2.375 9.085 6.377 4.161 6.377 4.161l.415 3.991s-4.126.661-6.18-1.785c-2.019-2.405-2.233-5.717-6.781-6.4-4.754-.714-5.937 3.768-8.952 6.506s-7.633 4.387-7.633 4.387 3.027 4.56 5.068 8.36c2.454 4.57 2.913 7.088 6.087 7.78s8.266-3.52 8.266-3.52l2.806.721-1.585 4.321s-1.993-.095-6.099 2.097-5.493 12.583-5.493 12.583 8.851 2.769 12.946-.094c4.219-2.949 5.052-7.94 5.052-7.94l4.053-.574-.752 5.086s-4.679 1.949-6.733 5.823-1.534 5.242-2.234 8.773c-.534 2.694-3.65 6.423-3.65 6.423s13.075.304 18.688-1.867c15.523-8.477 4.903-9.657 15.27 3.33 4.199 4.311 16.214 9.478 16.214 9.478s-1.28-4.687-.645-7.359c.833-3.501 1.876-4.529 1.621-8.907s-3.697-8.097-3.697-8.097l1.434-4.937 3.446 2.21c0 0-1.32 4.884 1.288 9.322 2.531 4.308 11.732 5.475 11.732 5.475s3.065-10.025.244-13.727-4.672-4.446-4.672-4.446l.358-4.588 2.852.512c0 0 2.909 5.957 6.084 6.649s4.606-1.414 8.74-4.547c3.438-2.606 8.089-5.491 8.089-5.491s-3.512-3.422-5.114-7.167-.812-8.312-5.431-9.642c-4.419-1.272-5.993 1.65-8.83 2.996-2.887 1.369-6.329-.943-6.329-.943l2.005-3.464s3.584 1.715 7.53-1.129 5.942-7.272 5.942-7.272-8.095-3.873-12.475-2.72-4.741 3.688-7.114 3.48-4.45-.715-4.45-.715 1.943-3.954 4.38-4.039 2.986.029 5.712.006 9.171-3.25 9.171-3.25-.281-2.27-2.108-3.595l-3.325-2.438c1.023-.116 2.014-2.953 4.305-6.972s2.567-7.351 2.567-7.351-3.825-1.745-6.423-2.312-6.87-.587-6.87-.587-.998-7.941-4.332-12.064c-2.224-2.519-4.364-5.647-7.129-7.424z" class="B C"/><path d="M281.29 732.35s-2.098 3.885-3.426 5.384-5.416 4.184-5.416 4.184m4.012-21.858c-4.765-.752-9.021.728-13.059 2.517m13.989-10.237c-4.506-2.125-10.011-3.594-16.851-4.186m19.911-4.084s-2.042-3.255-4.271-4.508-3.475-3.568-3.475-3.568m22.346-1.514c-.212-1.323 4.254-19.509 4.254-19.509M290.14 695.2s.131-1.382-1.51-5.694c-1.591-4.179-4.27-6.807-4.27-6.807m7.91 52.051s.29 4.406.873 6.322 3.182 6.059 3.182 6.059m5.455-21.551c4.645 1.3 7.899 4.418 10.825 7.725m-8.465-15.125c4.981-.056 10.598.9 17.064 3.21m-16.394-12.01s3.212-2.11 5.76-2.32 4.645-1.797 4.645-1.797m-15.525-7.983s.457-1.311 3.744-4.548c3.186-3.137 6.716-4.411 6.716-4.411" class="J S"/><path d="M277.86 712.94c2.502-11.473 10.341-19.46 17.514-17.895s11 12.094 8.498 23.567c-2.504 11.483-10.35 19.5-17.547 17.931-7.173-1.564-10.969-12.12-8.465-23.603" class="B"/><path d="M281.94 713.83c1.858-8.522 7.352-14.525 12.274-13.452s7.434 8.823 5.576 17.344c-1.86 8.529-7.358 14.556-12.297 13.479-4.923-1.073-7.413-8.842-5.553-17.371" class="I"/><path d="M25.697 650.05c1.036.085 5.223 1.815 9.3 3.842 4.747 2.36 8.961 9.165 8.961 9.165s3.894-1.76 6.491-2.327 6.802-.572 6.802-.572 1.136 3.144.726 7.753-.13 7.6-1.012 8.132l4.038.833c2.213.443 3.414 2.391 3.414 2.391s-4.516 5.617-6.985 6.773-3.015 1.28-5.196 2.372-2.301 5.496-2.301 5.496 2.099-.404 4.344-1.202 1.517-3.254 5.02-6.126 12.475-2.72 12.475-2.72.029 4.857-2.375 9.085-6.376 4.161-6.376 4.161l-.415 3.991s4.126.661 6.18-1.785c2.019-2.405 2.233-5.717 6.781-6.4 4.754-.714 5.937 3.768 8.952 6.506s7.633 4.387 7.633 4.387-3.027 4.56-5.068 8.36c-2.454 4.57-2.913 7.088-6.087 7.78s-8.266-3.52-8.266-3.52l-2.806.721 1.585 4.321s1.993-.095 6.099 2.097 5.493 12.583 5.493 12.583-8.851 2.769-12.946-.094c-4.219-2.949-5.052-7.94-5.052-7.94l-4.053-.574.752 5.086s4.679 1.949 6.733 5.823 1.534 5.242 2.234 8.773c.534 2.694 3.65 6.423 3.65 6.423s-13.075.304-18.688-1.867c-15.523-8.477-4.903-9.657-15.27 3.33-4.199 4.311-16.214 9.478-16.214 9.478s1.28-4.687.645-7.359c-.833-3.501-1.876-4.529-1.621-8.907s3.697-8.097 3.697-8.097l-1.434-4.937-3.446 2.21c0 0 1.32 4.884-1.288 9.322-2.531 4.308-11.732 5.475-11.732 5.475s-3.065-10.025-.244-13.727 4.672-4.446 4.672-4.446l-.358-4.588-2.852.512c0 0-2.909 5.957-6.084 6.649s-4.605-1.414-8.74-4.547c-3.438-2.606-8.088-5.491-8.088-5.491s3.512-3.422 5.114-7.167.812-8.312 5.431-9.642c4.419-1.272 5.993 1.65 8.83 2.996 2.887 1.369 6.329-.943 6.329-.943l-2.005-3.464s-3.584 1.715-7.53-1.129-5.942-7.272-5.942-7.272 8.095-3.873 12.475-2.72 4.741 3.688 7.114 3.48 4.45-.715 4.45-.715-1.943-3.954-4.38-4.039-2.986.029-5.712.006-9.171-3.25-9.171-3.25.281-2.27 2.108-3.595l3.325-2.438c-1.023-.116-2.014-2.953-4.305-6.972s-2.567-7.351-2.567-7.351 3.825-1.745 6.423-2.312 6.87-.587 6.87-.587.998-7.941 4.332-12.064c2.224-2.519 4.364-5.647 7.129-7.424z" class="B C"/><path d="M49.463 732.35s2.098 3.885 3.426 5.384 5.416 4.184 5.416 4.184m-4.017-21.858c4.765-.752 9.021.728 13.059 2.517M53.356 712.34c4.506-2.125 10.011-3.594 16.851-4.186m-19.906-4.084s2.042-3.255 4.271-4.508 3.475-3.568 3.475-3.568M35.7 694.48c.212-1.323-4.254-19.509-4.254-19.509M40.61 695.2s-.131-1.382 1.511-5.694c1.591-4.179 4.27-6.807 4.27-6.807m-7.915 52.051s-.29 4.406-.873 6.322-3.182 6.059-3.182 6.059m-5.45-21.551c-4.645 1.3-7.899 4.418-10.825 7.725m8.46-15.125c-4.981-.056-10.598.9-17.064 3.21m16.397-12.01s-3.212-2.11-5.76-2.32-4.645-1.797-4.645-1.797m15.523-7.983s-.457-1.311-3.744-4.548c-3.186-3.137-6.716-4.411-6.716-4.411" class="J S"/><path d="M52.891 712.94c-2.502-11.473-10.341-19.46-17.514-17.895s-11 12.094-8.498 23.567c2.504 11.483 10.35 19.5 17.547 17.931 7.173-1.564 10.969-12.12 8.465-23.603" class="B"/><path d="M48.811 713.83c-1.858-8.522-7.352-14.525-12.274-13.452s-7.434 8.823-5.576 17.344c1.86 8.529 7.358 14.556 12.297 13.479 4.922-1.073 7.413-8.842 5.553-17.371" class="I"/><path d="M-53.406 780.12c3.54 1.977 4.563 2.279 9.963 2.385 5.545.403 17.097-3.883 17.097-3.883s-3.695-2.672-4.844-5.129c-1.506-3.22-1.405-4.731-4.203-7.872s-7.444-3.598-7.444-3.598l-1.923-4.702 3.74-.677c0 0 1.986 4.579 6.483 6.162 4.365 1.537 11.576-3.847 11.576-3.847s-3.843-9.662-8.05-10.543-5.948-.214-5.948-.214l-2.493-3.704 2.315-1.567c0 0 5.607 2.53 8.264.89s2.41-4.213 3.455-9.404c.869-4.316 2.422-9.653 2.422-9.653s-4.5-.215-7.872-1.959-5.559-5.739-9.617-3.598c-3.882 2.049-3.254 5.346-4.452 8.299-1.22 3.004-5.022 3.598-5.022 3.598l-.677-3.989c0 0 3.581-1.141 4.666-5.984s-.178-9.546-.178-9.546-5.829.349-8.233 4.208-1.173 4.712-2.974 6.172-3.837 1.391-3.837 1.391-.993-3.227.677-4.953 1.287-1.604 3.199-3.48 5.35-10.178 5.35-10.178-2.377-.423-4.46-.18-5.004 1.489-5.559.427.192-.922-1.489-5.782-3.962-8.35-3.962-8.35c-2.796.699-4.775 2.116-8.359 5.046s-2.453 2.597-7.112 7.309c-3.734-1.936-9.99-2.98-15.708-.221-5.445 2.627-7.257 4.191-10.437 10.841 9.935-.449 20.427 7.326 27.712 16.451 1.046 1.4 2.059 2.981 3.063 4.702s1.971 3.553 2.921 5.485c1.9 3.866 3.697 8.079 5.307 12.146s3.051 7.991 4.274 11.398c.612 1.703 1.428 3.466 2.422 5.2s2.175 3.47 3.419 5.165c1.05 1.43 5.386 4.38 6.529 5.737z" class="B C"/><path d="M-59.455 765.23s2.786 3.417 4.359 4.639 6.036 3.095 6.036 3.095m-8.181-20.674c4.435-1.618 8.822-.956 13.06.048m-15.481-7.428c3.915-2.915 8.92-5.372 15.384-7.217m-19.958-.323s1.322-3.566 3.218-5.205 2.639-4.137 2.639-4.137m-16.932 2.452s-.399-1.33.328-5.856c.705-4.387 2.763-7.456 2.763-7.456" class="J S"/><path d="M-62.82 769.89c6.314-3.105 7.798-13.883 3.206-24.471-4.673-10.773-13.818-17.143-20.41-14.283-.292.127-.512.376-.784.534.236 1.741.168 1.751.499 3.811.544 3.391 1.21 7.033 1.995 10.33s1.703 6.255 2.707 8.264 2.504 4.205 4.168 6.34 3.484 4.213 5.2 6.055c1.841 1.976 2.242 2.28 3.419 3.419z" class="B"/><path d="M-77.099 752.83c-3.471-8.001-5.279-14.709-.756-16.671s11.009 2.894 14.48 10.896c3.474 8.009 2.613 16.077-1.926 18.046-4.523 1.962-8.324-4.262-11.798-12.27" class="I"/><path d="M384.16 780.12c-3.54 1.977-4.563 2.279-9.963 2.385-5.545.403-17.097-3.883-17.097-3.883s3.695-2.672 4.844-5.129c1.506-3.22 1.405-4.731 4.203-7.872s7.445-3.598 7.445-3.598l1.923-4.702-3.74-.677c0 0-1.986 4.579-6.483 6.162-4.365 1.537-11.576-3.847-11.576-3.847s3.843-9.662 8.05-10.543 5.948-.214 5.948-.214l2.493-3.704-2.315-1.567c0 0-5.607 2.53-8.264.89s-2.41-4.213-3.455-9.404c-.869-4.316-2.422-9.653-2.422-9.653s4.5-.215 7.872-1.959 5.559-5.739 9.617-3.598c3.882 2.049 3.253 5.346 4.452 8.299 1.22 3.004 5.022 3.598 5.022 3.598l.677-3.989c0 0-3.58-1.141-4.666-5.984s.178-9.546.178-9.546 5.829.349 8.233 4.208 1.173 4.712 2.974 6.172 3.837 1.391 3.837 1.391.993-3.227-.677-4.953-1.287-1.604-3.199-3.48-5.35-10.178-5.35-10.178 2.377-.423 4.46-.18 5.004 1.489 5.558.427-.192-.922 1.489-5.782 3.962-8.35 3.962-8.35c2.796.699 4.775 2.116 8.359 5.046s2.453 2.597 7.112 7.309c3.734-1.936 9.99-2.98 15.708-.221 5.445 2.627 7.257 4.191 10.437 10.841-9.935-.449-20.427 7.326-27.712 16.451-1.046 1.4-2.059 2.981-3.063 4.702s-1.971 3.553-2.921 5.485c-1.9 3.866-3.697 8.079-5.307 12.146s-3.051 7.991-4.274 11.398c-.612 1.703-1.428 3.466-2.422 5.2s-2.175 3.47-3.42 5.165c-1.05 1.43-5.386 4.38-6.529 5.737z" class="B C"/><path d="M390.21 765.23s-2.786 3.417-4.359 4.639-6.036 3.095-6.036 3.095m8.175-20.674c-4.435-1.618-8.822-.956-13.06.048m15.48-7.428c-3.915-2.915-8.92-5.372-15.384-7.217m19.964-.323s-1.322-3.566-3.219-5.205-2.639-4.137-2.639-4.137m16.928 2.452s.399-1.33-.328-5.856c-.705-4.387-2.764-7.456-2.764-7.456" class="J S"/><path d="M393.57 769.89c-6.314-3.105-7.798-13.883-3.206-24.471 4.673-10.773 13.818-17.143 20.41-14.283.292.127.512.376.784.534-.236 1.741-.168 1.751-.499 3.811-.544 3.391-1.21 7.033-1.995 10.33s-1.702 6.255-2.707 8.264-2.504 4.205-4.168 6.34-3.484 4.213-5.2 6.055c-1.841 1.976-2.242 2.28-3.42 3.419z" class="B"/><path d="M407.85 752.83c3.471-8.001 5.279-14.709.756-16.671s-11.009 2.894-14.48 10.896c-3.474 8.009-2.613 16.077 1.926 18.046 4.523 1.962 8.324-4.262 11.798-12.27" class="I"/><path d="M-8.118 865.08c-3.203-.972-4.878-3.906-4.693-6.941-.056-2.951 1.596-5.626 4.693-6.559 43.759-13.162 105.08-21.267 173.53-21.368 68.443.101 129.72 8.205 173.48 21.368 3.097.933 4.721 3.608 4.665 6.559.169 3.035-1.484 5.969-4.665 6.941-127.97-19.933-236.46-15.375-347.02 0zm173.468-43.22c-16.014 0-28.932-6.032-28.932-13.466s12.919-13.491 28.932-13.491c16.028 0 28.989 6.032 28.989 13.491 0 7.434-12.961 13.466-28.989 13.466" class="B"/><path d="M165.35 817.63c-11.894 0-21.489-4.14-21.489-9.241s9.595-9.258 21.489-9.258c11.905 0 21.532 4.14 21.532 9.258 0 5.101-9.627 9.241-21.532 9.241" class="L"/><path d="M349.92 817.44c-.546-.176-.973-.442-1.532-.606-15.371-4.489-29.475-2.292-31.559 4.844-2.075 7.106 8.562 16.433 23.829 20.944.769-.94 1.599-1.713 2.315-2.707 1.077-1.496 2.093-3.016 2.956-4.595a29.43 29.43 0 0 0 2.102-4.809c.506-1.518.911-3.077 1.211-4.595a43.41 43.41 0 0 0 .641-4.452c.135-1.457.024-2.675.036-4.025z" class="B"/><path d="M350.17 822.03l-2.956-1.14c-11.417-3.334-21.794-2.047-23.224 2.85s6.606 11.59 18.023 14.925c.689.201 1.315.224 1.995.392.91-.681 1.859-1.262 2.671-2.066.751-.743 1.451-1.546 2.03-2.386s1.032-1.742 1.353-2.672c.325-.94.534-1.948.641-2.992a20.36 20.36 0 0 0 .071-3.206c-.072-1.274-.379-2.469-.606-3.704z" class="L"/><path d="M-19.929 817.44c.546-.176.973-.442 1.532-.606 15.371-4.489 29.475-2.292 31.559 4.844 2.075 7.106-8.562 16.433-23.829 20.944-.769-.94-1.599-1.713-2.315-2.707-1.077-1.496-2.093-3.016-2.956-4.595a29.42 29.42 0 0 1-2.101-4.809c-.506-1.518-.911-3.077-1.211-4.595a43.41 43.41 0 0 1-.641-4.452c-.135-1.457-.024-2.675-.036-4.025z" class="B"/><path d="M-20.179 822.03l2.956-1.14c11.417-3.334 21.794-2.047 23.224 2.85s-6.606 11.59-18.023 14.925c-.689.201-1.315.224-1.995.392-.91-.681-1.859-1.262-2.671-2.066-.751-.743-1.451-1.546-2.03-2.386s-1.032-1.742-1.354-2.672c-.325-.94-.534-1.948-.641-2.992s-.132-2.122-.071-3.206c.072-1.274.379-2.469.606-3.704z" class="L"/></g><g fill="#5c3566" class="E"><path d="M112.21 809.19c0-3.192 2.737-5.789 6.109-5.789 3.395 0 6.137 2.596 6.137 5.789 0 3.187-2.743 5.806-6.137 5.806-3.372 0-6.109-2.619-6.109-5.806"/><use xlink:href="#X"/><path d="M207.23 809.19c0-3.192 2.743-5.789 6.115-5.789 3.389 0 6.132 2.596 6.132 5.789 0 3.187-2.743 5.806-6.132 5.806-3.372 0-6.115-2.619-6.115-5.806"/><use xlink:href="#X" x="278.387"/></g><g class="C"><path transform="matrix(.93337 .35893 -.8147 .57988 0 0)" d="M826.35 862.19h35.528v35.76H826.35z" class="B a"/><path transform="matrix(.93461 .35566 -.8167 .57707 0 0)" d="M838.1 873.94h23.295v23.446H838.1z" class="U b"/><path transform="matrix(-.93337 .35893 .8147 .57988 0 0)" d="M596.28 1004.6h35.528v35.76H596.28z" class="B a"/><path transform="matrix(-.93461 .35566 .8167 .57707 0 0)" d="M608.08 1015.7h23.295v23.446H608.08z" class="U b"/></g></g><g class="B"><path d="M128.355-141.786a2.65 2.65 0 0 0-1.637.052c-.995.374-1.739 1.189-2.093 2.229-.535 1.57.243 3.159 1.422 4.096s2.897 1.378 4.554.734l2.369-.986c-.031.113-.294.916-.071 1.943.119.549.433 1.206 1.049 1.651s1.459.581 2.377.44c1.231-.191 2.037-1.175 2.349-2.061s.303-1.717.083-2.456a3.44 3.44 0 0 0-2.067-2.254c-.892-.338-1.787-.34-2.556-.156-1.859.444-2.806 1.207-4.348 1.806-.298.116-.601.07-.897.059.021-.013.621-.347 1.06-1.028a2.72 2.72 0 0 0 .426-1.38c.018-.558-.186-1.166-.581-1.689a2.73 2.73 0 0 0-1.44-1zm7.534 5.457c.353.134.58.282.739.815a2.59 2.59 0 0 1-.058 1.108c-.133.378-.229.517-.586.572-.533.083-.707-.01-.757-.046s-.089-.108-.133-.312c-.089-.408.036-1.052.036-1.052l-1.965-.5c.439-.198.951-.505 1.483-.632.393-.094.889-.087 1.242.047zm-7.856-3.13c.139.183.146.238.144.284s-.032.144-.101.25c-.137.213-.385.395-.385.395l1.188 1.868c-.538-.023-1.049-.167-1.452-.488-.628-.499-.871-1.132-.698-1.639.149-.439.518-.763.765-.856s.267-.176.54.185zm-48.184-2.327a2.65 2.65 0 0 1 1.637.052c.995.374 1.739 1.189 2.093 2.229.535 1.57-.243 3.159-1.422 4.096s-2.897 1.378-4.554.734l-2.369-.986c.031.113.294.916.071 1.943-.119.549-.433 1.206-1.049 1.651s-1.459.581-2.377.44c-1.231-.191-2.037-1.175-2.349-2.061s-.303-1.717-.083-2.456a3.44 3.44 0 0 1 2.067-2.254c.892-.338 1.787-.34 2.556-.156 1.859.444 2.806 1.207 4.348 1.806.298.116.601.07.897.059-.021-.013-.621-.347-1.06-1.028a2.72 2.72 0 0 1-.426-1.38c-.018-.558.186-1.166.581-1.689a2.73 2.73 0 0 1 1.44-1zm-7.534 5.457c-.353.134-.58.282-.739.815a2.59 2.59 0 0 0 .058 1.108c.133.378.229.517.586.572.533.083.707-.01.757-.046s.089-.108.133-.312c.089-.408-.036-1.052-.036-1.052l1.965-.5c-.439-.198-.951-.505-1.483-.632-.393-.094-.889-.087-1.242.047zm7.856-3.13c-.139.183-.146.238-.144.284s.032.144.101.25a1.79 1.79 0 0 0 .385.395l-1.188 1.868c.538-.023 1.049-.167 1.452-.488.628-.499.871-1.132.698-1.639-.149-.439-.518-.763-.765-.856s-.267-.176-.54.185z" stroke-width=".278"/><path stroke-width=".463" d="M102.55-143.77h2.906v11.769h-2.906z"/></g></g></g><defs ><path id="B" d="M104.88-27.545c16.579.884 31.169 5.084 31.169 5.084"/><path id="C" d="M-70.118 144.24h5.841v5.841h-5.841z"/><path id="D" d="M97.472-68.638c.164 5.087-1.894 9.212-4.597 9.212s-5.026-4.124-5.19-9.212 1.894-9.212 4.597-9.212 5.026 4.124 5.19 9.212z"/><path id="E" d="M84.141-67.684c.246 4.833-1.636 8.751-4.204 8.751s-4.848-3.918-5.094-8.751 1.636-8.751 4.204-8.751 4.848 3.918 5.094 8.751z"/><path id="F" d="M71.48-67.043c.491 4.579-1.082 8.29-3.514 8.29s-4.803-3.712-5.294-8.29 1.082-8.29 3.514-8.29 4.803 3.712 5.294 8.29z"/><path id="G" d="M166.148 369.652c1.208 4.011.89 7.263-.709 7.263s-3.875-3.252-5.082-7.263-.89-7.263.709-7.263 3.875 3.252 5.082 7.263z"/><path id="H" d="M112.2 180.5c1.322.611 1.496 1.559 0 2.114-3.035.799-13.551.799-16.586 0-1.496-.555-1.322-1.502 0-2.114"/><path id="I" d="M87.097-176.47c0-.956.707-1.733 1.578-1.733.877 0 1.585.778 1.585 1.733s-.708 1.739-1.585 1.739c-.871 0-1.578-.784-1.578-1.739"/><path id="J" d="M48.798 103.41l70.807-.878c-.26-18.009-16.13-33.182-35.789-33.375-18.196-.178-35.459 14.284-35.018 34.253zm-3.972 4.811l-.121-4.856c-.006-.273 0-.516 0-.789 0-20.803 17.739-37.51 39.21-37.51s39.21 16.708 39.21 37.51v4.856H83.915l-34.232.668-4.856.121z"/><path id="K" d="M55.927 83.462c-.832.838-1.363 1.894-1.511 2.955-.295 2.122.46 4.221 2.007 5.843 2.335 2.448 5.992 2.587 8.856 1.389s5.35-3.824 5.803-7.379l.527-5.145c.176.162 1.38 1.396 3.47 1.983 1.117.313 2.621.385 4.035-.284s2.49-2.034 3.132-3.797c.86-2.367-.144-4.736-1.45-6.137s-2.83-2.178-4.391-2.494c-2.428-.49-4.643.255-6.133 1.513s-2.372 2.847-2.791 4.386c-1.013 3.723-.553 6.131-.974 9.439-.081.64-.462 1.133-.771 1.648-.003-.05-.023-1.433-.833-2.863-.412-.728-1.097-1.51-2.096-2.075s-2.307-.784-3.646-.582c-1.297.196-2.402.762-3.234 1.6zm17.329-8.154c.59-.498 1.083-.76 2.209-.533.258.052 1.404.564 1.961 1.162s.717.9.468 1.586c-.373 1.025-.712 1.245-.827 1.299s-.284.054-.699-.062c-.831-.233-1.882-1.069-1.882-1.069l-2.837 3.009c.069-.968.014-2.17.304-3.234.214-.787.714-1.66 1.304-2.158zM59.85 86.258c.47-.071.576-.03.659.016s.231.194.357.418c.253.448.341 1.06.341 1.06l4.568-.323c-.569.933-1.334 1.702-2.313 2.111-1.524.637-2.916.463-3.67-.327-.652-.684-.882-1.649-.809-2.175s-.058-.642.866-.781z"/><path id="L" d="M110.86 82.161c.895.774 1.507 1.788 1.737 2.835.459 2.094-.13 4.243-1.546 5.974-2.138 2.614-5.773 3.022-8.722 2.04s-5.633-3.418-6.361-6.928l-.926-5.091c-.162.175-1.267 1.494-3.306 2.233-1.089.395-2.584.577-4.046.015s-2.642-1.844-3.419-3.555c-1.042-2.296-.226-4.733.967-6.226s2.652-2.381 4.184-2.811c2.383-.668 4.65-.089 6.233 1.056a8.77 8.77 0 0 1 3.124 4.167c1.3 3.637 1.029 6.073 1.707 9.34.131.632.549 1.096.898 1.586-.001-.05-.088-1.431.607-2.917.354-.757.976-1.587 1.928-2.224s2.239-.952 3.59-.85c1.309.099 2.455.583 3.349 1.356zm-17.914-6.85c-.627-.453-1.139-.678-2.244-.368-.253.071-1.356.666-1.865 1.303s-.645.951-.343 1.616c.451.994.807 1.189.926 1.235s.287.033.692-.114c.81-.294 1.793-1.205 1.793-1.205l3.064 2.79c-.145-.96-.183-2.163-.555-3.202-.275-.769-.841-1.602-1.468-2.055zm14.221 9.927c-.474-.036-.577.012-.656.064s-.215.211-.324.443c-.218.465-.257 1.082-.257 1.082l-4.579.015c.64.889 1.463 1.599 2.47 1.934 1.57.523 2.944.246 3.634-.597.597-.73.751-1.71.637-2.228s.007-.644-.925-.715z"/><path id="M" d="M98.128 104.73c.177-2.532 1.136-4.696 2.444-6.19 1.452-1.659 3.323-2.597 5.42-2.597s4.044.938 5.496 2.597c1.306 1.492 2.263 3.663 2.443 6.19h-1.815c-.049-3.406-2.822-7.25-6.211-7.177s-5.98 3.605-5.961 7.177z"/><path id="N" d="M109.512 101.178c.007 1.247-.654 2.402-1.732 3.028s-2.41.626-3.488 0-1.74-1.781-1.732-3.028c-.007-1.247.654-2.402 1.732-3.028s2.41-.626 3.488 0 1.74 1.781 1.732 3.028z"/><path id="O" d="M108.477 101.155c.005.877-.46 1.69-1.219 2.13s-1.695.44-2.454 0-1.224-1.253-1.219-2.13c-.005-.877.46-1.69 1.219-2.13s1.695-.44 2.454 0 1.224 1.253 1.219 2.13z"/><path id="P" d="M109.61 104.11c-.409.272-.717.661-.871 1.085-.309.848-.194 1.778.281 2.581.717 1.212 2.171 1.589 3.427 1.346s2.489-1.107 2.989-2.531l.673-2.073c.056.082.428.695 1.214 1.12.42.227 1.017.387 1.644.236s1.181-.62 1.597-1.29c.557-.899.368-1.963-.031-2.654s-.939-1.144-1.538-1.411c-.93-.414-1.885-.301-2.596.087a3.69 3.69 0 0 0-1.513 1.562c-.74 1.444-.772 2.476-1.238 3.802-.09.256-.287.426-.457.611.003-.021.119-.592-.077-1.252a2.31 2.31 0 0 0-.655-1.037c-.35-.32-.855-.524-1.41-.558-.538-.033-1.032.104-1.441.376zm7.682-1.843c.281-.154.503-.218.934-.026.099.044.512.355.682.65s.207.433.045.694c-.241.389-.397.45-.448.463s-.119-.002-.275-.087c-.312-.169-.659-.605-.659-.605l-1.408.991c.115-.392.2-.892.412-1.305.156-.305.435-.621.717-.775zm-6.359 3.337c.195.012.234.037.263.064s.075.1.106.203c.061.206.042.466.042.466l1.861.266c-.312.335-.688.584-1.117.667-.669.129-1.211-.064-1.443-.455-.2-.339-.206-.756-.129-.966s.034-.269.418-.246z"/><path id="Q" d="M102.46 104.11c.409.272.717.661.871 1.085.309.848.194 1.778-.281 2.581-.717 1.212-2.171 1.589-3.427 1.346s-2.489-1.107-2.989-2.531l-.673-2.073c-.056.082-.428.695-1.214 1.12-.42.227-1.017.387-1.644.236s-1.181-.62-1.597-1.29c-.557-.899-.368-1.963.031-2.654s.939-1.144 1.538-1.411c.93-.414 1.885-.301 2.596.087a3.69 3.69 0 0 1 1.513 1.562c.74 1.444.772 2.476 1.238 3.802.09.256.287.426.457.611-.003-.021-.119-.592.077-1.252a2.31 2.31 0 0 1 .655-1.037c.35-.32.855-.524 1.41-.558.538-.033 1.032.104 1.441.376zm-7.682-1.843c-.281-.154-.503-.218-.934-.026-.099.044-.512.355-.682.65s-.207.433-.045.694c.241.389.397.45.448.463s.119-.002.275-.087c.312-.169.659-.605.659-.605l1.408.991c-.115-.392-.2-.892-.412-1.305-.156-.305-.435-.621-.717-.775zm6.359 3.337c-.195.012-.234.037-.263.064s-.075.1-.106.203c-.061.206-.042.466-.042.466l-1.861.266c.312.335.688.584 1.117.667.669.129 1.211-.064 1.443-.455.2-.339.206-.756.129-.966s-.034-.269-.418-.246z"/><path id="R" d="M89.044-120.51a1.25 1.25 0 1 1-2.5 0 1.25 1.25 0 1 1 2.5 0z"/><path id="S" d="M106.936-134.989c.029-1 .341-1.929.921-2.81 1.519-2.537 6.158-2.476 5.136.626-.377 1.143-1.657 1.815-3.178 1.93.11-.301.714-1.366.226-1.574-.779.023-1.747 1.093-1.98 1.603-.034.073-.024.158-.062.23"/><path id="T" d="M105.004-134.923c-.029-1-.341-1.929-.921-2.81-1.519-2.537-6.158-2.476-5.136.626.377 1.143 1.657 1.815 3.178 1.93-.11-.301-.714-1.366-.226-1.574.779.023 1.747 1.093 1.98 1.603.034.073.024.158.062.23"/><path id="U" d="M105.88-144.61c-1.6 1.369-2.675 2.953-2.211 4.81.256 1.025.875 1.973 1.312 2.96.273.619.343 1.266.311 1.917h1.358c-.065-.656.077-1.291.311-1.917.416-.993 1.05-1.935 1.312-2.96.491-1.917-.661-3.363-2.205-4.804l-.094-.096z"/><path id="V" d="M104.614-134.164c-.284.631-1.441 1.788-2.056 2.118-.159.085.762-.049 1.175-.121.541-.094 1.245-.552 1.228-.39-.002.74.26 1.974.943 2.541l.065.055.067-.055c.683-.632.94-1.744.943-2.541-.016-.162.687.296 1.228.39.413.072 1.334.207 1.175.121-.615-.33-1.771-1.486-2.055-2.118z"/><path id="W" d="M102.744-134.955h6.463v.831h-6.463z"/><path id="X" d="M20.063 819.95c0-3.192 2.743-5.789 6.109-5.789 3.395 0 6.132 2.596 6.132 5.789 0 3.209-2.737 5.806-6.132 5.806-3.366 0-6.109-2.596-6.109-5.806"/></defs></svg>