<svg xmlns="http://www.w3.org/2000/svg" xmlns:xlink="http://www.w3.org/1999/xlink" width="178.998" height="289.999" viewBox="0 0 47.36 76.729" xmlns:v="https://vecta.io/nano"><style><![CDATA[.B{fill:#edd400}.C{fill-rule:evenodd}.D{stroke-width:.813}.E{fill:#3465a4}]]></style><g transform="matrix(.26458 0 0 .26458 -58.72526 54.94119)"><g id="A" transform="matrix(.7069 0 0 .7069 237.48 -252.99)"><path d="M156.07 114.7c-20.069 14.946 6.1 60.949-51.117 60.949S71.001 129.646 51.932 114.7c0 0 34.713-6 52.069-6s52.069 6 52.069 6z" fill="#c00" stroke="#000" class="C"/><g fill="none" stroke="#2e3436" stroke-width=".566"><use xlink:href="#C"/><use xlink:href="#C" x="-1.07" y="2.83"/><use xlink:href="#C" x="-2.81" y="5.65"/><use xlink:href="#C" x="1.2" y="-2.83"/><use xlink:href="#C" x="2.14" y="-5.66"/><use xlink:href="#C" x="2.81" y="-8.49"/><use xlink:href="#C" x="3.21" y="-11.32"/><use xlink:href="#C" x="3.34" y="-14.15"/><use xlink:href="#C" x="3.75" y="-16.98"/><use xlink:href="#C" x="4.15" y="-19.81"/><use xlink:href="#C" x="4.68" y="-22.64"/><use xlink:href="#C" x="5.35" y="-25.47"/><use xlink:href="#C" x="5.89" y="-28.3"/><use xlink:href="#C" x="6.55" y="-31.13"/><use xlink:href="#C" x="7.4" y="-33.96"/><use xlink:href="#C" x="8.74" y="-36.78"/><use xlink:href="#C" x="10.63" y="-39.61"/><use xlink:href="#C" x="-5.62" y="8.48"/><use xlink:href="#C" x="-8.7" y="11.31"/><use xlink:href="#C" x="13.32" y="-42.44"/><use xlink:href="#C" x="-0.936" y="1.452"/><use xlink:href="#C" x="-2.006" y="4.282"/><use xlink:href="#C" x="-3.746" y="7.102"/><use xlink:href="#C" x="0.264" y="-1.378"/><use xlink:href="#C" x="1.204" y="-4.208"/><use xlink:href="#C" x="1.874" y="-7.038"/><use xlink:href="#C" x="2.274" y="-9.868"/><use xlink:href="#C" x="2.404" y="-12.698"/><use xlink:href="#C" x="2.814" y="-15.528"/><use xlink:href="#C" x="3.214" y="-18.358"/><use xlink:href="#C" x="3.744" y="-21.188"/><use xlink:href="#C" x="4.414" y="-24.018"/><use xlink:href="#C" x="4.954" y="-26.848"/><use xlink:href="#C" x="5.614" y="-29.678"/><use xlink:href="#C" x="6.464" y="-32.508"/><use xlink:href="#C" x="7.804" y="-35.328"/><use xlink:href="#C" x="9.694" y="-38.158"/><use xlink:href="#C" x="-6.556" y="9.932"/><use xlink:href="#C" x="-9.636" y="12.762"/><use xlink:href="#C" x="12.384" y="-40.988"/></g><g stroke="#000"><path d="M53.42 99.651s33.72-6 50.58-6 50.58 6 50.58 6c3.834 0 6.92 3.086 6.92 6.92v1.16c0 3.834-3.086 6.92-6.92 6.92 0 0-33.72-6-50.58-6s-50.58 6-50.58 6c-3.834 0-6.92-3.086-6.92-6.92v-1.16c0-3.834 3.086-6.92 6.92-6.92z" class="B"/><g class="E"><use xlink:href="#D"/><use xlink:href="#D" x="13.142" y="-2.899"/><use xlink:href="#D" x="26.285" y="-4.797"/><use xlink:href="#D" x="39.428" y="-6.296"/><use xlink:href="#D" x="52.571" y="-6.296"/><use xlink:href="#D" x="65.714" y="-4.797"/><use xlink:href="#D" x="92"/><use xlink:href="#D" x="78.857" y="-2.899"/></g><g stroke-width="1.186" class="B"><path d="M111.472 160.151c-.417-1.908-14.529-1.907-14.946 0a5.31 5.31 0 0 0-.072.419c-.374 2.778.405 10.354 7.546 17.584 7.14-7.23 7.919-14.806 7.545-17.584a5.33 5.33 0 0 0-.072-.419z" class="C"/><path d="M103.998 178.154c-10.541-2.204-16.978-9.659-17.443-17.502-.19-3.215 10.03-2.592 9.898-.082"/><g class="C"><path d="M111.549 160.566c.374 2.778-.405 10.354-7.545 17.584 10.541-2.204 16.978-9.659 17.443-17.502.19-3.215-10.03-2.592-9.898-.082z"/><path d="M103.998 178.154c-7.141-7.23-7.92-14.806-7.546-17.584.132-2.51-10.089-3.132-9.898.082.465 7.843 6.902 15.298 17.444 17.502z"/></g><path d="M127.808 162.957c.437-2.047 6.745-2.06 6.55-.705-.142 2.78-2.446 14.003-30.36 15.903m-23.893-15.198c-.439-2.047-6.768-2.06-6.573-.705.142 2.78 2.455 14.003 30.466 15.903"/><path d="M87.139 161.835c-.247-3.071-9.794-3.417-9.735-1.505.111 3.639 1.994 14.972 28.291 17.824"/><path d="M103.998 178.154c-10.541-2.489-16.978-10.907-17.443-19.763-.19-3.63 10.03-2.927 9.898-.093"/><path d="M120.782 161.835c.249-3.071 9.867-3.417 9.808-1.505-.112 3.639-2.009 14.972-28.503 17.824"/><path d="M103.998 178.154c10.541-2.489 16.978-10.907 17.443-19.763.19-3.63-10.03-2.927-9.898-.093"/><path d="M103.998 178.154c-7.538-9.988-7.986-20.481-7.472-23.558.417-2.496 14.529-2.496 14.946 0 .514 3.077.065 13.569-7.472 23.558"/></g><g transform="matrix(1.384 0 0 1.384 -39.937 -66.524)"><g transform="matrix(.88918 0 0 .88918 11.525 18.652)" class="D"><path d="M127.36 207.74c-15.746-10.995-12.562-21.253-16.852-20.396H97.427c-4.2-.851-1.62 9.729-16.418 20.396z" class="B"/><g class="C"><path d="M93.619 176.89c4.731.618 15.846.618 20.577 0a13.35 13.35 0 0 0 1.314-.227c2.967-.706 3.71-2.181 2.349-3.341-4.437.441-9.116.677-13.952.677a141.48 141.48 0 0 1-13.951-.677c-1.361 1.159-.618 2.635 2.349 3.341.349.083.793.158 1.314.227z" fill="#c00"/><g fill="#ffd42a"><path d="M112.2 180.5c-3.035.799-13.551.799-16.586 0-1.322.611-1.496 1.559 0 2.114.278.073.618.139 1.009.199 3.496.533 11.072.533 14.568 0 .391-.06.731-.126 1.009-.199 1.496-.555 1.322-1.502 0-2.114z"/><use xlink:href="#E"/><use xlink:href="#F"/></g><path d="M109.98 182.81c-2.891.441-9.156.441-12.047 0 .383.651.486 1.544.248 2.489 3.544.469 8.007.469 11.548 0-.235-.945-.132-1.839.251-2.489z" class="E"/><use xlink:href="#E" fill="#c00"/></g><use xlink:href="#F" class="B"/><path d="M95.614 180.5c3.035.799 13.551.799 16.586 0 .039-.868-.061-2.296 1.995-3.612-4.732.618-15.846.618-20.577 0 2.057 1.316 1.957 2.745 1.995 3.612z" class="C E"/><path d="M101.58 188c-.671 12.756-3.027 15.689-9.215 24.193m23.198 0c-6.186-8.375-8.542-11.18-9.213-23.936" class="B"/><path d="M97.264 187.63c4.337.62 8.817.62 13.011 0 2.178-.342 1.74-2.594-.751-2.5a41.62 41.62 0 0 1-11.505 0c-2.494-.094-2.932 2.157-.754 2.5h0z" fill="#c4a000" class="C"/></g><g stroke-width=".723"><path d="M76.143 206.77h55.717v4.117H76.143z" class="B"/><path d="M78.978 202.44h50.043v4.117H78.978z" class="E"/></g></g><g class="B"><path transform="matrix(.99224 -.1243 .17639 .98432 0 0)" d="M36.379 137.66h6.576v14.904h-6.576z"/><path d="M98.753 125.12h10.493v14.391H98.753z"/><path transform="matrix(-.99231 -.12375 -.1414 .98995 0 0)" d="M-164.35 111.77h6.605v14.82h-6.605z"/></g></g></g><use xlink:href="#A" y="156"/></g><defs ><path id="C" d="M109.25 151.24c15.34-.117 32.374 6.154 32.374 6.154"/><path id="D" d="M59.786 110.784l-3.49.052-2.217-2.696.726-3.414 3.122-1.561 3.167 1.468.827 3.391z"/><path id="E" d="M112.2 180.5c1.322.611 1.496 1.559 0 2.114-3.035.799-13.551.799-16.586 0-1.496-.555-1.322-1.502 0-2.114"/><path id="F" d="M95.614 180.5c3.035.799 13.551.799 16.586 0"/></defs></svg>