<svg xmlns="http://www.w3.org/2000/svg" xmlns:xlink="http://www.w3.org/1999/xlink" width="178.998" height="289.999" viewBox="0 0 47.36 76.729" xmlns:v="https://vecta.io/nano"><g transform="matrix(.26458 0 0 .26458 -58.34526 -29.50281)"><g id="A"><g stroke="#000"><g transform="matrix(1 0 0 1.2235 213.1546 81.893)"><g fill="#c00" stroke-width=".856"><use xlink:href="#C"/><use xlink:href="#C"/></g><g stroke-width=".852"><path d="M57.316 51.939l-9.423-7.756c-.333-.304-1.626-.14-1.986.081-.888.628-1.234 1.149-1.661 2.028-.427 2.197.975 2.98 1.077 3.156l11.156 9.187c1.02.274 1.767-.131 1.799-1.535v-2.376c0-.649.217-1.565-.962-2.785z" fill="#edd400"/><path d="M50.924 42.453a7.86 7.86 0 0 0-2.214.319c-.762.278-1.144 1.107-.388 1.761l7.098 5.844c1.472 1.217 2.85 1.014 2.859-1.077v-.114c-.001-3.718-3.294-6.732-7.355-6.732z" fill="#c00"/></g><g fill="#c00" stroke-width=".856"><use xlink:href="#D"/><use xlink:href="#D"/></g><g fill="#edd400" stroke-width=".856"><use xlink:href="#E"/><use xlink:href="#E"/></g></g><g fill="#edd400"><g stroke-width=".32"><path d="M264.088 134.587c-2.196 0-3.983-1.835-3.983-4.091s1.787-4.091 3.983-4.091 3.983 1.835 3.983 4.091-1.786 4.091-3.983 4.091z"/><path d="M264.088 126.967c1.894 0 3.434 1.583 3.434 3.529s-1.541 3.528-3.434 3.528-3.435-1.583-3.435-3.528 1.541-3.529 3.435-3.529"/></g><path d="M264.088 125.842c-2.499 0-4.533 2.087-4.533 4.654s2.033 4.653 4.533 4.653 4.532-2.087 4.532-4.653-2.033-4.654-4.532-4.654z" stroke-width=".901"/></g><g fill="#729fcf" stroke-width="1.027" stroke-linecap="round"><path d="M264.132 385.841c-1.069-2.168-7.6-7.982-7.601-15l.057-189.708c0-.498.293-.902.653-.902h7.028"/><path d="M264.118 385.828c1.069-2.168 7.6-7.544 7.601-14.986l-.057-189.72c0-.498-.293-.902-.653-.902h-7.028" fill="#3465a4"/></g></g><g transform="matrix(.79515 0 0 .79515 181.153 100.4741)"><path d="M124.958 114.063c-2.356 0-4.274-1.851-4.274-4.125v-6.531l-.18.004-2.028.05c-5.23.157-13.335 6.625-13.728 6.942-.2.178-.46.276-.734.276a1.2 1.2 0 0 1-.742-.262c-.087-.071-8.408-6.795-13.743-6.956l-2.209-.055v6.532c0 2.275-1.917 4.125-4.273 4.125s-4.276-1.851-4.276-4.125v-6.336h-4.252c-2.093 0-3.796-1.704-3.796-3.798a3.8 3.8 0 0 1 3.796-3.798h4.252v-6.735c0-2.361 1.918-4.279 4.276-4.279a4.28 4.28 0 0 1 4.273 4.279v6.855l.828.001c5.284 0 14.962-9.069 15.059-9.161l.048-.044a1.07 1.07 0 0 1 .73-.283c.294 0 .589.119.812.326 3.367 3.169 10.848 9.162 15.061 9.162h.827v-6.855c0-2.361 1.918-4.279 4.274-4.279s4.276 1.919 4.276 4.279v6.735h4.251a3.8 3.8 0 0 1 3.796 3.798c0 2.094-1.702 3.798-3.796 3.798h-4.251v6.336c0 2.276-1.919 4.125-4.276 4.125z" fill="#fcef3c"/><path d="M124.958 85.609c2.018 0 3.659 1.644 3.659 3.663v7.351h4.867c1.753 0 3.179 1.428 3.179 3.182s-1.427 3.181-3.179 3.181h-4.867v6.952c0 1.935-1.642 3.509-3.66 3.509s-3.658-1.574-3.658-3.509v-7.163l-2.842.069c-5.531.165-13.764 6.807-14.113 7.091a.48.48 0 0 1-.331.128.57.57 0 0 1-.356-.128c-.348-.283-8.582-6.924-14.11-7.091l-2.843-.069v7.163c0 1.935-1.64 3.509-3.657 3.509s-3.659-1.574-3.659-3.509v-6.952h-4.867c-1.753 0-3.18-1.427-3.18-3.181s1.428-3.182 3.18-3.182h4.867v-7.351c0-2.02 1.642-3.663 3.659-3.663s3.657 1.644 3.657 3.663v7.468l1.444.004c5.5 0 15.078-8.947 15.482-9.328l.043-.039c.089-.083.199-.12.311-.12.139 0 .281.058.39.16.405.381 9.983 9.328 15.482 9.328l1.444-.004v-7.468c0-2.021 1.642-3.664 3.658-3.664" fill="#313131"/><g stroke="#000"><path d="M124.958 84.375a4.9 4.9 0 0 0-4.892 4.896v6.238h-.211c-4.011 0-11.329-5.883-14.637-8.993a1.8 1.8 0 0 0-1.235-.494 1.68 1.68 0 0 0-1.153.453l-.038.034c-3.316 3.117-10.634 9-14.645 9h-.209v-6.238a4.9 4.9 0 0 0-4.891-4.896c-2.698 0-4.893 2.197-4.893 4.896v6.117h-3.635a4.42 4.42 0 0 0-4.413 4.415 4.42 4.42 0 0 0 4.413 4.414h3.635v5.719c0 2.615 2.195 4.743 4.893 4.743s4.891-2.128 4.891-4.743v-5.9l1.569.039c5.139.154 13.29 6.747 13.371 6.814.326.262.728.404 1.136.404a1.71 1.71 0 0 0 1.132-.422c2.843-2.308 9.257-6.673 13.348-6.796l1.572-.039v5.9c0 2.615 2.194 4.743 4.891 4.743s4.893-2.127 4.893-4.743v-5.719h3.634a4.42 4.42 0 0 0 4.413-4.414 4.42 4.42 0 0 0-4.413-4.416h-3.634V89.27a4.9 4.9 0 0 0-4.892-4.895z" fill="#edd400"/><g fill="#c00" stroke-width="1"><path d="M104.057 105.109c-3.141 0-5.697-2.562-5.697-5.711s2.556-5.709 5.697-5.709a5.71 5.71 0 0 1 5.696 5.709c0 3.149-2.555 5.711-5.696 5.711z"/><path d="M104.057 94.303c2.8 0 5.079 2.285 5.079 5.093s-2.279 5.093-5.079 5.093-5.081-2.284-5.081-5.093 2.28-5.093 5.081-5.093"/><path d="M104.057 93.07a6.33 6.33 0 0 0-6.314 6.327 6.33 6.33 0 0 0 6.314 6.327c3.481 0 6.312-2.839 6.312-6.327s-2.831-6.327-6.312-6.327z"/></g></g></g></g><use transform="rotate(180 310.85 255.94)" xlink:href="#A"/></g><defs ><path id="C" d="M47.513 65.519c-1.044-.859-2.293-1.462-2.778-1.341s-.926 2.057-.926 3.438v3.411c0 1.382.494 3.52 1.095 4.752 0 0 2.197 4.492 6.258 4.492 3.703 0 5.963-3.655 5.963-3.655.718-1.163.453-2.817-.591-3.676z"/><path id="D" d="M47.73 51.462c-1.045-.857-2.311-1.64-2.812-1.739s-1.349 1.687-1.349 3.069v.333c0 1.382.857 3.21 1.904 4.064l10.898 8.879c1.048.853 1.905.421 1.905-.961v-2.478c0-1.382-.854-3.213-1.898-4.07z"/><path id="E" d="M47.261 58.643c-1.047-.853-2.307-1.591-2.798-1.639s-.894 1.989-.894 3.364.854 3.202 1.897 4.06l10.829 8.906c1.043.859 1.916 1.419 1.939 1.244s.041-1.775.041-3.157v-1.294c0-1.381-.857-3.21-1.905-4.063z"/></defs></svg>