<svg xmlns="http://www.w3.org/2000/svg" xmlns:xlink="http://www.w3.org/1999/xlink" width="178.998" height="289.999" viewBox="0 0 47.36 76.729" xmlns:v="https://vecta.io/nano"><style><![CDATA[.B{fill:#a40000}.C{stroke:#000}.D{fill:#fce94f}.E{stroke-linejoin:round}.F{fill:none}.G{stroke:#2e3436}.H{stroke-width:.48}.I{stroke-width:1.048}.J{stroke-width:1.293}.K{stroke-width:1.199}.L{stroke-width:1.617}.M{stroke-width:1.579}.N{stroke-width:.901}.O{stroke-width:2.061}.P{stroke-width:1.676}.Q{stroke-width:1.219}.R{stroke-width:1.19}]]></style><g transform="matrix(.2653 0 0 .26371 -223.67326 -112.97781)"><g id="A" transform="matrix(1 0 0 -1 207 974.75)"><g transform="matrix(.70811 -.36962 .36961 .70811 593.49 409.59)"><g class="C"><g transform="matrix(1.5273 -.3905 .38324 .98066 -205.76 -17.398)"><use xlink:href="#C" transform="matrix(-.76574 .45633 .35286 1.0355 88.376 -57.12)" class="D I"/><use xlink:href="#D" transform="matrix(-.49825 .15767 .1537 .4971 114.72 118.93)" class="B E J"/></g><use xlink:href="#E" fill="#4e9a06" class="K"/></g><g class="D"><use xlink:href="#F"/><g transform="matrix(-.6287 -.50598 .659 -.3867 60.569 197.91)" class="C"><use xlink:href="#G" transform="matrix(.77366 .43656 -.33439 1.0443 104.16 -214.21)" class="L"/><g class="M"><use xlink:href="#H"/><use xlink:href="#I" class="F"/><use xlink:href="#J" transform="matrix(.68424 .61043 -.76487 .77911 115.23 -32.258)" class="B E"/></g></g></g><g class="F G"><use xlink:href="#K" transform="matrix(-.2393 .024023 .21634 1.1617 40.519 -15.438)" class="N"/><use xlink:href="#L" class="H"/></g><g transform="matrix(.87242 0 0 .72471 5.6945 12.235)" class="C"><use xlink:href="#G" transform="matrix(-.099526 -.63974 .5203 -.7523 -60.305 487.97)" class="D O"/><use xlink:href="#J" transform="matrix(-.003597 -.56026 .6263 -.28362 -.17319 303.84)" class="B E P"/></g><g class="F G H"><use xlink:href="#M"/><use xlink:href="#N"/></g><g transform="matrix(-.47125 -.74528 1 -.57274 4.9423 271.72)" class="C D"><use xlink:href="#G" transform="matrix(.77366 .43656 -.33439 1.0443 104.16 -214.21)" class="Q"/><g class="R"><use xlink:href="#H"/><use xlink:href="#I" class="F"/><use xlink:href="#J" transform="rotate(31.561 93.406 112.09)" class="B E"/></g></g></g><g transform="matrix(.67591 .42566 -.42566 .67591 785.547688 368.394656)" fill="#c4a000"><g class="C"><g transform="matrix(1.5273 -.3905 .38324 .98066 -205.76 -17.398)"><use xlink:href="#C" transform="matrix(-.76574 .45633 .35286 1.0355 88.376 -57.12)" class="D I"/><use xlink:href="#D" transform="matrix(-.49825 .15767 .1537 .4971 114.72 118.93)" class="B E J"/></g><use xlink:href="#E" class="B K"/></g><g class="D"><use xlink:href="#F"/><g transform="matrix(-.6287 -.50598 .659 -.3867 60.569 197.91)" class="C"><use xlink:href="#G" transform="matrix(.77366 .43656 -.33439 1.0443 104.16 -214.21)" class="L"/><g class="M"><use xlink:href="#H"/><use xlink:href="#I" class="F"/><use xlink:href="#J" transform="matrix(.68424 .61043 -.76487 .77911 115.23 -32.258)" class="B E"/></g></g></g><g class="F G"><use xlink:href="#K" transform="matrix(-.2393 .024023 .21634 1.1617 40.519 -15.438)" class="N"/><use xlink:href="#L" class="H"/></g><g transform="matrix(.87242 0 0 .72471 5.6945 12.235)" class="C"><use xlink:href="#G" transform="matrix(-.099526 -.63974 .5203 -.7523 -60.305 487.97)" class="D O"/><use xlink:href="#J" transform="matrix(-.003597 -.56026 .6263 -.28362 -.17319 303.84)" class="B E P"/></g><g class="F G H"><use xlink:href="#M"/><use xlink:href="#N"/></g><g transform="matrix(-.47125 -.74528 1 -.57274 4.9423 271.72)" class="C D"><use xlink:href="#G" transform="matrix(.77366 .43656 -.33439 1.0443 104.16 -214.21)" class="Q"/><g class="R"><use xlink:href="#H"/><use xlink:href="#I" class="F"/><use xlink:href="#J" transform="rotate(31.561 93.406 112.09)" class="B E"/></g></g></g></g><g transform="matrix(0 -.79877 .79877 0 818.916194 618.59262)" fill="#c4a000"><g class="C"><g transform="matrix(1.5273 -.3905 .38324 .98066 -205.76 -17.398)"><use xlink:href="#C" transform="matrix(-.76574 .45633 .35286 1.0355 88.376 -57.12)" class="D I"/><use xlink:href="#D" transform="matrix(-.49825 .15767 .1537 .4971 114.72 118.93)" class="B E J"/></g><use xlink:href="#E" class="K"/></g><g class="D"><use xlink:href="#F"/><g transform="matrix(-.6287 -.50598 .659 -.3867 60.569 197.91)" class="C"><use xlink:href="#G" transform="matrix(.77366 .43656 -.33439 1.0443 104.16 -214.21)" class="L"/><g class="M"><use xlink:href="#H"/><use xlink:href="#I" class="F"/><use xlink:href="#J" transform="matrix(.68424 .61043 -.76487 .77911 115.23 -32.258)" class="B E"/></g></g></g><g class="F G"><use xlink:href="#K" transform="matrix(-.2393 .024023 .21634 1.1617 40.519 -15.438)" class="N"/><use xlink:href="#L" class="H"/></g><g transform="matrix(.87242 0 0 .72471 5.6945 12.235)" class="C"><use xlink:href="#G" transform="matrix(-.099526 -.63974 .5203 -.7523 -60.305 487.97)" class="D O"/><use xlink:href="#J" transform="matrix(-.003597 -.56026 .6263 -.28362 -.17319 303.84)" class="B E P"/></g><g class="F G H"><use xlink:href="#M"/><use xlink:href="#N"/></g><g transform="matrix(-.47125 -.74528 1 -.57274 4.9423 271.72)" class="C D"><use xlink:href="#G" transform="matrix(.77366 .43656 -.33439 1.0443 104.16 -214.21)" class="Q"/><g class="R"><use xlink:href="#H"/><use xlink:href="#I" class="F"/><use xlink:href="#J" transform="rotate(31.561 93.406 112.09)" class="B E"/></g></g></g><use transform="rotate(180 932.44 573.86)" width="2485" height="1592" xlink:href="#A"/></g><defs ><path id="C" d="m104.97 269.5a2.4702 4.464 0 1 1-4.9404 0 2.4702 4.464 0 1 1 4.9404 0z"/><path id="D" d="m104.04 268.74a1.332 3.4834 0 1 1-2.6641 0 1.332 3.4834 0 1 1 2.6641 0z"/><path id="E" d="M34.154 100.74c4.033 40.324 7.918 27.988 14.189 66.122 1.049 6.889 1.684 17.063 2.137 20.419 1.703 12.342 2.326 14.181 2.326 14.181s8.869-.93 9.443 7.131l1.629-30.415c.349-2.191 3.685-5.144 3.976-7.354s-2.731-3.785-2.121-8.661c-.293-21.523 6.488-9.319 8.995-29.324-.374-.863-1.722.574-1.746-2.234s2.63-7.504-.884-7.646c.195-2.537 4.386-5.041 4.552-7.546s1.139-4.498 1.272-6.915c.438-8.659-.662 1.604-.813-7.021-.053-2.779.623-3.997.741-5.797s-.664-3.087-1.396-5.425-1.98-3.084-1.98-3.084c-2.033-1.205-6.751-13.787-13.509-13.521h0c-1.513.125-3.11.755-5.201.803-6.693.155-15.539 1.507-20.399 13.682-2.25 6.173-2.25 6.173-1.21 12.608z"/><path id="F" d="M56.761 137.12c1.337 7.699 2.348 15.434 2.641 23.192.078.901.146 4.754.156 2.038l.215-21.555c-.185-5.483 1.301-10.362 1.279-15.843.118-3.574.241-7.137-.169-10.713-.081-6.357 1.4-11.566 1.111-17.924-1.264-2.927-.093-10.198-5.611-10.36-5.967 1.667-2.632 4.24-3.11 6.458.127 4.005-.085 10.382-.069 12.481.954 1.438 2.711 21.552 3.559 32.227z"/><path id="G" d="m107.98 269.5a5.4776 2.9164 0 1 1-10.955 0 5.4776 2.9164 0 1 1 10.955 0z"/><path id="H" d="M89.773 108.57s.379-2.297-.757-6.207"/><path id="I" d="M97.648 114.33s1.589-2.201 5.345-2.231"/><path id="J" d="m96.07 112.09a2.6637 1.0344 0 1 1-5.3274 0 2.6637 1.0344 0 1 1 5.3274 0z"/><path id="K" d="M97.493 143.39c-1.436-2.633 1.568-3.191 2.974-1.622 1.486 1.658.835 4.252-.878 5.466-2.149 1.523-5.162.741-6.562-1.408-1.619-2.483-.715-5.86 1.756-7.403 2.752-1.718 6.44-.711 8.104 2.025 1.813 2.98.716 6.943-2.247 8.714-3.182 1.901-7.391.726-9.258-2.439-1.984-3.364-.738-7.797 2.609-9.752 2.909-1.7 6.695-1.149 9.05 1.244"/><path id="L" d="M36.063 90.307c-.436-.965 1.245-4.79 3.608-7.674 3.349-4.087 5.728-5.2 9.765-6.43m-12.54 12.736c.009-1.135 1.652-4.13 3.398-6.268 2.932-3.59 5.658-4.798 8.389-5.561M37.907 88.193c-.058-.93 1.468-3.482 2.974-5.336 2.479-3.049 4.306-3.872 6.986-4.767m-8.814 8.823c.103-.75 1.425-2.787 2.44-4.046 1.973-2.449 3.989-3.374 5.471-3.688m-6.426 6.149c.177-.44 1.222-1.873 1.676-2.45 1.376-1.749 2.675-2.342 3.705-2.44m-3.43 3.349c.523-.812 1.539-1.586 2.08-1.722"/><path id="M" d="M52.59 176.8s-.834 2.186.106 6.668l1.622 9.376M51.892 175.1s-.648 3.873.292 8.355c.928 7.141 1.656 11.039 1.656 11.039m-2.653-20.841s-.481 5.307.459 9.789l1.718 12.638m-2.983-23.877s-.213 6.744.727 11.226l1.771 14.574"/><path id="N" d="M40.118 112.02s-1.544 1.817-.839 6.233c1.489 9.332 4.216 12.247 4.216 12.247m-4.54-21.862s-1.439 2.077-.191 9.649c1.537 9.327 5.211 16.77 5.211 16.77m-6.045-28.998s-1.364 1.726.331 12.261c1.501 9.331 5.731 18.796 5.731 18.796m-6.939-33.466s-1.642.031.668 14.706C39.188 127.691 44.133 140 44.133 140m-8.148-39.166s-1.09 2.761 1.219 17.436c1.469 9.334 7.04 23.647 7.04 23.647"/></defs></svg>