<svg xmlns="http://www.w3.org/2000/svg" xmlns:xlink="http://www.w3.org/1999/xlink" width="178.998" height="289.999" viewBox="0 0 47.36 76.729" xmlns:v="https://vecta.io/nano"><g transform="matrix(.26458 0 0 .26458 -222.83326 -29.37681)"><g id="A" transform="matrix(0 .49538 -.49538 0 1011 204.34)"><g stroke="#000"><g fill="#c00" stroke-width="1"><use xlink:href="#F"/><use xlink:href="#F"/></g><path d="M112.33 69.136l-11.851-8.49c-.419-.333-2.045-.153-2.498.088-1.117.688-1.552 1.258-2.089 2.22-.536 2.405 1.227 3.262 1.355 3.455l14.03 10.056c1.282.3 2.222-.143 2.263-1.68v-2.601c0-.71.273-1.713-1.21-3.049z" fill="#edd400"/><g fill="#c00"><path d="M104.29 58.752c-.972 0-1.907.125-2.784.349-.958.304-1.438 1.212-.488 1.927l8.926 6.396c1.851 1.332 3.584 1.111 3.596-1.179v-.125c-.001-4.07-4.143-7.369-9.249-7.369z"/><g stroke-width="1"><use xlink:href="#G"/><use xlink:href="#G"/></g></g><g fill="#edd400"><g stroke-width=".355"><path d="M103.922 59.087c-2.468 0-4.475-2.012-4.475-4.485s2.008-4.486 4.475-4.486 4.475 2.012 4.475 4.486-2.007 4.485-4.475 4.485z"/><path d="M103.922 50.733a3.87 3.87 0 0 1 3.858 3.87 3.87 3.87 0 0 1-3.858 3.868 3.87 3.87 0 0 1-3.86-3.868 3.87 3.87 0 0 1 3.86-3.87"/></g><path d="M103.922 49.5c-2.808 0-5.093 2.289-5.093 5.103s2.285 5.102 5.093 5.102 5.091-2.289 5.091-5.102-2.284-5.103-5.091-5.103z"/><g stroke-width="1"><use xlink:href="#H"/><use xlink:href="#H"/></g></g><g fill="#729fcf" stroke-width="1" stroke-linecap="round"><path d="M104.359 269.531c-1.345-1.784-9.559-12.5-9.559-20.021l.072-148.469c0-.41.368-.742.821-.742h8.839"/><path d="M104.341 269.52c1.345-1.784 9.559-12.5 9.559-20.021l-.072-148.469c0-.41-.368-.742-.821-.742h-8.839" fill="#3465a4"/></g></g><path d="M124.958 114.063c-2.356 0-4.274-1.851-4.274-4.125v-6.531l-.18.004-2.028.05c-5.23.157-13.335 6.625-13.728 6.942-.2.178-.46.276-.734.276a1.2 1.2 0 0 1-.742-.262c-.087-.071-8.408-6.795-13.743-6.956l-2.209-.055v6.532c0 2.275-1.917 4.125-4.273 4.125s-4.276-1.851-4.276-4.125v-6.336h-4.252c-2.093 0-3.796-1.704-3.796-3.798a3.8 3.8 0 0 1 3.796-3.798h4.252v-6.735c0-2.361 1.918-4.279 4.276-4.279a4.28 4.28 0 0 1 4.273 4.279v6.855l.828.001c5.284 0 14.962-9.069 15.059-9.161l.048-.044a1.07 1.07 0 0 1 .73-.283c.294 0 .589.119.812.326 3.367 3.169 10.848 9.162 15.061 9.162h.827v-6.855c0-2.361 1.918-4.279 4.274-4.279s4.276 1.919 4.276 4.279v6.735h4.251a3.8 3.8 0 0 1 3.796 3.798c0 2.094-1.702 3.798-3.796 3.798h-4.251v6.336c0 2.276-1.919 4.125-4.276 4.125z" fill="#fcef3c"/><path d="M124.958 85.609c2.018 0 3.659 1.644 3.659 3.663v7.351h4.867c1.753 0 3.179 1.428 3.179 3.182s-1.427 3.181-3.179 3.181h-4.867v6.952c0 1.935-1.642 3.509-3.66 3.509s-3.658-1.574-3.658-3.509v-7.163l-2.842.069c-5.531.165-13.764 6.807-14.113 7.091a.48.48 0 0 1-.331.128.57.57 0 0 1-.356-.128c-.348-.283-8.582-6.924-14.11-7.091l-2.843-.069v7.163c0 1.935-1.64 3.509-3.657 3.509s-3.659-1.574-3.659-3.509v-6.952h-4.867c-1.753 0-3.18-1.427-3.18-3.181s1.428-3.182 3.18-3.182h4.867v-7.351c0-2.02 1.642-3.663 3.659-3.663s3.657 1.644 3.657 3.663v7.468l1.444.004c5.5 0 15.078-8.947 15.482-9.328l.043-.039c.089-.083.199-.12.311-.12.139 0 .281.058.39.16.405.381 9.983 9.328 15.482 9.328l1.444-.004v-7.468c0-2.021 1.642-3.664 3.658-3.664" fill="#313131"/><g stroke="#000"><path d="M124.958 84.375a4.9 4.9 0 0 0-4.892 4.896v6.238h-.211c-4.011 0-11.329-5.883-14.637-8.993a1.8 1.8 0 0 0-1.235-.494 1.68 1.68 0 0 0-1.153.453l-.038.034c-3.316 3.117-10.634 9-14.645 9h-.209v-6.238a4.9 4.9 0 0 0-4.891-4.896c-2.698 0-4.893 2.197-4.893 4.896v6.117h-3.635a4.42 4.42 0 0 0-4.413 4.415 4.42 4.42 0 0 0 4.413 4.414h3.635v5.719c0 2.615 2.195 4.743 4.893 4.743s4.891-2.128 4.891-4.743v-5.9l1.569.039c5.139.154 13.29 6.747 13.371 6.814.326.262.728.404 1.136.404a1.71 1.71 0 0 0 1.132-.422c2.843-2.308 9.257-6.673 13.348-6.796l1.572-.039v5.9c0 2.615 2.194 4.743 4.891 4.743s4.893-2.127 4.893-4.743v-5.719h3.634a4.42 4.42 0 0 0 4.413-4.414 4.42 4.42 0 0 0-4.413-4.416h-3.634V89.27a4.9 4.9 0 0 0-4.892-4.895z" fill="#edd400"/><g fill="#c00" stroke-width="1"><path d="M104.057 105.109c-3.141 0-5.697-2.562-5.697-5.711s2.556-5.709 5.697-5.709a5.71 5.71 0 0 1 5.696 5.709c0 3.149-2.555 5.711-5.696 5.711z"/><path d="M104.057 94.303c2.8 0 5.079 2.285 5.079 5.093s-2.279 5.093-5.079 5.093-5.081-2.284-5.081-5.093 2.28-5.093 5.081-5.093"/><path d="M104.057 93.07a6.33 6.33 0 0 0-6.314 6.327 6.33 6.33 0 0 0 6.314 6.327c3.481 0 6.312-2.839 6.312-6.327s-2.831-6.327-6.312-6.327z"/></g></g></g><use id="B" transform="rotate(270 860.98 246.86)" xlink:href="#A"/><use id="C" xlink:href="#B" x="124"/><use id="D" transform="rotate(180 993.98 255.86)" xlink:href="#C"/><use xlink:href="#D" x="-124"/></g><defs ><path id="F" d="M100 83.999c-1.312-.94-2.884-1.6-3.493-1.468s-1.164 2.251-1.164 3.764v3.733c0 1.512.621 3.853 1.377 5.202 0 0 2.763 4.916 7.87 4.916 4.658 0 7.5-4.001 7.5-4.001.904-1.273.57-3.083-.743-4.023z"/><path id="G" d="M100.275 68.613c-1.314-.938-2.906-1.795-3.536-1.904s-1.696 1.847-1.696 3.359v.364c0 1.512 1.078 3.513 2.395 4.448l13.706 9.718c1.318.933 2.395.461 2.395-1.052v-2.712c0-1.512-1.074-3.517-2.388-4.455z"/><path id="H" d="M99.684 76.473c-1.317-.934-2.901-1.741-3.519-1.794s-1.124 2.178-1.124 3.683 1.074 3.505 2.386 4.444l13.619 9.748c1.312.94 2.41 1.553 2.439 1.362s.052-1.943.052-3.455v-1.416c0-1.512-1.077-3.514-2.395-4.448z"/></defs></svg>