<svg xmlns="http://www.w3.org/2000/svg" xmlns:xlink="http://www.w3.org/1999/xlink" width="178.998" height="289.999" viewBox="0 0 47.36 76.729" xmlns:v="https://vecta.io/nano"><defs><radialGradient id="A" cx="100" cy="144" r="60.5" gradientTransform="matrix(-.52727 .52727 -.53636 -.53636 229.96 168.51)" gradientUnits="userSpaceOnUse"><stop stop-color="#c4a000" offset="0"/><stop stop-color="#c4a000" offset=".808"/><stop stop-color="#edd400" offset="1"/></radialGradient></defs><g transform="matrix(.26458 0 0 .26458 -332.64326 139.14219)"><g id="B" transform="matrix(.58154 0 0 .58154 1238 -575.89)"><path d="M132.693 203.055l-.313 3.443-3.193-1.326-.582 3.408-3.079-1.572-.848 3.352-2.946-1.809-1.108 3.275-2.795-2.034-1.362 3.178-2.627-2.248-1.607 3.061-2.442-2.447-1.842 2.926-2.243-2.631-2.066 2.772-2.03-2.799-2.277 2.601-1.804-2.949-2.474 2.415-1.567-3.082-2.656 2.213-1.32-3.195-2.821 1.998-1.065-3.289-2.969 1.77-.804-3.362-3.099 1.532-.538-3.415-3.21 1.284-.268-3.447-3.301 1.028.003-3.457-3.371.766.274-3.446-3.421.499.544-3.414-3.449.229.81-3.361-3.457-.042 1.071-3.287-3.443-.313 1.326-3.193-3.408-.582 1.572-3.079-3.352-.848 1.809-2.946-3.275-1.108 2.034-2.795-3.178-1.362 2.248-2.627-3.061-1.607 2.447-2.442-2.926-1.842 2.631-2.243-2.772-2.066 2.799-2.03-2.601-2.277 2.949-1.804-2.415-2.474 3.082-1.567-2.213-2.656 3.195-1.32-1.998-2.821 3.289-1.065-1.77-2.969 3.362-.804-1.532-3.099 3.415-.538-1.284-3.21 3.447-.268-1.028-3.301 3.457.003-.766-3.371 3.446.274-.499-3.421 3.414.544-.229-3.449 3.361.81.042-3.457 3.287 1.071.313-3.443 3.193 1.326.582-3.408 3.079 1.572.848-3.352 2.946 1.809 1.108-3.275 2.795 2.034 1.362-3.178 2.627 2.248 1.607-3.061 2.442 2.447 1.842-2.926 2.243 2.631 2.066-2.772 2.03 2.799 2.277-2.601 1.804 2.949 2.474-2.415 1.567 3.082 2.656-2.213 1.32 3.195 2.821-1.998 1.065 3.289 2.969-1.77.804 3.362 3.099-1.532.538 3.415 3.21-1.284.268 3.447 3.301-1.028-.003 3.457 3.371-.766-.274 3.446 3.421-.499-.544 3.414 3.449-.229-.81 3.361 3.457.042-1.071 3.287 3.443.313-1.326 3.193 3.408.582-1.572 3.079 3.352.848-1.809 2.946 3.275 1.108-2.034 2.795 3.178 1.362-2.248 2.627 3.061 1.607-2.447 2.442 2.926 1.842-2.631 2.243 2.772 2.066-2.799 2.03 2.601 2.277-2.949 1.804 2.415 2.474-3.082 1.567 2.213 2.656-3.195 1.32 1.998 2.821-3.289 1.065 1.77 2.969-3.362.804 1.532 3.099-3.415.538 1.284 3.21-3.447.268 1.028 3.301-3.457-.003.766 3.371-3.446-.274.499 3.421-3.414-.544.229 3.449-3.361-.81-.042 3.457z" stroke="#2e3436" stroke-width=".249"/><g stroke="#000"><path transform="matrix(.8595 0 0 .8595 18.05 35.731)" d="m160 144a60 60 0 1 1-120 0 60 60 0 1 1 120 0z" fill="url(#A)"/><path d="M124.4 165.19c.48.033 1.106.248 1.525 1 .342.614 1.145.712 1.519.588.624-.206 1.421-.349 2.194.201s1.607.134 1.46-.869-.509-1.897-1.471-2.45c-2.101-1.208-.641-2.05-1.794-3.262s-.9-1.587-.862-3.238c3.904-.587 6.117-1.712 8.588-4.799s3.429-5.629 3.685-9.5.034-6.379-1.638-9.592-3.433-4.76-6.485-6.364-6.041-1.988-8.805-1.942-4.605.249-6.166 1.14-2.99 2.012-3.9 2.02-1.531-.231-1.973-.57c-.118 3.001 2.582 3.261 4.998 3.325s3.901-.936 6.126-.564 5.869 1.384 7.643 4.474 1.835 4.181 1.688 6.772-2.377 4.524-3.636 4.545-1.54-.343-2.641-1.062-6.727-7.682-8.646-9.246-3.813-2.047-5.859-2.072-2.568.044-4.217.72-2.663 1.921-3.993 2.682c-.68-.4-1.102-.997-1.726-1.453-2.231-1.63-3.389-2.07-6.04-1.812-1.524.148-3.445 1.019-4.591 2.016-2.041 1.775-3.728 4.246-5.09 6.123-1.061 1.462-2.31 3.211-4.092 3.758-1.946.597-3.411-1.924-3.626-3.322-.122-.792-.281-1.487-.282-2.359s.088-1.93.339-2.839.682-1.813 1.148-2.563c.759-1.22 2.001-2.498 3.292-3.155.725-.369 2.431-1.039 3.506-1.063 1.317-.029 2.321.414 3.54.497 1.474.101 4.108.432 5.264-.707.736-.725.828-1.208.954-2.154-.325.268-.779.444-1.184.478-.923.078-1.788-.676-2.533-1.113-.614-.36-1.483-1.003-2.29-1.328-2.072-.835-4.617-.811-6.804-.587-1.753.179-4.026.959-5.563 1.829-1.545.874-3.033 2.347-4.124 3.736-1.372 1.748-2.122 3.247-2.618 5.427-.635 2.784-.811 6.965-.043 9.71.605 2.163 2.614 5.485 4.324 7.114 1.687 1.606 3.634 2.382 5.849 2.806-.087.447-.101.864-.216 1.23-.163.52-.474 1.1-1.114.917-.255-.073-.392-.136-.728.158s-.161 1.431.785 1.941c.48.259.986.315 1.754.33s1.967.019 2.801-.127 1.332-.808 2.255-.911c1.427-.16 2.52-1.191 3.665-1.928.478-.308.639-.311.914-.467l-.446 1.365s-.057.843-.109 1.193-.149.622-.206.906c-.229.204-.302.515-.686.613s-.986-.054-1.379-.107-.657-.267-.965-.208-.601.28-.86.487-.481.237-.69.754-.401 1.575-.43 2.282.051 1.346.26 1.907.394.81.961 1.366 1.492 1.372 2.414 1.94c-.17.251-.245.482-.51.755s-.817.579-1.063.867-.37.495-.374.818.013.743.274 1.095c.653.877 1.425 1.034 2.365 1.446-.158.986-.287 1.691-.058 2.675.093.401.3 1.311.795 1.544s1.45.12 2.054.216.942.187 1.413.281c.286.414.713.87.859 1.241s.102.504-.021.883-.541.93-.659 1.374-.141.921-.031 1.366.3.767.679 1.162 1.124.705 1.496 1.025.742.359.64.889c-.139.728-1.203 1.908-1.972 2.189-.461.168-1.08.115-1.64-.121.038.622.576 1.041.927 1.453-.952-.272-1.875-.793-2.513-1.484.198.6.879 1.563 1.898 2.408s1.013.672 1.519 1.009a6.65 6.65 0 0 1-2.499.006c.392.216 1.036.521 1.888.61s1.377.026 2.145-.16 1.469-.885 2.4-1.366c-.091.345-.155.76-.546 1.115s-.983.536-1.613.843l2.43-.292c.583-.129.974-.265 1.401-.476s.755-.519 1.133-.779c-.181.346-.235.752-.543 1.037s-.808.391-1.213.587c.422-.01.828.082 1.266-.028s.849-.283 1.304-.619.925-.748 1.313-1.171.868-.97 1.013-1.359-.087-.662-.131-.992c.268.176.598.273.804.529s.389.489.298.935-.503.991-.794 1.487c.868-.71 1.353-.983 1.559-1.839.193-.802-.307-1.529-.687-2.136-.189-.301-.471-.581-.648-.872.392-.384.84-.713 1.176-1.151s.477-1.03.82-1.448.805-.684 1.207-1.025c-.353.759-.934 1.69-1.06 2.277s.141.947.35 1.264.545.388.864.583.816.041 1.006.331.241.724.059 1.011l-.745 1.177c.275-.139.748-.542.961-.828s.541-.55.585-.937.067-.722-.184-1.067-.937-.46-1.243-.724-.479-.437-.462-.779.352-.587.639-.803c.877-.658 2.002-1.264 2.747-2.057.421-.448.623-.81.707-1.119s-.006-.55-.214-.93-.926-.888-1.013-1.301.275-.502.602-.647.948.075 1.251-.179-.089-.786.253-1.078 1.123-.129 1.527-.443.57-.704.709-1.16.155-.955.061-1.285-.377-.388-.548-.559-.319-.313-.091-.568.973.014 1.402-.313.166-1.112.469-1.442.847-.201 1.134-.307.4.267.576-.322.181-2.346.418-3.001.702-.044.918-.696.011-1.693.109-2.677l.441-2.677c1.538 1.033 2.553 1.357 4.204 1.649.138 4.042.518 6.422-.854 10.906s-4.148 7.127-7.894 10.923c4.942-3.703 7.302-6.713 8.779-10.569s1.193-7.082 1.045-10.796z" fill="#edd400" stroke-width=".1"/></g><path d="M124.4 165.19c.48.033 1.106.248 1.525 1 .342.614 1.145.712 1.519.588.624-.206 1.421-.349 2.194.201s1.607.134 1.46-.869-.509-1.897-1.471-2.45c-2.101-1.208-.641-2.05-1.794-3.262s-.9-1.587-.862-3.238c3.904-.587 6.117-1.712 8.588-4.799s3.429-5.629 3.685-9.5.034-6.379-1.638-9.592-3.433-4.76-6.485-6.364-6.041-1.988-8.805-1.942-4.605.249-6.166 1.14-2.99 2.012-3.9 2.02-1.531-.231-1.973-.57c-.118 3.001 2.582 3.261 4.998 3.325s3.901-.936 6.126-.564 5.869 1.384 7.643 4.474 1.835 4.181 1.688 6.772-2.377 4.524-3.636 4.545-1.54-.343-2.641-1.062-6.727-7.682-8.646-9.246-3.813-2.047-5.859-2.072-2.568.044-4.217.72-2.663 1.921-3.993 2.682c-.68-.4-1.102-.997-1.726-1.453-2.231-1.63-3.389-2.07-6.04-1.812-1.524.148-3.445 1.019-4.591 2.016-2.041 1.775-3.728 4.246-5.09 6.123-1.061 1.462-2.31 3.211-4.092 3.758-1.946.597-3.411-1.924-3.626-3.322-.122-.792-.281-1.487-.282-2.359s.088-1.93.339-2.839.682-1.813 1.148-2.563c.759-1.22 2.001-2.498 3.292-3.155.725-.369 2.431-1.039 3.506-1.063 1.317-.029 2.321.414 3.54.497 1.474.101 4.108.432 5.264-.707.736-.725.828-1.208.954-2.154-.325.268-.779.444-1.184.478-.923.078-1.788-.676-2.533-1.113-.614-.36-1.483-1.003-2.29-1.328-2.072-.835-4.617-.811-6.804-.587-1.753.179-4.026.959-5.563 1.829-1.545.874-3.033 2.347-4.124 3.736-1.372 1.748-2.122 3.247-2.618 5.427-.635 2.784-.811 6.965-.043 9.71.605 2.163 2.614 5.485 4.324 7.114 1.687 1.606 3.634 2.382 5.849 2.806-.087.447-.101.864-.216 1.23-.163.52-.474 1.1-1.114.917-.255-.073-.392-.136-.728.158s-.161 1.431.785 1.941c.48.259.986.315 1.754.33s1.967.019 2.801-.127 1.332-.808 2.255-.911c1.427-.16 2.52-1.191 3.665-1.928.478-.308.639-.311.914-.467l-.446 1.365s-.057.843-.109 1.193-.149.622-.206.906c-.229.204-.302.515-.686.613s-.986-.054-1.379-.107-.657-.267-.965-.208-.601.28-.86.487-.481.237-.69.754-.401 1.575-.43 2.282.051 1.346.26 1.907.394.81.961 1.366 1.492 1.372 2.414 1.94c-.17.251-.245.482-.51.755s-.817.579-1.063.867-.37.495-.374.818.013.743.274 1.095c.653.877 1.425 1.034 2.365 1.446-.158.986-.287 1.691-.058 2.675.093.401.3 1.311.795 1.544s1.45.12 2.054.216.942.187 1.413.281c.286.414.713.87.859 1.241s.102.504-.021.883-.541.93-.659 1.374-.141.921-.031 1.366.3.767.679 1.162 1.124.705 1.496 1.025.742.359.64.889c-.139.728-1.203 1.908-1.972 2.189-.461.168-1.08.115-1.64-.121.038.622.576 1.041.927 1.453-.952-.272-1.875-.793-2.513-1.484.198.6.879 1.563 1.898 2.408s1.013.672 1.519 1.009a6.65 6.65 0 0 1-2.499.006c.392.216 1.036.521 1.888.61s1.377.026 2.145-.16 1.469-.885 2.4-1.366c-.091.345-.155.76-.546 1.115s-.983.536-1.613.843l2.43-.292c.583-.129.974-.265 1.401-.476s.755-.519 1.133-.779c-.181.346-.235.752-.543 1.037s-.808.391-1.213.587c.422-.01.828.082 1.266-.028s.849-.283 1.304-.619.925-.748 1.313-1.171.868-.97 1.013-1.359-.087-.662-.131-.992c.268.176.598.273.804.529s.389.489.298.935-.503.991-.794 1.487c.868-.71 1.353-.983 1.559-1.839.193-.802-.307-1.529-.687-2.136-.189-.301-.471-.581-.648-.872.392-.384.84-.713 1.176-1.151s.477-1.03.82-1.448.805-.684 1.207-1.025c-.353.759-.934 1.69-1.06 2.277s.141.947.35 1.264.545.388.864.583.816.041 1.006.331.241.724.059 1.011l-.745 1.177c.275-.139.748-.542.961-.828s.541-.55.585-.937.067-.722-.184-1.067-.937-.46-1.243-.724-.479-.437-.462-.779.352-.587.639-.803c.877-.658 2.002-1.264 2.747-2.057.421-.448.623-.81.707-1.119s-.006-.55-.214-.93-.926-.888-1.013-1.301.275-.502.602-.647.948.075 1.251-.179-.089-.786.253-1.078 1.123-.129 1.527-.443.57-.704.709-1.16.155-.955.061-1.285-.377-.388-.548-.559-.319-.313-.091-.568.973.014 1.402-.313.166-1.112.469-1.442.847-.201 1.134-.307.4.267.576-.322.181-2.346.418-3.001.702-.044.918-.696.011-1.693.109-2.677l.441-2.677c1.538 1.033 2.553 1.357 4.204 1.649.138 4.042.518 6.422-.854 10.906s-4.148 7.127-7.894 10.923c4.942-3.703 7.302-6.713 8.779-10.569s1.193-7.082 1.045-10.796zm-26.262-1.625c-.38.017-.842.114-1.109.287s-.551.315-.793.562c-.605.616-1.058 1.359-1.259 2.212-.128.544-.147 1.242-.193 1.881.183-.59.306-1.206.567-1.735.411-.834 1.11-1.649 1.977-2.023.286-.124.477-.101.635-.079-.07.118-.188.217-.194.391s.034.512.327.655c.474.23 1 .068 1.366-.255a1.21 1.21 0 0 0 .301-1.351c-.23-.565-1.107-.566-1.626-.543zm4.767-.804c-.048-.971-.398-1.789-1.268-2.265-.45-.246-1.143-.564-1.78-.639-.612-.072-2.1-.019-2.995.389-.687.314-1.156.802-1.759 1.159s-1.033.596-1.607.997c-.882.615-1.399 1.292-2.011 1.697-.294.195-.708.166-1.098.285.304.09.7.19 1.028.085.408-.131.979-.504 1.296-.772.56-.473.85-.704 1.461-1.06.365-.213.965-.463 1.366-.724s1.097-.835 1.483-1.029c.49-.247 1.372-.384 1.917-.368.751.022 1.839.146 2.421.673s.797.986.667 1.667c-.218-.251-.362-.565-.58-.752-.451-.386-.97-.404-1.531-.331-.631.082-.949.447-1.158 1.046.14-.103.398-.329.602-.4.478-.165.84-.114 1.287.126.529.284.385.703.461 1.17.035.215.116.389.174.583.199-.053.383-.135.533-.284-.006.218.025.409-.019.654s-.164.536-.246.805c.368-.368.745-.711.983-1.186s.399-1.004.374-1.526zm-.637-7.065c-.271-.403-.351-1.02-.518-1.523.067.636-.062 1.336.249 1.796s.856.38 1.308.514c-.352-.268-.767-.385-1.039-.788zm6.496 9.432c-.348-.282-1.289-.056-1.992-.006l1.516.388c.047.172.026.369.141.516s.335.201.502.301c-.016-.452.181-.917-.168-1.199zm-4.955-19.589c-.42.226-.952.525-1.323.534s-.468-.242-.686-.388c-.343 1.119-.737 2.348-1.321 3.363-.245.425-.401.228-.587.655s-.268 1.297-.445 1.843-.407.948-.61 1.422c.516-.732 1.184-1.665 1.472-2.274s.104-.662.336-1.242.704-1.484 1.055-2.226c.252.034.564.079.755.02s.153-.263.326-.394.464-.081.707-.291.298-.641.32-1.022zm2.26 5.52c-.395-.035-.886.071-1.255.05s-.634-.117-.951-.176c.059-.557.002-1.581.517-1.953.332-.24 1.697-.059 2.061.019.82.177 1.775.666 2.569.972-.76-.531-1.417-1.023-2.329-1.297-.548-.165-1.827-.379-2.393-.226-.258.07-.31.177-.467.395-.538.752-.537 1.401-.677 2.277-.137.214-.284.357-.395.577s-.174.568-.205.852c.141-.204.055-.461.445-.613s.988-.01 1.515.045c-.384.277-.574.543-.589 1.128-.017.687.564 1.181 1.172 1.228.843.065 1.278-.12 1.619-.84.149-.316.041-.695.054-1.003 1.013.07.997.037 1.737.655-.402.59-.656.929-1.321 1.281-.373.198-.795.39-1.257.469s-1.221.155-1.706.08-.761-.213-1.121-.546-.393-.81-.534-1.187c.032.363.074.825.208 1.088.41.8 1.118 1.037 1.964 1.04.812.002 1.816-.185 2.572-.498.604-.25 1.605-.959 1.843-1.575.162-.421.034-.937.051-1.406-.836-.556-1.043-.419-2.033-.582-.414-.068-.699-.222-1.094-.257zm4.872-3.767c-.023-.333-.061-.326-.091-.489.762-.204 1.067.291 1.514 1.208.167.343.002.548.181.774s.468.194.759.412.579.633.851.857c.558.461 1.313.743 1.96 1.054-.442-.326-1.3-.821-1.578-1.295-.147-.251-.126-.725-.355-.951s-.309-.382-.605-.44-.177-.4-.272-.673-.285-.466-.488-.738-.457-.681-.857-.829-1.022.013-1.324-.073-.129-.305-.348-.437-.647-.074-.941-.215c-.52-.25-.769-.668-1.082-1.115-.045.962-.034 1.655.312 2.561.389 1.019.784 1.619 1.89 2.246.381.216.76.291 1.076.404-.184-.251-.448-.36-.552-.753s-.026-1.174-.05-1.507zm-17.847 4.693c.526.034.65-.035 1.071.262l-.684 1.064c.02-.7-.048-.841-.387-1.326zm1.377-.509c-.728-.31-1.362-.561-2.154-.61-.317-.02-.81.029-1.131.044-.273-.402-.621-.719-.749-1.178-.085-.304-.043-1.717.107-2.084.435-1.067.859-1.112 1.458-1.724.435-.443.452-1.119.582-1.875.048-.278.184-.63.248-.916.783-.132 1.626-.176 2.527-.13-.437-.419-.86-.802-.985-1.432s-.023-1.403.335-1.968.929-1.056 1.454-1.516 1.277-.839 1.774-1.215c-.647-.232-1.307-.572-1.94-.695-1.65-.32-3.072.169-4.664 1.132-.925.56-1.691 1.091-2.658 2.104s-2.167 2.87-3.103 3.972-1.692 1.973-2.509 2.63-1.556.844-2.335 1.266l-1.213 1.288-.981-1.214-1.579.179-.326-1.773-1.449-.397.236-2.389-1.042-.74.783-1.487-.796-1.625 1.037-1.857-.4-1.788 1.201-1.024.157-1.9 1.676-.639.672-1.653 1.884-.021.924-1.227 1.268.089 1.414-.154.799-.59 1.16.77 1.404-.732 2.791 1.06-1.819-1.582-1.885-.301-1.444-.368-1.95.64-1.716-.435-1.655.978-1.751-.097-.86 1.544-1.744.201-.944 1.716-1.097.599-.291 2.199-.977.926.43 1.924-1.151 1.457 1.079 1.561-1.154.976 1.475 1.307-1.494 1.556 1.804.582-1.175 1.669 1.474.254-.966 1.835 1.661-.022-.837 1.374 1.822-.219-.436 1.977 1.377-1.211.472 2.396.95-1.72.515 2.146 1.173-1.582-.032 2.25 1.296-2.023c-.273 1.148-.219 2.405-.973 3.487-2.336-.316-3.863-.905-5.653-2.627-1.63-1.569-3.579-4.839-4.106-6.913-.602-2.367-.621-6.72-.028-9.13.571-2.32 1.312-3.429 2.638-5.322 1.267-1.345 2.512-2.766 4.12-3.726 2.36-1.408 5.386-1.788 8.075-1.751 1.489.02 2.487.306 3.377.63 1.557.566 2.802 1.801 4.385 2.412.516.199.93.205 1.337-.013-.398.796-.831 1.154-1.824 1.444-.718.21-2.432.077-3.612-.032-1.266-.117-1.927-.493-3.65-.47-1.683.023-3.017.663-3.746 1.079-1.505.86-2.584 1.815-3.521 3.327-.515.83-.876 1.767-1.13 2.723s-.365 2.027-.382 2.962.055 1.771.284 2.613c.535 1.972 1.716 3.978 4.143 3.668 1.485-.19 3.723-2.977 4.473-3.999 1.513-2.064 3.069-4.347 4.97-6.065a7.66 7.66 0 0 1 4.304-1.911c2.923-.267 3.79.288 5.99 2.101-.448.143-.885.222-1.343.428-1.018.459-1.949 1.052-2.761 1.812-.851.797-1.233 1.302-1.263 2.443-.02.758.603 1.366 1.175 1.912.35.335.813.641 1.096.901.375.345.84.722.369 1.271-.177.206-.485.362-.745.555-.412.306-.223 1.443.32 1.745.695.386 1.525.342 2.098-.174-.723-.108-1.183-.204-1.164-.796.011-.343.447-.628.875-.823 1.032-.47 1.812-.401 2.839-1.14 1.037-.747 1.06-1.156 1.341-2.328.5.052.961.064 1.63.285s1.408.748 2.015.879c1.529.329 1.834.232 2.671.015 1.474-.381 3.392.272 5.298.881.317.101 1.599.002 2.462.306 1.333.468 3.203 1.6 4.283 2.51 1.636 1.378 3.787 5.503 5.002 10.238.128 1.439-.282 2.409.625 3.112s.882 2.504 1.189 3.009.663.282 1.325.991.999.591.982 1.932c-.57-.375-1.402-.811-2.132-.837-.647-.023-.653.828-2.313-.813-.887-.878-2.593-.905-3.775-1.292s-3.315-1.185-5.45-3.572-3.157-4.9-3.571-8.533c-.066.644-.18 1.371.096 3.148s.87 3.773-.382 6.163l-.78 1.489c.465-.634 1.372-1.668 1.645-2.405l.63-1.7c1.41 2.214 1.734 2.609 3.692 4.195.078.984.097 2.01-.224 2.951s.191 2.026-.054 2.646-.81.267-.995.895.097 1.869-.19 2.48-.99.241-1.33.438-.452.469-.634.729.071.874-.299 1.074-.948.03-1.334.222-.444.652-.352 1.064.504.602.685 1.021.161.711-.057 1.097-.698.597-1.178.792-1.153.085-1.648.354-.94.804-1.201 1.194a1.6 1.6 0 0 0-.32 1.073c.014.409.179.881.398 1.276s.7.876-.052 1.631-.725.429-1.156.919c.047-.847.397-1.537.141-2.175s-1.025-.749-1.43-1.035-.638-.681-.958-1.022c.004.438-.042.909.006 1.239.101.671.299 1.266-.7 1.374-.45.048-.878-.244-1.352-.419.248.444.68.802.745 1.334s-.013 1.116-.381 1.644-1.004.919-1.47 1.229-.716.335-1.074.503c-.018.523.085 1.076.026 1.569a2.86 2.86 0 0 1-.499 1.335c-.285.407-.742.641-1.172.942.236-.549.714-1.071.708-1.648s-.18-.987-.743-1.499-1.882-.957-2.504-1.455-.822-.804-1.046-1.287-.161-1.263-.202-1.698a5.11 5.11 0 0 0-.3 1.436c-.067.638.371 1.532.557 2.004-.769-.372-1.257-.965-1.504-1.546-.165.098-.082.366-.142.883-.274-.273-.586-.483-.862-.74s-.579-.483-.716-.843-.081-.741.021-1.158.568-.901.819-1.357-.044-.904-.027-1.454c.502-.086.929-.342 1.506-.259s1.239.731 1.83.739.922-.546 1.406-.698.974-.135 1.46-.203c-.616-.59-3.009-.872-4.645-1.139-1.44-.235-2.869-.371-4.328-.391-.652-.01-1.489.206-1.941.076s-.356-.438-.49-.774c-.376-.939-.19-1.776.014-2.722 1.31-.154 2.674-.341 3.994-.24 1.29.099 2.818.712 4.149.754 1.157.036 2.87-.222 3.864-.827 1.214-.74 2.153-2.329 2.487-2.839.543-.831 1.228-2.462 1.645-3.207s.508-.954.855-1.265.822-.335 1.232-.503c-.473.048-.99-.101-1.42.145-.646.371-1.369 1.907-1.771 2.576-.426-1.428-.327-1.989-1.559-2.794.993 1.113 1.018 1.957 1.26 3.268-.826 1.356-1.974 3.515-3.477 4.114-.543.217-1.475.352-2.062.425-1.826.226-3.588-.353-5.381-.795-1.311-.324-2.641-.193-4.236-.1-.541.032-1.818-.294-2.082-.841-.143-.295-.132-.65.073-.965s.752-.467 1.045-.75.462-.62.692-.93c1.218.234 2.22.323 3.124.348-.648-.267-1.27-.419-1.945-.683a11.62 11.62 0 0 1-1.986-1.057c-.545-.36-.892-.568-1.287-.987s-.899-.85-1.189-1.362-.336-1.084-.352-1.718.011-1.522.255-2.032.714-.665 1.093-.785.637.185 1.03.226.761.289 1.33.022 1.243-.812 1.818-1.62.986-2.129 1.572-3.146c1.01-1.752 2.269-3.388 3.474-5.012.099-.4.248-.954.298-1.497.086-.946.103-1.929-.191-2.852-.225-.707-.552-1.453-1.292-1.743-.296-.116-.671-.162-.935-.064s-.525.397-.421.742c.114.38.377.39.556.582.303.325.425.564.539.969-.328-.006-.771-.03-1.04.041-.351.093-.678.325-.857.823.419-.372.628-.542 1.151-.556.24-.006.531.08.796.12.099.322.157.718.297.967s.412.19.515.481.108.765.057 1.148zm-3.663-.437c-.161.063-.222.077-.425.232s-.484.309-.645.679-.154.942-.12 1.175c.141-.042.334-.014.481-.139s.234-.409.421-.531.345-.095.552-.121c-.107.303-.158.607-.109.882.108.601.461.905 1.032.977.25.031.646-.051.863-.09-.101.225-.271.422-.372.647-.483-.07-.842-.06-1.102-.182s-.539-.394-.872-.509-.631-.114-.996-.17c.288.248.476.496.764.744l-.632 1.837c-.447.279-.866.427-1.428.772s-1.238.962-1.971 1.299-1.17.52-1.936.664-1.375.765-2.129.866a16.34 16.34 0 0 1-2.742.065c-.659-.064-1.516-.405-1.593-1.128.553.136 1.397.014 1.824-1.026.189-.462.096-1.312.386-1.858s.693-.722 1.176-1.395 1.272-1.735 1.715-2.637.547-1.923.922-2.732.94-1.461 1.377-2.084c.956-1.361 1.727-2.292 3.302-2.978.758-.33 1.62-.418 2.43-.628.33.148.782.311.862.696a1.57 1.57 0 0 1-.354 1.244c-.468.484-1.162 1.007-1.435 1.776-.175.493-.226 2.148-.074 2.597.158.466.524.748.828 1.059zm-.153 3.916c.146.126.258.256.493.361s.556.132.868.21c-.438.681-.897 1.369-1.317 2.086s-.783 1.5-1.183 2.25c.019-.43-.007-.888.056-1.29s.245-.753.425-1.356l.657-2.261zm11.774-14.977c.062.67-.052 1.718-.19 2.374-.166.785-.326 1.192-.964 1.666-1.167.866-1.912.72-2.81 1.223-.427.239-.968.64-1.126 1.063s.104.884.428 1.064c-.567.084-1.202-.554-.937-1.21.131-.323.752-.467.943-.792s.19-.661.1-.991c-.162-.596-1.341-1.138-1.758-1.609-.641-.725-.887-1.332-.524-2.265.51-1.312 2.48-2.364 3.66-2.879.54-.236.843-.252 1.264-.379-.862.505-1.772.908-2.208 2.038-.364.944-.049 1.299-.061 2.12-.006.381-.507.571-.73.812-.194.209-.178.364-.023.653a.75.75 0 0 1 .328-.596c.33-.234.686-.184.862-.664.267-.73-.262-1.421.333-2.24.445-.613 1.037-1.299 1.836-1.317.378-.008.662.048 1.066.168l.538-.648.013-.008c1.095-1 1.845-1.823 3.381-2.51s2.294-.791 4.055-.752 3.51.186 5.55 1.946 7.299 8.497 8.574 9.35 1.558 1.142 3.151 1.142 4.08-2.253 4.178-5.07.137-3.818-1.821-7.211-5.505-4.435-8.137-4.787-4.214.575-6.16.58-3.871-.332-4.438-1.88c.278.165.65.352 1.696.297s2.497-1.266 4.129-2.078 3.448-.907 5.777-.951 5.235.134 8.115 1.688 4.845 3.204 6.515 6.246 1.919 5.526 1.65 9.21-1.405 6.423-3.593 9.119-4.374 4.015-8.315 4.506l-.83-3.66 1.481 2.126-.037-2.364 1.34 1.663.588-2.255 1.086 1.808.539-2.518 1.573 1.272-.498-2.077 2.082.23-.956-1.444 1.898.023-1.104-1.928 1.684-.267-1.343-1.753 2.062-.611-1.707-1.635 1.685-1.374-1.318-1.025 1.233-1.64-1.315-1.531.491-2.022-1.117-.973-.332-2.31-1.253-.629-1.078-1.804-1.993-.212-.983-1.622-2.002.102-1.891-1.028-1.962.457-2.228-.673-1.65.387-2.154.317-2.079 1.663 3.189-1.113 1.604.769 1.326-.809.913.62 1.616.162 1.449-.094 1.056 1.289 2.153.022.768 1.737 1.915.672.179 1.997 1.373 1.076-.457 1.879 1.186 1.951-.91 1.707.895 1.562-1.191.777.27 2.511-1.656.417-.373 1.863-1.805-.188-1.121 1.276-1.386-1.353c-2.526-1.26-3.567-1.964-5.536-4.094-2.241-2.424-3.526-4.666-6.512-6.325-2.141-1.19-3.888-1.619-6.293-1.203-2.258.39-3.015 1.745-4.678 3.172-.176-.319-.212-.404-.503-.639.091.414.236.844.273 1.243z"/><g transform="matrix(-1.084 0 0 -1.084 216.72 331.69)"><path d="M140.42 135.13l-4.897 3.151 1.753 2.725-.621.399-2.206-3.428 5.517-3.55.453.704m2.791 4.819l-5.835 3-.387-.752 5.835-3 .387.752m-1.66 8.21c-.528.199-1.014.193-1.459-.018s-.77-.589-.975-1.133l-1.043-2.771 6.14-2.312.939 2.493c.129.343.19.659.185.95s-.07.53-.192.717a1.75 1.75 0 0 1-.392.465 1.65 1.65 0 0 1-.474.274 1.46 1.46 0 0 1-1.66-.346c-.004.45-.091.807-.261 1.07s-.438.472-.808.612m.884-2.939c.309.82.789 1.107 1.44.862s.823-.778.514-1.598l-.571-1.516-1.954.736.571 1.516m-2.656 1.452c.104.275.247.478.431.607s.367.192.534.193a1.4 1.4 0 0 0 .503-.093c.32-.121.54-.312.659-.575.125-.265.12-.574-.013-.928l-.72-1.912-2.114.796.72 1.912m3.412 3.566l-2.206.442.76 3.795-.724.145-.924-4.615 6.433-1.288.892 4.457-.724.145-.728-3.636-2.056.412.702 3.504-.724.145-.702-3.504m1.331 9.598a1.75 1.75 0 0 1-.282.486c-.11.136-.236.233-.378.291a1.68 1.68 0 0 1-.401.13 3.23 3.23 0 0 1-.449.041 3.89 3.89 0 0 1-.234-.002l-.225.007c-.246.008-.452.041-.618.101a.79.79 0 0 0-.404.328l-.207.007-.032-1.017c.272-.129.627-.2 1.065-.214l.585-.019c.402-.013.693-.109.873-.289.186-.18.274-.456.262-.828l-.069-2.159-2.825.09-.027-.837 6.558-.208.096 3.023c.02.642-.117 1.138-.412 1.49-.289.357-.715.545-1.279.563-.372.012-.683-.059-.934-.213s-.472-.411-.664-.771m1.453.116c.432-.014.725-.137.88-.37s.226-.55.213-.952l-.064-2.024-2.258.072.064 2.024c.014.444.114.765.301.963.187.204.475.3.865.288m.707 5.363l-5.781-.698.1-.831 5.781.698.259-2.144.733.089-.617 5.111-.733-.089.258-2.136m-5.2 5.8l.669-2.439-1.717-1.19.236-.859 5.708 3.993-.286 1.042-6.937.486.248-.903 2.079-.129m.739-.04l3.148-.181-2.596-1.832-.553 2.014m-3.418 1.948l5.948 2.768-1.067 2.293c-.352.756-.892 1.226-1.619 1.41s-1.554.061-2.479-.369-1.552-.987-1.883-1.671c-.328-.675-.317-1.388.033-2.139l1.067-2.293m.316 1.07l-.653 1.403c-.273.587-.285 1.125-.035 1.612s.75.905 1.501 1.254 1.401.467 1.934.344.937-.477 1.21-1.065l.653-1.403-4.61-2.146m-72.792-.398l2.127-.735-1.264-3.658.698-.241 1.537 4.449-6.201 2.143-1.484-4.296.698-.241 1.211 3.505 1.982-.685-1.167-3.377.698-.241 1.167 3.377"/><path d="M66.789 166.09c-.059-.331-.147-.605-.265-.821s-.248-.367-.391-.451a1.11 1.11 0 0 0-.404-.166c-.132-.025-.267-.026-.402-.001-.49.087-.768.545-.834 1.374l-.139 1.679c-.068.884-.495 1.395-1.28 1.536-.585.104-1.082-.017-1.491-.365-.416-.352-.688-.883-.814-1.592-.133-.744-.059-1.355.222-1.831.275-.476.728-.773 1.359-.891l.139.78c-.418.081-.715.28-.89.597-.181.319-.225.735-.134 1.249.078.437.241.771.489 1.001.247.224.533.307.858.249.248-.044.429-.159.542-.343s.188-.482.225-.89l.145-1.699c.04-.458.181-.831.422-1.118a1.54 1.54 0 0 1 .954-.545 2.01 2.01 0 0 1 .527-.021c.173.012.361.06.565.146a1.92 1.92 0 0 1 .55.368c.168.159.324.384.468.675a3.69 3.69 0 0 1 .316 1.004 3.96 3.96 0 0 1 .063.711 2.86 2.86 0 0 1-.084.71 2.17 2.17 0 0 1-.293.665c-.136.195-.33.373-.581.533a2.73 2.73 0 0 1-.909.336l-.139-.78.044-.008a1.64 1.64 0 0 0 .5-.171c.149-.088.289-.207.421-.358.13-.157.221-.368.271-.633.043-.27.034-.579-.028-.927m-2.928-12.372c.97.063 1.757.403 2.36 1.019s.874 1.404.811 2.362c-.062.946-.425 1.689-1.092 2.229s-1.521.776-2.544.709-1.831-.411-2.422-1.032c-.597-.622-.865-1.403-.804-2.343.062-.958.429-1.704 1.102-2.237.672-.54 1.535-.775 2.589-.706m-2.954 2.992c-.045.695.167 1.27.636 1.728.463.457 1.099.712 1.907.764s1.475-.118 1.999-.51c.519-.399.801-.946.846-1.641s-.164-1.27-.627-1.727c-.463-.463-1.09-.72-1.88-.772-.826-.054-1.502.116-2.026.509s-.81.942-.856 1.649m4.195-8.583a1.75 1.75 0 0 1 .403-.391c.143-.101.29-.16.443-.177a1.68 1.68 0 0 1 .421-.016c.127.013.274.041.443.083l.225.065.218.054c.239.059.446.083.622.071a.79.79 0 0 0 .478-.206l.201.05-.246.987c-.297.05-.658.022-1.083-.084l-.568-.141c-.39-.097-.696-.084-.919.04s-.387.364-.477.725l-.522 2.096 2.742.683-.202.812-6.367-1.585.73-2.935c.155-.623.422-1.064.802-1.321.375-.265.836-.33 1.384-.194.361.09.641.243.841.46s.343.524.429.923m-1.367-.507c-.419-.104-.735-.065-.947.117s-.367.468-.464.858l-.489 1.965 2.192.546.489-1.965c.107-.431.098-.767-.027-1.008-.124-.247-.375-.418-.754-.512m4.727-7.673c.886.4 1.503.994 1.852 1.783s.325 1.621-.069 2.496c-.39.864-.991 1.432-1.805 1.704s-1.696.193-2.632-.229-1.57-1.027-1.906-1.817-.317-1.617.07-2.476c.395-.875 1-1.445 1.817-1.708.819-.269 1.71-.187 2.672.248m-3.817 1.764c-.286.634-.29 1.248-.011 1.841.273.591.779 1.052 1.518 1.385s1.422.408 2.051.224c.626-.192 1.082-.605 1.368-1.239s.292-1.247.019-1.838c-.271-.596-.767-1.057-1.489-1.382-.755-.34-1.447-.419-2.076-.235s-1.089.598-1.38 1.244"/></g></g><use id="C" xlink:href="#B" y="102"/><use id="D" xlink:href="#C" x="94.001" y="-102"/><use id="E" xlink:href="#D" y="102"/><use id="F" xlink:href="#E" y="104"/><use id="G" xlink:href="#F" x="-46.001" y="-154"/><use xlink:href="#G" x="-48.001" y="154"/></g></svg>