<svg xmlns="http://www.w3.org/2000/svg" xmlns:xlink="http://www.w3.org/1999/xlink" width="178.998" height="289.999" viewBox="0 0 47.36 76.729" xmlns:v="https://vecta.io/nano"><style><![CDATA[.B{fill:#edd400}.C{fill-rule:evenodd}.D{fill:#3465a4}.E{fill:#c00}.F{stroke:#000}.G{stroke-width:.813}.H{stroke-width:.566}.I{stroke-width:1.186}.J{stroke-width:.723}]]></style><g transform="matrix(.26458 0 0 .26458 -442.01326 54.80619)"><g id="A"><g id="B" transform="matrix(.45216 0 0 .45215 1664.7 -239.26)"><use xlink:href="#D" class="C E F"/><g fill="none" stroke="#2e3436" class="H"><use xlink:href="#E"/><use xlink:href="#E" x="-1.07" y="2.83"/><use xlink:href="#E" x="-2.81" y="5.65"/><use xlink:href="#E" x="1.2" y="-2.83"/><use xlink:href="#E" x="2.14" y="-5.66"/><use xlink:href="#E" x="2.81" y="-8.49"/><use xlink:href="#E" x="3.21" y="-11.32"/><use xlink:href="#E" x="3.34" y="-14.15"/><use xlink:href="#E" x="3.75" y="-16.98"/><use xlink:href="#E" x="4.15" y="-19.81"/><use xlink:href="#E" x="4.68" y="-22.64"/><use xlink:href="#E" x="5.35" y="-25.47"/><use xlink:href="#E" x="5.89" y="-28.3"/><use xlink:href="#E" x="6.55" y="-31.13"/><use xlink:href="#E" x="7.4" y="-33.96"/><use xlink:href="#E" x="8.74" y="-36.78"/><use xlink:href="#E" x="10.63" y="-39.61"/><use xlink:href="#E" x="-5.62" y="8.48"/><use xlink:href="#E" x="-8.7" y="11.31"/><use xlink:href="#E" x="13.32" y="-42.44"/><use xlink:href="#E" x="-0.936" y="1.452"/><use xlink:href="#E" x="-2.006" y="4.282"/><use xlink:href="#E" x="-3.746" y="7.102"/><use xlink:href="#E" x="0.264" y="-1.378"/><use xlink:href="#E" x="1.204" y="-4.208"/><use xlink:href="#E" x="1.874" y="-7.038"/><use xlink:href="#E" x="2.274" y="-9.868"/><use xlink:href="#E" x="2.404" y="-12.698"/><use xlink:href="#E" x="2.814" y="-15.528"/><use xlink:href="#E" x="3.214" y="-18.358"/><use xlink:href="#E" x="3.744" y="-21.188"/><use xlink:href="#E" x="4.414" y="-24.018"/><use xlink:href="#E" x="4.954" y="-26.848"/><use xlink:href="#E" x="5.614" y="-29.678"/><use xlink:href="#E" x="6.464" y="-32.508"/><use xlink:href="#E" x="7.804" y="-35.328"/><use xlink:href="#E" x="9.694" y="-38.158"/><use xlink:href="#E" x="-6.556" y="9.932"/><use xlink:href="#E" x="-9.636" y="12.762"/><use xlink:href="#E" x="12.384" y="-40.988"/></g><g class="F"><use xlink:href="#F" class="B"/><g class="D"><use xlink:href="#G" transform="translate(-15.167 -22.936)"/><use xlink:href="#G" transform="translate(-2.025 -25.835)"/><use xlink:href="#G" transform="translate(11.118 -27.733)"/><use xlink:href="#G" transform="translate(24.261 -29.232)"/><use xlink:href="#G" transform="translate(37.404 -29.232)"/><use xlink:href="#G" transform="translate(50.547 -27.733)"/><use xlink:href="#G" transform="translate(76.833 -22.936)"/><use xlink:href="#G" transform="translate(63.69 -25.835)"/></g><g class="B I"><use xlink:href="#H" class="C"/><use xlink:href="#I"/><g class="C"><use xlink:href="#J"/><use xlink:href="#K"/></g><use xlink:href="#L"/><use xlink:href="#M"/><use xlink:href="#N"/><use xlink:href="#O"/><use xlink:href="#P"/><use xlink:href="#Q"/><use xlink:href="#R"/></g></g><g transform="matrix(1.384 0 0 1.384 -39.937 -66.524)" class="F J"><path d="M124.771 203.37c-14.001-9.777-11.17-18.898-14.984-18.136H98.155c-3.734-.756-1.441 8.651-14.599 18.136z" class="B"/><g class="C"><path d="M94.769 175.939c4.207.55 14.09.55 18.297 0a11.87 11.87 0 0 0 1.168-.202c2.639-.628 3.299-1.94 2.089-2.971-3.945.392-8.106.602-12.406.602a125.8 125.8 0 0 1-12.405-.602c-1.21 1.031-.549 2.343 2.089 2.971.31.074.705.141 1.168.201z" class="E"/><g fill="#ffd42a"><path d="M111.291 179.149c-2.699.71-12.049.71-14.748 0-1.175.543-1.33 1.386 0 1.879a8.86 8.86 0 0 0 .897.177c3.108.474 9.845.474 12.954 0a8.89 8.89 0 0 0 .897-.177c1.33-.493 1.175-1.336 0-1.879z"/><use xlink:href="#S"/><use xlink:href="#T"/></g><path d="M109.317 181.203c-2.571.392-8.142.392-10.712 0 .341.579.432 1.373.221 2.213 3.152.417 7.119.417 10.268 0-.209-.84-.117-1.635.223-2.213z" class="D"/><use xlink:href="#S" class="E"/></g><use xlink:href="#T" class="B"/><path d="M96.543 179.149c2.699.71 12.049.71 14.748 0 .034-.771-.055-2.041 1.774-3.212-4.207.55-14.09.55-18.297 0 1.829 1.17 1.74 2.44 1.774 3.212z" class="C D"/><path d="M101.848 185.818c-.596 11.342-2.691 13.95-8.193 21.512m20.627 0c-5.501-7.447-7.596-9.941-8.192-21.283" class="B"/><path d="M98.01 185.489c3.856.551 7.84.551 11.569 0 1.936-.304 1.547-2.306-.668-2.223-3.14.474-7.093.474-10.23 0-2.218-.084-2.607 1.918-.671 2.223h0z" fill="#c4a000" class="C"/><path d="M76.143 206.77h55.717v4.117H76.143z" class="B"/><path d="M78.978 202.44h50.043v4.117H78.978z" class="D"/></g><g class="B F"><path transform="matrix(.99224 -.1243 .17639 .98432 0 0)" d="M36.379 137.66h6.576v14.904h-6.576z"/><path d="M98.753 125.12h10.493v14.391H98.753z"/><path transform="matrix(-.99231 -.12375 -.1414 .98995 0 0)" d="M-164.35 111.77h6.605v14.82h-6.605z"/></g></g><use width="2485" height="1592" xlink:href="#B" x="96.55"/></g><use width="2485" height="1592" xlink:href="#A" y="70"/><use width="2485" height="1592" xlink:href="#A" y="140"/><g transform="matrix(.45215 0 0 .45215 1713 -204.26)"><use xlink:href="#D" class="C E F"/><g fill="none" stroke="#2e3436" class="H"><use xlink:href="#E"/><use xlink:href="#E" x="-1.07" y="2.83"/><use xlink:href="#E" x="-2.81" y="5.65"/><use xlink:href="#E" x="1.2" y="-2.83"/><use xlink:href="#E" x="2.14" y="-5.66"/><use xlink:href="#E" x="2.81" y="-8.49"/><use xlink:href="#E" x="3.21" y="-11.32"/><use xlink:href="#E" x="3.34" y="-14.15"/><use xlink:href="#E" x="3.75" y="-16.98"/><use xlink:href="#E" x="4.15" y="-19.81"/><use xlink:href="#E" x="4.68" y="-22.64"/><use xlink:href="#E" x="5.35" y="-25.47"/><use xlink:href="#E" x="5.89" y="-28.3"/><use xlink:href="#E" x="6.55" y="-31.13"/><use xlink:href="#E" x="7.4" y="-33.96"/><use xlink:href="#E" x="8.74" y="-36.78"/><use xlink:href="#E" x="10.63" y="-39.61"/><use xlink:href="#E" x="-5.62" y="8.48"/><use xlink:href="#E" x="-8.7" y="11.31"/><use xlink:href="#E" x="13.32" y="-42.44"/><use xlink:href="#E" x="-0.936" y="1.452"/><use xlink:href="#E" x="-2.006" y="4.282"/><use xlink:href="#E" x="-3.746" y="7.102"/><use xlink:href="#E" x="0.264" y="-1.378"/><use xlink:href="#E" x="1.204" y="-4.208"/><use xlink:href="#E" x="1.874" y="-7.038"/><use xlink:href="#E" x="2.274" y="-9.868"/><use xlink:href="#E" x="2.404" y="-12.698"/><use xlink:href="#E" x="2.814" y="-15.528"/><use xlink:href="#E" x="3.214" y="-18.358"/><use xlink:href="#E" x="3.744" y="-21.188"/><use xlink:href="#E" x="4.414" y="-24.018"/><use xlink:href="#E" x="4.954" y="-26.848"/><use xlink:href="#E" x="5.614" y="-29.678"/><use xlink:href="#E" x="6.464" y="-32.508"/><use xlink:href="#E" x="7.804" y="-35.328"/><use xlink:href="#E" x="9.694" y="-38.158"/><use xlink:href="#E" x="-6.556" y="9.932"/><use xlink:href="#E" x="-9.636" y="12.762"/><use xlink:href="#E" x="12.384" y="-40.988"/></g><g class="F"><use xlink:href="#F" class="B"/><g class="D"><use xlink:href="#G" x="-15.167" y="-22.936"/><use xlink:href="#G" x="-2.025" y="-25.835"/><use xlink:href="#G" x="11.118" y="-27.733"/><use xlink:href="#G" x="24.261" y="-29.232"/><use xlink:href="#G" x="37.404" y="-29.232"/><use xlink:href="#G" x="50.547" y="-27.733"/><use xlink:href="#G" x="76.833" y="-22.936"/><use xlink:href="#G" x="63.69" y="-25.835"/></g><g class="B I"><use xlink:href="#H" class="C"/><use xlink:href="#I"/><g class="C"><use xlink:href="#J"/><use xlink:href="#K"/></g><use xlink:href="#L"/><use xlink:href="#M"/><use xlink:href="#N"/><use xlink:href="#O"/><use xlink:href="#P"/><use xlink:href="#Q"/><use xlink:href="#R"/></g><g transform="matrix(1.384 0 0 1.384 -39.937 -66.524)"><g transform="matrix(.88918 0 0 .88918 11.525 18.652)" class="G"><path d="M127.36 207.74c-15.746-10.995-12.562-21.253-16.852-20.396H97.427c-4.2-.851-1.62 9.729-16.418 20.396z" class="B"/><g class="C"><path d="M93.619 176.89c4.731.618 15.846.618 20.577 0a13.35 13.35 0 0 0 1.314-.227c2.967-.706 3.71-2.181 2.349-3.341-4.437.441-9.116.677-13.952.677a141.48 141.48 0 0 1-13.951-.677c-1.361 1.159-.618 2.635 2.349 3.341.349.083.793.158 1.314.227z" class="E"/><g fill="#ffd42a"><path d="M112.2 180.5c-3.035.799-13.551.799-16.586 0-1.322.611-1.496 1.559 0 2.114.278.073.618.139 1.009.199 3.496.533 11.072.533 14.568 0 .391-.06.731-.126 1.009-.199 1.496-.555 1.322-1.502 0-2.114z"/><use xlink:href="#U"/><use xlink:href="#V"/></g><path d="M109.98 182.81c-2.891.441-9.156.441-12.047 0 .383.651.486 1.544.248 2.489 3.544.469 8.007.469 11.548 0-.235-.945-.132-1.839.251-2.489z" class="D"/><use xlink:href="#U" class="E"/></g><use xlink:href="#V" class="B"/><path d="M95.614 180.5c3.035.799 13.551.799 16.586 0 .039-.868-.061-2.296 1.995-3.612-4.732.618-15.846.618-20.577 0 2.057 1.316 1.957 2.745 1.995 3.612z" class="C D"/><path d="M101.58 188c-.671 12.756-3.027 15.689-9.215 24.193m23.198 0c-6.186-8.375-8.542-11.18-9.213-23.936" class="B"/><path d="M97.264 187.63c4.337.62 8.817.62 13.011 0 2.178-.342 1.74-2.594-.751-2.5a41.62 41.62 0 0 1-11.505 0c-2.494-.094-2.932 2.157-.754 2.5h0z" fill="#c4a000" class="C"/></g><g class="J"><path d="M76.143 206.77h55.717v4.117H76.143z" class="B"/><path d="M78.978 202.44h50.043v4.117H78.978z" class="D"/></g></g><g class="B"><path transform="matrix(.99224 -.1243 .17639 .98432 0 0)" d="M36.379 137.66h6.576v14.904h-6.576z"/><path d="M98.753 125.12h10.493v14.391H98.753z"/><path transform="matrix(-.99231 -.12375 -.1414 .98995 0 0)" d="M-164.35 111.77h6.605v14.82h-6.605z"/></g></g></g><use width="2485" height="1592" xlink:href="#A" y="210"/></g><defs ><path id="D" d="M156.07 114.7c-20.069 14.946 6.1 60.949-51.117 60.949S71.001 129.646 51.932 114.7c0 0 34.713-6 52.069-6s52.069 6 52.069 6z"/><path id="E" d="M109.25 151.24c15.34-.117 32.374 6.154 32.374 6.154"/><path id="F" d="M53.42 99.651s33.72-6 50.58-6 50.58 6 50.58 6c3.834 0 6.92 3.086 6.92 6.92v1.16c0 3.834-3.086 6.92-6.92 6.92 0 0-33.72-6-50.58-6s-50.58 6-50.58 6c-3.834 0-6.92-3.086-6.92-6.92v-1.16c0-3.834 3.086-6.92 6.92-6.92z"/><path id="G" d="M74.953 133.72l-3.49.052-2.217-2.696.726-3.414 3.122-1.561 3.167 1.468.827 3.391z"/><path id="H" d="M111.472 160.151c-.417-1.908-14.529-1.907-14.946 0a5.31 5.31 0 0 0-.072.419c-.374 2.778.405 10.354 7.546 17.584 7.14-7.23 7.919-14.806 7.545-17.584a5.33 5.33 0 0 0-.072-.419z"/><path id="I" d="M103.998 178.154c-10.541-2.204-16.978-9.659-17.443-17.502-.19-3.215 10.03-2.592 9.898-.082"/><path id="J" d="M111.549 160.566c.374 2.778-.405 10.354-7.545 17.584 10.541-2.204 16.978-9.659 17.443-17.502.19-3.215-10.03-2.592-9.898-.082z"/><path id="K" d="M103.998 178.154c-7.141-7.23-7.92-14.806-7.546-17.584.132-2.51-10.089-3.132-9.898.082.465 7.843 6.902 15.298 17.444 17.502z"/><path id="L" d="M127.808 162.957c.437-2.047 6.745-2.06 6.55-.705-.142 2.78-2.446 14.003-30.36 15.903"/><path id="M" d="M80.105 162.957c-.439-2.047-6.768-2.06-6.573-.705.142 2.78 2.455 14.003 30.466 15.903"/><path id="N" d="M87.139 161.835c-.247-3.071-9.794-3.417-9.735-1.505.111 3.639 1.994 14.972 28.291 17.824"/><path id="O" d="M103.998 178.154c-10.541-2.489-16.978-10.907-17.443-19.763-.19-3.63 10.03-2.927 9.898-.093"/><path id="P" d="M120.782 161.835c.249-3.071 9.867-3.417 9.808-1.505-.112 3.639-2.009 14.972-28.503 17.824"/><path id="Q" d="M103.998 178.154c10.541-2.489 16.978-10.907 17.443-19.763.19-3.63-10.03-2.927-9.898-.093"/><path id="R" d="M103.998 178.154c-7.538-9.988-7.986-20.481-7.472-23.558.417-2.496 14.529-2.496 14.946 0 .514 3.077.065 13.569-7.472 23.558"/><path id="S" d="M111.291 179.149c1.175.543 1.33 1.386 0 1.879-2.699.71-12.049.71-14.748 0-1.33-.493-1.175-1.336 0-1.879"/><path id="T" d="M96.543 179.149c2.699.71 12.049.71 14.748 0"/><path id="U" d="M112.2 180.5c1.322.611 1.496 1.559 0 2.114-3.035.799-13.551.799-16.586 0-1.496-.555-1.322-1.502 0-2.114"/><path id="V" d="M95.614 180.5c3.035.799 13.551.799 16.586 0"/></defs></svg>