 <svg xmlns="http://www.w3.org/2000/svg" viewBox="0 0 500 500" width="500" height="500">
	<style>
		tspan { white-space:pre }
		.shp0 { fill: #222222 } 
		.shp1 { fill: #a9e9e2 } 
		.shp2 { fill: #52bbae } 
	</style>
	<path id="Arrow tail right" class="shp0" d="M38.2 273.74L66.49 245.45L77.8 256.76L49.51 285.05L38.2 273.74Z" />
	<path id="Arrow tail lefft" class="shp0" d="M50.01 215.2L78.3 243.49L66.99 254.8L38.7 226.51L50.01 215.2Z" />
	<path id="Arrow head" class="shp0" d="M419 289L427.35 250.5L419 212L475 250.5L419 289Z" />
	<path id="Arrow body" class="shp0" d="M71 242L441 242L441 258L71 258L71 242Z" />
	<path id="circle background" class="shp1" d="M251.02 410C162.54 410.56 90.57 339.5 90 251.02C89.44 162.54 160.5 90.57 248.98 90C337.46 89.44 409.43 160.5 410 248.98C410.56 337.46 339.5 409.43 251.02 410Z" />
	<path id="Rotation 0" fill-rule="evenodd" class="shp2" d="M91.11 230.64C99.39 195.27 131.08 169 169 169C213.01 169 248.63 204.39 249 248.31C249.34 248.87 249.67 249.43 250 250L250 250C250 250 250 250 250 250C288.31 227.88 301.4 179.03 279.28 140.72C257.16 102.4 208.31 89.32 170 111.44C170 111.44 170 111.44 170 111.44L170 111.44C124.67 137.61 97 182.49 91.11 230.64Z" />
	<path id="Rotation 120" fill-rule="evenodd" class="shp2" d="M346.21 122.08C372.7 146.93 379.61 187.51 360.65 220.35C338.64 258.47 290.19 271.62 251.96 249.98C251.31 249.99 250.66 250 250 250L250 250C250 250 250 250 250 250C250 294.24 285.76 330 330 330C374.24 330 410 294.24 410 250C410 250 410 250 410 250L410 250C410 197.66 384.97 151.25 346.21 122.08Z" />
	<path id="Rotation 240" fill-rule="evenodd" class="shp2" d="M312.68 397.28C277.91 407.8 239.31 393.49 220.35 360.65C198.35 322.53 211.19 273.99 249.04 251.71C249.35 251.14 249.67 250.57 250 250L250 250C250 250 250 250 250 250C211.69 227.88 162.84 240.97 140.72 279.28C118.6 317.6 131.69 366.44 170 388.56C170 388.56 170 388.56 170 388.56L170 388.56C215.33 414.73 268.03 416.26 312.68 397.28Z" />
</svg>