<svg xmlns="http://www.w3.org/2000/svg" viewBox="0 0 75 75">

    <polygon id="baseOutline" style="fill:none;stroke:#borderColor;stroke-linecap:round;stroke-linejoin:round;stroke-width:#borderWidth" points="50.81 28.41 50.84 18.88 38.98 1.34 27.05 5.15 5.91 17.44 5.88 26.97 5.84 43.99 5.82 49.32 47.97 73.66 69.12 61.37 69.18 39.02 50.81 28.41" />
    <polygon id="baseFill" style="fill:#primaryColor" points="50.81 28.41 50.84 18.88 38.98 1.34 27.05 5.15 5.91 17.44 5.88 26.97 5.84 43.99 5.82 49.32 47.97 73.66 69.12 61.37 69.18 39.02 50.81 28.41"/>
    <g id="shading">
        <g style="mix-blend-mode:multiply;opacity:0.1"><polygon points="5.59 17.23 26.95 4.82 38.99 0.98 17.64 13.39 5.59 17.23"/></g>
        <g style="mix-blend-mode:multiply;opacity:0.1"><polygon points="29.61 31.1 50.97 18.69 50.95 28.32 29.59 40.73 29.61 31.1"/></g>
        <g style="mix-blend-mode:multiply;opacity:0"><polygon points="17.64 13.39 38.99 0.98 50.97 18.69 29.61 31.1 17.64 13.39"/></g>
        <g style="mix-blend-mode:multiply;opacity:0.1"><polygon points="48.14 51.44 69.5 39.03 69.44 61.61 48.08 74.02 48.14 51.44"/></g>
        <g style="mix-blend-mode:multiply;opacity:0"><polygon points="29.59 40.73 50.95 28.32 69.5 39.03 48.14 51.44 29.59 40.73"/></g>
        <g style="mix-blend-mode:multiply;opacity:0.3"><polygon points="17.64 13.39 29.61 31.1 29.59 40.73 48.14 51.44 48.08 74.02 5.5 49.44 5.51 44.05 5.56 26.86 5.59 17.23 17.64 13.39"/></g>
    </g>
    <g id="edgeLines">
        <line style="fill:none;stroke:#fff;stroke-linejoin:round;stroke-width:0.25px" x1="29.69" y1="31.17" x2="50.84" y2="18.88"/>
        <line style="fill:none;stroke:#fff;stroke-linejoin:round;stroke-width:0.25px" x1="50.81" y1="28.41" x2="29.67" y2="40.7"/>
        <line style="fill:none;stroke:#fff;stroke-linejoin:round;stroke-width:0.25px" x1="17.84" y1="13.63" x2="38.98" y2="1.34"/>
        <line style="fill:none;stroke:#fff;stroke-linejoin:round;stroke-width:0.25px" x1="69.18" y1="39.02" x2="48.04" y2="51.3"/>
        <line style="fill:none;stroke:#fff;stroke-linejoin:round;stroke-width:0.25px" x1="29.67" y1="40.7" x2="50.81" y2="28.41"/>
        <polyline style="fill:none;stroke:#fff;stroke-linejoin:round;stroke-width:0.25px" points="5.91 17.44 17.84 13.63 29.69 31.17 29.67 40.7 48.03 51.3 47.97 73.66"/>
    </g>
</svg>