<svg xmlns="http://www.w3.org/2000/svg" xmlns:xlink="http://www.w3.org/1999/xlink" viewBox="0 0 91 65">
    <defs>
        <linearGradient id="linear-gradient" x1="3" y1="44.99" x2="88" y2="44.99" gradientUnits="userSpaceOnUse"><stop offset="0.05" stop-opacity="0.5"/>
            <stop offset="0.06" stop-opacity="0.46"/><stop offset="0.16" stop-opacity="0.2"/><stop offset="0.92" stop-opacity="0.5"/><stop offset="0.92" stop-opacity="0.5"/>
        </linearGradient>
        <linearGradient id="linear-gradient-2" x1="3" y1="44.99" x2="88" y2="44.99" gradientUnits="userSpaceOnUse">
            <stop offset="0.1" stop-color="#fff" stop-opacity="0"/><stop offset="0.1" stop-color="#fff" stop-opacity="0.04"/><stop offset="0.1" stop-color="#fff" stop-opacity="0.22"/><stop offset="0.1" stop-color="#fff" stop-opacity="0.39"/><stop offset="0.11" stop-color="#fff" stop-opacity="0.53"/><stop offset="0.11" stop-color="#fff" stop-opacity="0.66"/><stop offset="0.11" stop-color="#fff" stop-opacity="0.77"/><stop offset="0.11" stop-color="#fff" stop-opacity="0.85"/><stop offset="0.12" stop-color="#fff" stop-opacity="0.92"/><stop offset="0.12" stop-color="#fff" stop-opacity="0.97"/><stop offset="0.13" stop-color="#fff" stop-opacity="0.99"/><stop offset="0.15" stop-color="#fff"/><stop offset="0.15" stop-color="#fff" stop-opacity="0.77"/><stop offset="0.16" stop-color="#fff" stop-opacity="0.57"/><stop offset="0.16" stop-color="#fff" stop-opacity="0.39"/><stop offset="0.16" stop-color="#fff" stop-opacity="0.25"/><stop offset="0.17" stop-color="#fff" stop-opacity="0.14"/><stop offset="0.17" stop-color="#fff" stop-opacity="0.06"/><stop offset="0.18" stop-color="#fff" stop-opacity="0.02"/><stop offset="0.18" stop-color="#fff" stop-opacity="0"/><stop offset="0.18" stop-color="#fff" stop-opacity="0"/><stop offset="0.66" stop-color="#fff" stop-opacity="0"/><stop offset="0.66" stop-color="#fff" stop-opacity="0.04"/><stop offset="0.66" stop-color="#fff" stop-opacity="0.22"/><stop offset="0.67" stop-color="#fff" stop-opacity="0.39"/><stop offset="0.67" stop-color="#fff" stop-opacity="0.53"/><stop offset="0.68" stop-color="#fff" stop-opacity="0.66"/><stop offset="0.68" stop-color="#fff" stop-opacity="0.77"/><stop offset="0.69" stop-color="#fff" stop-opacity="0.85"/><stop offset="0.69" stop-color="#fff" stop-opacity="0.92"/><stop offset="0.7" stop-color="#fff" stop-opacity="0.97"/><stop offset="0.71" stop-color="#fff" stop-opacity="0.99"/><stop offset="0.75" stop-color="#fff"/><stop offset="0.79" stop-color="#fff" stop-opacity="0.99"/><stop offset="0.8" stop-color="#fff" stop-opacity="0.97"/><stop offset="0.81" stop-color="#fff" stop-opacity="0.92"/><stop offset="0.82" stop-color="#fff" stop-opacity="0.85"/><stop offset="0.82" stop-color="#fff" stop-opacity="0.77"/><stop offset="0.83" stop-color="#fff" stop-opacity="0.66"/><stop offset="0.83" stop-color="#fff" stop-opacity="0.6"/><stop offset="0.84" stop-color="#fff" stop-opacity="0.56"/><stop offset="0.84" stop-color="#fff" stop-opacity="0.45"/><stop offset="0.85" stop-color="#fff" stop-opacity="0.27"/><stop offset="0.85" stop-color="#fff" stop-opacity="0.03"/><stop offset="0.85" stop-color="#fff" stop-opacity="0"/>
        </linearGradient>
        <linearGradient id="linear-gradient-3" x1="5.96" y1="17.55" x2="85.29" y2="17.55" gradientUnits="userSpaceOnUse">
            <stop offset="0.09" stop-opacity="0.5"/><stop offset="0.13" stop-opacity="0.46"/><stop offset="0.71" stop-opacity="0.2"/><stop offset="0.97" stop-opacity="0.43"/><stop offset="1" stop-opacity="0.5"/>
        </linearGradient>
    </defs>
    <path style="fill:#primaryColor;stroke:#borderColor;stroke-linecap:round;stroke-width:#borderWidth;" d="M45.5,3.47C22,3.47,3,14.66,3,28.45v8.09c0,13.8,19,25,42.5,25S88,50.34,88,36.54V28.45C88,14.66,69,3.47,45.5,3.47Z" />
    <path opacity="0.5" style="fill:#secondaryColor;" d="M45.5,8.35c18.86,0,34.21,9,34.21,20.1S64.36,48.56,45.5,48.56s-34.2-9-34.2-20.11S26.64,8.35,45.5,8.35Zm0,36c14.92,0,27.06-7.14,27.06-15.91S60.42,12.55,45.5,12.55s-27.06,7.13-27.06,15.9S30.58,44.36,45.5,44.36"/>
    <path opacity="0.5" style="fill:#secondaryColor;" d="M65.48,25.78l.06.26-.05.27-.17.23-.29.21-.36.15-.41.09a1.29,1.29,0,0,0-.76.4l-1.15,1.43-1.26,1.76L60.22,32,59.06,34l-.12.28c-4.47-.24-9-.37-13.44-.37s-9,.13-13.43.37L32,34.07,30.8,32l-.87-1.38-1.25-1.76L27.5,27.39a1.29,1.29,0,0,0-.76-.4l-.41-.09L26,26.75l-.28-.21-.18-.23L25.46,26l.06-.26.19-.24.29-.2.37-.15.42-.08h.45l.43.06.4.13.31.19.22.23.1.26c0,.29.25.56.68.69l1.15.38a2.25,2.25,0,0,0,.64.1A2,2,0,0,0,32,27c.42-.18.62-.5.51-.79L32,24.94a.91.91,0,0,0-.58-.49L31,24.31l-.3-.19-.2-.24-.08-.26.05-.26.16-.24.27-.22.36-.16.41-.09.45,0,.44.05.4.11.33.18.24.22.12.25v.27c-.12.28,0,.58.41.77l1.41.74a1.9,1.9,0,0,0,.88.2,2,2,0,0,0,.48-.06,1,1,0,0,0,.84-.64,9,9,0,0,0,.18-1.64c0-.25-.19-.48-.54-.63l-.23-.1-.27-.21-.16-.24-.05-.26.08-.26.19-.24.3-.19.38-.14.43-.08h.44l.43.07.38.14.31.19.2.24.09.25,0,.27a.53.53,0,0,0,.15.7c.34.28,1,.84,1.5,1.28a1.75,1.75,0,0,0,1.09.33h.25a1.21,1.21,0,0,0,1-.58l.57-1.37a.51.51,0,0,0-.15-.58l-.23-.23L44,21.18v-.27l.13-.25.24-.22.33-.17.41-.12.43,0,.43,0,.41.12.33.17.24.22.14.25v.27l-.12.25-.22.23a.52.52,0,0,0-.16.58l.57,1.37a1.23,1.23,0,0,0,1,.58h.24a1.75,1.75,0,0,0,1.09-.33L51,22.59a.53.53,0,0,0,.16-.7l0-.27.09-.25.19-.24.31-.19.38-.14.43-.07H53l.43.08.38.14.3.19.2.24.07.26,0,.26-.17.24-.27.21-.23.1c-.34.15-.53.38-.53.63a9,9,0,0,0,.18,1.64c.05.29.37.54.83.64a2,2,0,0,0,.48.06,1.9,1.9,0,0,0,.88-.2l1.42-.74c.37-.19.53-.49.41-.77v-.27l.12-.25.24-.22.33-.18.4-.11.44-.05.45,0,.41.09.36.16.27.22.16.24,0,.26-.08.26-.2.24-.3.19-.37.14a.91.91,0,0,0-.58.49l-.47,1.25c-.12.29.08.61.5.79a2,2,0,0,0,.79.16,2.38,2.38,0,0,0,.65-.1l1.14-.38c.43-.13.69-.4.68-.69l.11-.26.22-.23.31-.19.39-.13.43-.06h.45l.42.08.37.15.29.2Zm-20,7.16a6.16,6.16,0,0,0,1.75-1.37,6,6,0,0,0-1.75-1.38,6,6,0,0,0-1.75,1.38,6.16,6.16,0,0,0,1.75,1.37m-7.26.15a4.27,4.27,0,0,0,1.19-1.32,5.75,5.75,0,0,0-1.63-1.14,4.14,4.14,0,0,0-1.2,1.31,6,6,0,0,0,1.64,1.15m14.52,0a5.83,5.83,0,0,0,1.64-1.15,4.14,4.14,0,0,0-1.2-1.31,5.9,5.9,0,0,0-1.63,1.14,4.27,4.27,0,0,0,1.19,1.32m6.82-.62a2.65,2.65,0,0,0-.17-1.16,6.37,6.37,0,0,0-1.28.88,2.66,2.66,0,0,0,.16,1.16,6.72,6.72,0,0,0,1.29-.88m-26.87.88a2.52,2.52,0,0,0,.16-1.16,6.37,6.37,0,0,0-1.28-.88,2.65,2.65,0,0,0-.17,1.16,6.72,6.72,0,0,0,1.29.88" />
    <path opacity="0.5" style="fill:#secondaryColor;" d="M32.31,34.84q6.59-.37,13.19-.38t13.19.38l-.37,2q-6.41-.34-12.82-.35c-4.27,0-8.55.12-12.81.35l-.38-2"/>


    <path d="M88,28.45v8.09c0,13.8-19,25-42.5,25S3,50.34,3,36.54V28.45c0,13.8,19,25,42.5,25S88,42.25,88,28.45Z" style="mix-blend-mode:multiply;fill:url(#linear-gradient)"/>
    <path d="M88,28.45v8.09c0,13.8-19,25-42.5,25S3,50.34,3,36.54V28.45c0,13.8,19,25,42.5,25S88,42.25,88,28.45Z" style="mix-blend-mode:lighten;fill:url(#linear-gradient-2)"/>
    <path d="M3,28.45c0,13.8,19,25,42.5,25S88,42.25,88,28.45" style="fill:none;stroke:#fff;stroke-linecap:round;stroke-linejoin:round;stroke-width:0.25px"/>

    
    <path d="M73.58,11.92c-.94-.54-1.91-1.05-2.91-1.52-.33-.16-.69-.3-1-.45-.59-.26-1.17-.53-1.78-.78l-.32-.11-.69-.25c-.79-.3-1.6-.57-2.41-.83l-.84-.26L63,7.55q-1.2-.34-2.43-.63L60.1,6.8l-1.2-.27c-.68-.14-1.36-.27-2.06-.38l-.19,0L55,5.85,54,5.75c-.66-.09-1.32-.16-2-.23l-1-.1c-.29,0-.59,0-.88,0l-2-.11-1,0-1.49,0h-.33c-.75,0-1.5,0-2.24,0l-1.1,0-.6,0c-.9.06-1.81.12-2.7.21l-.52.06-.8.1c-.92.11-1.84.24-2.75.39L34,6.18l-.32.05c-1,.17-1.9.37-2.83.58l-.48.12c-1,.24-2.06.52-3.06.82l-.49.15-.65.2c-.82.26-1.62.55-2.41.85l-.34.13c-.86.34-1.71.71-2.54,1.09l-.73.34c-.91.45-1.81.91-2.67,1.41L17,12.2l-.43.28c-.25.15-.49.3-.72.46l-.64.42-.66.47-.6.45-.62.48-.54.46c-.2.16-.39.33-.57.5l-.24.2-.2.2c-.31.3-.61.59-.9.89-.09.11-.19.21-.29.31-.36.39-.71.79-1,1.2l0,.05c-.07.09-.13.19-.21.28-.19.26-.38.51-.56.77L8.48,20c-.15.24-.3.47-.44.71,0,.06-.08.12-.12.19s-.09.19-.14.29-.21.39-.31.59l-.24.5c-.09.2-.17.4-.25.61a2,2,0,0,0-.11.26c0,.08,0,.17-.08.25s-.13.38-.19.57-.11.35-.16.52-.09.39-.14.58,0,.21-.07.32,0,.14,0,.21l-.09.59c0,.18,0,.35-.07.52s0,.4,0,.6,0,.23,0,.35,0,.23,0,.35v1.63c0-.23,0-.47,0-.7s0-.4,0-.6,0-.34.07-.52.05-.39.09-.59.07-.35.11-.53.09-.38.14-.57l.15-.53c.06-.19.12-.38.19-.57s.13-.35.2-.52.16-.4.25-.6l.23-.5.31-.59L8,22.38l.43-.71c.09-.14.18-.28.28-.42s.37-.51.56-.77l.25-.33c.32-.41.66-.81,1-1.2l.29-.31c.29-.3.59-.59.9-.89l.43-.4.57-.5.55-.46.62-.48.59-.45.67-.46.64-.43c.23-.16.47-.31.71-.46l.92-.56c.86-.5,1.76-1,2.68-1.41l.73-.34c.82-.38,1.67-.75,2.54-1.08l.33-.14c1-.38,2-.73,3.07-1.05l.48-.15c1-.3,2-.58,3.06-.82l.48-.11c1-.24,2.09-.46,3.16-.64l.67-.11c.91-.15,1.82-.28,2.74-.39l.81-.1c1.06-.11,2.14-.2,3.22-.27l.6,0c1.11,0,2.22-.09,3.33-.09h.34c.83,0,1.66,0,2.49.06l2,.11c.62,0,1.23.1,1.83.15s1.33.14,2,.23c.88.11,1.75.22,2.62.37a1.25,1.25,0,0,1,.19,0c1.1.18,2.18.41,3.25.65l.52.12c1,.24,2,.51,3,.8l.83.26c.82.26,1.62.53,2.41.83.23.08.47.16.69.25.72.28,1.41.58,2.11.89.34.15.69.29,1,.45,1,.47,2,1,2.91,1.52C81.39,18.06,85.3,24,85.28,29.91V28.28C85.3,22.36,81.4,16.43,73.58,11.92Z" style="mix-blend-mode:multiply;fill:url(#linear-gradient-3)"/>
    <g style="mix-blend-mode:darken;opacity:0.2">
        <path d="M85.19,27.82l2.75,0v.53H85.2v-.07C85.2,28.11,85.2,28,85.19,27.82Z"/>
        <path d="M85.16,29.18l0-.43,2.75,0c0,.16,0,.31,0,.46Z"/>
        <path d="M85.08,30c0-.15,0-.29,0-.43l2.75.09c0,.16,0,.31,0,.46Z"/>
        <path d="M85,30.87c0-.13,0-.28.07-.42l2.74.15a3.4,3.4,0,0,1-.09.46Z"/>
        <path d="M84.76,31.72c0-.14.06-.28.1-.42l2.72.21c0,.15-.07.31-.1.45Z"/>
        <path d="M84.51,32.56c0-.14.09-.28.13-.42l2.71.27c0,.16-.09.3-.14.45Z"/>
        <path d="M84.21,33.4l.16-.42,2.69.33c0,.15-.11.3-.17.45Z"/>
        <path d="M82.5,36.65c.08-.13.17-.26.25-.4l2.58.56c-.09.15-.19.29-.27.43Z"/>
        <path d="M83,35.85l.24-.4,2.61.51-.25.43Z"/>
        <path d="M83.45,35l.22-.4,2.64.44c-.08.15-.15.3-.23.44Z"/>
        <path d="M83.86,34.22l.18-.41,2.67.39c-.06.15-.13.3-.2.45Z"/>
        <path d="M80.68,39l.33-.38,2.46.73c-.12.13-.23.27-.36.4Z"/>
        <path d="M81.34,38.21c.1-.13.21-.26.3-.39l2.51.68-.34.41Z"/>
        <path d="M81.94,37.43c.1-.12.19-.26.28-.39l2.55.63-.31.41Z"/>
        <path d="M78.44,41.15l.41-.35,2.3.88-.43.38Z"/>
        <path d="M79.23,40.44c.14-.12.26-.24.38-.36l2.36.83-.41.39Z"/>
        <path d="M80,39.71c.13-.12.24-.25.36-.37l2.4.78-.38.4Z"/>
        <path d="M74.84,43.82l.49-.31,2,1.07-.52.34Z"/>
        <path d="M76.72,42.53l.45-.34,2.19,1-.48.36Z"/>
        <path d="M77.6,41.85,78,41.5l2.25.94-.46.37Z"/>
        <path d="M71.72,45.61l.54-.29,1.84,1.2-.57.3Z"/>
        <path d="M69.46,46.68c.2-.08.39-.17.57-.26l1.7,1.28-.62.28Z"/>
        <path d="M70.6,46.16l.57-.27,1.76,1.23-.59.29Z"/>
        <path d="M72.8,45c.17-.11.35-.2.52-.3l1.92,1.16-.56.32Z"/>
        <path d="M73.83,44.44l.52-.31,2,1.12-.53.32Z"/>
        <path d="M75.8,43.18l.47-.32,2.12,1-.5.35Z"/>
        <path d="M67.07,47.66l.61-.24,1.53,1.34-.65.26Z"/>
        <path d="M68.28,47.18l.59-.25,1.61,1.32-.63.26Z"/>
        <path d="M56.5,50.47l.69-.12L58,51.89l-.75.13Z"/>
        <path d="M57.88,50.22l.7-.14.9,1.53-.74.14Z"/>
        <path d="M59.26,49.94l.69-.15,1,1.5-.72.17Z"/>
        <path d="M60.62,49.63l.67-.17L62.38,51l-.72.17Z"/>
        <path d="M62,49.29l.66-.18,1.18,1.46-.7.19Z"/>
        <path d="M63.28,48.92l.64-.19,1.27,1.43c-.22.08-.46.14-.69.21Z"/>
        <path d="M64.57,48.53l.63-.21,1.36,1.41-.67.22Z"/>
        <path d="M65.83,48.11l.62-.22,1.45,1.37-.66.24Z"/>
        <path d="M55.09,50.69l.71-.11.71,1.57-.76.11Z"/>
        <path d="M53.68,50.88l.71-.09L55,52.36l-.76.1Z"/>
        <path d="M52.25,51,53,51l.5,1.59-.75.08Z"/>
        <path d="M50.82,51.16l.72-.06.4,1.6-.76.06Z"/>
        <path d="M49.37,51.26l.73,0,.3,1.61-.76,0Z"/>
        <path d="M47.92,51.33l.73,0,.22,1.62-.78,0Z"/>
        <path d="M48.24,3.57l-.18,1.61-.72,0,.11-1.61Z"/>
        <path d="M46.47,51.36h.73L47.32,53l-.78,0Z"/>
        <path d="M46.68,3.52l-.07,1.62h-.73l0-1.62Z"/>
        <path d="M45.54,51.37h.2l0,1.62h-.33l-.49,0,.13-1.61Z"/>
        <path d="M45.08,3.52l.12,1.62-.73,0-.16-1.61Z"/>
        <path d="M43.4,52.92l.21-1.62.73,0L44.17,53Z"/>
        <path d="M43.55,3.58l.19,1.61-.72,0-.25-1.61Z"/>
        <path d="M41.87,52.84l.28-1.61.73,0-.24,1.61Z"/>
        <path d="M42,3.66l.28,1.6-.73,0L41.24,3.7Z"/>
        <path d="M40.34,52.73l.35-1.6.73,0-.31,1.61Z"/>
        <path d="M40.48,3.76l.35,1.6-.72.06-.4-1.6Z"/>
        <path d="M38.81,52.6,39.25,51l.72.06-.39,1.6Z"/>
        <path d="M39,3.88l.42,1.6-.72.07L38.19,4Z"/>
        <path d="M37.29,52.44l.52-1.59.72.08-.48,1.6Z"/>
        <path d="M37.44,4l.5,1.59-.71.08-.56-1.58Z"/>
        <path d="M35.78,52.26l.6-1.58.71.09-.55,1.59Z"/>
        <path d="M34.28,52,35,50.48l.7.1L35,52.16Z"/>
        <path d="M26.81,48.7l.65.18-1.18,1.46-.71-.2Z"/>
        <path d="M28.12,49.06l.66.18-1.09,1.48L27,50.53Z"/>
        <path d="M29.45,49.4l.68.16-1,1.51-.72-.17Z"/>
        <path d="M30.8,49.71l.69.15-.91,1.52-.73-.15Z"/>
        <path d="M32.17,50l.69.12-.81,1.55-.74-.14Z"/>
        <path d="M32.78,51.8l.79-1.55.7.12-.74,1.56Z"/>
        <path d="M20.68,46.44l.57.25L19.62,48,19,47.72Z"/>
        <path d="M21.84,47a6.07,6.07,0,0,1,.59.24l-1.54,1.33-.64-.26Z"/>
        <path d="M23,47.42l.61.23L22.19,49l-.66-.24Z"/>
        <path d="M24.27,47.88c.21.06.41.14.62.21l-1.37,1.4-.66-.23Z"/>
        <path d="M25.53,48.3l.64.2-1.28,1.43-.68-.21Z"/>
        <path d="M16.39,44.15l.51.31-2,1.13-.54-.33Z"/>
        <path d="M18.45,45.35l.55.28-1.81,1.21-.58-.3Z"/>
        <path d="M12,40.79l.39.36-2.3.89-.42-.39Z"/>
        <path d="M12.78,41.5l.4.35-2.24.94-.44-.38Z"/>
        <path d="M13.61,42.19l.44.34-2.18,1-.47-.36Z"/>
        <path d="M14.5,42.87l.45.33-2.11,1-.49-.36Z"/>
        <path d="M15.42,43.52l.48.32-2,1.08-.53-.33Z"/>
        <path d="M17.4,44.76l.52.3L16,46.23l-.56-.32Z"/>
        <path d="M19.55,45.9l.56.27-1.72,1.26-.6-.28Z"/>
        <path d="M11.24,40.06l.37.37-2.36.83-.4-.39Z"/>
        <path d="M9.9,38.56l.31.38-2.46.73-.34-.42Z"/>
        <path d="M10.54,39.32l.35.37-2.42.78-.36-.4Z"/>
        <path d="M8.74,37l.27.4L6.47,38l-.29-.42Z"/>
        <path d="M9.29,37.78l.3.39-2.5.67c-.11-.14-.22-.27-.32-.42Z"/>
        <path d="M8.24,36.2l.24.4-2.57.55c-.09-.14-.18-.28-.26-.43Z"/>
        <path d="M7.39,34.57l.19.4-2.64.45L4.73,35Z"/>
        <path d="M7.79,35.39c.07.13.14.27.22.4L5.4,36.3c-.08-.15-.17-.29-.24-.44Z"/>
        <path d="M7,33.74l.18.41-2.67.4-.18-.45Z"/>
        <path d="M6.74,32.9c0,.14.09.28.14.42l-2.69.34c-.05-.15-.11-.31-.15-.45Z"/>
        <path d="M6.48,32.06c0,.14.09.28.12.42l-2.71.28-.12-.45Z"/>
        <path d="M6.29,31.21a3.29,3.29,0,0,0,.09.43l-2.73.22c0-.15-.06-.3-.1-.45Z"/>
        <path d="M6.13,30.36c0,.14,0,.29.08.43L3.47,31c0-.14-.05-.3-.07-.45Z"/>
        <path d="M6,29.51c0,.14,0,.28,0,.43l-2.74.11c0-.15,0-.31,0-.46Z"/>
        <path d="M6,28.66c0,.14,0,.28,0,.42l-2.75.06c0-.15,0-.31,0-.46Z"/>
        <path d="M6,27.8c0,.14,0,.29,0,.43H3.23c0-.14,0-.3,0-.45Z"/>
        <path d="M6,26.94l0,.43-2.76-.06c0-.14,0-.3,0-.45Z"/>
        <path d="M6.14,26.09l-.06.43L3.34,26.4c0-.14,0-.3.06-.45Z"/>
        <path d="M6.3,25.25a2.84,2.84,0,0,0-.08.42L3.48,25.5c0-.15,0-.3.09-.46Z"/>
        <path d="M6.49,24.4c0,.14-.07.28-.1.42l-2.72-.23a3.74,3.74,0,0,1,.12-.45Z"/>
        <path d="M6.76,23.56a3,3,0,0,0-.14.42L3.91,23.7c0-.16.09-.31.15-.45Z"/>
        <path d="M7.05,22.72l-.15.41L4.21,22.8c0-.15.11-.3.17-.45Z"/>
        <path d="M7.41,21.89l-.19.41-2.66-.39c.06-.15.13-.29.2-.44Z"/>
        <path d="M8.27,20.26l-.23.4-2.62-.5c.08-.15.17-.29.26-.43Z"/>
        <path d="M7.82,21.07a4,4,0,0,0-.21.41L5,21c.08-.15.16-.29.23-.44Z"/>
        <path d="M9.93,17.89l-.3.39-2.51-.67.34-.42Z"/>
        <path d="M9.33,18.67l-.28.39L6.5,18.45c.1-.15.21-.28.31-.43Z"/>
        <path d="M8.78,19.46c-.09.13-.18.26-.26.4l-2.58-.57.28-.42Z"/>
        <path d="M12.84,14.94l-.41.35-2.29-.88.43-.39Z"/>
        <path d="M12,15.65l-.38.37L9.3,15.18l.42-.39Z"/>
        <path d="M11.29,16.38l-.36.37L8.53,16c.12-.14.25-.27.38-.41Z"/>
        <path d="M10.59,17.13c-.12.13-.23.25-.33.38L7.8,16.79c.12-.14.23-.28.36-.41Z"/>
        <path d="M19.65,10.54l-.55.28L17.3,9.6l.6-.3Z"/>
        <path d="M18.55,11.1l-.53.29-1.88-1.18.58-.31Z"/>
        <path d="M17.5,11.69,17,12l-2-1.13.55-.32Z"/>
        <path d="M16.48,12.29,16,12.6l-2-1.09.54-.33Z"/>
        <path d="M15.51,12.92l-.48.32-2.1-1,.51-.34Z"/>
        <path d="M14.58,13.57a5.3,5.3,0,0,0-.45.34l-2.18-1,.48-.36Z"/>
        <path d="M13.69,14.25l-.44.34L11,13.65l.46-.37Z"/>
        <path d="M22,9.51l-.59.25-1.63-1.3.63-.27Z"/>
        <path d="M20.79,10l-.58.26L18.5,9l.61-.29Z"/>
        <path d="M24.39,8.59c-.22.07-.43.14-.62.22L22.32,7.43,23,7.2Z"/>
        <path d="M23.15,9l-.6.23L21,7.93l.65-.25Z"/>
        <path d="M28.24,7.41l-.66.18L26.4,6.12l.7-.19Z"/>
        <path d="M26.92,7.77,26.29,8,25,6.53l.69-.21Z"/>
        <path d="M25.64,8.16,25,8.37,23.65,7l.67-.22Z"/>
        <path d="M30.93,6.76l-.69.15-1-1.51L30,5.24Z"/>
        <path d="M29.57,7.07l-.67.16L27.82,5.75l.71-.18Z"/>
        <path d="M33.69,6.23,33,6.35,32.18,4.8l.75-.13Z"/>
        <path d="M32.31,6.48l-.7.14-.9-1.53.73-.15Z"/>
        <path d="M35.1,6l-.71.11-.73-1.56.75-.12Z"/>
        <path d="M36.52,5.8l-.71.1-.64-1.58.75-.1Z"/>
        <path d="M49.78,3.64l-.27,1.61-.72,0L49,3.6Z"/>
        <path d="M51.32,3.75,51,5.35l-.72,0,.32-1.61Z"/>
        <path d="M52.85,3.88l-.46,1.6-.73-.07.43-1.6Z"/>
        <path d="M54.37,4.06l-.56,1.58-.71-.08L53.62,4Z"/>
        <path d="M55.89,4.26l-.67,1.57-.7-.1.62-1.57Z"/>
        <path d="M57.39,4.5l-.77,1.55-.7-.11.72-1.56Z"/>
        <path d="M58,6.31l-.69-.14.82-1.54.73.14Z"/>
        <path d="M59.39,6.59l-.69-.15.9-1.52.74.15Z"/>
        <path d="M60.74,6.9l-.68-.16,1-1.51.72.17Z"/>
        <path d="M62.06,7.24l-.66-.18,1.1-1.48.7.19Z"/>
        <path d="M63.37,7.6l-.65-.18L63.9,6l.7.2Z"/>
        <path d="M69.51,9.85l-.57-.26,1.61-1.31.62.28Z"/>
        <path d="M68.34,9.34l-.59-.24,1.53-1.34.64.26Z"/>
        <path d="M67.14,8.87l-.62-.23L68,7.26l.66.25Z"/>
        <path d="M65.91,8.42l-.63-.21L66.65,6.8l.67.23Z"/>
        <path d="M64.65,8,64,7.8l1.28-1.44.69.22Z"/>
        <path d="M79.28,16.09c-.14-.11-.26-.23-.4-.36l2.31-.87.42.38Z"/>
        <path d="M78.48,15.38,78.07,15l2.24-.93c.16.12.3.25.44.37Z"/>
        <path d="M77.64,14.68l-.43-.34,2.18-1a5.9,5.9,0,0,1,.47.37Z"/>
        <path d="M76.77,14l-.46-.33,2.12-1,.49.36Z"/>
        <path d="M75.84,13.34,75.36,13,77.42,12l.52.35Z"/>
        <path d="M73.88,12.09l-.52-.3,1.93-1.16c.18.1.36.22.55.32Z"/>
        <path d="M72.84,11.49l-.53-.29L74.16,10l.56.32Z"/>
        <path d="M71.77,10.92l-.56-.28L73,9.41l.59.29Z"/>
        <path d="M70.66,10.37c-.18-.09-.37-.18-.57-.26l1.7-1.28.6.29Z"/>
        <path d="M74.88,12.7l-.5-.3,2-1.12.53.33Z"/>
        <path d="M80,16.83l-.36-.37L82,15.63l.4.39Z"/>
        <path d="M81.37,18.34c-.1-.13-.2-.26-.31-.38l2.45-.73.35.41Z"/>
        <path d="M80.73,17.57l-.36-.37,2.42-.78c.12.13.24.27.37.4Z"/>
        <path d="M83,20.71l-.24-.4,2.57-.56.27.43Z"/>
        <path d="M82.53,19.91l-.26-.4,2.53-.61c.1.13.2.28.3.42Z"/>
        <path d="M82,19.12a3.68,3.68,0,0,0-.3-.39l2.5-.67.33.41Z"/>
        <path d="M83.89,22.35c-.06-.14-.12-.28-.19-.42l2.64-.44c.07.15.15.29.21.44Z"/>
        <path d="M83.49,21.53l-.22-.42,2.61-.5c.08.15.17.29.24.44Z"/>
        <path d="M84.24,23.17l-.17-.41,2.67-.39.18.45Z"/>
        <path d="M84.53,24c0-.14-.09-.28-.14-.42l2.7-.33c0,.15.1.3.14.45Z"/>
        <path d="M84.78,24.85c0-.14-.09-.28-.12-.42l2.71-.27c0,.15.09.3.12.45Z"/>
        <path d="M85,25.69l-.09-.42,2.73-.2.09.45Z"/>
        <path d="M85.09,26.55c0-.15,0-.29-.06-.43L87.77,26c0,.15,0,.3.07.45Z"/>
        <path d="M85.17,27.4l0-.43,2.74-.09c0,.15,0,.31,0,.45Z"/>
    </g>
    <g style="mix-blend-mode:lighten;opacity:0.2;fill:#fff">
        <path d="M85.18,28.82c0-.15,0-.29,0-.43h2.74c0,.15,0,.3,0,.45Z" />
        <path d="M85.12,29.67c0-.15,0-.29,0-.43l2.75.07c0,.15,0,.3,0,.46Z" />
        <path d="M85,30.51c0-.13,0-.28.07-.42l2.74.13c0,.15,0,.3-.07.46Z" />
        <path d="M84.83,31.36c0-.14.06-.28.1-.42l2.73.19c0,.15-.07.3-.1.45Z" />
        <path d="M84.61,32.21l.12-.43,2.71.25c0,.16-.08.3-.13.46Z" />
        <path d="M84.33,33l.15-.42,2.7.31c-.06.15-.11.3-.16.45Z" />
        <path d="M84,33.87a4.08,4.08,0,0,0,.17-.42l2.68.38-.18.44Z" />
        <path d="M82.16,37.09c.1-.13.19-.25.28-.39l2.54.6-.28.42Z" />
        <path d="M82.7,36.31l.24-.41,2.59.55-.26.43Z" />
        <path d="M83.18,35.51l.23-.41,2.62.49-.25.43Z" />
        <path d="M83.61,34.69a3.73,3.73,0,0,0,.2-.4l2.66.42c-.07.15-.15.29-.22.44Z" />
        <path d="M80.26,39.39,80.6,39l2.43.77-.38.4Z" />
        <path d="M80.94,38.64c.11-.13.22-.25.32-.38l2.47.71c-.12.13-.22.27-.34.4Z" />
        <path d="M81.57,37.87l.3-.38,2.52.65-.32.41Z" />
        <path d="M78.75,40.85c.13-.13.27-.24.39-.36l2.32.86-.41.38Z" />
        <path d="M79.53,40.13c.12-.13.24-.25.37-.37l2.37.81-.39.39Z" />
        <path d="M77.93,41.55l.41-.35,2.27.91-.44.38Z" />
        <path d="M76.16,42.9l.46-.33,2.14,1-.48.35Z" />
        <path d="M77.06,42.23a5.12,5.12,0,0,0,.44-.34l2.21,1-.47.36Z" />
        <path d="M74.23,44.17l.49-.31,2,1.1-.53.33Z" />
        <path d="M69.91,46.45l.57-.26,1.72,1.26-.61.28Z" />
        <path d="M71,45.92l.55-.28,1.8,1.23-.59.29Z" />
        <path d="M72.14,45.36l.53-.29,1.88,1.18-.57.31Z" />
        <path d="M73.2,44.78l.52-.3,2,1.14-.56.32Z" />
        <path d="M75.21,43.55c.16-.11.32-.22.49-.32l2.07,1.05-.51.34Z" />
        <path d="M63.78,48.75l.65-.2L65.73,50l-.69.21Z" />
        <path d="M65.07,48.35c.2-.08.41-.15.63-.22l1.38,1.4-.67.22Z" />
        <path d="M66.32,47.91l.61-.22L68.41,49l-.65.25Z" />
        <path d="M67.54,47.45l.6-.24,1.57,1.33-.65.26Z" />
        <path d="M68.74,47l.58-.26L71,48l-.63.27Z" />
        <path d="M55.65,50.58l.7-.11L57.09,52l-.74.12Z" />
        <path d="M57.05,50.35l.69-.13.85,1.54-.75.14Z" />
        <path d="M58.43,50.09l.69-.14.93,1.52-.74.15Z" />
        <path d="M59.79,49.8l.69-.16,1,1.5-.72.17Z" />
        <path d="M61.14,49.48l.67-.17,1.12,1.48-.71.17Z" />
        <path d="M62.47,49.13l.66-.19,1.22,1.45-.71.2Z" />
        <path d="M54.24,50.79l.71-.1.65,1.57-.76.1Z" />
        <path d="M52.82,51l.71-.08.55,1.58-.76.09Z" />
        <path d="M51.39,51.1,52.1,51l.46,1.6-.77.07Z" />
        <path d="M52.24,3.81l-.42,1.6-.72-.07.38-1.6Z" />
        <path d="M50,51.21l.72-.05.35,1.6-.77.06Z" />
        <path d="M50.7,3.68l-.32,1.61-.72,0,.28-1.61Z" />
        <path d="M48.5,51.29l.72,0,.26,1.61-.78,0Z" />
        <path d="M49.16,3.59,48.93,5.2l-.72,0,.18-1.61Z" />
        <path d="M47.51,51.32h.26l.16,1.61H47.1V51.33Z" />
        <path d="M47.61,3.53l-.13,1.62-.72,0,.08-1.62Z" />
        <path d="M45.56,52.94l.07-1.62h.73l0,1.62Z" />
        <path d="M46,5.12h-.72l0-1.62h.78Z" />
        <path d="M44,52.9l.15-1.61.73,0-.1,1.61Z" />
        <path d="M44.51,3.51l.07,1.62h-.73l-.11-1.62Z" />
        <path d="M42.49,52.84l.22-1.61.73,0-.18,1.6C43,52.87,42.75,52.86,42.49,52.84Z" />
        <path d="M42.92,3.56l.26,1.61-.73,0-.3-1.61Z" />
        <path d="M41,52.76l.3-1.6.73,0-.26,1.61Z" />
        <path d="M41.72,5.26,41,5.32l-.38-1.61.77,0Z" />
        <path d="M39.43,52.65l.37-1.6.72.05-.33,1.61Z" />
        <path d="M40.27,5.38l-.72.07-.45-1.6.76-.07Z" />
        <path d="M37.9,52.51l.46-1.59.72.07-.42,1.59Z" />
        <path d="M36.37,52.34l.56-1.58.71.08-.5,1.59Z" />
        <path d="M34.86,52.14l.65-1.57.7.1-.59,1.58Z" />
        <path d="M32.7,50.12l.7.12-.78,1.56-.74-.14Z" />
        <path d="M33.37,51.92l.73-1.56.7.11L34.12,52Z" />
        <path d="M30,49.55l.67.15-1,1.52L29,51.05Z" />
        <path d="M31.33,49.85,32,50l-.87,1.53c-.25-.05-.49-.09-.73-.15Z" />
        <path d="M27.3,48.86l.66.19-1.14,1.47-.71-.2Z" />
        <path d="M28.63,49.22l.66.17-1.05,1.49-.72-.17Z" />
        <path d="M26,48.48l.63.2-1.24,1.44-.69-.21Z" />
        <path d="M20,46.13l.56.27-1.69,1.27-.61-.29Z" />
        <path d="M21.13,46.66l.58.25L20.1,48.22,19.48,48Z" />
        <path d="M22.31,47.16l.59.23-1.52,1.35-.64-.26Z" />
        <path d="M23.51,47.63l.61.22-1.43,1.38L22,49Z" />
        <path d="M24.75,48.07l.63.21L24,49.69l-.68-.23Z" />
        <path d="M13.13,41.78l.41.35-2.21.95c-.16-.12-.31-.25-.45-.37Z" />
        <path d="M14,42.47l.44.33-2.15,1c-.16-.11-.32-.24-.47-.36Z" />
        <path d="M15.82,43.78a5.66,5.66,0,0,0,.48.31l-2,1.1-.53-.34Z" />
        <path d="M14.87,43.14l.47.32-2.09,1-.5-.35Z" />
        <path d="M16.8,44.41l.5.3-1.93,1.14-.55-.32Z" />
        <path d="M17.82,45l.53.29-1.87,1.19-.56-.31Z" />
        <path d="M18.89,45.58l.55.28-1.79,1.23-.58-.3Z" />
        <path d="M12.32,41.08l.39.35-2.27.9L10,42Z" />
        <path d="M9.56,38.09l.3.39-2.48.68-.33-.41Z" />
        <path d="M10.18,38.86l.33.38L8.06,40l-.35-.4Z" />
        <path d="M10.84,39.61l.35.37-2.38.8c-.14-.13-.25-.26-.38-.4Z" />
        <path d="M11.56,40.35l.37.37-2.34.84-.4-.38Z" />
        <path d="M7.2,34.06a3.65,3.65,0,0,0,.18.41l-2.66.42c-.07-.15-.13-.3-.2-.44Z" />
        <path d="M7.57,34.88l.2.42-2.63.47-.21-.44Z" />
        <path d="M8,35.7l.22.41-2.6.52-.24-.43Z" />
        <path d="M8.46,36.51c.09.13.18.26.26.4l-2.57.58-.27-.43Z" />
        <path d="M9,37.3l.28.4-2.53.63-.3-.42Z" />
        <path d="M6.87,33.23l.16.42L4.34,34l-.16-.45Z" />
        <path d="M6.59,32.39c0,.14.09.28.14.42l-2.7.3c-.06-.15-.1-.3-.15-.45Z" />
        <path d="M6.37,31.54c0,.14.07.29.11.42l-2.72.25c0-.15-.07-.29-.11-.45Z" />
        <path d="M6.2,30.69c0,.15,0,.29.08.43l-2.73.19-.09-.45Z" />
        <path d="M6.07,29.84l0,.43-2.73.14c0-.16-.05-.31-.06-.46Z" />
        <path d="M6,29l0,.42-2.75.09,0-.46Z" />
        <path d="M6,28.18v.38l-2.74,0c0-.14,0-.28,0-.41v-.05H6Z" />
        <path d="M6,27.28l0,.42-2.74,0c0-.15,0-.3,0-.45Z" />
        <path d="M6.08,26.42c0,.15,0,.29,0,.43l-2.75-.09c0-.15,0-.3,0-.45Z" />
        <path d="M6.22,25.57c0,.15-.06.29-.08.43L3.4,25.85c0-.15.05-.3.08-.45Z" />
        <path d="M6.4,24.73a2.86,2.86,0,0,0-.1.42L3.57,25c0-.15.06-.3.1-.45Z" />
        <path d="M6.62,23.88l-.12.42L3.78,24c.05-.14.1-.29.14-.45Z" />
        <path d="M6.91,23c-.06.14-.1.28-.15.42l-2.7-.31c.05-.15.1-.3.16-.45Z" />
        <path d="M7.24,22.21l-.18.42-2.67-.37c.06-.15.11-.3.18-.45Z" />
        <path d="M7.62,21.39c-.06.14-.14.27-.2.41l-2.64-.43c.06-.15.13-.29.2-.44Z" />
        <path d="M11,16.67l-.36.38-2.42-.76c.12-.14.25-.27.37-.4Z" />
        <path d="M10.3,17.43a3.79,3.79,0,0,0-.32.38L7.5,17.1c.12-.13.23-.27.35-.41Z" />
        <path d="M9.66,18.19l-.29.39-2.52-.65.32-.41Z" />
        <path d="M9.08,19l-.28.39-2.56-.6.3-.42Z" />
        <path d="M8.54,19.77l-.25.4L5.7,19.63,6,19.2Z" />
        <path d="M8.06,20.57,7.84,21l-2.63-.49.24-.43Z" />
        <path d="M15.12,13.18c-.15.11-.31.21-.46.33l-2.13-1,.51-.35Z" />
        <path d="M18.14,11.34l-.53.29-1.9-1.16c.18-.11.37-.21.57-.31Z" />
        <path d="M16.09,12.54l-.49.32-2-1.07.52-.34Z" />
        <path d="M14.21,13.84l-.44.33-2.2-1,.48-.36Z" />
        <path d="M13.33,14.52l-.42.35-2.26-.93.45-.37Z" />
        <path d="M12.5,15.22c-.14.12-.26.24-.4.35l-2.31-.86c.13-.14.28-.26.42-.39Z" />
        <path d="M11.71,15.94l-.36.36L9,15.48c.13-.12.27-.25.4-.39Z" />
        <path d="M20.35,10.24l-.57.27L18,9.26,18.64,9Z" />
        <path d="M19.22,10.78l-.55.28L16.85,9.85l.59-.3Z" />
        <path d="M17.09,11.93l-.51.31-2-1.13.55-.32Z" />
        <path d="M26.44,8l-.65.2-1.3-1.43.69-.21Z" />
        <path d="M25.16,8.35l-.63.22-1.39-1.4.67-.23Z" />
        <path d="M23.91,8.78,23.3,9,21.81,7.65l.66-.24Z" />
        <path d="M22.69,9.24l-.6.24L20.52,8.15l.64-.25Z" />
        <path d="M21.5,9.73l-.59.25L19.26,8.69l.63-.27Z" />
        <path d="M27.74,7.57l-.65.19L25.87,6.31l.7-.2Z" />
        <path d="M29.07,7.22l-.67.17L27.27,5.91c.24,0,.47-.12.72-.18Z" />
        <path d="M33.16,6.33l-.69.13L31.6,4.93l.74-.14Z" />
        <path d="M31.78,6.6l-.69.15-.94-1.52.73-.15Z" />
        <path d="M30.42,6.9l-.69.16-1-1.5.72-.17Z" />
        <path d="M34.56,6.09l-.7.12-.78-1.55.75-.13Z" />
        <path d="M36,5.88l-.7.1-.7-1.56.75-.11Z" />
        <path d="M37.4,5.69c-.24,0-.48.06-.72.09L36.07,4.2l.75-.09Z" />
        <path d="M38.83,5.52l-.72.08L37.58,4c.25,0,.5-.06.76-.09Z" />
        <path d="M53.77,4l-.53,1.59-.71-.08L53,3.88Z" />
        <path d="M55.29,4.16l-.63,1.57L54,5.64l.59-1.58Z" />
        <path d="M56.8,4.38l-.72,1.56-.71-.1L56,4.26Z" />
        <path d="M57.46,6.18l-.69-.12.77-1.55.74.13Z" />
        <path d="M60.2,6.75c-.23,0-.45-.11-.68-.15l1-1.52.73.16Z" />
        <path d="M58.84,6.45l-.69-.14L59,4.78l.73.15Z" />
        <path d="M69.05,9.61l-.58-.24,1.58-1.32.63.26Z" />
        <path d="M67.87,9.13l-.61-.24,1.5-1.36.65.26Z" />
        <path d="M66.65,8.66,66,8.44l1.41-1.39.66.24Z" />
        <path d="M65.41,8.22,64.78,8,66.11,6.6l.67.22Z" />
        <path d="M62.85,7.43l-.65-.18,1.14-1.47L64,6Z" />
        <path d="M64.14,7.81l-.64-.19,1.23-1.45.7.21Z" />
        <path d="M61.53,7.07l-.67-.16,1.07-1.49.71.17Z" />
        <path d="M73.48,11.82l-.52-.3,1.89-1.17.56.32Z" />
        <path d="M72.43,11.23,71.89,11,73.7,9.73l.58.31Z" />
        <path d="M70.21,10.13l-.57-.26L71.3,8.58l.62.28Z" />
        <path d="M71.34,10.67l-.56-.27,1.74-1.25.59.29Z" />
        <path d="M79.74,16.51c-.12-.13-.25-.25-.38-.37l2.34-.85.4.39Z" />
        <path d="M79,15.78c-.12-.12-.26-.24-.39-.35l2.27-.91c.16.13.29.26.43.38Z" />
        <path d="M78.16,15.07l-.42-.34,2.22-1,.46.37Z" />
        <path d="M77.31,14.38l-.45-.33,2.17-1c.16.12.32.23.47.36Z" />
        <path d="M76.42,13.71,76,13.38l2.09-1c.18.11.34.23.5.35Z" />
        <path d="M75.47,13.06a5.72,5.72,0,0,0-.48-.32l2-1.09.52.34Z" />
        <path d="M74.5,12.43,74,12.12,76,11l.54.33Z" />
        <path d="M83.74,22a4,4,0,0,0-.21-.41l2.64-.47c.07.15.14.29.22.44Z" />
        <path d="M83.33,21.17l-.24-.4,2.6-.52c.09.14.17.28.25.43Z" />
        <path d="M82.85,20.37c-.08-.14-.17-.27-.25-.4l2.56-.59.27.43Z" />
        <path d="M82.33,19.57l-.28-.4,2.53-.63c.1.13.2.28.3.42Z" />
        <path d="M81.75,18.78l-.3-.39,2.48-.69.33.41Z" />
        <path d="M81.13,18c-.11-.13-.21-.26-.33-.38l2.44-.75.36.41Z" />
        <path d="M80.46,17.25l-.36-.37,2.4-.8.38.4Z" />
        <path d="M84.11,22.82l-.18-.42L86.59,22l.19.45Z" />
        <path d="M84.43,23.65c-.06-.14-.1-.28-.16-.42L87,22.88l.17.45Z" />
        <path d="M84.69,24.49c0-.14-.08-.28-.13-.43l2.7-.29c0,.16.09.31.14.45Z" />
        <path d="M84.89,25.33c0-.14-.06-.28-.1-.42l2.72-.23c0,.15.07.3.11.45Z" />
        <path d="M85.05,26.18c0-.14,0-.28-.08-.43l2.74-.17c0,.15.05.3.07.46Z" />
        <path d="M85.14,27a3.28,3.28,0,0,0,0-.43l2.75-.11c0,.15,0,.3,0,.46V27l-2.75.08Z" />
        <path d="M85.2,28c0-.14,0-.28,0-.42l2.75-.05c0,.15,0,.3,0,.45Z" />
    </g>
</svg>