<svg xmlns="http://www.w3.org/2000/svg" viewBox="0 0 58 58">
    <polygon id="baseOutline" style="fill:none;stroke:#borderColor;stroke-linecap:round;stroke-linejoin:round;stroke-width:#borderWidth" points="54.95 22.48 26.77 6.11 14.86 2.31 3 19.83 3.06 39.32 31.23 55.69 55 41.97 54.95 22.48"/>
    <polygon id="baseFill" style="fill:#primaryColor" points="54.95 22.48 26.77 6.11 14.86 2.31 3 19.83 3.06 39.32 31.23 55.69 55 41.97 54.95 22.48" />
    <g id="shading" style="isolation:isolate">
        <g style="mix-blend-mode:multiply;opacity:0.3"><polygon points="43.03 18.68 14.86 2.31 26.77 6.11 54.95 22.48 43.03 18.68"/></g>
        <g style="mix-blend-mode:multiply;opacity:0.3"><polygon points="31.23 55.69 3.06 39.32 3 19.83 31.18 36.2 31.23 55.69"/></g>
        <g style="mix-blend-mode:multiply;opacity:0.05"><polygon points="31.18 36.2 3 19.83 14.86 2.31 43.03 18.68 31.18 36.2"/></g>
        <g style="mix-blend-mode:multiply;opacity:0.1"><polygon points="43.03 18.68 54.95 22.48 55 41.97 31.23 55.69 31.18 36.2 43.03 18.68"/></g>
    </g>
    <g id="edgeLines">
        <line style="fill:none;stroke:#fff;stroke-linejoin:round;stroke-width:0.25px" x1="31.2" y1="36.2" x2="31.26" y2="55.69"/>
        <polyline style="fill:none;stroke:#fff;stroke-linejoin:round;stroke-width:0.25px" points="14.88 2.31 43.06 18.68 31.2 36.2 3.03 19.83"/>
        <polyline style="fill:none;stroke:#fff;stroke-linejoin:round;stroke-width:0.25px" points="31.26 55.69 31.2 36.2 43.06 18.68 54.97 22.48"/>
    </g>
</svg>