<svg xmlns="http://www.w3.org/2000/svg" xmlns:xlink="http://www.w3.org/1999/xlink" width="100" height="100" viewBox="0 0 100 100">
  <defs>
    <linearGradient id="a" x1="21.31" y1="59.482" x2="52.583" y2="5.316" gradientUnits="userSpaceOnUse">
      <stop offset="0" stop-opacity="0.5"/>
      <stop offset="0.119" stop-opacity="0.2"/>
      <stop offset="0.498" stop-opacity="0.341"/>
      <stop offset="0.561" stop-opacity="0.5"/>
      <stop offset="0.939" stop-opacity="0.2"/>
    </linearGradient>
    <linearGradient id="b" x1="61.932" y1="14.319" x2="62.315" y2="13.656" gradientUnits="userSpaceOnUse">
      <stop offset="0" stop-opacity="0"/>
      <stop offset="1" stop-opacity="0.5"/>
    </linearGradient>
    <linearGradient id="c" x1="58.157" y1="16.414" x2="58.212" y2="16.32" xlink:href="#b"/>
    <linearGradient id="d" x1="64.315" y1="13.523" x2="64.554" y2="13.11" xlink:href="#b"/>
    <linearGradient id="e" x1="70.21" y1="23.419" x2="75.003" y2="15.117" xlink:href="#b"/>
    <linearGradient id="f" x1="63.355" y1="13.699" x2="63.575" y2="13.319" xlink:href="#b"/>
    <linearGradient id="g" x1="58.673" y1="16.118" x2="58.938" y2="15.66" xlink:href="#b"/>
    <linearGradient id="h" x1="65.313" y1="13.419" x2="65.464" y2="13.157" xlink:href="#b"/>
    <linearGradient id="i" x1="66.213" y1="13.519" x2="66.303" y2="13.363" xlink:href="#b"/>
    <linearGradient id="j" x1="31.052" y1="58.387" x2="31.338" y2="57.89" gradientUnits="userSpaceOnUse">
      <stop offset="0" stop-opacity="0.5"/>
      <stop offset="0.119" stop-opacity="0.2"/>
      <stop offset="0.829" stop-opacity="0.5"/>
    </linearGradient>
    <linearGradient id="k" x1="30.45" y1="60.966" x2="30.556" y2="60.782" xlink:href="#j"/>
    <linearGradient id="l" x1="30.386" y1="61.715" x2="30.497" y2="61.522" xlink:href="#j"/>
    <linearGradient id="m" x1="30.665" y1="59.779" x2="30.775" y2="59.59" xlink:href="#j"/>
    <linearGradient id="n" x1="30.777" y1="59.23" x2="31.015" y2="58.818" xlink:href="#j"/>
    <linearGradient id="o" x1="31.531" y1="57.289" x2="31.655" y2="57.074" xlink:href="#j"/>
    <linearGradient id="p" x1="19.825" y1="90.961" x2="38.303" y2="58.956" xlink:href="#j"/>
    <linearGradient id="q" x1="31.229" y1="65.035" x2="31.257" y2="64.987" xlink:href="#j"/>
    <linearGradient id="r" x1="30.415" y1="62.408" x2="30.467" y2="62.317" xlink:href="#j"/>
  </defs>
  <g style="isolation: isolate">
    <g>
      <path d="M88.519,23,67.375,10.717l-.078-.045c-.174-.1-.355-.179-.536-.261h0c-.06-.028-.118-.062-.18-.088l-.013-.007c-.11-.045-.226-.077-.338-.118-.158-.058-.315-.12-.478-.168h0l-.018-.007c-.047-.013-.1-.02-.146-.033-.258-.07-.521-.132-.788-.18-.028-.006-.055-.015-.083-.019-.058-.01-.119-.012-.177-.021h0q-.505-.079-1.028-.118h0c-.052,0-.1-.014-.154-.017-.037,0-.075,0-.112,0-.347-.02-.7-.031-1.052-.031h-.01c-.366,0-.737.011-1.11.027-.029,0-.057,0-.087,0q-.359.015-.722.038c-.068,0-.137.013-.2.017L45.936,1.478l-.042-.024a3.51,3.51,0,0,0-.385-.188c-.023-.01-.048-.017-.072-.026-.042-.017-.085-.03-.127-.045h0c-.066-.023-.13-.05-.2-.07s-.143-.033-.215-.049c-.044-.011-.088-.022-.133-.031h0c-.025,0-.048-.013-.073-.017a4.294,4.294,0,0,0-.459-.054.176.176,0,0,1-.023,0c-.035,0-.071,0-.106,0-.128,0-.255-.009-.387,0-.032,0-.067.008-.1.01-.085.006-.173.017-.259.026s-.163.012-.247.025c-.043.007-.088.02-.131.028h0c-.136.024-.275.055-.414.088h0c-.075.018-.146.027-.222.048-.029.008-.06.022-.088.03h0a9.584,9.584,0,0,0-1.011.349c-.02.008-.038.012-.058.02-.211.088-.426.184-.645.29-.44.211-.88.441-1.319.694q-.45.261-.9.556c-.1.064-.192.137-.288.2-.2.14-.405.278-.607.43-.113.086-.226.184-.339.274l0,0,0,0c-.18.143-.36.284-.538.439-.123.107-.245.227-.368.34-.15.138-.3.269-.451.417l-.111.11q-.429.434-.82.883c-.033.037-.062.077-.094.115h0c-.068.078-.131.159-.2.238-.118.143-.241.285-.353.43s-.2.272-.3.408h0c-.042.058-.087.115-.128.173h0c-.027.038-.056.074-.082.111q-.228.324-.438.655c-.052.08-.1.163-.15.244h0c-.036.059-.072.118-.107.177s-.092.147-.136.221q-.189.324-.364.653c-.029.055-.055.111-.083.166h0l-.09.178c-.057.113-.116.225-.171.338-.118.245-.231.491-.338.74l-.014.034h0c-.014.031-.025.063-.039.093v0c-.1.229-.193.458-.282.689-.042.109-.078.22-.118.329s-.086.238-.128.358h0c-.032.092-.068.181-.1.273-.056.168-.1.34-.156.51s-.106.336-.154.506c-.017.058-.037.114-.053.171q-.138.5-.259,1.01-.068.287-.128.57c-.056.264-.1.523-.15.783v0c-.017.091-.037.183-.053.274q-.105.61-.184,1.209c0,.042-.008.082-.013.124-.044.354-.077.7-.109,1.053v.006c-.015.164-.036.331-.048.494h0q-.06.765-.09,1.518c-.007.18-.015.335-.024.483,0,.052-.006.1-.01.146-.007.1-.015.194-.025.281,0,.045-.01.092-.016.134a2.692,2.692,0,0,1-.06.316l0,.016c-.014.049-.035.093-.051.14s-.036.113-.061.167l0,0a2,2,0,0,1-.173.294l0,0c-.013.019-.034.041-.048.06-.055.072-.111.143-.179.22-.047.052-.1.11-.16.168l-.053.055c-.046.047-.085.09-.137.142-.139.136-.294.282-.476.453Q27,25.3,25.8,26.434h0c-.249.236-.5.477-.746.715q-.852.816-1.7,1.646c-.144.141-.29.278-.434.42-.107.107-.212.221-.32.328h0c-1.025,1.019-2.045,2.052-3.049,3.122-.891.951-1.772,1.914-2.634,2.9h0c-.042.048-.086.093-.128.141s-.087.108-.132.161C16,36.628,15.36,37.4,14.738,38.2h0c-.038.048-.078.092-.116.14-.081.1-.158.217-.239.323q-.433.57-.854,1.158h0c-.08.112-.164.217-.243.33-.069.1-.134.2-.2.3-.169.244-.334.494-.5.744-.1.15-.2.294-.3.447-.075.117-.146.241-.22.36-.121.193-.239.388-.357.584-.081.136-.166.266-.246.4q-.258.442-.507.9l-.1.184c-.1.19-.2.379-.287.566l-.015.033h0c-.017.035-.031.069-.048.1v0c-.066.139-.132.279-.192.417-.027.062-.049.123-.075.185h0c-.029.068-.056.136-.083.2h0c-.024.057-.05.116-.072.174-.047.123-.088.243-.131.364-.019.056-.041.111-.059.166h0c-.005.017-.013.035-.019.053-.07.211-.133.418-.19.623l0,.012h0c-.028.1-.049.2-.074.3l0,.008c-.032.128-.068.258-.094.383l0,.015h0c-.057.271-.1.534-.136.791,0,.02-.008.041-.01.061-.008.058-.009.112-.015.169-.019.171-.035.34-.044.5h0c-.005.085-.008.168-.01.251h0c-.005.154-.005.3,0,.451,0,.076,0,.153.008.227h0c.009.163.024.319.043.472.006.049.009.1.016.148h0a5.675,5.675,0,0,0,.109.563c.01.042.024.079.035.119h0v0c.037.133.076.262.121.383h0c.02.055.042.107.064.16.042.1.086.2.133.288.026.05.052.1.079.145a2.9,2.9,0,0,0,.164.249h0c.026.035.051.073.078.107a2.1,2.1,0,0,0,.271.284,2.229,2.229,0,0,0,.331.236l9.323,5.418c-1.207,3.232-2.453,6.461-3.638,9.693-.09.246-.183.492-.272.739-.487,1.341-.963,2.683-1.415,4.026-.045.132-.089.264-.133.4-.02.06-.038.119-.058.179h0q-.327.983-.635,1.962l-.023.071q-.3.971-.574,1.938h0c-.023.079-.049.159-.071.239-.01.035-.016.07-.026.105h0c-.242.877-.461,1.751-.649,2.619h0c-.009.041-.022.083-.031.124s-.011.061-.018.092c-.056.265-.1.53-.154.794-.033.175-.07.351-.1.526-.05.292-.091.582-.133.872-.02.136-.045.273-.063.409l-.008.065c-.013.081-.032.165-.044.254-.2,1.589-.081,2.511.443,2.816L33.607,98.921a.2.2,0,0,1-.039-.032l0-.006c.34.229.857.185,1.588-.138a8.64,8.64,0,0,0,.824-.425q3-1.719,5.995-3.454,4.2-2.427,8.426-4.85a7.676,7.676,0,0,0,3.125-3.671c1.474-3.269,2.661-6.577,4.033-9.868.475-1.131.963-2.264,1.5-3.384h0l9.215,5.355c-.019-.011-.035-.031-.053-.043a1.813,1.813,0,0,0,.578.248,1.882,1.882,0,0,0,.388.043c.061,0,.128-.011.192-.015.044,0,.087,0,.131-.011.075-.01.152-.024.23-.041s.13-.031.2-.049.139-.041.211-.066c.088-.031.179-.068.271-.107.058-.025.115-.047.174-.075.157-.073.317-.156.485-.253.983-.589,1.967-1.163,2.95-1.73,1.405-.811,2.809-1.609,4.214-2.42q2.208-1.276,4.413-2.545,1.1-.638,2.208-1.278c.181-.1.363-.207.544-.311.226-.131.452-.266.675-.415a4.157,4.157,0,0,0,2.144-3.935,15.609,15.609,0,0,0-1.738-6.469C84.682,55.133,82.275,52,80.046,48.66a18.622,18.622,0,0,1-2.4-4.358c-.5-1.411-.147-2.318,1.384-3.57a56.183,56.183,0,0,1,5.113-3.349,20.8,20.8,0,0,0,3.241-2.518,10.707,10.707,0,0,0,3.306-6.993c.192-2.323-.5-3.759-1.791-4.632Z" fill="#primaryColor"/>
      <path d="M60.362,14.868c.439-.253.879-.483,1.319-.694,3.18-1.535,5.586-1.182,7.031,1.312a15.114,15.114,0,0,1,1.51,6.815c.068,1.408.126,1.5,1.327,1.276.128-.022.256-.059.384-.082a63.492,63.492,0,0,1,9.473-1.538c2.743-.165,5.41-.125,7.492,1.282,1.282.876,1.983,2.309,1.785,4.635a10.727,10.727,0,0,1-3.3,6.99,21.011,21.011,0,0,1-3.248,2.522,55.824,55.824,0,0,0-5.107,3.345c-1.538,1.255-1.88,2.159-1.39,3.573a19.224,19.224,0,0,0,2.4,4.359c2.228,3.342,4.642,6.468,6.443,10.315a15.6,15.6,0,0,1,1.739,6.47,4.149,4.149,0,0,1-2.144,3.934c-.224.15-.449.284-.674.414l-.539.309-2.209,1.278q-2.21,1.276-4.418,2.548c-1.405.811-2.81,1.609-4.214,2.42-.983.568-1.967,1.142-2.95,1.731-1.457.842-2.478.8-3.281-.01s-1.444-1.8-2.169-2.693a26.141,26.141,0,0,0-3.818-4.5.968.968,0,0,0-1.163-.2,3.89,3.89,0,0,0-1.193,1.594c-.718,1.385-1.3,2.8-1.887,4.2-1.372,3.291-2.565,6.6-4.039,9.872a7.636,7.636,0,0,1-3.119,3.667q-4.24,2.426-8.426,4.85c-2,1.154-4,2.311-5.995,3.454-2.433,1.4-3.2.775-2.82-2.215.006-.085.031-.173.037-.25a55.582,55.582,0,0,1,2.682-10.4C37.745,79.925,39.98,74.409,42,68.879a42.524,42.524,0,0,0,1.622-5.2c.354-1.586.078-2.021-1.111-1.769a6.663,6.663,0,0,0-1.929.769,51.159,51.159,0,0,1-5.058,2.6c-1.52.65-2.952.948-3.971.074-1.346-1.163-1.83-4.837.543-9.176a54.984,54.984,0,0,1,8.6-11.22c2.818-3,5.726-5.768,8.654-8.494,1.378-1.288,1.409-1.409,1.475-3.078a31.284,31.284,0,0,1,.776-6.033,19.891,19.891,0,0,1,5.152-9.706A17.079,17.079,0,0,1,60.362,14.868Z" fill="none"/>
      <path d="M63.4,13.514c.1-.029.2-.053.307-.077.141-.033.282-.065.419-.089s.251-.039.375-.053c.087-.009.175-.02.261-.026.164-.01.324-.012.481-.007.037,0,.076,0,.113,0a4.36,4.36,0,0,1,.555.07c.044.009.087.021.13.031a3.612,3.612,0,0,1,.416.12c.042.014.084.028.125.044a3.517,3.517,0,0,1,.5.238L45.935,1.478l-.041-.024a3.777,3.777,0,0,0-.384-.187c-.024-.011-.05-.017-.075-.027-.041-.016-.083-.029-.125-.044-.066-.023-.13-.05-.2-.07s-.145-.033-.217-.05c-.044-.01-.087-.021-.131-.03l-.072-.017a4.534,4.534,0,0,0-.459-.053.192.192,0,0,0-.024,0c-.037,0-.076,0-.113,0-.125,0-.25-.009-.379,0-.033,0-.069.008-.1.01-.085.005-.173.016-.261.026s-.161.012-.244.024c-.043.007-.088.021-.131.028-.137.024-.278.056-.419.09-.074.017-.144.026-.219.047-.029.007-.06.022-.088.03a9.276,9.276,0,0,0-1.014.35c-.019.008-.037.011-.056.019q-.318.132-.646.29c-.44.212-.88.441-1.319.7q-.452.26-.9.556c-.094.062-.188.134-.281.2-.2.141-.409.281-.613.435-.115.087-.228.185-.343.276-.181.145-.362.286-.542.442-.122.107-.243.226-.365.338-.151.139-.3.271-.454.419-.037.037-.074.073-.111.111q-.425.429-.812.875c-.034.039-.064.079-.1.119-.068.079-.132.16-.2.241-.116.14-.237.279-.348.422s-.2.275-.3.413c-.043.058-.087.116-.128.174-.026.035-.053.07-.079.106q-.227.324-.439.655c-.052.082-.1.166-.151.249l-.108.175c-.044.074-.091.146-.134.22-.126.216-.247.435-.365.655-.029.055-.055.111-.084.166s-.06.119-.09.179c-.058.113-.117.225-.173.34q-.177.367-.339.743l-.013.03c-.013.03-.024.061-.037.091-.1.233-.2.467-.287.7-.041.106-.076.215-.115.321s-.088.241-.13.362c-.033.095-.07.189-.1.285-.054.161-.1.327-.15.49s-.109.349-.16.525c-.018.062-.039.123-.056.185q-.135.487-.253.982-.068.287-.128.57c-.057.264-.1.525-.151.786-.016.09-.036.181-.052.271q-.105.611-.184,1.211c-.006.041-.008.082-.013.123-.045.358-.078.711-.111,1.064-.014.162-.035.327-.047.488q-.06.766-.09,1.519c-.008.21-.016.395-.026.561,0,.051-.008.09-.012.138-.008.108-.015.217-.027.31a2.9,2.9,0,0,1-.065.349l0,.015a1.892,1.892,0,0,1-.11.307l0,0a1.942,1.942,0,0,1-.172.293l0,0a3.372,3.372,0,0,1-.227.28c-.063.07-.139.147-.215.225-.045.046-.084.089-.135.139-.138.136-.293.283-.476.454Q27,25.3,25.8,26.433c-.249.237-.5.478-.746.716q-.848.812-1.691,1.638c-.142.14-.286.274-.427.414-.108.107-.213.221-.321.328-1.03,1.025-2.054,2.062-3.064,3.138Q18.21,34.1,16.907,35.58c-.043.049-.088.094-.13.143s-.088.109-.133.161q-.978,1.133-1.913,2.322c-.039.049-.08.095-.119.144-.081.1-.158.217-.239.323q-.432.569-.852,1.154c-.08.112-.166.219-.245.333-.068.1-.132.2-.2.3-.168.244-.333.492-.5.741-.1.152-.2.3-.3.451-.074.117-.144.24-.218.358q-.18.288-.355.581c-.082.136-.168.267-.248.4q-.258.441-.506.9l-.093.172q-.151.285-.286.566l-.019.041c-.019.038-.035.077-.053.115-.063.134-.126.269-.184.4-.027.064-.051.127-.078.191s-.057.138-.084.206-.047.112-.068.166c-.049.128-.091.253-.136.378-.018.053-.039.106-.056.158-.006.016-.013.033-.018.049q-.105.316-.191.624l0,.017c-.029.106-.051.208-.077.313-.031.126-.066.253-.092.376l0,.019c-.058.271-.1.535-.136.792,0,.02-.008.041-.01.06-.008.059-.009.113-.015.171-.019.17-.035.339-.044.5-.005.085-.008.169-.01.253,0,.154,0,.3,0,.451,0,.076,0,.153.007.227.009.163.024.32.043.473.006.049.009.1.016.148a5.675,5.675,0,0,0,.109.563c.01.043.024.08.035.122.036.133.075.262.12.384.02.055.042.107.064.16.042.1.085.2.132.289.026.049.052.1.079.145a2.675,2.675,0,0,0,.163.249c.026.036.051.075.078.108a2.231,2.231,0,0,0,.269.285,2.192,2.192,0,0,0,.33.235L31.881,65.585a2.344,2.344,0,0,1-.33-.235,2.16,2.16,0,0,1-.269-.285c-.027-.034-.052-.072-.078-.108a2.832,2.832,0,0,1-.163-.25c-.027-.046-.053-.095-.079-.145-.047-.091-.091-.188-.132-.289-.022-.052-.044-.1-.065-.16-.044-.122-.084-.252-.12-.386-.011-.04-.024-.077-.034-.119a5.7,5.7,0,0,1-.109-.564c-.007-.047-.01-.1-.016-.147-.019-.153-.034-.311-.043-.474,0-.074-.005-.15-.007-.226,0-.148,0-.3,0-.453,0-.083.006-.166.011-.251.009-.164.025-.333.044-.505.008-.076.014-.151.025-.229.034-.258.078-.522.136-.793.026-.125.061-.255.092-.383.027-.109.05-.215.08-.326.063-.225.134-.455.212-.688.018-.052.039-.106.057-.159q.095-.268.2-.543c.027-.069.055-.137.084-.206.082-.2.168-.393.262-.592.018-.039.034-.077.053-.116.123-.257.255-.517.4-.779.243-.444.5-.873.753-1.3.118-.2.236-.39.356-.582.171-.273.345-.541.521-.808q.246-.375.5-.742c.146-.212.3-.42.444-.628q.42-.588.854-1.156c.118-.155.235-.311.355-.464.622-.8,1.261-1.568,1.914-2.324.088-.1.175-.2.263-.3.866-.992,1.75-1.96,2.645-2.914,1.01-1.075,2.034-2.113,3.064-3.137.249-.248.5-.5.748-.742q.842-.828,1.691-1.639c.249-.238.5-.479.746-.715q1.2-1.138,2.405-2.261c.182-.17.338-.318.476-.454l.03-.029c.041-.04.068-.072.1-.11.075-.077.153-.155.215-.225l.031-.033c.046-.052.087-.1.126-.152.025-.032.048-.063.07-.095l0,0,0,0c.02-.028.038-.055.055-.082s.029-.046.043-.069l.036-.065.032-.062.005-.013,0-.005.022-.047c.01-.022.019-.044.027-.067s.02-.052.029-.08.02-.062.029-.094l0-.018,0-.017.024-.1c.016-.077.029-.158.04-.245V34.39c.013-.1.022-.224.03-.346,0-.035.007-.063.009-.1.01-.167.018-.352.026-.562q.03-.753.089-1.518c.013-.164.034-.332.049-.5.032-.35.065-.7.11-1.056.055-.44.119-.884.2-1.333.016-.091.036-.184.053-.275.081-.447.17-.9.278-1.354.093-.393.2-.781.309-1.167.05-.176.106-.35.16-.525.081-.259.163-.518.252-.774.042-.122.086-.243.13-.364.126-.344.258-.685.4-1.022.013-.03.024-.061.037-.091.163-.377.339-.747.525-1.114.03-.059.059-.119.09-.178q.275-.53.584-1.042c.035-.058.07-.116.106-.174q.316-.513.67-1.011c.041-.058.085-.115.127-.173.208-.284.427-.562.654-.837.065-.08.129-.16.2-.239.289-.338.589-.671.91-1,.188-.188.378-.357.567-.532.121-.111.241-.229.363-.335.181-.157.363-.3.545-.445.113-.09.226-.188.34-.274.2-.154.41-.295.615-.436.093-.064.185-.135.279-.2q.448-.3.9-.557c.439-.253.879-.483,1.319-.694.239-.116.472-.216.7-.31A9.72,9.72,0,0,1,63.4,13.514Z" fill="url(#a)"/>
      <path d="M67.8,78.072c-.8-.8-1.444-1.8-2.169-2.693a26.141,26.141,0,0,0-3.818-4.5.968.968,0,0,0-1.163-.2,3.89,3.89,0,0,0-1.193,1.594c-.141.272-.258.549-.39.823l9.207,5.351c-.018-.011-.034-.031-.053-.042A2.335,2.335,0,0,1,67.8,78.072Z" opacity="0.5" style="mix-blend-mode: multiply"/>
      <g>
        <path d="M61.681,14.174c.3-.147.6-.261.885-.373-.062.024-.12.037-.183.063C62.153,13.958,61.92,14.058,61.681,14.174Z" fill="url(#b)"/>
        <path d="M58.229,16.33h0l-.089.073h0Z" fill="url(#c)"/>
        <path d="M64.5,13.3c-.124.014-.248.031-.375.053l-.082.017a6.033,6.033,0,0,1,.787-.1h-.069C64.673,13.275,64.585,13.286,64.5,13.3Z" fill="url(#d)"/>
        <path d="M66.794,13.63a4.4,4.4,0,0,1,1.918,1.856,15.114,15.114,0,0,1,1.51,6.815c.042.878.081,1.244.4,1.341h0a.726.726,0,0,0,.209.025c.011,0,.023,0,.035,0,.055,0,.121-.008.187-.015.046-.006.089-.008.141-.016.107-.016.222-.035.356-.06s.256-.059.384-.082q1.332-.29,2.659-.557h0c.119-.024.238-.045.357-.067q1.193-.235,2.375-.427h0c.157-.026.313-.047.47-.071,1.217-.187,2.425-.343,3.611-.415q.408-.024.813-.04h.028c.276-.011.551-.016.824-.02.086,0,.174-.006.259-.006h.048a15.177,15.177,0,0,1,2.312.168h0c.085.013.172.023.256.038.039.007.077.019.116.027.191.037.379.081.566.129.038.01.078.017.117.027s.1.022.153.037.1.037.156.055c.136.043.269.092.4.141.091.031.183.06.271.1.055.023.107.054.162.079l.024.012c.125.056.247.119.368.183.079.04.161.074.238.119l-.006,0,.006,0L67.38,10.716l-.078-.044c-.177-.1-.362-.183-.547-.267-.057-.025-.111-.058-.168-.082l-.012-.006c-.108-.045-.223-.077-.334-.117-.16-.058-.318-.121-.483-.17l-.015,0c-.043-.013-.089-.018-.132-.03-.264-.072-.531-.135-.8-.184-.027-.005-.053-.014-.08-.019-.057-.01-.118-.011-.176-.02q-.505-.08-1.027-.117c-.053,0-.1-.015-.156-.018s-.079,0-.117,0c-.335-.018-.674-.029-1.016-.029h-.049c-.367,0-.738.011-1.111.027-.028,0-.055,0-.083,0-.242.01-.486.023-.73.038-.066,0-.133.014-.2.019l7.015,4.077C66.987,13.713,66.89,13.674,66.794,13.63Z" fill="url(#e)"/>
        <path d="M63.4,13.514c-.073.021-.152.055-.227.078.2-.062.4-.123.59-.167l-.056.012C63.6,13.461,63.5,13.485,63.4,13.514Z" fill="url(#f)"/>
        <path d="M59.043,15.72c-.159.11-.318.218-.475.337h0C58.725,15.938,58.884,15.832,59.043,15.72Z" fill="url(#g)"/>
        <path d="M65.24,13.262c-.063,0-.13,0-.194,0a4.4,4.4,0,0,1,.686.046c-.125-.019-.249-.04-.379-.048C65.316,13.261,65.277,13.263,65.24,13.262Z" fill="url(#h)"/>
        <path d="M66.454,13.484a3.612,3.612,0,0,0-.416-.12c-.043-.01-.086-.022-.13-.031l-.021,0a3.716,3.716,0,0,1,.742.221c-.017-.007-.033-.017-.05-.024C66.538,13.512,66.5,13.5,66.454,13.484Z" fill="url(#i)"/>
      </g>
      <g>
        <path d="M31.3,57.866h0q-.11.274-.2.543h0C31.156,58.231,31.224,58.05,31.3,57.866Z" fill="url(#j)" style="mix-blend-mode: multiply"/>
        <path d="M30.516,60.759c-.011.078-.017.153-.025.229h0c.008-.077.014-.152.025-.231Z" fill="url(#k)" style="mix-blend-mode: multiply"/>
        <path d="M30.436,61.745c0-.083.006-.167.011-.252h0c0,.085-.008.168-.011.251Z" fill="url(#l)" style="mix-blend-mode: multiply"/>
        <path d="M30.693,59.8c.017-.073.035-.147.054-.221l0,.009Z" fill="url(#m)" style="mix-blend-mode: multiply"/>
        <path d="M30.824,59.257h0c.043-.154.094-.311.144-.468C30.918,58.947,30.867,59.1,30.824,59.257Z" fill="url(#n)" style="mix-blend-mode: multiply"/>
        <path d="M31.643,57.069c-.036.076-.067.151-.1.227.034-.076.064-.152.1-.228Z" fill="url(#o)" style="mix-blend-mode: multiply"/>
        <path d="M43.744,62.451a.992.992,0,0,0-.056-.227l-.011-.028a.35.35,0,0,0-.026-.062.51.51,0,0,0-.18-.194,1.389,1.389,0,0,0-.962-.029,6.663,6.663,0,0,0-1.929.769,51.159,51.159,0,0,1-5.058,2.6c-1.52.65-2.952.948-3.971.074a2.344,2.344,0,0,0,.33.235L20.062,58.716c-1.8,4.819-3.7,9.631-5.319,14.455-.042.124-.084.249-.125.373-.019.057-.037.113-.055.17q-.338,1.011-.656,2.021l-.015.049q-.31.991-.586,1.978c-.023.078-.049.158-.071.236-.009.033-.015.066-.024.1-.242.877-.461,1.751-.65,2.62-.008.038-.02.077-.028.115s-.01.053-.016.08c-.055.263-.1.524-.153.786-.033.176-.07.353-.1.528-.05.288-.09.574-.132.86-.02.139-.045.278-.063.417l-.008.064c0,.033-.01.07-.017.106s-.013.069-.017.105l0,.038a5.757,5.757,0,0,0,.019,2.211,1,1,0,0,0,.424.606L33.61,98.92c-.022-.013-.04-.034-.061-.049a.571.571,0,0,1-.047-.039.928.928,0,0,1-.237-.322c-.009-.021-.017-.044-.026-.065a2.1,2.1,0,0,1-.129-.513c0-.025-.005-.054-.008-.081a5.09,5.09,0,0,1-.023-.72c0-.021,0-.045,0-.066.012-.289.038-.606.084-.961a1.428,1.428,0,0,1,.021-.144h0a.825.825,0,0,0,.016-.106c.071-.556.165-1.116.268-1.677l.039-.206v0c.049-.256.1-.511.15-.767h0l0-.024c.358-1.689.836-3.4,1.373-5.117l.012-.039,0-.006c.21-.67.43-1.342.653-2.014h0c.061-.181.12-.362.18-.543C37.745,79.925,39.98,74.409,42,68.879q.33-.906.637-1.81c.05-.148.1-.3.149-.444h0c.183-.556.359-1.111.513-1.665h0c.119-.428.228-.854.323-1.28.025-.109.039-.2.057-.3s.037-.194.049-.279c.01-.067.011-.122.017-.184a2.477,2.477,0,0,0,.012-.325c0-.038,0-.074-.008-.108Z" fill="url(#p)" style="mix-blend-mode: multiply"/>
        <path d="M31.282,65.065h0c-.027-.034-.052-.072-.078-.108h0C31.23,64.993,31.255,65.031,31.282,65.065Z" fill="url(#q)" style="mix-blend-mode: multiply"/>
        <path d="M30.443,62.424c0-.04,0-.082,0-.123,0,.041,0,.082,0,.122Z" fill="url(#r)" style="mix-blend-mode: multiply"/>
      </g>
      <g style="isolation: isolate">
        <g>
          <path d="M33.633,98.931c-.541-.292-.67-1.218-.464-2.832.006-.077.031-.165.037-.249a55.2,55.2,0,0,1,2.683-10.389C37.747,79.928,39.982,74.412,42,68.882a42.524,42.524,0,0,0,1.622-5.2c.354-1.586.078-2.022-1.111-1.776a6.9,6.9,0,0,0-1.929.776,51.376,51.376,0,0,1-5.058,2.6c-1.52.643-2.951.94-3.971.074-1.352-1.167-1.83-4.837.543-9.176a54.663,54.663,0,0,1,8.6-11.22c2.812-3.005,5.726-5.768,8.654-8.5,1.371-1.277,1.409-1.4,1.475-3.071a31.127,31.127,0,0,1,.776-6.033,19.891,19.891,0,0,1,5.152-9.706,16.845,16.845,0,0,1,3.592-2.767c.444-.256.89-.488,1.336-.7,3.18-1.535,5.586-1.19,7.032,1.311A15.227,15.227,0,0,1,70.224,22.3c.061,1.412.119,1.5,1.321,1.288.134-.026.262-.063.39-.093a65.353,65.353,0,0,1,9.473-1.538c2.743-.165,5.4-.122,7.486,1.292" fill="none" stroke="#fff" stroke-linecap="round" stroke-linejoin="round" stroke-width="0.25"/>
          <path d="M68.805,78.655a2.009,2.009,0,0,1-1.007-.58c-.8-.805-1.444-1.8-2.169-2.694a26.172,26.172,0,0,0-3.818-4.5.967.967,0,0,0-1.164-.2,3.9,3.9,0,0,0-1.2,1.6q-.266.515-.509,1.035" fill="none" stroke="#fff" stroke-linecap="round" stroke-linejoin="round" stroke-width="0.25"/>
        </g>
      </g>
      <line x1="66.513" y1="13.509" x2="59.915" y2="9.603" fill="none" stroke="#fff" stroke-linecap="round" stroke-linejoin="round" stroke-width="0.25"/>
      <line x1="31.553" y1="65.353" x2="20.034" y2="58.79" fill="none" stroke="#fff" stroke-linecap="round" stroke-linejoin="round" stroke-width="0.25"/>
      <path d="M88.519,23,67.375,10.717l-.078-.045c-.174-.1-.355-.179-.536-.261h0c-.06-.028-.118-.062-.18-.088l-.013-.007c-.11-.045-.226-.077-.338-.118-.158-.058-.315-.12-.478-.168h0l-.018-.007c-.047-.013-.1-.02-.146-.033-.258-.07-.521-.132-.788-.18-.028-.006-.055-.015-.083-.019-.058-.01-.119-.012-.177-.021h0q-.505-.079-1.028-.118h0c-.052,0-.1-.014-.154-.017-.037,0-.075,0-.112,0-.347-.02-.7-.031-1.052-.031h-.01c-.366,0-.737.011-1.11.027-.029,0-.057,0-.087,0q-.359.015-.722.038c-.068,0-.137.013-.2.017L45.936,1.478l-.042-.024a3.51,3.51,0,0,0-.385-.188c-.023-.01-.048-.017-.072-.026-.042-.017-.085-.03-.127-.045h0c-.066-.023-.13-.05-.2-.07s-.143-.033-.215-.049c-.044-.011-.088-.022-.133-.031h0c-.025,0-.048-.013-.073-.017a4.294,4.294,0,0,0-.459-.054.176.176,0,0,1-.023,0c-.035,0-.071,0-.106,0-.128,0-.255-.009-.387,0-.032,0-.067.008-.1.01-.085.006-.173.017-.259.026s-.163.012-.247.025c-.043.007-.088.02-.131.028h0c-.136.024-.275.055-.414.088h0c-.075.018-.146.027-.222.048-.029.008-.06.022-.088.03h0a9.584,9.584,0,0,0-1.011.349c-.02.008-.038.012-.058.02-.211.088-.426.184-.645.29-.44.211-.88.441-1.319.694q-.45.261-.9.556c-.1.064-.192.137-.288.2-.2.14-.405.278-.607.43-.113.086-.226.184-.339.274l0,0,0,0c-.18.143-.36.284-.538.439-.123.107-.245.227-.368.34-.15.138-.3.269-.451.417l-.111.11q-.429.434-.82.883c-.033.037-.062.077-.094.115h0c-.068.078-.131.159-.2.238-.118.143-.241.285-.353.43s-.2.272-.3.408h0c-.042.058-.087.115-.128.173h0c-.027.038-.056.074-.082.111q-.228.324-.438.655c-.052.08-.1.163-.15.244h0c-.036.059-.072.118-.107.177s-.092.147-.136.221q-.189.324-.364.653c-.029.055-.055.111-.083.166h0l-.09.178c-.057.113-.116.225-.171.338-.118.245-.231.491-.338.74l-.014.034h0c-.014.031-.025.063-.039.093v0c-.1.229-.193.458-.282.689-.042.109-.078.22-.118.329s-.086.238-.128.358h0c-.032.092-.068.181-.1.273-.056.168-.1.34-.156.51s-.106.336-.154.506c-.017.058-.037.114-.053.171q-.138.5-.259,1.01-.068.287-.128.57c-.056.264-.1.523-.15.783v0c-.017.091-.037.183-.053.274q-.105.61-.184,1.209c0,.042-.008.082-.013.124-.044.354-.077.7-.109,1.053v.006c-.015.164-.036.331-.048.494h0q-.06.765-.09,1.518c-.007.18-.015.335-.024.483,0,.052-.006.1-.01.146-.007.1-.015.194-.025.281,0,.045-.01.092-.016.134a2.692,2.692,0,0,1-.06.316l0,.016c-.014.049-.035.093-.051.14s-.036.113-.061.167l0,0a2,2,0,0,1-.173.294l0,0c-.013.019-.034.041-.048.06-.055.072-.111.143-.179.22-.047.052-.1.11-.16.168l-.053.055c-.046.047-.085.09-.137.142-.139.136-.294.282-.476.453Q27,25.3,25.8,26.434h0c-.249.236-.5.477-.746.715q-.852.816-1.7,1.646c-.144.141-.29.278-.434.42-.107.107-.212.221-.32.328h0c-1.025,1.019-2.045,2.052-3.049,3.122-.891.951-1.772,1.914-2.634,2.9h0c-.042.048-.086.093-.128.141s-.087.108-.132.161C16,36.628,15.36,37.4,14.738,38.2h0c-.038.048-.078.092-.116.14-.081.1-.158.217-.239.323q-.433.57-.854,1.158h0c-.08.112-.164.217-.243.33-.069.1-.134.2-.2.3-.169.244-.334.494-.5.744-.1.15-.2.294-.3.447-.075.117-.146.241-.22.36-.121.193-.239.388-.357.584-.081.136-.166.266-.246.4q-.258.442-.507.9l-.1.184c-.1.19-.2.379-.287.566l-.015.033h0c-.017.035-.031.069-.048.1v0c-.066.139-.132.279-.192.417-.027.062-.049.123-.075.185h0c-.029.068-.056.136-.083.2h0c-.024.057-.05.116-.072.174-.047.123-.088.243-.131.364-.019.056-.041.111-.059.166h0c-.005.017-.013.035-.019.053-.07.211-.133.418-.19.623l0,.012h0c-.028.1-.049.2-.074.3l0,.008c-.032.128-.068.258-.094.383l0,.015h0c-.057.271-.1.534-.136.791,0,.02-.008.041-.01.061-.008.058-.009.112-.015.169-.019.171-.035.34-.044.5h0c-.005.085-.008.168-.01.251h0c-.005.154-.005.3,0,.451,0,.076,0,.153.008.227h0c.009.163.024.319.043.472.006.049.009.1.016.148h0a5.675,5.675,0,0,0,.109.563c.01.042.024.079.035.119h0v0c.037.133.076.262.121.383h0c.02.055.042.107.064.16.042.1.086.2.133.288.026.05.052.1.079.145a2.9,2.9,0,0,0,.164.249h0c.026.035.051.073.078.107a2.1,2.1,0,0,0,.271.284,2.229,2.229,0,0,0,.331.236l9.323,5.418c-1.207,3.232-2.453,6.461-3.638,9.693-.09.246-.183.492-.272.739-.487,1.341-.963,2.683-1.415,4.026-.045.132-.089.264-.133.4-.02.06-.038.119-.058.179h0q-.327.983-.635,1.962l-.023.071q-.3.971-.574,1.938h0c-.023.079-.049.159-.071.239-.01.035-.016.07-.026.105h0c-.242.877-.461,1.751-.649,2.619h0c-.009.041-.022.083-.031.124s-.011.061-.018.092c-.056.265-.1.53-.154.794-.033.175-.07.351-.1.526-.05.292-.091.582-.133.872-.02.136-.045.273-.063.409l-.008.065c-.013.081-.032.165-.044.254-.2,1.589-.081,2.511.443,2.816L33.607,98.921a.2.2,0,0,1-.039-.032l0-.006c.34.229.857.185,1.588-.138a8.64,8.64,0,0,0,.824-.425q3-1.719,5.995-3.454,4.2-2.427,8.426-4.85a7.676,7.676,0,0,0,3.125-3.671c1.474-3.269,2.661-6.577,4.033-9.868.475-1.131.963-2.264,1.5-3.384h0l9.215,5.355c-.019-.011-.035-.031-.053-.043a1.813,1.813,0,0,0,.578.248,1.882,1.882,0,0,0,.388.043c.061,0,.128-.011.192-.015.044,0,.087,0,.131-.011.075-.01.152-.024.23-.041s.13-.031.2-.049.139-.041.211-.066c.088-.031.179-.068.271-.107.058-.025.115-.047.174-.075.157-.073.317-.156.485-.253.983-.589,1.967-1.163,2.95-1.73,1.405-.811,2.809-1.609,4.214-2.42q2.208-1.276,4.413-2.545,1.1-.638,2.208-1.278c.181-.1.363-.207.544-.311.226-.131.452-.266.675-.415a4.157,4.157,0,0,0,2.144-3.935,15.609,15.609,0,0,0-1.738-6.469C84.682,55.133,82.275,52,80.046,48.66a18.622,18.622,0,0,1-2.4-4.358c-.5-1.411-.147-2.318,1.384-3.57a56.183,56.183,0,0,1,5.113-3.349,20.8,20.8,0,0,0,3.241-2.518,10.707,10.707,0,0,0,3.306-6.993c.192-2.323-.5-3.759-1.791-4.632Z" fill="none" stroke="#borderColor" stroke-width="#borderWidth" stroke-linejoin="round"/>
    </g>
  </g>
</svg>
