<svg version="1.2" baseProfile="tiny-ps" xmlns="http://www.w3.org/2000/svg" viewBox="0 0 93 98" width="93" height="98">
	<title>Meeple 3D-svg</title>
	<defs>
		<linearGradient id="grd1" gradientUnits="userSpaceOnUse"  x1="9.19" y1="90.23" x2="29.27" y2="55.45">
			<stop offset="0" stop-color="#000000" stop-opacity="0.5" />
			<stop offset="0.12" stop-color="#000000" stop-opacity="0.2" />
			<stop offset="0.83" stop-color="#000000" stop-opacity="0.5" />
		</linearGradient>
		<linearGradient id="grd2" gradientUnits="userSpaceOnUse"  x1="72.65" y1="29.38" x2="74.89" y2="25.5">
			<stop offset="0" stop-color="#000000" stop-opacity="0" />
			<stop offset="1" stop-color="#000000" stop-opacity="0.5" />
		</linearGradient>
		<linearGradient id="grd3" gradientUnits="userSpaceOnUse"  x1="13.89" y1="54.06" x2="44.09" y2="1.76">
			<stop offset="0" stop-color="#000000" stop-opacity="0.5" />
			<stop offset="0.12" stop-color="#000000" stop-opacity="0.2" />
			<stop offset="0.5" stop-color="#000000" stop-opacity="0.34" />
			<stop offset="0.56" stop-color="#000000" stop-opacity="0.5" />
			<stop offset="0.94" stop-color="#000000" stop-opacity="0.2" />
		</linearGradient>
	</defs>
	<style>
		tspan { white-space:pre }
		.shp0 { fill: #primaryColor; stroke: #borderColor; stroke-width:#borderWidth; } 
		.shp1 { opacity: 0;mix-blend-mode: multiply;fill: #000000 } 
		.shp2 { fill: none;stroke: #ffffff;stroke-linecap:round;stroke-linejoin:round;stroke-width: 0.25 } 
		.shp3 { opacity: 0.502;mix-blend-mode: multiply;fill: #000000 } 
		.shp4 { mix-blend-mode: multiply;fill: url(#grd1) } 
		.shp5 { fill: url(#grd2) } 
		.shp6 { fill: url(#grd3) } 
	</style>
	<g id="Layer">
		<g id="Layer_1">
			<path id="Layer" fill-rule="evenodd" class="shp0" d="M89.51 35.36C89.83 35.86 90.09 36.39 90.29 36.95C90.48 37.51 90.61 38.08 90.68 38.67C90.74 39.25 90.73 39.85 90.66 40.43C90.64 41.11 90.52 41.78 90.32 42.44C90.12 43.09 89.83 43.71 89.47 44.28C89.1 44.86 88.66 45.38 88.16 45.84C87.66 46.3 87.1 46.69 86.49 47C86.17 47.15 85.84 47.3 85.51 47.43C85.17 47.56 84.84 47.69 84.5 47.8C84.16 47.91 83.81 48.01 83.47 48.1C83.12 48.19 82.77 48.26 82.42 48.33C81.88 48.41 81.34 48.49 80.8 48.59C80.26 48.68 79.72 48.79 79.19 48.9C78.65 49.02 78.12 49.14 77.59 49.27C77.05 49.41 76.53 49.55 76 49.7C74.07 50.4 73.64 51.29 74.25 53.2C74.45 53.75 74.66 54.3 74.88 54.84C75.1 55.38 75.34 55.92 75.59 56.45C75.84 56.97 76.11 57.5 76.38 58.01C76.66 58.53 76.95 59.04 77.25 59.54C80.02 64.6 83.01 69.49 85.25 74.93C85.56 75.6 85.84 76.28 86.08 76.97C86.33 77.66 86.54 78.36 86.72 79.07C86.9 79.79 87.05 80.51 87.16 81.23C87.27 81.96 87.35 82.69 87.39 83.42C87.44 85.52 86.64 86.52 84.69 86.97C84.41 87.03 84.12 87.12 83.84 87.12L83.16 87.21L80.39 87.6L74.85 88.38L69.56 89.11C68.33 89.28 67.1 89.46 65.86 89.66C65.63 89.7 65.39 89.73 65.16 89.73C64.92 89.73 64.68 89.72 64.45 89.68C64.22 89.65 63.99 89.59 63.76 89.52C63.54 89.44 63.32 89.35 63.11 89.24L63.11 89.24L49.44 81.8C49.37 81.77 49.31 81.73 49.25 81.69C49.19 81.65 49.12 81.61 49.06 81.57C49 81.53 48.94 81.48 48.89 81.43C48.83 81.39 48.77 81.34 48.72 81.29C47.07 84.36 45.6 87.53 43.8 90.53C43.61 90.9 43.37 91.24 43.09 91.55C42.82 91.86 42.51 92.14 42.17 92.37C41.82 92.61 41.46 92.81 41.07 92.96C40.68 93.11 40.28 93.21 39.87 93.27C36.31 93.74 32.82 94.25 29.31 94.74L21.79 95.74C20.34 95.95 19.35 95.78 18.79 95.18C18.82 95.21 18.85 95.25 18.89 95.28C18.92 95.31 18.95 95.34 18.99 95.37C19.03 95.4 19.06 95.42 19.1 95.45C19.14 95.47 19.18 95.5 19.22 95.52L5.54 88.08C4.58 87.56 4.32 86.34 4.63 84.27C4.63 84.18 4.63 84.09 4.63 84C4.72 83.44 4.82 82.89 4.94 82.34C4.97 82.17 5.05 82 5.05 81.83C5.14 81.44 5.24 81.04 5.34 80.65C5.39 80.48 5.43 80.31 5.48 80.14C5.61 79.69 5.74 79.23 5.89 78.79C5.9 78.77 5.9 78.75 5.91 78.72C5.91 78.7 5.92 78.68 5.93 78.66C5.93 78.64 5.94 78.62 5.95 78.59C5.95 78.57 5.96 78.55 5.97 78.53C6.14 77.99 6.33 77.46 6.52 76.93C6.52 76.92 6.52 76.91 6.52 76.9C6.52 76.89 6.52 76.88 6.52 76.88C6.52 76.87 6.52 76.86 6.52 76.85C6.52 76.84 6.52 76.83 6.52 76.82L6.64 76.51C6.8 76.07 6.97 75.64 7.14 75.2C7.21 75.05 7.27 74.89 7.33 74.73C7.55 74.19 7.77 73.65 8 73.11C10.4 67.53 13.22 62.17 16.18 56.52C16.41 56.03 16.64 55.53 16.86 55.03L16.86 55.03L4.55 48.34C4.41 48.27 4.28 48.18 4.15 48.1C4.03 48.01 3.9 47.92 3.78 47.82C3.66 47.72 3.55 47.61 3.44 47.5C3.33 47.39 3.23 47.28 3.13 47.16C3.09 47.12 3.05 47.07 3.02 47.02C2.98 46.98 2.95 46.93 2.92 46.88C2.88 46.83 2.85 46.78 2.82 46.73C2.79 46.68 2.76 46.63 2.73 46.58L2.64 46.43C2.61 46.37 2.58 46.32 2.55 46.26C2.52 46.2 2.49 46.15 2.46 46.09C2.43 46.03 2.41 45.97 2.38 45.92C2.35 45.86 2.33 45.8 2.3 45.74C2.3 45.72 2.32 45.72 2.3 45.66C2.28 45.6 2.25 45.54 2.23 45.48C2.21 45.42 2.19 45.36 2.17 45.3C2.15 45.24 2.13 45.18 2.11 45.12C2.09 45.06 2.08 45 2.06 44.94C2.06 44.88 2.06 44.82 2.06 44.75C2.04 44.68 2.02 44.61 2.01 44.54C1.99 44.47 1.98 44.4 1.96 44.33C1.95 44.26 1.94 44.19 1.92 44.11C1.91 44.04 1.9 43.97 1.89 43.9C1.89 43.85 1.89 43.76 1.89 43.76C1.83 43.49 1.83 43.22 1.83 42.94C1.83 42.87 1.83 42.8 1.83 42.74C1.83 42.39 1.83 42.07 1.83 41.74C1.83 41.72 1.83 41.71 1.83 41.69C1.83 41.68 1.83 41.66 1.83 41.64C1.83 41.63 1.83 41.61 1.83 41.6C1.83 41.58 1.83 41.57 1.83 41.55C1.87 41.26 1.92 40.97 1.98 40.67C1.98 40.65 1.98 40.64 1.98 40.62C1.98 40.61 1.98 40.59 1.98 40.57C1.98 40.56 1.98 40.54 1.98 40.53C1.98 40.51 1.98 40.5 1.98 40.48C2 40.4 2.02 40.31 2.05 40.23C2.07 40.14 2.09 40.06 2.12 39.98C2.14 39.89 2.17 39.81 2.2 39.73C2.22 39.64 2.25 39.56 2.28 39.48C2.28 39.47 2.28 39.47 2.28 39.46C2.28 39.45 2.28 39.44 2.28 39.43C2.28 39.43 2.28 39.42 2.28 39.41C2.28 39.4 2.28 39.4 2.28 39.39C2.32 39.28 2.41 39.18 2.41 39.07L2.52 38.81C2.6 38.63 2.7 38.31 2.78 38.26C2.86 38.21 2.86 38.1 2.86 38.1L2.86 38.1C2.86 38.09 2.86 38.09 2.86 38.08C2.86 38.08 2.86 38.07 2.86 38.06C2.86 38.06 2.86 38.05 2.86 38.05C2.86 38.04 2.86 38.04 2.86 38.03C2.9 37.95 2.94 37.88 2.99 37.8C3.03 37.73 3.08 37.66 3.12 37.58C3.17 37.51 3.22 37.44 3.26 37.36C3.31 37.29 3.36 37.22 3.41 37.15L3.49 37.02L3.76 36.65C4.12 36.17 4.5 35.72 4.88 35.29L4.88 35.29C4.9 35.27 4.92 35.25 4.93 35.22C4.95 35.2 4.97 35.18 4.99 35.16C5.01 35.14 5.03 35.12 5.05 35.1C5.07 35.08 5.09 35.06 5.11 35.04C5.42 34.68 5.72 34.35 6.04 34.04L6.48 33.62L7.05 33.08L7.22 32.94C7.73 32.48 8.26 32.04 8.8 31.62L8.9 31.54C9.42 31.14 9.95 30.76 10.48 30.39L10.66 30.26L11.01 30.03C11.44 29.74 11.87 29.45 12.3 29.18L12.82 28.84C13.39 28.48 13.97 28.13 14.56 27.78C18.09 25.66 21.76 23.87 25.44 22.13C25.67 22.03 25.86 21.93 26.03 21.84L26.18 21.76L26.48 21.58C26.5 21.57 26.53 21.55 26.55 21.53C26.57 21.52 26.6 21.5 26.62 21.49C26.64 21.47 26.66 21.45 26.69 21.43C26.71 21.42 26.73 21.4 26.75 21.38L26.75 21.38C26.77 21.36 26.79 21.35 26.81 21.33C26.83 21.31 26.84 21.29 26.86 21.27C26.88 21.25 26.89 21.23 26.91 21.21C26.92 21.18 26.94 21.16 26.95 21.14L26.95 21.14C26.96 21.12 26.97 21.1 26.99 21.07C27 21.05 27.01 21.03 27.02 21C27.03 20.98 27.04 20.96 27.05 20.93C27.05 20.91 27.06 20.88 27.07 20.86C27.07 20.85 27.07 20.84 27.07 20.84C27.07 20.83 27.07 20.82 27.07 20.81C27.07 20.8 27.07 20.79 27.07 20.78C27.07 20.78 27.07 20.77 27.07 20.76L27.13 20.5C27.13 20.49 27.13 20.48 27.13 20.46C27.13 20.45 27.13 20.44 27.13 20.42C27.13 20.41 27.13 20.4 27.13 20.39C27.13 20.37 27.13 20.36 27.13 20.35C27.13 20.25 27.13 20.14 27.13 20.02C27.13 20.01 27.13 20 27.13 19.98C27.13 19.97 27.13 19.96 27.13 19.94C27.13 19.93 27.13 19.92 27.13 19.91C27.13 19.89 27.13 19.88 27.13 19.87C27.13 19.7 27.13 19.51 27.13 19.29C27.15 18.72 27.18 18.16 27.23 17.59C27.29 17.03 27.35 16.47 27.44 15.91C27.52 15.35 27.62 14.79 27.74 14.23C27.85 13.68 27.98 13.13 28.13 12.58C28.27 12.09 28.42 11.61 28.59 11.15L28.59 11.15C28.74 10.74 28.9 10.34 29.07 9.95C29.12 9.85 29.12 9.88 29.23 9.64C29.34 9.4 29.45 9.17 29.57 8.94L29.65 8.82C29.7 8.72 29.76 8.62 29.82 8.52C29.87 8.42 29.93 8.33 29.99 8.23C30.05 8.13 30.11 8.04 30.17 7.94C30.23 7.85 30.3 7.75 30.36 7.66C30.44 7.61 30.44 7.52 30.44 7.52L30.44 7.52C30.51 7.42 30.57 7.33 30.64 7.24C30.71 7.14 30.78 7.05 30.85 6.96C30.92 6.87 31 6.78 31.07 6.69C31.15 6.6 31.22 6.52 31.3 6.43L31.3 6.43C31.48 6.22 31.76 5.95 31.89 5.83C32.02 5.71 32.13 5.57 32.27 5.45L32.27 5.45C32.36 5.37 32.45 5.29 32.55 5.21C32.64 5.13 32.73 5.06 32.83 4.98C32.92 4.91 33.02 4.83 33.12 4.76C33.21 4.69 33.31 4.62 33.41 4.55L33.46 4.55C33.81 4.31 34.18 4.08 34.58 3.86L35.19 3.55L35.49 3.43L35.9 3.25C36.12 3.16 36.34 3.09 36.57 3.01L36.97 2.88L37.7 2.69L38.04 2.6C38.39 2.53 38.75 2.46 39.11 2.41C39.66 2.33 40.32 2.26 40.76 2.26C41.2 2.26 41.62 2.26 42.03 2.26L42.26 2.26C42.36 2.27 42.45 2.27 42.55 2.28C42.64 2.29 42.74 2.3 42.83 2.31C42.93 2.32 43.02 2.34 43.12 2.35C43.21 2.37 43.31 2.38 43.4 2.4L43.62 2.4L44 2.48C44.05 2.49 44.1 2.51 44.14 2.52C44.19 2.54 44.24 2.55 44.29 2.57C44.33 2.58 44.38 2.6 44.43 2.62C44.48 2.63 44.52 2.65 44.57 2.67L44.71 2.72C44.78 2.74 44.85 2.77 44.92 2.8C44.99 2.82 45.06 2.85 45.13 2.88C45.19 2.91 45.26 2.94 45.33 2.97C45.4 3 45.46 3.03 45.53 3.06L45.82 3.21L59.5 10.64C59.48 10.63 59.46 10.62 59.43 10.61C59.41 10.6 59.39 10.59 59.37 10.58C59.34 10.57 59.32 10.56 59.3 10.55C59.28 10.54 59.25 10.53 59.23 10.52L59.56 10.7L59.56 10.7C59.96 10.93 60.33 11.19 60.69 11.47C61.05 11.76 61.38 12.08 61.69 12.41C61.99 12.75 62.27 13.12 62.52 13.5C62.77 13.88 62.99 14.28 63.18 14.7C63.41 15.2 63.62 15.72 63.81 16.24C64 16.76 64.16 17.29 64.31 17.83C64.45 18.37 64.56 18.91 64.66 19.46C64.75 20.01 64.82 20.56 64.86 21.11L65.35 21.27C66.03 21.5 66.69 21.74 67.35 22L67.74 22.17C68.38 22.43 69.01 22.7 69.63 23L69.8 23.07C70.08 23.2 70.36 23.34 70.63 23.49L84.31 30.93L84.16 30.86C84.55 31.06 84.94 31.28 85.31 31.51C85.69 31.75 86.05 32 86.41 32.26C86.76 32.52 87.11 32.8 87.44 33.09C87.77 33.38 88.09 33.68 88.4 34C88.82 34.41 89.2 34.87 89.51 35.36ZM83.27 30.42L83.27 30.42L83.4 30.49L83.27 30.42Z" />
			<path id="Layer" class="shp1" d="M52.75 9.78C53.3 9.7 53.85 9.65 54.4 9.62C55.3 9.52 56.21 9.57 57.1 9.75C57.99 9.94 58.84 10.27 59.63 10.72C60.41 11.18 61.12 11.76 61.73 12.43C62.33 13.11 62.83 13.88 63.19 14.71C63.49 15.4 63.75 16.11 63.98 16.82C64.2 17.54 64.39 18.27 64.55 19.01C64.7 19.74 64.81 20.49 64.89 21.24C64.96 21.99 65 22.74 65 23.49C65.07 25.18 65.14 25.32 66.65 25.66L67.14 25.76C68.14 25.94 69.14 26.13 70.14 26.35C71.14 26.56 72.13 26.79 73.12 27.03C74.11 27.28 75.09 27.54 76.07 27.82C77.05 28.1 78.03 28.4 79 28.71C82.47 29.9 85.8 31.29 88.4 34C88.81 34.41 89.18 34.87 89.49 35.36C89.8 35.85 90.05 36.38 90.24 36.92C90.43 37.47 90.56 38.04 90.62 38.62C90.68 39.2 90.68 39.78 90.61 40.36C90.59 41.04 90.47 41.71 90.27 42.36C90.07 43.01 89.78 43.63 89.42 44.21C89.05 44.78 88.61 45.3 88.11 45.76C87.61 46.22 87.05 46.61 86.44 46.92C86.12 47.08 85.79 47.22 85.46 47.35C85.13 47.49 84.79 47.61 84.45 47.72C84.11 47.84 83.77 47.94 83.42 48.03C83.07 48.12 82.72 48.19 82.37 48.26C81.83 48.33 81.3 48.42 80.76 48.51C80.23 48.61 79.69 48.71 79.16 48.82C78.63 48.94 78.1 49.06 77.57 49.19C77.05 49.33 76.52 49.47 76 49.62C74.07 50.32 73.63 51.21 74.25 53.12C74.45 53.67 74.66 54.22 74.88 54.76C75.1 55.3 75.34 55.84 75.59 56.37C75.84 56.9 76.1 57.42 76.38 57.93C76.66 58.45 76.95 58.96 77.25 59.46C80.02 64.52 83.01 69.41 85.25 74.85C85.56 75.52 85.84 76.19 86.08 76.89C86.33 77.58 86.54 78.28 86.72 78.99C86.9 79.71 87.04 80.43 87.15 81.15C87.26 81.88 87.34 82.61 87.38 83.34C87.44 85.44 86.63 86.44 84.69 86.89L83.84 87.04L83.16 87.13L80.39 87.52L74.85 88.3L69.49 89C68.26 89.18 67.03 89.36 65.79 89.56C65.41 89.64 65.01 89.67 64.62 89.63C64.23 89.6 63.85 89.51 63.48 89.36C63.12 89.21 62.78 89.01 62.48 88.76C62.17 88.51 61.91 88.22 61.69 87.89C60.69 86.55 59.88 85.05 58.99 83.63C58.64 83 58.28 82.38 57.91 81.76C57.53 81.15 57.15 80.54 56.75 79.94C56.36 79.33 55.95 78.74 55.53 78.15C55.11 77.57 54.68 76.99 54.24 76.42C53.7 75.8 53.24 75.53 52.78 75.59C52.32 75.65 51.78 76.08 51.27 76.87C51.05 77.19 50.84 77.52 50.63 77.84C50.42 78.17 50.22 78.5 50.02 78.83C49.82 79.17 49.63 79.5 49.44 79.84C49.25 80.18 49.07 80.53 48.89 80.87C47.15 84.05 45.65 87.35 43.78 90.45C43.59 90.82 43.35 91.16 43.07 91.47C42.8 91.78 42.49 92.06 42.15 92.3C41.81 92.54 41.44 92.73 41.05 92.89C40.66 93.04 40.26 93.14 39.85 93.2C36.31 93.68 32.79 94.2 29.28 94.67C26.77 95.02 24.28 95.38 21.76 95.67C18.71 96.1 17.76 94.97 18.24 91.67L18.3 91.4C18.47 90.46 18.66 89.53 18.89 88.6C19.12 87.68 19.37 86.76 19.66 85.85C19.94 84.94 20.26 84.04 20.6 83.15C20.94 82.26 21.31 81.38 21.71 80.51C24.07 74.93 26.9 69.51 29.46 64.07C29.67 63.64 29.87 63.21 30.06 62.78C30.25 62.34 30.43 61.91 30.6 61.46C30.78 61.02 30.94 60.58 31.09 60.13C31.24 59.68 31.39 59.23 31.52 58.77C31.97 57.08 31.63 56.43 30.13 56.13C29.93 56.09 29.73 56.06 29.53 56.03C29.33 56.01 29.13 56 28.92 55.99C28.72 55.98 28.52 55.99 28.31 56C28.11 56.01 27.91 56.03 27.71 56.06C27.19 56.14 26.66 56.21 26.13 56.27C25.61 56.33 25.08 56.38 24.55 56.42C24.02 56.46 23.49 56.5 22.96 56.52C22.43 56.55 21.9 56.56 21.37 56.57C19.46 56.57 17.67 56.2 16.37 54.66C14.69 52.61 14.1 48.05 17.11 44.13C20.12 40.21 24 37.67 28 35.3C31.54 33.18 35.2 31.39 38.87 29.65C40.61 28.83 40.65 28.7 40.75 26.77C40.77 26.2 40.8 25.64 40.85 25.07C40.9 24.51 40.97 23.95 41.05 23.39C41.13 22.82 41.23 22.27 41.35 21.71C41.47 21.16 41.6 20.61 41.75 20.06C42.84 16.24 44.75 13.12 48.25 11.23C48.6 11.04 48.96 10.87 49.32 10.72C49.69 10.56 50.06 10.42 50.43 10.3C50.81 10.18 51.19 10.08 51.58 9.99C51.97 9.9 52.36 9.83 52.75 9.78L52.75 9.78Z" />
			<path id="Layer" class="shp2" d="M19.09 95.49C18.18 94.94 17.94 93.73 18.24 91.71L18.3 91.44C18.47 90.5 18.66 89.57 18.89 88.64C19.12 87.72 19.37 86.8 19.66 85.89C19.94 84.98 20.26 84.08 20.6 83.19C20.94 82.3 21.31 81.42 21.71 80.55C24.07 74.97 26.9 69.55 29.46 64.11C29.67 63.68 29.87 63.25 30.06 62.82C30.25 62.38 30.43 61.95 30.6 61.5C30.78 61.06 30.94 60.62 31.09 60.17C31.24 59.72 31.39 59.27 31.52 58.81C31.97 57.12 31.63 56.47 30.13 56.17C29.93 56.13 29.73 56.1 29.53 56.07C29.33 56.05 29.13 56.04 28.92 56.03C28.72 56.02 28.52 56.03 28.31 56.04C28.11 56.05 27.91 56.07 27.71 56.1C27.19 56.18 26.66 56.25 26.13 56.31C25.61 56.37 25.08 56.42 24.55 56.46C24.02 56.5 23.49 56.54 22.96 56.56C22.43 56.59 21.9 56.6 21.37 56.61C19.46 56.61 17.67 56.24 16.37 54.7C14.69 52.65 14.1 48.09 17.11 44.17C20.12 40.25 24 37.67 28 35.3C31.54 33.18 35.2 31.39 38.87 29.65C40.61 28.83 40.65 28.7 40.75 26.77C40.77 26.2 40.8 25.64 40.85 25.07C40.9 24.51 40.97 23.95 41.05 23.39C41.13 22.82 41.23 22.27 41.35 21.71C41.47 21.16 41.6 20.61 41.75 20.06C42.84 16.24 44.75 13.12 48.25 11.23C48.6 11.04 48.96 10.87 49.33 10.71C49.7 10.56 50.07 10.42 50.45 10.3C50.83 10.18 51.22 10.07 51.61 9.99C52 9.9 52.39 9.83 52.79 9.78C53.34 9.7 53.89 9.65 54.44 9.62C54.83 9.59 55.22 9.59 55.61 9.61C56 9.63 56.38 9.67 56.77 9.74C57.15 9.81 57.53 9.89 57.9 10C58.28 10.11 58.64 10.25 59 10.4" />
			<path id="Layer" class="shp2" d="M48.73 81.23C48.74 81.2 48.76 81.17 48.77 81.14C48.79 81.11 48.8 81.09 48.82 81.06C48.84 81.03 48.85 81 48.87 80.97C48.89 80.95 48.9 80.92 48.92 80.89C49.1 80.55 49.28 80.2 49.47 79.86C49.66 79.52 49.85 79.19 50.05 78.85C50.25 78.52 50.45 78.19 50.66 77.86C50.87 77.54 51.08 77.21 51.3 76.89C51.81 76.1 52.35 75.67 52.81 75.61C53.27 75.55 53.73 75.82 54.27 76.44C54.71 77.01 55.14 77.59 55.56 78.17C55.98 78.76 56.39 79.35 56.78 79.96C57.18 80.56 57.56 81.17 57.94 81.78C58.31 82.4 58.67 83.02 59.02 83.65C59.91 85.07 60.72 86.57 61.72 87.91C61.8 88.03 61.89 88.15 61.99 88.26C62.09 88.38 62.19 88.48 62.3 88.59C62.4 88.69 62.52 88.79 62.63 88.88C62.75 88.97 62.87 89.05 63 89.13" />
			<path id="Layer" class="shp2" d="M83.83 30.71C83.44 30.52 83.05 30.33 82.65 30.15C82.25 29.97 81.85 29.79 81.45 29.63C81.05 29.46 80.64 29.3 80.23 29.15C79.82 28.99 79.41 28.85 79 28.71C78.03 28.4 77.06 28.1 76.08 27.82C75.11 27.54 74.13 27.28 73.14 27.03C72.15 26.79 71.16 26.56 70.17 26.35C69.18 26.13 68.18 25.94 67.18 25.76L66.69 25.66C65.18 25.32 65.11 25.18 65.04 23.49C65.01 22.7 64.95 21.93 64.87 21.16" />
			<path id="Layer" class="shp3" d="M62.56 88.83C62.62 88.87 62.67 88.92 62.73 88.96C62.79 89 62.85 89.04 62.91 89.08C62.97 89.12 63.03 89.15 63.09 89.19L63.09 89.19L49.42 81.75C49.35 81.72 49.29 81.68 49.23 81.64C49.17 81.6 49.1 81.56 49.04 81.52C48.98 81.48 48.92 81.43 48.87 81.38C48.81 81.34 48.75 81.29 48.7 81.24L48.89 80.89C49.07 80.55 49.25 80.2 49.44 79.86C49.63 79.52 49.82 79.19 50.02 78.85C50.22 78.52 50.42 78.19 50.63 77.86C50.84 77.54 51.05 77.21 51.27 76.89C51.78 76.1 52.31 75.68 52.78 75.61C52.84 75.6 52.9 75.6 52.96 75.61C53.02 75.61 53.08 75.62 53.13 75.63C53.19 75.65 53.25 75.66 53.3 75.69C53.36 75.71 53.41 75.74 53.46 75.77C53.48 75.78 53.51 75.8 53.53 75.81C53.55 75.82 53.57 75.84 53.6 75.85C53.62 75.87 53.64 75.88 53.66 75.9C53.68 75.92 53.7 75.93 53.72 75.95C53.73 75.96 53.74 75.96 53.75 75.97C53.76 75.98 53.77 75.99 53.78 75.99C53.79 76 53.8 76.01 53.81 76.02C53.82 76.02 53.83 76.03 53.84 76.04C53.88 76.07 53.91 76.1 53.95 76.13C53.98 76.17 54.01 76.2 54.05 76.23C54.08 76.27 54.11 76.3 54.15 76.33C54.18 76.37 54.21 76.4 54.24 76.44C54.68 77.01 55.11 77.59 55.53 78.17C55.95 78.76 56.35 79.35 56.75 79.96C57.15 80.56 57.53 81.17 57.9 81.78C58.28 82.4 58.64 83.02 58.99 83.65C59.89 85.08 60.69 86.57 61.69 87.92C61.73 87.98 61.78 88.04 61.83 88.1C61.87 88.15 61.92 88.21 61.97 88.26C62.02 88.32 62.07 88.37 62.12 88.43C62.17 88.48 62.23 88.53 62.28 88.58L62.4 88.69C62.45 88.74 62.51 88.78 62.56 88.83Z" />
			<path id="Layer" class="shp4" d="M18.84 95.28C18.88 95.31 18.92 95.34 18.96 95.37C19 95.4 19.04 95.43 19.09 95.45C19.13 95.48 19.17 95.5 19.22 95.52L5.54 88.08C4.58 87.56 4.32 86.34 4.63 84.27C4.63 84.18 4.63 84.09 4.63 84C4.72 83.44 4.82 82.89 4.94 82.34C4.97 82.17 5.05 82 5.05 81.83C5.14 81.44 5.24 81.04 5.34 80.65C5.39 80.48 5.43 80.31 5.48 80.14C5.61 79.69 5.74 79.23 5.89 78.79C5.9 78.77 5.9 78.75 5.91 78.72C5.91 78.7 5.92 78.68 5.93 78.66C5.93 78.64 5.94 78.62 5.95 78.59C5.95 78.57 5.96 78.55 5.97 78.53C6.14 77.99 6.33 77.46 6.52 76.93C6.52 76.92 6.52 76.91 6.52 76.9C6.52 76.89 6.52 76.88 6.52 76.88C6.52 76.87 6.52 76.86 6.52 76.85C6.52 76.84 6.52 76.83 6.52 76.82L6.64 76.51C6.8 76.07 6.97 75.64 7.14 75.2C7.21 75.05 7.27 74.89 7.33 74.73C7.55 74.19 7.77 73.65 8 73.11C10.4 67.53 13.22 62.17 15.78 56.68C16.01 56.19 16.24 55.69 16.46 55.19L16.58 54.9C16.89 55.21 17.24 55.48 17.61 55.71C17.98 55.94 18.38 56.13 18.79 56.28C19.2 56.43 19.63 56.53 20.06 56.59C20.49 56.65 20.93 56.66 21.37 56.62C21.9 56.61 22.43 56.6 22.96 56.57C23.49 56.55 24.02 56.52 24.55 56.47C25.08 56.43 25.61 56.38 26.14 56.32C26.67 56.26 27.19 56.19 27.72 56.11C27.92 56.08 28.12 56.06 28.33 56.05C28.53 56.04 28.73 56.04 28.93 56.04C29.14 56.05 29.34 56.06 29.54 56.09C29.74 56.11 29.94 56.14 30.14 56.18C30.22 56.19 30.3 56.21 30.37 56.23C30.45 56.25 30.53 56.27 30.6 56.3C30.68 56.32 30.75 56.35 30.82 56.38C30.9 56.41 30.97 56.44 31.04 56.48C31.08 56.5 31.11 56.52 31.14 56.54C31.18 56.57 31.21 56.59 31.24 56.62C31.27 56.64 31.3 56.67 31.33 56.7C31.36 56.73 31.38 56.76 31.41 56.79L31.48 56.88C31.5 56.91 31.52 56.95 31.54 56.98C31.56 57.01 31.58 57.05 31.6 57.09C31.61 57.12 31.63 57.16 31.64 57.2C31.65 57.23 31.66 57.27 31.67 57.31L31.67 57.31C31.68 57.36 31.68 57.41 31.68 57.45C31.69 57.5 31.69 57.55 31.69 57.6C31.69 57.65 31.69 57.7 31.68 57.75C31.68 57.79 31.68 57.84 31.67 57.89C31.67 57.95 31.67 58 31.67 58.06C31.66 58.12 31.65 58.19 31.64 58.25C31.63 58.31 31.62 58.37 31.61 58.44C31.59 58.5 31.58 58.56 31.57 58.62C31.55 58.69 31.54 58.75 31.52 58.81C31.36 59.39 31.17 59.96 30.97 60.53L30.97 60.53C30.91 60.69 30.84 60.86 30.78 61.03C30.64 61.41 30.48 61.78 30.33 62.16C30.26 62.31 30.2 62.46 30.13 62.62C29.91 63.11 29.69 63.62 29.46 64.11C26.9 69.61 24.07 75 21.7 80.55C21.45 81.14 21.21 81.72 20.97 82.31C20.93 82.42 20.84 82.53 20.84 82.64L20.84 82.64C20.67 83.08 20.5 83.51 20.34 83.95L20.34 83.95C20.28 84.09 20.18 84.23 20.18 84.37L20.18 84.37C19.98 84.9 19.8 85.43 19.62 85.97L19.62 85.97C19.6 86.05 19.54 86.14 19.54 86.23L19.54 86.23C19.38 86.79 19.22 87.27 19.08 87.79C19 87.89 19 87.99 19 88.09L19 88.09C18.93 88.37 18.87 88.65 18.81 88.93C18.74 89.21 18.69 89.49 18.64 89.77C18.58 90.05 18.53 90.34 18.49 90.62C18.45 90.9 18.41 91.19 18.37 91.47C18.32 91.56 18.32 91.65 18.32 91.74C18.26 92.09 18.21 92.42 18.21 92.74C18.21 92.76 18.21 92.77 18.21 92.79C18.21 92.8 18.21 92.82 18.21 92.83C18.21 92.85 18.21 92.87 18.21 92.88C18.21 92.9 18.21 92.91 18.21 92.93C18.2 93 18.2 93.07 18.2 93.14C18.2 93.21 18.19 93.28 18.19 93.34C18.19 93.41 18.2 93.48 18.2 93.55C18.2 93.62 18.2 93.69 18.21 93.76C18.21 93.77 18.21 93.78 18.21 93.79C18.21 93.8 18.21 93.81 18.21 93.82C18.21 93.83 18.21 93.84 18.21 93.85C18.21 93.86 18.21 93.87 18.21 93.88C18.22 93.93 18.23 93.98 18.23 94.04C18.24 94.09 18.25 94.14 18.27 94.19C18.28 94.24 18.29 94.3 18.3 94.35C18.32 94.4 18.33 94.45 18.35 94.5L18.35 94.58C18.37 94.63 18.39 94.67 18.41 94.71C18.43 94.76 18.45 94.8 18.48 94.84C18.5 94.89 18.53 94.93 18.56 94.97C18.58 95.01 18.61 95.05 18.64 95.09L18.73 95.18C18.77 95.22 18.8 95.25 18.84 95.28Z" />
			<path id="Layer" class="shp5" d="M64.86 21.11L65.35 21.27C66.03 21.5 66.69 21.74 67.35 22L67.74 22.17C68.38 22.43 69.01 22.7 69.63 23L69.8 23.07C70.08 23.2 70.36 23.34 70.63 23.49L84.21 30.89L84.06 30.82C83.83 30.69 83.58 30.58 83.34 30.46L83.21 30.39L83.21 30.39C82.87 30.23 82.52 30.07 82.17 29.92C81.82 29.77 81.47 29.62 81.12 29.48C80.77 29.33 80.41 29.2 80.06 29.07C79.7 28.94 79.34 28.81 78.98 28.69C78.11 28.38 77.22 28.12 76.34 27.86L76.34 27.86L75.54 27.64L75.54 27.64L74.22 27.29C71.87 26.73 69.5 26.2 67.12 25.73L66.63 25.63L66.17 25.52L66.08 25.52L66.08 25.52L65.94 25.47C65.92 25.47 65.9 25.46 65.88 25.45C65.86 25.45 65.84 25.44 65.82 25.44C65.8 25.43 65.78 25.42 65.76 25.41C65.74 25.41 65.72 25.4 65.7 25.39C65.11 25.12 65 24.72 65 23.49C65 22.69 65 21.9 64.86 21.11Z" />
			<path id="Layer" class="shp6" d="M55.63 9.67C55.52 9.66 55.42 9.66 55.31 9.66C55.21 9.65 55.1 9.65 54.99 9.65C54.89 9.65 54.78 9.65 54.68 9.66C54.57 9.66 54.47 9.66 54.36 9.67C54.22 9.68 54.08 9.68 53.95 9.69C53.81 9.7 53.67 9.71 53.53 9.72C53.4 9.74 53.26 9.75 53.12 9.77C52.98 9.78 52.85 9.8 52.71 9.82C52.35 9.87 51.99 9.94 51.63 10.01L51.29 10.1C51.05 10.15 50.81 10.22 50.56 10.29L50.16 10.42C49.94 10.49 49.72 10.57 49.5 10.66L49.08 10.84C48.78 10.97 48.47 11.11 48.17 11.27C48.07 11.33 47.97 11.38 47.87 11.44C47.77 11.5 47.67 11.56 47.58 11.62C47.48 11.68 47.38 11.74 47.29 11.81C47.19 11.87 47.09 11.93 47 12C46.88 12.08 46.76 12.16 46.65 12.24C46.53 12.33 46.42 12.41 46.31 12.5C46.19 12.58 46.08 12.67 45.97 12.76C45.86 12.85 45.76 12.95 45.65 13.04L45.65 13.04C45.47 13.21 45.28 13.42 45.13 13.57C44.98 13.72 44.82 13.86 44.68 14.02C44.38 14.37 44.09 14.73 43.82 15.11C43.81 15.12 43.8 15.14 43.8 15.15C43.79 15.16 43.78 15.18 43.77 15.19C43.76 15.21 43.76 15.22 43.75 15.23C43.74 15.24 43.73 15.26 43.72 15.27C43.47 15.64 43.16 16.16 43.01 16.43C42.86 16.7 42.73 16.97 42.59 17.25L42.44 17.56C42.26 17.96 42.11 18.37 41.94 18.8C41.77 19.23 41.61 19.74 41.47 20.23C41.32 20.78 41.19 21.33 41.07 21.88C40.96 22.44 40.86 23 40.77 23.56C40.69 24.12 40.62 24.68 40.57 25.24C40.52 25.81 40.49 26.37 40.47 26.94C40.47 27.16 40.47 27.35 40.47 27.52C40.47 27.53 40.47 27.54 40.47 27.56C40.47 27.57 40.47 27.58 40.47 27.6C40.47 27.61 40.47 27.62 40.47 27.63C40.47 27.65 40.47 27.66 40.47 27.67C40.47 27.79 40.47 27.9 40.47 28C40.47 28.01 40.47 28.02 40.47 28.04C40.47 28.05 40.47 28.06 40.47 28.07C40.47 28.09 40.47 28.1 40.47 28.11C40.47 28.13 40.47 28.14 40.47 28.15L40.41 28.41L40.41 28.51C40.41 28.51 40.42 28.5 40.41 28.51C40.4 28.52 40.4 28.54 40.39 28.55C40.39 28.57 40.38 28.58 40.37 28.6C40.37 28.61 40.36 28.63 40.35 28.64C40.35 28.65 40.34 28.67 40.33 28.68L40.33 28.74L-4 -1L-4 -1L-4 -1L-4 -1C-4 -1 -4 -1 40.33 28.74L40.24 28.85L40.14 28.94L40.14 28.94L40.14 28.94L39.93 29.1L39.93 29.1L39.62 29.28L39.48 29.36C39.31 29.45 39.11 29.55 38.88 29.65C35.2 31.39 31.54 33.18 28 35.3L26.22 36.36L25.71 36.69L24.42 37.54C24.24 37.66 24.06 37.78 23.89 37.91C23.31 38.28 22.83 38.66 22.31 39.06L22.21 39.14C21.67 39.56 21.14 40 20.62 40.46C20.37 40.68 20.13 40.91 19.89 41.14L19.45 41.56C19.13 41.89 18.82 42.23 18.51 42.56C18.44 42.65 18.36 42.72 18.28 42.81C17.89 43.25 17.51 43.71 17.14 44.19C17.01 44.36 16.98 44.41 16.78 44.7C16.58 44.99 16.4 45.29 16.24 45.58C16.24 45.59 16.24 45.59 16.24 45.6C16.24 45.61 16.24 45.62 16.24 45.63C16.24 45.63 16.24 45.64 16.24 45.65C16.24 45.66 16.24 45.66 16.24 45.67L16.16 45.83C16.06 46.01 15.92 46.29 15.89 46.38C15.86 46.47 15.85 46.5 15.79 46.64C15.73 46.78 15.68 46.91 15.63 47.05C15.6 47.13 15.57 47.21 15.55 47.3C15.52 47.38 15.49 47.46 15.47 47.55C15.44 47.63 15.42 47.71 15.4 47.8C15.37 47.88 15.35 47.97 15.33 48.05C15.33 48.07 15.33 48.08 15.33 48.1C15.33 48.11 15.33 48.13 15.33 48.15C15.33 48.16 15.33 48.18 15.33 48.19C15.33 48.21 15.33 48.22 15.33 48.24C15.31 48.31 15.3 48.39 15.28 48.46C15.27 48.53 15.25 48.6 15.24 48.68C15.23 48.75 15.22 48.82 15.21 48.9C15.2 48.97 15.19 49.05 15.18 49.12C15.18 49.14 15.18 49.15 15.18 49.17C15.18 49.18 15.18 49.2 15.18 49.22C15.18 49.23 15.18 49.25 15.18 49.26C15.18 49.28 15.18 49.29 15.18 49.31C15.17 49.39 15.16 49.48 15.16 49.56C15.15 49.64 15.14 49.73 15.14 49.81C15.14 49.89 15.13 49.98 15.13 50.06C15.13 50.14 15.13 50.23 15.13 50.31C15.13 50.33 15.13 50.34 15.13 50.36C15.13 50.38 15.13 50.39 15.13 50.41C15.13 50.43 15.13 50.44 15.13 50.46C15.13 50.48 15.13 50.49 15.13 50.51C15.13 50.58 15.12 50.65 15.12 50.71C15.12 50.78 15.12 50.85 15.12 50.92C15.12 50.99 15.12 51.06 15.12 51.13C15.12 51.19 15.13 51.26 15.13 51.33C15.13 51.37 15.12 51.4 15.13 51.47C15.14 51.54 15.15 51.61 15.16 51.68C15.18 51.76 15.19 51.83 15.2 51.9C15.22 51.97 15.23 52.04 15.25 52.11C15.26 52.18 15.28 52.25 15.3 52.32C15.3 52.34 15.31 52.35 15.31 52.37C15.31 52.38 15.32 52.4 15.32 52.42C15.32 52.43 15.33 52.45 15.33 52.46C15.34 52.48 15.34 52.49 15.35 52.51C15.42 52.76 15.49 53 15.58 53.23L15.58 53.31C15.6 53.37 15.63 53.43 15.66 53.49C15.68 53.54 15.71 53.6 15.74 53.66C15.76 53.72 15.79 53.77 15.82 53.83C15.85 53.89 15.88 53.94 15.91 54L16 54.12C16.03 54.17 16.06 54.22 16.09 54.27C16.12 54.32 16.16 54.37 16.19 54.42C16.22 54.46 16.26 54.51 16.29 54.56C16.33 54.61 16.36 54.65 16.4 54.7C16.53 54.82 16.67 54.94 16.81 55.04C16.95 55.15 17.1 55.25 17.25 55.34C17.4 55.43 17.56 55.51 17.72 55.59C17.89 55.66 18.05 55.72 18.22 55.78L4.55 48.34C4.41 48.27 4.28 48.18 4.15 48.1C4.03 48.01 3.9 47.92 3.78 47.82C3.66 47.72 3.55 47.61 3.44 47.5C3.33 47.39 3.23 47.28 3.13 47.16C3.09 47.12 3.05 47.07 3.02 47.02C2.98 46.98 2.95 46.93 2.92 46.88C2.88 46.83 2.85 46.78 2.82 46.73C2.79 46.68 2.76 46.63 2.73 46.58L2.64 46.43C2.61 46.37 2.58 46.32 2.55 46.26C2.52 46.2 2.49 46.15 2.46 46.09C2.43 46.03 2.41 45.97 2.38 45.92C2.35 45.86 2.33 45.8 2.3 45.74C2.3 45.72 2.32 45.72 2.3 45.66C2.28 45.6 2.25 45.54 2.23 45.48C2.21 45.42 2.19 45.36 2.17 45.3C2.15 45.24 2.13 45.18 2.11 45.12C2.09 45.06 2.08 45 2.06 44.94C2.06 44.88 2.06 44.82 2.06 44.75C2.04 44.68 2.02 44.61 2.01 44.54C1.99 44.47 1.98 44.4 1.96 44.33C1.95 44.26 1.94 44.19 1.92 44.11C1.91 44.04 1.9 43.97 1.89 43.9C1.89 43.85 1.89 43.76 1.89 43.76C1.83 43.49 1.83 43.22 1.83 42.94C1.83 42.87 1.83 42.8 1.83 42.74C1.83 42.39 1.83 42.07 1.83 41.74C1.83 41.72 1.83 41.71 1.83 41.69C1.83 41.68 1.83 41.66 1.83 41.64C1.83 41.63 1.83 41.61 1.83 41.6C1.83 41.58 1.83 41.57 1.83 41.55C1.87 41.26 1.92 40.97 1.98 40.67C1.98 40.65 1.98 40.64 1.98 40.62C1.98 40.61 1.98 40.59 1.98 40.57C1.98 40.56 1.98 40.54 1.98 40.53C1.98 40.51 1.98 40.5 1.98 40.48C2 40.4 2.02 40.31 2.05 40.23C2.07 40.14 2.09 40.06 2.12 39.98C2.14 39.89 2.17 39.81 2.2 39.73C2.22 39.64 2.25 39.56 2.28 39.48C2.28 39.47 2.28 39.47 2.28 39.46C2.28 39.45 2.28 39.44 2.28 39.43C2.28 39.43 2.28 39.42 2.28 39.41C2.28 39.4 2.28 39.4 2.28 39.39C2.32 39.28 2.41 39.18 2.41 39.07L2.52 38.81C2.6 38.63 2.7 38.31 2.78 38.26C2.86 38.21 2.86 38.1 2.86 38.1L2.86 38.1C2.86 38.09 2.86 38.09 2.86 38.08C2.86 38.08 2.86 38.07 2.86 38.06C2.86 38.06 2.86 38.05 2.86 38.05C2.86 38.04 2.86 38.04 2.86 38.03C2.9 37.95 2.94 37.88 2.99 37.8C3.03 37.73 3.08 37.66 3.12 37.58C3.17 37.51 3.22 37.44 3.26 37.36C3.31 37.29 3.36 37.22 3.41 37.15L3.49 37.02L3.76 36.65C4.12 36.17 4.5 35.72 4.88 35.29L4.88 35.29C4.9 35.27 4.92 35.25 4.93 35.22C4.95 35.2 4.97 35.18 4.99 35.16C5.01 35.14 5.03 35.12 5.05 35.1C5.07 35.08 5.09 35.06 5.11 35.04C5.42 34.68 5.72 34.35 6.04 34.04L6.48 33.62L7.05 33.08L7.22 32.94C7.73 32.48 8.26 32.04 8.8 31.62L8.9 31.54C9.42 31.14 9.95 30.76 10.48 30.39L10.66 30.26L11.01 30.03C11.44 29.74 11.87 29.45 12.3 29.18L12.82 28.84C13.39 28.48 13.97 28.13 14.56 27.78C18.09 25.66 21.76 23.87 25.44 22.13C25.67 22.03 25.86 21.93 26.03 21.84L26.18 21.76L26.48 21.58C26.5 21.57 26.53 21.55 26.55 21.53C26.57 21.52 26.6 21.5 26.62 21.49C26.64 21.47 26.66 21.45 26.69 21.43C26.71 21.42 26.73 21.4 26.75 21.38L26.75 21.38C26.77 21.36 26.79 21.35 26.81 21.33C26.83 21.31 26.84 21.29 26.86 21.27C26.88 21.25 26.89 21.23 26.91 21.21C26.92 21.18 26.94 21.16 26.95 21.14L26.95 21.14C26.96 21.12 26.97 21.1 26.99 21.07C27 21.05 27.01 21.03 27.02 21C27.03 20.98 27.04 20.96 27.05 20.93C27.05 20.91 27.06 20.88 27.07 20.86C27.07 20.85 27.07 20.84 27.07 20.84C27.07 20.83 27.07 20.82 27.07 20.81C27.07 20.8 27.07 20.79 27.07 20.78C27.07 20.78 27.07 20.77 27.07 20.76L27.13 20.5C27.13 20.49 27.13 20.48 27.13 20.46C27.13 20.45 27.13 20.44 27.13 20.42C27.13 20.41 27.13 20.4 27.13 20.39C27.13 20.37 27.13 20.36 27.13 20.35C27.13 20.25 27.13 20.14 27.13 20.02C27.13 20.01 27.13 20 27.13 19.98C27.13 19.97 27.13 19.96 27.13 19.94C27.13 19.93 27.13 19.92 27.13 19.91C27.13 19.89 27.13 19.88 27.13 19.87C27.13 19.7 27.13 19.51 27.13 19.29C27.15 18.72 27.18 18.16 27.23 17.59C27.29 17.03 27.35 16.47 27.44 15.91C27.52 15.35 27.62 14.79 27.74 14.23C27.85 13.68 27.98 13.13 28.13 12.58C28.27 12.09 28.42 11.61 28.59 11.15L28.59 11.15C28.74 10.74 28.9 10.34 29.07 9.95C29.12 9.85 29.12 9.88 29.23 9.64C29.34 9.4 29.45 9.17 29.57 8.94L29.65 8.82C29.7 8.72 29.76 8.62 29.82 8.52C29.87 8.42 29.93 8.33 29.99 8.23C30.05 8.13 30.11 8.04 30.17 7.94C30.23 7.85 30.3 7.75 30.36 7.66C30.44 7.61 30.44 7.52 30.44 7.52L30.44 7.52C30.51 7.42 30.57 7.33 30.64 7.24C30.71 7.14 30.78 7.05 30.85 6.96C30.92 6.87 31 6.78 31.07 6.69C31.15 6.6 31.22 6.52 31.3 6.43L31.3 6.43C31.48 6.22 31.76 5.95 31.89 5.83C32.02 5.71 32.13 5.57 32.27 5.45L32.27 5.45C32.36 5.37 32.45 5.29 32.55 5.21C32.64 5.13 32.73 5.06 32.83 4.98C32.92 4.91 33.02 4.83 33.12 4.76C33.21 4.69 33.31 4.62 33.41 4.55L33.46 4.55C33.81 4.31 34.18 4.08 34.58 3.86L35.19 3.55L35.49 3.43L35.9 3.25C36.12 3.16 36.34 3.09 36.57 3.01L36.97 2.88L37.7 2.69L38.04 2.6C38.39 2.53 38.75 2.46 39.11 2.41C39.66 2.33 40.32 2.26 40.76 2.26C41.2 2.26 41.62 2.26 42.03 2.26L42.26 2.26C42.36 2.27 42.45 2.27 42.55 2.28C42.64 2.29 42.74 2.3 42.83 2.31C42.93 2.32 43.02 2.34 43.12 2.35C43.21 2.37 43.31 2.38 43.4 2.4L43.62 2.4L44 2.48C44.05 2.49 44.1 2.51 44.14 2.52C44.19 2.54 44.24 2.55 44.29 2.57C44.33 2.58 44.38 2.6 44.43 2.62C44.48 2.63 44.52 2.65 44.57 2.67L44.71 2.72C44.78 2.74 44.85 2.77 44.92 2.8C44.99 2.82 45.06 2.85 45.13 2.88C45.19 2.91 45.26 2.94 45.33 2.97C45.4 3 45.46 3.03 45.53 3.06L45.82 3.21L59.5 10.65C59.41 10.6 59.32 10.56 59.23 10.51C59.14 10.47 59.05 10.42 58.96 10.38C58.87 10.34 58.78 10.3 58.68 10.27C58.59 10.23 58.49 10.19 58.4 10.16L58.25 10.11C58.17 10.08 58.09 10.06 58 10.03C57.92 10.01 57.84 9.98 57.75 9.96C57.67 9.94 57.59 9.92 57.5 9.9C57.42 9.88 57.33 9.86 57.25 9.84L57.04 9.79C56.95 9.77 56.85 9.76 56.76 9.74C56.66 9.73 56.57 9.71 56.47 9.7C56.38 9.69 56.28 9.68 56.19 9.67C56.09 9.66 56 9.66 55.9 9.65L55.63 9.67Z" />
		</g>
	</g>
</svg>