<svg xmlns="http://www.w3.org/2000/svg" xmlns:xlink="http://www.w3.org/1999/xlink" width="50" height="90" viewBox="0 0 50 90">
  <defs>
    <radialGradient id="a" cx="26.721" cy="57.93" r="30.285" gradientTransform="translate(0 -25.04) scale(1 1.432)" gradientUnits="userSpaceOnUse">
      <stop offset="0.298" stop-opacity="0"/>
      <stop offset="0.794" stop-opacity="0.429"/>
      <stop offset="0.829" stop-opacity="0.5"/>
    </radialGradient>
    <radialGradient id="b" cx="31.215" cy="10.465" r="29.057" gradientUnits="userSpaceOnUse">
      <stop offset="0.389" stop-opacity="0"/>
      <stop offset="0.8" stop-opacity="0.429"/>
      <stop offset="0.829" stop-opacity="0.5"/>
    </radialGradient>
  </defs>
  <g style="isolation: isolate">
    <g>
      <g>
        <path d="M46.158,75.065,38.749,62.559a22.2,22.2,0,0,1-2.8-7.669L29.8,18.1,25,14.228,20.2,18.1,14.052,54.891a22.235,22.235,0,0,1-2.8,7.669l-7.409,12.5a8.013,8.013,0,0,0-1.119,4.083v.163h0C2.724,83.833,12.7,87.5,25,87.5s22.276-3.667,22.277-8.189h0v-.163A8.013,8.013,0,0,0,46.158,75.065Z" fill="#primaryColor" stroke="#borderColor" stroke-miterlimit="10" stroke-width="#borderWidth"/>
        <path d="M46.158,75.065,38.749,62.559a22.2,22.2,0,0,1-2.8-7.669L29.8,18.1,25,14.228,20.2,18.1,14.052,54.891a22.235,22.235,0,0,1-2.8,7.669l-7.409,12.5a8.013,8.013,0,0,0-1.119,4.083v.163h0C2.724,83.833,12.7,87.5,25,87.5s22.276-3.667,22.277-8.189h0v-.163A8.013,8.013,0,0,0,46.158,75.065Z" fill="url(#a)" style="mix-blend-mode: multiply"/>
        <path d="M29.688,33.47s2.819,21.5,4.758,25.552,9.34,15.068,9.516,17.8-7.137,7.313-15.6,6.52c0,0,10.319-2.418,11.345-5.286s-5.177-8.2-7.82-17.711S29.688,33.47,29.688,33.47Z" fill="#fff" opacity="0.5"/>
      </g>
      <g>
        <circle cx="25" cy="17.211" r="14.711" fill="#primaryColor"/>
        <circle cx="25" cy="17.211" r="14.711" fill="url(#b)" style="mix-blend-mode: multiply"/>
        <path d="M38.38,19.066A13.427,13.427,0,0,0,23.145,3.831,17.5,17.5,0,0,1,38.38,19.066Z" fill="#fff" opacity="0.5"/>
      </g>
      <g>
        <path d="M46.158,75.065,38.749,62.559a22.2,22.2,0,0,1-2.8-7.669L31.83,30.234a14.662,14.662,0,0,1-13.66,0L14.052,54.891a22.235,22.235,0,0,1-2.8,7.669l-7.409,12.5a8.013,8.013,0,0,0-1.119,4.083v.163C2.724,83.833,12.7,87.5,25,87.5s22.276-3.667,22.277-8.189v-.163A8.013,8.013,0,0,0,46.158,75.065Z" fill="none" stroke="#borderColor" stroke-miterlimit="10" stroke-width="#borderWidth"/>
        <circle cx="25" cy="17.211" r="14.711" fill="none" stroke="#borderColor" stroke-miterlimit="10" stroke-width="#borderWidth"/>
      </g>
    </g>
  </g>
</svg>
