<svg xmlns="http://www.w3.org/2000/svg" xmlns:xlink="http://www.w3.org/1999/xlink" width="100" height="80" viewBox="0 0 100 80">
  <defs>
    <linearGradient id="a" x1="71.485" y1="15.209" x2="75.89" y2="7.579" gradientUnits="userSpaceOnUse">
      <stop offset="0.171" stop-opacity="0.5"/>
      <stop offset="0.2" stop-opacity="0.457"/>
      <stop offset="0.611" stop-opacity="0.2"/>
      <stop offset="0.961" stop-opacity="0.431"/>
      <stop offset="1" stop-opacity="0.5"/>
    </linearGradient>
    <linearGradient id="b" x1="75.513" y1="7.819" x2="76.137" y2="6.738" xlink:href="#a"/>
    <linearGradient id="c" x1="14.615" y1="66.848" x2="30.616" y2="39.133" xlink:href="#a"/>
    <linearGradient id="d" x1="10.274" y1="25.939" x2="12.649" y2="21.825" xlink:href="#a"/>
    <linearGradient id="e" x1="36.942" y1="37.795" x2="55.588" y2="5.5" xlink:href="#a"/>
    <linearGradient id="f" x1="91.74" y1="41.155" x2="92.936" y2="39.083" xlink:href="#a"/>
    <linearGradient id="g" x1="14.272" y1="23.889" x2="19.425" y2="14.964" xlink:href="#a"/>
    <linearGradient id="h" x1="16.907" y1="25.461" x2="16.909" y2="25.458" xlink:href="#a"/>
    <linearGradient id="i" x1="17.064" y1="25.326" x2="17.116" y2="25.238" xlink:href="#a"/>
    <linearGradient id="j" x1="83.259" y1="23.96" x2="89.237" y2="13.606" xlink:href="#a"/>
  </defs>
  <g style="isolation: isolate">
    <g>
      <path d="M89.087,37.114h0c-.078-.379-.159-.793-.245-1.237-.082-.416-.168-.853-.267-1.33l0-.023c-.09-.43-.193-.9-.3-1.377l-.091-.386c-.124-.517-.258-1.053-.416-1.63.247-.1.5-.213.764-.336A14.716,14.716,0,0,0,90.7,29.529a17.324,17.324,0,0,0,3.184-2.9q.49-.564.992-1.221c2.254-2.957,2.341-5.064,1.959-6.367a3.609,3.609,0,0,0-.885-1.544c-.028-.028-.048-.046-.058-.054l-13.676-7.44a.648.648,0,0,1,.009.13v.022c0,.033-.02.089-.028.132h0L70.181,3.756l-.127-.066a3.106,3.106,0,0,0-.351-.129c-.1-.035-.193-.081-.288-.107-.014,0-.029-.012-.043-.016a3.725,3.725,0,0,0-.539-.094c-.048,0-.088-.006-.134-.009-.146-.011-.281-.015-.407-.012l-.128,0c-.142.009-.271.021-.371.035l.045.025.027.017.016.013c.013.01.026.021.041.035l.023.024c.013.014.028.031.042.049s.017.022.026.035a.743.743,0,0,1,.043.069c.008.014.017.028.025.044.016.033.032.07.047.109,0,.014.01.025.015.038a1.7,1.7,0,0,1,.051.186c0,.017.006.038.01.056.01.054.019.111.025.174,0,.03,0,.063.007.1,0,.058.006.12.007.185,0,.038,0,.078,0,.119,0,.068-.006.142-.012.218,0,.045-.007.089-.012.137-.009.087-.022.181-.037.277-.007.044-.012.086-.02.132-.025.147-.056.3-.095.471l-.011.043c-.038.155-.081.32-.131.5-.019.063-.041.131-.061.2-.04.134-.084.271-.132.416l-.087.25c-.043.122-.091.249-.139.378-.077.2-.163.419-.254.642-.042.1-.08.2-.126.3-.142.335-.3.685-.473,1.064-.123.26-.235.527-.335.8-.017.049-.026.1-.043.15a11.707,11.707,0,0,0-.357,1.224l-2.592-1.41q-.627-.341-1.269-.657c-.116-.057-.236-.105-.352-.161-.3-.142-.6-.276-.9-.41-.345-.154-.688-.3-1.036-.449-.3-.125-.609-.243-.915-.361-.349-.134-.7-.264-1.048-.388-.306-.108-.61-.21-.917-.31-.35-.114-.7-.224-1.046-.328-.3-.091-.607-.177-.911-.26-.166-.045-.334-.1-.5-.142-.194-.051-.384-.09-.578-.137-.25-.061-.5-.121-.745-.176-.378-.084-.748-.159-1.118-.23-.229-.044-.459-.091-.684-.129-.4-.069-.784-.124-1.168-.177-.185-.025-.374-.057-.556-.078-.557-.066-1.1-.118-1.619-.149a23.675,23.675,0,0,0-4.576.258c-.527.074-1.076.166-1.638.27-.18.033-.367.073-.551.11-.392.078-.788.16-1.194.252-.22.05-.442.1-.666.159q-.583.141-1.182.3c-.231.063-.461.125-.695.192-.422.121-.849.252-1.278.387-.212.067-.421.13-.634.2q-.9.3-1.809.636l-.132.046c-.648.244-1.3.509-1.951.787-.2.086-.4.179-.6.269-.33.146-.66.285-.988.44-.137.064-.272.136-.408.2q-.277.135-.555.275-.736.367-1.464.766c-.149.082-.3.159-.446.242q-.921.519-1.819,1.085c-.13.083-.257.171-.386.254-.311.2-.625.4-.93.613-.136.094-.265.2-.4.295-.266.189-.527.384-.787.58q-.528.4-1.04.816-.381.31-.752.631c-.051.044-.1.085-.154.13l-6.321-3.439c-.066-.036-.133-.07-.2-.1s-.116-.048-.173-.074c-.1-.044-.2-.087-.3-.125s-.18-.066-.27-.1-.2-.064-.3-.092c-.037-.01-.075-.025-.113-.035s-.065-.01-.1-.018a6.483,6.483,0,0,0-.736-.14,3.768,3.768,0,0,0-.961.019,4.382,4.382,0,0,0-.586.128c-.046.012-.091.025-.137.04a4.571,4.571,0,0,0-.6.228l-.022.008c-.017.008-.034.021-.051.029a5,5,0,0,0-.566.326c-.026.017-.052.027-.077.044s-.03.025-.045.036c-.121.085-.238.18-.353.279-.029.025-.06.044-.089.07l-.013.013c-.093.084-.181.179-.27.273-.039.041-.08.076-.118.119l-.006.007c-.058.066-.111.142-.167.212s-.124.149-.182.231l-.006.009a5.466,5.466,0,0,0-.328.534l0,.008c-.007.014-.013.031-.02.046a5.779,5.779,0,0,0-.286.64c-.011.028-.026.051-.036.08s-.024.093-.039.136a7.035,7.035,0,0,0-.2.7c-.018.075-.037.147-.052.225a8.492,8.492,0,0,0-.136,1c0,.067,0,.14-.007.208-.017.3-.018.62-.006.952,0,.11.008.219.015.333,0,.029,0,.057,0,.087L4.351,17.491l-.014-.008a.364.364,0,0,0-.072-.026.455.455,0,0,0-.173-.008.8.8,0,0,0-.229.073.773.773,0,0,0-.067.039l-.067.039c-.024.015-.048.026-.071.041-.046.033-.085.068-.127.1s-.053.04-.078.062l-.024.019c-.065.059-.116.11-.159.156l-.033.035c-.015.016-.034.036-.043.047l-.023.025v0h0c-.016.036-.031.074-.045.112-.024.069-.032.154-.05.23a2.157,2.157,0,0,0-.057.252c-.013.105-.013.219-.016.332,0,.1-.009.189,0,.291.007.119.03.244.049.368.016.105.026.207.051.314.029.129.076.259.118.39.034.107.061.213.1.32.054.134.127.266.194.4.052.1.1.207.156.309.082.136.184.265.282.4.067.092.124.187.2.275a4.975,4.975,0,0,0,.406.4c.072.067.133.141.21.2a4.807,4.807,0,0,0,.756.51l3.2,1.74A10.219,10.219,0,0,0,12.8,29.3c-.064.329-.145.66-.2,1-3.473,20.541,5.991,38.374,6.158,38.938l13.676,7.44h0l3.3-.464c-.009-.577.02-1.16.067-1.743.008-.1.014-.2.024-.3.054-.569.129-1.138.226-1.7.012-.073.026-.146.039-.219a31.145,31.145,0,0,1,.866-3.544l10.713,5.828,2.956-.415c-.031-.156-.3-1.539-.6-3.5-.212-1.4-.435-3.088-.591-4.833-.032-.349-.06-.7-.085-1.052-.051-.7-.088-1.408-.106-2.1-.009-.345-.014-.686-.013-1.022.856,0,1.7-.019,2.545-.046q.816-.023,1.622-.062h0a25.3,25.3,0,0,0,1.655,2.624l13.676,7.44,3.388-.476c0-.05-.023-.22-.05-.489V70.6c-.082-.818-.243-2.526-.383-4.541l7.459,4.057,3.381-.475c-.012-.114-.078-.741-.165-1.69-.043-.475-.092-1.03-.141-1.642-.025-.306-.05-.626-.075-.957-.049-.662-.1-1.37-.14-2.1a59.77,59.77,0,0,1-.078-7.384q.834-.292,1.617-.583c2.085-.772,3.878-1.521,5.324-2.177,1.085-.492,1.974-.933,2.644-1.293,5.78-3.12,5.2-10.2,5.169-10.572Zm-7.54-26.266.013.011,0,0Zm.066.058.014.016h0l-.006-.007Zm.073.088.013.018h0L81.689,11Z" fill="none" stroke="#borderColor" stroke-linecap="round" stroke-linejoin="round" stroke-width="#borderWidth" />
      <path d="M89.087,37.114c-.307-1.478-.628-3.431-1.33-5.984a16.416,16.416,0,0,0,7.114-5.72c4.006-5.256,1.166-7.83,1.016-7.965l-13.676-7.44a.648.648,0,0,1,.009.13v.022c0,.033-.021.09-.028.132L70.181,3.756l-.127-.066a3.106,3.106,0,0,0-.351-.129c-.1-.035-.193-.081-.288-.107-.014,0-.029-.012-.043-.016a3.725,3.725,0,0,0-.539-.094c-.048,0-.088-.006-.134-.009-.146-.011-.281-.015-.407-.012l-.128,0c-.142.009-.271.021-.371.035l.045.025.027.017.016.013c.013.01.026.021.041.035l.023.024c.013.014.028.031.042.049s.017.022.026.035a.743.743,0,0,1,.043.069c.008.014.017.028.025.044.016.033.032.07.047.109,0,.014.01.025.015.039a1.618,1.618,0,0,1,.051.185c0,.017.006.038.01.056.01.054.019.111.025.174,0,.03,0,.063.007.1,0,.058.006.12.007.185,0,.038,0,.078,0,.119,0,.069-.006.142-.012.218,0,.045-.007.089-.012.137-.009.087-.022.181-.037.277-.007.044-.012.086-.02.132-.025.147-.056.3-.095.471l-.012.043q-.056.232-.13.5c-.019.063-.041.131-.061.2-.04.134-.084.271-.132.416l-.087.25c-.043.122-.091.249-.139.378-.077.2-.163.419-.254.642-.042.1-.08.2-.126.3-.142.335-.3.685-.473,1.064-.124.26-.235.527-.335.8-.017.049-.026.1-.043.15a11.707,11.707,0,0,0-.357,1.224l-2.592-1.41q-.627-.341-1.269-.657c-.116-.057-.236-.105-.352-.161-.3-.142-.6-.276-.9-.41-.345-.154-.688-.3-1.036-.449-.3-.125-.609-.243-.915-.361-.349-.134-.7-.264-1.048-.388-.306-.108-.61-.21-.917-.31-.35-.114-.7-.224-1.046-.328-.3-.091-.607-.177-.911-.26-.166-.045-.334-.1-.5-.142-.194-.051-.384-.09-.578-.137-.25-.061-.5-.121-.745-.176-.378-.084-.748-.159-1.118-.23-.229-.044-.459-.091-.684-.129-.4-.069-.784-.124-1.168-.177-.185-.025-.374-.057-.556-.078-.557-.066-1.1-.118-1.619-.149a23.675,23.675,0,0,0-4.576.258c-.527.074-1.076.166-1.638.27-.18.033-.367.073-.551.11-.392.078-.788.16-1.194.252-.22.05-.442.1-.666.159q-.583.141-1.182.3c-.231.063-.461.125-.695.192-.422.121-.849.252-1.278.387-.212.067-.421.13-.634.2q-.9.3-1.809.636l-.132.046c-.648.244-1.3.509-1.951.787-.2.086-.4.179-.6.269-.33.146-.66.285-.988.44-.137.064-.272.136-.408.2-.186.09-.37.182-.556.275q-.735.367-1.463.766c-.149.082-.3.159-.446.242q-.921.519-1.819,1.085c-.13.083-.257.171-.386.255-.311.2-.625.4-.93.612-.136.094-.265.2-.4.295-.266.189-.527.384-.787.58q-.528.4-1.04.816-.381.31-.752.631c-.051.044-.1.085-.154.13l-6.321-3.439c-.066-.036-.133-.07-.2-.1s-.116-.048-.173-.074c-.1-.044-.2-.087-.3-.125s-.18-.066-.27-.1-.2-.064-.3-.092c-.037-.01-.075-.025-.113-.035s-.065-.01-.1-.018a6.711,6.711,0,0,0-.736-.14,3.768,3.768,0,0,0-.961.019,4.382,4.382,0,0,0-.586.128c-.046.012-.091.025-.137.04a4.571,4.571,0,0,0-.6.228l-.022.008c-.017.008-.034.021-.051.029a5,5,0,0,0-.566.326c-.026.017-.052.027-.077.044s-.03.025-.045.036c-.121.085-.238.18-.353.279-.029.025-.06.044-.089.07l-.013.013c-.093.084-.181.179-.27.273-.039.041-.08.076-.118.119l-.006.007c-.058.066-.111.142-.167.212s-.125.149-.182.231l-.006.009a5.466,5.466,0,0,0-.328.534l0,.008c-.007.014-.013.031-.02.046a5.779,5.779,0,0,0-.286.64c-.011.028-.026.051-.036.08s-.024.093-.039.136a7.035,7.035,0,0,0-.2.7c-.018.075-.037.147-.052.225a8.492,8.492,0,0,0-.136,1c0,.067,0,.14-.007.208-.017.3-.018.62-.006.952,0,.11.008.22.015.333,0,.029,0,.057,0,.087L4.351,17.491l-.014-.008a.364.364,0,0,0-.072-.026.455.455,0,0,0-.173-.008.8.8,0,0,0-.229.073.773.773,0,0,0-.067.039l-.067.039c-.024.015-.048.026-.071.041-.046.033-.085.068-.127.1s-.053.04-.078.062l-.024.019c-.065.059-.116.11-.159.156l-.033.035c-.015.016-.034.036-.043.047l-.023.025v0h0c-.016.036-.031.074-.045.112-.024.069-.032.154-.05.23a2.157,2.157,0,0,0-.057.252c-.013.105-.013.219-.016.332,0,.1-.009.189,0,.291.007.119.03.244.049.368.016.105.026.207.051.314.029.129.076.259.118.39.034.107.061.213.1.32.054.134.127.266.194.4.052.1.1.207.156.309.082.136.184.265.282.4.067.092.124.187.2.275a4.975,4.975,0,0,0,.406.4c.072.067.133.141.21.2a4.807,4.807,0,0,0,.756.51l3.2,1.74A10.219,10.219,0,0,0,12.8,29.3c-.064.329-.145.66-.2,1-3.473,20.541,5.991,38.374,6.158,38.938l13.676,7.44,3.3-.464a24.98,24.98,0,0,1,1.222-7.506l10.713,5.829,2.956-.416a75.756,75.756,0,0,1-1.394-12.5c1.407,0,2.793-.043,4.169-.108a25.348,25.348,0,0,0,1.653,2.625l13.676,7.44,3.388-.476c-.021-.2-.247-2.347-.434-5.045l7.459,4.057,3.381-.475c-.048-.456-.961-9.122-.6-13.771a71.576,71.576,0,0,0,9.585-4.053c5.78-3.12,5.2-10.2,5.169-10.571Zm-7.53-26.258-.01-.008.013.011Zm.064.059-.008-.009.014.016Zm.068.085,0-.006.013.018Z" fill="#primaryColor"/>
      <path d="M96.1,41.422c.465-.065.574-.174.58-.179.031.372.611,7.451-5.169,10.571a71.544,71.544,0,0,1-9.586,4.053c-.361,4.649.552,13.315.6,13.771l-3.381.475a25.727,25.727,0,0,1-4.671-11.946c-.977.259-1.995.514-3.028.763A118.924,118.924,0,0,0,72.115,71.1l-3.388.476a25.537,25.537,0,0,1-4.552-11.194q-1.062.174-2.147.326a91.035,91.035,0,0,1-12.8.911,75.756,75.756,0,0,0,1.394,12.5l-2.956.416c-5.284-4.859-7.149-9.74-7.792-12.917-.972,1.84-4.236,8.5-4.143,14.594l-3.3.464c-.167-.565-9.631-18.4-6.158-38.939.057-.336.138-.667.2-1a10.555,10.555,0,0,1-4.554-5.393,8.747,8.747,0,0,1-1.7-.3c-3.049-.876-4-4.087-3.377-5.524a1.969,1.969,0,0,1,.922-.639c.223-.031.43.077.544.477.326,1.172-.507,1.065,1.958,2.067a4.534,4.534,0,0,0,.624.2c-.917-5.769,2.04-7.906,4.244-8.216A3.812,3.812,0,0,1,26.1,19.4c2.258.271,5.762,1.991,3.623,6.89a8.211,8.211,0,0,1-4.06,4.391,9.325,9.325,0,0,0,2.167,1.856c5.224-11.978,20.126-17.674,29.238-18.955a23.755,23.755,0,0,1,4.576-.258,38.634,38.634,0,0,1,17.912,6.092,10.88,10.88,0,0,1,.773-2.313c2.645-5.653,1.216-6.265,1.141-6.3.979-.145,4.234-.258,4.883,5.183a16.789,16.789,0,0,1-1.162,8.858c.08.119.152.238.232.365a14.636,14.636,0,0,1,5.389-4.024c5.441-1.992,5.095-3.652,5.076-3.739.15.135,2.99,2.709-1.016,7.965a16.416,16.416,0,0,1-7.114,5.72c1.87,6.8,1.032,9.345,4.443,9.981A13.061,13.061,0,0,0,96.1,41.422ZM24.306,27.5A4.01,4.01,0,0,0,27.17,25.02c.475-1.718-.384-2.541-1.44-2.392a2.369,2.369,0,0,0-1.1.493c-1.219.949-.9,2.141-.321,4.375" opacity="0" style="mix-blend-mode: multiply"/>
      <path d="M32.431,76.678c-.167-.565-9.631-18.4-6.158-38.939.057-.336.138-.667.2-1a10.555,10.555,0,0,1-4.554-5.393,8.747,8.747,0,0,1-1.7-.3c-3.049-.876-4-4.087-3.377-5.524a1.969,1.969,0,0,1,.922-.639c.223-.031.43.077.544.477.326,1.172-.507,1.065,1.958,2.067a4.534,4.534,0,0,0,.624.2c-.917-5.769,2.04-7.906,4.244-8.216A3.812,3.812,0,0,1,26.1,19.4c2.258.271,5.762,1.991,3.623,6.89a8.211,8.211,0,0,1-4.06,4.391,9.325,9.325,0,0,0,2.167,1.856c5.224-11.978,20.126-17.674,29.238-18.955a23.755,23.755,0,0,1,4.576-.258,38.634,38.634,0,0,1,17.912,6.092,10.88,10.88,0,0,1,.773-2.313c2.645-5.653,1.216-6.265,1.141-6.3.979-.145,4.234-.258,4.883,5.183a16.789,16.789,0,0,1-1.162,8.858c.08.119.152.238.232.365a14.636,14.636,0,0,1,5.389-4.024c5.441-1.992,5.095-3.652,5.076-3.739M36.951,68.705m10.716,5.832c-5.284-4.859-7.149-9.74-7.792-12.917a42.455,42.455,0,0,0-2.924,7.085m16.454-7.181M68.727,71.577a25.537,25.537,0,0,1-4.552-11.194q-1.062.174-2.147.326c-2.773.39-5.659.675-8.623.815m18.277,4.549,7.458,4.04a25.727,25.727,0,0,1-4.671-11.946c-.977.259-1.995.514-3.028.763-.044,2.225.084,4.88.241,7.143m17.4-28.979c.512,2.472.982,3.619,3.118,4.017a13.061,13.061,0,0,0,3.9.311c.465-.065.574-.174.58-.179M24.306,27.5A4.01,4.01,0,0,0,27.17,25.02c.475-1.718-.384-2.541-1.44-2.392a2.369,2.369,0,0,0-1.1.493c-1.219.949-.9,2.141-.321,4.375" fill="none" stroke="#fff" stroke-linecap="round" stroke-linejoin="round" stroke-width="0.25"/>
      <path d="M81.181,15.089c.018-.048.042-.1.059-.151.03-.08.052-.151.08-.227s.059-.169.086-.25c.049-.145.093-.283.133-.417.02-.065.042-.134.06-.2.051-.175.094-.34.131-.5l.012-.043c.039-.168.07-.323.095-.47.008-.047.013-.088.02-.133.015-.1.028-.19.037-.277,0-.047.008-.092.012-.137.006-.076.01-.149.012-.217,0-.041,0-.081,0-.12,0-.065,0-.126-.007-.184,0-.032,0-.066-.007-.1-.007-.062-.015-.119-.025-.173,0-.018-.006-.039-.01-.056a1.638,1.638,0,0,0-.051-.186c-.005-.014-.01-.025-.015-.038-.015-.039-.031-.077-.047-.109l-.025-.044A.631.631,0,0,0,81.689,11c-.009-.013-.017-.025-.026-.036s-.028-.034-.042-.049l-.023-.023c-.015-.014-.028-.026-.041-.036l-.016-.013c-.017-.012-.033-.021-.044-.028L67.821,3.376a.486.486,0,0,1,.044.028l.016.013c.013.01.026.021.041.035l.023.024c.013.014.028.031.042.049s.017.022.026.035a.743.743,0,0,1,.043.069c.008.014.017.028.025.044.016.033.032.07.047.109,0,.014.01.025.015.039a1.618,1.618,0,0,1,.051.185c0,.017.006.038.01.056.01.054.019.111.025.174,0,.03,0,.063.007.1,0,.058.006.12.007.185,0,.038,0,.078,0,.119,0,.069-.006.142-.012.218,0,.045-.007.089-.012.137-.009.087-.022.181-.037.277-.007.044-.012.086-.02.132-.025.147-.056.3-.095.471l-.012.043q-.056.232-.13.5c-.019.063-.041.131-.061.2-.04.134-.084.271-.132.416l-.087.25c-.043.122-.091.249-.139.378-.077.2-.163.419-.254.642-.042.1-.08.2-.126.3-.142.335-.3.685-.473,1.064-.124.26-.235.527-.335.8-.017.049-.026.1-.043.15a11.839,11.839,0,0,0-.395,1.363l13.676,7.44a11.913,11.913,0,0,1,.395-1.364,9.712,9.712,0,0,1,.378-.949c.177-.378.331-.728.473-1.063.046-.106.084-.2.126-.306C81.018,15.507,81.1,15.292,81.181,15.089Z" fill="url(#a)" style="mix-blend-mode: multiply"/>
      <path d="M81.968,10.763c.125,0,.262,0,.407.011l.134.009a3.81,3.81,0,0,1,.583.111c.093.025.19.071.286.106a3.348,3.348,0,0,1,.479.2L70.181,3.756l-.127-.066a3.106,3.106,0,0,0-.351-.129c-.1-.035-.193-.081-.288-.107-.014,0-.029-.012-.043-.016a3.725,3.725,0,0,0-.539-.094c-.048,0-.088-.006-.134-.009-.146-.011-.281-.015-.407-.012l-.128,0c-.142.009-.271.021-.371.035L81.469,10.8c.1-.015.23-.027.371-.035Z" fill="url(#b)" style="mix-blend-mode: multiply"/>
      <path d="M26.273,37.739c.057-.336.138-.667.2-1L12.8,29.3c-.064.329-.145.66-.2,1-3.473,20.541,5.991,38.374,6.158,38.938l13.676,7.44C32.264,76.113,22.8,58.281,26.273,37.739Z" fill="url(#c)" style="mix-blend-mode: multiply"/>
      <g opacity="0.5" style="mix-blend-mode: multiply">
        <path d="M25.161,27.156a5.119,5.119,0,0,0,.632-.363c.055-.037.106-.078.159-.118.083-.061.165-.123.242-.19h0c.071-.062.138-.126.2-.192.038-.038.078-.075.114-.115a3.122,3.122,0,0,0,.264-.327h0c.01-.015.018-.031.028-.046h0a2.648,2.648,0,0,0,.176-.3h0c.023-.045.043-.092.063-.139h0a2.573,2.573,0,0,0,.127-.34,3.861,3.861,0,0,0,.1-.492,2.706,2.706,0,0,0,.024-.645c0-.025-.011-.044-.014-.067a1.7,1.7,0,0,0-.125-.446,1.6,1.6,0,0,0-.077-.149,1.293,1.293,0,0,0-.113-.162,1.212,1.212,0,0,0-.269-.238,1.393,1.393,0,0,0-.962-.193,2.369,2.369,0,0,0-1.1.493c-1.219.949-.9,2.141-.321,4.375a5.893,5.893,0,0,0,.708-.273Z"/>
      </g>
      <path d="M5.524,23.2,19.2,30.635a4.751,4.751,0,0,1-.755-.51c-.08-.065-.141-.141-.215-.209a5.039,5.039,0,0,1-.4-.4c-.075-.089-.133-.185-.2-.277-.1-.131-.2-.26-.28-.4-.06-.1-.1-.206-.156-.309-.067-.133-.14-.264-.194-.4-.043-.107-.07-.214-.1-.321-.042-.13-.089-.261-.118-.389-.025-.108-.035-.21-.051-.315-.019-.124-.042-.249-.049-.367-.006-.1,0-.2,0-.293s0-.226.016-.33a2.42,2.42,0,0,1,.057-.254,2.122,2.122,0,0,1,.095-.341l.066-.073.034-.036c.047-.049.111-.111.183-.174.024-.021.052-.041.078-.063a2.2,2.2,0,0,1,.2-.142l.068-.04a.9.9,0,0,1,.3-.111.407.407,0,0,1,.259.041L4.351,17.491l-.014-.008a.364.364,0,0,0-.072-.026.455.455,0,0,0-.173-.008.8.8,0,0,0-.229.073.773.773,0,0,0-.067.039l-.067.039c-.024.015-.048.026-.071.041-.046.033-.085.068-.127.1s-.053.04-.078.062l-.024.019c-.065.059-.116.11-.159.156l-.033.035c-.015.016-.034.036-.043.047l-.023.025v0h0c-.016.036-.031.074-.045.112-.024.069-.032.154-.05.23a2.157,2.157,0,0,0-.057.252c-.013.105-.013.219-.016.332,0,.1-.009.189,0,.291.007.119.03.244.049.368.016.105.026.207.051.314.029.129.076.259.118.39.034.107.061.213.1.32.054.134.127.266.194.4.052.1.1.207.156.309.082.136.184.265.282.4.067.092.124.187.2.275a4.975,4.975,0,0,0,.406.4c.072.067.133.141.21.2A4.807,4.807,0,0,0,5.524,23.2Z" fill="url(#d)" style="mix-blend-mode: multiply"/>
      <path d="M63.325,10.423q-.627-.341-1.269-.657c-.116-.057-.236-.105-.352-.161-.3-.142-.6-.276-.9-.41-.345-.154-.688-.3-1.036-.449-.3-.125-.609-.243-.915-.361-.349-.134-.7-.264-1.048-.388-.306-.108-.61-.21-.917-.31-.35-.114-.7-.224-1.046-.328-.3-.091-.607-.177-.911-.26-.166-.045-.334-.1-.5-.142-.194-.051-.384-.09-.578-.137-.25-.061-.5-.121-.745-.176-.378-.084-.748-.159-1.118-.23-.229-.044-.459-.091-.684-.129-.4-.069-.784-.124-1.168-.177-.185-.025-.374-.057-.556-.078-.557-.066-1.1-.118-1.619-.149a23.675,23.675,0,0,0-4.576.258c-.527.074-1.076.166-1.638.27-.18.033-.367.073-.551.11-.392.078-.788.16-1.194.252-.22.05-.442.1-.666.159q-.583.141-1.182.3c-.231.063-.461.125-.695.192-.422.121-.849.252-1.278.387-.212.067-.421.13-.634.2q-.9.3-1.809.636l-.132.046c-.648.244-1.3.509-1.951.787-.2.086-.4.179-.6.269-.33.146-.66.285-.988.44-.137.064-.272.136-.408.2-.186.09-.37.182-.556.275q-.735.367-1.463.766c-.149.082-.3.159-.446.242q-.921.519-1.819,1.085c-.13.083-.257.171-.386.255-.311.2-.625.4-.93.612-.136.094-.265.2-.4.295-.266.189-.527.384-.787.58q-.528.4-1.04.816-.381.31-.752.631l-.154.13,7.355,4c-.041-.022-.084-.039-.126-.06,1.729.882,3.1,2.755,1.564,6.267a8.211,8.211,0,0,1-4.06,4.391,9.325,9.325,0,0,0,2.167,1.856c.3-.7.646-1.364,1.011-2.017.066-.119.135-.236.2-.353h0c.358-.614.735-1.215,1.143-1.793h0c.071-.1.152-.2.225-.295.36-.493.734-.975,1.126-1.441h0c.169-.2.347-.393.521-.589.383-.429.769-.854,1.177-1.259h0c.721-.716,1.485-1.387,2.273-2.03h0c.284-.232.575-.457.867-.68.317-.242.634-.484.958-.715h0c.438-.311.88-.615,1.33-.907h0c.129-.084.256-.171.385-.254h0q.9-.567,1.817-1.084h0a45.508,45.508,0,0,1,4.466-2.194h0c.651-.278,1.3-.542,1.949-.786h0c.143-.054.285-.1.428-.151.506-.185,1.012-.366,1.512-.531h0c.539-.178,1.07-.337,1.6-.492.1-.031.21-.065.313-.1h0c.36-.1.711-.2,1.065-.287.271-.071.543-.143.81-.208h0c.224-.054.446-.108.666-.158h0c.595-.135,1.178-.257,1.743-.362h0c.562-.1,1.112-.2,1.638-.27a23.755,23.755,0,0,1,4.576-.258c.519.031,1.062.083,1.619.149.066.008.136.019.2.029.233.029.474.069.712.1.267.038.532.075.806.122.165.028.334.062.5.1.286.053.573.113.864.174.147.031.291.058.439.091.247.055.5.115.745.176.054.013.109.029.164.042.279.069.556.141.837.217.027.007.053.013.079.021q.453.123.907.258c.135.041.271.085.407.127.345.107.687.217,1.033.334.175.059.35.116.526.178.274.1.548.2.822.3.309.117.615.234.922.359l.216.085c.349.144.694.3,1.039.45l.187.086c.272.123.542.246.812.376.511.246,1.021.5,1.517.766Z" fill="url(#e)" style="mix-blend-mode: multiply"/>
      <g>
        <path d="M64.251,60.819c-.024-.144-.055-.3-.076-.436-.052.009-.105.016-.157.024C64.1,60.545,64.169,60.681,64.251,60.819Z" opacity="0.5" style="mix-blend-mode: multiply"/>
        <path d="M71.441,58.93c-.044,2.221.084,4.865.24,7.126l7.459,4.057a25.727,25.727,0,0,1-4.671-11.946C73.492,58.426,72.474,58.681,71.441,58.93Z" opacity="0.5" style="mix-blend-mode: multiply"/>
      </g>
      <path d="M62.028,60.709c-2.774.39-5.667.664-8.632.8a25.3,25.3,0,0,0,1.655,2.624l13.676,7.44a25.537,25.537,0,0,1-4.552-11.194Q63.113,60.557,62.028,60.709Z" opacity="0.5" style="mix-blend-mode: multiply"/>
      <path d="M39.875,61.62a42.621,42.621,0,0,0-2.921,7.088l10.713,5.829C42.383,69.678,40.518,64.8,39.875,61.62Z" opacity="0.5" style="mix-blend-mode: multiply"/>
      <path d="M91.081,40.764c.043.018.094.031.136.049a4,4,0,0,0,.479.171c.017,0,.032.011.047.017.146.04.292.079.457.11a13.061,13.061,0,0,0,3.9.311,2.587,2.587,0,0,0,.3-.059c.029-.008.047-.016.071-.024a1.045,1.045,0,0,0,.107-.038.45.45,0,0,0,.059-.03l.018-.01h0a.184.184,0,0,0,.024-.018l-7.589-4.129C89.492,39.065,89.875,40.186,91.081,40.764Z" fill="url(#f)" style="mix-blend-mode: multiply"/>
      <g opacity="0.5" style="mix-blend-mode: multiply">
        <path d="M21.921,31.35a8.747,8.747,0,0,1-1.7-.3,5.032,5.032,0,0,1-1.035-.425l.012.008-10.477-5.7A10.219,10.219,0,0,0,12.8,29.3l13.676,7.44A10.555,10.555,0,0,1,21.921,31.35Z"/>
      </g>
      <path d="M18.429,26.289c.035.2.143.346.541.563h0c.062.034.132.07.208.107h0c.117.057.255.12.411.188l.038.017.076.033c.168.072.35.148.565.236a4.534,4.534,0,0,0,.624.2h0Z" fill="#a80000"/>
      <g>
        <path d="M18,24.925a.62.62,0,0,1,.315.44,4.828,4.828,0,0,1,.117.924l2.465,1.341c-.073-.459-.113-.886-.139-1.3h0c0-.055,0-.108-.008-.163a11.043,11.043,0,0,1,0-1.121h0c0-.068,0-.141.008-.208h0a8.682,8.682,0,0,1,.135-1h0l.012-.052a6.55,6.55,0,0,1,.609-1.753l.015-.03h0a5.3,5.3,0,0,1,.329-.535h0c.027-.039.057-.074.086-.111.1-.135.2-.265.311-.385.027-.026.053-.053.079-.08l0,0c.088-.093.176-.187.269-.271h0c.033-.03.067-.054.1-.082l0,0c.115-.1.232-.193.353-.278h0l.022-.015a4.743,4.743,0,0,1,.722-.42l.016-.009h0a4.815,4.815,0,0,1,.716-.262l.02-.006h0a4.718,4.718,0,0,1,.586-.128A3.812,3.812,0,0,1,26.1,19.4a6.282,6.282,0,0,1,2.059.623c.042.021.085.038.126.06l-13.676-7.44c-.066-.036-.133-.07-.2-.1s-.116-.048-.173-.074c-.1-.044-.2-.087-.3-.125s-.18-.066-.27-.1-.2-.064-.3-.092c-.037-.01-.075-.025-.113-.035s-.065-.01-.1-.018a6.711,6.711,0,0,0-.736-.14,3.768,3.768,0,0,0-.961.019,4.382,4.382,0,0,0-.586.128c-.046.012-.091.025-.137.04a4.571,4.571,0,0,0-.6.228l-.022.008c-.017.008-.034.021-.051.029a5,5,0,0,0-.566.326c-.026.017-.052.027-.077.044s-.03.025-.045.036c-.121.085-.238.18-.353.279-.029.025-.06.044-.089.07l-.013.013c-.093.084-.181.179-.27.273-.039.041-.08.076-.118.119l-.006.007c-.058.066-.111.142-.167.212s-.125.149-.182.231l-.006.009a5.466,5.466,0,0,0-.328.534l0,.008c-.007.014-.013.031-.02.046a5.779,5.779,0,0,0-.286.64c-.011.028-.026.051-.036.08s-.024.093-.039.136a7.035,7.035,0,0,0-.2.7c-.018.075-.037.147-.052.225a8.492,8.492,0,0,0-.136,1c0,.067,0,.14-.007.208-.017.3-.018.62-.006.952,0,.11.008.22.015.333,0,.028.007.061.009.09l10.939,5.95C18.018,24.925,18.006,24.93,18,24.925Z" fill="url(#g)" style="mix-blend-mode: multiply"/>
        <polygon points="16.907 25.461 16.907 25.461 16.909 25.458 16.907 25.461" fill="url(#h)" style="mix-blend-mode: multiply"/>
        <path d="M17.051,25.319c.026-.025.048-.047.078-.074h0C17.1,25.272,17.078,25.293,17.051,25.319Z" fill="url(#i)" style="mix-blend-mode: multiply"/>
      </g>
      <path d="M95.887,17.445l-13.676-7.44a.648.648,0,0,1,.009.13v.022c0,.033-.02.089-.028.132l1.666.906-.015-.006c1.084.582,2.165,1.9,2.51,4.8a16.789,16.789,0,0,1-1.162,8.858c.08.119.152.238.232.365.476-.523.981-1.03,1.507-1.509h0l.191-.173h0c.151-.134.3-.262.458-.389h0c.09-.075.18-.15.271-.222h0c.175-.139.354-.269.533-.4h0c.073-.053.145-.109.219-.16h0c.2-.136.4-.262.6-.384h0c.046-.028.091-.06.137-.087a9.274,9.274,0,0,1,1.468-.7c.354-.13.682-.258.988-.385.1-.042.192-.083.29-.126.194-.083.388-.166.562-.247h0c.219-.1.425-.2.616-.3l.125-.068.056-.031c.13-.07.256-.14.373-.208l.144-.085c.11-.068.21-.133.309-.2.031-.021.068-.042.1-.062l.038-.025c.14-.1.264-.189.379-.28h0c.036-.029.066-.056.1-.083.07-.059.138-.116.2-.172h0c.1-.094.191-.184.269-.27h0l.034-.035a2.945,2.945,0,0,0,.2-.25h0c.016-.023.027-.043.041-.066l0,0c.033-.051.067-.1.093-.15h0c.009-.017.014-.031.022-.047v0a1.669,1.669,0,0,0,.07-.154l.009-.03h0a1.121,1.121,0,0,0,.065-.3v-.022A.556.556,0,0,0,95.887,17.445Z" fill="url(#j)" style="mix-blend-mode: multiply"/>
    </g>
  </g>
</svg>
