<svg id="Layer_1" data-name="Layer 1" xmlns="http://www.w3.org/2000/svg" viewBox="0 0 91 65">
    <defs>
        <linearGradient id="linear-gradient" x1="3" y1="44.99" x2="88" y2="44.99" gradientUnits="userSpaceOnUse"><stop offset="0.05" stop-opacity="0.5"/>
            <stop offset="0.06" stop-opacity="0.46"/><stop offset="0.16" stop-opacity="0.2"/><stop offset="0.92" stop-opacity="0.5"/><stop offset="0.92" stop-opacity="0.5"/>
        </linearGradient>
    </defs>
    <path style="fill:#primaryColor" d="M45.5,3.47C22,3.47,3,14.66,3,28.45v8.09c0,13.8,19,25,42.5,25S88,50.34,88,36.54V28.45C88,14.66,69,3.47,45.5,3.47Z" />
    

    <ellipse style="fill:#labelColor" cx="45.5" cy="28.46" rx="29.73" ry="17.47" />

    
    <path style="fill:#accentColor1" d="M46.27,3.48h-1.7c-2.06,0-4.08.15-6.06.34V5.16c0,.64.87,1.14,1.93,1.14h.24c1.58-.12,3.19-.18,4.82-.18s3.24.06,4.81.18h.25c1.06,0,1.94-.5,1.94-1.14V3.82c-2-.19-4-.31-6.07-.34Z" />
    <path style="fill:#accentColor1" d="M5.88,24.34H3.59A15.3,15.3,0,0,0,3,27.9v.27a2.62,2.62,0,0,0,0,.28H3v8.09a15,15,0,0,0,.59,4.12V32.57H5.88c1.17,0,2.06-.6,1.91-1.28a13.48,13.48,0,0,1-.31-2.83,13.34,13.34,0,0,1,.31-2.83C7.94,24.94,7.05,24.34,5.88,24.34ZM3.29,31.28l.06.35Zm-.26-2,0,.4Zm.09,1,.06.39Z" />
    <path style="fill:#accentColor1" d="M50.57,50.61h-.26c-1.57.12-3.17.19-4.81.19s-3.24-.07-4.82-.19h-.25c-1,0-1.92.5-1.92,1.13v9.44c2.27.22,4.61.34,7,.34s4.72-.12,7-.34V51.74C52.5,51.11,51.62,50.61,50.57,50.61Z" />
    <path style="fill:#accentColor1" d="M88,28.46c0-.1,0-.2,0-.3v-.29a.57.57,0,0,1,0-.13.92.92,0,0,0,0-.16,24.77,24.77,0,0,0,0-.27c0-.22,0-.45-.06-.68a16.32,16.32,0,0,0-.47-2.29H85.13c-1.17,0-2.06.6-1.92,1.29a12.72,12.72,0,0,1,.32,2.83,12.86,12.86,0,0,1-.32,2.83c-.14.68.75,1.28,1.92,1.28h2.29v8.06A15.19,15.19,0,0,0,88,36.54V28.46Zm-.07,1.32c0,.35-.08.69-.13,1C87.85,30.47,87.9,30.13,87.93,29.78Zm-.23,1.59c0,.24-.11.48-.17.72C87.59,31.85,87.65,31.61,87.7,31.37Z" />

    <path style="fill:#accentColor2" d="M22.43,9.08l-1.62-.95A40,40,0,0,0,10.91,14l1.62,1a2.83,2.83,0,0,0,1.37.33,2.58,2.58,0,0,0,1.52-.44,35.49,35.49,0,0,1,6.83-4C23.17,10.36,23.25,9.56,22.43,9.08Z" />
    <path style="fill:#accentColor2" d="M68.75,10.78a35.19,35.19,0,0,1,6.83,4,2.58,2.58,0,0,0,1.52.44,2.8,2.8,0,0,0,1.37-.33l1.62-1a39.83,39.83,0,0,0-9.9-5.82l-1.62.95C67.75,9.56,67.83,10.36,68.75,10.78Z" />
    <path style="fill:#accentColor2" d="M77.1,41.68a2.58,2.58,0,0,0-1.52.44,36.26,36.26,0,0,1-6.83,4c-.92.41-1,1.21-.18,1.69l1.62,1v8.08a40,40,0,0,0,9.9-5.82V43l-1.62-1A2.8,2.8,0,0,0,77.1,41.68Z" />
    <path style="fill:#accentColor2" d="M22.25,46.14a36.58,36.58,0,0,1-6.83-4,2.58,2.58,0,0,0-1.52-.44,2.83,2.83,0,0,0-1.37.33l-1.62,1v8.08a40,40,0,0,0,9.9,5.82V48.79l1.62-1C23.25,47.35,23.17,46.55,22.25,46.14Z" />

    <path d="M88,28.45v8.09c0,13.8-19,25-42.5,25S3,50.34,3,36.54V28.45c0,13.8,19,25,42.5,25S88,42.25,88,28.45Z" style="mix-blend-mode:multiply;fill:url(#linear-gradient)"/>
    <path d="M3,28.45c0,13.8,19,25,42.5,25S88,42.25,88,28.45" style="fill:none;stroke:#fff;stroke-linecap:round;stroke-linejoin:round;stroke-width:0.25px"/>
    
    <path style="fill:none;stroke:#borderColor;stroke-linecap:round;stroke-width:#borderWidth;" d="M45.5,3.47C22,3.47,3,14.66,3,28.45v8.09c0,13.8,19,25,42.5,25S88,50.34,88,36.54V28.45C88,14.66,69,3.47,45.5,3.47Z" />

</svg>