<svg version="1.2" baseProfile="tiny-ps" xmlns="http://www.w3.org/2000/svg" viewBox="0 0 30 120" width="30" height="120">
	<title>Road240-3D-svg</title>
	<style>
		tspan { white-space:pre }
		.shp0 { fill: #ff0000;stroke: #000000 } 
		.shp1 { opacity: 0;mix-blend-mode: multiply;fill: #000000 } 
		.shp2 { opacity: 0.2;mix-blend-mode: multiply;fill: #000000 } 
		.shp3 { opacity: 0.502;mix-blend-mode: multiply;fill: #000000 } 
		.shp4 { fill: none;stroke: #ffffff;stroke-linecap:round;stroke-linejoin:round;stroke-width: 0.25 } 
	</style>
	<g id="Layer">
		<g id="Layer_1">
			<path id="Layer" class="shp0" d="M3.08 9.8L15.66 3.03L26.96 9.55L26.92 109.97L14.74 116.97L3.04 110.22L3.08 9.8L3.08 9.8Z" />
			<path id="Layer" class="shp1" d="M3.04 110.22L3.08 9.8L15.66 3.03L15.63 103.45L3.04 110.22L3.04 110.22Z" />
			<path id="Layer" class="shp2" d="M26.96 9.55L26.92 109.97L15.63 103.45L15.66 3.03L26.96 9.55L26.96 9.55Z" />
			<path id="Layer" class="shp3" d="M3.04 110.22L15.63 103.45L26.92 109.97L14.74 116.97L3.04 110.22L3.04 110.22Z" />
			<path id="Layer" class="shp4" d="M15.66 3.03L15.63 103.45L3.04 110.22" />
			<path id="Layer" class="shp4" d="M26.92 109.97L15.63 103.45" />
		</g>
	</g>
</svg>