<svg class="card" width="2.25in" height="3.5in" face="JC" preserveAspectRatio="none" version="1.1" viewBox="-106 -164.5 212 329" xmlns="http://www.w3.org/2000/svg"><rect x="-105.5" y="-164" width="211" height="328" rx="12" ry="12" fill="#fff" stroke="#000"/><g transform="matrix(.052704 .05258 -.052829 .052704 33.363 -33.371)"><path d="m-1.0209e-5 -570.49c100 250 355 400 355 685a150 150 0 0 1-300 0 10 10 0 0 0-20 0c0 200 50 215 95 315h-260c45-100 95-115 95-315a10 10 0 0 0-20 0 150 150 0 0 1-300 0c0-285 255-435 355-685z"/><path d="m-786.88 631.79c-89.238 2e-5 -178.48-88.818-178.48-177.64-1e-5 -88.818 89.238-177.64 223.09-177.64 223.1-6e-5 580.05 355.27 669.29 355.27-89.238 3e-5 -446.19 355.27-669.28 355.27-133.86 4e-5 -223.1-88.817-223.1-177.64-1e-5 -88.818 89.238-177.64 178.48-177.64z" fill="#f00" stroke-width=".89028"/><path d="m639.98 180.91c1e-5 56.351 509.56 450.81 566.18 450.81-56.618 1e-5 -566.18 394.46-566.18 450.81-1e-5 -56.352-509.56-450.81-566.18-450.81 56.618-1e-5 566.18-394.46 566.18-450.81z" fill="#f00" stroke-width="1.1297"/><path d="m-25.772 1168.8c-4.496-211.31-49.456-224.8-89.92-314.72l233.79 1e-5c-40.464 89.92-85.424 103.41-89.92 314.72a8.992 8.992 56.194 0 0 17.984 0 188.83 188.83 56.194 1 1 66.541 180.74 8.992 8.992 56.194 0 0-12.589 12.589 206.82 206.82 56.194 1 1-197.82 0 8.992 8.992 56.194 0 0-12.589-12.589 188.83 188.83 56.194 1 1 66.541-180.74 8.992 8.992 56.194 0 0 17.984 0z" stroke-width=".8992"/></g><g font-family="'Bitstream Vera Sans'" font-size="15.783px" letter-spacing="0px" stroke-width="1.3153" word-spacing="0px"><g transform="scale(-1.0012 -.99882)" aria-label="J"><path d="m-92.61-117.23q-1.3047 0-2.1886-0.16835t-1.6414-0.37879v-5.2189q0.7155 0.16835 1.5573 0.29461 0.79967 0.12627 1.8098 0.12627 2.0202 0 3.2829-1.2626 1.3047-1.2206 1.8519-3.9142l6.0186-28.367h6.2711l-6.229 29.251q-1.0943 5.1768-3.7037 7.4075-2.5674 2.2307-7.0287 2.2307z"/></g><g transform="scale(-1.0012 -.99882)" aria-label="o"><path d="m-81.071-116.33c-2.0202 0-5.2526 1.4647-8.2325 3.6869-3.2324 2.4243-5.5052 7.6769-5.5052 12.728 0 3.0304 1.7172 5.0001 4.394 5.0001 1.4142 0 2.8788-0.50506 5.1516-1.7172 2.5253-1.4142 4.192-2.6768 5.1011-3.8385 2.0202-2.7778 3.6364-7.7274 3.6364-11.212 0-2.7273-1.8687-4.6466-4.5455-4.6466zm-2.6263 2.3738c2.0202 0 3.2829 1.9192 3.2829 5.0001 0 2.1718-0.70708 4.7476-1.9192 7.2224-1.4647 2.8788-3.2829 4.4445-5.2021 4.4445-2.0707 0-3.3839-1.8687-3.3839-4.7476 0-5.8587 3.6869-11.919 7.2224-11.919z"/></g><g transform="scale(-1.0012 -.99882)" aria-label="k"><path d="m-96.971-58.268c0.55557-0.20202 1.0606-0.40405 1.2121-0.45455 0.30304-0.10101 0.8081-0.25253 1.3637-0.45455 0.15152-0.05051 0.60607-0.20202 1.1111-0.35354l1.9697-8.9901 1.1616-0.70708c1.0101 2.3233 1.2121 2.7778 2.8283 6.5658 2.1718 5.1516 3.4849 7.2224 5.5557 8.8386 2.1718 1.6667 5.3031 2.7273 7.9799 2.7273 2.3233 0 3.9395-0.50506 5.5052-1.7677l-1.0101-3.6364c-1.6162 2.7273-3.0809 3.788-5.2021 3.788-1.6667 0-3.0304-0.8081-4.596-2.6768-1.3637-1.6162-1.3637-1.6162-6.7678-13.081l-1.4647-3.1314 3.3839-3.0809c2.0202-1.7677 2.5758-2.1213 3.5354-2.1213 0.8586 0 1.4647 0.40405 2.2728 1.4647l2.5758-3.8385c-1.0101-0.75759-1.7172-1.0101-2.8283-1.0101-1.3637 0-2.2223 0.45455-3.7374 1.8687-1.5657 1.5152-1.6162 1.5657-2.1718 2.0707l-6.5153 5.8082 1.9192-7.7274c1.6162-6.6668 2.1718-8.283 3.0304-9.6972 0.90911-1.4647 2.2223-2.1718 3.9395-2.1718 0.45455 0 0.8586 0.05051 1.7677 0.20202l2.0202-2.9293c-0.65658-0.10101-0.95961-0.15152-1.4647-0.15152-1.8182 0-2.9799 0.40405-4.596 1.5657-3.2324 2.2728-5.5052 4.495-6.1617 5.9597-0.50506 1.1111-1.4647 4.4445-2.1213 7.3739z"/></g><g transform="scale(-1.0012 -.99882)" aria-label="e"><path d="m-82.172-36.343c-4.0405 3.4344-6.2122 4.6971-8.1315 4.6971-1.3132 0-2.3233-0.8586-2.6768-2.1718-0.20202-0.8081-0.25253-1.3637-0.25253-2.8283 2.3233-1.4647 3.7374-2.4748 6.7173-4.6971 2.7778-2.0707 3.788-3.7374 3.788-6.0102 0-1.7677-1.0606-2.8283-2.8788-2.8283-1.1111 0-1.8687 0.25253-3.0809 0.90911-1.9192 1.1111-3.6364 2.4748-4.6466 3.6869-1.9192 2.3233-3.6364 7.8789-3.6364 11.97 0 2.9799 1.5657 4.8486 4.1415 4.8486 2.9799 0 6.8183-2.2223 10.606-6.1112zm-10.909-2.1213c0.8586-5.4546 3.1314-9.5961 5.3536-9.5961 0.8081 0 1.3637 0.8081 1.3637 2.0707 0 2.5253-1.4647 4.1415-6.7173 7.5254z"/></g><g transform="scale(-1.0012 -.99882)" aria-label="r"><path d="m-97.252-1.2481 3.889-1.4647 3.788-14.394c1.7172-1.3132 2.8788-1.7677 4.2425-1.7677 1.1111 0 1.7677 0.40405 2.6768 1.5657l1.5152-4.7981c-0.90911-0.30304-1.3637-0.40405-1.8687-0.40405-0.95961 0-1.9697 0.45455-3.3334 1.4142-0.65658 0.50506-1.3132 1.0101-2.0202 1.4647-0.30304 0.25253-0.65658 0.50506-0.95961 0.70708l0.60607-3.0304c0-0.30304-0.30304-0.55557-0.65658-0.55557-0.65658 0-5.1011 2.1718-8.182 3.99l-0.15152 1.3637c2.9293-1.4142 2.9799-1.4647 3.6364-1.4647s0.95961 0.35354 0.95961 1.0606-0.50506 3.0304-1.1111 5.2526z"/></g><g transform="scale(1.0012 .99882)" aria-label="J"><path d="m-92.694-117.15q-1.3047 0-2.1886-0.16835t-1.6414-0.37879v-5.2189q0.7155 0.16836 1.5573 0.29462 0.79967 0.12626 1.8098 0.12626 2.0202 0 3.2829-1.2626 1.3047-1.2206 1.8519-3.9142l6.0186-28.367h6.2711l-6.229 29.251q-1.0943 5.1768-3.7037 7.4075-2.5674 2.2307-7.0287 2.2307z"/></g><g transform="scale(1.0012 .99882)" aria-label="o"><path d="m-81.156-116.25c-2.0202 0-5.2526 1.4647-8.2325 3.6869-3.2324 2.4243-5.5052 7.6769-5.5052 12.728 0 3.0304 1.7172 5.0001 4.394 5.0001 1.4142 0 2.8788-0.50506 5.1516-1.7172 2.5253-1.4142 4.192-2.6768 5.1011-3.8385 2.0202-2.7778 3.6364-7.7274 3.6364-11.212 0-2.7273-1.8687-4.6466-4.5455-4.6466zm-2.6263 2.3738c2.0202 0 3.2829 1.9192 3.2829 5.0001 0 2.1718-0.70708 4.7476-1.9192 7.2224-1.4647 2.8788-3.2829 4.4445-5.2021 4.4445-2.0707 0-3.3839-1.8687-3.3839-4.7476 0-5.8587 3.6869-11.919 7.2224-11.919z"/></g><g transform="scale(1.0012 .99882)" aria-label="k"><path d="m-97.055-58.184c0.55557-0.20202 1.0606-0.40405 1.2121-0.45455 0.30304-0.10101 0.8081-0.25253 1.3637-0.45455 0.15152-0.05051 0.60607-0.20202 1.1111-0.35354l1.9697-8.9901 1.1616-0.70708c1.0101 2.3233 1.2121 2.7778 2.8283 6.5658 2.1718 5.1516 3.4849 7.2224 5.5557 8.8386 2.1718 1.6667 5.3031 2.7273 7.9799 2.7273 2.3233 0 3.9395-0.50506 5.5052-1.7677l-1.0101-3.6364c-1.6162 2.7273-3.0809 3.788-5.2021 3.788-1.6667 0-3.0304-0.8081-4.596-2.6768-1.3637-1.6162-1.3637-1.6162-6.7678-13.081l-1.4647-3.1314 3.3839-3.0809c2.0202-1.7677 2.5758-2.1213 3.5354-2.1213 0.8586 0 1.4647 0.40405 2.2728 1.4647l2.5758-3.8385c-1.0101-0.75759-1.7172-1.0101-2.8283-1.0101-1.3637 0-2.2223 0.45455-3.7374 1.8687-1.5657 1.5152-1.6162 1.5657-2.1718 2.0707l-6.5153 5.8082 1.9192-7.7274c1.6162-6.6668 2.1718-8.283 3.0304-9.6972 0.90911-1.4647 2.2223-2.1718 3.9395-2.1718 0.45455 0 0.8586 0.05051 1.7677 0.20202l2.0202-2.9293c-0.65658-0.10101-0.95961-0.15152-1.4647-0.15152-1.8182 0-2.9799 0.40405-4.596 1.5657-3.2324 2.2728-5.5052 4.495-6.1617 5.9597-0.50506 1.1111-1.4647 4.4445-2.1213 7.3739z"/></g><g transform="scale(1.0012 .99882)" aria-label="e"><path d="m-82.257-36.259c-4.0405 3.4344-6.2122 4.6971-8.1315 4.6971-1.3132 0-2.3233-0.8586-2.6768-2.1718-0.20202-0.8081-0.25253-1.3637-0.25253-2.8283 2.3233-1.4647 3.7374-2.4748 6.7173-4.6971 2.7778-2.0707 3.788-3.7374 3.788-6.0102 0-1.7677-1.0606-2.8283-2.8788-2.8283-1.1111 0-1.8687 0.25253-3.0809 0.90911-1.9192 1.1111-3.6364 2.4748-4.6466 3.6869-1.9192 2.3233-3.6364 7.8789-3.6364 11.97 0 2.9799 1.5657 4.8486 4.1415 4.8486 2.9799 0 6.8183-2.2223 10.606-6.1112zm-10.909-2.1213c0.8586-5.4546 3.1314-9.5961 5.3536-9.5961 0.8081 0 1.3637 0.8081 1.3637 2.0707 0 2.5253-1.4647 4.1415-6.7173 7.5254z"/></g><g transform="scale(1.0012 .99882)" aria-label="r"><path d="m-97.336-1.1644 3.889-1.4647 3.788-14.394c1.7172-1.3132 2.8788-1.7677 4.2425-1.7677 1.1111 0 1.7677 0.40405 2.6768 1.5657l1.5152-4.7981c-0.90911-0.30304-1.3637-0.40405-1.8687-0.40405-0.95961 0-1.9697 0.45455-3.3334 1.4142-0.65658 0.50506-1.3132 1.0101-2.0202 1.4647-0.30304 0.25253-0.65658 0.50506-0.95961 0.70708l0.60607-3.0304c0-0.30304-0.30304-0.55557-0.65658-0.55557-0.65658 0-5.1011 2.1718-8.182 3.99l-0.15152 1.3637c2.9293-1.4142 2.9799-1.4647 3.6364-1.4647s0.95961 0.35354 0.95961 1.0606-0.50506 3.0304-1.1111 5.2526z"/></g></g></svg>
