<?xml version="1.0" encoding="UTF-8" standalone="no"?>
<svg xmlns="http://www.w3.org/2000/svg" class="card" face="1B" height="3.5in" preserveAspectRatio="none" viewBox="-106 -164.5 212 329" width="2.25in"><rect width="211" height="328" x="-105.5" y="-164" rx="12" ry="12" fill="white" stroke="black"></rect><path transform="translate(-85,-145)rotate(330)" d="M0 -3.333L2.5 4.33h-5z" fill="purple"></path><path transform="translate(-75,-145)rotate(90)" d="M0 -3.333L2.5 4.33h-5z" fill="orange"></path><path transform="translate(-65,-145)rotate(60)" d="M0 -3.333L2.5 4.33h-5z" fill="red"></path><path transform="translate(-55,-145)rotate(60)" d="M0 -3.333L2.5 4.33h-5z" fill="purple"></path><path transform="translate(-45,-145)rotate(210)" d="M0 -3.333L2.5 4.33h-5z" fill="red"></path><path transform="translate(-35,-145)rotate(150)" d="M0 -3.333L2.5 4.33h-5z" fill="green"></path><path transform="translate(-25,-145)rotate(180)" d="M0 -3.333L2.5 4.33h-5z" fill="purple"></path><path transform="translate(-15,-145)rotate(150)" d="M0 -3.333L2.5 4.33h-5z" fill="green"></path><path transform="translate(-5,-145)rotate(30)" d="M0 -3.333L2.5 4.33h-5z" fill="blue"></path><path transform="translate(5,-145)rotate(210)" d="M0 -3.333L2.5 4.33h-5z" fill="green"></path><path transform="translate(15,-145)rotate(270)" d="M0 -3.333L2.5 4.33h-5z" fill="purple"></path><path transform="translate(25,-145)rotate(270)" d="M0 -3.333L2.5 4.33h-5z" fill="orange"></path><path transform="translate(35,-145)rotate(240)" d="M0 -3.333L2.5 4.33h-5z" fill="green"></path><path transform="translate(45,-145)rotate(60)" d="M0 -3.333L2.5 4.33h-5z" fill="orange"></path><path transform="translate(55,-145)rotate(330)" d="M0 -3.333L2.5 4.33h-5z" fill="red"></path><path transform="translate(65,-145)rotate(150)" d="M0 -3.333L2.5 4.33h-5z" fill="blue"></path><path transform="translate(75,-145)rotate(210)" d="M0 -3.333L2.5 4.33h-5z" fill="red"></path><path transform="translate(85,-145)rotate(240)" d="M0 -3.333L2.5 4.33h-5z" fill="purple"></path><path transform="translate(-85,-135)rotate(60)" d="M0 -3.333L2.5 4.33h-5z" fill="red"></path><path transform="translate(-75,-135)rotate(0)" d="M0 -3.333L2.5 4.33h-5z" fill="red"></path><path transform="translate(-65,-135)rotate(270)" d="M0 -3.333L2.5 4.33h-5z" fill="red"></path><path transform="translate(-55,-135)rotate(240)" d="M0 -3.333L2.5 4.33h-5z" fill="green"></path><path transform="translate(-45,-135)rotate(240)" d="M0 -3.333L2.5 4.33h-5z" fill="red"></path><path transform="translate(-35,-135)rotate(300)" d="M0 -3.333L2.5 4.33h-5z" fill="orange"></path><path transform="translate(-25,-135)rotate(30)" d="M0 -3.333L2.5 4.33h-5z" fill="green"></path><path transform="translate(-15,-135)rotate(0)" d="M0 -3.333L2.5 4.33h-5z" fill="red"></path><path transform="translate(-5,-135)rotate(180)" d="M0 -3.333L2.5 4.33h-5z" fill="red"></path><path transform="translate(5,-135)rotate(60)" d="M0 -3.333L2.5 4.33h-5z" fill="green"></path><path transform="translate(15,-135)rotate(60)" d="M0 -3.333L2.5 4.33h-5z" fill="orange"></path><path transform="translate(25,-135)rotate(90)" d="M0 -3.333L2.5 4.33h-5z" fill="red"></path><path transform="translate(35,-135)rotate(210)" d="M0 -3.333L2.5 4.33h-5z" fill="purple"></path><path transform="translate(45,-135)rotate(0)" d="M0 -3.333L2.5 4.33h-5z" fill="purple"></path><path transform="translate(55,-135)rotate(240)" d="M0 -3.333L2.5 4.33h-5z" fill="orange"></path><path transform="translate(65,-135)rotate(90)" d="M0 -3.333L2.5 4.33h-5z" fill="blue"></path><path transform="translate(75,-135)rotate(60)" d="M0 -3.333L2.5 4.33h-5z" fill="orange"></path><path transform="translate(85,-135)rotate(0)" d="M0 -3.333L2.5 4.33h-5z" fill="red"></path><path transform="translate(-85,-125)rotate(240)" d="M0 -3.333L2.5 4.33h-5z" fill="purple"></path><path transform="translate(-75,-125)rotate(210)" d="M0 -3.333L2.5 4.33h-5z" fill="green"></path><path transform="translate(-65,-125)rotate(300)" d="M0 -3.333L2.5 4.33h-5z" fill="blue"></path><path transform="translate(-55,-125)rotate(180)" d="M0 -3.333L2.5 4.33h-5z" fill="orange"></path><path transform="translate(-45,-125)rotate(90)" d="M0 -3.333L2.5 4.33h-5z" fill="red"></path><path transform="translate(-35,-125)rotate(60)" d="M0 -3.333L2.5 4.33h-5z" fill="purple"></path><path transform="translate(-25,-125)rotate(330)" d="M0 -3.333L2.5 4.33h-5z" fill="blue"></path><path transform="translate(-15,-125)rotate(150)" d="M0 -3.333L2.5 4.33h-5z" fill="green"></path><path transform="translate(-5,-125)rotate(270)" d="M0 -3.333L2.5 4.33h-5z" fill="green"></path><path transform="translate(5,-125)rotate(120)" d="M0 -3.333L2.5 4.33h-5z" fill="blue"></path><path transform="translate(15,-125)rotate(30)" d="M0 -3.333L2.5 4.33h-5z" fill="red"></path><path transform="translate(25,-125)rotate(60)" d="M0 -3.333L2.5 4.33h-5z" fill="blue"></path><path transform="translate(35,-125)rotate(270)" d="M0 -3.333L2.5 4.33h-5z" fill="orange"></path><path transform="translate(45,-125)rotate(120)" d="M0 -3.333L2.5 4.33h-5z" fill="orange"></path><path transform="translate(55,-125)rotate(120)" d="M0 -3.333L2.5 4.33h-5z" fill="orange"></path><path transform="translate(65,-125)rotate(90)" d="M0 -3.333L2.5 4.33h-5z" fill="green"></path><path transform="translate(75,-125)rotate(270)" d="M0 -3.333L2.5 4.33h-5z" fill="blue"></path><path transform="translate(85,-125)rotate(270)" d="M0 -3.333L2.5 4.33h-5z" fill="red"></path><path transform="translate(-85,-115)rotate(270)" d="M0 -3.333L2.5 4.33h-5z" fill="green"></path><path transform="translate(-75,-115)rotate(90)" d="M0 -3.333L2.5 4.33h-5z" fill="blue"></path><path transform="translate(-65,-115)rotate(150)" d="M0 -3.333L2.5 4.33h-5z" fill="purple"></path><path transform="translate(-55,-115)rotate(180)" d="M0 -3.333L2.5 4.33h-5z" fill="red"></path><path transform="translate(-45,-115)rotate(300)" d="M0 -3.333L2.5 4.33h-5z" fill="purple"></path><path transform="translate(-35,-115)rotate(330)" d="M0 -3.333L2.5 4.33h-5z" fill="orange"></path><path transform="translate(-25,-115)rotate(120)" d="M0 -3.333L2.5 4.33h-5z" fill="blue"></path><path transform="translate(-15,-115)rotate(240)" d="M0 -3.333L2.5 4.33h-5z" fill="orange"></path><path transform="translate(-5,-115)rotate(90)" d="M0 -3.333L2.5 4.33h-5z" fill="orange"></path><path transform="translate(5,-115)rotate(180)" d="M0 -3.333L2.5 4.33h-5z" fill="purple"></path><path transform="translate(15,-115)rotate(120)" d="M0 -3.333L2.5 4.33h-5z" fill="red"></path><path transform="translate(25,-115)rotate(120)" d="M0 -3.333L2.5 4.33h-5z" fill="orange"></path><path transform="translate(35,-115)rotate(0)" d="M0 -3.333L2.5 4.33h-5z" fill="purple"></path><path transform="translate(45,-115)rotate(60)" d="M0 -3.333L2.5 4.33h-5z" fill="red"></path><path transform="translate(55,-115)rotate(60)" d="M0 -3.333L2.5 4.33h-5z" fill="blue"></path><path transform="translate(65,-115)rotate(30)" d="M0 -3.333L2.5 4.33h-5z" fill="red"></path><path transform="translate(75,-115)rotate(330)" d="M0 -3.333L2.5 4.33h-5z" fill="purple"></path><path transform="translate(85,-115)rotate(240)" d="M0 -3.333L2.5 4.33h-5z" fill="purple"></path><path transform="translate(-85,-105)rotate(30)" d="M0 -3.333L2.5 4.33h-5z" fill="red"></path><path transform="translate(-75,-105)rotate(30)" d="M0 -3.333L2.5 4.33h-5z" fill="red"></path><path transform="translate(-65,-105)rotate(60)" d="M0 -3.333L2.5 4.33h-5z" fill="orange"></path><path transform="translate(-55,-105)rotate(0)" d="M0 -3.333L2.5 4.33h-5z" fill="orange"></path><path transform="translate(-45,-105)rotate(330)" d="M0 -3.333L2.5 4.33h-5z" fill="blue"></path><path transform="translate(-35,-105)rotate(90)" d="M0 -3.333L2.5 4.33h-5z" fill="blue"></path><path transform="translate(-25,-105)rotate(330)" d="M0 -3.333L2.5 4.33h-5z" fill="red"></path><path transform="translate(-15,-105)rotate(90)" d="M0 -3.333L2.5 4.33h-5z" fill="blue"></path><path transform="translate(-5,-105)rotate(120)" d="M0 -3.333L2.5 4.33h-5z" fill="blue"></path><path transform="translate(5,-105)rotate(150)" d="M0 -3.333L2.5 4.33h-5z" fill="purple"></path><path transform="translate(15,-105)rotate(330)" d="M0 -3.333L2.5 4.33h-5z" fill="green"></path><path transform="translate(25,-105)rotate(180)" d="M0 -3.333L2.5 4.33h-5z" fill="blue"></path><path transform="translate(35,-105)rotate(60)" d="M0 -3.333L2.5 4.33h-5z" fill="red"></path><path transform="translate(45,-105)rotate(150)" d="M0 -3.333L2.5 4.33h-5z" fill="green"></path><path transform="translate(55,-105)rotate(90)" d="M0 -3.333L2.5 4.33h-5z" fill="purple"></path><path transform="translate(65,-105)rotate(60)" d="M0 -3.333L2.5 4.33h-5z" fill="purple"></path><path transform="translate(75,-105)rotate(90)" d="M0 -3.333L2.5 4.33h-5z" fill="blue"></path><path transform="translate(85,-105)rotate(0)" d="M0 -3.333L2.5 4.33h-5z" fill="orange"></path><path transform="translate(-85,-95)rotate(240)" d="M0 -3.333L2.5 4.33h-5z" fill="orange"></path><path transform="translate(-75,-95)rotate(210)" d="M0 -3.333L2.5 4.33h-5z" fill="purple"></path><path transform="translate(-65,-95)rotate(150)" d="M0 -3.333L2.5 4.33h-5z" fill="purple"></path><path transform="translate(-55,-95)rotate(60)" d="M0 -3.333L2.5 4.33h-5z" fill="red"></path><path transform="translate(-45,-95)rotate(120)" d="M0 -3.333L2.5 4.33h-5z" fill="purple"></path><path transform="translate(-35,-95)rotate(0)" d="M0 -3.333L2.5 4.33h-5z" fill="purple"></path><path transform="translate(-25,-95)rotate(270)" d="M0 -3.333L2.5 4.33h-5z" fill="green"></path><path transform="translate(-15,-95)rotate(150)" d="M0 -3.333L2.5 4.33h-5z" fill="blue"></path><path transform="translate(-5,-95)rotate(240)" d="M0 -3.333L2.5 4.33h-5z" fill="purple"></path><path transform="translate(5,-95)rotate(180)" d="M0 -3.333L2.5 4.33h-5z" fill="purple"></path><path transform="translate(15,-95)rotate(60)" d="M0 -3.333L2.5 4.33h-5z" fill="orange"></path><path transform="translate(25,-95)rotate(120)" d="M0 -3.333L2.5 4.33h-5z" fill="red"></path><path transform="translate(35,-95)rotate(120)" d="M0 -3.333L2.5 4.33h-5z" fill="red"></path><path transform="translate(45,-95)rotate(150)" d="M0 -3.333L2.5 4.33h-5z" fill="orange"></path><path transform="translate(55,-95)rotate(60)" d="M0 -3.333L2.5 4.33h-5z" fill="blue"></path><path transform="translate(65,-95)rotate(270)" d="M0 -3.333L2.5 4.33h-5z" fill="green"></path><path transform="translate(75,-95)rotate(180)" d="M0 -3.333L2.5 4.33h-5z" fill="orange"></path><path transform="translate(85,-95)rotate(30)" d="M0 -3.333L2.5 4.33h-5z" fill="green"></path><path transform="translate(-85,-85)rotate(90)" d="M0 -3.333L2.5 4.33h-5z" fill="orange"></path><path transform="translate(-75,-85)rotate(240)" d="M0 -3.333L2.5 4.33h-5z" fill="blue"></path><path transform="translate(-65,-85)rotate(60)" d="M0 -3.333L2.5 4.33h-5z" fill="purple"></path><path transform="translate(-55,-85)rotate(330)" d="M0 -3.333L2.5 4.33h-5z" fill="purple"></path><path transform="translate(-45,-85)rotate(300)" d="M0 -3.333L2.5 4.33h-5z" fill="purple"></path><path transform="translate(-35,-85)rotate(120)" d="M0 -3.333L2.5 4.33h-5z" fill="green"></path><path transform="translate(-25,-85)rotate(330)" d="M0 -3.333L2.5 4.33h-5z" fill="red"></path><path transform="translate(-15,-85)rotate(270)" d="M0 -3.333L2.5 4.33h-5z" fill="blue"></path><path transform="translate(-5,-85)rotate(30)" d="M0 -3.333L2.5 4.33h-5z" fill="red"></path><path transform="translate(5,-85)rotate(300)" d="M0 -3.333L2.5 4.33h-5z" fill="red"></path><path transform="translate(15,-85)rotate(0)" d="M0 -3.333L2.5 4.33h-5z" fill="blue"></path><path transform="translate(25,-85)rotate(120)" d="M0 -3.333L2.5 4.33h-5z" fill="blue"></path><path transform="translate(35,-85)rotate(180)" d="M0 -3.333L2.5 4.33h-5z" fill="red"></path><path transform="translate(45,-85)rotate(240)" d="M0 -3.333L2.5 4.33h-5z" fill="blue"></path><path transform="translate(55,-85)rotate(180)" d="M0 -3.333L2.5 4.33h-5z" fill="purple"></path><path transform="translate(65,-85)rotate(240)" d="M0 -3.333L2.5 4.33h-5z" fill="green"></path><path transform="translate(75,-85)rotate(180)" d="M0 -3.333L2.5 4.33h-5z" fill="orange"></path><path transform="translate(85,-85)rotate(0)" d="M0 -3.333L2.5 4.33h-5z" fill="blue"></path><path transform="translate(-85,-75)rotate(240)" d="M0 -3.333L2.5 4.33h-5z" fill="orange"></path><path transform="translate(-75,-75)rotate(90)" d="M0 -3.333L2.5 4.33h-5z" fill="red"></path><path transform="translate(-65,-75)rotate(240)" d="M0 -3.333L2.5 4.33h-5z" fill="blue"></path><path transform="translate(-55,-75)rotate(270)" d="M0 -3.333L2.5 4.33h-5z" fill="blue"></path><path transform="translate(-45,-75)rotate(270)" d="M0 -3.333L2.5 4.33h-5z" fill="red"></path><path transform="translate(-35,-75)rotate(30)" d="M0 -3.333L2.5 4.33h-5z" fill="orange"></path><path transform="translate(-25,-75)rotate(120)" d="M0 -3.333L2.5 4.33h-5z" fill="purple"></path><path transform="translate(-15,-75)rotate(210)" d="M0 -3.333L2.5 4.33h-5z" fill="blue"></path><path transform="translate(-5,-75)rotate(330)" d="M0 -3.333L2.5 4.33h-5z" fill="blue"></path><path transform="translate(5,-75)rotate(90)" d="M0 -3.333L2.5 4.33h-5z" fill="purple"></path><path transform="translate(15,-75)rotate(30)" d="M0 -3.333L2.5 4.33h-5z" fill="purple"></path><path transform="translate(25,-75)rotate(60)" d="M0 -3.333L2.5 4.33h-5z" fill="red"></path><path transform="translate(35,-75)rotate(60)" d="M0 -3.333L2.5 4.33h-5z" fill="blue"></path><path transform="translate(45,-75)rotate(240)" d="M0 -3.333L2.5 4.33h-5z" fill="red"></path><path transform="translate(55,-75)rotate(300)" d="M0 -3.333L2.5 4.33h-5z" fill="orange"></path><path transform="translate(65,-75)rotate(0)" d="M0 -3.333L2.5 4.33h-5z" fill="green"></path><path transform="translate(75,-75)rotate(0)" d="M0 -3.333L2.5 4.33h-5z" fill="green"></path><path transform="translate(85,-75)rotate(270)" d="M0 -3.333L2.5 4.33h-5z" fill="blue"></path><path transform="translate(-85,-65)rotate(210)" d="M0 -3.333L2.5 4.33h-5z" fill="purple"></path><path transform="translate(-75,-65)rotate(330)" d="M0 -3.333L2.5 4.33h-5z" fill="green"></path><path transform="translate(-65,-65)rotate(120)" d="M0 -3.333L2.5 4.33h-5z" fill="green"></path><path transform="translate(-55,-65)rotate(90)" d="M0 -3.333L2.5 4.33h-5z" fill="orange"></path><path transform="translate(-45,-65)rotate(240)" d="M0 -3.333L2.5 4.33h-5z" fill="red"></path><path transform="translate(-35,-65)rotate(180)" d="M0 -3.333L2.5 4.33h-5z" fill="green"></path><path transform="translate(-25,-65)rotate(180)" d="M0 -3.333L2.5 4.33h-5z" fill="blue"></path><path transform="translate(-15,-65)rotate(30)" d="M0 -3.333L2.5 4.33h-5z" fill="green"></path><path transform="translate(-5,-65)rotate(30)" d="M0 -3.333L2.5 4.33h-5z" fill="red"></path><path transform="translate(5,-65)rotate(330)" d="M0 -3.333L2.5 4.33h-5z" fill="orange"></path><path transform="translate(15,-65)rotate(270)" d="M0 -3.333L2.5 4.33h-5z" fill="orange"></path><path transform="translate(25,-65)rotate(210)" d="M0 -3.333L2.5 4.33h-5z" fill="blue"></path><path transform="translate(35,-65)rotate(240)" d="M0 -3.333L2.5 4.33h-5z" fill="green"></path><path transform="translate(45,-65)rotate(150)" d="M0 -3.333L2.5 4.33h-5z" fill="purple"></path><path transform="translate(55,-65)rotate(330)" d="M0 -3.333L2.5 4.33h-5z" fill="red"></path><path transform="translate(65,-65)rotate(0)" d="M0 -3.333L2.5 4.33h-5z" fill="purple"></path><path transform="translate(75,-65)rotate(0)" d="M0 -3.333L2.5 4.33h-5z" fill="orange"></path><path transform="translate(85,-65)rotate(300)" d="M0 -3.333L2.5 4.33h-5z" fill="orange"></path><path transform="translate(-85,-55)rotate(240)" d="M0 -3.333L2.5 4.33h-5z" fill="blue"></path><path transform="translate(-75,-55)rotate(180)" d="M0 -3.333L2.5 4.33h-5z" fill="orange"></path><path transform="translate(-65,-55)rotate(120)" d="M0 -3.333L2.5 4.33h-5z" fill="green"></path><path transform="translate(-55,-55)rotate(240)" d="M0 -3.333L2.5 4.33h-5z" fill="red"></path><path transform="translate(-45,-55)rotate(30)" d="M0 -3.333L2.5 4.33h-5z" fill="red"></path><path transform="translate(-35,-55)rotate(60)" d="M0 -3.333L2.5 4.33h-5z" fill="orange"></path><path transform="translate(-25,-55)rotate(120)" d="M0 -3.333L2.5 4.33h-5z" fill="green"></path><path transform="translate(-15,-55)rotate(60)" d="M0 -3.333L2.5 4.33h-5z" fill="purple"></path><path transform="translate(-5,-55)rotate(60)" d="M0 -3.333L2.5 4.33h-5z" fill="red"></path><path transform="translate(5,-55)rotate(0)" d="M0 -3.333L2.5 4.33h-5z" fill="red"></path><path transform="translate(15,-55)rotate(150)" d="M0 -3.333L2.5 4.33h-5z" fill="blue"></path><path transform="translate(25,-55)rotate(90)" d="M0 -3.333L2.5 4.33h-5z" fill="blue"></path><path transform="translate(35,-55)rotate(0)" d="M0 -3.333L2.5 4.33h-5z" fill="red"></path><path transform="translate(45,-55)rotate(60)" d="M0 -3.333L2.5 4.33h-5z" fill="orange"></path><path transform="translate(55,-55)rotate(330)" d="M0 -3.333L2.5 4.33h-5z" fill="orange"></path><path transform="translate(65,-55)rotate(270)" d="M0 -3.333L2.5 4.33h-5z" fill="blue"></path><path transform="translate(75,-55)rotate(180)" d="M0 -3.333L2.5 4.33h-5z" fill="red"></path><path transform="translate(85,-55)rotate(120)" d="M0 -3.333L2.5 4.33h-5z" fill="green"></path><path transform="translate(-85,-45)rotate(330)" d="M0 -3.333L2.5 4.33h-5z" fill="orange"></path><path transform="translate(-75,-45)rotate(30)" d="M0 -3.333L2.5 4.33h-5z" fill="red"></path><path transform="translate(-65,-45)rotate(150)" d="M0 -3.333L2.5 4.33h-5z" fill="green"></path><path transform="translate(-55,-45)rotate(240)" d="M0 -3.333L2.5 4.33h-5z" fill="purple"></path><path transform="translate(-45,-45)rotate(30)" d="M0 -3.333L2.5 4.33h-5z" fill="orange"></path><path transform="translate(-35,-45)rotate(180)" d="M0 -3.333L2.5 4.33h-5z" fill="orange"></path><path transform="translate(-25,-45)rotate(120)" d="M0 -3.333L2.5 4.33h-5z" fill="green"></path><path transform="translate(-15,-45)rotate(300)" d="M0 -3.333L2.5 4.33h-5z" fill="blue"></path><path transform="translate(-5,-45)rotate(240)" d="M0 -3.333L2.5 4.33h-5z" fill="blue"></path><path transform="translate(5,-45)rotate(180)" d="M0 -3.333L2.5 4.33h-5z" fill="purple"></path><path transform="translate(15,-45)rotate(0)" d="M0 -3.333L2.5 4.33h-5z" fill="orange"></path><path transform="translate(25,-45)rotate(120)" d="M0 -3.333L2.5 4.33h-5z" fill="purple"></path><path transform="translate(35,-45)rotate(180)" d="M0 -3.333L2.5 4.33h-5z" fill="purple"></path><path transform="translate(45,-45)rotate(0)" d="M0 -3.333L2.5 4.33h-5z" fill="purple"></path><path transform="translate(55,-45)rotate(30)" d="M0 -3.333L2.5 4.33h-5z" fill="purple"></path><path transform="translate(65,-45)rotate(90)" d="M0 -3.333L2.5 4.33h-5z" fill="purple"></path><path transform="translate(75,-45)rotate(30)" d="M0 -3.333L2.5 4.33h-5z" fill="purple"></path><path transform="translate(85,-45)rotate(180)" d="M0 -3.333L2.5 4.33h-5z" fill="orange"></path><path transform="translate(-85,-35)rotate(210)" d="M0 -3.333L2.5 4.33h-5z" fill="blue"></path><path transform="translate(-75,-35)rotate(240)" d="M0 -3.333L2.5 4.33h-5z" fill="orange"></path><path transform="translate(-65,-35)rotate(240)" d="M0 -3.333L2.5 4.33h-5z" fill="blue"></path><path transform="translate(-55,-35)rotate(0)" d="M0 -3.333L2.5 4.33h-5z" fill="green"></path><path transform="translate(-45,-35)rotate(150)" d="M0 -3.333L2.5 4.33h-5z" fill="red"></path><path transform="translate(-35,-35)rotate(210)" d="M0 -3.333L2.5 4.33h-5z" fill="purple"></path><path transform="translate(-25,-35)rotate(90)" d="M0 -3.333L2.5 4.33h-5z" fill="green"></path><path transform="translate(-15,-35)rotate(150)" d="M0 -3.333L2.5 4.33h-5z" fill="green"></path><path transform="translate(-5,-35)rotate(180)" d="M0 -3.333L2.5 4.33h-5z" fill="red"></path><path transform="translate(5,-35)rotate(240)" d="M0 -3.333L2.5 4.33h-5z" fill="blue"></path><path transform="translate(15,-35)rotate(210)" d="M0 -3.333L2.5 4.33h-5z" fill="purple"></path><path transform="translate(25,-35)rotate(270)" d="M0 -3.333L2.5 4.33h-5z" fill="orange"></path><path transform="translate(35,-35)rotate(120)" d="M0 -3.333L2.5 4.33h-5z" fill="red"></path><path transform="translate(45,-35)rotate(60)" d="M0 -3.333L2.5 4.33h-5z" fill="blue"></path><path transform="translate(55,-35)rotate(0)" d="M0 -3.333L2.5 4.33h-5z" fill="orange"></path><path transform="translate(65,-35)rotate(240)" d="M0 -3.333L2.5 4.33h-5z" fill="green"></path><path transform="translate(75,-35)rotate(60)" d="M0 -3.333L2.5 4.33h-5z" fill="purple"></path><path transform="translate(85,-35)rotate(120)" d="M0 -3.333L2.5 4.33h-5z" fill="green"></path><path transform="translate(-85,-25)rotate(60)" d="M0 -3.333L2.5 4.33h-5z" fill="green"></path><path transform="translate(-75,-25)rotate(210)" d="M0 -3.333L2.5 4.33h-5z" fill="purple"></path><path transform="translate(-65,-25)rotate(330)" d="M0 -3.333L2.5 4.33h-5z" fill="green"></path><path transform="translate(-55,-25)rotate(0)" d="M0 -3.333L2.5 4.33h-5z" fill="purple"></path><path transform="translate(-45,-25)rotate(240)" d="M0 -3.333L2.5 4.33h-5z" fill="blue"></path><path transform="translate(-35,-25)rotate(330)" d="M0 -3.333L2.5 4.33h-5z" fill="purple"></path><path transform="translate(-25,-25)rotate(210)" d="M0 -3.333L2.5 4.33h-5z" fill="blue"></path><path transform="translate(-15,-25)rotate(330)" d="M0 -3.333L2.5 4.33h-5z" fill="orange"></path><path transform="translate(-5,-25)rotate(210)" d="M0 -3.333L2.5 4.33h-5z" fill="green"></path><path transform="translate(5,-25)rotate(90)" d="M0 -3.333L2.5 4.33h-5z" fill="green"></path><path transform="translate(15,-25)rotate(0)" d="M0 -3.333L2.5 4.33h-5z" fill="orange"></path><path transform="translate(25,-25)rotate(30)" d="M0 -3.333L2.5 4.33h-5z" fill="orange"></path><path transform="translate(35,-25)rotate(150)" d="M0 -3.333L2.5 4.33h-5z" fill="orange"></path><path transform="translate(45,-25)rotate(330)" d="M0 -3.333L2.5 4.33h-5z" fill="red"></path><path transform="translate(55,-25)rotate(270)" d="M0 -3.333L2.5 4.33h-5z" fill="red"></path><path transform="translate(65,-25)rotate(300)" d="M0 -3.333L2.5 4.33h-5z" fill="blue"></path><path transform="translate(75,-25)rotate(150)" d="M0 -3.333L2.5 4.33h-5z" fill="orange"></path><path transform="translate(85,-25)rotate(330)" d="M0 -3.333L2.5 4.33h-5z" fill="purple"></path><path transform="translate(-85,-15)rotate(0)" d="M0 -3.333L2.5 4.33h-5z" fill="red"></path><path transform="translate(-75,-15)rotate(330)" d="M0 -3.333L2.5 4.33h-5z" fill="orange"></path><path transform="translate(-65,-15)rotate(270)" d="M0 -3.333L2.5 4.33h-5z" fill="red"></path><path transform="translate(-55,-15)rotate(180)" d="M0 -3.333L2.5 4.33h-5z" fill="red"></path><path transform="translate(-45,-15)rotate(270)" d="M0 -3.333L2.5 4.33h-5z" fill="orange"></path><path transform="translate(-35,-15)rotate(60)" d="M0 -3.333L2.5 4.33h-5z" fill="green"></path><path transform="translate(-25,-15)rotate(150)" d="M0 -3.333L2.5 4.33h-5z" fill="green"></path><path transform="translate(-15,-15)rotate(0)" d="M0 -3.333L2.5 4.33h-5z" fill="green"></path><path transform="translate(-5,-15)rotate(90)" d="M0 -3.333L2.5 4.33h-5z" fill="blue"></path><path transform="translate(5,-15)rotate(270)" d="M0 -3.333L2.5 4.33h-5z" fill="orange"></path><path transform="translate(15,-15)rotate(180)" d="M0 -3.333L2.5 4.33h-5z" fill="red"></path><path transform="translate(25,-15)rotate(240)" d="M0 -3.333L2.5 4.33h-5z" fill="green"></path><path transform="translate(35,-15)rotate(150)" d="M0 -3.333L2.5 4.33h-5z" fill="orange"></path><path transform="translate(45,-15)rotate(180)" d="M0 -3.333L2.5 4.33h-5z" fill="blue"></path><path transform="translate(55,-15)rotate(120)" d="M0 -3.333L2.5 4.33h-5z" fill="green"></path><path transform="translate(65,-15)rotate(60)" d="M0 -3.333L2.5 4.33h-5z" fill="purple"></path><path transform="translate(75,-15)rotate(270)" d="M0 -3.333L2.5 4.33h-5z" fill="purple"></path><path transform="translate(85,-15)rotate(240)" d="M0 -3.333L2.5 4.33h-5z" fill="blue"></path><path transform="translate(-85,-5)rotate(120)" d="M0 -3.333L2.5 4.33h-5z" fill="blue"></path><path transform="translate(-75,-5)rotate(180)" d="M0 -3.333L2.5 4.33h-5z" fill="orange"></path><path transform="translate(-65,-5)rotate(120)" d="M0 -3.333L2.5 4.33h-5z" fill="green"></path><path transform="translate(-55,-5)rotate(180)" d="M0 -3.333L2.5 4.33h-5z" fill="orange"></path><path transform="translate(-45,-5)rotate(180)" d="M0 -3.333L2.5 4.33h-5z" fill="red"></path><path transform="translate(-35,-5)rotate(330)" d="M0 -3.333L2.5 4.33h-5z" fill="red"></path><path transform="translate(-25,-5)rotate(90)" d="M0 -3.333L2.5 4.33h-5z" fill="red"></path><path transform="translate(-15,-5)rotate(330)" d="M0 -3.333L2.5 4.33h-5z" fill="purple"></path><path transform="translate(-5,-5)rotate(30)" d="M0 -3.333L2.5 4.33h-5z" fill="green"></path><path transform="translate(5,-5)rotate(240)" d="M0 -3.333L2.5 4.33h-5z" fill="blue"></path><path transform="translate(15,-5)rotate(180)" d="M0 -3.333L2.5 4.33h-5z" fill="red"></path><path transform="translate(25,-5)rotate(240)" d="M0 -3.333L2.5 4.33h-5z" fill="red"></path><path transform="translate(35,-5)rotate(0)" d="M0 -3.333L2.5 4.33h-5z" fill="orange"></path><path transform="translate(45,-5)rotate(60)" d="M0 -3.333L2.5 4.33h-5z" fill="orange"></path><path transform="translate(55,-5)rotate(270)" d="M0 -3.333L2.5 4.33h-5z" fill="orange"></path><path transform="translate(65,-5)rotate(330)" d="M0 -3.333L2.5 4.33h-5z" fill="blue"></path><path transform="translate(75,-5)rotate(240)" d="M0 -3.333L2.5 4.33h-5z" fill="purple"></path><path transform="translate(85,-5)rotate(90)" d="M0 -3.333L2.5 4.33h-5z" fill="purple"></path><path transform="translate(-85,5)rotate(120)" d="M0 -3.333L2.5 4.33h-5z" fill="blue"></path><path transform="translate(-75,5)rotate(120)" d="M0 -3.333L2.5 4.33h-5z" fill="orange"></path><path transform="translate(-65,5)rotate(60)" d="M0 -3.333L2.5 4.33h-5z" fill="green"></path><path transform="translate(-55,5)rotate(0)" d="M0 -3.333L2.5 4.33h-5z" fill="red"></path><path transform="translate(-45,5)rotate(210)" d="M0 -3.333L2.5 4.33h-5z" fill="green"></path><path transform="translate(-35,5)rotate(90)" d="M0 -3.333L2.5 4.33h-5z" fill="orange"></path><path transform="translate(-25,5)rotate(330)" d="M0 -3.333L2.5 4.33h-5z" fill="purple"></path><path transform="translate(-15,5)rotate(330)" d="M0 -3.333L2.5 4.33h-5z" fill="purple"></path><path transform="translate(-5,5)rotate(210)" d="M0 -3.333L2.5 4.33h-5z" fill="purple"></path><path transform="translate(5,5)rotate(330)" d="M0 -3.333L2.5 4.33h-5z" fill="green"></path><path transform="translate(15,5)rotate(90)" d="M0 -3.333L2.5 4.33h-5z" fill="purple"></path><path transform="translate(25,5)rotate(30)" d="M0 -3.333L2.5 4.33h-5z" fill="purple"></path><path transform="translate(35,5)rotate(90)" d="M0 -3.333L2.5 4.33h-5z" fill="orange"></path><path transform="translate(45,5)rotate(270)" d="M0 -3.333L2.5 4.33h-5z" fill="orange"></path><path transform="translate(55,5)rotate(180)" d="M0 -3.333L2.5 4.33h-5z" fill="orange"></path><path transform="translate(65,5)rotate(240)" d="M0 -3.333L2.5 4.33h-5z" fill="purple"></path><path transform="translate(75,5)rotate(330)" d="M0 -3.333L2.5 4.33h-5z" fill="purple"></path><path transform="translate(85,5)rotate(0)" d="M0 -3.333L2.5 4.33h-5z" fill="purple"></path><path transform="translate(-85,15)rotate(210)" d="M0 -3.333L2.5 4.33h-5z" fill="blue"></path><path transform="translate(-75,15)rotate(90)" d="M0 -3.333L2.5 4.33h-5z" fill="purple"></path><path transform="translate(-65,15)rotate(120)" d="M0 -3.333L2.5 4.33h-5z" fill="orange"></path><path transform="translate(-55,15)rotate(210)" d="M0 -3.333L2.5 4.33h-5z" fill="orange"></path><path transform="translate(-45,15)rotate(330)" d="M0 -3.333L2.5 4.33h-5z" fill="purple"></path><path transform="translate(-35,15)rotate(120)" d="M0 -3.333L2.5 4.33h-5z" fill="orange"></path><path transform="translate(-25,15)rotate(210)" d="M0 -3.333L2.5 4.33h-5z" fill="green"></path><path transform="translate(-15,15)rotate(270)" d="M0 -3.333L2.5 4.33h-5z" fill="green"></path><path transform="translate(-5,15)rotate(0)" d="M0 -3.333L2.5 4.33h-5z" fill="red"></path><path transform="translate(5,15)rotate(60)" d="M0 -3.333L2.5 4.33h-5z" fill="blue"></path><path transform="translate(15,15)rotate(330)" d="M0 -3.333L2.5 4.33h-5z" fill="red"></path><path transform="translate(25,15)rotate(330)" d="M0 -3.333L2.5 4.33h-5z" fill="green"></path><path transform="translate(35,15)rotate(120)" d="M0 -3.333L2.5 4.33h-5z" fill="blue"></path><path transform="translate(45,15)rotate(30)" d="M0 -3.333L2.5 4.33h-5z" fill="blue"></path><path transform="translate(55,15)rotate(270)" d="M0 -3.333L2.5 4.33h-5z" fill="blue"></path><path transform="translate(65,15)rotate(330)" d="M0 -3.333L2.5 4.33h-5z" fill="red"></path><path transform="translate(75,15)rotate(0)" d="M0 -3.333L2.5 4.33h-5z" fill="red"></path><path transform="translate(85,15)rotate(240)" d="M0 -3.333L2.5 4.33h-5z" fill="red"></path><path transform="translate(-85,25)rotate(210)" d="M0 -3.333L2.5 4.33h-5z" fill="blue"></path><path transform="translate(-75,25)rotate(300)" d="M0 -3.333L2.5 4.33h-5z" fill="green"></path><path transform="translate(-65,25)rotate(270)" d="M0 -3.333L2.5 4.33h-5z" fill="orange"></path><path transform="translate(-55,25)rotate(60)" d="M0 -3.333L2.5 4.33h-5z" fill="orange"></path><path transform="translate(-45,25)rotate(240)" d="M0 -3.333L2.5 4.33h-5z" fill="red"></path><path transform="translate(-35,25)rotate(0)" d="M0 -3.333L2.5 4.33h-5z" fill="blue"></path><path transform="translate(-25,25)rotate(0)" d="M0 -3.333L2.5 4.33h-5z" fill="green"></path><path transform="translate(-15,25)rotate(300)" d="M0 -3.333L2.5 4.33h-5z" fill="orange"></path><path transform="translate(-5,25)rotate(90)" d="M0 -3.333L2.5 4.33h-5z" fill="red"></path><path transform="translate(5,25)rotate(60)" d="M0 -3.333L2.5 4.33h-5z" fill="orange"></path><path transform="translate(15,25)rotate(180)" d="M0 -3.333L2.5 4.33h-5z" fill="purple"></path><path transform="translate(25,25)rotate(150)" d="M0 -3.333L2.5 4.33h-5z" fill="orange"></path><path transform="translate(35,25)rotate(90)" d="M0 -3.333L2.5 4.33h-5z" fill="orange"></path><path transform="translate(45,25)rotate(270)" d="M0 -3.333L2.5 4.33h-5z" fill="blue"></path><path transform="translate(55,25)rotate(150)" d="M0 -3.333L2.5 4.33h-5z" fill="red"></path><path transform="translate(65,25)rotate(60)" d="M0 -3.333L2.5 4.33h-5z" fill="red"></path><path transform="translate(75,25)rotate(0)" d="M0 -3.333L2.5 4.33h-5z" fill="red"></path><path transform="translate(85,25)rotate(270)" d="M0 -3.333L2.5 4.33h-5z" fill="orange"></path><path transform="translate(-85,35)rotate(60)" d="M0 -3.333L2.5 4.33h-5z" fill="blue"></path><path transform="translate(-75,35)rotate(330)" d="M0 -3.333L2.5 4.33h-5z" fill="orange"></path><path transform="translate(-65,35)rotate(30)" d="M0 -3.333L2.5 4.33h-5z" fill="red"></path><path transform="translate(-55,35)rotate(150)" d="M0 -3.333L2.5 4.33h-5z" fill="orange"></path><path transform="translate(-45,35)rotate(210)" d="M0 -3.333L2.5 4.33h-5z" fill="purple"></path><path transform="translate(-35,35)rotate(90)" d="M0 -3.333L2.5 4.33h-5z" fill="purple"></path><path transform="translate(-25,35)rotate(90)" d="M0 -3.333L2.5 4.33h-5z" fill="green"></path><path transform="translate(-15,35)rotate(240)" d="M0 -3.333L2.5 4.33h-5z" fill="green"></path><path transform="translate(-5,35)rotate(330)" d="M0 -3.333L2.5 4.33h-5z" fill="red"></path><path transform="translate(5,35)rotate(90)" d="M0 -3.333L2.5 4.33h-5z" fill="orange"></path><path transform="translate(15,35)rotate(120)" d="M0 -3.333L2.5 4.33h-5z" fill="purple"></path><path transform="translate(25,35)rotate(0)" d="M0 -3.333L2.5 4.33h-5z" fill="purple"></path><path transform="translate(35,35)rotate(150)" d="M0 -3.333L2.5 4.33h-5z" fill="orange"></path><path transform="translate(45,35)rotate(240)" d="M0 -3.333L2.5 4.33h-5z" fill="purple"></path><path transform="translate(55,35)rotate(150)" d="M0 -3.333L2.5 4.33h-5z" fill="green"></path><path transform="translate(65,35)rotate(0)" d="M0 -3.333L2.5 4.33h-5z" fill="red"></path><path transform="translate(75,35)rotate(60)" d="M0 -3.333L2.5 4.33h-5z" fill="orange"></path><path transform="translate(85,35)rotate(240)" d="M0 -3.333L2.5 4.33h-5z" fill="green"></path><path transform="translate(-85,45)rotate(0)" d="M0 -3.333L2.5 4.33h-5z" fill="green"></path><path transform="translate(-75,45)rotate(240)" d="M0 -3.333L2.5 4.33h-5z" fill="red"></path><path transform="translate(-65,45)rotate(210)" d="M0 -3.333L2.5 4.33h-5z" fill="blue"></path><path transform="translate(-55,45)rotate(210)" d="M0 -3.333L2.5 4.33h-5z" fill="purple"></path><path transform="translate(-45,45)rotate(210)" d="M0 -3.333L2.5 4.33h-5z" fill="purple"></path><path transform="translate(-35,45)rotate(90)" d="M0 -3.333L2.5 4.33h-5z" fill="blue"></path><path transform="translate(-25,45)rotate(240)" d="M0 -3.333L2.5 4.33h-5z" fill="purple"></path><path transform="translate(-15,45)rotate(210)" d="M0 -3.333L2.5 4.33h-5z" fill="blue"></path><path transform="translate(-5,45)rotate(150)" d="M0 -3.333L2.5 4.33h-5z" fill="red"></path><path transform="translate(5,45)rotate(120)" d="M0 -3.333L2.5 4.33h-5z" fill="purple"></path><path transform="translate(15,45)rotate(0)" d="M0 -3.333L2.5 4.33h-5z" fill="orange"></path><path transform="translate(25,45)rotate(150)" d="M0 -3.333L2.5 4.33h-5z" fill="blue"></path><path transform="translate(35,45)rotate(90)" d="M0 -3.333L2.5 4.33h-5z" fill="red"></path><path transform="translate(45,45)rotate(210)" d="M0 -3.333L2.5 4.33h-5z" fill="purple"></path><path transform="translate(55,45)rotate(180)" d="M0 -3.333L2.5 4.33h-5z" fill="blue"></path><path transform="translate(65,45)rotate(330)" d="M0 -3.333L2.5 4.33h-5z" fill="red"></path><path transform="translate(75,45)rotate(180)" d="M0 -3.333L2.5 4.33h-5z" fill="purple"></path><path transform="translate(85,45)rotate(90)" d="M0 -3.333L2.5 4.33h-5z" fill="blue"></path><path transform="translate(-85,55)rotate(270)" d="M0 -3.333L2.5 4.33h-5z" fill="orange"></path><path transform="translate(-75,55)rotate(210)" d="M0 -3.333L2.5 4.33h-5z" fill="red"></path><path transform="translate(-65,55)rotate(30)" d="M0 -3.333L2.5 4.33h-5z" fill="blue"></path><path transform="translate(-55,55)rotate(30)" d="M0 -3.333L2.5 4.33h-5z" fill="green"></path><path transform="translate(-45,55)rotate(180)" d="M0 -3.333L2.5 4.33h-5z" fill="blue"></path><path transform="translate(-35,55)rotate(210)" d="M0 -3.333L2.5 4.33h-5z" fill="red"></path><path transform="translate(-25,55)rotate(60)" d="M0 -3.333L2.5 4.33h-5z" fill="red"></path><path transform="translate(-15,55)rotate(0)" d="M0 -3.333L2.5 4.33h-5z" fill="purple"></path><path transform="translate(-5,55)rotate(270)" d="M0 -3.333L2.5 4.33h-5z" fill="green"></path><path transform="translate(5,55)rotate(60)" d="M0 -3.333L2.5 4.33h-5z" fill="blue"></path><path transform="translate(15,55)rotate(30)" d="M0 -3.333L2.5 4.33h-5z" fill="blue"></path><path transform="translate(25,55)rotate(240)" d="M0 -3.333L2.5 4.33h-5z" fill="orange"></path><path transform="translate(35,55)rotate(300)" d="M0 -3.333L2.5 4.33h-5z" fill="green"></path><path transform="translate(45,55)rotate(0)" d="M0 -3.333L2.5 4.33h-5z" fill="red"></path><path transform="translate(55,55)rotate(270)" d="M0 -3.333L2.5 4.33h-5z" fill="green"></path><path transform="translate(65,55)rotate(120)" d="M0 -3.333L2.5 4.33h-5z" fill="red"></path><path transform="translate(75,55)rotate(150)" d="M0 -3.333L2.5 4.33h-5z" fill="green"></path><path transform="translate(85,55)rotate(0)" d="M0 -3.333L2.5 4.33h-5z" fill="red"></path><path transform="translate(-85,65)rotate(210)" d="M0 -3.333L2.5 4.33h-5z" fill="orange"></path><path transform="translate(-75,65)rotate(30)" d="M0 -3.333L2.5 4.33h-5z" fill="green"></path><path transform="translate(-65,65)rotate(270)" d="M0 -3.333L2.5 4.33h-5z" fill="orange"></path><path transform="translate(-55,65)rotate(0)" d="M0 -3.333L2.5 4.33h-5z" fill="red"></path><path transform="translate(-45,65)rotate(180)" d="M0 -3.333L2.5 4.33h-5z" fill="orange"></path><path transform="translate(-35,65)rotate(120)" d="M0 -3.333L2.5 4.33h-5z" fill="purple"></path><path transform="translate(-25,65)rotate(240)" d="M0 -3.333L2.5 4.33h-5z" fill="blue"></path><path transform="translate(-15,65)rotate(60)" d="M0 -3.333L2.5 4.33h-5z" fill="purple"></path><path transform="translate(-5,65)rotate(30)" d="M0 -3.333L2.5 4.33h-5z" fill="green"></path><path transform="translate(5,65)rotate(0)" d="M0 -3.333L2.5 4.33h-5z" fill="purple"></path><path transform="translate(15,65)rotate(330)" d="M0 -3.333L2.5 4.33h-5z" fill="purple"></path><path transform="translate(25,65)rotate(30)" d="M0 -3.333L2.5 4.33h-5z" fill="orange"></path><path transform="translate(35,65)rotate(300)" d="M0 -3.333L2.5 4.33h-5z" fill="green"></path><path transform="translate(45,65)rotate(0)" d="M0 -3.333L2.5 4.33h-5z" fill="red"></path><path transform="translate(55,65)rotate(90)" d="M0 -3.333L2.5 4.33h-5z" fill="green"></path><path transform="translate(65,65)rotate(90)" d="M0 -3.333L2.5 4.33h-5z" fill="green"></path><path transform="translate(75,65)rotate(30)" d="M0 -3.333L2.5 4.33h-5z" fill="blue"></path><path transform="translate(85,65)rotate(90)" d="M0 -3.333L2.5 4.33h-5z" fill="purple"></path><path transform="translate(-85,75)rotate(330)" d="M0 -3.333L2.5 4.33h-5z" fill="purple"></path><path transform="translate(-75,75)rotate(210)" d="M0 -3.333L2.5 4.33h-5z" fill="purple"></path><path transform="translate(-65,75)rotate(150)" d="M0 -3.333L2.5 4.33h-5z" fill="orange"></path><path transform="translate(-55,75)rotate(180)" d="M0 -3.333L2.5 4.33h-5z" fill="blue"></path><path transform="translate(-45,75)rotate(210)" d="M0 -3.333L2.5 4.33h-5z" fill="red"></path><path transform="translate(-35,75)rotate(180)" d="M0 -3.333L2.5 4.33h-5z" fill="purple"></path><path transform="translate(-25,75)rotate(0)" d="M0 -3.333L2.5 4.33h-5z" fill="purple"></path><path transform="translate(-15,75)rotate(270)" d="M0 -3.333L2.5 4.33h-5z" fill="blue"></path><path transform="translate(-5,75)rotate(0)" d="M0 -3.333L2.5 4.33h-5z" fill="red"></path><path transform="translate(5,75)rotate(180)" d="M0 -3.333L2.5 4.33h-5z" fill="blue"></path><path transform="translate(15,75)rotate(90)" d="M0 -3.333L2.5 4.33h-5z" fill="orange"></path><path transform="translate(25,75)rotate(240)" d="M0 -3.333L2.5 4.33h-5z" fill="red"></path><path transform="translate(35,75)rotate(300)" d="M0 -3.333L2.5 4.33h-5z" fill="orange"></path><path transform="translate(45,75)rotate(210)" d="M0 -3.333L2.5 4.33h-5z" fill="orange"></path><path transform="translate(55,75)rotate(180)" d="M0 -3.333L2.5 4.33h-5z" fill="purple"></path><path transform="translate(65,75)rotate(330)" d="M0 -3.333L2.5 4.33h-5z" fill="purple"></path><path transform="translate(75,75)rotate(330)" d="M0 -3.333L2.5 4.33h-5z" fill="orange"></path><path transform="translate(85,75)rotate(0)" d="M0 -3.333L2.5 4.33h-5z" fill="orange"></path><path transform="translate(-85,85)rotate(0)" d="M0 -3.333L2.5 4.33h-5z" fill="green"></path><path transform="translate(-75,85)rotate(150)" d="M0 -3.333L2.5 4.33h-5z" fill="purple"></path><path transform="translate(-65,85)rotate(30)" d="M0 -3.333L2.5 4.33h-5z" fill="blue"></path><path transform="translate(-55,85)rotate(60)" d="M0 -3.333L2.5 4.33h-5z" fill="green"></path><path transform="translate(-45,85)rotate(210)" d="M0 -3.333L2.5 4.33h-5z" fill="red"></path><path transform="translate(-35,85)rotate(0)" d="M0 -3.333L2.5 4.33h-5z" fill="orange"></path><path transform="translate(-25,85)rotate(240)" d="M0 -3.333L2.5 4.33h-5z" fill="orange"></path><path transform="translate(-15,85)rotate(0)" d="M0 -3.333L2.5 4.33h-5z" fill="blue"></path><path transform="translate(-5,85)rotate(90)" d="M0 -3.333L2.5 4.33h-5z" fill="green"></path><path transform="translate(5,85)rotate(240)" d="M0 -3.333L2.5 4.33h-5z" fill="blue"></path><path transform="translate(15,85)rotate(210)" d="M0 -3.333L2.5 4.33h-5z" fill="purple"></path><path transform="translate(25,85)rotate(60)" d="M0 -3.333L2.5 4.33h-5z" fill="purple"></path><path transform="translate(35,85)rotate(240)" d="M0 -3.333L2.5 4.33h-5z" fill="blue"></path><path transform="translate(45,85)rotate(270)" d="M0 -3.333L2.5 4.33h-5z" fill="red"></path><path transform="translate(55,85)rotate(300)" d="M0 -3.333L2.5 4.33h-5z" fill="red"></path><path transform="translate(65,85)rotate(300)" d="M0 -3.333L2.5 4.33h-5z" fill="green"></path><path transform="translate(75,85)rotate(300)" d="M0 -3.333L2.5 4.33h-5z" fill="blue"></path><path transform="translate(85,85)rotate(90)" d="M0 -3.333L2.5 4.33h-5z" fill="green"></path><path transform="translate(-85,95)rotate(0)" d="M0 -3.333L2.5 4.33h-5z" fill="blue"></path><path transform="translate(-75,95)rotate(120)" d="M0 -3.333L2.5 4.33h-5z" fill="red"></path><path transform="translate(-65,95)rotate(210)" d="M0 -3.333L2.5 4.33h-5z" fill="purple"></path><path transform="translate(-55,95)rotate(270)" d="M0 -3.333L2.5 4.33h-5z" fill="orange"></path><path transform="translate(-45,95)rotate(0)" d="M0 -3.333L2.5 4.33h-5z" fill="green"></path><path transform="translate(-35,95)rotate(270)" d="M0 -3.333L2.5 4.33h-5z" fill="blue"></path><path transform="translate(-25,95)rotate(120)" d="M0 -3.333L2.5 4.33h-5z" fill="green"></path><path transform="translate(-15,95)rotate(210)" d="M0 -3.333L2.5 4.33h-5z" fill="green"></path><path transform="translate(-5,95)rotate(180)" d="M0 -3.333L2.5 4.33h-5z" fill="green"></path><path transform="translate(5,95)rotate(90)" d="M0 -3.333L2.5 4.33h-5z" fill="blue"></path><path transform="translate(15,95)rotate(30)" d="M0 -3.333L2.5 4.33h-5z" fill="red"></path><path transform="translate(25,95)rotate(0)" d="M0 -3.333L2.5 4.33h-5z" fill="blue"></path><path transform="translate(35,95)rotate(210)" d="M0 -3.333L2.5 4.33h-5z" fill="blue"></path><path transform="translate(45,95)rotate(330)" d="M0 -3.333L2.5 4.33h-5z" fill="red"></path><path transform="translate(55,95)rotate(0)" d="M0 -3.333L2.5 4.33h-5z" fill="purple"></path><path transform="translate(65,95)rotate(0)" d="M0 -3.333L2.5 4.33h-5z" fill="blue"></path><path transform="translate(75,95)rotate(300)" d="M0 -3.333L2.5 4.33h-5z" fill="red"></path><path transform="translate(85,95)rotate(180)" d="M0 -3.333L2.5 4.33h-5z" fill="red"></path><path transform="translate(-85,105)rotate(180)" d="M0 -3.333L2.5 4.33h-5z" fill="orange"></path><path transform="translate(-75,105)rotate(330)" d="M0 -3.333L2.5 4.33h-5z" fill="red"></path><path transform="translate(-65,105)rotate(60)" d="M0 -3.333L2.5 4.33h-5z" fill="red"></path><path transform="translate(-55,105)rotate(240)" d="M0 -3.333L2.5 4.33h-5z" fill="purple"></path><path transform="translate(-45,105)rotate(330)" d="M0 -3.333L2.5 4.33h-5z" fill="purple"></path><path transform="translate(-35,105)rotate(0)" d="M0 -3.333L2.5 4.33h-5z" fill="blue"></path><path transform="translate(-25,105)rotate(0)" d="M0 -3.333L2.5 4.33h-5z" fill="red"></path><path transform="translate(-15,105)rotate(300)" d="M0 -3.333L2.5 4.33h-5z" fill="red"></path><path transform="translate(-5,105)rotate(150)" d="M0 -3.333L2.5 4.33h-5z" fill="red"></path><path transform="translate(5,105)rotate(90)" d="M0 -3.333L2.5 4.33h-5z" fill="purple"></path><path transform="translate(15,105)rotate(180)" d="M0 -3.333L2.5 4.33h-5z" fill="green"></path><path transform="translate(25,105)rotate(270)" d="M0 -3.333L2.5 4.33h-5z" fill="red"></path><path transform="translate(35,105)rotate(90)" d="M0 -3.333L2.5 4.33h-5z" fill="green"></path><path transform="translate(45,105)rotate(270)" d="M0 -3.333L2.5 4.33h-5z" fill="blue"></path><path transform="translate(55,105)rotate(330)" d="M0 -3.333L2.5 4.33h-5z" fill="blue"></path><path transform="translate(65,105)rotate(270)" d="M0 -3.333L2.5 4.33h-5z" fill="orange"></path><path transform="translate(75,105)rotate(240)" d="M0 -3.333L2.5 4.33h-5z" fill="purple"></path><path transform="translate(85,105)rotate(270)" d="M0 -3.333L2.5 4.33h-5z" fill="purple"></path><path transform="translate(-85,115)rotate(180)" d="M0 -3.333L2.5 4.33h-5z" fill="red"></path><path transform="translate(-75,115)rotate(330)" d="M0 -3.333L2.5 4.33h-5z" fill="green"></path><path transform="translate(-65,115)rotate(0)" d="M0 -3.333L2.5 4.33h-5z" fill="blue"></path><path transform="translate(-55,115)rotate(30)" d="M0 -3.333L2.5 4.33h-5z" fill="green"></path><path transform="translate(-45,115)rotate(30)" d="M0 -3.333L2.5 4.33h-5z" fill="green"></path><path transform="translate(-35,115)rotate(90)" d="M0 -3.333L2.5 4.33h-5z" fill="orange"></path><path transform="translate(-25,115)rotate(90)" d="M0 -3.333L2.5 4.33h-5z" fill="blue"></path><path transform="translate(-15,115)rotate(300)" d="M0 -3.333L2.5 4.33h-5z" fill="green"></path><path transform="translate(-5,115)rotate(330)" d="M0 -3.333L2.5 4.33h-5z" fill="red"></path><path transform="translate(5,115)rotate(180)" d="M0 -3.333L2.5 4.33h-5z" fill="purple"></path><path transform="translate(15,115)rotate(60)" d="M0 -3.333L2.5 4.33h-5z" fill="red"></path><path transform="translate(25,115)rotate(180)" d="M0 -3.333L2.5 4.33h-5z" fill="red"></path><path transform="translate(35,115)rotate(120)" d="M0 -3.333L2.5 4.33h-5z" fill="purple"></path><path transform="translate(45,115)rotate(240)" d="M0 -3.333L2.5 4.33h-5z" fill="purple"></path><path transform="translate(55,115)rotate(60)" d="M0 -3.333L2.5 4.33h-5z" fill="purple"></path><path transform="translate(65,115)rotate(120)" d="M0 -3.333L2.5 4.33h-5z" fill="green"></path><path transform="translate(75,115)rotate(30)" d="M0 -3.333L2.5 4.33h-5z" fill="green"></path><path transform="translate(85,115)rotate(0)" d="M0 -3.333L2.5 4.33h-5z" fill="red"></path><path transform="translate(-85,125)rotate(60)" d="M0 -3.333L2.5 4.33h-5z" fill="red"></path><path transform="translate(-75,125)rotate(330)" d="M0 -3.333L2.5 4.33h-5z" fill="purple"></path><path transform="translate(-65,125)rotate(300)" d="M0 -3.333L2.5 4.33h-5z" fill="green"></path><path transform="translate(-55,125)rotate(0)" d="M0 -3.333L2.5 4.33h-5z" fill="blue"></path><path transform="translate(-45,125)rotate(330)" d="M0 -3.333L2.5 4.33h-5z" fill="orange"></path><path transform="translate(-35,125)rotate(30)" d="M0 -3.333L2.5 4.33h-5z" fill="orange"></path><path transform="translate(-25,125)rotate(90)" d="M0 -3.333L2.5 4.33h-5z" fill="orange"></path><path transform="translate(-15,125)rotate(330)" d="M0 -3.333L2.5 4.33h-5z" fill="green"></path><path transform="translate(-5,125)rotate(240)" d="M0 -3.333L2.5 4.33h-5z" fill="blue"></path><path transform="translate(5,125)rotate(240)" d="M0 -3.333L2.5 4.33h-5z" fill="green"></path><path transform="translate(15,125)rotate(210)" d="M0 -3.333L2.5 4.33h-5z" fill="blue"></path><path transform="translate(25,125)rotate(180)" d="M0 -3.333L2.5 4.33h-5z" fill="red"></path><path transform="translate(35,125)rotate(240)" d="M0 -3.333L2.5 4.33h-5z" fill="green"></path><path transform="translate(45,125)rotate(150)" d="M0 -3.333L2.5 4.33h-5z" fill="green"></path><path transform="translate(55,125)rotate(0)" d="M0 -3.333L2.5 4.33h-5z" fill="purple"></path><path transform="translate(65,125)rotate(270)" d="M0 -3.333L2.5 4.33h-5z" fill="blue"></path><path transform="translate(75,125)rotate(270)" d="M0 -3.333L2.5 4.33h-5z" fill="orange"></path><path transform="translate(85,125)rotate(240)" d="M0 -3.333L2.5 4.33h-5z" fill="purple"></path><path transform="translate(-85,135)rotate(30)" d="M0 -3.333L2.5 4.33h-5z" fill="green"></path><path transform="translate(-75,135)rotate(330)" d="M0 -3.333L2.5 4.33h-5z" fill="green"></path><path transform="translate(-65,135)rotate(150)" d="M0 -3.333L2.5 4.33h-5z" fill="purple"></path><path transform="translate(-55,135)rotate(270)" d="M0 -3.333L2.5 4.33h-5z" fill="red"></path><path transform="translate(-45,135)rotate(270)" d="M0 -3.333L2.5 4.33h-5z" fill="blue"></path><path transform="translate(-35,135)rotate(120)" d="M0 -3.333L2.5 4.33h-5z" fill="blue"></path><path transform="translate(-25,135)rotate(0)" d="M0 -3.333L2.5 4.33h-5z" fill="green"></path><path transform="translate(-15,135)rotate(210)" d="M0 -3.333L2.5 4.33h-5z" fill="blue"></path><path transform="translate(-5,135)rotate(330)" d="M0 -3.333L2.5 4.33h-5z" fill="green"></path><path transform="translate(5,135)rotate(330)" d="M0 -3.333L2.5 4.33h-5z" fill="purple"></path><path transform="translate(15,135)rotate(30)" d="M0 -3.333L2.5 4.33h-5z" fill="green"></path><path transform="translate(25,135)rotate(60)" d="M0 -3.333L2.5 4.33h-5z" fill="blue"></path><path transform="translate(35,135)rotate(0)" d="M0 -3.333L2.5 4.33h-5z" fill="green"></path><path transform="translate(45,135)rotate(180)" d="M0 -3.333L2.5 4.33h-5z" fill="orange"></path><path transform="translate(55,135)rotate(300)" d="M0 -3.333L2.5 4.33h-5z" fill="orange"></path><path transform="translate(65,135)rotate(60)" d="M0 -3.333L2.5 4.33h-5z" fill="red"></path><path transform="translate(75,135)rotate(270)" d="M0 -3.333L2.5 4.33h-5z" fill="green"></path><path transform="translate(85,135)rotate(240)" d="M0 -3.333L2.5 4.33h-5z" fill="orange"></path><path transform="translate(-85,145)rotate(300)" d="M0 -3.333L2.5 4.33h-5z" fill="red"></path><path transform="translate(-75,145)rotate(60)" d="M0 -3.333L2.5 4.33h-5z" fill="orange"></path><path transform="translate(-65,145)rotate(180)" d="M0 -3.333L2.5 4.33h-5z" fill="orange"></path><path transform="translate(-55,145)rotate(120)" d="M0 -3.333L2.5 4.33h-5z" fill="red"></path><path transform="translate(-45,145)rotate(0)" d="M0 -3.333L2.5 4.33h-5z" fill="blue"></path><path transform="translate(-35,145)rotate(240)" d="M0 -3.333L2.5 4.33h-5z" fill="purple"></path><path transform="translate(-25,145)rotate(270)" d="M0 -3.333L2.5 4.33h-5z" fill="orange"></path><path transform="translate(-15,145)rotate(30)" d="M0 -3.333L2.5 4.33h-5z" fill="green"></path><path transform="translate(-5,145)rotate(210)" d="M0 -3.333L2.5 4.33h-5z" fill="purple"></path><path transform="translate(5,145)rotate(0)" d="M0 -3.333L2.5 4.33h-5z" fill="orange"></path><path transform="translate(15,145)rotate(330)" d="M0 -3.333L2.5 4.33h-5z" fill="blue"></path><path transform="translate(25,145)rotate(210)" d="M0 -3.333L2.5 4.33h-5z" fill="orange"></path><path transform="translate(35,145)rotate(270)" d="M0 -3.333L2.5 4.33h-5z" fill="purple"></path><path transform="translate(45,145)rotate(270)" d="M0 -3.333L2.5 4.33h-5z" fill="green"></path><path transform="translate(55,145)rotate(330)" d="M0 -3.333L2.5 4.33h-5z" fill="purple"></path><path transform="translate(65,145)rotate(240)" d="M0 -3.333L2.5 4.33h-5z" fill="orange"></path><path transform="translate(75,145)rotate(150)" d="M0 -3.333L2.5 4.33h-5z" fill="red"></path><path transform="translate(85,145)rotate(180)" d="M0 -3.333L2.5 4.33h-5z" fill="red"></path></svg>