<svg xmlns="http://www.w3.org/2000/svg" width="216" height="336" class="card" preserveAspectRatio="none" viewBox="-106 -164.5 212 329"><defs/><rect width="211" height="328" x="-105.5" y="-164" fill="white" stroke="black" rx="12" ry="12"/><path fill="purple" d="M-87-148l6 5-4 3z"/><path fill="orange" d="M-72-145l-7 3v-5z"/><path fill="red" d="M-62-147l-5 6-3-4z"/><path fill="purple" d="M-52-147l-5 6-3-4z"/><path fill="red" d="M-47-142l2-8 4 3z"/><path fill="green" d="M-33-142l-6-5 4-3z"/><path fill="purple" d="M-25-142l-3-7h6z"/><path fill="green" d="M-13-142l-6-5 4-3z"/><path fill="blue" d="M-3-148l-2 8-4-3z"/><path fill="green" d="M3-142l2-8 4 3z"/><path fill="purple" d="M12-145l7-3v6z"/><path fill="orange" d="M22-145l7-3v6z"/><path fill="green" d="M32-143l5-6 3 4z"/><path fill="orange" d="M48-147l-5 6-3-4z"/><path fill="red" d="M53-148l6 5-4 3z"/><path fill="blue" d="M67-142l-6-5 4-3z"/><path fill="red" d="M73-142l2-8 4 3z"/><path fill="purple" d="M82-143l5-6 3 4z"/><path fill="red" d="M-82-137l-5 6-3-4zM-75-138l3 7h-5zM-68-135l7-3v6z"/><path fill="green" d="M-58-133l5-6 3 4z"/><path fill="red" d="M-48-133l5-6 3 4z"/><path fill="orange" d="M-38-137l8 2-3 4z"/><path fill="green" d="M-23-138l-2 8-4-3z"/><path fill="red" d="M-15-138l3 7h-5zM-5-132l-3-7h5z"/><path fill="green" d="M8-137l-5 6-3-4z"/><path fill="orange" d="M18-137l-5 6-3-4z"/><path fill="red" d="M28-135l-7 3v-5z"/><path fill="purple" d="M33-132l2-8 4 3zM45-138l3 7h-5z"/><path fill="orange" d="M52-133l5-6 3 4z"/><path fill="blue" d="M68-135l-7 3v-5z"/><path fill="orange" d="M78-137l-5 6-3-4z"/><path fill="red" d="M85-138l3 7h-5z"/><path fill="purple" d="M-88-123l5-6 3 4z"/><path fill="green" d="M-77-122l2-8 4 3z"/><path fill="blue" d="M-68-127l8 2-3 4z"/><path fill="orange" d="M-55-122l-3-7h6z"/><path fill="red" d="M-42-125l-7 3v-5z"/><path fill="purple" d="M-32-127l-5 6-3-4z"/><path fill="blue" d="M-27-128l6 5-4 3z"/><path fill="green" d="M-13-122l-6-5 4-3zM-8-125l7-3v6z"/><path fill="blue" d="M8-123l-8-2 3-4z"/><path fill="red" d="M17-128l-2 8-4-3z"/><path fill="blue" d="M28-127l-5 6-3-4z"/><path fill="orange" d="M32-125l7-3v6zM48-123l-8-2 3-4zM58-123l-8-2 3-4z"/><path fill="green" d="M68-125l-7 3v-5z"/><path fill="blue" d="M72-125l7-3v6z"/><path fill="red" d="M82-125l7-3v6z"/><path fill="green" d="M-88-115l7-3v6z"/><path fill="blue" d="M-72-115l-7 3v-5z"/><path fill="purple" d="M-63-112l-6-5 4-3z"/><path fill="red" d="M-55-112l-3-7h6z"/><path fill="purple" d="M-48-117l8 2-3 4z"/><path fill="orange" d="M-37-118l6 5-4 3z"/><path fill="blue" d="M-22-113l-8-2 3-4z"/><path fill="orange" d="M-18-113l5-6 3 4zM-2-115l-7 3v-5z"/><path fill="purple" d="M5-112l-3-7h5z"/><path fill="red" d="M18-113l-8-2 3-4z"/><path fill="orange" d="M28-113l-8-2 3-4z"/><path fill="purple" d="M35-118l3 7h-5z"/><path fill="red" d="M48-117l-5 6-3-4z"/><path fill="blue" d="M58-117l-5 6-3-4z"/><path fill="red" d="M67-118l-2 8-4-3z"/><path fill="purple" d="M73-118l6 5-4 3zM82-113l5-6 3 4z"/><path fill="red" d="M-83-108l-2 8-4-3zM-73-108l-2 8-4-3z"/><path fill="orange" d="M-62-107l-5 6-3-4zM-55-108l3 7h-5z"/><path fill="blue" d="M-47-108l6 5-4 3zM-32-105l-7 3v-5z"/><path fill="red" d="M-27-108l6 5-4 3z"/><path fill="blue" d="M-12-105l-7 3v-5zM-2-103l-8-2 3-4z"/><path fill="purple" d="M7-102l-6-5 4-3z"/><path fill="green" d="M13-108l6 5-4 3z"/><path fill="blue" d="M25-102l-3-7h6z"/><path fill="red" d="M38-107l-5 6-3-4z"/><path fill="green" d="M47-102l-6-5 4-3z"/><path fill="purple" d="M58-105l-7 3v-5zM68-107l-5 6-3-4z"/><path fill="blue" d="M78-105l-7 3v-5z"/><path fill="orange" d="M85-108l3 7h-5zM-88-93l5-6 3 4z"/><path fill="purple" d="M-77-92l2-8 4 3zM-63-92l-6-5 4-3z"/><path fill="red" d="M-52-97l-5 6-3-4z"/><path fill="purple" d="M-42-93l-8-2 3-4zM-35-98l3 7h-5z"/><path fill="green" d="M-28-95l7-3v6z"/><path fill="blue" d="M-13-92l-6-5 4-3z"/><path fill="purple" d="M-8-93l5-6 3 4zM5-92l-3-7h5z"/><path fill="orange" d="M18-97l-5 6-3-4z"/><path fill="red" d="M28-93l-8-2 3-4zM38-93l-8-2 3-4z"/><path fill="orange" d="M47-92l-6-5 4-3z"/><path fill="blue" d="M58-97l-5 6-3-4z"/><path fill="green" d="M62-95l7-3v6z"/><path fill="orange" d="M75-92l-3-7h6z"/><path fill="green" d="M87-98l-2 8-4-3z"/><path fill="orange" d="M-82-85l-7 3v-5z"/><path fill="blue" d="M-78-83l5-6 3 4z"/><path fill="purple" d="M-62-87l-5 6-3-4zM-57-88l6 5-4 3zM-48-87l8 2-3 4z"/><path fill="green" d="M-32-83l-8-2 3-4z"/><path fill="red" d="M-27-88l6 5-4 3z"/><path fill="blue" d="M-18-85l7-3v6z"/><path fill="red" d="M-3-88l-2 8-4-3zM2-87l8 2-3 4z"/><path fill="blue" d="M15-88l3 7h-5zM28-83l-8-2 3-4z"/><path fill="red" d="M35-82l-3-7h6z"/><path fill="blue" d="M42-83l5-6 3 4z"/><path fill="purple" d="M55-82l-3-7h6z"/><path fill="green" d="M62-83l5-6 3 4z"/><path fill="orange" d="M75-82l-3-7h6z"/><path fill="blue" d="M85-88l3 7h-5z"/><path fill="orange" d="M-88-73l5-6 3 4z"/><path fill="red" d="M-72-75l-7 3v-5z"/><path fill="blue" d="M-68-73l5-6 3 4zM-58-75l7-3v6z"/><path fill="red" d="M-48-75l7-3v6z"/><path fill="orange" d="M-33-78l-2 8-4-3z"/><path fill="purple" d="M-22-73l-8-2 3-4z"/><path fill="blue" d="M-17-72l2-8 4 3zM-7-78l6 5-4 3z"/><path fill="purple" d="M8-75l-7 3v-5zM17-78l-2 8-4-3z"/><path fill="red" d="M28-77l-5 6-3-4z"/><path fill="blue" d="M38-77l-5 6-3-4z"/><path fill="red" d="M42-73l5-6 3 4z"/><path fill="orange" d="M52-77l8 2-3 4z"/><path fill="green" d="M65-78l3 7h-5zM75-78l3 7h-5z"/><path fill="blue" d="M82-75l7-3v6z"/><path fill="purple" d="M-87-62l2-8 4 3z"/><path fill="green" d="M-77-68l6 5-4 3zM-62-63l-8-2 3-4z"/><path fill="orange" d="M-52-65l-7 3v-5z"/><path fill="red" d="M-48-63l5-6 3 4z"/><path fill="green" d="M-35-62l-3-7h6z"/><path fill="blue" d="M-25-62l-3-7h6z"/><path fill="green" d="M-13-68l-2 8-4-3z"/><path fill="red" d="M-3-68l-2 8-4-3z"/><path fill="orange" d="M3-68l6 5-4 3zM12-65l7-3v6z"/><path fill="blue" d="M23-62l2-8 4 3z"/><path fill="green" d="M32-63l5-6 3 4z"/><path fill="purple" d="M47-62l-6-5 4-3z"/><path fill="red" d="M53-68l6 5-4 3z"/><path fill="purple" d="M65-68l3 7h-5z"/><path fill="orange" d="M75-68l3 7h-5zM82-67l8 2-3 4z"/><path fill="blue" d="M-88-53l5-6 3 4z"/><path fill="orange" d="M-75-52l-3-7h6z"/><path fill="green" d="M-62-53l-8-2 3-4z"/><path fill="red" d="M-58-53l5-6 3 4zM-43-58l-2 8-4-3z"/><path fill="orange" d="M-32-57l-5 6-3-4z"/><path fill="green" d="M-22-53l-8-2 3-4z"/><path fill="purple" d="M-12-57l-5 6-3-4z"/><path fill="red" d="M-2-57l-5 6-3-4zM5-58l3 7H3z"/><path fill="blue" d="M17-52l-6-5 4-3zM28-55l-7 3v-5z"/><path fill="red" d="M35-58l3 7h-5z"/><path fill="orange" d="M48-57l-5 6-3-4zM53-58l6 5-4 3z"/><path fill="blue" d="M62-55l7-3v6z"/><path fill="red" d="M75-52l-3-7h6z"/><path fill="green" d="M88-53l-8-2 3-4z"/><path fill="orange" d="M-87-48l6 5-4 3z"/><path fill="red" d="M-73-48l-2 8-4-3z"/><path fill="green" d="M-63-42l-6-5 4-3z"/><path fill="purple" d="M-58-43l5-6 3 4z"/><path fill="orange" d="M-43-48l-2 8-4-3zM-35-42l-3-7h6z"/><path fill="green" d="M-22-43l-8-2 3-4z"/><path fill="blue" d="M-18-47l8 2-3 4zM-8-43l5-6 3 4z"/><path fill="purple" d="M5-42l-3-7h5z"/><path fill="orange" d="M15-48l3 7h-5z"/><path fill="purple" d="M28-43l-8-2 3-4zM35-42l-3-7h6zM45-48l3 7h-5zM57-48l-2 8-4-3zM68-45l-7 3v-5zM77-48l-2 8-4-3z"/><path fill="orange" d="M85-42l-3-7h6z"/><path fill="blue" d="M-87-32l2-8 4 3z"/><path fill="orange" d="M-78-33l5-6 3 4z"/><path fill="blue" d="M-68-33l5-6 3 4z"/><path fill="green" d="M-55-38l3 7h-5z"/><path fill="red" d="M-43-32l-6-5 4-3z"/><path fill="purple" d="M-37-32l2-8 4 3z"/><path fill="green" d="M-22-35l-7 3v-5zM-13-32l-6-5 4-3z"/><path fill="red" d="M-5-32l-3-7h5z"/><path fill="blue" d="M2-33l5-6 3 4z"/><path fill="purple" d="M13-32l2-8 4 3z"/><path fill="orange" d="M22-35l7-3v6z"/><path fill="red" d="M38-33l-8-2 3-4z"/><path fill="blue" d="M48-37l-5 6-3-4z"/><path fill="orange" d="M55-38l3 7h-5z"/><path fill="green" d="M62-33l5-6 3 4z"/><path fill="purple" d="M78-37l-5 6-3-4z"/><path fill="green" d="M88-33l-8-2 3-4zM-82-27l-5 6-3-4z"/><path fill="purple" d="M-77-22l2-8 4 3z"/><path fill="green" d="M-67-28l6 5-4 3z"/><path fill="purple" d="M-55-28l3 7h-5z"/><path fill="blue" d="M-48-23l5-6 3 4z"/><path fill="purple" d="M-37-28l6 5-4 3z"/><path fill="blue" d="M-27-22l2-8 4 3z"/><path fill="orange" d="M-17-28l6 5-4 3z"/><path fill="green" d="M-7-22l2-8 4 3zM8-25l-7 3v-5z"/><path fill="orange" d="M15-28l3 7h-5zM27-28l-2 8-4-3zM37-22l-6-5 4-3z"/><path fill="red" d="M43-28l6 5-4 3zM52-25l7-3v6z"/><path fill="blue" d="M62-27l8 2-3 4z"/><path fill="orange" d="M77-22l-6-5 4-3z"/><path fill="purple" d="M83-28l6 5-4 3z"/><path fill="red" d="M-85-18l3 7h-5z"/><path fill="orange" d="M-77-18l6 5-4 3z"/><path fill="red" d="M-68-15l7-3v6zM-55-12l-3-7h6z"/><path fill="orange" d="M-48-15l7-3v6z"/><path fill="green" d="M-32-17l-5 6-3-4zM-23-12l-6-5 4-3zM-15-18l3 7h-5z"/><path fill="blue" d="M-2-15l-7 3v-5z"/><path fill="orange" d="M2-15l7-3v6z"/><path fill="red" d="M15-12l-3-7h6z"/><path fill="green" d="M22-13l5-6 3 4z"/><path fill="orange" d="M37-12l-6-5 4-3z"/><path fill="blue" d="M45-12l-3-7h6z"/><path fill="green" d="M58-13l-8-2 3-4z"/><path fill="purple" d="M68-17l-5 6-3-4zM72-15l7-3v6z"/><path fill="blue" d="M82-13l5-6 3 4zM-82-3l-8-2 3-4z"/><path fill="orange" d="M-75-2l-3-7h6z"/><path fill="green" d="M-62-3l-8-2 3-4z"/><path fill="orange" d="M-55-2l-3-7h6z"/><path fill="red" d="M-45-2l-3-7h6zM-37-8l6 5-4 3zM-22-5l-7 3v-5z"/><path fill="purple" d="M-17-8l6 5-4 3z"/><path fill="green" d="M-3-8l-2 8-4-3z"/><path fill="blue" d="M2-3l5-6 3 4z"/><path fill="red" d="M15-2l-3-7h6zM22-3l5-6 3 4z"/><path fill="orange" d="M35-8l3 7h-5zM48-7l-5 6-3-4zM52-5l7-3v6z"/><path fill="blue" d="M63-8l6 5-4 3z"/><path fill="purple" d="M72-3l5-6 3 4zM88-5l-7 3v-5z"/><path fill="blue" d="M-82 7l-8-2 3-4z"/><path fill="orange" d="M-72 7l-8-2 3-4z"/><path fill="green" d="M-62 3l-5 6-3-4z"/><path fill="red" d="M-55 2l3 7h-5z"/><path fill="green" d="M-47 8l2-8 4 3z"/><path fill="orange" d="M-32 5l-7 3V3z"/><path fill="purple" d="M-27 2l6 5-4 3zM-17 2l6 5-4 3zM-7 8l2-8 4 3z"/><path fill="green" d="M3 2l6 5-4 3z"/><path fill="purple" d="M18 5l-7 3V3zM27 2l-2 8-4-3z"/><path fill="orange" d="M38 5l-7 3V3zM42 5l7-3v6zM55 8l-3-7h6z"/><path fill="purple" d="M62 7l5-6 3 4zM73 2l6 5-4 3zM85 2l3 7h-5z"/><path fill="blue" d="M-87 18l2-8 4 3z"/><path fill="purple" d="M-72 15l-7 3v-5z"/><path fill="orange" d="M-62 17l-8-2 3-4zM-57 18l2-8 4 3z"/><path fill="purple" d="M-47 12l6 5-4 3z"/><path fill="orange" d="M-32 17l-8-2 3-4z"/><path fill="green" d="M-27 18l2-8 4 3zM-18 15l7-3v5z"/><path fill="red" d="M-5 12l3 7h-5z"/><path fill="blue" d="M8 13l-5 6-3-4z"/><path fill="red" d="M13 12l6 5-4 3z"/><path fill="green" d="M23 12l6 5-4 3z"/><path fill="blue" d="M38 17l-8-2 3-4zM47 12l-2 8-4-3zM52 15l7-3v5z"/><path fill="red" d="M63 12l6 5-4 3zM75 12l3 7h-5zM82 17l5-6 3 4z"/><path fill="blue" d="M-87 28l2-8 4 3z"/><path fill="green" d="M-78 23l8 2-3 4z"/><path fill="orange" d="M-68 25l7-3v6zM-52 23l-5 6-3-4z"/><path fill="red" d="M-48 27l5-6 3 4z"/><path fill="blue" d="M-35 22l3 7h-5z"/><path fill="green" d="M-25 22l3 7h-5z"/><path fill="orange" d="M-18 23l8 2-3 4z"/><path fill="red" d="M-2 25l-7 3v-5z"/><path fill="orange" d="M8 23l-5 6-3-4z"/><path fill="purple" d="M15 28l-3-7h6z"/><path fill="orange" d="M27 28l-6-5 4-3zM38 25l-7 3v-5z"/><path fill="blue" d="M42 25l7-3v6z"/><path fill="red" d="M57 28l-6-5 4-3zM68 23l-5 6-3-4zM75 22l3 7h-5z"/><path fill="orange" d="M82 25l7-3v6z"/><path fill="blue" d="M-82 33l-5 6-3-4z"/><path fill="orange" d="M-77 32l6 5-4 3z"/><path fill="red" d="M-63 32l-2 8-4-3z"/><path fill="orange" d="M-53 38l-6-5 4-3z"/><path fill="purple" d="M-47 38l2-8 4 3zM-32 35l-7 3v-5z"/><path fill="green" d="M-22 35l-7 3v-5zM-18 37l5-6 3 4z"/><path fill="red" d="M-7 32l6 5-4 3z"/><path fill="orange" d="M8 35l-7 3v-5z"/><path fill="purple" d="M18 37l-8-2 3-4zM25 32l3 7h-5z"/><path fill="orange" d="M37 38l-6-5 4-3z"/><path fill="purple" d="M42 37l5-6 3 4z"/><path fill="green" d="M57 38l-6-5 4-3z"/><path fill="red" d="M65 32l3 7h-5z"/><path fill="orange" d="M78 33l-5 6-3-4z"/><path fill="green" d="M82 37l5-6 3 4zM-85 42l3 7h-5z"/><path fill="red" d="M-78 47l5-6 3 4z"/><path fill="blue" d="M-67 48l2-8 4 3z"/><path fill="purple" d="M-57 48l2-8 4 3zM-47 48l2-8 4 3z"/><path fill="blue" d="M-32 45l-7 3v-5z"/><path fill="purple" d="M-28 47l5-6 3 4z"/><path fill="blue" d="M-17 48l2-8 4 3z"/><path fill="red" d="M-3 48l-6-5 4-3z"/><path fill="purple" d="M8 47l-8-2 3-4z"/><path fill="orange" d="M15 42l3 7h-5z"/><path fill="blue" d="M27 48l-6-5 4-3z"/><path fill="red" d="M38 45l-7 3v-5z"/><path fill="purple" d="M43 48l2-8 4 3z"/><path fill="blue" d="M55 48l-3-7h6z"/><path fill="red" d="M63 42l6 5-4 3z"/><path fill="purple" d="M75 48l-3-7h6z"/><path fill="blue" d="M88 45l-7 3v-5z"/><path fill="orange" d="M-88 55l7-3v6z"/><path fill="red" d="M-77 58l2-8 4 3z"/><path fill="blue" d="M-63 52l-2 8-4-3z"/><path fill="green" d="M-53 52l-2 8-4-3z"/><path fill="blue" d="M-45 58l-3-7h6z"/><path fill="red" d="M-37 58l2-8 4 3zM-22 53l-5 6-3-4z"/><path fill="purple" d="M-15 52l3 7h-5z"/><path fill="green" d="M-8 55l7-3v6z"/><path fill="blue" d="M8 53l-5 6-3-4zM17 52l-2 8-4-3z"/><path fill="orange" d="M22 57l5-6 3 4z"/><path fill="green" d="M32 53l8 2-3 4z"/><path fill="red" d="M45 52l3 7h-5z"/><path fill="green" d="M52 55l7-3v6z"/><path fill="red" d="M68 57l-8-2 3-4z"/><path fill="green" d="M77 58l-6-5 4-3z"/><path fill="red" d="M85 52l3 7h-5z"/><path fill="orange" d="M-87 68l2-8 4 3z"/><path fill="green" d="M-73 62l-2 8-4-3z"/><path fill="orange" d="M-68 65l7-3v6z"/><path fill="red" d="M-55 62l3 7h-5z"/><path fill="orange" d="M-45 68l-3-7h6z"/><path fill="purple" d="M-32 67l-8-2 3-4z"/><path fill="blue" d="M-28 67l5-6 3 4z"/><path fill="purple" d="M-12 63l-5 6-3-4z"/><path fill="green" d="M-3 62l-2 8-4-3z"/><path fill="purple" d="M5 62l3 7H3zM13 62l6 5-4 3z"/><path fill="orange" d="M27 62l-2 8-4-3z"/><path fill="green" d="M32 63l8 2-3 4z"/><path fill="red" d="M45 62l3 7h-5z"/><path fill="green" d="M58 65l-7 3v-5zM68 65l-7 3v-5z"/><path fill="blue" d="M77 62l-2 8-4-3z"/><path fill="purple" d="M88 65l-7 3v-5zM-87 72l6 5-4 3zM-77 78l2-8 4 3z"/><path fill="orange" d="M-63 78l-6-5 4-3z"/><path fill="blue" d="M-55 78l-3-7h6z"/><path fill="red" d="M-47 78l2-8 4 3z"/><path fill="purple" d="M-35 78l-3-7h6zM-25 72l3 7h-5z"/><path fill="blue" d="M-18 75l7-3v6z"/><path fill="red" d="M-5 72l3 7h-5z"/><path fill="blue" d="M5 78l-3-7h5z"/><path fill="orange" d="M18 75l-7 3v-5z"/><path fill="red" d="M22 77l5-6 3 4z"/><path fill="orange" d="M32 73l8 2-3 4zM43 78l2-8 4 3z"/><path fill="purple" d="M55 78l-3-7h6zM63 72l6 5-4 3z"/><path fill="orange" d="M73 72l6 5-4 3zM85 72l3 7h-5z"/><path fill="green" d="M-85 82l3 7h-5z"/><path fill="purple" d="M-73 88l-6-5 4-3z"/><path fill="blue" d="M-63 82l-2 8-4-3z"/><path fill="green" d="M-52 83l-5 6-3-4z"/><path fill="red" d="M-47 88l2-8 4 3z"/><path fill="orange" d="M-35 82l3 7h-5zM-28 87l5-6 3 4z"/><path fill="blue" d="M-15 82l3 7h-5z"/><path fill="green" d="M-2 85l-7 3v-5z"/><path fill="blue" d="M2 87l5-6 3 4z"/><path fill="purple" d="M13 88l2-8 4 3zM28 83l-5 6-3-4z"/><path fill="blue" d="M32 87l5-6 3 4z"/><path fill="red" d="M42 85l7-3v6zM52 83l8 2-3 4z"/><path fill="green" d="M62 83l8 2-3 4z"/><path fill="blue" d="M72 83l8 2-3 4z"/><path fill="green" d="M88 85l-7 3v-5z"/><path fill="blue" d="M-85 92l3 7h-5z"/><path fill="red" d="M-72 97l-8-2 3-4z"/><path fill="purple" d="M-67 98l2-8 4 3z"/><path fill="orange" d="M-58 95l7-3v6z"/><path fill="green" d="M-45 92l3 7h-5z"/><path fill="blue" d="M-38 95l7-3v6z"/><path fill="green" d="M-22 97l-8-2 3-4zM-17 98l2-8 4 3zM-5 98l-3-7h5z"/><path fill="blue" d="M8 95l-7 3v-5z"/><path fill="red" d="M17 92l-2 8-4-3z"/><path fill="blue" d="M25 92l3 7h-5zM33 98l2-8 4 3z"/><path fill="red" d="M43 92l6 5-4 3z"/><path fill="purple" d="M55 92l3 7h-5z"/><path fill="blue" d="M65 92l3 7h-5z"/><path fill="red" d="M72 93l8 2-3 4zM85 98l-3-7h6z"/><path fill="orange" d="M-85 108l-3-7h6z"/><path fill="red" d="M-77 102l6 5-4 3zM-62 103l-5 6-3-4z"/><path fill="purple" d="M-58 107l5-6 3 4zM-47 102l6 5-4 3z"/><path fill="blue" d="M-35 102l3 7h-5z"/><path fill="red" d="M-25 102l3 7h-5zM-18 103l8 2-3 4zM-3 108l-6-5 4-3z"/><path fill="purple" d="M8 105l-7 3v-5z"/><path fill="green" d="M15 108l-3-7h6z"/><path fill="red" d="M22 105l7-3v6z"/><path fill="green" d="M38 105l-7 3v-5z"/><path fill="blue" d="M42 105l7-3v6zM53 102l6 5-4 3z"/><path fill="orange" d="M62 105l7-3v6z"/><path fill="purple" d="M72 107l5-6 3 4zM82 105l7-3v6z"/><path fill="red" d="M-85 118l-3-7h6z"/><path fill="green" d="M-77 112l6 5-4 3z"/><path fill="blue" d="M-65 112l3 7h-5z"/><path fill="green" d="M-53 112l-2 8-4-3zM-43 112l-2 8-4-3z"/><path fill="orange" d="M-32 115l-7 3v-5z"/><path fill="blue" d="M-22 115l-7 3v-5z"/><path fill="green" d="M-18 113l8 2-3 4z"/><path fill="red" d="M-7 112l6 5-4 3z"/><path fill="purple" d="M5 118l-3-7h5z"/><path fill="red" d="M18 113l-5 6-3-4zM25 118l-3-7h6z"/><path fill="purple" d="M38 117l-8-2 3-4zM42 117l5-6 3 4zM58 113l-5 6-3-4z"/><path fill="green" d="M68 117l-8-2 3-4zM77 112l-2 8-4-3z"/><path fill="red" d="M85 112l3 7h-5zM-82 123l-5 6-3-4z"/><path fill="purple" d="M-77 122l6 5-4 3z"/><path fill="green" d="M-68 123l8 2-3 4z"/><path fill="blue" d="M-55 122l3 7h-5z"/><path fill="orange" d="M-47 122l6 5-4 3zM-33 122l-2 8-4-3zM-22 125l-7 3v-5z"/><path fill="green" d="M-17 122l6 5-4 3z"/><path fill="blue" d="M-8 127l5-6 3 4z"/><path fill="green" d="M2 127l5-6 3 4z"/><path fill="blue" d="M13 128l2-8 4 3z"/><path fill="red" d="M25 128l-3-7h6z"/><path fill="green" d="M32 127l5-6 3 4zM47 128l-6-5 4-3z"/><path fill="purple" d="M55 122l3 7h-5z"/><path fill="blue" d="M62 125l7-3v6z"/><path fill="orange" d="M72 125l7-3v6z"/><path fill="purple" d="M82 127l5-6 3 4z"/><path fill="green" d="M-83 132l-2 8-4-3zM-77 132l6 5-4 3z"/><path fill="purple" d="M-63 138l-6-5 4-3z"/><path fill="red" d="M-58 135l7-3v6z"/><path fill="blue" d="M-48 135l7-3v6zM-32 137l-8-2 3-4z"/><path fill="green" d="M-25 132l3 7h-5z"/><path fill="blue" d="M-17 138l2-8 4 3z"/><path fill="green" d="M-7 132l6 5-4 3z"/><path fill="purple" d="M3 132l6 5-4 3z"/><path fill="green" d="M17 132l-2 8-4-3z"/><path fill="blue" d="M28 133l-5 6-3-4z"/><path fill="green" d="M35 132l3 7h-5z"/><path fill="orange" d="M45 138l-3-7h6zM52 133l8 2-3 4z"/><path fill="red" d="M68 133l-5 6-3-4z"/><path fill="green" d="M72 135l7-3v6z"/><path fill="orange" d="M82 137l5-6 3 4z"/><path fill="red" d="M-88 143l8 2-3 4z"/><path fill="orange" d="M-72 143l-5 6-3-4zM-65 148l-3-7h6z"/><path fill="red" d="M-52 147l-8-2 3-4z"/><path fill="blue" d="M-45 142l3 7h-5z"/><path fill="purple" d="M-38 147l5-6 3 4z"/><path fill="orange" d="M-28 145l7-3v6z"/><path fill="green" d="M-13 142l-2 8-4-3z"/><path fill="purple" d="M-7 148l2-8 4 3z"/><path fill="orange" d="M5 142l3 7H3z"/><path fill="blue" d="M13 142l6 5-4 3z"/><path fill="orange" d="M23 148l2-8 4 3z"/><path fill="purple" d="M32 145l7-3v6z"/><path fill="green" d="M42 145l7-3v6z"/><path fill="purple" d="M53 142l6 5-4 3z"/><path fill="orange" d="M62 147l5-6 3 4z"/><path fill="red" d="M77 148l-6-5 4-3zM85 148l-3-7h6z"/></svg>
