<?xml version="1.0" encoding="UTF-8" standalone="no"?>
<svg xmlns="http://www.w3.org/2000/svg" xmlns:xlink="http://www.w3.org/1999/xlink" class="card" face="2D" height="3.5in" preserveAspectRatio="none" viewBox="-106 -164.5 212 329" width="2.25in"><symbol id="SD2" viewBox="-600 -600 1200 1200" preserveAspectRatio="xMinYMid"><path d="M-400 0C-350 0 0 -450 0 -500C0 -450 350 0 400 0C350 0 0 450 0 500C0 450 -350 0 -400 0Z" fill="red"></path></symbol><symbol id="VD2" viewBox="-500 -500 1000 1000" preserveAspectRatio="xMinYMid"><path d="M-225 -225C-245 -265 -200 -460 0 -460C 200 -460 225 -325 225 -225C225 -25 -225 160 -225 460L225 460L225 300" stroke="red" stroke-width="80" stroke-linecap="square" stroke-miterlimit="1.5" fill="none"></path></symbol><rect width="211" height="328" x="-105.5" y="-164" rx="12" ry="12" fill="white" stroke="black"></rect><use xlink:href="#VD2" height="50" x="-104" y="-152.5"></use><use xlink:href="#SD2" height="41.827" x="-99.913" y="-97.5"></use><use xlink:href="#SD2" height="40" x="-20" y="-117.501"></use><use xlink:href="#SD2" height="40" x="-20" y="77.501"></use><g transform="rotate(180)"><use xlink:href="#VD2" height="50" x="-104" y="-152.5"></use><use xlink:href="#SD2" height="41.827" x="-99.913" y="-97.5"></use></g></svg>