<svg width="57.145mm" height="88.899mm" version="1.1" viewBox="0 0 57.145 88.899" xmlns="http://www.w3.org/2000/svg"><g transform="translate(-15.798 -11.113)"><path d="m72.855 97.411c0 1.3817-1.0548 2.5146-2.3483 2.5146h-52.244c-1.2903 0-2.3451-1.1329-2.3451-2.5146v-83.623c0-1.3837 1.0548-2.515 2.3451-2.515h52.244c1.2935 0 2.3483 1.1313 2.3483 2.515z" fill="#fff" stroke="#000" stroke-width=".17397"/><path d="m18.412 11.797c-1.0984 0-1.9829 0.9211-1.9829 2.0658v83.436c0 1.1444 0.88456 2.0653 1.9829 2.0653h51.98c1.0988 0 1.9828-0.92091 1.9828-2.0653v-83.436c0-1.1447-0.88387-2.0658-1.9828-2.0658z" fill="#fff" fill-rule="evenodd" stroke-linecap="round" stroke-linejoin="round" stroke-width=".46608"/><path d="m18.412 11.797c-1.0984 0-1.9829 0.9211-1.9829 2.0658v83.436c0 1.1444 0.88456 2.0653 1.9829 2.0653h51.98c1.0988 0 1.9828-0.92091 1.9828-2.0653v-83.436c0-1.1447-0.88387-2.0658-1.9828-2.0658z" fill="none" stroke="#17067a" stroke-miterlimit="10" stroke-width="1.0087"/><path d="m18.973 13.823c-0.27672 0-0.49916 0.23202-0.49916 0.51997v82.477c0 0.28778 0.22248 0.51981 0.49916 0.51981h50.732c0.27672 0 0.49969-0.23202 0.49969-0.51981v-82.477c0-0.28796-0.22298-0.51997-0.49969-0.51997z" fill="#fff" fill-rule="evenodd" stroke-linecap="round" stroke-linejoin="round" stroke-width=".46608"/><path d="m18.973 13.823c-0.27672 0-0.49916 0.23202-0.49916 0.51997v82.477c0 0.28778 0.22248 0.51981 0.49916 0.51981h50.732c0.27672 0 0.49969-0.23202 0.49969-0.51981v-82.477c0-0.28796-0.22298-0.51997-0.49969-0.51997z" fill="none" stroke="#17067a" stroke-miterlimit="10" stroke-width=".94723"/><path d="m29.011 24.699c-0.13335 0-0.24066 0.11154-0.24066 0.25079v61.526c0 0.13943 0.10731 0.25097 0.24066 0.25097h30.148c0.13385 0 0.24067-0.11154 0.24067-0.25097v-61.526c0-0.13924-0.10682-0.25079-0.24067-0.25079z" fill="#313390" fill-rule="evenodd" stroke-linecap="round" stroke-linejoin="round" stroke-width=".46608"/><path d="m29.011 24.699c-0.13335 0-0.24066 0.11154-0.24066 0.25079v61.526c0 0.13943 0.10731 0.25097 0.24066 0.25097h30.148c0.13385 0 0.24067-0.11154 0.24067-0.25097v-61.526c0-0.13924-0.10682-0.25079-0.24067-0.25079z" fill="none" stroke="#17067a" stroke-miterlimit="10" stroke-width=".58098"/><g stroke-linejoin="round"><path d="m33.784 26.881c-1.579 0-2.8506 1.3247-2.8506 2.9697v51.46c0 1.6452 1.2716 2.9697 2.8506 2.9697h20.477c1.5792 0 2.8506-1.3245 2.8506-2.9697v-51.46c0-1.6451-1.2714-2.9697-2.8506-2.9697z" fill="#fff" fill-rule="evenodd" stroke-linecap="round" stroke-width=".46608"/><path d="m33.784 26.881c-1.579 0-2.8506 1.3247-2.8506 2.9697v51.46c0 1.6452 1.2716 2.9697 2.8506 2.9697h20.477c1.5792 0 2.8506-1.3245 2.8506-2.9697v-51.46c0-1.6451-1.2714-2.9697-2.8506-2.9697z" fill="none" stroke="#17067a" stroke-miterlimit="10" stroke-width=".73058"/><path d="m34.1 29.247c-0.53106 0-0.95885 0.44564-0.95885 0.99903v50.673c0 0.55378 0.42776 0.99922 0.95885 0.99922h19.716c0.53175 0 0.96-0.44545 0.96-0.99922v-50.673c0-0.55341-0.42825-0.99903-0.96-0.99903z" fill="#313390" fill-rule="evenodd" stroke-linecap="round" stroke-width=".46608"/><path d="m34.1 29.247c-0.53106 0-0.95885 0.44564-0.95885 0.99903v50.673c0 0.55378 0.42776 0.99922 0.95885 0.99922h19.716c0.53175 0 0.96-0.44545 0.96-0.99922v-50.673c0-0.55341-0.42825-0.99903-0.96-0.99903z" fill="none" stroke="#17067a" stroke-miterlimit="10" stroke-width=".63619"/><path d="m19.016 14.419h2.2773l-2.2555 2.3439-0.02186-2.3439v0z" fill="#17067a" fill-rule="evenodd" stroke-linecap="round" stroke-width=".46608"/></g><path d="m19.016 14.419h2.2773l-2.2555 2.3439-0.02186-2.3439z" fill="none" stroke="#17067a" stroke-miterlimit="10" stroke-width=".30566"/><path d="m69.627 14.449h-2.2771l2.2551 2.3439z" fill="#17067a" fill-rule="evenodd" stroke-linecap="round" stroke-linejoin="round" stroke-width=".46608"/><path d="m69.627 14.449h-2.2771l2.2551 2.3439z" fill="none" stroke="#17067a" stroke-miterlimit="10" stroke-width=".30566"/><path d="m69.666 96.818h-2.2775l2.2558-2.3434z" fill="#17067a" fill-rule="evenodd" stroke-linecap="round" stroke-linejoin="round" stroke-width=".46608"/><path d="m69.666 96.818h-2.2775l2.2558-2.3434z" fill="none" stroke="#17067a" stroke-miterlimit="10" stroke-width=".30566"/><path d="m19.014 96.804h2.2773l-2.2551-2.3437-0.0222 2.3437z" fill="#17067a" fill-rule="evenodd" stroke-linecap="round" stroke-linejoin="round" stroke-width=".46608"/><path d="m19.014 96.804h2.2773l-2.2551-2.3437-0.0222 2.3437z" fill="none" stroke="#17067a" stroke-miterlimit="10" stroke-width=".30566"/><g stroke-linecap="round" stroke-linejoin="round"><path d="m19.888 58.935v2.2455l7.6661-4.1988v-2.3007l-7.6661 4.2541z" fill="#313390" fill-rule="evenodd" stroke-width=".46608"/><path d="m19.888 58.935v2.2455l7.6661-4.1988v-2.3007l-7.6661 4.2541z" fill="none" stroke="#17067a" stroke-miterlimit="10" stroke-width=".46605"/><path d="m19.927 63.178v2.2455l7.6661-4.1998v-2.3001l-7.6661 4.2541z" fill="#313390" fill-rule="evenodd" stroke-width=".46608"/><path d="m19.927 63.178v2.2455l7.6661-4.1998v-2.3001l-7.6661 4.2541z" fill="none" stroke="#17067a" stroke-miterlimit="10" stroke-width=".46605"/><path d="m19.85 61.192v-2.2455l7.6658 4.1995v2.3005l-7.6658-4.2541z" fill="#fff" fill-rule="evenodd" stroke-width=".46608"/><path d="m19.85 61.192v-2.2455l7.6658 4.1995v2.3005l-7.6658-4.2541z" fill="none" stroke="#17067a" stroke-miterlimit="10" stroke-width=".46605"/><path d="m19.944 54.629v2.2455l7.6661-4.1998v-2.3l-7.6661 4.2541z" fill="#313390" fill-rule="evenodd" stroke-width=".46608"/><path d="m19.944 54.629v2.2455l7.6661-4.1998v-2.3l-7.6661 4.2541z" fill="none" stroke="#17067a" stroke-miterlimit="10" stroke-width=".46605"/><path d="m19.907 56.968v-2.2451l7.6664 4.1995v2.3005l-7.6664-4.2545z" fill="#fff" fill-rule="evenodd" stroke-width=".46608"/><path d="m19.907 56.968v-2.2451l7.6664 4.1995v2.3005l-7.6664-4.2545z" fill="none" stroke="#17067a" stroke-miterlimit="10" stroke-width=".46605"/><path d="m19.905 50.382v2.2455l7.6661-4.1988v-2.3007l-7.6661 4.2541z" fill="#313390" fill-rule="evenodd" stroke-width=".46608"/><path d="m19.905 50.382v2.2455l7.6661-4.1988v-2.3007l-7.6661 4.2541z" fill="none" stroke="#17067a" stroke-miterlimit="10" stroke-width=".46605"/><path d="m19.867 52.642v-2.2453l7.6661 4.1998v2.2998l-7.6661-4.2541z" fill="#fff" fill-rule="evenodd" stroke-width=".46608"/><path d="m19.867 52.642v-2.2453l7.6661 4.1998v2.2998l-7.6661-4.2541z" fill="none" stroke="#17067a" stroke-miterlimit="10" stroke-width=".46605"/><path d="m19.924 48.415v-2.2453l7.6661 4.1998v2.3l-7.6661-4.2541z" fill="#fff" fill-rule="evenodd" stroke-width=".46608"/><path d="m19.924 48.415v-2.2453l7.6661 4.1998v2.3l-7.6661-4.2541z" fill="none" stroke="#17067a" stroke-miterlimit="10" stroke-width=".46605"/><path d="m19.937 67.468v2.2451l7.6661-4.1988v-2.3005l-7.6661 4.2541z" fill="#313390" fill-rule="evenodd" stroke-width=".46608"/><path d="m19.937 67.468v2.2451l7.6661-4.1988v-2.3005l-7.6661 4.2541z" fill="none" stroke="#17067a" stroke-miterlimit="10" stroke-width=".46605"/><path d="m19.86 65.475v-2.2451l7.6661 4.1995v2.3009l-7.6661-4.2548z" fill="#fff" fill-rule="evenodd" stroke-width=".46608"/><path d="m19.86 65.475v-2.2451l7.6661 4.1995v2.3009l-7.6661-4.2548z" fill="none" stroke="#17067a" stroke-miterlimit="10" stroke-width=".46605"/><path d="m19.859 37.538v2.2453l7.6661-4.1995v-2.3001l-7.6661 4.2541z" fill="#313390" fill-rule="evenodd" stroke-width=".46608"/><path d="m19.859 37.538v2.2453l7.6661-4.1995v-2.3001l-7.6661 4.2541z" fill="none" stroke="#17067a" stroke-miterlimit="10" stroke-width=".46605"/><path d="m19.898 41.783v2.246l7.6664-4.1998v-2.3007l-7.6664 4.2541z" fill="#313390" fill-rule="evenodd" stroke-width=".46608"/><path d="m19.898 41.783v2.246l7.6664-4.1998v-2.3007l-7.6664 4.2541z" fill="none" stroke="#17067a" stroke-miterlimit="10" stroke-width=".46605"/><path d="m19.821 39.794v-2.2455l7.6664 4.1988v2.3007l-7.6664-4.2541z" fill="#fff" fill-rule="evenodd" stroke-width=".46608"/><path d="m19.821 39.794v-2.2455l7.6664 4.1988v2.3007l-7.6664-4.2541z" fill="none" stroke="#17067a" stroke-miterlimit="10" stroke-width=".46605"/><path d="m19.916 33.232v2.246l7.6661-4.1998v-2.3005l-7.6661 4.2541z" fill="#313390" fill-rule="evenodd" stroke-width=".46608"/><path d="m19.916 33.232v2.246l7.6661-4.1998v-2.3005l-7.6661 4.2541z" fill="none" stroke="#17067a" stroke-miterlimit="10" stroke-width=".46605"/><path d="m19.879 35.571v-2.2453l7.6664 4.1988v2.3005l-7.6664-4.2541z" fill="#fff" fill-rule="evenodd" stroke-width=".46608"/><path d="m19.879 35.571v-2.2453l7.6664 4.1988v2.3005l-7.6664-4.2541z" fill="none" stroke="#17067a" stroke-miterlimit="10" stroke-width=".46605"/><path d="m19.877 28.986v2.2453l7.6658-4.1995v-2.3001l-7.6658 4.2541z" fill="#313390" fill-rule="evenodd" stroke-width=".46608"/><path d="m19.877 28.986v2.2453l7.6658-4.1995v-2.3001l-7.6658 4.2541z" fill="none" stroke="#17067a" stroke-miterlimit="10" stroke-width=".46605"/><path d="m19.839 31.243v-2.2453l7.6661 4.1988v2.3007l-7.6661-4.2541z" fill="#fff" fill-rule="evenodd" stroke-width=".46608"/><path d="m19.839 31.243v-2.2453l7.6661 4.1988v2.3007l-7.6661-4.2541z" fill="none" stroke="#17067a" stroke-miterlimit="10" stroke-width=".46605"/><path d="m19.896 27.02v-2.2451l7.6664 4.1988v2.3005l-7.6664-4.2541z" fill="#fff" fill-rule="evenodd" stroke-width=".46608"/><path d="m19.896 27.02v-2.2451l7.6664 4.1988v2.3005l-7.6664-4.2541z" fill="none" stroke="#17067a" stroke-miterlimit="10" stroke-width=".46605"/><path d="m19.909 46.069v2.2453l7.6661-4.1995v-2.3001l-7.6661 4.2541z" fill="#313390" fill-rule="evenodd" stroke-width=".46608"/><path d="m19.909 46.069v2.2453l7.6661-4.1995v-2.3001l-7.6661 4.2541z" fill="none" stroke="#17067a" stroke-miterlimit="10" stroke-width=".46605"/><path d="m19.832 44.079v-2.2455l7.6661 4.1998v2.3001l-7.6661-4.2541z" fill="#fff" fill-rule="evenodd" stroke-width=".46608"/><path d="m19.832 44.079v-2.2455l7.6661 4.1998v2.3001l-7.6661-4.2541z" fill="none" stroke="#17067a" stroke-miterlimit="10" stroke-width=".46605"/><path d="m19.888 80.271v2.2458l7.6661-4.2001v-2.3009l-7.6661 4.2548z" fill="#313390" fill-rule="evenodd" stroke-width=".46608"/><path d="m19.888 80.271v2.2458l7.6661-4.2001v-2.3009l-7.6661 4.2548z" fill="none" stroke="#17067a" stroke-miterlimit="10" stroke-width=".46605"/><path d="m19.927 84.518v2.2451l7.6661-4.1995v-2.3001l-7.6661 4.2541z" fill="#313390" fill-rule="evenodd" stroke-width=".46608"/><path d="m19.927 84.518v2.2451l7.6661-4.1995v-2.3001l-7.6661 4.2541z" fill="none" stroke="#17067a" stroke-miterlimit="10" stroke-width=".46605"/><path d="m19.85 82.528v-2.2461l7.6658 4.1998v2.3009l-7.6658-4.2541z" fill="#fff" fill-rule="evenodd" stroke-width=".46608"/><path d="m19.85 82.528v-2.2461l7.6658 4.1998v2.3009l-7.6658-4.2541z" fill="none" stroke="#17067a" stroke-miterlimit="10" stroke-width=".46605"/><path d="m19.944 75.969v2.2451l7.6661-4.1995v-2.3001l-7.6661 4.2541z" fill="#313390" fill-rule="evenodd" stroke-width=".46608"/><path d="m19.944 75.969v2.2451l7.6661-4.1995v-2.3001l-7.6661 4.2541z" fill="none" stroke="#17067a" stroke-miterlimit="10" stroke-width=".46605"/><path d="m19.907 78.308v-2.2458l7.6664 4.2001v2.3005l-7.6664-4.2545z" fill="#fff" fill-rule="evenodd" stroke-width=".46608"/><path d="m19.907 78.308v-2.2458l7.6664 4.2001v2.3005l-7.6664-4.2545z" fill="none" stroke="#17067a" stroke-miterlimit="10" stroke-width=".46605"/><path d="m19.905 71.722v2.2451l7.6661-4.2001v-2.2994l-7.6661 4.2541z" fill="#313390" fill-rule="evenodd" stroke-width=".46608"/><path d="m19.905 71.722v2.2451l7.6661-4.2001v-2.2994l-7.6661 4.2541z" fill="none" stroke="#17067a" stroke-miterlimit="10" stroke-width=".46605"/><path d="m19.867 73.975v-2.2455l7.6661 4.1995v2.3001l-7.6661-4.2538z" fill="#fff" fill-rule="evenodd" stroke-width=".46608"/><path d="m19.867 73.975v-2.2455l7.6661 4.1995v2.3001l-7.6661-4.2538z" fill="none" stroke="#17067a" stroke-miterlimit="10" stroke-width=".46605"/><path d="m19.924 69.755v-2.2455l7.6661 4.1995v2.3005l-7.6661-4.2541z" fill="#fff" fill-rule="evenodd" stroke-width=".46608"/><path d="m19.924 69.755v-2.2455l7.6661 4.1995v2.3005l-7.6661-4.2541z" fill="none" stroke="#17067a" stroke-miterlimit="10" stroke-width=".46605"/><path d="m60.895 52.596v-2.2463l7.6658 4.2018v2.3014l-7.6658-4.2568z" fill="#313390" fill-rule="evenodd" stroke-width=".46608"/><path d="m60.895 52.596v-2.2463l7.6658 4.2018v2.3014l-7.6658-4.2568z" fill="none" stroke="#17067a" stroke-miterlimit="10" stroke-width=".46605"/><path d="m60.934 48.349v-2.2465l7.6667 4.2021v2.3018l-7.6667-4.2571z" fill="#313390" fill-rule="evenodd" stroke-width=".46608"/><path d="m60.934 48.349v-2.2465l7.6667 4.2021v2.3018l-7.6667-4.2571z" fill="none" stroke="#17067a" stroke-miterlimit="10" stroke-width=".46605"/><path d="m60.858 50.342v2.2463l7.6658-4.2014v-2.302l-7.6658 4.2568z" fill="#fff" fill-rule="evenodd" stroke-width=".46608"/><path d="m60.858 50.342v2.2463l7.6658-4.2014v-2.302l-7.6658 4.2568z" fill="none" stroke="#17067a" stroke-miterlimit="10" stroke-width=".46605"/><path d="m60.951 56.905v-2.2469l7.6671 4.2018v2.3023l-7.6671-4.2571z" fill="#313390" fill-rule="evenodd" stroke-width=".46608"/><path d="m60.951 56.905v-2.2469l7.6671 4.2018v2.3023l-7.6671-4.2571z" fill="none" stroke="#17067a" stroke-miterlimit="10" stroke-width=".46605"/><path d="m60.914 54.566v2.2463l7.6661-4.2014v-2.3018l-7.6661 4.2568z" fill="#fff" fill-rule="evenodd" stroke-width=".46608"/><path d="m60.914 54.566v2.2463l7.6661-4.2014v-2.3018l-7.6661 4.2568z" fill="none" stroke="#17067a" stroke-miterlimit="10" stroke-width=".46605"/><path d="m60.914 61.152v-2.2465l7.6661 4.2021v2.3016l-7.6661-4.2571z" fill="#313390" fill-rule="evenodd" stroke-width=".46608"/><path d="m60.914 61.152v-2.2465l7.6661 4.2021v2.3016l-7.6661-4.2571z" fill="none" stroke="#17067a" stroke-miterlimit="10" stroke-width=".46605"/><path d="m60.875 58.895v2.2461l7.6667-4.2011v-2.3021l-7.6667 4.2568z" fill="#fff" fill-rule="evenodd" stroke-width=".46608"/><path d="m60.875 58.895v2.2461l7.6667-4.2011v-2.3021l-7.6667 4.2568z" fill="none" stroke="#17067a" stroke-miterlimit="10" stroke-width=".46605"/><path d="m60.931 63.122v2.2469l7.6661-4.2018v-2.3023l-7.6661 4.2571z" fill="#fff" fill-rule="evenodd" stroke-width=".46608"/><path d="m60.931 63.122v2.2469l7.6661-4.2018v-2.3023l-7.6661 4.2571z" fill="none" stroke="#17067a" stroke-miterlimit="10" stroke-width=".46605"/><path d="m60.944 44.061v-2.2471l7.6661 4.2018v2.3018z" fill="#313390" fill-rule="evenodd" stroke-width=".46608"/><path d="m60.944 44.061v-2.2471l7.6661 4.2018v2.3018z" fill="none" stroke="#17067a" stroke-miterlimit="10" stroke-width=".46605"/><path d="m60.868 46.052v2.2471l7.6667-4.2021v-2.3018z" fill="#fff" fill-rule="evenodd" stroke-width=".46608"/><path d="m60.868 46.052v2.2471l7.6667-4.2021v-2.3018z" fill="none" stroke="#17067a" stroke-miterlimit="10" stroke-width=".46605"/><path d="m60.865 74.008v-2.2473l7.6667 4.2021v2.3016l-7.6667-4.2565z" fill="#313390" fill-rule="evenodd" stroke-width=".46608"/><path d="m60.865 74.008v-2.2473l7.6667 4.2021v2.3016l-7.6667-4.2565z" fill="none" stroke="#17067a" stroke-miterlimit="10" stroke-width=".46605"/><path d="m60.905 69.758v-2.2473l7.6661 4.2018v2.302z" fill="#313390" fill-rule="evenodd" stroke-width=".46608"/><path d="m60.905 69.758v-2.2473l7.6661 4.2018v2.302z" fill="none" stroke="#17067a" stroke-miterlimit="10" stroke-width=".46605"/><path d="m60.829 71.751v2.2469l7.6661-4.2018v-2.302l-7.6661 4.2568z" fill="#fff" fill-rule="evenodd" stroke-width=".46608"/><path d="m60.829 71.751v2.2469l7.6661-4.2018v-2.302l-7.6661 4.2568z" fill="none" stroke="#17067a" stroke-miterlimit="10" stroke-width=".46605"/><path d="m60.924 78.314v-2.2465l7.6664 4.2014v2.3023l-7.6664-4.2571z" fill="#313390" fill-rule="evenodd" stroke-width=".46608"/><path d="m60.924 78.314v-2.2465l7.6664 4.2014v2.3023l-7.6664-4.2571z" fill="none" stroke="#17067a" stroke-miterlimit="10" stroke-width=".46605"/><path d="m60.885 75.975v2.2465l7.6661-4.2014v-2.3023l-7.6661 4.2571z" fill="#fff" fill-rule="evenodd" stroke-width=".46608"/><path d="m60.885 75.975v2.2465l7.6661-4.2014v-2.3023l-7.6661 4.2571z" fill="none" stroke="#17067a" stroke-miterlimit="10" stroke-width=".46605"/><path d="m60.881 82.565v-2.2465l7.6664 4.2014v2.3016z" fill="#313390" fill-rule="evenodd" stroke-width=".46608"/><path d="m60.881 82.565v-2.2465l7.6664 4.2014v2.3016z" fill="none" stroke="#17067a" stroke-miterlimit="10" stroke-width=".46605"/><path d="m60.845 80.304v2.2461l7.6661-4.2021v-2.3016l-7.6661 4.2574z" fill="#fff" fill-rule="evenodd" stroke-width=".46608"/><path d="m60.845 80.304v2.2461l7.6661-4.2021v-2.3016l-7.6661 4.2574z" fill="none" stroke="#17067a" stroke-miterlimit="10" stroke-width=".46605"/><path d="m60.901 84.535v2.2465l7.6661-4.2018v-2.302l-7.6661 4.2571z" fill="#fff" fill-rule="evenodd" stroke-width=".46608"/><path d="m60.901 84.535v2.2465l7.6661-4.2018v-2.302l-7.6661 4.2571z" fill="none" stroke="#17067a" stroke-miterlimit="10" stroke-width=".46605"/><path d="m60.918 65.472v-2.2461l7.6661 4.2014v2.3016l-7.6661-4.2568z" fill="#313390" fill-rule="evenodd" stroke-width=".46608"/><path d="m60.918 65.472v-2.2461l7.6661 4.2014v2.3016l-7.6661-4.2568z" fill="none" stroke="#17067a" stroke-miterlimit="10" stroke-width=".46605"/><path d="m60.838 67.462v2.2465l7.6658-4.2021v-2.3016z" fill="#fff" fill-rule="evenodd" stroke-width=".46608"/><path d="m60.838 67.462v2.2465l7.6658-4.2021v-2.3016z" fill="none" stroke="#17067a" stroke-miterlimit="10" stroke-width=".46605"/><path d="m60.895 31.247v-2.2473l7.6658 4.2021v2.3018l-7.6658-4.2565z" fill="#313390" fill-rule="evenodd" stroke-width=".46608"/><path d="m60.895 31.247v-2.2473l7.6658 4.2021v2.3018l-7.6658-4.2565z" fill="none" stroke="#17067a" stroke-miterlimit="10" stroke-width=".46605"/><path d="m60.934 26.998v-2.2471l7.6667 4.2018v2.302l-7.6667-4.2568z" fill="#313390" fill-rule="evenodd" stroke-width=".46608"/><path d="m60.934 26.998v-2.2471l7.6667 4.2018v2.302l-7.6667-4.2568z" fill="none" stroke="#17067a" stroke-miterlimit="10" stroke-width=".46605"/><path d="m60.858 28.989v2.2471l7.6658-4.2018v-2.302l-7.6658 4.2568z" fill="#fff" fill-rule="evenodd" stroke-width=".46608"/><path d="m60.858 28.989v2.2471l7.6658-4.2018v-2.302l-7.6658 4.2568z" fill="none" stroke="#17067a" stroke-miterlimit="10" stroke-width=".46605"/><path d="m60.951 35.554v-2.2463l7.6671 4.2018v2.3012l-7.6671-4.2568z" fill="#313390" fill-rule="evenodd" stroke-width=".46608"/><path d="m60.951 35.554v-2.2463l7.6671 4.2018v2.3012l-7.6671-4.2568z" fill="none" stroke="#17067a" stroke-miterlimit="10" stroke-width=".46605"/><path d="m60.914 33.216v2.2465l7.6661-4.2021v-2.3018l-7.6661 4.2571z" fill="#fff" fill-rule="evenodd" stroke-width=".46608"/><path d="m60.914 33.216v2.2465l7.6661-4.2021v-2.3018l-7.6661 4.2571z" fill="none" stroke="#17067a" stroke-miterlimit="10" stroke-width=".46605"/><path d="m60.914 39.803v-2.2465l7.6661 4.2014v2.302l-7.6661-4.2568z" fill="#313390" fill-rule="evenodd" stroke-width=".46608"/><path d="m60.914 39.803v-2.2465l7.6661 4.2014v2.302l-7.6661-4.2568z" fill="none" stroke="#17067a" stroke-miterlimit="10" stroke-width=".46605"/><path d="m60.875 37.546v2.2467l7.6667-4.2021v-2.302l-7.6667 4.2571z" fill="#fff" fill-rule="evenodd" stroke-width=".46608"/><path d="m60.875 37.546v2.2467l7.6667-4.2021v-2.302l-7.6667 4.2571z" fill="none" stroke="#17067a" stroke-miterlimit="10" stroke-width=".46605"/><path d="m60.931 41.772v2.2467l7.6661-4.2014v-2.3018l-7.6661 4.2565z" fill="#fff" fill-rule="evenodd" stroke-width=".46608"/><path d="m60.931 41.772v2.2467l7.6661-4.2014v-2.3018l-7.6661 4.2565z" fill="none" stroke="#17067a" stroke-miterlimit="10" stroke-width=".46605"/><path d="m39.227 15.326h-2.1498l4.0214 7.9861h2.2032l-4.0745-7.9861z" fill="#313390" fill-rule="evenodd" stroke-width=".46608"/><path d="m39.227 15.326h-2.1498l4.0214 7.9861h2.2032l-4.0745-7.9861z" fill="none" stroke="#17067a" stroke-miterlimit="10" stroke-width=".46605"/><path d="m35.162 15.367h-2.15l4.0211 7.9861h2.2029l-4.0739-7.9861z" fill="#313390" fill-rule="evenodd" stroke-width=".46608"/><path d="m35.162 15.367h-2.15l4.0211 7.9861h2.2029l-4.0739-7.9861z" fill="none" stroke="#17067a" stroke-miterlimit="10" stroke-width=".46605"/><path d="m37.067 15.286h2.15l-4.0211 7.9861h-2.2027l4.0735-7.9861z" fill="#fff" fill-rule="evenodd" stroke-width=".46608"/><path d="m37.067 15.286h2.15l-4.0211 7.9861h-2.2027l4.0735-7.9861z" fill="none" stroke="#17067a" stroke-miterlimit="10" stroke-width=".46605"/><path d="m43.351 15.384h-2.1503l4.0211 7.9861h2.2031l-4.0735-7.9861z" fill="#313390" fill-rule="evenodd" stroke-width=".46608"/><path d="m43.351 15.384h-2.1503l4.0211 7.9861h2.2031l-4.0735-7.9861z" fill="none" stroke="#17067a" stroke-miterlimit="10" stroke-width=".46605"/><path d="m41.112 15.346h2.1503l-4.0211 7.9861h-2.2031l4.0735-7.9861z" fill="#fff" fill-rule="evenodd" stroke-width=".46608"/><path d="m41.112 15.346h2.1503l-4.0211 7.9861h-2.2031l4.0735-7.9861z" fill="none" stroke="#17067a" stroke-miterlimit="10" stroke-width=".46605"/><path d="m55.606 15.381h-2.15l4.0214 7.9861h2.2027l-4.0739-7.9861z" fill="#313390" fill-rule="evenodd" stroke-width=".46608"/><path d="m55.606 15.381h-2.15l4.0214 7.9861h2.2027l-4.0739-7.9861z" fill="none" stroke="#17067a" stroke-miterlimit="10" stroke-width=".46605"/><path d="m47.416 15.343h-2.15l4.0214 7.9867h2.2034l-4.0745-7.9867z" fill="#313390" fill-rule="evenodd" stroke-width=".46608"/><path d="m47.416 15.343h-2.15l4.0214 7.9867h2.2034l-4.0745-7.9867z" fill="none" stroke="#17067a" stroke-miterlimit="10" stroke-width=".46605"/><path d="m45.256 15.304h2.1496l-4.0207 7.9864h-2.2029l4.0735-7.9864z" fill="#fff" fill-rule="evenodd" stroke-width=".46608"/><path d="m45.256 15.304h2.1496l-4.0207 7.9864h-2.2029l4.0735-7.9864z" fill="none" stroke="#17067a" stroke-miterlimit="10" stroke-width=".46605"/><path d="m51.539 15.421h-2.15l4.0214 7.9861h2.2024l-4.0735-7.9861z" fill="#313390" fill-rule="evenodd" stroke-width=".46608"/><path d="m51.539 15.421h-2.15l4.0214 7.9861h2.2024l-4.0735-7.9861z" fill="none" stroke="#17067a" stroke-miterlimit="10" stroke-width=".46605"/><path d="m49.3 15.364h2.1503l-4.0217 7.9861h-2.2024l4.0735-7.9861z" fill="#fff" fill-rule="evenodd" stroke-width=".46608"/><path d="m49.3 15.364h2.1503l-4.0217 7.9861h-2.2024l4.0735-7.9861z" fill="none" stroke="#17067a" stroke-miterlimit="10" stroke-width=".46605"/><path d="m53.443 15.341h2.1503l-4.0211 7.9867h-2.203l4.0735-7.9867z" fill="#fff" fill-rule="evenodd" stroke-width=".46608"/><path d="m53.443 15.341h2.1503l-4.0211 7.9867h-2.203l4.0735-7.9867z" fill="none" stroke="#17067a" stroke-miterlimit="10" stroke-width=".46605"/><path d="m59.716 15.402h-2.15l4.0214 7.9861h2.2024l-4.0735-7.9861z" fill="#313390" fill-rule="evenodd" stroke-width=".46608"/><path d="m59.716 15.402h-2.15l4.0214 7.9861h2.2024l-4.0735-7.9861z" fill="none" stroke="#17067a" stroke-miterlimit="10" stroke-width=".46605"/><path d="m57.488 15.401h2.1496l-4.0211 7.9864h-2.2031l4.0742-7.9864z" fill="#fff" fill-rule="evenodd" stroke-width=".46608"/><path d="m57.488 15.401h2.1496l-4.0211 7.9864h-2.2031l4.0742-7.9864z" fill="none" stroke="#17067a" stroke-miterlimit="10" stroke-width=".46605"/><path d="m31.059 15.378h-2.15l4.0214 7.9861h2.2024l-4.0735-7.9861z" fill="#313390" fill-rule="evenodd" stroke-width=".46608"/><path d="m31.059 15.378h-2.15l4.0214 7.9861h2.2024l-4.0735-7.9861z" fill="none" stroke="#17067a" stroke-miterlimit="10" stroke-width=".46605"/><path d="m27.032 15.299h-2.15l4.0214 7.9864h2.2027l-4.0739-7.9864z" fill="#313390" fill-rule="evenodd" stroke-width=".46608"/><path d="m27.032 15.299h-2.15l4.0214 7.9864h2.2027l-4.0739-7.9864z" fill="none" stroke="#17067a" stroke-miterlimit="10" stroke-width=".46605"/><path d="m32.964 15.297h2.15l-4.0214 7.9864h-2.2029l4.0739-7.9864z" fill="#fff" fill-rule="evenodd" stroke-width=".46608"/><path d="m32.964 15.297h2.15l-4.0214 7.9864h-2.2029l4.0739-7.9864z" fill="none" stroke="#17067a" stroke-miterlimit="10" stroke-width=".46605"/><path d="m22.961 15.299h-2.15l4.0211 7.9864h2.2027l-4.0735-7.9864z" fill="#313390" fill-rule="evenodd" stroke-width=".46608"/><path d="m22.961 15.299h-2.15l4.0211 7.9864h2.2027l-4.0735-7.9864z" fill="none" stroke="#17067a" stroke-miterlimit="10" stroke-width=".46605"/><path d="m28.903 15.299h2.15l-4.0214 7.9864h-2.2024l4.0735-7.9864z" fill="#fff" fill-rule="evenodd" stroke-width=".46608"/><path d="m28.903 15.299h2.15l-4.0214 7.9864h-2.2024l4.0735-7.9864z" fill="none" stroke="#17067a" stroke-miterlimit="10" stroke-width=".46605"/><path d="m24.885 15.299h2.1501l-4.0207 7.9864h-2.2031l4.0735-7.9864z" fill="#fff" fill-rule="evenodd" stroke-width=".46608"/><path d="m24.885 15.299h2.1501l-4.0207 7.9864h-2.2031l4.0735-7.9864z" fill="none" stroke="#17067a" stroke-miterlimit="10" stroke-width=".46605"/><path d="m63.78 15.361h-2.1503l4.0217 7.9867h2.2024l-4.0735-7.9867z" fill="#313390" fill-rule="evenodd" stroke-width=".46608"/><path d="m63.78 15.361h-2.1503l4.0217 7.9867h2.2024l-4.0735-7.9867z" fill="none" stroke="#17067a" stroke-miterlimit="10" stroke-width=".46605"/><path d="m61.621 15.322h2.1496l-4.0211 7.9861h-2.2037l4.0749-7.9861z" fill="#fff" fill-rule="evenodd" stroke-width=".46608"/><path d="m61.621 15.322h2.1496l-4.0211 7.9861h-2.2037l4.0749-7.9861z" fill="none" stroke="#17067a" stroke-miterlimit="10" stroke-width=".46605"/><path d="m65.665 15.382h2.15l-4.0207 7.9861h-2.2031l4.0735-7.9861z" fill="#fff" fill-rule="evenodd" stroke-width=".46608"/><path d="m65.665 15.382h2.15l-4.0207 7.9861h-2.2031l4.0735-7.9861z" fill="none" stroke="#17067a" stroke-miterlimit="10" stroke-width=".46605"/><path d="m39.344 87.965h-2.1501l4.0211 7.9861h2.203l-4.0735-7.9861z" fill="#313390" fill-rule="evenodd" stroke-width=".46608"/><path d="m39.344 87.965h-2.1501l4.0211 7.9861h2.203l-4.0735-7.9861z" fill="none" stroke="#17067a" stroke-miterlimit="10" stroke-width=".46605"/><path d="m35.279 88.004h-2.1505l4.0214 7.9864h2.2031l-4.0735-7.9864z" fill="#313390" fill-rule="evenodd" stroke-width=".46608"/><path d="m35.279 88.004h-2.1505l4.0214 7.9864h2.2031l-4.0735-7.9864z" fill="none" stroke="#17067a" stroke-miterlimit="10" stroke-width=".46605"/><path d="m37.184 87.928h2.1506l-4.0211 7.9857h-2.2034l4.0735-7.9857z" fill="#fff" fill-rule="evenodd" stroke-width=".46608"/><path d="m37.184 87.928h2.1506l-4.0211 7.9857h-2.2034l4.0735-7.9857z" fill="none" stroke="#17067a" stroke-miterlimit="10" stroke-width=".46605"/><path d="m43.467 88.021h-2.1498l4.0211 7.9857h2.2027l-4.0735-7.9857z" fill="#313390" fill-rule="evenodd" stroke-width=".46608"/><path d="m43.467 88.021h-2.1498l4.0211 7.9857h2.2027l-4.0735-7.9857z" fill="none" stroke="#17067a" stroke-miterlimit="10" stroke-width=".46605"/><path d="m41.228 87.984h2.15l-4.0211 7.9864h-2.2029l4.0739-7.9864z" fill="#fff" fill-rule="evenodd" stroke-width=".46608"/><path d="m41.228 87.984h2.15l-4.0211 7.9864h-2.2029l4.0739-7.9864z" fill="none" stroke="#17067a" stroke-miterlimit="10" stroke-width=".46605"/><path d="m55.721 88.017h-2.1503l4.0217 7.9861h2.2031l-4.0742-7.9861z" fill="#313390" fill-rule="evenodd" stroke-width=".46608"/><path d="m55.721 88.017h-2.1503l4.0217 7.9861h2.2031l-4.0742-7.9861z" fill="none" stroke="#17067a" stroke-miterlimit="10" stroke-width=".46605"/><path d="m47.533 87.981h-2.1503l4.0211 7.9864h2.2034l-4.0739-7.9864z" fill="#313390" fill-rule="evenodd" stroke-width=".46608"/><path d="m47.533 87.981h-2.1503l4.0211 7.9864h2.2034l-4.0739-7.9864z" fill="none" stroke="#17067a" stroke-miterlimit="10" stroke-width=".46605"/><path d="m45.372 87.942h2.1506l-4.0214 7.9861h-2.2029l4.0732-7.9861z" fill="#fff" fill-rule="evenodd" stroke-width=".46608"/><path d="m45.372 87.942h2.1506l-4.0214 7.9861h-2.2029l4.0732-7.9861z" fill="none" stroke="#17067a" stroke-miterlimit="10" stroke-width=".46605"/><path d="m51.657 88.06h-2.151l4.0217 7.9861h2.2031l-4.0735-7.9861z" fill="#313390" fill-rule="evenodd" stroke-width=".46608"/><path d="m51.657 88.06h-2.151l4.0217 7.9861h2.2031l-4.0735-7.9861z" fill="none" stroke="#17067a" stroke-miterlimit="10" stroke-width=".46605"/><path d="m49.416 88.004h2.1503l-4.0217 7.9857h-2.2024l4.0735-7.9857z" fill="#fff" fill-rule="evenodd" stroke-width=".46608"/><path d="m49.416 88.004h2.1503l-4.0217 7.9857h-2.2024l4.0735-7.9857z" fill="none" stroke="#17067a" stroke-miterlimit="10" stroke-width=".46605"/><path d="m53.559 87.978h2.15l-4.0204 7.9871h-2.2034l4.0735-7.9871z" fill="#fff" fill-rule="evenodd" stroke-width=".46608"/><path d="m53.559 87.978h2.15l-4.0204 7.9871h-2.2034l4.0735-7.9871z" fill="none" stroke="#17067a" stroke-miterlimit="10" stroke-width=".46605"/><path d="m59.772 88.067h-2.1503l4.0217 7.9864h2.2024l-4.0735-7.9864z" fill="#313390" fill-rule="evenodd" stroke-width=".46608"/><path d="m59.772 88.067h-2.1503l4.0217 7.9864h2.2024l-4.0735-7.9864z" fill="none" stroke="#17067a" stroke-miterlimit="10" stroke-width=".46605"/><path d="m57.603 88.04h2.1496l-4.0211 7.9861h-2.2031l4.0742-7.9861z" fill="#fff" fill-rule="evenodd" stroke-width=".46608"/><path d="m57.603 88.04h2.1496l-4.0211 7.9861h-2.2031l4.0742-7.9861z" fill="none" stroke="#17067a" stroke-miterlimit="10" stroke-width=".46605"/><path d="m31.175 88.014h-2.1498l4.0211 7.9861h2.2027l-4.0735-7.9861z" fill="#313390" fill-rule="evenodd" stroke-width=".46608"/><path d="m31.175 88.014h-2.1498l4.0211 7.9861h2.2027l-4.0735-7.9861z" fill="none" stroke="#17067a" stroke-miterlimit="10" stroke-width=".46605"/><path d="m27.077 88.034h-2.1503l4.0214 7.9864h2.2027l-4.0735-7.9864z" fill="#313390" fill-rule="evenodd" stroke-width=".46608"/><path d="m27.077 88.034h-2.1503l4.0214 7.9864h2.2027l-4.0735-7.9864z" fill="none" stroke="#17067a" stroke-miterlimit="10" stroke-width=".46605"/><path d="m33.081 87.935h2.1496l-4.0207 7.9861h-2.2027l4.0735-7.9861z" fill="#fff" fill-rule="evenodd" stroke-width=".46608"/><path d="m33.081 87.935h2.1496l-4.0207 7.9861h-2.2027l4.0735-7.9861z" fill="none" stroke="#17067a" stroke-miterlimit="10" stroke-width=".46605"/><path d="m63.839 88.027h-2.15l4.0207 7.9867h2.2034l-4.0739-7.9867z" fill="#313390" fill-rule="evenodd" stroke-width=".46608"/><path d="m63.839 88.027h-2.15l4.0207 7.9867h2.2034l-4.0739-7.9867z" fill="none" stroke="#17067a" stroke-miterlimit="10" stroke-width=".46605"/><path d="m61.677 87.984h2.15l-4.0211 7.9864h-2.2037l4.0745-7.9864z" fill="#fff" fill-rule="evenodd" stroke-width=".46608"/><path d="m61.677 87.984h2.15l-4.0211 7.9864h-2.2037l4.0745-7.9864z" fill="none" stroke="#17067a" stroke-miterlimit="10" stroke-width=".46605"/><path d="m65.721 88.044h2.1496l-4.0211 7.9864h-2.2027l4.0739-7.9864z" fill="#fff" fill-rule="evenodd" stroke-width=".46608"/><path d="m65.721 88.044h2.1496l-4.0211 7.9864h-2.2027l4.0739-7.9864z" fill="none" stroke="#17067a" stroke-miterlimit="10" stroke-width=".46605"/><path d="m28.982 87.951h2.1503l-4.0214 7.9871h-2.2025l4.0732-7.9871z" fill="#fff" fill-rule="evenodd" stroke-width=".46608"/><path d="m28.982 87.951h2.1503l-4.0214 7.9871h-2.2025l4.0732-7.9871z" fill="none" stroke="#17067a" stroke-miterlimit="10" stroke-width=".46605"/><path d="m22.974 88.044h-2.1503l4.0214 7.9861h2.2029l-4.0735-7.9861z" fill="#313390" fill-rule="evenodd" stroke-width=".46608"/><path d="m22.974 88.044h-2.1503l4.0214 7.9861h2.2029l-4.0735-7.9861z" fill="none" stroke="#17067a" stroke-miterlimit="10" stroke-width=".46605"/><path d="m24.879 87.965h2.1503l-4.0211 7.9867h-2.2034l4.0739-7.9867z" fill="#fff" fill-rule="evenodd" stroke-width=".46608"/><path d="m24.879 87.965h2.1503l-4.0211 7.9867h-2.2034l4.0739-7.9867z" fill="none" stroke="#17067a" stroke-miterlimit="10" stroke-width=".46605"/></g><path d="m72.822 97.338c0 1.3817-1.0548 2.515-2.3486 2.515h-52.244c-1.2903 0-2.3451-1.1333-2.3451-2.515v-83.623c0-1.3835 1.0548-2.5148 2.3451-2.5148h52.244c1.2938 0 2.3486 1.1313 2.3486 2.5148z" fill="none" stroke="#000" stroke-width=".17397"/></g></svg>
