<?xml version="1.0" encoding="UTF-8" standalone="no"?>
<svg xmlns="http://www.w3.org/2000/svg" xmlns:xlink="http://www.w3.org/1999/xlink" class="card" face="4C" height="3.5in" preserveAspectRatio="none" viewBox="-106 -164.5 212 329" width="2.25in"><symbol id="SC4" viewBox="-600 -600 1200 1200" preserveAspectRatio="xMinYMid"><path d="M30 150C35 385 85 400 130 500L-130 500C-85 400 -35 385 -30 150A10 10 0 0 0 -50 150A210 210 0 1 1 -124 -51A10 10 0 0 0 -110 -65A230 230 0 1 1 110 -65A10 10 0 0 0 124 -51A210 210 0 1 1 50 150A10 10 0 0 0 30 150Z" fill="black"></path></symbol><symbol id="VC4" viewBox="-500 -500 1000 1000" preserveAspectRatio="xMinYMid"><path d="M50 460L250 460M150 460L150 -460L-300 175L-300 200L270 200" stroke="black" stroke-width="80" stroke-linecap="square" stroke-miterlimit="1.5" fill="none"></path></symbol><rect width="211" height="328" x="-105.5" y="-164" rx="12" ry="12" fill="white" stroke="black"></rect><use xlink:href="#VC4" height="50" x="-104" y="-152.5"></use><use xlink:href="#SC4" height="41.827" x="-99.913" y="-97.5"></use><use xlink:href="#SC4" height="40" x="-59.001" y="-117.551"></use><use xlink:href="#SC4" height="40" x="19.001" y="-117.551"></use><use xlink:href="#SC4" height="40" x="-59.001" y="77.551"></use><use xlink:href="#SC4" height="40" x="19.001" y="77.551"></use><g transform="rotate(180)"><use xlink:href="#VC4" height="50" x="-104" y="-152.5"></use><use xlink:href="#SC4" height="41.827" x="-99.913" y="-97.5"></use></g></svg>