<?xml version="1.0" encoding="UTF-8" standalone="no"?>
<svg xmlns="http://www.w3.org/2000/svg" xmlns:xlink="http://www.w3.org/1999/xlink" class="card" face="6S" height="3.5in" preserveAspectRatio="none" viewBox="-106 -164.5 212 329" width="2.25in"><symbol id="SS6" viewBox="-600 -600 1200 1200" preserveAspectRatio="xMinYMid"><path d="M0 -500C100 -250 355 -100 355 185A150 150 0 0 1 55 185A10 10 0 0 0 35 185C35 385 85 400 130 500L-130 500C-85 400 -35 385 -35 185A10 10 0 0 0 -55 185A150 150 0 0 1 -355 185C-355 -100 -100 -250 0 -500Z" fill="black"></path></symbol><symbol id="VS6" viewBox="-500 -500 1000 1000" preserveAspectRatio="xMinYMid"><path d="M-250 100A250 250 0 0 1 250 100L250 210A250 250 0 0 1 -250 210L-250 -210A250 250 0 0 1 0 -460C150 -460 180 -400 200 -375" stroke="black" stroke-width="80" stroke-linecap="square" stroke-miterlimit="1.5" fill="none"></path></symbol><rect width="211" height="328" x="-105.5" y="-164" rx="12" ry="12" fill="white" stroke="black"></rect><use xlink:href="#VS6" height="50" x="-104" y="-152.5"></use><use xlink:href="#SS6" height="41.827" x="-99.913" y="-97.5"></use><use xlink:href="#SS6" height="40" x="-59.001" y="-117.501"></use><use xlink:href="#SS6" height="40" x="19.001" y="-117.501"></use><use xlink:href="#SS6" height="40" x="-59.001" y="-20"></use><use xlink:href="#SS6" height="40" x="19.001" y="-20"></use><use xlink:href="#SS6" height="40" x="-59.001" y="77.501"></use><use xlink:href="#SS6" height="40" x="19.001" y="77.501"></use><g transform="rotate(180)"><use xlink:href="#VS6" height="50" x="-104" y="-152.5"></use><use xlink:href="#SS6" height="41.827" x="-99.913" y="-97.5"></use></g></svg>