<?xml version="1.0" encoding="UTF-8" standalone="no"?>
<svg xmlns="http://www.w3.org/2000/svg" xmlns:xlink="http://www.w3.org/1999/xlink" class="card" face="TH" height="3.5in" preserveAspectRatio="none" viewBox="-106 -164.5 212 329" width="2.25in"><symbol id="SHT" viewBox="-600 -600 1200 1200" preserveAspectRatio="xMinYMid"><path d="M0 -300C0 -400 100 -500 200 -500C300 -500 400 -400 400 -250C400 0 0 400 0 500C0 400 -400 0 -400 -250C-400 -400 -300 -500 -200 -500C-100 -500 0 -400 -0 -300Z" fill="red"></path></symbol><symbol id="VHT" viewBox="-500 -500 1000 1000" preserveAspectRatio="xMinYMid"><path d="M-260 430L-260 -430M-50 0L-50 -310A150 150 0 0 1 250 -310L250 310A150 150 0 0 1 -50 310Z" stroke="red" stroke-width="80" stroke-linecap="square" stroke-miterlimit="1.5" fill="none"></path></symbol><rect width="211" height="328" x="-105.5" y="-164" rx="12" ry="12" fill="white" stroke="black"></rect><use xlink:href="#VHT" height="50" x="-104" y="-152.5"></use><use xlink:href="#SHT" height="41.827" x="-99.913" y="-97.5"></use><use xlink:href="#SHT" height="40" x="-59.001" y="-117.501"></use><use xlink:href="#SHT" height="40" x="19.001" y="-117.501"></use><use xlink:href="#SHT" height="40" x="-59.001" y="-52.5"></use><use xlink:href="#SHT" height="40" x="19.001" y="-52.5"></use><use xlink:href="#SHT" height="40" x="-20" y="-85"></use><use xlink:href="#SHT" height="40" x="-59.001" y="77.501"></use><use xlink:href="#SHT" height="40" x="19.001" y="77.501"></use><use xlink:href="#SHT" height="40" x="-59.001" y="12.5"></use><use xlink:href="#SHT" height="40" x="19.001" y="12.5"></use><use xlink:href="#SHT" height="40" x="-20" y="45"></use><g transform="rotate(180)"><use xlink:href="#VHT" height="50" x="-104" y="-152.5"></use><use xlink:href="#SHT" height="41.827" x="-99.913" y="-97.5"></use></g></svg>