<svg xmlns="http://www.w3.org/2000/svg" viewBox="0 0 1279 1280" width="1279" height="1280">
	<defs>
		<linearGradient id="grd1" gradientUnits="userSpaceOnUse"  x1="354.918" y1="767.264" x2="155.599" y2="1126.845">
			<stop offset="0" stop-color="#000000"  />
			<stop offset="0.335" stop-color="#d6d6d6"  />
			<stop offset="0.665" stop-color="#d6d6d6"  />
			<stop offset="1" stop-color="#000000"  />
		</linearGradient>
		<linearGradient id="grd2" gradientUnits="userSpaceOnUse"  x1="-60.709" y1="521.004" x2="-99.733" y2="591.405">
			<stop offset="0" stop-color="#ffffff"  />
			<stop offset="0.871" stop-color="#000000"  />
		</linearGradient>
		<radialGradient id="grd3" gradientUnits="userSpaceOnUse"  cx="866.898" cy="1176.051" r="619.97">
			<stop offset="0.583" stop-color="#b4b4b4"  />
			<stop offset="0.753" stop-color="#000000"  />
		</radialGradient>
	</defs>
	<style>
		tspan { white-space:pre }
		.shp0 { fill: #ff0000 } 
		.shp1 { opacity: 0.302;fill: url(#grd1) } 
		.shp2 { opacity: 0.302;fill: url(#grd2) } 
		.shp3 { opacity: 0.322;fill: url(#grd3) } 
		.shp4 { opacity: 0.149;fill: #000000 } 
	</style>
	<g id="Layer">
		<path id="Forma 1 copy 5" class="shp0" d="M435.26 222.54L799.03 588.69C807.65 597.34 807.93 626.46 791.39 640.26C785.6 645.08 761.8 654.97 743.28 639.72L716.38 613.23L715.59 994.12C715.77 998.84 705.54 1012 695.74 1012.37L118.69 1013C84.01 1013 88.9 983.46 88.9 983.46L88.36 614.11L64.93 637.34C42.59 656.11 19.54 644.28 12.13 637.03C4.78 629.83 -8.98 606.14 8.51 584.87L365.33 226.91C370.67 221.58 398.93 184.77 435.26 222.54Z" />
		<path id="Forma 1 copy 6" class="shp0" d="M560.7 1246.51C560.7 1246.51 586.84 1279.63 577.03 1280C577.03 1280 130.28 1026.7 108.87 1014.47C89.82 1003.58 89.14 1004.94 88.9 983.46C88.75 969.55 88.36 614.11 88.36 614.11L561.38 883.14L560.7 1246.51Z" />
		<path id="Forma 1 copy 11" class="shp1" d="M560.7 1246.51C560.7 1246.51 586.84 1279.63 577.03 1280C577.03 1280 130.28 1026.7 108.87 1014.47C89.82 1003.58 89.14 1004.94 88.9 983.46C88.75 969.55 88.36 614.11 88.36 614.11L561.38 883.14L560.7 1246.51Z" />
		<path id="Forma 1 copy 9" class="shp0" d="M891.5 477.96C900.12 486.61 554 841.69 554 841.69L488 908.21C488 908.21 19.54 644.28 12.13 637.03C4.78 629.83 -8.98 606.14 8.51 584.87L365.33 226.91C370.67 221.58 389.23 200.63 410.32 204.71L891.5 477.96Z" />
		<path id="Forma 1 copy 12" class="shp2" d="M891.5 477.96C900.12 486.61 554 841.69 554 841.69L488 908.21C488 908.21 19.54 644.28 12.13 637.03C4.78 629.83 -8.98 606.14 8.51 584.87L365.33 226.91C370.67 221.58 389.23 200.63 410.32 204.71L891.5 477.96Z" />
		<path id="Forma 1" class="shp0" d="M907.26 490.54L1256.25 842.96C1264.87 851.61 1264.32 879.02 1252.93 892.78C1248.13 898.58 1220.22 909.45 1201.7 894.2L1188.38 881.23L1185.74 1221.83C1186.04 1241 1170.09 1254.2 1160.28 1254.57L590.69 1281C556.01 1281 560.9 1251.46 560.9 1251.46L560.36 882.11L536.93 905.34C514.59 924.11 491.54 912.28 484.13 905.03C476.78 897.83 463.02 874.14 480.51 852.87L837.33 494.91C842.67 489.58 870.93 452.77 907.26 490.54Z" />
		<path id="Forma 1 copy 10" class="shp3" d="M907.26 490.54L1257.75 844.96C1266.37 853.61 1259.25 887.96 1254.25 891.46C1251.75 896.46 1221.53 910.97 1203 895.71L1188.38 881.23L1185.5 1222.71C1186.75 1235.96 1172.56 1253.85 1162.75 1254.21L590.69 1281C556.01 1281 560.9 1251.46 560.9 1251.46L560.36 882.11L536.93 905.34C514.59 924.11 491.54 912.28 484.13 905.03C476.78 897.83 463.02 874.14 480.51 852.87L837.33 494.91C842.67 489.58 870.93 452.77 907.26 490.54Z" />
		<path id="Forma 1 copy" class="shp0" d="M907.24 490.38L1256.73 842.96C1265.35 851.62 1262.9 884.24 1251.04 894.2C1245.26 899.05 1222.12 910.88 1203.59 895.62L1188.37 881.07L874.79 570.52L560.35 881.95L536.91 905.18C514.57 923.94 491.53 912.11 484.12 904.86C476.77 897.67 463.01 873.98 480.5 852.7L837.32 494.73C842.66 489.41 870.92 452.6 907.24 490.38Z" />
		<path id="Forma 1 copy 13" class="shp4" d="M907.24 490.38L1256.73 842.96C1265.35 851.62 1262.9 884.24 1251.04 894.2C1245.26 899.05 1222.12 910.88 1203.59 895.62L1188.37 881.07L874.79 570.52L560.35 881.95L536.91 905.18C514.57 923.94 491.53 912.11 484.12 904.86C476.77 897.67 463.01 873.98 480.5 852.7L837.32 494.73C842.66 489.41 870.92 452.6 907.24 490.38Z" />
	</g>
</svg>