<svg xmlns="http://www.w3.org/2000/svg" viewBox="0 0 753 980" width="753" height="980">
	<style>
		tspan { white-space:pre }
		.shp0 { fill: #ff0000 } 
		.shp1 { opacity: 0.149;fill: #ffffff } 
	</style>
	<path id="Layer copy 4" class="shp0" d="M464.48 251L455.67 250.84C487.67 231.84 528 190.55 528 157.88C528 63.86 439 4.51 376 3.84C301.66 3.05 239.67 64.84 239.67 137.17C239.67 180.51 258.75 223.63 288.75 250.13L285.28 250.93C211.08 250.9 26.99 392.85 2.29 462.82C-5.21 484.09 34.64 557.89 61 555.13C89.5 552.14 166.2 474.07 180.5 496.38C201.49 529.11 111.52 921.99 126.5 964C138 975.88 142.75 978.13 142.75 978.13C142.75 978.13 200.9 963.59 228.5 964C251.01 944.51 338 725.26 368 725.27C398 725.29 492.46 944.79 515.5 964L530.25 978.63C530.25 978.63 590.89 963.94 622.5 964C642 918.77 530.99 503.99 546 483C561.41 461.44 643.51 521.26 678 536.27C702.3 546.85 741.78 490.38 734.29 463.1C714.65 391.55 538.68 251.03 464.48 251Z" />
	<path id="Layer copy 5" class="shp1" d="M464.48 251L455.67 250.84C487.67 231.84 528 190.55 528 157.88C528 63.86 439 4.51 376 3.84C301.66 3.05 239.67 64.84 239.67 137.17C239.67 180.51 258.75 223.63 288.75 250.13L285.28 250.93C211.08 250.9 26.99 392.85 2.29 462.82C-5.21 484.09 34.64 557.89 61 555.13C89.5 552.14 166.2 474.07 180.5 496.38C201.49 529.11 111.52 921.99 126.5 964C138 975.88 142.75 978.13 142.75 978.13C142.75 978.13 200.9 963.59 228.5 964C251.01 944.51 338 725.26 368 725.27C398 725.29 492.46 944.79 515.5 964L530.25 978.63C530.25 978.63 590.89 963.94 622.5 964C642 918.77 530.99 503.99 546 483C561.41 461.44 643.51 521.26 678 536.27C702.3 546.85 741.78 490.38 734.29 463.1C714.65 391.55 538.68 251.03 464.48 251Z" />
	<path id="Layer copy 3" class="shp0" d="M480.48 266L471.67 265.84C503.67 246.84 528.67 193.51 528.67 160.84C528.67 66.82 455 19.51 392 18.84C317.66 18.05 255.67 79.84 255.67 152.17C255.67 195.51 275.67 241.17 311.33 266.51L301.28 265.93C227.08 265.9 42.99 407.85 18.29 477.82C10.79 499.09 37.64 555.54 64 552.77C92.5 549.78 178.7 475.69 193 498C213.99 530.73 127.52 936.99 142.5 979C160 980.5 216.9 978.59 244.5 979C267.01 959.51 354 740.26 384 740.27C414 740.29 508.46 959.79 531.5 979C558.89 978.96 606.89 978.94 638.5 979C658 933.77 546.99 518.99 562 498C577.41 476.44 659.51 536.26 694 551.27C718.3 561.85 757.78 505.38 750.29 478.1C730.65 406.55 554.68 266.03 480.48 266Z" />
</svg>