<svg xmlns="http://www.w3.org/2000/svg" xmlns:xlink="http://www.w3.org/1999/xlink" height="280" width="180" xmlns:v="https://vecta.io/nano"><g id="A"><path d="M34.028 90.991L13.044 30.973c-.024-.126 6.411-3.101 6.707-3.101.06 0 46.447 118.094 46.51 118.406.023.114-10.907 4.592-11.208 4.592-.037 0-9.498-26.946-21.025-59.881z" fill="#165016"/><path fill="#6f916f" d="M42.996 75.147L25.069 29.318c.494-.801 6.461-5.326 9.767-7.409 14.137-8.904 32.655-13.296 51.066-12.11l.655.042 14.84 33.391 14.861 33.37c.011-.011-3.286-12.253-7.328-27.203l-7.381-27.373-.032-.189 1.084-.237c13.92-3.039 23.112-7.124 30.602-13.598.471-.408.94-.829 1.041-.936s.219-.194.256-.194c.064 0 28.449 71.588 28.516 71.919.046.231-.863 1.685-1.829 2.925-8.593 11.031-30.127 22.677-45.881 24.813-9.773 1.325-16.404-.946-19.456-6.661-.431-.807-.46-.72.575-1.723 5.224-5.066 13.274-9.282 16.64-8.715 3.068.517 2.477 4.157-1.791 11.028l-.433.698.36-.383c13.276-14.093 11.798-21.207-3.158-15.187-15.561 6.264-36.541 21.872-46.321 34.46-.354.455-.663.828-.688.828s-8.141-20.577-18.036-45.726z"/></g><g transform="matrix(-1.019902 .412067 -.412067 -1.019902 186.43026 110.16614)" id="B"><path d="M78.7 68.5l-3.7 4c-2.6 2.9-3.9 7.3-4.6 15.1-.8 10.3-.6 11.3 3.3 13.9 6.9 1.8 3.5 2.1 10.3 0 3.9-2.6 4.1-3.6 3.3-13.9-.7-8.1-1.9-12.1-4.8-15.1z" fill="#fe0000" stroke="#000" stroke-width=".4"/><path d="M78.7 69.5L75.1 73c-2.7 2.6-4 6.5-4.7 14.6-.8 10.3-.6 11.3 3.3 13.9 1.9 1.2 3.9 2.5 4.5 4.3l1.7.1c.6-1.8 2-3.4 4-4.6 7.1-4.7 5.9-8-3.3-8h-7.9v-8.2c0-5.2 1.1-9.6 3-11.9z" fill="#9b0000"/><path d="M78.7 69.5L75.1 73c-2.7 2.6-4 6.5-4.7 14.6-.8 10.3-.6 11.3 3.3 13.9 1.7 1 3.7 2.6 4.5 4.4l1.5.1c1-1.9 3-3.7 4.5-4.7 7.1-4.6 5.6-8-3.6-8h-7.9v-8.2c0-5.2 1.1-9.6 3-11.9z" fill="#009800"/><path d="M79.4 71.8c-.1.2-3.6 1.5-3.7 1.7-.1.1 3.8-.9 3.7-.7s-4.3 1.6-4.4 1.8c-.1.3 4.5-.7 4.4-.5-.1.3-4.8 1.7-4.9 2-.1.2 5-.7 4.9-.4 0 .3-5.4 1.8-5.5 2.1 0 .3 5.6-.6 5.5-.3 0 .3-5.9 1.9-6 2.2 0 .3 6-.2 6-.2l-6.3 2.2c-.1.4 6.3-.1 6.3-.1s-6.7 1.9-6.7 2.3c-.1.3 6.7-.1 6.7-.1s-7 1.9-7 2.3c0 .3 7-.1 7-.1s-7.2 1.9-7.2 2.3c-.1.3 7.2-.1 7.2-.1L72 90.4c0 .4 7.4-.1 7.4-.1L72 92.5s-.1 5.4 1.2 7.7c1.1 1 1.5 1.9.9 1.9s-1.8-1-2.7-2.2c-1-1.2-1.4-7.1-.9-13.1.6-8.3 1.7-11.7 4.6-14.1 1.8-1.5 3.5-3.3 3.6-3.3-1.5 2.2-2.8 3.2.7 2.4zm-5.8 22.1c0 .3-.3.4-.5.4s-.4-.1-.4-.4c0-.2.2-.4.4-.4s.5.2.5.4zm2.9.3c0 .2-.2.5-.5.5-.2 0-.4-.3-.4-.5s.2-.4.4-.4c.3 0 .5.2.5.4zm3.4.6c0 .2-.1.4-.3.4-.3 0-.5-.2-.5-.4a.47.47 0 0 1 .5-.5c.2 0 .3.2.3.5zm2.8.2c0 .2-.2.4-.4.4s-.4-.2-.4-.4.2-.4.4-.4.4.2.4.4zm2.2 0c0 .2-.2.4-.4.4s-.4-.2-.4-.4.2-.4.4-.4.4.2.4.4zm-10.7.8c0 .2-.2.4-.4.4-.3 0-.4-.2-.4-.4s.1-.4.4-.4c.2 0 .4.2.4.4zm3 .1c0 .3-.2.4-.5.4-.2 0-.4-.1-.4-.4 0-.2.2-.4.4-.4.3 0 .5.2.5.4zm9.1.3c0 .2-.2.4-.4.4-.3 0-.5-.2-.5-.4s.2-.4.5-.4c.2 0 .4.2.4.4zm-2.2.1c0 .2-.2.4-.5.4-.2 0-.4-.2-.4-.4 0-.3.2-.4.4-.4.3 0 .5.1.5.4zm-3.3.3c0 .2-.2.4-.5.4-.2 0-.4-.2-.4-.4 0-.3.2-.5.4-.5a.47.47 0 0 1 .5.5zm-2.1.7c0 .2-.1.4-.4.4-.2 0-.4-.2-.4-.4s.2-.4.4-.4c.3 0 .4.2.4.4zm-1.9.4c0 .3-.2.4-.4.4-.3 0-.4-.1-.4-.4 0-.2.1-.4.4-.4.2 0 .4.2.4.4zm-1.9.3c0 .2-.2.5-.5.5-.2 0-.3-.3-.3-.5s.1-.4.3-.4c.3 0 .5.2.5.4zm6.6.1c0 .3-.2.5-.4.5s-.4-.2-.4-.5c0-.2.2-.4.4-.4s.4.2.4.4zm4.1 0c0 .3-.2.5-.4.5s-.4-.2-.4-.5c0-.2.2-.4.4-.4s.4.2.4.4zm-5.8.5c0 .2-.2.5-.4.5s-.4-.3-.4-.5.2-.4.4-.4.4.2.4.4zm3.2 0c0 .2-.2.5-.4.5-.3 0-.5-.3-.5-.5s.2-.4.5-.4c.2 0 .4.2.4.4zm-6.3.6c0 .3-.2.5-.4.5s-.4-.2-.4-.5c0-.2.2-.4.4-.4s.4.2.4.4zm5.7 1c0 .2-.1.4-.4.4-.2 0-.4-.2-.4-.4s.2-.4.4-.4c.3 0 .4.2.4.4zm-2.5.7c0 .2-.2.4-.5.4-.2 0-.3-.2-.3-.4 0-.3.1-.5.3-.5a.47.47 0 0 1 .5.5zm-2.7.2c0 .3-.2.5-.4.5s-.4-.2-.4-.5c0-.2.2-.3.4-.3s.4.1.4.3zm4.6.5c0 .2-.1.4-.4.4-.2 0-.4-.2-.4-.4s.2-.5.4-.5c.3 0 .4.3.4.5zm-2.2 1.1c0 .3-.3.5-.5.5s-.4-.2-.4-.5c0-.2.2-.4.4-.4s.5.2.5.4z" fill-rule="evenodd"/></g><use xlink:href="#A" transform="rotate(180 92.03 141.871)"/><use xlink:href="#B" transform="rotate(180 93.653 140.557)"/></svg>