<svg xmlns="http://www.w3.org/2000/svg" xmlns:xlink="http://www.w3.org/1999/xlink" height="280" width="180" xmlns:v="https://vecta.io/nano"><g id="A"><path d="M34.028 90.991L13.044 30.973c-.024-.126 6.411-3.101 6.707-3.101.06 0 46.447 118.094 46.51 118.406.023.114-10.907 4.592-11.208 4.592-.037 0-9.498-26.946-21.025-59.881z" fill="#00a"/><path fill="#acf" d="M42.996 75.147L25.069 29.318c.494-.801 6.461-5.326 9.767-7.409 14.137-8.904 32.655-13.296 51.066-12.11l.655.042 14.84 33.391 14.861 33.37c.011-.011-3.286-12.253-7.328-27.203l-7.381-27.373-.032-.189 1.084-.237c13.92-3.039 23.112-7.124 30.602-13.598.471-.408.94-.829 1.041-.936s.219-.194.256-.194c.064 0 28.449 71.588 28.516 71.919.046.231-.863 1.685-1.829 2.925-8.593 11.031-30.127 22.677-45.881 24.813-9.773 1.325-16.404-.946-19.456-6.661-.431-.807-.46-.72.575-1.723 5.224-5.066 13.274-9.282 16.64-8.715 3.068.517 2.477 4.157-1.791 11.028l-.433.698.36-.383c13.276-14.093 11.798-21.207-3.158-15.187-15.561 6.264-36.541 21.872-46.321 34.46-.354.455-.663.828-.688.828s-8.141-20.577-18.036-45.726z"/></g><path d="M67.473 65.657c-11.028-4.604-14.16-8.084-13.46-15.162.36-3.381 2.367-8.29 4.586-10.805 3.514-4.116 4.905-4.678 10.199-4.121 8.322.844 15.754 7.225 15.105 13.095-.557 5.294-6.582 18.945-8.549 19.416-.779.207-4.367-.932-7.882-2.424z" fill="#dfc800" id="B"/><g fill="#fe0000" id="C" transform="rotate(338 131.672 -103.529)"><path d="M12.035 31.675c-.7-1.7-.3-3 .8-3 1 0 2 1.1 2.1 2.5.1 2 .3 2 1.1 0 .6-1.4 1.8-2.5 2.8-2.5s1.3 1.3.6 3c-.6 1.6-2.3 3-3.7 3s-3.1-1.4-3.7-3z"/><path d="M2.535 21.875c-3.2-5.3-3.3-6.5-.7-11.5 1.6-3.1 5.4-6.9 8.4-8.5 4.7-2.5 6.2-2.5 11 0 3 1.5 6.8 5.4 8.4 8.5 2.6 5 2.5 6.2-.6 11.3-3 5-4.7 5.8-13.2 5.9-8.7.2-10.1-.4-13.3-5.7zm26.8-4.6c2.9-1.7-.5-4.1-7.2-5.2-8-1.3-20.5.9-20.3 3.7.2 3.9 21.2 5.1 27.5 1.5zm-10.4-14.5c-1.6-1-4-1.3-5.5-.8-4.3 1.7-3.2 2.7 2.8 2.6 4 0 4.7-.5 2.7-1.8z" fill-rule="evenodd"/></g><path d="M56.559 48.285c.358-3.919 2.283-5.56 8.774-8.182s9.015-2.78 11.995-.209c3.408 2.829 3.298 3.09-1.307 3.44-2.71.232-6.589 1.044-8.628 1.868S62 48.136 59.796 49.889c-3.462 2.909-3.723 2.798-3.237-1.604zm5.02 12.424c-3.446-2.922-3.335-3.182 1.176-3.495 2.841-.177 6.681-1.082 8.721-1.906s5.431-2.841 7.505-4.65c3.555-2.946 3.816-2.836 3.367 1.66-.395 3.827-2.283 5.56-8.774 8.182s-9.053 2.687-11.995.209z" fill="#0000fe" id="D"/><use xlink:href="#A" transform="rotate(180 92.03 141.871)"/><use xlink:href="#B" transform="rotate(180 91.932 138.747)"/><use xlink:href="#C" transform="rotate(180 91.822 138.815)"/><use xlink:href="#D" transform="rotate(180 92.443 137.284)"/></svg>