<svg xmlns="http://www.w3.org/2000/svg" xmlns:xlink="http://www.w3.org/1999/xlink" height="280" width="180" xmlns:v="https://vecta.io/nano"><g id="A"><path d="M34.028 90.991L13.044 30.973c-.024-.126 6.411-3.101 6.707-3.101.06 0 46.447 118.094 46.51 118.406.023.114-10.907 4.592-11.208 4.592-.037 0-9.498-26.946-21.025-59.881z" fill="#806600"/><path fill="#e9ddaf" d="M42.996 75.147L25.069 29.318c.494-.801 6.461-5.326 9.767-7.409 14.137-8.904 32.655-13.296 51.066-12.11l.655.042 14.84 33.391 14.861 33.37c.011-.011-3.286-12.253-7.328-27.203l-7.381-27.373-.032-.189 1.084-.237c13.92-3.039 23.112-7.124 30.602-13.598.471-.408.94-.829 1.041-.936s.219-.194.256-.194c.064 0 28.449 71.588 28.516 71.919.046.231-.863 1.685-1.829 2.925-8.593 11.031-30.127 22.677-45.881 24.813-9.773 1.325-16.404-.946-19.456-6.661-.431-.807-.46-.72.575-1.723 5.224-5.066 13.274-9.282 16.64-8.715 3.068.517 2.477 4.157-1.791 11.028l-.433.698.36-.383c13.276-14.093 11.798-21.207-3.158-15.187-15.561 6.264-36.541 21.872-46.321 34.46-.354.455-.663.828-.688.828s-8.141-20.577-18.036-45.726z"/></g><use xlink:href="#A" transform="rotate(180 92.03 141.871)"/><g id="B" transform="matrix(1.335145 -.539433 .539433 1.335145 -223.05842 -29.502749)" fill-rule="evenodd"><g fill="#f8e700"><g stroke="#000" stroke-width=".8"><path d="M166.015 129.044c-.117-.152-4.858.207-8.096-.146-6.752.603-1.867-11.432 2.205-8.673 1.819 1.886 5.211 6.307 5.891 8.819z"/><path d="M166.178 129.177c-.19.025-2.25 4.311-4.175 6.938-2.853 6.149-10.834-4.099-6.409-6.246 2.543-.632 8.068-1.359 10.583-.692zm.197-.914c.117.152 4.858-.207 8.096.146 6.752-.603 1.867 11.432-2.205 8.673-1.819-1.886-5.211-6.307-5.891-8.819z"/><path d="M166.598 128.827c-.074.177 2.609 4.104 3.921 7.084 3.898 5.546-8.967 7.333-8.613 2.427.724-2.519 2.857-7.667 4.692-9.511zm-.739-.639c.19-.025 2.25-4.311 4.175-6.938 2.853-6.149 10.834 4.099 6.409 6.246-2.543.632-8.068 1.359-10.583.692z"/><path d="M165.616 128.244c.074-.177-2.609-4.104-3.921-7.084-3.898-5.546 8.967-7.333 8.613-2.427-.724 2.519-2.857 7.667-4.692 9.511z"/></g><path d="M165.193 128.633c-.117-.152-4.037.618-7.274.265-6.647.655-1.395-11.196 2.205-8.673 1.819 1.886 4.389 5.896 5.069 8.408zm.422-.858c.074-.177-2.609-3.634-3.921-6.614-3.741-5.336 9.27-6.93 8.613-2.427-.724 2.519-2.857 7.197-4.692 9.042zm.714.061c.19-.025 2.001-3.787 3.529-6.644 3.067-5.735 10.729 4.44 6.585 6.305-2.543.632-7.598 1.007-10.114.34zm.926.956c.117.152 3.978-.736 7.215-.382 6.583-.688 1.435 11.216-2.205 8.673-1.819-1.886-4.33-5.779-5.01-8.291zm-.775.682c-.074.177 2.726 3.458 4.038 6.438 3.97 5.402-8.743 6.885-8.613 2.427.724-2.519 2.74-7.021 4.575-8.866zm-1.006-.121c-.19.025-1.545 4.135-3.47 6.762-2.626 5.997-10.592-4.26-6.409-6.246 2.543-.632 7.363-1.183 9.879-.516z"/></g><path fill="#b15d23" d="M169.596 129.073c0 2.188-1.59 3.963-3.552 3.963s-3.552-1.774-3.552-3.963 1.59-3.963 3.552-3.963 3.552 1.774 3.552 3.963z"/><path fill="#e45b36" d="M166.044 132.397c-1.717 0-3.108-1.51-3.108-3.373s1.391-3.666 3.108-3.666 3.343 1.745 3.342 3.608c-.039 2.023-1.882 3.597-3.342 3.432z"/></g><use xlink:href="#B" transform="rotate(180 93.236 139.508)"/></svg>