<svg xmlns="http://www.w3.org/2000/svg" xmlns:xlink="http://www.w3.org/1999/xlink" height="280" width="180" xmlns:v="https://vecta.io/nano"><g id="A"><path d="M28.028 90.991L7.044 30.973c-.024-.126 6.411-3.101 6.707-3.101.06 0 46.447 118.094 46.51 118.406.023.114-10.907 4.592-11.208 4.592-.037 0-9.498-26.946-21.025-59.881z" fill="#782121"/><path fill="#e9afaf" d="M36.996 75.147L19.069 29.318c.494-.801 6.461-5.326 9.767-7.409 14.137-8.904 32.655-13.296 51.066-12.11l.655.042 14.84 33.391 14.861 33.37c.011-.011-3.286-12.253-7.328-27.203l-7.381-27.373-.032-.189 1.084-.237c13.92-3.039 23.112-7.124 30.602-13.598.471-.408.94-.829 1.041-.936.106-.106.219-.194.256-.194.064 0 28.449 71.588 28.516 71.919.046.231-.863 1.685-1.829 2.925-8.593 11.031-30.127 22.677-45.881 24.813-9.773 1.325-16.404-.946-19.456-6.661-.431-.807-.46-.72.575-1.723 5.224-5.066 13.274-9.282 16.64-8.715 3.068.517 2.477 4.157-1.791 11.028l-.433.698.36-.383c13.276-14.093 11.798-21.207-3.158-15.187-15.561 6.264-36.541 21.872-46.321 34.46-.354.455-.663.828-.688.828s-8.141-20.577-18.036-45.726z"/></g><g id="B" transform="matrix(1.019902 -.412067 .412067 1.019902 -23.85741 25.084769)" stroke="#000"><path stroke-linejoin="round" fill="#f6ff00" d="M53.057 39.128h20.934v20.934L63.524 70.529 53.057 60.062V39.128" stroke-linecap="round" paint-order="stroke fill markers" stroke-width="3"/><g stroke-width=".153"><path d="M57.559 56.677c.871.714 1.321 1.732 1.405 2.706-.974-.084-1.992-.533-2.705-1.405v3.528c.714-.871 1.731-1.321 2.705-1.405-.084.974-.533 1.992-1.405 2.705h3.528c-.871-.714-1.321-1.731-1.405-2.705.974.084 1.992.533 2.705 1.405v-3.528c-.714.871-1.731 1.321-2.705 1.405.084-.974.533-1.992 1.405-2.706z" fill="red"/><path d="M66.597 41.718c.871.714 1.321 1.732 1.405 2.706-.974-.084-1.992-.533-2.705-1.404v3.528c.714-.871 1.731-1.321 2.705-1.404-.084.974-.533 1.992-1.405 2.705h3.528c-.871-.714-1.321-1.731-1.405-2.705.974.084 1.992.533 2.705 1.404V43.02c-.714.871-1.731 1.321-2.705 1.404.084-.974.533-1.992 1.405-2.706z" fill="#00f"/></g><g stroke-linejoin="round" stroke-width=".157"><path d="M53.057 43.274v3.233l17.244 17.244 1.616-1.616z" fill="#00f"/><path d="M53.057 39.97v3.232L71.953 62.1l1.616-1.616L53.056 39.97z"/><path d="M53.057 39.128v.767l20.551 20.55.383-.383v-2.465l-18.469-18.47h-2.464z" fill="red"/></g></g><use xlink:href="#A" transform="rotate(180 92.03 141.871)"/><use xlink:href="#B" transform="rotate(180 93.367 138.672)"/></svg>