<svg xmlns="http://www.w3.org/2000/svg" xmlns:xlink="http://www.w3.org/1999/xlink" width="180" height="280" xmlns:v="https://vecta.io/nano"><style><![CDATA[.K{fill-rule:evenodd}]]></style><g class="K"><path d="M84 272c-1.6-1.1-5.9-2-9.4-2-4.8 0-7.7-1.7-12.2-7.2-5.5-6.6-6.1-6.9-8.2-3.5-1.8 3.2-2.4 3.3-4.1.7-1.1-1.6-2.1-7.3-2.1-12.5 0-7.2-.7-9.5-3.1-9.5-2.5 0-2.6.8-.8 4.2 3.1 5.8 1.3 6.6-5.9 2.9-10.8-5.6-10.7-18.7.1-24.3 7.1-3.6 8.9-2.7 5.8 3-1.8 3.4-1.7 4.2.8 4.2 2.1 0 3.1-1.9 3.1-6 0-3.3-.8-6-1.9-6-1 0-3.2-2.8-4.9-6.2-2.6-5.3-2.6-5.8-.1-3.8 1.6 1.4 2.9 3.7 2.9 5.2 0 1.6.9 2.8 2 2.8s2-3.6 2-8c0-7.2-.7-8.3-7.7-11.8-4.2-2.2-10.4-7.1-13.8-10.9-6.9-7.9-14.5-26.4-14.5-35.4 0-3.2-.9-5.9-2-5.9s-2-.9-2-2 5.6-2 12.7-2h12.7l1.2-13c1.6-16.3 3-19.1 18.1-34.5C61.6 81.4 66.3 78 70.2 78c7 0 8.5-5.8 3.6-13.3-2.4-3.6-3.8-9.3-3.8-15.2 0-6.7-.8-9.5-2.8-9.5-5 0-8.3-5.9-5.6-10.1 1.3-2.1 2.4-5.1 2.4-6.5 0-3.7 7.5-10.2 16.7-14.5 6.4-3 8.8-3.2 14.1-1.2 3.6 1.3 8.8 2.3 11.7 2.3 3.5 0 7.1 2.3 11.1 7.2 5.5 6.6 6.1 6.9 8.2 3.5 1.8-3.2 2.4-3.3 4.1-.7 1.1 1.7 2.1 7.3 2.1 12.5 0 7.2.7 9.5 3.1 9.5 2.5 0 2.6-.8.8-4.2-3.1-5.8-1.3-6.6 5.9-2.9 10.8 5.6 10.7 18.7-.1 24.3-7.1 3.6-8.9 2.7-5.8-3 1.8-3.4 1.7-4.2-.8-4.2-2.1 0-3.1 1.9-3.1 6 0 3.3.8 6 1.9 6 1 0 3.2 2.8 4.9 6.2 2.6 5.3 2.6 5.8.1 3.8-1.6-1.4-2.9-3.7-2.9-5.2 0-1.6-.9-2.8-2-2.8s-2 3.6-2 8c0 7.2.7 8.3 7.7 11.8 4.2 2.2 10.4 7.1 13.8 10.9 6.9 7.9 14.5 26.4 14.5 35.4 0 3.2.9 5.9 2 5.9s2 .9 2 2-5.6 2-12.7 2h-12.7l-1.2 13c-1.6 16.3-3 19.1-18.1 34.5-8.9 9.1-13.6 12.5-17.5 12.5-7 0-8.5 5.8-3.6 13.3 2.4 3.6 3.8 9.3 3.8 15.2 0 6.7.8 9.5 2.8 9.5 5 0 8.3 5.9 5.6 10.1-1.3 2.1-2.4 5.1-2.4 6.5 0 3.5-7.3 10-15.8 14.1-7.8 3.8-11.9 4.1-16.2 1.3zm-21.1-36.7c3-2.2 3.2-3.3 1.2-7.2-1.8-3.3-1.9-5.1-.3-6.7 1.2-1.2 2.2-3.8 2.2-5.7s1.4-4.3 3.2-5.3c2.9-1.6 2.9-2.1-.2-5.1-1.8-1.8-5.5-3.3-8.1-3.3-4.1 0-4.9 1-4.9 6 0 7.5 3.4 7.9 4.6.5l.8-5.5.3 5.6c.2 3.3-.9 6-2.7 6.7-2.2.8-3 4.2-3 11.9 0 11.4.9 12.5 6.9 8.1zM124 72c0-7.5-3.4-7.9-4.6-.5l-.8 5.5-.3-5.6c-.2-3.3.9-6 2.7-6.7 2.2-.8 3-4.2 3-11.9 0-11.4-.9-12.5-6.9-8.1-3 2.2-3.2 3.3-1.2 7.2 1.8 3.3 1.9 5.1.3 6.7-1.2 1.2-2.2 3.8-2.2 5.7s-1.4 4.3-3.2 5.3c-2.9 1.6-2.9 2.1.2 5.1 1.8 1.8 5.5 3.3 8.1 3.3 4.1 0 4.9-1 4.9-6zm25.5 126.8c-7.4-3.9-11.8-12.7-9-17.9 1.9-3.7 12.9-14.9 14.5-14.9s12.6 11.2 14.5 14.9c2.8 5.3-1.7 14-9.1 17.9-4.7 2.4-6.2 2.4-10.9 0zM18 108.6c-8.5-8.3-10-12.7-6.8-19 1.6-3.1 5.3-6.8 8.4-8.4 4.7-2.4 6.2-2.4 10.9 0 7.4 3.9 11.8 12.7 9 17.9-2.4 4.6-13.1 15-15.1 14.7-.8-.1-3.6-2.4-6.4-5.2z" fill="#fec9cc"/><path d="M84 272c-1.6-1.1-5.9-2-9.4-2-4.8 0-7.7-1.7-12.2-7.2-5.5-6.6-6.1-6.9-8.2-3.5-1.8 3.2-2.4 3.3-4.1.7-1.1-1.6-2.1-7.3-2.1-12.5 0-7.2-.7-9.5-3.1-9.5-2.5 0-2.6.8-.8 4.2 3.1 5.8 1.3 6.6-5.9 2.9-10.8-5.6-10.7-18.7.1-24.3 7.1-3.6 8.9-2.7 5.8 3-1.8 3.4-1.7 4.2.8 4.2 2.1 0 3.1-1.9 3.1-6 0-3.3-.8-6-1.9-6-1 0-3.2-2.8-4.9-6.2-2.6-5.3-2.6-5.8-.1-3.8 1.6 1.4 2.9 3.7 2.9 5.2 0 1.6.9 2.8 2 2.8s2-3.6 2-8c0-7.2-.7-8.3-7.7-11.8-4.2-2.2-10.4-7.1-13.8-10.9-6.9-7.9-14.5-26.4-14.5-35.4 0-3.2-.9-5.9-2-5.9s-2-.9-2-2 5.6-2 12.7-2h12.7l1.2-13c1.6-16.3 3-19.1 18.1-34.5C61.6 81.4 66.3 78 70.2 78c7 0 8.5-5.8 3.6-13.3-2.4-3.6-3.8-9.3-3.8-15.2 0-6.7-.8-9.5-2.8-9.5-5 0-8.3-5.9-5.6-10.1 1.3-2.1 2.4-5.1 2.4-6.5 0-3.7 7.5-10.2 16.7-14.5 6.4-3 8.8-3.2 14.1-1.2 3.6 1.3 8.8 2.3 11.7 2.3 3.5 0 7.1 2.3 11.1 7.2 5.5 6.6 6.1 6.9 8.2 3.5 1.8-3.2 2.4-3.3 4.1-.7 1.1 1.7 2.1 7.3 2.1 12.5 0 7.2.7 9.5 3.1 9.5 2.5 0 2.6-.8.8-4.2-3.1-5.8-1.3-6.6 5.9-2.9 10.8 5.6 10.7 18.7-.1 24.3-7.1 3.6-8.9 2.7-5.8-3 1.8-3.4 1.7-4.2-.8-4.2-2.1 0-3.1 1.9-3.1 6 0 3.3.8 6 1.9 6 1 0 3.2 2.8 4.9 6.2 2.6 5.3 2.6 5.8.1 3.8-1.6-1.4-2.9-3.7-2.9-5.2 0-1.6-.9-2.8-2-2.8s-2 3.6-2 8c0 7.2.7 8.3 7.7 11.8 4.2 2.2 10.4 7.1 13.8 10.9 6.9 7.9 14.5 26.4 14.5 35.4 0 3.2.9 5.9 2 5.9s2 .9 2 2-5.6 2-12.7 2h-12.7l-1.2 13c-1.6 16.3-3 19.1-18.1 34.5-8.9 9.1-13.6 12.5-17.5 12.5-7 0-8.5 5.8-3.6 13.3 2.4 3.6 3.8 9.3 3.8 15.2 0 6.7.8 9.5 2.8 9.5 5 0 8.3 5.9 5.6 10.1-1.3 2.1-2.4 5.1-2.4 6.5 0 3.5-7.3 10-15.8 14.1-7.8 3.8-11.9 4.1-16.2 1.3zm19.7-42c-.7-10.9-1.7-14.6-4.8-16.9-5-3.8-10.8-3.9-18.4-.1-7.7 3.9-8.5 6.1-7.1 19.8l1.2 11.2h29.9zM80 237c0-1.7 1.3-3 3-3a3.01 3.01 0 0 1 3 3 3.08 3.08 0 0 1-3 3 3.01 3.01 0 0 1-3-3zm15.3 0c.6-1.7 2.4-3 3.9-3s2.8 1.3 2.8 3c0 1.6-1.8 3-3.9 3-2.7 0-3.6-1-2.8-3zm-32.4-1.7c3-2.2 3.2-3.4 1.2-7.2-1.8-3.3-1.9-5.2-.3-6.8 1.2-1.2 2.2-3.8 2.2-5.9 0-2.4 2.2-4.6 6-6.1 3.3-1.2 6-2.8 6-3.6s3.6-2 8.1-2.8c6.3-1 9-.5 12 2.2 3.7 3.4 3.9 3.3 3.9-1.3 0-3.3-2.3-6.4-6.8-9.5l-6.8-4.6-10.2 4.4c-10.1 4.3-12.1 6.5-8.2 8.9 1.1.6 2 2.1 2 3.2s-1.4.6-3.2-1.1c-1.7-1.7-5.3-3.1-8-3.1-4 0-4.8.9-4.8 6 0 7.5 3.4 7.9 4.6.5l.8-5.5.3 5.5c.2 3.3-.9 6.1-2.7 6.7-2.2.9-3 4.2-3 12 0 11.3.9 12.4 6.9 8.1zm25.6-18.5c.7-.7 2.4-.8 3.9-.2 1.6.6 1.1 1.1-1.2 1.2-2.2.1-3.3-.4-2.7-1zm1.8 17.1c-.2-2.8.6-6.1 1.8-7.3 3.3-3.2-9.9-5.3-13.9-2.1-2.9 2.2-2.9 2.1-.4-1.1 2.2-2.8 5.1-3.5 12.9-3 5.5.3 10.1 1.5 10.3 2.6s-.1 1.3-.5.5c-1.5-2.7-4.5-1.7-4.5 1.5 0 1.6-.9 3-1.9 3s-2.2 2.4-2.7 5.5c-.8 5.4-.8 5.4-1.1.4zM60 186c2.8-5.3-.7-12-6.2-12-5.2 0-13.8-5.8-13.8-9.3s-7.3-3.6-8.6 0c-1.4 3.5 5.7 19.1 10.1 22.5 5.5 4.1 16 3.4 18.5-1.2zm-14-2.1c-2.7-1.7-2.7-2.2 0-3.9 1.6-1.1 4.8-1.9 7-1.7 3.4.2 3.4.3-.5 1.1-5.4 1-5.9 3.9-1 5.2 2.5.6 2.6 1 .5 1.1-1.7.1-4.4-.7-6-1.8zm102.6-68.6c1.3-3.5-5.7-19.2-10.2-22.6-5.4-4.1-15.9-3.4-18.4 1.3-2.8 5.2.7 12 6.1 12 5.3 0 13.9 5.7 13.9 9.2s7.2 3.6 8.6.1zm-21.1-14.8c5.3-1 5.9-3.9 1-5.2-2.5-.6-2.6-.9-.5-1.1 1.6-.1 4.3.7 6 1.8 2.7 1.7 2.7 2.2 0 3.9-1.7 1.1-4.8 1.9-7 1.8-3.5-.3-3.4-.4.5-1.2zm-25.4-14.8c5.4-2.3 9.9-4.8 9.8-5.5-.2-4.8-9.9-11.1-9.9-6.4 0 1-3.7 2.4-8.1 3.2-6.3 1-9 .6-12-2.2-3.8-3.3-3.9-3.3-3.9 1.4 0 3.1 2.3 6.3 6.5 9.3 3.5 2.4 6.7 4.5 7.1 4.5s5.1-2 10.5-4.3zM124 72c0-7.6-3.5-7.9-4.6-.5l-.8 5.5-.3-5.6c-.2-3.3.9-6 2.7-6.7 2.1-.8 3-4.2 3-12 0-11.3-1-12.4-6.9-8.1-3.1 2.3-3.2 3.4-1.2 7.2 1.8 3.3 1.9 5.2.3 6.8-1.2 1.2-2.2 3.7-2.2 5.7 0 1.9-1.4 4.3-3.2 5.2-2.9 1.7-2.9 2.1.2 5.1 1.8 1.9 5.5 3.4 8.1 3.4 4.1 0 4.9-1 4.9-6zm-24.5-5.1c7.7-3.8 8.5-6 7.1-19.8L105.4 36H75.5l.8 13.9c.6 11 1.7 14.6 4.8 17 5 3.8 10.8 3.8 18.4 0zm-13-4.1c.7-.7 2.4-.8 3.9-.2 1.6.6 1.1 1.1-1.2 1.2-2.2.1-3.3-.4-2.7-1zm-7.6-5c-.7-1.1-.8-2.6-.1-3.3.6-.7 1.2-.2 1.2 1.1s.9 2.4 2 2.4 2-1.4 2-3c0-1.7.9-3 2-3s2.1-2.5 2.3-5.5c.2-4.9.3-5 1.1-.9.5 2.5-.1 5.8-1.3 7.2-3.1 3.7 9.2 6.1 13.7 2.7 2.8-2.3 2.9-2.1.4 1-3.1 3.9-21 5-23.3 1.3zM78 43c0-1.7 1.8-3 3.9-3 2.7 0 3.6.9 2.8 3-.6 1.6-2.4 3-3.9 3-1.6 0-2.8-1.4-2.8-3zm16 0c0-1.7 1.3-3 3-3a3.01 3.01 0 0 1 3 3 3.08 3.08 0 0 1-3 3 3.01 3.01 0 0 1-3-3zm55.5 155.7c-7.4-3.9-11.8-12.6-9.1-17.8 2-3.7 13-14.9 14.6-14.9s12.6 11.2 14.5 14.9c2.8 5.2-1.7 14-9.1 17.8-4.7 2.5-6.2 2.5-10.9 0zM18 108.6c-8.5-8.4-10-12.8-6.8-19.1 1.6-3 5.3-6.7 8.3-8.3 4.8-2.5 6.3-2.5 11 0 7.4 3.9 11.8 12.6 9 17.8-2.4 4.7-13.1 15.1-15.1 14.7-.8-.1-3.7-2.4-6.4-5.1z" fill="#ccc9cc"/><path d="M84 272c-1.6-1.1-5.9-2-9.4-2-4.8 0-7.7-1.7-12.2-7.2-5.5-6.6-6.1-6.9-8.2-3.5-1.8 3.2-2.4 3.3-4.1.7-1.1-1.6-2.1-7.3-2.1-12.5 0-7.2-.7-9.5-3.1-9.5-2.5 0-2.6.8-.8 4.2 3.1 5.8 1.3 6.6-5.9 2.9-10.8-5.6-10.7-18.7.1-24.3 7.1-3.6 8.9-2.7 5.8 3-1.8 3.4-1.7 4.2.8 4.2 2.1 0 3.1-1.9 3.1-6 0-3.3-.8-6-1.9-6-1 0-3.2-2.8-4.9-6.2-2.6-5.3-2.6-5.8-.1-3.8 1.6 1.4 2.9 3.7 2.9 5.2 0 1.6.9 2.8 2 2.8s2-3.6 2-8c0-7.2-.7-8.3-7.7-11.8-4.2-2.2-10.4-7.1-13.8-10.9-6.9-7.9-14.5-26.4-14.5-35.4 0-3.2-.9-5.9-2-5.9s-2-.9-2-2 5.6-2 12.7-2h12.7l1.2-13c1.6-16.3 3-19.1 18.1-34.5C61.6 81.4 66.3 78 70.2 78c7 0 8.5-5.8 3.6-13.3-2.4-3.6-3.8-9.3-3.8-15.2 0-6.7-.8-9.5-2.8-9.5-5 0-8.3-5.9-5.6-10.1 1.3-2.1 2.4-5.1 2.4-6.5 0-3.7 7.5-10.2 16.7-14.5 6.4-3 8.8-3.2 14.1-1.2 3.6 1.3 8.8 2.3 11.7 2.3 3.5 0 7.1 2.3 11.1 7.2 5.5 6.6 6.1 6.9 8.2 3.5 1.8-3.2 2.4-3.3 4.1-.7 1.1 1.7 2.1 7.3 2.1 12.5 0 7.2.7 9.5 3.1 9.5 2.5 0 2.6-.8.8-4.2-3.1-5.8-1.3-6.6 5.9-2.9 10.8 5.6 10.7 18.7-.1 24.3-7.1 3.6-8.9 2.7-5.8-3 1.8-3.4 1.7-4.2-.8-4.2-2.1 0-3.1 1.9-3.1 6 0 3.3.8 6 1.9 6 1 0 3.2 2.8 4.9 6.2 2.6 5.3 2.6 5.8.1 3.8-1.6-1.4-2.9-3.7-2.9-5.2 0-1.6-.9-2.8-2-2.8s-2 3.6-2 8c0 7.2.7 8.3 7.7 11.8 4.2 2.2 10.4 7.1 13.8 10.9 6.9 7.9 14.5 26.4 14.5 35.4 0 3.2.9 5.9 2 5.9s2 .9 2 2-5.6 2-12.7 2h-12.7l-1.2 13c-1.6 16.3-3 19.1-18.1 34.5-8.9 9.1-13.6 12.5-17.5 12.5-7 0-8.5 5.8-3.6 13.3 2.4 3.6 3.8 9.3 3.8 15.2 0 6.7.8 9.5 2.8 9.5 5 0 8.3 5.9 5.6 10.1-1.3 2.1-2.4 5.1-2.4 6.5 0 3.5-7.3 10-15.8 14.1-7.8 3.8-11.9 4.1-16.2 1.3zm19.7-42c-.7-10.9-1.7-14.6-4.8-16.9-5-3.8-10.8-3.9-18.4-.1-7.7 3.9-8.5 6.1-7.1 19.8l1.2 11.2h29.9zM80 237c0-1.7 1.3-3 3-3a3.01 3.01 0 0 1 3 3 3.08 3.08 0 0 1-3 3 3.01 3.01 0 0 1-3-3zm15.3 0c.6-1.7 2.4-3 3.9-3s2.8 1.3 2.8 3c0 1.6-1.8 3-3.9 3-2.7 0-3.6-1-2.8-3zm-32.4-1.7c3-2.2 3.2-3.4 1.2-7.2-1.8-3.3-1.9-5.2-.3-6.8 1.2-1.2 2.2-3.8 2.2-5.9 0-2.4 2.2-4.6 6-6.1 3.3-1.2 6-2.8 6-3.6s3.6-2 8.1-2.8c6.3-1 9-.5 12 2.2 3.7 3.4 3.9 3.3 3.9-1.3 0-3.3-2.3-6.4-6.8-9.5l-6.8-4.6-10.2 4.4c-10.1 4.3-12.1 6.5-8.2 8.9 1.1.6 2 2.1 2 3.2s-1.4.6-3.2-1.1c-1.7-1.7-5.3-3.1-8-3.1-4 0-4.8.9-4.8 6 0 7.5 3.4 7.9 4.6.5l.8-5.5.3 5.5c.2 3.3-.9 6.1-2.7 6.7-2.2.9-3 4.2-3 12 0 11.3.9 12.4 6.9 8.1zm25.6-18.5c.7-.7 2.4-.8 3.9-.2 1.6.6 1.1 1.1-1.2 1.2-2.2.1-3.3-.4-2.7-1zm1.8 17.1c-.2-2.8.6-6.1 1.8-7.3 3.3-3.2-9.9-5.3-13.9-2.1-2.9 2.2-2.9 2.1-.4-1.1 2.2-2.8 5.1-3.5 12.9-3 5.5.3 10.1 1.5 10.3 2.6s-.1 1.3-.5.5c-1.5-2.7-4.5-1.7-4.5 1.5 0 1.6-.9 3-1.9 3s-2.2 2.4-2.7 5.5c-.8 5.4-.8 5.4-1.1.4zm-16.1-39.4c9-4.3 11.6-6.6 11.7-10 0-2.5-.9-4.5-2-4.5-5.4 0-27.9 14.7-27.9 18.2 0 3.2 6.3 1.9 18.2-3.7zm42.7 3.6c1.3-2.1-20.1-18.1-24.2-18.1-1.5 0-2.7 2-2.7 4.5.1 8.6 22.9 20.1 26.9 13.6zM60 186c2.8-5.3-.7-12-6.2-12-5.2 0-13.8-5.8-13.8-9.3s-7.3-3.6-8.6 0c-1.4 3.5 5.7 19.1 10.1 22.5 5.5 4.1 16 3.4 18.5-1.2zm-14-2.1c-2.7-1.7-2.7-2.2 0-3.9 1.6-1.1 4.8-1.9 7-1.7 3.4.2 3.4.3-.5 1.1-5.4 1-5.9 3.9-1 5.2 2.5.6 2.6 1 .5 1.1-1.7.1-4.4-.7-6-1.8zm102.6-68.6c1.3-3.5-5.7-19.2-10.2-22.6-5.4-4.1-15.9-3.4-18.4 1.3-2.8 5.2.7 12 6.1 12 5.3 0 13.9 5.7 13.9 9.2s7.2 3.6 8.6.1zm-21.1-14.8c5.3-1 5.9-3.9 1-5.2-2.5-.6-2.6-.9-.5-1.1 1.6-.1 4.3.7 6 1.8 2.7 1.7 2.7 2.2 0 3.9-1.7 1.1-4.8 1.9-7 1.8-3.5-.3-3.4-.4.5-1.2zm-37.6-5c0-8.6-22.8-20.2-26.8-13.7-1.3 2.1 20.1 18.2 24.2 18.2 1.5 0 2.7-2.1 2.6-4.5zm14.7 1.2c8.6-4.4 19.4-12.8 19.4-15 0-3.1-6.4-1.8-18.2 3.8-9 4.2-11.6 6.5-11.7 10-.1 5.3 1.9 5.6 10.5 1.2zm-2.5-11c5.4-2.3 9.9-4.8 9.8-5.5-.2-4.8-9.9-11.1-9.9-6.4 0 1-3.7 2.4-8.1 3.2-6.3 1-9 .6-12-2.2-3.8-3.3-3.9-3.3-3.9 1.4 0 3.1 2.3 6.3 6.5 9.3 3.5 2.4 6.7 4.5 7.1 4.5s5.1-2 10.5-4.3zM124 72c0-7.6-3.5-7.9-4.6-.5l-.8 5.5-.3-5.6c-.2-3.3.9-6 2.7-6.7 2.1-.8 3-4.2 3-12 0-11.3-1-12.4-6.9-8.1-3.1 2.3-3.2 3.4-1.2 7.2 1.8 3.3 1.9 5.2.3 6.8-1.2 1.2-2.2 3.7-2.2 5.7 0 1.9-1.4 4.3-3.2 5.2-2.9 1.7-2.9 2.1.2 5.1 1.8 1.9 5.5 3.4 8.1 3.4 4.1 0 4.9-1 4.9-6zm-24.5-5.1c7.7-3.8 8.5-6 7.1-19.8L105.4 36H75.5l.8 13.9c.6 11 1.7 14.6 4.8 17 5 3.8 10.8 3.8 18.4 0zm-13-4.1c.7-.7 2.4-.8 3.9-.2 1.6.6 1.1 1.1-1.2 1.2-2.2.1-3.3-.4-2.7-1zm-7.6-5c-.7-1.1-.8-2.6-.1-3.3.6-.7 1.2-.2 1.2 1.1s.9 2.4 2 2.4 2-1.4 2-3c0-1.7.9-3 2-3s2.1-2.5 2.3-5.5c.2-4.9.3-5 1.1-.9.5 2.5-.1 5.8-1.3 7.2-3.1 3.7 9.2 6.1 13.7 2.7 2.8-2.3 2.9-2.1.4 1-3.1 3.9-21 5-23.3 1.3zM78 43c0-1.7 1.8-3 3.9-3 2.7 0 3.6.9 2.8 3-.6 1.6-2.4 3-3.9 3-1.6 0-2.8-1.4-2.8-3zm16 0c0-1.7 1.3-3 3-3a3.01 3.01 0 0 1 3 3 3.08 3.08 0 0 1-3 3 3.01 3.01 0 0 1-3-3zm55.5 155.7c-7.4-3.9-11.8-12.6-9.1-17.8 2-3.7 13-14.9 14.6-14.9s12.6 11.2 14.5 14.9c2.8 5.2-1.7 14-9.1 17.8-4.7 2.5-6.2 2.5-10.9 0zM18 108.6c-8.5-8.4-10-12.8-6.8-19.1 1.6-3 5.3-6.7 8.3-8.3 4.8-2.5 6.3-2.5 11 0 7.4 3.9 11.8 12.6 9 17.8-2.4 4.7-13.1 15.1-15.1 14.7-.8-.1-3.7-2.4-6.4-5.1z" fill="#fe9e00"/><path d="M84 272c-1.6-1.1-5.9-2-9.4-2-4.8 0-7.7-1.7-12.2-7.2-5.5-6.6-6.1-6.9-8.2-3.5-1.8 3.2-2.4 3.3-4.1.7-1.1-1.6-2.1-7.3-2.1-12.5 0-7.2-.7-9.5-3.1-9.5-2.5 0-2.6.8-.8 4.2 3.1 5.8 1.3 6.6-5.9 2.9-10.8-5.6-10.7-18.7.1-24.3 7.1-3.6 8.9-2.7 5.8 3-1.8 3.4-1.7 4.2.8 4.2 2.1 0 3.1-1.9 3.1-6 0-3.3-.8-6-1.9-6-1 0-3.2-2.8-4.9-6.2-2.6-5.3-2.6-5.8-.1-3.8 1.6 1.4 2.9 3.7 2.9 5.2 0 1.6.9 2.8 2 2.8s2-3.6 2-8c0-7.2-.7-8.3-7.7-11.8-4.2-2.2-10.4-7.1-13.8-10.9-6.9-7.9-14.5-26.4-14.5-35.4 0-3.2-.9-5.9-2-5.9s-2-.9-2-2 5.6-2 12.7-2h12.7l1.2-13c1.6-16.3 3-19.1 18.1-34.5C61.6 81.4 66.3 78 70.2 78c7 0 8.5-5.8 3.6-13.3-2.4-3.6-3.8-9.3-3.8-15.2 0-6.7-.8-9.5-2.8-9.5-5 0-8.3-5.9-5.6-10.1 1.3-2.1 2.4-5.1 2.4-6.5 0-3.7 7.5-10.2 16.7-14.5 6.4-3 8.8-3.2 14.1-1.2 3.6 1.3 8.8 2.3 11.7 2.3 3.5 0 7.1 2.3 11.1 7.2 5.5 6.6 6.1 6.9 8.2 3.5 1.8-3.2 2.4-3.3 4.1-.7 1.1 1.7 2.1 7.3 2.1 12.5 0 7.2.7 9.5 3.1 9.5 2.5 0 2.6-.8.8-4.2-3.1-5.8-1.3-6.6 5.9-2.9 10.8 5.6 10.7 18.7-.1 24.3-7.1 3.6-8.9 2.7-5.8-3 1.8-3.4 1.7-4.2-.8-4.2-2.1 0-3.1 1.9-3.1 6 0 3.3.8 6 1.9 6 1 0 3.2 2.8 4.9 6.2 2.6 5.3 2.6 5.8.1 3.8-1.6-1.4-2.9-3.7-2.9-5.2 0-1.6-.9-2.8-2-2.8s-2 3.6-2 8c0 7.2.7 8.3 7.7 11.8 4.2 2.2 10.4 7.1 13.8 10.9 6.9 7.9 14.5 26.4 14.5 35.4 0 3.2.9 5.9 2 5.9s2 .9 2 2-5.6 2-12.7 2h-12.7l-1.2 13c-1.6 16.3-3 19.1-18.1 34.5-8.9 9.1-13.6 12.5-17.5 12.5-7 0-8.5 5.8-3.6 13.3 2.4 3.6 3.8 9.3 3.8 15.2 0 6.7.8 9.5 2.8 9.5 5 0 8.3 5.9 5.6 10.1-1.3 2.1-2.4 5.1-2.4 6.5 0 3.5-7.3 10-15.8 14.1-7.8 3.8-11.9 4.1-16.2 1.3zm13.9-3.9c3.3-6.2 2.5-10-2.8-12.4-9.8-4.5-20.7 8.9-11.6 14.1 5.6 3.3 12.2 2.5 14.4-1.7zm5.8-38.1c-.7-10.9-1.7-14.6-4.8-16.9-5-3.8-10.8-3.9-18.4-.1-7.7 3.9-8.5 6.1-7.1 19.8l1.2 11.2h29.9zM80 237c0-1.7 1.3-3 3-3a3.01 3.01 0 0 1 3 3 3.08 3.08 0 0 1-3 3 3.01 3.01 0 0 1-3-3zm15.3 0c.6-1.7 2.4-3 3.9-3s2.8 1.3 2.8 3c0 1.6-1.8 3-3.9 3-2.7 0-3.6-1-2.8-3zm-32.4-1.7c3-2.2 3.2-3.4 1.2-7.2-1.8-3.3-1.9-5.2-.3-6.8 1.2-1.2 2.2-3.8 2.2-5.9 0-2.4 2.2-4.6 6-6.1 3.3-1.2 6-2.8 6-3.6s3.6-2 8.1-2.8c6.3-1 9-.5 12 2.2 3.7 3.4 3.9 3.3 3.9-1.3 0-3.3-2.3-6.4-6.8-9.5l-6.8-4.6-10.2 4.4c-10.1 4.3-12.1 6.5-8.2 8.9 1.1.6 2 2.1 2 3.2s-1.4.6-3.2-1.1c-1.7-1.7-5.3-3.1-8-3.1-4 0-4.8.9-4.8 6 0 7.5 3.4 7.9 4.6.5l.8-5.5.3 5.5c.2 3.3-.9 6.1-2.7 6.7-2.2.9-3 4.2-3 12 0 11.3.9 12.4 6.9 8.1zm25.6-18.5c.7-.7 2.4-.8 3.9-.2 1.6.6 1.1 1.1-1.2 1.2-2.2.1-3.3-.4-2.7-1zm1.8 17.1c-.2-2.8.6-6.1 1.8-7.3 3.3-3.2-9.9-5.3-13.9-2.1-2.9 2.2-2.9 2.1-.4-1.1 2.2-2.8 5.1-3.5 12.9-3 5.5.3 10.1 1.5 10.3 2.6s-.1 1.3-.5.5c-1.5-2.7-4.5-1.7-4.5 1.5 0 1.6-.9 3-1.9 3s-2.2 2.4-2.7 5.5c-.8 5.4-.8 5.4-1.1.4zm-16.1-39.4c9-4.3 11.6-6.6 11.7-10 0-2.5-.9-4.5-2-4.5-5.4 0-27.9 14.7-27.9 18.2 0 3.2 6.3 1.9 18.2-3.7zm42.7 3.6c1.3-2.1-20.1-18.1-24.2-18.1-1.5 0-2.7 2-2.7 4.5.1 8.6 22.9 20.1 26.9 13.6zm-37.2-19c3.6-1.2 8.7-14.4 11.4-29.6l1.3-7.5H77.3l4.7 5c3.7 3.9 4.2 5.6 2.4 7.4-1.9 1.8-4.1.7-10-5-7.2-7.1-18.4-10.4-18.4-5.5 0 1.1 1.1 1.5 2.5 1 1.4-.6 7.9 4.4 14.4 11 9.4 9.5 11.4 12.5 9.5 14.5-1.9 1.9-5-.1-14.4-9.5-9.1-9-12-10.9-12-7.9 0 2.1 4.2 8.1 9.4 13.4 7.3 7.4 8.9 10.1 7 11.9-1.9 1.9-3.9 1-9.4-4.3-7.9-7.6-9.2-6.8-2.8 1.8 3.4 4.6 3.8 6.4 1.9 9.9-1.2 2.4-2.7 4.3-3.3 4.3-.5 0 0-1.8 1.2-4 2.8-5.3-.7-12-6.2-12-5.2 0-13.8-5.8-13.8-9.3s-7.3-3.6-8.6 0c-1.4 3.5 5.7 19.1 10.1 22.5 1.9 1.5 6.5 2.7 10.1 2.7 4.3 0 6.1.8 5.3 2.3-.8 1.2 3.2-1 8.9-4.9s11.9-7.6 13.9-8.2zM46 183.9c-2.7-1.7-2.7-2.2 0-3.9 1.6-1.1 4.8-1.9 7-1.7 3.4.2 3.4.3-.5 1.1-5.4 1-5.9 3.9-1 5.2 2.5.6 2.6 1 .5 1.1-1.7.1-4.4-.7-6-1.8zm71.2 3.2c-.8-3.2-2.3-4.6-4-3.9-4.3 1.6-6-3.1-2.6-6.9 2.4-2.7 2.5-3.8.5-5.7-2-1.8-3.3-1.6-5.8.9-2.6 2.6-3.8 2.8-5.7.9s-1-3.9 4-9c7.1-7.4 9.5-16.9 2.7-10.7-2 1.8-4.6 3.3-5.7 3.3-1.8 0-5.1 11.8-5.5 19.3-.1 2.4 21.2 18.9 22.6 17.6.4-.4.2-3-.5-5.8zm26.4-34l.9-11.1h-14.3c-12.9 0-14.2.3-14.2 4 0 4.8 1.5 5 6.4.6 2.8-2.6 4.2-2.8 6-1s1.1 3.7-3 8c-5.1 5.3-7.1 10.4-4 10.4.8 0 4.8-3.4 9-7.4 5.9-5.8 8.1-6.9 10-5s.1 4.7-8.1 13c-7.7 7.8-10.1 11.6-9.1 14.2 1.2 3 2.7 2.2 10.4-5.5 8.1-8.1 9.1-10.2 10-20.2zM48 155c0-7.2-.8-13-1.8-13-1.8 0-4.4 21.8-2.8 24.5 2.7 4.6 4.6-.1 4.6-11.5zm58-12.2c0-.4-.9-.8-2-.8s-2 .9-2 2.1c0 1.1.9 1.5 2 .9 1.1-.7 2-1.7 2-2.2zM64 134c0-4.9-1.6-5.1-6.4-.7-2.8 2.6-4.3 2.8-6 1-1.8-1.8-1.1-3.6 3-7.9 5.1-5.4 7-10.4 4-10.4-.8 0-4.9 3.3-9 7.4-6 5.8-8.1 6.8-10 4.9-1.9-1.8-.1-4.7 8.2-13.1 8.1-8.3 10.2-11.6 8.8-14-1.5-2.7-3.1-1.8-10.5 5.7-7.8 7.9-8.9 10.1-9.7 20l-.9 11.1h14.2c13 0 14.3-.4 14.3-4zm14 1.8c0-1.1-.9-1.5-2-.8-2.6 1.5-2.6 3 0 3 1.1 0 2-1 2-2.2zm20-2.9c-3.7-3.8-4.2-5.5-2.4-7.4 1.9-1.8 4.1-.7 10 5.1 7.2 7 18.4 10.3 18.4 5.4 0-1-1.1-1.5-2.5-.9-1.4.5-7.9-4.5-14.5-11.1-9.3-9.4-11.3-12.5-9.4-14.4 1.9-2 5 .1 14.4 9.4 9.1 9 12 10.9 12 8 0-2.2-4.2-8.2-9.4-13.5-7.4-7.4-8.9-10-7-11.9s3.9-.9 9.4 4.4c7.8 7.6 9.1 6.7 2.8-1.9-3.4-4.6-3.8-6.4-1.9-9.9 2.5-4.7-.1-5.8-3.7-1.5-1.2 1.4-5.7 4.2-9.9 6.1-6.5 3-8.2 5-10.9 13.8-1.7 5.7-3.8 13.7-4.5 17.9l-1.4 7.5h15.2zm38.3-4l.5-12.3c.1-1.9-.9-3.8-2.3-4.2-1.8-.6-2.5 2.7-2.5 12.3 0 14.8 3.8 18.4 4.3 4.2zm-56.9-5c1.2 0 2.6-2.9 3.3-6.5.6-3.6 1.7-8.3 2.3-10.5 1-3.3-1.2-5.8-10.9-12.6-8-5.7-12.1-7.6-12.1-5.6 0 5.3 2.3 8.9 5 7.9 4.1-1.5 5.8 3.3 2.4 6.7-2.3 2.4-2.5 3.7-.7 5.7 1.9 2 3 1.9 5.9-.7 2.7-2.4 4.1-2.6 5.9-.8s.8 3.9-4.1 9c-7.1 7.3-9.5 16.9-2.7 10.7 2-1.8 4.6-3.3 5.7-3.3zm69.2-8.7c1.4-3.5-5.7-19.2-10.1-22.6-1.9-1.4-6.4-2.6-9.9-2.6-5.6-.1-6.2-.6-5.4-5.1 1.2-6.6-2.5-6.5-17.4.5-9 4.2-11.6 6.5-11.7 10 0 2.5.8 4.5 2 4.5 2.4 0 14.9-6.6 21.3-11.2 4.2-3 4.4-3 3.6 1-.4 2.3-1.3 5.1-2 6.2-2 3.2 2.9 10 7.2 10 5.2 0 13.8 5.7 13.8 9.2 0 3.6 7.3 3.6 8.6.1zm-21.1-14.7c5.4-1.1 5.9-4 1-5.2-2.5-.7-2.6-1-.5-1.2 1.7-.1 4.4.7 6 1.8 2.7 1.8 2.7 2.2 0 4-1.6 1-4.8 1.8-7 1.7-3.4-.2-3.4-.4.5-1.1zM90 95.4c-.1-8.6-22.9-20.1-26.9-13.6-1.3 2.1 20.1 18.1 24.2 18.1 1.5 0 2.7-2 2.7-4.5zm12.1-9.8c5.5-2.3 9.9-4.8 9.8-5.5-.2-4.8-9.9-11.1-9.9-6.4 0 1-3.6 2.5-8.1 3.2-6.3 1.1-9 .6-12-2.1-3.7-3.4-3.9-3.4-3.9 1.3.1 3.1 2.3 6.4 6.5 9.3 3.6 2.5 6.8 4.5 7.1 4.5.4 0 5.1-1.9 10.5-4.3zM124 71.9c0-7.5-3.4-7.9-4.6-.5l-.8 5.5-.3-5.6c-.2-3.3.9-6 2.7-6.7 2.2-.8 3-4.2 3-11.9 0-11.4-.9-12.5-6.9-8.2-3 2.3-3.2 3.4-1.2 7.3 1.8 3.3 1.9 5.1.3 6.7-1.2 1.2-2.2 3.8-2.2 5.7s-1.4 4.3-3.2 5.3c-2.9 1.6-2.8 2 .2 5.1 1.8 1.8 5.5 3.3 8.2 3.3 4 0 4.8-1 4.8-6zm-24.5-5.1c7.7-3.8 8.5-6 7.1-19.7l-1.1-11.2H75.6l.7 13.9c.7 11 1.7 14.6 4.8 17 5.1 3.8 10.8 3.8 18.4 0zm-12.9-4.1c.6-.7 2.3-.8 3.8-.2 1.6.7 1.1 1.1-1.2 1.2-2.1.1-3.3-.4-2.6-1zm-7.7-4.9c-.7-1.2-.7-2.7-.1-3.4.7-.6 1.2-.1 1.2 1.2 0 1.2.9 2.3 2 2.3s2-1.4 2-3c0-1.7.9-3 2-3s2.1-2.5 2.3-5.5c.2-4.9.4-5 1.1-.9.5 2.5-.1 5.8-1.3 7.2-3.1 3.8 9.3 6.2 13.7 2.7 2.8-2.2 2.9-2.1.5 1-3.1 4-21.1 5-23.4 1.4zM78 42.9c0-1.7 1.8-3 3.9-3 2.7 0 3.6.9 2.8 3-.6 1.6-2.4 3-3.9 3s-2.8-1.4-2.8-3zm16 0a3.01 3.01 0 0 1 3-3c1.7 0 3 1.3 3 3a3.01 3.01 0 0 1-3 3 3.08 3.08 0 0 1-3-3zm1.6-20.1c5.5-3.9 5.7-10.1.3-13-6.6-3.5-12.6-1.6-14.8 4.8-1.7 4.7-1.3 6.1 1.8 8.5 4.9 3.6 7.2 3.5 12.7-.3zm53.9 175.8c-3-1.5-6.7-5.3-8.3-8.4-2.6-5-2.6-6.2.5-11.4 3-4.9 4.7-5.7 13.2-5.8 8.7-.2 10.1.4 13.3 5.7 3.2 5.2 3.3 6.4.7 11.5-1.6 3.1-5.4 6.9-8.4 8.5-4.8 2.4-6.3 2.4-11-.1zm10.5-1.9c0-.5-2.5-.8-5.5-.8-4 0-4.7.5-2.7 1.8 2.6 1.6 8.2.9 8.2-1zm8.5-10.2c2.9-1.7-.4-4.1-7.1-5.2-8-1.3-20.4 1-20.3 3.7.3 3.9 21.2 5.1 27.4 1.5zm-17.2-17.6c.6-1.7 2.3-3 3.7-3s3.1 1.3 3.7 3c.7 1.6.3 3-.8 3-1 0-2-1.1-2-2.5-.2-2-.4-2-1.2 0-.6 1.4-1.8 2.5-2.8 2.5s-1.2-1.4-.6-3zm-130-58c-.6-1.7-.3-3 .8-3 1 0 2 1.1 2.1 2.5.1 2 .3 2 1.1 0 .6-1.4 1.8-2.5 2.8-2.5s1.3 1.3.6 3c-.6 1.6-2.3 3-3.7 3s-3.1-1.4-3.7-3zm-9.5-9.8c-3.2-5.3-3.2-6.5-.6-11.5 1.6-3.1 5.3-6.9 8.3-8.5 4.7-2.4 6.2-2.4 11 0 3 1.6 6.8 5.4 8.4 8.5 2.6 5 2.5 6.2-.6 11.3-3 5-4.7 5.8-13.2 5.9-8.7.2-10.1-.4-13.3-5.7zm26.7-4.6c2.9-1.7-.4-4.1-7.1-5.2-8-1.3-20.4 1-20.3 3.7.3 3.9 21.2 5.1 27.4 1.5zM28.2 82c-1.6-.9-4-1.3-5.5-.7-4.2 1.6-3.2 2.6 2.8 2.6 4-.1 4.7-.6 2.7-1.9z" fill="#9b989b"/><path d="M84 272c-1.6-1.1-5.9-2-9.4-2-4.8 0-7.7-1.7-12.2-7.2-5.5-6.6-6.1-6.9-8.2-3.5-1.8 3.2-2.4 3.3-4.1.7-1.1-1.6-2.1-7.3-2.1-12.5 0-7.4-.7-9.5-3.2-9.5s-2.8-.6-1.1-2.6c1.6-2 1.6-3.3-.1-5-1.9-1.9-1.6-2.4 1-2.4 2.4 0 3.4-1.7 3.4-6 0-3.3-.8-6-1.9-6-1 0-3.2-2.8-4.9-6.2-2.6-5.3-2.6-5.8-.1-3.8 1.6 1.4 2.9 3.7 2.9 5.2 0 1.6.9 2.8 2 2.8s2-3.6 2-8c0-7.2-.7-8.3-7.7-11.8-4.2-2.2-10.4-7.1-13.8-10.9-6.9-7.9-14.5-26.4-14.5-35.4 0-3.2-.9-5.9-2-5.9s-2-.9-2-2 5.6-2 12.7-2h12.7l1.2-12.9c1.5-16.1 4.2-21.3 18.1-34.9 10.7-10.5 11-10.7 10.1-4.9-1.1 7.1 3.9 20.5 6.2 16.7.9-1.4.3-3.2-1.2-4.2q-2.8-1.7-.4-1.8c4.1 0 5.1 4.1 2 7.6-2.4 2.7-2.5 3.8-.5 5.7 2 1.8 3.3 1.6 5.8-.9 2.6-2.5 3.8-2.7 5.7-.8s1 3.8-4.4 8.9l-6.8 6.4c.3 1.2.7 2.5 1.1 4.2 2.5 8.6 7.7 14.7 7.7 8.9 0-1.2-1.1-1.6-2.5-.8s-.8-.5 1.3-2.9c4.5-5.1 2.9-8.1-2.3-4.1-3.2 2.5-3.3 2.5-.8-.7 1.6-1.9 4-3.5 5.5-3.5 1.6 0 2.8-1.5 2.8-3.3 0-6.5 4.6-18.5 7.6-19.7 5.7-2.1 7 2.2 3.7 12.3-1.7 5.3-3.7 13.1-4.4 17.2l-1.3 7.5h15.1l-4.7-5c-3.7-3.9-4.2-5.6-2.4-7.4 1.9-1.9 4.1-.7 10 5 4.7 4.6 9.5 7.4 12.6 7.4 4.4 0 5-.9 5.3-7.5.2-6.4-1.2-8.9-9.1-17-7.2-7.4-8.7-10-6.8-11.9s3.9-.9 9.4 4.4c7.9 7.7 9.1 6.7 2.6-2.1l-4.4-5.9 4.4-5.9c3.2-4.3 4.4-8.8 4.4-16 0-10.7-3.2-13.9-4.6-4.6l-.8 5.5-.3-5.6c-.2-3.3.9-6 2.7-6.7 2.2-.8 3-4.2 3-11.9 0-11.4-.9-12.5-6.9-8.1-3 2.2-3.2 3.3-1.2 7.2 1.8 3.3 1.9 5.1.3 6.7-1.2 1.2-2.2 3.8-2.2 5.7s-1.4 4.3-3.2 5.3c-2.9 1.6-2.8 2.1.3 5.2 1.8 1.9 2.9 3.9 2.3 4.5s-2.3-.8-3.7-3.1c-2.7-4.2-7.7-5.8-7.7-2.4 0 1-3.7 2.5-8.1 3.2-6.2 1.1-9 .6-11.9-2-3.5-3.1-3.7-3.1-4.6.3q-.8 3.6-.4-.7c.2-2.4-1.3-6.9-3.3-10-2.3-3.5-3.7-9.2-3.7-15.1 0-6.7-.8-9.5-2.8-9.5-5 0-8.3-5.9-5.6-10.1 1.3-2.1 2.4-5.1 2.4-6.5 0-3.7 7.5-10.2 16.7-14.5 6.4-3 8.8-3.2 14.1-1.2 3.6 1.3 8.8 2.3 11.7 2.3 3.5 0 7.1 2.3 11.1 7.2 5.5 6.6 6.1 6.9 8.2 3.5 1.8-3.2 2.4-3.3 4.1-.7 1.1 1.7 2.1 7.3 2.1 12.5 0 7.4.7 9.5 3.2 9.5s2.8.6 1.1 2.6c-1.6 2-1.6 3.3.1 5 1.9 1.9 1.6 2.4-1 2.4-2.4 0-3.4 1.7-3.4 6 0 3.3.8 6 1.9 6 1 0 3.2 2.8 4.9 6.2 2.6 5.3 2.6 5.8.1 3.8-1.6-1.4-2.9-3.7-2.9-5.2 0-1.6-.9-2.8-2-2.8s-2 3.6-2 8c0 7.2.7 8.3 7.7 11.8 4.2 2.2 10.4 7.1 13.8 10.9 6.9 7.9 14.5 26.4 14.5 35.4 0 3.2.9 5.9 2 5.9s2 .9 2 2-5.6 2-12.7 2h-12.7l-1.2 12.9c-1.5 16.1-4.2 21.3-18.1 34.9-10.7 10.5-11 10.7-10.1 4.9 1.1-7.1-3.9-20.5-6.2-16.7-.9 1.4-.3 3.2 1.2 4.2q2.8 1.7.4 1.8c-4.1 0-5.2-4.2-2-7.5 2.4-2.3 2.5-3.6.7-5.6s-3-1.9-5.8.6-4.1 2.7-6 .8c-1.8-1.8-.8-3.8 4.5-8.8l6.8-6.4c-.3-1.2-.7-2.5-1.1-4.2-2.5-8.6-7.7-14.7-7.7-8.9 0 1.2 1.1 1.6 2.5.8s.8.5-1.3 2.9c-4.5 5.1-2.9 8.1 2.3 4.1 3.2-2.5 3.3-2.5.8.7-1.6 1.9-4 3.5-5.5 3.5-1.6 0-2.8 1.5-2.8 3.3 0 6.5-4.6 18.5-7.6 19.7-5.7 2.1-7-2.2-3.7-12.3 1.7-5.3 3.7-13.1 4.4-17.2l1.3-7.5H77.3l4.7 5c3.7 3.9 4.2 5.6 2.4 7.4-1.9 1.9-4.1.7-10-5-4.7-4.6-9.5-7.4-12.6-7.4-4.4 0-5 .9-5.3 7.5-.2 6.4 1.2 8.9 9.1 17 7.2 7.4 8.7 10 6.8 11.9s-3.9.9-9.4-4.4c-7.9-7.7-9.1-6.7-2.6 2.1l4.4 5.9-4.4 5.9c-3.2 4.3-4.4 8.8-4.4 16 0 10.7 3.2 13.9 4.6 4.6l.8-5.5.3 5.6c.2 3.3-.9 6-2.7 6.7-2.2.8-3 4.2-3 11.9 0 11.4.9 12.5 6.9 8.1 3-2.2 3.2-3.3 1.2-7.2-1.8-3.3-1.9-5.1-.3-6.7 1.2-1.2 2.2-3.8 2.2-5.7s1.4-4.3 3.2-5.3c2.9-1.6 2.8-2.1-.3-5.2-1.8-1.9-2.9-3.9-2.3-4.5s2.3.8 3.7 3.1c2.7 4.2 7.7 5.8 7.7 2.4 0-1 3.7-2.5 8.1-3.2 6.2-1.1 9-.6 11.9 2 3.5 3.1 3.7 3.1 4.6-.3q.8-3.6.4.7c-.2 2.4 1.3 6.9 3.3 10 2.3 3.5 3.7 9.2 3.7 15.1 0 6.7.8 9.5 2.8 9.5 5 0 8.3 5.9 5.6 10.1-1.3 2.1-2.4 5.1-2.4 6.5 0 3.5-7.3 10-15.8 14.1-7.8 3.8-11.9 4.1-16.2 1.3zM69.2 122.9q0 0 0 0l-.1.1zm5.7-6.4c7-7.8 5.1-11.4-2.2-4.2-4.1 4.1-4.8 5.2-3.5 10.6zm35.9 40.6q0 0 0 0l.1-.1zm-5.7 6.3c-7 7.8-5.1 11.5 2.1 4.2 4.1-4.1 4.9-5.1 3.6-10.5zM97.9 268c3.3-6.2 2.5-10-2.8-12.4-9.8-4.5-20.7 8.9-11.6 14.1 5.6 3.3 12.2 2.5 14.4-1.7zM53 234.9c.1-10.3-.4-18.3-.9-17.7-.6.5-1.1 9.4-1.1 19.7-.1 10.3.4 18.3.9 17.7.6-.5 1.1-9.4 1.1-19.7zm50.7-5c-.7-10.9-1.7-14.6-4.8-16.9-5-3.8-10.8-3.9-18.4-.1-7.7 3.9-8.5 6.1-7.1 19.8l1.2 11.2h29.9zm-21.7 6c0-1.1.9-2 2-2s2 .9 2 2-.9 2-2 2-2-.9-2-2zm16 0c0-1.1.9-2 2-2s2 .9 2 2-.9 2-2 2-2-.9-2-2zm-20.1-12.6c2.1-2.8 5-3.5 12.8-3 5.5.3 10.1 1.5 10.3 2.6s-.1 1.3-.5.5c-1.4-2.5-19.5-1.7-22.5 1-2.4 2.1-2.4 1.9-.1-1.1zM60 185.9c2.8-5.3-.7-12-6.2-12-5.2 0-13.8-5.8-13.8-9.3s-7.3-3.6-8.6 0c-1.4 3.5 5.7 19.1 10.1 22.5 5.5 4.1 16 3.4 18.5-1.2zm78.3-10.7c2.6-4.8 3.8-10.3 5.1-22.8l1.1-10.5h-14.3c-12.9 0-14.2.3-14.2 4 0 4.8 1.5 5 6.4.6 2.8-2.6 4.2-2.8 6-1s1.1 3.7-3 8c-5.1 5.3-7.1 10.4-4 10.4.8 0 4.8-3.4 9-7.4 5.9-5.8 8.1-6.9 10-5s.2 4.7-8 12.9c-10.1 10.3-10.3 10.8-8 17l2.4 6.4 4.8-4.5c2.6-2.4 5.6-6.1 6.7-8.1zm-6.3-.3c3.7-3.9 7.2-7 7.8-7 .5 0-2.1 3.1-5.8 7-3.7 3.8-7.2 7-7.8 7-.5 0 2.1-3.2 5.8-7zm-60 1.4c0-.9-3.6-5.1-8-9.4-9.5-9.3-11-5.3-1.6 4.4 6.2 6.4 9.6 8.2 9.6 5zm67.4-23.7c-2-2-15.4 11.3-15.4 15.1 0 1.9 3.1 0 8.4-5.3 4.6-4.6 7.7-9 7-9.8zM48 154.9c0-7.2-.8-13-1.8-13-1.8 0-4.4 21.8-2.8 24.5 2.7 4.6 4.6-.1 4.6-11.5zm77-3.1c2-2.2 3-4.6 2.3-5.3-1.4-1.4-9.3 5-9.3 7.7 0 2.9 3.2 1.8 7-2.4zm-41 .7c0-2.7-8.8-10.6-11.7-10.6-2.1 0-1.3 1.8 2.7 6 5.5 5.7 9 7.5 9 4.6zm-20-18.6c0-4.9-1.6-5.1-6.4-.7-2.8 2.6-4.3 2.8-6 1-1.8-1.8-1.1-3.6 3-7.9 5.1-5.4 7-10.4 4-10.4-.8 0-4.9 3.3-9 7.4-6 5.8-8.1 6.8-10 4.9-1.9-1.8-.2-4.7 8-13 10.4-10.5 10.5-10.6 7.8-17.1l-2.8-6.5-6.3 7.2c-3.5 4-6.4 7.8-6.5 8.6 0 .8-.6 3.3-1.1 5.5s-1.5 8.7-2.1 14.5l-1.1 10.5h14.2c13 0 14.3-.4 14.3-4zm-18-29c3.7-3.9 7.2-7 7.8-7 .5 0-2.1 3.1-5.8 7-3.7 3.8-7.2 7-7.8 7-.5 0 2.1-3.2 5.8-7zm58.5 26.6c-3.5-3.6-7-5.8-7.8-5-1.9 1.9 7.3 11.4 11.1 11.4 2.1 0 1.1-2.1-3.3-6.4zm31.8-2.6l.5-12.4c.1-1.8-.9-3.7-2.3-4.1-1.8-.7-2.5 2.6-2.5 12.3 0 14.7 3.8 18.4 4.3 4.2zm-77.3.9c2-2.2 3-4.6 2.3-5.3-1.4-1.4-9.3 5-9.3 7.7 0 2.9 3.2 1.8 7-2.4zm-9.6-8.3c3.6-3.5 6.6-7.8 6.6-9.4 0-1.9-3-.1-8 4.8-7.6 7.4-9.7 11-6.6 11 .8 0 4.4-2.9 8-6.4zm67.9-13.3c-3.9-3.9-7.8-6.5-8.6-5.7s2.1 5 6.4 9.5c4.3 4.4 8.2 7 8.6 5.7s-2.5-5.5-6.4-9.5zm31.3 7c1.3-3.5-5.7-19.2-10.2-22.6-5.4-4.1-15.9-3.4-18.4 1.3-2.8 5.2.7 12 6.1 12 5.3 0 13.9 5.7 13.9 9.2s7.2 3.6 8.6.1zM99.5 66.8c7.7-3.8 8.5-6 7.1-19.8l-1.2-11.1H75.5l.8 13.9c.6 11 1.7 14.6 4.8 17 5 3.8 10.8 3.8 18.4 0zm-20.6-9.1c-.7-1.1-.8-2.6-.1-3.3.6-.7 1.2-.2 1.2 1.1 0 3.2 18.4 3.1 22-.1 2.4-2.2 2.4-2 .1 1-3 3.9-20.9 5-23.2 1.3zM78 43.9c0-1.1.9-2 2-2s2 .9 2 2-.9 2-2 2-2-.9-2-2zm16 0c0-1.1.9-2 2-2s2 .9 2 2-.9 2-2 2-2-.9-2-2zm35-1.1c.1-10.3-.4-18.2-.9-17.7-.6.6-1.1 9.5-1.1 19.8-.1 10.3.3 18.3.9 17.7s1.1-9.5 1.1-19.8zM95.5 22.7c5.6-3.9 5.8-10 .4-12.9-6.6-3.5-12.6-1.6-14.8 4.8-1.7 4.7-1.4 6.1 1.8 8.5 4.9 3.5 7.2 3.5 12.6-.4zm-58 222c-10.1-5.5-9.7-18.6.8-24 7.5-3.9 9.2-2.5 5 4-2.1 3.2-2.5 5.4-1.2 6.2 1.4.9 1.4 2.1.2 3.6-1.3 1.6-1 3.7.9 6.2 5.4 7.4 3.3 8.9-5.7 4zm2.5-5.8c-1.6-2-1.6-3.1 0-4 1.6-1 1.6-2.1 0-4s-1.6-3.1-.1-4c1.2-.7 1.6-2.2.9-3.3-2-3.3-8.2 3.8-7.9 9.1.3 5.6 4.8 11.6 7.4 10 1.1-.7 1-2.3-.3-3.8zm-3.3.5c-2.8-4.4-2.2-11.5 1.1-14.1 2.8-2.1 2.9-2 .6.9-1.8 2.3-2 3.7-.4 4.7 1.5.9 1.5 2.1.1 3.8s-1.3 3.2.3 4.8c1.3 1.3 1.8 2.4 1.1 2.4s-2-1.2-2.8-2.5zm112.8-40.8c-3-1.6-6.8-5.4-8.4-8.5-2.6-5-2.5-6.2.6-11.3 3-4.9 4.7-5.7 13.2-5.9 8.7-.1 10.1.5 13.3 5.7 3.2 5.3 3.3 6.5.6 11.6-1.6 3.1-5.3 6.9-8.4 8.4-4.7 2.5-6.2 2.5-10.9 0zm10.5-2c0-.4-2.5-.7-5.5-.7-4 0-4.7.5-2.7 1.8 2.6 1.6 8.2.9 8.2-1.1zm8.5-10.1c2.9-1.7-.4-4.1-7.1-5.2-8-1.3-20.5.9-20.3 3.6.2 4 21.1 5.1 27.4 1.6zM67.9 160.4L57 148.9l11.4 10.8c6.3 6 12.2 10.2 13 9.4s-4-6.9-10.7-13.4c-6.8-6.5-11.7-11.8-10.9-11.8 3 0 24.6 23.7 23.3 25.8-2.2 3.6-3.8 2.6-15.2-9.3zm83.4 8.5c.6-1.7 2.3-3 3.7-3s3.1 1.3 3.7 3c.6 1.6.3 3-.8 3-1 0-2-1.2-2.1-2.5-.1-2-.3-2-1.1 0-.6 1.3-1.8 2.5-2.8 2.5s-1.3-1.4-.6-3zm-44.3-45c-9.4-9.5-11.3-12.5-9.4-14.5 2-1.9 4.9.1 13.9 9.5l11.5 11.9-11.5-10.8c-6.3-6-12.1-10.2-12.9-9.4-.9.9 4 6.9 10.7 13.4 6.8 6.5 11.7 11.9 10.9 11.9-.7 0-6.7-5.4-13.2-12zm-85.7-13c-.7-1.7-.3-3 .8-3 1 0 2 1.1 2 2.5.2 2 .4 2 1.2 0 .6-1.4 1.8-2.5 2.8-2.5s1.2 1.3.6 3c-.6 1.6-2.3 3-3.7 3s-3.1-1.4-3.7-3zm-9.5-9.8c-3.2-5.3-3.3-6.5-.7-11.5 1.6-3.1 5.4-6.9 8.4-8.5 4.7-2.5 6.2-2.5 10.9 0 3.1 1.6 6.8 5.4 8.4 8.5 2.6 5 2.6 6.2-.5 11.3-3 5-4.7 5.7-13.2 5.9-8.7.2-10.1-.4-13.3-5.7zm26.7-4.6c2.9-1.7-.4-4.1-7.1-5.2-8-1.3-20.5.9-20.3 3.6.2 4 21.1 5.1 27.4 1.6zM28.2 82c-1.6-1-4.1-1.3-5.5-.7-4.3 1.6-3.2 2.6 2.8 2.5 4 0 4.7-.5 2.7-1.8zM134 60.2c0-.8 1.3-3.3 2.8-5.5 1.9-2.5 2.2-4.6.9-6.2-1.2-1.5-1.2-2.7.2-3.6 1.3-.8.9-3-1.2-6.2-4.3-6.5-2.5-7.9 5.1-4 10.6 5.5 10.7 18.7.1 24.2-6.5 3.4-7.9 3.6-7.9 1.3zm13.1-13.1c-.3-5.6-4.8-11.7-7.4-10-1.2.7-1 2.2.3 3.8 1.6 1.9 1.6 3 0 4-1.6.9-1.6 2 0 4 1.5 1.8 1.6 3 .1 3.9-1.2.7-1.6 2.2-.9 3.3 2 3.3 8.2-3.8 7.9-9zm-5.4 6.4c1.8-2.4 1.9-3.7.2-4.7-1.6-1-1.6-2-.1-3.5s1.4-3.1-.4-5.3c-2.1-2.7-2-2.8.8-.7 3.8 3 3.7 11.5-.2 15-2.4 2.2-2.4 2.1-.3-.8z" fill="#9b9800"/><path d="M78.6 16.6C77.6 21.9 66 27.8 66 23c0-2.6 9.1-11 12-11 .8 0 1 2.1.6 4.6zM30.4 81.3c3.1 1.5 6.8 5.3 8.4 8.4 2.6 5 2.6 6.3-.5 11.4-3 4.9-4.7 5.7-13.2 5.8-8.7.2-10.1-.4-13.3-5.6-3.2-5.3-3.3-6.5-.7-11.5 1.6-3.1 5.4-7 8.4-8.5 2.4-1.3 3.9-1.9 5.4-1.9 1.6 0 3.2.6 5.5 1.9zm-7.7.1C18.6 82.9 19.5 84 25 84c-7 0-9.4.9-11.2 4.3-2.1 4-1.9 4.2 2.5 2.8 2.5-.9 6.5-1.5 8.7-1.5s6.2.6 8.8 1.5c4.3 1.4 4.5 1.2 2.4-2.8C34.4 85 32.1 84 25.5 84c4 0 4.7-.6 2.7-1.9-1.2-.7-2.9-1.1-4.3-1q-.7.1-1.2.3zM11.1 95.1c.3 3.9 21.2 5.1 27.5 1.5 2.9-1.6-.5-4.1-7.2-5.2-2-.3-4.3-.4-6.6-.3-6.9.2-13.8 1.9-13.7 4zm2.7 6.6c3.3 6.2 19.1 6.2 22.4 0 2.1-4 1.9-4.2-2.4-2.8-2.6.9-6.6 1.5-8.8 1.5s-6.2-.6-8.7-1.5c-1.7-.5-2.7-.8-3.2-.7-1 .1-.6 1 .7 3.5zm10.4 8.8c.1 2 .3 2 1.1 0 .6-1.4 1.9-2.5 2.8-2.5 1 0 1.3 1.4.7 3-.7 1.7-2.4 3-3.8 3s-3.1-1.3-3.7-3c-.7-1.6-.3-3 .8-3 1 0 2 1.1 2.1 2.5zm129.8 19v8.5h-16v-9c0-8.2.4-9 4.9-9 2.7 0 5.5-1 6.2-2.2q.7-1 1.3-1.1c1.9-.2 3.6 5.2 3.6 12.8zM34 142h8v9c0 8.1-.5 9-4.6 9-2.6 0-5.5 1-6.7 2.1-2.8 2.9-4.7-2-4.7-12.3 0-6.8 0-7.7 5.4-7.8q1.1 0 2.6 0zm124.8 27c.6 1.7.2 3-.9 3-1 0-2-1.1-2.1-2.5-.1-2-.3-2-1.1 0-.6 1.4-1.9 2.5-2.8 2.5-1 0-1.3-1.3-.6-3 .6-1.6 2.3-3 3.7-3s3.1 1.4 3.8 3zm9.4 9.8c3.2 5.2 3.3 6.5.7 11.5-1.6 3.1-5.4 6.9-8.5 8.5-4.7 2.4-6.2 2.4-10.9 0-3-1.6-6.8-5.4-8.4-8.5-2.6-5-2.5-6.3.6-11.4 3-4.9 4.7-5.7 13.2-5.8 8.7-.2 10.1.4 13.3 5.7zm-24.4-.5c-2.1 4-1.9 4.2 2.5 2.8 2.5-.9 6.5-1.5 8.7-1.5s6.2.6 8.8 1.5c4.3 1.4 4.5 1.2 2.4-2.8-1.8-3.4-4.2-4.3-11.2-4.3s-9.4.9-11.2 4.3zm-2.7 6.8c.3 3.9 21.2 5.1 27.5 1.5 2.9-1.6-.5-4.1-7.2-5.2-2-.3-4.3-.4-6.6-.3-6.9.2-13.8 1.9-13.7 4zm2.7 6.6c1.8 3.3 4.1 4.3 10.7 4.3-4 0-4.7.6-2.7 1.9 2.6 1.6 8.2.9 8.2-1.1 0-.4-2.2-.8-5-.8 7 0 9.4-.9 11.2-4.3 2.1-4 1.9-4.2-2.4-2.8-2.6.9-6.6 1.5-8.8 1.5s-6.2-.6-8.7-1.5c-1.7-.5-2.7-.8-3.2-.7-1 .1-.6 1 .7 3.5zM114 257c0 1.5-2.4 4.6-5.2 6.9-6.8 5.3-8.5 5.2-7.4-.5.8-4 7.5-8.3 10.8-8.1 1.1 0 1.8.5 1.8 1.7z" fill="#fe0000"/></g><path d="M98.8 24.2c-1.2.1-2.8.8-5 1.9-2.8 1.5-5.8 1.4-10.8-.4-5.9-2.1-8-2-13.9.9-3.9 1.8-7.1 4.8-7.1 6.5 0 4.6 8.3 7.1 12.2 3.7 2.1-1.9 8.1-2.8 17.4-2.8h14.3l-2.3-5c-1.6-3.5-2.7-4.9-4.8-4.8zM25 84c-7 0-9.4.9-11.2 4.3-2.1 4-1.9 4.2 2.5 2.8 2.5-.9 6.5-1.5 8.7-1.5s6.2.6 8.8 1.5c4.3 1.4 4.5 1.2 2.4-2.8C34.4 84.9 32 84 25 84zm107.7.9c-.4.1-.7.2-.7.6 0 .9 2 2.4 4.5 3.5 6.4 2.8 19.3 29.7 19.4 40.5.1 7.7.6 8.5 5.1 8.5 4.2 0 5-1 5-5.9 0-8.3-7.4-27-13.4-34.2-4.5-5.3-16.9-13.1-19.9-13zM13.1 98.2c-1 .1-.6 1 .7 3.5 3.3 6.2 19.1 6.2 22.4 0 2.1-4 1.9-4.2-2.4-2.8-2.6.9-6.6 1.5-8.8 1.5s-6.2-.6-8.7-1.5c-1.7-.5-2.7-.8-3.2-.7zM19 142c-4.2 0-5 1-5 5.9 0 8.3 7.3 27 13.4 34.2 2.8 3.3 8.4 7.8 12.4 9.9 8.5 4.5 8.2 4.4 8.2 2.5 0-.8-2-2.4-4.5-3.5-6.4-2.8-19.3-29.7-19.4-40.5-.1-7.7-.6-8.5-5.1-8.5zm136 32c-7 0-9.4.9-11.2 4.3-2.1 4-1.9 4.2 2.5 2.8 2.5-.9 6.5-1.5 8.7-1.5s6.2.6 8.8 1.5c4.3 1.4 4.5 1.2 2.4-2.8-1.8-3.4-4.2-4.3-11.2-4.3zm-11.9 14.2c-1 .1-.6 1 .7 3.5 1.8 3.4 4.2 4.3 11.2 4.3s9.4-.9 11.2-4.3c2.1-4 1.9-4.2-2.4-2.8-2.6.9-6.6 1.5-8.8 1.5s-6.2-.6-8.7-1.5c-1.7-.5-2.7-.8-3.2-.7zm-32.7 53.4c-1.7 0-3.4.6-4.6 1.7-2.1 1.8-8.1 2.7-17.4 2.7H74.1l2.3 5c2.5 5.5 4 6 9.8 2.9 2.8-1.5 5.8-1.4 10.8.4 5.9 2.1 8 2 13.9-.9 3.9-1.8 7.1-4.8 7.1-6.5 0-3.1-3.9-5.3-7.6-5.3z" fill="#0000fe"/><path d="M106.8 12c-6.2 0-7 7-1.9 16 8.1 14.2 13.2 17.3 16.9 10.5 2.2-4.2-1.7-16.8-6.9-22.6-2-2.2-5.6-3.9-8.1-3.9zM80 42c-1.1 0-2 .9-2 2s.9 2 2 2 2-.9 2-2-.9-2-2-2zm16 0c-1.1 0-2 .9-2 2s.9 2 2 2 2-.9 2-2-.9-2-2-2zm32 24c-1.1 0-2 5-2 11 0 6.1.9 11 2 11s2-4.9 2-11c0-6-.9-11-2-11zM57.9 87.4c-1.5-.4-1.9 4.3.2 11.8 2.3 8.2 6 12.1 5.9 6.3 0-1.4-1.2-6.5-2.7-11.3-1.3-4.4-2.5-6.5-3.4-6.8zM128 108c-1.2 0-2 6.3-2 15s.8 15 2 15 2-6.3 2-15-.8-15-2-15zm-65 2c-2.7 0-5 .9-5 2s2.3 2 5 2c2.8 0 5-.9 5-2s-2.2-2-5-2zm.6 6c-1.2 0-1.5 2.2-.7 5.3.7 2.8 1.8 7.8 2.5 11 1.1 5.4 4.6 8.2 4.6 3.6 0-5.5-4.7-19.9-6.4-19.9zm47.3 25.8c-.5.1-.9.9-.9 2.3 0 5.5 4.7 19.9 6.4 19.9 1.2 0 1.5-2.2.7-5.2l-2.5-11c-.7-3.8-2.6-6.3-3.7-6zM52 142c-1.2 0-2 6.3-2 15s.8 15 2 15 2-6.3 2-15-.8-15-2-15zm65 24c-2.7 0-5 .9-5 2s2.3 2 5 2c2.8 0 5-.9 5-2s-2.2-2-5-2zm-.1 5.6c-.5 0-.9.7-.9 2.4 0 6.1 5 19.8 6.7 18.1 1.2-1.1.9-5.3-.7-11-1.5-5.5-3.8-9.4-5.1-9.5zm-4.1 5.2q-.4-.1-.8.2c-.2.1-.3.3-.5.4.7-.4 1.6.4 2.4 1.8 0-.1.1-.2.1-.3 0-1.3-.5-2.1-1.2-2.1zm1.1 2.4c-.1 1.5-.9 2.8-1.9 2.8q.1.1.3.2c.6.4.9.7 1.1.9 1-.2 1.9.2 2.5 1.1-.6-2-1.2-3.8-2-5zM52 192c-1.1 0-2 5-2 11 0 6.1.9 11 2 11s2-4.9 2-11c0-6-.9-11-2-11zm32 42c-1.1 0-2 .9-2 2s.9 2 2 2 2-.9 2-2-.9-2-2-2zm16 0c-1.1 0-2 .9-2 2s.9 2 2 2 2-.9 2-2-.9-2-2-2zm-37.4 4c-7.4 0-5.8 17 2.5 26.1 5 5.5 12.4 5.1 13.3-.6 1-6.9-10.5-25.5-15.8-25.5z" fill="#9b0000"/><path d="M106.8 12c-6.2 0-7 7-1.9 16 8.1 14.2 13.2 17.3 16.9 10.5 2.2-4.2-1.7-16.8-6.9-22.6-2-2.2-5.6-3.9-8.1-3.9zM62.6 238c-7.4 0-5.8 17 2.5 26.1 5 5.5 12.4 5.1 13.3-.6 1-6.9-10.5-25.5-15.8-25.5z" fill="#009800"/><path d="M84 272c-1.6-1.1-5.9-2-9.4-2-4.8 0-7.7-1.7-12.2-7.2-5.5-6.6-6.1-6.9-8.2-3.5-1.8 3.2-2.4 3.3-4.1.7-1.1-1.6-2.1-7.3-2.1-12.5 0-7.4-.7-9.5-3.2-9.5s-2.8-.6-1.1-2.6c1.6-2 1.6-3.3-.1-5-1.9-1.9-1.6-2.4 1-2.4 2.4 0 3.4-1.7 3.4-6 0-3.3-.8-6-1.9-6-1 0-3.2-2.8-4.9-6.2-2.6-5.3-2.6-5.8-.1-3.8 1.6 1.4 2.9 3.7 2.9 5.2 0 1.6.9 2.8 2 2.8s2-3.6 2-8c0-7.2-.7-8.3-7.7-11.8-4.2-2.2-10.4-7.1-13.8-10.9-6.9-7.9-14.5-26.4-14.5-35.4 0-3.2-.9-5.9-2-5.9s-2-.9-2-2 5.6-2 12.7-2h12.7l1.2-12.9c1.5-16.1 4.2-21.3 18.2-35 10.3-10.1 11-10.4 10.1-5.3-1.4 7.4.6 13.3 4 12 4.2-1.6 5.9 3 2.5 6.8-2.4 2.7-2.5 3.8-.5 5.7 2 1.8 3.3 1.6 5.8-.9 2.6-2.5 3.8-2.7 5.7-.8s1 3.8-4 9c-7.1 7.3-9.6 16.9-2.7 10.7 2-1.8 4.7-3.3 6-3.3 1.2 0 2.4-2 2.5-4.5.1-4.2 5.3-20 5.6-17.3.1.7-1.6 8.4-3.8 17-4.7 19-4.7 18.8-1.2 18.8 1.8 0 3.4-3.2 4.3-8.3 1.5-9 8.5-30.1 8.8-26.5 0 1.3-1.1 5.8-2.6 10.1-1.6 4.3-3.4 11.6-4.2 16.2l-1.5 8.5h15.1l-4.7-5c-3.7-3.9-4.2-5.6-2.4-7.4 1.9-1.9 4.1-.7 10 5 7.2 7 18.4 10.4 18.4 5.5 0-1.1-1.1-1.5-2.5-1s-7.9-4.4-14.4-11c-9.4-9.5-11.4-12.6-9.5-14.5s5 .1 14.4 9.4c9.1 9 12 10.9 12 8 0-2.1-4.2-8.2-9.4-13.4-7.4-7.5-8.9-10.1-7-12s3.9-.9 9.4 4.4c7.9 7.7 9.1 6.7 2.6-2.1l-4.4-5.9 4.4-5.9c3.2-4.3 4.4-8.8 4.4-16 0-10.7-3.2-13.9-4.6-4.6l-.8 5.5-.3-5.6c-.2-3.3.9-6 2.7-6.7 2.2-.8 3-4.2 3-11.9 0-11.4-.9-12.5-6.9-8.1-3 2.2-3.2 3.3-1.2 7.2 1.8 3.3 1.9 5.1.3 6.7-1.2 1.2-2.2 3.8-2.2 5.7s-1.4 4.3-3.2 5.3c-2.9 1.6-2.8 2.1.3 5.2 1.8 1.9 2.9 3.9 2.3 4.5s-2.3-.8-3.7-3.1c-2.7-4.2-7.7-5.8-7.7-2.4 0 1-3.7 2.5-8.1 3.2-6.2 1.1-9 .6-11.9-2-3.5-3.1-3.7-3.1-4.6.3q-.8 3.6-.4-.7c.2-2.4-1.3-6.9-3.3-10-2.3-3.5-3.7-9.2-3.7-15.1 0-6.7-.8-9.5-2.8-9.5-5 0-8.3-5.9-5.6-10.1 1.3-2.1 2.4-5.1 2.4-6.5 0-3.7 7.5-10.2 16.7-14.5 6.4-3 8.8-3.2 14.1-1.2 3.6 1.3 8.8 2.3 11.7 2.3 3.5 0 7.1 2.3 11.1 7.2 5.5 6.6 6.1 6.9 8.2 3.5 1.8-3.2 2.4-3.3 4.1-.7 1.1 1.7 2.1 7.3 2.1 12.5 0 7.4.7 9.5 3.2 9.5s2.8.6 1.1 2.6c-1.6 2-1.6 3.3.1 5 1.9 1.9 1.6 2.4-1 2.4-2.4 0-3.4 1.7-3.4 6 0 3.3.8 6 1.9 6 1 0 3.2 2.8 4.9 6.2 2.6 5.3 2.6 5.8.1 3.8-1.6-1.4-2.9-3.7-2.9-5.2 0-1.6-.9-2.8-2-2.8s-2 3.6-2 8c0 7.2.7 8.3 7.7 11.8 4.2 2.2 10.4 7.1 13.8 10.9 6.9 7.9 14.5 26.4 14.5 35.4 0 3.2.9 5.9 2 5.9s2 .9 2 2-5.6 2-12.7 2h-12.7l-1.2 12.9c-1.5 16.1-4.2 21.3-18.2 35-10.3 10.1-11 10.4-10.1 5.3 1.4-7.4-.6-13.3-4-12-4.1 1.6-6-3.2-2.5-6.7 2.4-2.3 2.5-3.6.7-5.6s-3-1.9-5.8.6-4.1 2.7-5.9.9-.9-3.9 4-9c7.1-7.3 9.6-16.9 2.7-10.7-2 1.8-4.7 3.3-6 3.3-1.2 0-2.4 2-2.5 4.5-.1 4.2-5.3 20-5.6 17.3-.1-.7 1.6-8.4 3.8-17 4.7-19 4.7-18.8 1.2-18.8-1.8 0-3.4 3.2-4.3 8.3-1.5 9-8.5 30.1-8.8 26.5 0-1.3 1.1-5.8 2.6-10.1 1.6-4.3 3.4-11.6 4.2-16.2l1.5-8.5H77.3l4.7 5c3.7 3.9 4.2 5.6 2.4 7.4-1.9 1.9-4.1.7-10-5-7.2-7-18.4-10.4-18.4-5.5 0 1.1 1.1 1.5 2.5 1s7.9 4.4 14.4 11c9.4 9.5 11.4 12.6 9.5 14.5s-5-.1-14.4-9.4c-9.1-9-12-10.9-12-8 0 2.1 4.2 8.2 9.4 13.4 7.4 7.5 8.9 10.1 7 12s-3.9.9-9.4-4.4c-7.9-7.7-9.1-6.7-2.6 2.1l4.4 5.9-4.4 5.9c-3.2 4.3-4.4 8.8-4.4 16 0 10.7 3.2 13.9 4.6 4.6l.8-5.5.3 5.6c.2 3.3-.9 6-2.7 6.7-2.2.8-3 4.2-3 11.9 0 11.4.9 12.5 6.9 8.1 3-2.2 3.2-3.3 1.2-7.2-1.8-3.3-1.9-5.1-.3-6.7 1.2-1.2 2.2-3.8 2.2-5.7s1.4-4.3 3.2-5.3c2.9-1.6 2.8-2.1-.3-5.2-1.8-1.9-2.9-3.9-2.3-4.5s2.3.8 3.7 3.1c2.7 4.2 7.7 5.8 7.7 2.4 0-1 3.7-2.5 8.1-3.2 6.2-1.1 9-.6 11.9 2 3.5 3.1 3.7 3.1 4.6-.3q.8-3.6.4.7c-.2 2.4 1.3 6.9 3.3 10 2.3 3.5 3.7 9.2 3.7 15.1 0 6.7.8 9.5 2.8 9.5 5 0 8.3 5.9 5.6 10.1-1.3 2.1-2.4 5.1-2.4 6.5 0 3.5-7.3 10-15.8 14.1-7.8 3.8-11.9 4.1-16.2 1.3zm13.9-3.9c3.3-6.2 2.5-10-2.8-12.4-9.8-4.5-20.7 8.9-11.6 14.1 5.6 3.3 12.2 2.5 14.4-1.7zm-19.5-4.6c1-6.9-10.5-25.5-15.8-25.5-7.4 0-5.8 17 2.5 26.1 4.9 5.5 12.4 5.1 13.3-.6zm30.3.4c2.9-2.3 5.3-5.4 5.3-6.9 0-4.8-11.6 1.1-12.6 6.4-1.1 5.7.6 5.8 7.3.5zM53 235c.1-10.3-.4-18.3-.9-17.7-.6.5-1.1 9.4-1.1 19.7-.1 10.3.4 18.3.9 17.7.6-.5 1.1-9.4 1.1-19.7zm33.2 18.9c2.8-1.5 5.9-1.4 10.8.4 5.9 2.1 8 2 14-.9 3.8-1.8 7-4.7 7-6.4 0-4.6-8.3-7.2-12.2-3.8-2 1.8-8.1 2.8-17.4 2.8H74.1l2.3 5c2.5 5.5 4 6 9.8 2.9zm17.5-23.9c-.7-10.9-1.7-14.6-4.8-16.9-5-3.8-10.8-3.9-18.4-.1-7.7 3.9-8.5 6.1-7.1 19.8l1.2 11.2h29.9zm-25.8-6.6c2.1-2.8 5-3.5 12.8-3 5.5.3 10.1 1.5 10.3 2.6s-.1 1.3-.5.5c-1.4-2.5-19.5-1.7-22.5 1-2.4 2.1-2.4 1.9-.1-1.1zM54 203c0-6.1-.9-11-2-11s-2 4.9-2 11c0 6 .9 11 2 11s2-5 2-11zm-6-8.6c0-.8-2-2.4-4.5-3.5-6.4-2.8-19.3-29.6-19.4-40.4-.1-7.7-.6-8.5-5.1-8.5-4.2 0-5 .9-5 5.9 0 8.3 7.3 26.9 13.4 34.2 2.8 3.3 8.3 7.7 12.3 9.8 8.6 4.6 8.3 4.5 8.3 2.5zm74-13.3c-2.2-8.1-6-12.5-6-7.2 0 6.2 5 19.8 6.7 18.2 1.2-1.2.9-5.3-.7-11zM60 186c2.8-5.3-.7-12-6.2-12-5.2 0-13.8-5.8-13.8-9.3s-7.3-3.6-8.6 0c-1.4 3.5 5.7 19.1 10.1 22.5 5.5 4.1 16 3.4 18.5-1.2zm78.3-10.7c2.6-4.8 3.8-10.3 5.1-22.8l1.1-10.5h-14.3c-12.9 0-14.2.3-14.2 4 0 4.8 1.5 5 6.4.6 2.8-2.6 4.2-2.8 6-1s1.1 3.7-3 8c-5.1 5.3-7.1 10.4-4 10.4.8 0 4.8-3.4 9-7.4 5.9-5.8 8.1-6.9 10-5s.2 4.7-8 12.9c-10.1 10.3-10.3 10.8-8 17l2.4 6.4 4.8-4.5c2.6-2.4 5.6-6.1 6.7-8.1zm-6.3-.3c3.7-3.9 7.2-7 7.8-7 .5 0-2.1 3.1-5.8 7-3.7 3.8-7.2 7-7.8 7-.5 0 2.1-3.2 5.8-7zm-18 3.8c0-1.7-.9-2.5-2-1.8-2.6 1.6-2.6 5 0 5 1.1 0 2-1.4 2-3.2zm-42-2.4c0-.9-3.6-5.1-8-9.4-9.5-9.3-11-5.3-1.6 4.4 6.2 6.4 9.6 8.2 9.6 5zM54 157c0-8.7-.9-15-2-15-1.2 0-2 6.3-2 15 0 8.6.8 15 2 15 1.1 0 2-6.4 2-15zm53.4 10.6c2.5-2.4 4.6-5.7 4.6-7.4 0-2.1-1.9-1.2-6 2.8-5.8 5.5-7.6 9-4.6 9 .7 0 3.4-2 6-4.4zm-25.4.8c0-2.8-21.9-23.2-23.3-21.8-.8.8 3.4 6.4 9.3 12.4 10.3 10.4 14 12.9 14 9.4zm40-.4c0-1.1-2.3-2-5-2-2.8 0-5 .9-5 2s2.2 2 5 2c2.7 0 5-.9 5-2zm17.4-15.3c-2-2-15.4 11.3-15.4 15.1 0 1.9 3.1 0 8.4-5.3 4.6-4.6 7.7-9 7-9.8zM48 155c0-7.2-.8-13-1.8-13-1.8 0-4.4 21.8-2.8 24.5 2.7 4.6 4.6-.1 4.6-11.5zm-10.6 5c4.1 0 4.6-1 4.6-9v-9h-8c-8 0-8 0-8 7.8 0 10.3 1.8 15.1 4.7 12.3 1.1-1.2 4.2-2.1 6.7-2.1zm79.7-1.3l-2.5-11c-1-5.4-4.6-8.2-4.6-3.6 0 5.4 4.7 19.9 6.4 19.9 1.2 0 1.5-2.3.7-5.3zm7.9-6.8c2-2.2 3-4.6 2.3-5.3-1.4-1.4-9.3 5-9.3 7.7 0 2.9 3.2 1.8 7-2.4zm-41 .7c0-2.7-8.8-10.6-11.7-10.6-2.1 0-1.3 1.8 2.7 6 5.5 5.7 9 7.5 9 4.6zm22-1.6c1.3-1.7 1.9-4.4 1.3-6-1.3-3.5-5.3-4.1-5.3-.9 0 1.1 1.1 1.4 2.5.6s.9.4-1 2.6-3.5 4.6-3.5 5.3c0 2.4 3.4 1.5 6-1.6zm-42-17c0-4.9-1.6-5.1-6.4-.7-2.8 2.6-4.3 2.8-6 1-1.8-1.8-1.1-3.6 3-7.9 5.1-5.4 7-10.4 4-10.4-.8 0-4.9 3.3-9 7.4-6 5.8-8.1 6.8-10 4.9-1.9-1.8-.2-4.7 8-13 7.7-7.7 10.2-11.6 9.2-14.1-1.2-3.1-2.5-2.5-9.6 4.1L39 113l7.5-8.1c8.6-9.3 10.5-16.5 2.3-8.8-8.5 7.9-10.4 12.8-12.2 31.4L35.5 138h14.2c13 0 14.3-.4 14.3-4zm6 1.8c0-5.4-4.7-19.8-6.5-19.8-1.1 0-1.4 2.2-.6 5.2.7 2.9 1.8 7.8 2.4 11 1.1 5.4 4.7 8.2 4.7 3.6zm8 0c0-1.1-1.1-1.4-2.5-.6s-.8-.5 1.3-2.9c4.5-5.1 2.6-8.6-2.1-3.9-1.8 1.8-2.7 4.7-2 6.4 1.3 3.5 5.3 4.3 5.3 1zm26.5-4.2c-3.5-3.6-7-5.8-7.8-5-1.9 1.9 7.3 11.4 11.1 11.4 2.1 0 1.1-2.1-3.3-6.4zM130 123c0-8.7-.9-15-2-15-1.2 0-2 6.3-2 15 0 8.6.8 15 2 15 1.1 0 2-6.4 2-15zm6.3 6l.5-12.4c.1-1.8-.9-3.7-2.3-4.1-1.8-.7-2.5 2.6-2.5 12.3 0 14.7 3.8 18.4 4.3 4.2zm29.7 3c0-8.2-7.3-26.9-13.4-34.2-5.1-6-20.6-15.3-20.6-12.4 0 .9 2 2.5 4.5 3.6 6.4 2.8 19.3 29.6 19.4 40.5.1 7.7.6 8.5 5.1 8.5 4.2 0 5-1 5-6zm-12-2.5c-.1-9.4-2.6-15.5-4.9-11.8-.7 1.3-3.5 2.3-6.2 2.3-4.5 0-4.9.8-4.9 9v9h16zm-95 .4c2-2.2 3.1-4.6 2.4-5.3-1.5-1.4-9.4 5-9.4 7.7 0 2.9 3.3 1.8 7-2.4zm63 2.5c0-2.8-21.8-23.2-23.3-21.8-.8.8 3.4 6.4 9.4 12.4 10.3 10.4 13.9 12.9 13.9 9.4zm-72.6-10.8c3.7-3.5 6.6-7.8 6.6-9.4 0-1.9-3-.1-8 4.8-7.6 7.4-9.7 11-6.6 11 .8 0 4.4-2.9 8-6.4zm30-12.9c-1.9-2-11.4 7.2-11.4 11.1 0 2.1 2 1.1 6.4-3.3 3.5-3.5 5.8-7 5-7.8zm37.9-.4c-3.9-3.9-7.8-6.5-8.6-5.7s2.1 5 6.4 9.5c4.3 4.4 8.2 7 8.6 5.7.5-1.3-2.4-5.5-6.4-9.5zm31.3 7c1.4-3.5-5.7-19.2-10.1-22.6-5.5-4.1-16-3.4-18.5 1.3-2.8 5.2.7 12 6.2 12 5.2 0 13.8 5.7 13.8 9.2s7.3 3.6 8.6.1zM68 112c0-1.1-2.2-2-5-2-2.7 0-5 .9-5 2s2.3 2 5 2c2.8 0 5-.9 5-2zm-4-6.5c0-1.4-1.2-6.5-2.7-11.4-3.5-11.7-6.6-6.9-3.2 5 2.3 8.2 6 12.2 5.9 6.4zm6-5.7c0-1-.9-1.8-2-1.8s-2 1.4-2 3.1.9 2.5 2 1.9c1.1-.7 2-2.1 2-3.2zM130 77c0-6.1-.9-11-2-11s-2 4.9-2 11c0 6 .9 11 2 11s2-5 2-11zM99.5 66.9c7.7-3.8 8.5-6 7.1-19.8L105.5 36H75.6l.8 13.9c.6 11 1.6 14.6 4.7 17 5.1 3.8 10.8 3.8 18.4 0zm-20.6-9.1c-.7-1.1-.7-2.6-.1-3.3.7-.7 1.2-.2 1.2 1.1 0 3.2 18.4 3.1 22-.1 2.4-2.2 2.4-2 .2 1-3 3.9-21 5-23.3 1.3zM129 42.9c.1-10.3-.3-18.2-.9-17.7-.6.6-1.1 9.5-1.1 19.8s.4 18.3.9 17.7c.6-.6 1.1-9.5 1.1-19.8zm-7.2-4.5c2.2-4.1-1.6-16.7-6.9-22.6-1.9-2.1-5.5-3.8-8.1-3.8-6.1 0-7 7-1.8 16 8.1 14.1 13.1 17.3 16.8 10.4zM91.6 34h14.3l-2.2-5c-2.6-5.6-4.1-6-9.9-2.9-2.8 1.5-5.9 1.4-10.8-.4-5.9-2.1-8-2-13.9.8-3.9 1.9-7.1 4.8-7.1 6.5 0 4.6 8.3 7.1 12.2 3.7 2-1.8 8.1-2.7 17.4-2.7zm-13-17.4c.5-2.6.2-4.6-.6-4.6-2.9 0-12 8.3-12 10.9 0 4.8 11.6-1 12.6-6.3zm17 6.2c5.5-3.9 5.7-10 .3-12.9-6.6-3.5-12.6-1.6-14.8 4.8-1.7 4.7-1.3 6.1 1.8 8.5 5 3.5 7.2 3.5 12.7-.4zm-58.1 222c-10.1-5.5-9.6-18.6.8-24 7.5-3.9 9.3-2.5 5 4-2.1 3.2-2.5 5.4-1.2 6.2 1.4.9 1.4 2.1.2 3.6-1.3 1.6-1 3.7.9 6.2 5.4 7.4 3.3 8.9-5.7 4zM40 239c-1.6-2-1.6-3.1 0-4 1.6-1 1.6-2.1 0-4-1.5-1.9-1.5-3.1 0-4 1.1-.7 1.5-2.2.9-3.3-2.1-3.3-8.3 3.8-8 9.1.3 5.6 4.8 11.6 7.4 10 1.2-.7 1-2.3-.3-3.8zm-3.3.5c-2.7-4.4-2.2-11.5 1.1-14.1 2.8-2.1 2.9-2 .6.9-1.8 2.3-1.9 3.7-.4 4.7 1.5.9 1.6 2.1.2 3.8-1.5 1.7-1.4 3.2.3 4.8 1.3 1.3 1.7 2.4 1 2.4s-1.9-1.2-2.8-2.5zM134 60.3c0-.8 1.3-3.3 2.9-5.5 1.8-2.5 2.1-4.6.9-6.2-1.3-1.5-1.2-2.7.1-3.6 1.3-.8.9-3-1.2-6.2-4.2-6.5-2.5-7.9 5.1-4 10.6 5.5 10.7 18.7.2 24.2-6.6 3.4-8 3.6-8 1.3zm13.1-13.1c-.3-5.6-4.7-11.7-7.4-10-1.1.7-1 2.2.3 3.8 1.6 1.9 1.6 3 0 4-1.6.9-1.6 2 0 4 1.6 1.8 1.6 3 .1 3.9-1.2.7-1.6 2.2-.9 3.3 2 3.3 8.2-3.8 7.9-9zm-5.4 6.4c1.9-2.4 1.9-3.7.2-4.7-1.6-1-1.6-2-.1-3.5s1.4-3.1-.3-5.3c-2.1-2.7-2-2.8.7-.7 3.9 3 3.8 11.5-.2 15-2.4 2.2-2.4 2.1-.3-.8z" fill="#1f1b1f" class="K"/><g id="A" class="K"><g fill="#f8e700"><g stroke="#000" stroke-width="1.171"><path d="M23.711 96.348c-.171-.223-7.113.304-11.853-.214-9.885.883-2.734-16.738 3.228-12.698 2.663 2.762 7.629 9.235 8.625 12.912z"/><path d="M23.95 96.543c-.279.036-3.294 6.312-6.112 10.158-4.178 9.002-15.862-6.002-9.383-9.144 3.724-.926 11.812-1.99 15.495-1.013zm.288-1.339c.171.223 7.113-.304 11.853.214 9.885-.883 2.734 16.738-3.228 12.698-2.663-2.762-7.629-9.235-8.625-12.912z"/><path d="M24.565 96.031c-.108.259 3.819 6.009 5.741 10.372 5.707 8.119-13.129 10.736-12.611 3.554 1.06-3.688 4.183-11.225 6.87-13.925zm-1.082-.936c.279-.036 3.294-6.312 6.112-10.158 4.178-9.002 15.862 6.002 9.383 9.144-3.724.926-11.812 1.99-15.495 1.013z"/><path d="M23.126 95.178c.108-.259-3.819-6.009-5.741-10.372-5.707-8.119 13.129-10.736 12.611-3.554-1.06 3.688-4.183 11.225-6.87 13.925z"/></g><path d="M22.507 95.746c-.171-.223-5.91.905-10.649.387-9.732.959-2.043-16.393 3.228-12.698 2.663 2.762 6.426 8.633 7.421 12.311zm.618-1.256c.108-.259-3.819-5.321-5.741-9.684-5.478-7.813 13.572-10.146 12.611-3.554-1.06 3.688-4.183 10.537-6.87 13.238zm1.045.089c.279-.036 2.929-5.545 5.166-9.728 4.49-8.396 15.708 6.5 9.641 9.23-3.724.926-11.125 1.474-14.807.497zm1.356 1.399c.171.223 5.824-1.077 10.563-.559 9.638-1.007 2.102 16.422-3.228 12.698-2.663-2.762-6.34-8.461-7.335-12.139zm-1.134.998c-.108.259 3.991 5.063 5.913 9.426 5.813 7.909-12.801 10.081-12.611 3.554 1.06-3.688 4.011-10.279 6.698-12.98zm-1.474-.175c-.279.036-2.262 6.054-5.081 9.9-3.844 8.78-15.508-6.238-9.383-9.144 3.724-.926 10.781-1.732 14.463-.755z"/></g><path fill="#b15d23" d="M28.953 96.391c0 3.204-2.328 5.802-5.2 5.802s-5.2-2.597-5.2-5.802 2.328-5.802 5.2-5.802 5.2 2.597 5.2 5.802z"/><path fill="#e45b36" d="M23.754 101.257c-2.513 0-4.551-2.211-4.55-4.938s2.036-5.368 4.55-5.368 4.895 2.555 4.894 5.282c-.057 2.962-2.755 5.266-4.894 5.024z"/></g><use xlink:href="#A" x="132" y="88"/></svg>