<svg xmlns="http://www.w3.org/2000/svg" xmlns:xlink="http://www.w3.org/1999/xlink" width="180" height="280" xmlns:v="https://vecta.io/nano"><style><![CDATA[.B{fill-rule:evenodd}]]></style><g class="B"><path d="M84.7 271.7c-6.6-1.8-12.2-9-19.2-24.4-3.9-8.5-2.7-12.7 5-17.8 3.9-2.5 4.5-4.3 3.8-12.1-.6-8-1.4-9.4-6.4-11.1-5.4-1.9-6-1.5-11.8 7.5-3.3 5.3-6.1 11.3-6.1 13.5 0 6.5-2 6.8-10.4 1.2l-8-5.3 4.7-3.6c14.2-10.8 16.4-16.8 9.1-25.5-4.9-5.9-10.3-18.1-15.5-35.6-2.3-7.6-2.1-8.9 1.1-12.5 3.6-4 3.5-4-9.7-4-7.5 0-13.3-.9-13.3-2 0-1.2 6.3-2 14.8-2h14.7l.9-13.5c.8-14.4 8.2-33.6 16-41.9 2.3-2.5 9-5.9 14.9-7.6 9.3-2.7 10.7-3.8 10.7-8.2 0-2.8-3.1-9.2-7-14.2-3.8-5-7-11-7-13.2 0-6.9 10.7-25.8 16.7-29.5 4.4-2.7 7.2-3.1 12-1.7 7.3 2.1 11.3 6.7 18.3 21.4 5.5 11.6 4.9 15.4-3.5 20.9-3.9 2.5-4.5 4.3-3.8 12.1.6 8 1.4 9.4 6.4 11.1 5.4 1.9 6 1.5 11.8-7.5 3.3-5.3 6.1-11.3 6.1-13.5 0-6.5 2-6.8 10.4-1.2l8 5.3-4.7 3.6c-14.2 10.8-16.4 16.8-9.1 25.5 4.9 5.9 10.3 18.1 15.5 35.6 2.3 7.6 2.1 8.9-1.1 12.5-3.6 4-3.5 4 9.7 4 7.5 0 13.3.9 13.3 2 0 1.2-6.3 2-14.8 2h-14.7l-.9 13.5c-.8 14.4-8.2 33.6-16 41.9-2.3 2.5-9 5.9-14.9 7.6-9.3 2.7-10.7 3.8-10.7 8.2 0 2.8 3.2 9.3 7.2 14.4 8.3 10.9 8.3 15.8-.2 31-6.5 11.5-13.4 15.5-22.3 13.1zm-22.2-113c-1.4-.6-2-1.8-1.4-2.8 1.6-2.6 7.1.2 5.6 2.8-.8 1.3-.6 1.6.4.8.9-.9 1.9-3.1 2.1-5a64.6 64.6 0 0 1 1.9-8c1.1-3.6.6-4.5-2.6-4.5-2.2 0-5.2 1.4-6.7 3.2-4.8 5.8-4.4 15 .6 14.6 2.1-.1 2.1-.3.1-1.1zm-1.8-7.9c0-1.5.6-2.2 1.4-1.7s2-.5 2.6-2.1c.7-1.7 2.3-3 3.7-3 1.8.1 1.7.6-.4 2-1.6 1-2.8 2.3-2.5 2.9 1.2 2.6.3 4.4-2.2 4.4-1.4 0-2.6-1.1-2.6-2.5zm57.6-16.3c3.4-3.9 3.8-13 .7-13.5-1.1-.2-1.3 0-.5.5s1 1.6.4 2.6c-1.6 2.6-7.1-.2-5.6-2.8.8-1.3.6-1.6-.4-.8-.9.9-1.9 3.1-2.1 5a64.6 64.6 0 0 1-1.9 8c-1.1 3.6-.6 4.5 2.6 4.5 2.1 0 5.2-1.6 6.8-3.5zm-7 0c2.2-1.4 2.7-2.5 2.7-6.2 0-.9 1.2-1.6 2.7-1.6 1.4 0 2.6 1.1 2.6 2.5 0 1.5-.6 2.2-1.4 1.7s-2 .5-2.6 2.1c-.7 1.7-2.3 3-3.7 3-1.9-.1-2-.5-.3-1.5z" fill="#fec9cc"/><path d="M84.7 271.7c-6.6-1.8-12.2-9-19.2-24.4-3.9-8.5-2.7-12.7 5-17.8 3.9-2.5 4.5-4.3 3.8-12.1-.6-8-1.4-9.4-6.4-11.1-5.4-1.9-6-1.5-11.8 7.5-3.3 5.3-6.1 11.3-6.1 13.5 0 6.5-2 6.8-10.4 1.2l-8-5.3 4.7-3.6c14.2-10.8 16.4-16.8 9.1-25.5-4.9-5.9-10.3-18.1-15.5-35.6-2.3-7.6-2.1-8.9 1.1-12.5 3.6-4 3.5-4-9.7-4-7.5 0-13.3-.9-13.3-2 0-1.2 6.3-2 14.8-2h14.7l.9-13.5c.8-14.4 8.2-33.6 16-41.9 2.3-2.5 9-5.9 14.9-7.6 9.3-2.7 10.7-3.8 10.7-8.2 0-2.8-3.1-9.2-7-14.2-3.8-5-7-11-7-13.2 0-6.9 10.7-25.8 16.7-29.5 4.4-2.7 7.2-3.1 12-1.7 7.3 2.1 11.3 6.7 18.3 21.4 5.5 11.6 4.9 15.4-3.5 20.9-3.9 2.5-4.5 4.3-3.8 12.1.6 8 1.4 9.4 6.4 11.1 5.4 1.9 6 1.5 11.8-7.5 3.3-5.3 6.1-11.3 6.1-13.5 0-6.5 2-6.8 10.4-1.2l8 5.3-4.7 3.6c-14.2 10.8-16.4 16.8-9.1 25.5 4.9 5.9 10.3 18.1 15.5 35.6 2.3 7.6 2.1 8.9-1.1 12.5-3.6 4-3.5 4 9.7 4 7.5 0 13.3.9 13.3 2 0 1.2-6.3 2-14.8 2h-14.7l-.9 13.5c-.8 14.4-8.2 33.6-16 41.9-2.3 2.5-9 5.9-14.9 7.6-9.3 2.7-10.7 3.8-10.7 8.2 0 2.8 3.2 9.3 7.2 14.4 8.3 10.9 8.3 15.8-.2 31-6.5 11.5-13.4 15.5-22.3 13.1zm15.2-13.2c3.7-3 4.4-5.8 4.6-16.9.2-13.6-3.2-22.5-9.6-24.9-5-1.9-12.7 1.2-16.2 6.5-4.7 7.1-4.4 29.6.5 35 4.3 4.8 14.9 5 20.7.3zM79.3 251c.6-1.6 2.4-3 3.9-3s2.8 1.4 2.8 3c0 1.7-1.8 3-3.9 3-2.7 0-3.6-1-2.8-3zm12 1.7c-2.3-2.3-1.4-12.4 1.2-14 1.7-1 .9-2-2.5-2.9l-5-1.4 5.5-.2c3.6-.1 5.5.8 5.5 2.8 0 1.6-.9 3-2 3s-2 2.7-2 6 .9 6 2 6 2-.9 2-2 1.4-2 3-2c1.7 0 3 1.3 3 3 0 3-8 4.3-10.7 1.7zm-1.8-26c1.4-.6 3.6-.6 5 0 1.4.5.3 1-2.5 1-2.7 0-3.9-.5-2.5-1zm6.9-69.8c1.9-4.1 1.7-5.6-.7-8.1-4.6-4.6-22.5-1.8-25.6 3.9-1.9 3.7-2.1 3.8-.9.3 3.3-10.4 3.3-11-.7-11-8 0-13.9 15.7-6.5 17.3 1.8.4 2 .2.5-.5-3.5-1.6-1.1-4.9 2.6-3.5 1.6.6 2.3 2 1.7 3.1-.7 1 .5.9 2.5-.4 2.9-1.8 5.3-1.6 10.7.8 10 4.3 13.8 3.9 16.4-1.9zM82 156c-2.7-1.8-2.7-2.2 0-4 1.7-1.1 4.8-1.8 7-1.7 3.4.2 3.4.4-.5 1.1-5.4 1-5.9 3.9-1 5.2 2.5.7 2.6 1 .5 1.1-1.6.1-4.3-.6-6-1.7zm-21.3-5.2c0-1.5.6-2.2 1.4-1.7s2-.5 2.6-2.1c.7-1.7 2.3-3 3.7-3 1.8.1 1.7.6-.4 2-1.6 1-2.8 2.3-2.5 2.9 1.2 2.6.3 4.4-2.2 4.4-1.4 0-2.6-1.1-2.6-2.5zm57.6-16.3c3.4-3.9 3.8-13 .7-13.5-1.1-.2-1.3 0-.5.5 2.7 1.5-.5 4.4-3.6 3.2-1.6-.6-2.3-2.1-1.5-3.4s-.1-1.1-2 .4c-2.8 2.3-4.6 2.3-11.4-.5-11-4.4-13.7-4.1-16.4 1.9-1.9 4.1-1.7 5.6.7 8.1 4.6 4.6 22.5 1.8 25.6-3.9 1.9-3.7 2.1-3.8.9-.3-3.3 10.4-3.3 11 .7 11 2.1 0 5.2-1.6 6.8-3.5zm-7 0c2.2-1.4 2.7-2.5 2.7-6.2 0-.9 1.2-1.6 2.7-1.6 1.4 0 2.6 1.1 2.6 2.5 0 1.5-.6 2.2-1.4 1.7s-2 .5-2.6 2.1c-.7 1.7-2.3 3-3.7 3-1.9-.1-2-.5-.3-1.5zm-19.8-5.9c5.4-1 5.9-3.9 1-5.2-2.5-.7-2.6-1-.5-1.1 1.7-.1 4.4.6 6 1.7 2.7 1.8 2.7 2.2 0 4-1.6 1.1-4.8 1.8-7 1.7-3.4-.2-3.4-.4.5-1.1zm6.4-68.1c5.2-4.3 8.1-15.7 6.6-27.1C103.2 22.7 99.1 18 91.1 18c-9.7 0-14.4 4.5-15.6 15-2.6 23.4 9.3 38.1 22.4 27.5zm-12.4-7.8c1.4-.6 3.6-.6 5 0 1.4.5.3 1-2.5 1-2.7 0-3.9-.5-2.5-1zM84 43c0-1.6.9-3 2-3s2-2.7 2-6-.9-6-2-6-2 .9-2 2-1.3 2-3 2c-1.6 0-3-1.4-3-3.1 0-2.3 1.6-3 5.5-2.5 4.4.5 5.6 1.8 6.1 6.2.4 3.1-.3 6.9-1.6 8.4-1.8 2.1-1.3 2.9 2.4 3.6 4.1.8 4 .9-.9 1.1Q84 46 84 43zm10-14c0-1.7 1.8-3 3.9-3 2.7 0 3.6 1 2.8 3-.6 1.7-2.4 3-3.9 3S94 30.7 94 29z" fill="#ccc9cc"/><path d="M68.1 206.3c-5.6-1.9-6.1-1.6-12 7.5-3.3 5.3-6.1 11.3-6.1 13.5 0 6.5-2 6.8-10.4 1.2l-8-5.3 4.7-3.6c14.2-10.8 16.4-16.8 9.1-25.5-4.9-5.9-10.3-18.1-15.5-35.6-2.3-7.6-2.1-8.9 1.1-12.5 3.6-4 3.5-4-9.7-4-7.5 0-13.3-.9-13.3-2 0-1.2 6.3-2 14.8-2h14.7l.9-13.5c.8-14.4 8.2-33.6 16-41.9 2.3-2.5 9-5.9 14.9-7.6l42.6-1.3c5.6 1.9 6.1 1.6 12-7.5 3.3-5.3 6.1-11.3 6.1-13.5 0-6.5 2-6.8 10.4-1.2l8 5.3-4.7 3.6c-14.2 10.8-16.4 16.8-9.1 25.5 4.9 5.9 10.3 18.1 15.5 35.6 2.3 7.6 2.1 8.9-1.1 12.5-3.6 4-3.5 4 9.7 4 7.5 0 13.3.9 13.3 2 0 1.2-6.3 2-14.8 2h-14.7l-.9 13.5c-.8 14.4-8.2 33.6-16 41.9-2.3 2.5-9 5.9-14.9 7.6-9.3 2.7-10.7 3.8-10.7 8.2l-31.9-6.9zm10.7-7.8c8.3-9.2 24.2-20.8 26-19 .7.7.7 6.6 0 13.1l-1.4 11.8 6.8-1.4c3.7-.8 7.6-2.2 8.7-3.2 2.4-2.3-8.8-26.1-11.5-24.4-1.2.7-1.4.2-.6-1.1s2.3-1.8 3.4-1.2c2.1 1.3 13.8-22.1 13.8-27.6 0-2.5-1.6-3.5-5.8-3.5-5 0-6.2 1.1-8.3 7.5-1.4 4.1-4.8 12-7.6 17.5s-4.9 10.7-4.6 11.6c.2 1-.4 1.2-1.3.7-.9-.6-5.5-.1-10.2 1.1-6.7 1.7-10.1 4.2-15.3 11.4-7.9 10.7-8.1 11.6-3.4 12.8 1.9.5 3.7 1 4 1.2.3.1 3.6-3.2 7.3-7.3zM73 196c-.7-1.1-.3-2 .9-2 1.1 0 2.1.9 2.1 2s-.4 2-.9 2-1.4-.9-2.1-2zm33 0c0-1.1.4-2 .9-2s1.4.9 2.1 2 .3 2-.9 2c-1.1 0-2.1-.9-2.1-2zm7.3-1c-.7-1.6-.3-3 .8-3 1 0 1.9 1.4 1.9 3 0 1.7-.4 3-.8 3s-1.3-1.3-1.9-3zM79 190c.7-1.1 2.1-2 3.2-2s1.5.9.8 2-2.1 2-3.2 2-1.5-.9-.8-2zm5-4.8c0-.4 1.8-1.2 4-1.8s3.5-.2 2.9.8c-1.1 1.7-6.9 2.6-6.9 1zm18-13.1c0-1 .9-2.4 2-3.1s1.4.1.8 1.9c-1.4 3.5-2.8 4.1-2.8 1.2zm6.9-4c.6-.9 0-2.1-1.3-2.6-1.4-.4-1.6-1.3-.5-1.9 1-.7 3 0 4.3 1.4 1.9 2.1 1.8 2.9-.6 3.8-1.7.6-2.5.3-1.9-.7zm3.1-6c0-1.1.9-2.1 2-2.1 2.6 0 2.6 1.4 0 3-1.1.7-2 .3-2-.9zm-2-5c0-.5.9-1.4 2-2.1s2-.3 2 .9c0 1.1-.9 2.1-2 2.1s-2-.4-2-.9zm8-10c0-3.5 1.2-4 2.9-1.2.6 1 .3 2.4-.9 3.1-1.1.7-2-.2-2-1.9zm-49.1 10.3c-.5-2.3.5-6.2 2-8.6 3.5-5.2 2.3-6.8-5.2-6.8-7.4 0-13 7.9-9.8 13.8 4.5 8.4 14.5 9.7 13 1.6zm27.5-.5c1.9-4.1 1.7-5.6-.7-8.1-4-3.9-22.9-1.9-24.6 2.7-1.4 3.6-2 3.1 7.9 7.1 11.2 4.5 14.7 4.2 17.4-1.7zM82 156c-2.7-1.8-2.7-2.2 0-4 1.7-1.1 4.8-1.8 7-1.7 3.4.2 3.4.4-.5 1.1-5.4 1-5.9 3.9-1 5.2 2.5.7 2.6 1 .5 1.1-1.6.1-4.3-.6-6-1.7zm-11.9-25.5c1.4-4.1 4.8-12 7.6-17.5s4.9-10.7 4.7-11.6c-.3-1 .3-1.2 1.2-.7.9.6 5.5.1 10.2-1.1 6.7-1.7 10.1-4.2 15.3-11.4 8-10.9 8.1-11.4 2.8-12.8-3.1-.8-6 .9-10.8 6.3-8.2 9-24.1 20.6-25.9 18.8-.7-.7-.7-6.6 0-13.1l1.4-11.8-6.8 1.4c-3.7.8-7.6 2.2-8.7 3.2-2.4 2.3 8.8 26.1 11.5 24.4 1.2-.7 1.4-.2.6 1.1s-2.3 1.8-3.4 1.2C67.7 105.6 56 129 56 134.5c0 2.5 1.6 3.5 5.8 3.5 5 0 6.2-1.1 8.3-7.5zm-11 3.6c-.6-1-.3-2.4.9-3.1 1.1-.7 2 .2 2 1.9 0 3.5-1.2 4-2.9 1.2zm6.9-10c0-1.1.9-2.1 2-2.1 2.6 0 2.6 1.4 0 3-1.1.7-2 .3-2-.9zm-2-5c0-.5.9-1.4 2-2.1s2-.3 2 .9c0 1.1-.9 2.1-2 2.1s-2-.4-2-.9zm4.6-4.1c-1.9-2.1-1.8-2.9.6-3.8 1.7-.6 2.5-.3 1.9.7-.6.9 0 2.1 1.3 2.6 1.4.4 1.6 1.3.5 1.9-1 .7-3 0-4.3-1.4zm6.5-5.6c.8-2 1.9-3.1 2.5-2.5.6.7 0 2.3-1.4 3.6-1.9 2-2.2 1.8-1.1-1.1zm14.4-13.7c1.2-1.2 3.3-1.8 4.8-1.3s.6 1.4-2.1 2.1c-3.4.9-4.1.6-2.7-.8zM97 90c.7-1.1 2.1-2 3.2-2s1.5.9.8 2-2.1 2-3.2 2-1.5-.9-.8-2zm-33-5c0-1.6.4-3 .8-3s1.3 1.4 1.9 3c.7 1.7.3 3-.8 3-1 0-1.9-1.3-1.9-3zm7-1c-.7-1.1-.3-2 .9-2 1.1 0 2.1.9 2.1 2s-.4 2-.9 2-1.4-.9-2.1-2zm33 0c0-1.1.4-2 .9-2s1.4.9 2.1 2 .3 2-.9 2c-1.1 0-2.1-.9-2.1-2zm19.1 49.1c2.5-3.7 2.7-5.8 1-8.9-4.6-8.6-14.2-9.5-12.9-1.2.3 2.2-.7 5.9-2.2 8.3-3.4 5.1-2.1 6.7 5.3 6.7q5.6 0 8.8-4.9zm-14.6-3.8c2.4-3.8 1.8-4.4-8-7.9-12.5-4.5-14.2-4.3-16.8 1.5-3.8 8.3.8 11.7 13.2 10 5.5-.8 10.8-2.4 11.6-3.6zm-17-.7c5.4-1 5.9-3.9 1-5.2-2.5-.7-2.6-1-.5-1.1 1.7-.1 4.4.6 6 1.7 2.7 1.8 2.7 2.2 0 4-1.6 1.1-4.8 1.8-7 1.7-3.4-.2-3.4-.4.5-1.1zm46 126.2c-7.4-3.9-11.8-12.7-9-17.9 1.9-3.7 12.9-14.9 14.5-14.9s12.6 11.2 14.5 14.9c2.8 5.3-1.7 14-9.1 17.9-4.7 2.4-6.2 2.4-10.9 0zM30 52.6c-8.5-8.3-10-12.7-6.8-19 1.6-3.1 5.3-6.8 8.4-8.4 4.7-2.4 6.2-2.4 10.9 0 7.4 3.9 11.8 12.7 9 17.9-2.4 4.6-13.1 15-15.1 14.7-.8-.1-3.6-2.4-6.4-5.2z" fill="#fe9e00"/><path d="M106.6 17.9c2.3 3.8 3.4 6.3 2.3 5.6-1.2-.7-2.1.8-2.1 3.6 0 2.7.8 4.9 1.8 4.9s1.3-1.3.7-3c-.7-1.6-.3-3 .8-3 1.7 0 2.7 3 1.4 4.6-.3.4 1.1 2.3 3 4.2s3.5 4.2 3.5 5.1c0 2.6-7.9 11.4-7.9 8.9-.1-1.3 1.3-3.5 3-4.9 2.7-2.2 2.6-2.9-.4-6.2-1.8-2.1-4.3-3.7-5.5-3.7s-1 .9.5 1.8c1.6 1 2.2 2.7 1.4 4-.8 1.4 0 1.7 2.3 1 3.2-1 3.1-.7-.4 2.6-2.2 2-4.1 4.6-4.3 5.7-.2 1-.5 2.8-.8 3.9-.1.4-.1 1.5-.1 2.9l-5.9 4.9c-6.6 5.6-13.6 6.7-17.5 2.8-1.9-1.8-2.4-1.2-2.4 3-.2-2.9-3.3-9.1-7-14-6.1-8.1-9.9-20.6-5.4-17.8.9.6 1.6-1 1.5-3.4-.1-2.7.9-4.2 2.5-3.8 1.5.3 2.1-.4 1.5-1.5-2-3.2 4.6-13.8 10.5-16.8 1.9-1 3.9-1.5 6-1.6 6.3-.2 12.8 3.5 17 10.2zm-20.4-6c-1.1 1.6-1.5 3.5-1.1 4.3.5.7-1.3 2.7-3.8 4.4-3.5 2.3-5 5.6-5.8 12.4-2.6 23.5 9.3 38.1 22.4 27.5 7.8-6.3 9.6-30.9 2.9-38.7-1.6-1.7-2.3-3.7-1.7-4.3.7-.6-1.8-1-5.5-.8-5.6.2-6.5-.3-6-3.7.3-2 .3-2.8-.2-2.6q-.3.2-1.2 1.5zM106 55.6v8c0 2.6.1 4.4.4 5.7-.4-1.4-.6-3.2-.6-6-.1-2.7-.1-5.4 0-7.4zM90.6 13c0 1.6.7 3 1.7 3 .9 0 1.7-.9 1.7-1.9 0-1.1-.8-2.4-1.7-3-.3-.1-.5-.1-.7-.1-.6.1-1 .8-1 2zm10.1 16c-.6 1.6-2.4 3-3.9 3q-.3-.1-.6-.1c1-.1 1.8-.9 1.8-1.9 0-1.1-.9-2-2-2-1 0-1.8.7-2 1.6q0-.3 0-.6c0-1.7 1.7-3 3.9-3 2.7 0 3.6.9 2.8 3zM96 32c-1.1 0-2-.9-2-2v-.4c.3 1.2 1.1 2.1 2.2 2.3-.1 0-.2.1-.2.1zm-12.5-5.7c4.3.5 5.6 1.8 6.1 6.3.3 3.1-.4 6.8-1.6 8.3-1.8 2.1-1.3 2.9 2.3 3.6 4.1.8 4 1-.8 1.2Q83.9 46 84 43c0-1.7.9-3 2-3s2-2.7 2-6-.9-6-2-6-2 .9-2 2-1.4 2-3 2q-.4 0-.7-.1c.9-.2 1.7-1 1.7-1.9 0-1.1-.9-2-2-2-1 0-1.7.7-1.9 1.6-.1-.3-.1-.5-.1-.8 0-1.7.9-2.5 3-2.6q1-.1 2.5.1zm-3.2 5.6c-.1 0-.2.1-.3.1-1.1 0-2-.9-2-2 0-.2 0-.3.1-.4.3 1.1 1.1 2 2.2 2.3zm-9.8 12.8c-.5.5-.3 2 .4 3.1 2 3.2 3.1 2.6 1.7-.9-.5-1.5-1.4-2.5-1.9-2.3q-.1 0-.2.1zm20 7.9c1.3.6.2 1-2.5 1-2.8 0-3.9-.4-2.5-1a8.15 8.15 0 0 1 2.5-.4c.9 0 1.8.2 2.5.4zM79.7 68.9q0-.1.1-.1-.1 0-.1.1zm-.1.6q.1-.3.1-.6 0 .3-.1.6zm29.1 2.8c-.4-.3-.7-.6-1-.8.3.2.6.5 1 .8zM72.5 74c2.5-.8 4.2-1.5 5.3-2.3-1.1.8-2.8 1.5-5.3 2.3zM98 124c2.6 1.7 2.6 2.2 0 4-1.7 1-4.8 1.8-7 1.6-3.5-.2-3.4-.3.5-1.1 5.3-1 5.9-3.9 1-5.2-2.5-.6-2.7-1-.5-1.1 1.6-.1 4.3.7 6 1.8zm-9.5 27.4c-5.4 1-6 3.9-1 5.2 2.4.6 2.6 1 .5 1.1-1.7.1-4.4-.7-6-1.7-2.7-1.8-2.7-2.3 0-4 1.6-1.1 4.8-1.9 7-1.7 3.4.2 3.3.3-.5 1.1zm13.6 56.8c1.1-.8 2.8-1.5 5.4-2.3-2.6.8-4.3 1.5-5.4 2.3zm-29.9.3c-.3-.3-.6-.6-1-.9.4.3.7.6 1 .9zm28.1 1.9q-.1.3-.1.6 0-.3.1-.6zm-.1.6q0 .1-.1.1.1 0 .1-.1zm-26 5.6c.1 2.8.1 5.5 0 7.5l-.2.2v-8c0-2.5-.1-4.3-.5-5.7.4 1.4.6 3.3.7 6zm5.9 2.5c6.6-5.5 13.6-6.7 17.5-2.8 1.8 1.9 2.4 1.2 2.4-2.9.1 2.9 3.2 9.1 7 14 6.1 8 9.9 20.6 5.3 17.7-.9-.5-1.6 1.1-1.5 3.5.1 2.6-.9 4.1-2.5 3.8-1.4-.3-2.1.3-1.4 1.4 2 3.3-4.6 13.9-10.5 16.9-4.3 2.2-6.8 2.3-12.1.5-3.9-1.3-8.4-5.1-10.9-9.1-2.4-3.8-3.4-6.3-2.3-5.6 1.2.7 2-.9 2-3.7 0-2.7-.8-4.8-1.8-4.8s-1.2 1.3-.6 3c.6 1.6.3 3-.8 3-1.7 0-2.1-1.2-1.9-5.1.1-.6-1.3-2.4-3-4.1s-3-3.9-3-4.8c0-2.6 7.8-11.3 7.9-8.8 0 1.2-1.3 3.4-3 4.8-2.7 2.3-2.7 2.9.3 6.3 1.8 2 4.4 3.7 5.6 3.7 1.2-.1.9-.9-.6-1.9-1.5-.9-2.1-2.7-1.4-3.9.9-1.4.1-1.8-2.2-1.1-3.2 1.1-3.2.8.4-2.5 2.2-2.1 4.1-4.7 4.3-5.7.1-1.1.5-2.8.7-3.9.1-.5.2-1.6.2-2.9l5.9-5zm-1.5 4c-4.4 6.9-4.3 29.7.2 34.7 1.8 1.9 2.7 4 2 4.7-.6.6 1.9.9 5.5.8 5.6-.3 6.5.3 6 3.7-.4 2.2-.1 3.4.6 2.6.7-.7 1.6-2.7 1.8-4.3.2-1.7 2.5-4.7 5-6.7 3.9-3.1 4.6-5.8 4.8-17 .2-13.6-3.3-22.5-9.7-25-1.2-.4-2.6-.6-4.1-.5-4.4.3-9.4 3-12.1 7zm15.9 3.5c1.3.6.2 1-2.5 1-2.8 0-3.9-.4-2.5-1a8.15 8.15 0 0 1 2.5-.4c.9 0 1.8.2 2.5.4zm12.6 5.9c.7 2 1.9 3.1 2.5 2.5s0-2.3-1.4-3.6q-1.1-1.1-1.5-1.3c-.5-.1-.3.6.4 2.4zM96 237c0 1.6-.9 3-2 3s-2 2.7-2 6 .9 6 2 6 2-.9 2-2 1.3-2 3-2q.3 0 .6 0c-.9.2-1.6 1-1.6 2 0 1.1.9 2 2 2 .9 0 1.7-.8 1.9-1.7q0 .3.1.7c0 3-8.1 4.3-10.7 1.6-2.3-2.2-1.5-12.4 1.2-14 1.6-1 .8-1.9-2.5-2.8l-5-1.5 5.5-.2c3.6-.1 5.5.9 5.5 2.9zm-12.3 11c-1 .1-1.7.9-1.7 2s.9 2 2 2c.9 0 1.7-.8 1.9-1.7q0 .3.1.7c0 1.6-1.8 3-4 3-2.7 0-3.6-1-2.8-3 .6-1.7 2.4-3 3.9-3q.3 0 .6 0zm.3 0c1.1 0 2 .9 2 2 0 .1-.1.2-.1.3-.3-1.2-1.1-2.1-2.2-2.3h.3zm18 2c0 .1-.1.2-.1.3-.3-1.2-1.1-2-2.3-2.3h.4c1.1 0 2 .9 2 2zm-14.7 18.6c1.8 1.9 2 1.7 2-1.6 0-1.7-.7-3-1.7-3-2 0-2.2 2.8-.3 4.6z" fill="#9b989b"/><path d="M42.4 25.3c3.1 1.5 6.8 5.3 8.4 8.4 2.6 5 2.6 6.3-.5 11.4-3 4.9-4.7 5.7-13.2 5.8-8.7.2-10.1-.4-13.3-5.6-3.2-5.3-3.3-6.5-.7-11.5 1.6-3.1 5.4-7 8.4-8.5 2.4-1.3 3.9-1.9 5.4-1.9 1.6 0 3.2.6 5.5 1.9zm-7.7.1C30.5 27 31.5 28 37.5 28c4 0 4.7-.6 2.7-1.9-1.2-.7-2.9-1.1-4.3-1q-.7.1-1.2.3zM23.1 39.1c.3 3.9 21.2 5.1 27.5 1.5 2.9-1.6-.5-4.1-7.2-5.2-2-.3-4.3-.4-6.6-.3-6.9.2-13.8 1.9-13.7 4zm13.1 15.4c.1 2 .3 2 1.1 0 .6-1.4 1.9-2.5 2.8-2.5 1 0 1.3 1.4.7 3-.7 1.7-2.4 3-3.8 3s-3.1-1.3-3.7-3c-.7-1.6-.3-3 .8-3 1 0 2 1.1 2.1 2.5zM90 73c0 5.5 1.3 6 8.9 3.1 2.8-1.1 5.1-1.3 5.1-.4 0 2-10.7 12-20.6 19.4l-7 5.2q-.3-.1-.6-.2v.6l.6-.4c.6 0 1.3-.2 2.3-.6-1.8.9-3.1 1.3-3.5.9-.2-.3-.3-1-.4-2q.3 1.1 1 1.5l1-12.3 1-12.2c1 .3 1.7.8 2.4 1.7 3.7 4.4 5.8 3.2 5.8-3.3 0-3.3.9-6 2-6s2 2.3 2 5zM74.7 93.4c0 2.1 0 3.9.1 5.2-.3-1.1-.3-2.9-.1-5.2zm.5-6l1.4-11.8h1.1l-1.8 10.3c-.6 3.1-.9 5.5-1.2 7.5q.2-2.8.5-6zm10 8.2c-2.7 1.9-4.7 3.3-6.3 4 1.8-1 4.2-2.5 6.9-4.4-.2.1-.4.3-.6.4zm29.8 90.5c-2.7-5.5-6-10.7-7.5-10.8 1.6 0 4.8 5.2 7.5 10.8zm-10.2-6.7c.2.3.3 1 .4 2q-.3-1.1-1-1.5l-1 12.3-1 12.2c-1-.3-1.7-.8-2.4-1.6-3.7-4.5-5.8-3.3-5.8 3.2 0 3.3-.9 6-2 6s-2-2.2-2-5c0-5.5-1.3-6-8.9-3.1-2.8 1.1-5.1 1.3-5.1.4 0-2 10.7-12 20.6-19.4l7-5.1q.3 0 .6.1l.1-.6-.7.5c-.6-.1-1.3.1-2.3.5 1.3-.7 2.4-1.1 3-1q.3 0 .5.1zm.5 7.2c0-2.1 0-3.9-.1-5.2.3 1.1.3 2.9.1 5.2zm-.5 6l-1.4 11.8 6.8-1.4 2.2-.6-2.5.9c-3.9 1.1-6.1 1.5-7.6 1.1l1.8-10.3c.6-3.1.9-5.5 1.2-7.5q-.2 2.8-.5 6zm14.2 7l-.1.2c-.9.8-3.5 1.8-6.5 2.6 3.1-1 5.7-2.2 6.6-2.8zm-21.1-17.3c1.3-.8 2.3-1.5 3.2-1.9-.9.5-2 1.1-3.2 1.9zm21.4 17.1c-.1.1-.2.1-.2.1.7-1.6-1-6.6-3.3-11.7 2.6 5.3 4.4 10.6 3.5 11.6zm-47.8 6.4c-.3-.2-2.1-.7-4-1.2-2.4-.6-3.5-1.1-3-2.8-.4 1.6.9 2.1 3.6 2.8s5.2-.5 9.1-4.4c-3 3.2-5.5 5.7-5.7 5.6zm-6.5-5.5c-.2.6-.4 1.1-.5 1.5q.1-.6.5-1.5zm.1 0q-.1 0-.1 0 0 0 .1 0zm81.7 24.7c.6 1.7.2 3-.9 3-1 0-2-1.1-2.1-2.5-.1-2-.3-2-1.1 0-.6 1.4-1.9 2.5-2.8 2.5-1 0-1.3-1.3-.6-3 .6-1.6 2.3-3 3.7-3s3.1 1.4 3.8 3zm9.4 9.8c3.2 5.2 3.3 6.5.7 11.5-1.6 3.1-5.4 6.9-8.5 8.5-4.7 2.4-6.2 2.4-10.9 0-3-1.6-6.8-5.4-8.4-8.5-2.6-5-2.5-6.3.6-11.4 3-4.9 4.7-5.7 13.2-5.8 8.7-.2 10.1.4 13.3 5.7zm-27.1 6.3c.3 3.9 21.2 5.1 27.5 1.5 2.9-1.6-.5-4.1-7.2-5.2-2-.3-4.3-.4-6.6-.3-6.9.2-13.8 1.9-13.7 4zm10.7 12.8c2.6 1.6 8.2.9 8.2-1.1 0-.4-2.5-.8-5.5-.8-4 0-4.7.6-2.7 1.9z" fill="#fe0000"/><path d="M106 63.6c0 5.3.4 7.3 2.8 8.7-2.9-.8-5.4-1.1-6.1-.4-1 .9-3.7 2.3-6.2 3-7.2 2.2-5.6-4.5 3-12.4 6.3-5.8 6.5-6.1.9-1.7-1.8 1.4-3.7 2.5-5.5 3.3 1.6-.8 3.3-1.9 5-3.3l6.1-5.2zm-23.6 0c1.7 1.7 4 2.4 6.6 2.3-2.4.2-4.6-.2-6.1-1.4-1.1-.8-1.2-.7-.4.4.8 1 1.5 4.6 1.4 8 0 5.4-.3 5.7-2.6 2.7-2.2-2.9-3.3-3.1-10.3-1.1 7.9-2.4 9-3.5 9-7.9 0-2.6.2-3.9.8-4 .4 0 .9.3 1.6 1zM69.3 75q.9-.3 1.7-.5-.8.2-1.7.5zm22-9.5q.7-.2 1.5-.4-.8.2-1.5.4zm26.3 10.4l-3.8-1.6c3.3.9 4.6.1 8-4.9zm-5.7-2.2q-1.9-.7-3-1.3c.7.2 1.4.4 2.2.7l2.6 1.2a18.88 18.88 0 0 0-1.8-.6zm-47.1 2.9c1.4-.6 2.8-1.1 4.1-1.5-1.3.4-2.7.9-4.1 1.5zm-4.3 1.9q-.2.1-.4.2.2-.1.4-.2zm-.4.2c-1.6.8-3 1.7-4 2.5 1-.8 2.4-1.7 4-2.5zm-6.8 5.1q.5-.5.9-1-.4.5-.9 1zm-.4.5q.2-.3.4-.5-.2.2-.4.5zm-4.2 6.3c1.4-2.4 2.8-4.6 4.2-6.3-1.4 1.8-2.9 3.9-4.2 6.3zm0 0q-.3.5-.5.9.2-.4.5-.9zm-.5.9q-.4.8-.8 1.6.4-.8.8-1.6zm-.8 1.6q-.4.7-.7 1.4.3-.7.7-1.4zm-.7 1.4q-.3.6-.6 1.2.3-.6.6-1.2zm-6.1 16.7q.2-.8.5-1.6-.3.8-.5 1.6zm-.4 1.4q.2-.7.4-1.4-.2.7-.4 1.4zm-1.8 11.9c.1-1.8.2-3.6.5-5.6-.3 1.9-.4 3.8-.5 5.6zm102.7 36.6c.2-1.9.4-3.8.5-5.6-.1 1.8-.3 3.6-.5 5.6zm-1.4 6.3q-.1.7-.3 1.4.2-.7.3-1.4zm-.3 1.4q-.2.8-.5 1.6.3-.8.5-1.6zm-6.1 16.7q.3-.6.6-1.2-.3.6-.6 1.2zm-.7 1.4q.4-.7.7-1.4-.3.7-.7 1.4zm-.8 1.6q.4-.8.8-1.6-.4.8-.8 1.6zm-.5.9q.3-.5.5-.9-.2.4-.5.9zm-4.2 6.4c1.4-1.9 2.8-4 4.2-6.4-1.4 2.4-2.8 4.6-4.2 6.4zm0 0q-.3.2-.5.4.2-.2.5-.4zm-.5.4q-.4.5-.9 1 .5-.5.9-1zm-6.7 5.1c1.6-.8 2.9-1.7 4-2.5-1.1.8-2.4 1.7-4 2.5zm-.4.2q.2-.1.4-.2-.2.1-.4.2zm-20.8 2.9c2.1 2.9 3.3 3.1 10.3 1.1-8 2.4-9 3.5-9 7.9 0 4.2-.5 4.8-2.4 3-1.2-1.2-2.7-2-4.4-2.2 1.6.2 3.2.8 4.4 1.8 1.8 1.5 1.8 1.4.4-.4-1.1-1.3-2-5.1-1.9-8.5 0-3 .1-4.5.6-4.6.4-.1 1 .6 2 1.9zm12 .6q-.9.3-1.7.5.8-.2 1.7-.5zm-17.5 9.2q-.7-.1-1.3-.1.6 0 1.3.1zm-1.3-.1q-.5 0-.9 0 .4 0 .9 0zm23.3-10.7c-1.4.6-2.8 1.1-4.1 1.5 1.3-.4 2.7-.9 4.1-1.5zm-49 2.4c-3.3-1-4.6-.2-8 4.8l4.2-6.5zm1.8.6q1.9.6 3 1.3c-.7-.2-1.4-.4-2.1-.7l-2.7-1.2c.5.2 1.1.3 1.8.6zm12.4 11.2c-6.3 5.8-6.5 6.1-.9 1.7 2.7-2.1 5.5-3.6 8-4.4-2.4.8-5 2.3-7.5 4.4l-6.1 5.2v-8c0-5.3-.4-7.3-2.7-8.7 2.8.8 5.3 1 6 .3 1-.8 3.7-2.2 6.2-3 .9-.2 1.7-.3 2.3-.3 4.4-.1 2.3 5.8-5.3 12.8z" fill="#009800"/></g><path d="M37 27.6c-4.7 0-9.5 1.6-11.2 4.7-2.1 4-1.9 4.2 2.5 2.8 5.9-2 11.5-2 17.5 0 4.3 1.4 4.5 1.2 2.4-2.8-1.7-3.1-6.5-4.7-11.2-4.7zm43 .4c-1.1 0-2 .9-2 2s.9 2 2 2 2-.9 2-2-.9-2-2-2zm16 0c-1.1 0-2 .9-2 2s.9 2 2 2 2-.9 2-2-.9-2-2-2zM25.1 42.2c-1 .1-.6 1 .7 3.5C27.6 49.1 30 50 37 50s9.4-.9 11.2-4.3c2.1-4 1.9-4.2-2.4-2.8-2.6.9-6.6 1.5-8.8 1.5s-6.2-.6-8.7-1.5c-1.7-.5-2.7-.8-3.2-.7zM56 96.1c-.9 0-1.8.8-3.3 2.4-2.8 2.7-2.9 3.8-.8 6.4 1.5 1.7 3.3 3.1 4.1 3.1s2.6-1.4 4.1-3.1c2.1-2.6 2-3.7-.8-6.4-1.5-1.6-2.4-2.4-3.3-2.4zm72.7.7l-.9.3c-1 .7-1.3 2-.7 3.1.7 1 2 1.3 3.1.7 1-.7 1.3-2 .7-3.1-.5-.8-1.4-1.1-2.2-1zm-4.7 75.3c-.9 0-1.8.8-3.3 2.4-2.8 2.7-2.9 3.8-.8 6.4 1.5 1.7 3.3 3.1 4.1 3.1s2.6-1.4 4.1-3.1c2.1-2.6 2-3.7-.8-6.4-1.5-1.6-2.4-2.4-3.3-2.4zm-73.3 6.7l-.9.3c-1 .7-1.3 2-.7 3.1.7 1 2 1.3 3.1.7 1-.7 1.3-2 .7-3.1-.5-.8-1.4-1.1-2.2-1zM143 230c-7 0-9.4.9-11.2 4.3-2.1 4-1.9 4.2 2.5 2.8 2.5-.9 6.5-1.5 8.7-1.5s6.2.6 8.8 1.5c4.3 1.4 4.5 1.2 2.4-2.8-1.8-3.4-4.2-4.3-11.2-4.3zm-11.9 14.2c-1 .1-.6 1 .7 3.5 1.8 3.4 4.2 4.3 11.2 4.3s9.4-.9 11.2-4.3c2.1-4 1.9-4.2-2.4-2.8-2.6.9-6.6 1.5-8.8 1.5s-6.2-.6-8.7-1.5c-1.7-.5-2.7-.8-3.2-.7zM84 248c-1.1 0-2 .9-2 2s.9 2 2 2 2-.9 2-2-.9-2-2-2zm16 0c-1.1 0-2 .9-2 2s.9 2 2 2 2-.9 2-2-.9-2-2-2z" fill="#0000fe"/><path d="M123.5 70q-.1 0-.2.1c-6.3 7.3-29.1 44.5-28.2 46 2.4 3.9 4.7 1.5 19-20.2 10.9-16.5 14-22.6 12.3-24.3-1.1-1.1-2.3-1.8-2.9-1.6zM82 134.2c-.7 0-1.4.5-2.4 1.4-1.8 1.9-1.3 2.4 2.4 2.4s4.2-.5 2.4-2.4c-1-.9-1.7-1.4-2.4-1.4zm16 7.8c-2.3 0-3.7.9-3 2s2 2 3 2 2.3-.9 3-2-.7-2-3-2zm-15.9 20c-.9 0-8.1 9.8-16 21.9-12.7 19.1-15.5 26.2-10.5 26 .8 0 8-9.9 16-22 13-19.8 15.5-25.9 10.5-25.9z" fill="#9b0000"/><path d="M39.3 228.3l-7.7-5.1 4.7-3.6c14.2-10.8 16.4-16.8 9.1-25.5-4.9-5.9-10.3-18.1-15.5-35.6-2.3-7.6-2.1-8.9 1.1-12.5 3.6-4 3.5-4-9.7-4-7.5 0-13.3-.9-13.3-2 0-1.2 6.3-2 14.8-2h14.7l.9-13.5c.9-14.8 8.8-35.1 16.4-42.3 2.4-2.3 8.8-5.5 14.2-7.1 8.9-2.7 9.9-2.6 12.3.5 2.3 3 2.6 2.7 2.6-2.7.1-3.4-.6-7-1.4-8s-.6-1.2.4-.4c3.7 2.9 10.9 1.4 17.4-3.7 5.7-4.4 5.5-4.1-.8 1.7-8.6 7.9-10.2 14.6-3 12.4 2.5-.7 5.3-2.1 6.2-2.9 1-.9 4.7-.4 8.3 1.1l6.6 2.8 6.2-9.6c3.4-5.3 6.2-11.4 6.2-13.6 0-6.5 2-6.8 10.4-1.2l8 5.3-4.7 3.6c-14.2 10.8-16.4 16.8-9.1 25.5 4.9 5.9 10.3 18.1 15.5 35.6 2.3 7.6 2.1 8.9-1.1 12.5-3.6 4-3.5 4 9.7 4 7.5 0 13.3.9 13.3 2 0 1.2-6.3 2-14.8 2h-14.7l-.9 13.5c-.9 14.8-8.8 35.1-16.4 42.3-2.4 2.3-8.8 5.5-14.2 7.1-8.9 2.7-9.9 2.6-12.3-.5-2.3-3-2.6-2.7-2.6 2.7-.1 3.4.8 7.2 1.9 8.5 1.5 1.7 1.3 1.9-.4.4-4.1-3.4-11-2.2-17.9 3.2-5.7 4.4-5.5 4.1.8-1.7 8.6-7.9 10.2-14.6 3-12.4-2.5.7-5.3 2.1-6.2 2.9-1 .9-4.7.4-8.3-1.1l-6.6-2.8-6.2 9.6c-3.4 5.3-6.2 11.5-6.2 13.9 0 6.3-2.2 6.4-10.7.7zM52 217c1.3-1.6 1.8-4.5 1.1-6.5-1.3-3.1-1.9-2.9-5.8 1.7-2.3 2.9-6.4 6.4-9 7.7l-4.7 2.4 6.7 4.6 6.7 4.7 1.2-5.8c.7-3.2 2.4-7.1 3.8-8.8zm42-11c0-6.5 2.1-7.7 5.8-3.2.7.8 1.4 1.4 2.4 1.6l2-24.5c1.8.9 1.5 5.3-.1 14.2l-1.8 10.3c1.5.4 3.7 0 7.6-1.2 4.3-1.2 8.5-2.9 9.3-3.8 2.2-2.2-9.4-25.5-12-24-1.3.7-1.5.5-.5-.6.9-1 2.6-1.8 3.8-1.8s2.6-1.3 3.1-2.8c.7-2-.1-2.4-2.4-1.5-2 .7-2.9.4-2.2-.7s.2-2-1-2-1.7-.9-1-2c.8-1.2 2.5-.7 4.6 1.3 3.1 3.1 3.6 2.6 7.8-6.5 6.2-13.4 6-16.8-1.1-16.8-5.2 0-6.2 1.2-10.5 12.5l-5.5 14.3c-.5 1 .2 1.1 1.4.4 1.5-.9 1.8-.3 1 1.9-.9 2.3-1.7 2.5-2.7.9s-1.9-1.2-3 1.3c-.9 2-1.5 4.4-1.3 5.3.2 1-.4 1.2-1.3.7-.9-.6-5.5-.1-10.2 1.1-6.7 1.7-10.1 4.2-15.3 11.4-8 10.9-8.1 11.4-2.8 12.8 3.1.8 6-.9 10.8-6.3 3.7-4 10.8-10.3 15.9-13.9 4.4-3.2 7.3-4.9 8.9-4.6l-7.1 5.2c-9.9 7.3-20.6 17.4-20.6 19.3 0 .9 2.3.7 5.1-.3 7.6-2.9 8.9-2.5 8.9 3 0 2.8.9 5 2 5s2-2.7 2-6zm8.3-1.6q-.1 0-.1 0v.6zm1.9-24.5q-.2-.1-.5-.2l.6-.4zm-32.7 7.9C84.6 168.1 87.1 162 82.1 162c-.9 0-8.1 9.8-16.1 21.9-12.6 19.1-15.5 26.2-10.4 26 .7 0 7.9-9.9 15.9-22.1zm34.4 8.2c0-1.1.4-2 .9-2s1.5.9 2.1 2c.7 1.1.3 2-.8 2-1.2 0-2.2-.9-2.2-2zm27.2-14.6c3.8-8.4 5.9-16.7 6.5-25.9l.8-13.5h-7.2c-5.8 0-7.3.8-7.3 3.7 0 2.1-3 9.9-6.8 17.4l-6.8 13.5 5.2 10.6c6.2 12.6 7.5 12.1 15.6-5.8zM67.4 179c11.2-17 12-18.9 8.5-20-2.2-.7-4.7-.8-5.8-.1-2 1.2-1.5-7 .7-10.6.7-1.3 3.8-2.4 6.8-2.5 2.9-.1 7.6-.9 10.3-1.8 3-.9-6.6-1.6-23.2-1.8-26-.2-28.4.1-31.8 3.9-3.6 3.9-3.6 4.5 1.6 20.5 3 9 7.4 19.5 9.9 23.4l4.5 7 .7-5.6c.3-3.1-.3-6.8-1.5-8.3-1.6-1.9-1.5-3.2.6-4.9s3.3-1.6 5.1.6c1.6 1.9 1.7 3.2.2 4.1-2.3 1.5-2.9 15.1-.6 15 .9 0 7.1-8.5 14-18.9zm16.5 6.2c0-.4 1.8-1.2 4-1.8 2.3-.6 3.5-.2 2.9.8-1 1.7-6.9 2.6-6.9 1zm28-23.1c0-1.2.9-2.1 2-2.1 2.6 0 2.6 1.4 0 3-1.1.7-2 .3-2-.9zm-2-5c0-.5.9-1.4 2-2.1s2-.3 2 .9c0 1.1-.9 2.1-2 2.1s-2-.4-2-.9zm8-10c0-3.5 1.2-4 3-1.3.6 1.1.2 2.5-.9 3.2-1.1.6-2.1-.2-2.1-1.9zm-45 48.9c-.6-1.1-.2-2 .9-2 1.2 0 2.1.9 2.1 2s-.4 2-.8 2c-.5 0-1.5-.9-2.2-2zm6-6c.7-1.1 2.2-2 3.3-2s1.4.9.7 2c-.6 1.1-2.1 2-3.2 2s-1.4-.9-.8-2zm-19.8-13.2c-.7-2.9-1-5.7-.5-6.2.5-.4 1.5 1.6 2.2 4.5.7 3 1 5.7.5 6.2s-1.5-1.5-2.2-4.5zm-7.7-17.1c1.4-1.3 3-2 3.6-1.3.6.6-.5 1.7-2.5 2.4-2.8 1.1-3 .9-1.1-1.1zm-13.5-3.5c0-2 5.8-7.2 6.8-6 .3.4-1.1 2.4-3.1 4.3s-3.7 2.7-3.7 1.7zm75.3 38.8c-.6-1.7-.3-3 .8-3s1.9 1.3 1.9 3c0 1.6-.3 3-.7 3-.5 0-1.3-1.4-2-3zm5.7-13.1c-3.6-4-3.6-4.2.7-8.4l4.3-4.4 4.4 4.4c4.3 4.2 4.3 4.4.7 8.4-2 2.2-4.3 4.1-5.1 4.1-.7 0-3-1.9-5-4.1zm9.1-1c2.2-2.6 2-3.7-.7-6.5-3.1-3.1-3.6-3.1-6.7 0-2.7 2.8-2.9 3.9-.7 6.5 1.4 1.7 3.2 3.1 4 3.1.9 0 2.7-1.4 4.1-3.1zm3.6-22.1c.4-3.8 1.4-7.2 2.1-7.7.8-.5 1 2.3.6 6-.4 3.8-1.4 7.3-2.2 7.8-.7.4-1-2.3-.5-6.1zm-78.8 21c-.6-1-2-1.4-3-.7-1.1.6-1.4 2-.7 3 .6 1.1 2 1.4 3 .8 1.1-.7 1.4-2.1.7-3.1zm41.3-4c3-1.5 11.6-18.7 14.8-29.5 1.2-3.8.8-4.6-2-4-3.8.7-5.5 3.4-8.2 12.7-1 3.3-3.7 6.8-5.9 7.8-3.6 1.6-12.9 13.2-12.9 16.2 0 1.3 9.7-.9 14.2-3.2zm2.2-18.9c1.9-4.1 1.8-5.7-.7-8.1-3.9-4-22.8-1.9-24.6 2.7-1.4 3.6-2 3 7.9 7.1 11.3 4.5 14.8 4.1 17.4-1.7zm4.6-12.9c.7-1.1-.6-2-3-2-2.3 0-3.6.9-3 2 .7 1.1 2.1 2 3 2 1 0 2.4-.9 3-2zm-47-9.8c0-2.1 3.1-9.9 6.9-17.3l6.8-13.7-5.5-11-5.6-11-3.5 5.4c-7.4 11.3-13 28.3-13 39.9l-.1 11.5h7c5.6 0 7-.8 7-3.8zm-8.3-11.4c.4-3.8 1.4-7.2 2.1-7.7.8-.5 1 2.3.6 6-.4 3.8-1.4 7.3-2.2 7.8-.7.4-1-2.3-.5-6.1zm5.3-16.9c-3.6-4-3.6-4.2.7-8.4l4.3-4.4 4.4 4.4c4.3 4.2 4.3 4.4.7 8.4-2 2.2-4.3 4.1-5.1 4.1-.7 0-3-1.9-5-4.1zm9.1-1c2.2-2.6 2-3.7-.7-6.5-3.1-3.1-3.6-3.1-6.7 0-2.7 2.8-2.9 3.9-.7 6.5 1.4 1.7 3.2 3.1 4 3.1.9 0 2.7-1.4 4.1-3.1zm12.2 20.6l5.5-14.3c.4-1-.2-1.2-1.5-.4-1.4.9-1.8.2-1-1.9.9-2.3 1.7-2.6 2.7-.9 1 1.6 2 1.2 3.1-1.4.9-2 1.4-4.4 1.2-5.3s.4-1.2 1.3-.6 5.5.1 10.3-1.1c6.6-1.7 10-4.2 15.3-11.4 8-10.9 8.1-11.4 2.7-12.8-3-.8-5.9.9-10.8 6.2-3.6 4.1-10.8 10.4-15.9 14-4.4 3.2-7.2 4.8-8.8 4.6l7-5.2c9.9-7.3 20.6-17.4 20.6-19.4 0-.8-2.3-.6-5.1.4-7.6 2.9-8.9 2.5-8.9-3 0-2.8-.9-5-2-5s-2 2.7-2 6c0 6.4-2.1 7.6-5.8 3.2-.7-.9-1.4-1.4-2.4-1.6l-2 24.5c-1.8-1-1.5-5.4.1-14.2l1.9-10.3c-1.6-.4-3.8 0-7.7 1.1-4.3 1.3-8.5 3-9.3 3.8-2.1 2.1 9.5 25.6 11.9 24.1 1.1-.7 1.3-.2.5 1.1s-2.3 1.8-3.3 1.2c-2.1-1.3-13.9 22.1-13.9 27.6 0 2.5 1.7 3.5 5.8 3.5 5.2 0 6.2-1.2 10.5-12.5zm5.5-49.9q0 0 0 0l.1-.6zm-2 24.5q.3.1.6.1l-.6.5zm-16.7 34c-.6-1-.3-2.4.9-3.1 1.1-.7 2 .2 2 1.9 0 3.5-1.2 4-2.9 1.2zm6.9-10c0-1.1.9-2.1 2-2.1 2.6 0 2.6 1.4 0 3-1.1.7-2 .3-2-.9zm-2-5c0-.5.9-1.4 2-2.1s2-.3 2 .9c0 1.1-.9 2.1-2 2.1s-2-.4-2-.9zm4.6-4.1c-1.9-2.1-1.8-2.9.6-3.8 1.7-.6 2.5-.3 1.9.7-.6.9 0 2.1 1.3 2.6 1.4.4 1.6 1.3.5 1.9-1 .7-3 0-4.3-1.4zm20.9-19.3c1.2-1.2 3.3-1.8 4.8-1.3s.6 1.4-2.1 2.1c-3.4.9-4.1.6-2.7-.8zm57.6 38.2c3.6-4 3.5-4.5-1.7-20.5-3-9-7.4-19.6-9.8-23.4l-4.5-7-.7 5.6c-.4 3.1.3 6.8 1.5 8.3 1.6 1.9 1.4 3.2-.6 4.9-2.1 1.7-3.3 1.6-5.1-.6-1.6-1.9-1.7-3.3-.3-4.1 2.4-1.5 2.9-15.1.6-15.1-.8.1-7.1 8.6-13.9 18.9-11.3 17.1-12.1 19-8.6 20.1 2.2.7 4.8.7 5.8.1 2.1-1.3 1.6 7-.6 10.6-.8 1.3-3.9 2.4-6.8 2.5-3 .1-7.6.9-10.4 1.7-2.9.9 6.6 1.7 23.2 1.8 26 .3 28.5 0 31.9-3.8zM63.9 85c0-1.7.4-3 .8-3s1.3 1.3 1.9 3c.7 1.6.3 3-.8 3-1 0-1.9-1.4-1.9-3zm7-1c-.7-1.1-.3-2 .9-2 1.1 0 2.1.9 2.1 2s-.4 2-.9 2-1.4-.9-2.1-2zM114 95.9c10.9-16.6 14-22.6 12.3-24.3-1.3-1.3-2.7-1.9-3.1-1.5-6.2 7.3-29.1 44.5-28.3 46 2.5 3.9 4.7 1.5 19.1-20.2zM78 134c.8-1.7 2.2-5.7 3.2-9s3.6-6.8 5.9-7.8c4-1.8 13.8-14.8 12.3-16.3-.4-.5-4.1.1-8.3 1.3-6.6 1.8-8.2 3.5-13.2 14.4-8.3 18.1-9.2 21.9-4.9 21.1 1.9-.4 4.1-2.1 5-3.7zm6.3 1.6c-1.9-1.9-2.9-1.9-4.8 0s-1.3 2.4 2.4 2.4 4.3-.5 2.4-2.4zM96.9 90c.7-1.1 2.1-2 3.2-2s1.5.9.8 2-2.1 2-3.2 2-1.5-.9-.8-2zm40.5 36.3c1.9-2 3.9-3.4 4.3-3 1.2.9-4 6.7-6 6.7-1 0-.2-1.7 1.7-3.7zm-13.5-5.1c0-.4 1.4-1.3 3.1-2 1.8-.6 2.6-.3 1.9.8-1.2 1.9-5 2.8-5 1.2zm-4.9-16.3c-.7-3-.9-5.8-.4-6.2.4-.5 1.4 1.5 2.2 4.4.7 3 .9 5.8.4 6.2-.4.5-1.4-1.5-2.2-4.4zm-10.6 24.4c2.4-3.8 1.8-4.4-8-7.9-12.5-4.5-14.2-4.3-16.8 1.5-3.8 8.3.8 11.7 13.2 10 5.5-.8 10.8-2.4 11.6-3.6zM103.9 84c0-1.1.4-2 .9-2s1.4.9 2.1 2 .3 2-.9 2c-1.1 0-2.1-.9-2.1-2zm26.9 13.8c-.6-1-2-1.3-3.1-.7-1 .6-1.3 2-.7 3.1.6 1 2 1.3 3.1.7 1-.6 1.3-2 .7-3.1zM142.5 59c3-1.7 2.6-2.6-3.6-6.5l-7-4.5v4.5c0 2.6-1.4 6.7-3.2 9.1-1.7 2.5-2.6 6.1-1.9 7.9 1.1 2.7 2.1 2.3 6.8-2.6 3-3.3 7.1-6.8 8.9-7.9z" class="B"/><g id="A" class="B"><g fill="#f8e700"><g stroke="#000" stroke-width="1.171"><path d="M36.927 39.248c-.171-.223-7.113.304-11.853-.214-9.885.883-2.734-16.738 3.228-12.698 2.663 2.762 7.629 9.235 8.625 12.912z"/><path d="M37.166 39.443c-.279.036-3.294 6.312-6.112 10.158-4.178 9.002-15.862-6.002-9.383-9.144 3.724-.926 11.812-1.99 15.495-1.013zm.288-1.339c.171.223 7.113-.304 11.853.214 9.885-.883 2.734 16.738-3.228 12.698-2.663-2.762-7.629-9.235-8.625-12.912z"/><path d="M37.78 38.931c-.108.259 3.819 6.009 5.741 10.372 5.707 8.119-13.129 10.736-12.611 3.554 1.06-3.688 4.183-11.225 6.87-13.925zm-1.082-.936c.279-.036 3.294-6.312 6.112-10.158 4.178-9.002 15.862 6.002 9.383 9.145-3.724.926-11.812 1.99-15.495 1.013z"/><path d="M36.342 38.077c.108-.259-3.819-6.009-5.741-10.372-5.707-8.119 13.129-10.736 12.611-3.554-1.06 3.688-4.183 11.225-6.87 13.925z"/></g><path d="M35.723 38.646c-.171-.223-5.91.905-10.649.387-9.732.959-2.043-16.393 3.228-12.698 2.663 2.762 6.426 8.633 7.421 12.311zm.618-1.256c.108-.259-3.819-5.321-5.741-9.684-5.478-7.813 13.572-10.146 12.611-3.554-1.06 3.688-4.183 10.537-6.87 13.238zm1.045.089c.279-.036 2.929-5.545 5.166-9.728 4.49-8.396 15.708 6.5 9.641 9.23-3.724.926-11.125 1.474-14.807.497zm1.356 1.399c.171.223 5.824-1.077 10.563-.559 9.638-1.007 2.102 16.422-3.228 12.698-2.663-2.762-6.34-8.461-7.335-12.139zm-1.134.998c-.108.259 3.991 5.063 5.913 9.426 5.813 7.909-12.801 10.081-12.611 3.554 1.06-3.688 4.011-10.279 6.698-12.98zm-1.474-.175c-.279.036-2.262 6.054-5.081 9.9-3.844 8.78-15.508-6.238-9.383-9.144 3.724-.926 10.781-1.732 14.463-.755z"/></g><path fill="#b15d23" d="M42.169 39.291c0 3.204-2.328 5.802-5.2 5.802s-5.2-2.597-5.2-5.802 2.328-5.802 5.2-5.802 5.2 2.597 5.2 5.802z"/><path fill="#e45b36" d="M36.969 44.157c-2.513 0-4.551-2.211-4.55-4.938s2.036-5.368 4.55-5.368 4.895 2.555 4.894 5.282c-.057 2.962-2.755 5.266-4.894 5.024z"/></g><use xlink:href="#A" x="106" y="202"/></svg>