<svg xmlns="http://www.w3.org/2000/svg" xmlns:xlink="http://www.w3.org/1999/xlink" width="180" height="280" fill-rule="evenodd" xmlns:v="https://vecta.io/nano"><path d="M80 272c0-1.1-3.8-2-8.6-2-12.3 0-19.2-8.5-12.4-15.3 2.3-2.3 2.7-5.6 1.7-14.3-.7-6.3-2.1-11.7-3-12.1-.9-.3-1.7-2.4-1.7-4.5 0-4.7-5.1-5-7.7-.4-1.8 3.2-2.3 3-6.1-1.5-2.9-3.5-4.1-7.8-4.1-15.1-.1-9.1-1.1-11.4-9.9-22.4-9.9-12.3-15.6-24.5-13.2-28.4 2.1-3.4-1.1-14-4.2-14-1.5 0-2.8-.9-2.8-2s1.3-2 2.9-2c5.1 0 5.6-7.8 1.1-17.4-3.8-8.1-4-9.9-1.7-14.2 1.5-2.8 4.3-5.4 6.2-5.9 3.4-.9 5.1-6.5 1.9-6.5-.9 0-3.3-1.2-5.4-2.8-3.6-2.6-3.4-2.9 2.6-6 3.5-1.8 6.4-4.5 6.4-5.9s1.3-4.3 2.9-6.4c2.7-3.7 3-3.5 6 3.6l3.2 7.6 8.4-4.6c4.7-2.5 8.9-5 9.5-5.6.5-.7 2.6-1.8 4.5-2.5 2.1-.8 3.5-3.3 3.5-6.5 0-2.8 1.4-6.5 3-8.2 1.7-1.6 3-6 3-9.7s.8-7 1.9-7.3c3.6-1.4 4.5-11 1.2-14.3C62.2 18.5 69 10 81.4 10c4.8 0 8.6-.9 8.6-2s2.3-2 5-2c2.8 0 5 .9 5 2s3.8 2 8.6 2c12.3 0 19.2 8.5 12.4 15.3-2.3 2.3-2.7 5.6-1.7 14.3.7 6.3 2.1 11.7 3 12.1.9.3 1.7 2.4 1.7 4.5 0 4.7 5.1 5 7.7.4 1.8-3.2 2.3-3 6.1 1.5 2.9 3.5 4.1 7.8 4.1 15.1.1 9.1 1.1 11.4 9.9 22.4 9.9 12.3 15.6 24.5 13.2 28.4-2.1 3.4 1.1 14 4.2 14 1.5 0 2.8.9 2.8 2s-1.3 2-2.9 2c-5.1 0-5.6 7.8-1.1 17.4 3.8 8.1 4 9.9 1.7 14.2-1.5 2.8-4.3 5.4-6.2 5.9-3.4.9-5.1 6.5-1.9 6.5.9 0 3.3 1.2 5.4 2.8 3.6 2.6 3.4 2.9-2.6 6-3.5 1.8-6.4 4.5-6.4 5.9s-1.3 4.3-2.9 6.4c-2.7 3.7-3 3.5-6-3.6l-3.2-7.6-8.4 4.6c-4.7 2.5-8.9 5-9.5 5.6-.5.7-2.6 1.8-4.5 2.5-2.1.8-3.5 3.3-3.5 6.5 0 2.8-1.3 6.5-3 8.2-1.6 1.6-3 6-3 9.7s-.8 7-1.9 7.3c-3.6 1.4-4.5 11-1.2 14.3 6.9 6.9.1 15.4-12.3 15.4-4.8 0-8.6.9-8.6 2s-2.2 2-5 2c-2.7 0-5-.9-5-2zm-2.8-8c1.5 0 2.8-1.3 2.8-2.8 0-1.6 1.1-3.3 2.5-3.9 1.5-.6 1.2-1-.9-1.1-1.8-.1-4.5 1-6 2.5-2.3 2.3-3.2 2.2-5.6-.4-2.7-2.9-3-2.8-3.6.3-.7 3.5-3.4 4.6-4.9 1.9-.5-.8-.7-.6-.5.5s2.5 2.1 5.1 2.2c2.6.2 5.1 1.5 5.6 3 .7 2.1 1.2 2.2 1.8.3.5-1.4 2.1-2.5 3.7-2.5zm26.9-.8c2.5-.1 4.7-1.1 4.9-2.2s0-1.3-.5-.5c-1.5 2.7-4.2 1.6-4.9-1.9-.6-3.1-.9-3.2-3.6-.3-2.4 2.6-3.3 2.7-5.6.4-1.5-1.5-4.2-2.6-6-2.5-2.1.1-2.4.5-.9 1.1 1.4.6 2.5 2.3 2.5 3.9 0 1.5 1.4 2.8 3 2.8 1.7 0 3 1.1 3 2.5.1 1.8.5 1.7 1.8-.3 1-1.5 3.8-2.8 6.3-3zM82 19.6c0-1 1.4-.5 3.1 1.3 1.8 1.7 4.7 3 6.5 2.9 2.1-.1 2.4-.5.9-1.1-1.4-.6-2.5-2.3-2.5-3.9 0-1.5-1.3-2.8-3-2.8-1.6 0-3-1.1-3-2.5-.1-1.8-.5-1.7-1.8.3-1 1.5-3.8 2.8-6.3 3-2.5.1-4.7 1.1-4.9 2.2s0 1.3.5.5c1.4-2.6 4.5-1.6 4.5 1.4 0 1.8 1.2 2.5 3 1.8 1.7-.6 3-2 3-3.1zm22.4 1.7c2.3-2.3 3.2-2.2 5.6.4 2.7 2.9 3 2.8 3.6-.3.7-3.5 3.4-4.6 4.9-1.9.5.8.7.6.5-.5s-2.4-2.1-4.9-2.2c-2.5-.2-5.3-1.5-6.3-3-1.3-2-1.7-2.1-1.8-.3 0 1.4-1.3 2.5-3 2.5-1.6 0-3 1.3-3 2.8 0 1.6-1.1 3.3-2.5 3.9-1.5.6-1.2 1 .9 1.1 1.8.1 4.5-1 6-2.5zM31.5 254.8c-7.4-3.9-11.8-12.7-9-17.9C24.4 233.2 35.4 222 37 222s12.6 11.2 14.5 14.9c2.8 5.3-1.7 14-9.1 17.9-4.7 2.4-6.2 2.4-10.9 0zm106 0c-7.4-3.9-11.8-12.7-9-17.9 1.9-3.7 12.9-14.9 14.5-14.9s12.6 11.2 14.5 14.9c2.8 5.3-1.7 14-9.1 17.9-4.7 2.4-6.2 2.4-10.9 0zM30 52.6c-8.5-8.3-10-12.7-6.8-19 1.6-3.1 5.3-6.8 8.4-8.4 4.7-2.4 6.2-2.4 10.9 0 7.4 3.9 11.8 12.7 9 17.9-2.4 4.6-13.1 15-15.1 14.7-.8-.1-3.6-2.4-6.4-5.2zm106 0c-8.5-8.3-10-12.7-6.8-19 1.6-3.1 5.3-6.8 8.4-8.4 4.7-2.4 6.2-2.4 10.9 0 7.4 3.9 11.8 12.7 9 17.9-2.4 4.6-13.1 15-15.1 14.7-.8-.1-3.6-2.4-6.4-5.2z" fill="#fec9cc"/><path d="M80 272c0-1.1-3.8-2-8.6-2-12.3 0-19.2-8.5-12.4-15.3 2.3-2.3 2.7-5.6 1.7-14.3-.7-6.3-2.1-11.7-3-12.1-.9-.3-1.7-2.4-1.7-4.5 0-4.7-5.1-5-7.7-.4-1.8 3.2-2.3 3-6.1-1.5-2.9-3.5-4.1-7.8-4.1-15.1-.1-9.1-1.1-11.4-9.9-22.4-9.9-12.3-15.6-24.5-13.2-28.4 2.1-3.4-1.1-14-4.2-14-1.5 0-2.8-.9-2.8-2s1.3-2 2.9-2c5.1 0 5.6-7.8 1.1-17.4-3.8-8.1-4-9.9-1.7-14.2 1.5-2.8 4.3-5.4 6.2-5.9 3.4-.9 5.1-6.5 1.9-6.5-.9 0-3.3-1.2-5.4-2.8-3.6-2.6-3.4-2.9 2.6-6 3.5-1.8 6.4-4.5 6.4-5.9s1.3-4.3 2.9-6.4c2.7-3.7 3-3.5 6 3.6l3.2 7.6 8.4-4.6c4.7-2.5 8.9-5 9.5-5.6.5-.7 2.6-1.8 4.5-2.5 2.1-.8 3.5-3.3 3.5-6.5 0-2.8 1.4-6.5 3-8.2 1.7-1.6 3-6 3-9.7s.8-7 1.9-7.3c3.6-1.4 4.5-11 1.2-14.3C62.2 18.5 69 10 81.4 10c4.8 0 8.6-.9 8.6-2s2.3-2 5-2c2.8 0 5 .9 5 2s3.8 2 8.6 2c12.3 0 19.2 8.5 12.4 15.3-2.3 2.3-2.7 5.6-1.7 14.3.7 6.3 2.1 11.7 3 12.1.9.3 1.7 2.4 1.7 4.5 0 4.7 5.1 5 7.7.4 1.8-3.2 2.3-3 6.1 1.5 2.9 3.5 4.1 7.8 4.1 15.1.1 9.1 1.1 11.4 9.9 22.4 9.9 12.3 15.6 24.5 13.2 28.4-2.1 3.4 1.1 14 4.2 14 1.5 0 2.8.9 2.8 2s-1.3 2-2.9 2c-5.1 0-5.6 7.8-1.1 17.4 3.8 8.1 4 9.9 1.7 14.2-1.5 2.8-4.3 5.4-6.2 5.9-3.4.9-5.1 6.5-1.9 6.5.9 0 3.3 1.2 5.4 2.8 3.6 2.6 3.4 2.9-2.6 6-3.5 1.8-6.4 4.5-6.4 5.9s-1.3 4.3-2.9 6.4c-2.7 3.7-3 3.5-6-3.6l-3.2-7.6-8.4 4.6c-4.7 2.5-8.9 5-9.5 5.6-.5.7-2.6 1.8-4.5 2.5-2.1.8-3.5 3.3-3.5 6.5 0 2.8-1.3 6.5-3 8.2-1.6 1.6-3 6-3 9.7s-.8 7-1.9 7.3c-3.6 1.4-4.5 11-1.2 14.3 6.9 6.9.1 15.4-12.3 15.4-4.8 0-8.6.9-8.6 2s-2.2 2-5 2c-2.7 0-5-.9-5-2zm-2.8-8c1.5 0 2.8-1.3 2.8-2.8 0-1.6 1.1-3.3 2.5-3.9 1.5-.6 1.2-1-.9-1.1-1.8-.1-4.5 1-6 2.5-2.3 2.3-3.2 2.2-5.6-.4-2.7-2.9-3-2.8-3.6.3-.7 3.5-3.4 4.6-4.9 1.9-.5-.8-.7-.6-.5.5s2.5 2.1 5.1 2.2c2.6.2 5.1 1.5 5.6 3 .7 2.1 1.2 2.2 1.8.3.5-1.4 2.1-2.5 3.7-2.5zm26.9-.8c2.5-.1 4.7-1.1 4.9-2.2s0-1.3-.5-.5c-1.5 2.7-4.2 1.6-4.9-1.9-.6-3.1-.9-3.2-3.6-.3-2.4 2.6-3.3 2.7-5.6.4-1.5-1.5-4.2-2.6-6-2.5-2.1.1-2.4.5-.9 1.1 1.4.6 2.5 2.3 2.5 3.9 0 1.5 1.4 2.8 3 2.8 1.7 0 3 1.1 3 2.5.1 1.8.5 1.7 1.8-.3 1-1.5 3.8-2.8 6.3-3zm1.1-22.7c3.8-5 3.4-17.1-.7-24.3-3.5-6.1-6.5-8.1-6.5-4.2 0 1.1-2.7 2-6 2s-6-.9-6-2c0-2.9-5.5-2.5-6.7.5-.8 2-1 1.9-1.1-.1-.1-1.4 1.4-3.1 3.3-3.9 1.9-.7 4.7-2.5 6.1-3.9 3.5-3.4 7.8-3.3 9.8.1 2.3 4.1 10.6 6.3 10.6 2.9 0-3.7-10.4-9.6-17-9.6-5 0-16.8 5.5-17.1 7.9-.8 5.7-1 33.7-.4 35.6.6 1.7 5.5 2.5 15 2.5 11 0 14.6-.8 16.7-3.5zM79.3 237c.6-1.6 2.4-3 3.9-3s2.8 1.4 2.8 3c0 1.7-1.8 3-3.9 3-2.7 0-3.6-1-2.8-3zm12 1.7c-2.2-2.3-1.4-10.4 1.2-12 1.7-1 .9-2-2.5-2.9l-5-1.4 5.5-.2c3.6-.1 5.5.8 5.5 2.8 0 1.6-.9 3-2 3s-2 2.2-2 5c0 2.7.9 5 2 5s2-.9 2-2 1.4-2 3-2c1.7 0 3 1.3 3 3 0 3-8 4.3-10.7 1.7zm-3.8-22c1.3-.6 4-.6 6-.1 1.9.5.8 1-2.5 1-3.3.1-4.9-.4-3.5-.9zm-34.7-55.2c3.2-5.1-.3-9.4-10.3-12.8-7.6-2.5-9-2.5-13.5.5-5.3 3.5-5.3 3.6 2.8 13.4 3.9 4.7 17.8 4 21-1.1zm-15.9-1.7c-2.1-3.3 2.1-6.2 7.4-5.2 4.3.8 4.2.9-.8 1.1-6.1.3-7.4 3.5-2 4.9 3.2.8 3.2 1 .1 1.2-1.8.1-4-.8-4.7-2zm125.6-8.2c-1.2-4.6-11-4.9-15.4-.5-1.7 1.8-3.1 3.4-3.1 3.7 0 .2 4.4.4 9.7.4 8.4 0 9.6-.5 8.8-3.6zm-11-21.2l4.6-3.5-5.6-6.6c-4.8-5.7-6.5-6.5-13.3-6-14.4 1.3-15.1 11.7-1.1 16.7 9.4 3.4 10.3 3.4 15.4-.6zm-14-5.8c4.9-.9 6-3.8 2-5.1-1.4-.5-1.2-.8.5-.7 5.2.4 3.4 6.2-2 6.4-4.4.2-4.4.1-.5-.6zm-104.6 4.3c1.7-1.8 3.1-3.4 3.1-3.7 0-.2-4.4-.4-9.7-.4-8.4 0-9.6.5-8.8 3.6 1.2 4.6 11 4.9 15.4.5zm67.3-50.3c3.2-1.9 5.9-3.9 5.9-4.5.8-5.7 1-33.7.4-35.6-.6-1.7-5.5-2.5-15-2.5-11 0-14.6.8-16.7 3.5-3.8 5-3.4 17.1.7 24.3C79 69.9 82 71.9 82 68c0-1.1 2.7-2 6-2s6 .9 6 2c0 2.9 5.5 2.5 6.7-.5.8-2 1-1.9 1.1.1.1 1.4-1.4 3.1-3.3 3.9-1.9.7-4.7 2.5-6.1 3.9-3.5 3.4-7.8 3.3-9.8-.1-.9-1.5-3.6-3.4-6.1-4.2-6.5-2-5.8 3.2 1 7.4 7.1 4.4 15.4 4.4 22.7.1zM85.5 62.7c1.3-.6 4-.6 6-.1 1.9.5.8 1-2.5 1-3.3.1-4.9-.4-3.5-.9zM84 55c0-1.6.9-3 2-3s2-2.2 2-5c0-2.7-.9-5-2-5s-2 .9-2 2-1.3 2-3 2c-1.6 0-3-1.4-3-3.1 0-2.3 1.6-3 5.5-2.5 6.1.7 8.6 7.6 4.5 12.6-1.8 2.1-1.3 2.9 2.4 3.6 4.1.8 4 .9-.9 1.1Q84 58 84 55zm10-12c0-1.7 1.8-3 3.9-3 2.7 0 3.6 1 2.8 3-.6 1.7-2.4 3-3.9 3S94 44.7 94 43zM82 19.6c0-1 1.4-.5 3.1 1.3 1.8 1.7 4.7 3 6.5 2.9 2.1-.1 2.4-.5.9-1.1-1.4-.6-2.5-2.3-2.5-3.9 0-1.5-1.3-2.8-3-2.8-1.6 0-3-1.1-3-2.5-.1-1.8-.5-1.7-1.8.3-1 1.5-3.8 2.8-6.3 3-2.5.1-4.7 1.1-4.9 2.2s0 1.3.5.5c1.4-2.6 4.5-1.6 4.5 1.4 0 1.8 1.2 2.5 3 1.8 1.7-.6 3-2 3-3.1zm22.4 1.7c2.3-2.3 3.2-2.2 5.6.4 2.7 2.9 3 2.8 3.6-.3.7-3.5 3.4-4.6 4.9-1.9.5.8.7.6.5-.5s-2.4-2.1-4.9-2.2c-2.5-.2-5.3-1.5-6.3-3-1.3-2-1.7-2.1-1.8-.3 0 1.4-1.3 2.5-3 2.5-1.6 0-3 1.3-3 2.8 0 1.6-1.1 3.3-2.5 3.9-1.5.6-1.2 1 .9 1.1 1.8.1 4.5-1 6-2.5zM31.5 254.8c-7.4-3.9-11.8-12.7-9-17.9C24.4 233.2 35.4 222 37 222s12.6 11.2 14.5 14.9c2.8 5.3-1.7 14-9.1 17.9-4.7 2.4-6.2 2.4-10.9 0zm106 0c-7.4-3.9-11.8-12.7-9-17.9 1.9-3.7 12.9-14.9 14.5-14.9s12.6 11.2 14.5 14.9c2.8 5.3-1.7 14-9.1 17.9-4.7 2.4-6.2 2.4-10.9 0zM30 52.6c-8.5-8.3-10-12.7-6.8-19 1.6-3.1 5.3-6.8 8.4-8.4 4.7-2.4 6.2-2.4 10.9 0 7.4 3.9 11.8 12.7 9 17.9-2.4 4.6-13.1 15-15.1 14.7-.8-.1-3.6-2.4-6.4-5.2zm106 0c-8.5-8.3-10-12.7-6.8-19 1.6-3.1 5.3-6.8 8.4-8.4 4.7-2.4 6.2-2.4 10.9 0 7.4 3.9 11.8 12.7 9 17.9-2.4 4.6-13.1 15-15.1 14.7-.8-.1-3.6-2.4-6.4-5.2z" fill="#ccc9cc"/><path d="M80 272c0-1.1-3.8-2-8.6-2-12.3 0-19.2-8.5-12.4-15.3 2.3-2.3 2.7-5.6 1.7-14.3-.7-6.3-2.1-11.7-3-12.1-.9-.3-1.7-2.4-1.7-4.5 0-4.7-5.1-5-7.7-.4-1.8 3.2-2.3 3-6.1-1.5-2.9-3.5-4.1-7.8-4.1-15.1-.1-9.1-1.1-11.4-9.9-22.4-9.9-12.3-15.6-24.5-13.2-28.4 2.1-3.4-1.1-14-4.2-14-1.5 0-2.8-.9-2.8-2s1.3-2 2.9-2c5.1 0 5.6-7.8 1.1-17.4-3.8-8.1-4-9.9-1.7-14.2 1.5-2.8 4.3-5.4 6.2-5.9 3.4-.9 5.1-6.5 1.9-6.5-.9 0-3.3-1.2-5.4-2.8-3.6-2.6-3.4-2.9 2.6-6 3.5-1.8 6.4-4.5 6.4-5.9s1.3-4.3 2.9-6.4c2.7-3.7 3-3.5 6 3.6l3.2 7.6 8.4-4.6c4.7-2.5 8.9-5 9.5-5.6.5-.7 2.6-1.8 4.5-2.5 2.1-.8 3.5-3.3 3.5-6.5 0-2.8 1.4-6.5 3-8.2 1.7-1.6 3-6 3-9.7s.8-7 1.9-7.3c3.6-1.4 4.5-11 1.2-14.3C62.2 18.5 69 10 81.4 10c4.8 0 8.6-.9 8.6-2s2.3-2 5-2c2.8 0 5 .9 5 2s3.8 2 8.6 2c12.3 0 19.2 8.5 12.4 15.3-2.3 2.3-2.7 5.6-1.7 14.3.7 6.3 2.1 11.7 3 12.1.9.3 1.7 2.4 1.7 4.5 0 4.7 5.1 5 7.7.4 1.8-3.2 2.3-3 6.1 1.5 2.9 3.5 4.1 7.8 4.1 15.1.1 9.1 1.1 11.4 9.9 22.4 9.9 12.3 15.6 24.5 13.2 28.4-2.1 3.4 1.1 14 4.2 14 1.5 0 2.8.9 2.8 2s-1.3 2-2.9 2c-5.1 0-5.6 7.8-1.1 17.4 3.8 8.1 4 9.9 1.7 14.2-1.5 2.8-4.3 5.4-6.2 5.9-3.4.9-5.1 6.5-1.9 6.5.9 0 3.3 1.2 5.4 2.8 3.6 2.6 3.4 2.9-2.6 6-3.5 1.8-6.4 4.5-6.4 5.9s-1.3 4.3-2.9 6.4c-2.7 3.7-3 3.5-6-3.6l-3.2-7.6-8.4 4.6c-4.7 2.5-8.9 5-9.5 5.6-.5.7-2.6 1.8-4.5 2.5-2.1.8-3.5 3.3-3.5 6.5 0 2.8-1.3 6.5-3 8.2-1.6 1.6-3 6-3 9.7s-.8 7-1.9 7.3c-3.6 1.4-4.5 11-1.2 14.3 6.9 6.9.1 15.4-12.3 15.4-4.8 0-8.6.9-8.6 2s-2.2 2-5 2c-2.7 0-5-.9-5-2zm-2.8-8c1.5 0 2.8-1.3 2.8-2.8 0-1.6 1.1-3.3 2.5-3.9 1.5-.6 1.2-1-.9-1.1-1.8-.1-4.5 1-6 2.5-2.3 2.3-3.2 2.2-5.6-.4-2.7-2.9-3-2.8-3.6.3-.7 3.5-3.4 4.6-4.9 1.9-.5-.8-.7-.6-.5.5s2.5 2.1 5.1 2.2c2.6.2 5.1 1.5 5.6 3 .7 2.1 1.2 2.2 1.8.3.5-1.4 2.1-2.5 3.7-2.5zm26.9-.8c2.5-.1 4.7-1.1 4.9-2.2s0-1.3-.5-.5c-1.5 2.7-4.2 1.6-4.9-1.9-.6-3.1-.9-3.2-3.6-.3-2.4 2.6-3.3 2.7-5.6.4-1.5-1.5-4.2-2.6-6-2.5-2.1.1-2.4.5-.9 1.1 1.4.6 2.5 2.3 2.5 3.9 0 1.5 1.4 2.8 3 2.8 1.7 0 3 1.1 3 2.5.1 1.8.5 1.7 1.8-.3 1-1.5 3.8-2.8 6.3-3zm1.1-22.7c3.8-5 3.4-17.1-.7-24.3-3.5-6.1-6.5-8.1-6.5-4.2 0 1.1-2.7 2-6 2s-6-.9-6-2c0-2.9-5.5-2.5-6.7.5-.8 2-1 1.9-1.1-.1-.1-1.4 1.4-3.1 3.3-3.9 1.9-.7 4.7-2.5 6.1-3.9 3.5-3.4 7.8-3.3 9.8.1 2.3 4.1 10.6 6.3 10.6 2.9 0-3.7-10.4-9.6-17-9.6-5 0-16.8 5.5-17.1 7.9-.8 5.7-1 33.7-.4 35.6.6 1.7 5.5 2.5 15 2.5 11 0 14.6-.8 16.7-3.5zM79.3 237c.6-1.6 2.4-3 3.9-3s2.8 1.4 2.8 3c0 1.7-1.8 3-3.9 3-2.7 0-3.6-1-2.8-3zm12 1.7c-2.2-2.3-1.4-10.4 1.2-12 1.7-1 .9-2-2.5-2.9l-5-1.4 5.5-.2c3.6-.1 5.5.8 5.5 2.8 0 1.6-.9 3-2 3s-2 2.2-2 5c0 2.7.9 5 2 5s2-.9 2-2 1.4-2 3-2c1.7 0 3 1.3 3 3 0 3-8 4.3-10.7 1.7zm-3.8-22c1.3-.6 4-.6 6-.1 1.9.5.8 1-2.5 1-3.3.1-4.9-.4-3.5-.9zm-24.7-19.2c6.4-22.5 7.8-34.7 5.3-45-2.3-9.8-2.4-9.9-10.7-10.1-6-.3-7.5.2-5.4 1.6 2 1.2 3 5.2 3 11.9q0 10.1 2.5 10.1c3.5 0 3.1 5.3-.5 6.7-2.3.9-3 4.6-3 15.1 0 22.7 4 27.1 8.8 9.7zm-6.8-2.6c0-1.7.9-2.6 2-1.9 2.6 1.6 2.6 5 0 5-1.1 0-2-1.4-2-3.1zm.5-7.3c.4-1.3 1.8-2.7 3.1-3.1 1.5-.5 1.9.4 1.2 2.3-1.4 3.7-5.5 4.4-4.3.8zm0-8.8c.7-.7 2.4-.7 3.9-.2 1.6.7 1.1 1.1-1.2 1.2-2.1.1-3.3-.3-2.7-1zm5.5-7.6c0-1.6.9-3.5 2-4.2s2 .1 2 1.8c0 1.6-.9 3.5-2 4.2s-2-.1-2-1.8zm-2-12.3c0-1.7.9-2.6 2-1.9 2.6 1.6 2.6 5 0 5-1.1 0-2-1.4-2-3.1zm1.3-6.2c-2.4-2.5-1.3-4.6 1.7-3.4 1.7.6 3 1.9 3 2.9 0 2.1-2.8 2.4-4.7.5zm67.6 50.3c3.6-2.8 3.7-3.8 1.2-19-2.1-13.1-2.1-17.9-.1-25.5 1.4-5.2 3.4-10.4 4.3-11.4 3.1-3.5 1.8-4.5-5.5-4.2-10.8.4-12.8 4.6-12.8 26.6 0 20 3 36.5 6.7 36.4 1.3 0 4-1.3 6.2-2.9zm-6.9-3.1c0-1.2 1.4-3.5 3-5.2 3.1-3.1 3.9-1.3 1.8 4.1-1.4 3.6-4.8 4.3-4.8 1.1zm-1.6-12.2c1.1-3.1 5.4-3.6 6.1-.7.3 1.1-1.2 2.3-3.2 2.7-2.5.4-3.4-.3-2.9-2zM120 177c0-1.6.4-3 .8-3s1.3 1.4 1.9 3c.7 1.7.3 3-.8 3-1 0-1.9-1.3-1.9-3zm.4-7.1c.5-1.5 2-3 3.5-3.5s2.2.2 1.7 1.7-2 3-3.5 3.5-2.2-.2-1.7-1.7zm-1.2-9c-.6-1.7.1-2.9 1.7-2.9 4 0 5.6 3.4 2.3 4.7-1.6.6-3.4-.2-4-1.8zm2.8-8.7c0-1 1.4-2.3 3-2.9 1.8-.7 3 0 3 1.8 0 1.6-1.3 2.9-3 2.9-1.6 0-3-.8-3-1.8zm-69.2 9.3c3.2-5.1-.3-9.4-10.3-12.8-7.6-2.5-9-2.5-13.5.5-5.3 3.5-5.3 3.6 2.8 13.4 3.9 4.7 17.8 4 21-1.1zm-15.9-1.7c-2.1-3.3 2.1-6.2 7.4-5.2 4.3.8 4.2.9-.8 1.1-6.1.3-7.4 3.5-2 4.9 3.2.8 3.2 1 .1 1.2-1.8.1-4-.8-4.7-2zm125.6-8.2c-1.2-4.6-11-4.9-15.4-.5-1.7 1.8-3.1 3.4-3.1 3.7 0 .2 4.4.4 9.7.4 8.4 0 9.6-.5 8.8-3.6zM61.2 133c5.8-7.8 2.3-59.1-3.9-58.9-1.3 0-4 1.3-6.2 2.9-3.6 2.8-3.7 3.8-1.2 19 2.1 13.1 2.1 17.9.1 25.5-1.4 5.2-3.4 10.4-4.3 11.4-3.1 3.5-1.8 4.5 5.5 4.2 4.6-.2 8.2-1.6 10-4.1zm-9.2-4.1c0-1.6 1.4-2.9 3-2.9 3.9 0 3.9 3.2 0 4.7-1.8.7-3 0-3-1.8zm3.1-8.7c-.6-1 .2-2.3 1.7-2.9 1.6-.6 3.4.2 4 1.8 1.2 3.1-3.8 4.1-5.7 1.1zm-.7-8.3c.5-1.5 2-3 3.5-3.5s2.2.2 1.7 1.7-2 3-3.5 3.5-2.2-.2-1.7-1.7zm2.9-8.9c-.7-1.6-.3-3 .8-3 1 0 1.9 1.4 1.9 3 0 1.7-.4 3-.8 3s-1.3-1.3-1.9-3zM53 94c-.7-1.1.2-2.6 2-3.3 3.8-1.4 5.9.2 4.1 3.2-1.7 2.7-4.5 2.7-6.1.1zm-1-7.7c0-3.6 2.4-8.3 4.2-8.3 2.8 0 2.1 4-1.2 7.3-1.6 1.6-3 2.1-3 1zm76 49.7c-2-1.2-3-5.2-3-11.9q0-10.1-2.5-10.1c-3.5 0-3.1-5.3.5-6.7 2.3-.9 3-4.6 3-15.1 0-22.7-4-27.1-8.8-9.7-6.4 22.5-7.8 34.7-5.3 45 2.3 9.8 2.4 9.9 10.7 10.1 6 .3 7.5-.2 5.4-1.6zm-12-6c-1.6-1-2.2-2.4-1.4-3.3.8-.8 2.5-.4 3.8.9 3 3 1.3 4.7-2.4 2.4zm1.2-7.7c-.9-1.4-1.1-3.1-.4-3.8 1.8-1.8 3.7.9 2.8 3.8-.7 2-1.2 2-2.4 0zm-3.2-11.1c0-1.6.9-3.5 2-4.2s2 .1 2 1.8c0 1.6-.9 3.5-2 4.2s-2-.1-2-1.8zm4.5-10.4c.7-.7 2.4-.7 3.9-.2 1.6.7 1.1 1.1-1.2 1.2-2.1.1-3.3-.3-2.7-1zm.7-7.6c.7-1.8 2.1-3.2 3.2-3.2 2.6 0 1 4.5-2 5.5-1.5.5-1.9-.4-1.2-2.3zm2-6.9c-.9-1.4-1.1-3.1-.4-3.8 1.8-1.8 3.7.9 2.8 3.8-.7 2-1.2 2-2.4 0zm30.3 44.1l4.6-3.5-5.6-6.6c-4.8-5.7-6.5-6.5-13.3-6-14.4 1.3-15.1 11.7-1.1 16.7 9.4 3.4 10.3 3.4 15.4-.6zm-14-5.8c4.9-.9 6-3.8 2-5.1-1.4-.5-1.2-.8.5-.7 5.2.4 3.4 6.2-2 6.4-4.4.2-4.4.1-.5-.6zm-104.6 4.3c1.7-1.8 3.1-3.4 3.1-3.7 0-.2-4.4-.4-9.7-.4-8.4 0-9.6.5-8.8 3.6 1.2 4.6 11 4.9 15.4.5zm67.3-50.3c3.2-1.9 5.9-3.9 5.9-4.5.8-5.7 1-33.7.4-35.6-.6-1.7-5.5-2.5-15-2.5-11 0-14.6.8-16.7 3.5-3.8 5-3.4 17.1.7 24.3C79 69.9 82 71.9 82 68c0-1.1 2.7-2 6-2s6 .9 6 2c0 2.9 5.5 2.5 6.7-.5.8-2 1-1.9 1.1.1.1 1.4-1.4 3.1-3.3 3.9-1.9.7-4.7 2.5-6.1 3.9-3.5 3.4-7.8 3.3-9.8-.1-.9-1.5-3.6-3.4-6.1-4.2-6.5-2-5.8 3.2 1 7.4 7.1 4.4 15.4 4.4 22.7.1zM85.5 62.7c1.3-.6 4-.6 6-.1 1.9.5.8 1-2.5 1-3.3.1-4.9-.4-3.5-.9zM84 55c0-1.6.9-3 2-3s2-2.2 2-5c0-2.7-.9-5-2-5s-2 .9-2 2-1.3 2-3 2c-1.6 0-3-1.4-3-3.1 0-2.3 1.6-3 5.5-2.5 6.1.7 8.6 7.6 4.5 12.6-1.8 2.1-1.3 2.9 2.4 3.6 4.1.8 4 .9-.9 1.1Q84 58 84 55zm10-12c0-1.7 1.8-3 3.9-3 2.7 0 3.6 1 2.8 3-.6 1.7-2.4 3-3.9 3S94 44.7 94 43zM82 19.6c0-1 1.4-.5 3.1 1.3 1.8 1.7 4.7 3 6.5 2.9 2.1-.1 2.4-.5.9-1.1-1.4-.6-2.5-2.3-2.5-3.9 0-1.5-1.3-2.8-3-2.8-1.6 0-3-1.1-3-2.5-.1-1.8-.5-1.7-1.8.3-1 1.5-3.8 2.8-6.3 3-2.5.1-4.7 1.1-4.9 2.2s0 1.3.5.5c1.4-2.6 4.5-1.6 4.5 1.4 0 1.8 1.2 2.5 3 1.8 1.7-.6 3-2 3-3.1zm22.4 1.7c2.3-2.3 3.2-2.2 5.6.4 2.7 2.9 3 2.8 3.6-.3.7-3.5 3.4-4.6 4.9-1.9.5.8.7.6.5-.5s-2.4-2.1-4.9-2.2c-2.5-.2-5.3-1.5-6.3-3-1.3-2-1.7-2.1-1.8-.3 0 1.4-1.3 2.5-3 2.5-1.6 0-3 1.3-3 2.8 0 1.6-1.1 3.3-2.5 3.9-1.5.6-1.2 1 .9 1.1 1.8.1 4.5-1 6-2.5zM31.5 254.8c-7.4-3.9-11.8-12.7-9-17.9C24.4 233.2 35.4 222 37 222s12.6 11.2 14.5 14.9c2.8 5.3-1.7 14-9.1 17.9-4.7 2.4-6.2 2.4-10.9 0zm106 0c-7.4-3.9-11.8-12.7-9-17.9 1.9-3.7 12.9-14.9 14.5-14.9s12.6 11.2 14.5 14.9c2.8 5.3-1.7 14-9.1 17.9-4.7 2.4-6.2 2.4-10.9 0zM30 52.6c-8.5-8.3-10-12.7-6.8-19 1.6-3.1 5.3-6.8 8.4-8.4 4.7-2.4 6.2-2.4 10.9 0 7.4 3.9 11.8 12.7 9 17.9-2.4 4.6-13.1 15-15.1 14.7-.8-.1-3.6-2.4-6.4-5.2zm106 0c-8.5-8.3-10-12.7-6.8-19 1.6-3.1 5.3-6.8 8.4-8.4 4.7-2.4 6.2-2.4 10.9 0 7.4 3.9 11.8 12.7 9 17.9-2.4 4.6-13.1 15-15.1 14.7-.8-.1-3.6-2.4-6.4-5.2z" fill="#fe9e00"/><path d="M80 272c0-1.1-3.8-2-8.6-2-12.3 0-19.2-8.5-12.4-15.3 2.3-2.3 2.7-5.6 1.7-14.3-.7-6.3-2.1-11.7-3-12.1-.9-.3-1.7-2.4-1.7-4.5 0-4.7-5.1-5-7.7-.4-1.8 3.2-2.3 3-6.1-1.5-2.9-3.5-4.1-7.8-4.1-15.1-.1-9.1-1.1-11.4-9.9-22.4-9.9-12.3-15.6-24.5-13.2-28.4 2.1-3.4-1.1-14-4.2-14-1.5 0-2.8-.9-2.8-2s1.3-2 2.9-2c5.1 0 5.6-7.8 1.1-17.4-3.8-8.1-4-9.9-1.7-14.2 1.5-2.8 4.3-5.4 6.2-5.9 3.4-.9 5.1-6.5 1.9-6.5-.9 0-3.3-1.2-5.4-2.8-3.6-2.6-3.4-2.9 2.6-6 3.5-1.8 6.4-4.5 6.4-5.9s1.3-4.3 2.9-6.4c2.7-3.7 3-3.5 6 3.6l3.2 7.6 8.4-4.6c4.7-2.5 8.9-5 9.5-5.6.5-.7 2.6-1.8 4.5-2.5 2.1-.8 3.5-3.3 3.5-6.5 0-2.8 1.4-6.5 3-8.2 1.7-1.6 3-6 3-9.7s.8-7 1.9-7.3c3.6-1.4 4.5-11 1.2-14.3C62.2 18.5 69 10 81.4 10c4.8 0 8.6-.9 8.6-2s2.3-2 5-2c2.8 0 5 .9 5 2s3.8 2 8.6 2c12.3 0 19.2 8.5 12.4 15.3-2.3 2.3-2.7 5.6-1.7 14.3.7 6.3 2.1 11.7 3 12.1.9.3 1.7 2.4 1.7 4.5 0 4.7 5.1 5 7.7.4 1.8-3.2 2.3-3 6.1 1.5 2.9 3.5 4.1 7.8 4.1 15.1.1 9.1 1.1 11.4 9.9 22.4 9.9 12.3 15.6 24.5 13.2 28.4-2.1 3.4 1.1 14 4.2 14 1.5 0 2.8.9 2.8 2s-1.3 2-2.9 2c-5.1 0-5.6 7.8-1.1 17.4 3.8 8.1 4 9.9 1.7 14.2-1.5 2.8-4.3 5.4-6.2 5.9-3.4.9-5.1 6.5-1.9 6.5.9 0 3.3 1.2 5.4 2.8 3.6 2.6 3.4 2.9-2.6 6-3.5 1.8-6.4 4.5-6.4 5.9s-1.3 4.3-2.9 6.4c-2.7 3.7-3 3.5-6-3.6l-3.2-7.6-8.4 4.6c-4.7 2.5-8.9 5-9.5 5.6-.5.7-2.6 1.8-4.5 2.5-2.1.8-3.5 3.3-3.5 6.5 0 2.8-1.3 6.5-3 8.2-1.6 1.6-3 6-3 9.7s-.8 7-1.9 7.3c-3.6 1.4-4.5 11-1.2 14.3 6.9 6.9.1 15.4-12.3 15.4-4.8 0-8.6.9-8.6 2s-2.2 2-5 2c-2.7 0-5-.9-5-2zm-2.8-8c1.5 0 2.8-1.3 2.8-2.8 0-1.6 1.1-3.3 2.5-3.9 1.5-.6 1.2-1-.9-1.1-1.8-.1-4.5 1-6 2.5-2.3 2.3-3.2 2.2-5.6-.4-2.7-2.9-3-2.8-3.6.3-.7 3.5-3.4 4.6-4.9 1.9-.5-.8-.7-.6-.5.5s2.5 2.1 5.1 2.2c2.6.2 5.1 1.5 5.6 3 .7 2.1 1.2 2.2 1.8.3.5-1.4 2.1-2.5 3.7-2.5zm26.9-.8c2.5-.1 4.7-1.1 4.9-2.2s0-1.3-.5-.5c-1.5 2.7-4.2 1.6-4.9-1.9-.6-3.1-.9-3.2-3.6-.3-2.4 2.6-3.3 2.7-5.6.4-1.5-1.5-4.2-2.6-6-2.5-2.1.1-2.4.5-.9 1.1 1.4.6 2.5 2.3 2.5 3.9 0 1.5 1.4 2.8 3 2.8 1.7 0 3 1.1 3 2.5.1 1.8.5 1.7 1.8-.3 1-1.5 3.8-2.8 6.3-3zm1.1-22.7c3.8-5 3.4-17.1-.7-24.3-3.5-6.1-6.5-8.1-6.5-4.2 0 1.1-2.7 2-6 2s-6-.9-6-2c0-2.9-5.5-2.5-6.7.5-.8 2-1 1.9-1.1-.1-.1-1.4 1.4-3.1 3.3-3.9 1.9-.7 4.7-2.5 6.1-3.9 3.5-3.4 7.8-3.3 9.8.1 2.3 4.1 10.6 6.3 10.6 2.9 0-3.7-10.4-9.6-17-9.6-5 0-16.8 5.5-17.1 7.9-.8 5.7-1 33.7-.4 35.6.6 1.7 5.5 2.5 15 2.5 11 0 14.6-.8 16.7-3.5zM79.3 237c.6-1.6 2.4-3 3.9-3s2.8 1.4 2.8 3c0 1.7-1.8 3-3.9 3-2.7 0-3.6-1-2.8-3zm12 1.7c-2.2-2.3-1.4-10.4 1.2-12 1.7-1 .9-2-2.5-2.9l-5-1.4 5.5-.2c3.6-.1 5.5.8 5.5 2.8 0 1.6-.9 3-2 3s-2 2.2-2 5c0 2.7.9 5 2 5s2-.9 2-2 1.4-2 3-2c1.7 0 3 1.3 3 3 0 3-8 4.3-10.7 1.7zm-3.8-22c1.3-.6 4-.6 6-.1 1.9.5.8 1-2.5 1-3.3.1-4.9-.4-3.5-.9zm-24.7-19.2c6.4-22.5 7.8-34.7 5.3-45-2.3-9.8-2.4-9.9-10.7-10.1-6-.3-7.5.2-5.4 1.6 2 1.2 3 5.2 3 11.9q0 10.1 2.5 10.1c3.5 0 3.1 5.3-.5 6.7-2.3.9-3 4.6-3 15.1 0 22.7 4 27.1 8.8 9.7zm-6.8-2.6c0-1.7.9-2.6 2-1.9 2.6 1.6 2.6 5 0 5-1.1 0-2-1.4-2-3.1zm.5-7.3c.4-1.3 1.8-2.7 3.1-3.1 1.5-.5 1.9.4 1.2 2.3-1.4 3.7-5.5 4.4-4.3.8zm0-8.8c.7-.7 2.4-.7 3.9-.2 1.6.7 1.1 1.1-1.2 1.2-2.1.1-3.3-.3-2.7-1zm5.5-7.6c0-1.6.9-3.5 2-4.2s2 .1 2 1.8c0 1.6-.9 3.5-2 4.2s-2-.1-2-1.8zm-2-12.3c0-1.7.9-2.6 2-1.9 2.6 1.6 2.6 5 0 5-1.1 0-2-1.4-2-3.1zm1.3-6.2c-2.4-2.5-1.3-4.6 1.7-3.4 1.7.6 3 1.9 3 2.9 0 2.1-2.8 2.4-4.7.5zM72 206.2C72 203 85.2 196 91 196s19 7 19 10.2c0 1 .9 1.8 2 1.8 4.1 0 1.8-4.4-7.3-14.1-5.1-5.4-10.7-9.9-12.4-9.9-3.2 0-24.3 19.5-24.3 22.4 0 .9.9 1.6 2 1.6s2-.8 2-1.8zm56.9-3.2c3.6-2.8 3.7-3.8 1.2-19-2.1-13.1-2.1-17.9-.1-25.5 1.4-5.2 3.4-10.4 4.3-11.4 3.1-3.5 1.8-4.5-5.5-4.2-10.8.4-12.8 4.6-12.8 26.6 0 20 3 36.5 6.7 36.4 1.3 0 4-1.3 6.2-2.9zm-6.9-3.1c0-1.2 1.4-3.5 3-5.2 3.1-3.1 3.9-1.3 1.8 4.1-1.4 3.6-4.8 4.3-4.8 1.1zm-1.6-12.2c1.1-3.1 5.4-3.6 6.1-.7.3 1.1-1.2 2.3-3.2 2.7-2.5.4-3.4-.3-2.9-2zM120 177c0-1.6.4-3 .8-3s1.3 1.4 1.9 3c.7 1.7.3 3-.8 3-1 0-1.9-1.3-1.9-3zm.4-7.1c.5-1.5 2-3 3.5-3.5s2.2.2 1.7 1.7-2 3-3.5 3.5-2.2-.2-1.7-1.7zm-1.2-9c-.6-1.7.1-2.9 1.7-2.9 4 0 5.6 3.4 2.3 4.7-1.6.6-3.4-.2-4-1.8zm2.8-8.7c0-1 1.4-2.3 3-2.9 1.8-.7 3 0 3 1.8 0 1.6-1.3 2.9-3 2.9-1.6 0-3-.8-3-1.8zm34 48c0-1.9 2.2-4.7 4.9-6.1l4.9-2.7-4.7-3.7c-2.6-2-6.2-3.7-8.1-3.7s-5.5 1.7-8.1 3.7l-4.7 3.7 4.9 2.7c2.7 1.4 4.9 4.1 4.9 5.9s.6 3.9 1.3 4.6c2 2 4.7-.5 4.7-4.4zm-8.9-8.1c-.8-1.2 0-2.6 1.7-3.3 4-1.5 10.2-.2 10.2 2.2 0 2.8-10.3 3.7-11.9 1.1zm-7.6 5.6c1.8-1.8 1.5-3-1-4.9-3.1-2.2-3-2.7 2-4.9 3-1.4 5.5-3.7 5.5-5.2s1-2.7 2.1-2.7c1.2 0 .8-1.3-.8-3-3.4-3.4-7.3-4-7.3-1.1 0 1 1.6 2.2 3.5 2.7 3 .8 3 1 .2 1.2-1.8.1-4.8-2.1-6.6-5-2.9-4.4-3.1-6.1-.9-11.5 1.4-3.5 4.1-7.9 6.1-9.9 4.6-4.4 4.8-8.3.4-6.6-2.7 1.1-2.9.8-.7-1.8 2-2.4 2-3-.4-3-3.2 0-6.1 4.9-9.7 16.8-1.9 6.2-1.9 11.4.2 24.5 1.4 9.2 3.1 16.7 3.8 16.7s2.3-1 3.6-2.3zM81 175.5c-4.3-2.4-3.7-9.7.8-10.9 2.1-.5 4.3-2.7 4.8-4.8.6-2.3 2.8-3.8 5.4-3.8s4.8 1.5 5.4 3.8c.5 2.1 2.7 4.3 4.8 4.8 4.6 1.2 5.1 8.5.8 10.9-2.5 1.4-1.8 2.9 4 8.5l7 6.8v-40.3l-7.5-1.2c-9.7-1.6-22.4-1.6-30.3 0-5.9 1.1-6.2 1.7-5.1 7.8 1.1 5.6-.9 20.8-4.5 33.9-.7 2.8 1.8 1.3 8.2-4.9 7.4-7.2 8.6-9.3 6.2-10.6zm-45.3-3.4C31.5 164 23.2 154 20.6 154c-7.6 0-3.8 13.6 8.1 28.5L37 193l.6-7.9c.4-4.3-.5-10.1-1.9-13zm-8.2.6c-4.1-6-6.6-10.4-5.5-9.7 2.5 1.6 14.6 19.1 13.7 19.9-.4.4-4.1-4.2-8.2-10.2zm136.7 5.3c1 0 1.8-.9 1.8-2 0-3.1-3.9-2.4-7.6 1.4-3.2 3.2-3.2 3.3.3 2 2-.8 4.5-1.4 5.5-1.4zm2.3-6c1.9 0 3.5-.9 3.5-2 0-1.2-7-2-17-2-9.3 0-17 .8-17 1.9 0 2.3 10.7 3.9 20 2.9 3.9-.4 8.6-.8 10.5-.8zM52.8 161.5c3.2-5.1-.3-9.4-10.3-12.8-7.6-2.5-9-2.5-13.5.5-5.3 3.5-5.3 3.6 2.8 13.4 3.9 4.7 17.8 4 21-1.1zm-15.9-1.7c-2.1-3.3 2.1-6.2 7.4-5.2 4.3.8 4.2.9-.8 1.1-6.1.3-7.4 3.5-2 4.9 3.2.8 3.2 1 .1 1.2-1.8.1-4-.8-4.7-2zm130.8 4.4c.5-.1-.3-1.5-1.7-3.2-1.3-1.6-3.2-2.5-4.1-1.9-.9.5-2.1.1-2.8-.9-.9-1.5-6.7-1.6-8.6-.1-.3.2-2.1.5-4 .7-4.5.3-8.8 3.1-7.7 4.9.7 1.1 25.6 1.6 28.9.5zm-26.4-2.2c.6-.5 2.8-1.1 4.9-1.2 2.1-.2 4-.5 4.3-.7 1.9-1.5 7.7-1.4 8.6.1.7 1 2 1.4 2.9.8s2.2-.4 2.7.5-4.8 1.6-11.7 1.6c-7 0-12.3-.5-11.7-1.1zm21.2-10.4c-1.2-4.6-11-4.9-15.4-.5-1.7 1.8-3.1 3.4-3.1 3.7 0 .2 4.4.4 9.7.4 8.4 0 9.6-.5 8.8-3.6zM42 142.9c0-.5-2.5-.8-5.5-.8-4.8.2-5 .4-1.5 1.8 3.7 1.5 7 1 7-1zm1.5-9.4c6.2-12.6 7.1-19.9 4.4-36.8-1.4-9.2-3.1-16.7-3.8-16.7s-2.3 1-3.6 2.3c-1.8 1.8-1.5 3 1 4.9 3.1 2.2 3 2.7-2 4.9-5.7 2.6-7.5 7.9-2.7 7.9 1.5 0 4.3 2.3 6.1 5.2 2.9 4.4 3.1 6.1.9 11.5-1.4 3.5-4.1 7.9-6.1 9.9-4.6 4.4-4.8 8.3-.4 6.6 2.7-1.1 2.9-.8.7 1.8-2 2.4-2 3 .4 3 1.6 0 3.9-2 5.1-4.5zm17.7-.5c5.8-7.8 2.3-59.1-3.9-58.9-1.3 0-4 1.3-6.2 2.9-3.6 2.8-3.7 3.8-1.2 19 2.1 13.1 2.1 17.9.1 25.5-1.4 5.2-3.4 10.4-4.3 11.4-3.1 3.5-1.8 4.5 5.5 4.2 4.6-.2 8.2-1.6 10-4.1zm-9.2-4.1c0-1.6 1.4-2.9 3-2.9 3.9 0 3.9 3.2 0 4.7-1.8.7-3 0-3-1.8zm3.1-8.7c-.6-1 .2-2.3 1.7-2.9 1.6-.6 3.4.2 4 1.8 1.2 3.1-3.8 4.1-5.7 1.1zm-.7-8.3c.5-1.5 2-3 3.5-3.5s2.2.2 1.7 1.7-2 3-3.5 3.5-2.2-.2-1.7-1.7zm2.9-8.9c-.7-1.6-.3-3 .8-3 1 0 1.9 1.4 1.9 3 0 1.7-.4 3-.8 3s-1.3-1.3-1.9-3zM53 94c-.7-1.1.2-2.6 2-3.3 3.8-1.4 5.9.2 4.1 3.2-1.7 2.7-4.5 2.7-6.1.1zm-1-7.7c0-3.6 2.4-8.3 4.2-8.3 2.8 0 2.1 4-1.2 7.3-1.6 1.6-3 2.1-3 1zm76 49.7c-2-1.2-3-5.2-3-11.9q0-10.1-2.5-10.1c-3.5 0-3.1-5.3.5-6.7 2.3-.9 3-4.6 3-15.1 0-22.7-4-27.1-8.8-9.7-6.4 22.5-7.8 34.7-5.3 45 2.3 9.8 2.4 9.9 10.7 10.1 6 .3 7.5-.2 5.4-1.6zm-12-6c-1.6-1-2.2-2.4-1.4-3.3.8-.8 2.5-.4 3.8.9 3 3 1.3 4.7-2.4 2.4zm1.2-7.7c-.9-1.4-1.1-3.1-.4-3.8 1.8-1.8 3.7.9 2.8 3.8-.7 2-1.2 2-2.4 0zm-3.2-11.1c0-1.6.9-3.5 2-4.2s2 .1 2 1.8c0 1.6-.9 3.5-2 4.2s-2-.1-2-1.8zm4.5-10.4c.7-.7 2.4-.7 3.9-.2 1.6.7 1.1 1.1-1.2 1.2-2.1.1-3.3-.3-2.7-1zm.7-7.6c.7-1.8 2.1-3.2 3.2-3.2 2.6 0 1 4.5-2 5.5-1.5.5-1.9-.4-1.2-2.3zm2-6.9c-.9-1.4-1.1-3.1-.4-3.8 1.8-1.8 3.7.9 2.8 3.8-.7 2-1.2 2-2.4 0zm26.8 50.9c0-1.7-8.1-2.7-9.1-1-.6 1 1.2 1.8 4 1.8s5.1-.3 5.1-.8zm3.5-6.8l4.6-3.5-5.6-6.6c-4.8-5.7-6.5-6.5-13.3-6-14.4 1.3-15.1 11.7-1.1 16.7 9.4 3.4 10.3 3.4 15.4-.6zm-14-5.8c4.9-.9 6-3.8 2-5.1-1.4-.5-1.2-.8.5-.7 5.2.4 3.4 6.2-2 6.4-4.4.2-4.4.1-.5-.6zm-104.6 4.3c1.7-1.8 3.1-3.4 3.1-3.7 0-.2-4.4-.4-9.7-.4-8.4 0-9.6.5-8.8 3.6 1.2 4.6 11 4.9 15.4.5zm70.9 1.8c5.9-1.1 6.2-1.7 5.1-7.8-1.1-5.6.9-20.8 4.5-33.9.7-2.8-1.8-1.3-8.2 4.9-7.4 7.2-8.6 9.3-6.2 10.6 4.3 2.4 3.7 9.7-.8 10.9-2.1.5-4.3 2.7-4.8 4.8-.6 2.3-2.8 3.8-5.4 3.8s-4.8-1.5-5.4-3.8c-.5-2.1-2.7-4.3-4.8-4.8-4.6-1.2-5.1-8.5-.8-10.9 2.5-1.4 1.8-2.9-4-8.5l-7-6.8v40.5l5.5.9c9.3 1.4 25.7 1.5 32.3.1zm59.4-7.6c1.6-4.2-5.7-18.9-13.9-28.1l-7.1-8-.1 8.3c-.2 15.6 17.1 38.4 21.1 27.8zm-12.1-14.6c-3.9-5.2-7-10.3-7.1-11.3 0-1 .3-1.5.6-1 6.8 9.1 15.2 21.8 14.4 21.8-.5 0-4.1-4.3-7.9-9.5zM29.5 121.9c.3-.2 2.1-.5 4-.7 4.5-.3 8.8-3.1 7.7-4.9-.7-1.1-25.6-1.6-28.9-.5-.5.1.3 1.5 1.7 3.2 1.3 1.6 3.2 2.5 4.1 1.9.9-.5 2.1-.1 2.8.9.9 1.5 6.7 1.6 8.6.1zm-8.6-2.1c-.7-1-2-1.4-2.9-.8s-2.2.4-2.7-.5 4.8-1.6 11.7-1.6c7 0 12.3.5 11.7 1.1-.6.5-2.8 1.1-4.9 1.3-2.1.1-4 .4-4.3.6-1.9 1.5-7.7 1.4-8.6-.1zm23.1-9.5c0-2.5-15.5-4.3-25.5-2.9-14.4 1.9-9.4 4.6 8.5 4.6 9.4 0 17-.8 17-1.7zm-22.4-7.7c3.2-3.2 3.2-3.3-.3-2-2 .8-4.5 1.4-5.5 1.4s-1.8.9-1.8 2c0 3.1 3.9 2.4 7.6-1.4zM40 104c0-1.1-.8-2-1.8-2s-3.5-.6-5.5-1.4c-3.2-1.2-3.3-1-.6 1.9 3.2 3.7 7.9 4.6 7.9 1.5zm-4.9-11.7l4.7-3.7L35 86c-2.6-1.4-5.1-4.5-5.4-6.8S28.1 75 27 75s-2.3 1.9-2.6 4.2-2.8 5.4-5.4 6.8l-4.8 2.5 4.4 3.7c5.6 4.7 10.6 4.7 16.5.1zm-14-2.2c-.8-1.2 0-2.6 1.7-3.3 4-1.5 10.2-.2 10.2 2.2 0 2.8-10.3 3.7-11.9 1.1zM102 85c5.9-6 10.1-11.5 9.4-12.3-.8-.8-2.6 0-3.9 1.7C103 79.9 95.2 84 89.3 84 83.2 84 70 77 70 73.8c0-1-.9-1.8-2-1.8-4.1 0-1.8 4.4 7.3 14.1C80.4 91.5 86 96 87.8 96c1.9 0 8.2-4.9 14.2-11zm-1.8-6.4c3.2-1.9 5.9-3.9 5.9-4.5.8-5.7 1-33.7.4-35.6-.6-1.7-5.5-2.5-15-2.5-11 0-14.6.8-16.7 3.5-3.8 5-3.4 17.1.7 24.3C79 69.9 82 71.9 82 68c0-1.1 2.7-2 6-2s6 .9 6 2c0 2.9 5.5 2.5 6.7-.5.8-2 1-1.9 1.1.1.1 1.4-1.4 3.1-3.3 3.9-1.9.7-4.7 2.5-6.1 3.9-3.5 3.4-7.8 3.3-9.8-.1-.9-1.5-3.6-3.4-6.1-4.2-6.5-2-5.8 3.2 1 7.4 7.1 4.4 15.4 4.4 22.7.1zM85.5 62.7c1.3-.6 4-.6 6-.1 1.9.5.8 1-2.5 1-3.3.1-4.9-.4-3.5-.9zM84 55c0-1.6.9-3 2-3s2-2.2 2-5c0-2.7-.9-5-2-5s-2 .9-2 2-1.3 2-3 2c-1.6 0-3-1.4-3-3.1 0-2.3 1.6-3 5.5-2.5 6.1.7 8.6 7.6 4.5 12.6-1.8 2.1-1.3 2.9 2.4 3.6 4.1.8 4 .9-.9 1.1Q84 58 84 55zm10-12c0-1.7 1.8-3 3.9-3 2.7 0 3.6 1 2.8 3-.6 1.7-2.4 3-3.9 3S94 44.7 94 43zM82 19.6c0-1 1.4-.5 3.1 1.3 1.8 1.7 4.7 3 6.5 2.9 2.1-.1 2.4-.5.9-1.1-1.4-.6-2.5-2.3-2.5-3.9 0-1.5-1.3-2.8-3-2.8-1.6 0-3-1.1-3-2.5-.1-1.8-.5-1.7-1.8.3-1 1.5-3.8 2.8-6.3 3-2.5.1-4.7 1.1-4.9 2.2s0 1.3.5.5c1.4-2.6 4.5-1.6 4.5 1.4 0 1.8 1.2 2.5 3 1.8 1.7-.6 3-2 3-3.1zm22.4 1.7c2.3-2.3 3.2-2.2 5.6.4 2.7 2.9 3 2.8 3.6-.3.7-3.5 3.4-4.6 4.9-1.9.5.8.7.6.5-.5s-2.4-2.1-4.9-2.2c-2.5-.2-5.3-1.5-6.3-3-1.3-2-1.7-2.1-1.8-.3 0 1.4-1.3 2.5-3 2.5-1.6 0-3 1.3-3 2.8 0 1.6-1.1 3.3-2.5 3.9-1.5.6-1.2 1 .9 1.1 1.8.1 4.5-1 6-2.5zM31.5 254.8c-3-1.6-6.8-5.4-8.4-8.5-2.5-5-2.5-6.2.6-11.3 3-5 4.7-5.8 13.2-5.9 8.7-.2 10.1.4 13.3 5.7s3.3 6.4.6 11.5c-1.6 3.1-5.3 6.9-8.4 8.5-4.7 2.4-6.2 2.4-10.9 0zm10.5-2c0-.4-2.5-.8-5.5-.8-4 .1-4.7.5-2.7 1.8 2.6 1.7 8.2.9 8.2-1zm8.5-10.2c2.9-1.7-.4-4.1-7.1-5.1-8-1.3-20.4.9-20.3 3.6.2 3.9 21.2 5.1 27.4 1.5zm87 12.2c-3-1.6-6.8-5.4-8.4-8.5-2.5-5-2.5-6.2.6-11.3 3-5 4.7-5.8 13.2-5.9 8.7-.2 10.1.4 13.3 5.7s3.3 6.4.6 11.5c-1.6 3.1-5.3 6.9-8.4 8.5-4.7 2.4-6.2 2.4-10.9 0zm10.5-2c0-.4-2.5-.8-5.5-.8-4 .1-4.7.5-2.7 1.8 2.6 1.7 8.2.9 8.2-1zm8.5-10.2c2.9-1.7-.4-4.1-7.1-5.1-8-1.3-20.4.9-20.3 3.6.2 3.9 21.2 5.1 27.4 1.5zM33.3 225c.6-1.6 2.3-3 3.7-3s3.1 1.4 3.7 3c.7 1.7.3 3-.8 3-1 0-2-1.1-2.1-2.5-.1-2-.3-2-1.1 0-.6 1.4-1.8 2.5-2.8 2.5s-1.3-1.3-.6-3zm106 0c.6-1.6 2.3-3 3.7-3s3.1 1.4 3.7 3c.7 1.7.3 3-.8 3-1 0-2-1.1-2.1-2.5-.1-2-.3-2-1.1 0-.6 1.4-1.8 2.5-2.8 2.5s-1.3-1.3-.6-3zM33.3 55c-.7-1.6-.3-3 .8-3 1 0 2 1.1 2.1 2.5.1 2 .3 2 1.1 0 .6-1.4 1.8-2.5 2.8-2.5s1.3 1.4.6 3c-.6 1.7-2.3 3-3.7 3s-3.1-1.3-3.7-3zm106 0c-.7-1.6-.3-3 .8-3 1 0 2 1.1 2.1 2.5.1 2 .3 2 1.1 0 .6-1.4 1.8-2.5 2.8-2.5s1.3 1.4.6 3c-.6 1.7-2.3 3-3.7 3s-3.1-1.3-3.7-3zM23.8 45.2c-3.2-5.3-3.3-6.4-.7-11.5 1.6-3.1 5.4-6.9 8.4-8.5 4.7-2.4 6.2-2.4 10.9 0 3.1 1.6 6.8 5.4 8.4 8.5 2.6 5 2.6 6.2-.5 11.3-3 5-4.7 5.8-13.2 5.9-8.7.2-10.1-.4-13.3-5.7zm26.7-4.6c2.9-1.7-.4-4.1-7.1-5.1-8-1.3-20.4.9-20.3 3.6.2 3.9 21.2 5.1 27.4 1.5zM40.2 26.2c-1.6-1-4-1.4-5.5-.8-4.2 1.6-3.2 2.6 2.8 2.6 4-.1 4.7-.5 2.7-1.8zm89.6 19c-3.2-5.3-3.3-6.4-.7-11.5 1.6-3.1 5.4-6.9 8.4-8.5 4.7-2.4 6.2-2.4 10.9 0 3.1 1.6 6.8 5.4 8.4 8.5 2.6 5 2.6 6.2-.5 11.3-3 5-4.7 5.8-13.2 5.9-8.7.2-10.1-.4-13.3-5.7zm26.7-4.6c2.9-1.7-.4-4.1-7.1-5.1-8-1.3-20.4.9-20.3 3.6.2 3.9 21.2 5.1 27.4 1.5zm-10.3-14.4c-1.6-1-4-1.4-5.5-.8-4.2 1.6-3.2 2.6 2.8 2.6 4-.1 4.7-.5 2.7-1.8z" fill="#9b989b"/><path d="M80 272c0-1.1-3.8-2-8.6-2-12.3 0-19.2-8.5-12.4-15.3 2.3-2.3 2.7-5.6 1.7-14.3-.7-6.3-2.1-11.7-3-12.1-.9-.3-1.7-2.4-1.7-4.5 0-4.7-5.1-5-7.7-.4-1.8 3.2-2.3 3-6.1-1.5-2.9-3.5-4.1-7.8-4.1-15.1-.1-9.1-1.1-11.4-9.9-22.4-9.9-12.3-15.6-24.5-13.2-28.4 2.1-3.4-1.1-14-4.2-14-1.5 0-2.8-.9-2.8-2s1.3-2 2.8-2 3.3-1.4 4-3.1c.9-2.5 3.7-3 13-2.6 9.3.5 11.5 1.2 9.8 3.1-1.6 2 .6 2.4 10.4 2 8.2-.3 13.2-1.5 14.7-3.5 3.4-4.5 48-4 48.9.5.4 2.3 3.3 3.1 11 3.1 5.7 0 8.9-.4 7-.9-3.9-1-6.7-12-4.7-18.4 1-3 .5-4.2-1.8-4.2-4 0-4-5.2 0-6.8 2.6-.9 3-4.5 2.7-19.9-.4-16.8-.8-18.7-4-17.8-2 .5-4.2 3.6-4.9 7.1-.8 3.4-5.8 10.8-11.2 16.5-7.6 8-9.1 10.7-6.8 11.6 4.4 1.7 3.9 9.5-.7 10.7-2.1.5-4.3 2.7-4.8 4.8-1.4 5.1-9.4 5.1-10.8 0-.5-2.1-2.7-4.3-4.8-4.8-4.6-1.2-5.1-9-.8-10.7 2.4-.9 1.4-3-4.7-9.6-4.6-5-8.3-11.3-9.1-15.7-.8-4.1-2.1-7.4-2.9-7.4-2.5 0 0-12.5 3-15.6 1.5-1.5 2.7-5.7 2.7-9.4s.8-7 1.9-7.3c3.6-1.4 4.5-11 1.2-14.3C62.2 18.5 69 10 81.4 10c4.8 0 8.6-.9 8.6-2s2.3-2 5-2c2.8 0 5 .9 5 2s3.8 2 8.6 2c12.3 0 19.2 8.5 12.4 15.3-2.3 2.3-2.7 5.6-1.7 14.3.7 6.3 2.1 11.7 3 12.1.9.3 1.7 2.4 1.7 4.5 0 4.7 5.1 5 7.7.4 1.8-3.2 2.3-3 6.1 1.5 2.9 3.5 4.1 7.8 4.1 15.1.1 9.1 1.1 11.4 9.9 22.4 9.9 12.3 15.6 24.5 13.2 28.4-2.1 3.4 1.1 14 4.2 14 1.5 0 2.8.9 2.8 2s-1.3 2-2.8 2-3.3 1.4-4 3.1c-.9 2.5-3.7 3-13 2.6-9.3-.5-11.5-1.2-9.8-3.1 1.6-2-.6-2.4-10.4-2-8.2.3-13.2 1.5-14.7 3.5-3.4 4.5-48 4-48.9-.5-.4-2.3-3.3-3.1-11-3.1-5.7 0-8.9.4-7 .9 3.9 1 6.7 12 4.7 18.4-1 3-.5 4.2 1.8 4.2 4 0 4 5.2 0 6.8-2.6.9-3 4.5-2.7 19.9.4 16.8.8 18.7 4 17.8 2-.5 4.2-3.6 4.9-7.1.8-3.4 5.8-10.8 11.2-16.5 7.6-8 9.1-10.7 6.8-11.6-4.4-1.7-3.9-9.5.7-10.7 2.1-.5 4.3-2.7 4.8-4.8.6-2.3 2.8-3.8 5.4-3.8s4.8 1.5 5.4 3.8c.5 2.1 2.7 4.3 4.8 4.8 4.6 1.2 5.1 9 .8 10.7-2.4.9-1.4 3 4.7 9.6 4.6 5 8.3 11.3 9.1 15.7.8 4.1 2.1 7.4 2.9 7.4 2.5 0 0 12.5-3 15.6-1.5 1.5-2.7 5.7-2.7 9.4s-.8 7-1.9 7.3c-3.6 1.4-4.5 11-1.2 14.3 6.9 6.9.1 15.4-12.3 15.4-4.8 0-8.6.9-8.6 2s-2.2 2-5 2c-2.7 0-5-.9-5-2zm-2.8-8c1.5 0 2.8-1.3 2.8-2.8 0-1.6 1.1-3.3 2.5-3.9 1.5-.6 1.2-1-.9-1.1-1.8-.1-4.5 1-6 2.5-2.3 2.3-3.2 2.2-5.6-.4-2.7-2.9-3-2.8-3.6.3-.7 3.5-3.4 4.6-4.9 1.9-.5-.8-.7-.6-.5.5s2.5 2.1 5.1 2.2c2.6.2 5.1 1.5 5.6 3 .7 2.1 1.2 2.2 1.8.3.5-1.4 2.1-2.5 3.7-2.5zm26.9-.8c2.5-.1 4.7-1.1 4.9-2.2s0-1.3-.5-.5c-1.5 2.7-4.2 1.6-4.9-1.9-.6-3.1-.9-3.2-3.6-.3-2.4 2.6-3.3 2.7-5.6.4-1.5-1.5-4.2-2.6-6-2.5-2.1.1-2.4.5-.9 1.1 1.4.6 2.5 2.3 2.5 3.9 0 1.5 1.4 2.8 3 2.8 1.7 0 3 1.1 3 2.5.1 1.8.5 1.7 1.8-.3 1-1.5 3.8-2.8 6.3-3zm1.1-22.7c3.7-4.8 3.5-17.6-.4-23.5-3-4.6-3-5.1 0-6.2 1.8-.7 3.2-2.3 3.2-3.6 0-3.4-10.7-9.2-17-9.2-5 0-16.8 5.5-17.1 7.9-.8 5.7-1 33.7-.4 35.6.6 1.7 5.5 2.5 15 2.5 11 0 14.6-.8 16.7-3.5zM82 236c0-1.1.9-2 2-2s2 .9 2 2-.9 2-2 2-2-.9-2-2zm16 0c0-1.1.9-2 2-2s2 .9 2 2-.9 2-2 2-2-.9-2-2zm-12-26.9c0-3.1 1.4-5.3 4-6.1 5.4-1.7 8 .3 8 6.1 0 4.1-1 4.9-6 4.9s-6-.8-6-4.9zm-36.4 10.5c3-3 3.4-45.6.4-45.6-1.2 0-2 9-2 23s-.8 23-2 23-2-9-2-23-.8-23-2-23c-3 0-2.6 42.6.4 45.6 1.3 1.3 2.9 2.4 3.6 2.4s2.3-1.1 3.6-2.4zM72 206.2C72 203 85.2 196 91 196s19 7 19 10.2c0 1 .9 1.8 2 1.8 4.1 0 1.8-4.4-7.3-14.1-5.1-5.4-10.7-9.9-12.4-9.9-3.2 0-24.3 19.5-24.3 22.4 0 .9.9 1.6 2 1.6s2-.8 2-1.8zm-36.3-34.1C31.5 164 23.2 154 20.6 154c-7.6 0-3.8 13.6 8.1 28.5L37 193l.6-7.9c.4-4.3-.5-10.1-1.9-13zm-8.2.6c-4.1-6-6.6-10.4-5.5-9.7 2.5 1.6 14.6 19.1 13.7 19.9-.4.4-4.1-4.2-8.2-10.2zM56 170c0-1.1-4.5-2-10-2s-10 .9-10 2 4.5 2 10 2 10-.9 10-2zm-3.2-8.5c3.2-5.1-.3-9.4-10.3-12.8-7.6-2.5-9-2.5-13.5.5-5.3 3.5-5.3 3.6 2.8 13.4 3.9 4.7 17.8 4 21-1.1zm-3.3-14.9c-2-.5-4.7-.5-6 .1-1.4.5.2 1 3.5.9 3.3 0 4.4-.5 2.5-1zm-7.5-3.7c0-.5-2.5-.8-5.5-.8-4.8.2-5 .4-1.5 1.8 3.7 1.5 7 1 7-1zm106-5.7c0-1.7-8.1-2.7-9.1-1-.6 1 1.2 1.8 4 1.8s5.1-.3 5.1-.8zm3.5-6.8l4.6-3.5-5.6-6.6c-4.8-5.7-6.5-6.5-13.3-6-14.4 1.3-15.1 11.7-1.1 16.7 9.4 3.4 10.3 3.4 15.4-.6zm-16 2.2c-2-.5-4.7-.5-6 .1-1.4.5.2 1 3.5.9 3.3 0 4.4-.5 2.5-1zm27.7-9.5c1.6-4.2-5.7-18.9-13.9-28.1l-7.1-8-.1 8.3c-.2 15.6 17.1 38.4 21.1 27.8zm-12.1-14.6c-3.9-5.2-7-10.3-7.1-11.3 0-1 .3-1.5.6-1 6.8 9.1 15.2 21.8 14.4 21.8-.5 0-4.1-4.3-7.9-9.5zM144 110c0-1.1-4.5-2-10-2s-10 .9-10 2 4.5 2 10 2 10-.9 10-2zm-12-27c0-14 .8-23 2-23s2 9 2 23 .8 23 2 23 2-8.6 2-21.8c0-16.9-.7-22.3-3-24.2-2.4-2-3.6-2-6 0-2.3 1.9-3 7.3-3 24.2 0 13.2.8 21.8 2 21.8s2-9 2-23zm-30 2c5.9-6 10.1-11.5 9.4-12.3-.8-.8-2.6 0-3.9 1.7C103 79.9 95.2 84 89.3 84 83.2 84 70 77 70 73.8c0-1-.9-1.8-2-1.8-4.1 0-1.8 4.4 7.3 14.1C80.4 91.5 86 96 87.8 96c1.9 0 8.2-4.9 14.2-11zm-1.8-6.4c3.2-1.9 5.9-3.9 5.9-4.5.8-5.7 1-33.7.4-35.6-.6-1.7-5.5-2.5-15-2.5-11 0-14.6.8-16.7 3.5-3.7 4.8-3.5 17.6.4 23.5 3 4.6 3 5.1 0 6.2-4.8 1.8-3.9 5.4 2.3 9.3 7.1 4.4 15.4 4.4 22.7.1zm-16.9-1.9c-.7-.8-1.3-3.5-1.3-6 0-3.9 1-4.7 6-4.7s6 .8 6 4.8c0 5.6-7 9.5-10.7 5.9zM78 44c0-1.1.9-2 2-2s2 .9 2 2-.9 2-2 2-2-.9-2-2zm16 0c0-1.1.9-2 2-2s2 .9 2 2-.9 2-2 2-2-.9-2-2zM82 19.6c0-1 1.4-.5 3.1 1.3 1.8 1.7 4.7 3 6.5 2.9 2.1-.1 2.4-.5.9-1.1-1.4-.6-2.5-2.3-2.5-3.9 0-1.5-1.3-2.8-3-2.8-1.6 0-3-1.1-3-2.5-.1-1.8-.5-1.7-1.8.3-1 1.5-3.8 2.8-6.3 3-2.5.1-4.7 1.1-4.9 2.2s0 1.3.5.5c1.4-2.6 4.5-1.6 4.5 1.4 0 1.8 1.2 2.5 3 1.8 1.7-.6 3-2 3-3.1zm22.4 1.7c2.3-2.3 3.2-2.2 5.6.4 2.7 2.9 3 2.8 3.6-.3.7-3.5 3.4-4.6 4.9-1.9.5.8.7.6.5-.5s-2.4-2.1-4.9-2.2c-2.5-.2-5.3-1.5-6.3-3-1.3-2-1.7-2.1-1.8-.3 0 1.4-1.3 2.5-3 2.5-1.6 0-3 1.3-3 2.8 0 1.6-1.1 3.3-2.5 3.9-1.5.6-1.2 1 .9 1.1 1.8.1 4.5-1 6-2.5zM31.5 254.8c-3-1.6-6.8-5.4-8.4-8.5-2.5-5-2.5-6.2.6-11.3 3-5 4.7-5.8 13.2-5.9 8.7-.2 10.1.4 13.3 5.7s3.3 6.4.6 11.5c-1.6 3.1-5.3 6.9-8.4 8.5-4.7 2.4-6.2 2.4-10.9 0zm10.5-2c0-.4-2.5-.8-5.5-.8-4 .1-4.7.5-2.7 1.8 2.6 1.7 8.2.9 8.2-1zm8.5-10.2c2.9-1.7-.4-4.1-7.1-5.1-8-1.3-20.4.9-20.3 3.6.2 3.9 21.2 5.1 27.4 1.5zm87 12.2c-3-1.6-6.8-5.4-8.4-8.5-2.5-5-2.5-6.2.6-11.3 3-5 4.7-5.8 13.2-5.9 8.7-.2 10.1.4 13.3 5.7s3.3 6.4.6 11.5c-1.6 3.1-5.3 6.9-8.4 8.5-4.7 2.4-6.2 2.4-10.9 0zm10.5-2c0-.4-2.5-.8-5.5-.8-4 .1-4.7.5-2.7 1.8 2.6 1.7 8.2.9 8.2-1zm8.5-10.2c2.9-1.7-.4-4.1-7.1-5.1-8-1.3-20.4.9-20.3 3.6.2 3.9 21.2 5.1 27.4 1.5zM33.3 225c.6-1.6 2.3-3 3.7-3s3.1 1.4 3.7 3c.7 1.7.3 3-.8 3-1 0-2-1.1-2.1-2.5-.1-2-.3-2-1.1 0-.6 1.4-1.8 2.5-2.8 2.5s-1.3-1.3-.6-3zm106 0c.6-1.6 2.3-3 3.7-3s3.1 1.4 3.7 3c.7 1.7.3 3-.8 3-1 0-2-1.1-2.1-2.5-.1-2-.3-2-1.1 0-.6 1.4-1.8 2.5-2.8 2.5s-1.3-1.3-.6-3zm9.7-21.7c-3.1-7.5-3.3-7.6-8-4.5-6.3 4.2-9.2 4.2-3.3 0 4.3-3 4.3-3.3.9-5.8-3.3-2.5-3.2-2.8 1.9-5.1 6.2-2.9 7.2-7 2-8.4-1.9-.5-4.8-3.2-6.3-6.1-3.9-7.3 1-15 9.1-14.4 3.2.2 6.7-.4 8-1.4 1.4-1.1 2.8-1 3.6.2.6 1.1 3 1.6 5.2 1.2 2.6-.5 5.1 1 7.2 4.2 2.9 4.3 2.9 5.6.5 10.2-1.5 2.9-4.4 5.6-6.3 6.1-3.4.9-5.1 6.5-1.9 6.5.9 0 3.3 1.2 5.4 2.8 3.6 2.6 3.4 2.9-2.6 6-3.5 1.8-6.4 4.5-6.4 5.9s-1.3 4.3-2.9 6.4c-2.7 3.7-3 3.5-6.1-3.8zm7-3.1c0-1.9 2.2-4.7 4.9-6.1l4.9-2.7-4.7-3.7c-2.6-2-6.2-3.7-8.1-3.7s-5.5 1.7-8.1 3.7l-4.7 3.7 4.9 2.7c2.7 1.4 4.9 4.1 4.9 5.9s.6 3.9 1.3 4.6c2 2 4.7-.5 4.7-4.4zm-8.9-8.1c-.8-1.2 0-2.6 1.7-3.3 4-1.5 10.2-.2 10.2 2.2 0 2.8-10.3 3.7-11.9 1.1zm.2-15.1c-3.4-3.4-7.3-4-7.3-1.1 0 1.6 3.4 3.1 8.6 3.9.9.1.3-1.1-1.3-2.8zm16.9 1c1 0 1.8-.9 1.8-2 0-3.1-3.9-2.4-7.6 1.4-3.2 3.2-3.2 3.3.3 2 2-.8 4.5-1.4 5.5-1.4zm2.3-6c1.9 0 3.5-.9 3.5-2 0-1.2-7-2-17-2-9.3 0-17 .8-17 1.9 0 2.3 10.7 3.9 20 2.9 3.9-.4 8.6-.8 10.5-.8zm-1-9c.3-1.1-1.1-2-3-2s-4.5-.7-5.7-1.5-2.9-.7-3.7.1c-.8.7-4.1 1.4-7.3 1.4s-5.8.7-5.8 1.5v2.1c0 1.6 25.1 0 25.5-1.6zm-13.5-.2c0-1.7 3.9-2.6 4.8-1.2.6 1-.3 1.7-1.9 1.7s-2.9-.2-2.9-.5zm-30 37.1c0-1.2 1.4-3.5 3-5.2 3.1-3.1 3.9-1.3 1.8 4.1-1.4 3.6-4.8 4.3-4.8 1.1zm-66-5c0-1.7.9-2.6 2-1.9 2.6 1.6 2.6 5 0 5-1.1 0-2-1.4-2-3.1zm.5-7.3c.4-1.3 1.8-2.7 3.1-3.1 1.5-.5 1.9.4 1.2 2.3-1.4 3.7-5.5 4.4-4.3.8zm63.9.1c1.1-3.1 5.4-3.6 6.1-.7.3 1.1-1.2 2.3-3.2 2.7-2.5.4-3.4-.3-2.9-2zm-63.9-8.9c.7-.7 2.4-.7 3.9-.2 1.6.7 1.1 1.1-1.2 1.2-2.1.1-3.3-.3-2.7-1zM120 177c0-1.6.4-3 .8-3s1.3 1.4 1.9 3c.7 1.7.3 3-.8 3-1 0-1.9-1.3-1.9-3zm-58-5.8c0-1.6.9-3.5 2-4.2s2 .1 2 1.8c0 1.6-.9 3.5-2 4.2s-2-.1-2-1.8zm58.4-1.3c.5-1.5 2-3 3.5-3.5s2.2.2 1.7 1.7-2 3-3.5 3.5-2.2-.2-1.7-1.7zm-1.2-9c-.6-1.7.1-2.9 1.7-2.9 4 0 5.6 3.4 2.3 4.7-1.6.6-3.4-.2-4-1.8zm-59.2-2c0-1.7.9-2.6 2-1.9 2.6 1.6 2.6 5 0 5-1.1 0-2-1.4-2-3.1zm1.3-6.2c-2.4-2.5-1.3-4.6 1.7-3.4 1.7.6 3 1.9 3 2.9 0 2.1-2.8 2.4-4.7.5zm60.7-.5c0-1 1.4-2.3 3-2.9 1.8-.7 3 0 3 1.8 0 1.6-1.3 2.9-3 2.9-1.6 0-3-.8-3-1.8zm-70-23.3c0-1.6 1.4-2.9 3-2.9 3.9 0 3.9 3.2 0 4.7-1.8.7-3 0-3-1.8zm64 1.1c-1.6-1-2.2-2.4-1.4-3.3.8-.8 2.5-.4 3.8.9 3 3 1.3 4.7-2.4 2.4zm-92.9-7.8c-.6-1.1-3-1.6-5.2-1.2-2.6.5-5.1-1-7.2-4.2-2.9-4.3-2.9-5.6-.5-10.2 1.5-2.9 4.4-5.6 6.3-6.1 3.4-.9 5.1-6.5 1.9-6.5-.9 0-3.3-1.2-5.4-2.8-3.6-2.6-3.4-2.9 2.6-6 3.5-1.8 6.4-4.5 6.4-5.9s1.3-4.3 2.9-6.4c2.7-3.7 3-3.5 6.1 3.8 3.1 7.5 3.3 7.6 8 4.5 6.3-4.2 9.2-4.2 3.3 0-4.3 3-4.3 3.3-.9 5.8 3.3 2.5 3.2 2.8-1.9 5.1-6.2 2.9-7.2 7-2 8.4 1.9.5 4.8 3.2 6.3 6.1 3.9 7.3-1 15-9.1 14.4-3.2-.2-6.7.4-8 1.4-1.4 1.1-2.8 1-3.6-.2zm11.4-3.2c3 0 5.5-.9 5.5-2s-5.7-2-13-2-13 .9-13 2 1.7 2 3.8 2 4.5.7 5.3 1.4c.8.8 2.5.9 3.7.1s4.7-1.5 7.7-1.5zm-11.3-.7c-.6-.9.2-1.6 1.8-1.6s2.4.7 1.8 1.6c-.6 1-1.4 1.7-1.8 1.7s-1.2-.7-1.8-1.7zm20.8-8c0-2.5-15.5-4.3-25.5-2.9-14.4 1.9-9.4 4.6 8.5 4.6 9.4 0 17-.8 17-1.7zm-22.4-7.7c3.2-3.2 3.2-3.3-.3-2-2 .8-4.5 1.4-5.5 1.4s-1.8.9-1.8 2c0 3.1 3.9 2.4 7.6-1.4zM40 104c0-1.1-.8-2-1.8-2s-3.5-.6-5.5-1.4c-3.2-1.2-3.3-1-.6 1.9 3.2 3.7 7.9 4.6 7.9 1.5zm-4.9-11.7l4.7-3.7L35 86c-2.6-1.4-5.1-4.5-5.4-6.8S28.1 75 27 75s-2.3 1.9-2.6 4.2-2.8 5.4-5.4 6.8l-4.8 2.5 4.4 3.7c5.6 4.7 10.6 4.7 16.5.1zm-14-2.2c-.8-1.2 0-2.6 1.7-3.3 4-1.5 10.2-.2 10.2 2.2 0 2.8-10.3 3.7-11.9 1.1zm96.1 32.2c-.9-1.4-1.1-3.1-.4-3.8 1.8-1.8 3.7.9 2.8 3.8-.7 2-1.2 2-2.4 0zm-62.1-2.1c-.6-1 .2-2.3 1.7-2.9 1.6-.6 3.4.2 4 1.8 1.2 3.1-3.8 4.1-5.7 1.1zm-.7-8.3c.5-1.5 2-3 3.5-3.5s2.2.2 1.7 1.7-2 3-3.5 3.5-2.2-.2-1.7-1.7zm59.6-.7c0-1.6.9-3.5 2-4.2s2 .1 2 1.8c0 1.6-.9 3.5-2 4.2s-2-.1-2-1.8zM57.3 103c-.7-1.6-.3-3 .8-3 1 0 1.9 1.4 1.9 3 0 1.7-.4 3-.8 3s-1.3-1.3-1.9-3zm61.2-2.2c.7-.7 2.4-.7 3.9-.2 1.6.7 1.1 1.1-1.2 1.2-2.1.1-3.3-.3-2.7-1zM53 94c-.7-1.1.2-2.6 2-3.3 3.8-1.4 5.9.2 4.1 3.2-1.7 2.7-4.5 2.7-6.1.1zm66.2-.8c.7-1.8 2.1-3.2 3.2-3.2 2.6 0 1 4.5-2 5.5-1.5.5-1.9-.4-1.2-2.3zM52 86.3c0-3.6 2.4-8.3 4.2-8.3 2.8 0 2.1 4-1.2 7.3-1.6 1.6-3 2.1-3 1zm69.2 0c-.9-1.4-1.1-3.1-.4-3.8 1.8-1.8 3.7.9 2.8 3.8-.7 2-1.2 2-2.4 0zM33.3 55c-.7-1.6-.3-3 .8-3 1 0 2 1.1 2.1 2.5.1 2 .3 2 1.1 0 .6-1.4 1.8-2.5 2.8-2.5s1.3 1.4.6 3c-.6 1.7-2.3 3-3.7 3s-3.1-1.3-3.7-3zm106 0c-.7-1.6-.3-3 .8-3 1 0 2 1.1 2.1 2.5.1 2 .3 2 1.1 0 .6-1.4 1.8-2.5 2.8-2.5s1.3 1.4.6 3c-.6 1.7-2.3 3-3.7 3s-3.1-1.3-3.7-3zM23.8 45.2c-3.2-5.3-3.3-6.4-.7-11.5 1.6-3.1 5.4-6.9 8.4-8.5 4.7-2.4 6.2-2.4 10.9 0 3.1 1.6 6.8 5.4 8.4 8.5 2.6 5 2.6 6.2-.5 11.3-3 5-4.7 5.8-13.2 5.9-8.7.2-10.1-.4-13.3-5.7zm26.7-4.6c2.9-1.7-.4-4.1-7.1-5.1-8-1.3-20.4.9-20.3 3.6.2 3.9 21.2 5.1 27.4 1.5zM40.2 26.2c-1.6-1-4-1.4-5.5-.8-4.2 1.6-3.2 2.6 2.8 2.6 4-.1 4.7-.5 2.7-1.8zm89.6 19c-3.2-5.3-3.3-6.4-.7-11.5 1.6-3.1 5.4-6.9 8.4-8.5 4.7-2.4 6.2-2.4 10.9 0 3.1 1.6 6.8 5.4 8.4 8.5 2.6 5 2.6 6.2-.5 11.3-3 5-4.7 5.8-13.2 5.9-8.7.2-10.1-.4-13.3-5.7zm26.7-4.6c2.9-1.7-.4-4.1-7.1-5.1-8-1.3-20.4.9-20.3 3.6.2 3.9 21.2 5.1 27.4 1.5zm-10.3-14.4c-1.6-1-4-1.4-5.5-.8-4.2 1.6-3.2 2.6 2.8 2.6 4-.1 4.7-.5 2.7-1.8z" fill="#9b9800"/><path d="M31.5 254.8c-3-1.6-6.8-5.4-8.4-8.5-2.5-5-2.5-6.2.6-11.3 3-5 4.7-5.8 13.2-5.9 8.7-.2 10.1.4 13.3 5.7s3.3 6.4.6 11.5c-1.6 3.1-5.3 6.9-8.4 8.5-4.7 2.4-6.2 2.4-10.9 0zm10.5-2c0-.4-2.5-.8-5.5-.8-4 .1-4.7.5-2.7 1.8 2.6 1.7 8.2.9 8.2-1zm8.5-10.2c2.9-1.7-.4-4.1-7.1-5.1-8-1.3-20.4.9-20.3 3.6.2 3.9 21.2 5.1 27.4 1.5zm87 12.2c-3-1.6-6.8-5.4-8.4-8.5-2.5-5-2.5-6.2.6-11.3 3-5 4.7-5.8 13.2-5.9 8.7-.2 10.1.4 13.3 5.7s3.3 6.4.6 11.5c-1.6 3.1-5.3 6.9-8.4 8.5-4.7 2.4-6.2 2.4-10.9 0zm10.5-2c0-.4-2.5-.8-5.5-.8-4 .1-4.7.5-2.7 1.8 2.6 1.7 8.2.9 8.2-1zm8.5-10.2c2.9-1.7-.4-4.1-7.1-5.1-8-1.3-20.4.9-20.3 3.6.2 3.9 21.2 5.1 27.4 1.5zm-95.2 2.1c-.7-.8-1.3-4.8-1.3-9s-.9-7.7-2-7.7-2-1.8-2-4c0-4.9-5.1-5.3-7.7-.6-1.8 3.2-2.3 3-6.1-1.5-2.9-3.5-4.1-7.8-4.1-15.1-.1-9.1-1.1-11.4-9.9-22.4-9.9-12.3-15.6-24.5-13.2-28.4 2.1-3.4-1.1-14-4.2-14-1.5 0-2.8-.9-2.8-2s1.3-2 2.8-2 3.3-1.4 4-3.1c.9-2.5 3.7-3 13-2.6 9.3.5 11.5 1.2 9.8 3.1-1.6 2 .6 2.4 10.4 2 8.2-.3 13.2-1.5 14.7-3.5 3.4-4.5 48-4 48.9.5.4 2.3 3.3 3.1 11 3.1 5.7 0 8.9-.4 7-.9-3.9-1-6.7-12-4.7-18.4 1-3 .5-4.2-1.8-4.2-4 0-4-5.2 0-6.8 2.6-.9 3-4.5 2.7-19.9-.4-16.8-.8-18.7-4-17.8-2 .5-4.2 3.6-4.9 7.1-.8 3.4-6 11-11.6 16.9-9.6 10.3-10.2 10.5-11.8 6.3-1.4-3.8 0-6.2 8.8-15.1 5.8-5.8 9.8-11.2 9.1-12-.8-.8-2.6 0-3.9 1.7C103 79.9 95.2 84 89.3 84 83.2 84 70 77 70 73.8c0-1-.9-1.8-2-1.8-4 0-1.8 4.4 6.9 13.7 6.9 7.3 8.7 10.6 7.7 14.1-1.1 4.3-1.4 4.3-9-3.2-5-4.8-8.6-10.7-9.9-16.1-1.2-4.7-2.8-8.5-3.6-8.5-2.3 0 .3-12.7 3.2-15.6 1.5-1.5 2.7-5.8 2.7-9.5 0-3.8.9-6.9 2-6.9s2-1.4 2-3.1c0-2.6 3.6-2.9 24.5-2.5l24.5.6.6 8.5c.4 4.7 1.5 8.5 2.5 8.5 1.1 0 1.9 1.8 1.9 4 0 4.9 5.1 5.3 7.7.6 1.8-3.2 2.3-3 6.1 1.5 2.9 3.5 4.1 7.8 4.1 15.1.1 9.1 1.1 11.4 9.9 22.4 9.9 12.3 15.6 24.5 13.2 28.4-2.1 3.4 1.1 14 4.2 14 1.5 0 2.8.9 2.8 2s-1.3 2-2.8 2-3.3 1.4-4 3.1c-.9 2.5-3.7 3-13 2.6-9.3-.5-11.5-1.2-9.8-3.1 1.6-2-.6-2.4-10.4-2-8.2.3-13.2 1.5-14.7 3.5-3.4 4.5-48 4-48.9-.5-.4-2.3-3.3-3.1-11-3.1-5.7 0-8.9.4-7 .9 3.9 1 6.7 12 4.7 18.4-1 3-.5 4.2 1.8 4.2 4 0 4 5.2 0 6.8-2.6.9-3 4.5-2.7 19.9.4 16.8.8 18.7 4 17.8 2-.5 4.2-3.6 4.9-7.1.8-3.4 6-11 11.6-16.9 9.6-10.3 10.2-10.5 11.8-6.3 1.4 3.8 0 6.2-8.8 15.1-5.8 5.8-9.8 11.2-9.1 12 .8.8 2.6 0 3.9-1.7 4.5-5.5 12.3-9.6 18.2-9.6 6.1 0 19.3 7 19.3 10.2 0 1 .9 1.8 2 1.8 4 0 1.8-4.4-6.9-13.7-6.9-7.3-8.7-10.6-7.7-14.1 1.1-4.3 1.4-4.3 9 3.2 5 4.8 8.6 10.7 9.9 16.1 1.2 4.7 2.8 8.5 3.6 8.5 2.3 0-.3 12.7-3.2 15.6-1.5 1.5-2.7 5.8-2.7 9.5 0 3.8-.9 6.9-2 6.9s-2 1.4-2 3c0 2.5-4 3-23.7 3-13 0-24.2-.6-25-1.3zm43.9-4.2c3.7-4.8 3.5-17.6-.4-23.5-3-4.6-3-5.1 0-6.2 1.8-.7 3.2-2.3 3.2-3.6 0-3.4-10.7-9.2-17-9.2-5 0-16.8 5.5-17.1 7.9-.8 5.7-1 33.7-.4 35.6.6 1.7 5.5 2.5 15 2.5 11 0 14.6-.8 16.7-3.5zM82 236c0-1.1.9-2 2-2s2 .9 2 2-.9 2-2 2-2-.9-2-2zm16 0c0-1.1.9-2 2-2s2 .9 2 2-.9 2-2 2-2-.9-2-2zm-12-26.9c0-3.1 1.4-5.3 4-6.1 5.4-1.7 8 .3 8 6.1 0 4.1-1 4.9-6 4.9s-6-.8-6-4.9zm-36.4 10.5c3-3 3.4-45.6.4-45.6-1.2 0-2 9-2 23s-.8 23-2 23-2-9-2-23-.8-23-2-23c-3 0-2.6 42.6.4 45.6 1.3 1.3 2.9 2.4 3.6 2.4s2.3-1.1 3.6-2.4zm-13.9-47.5C31.5 164 23.2 154 20.6 154c-7.6 0-3.8 13.6 8.1 28.5L37 193l.6-7.9c.4-4.3-.5-10.1-1.9-13zm-8.2.6c-4.1-6-6.6-10.4-5.5-9.7 2.5 1.6 14.6 19.1 13.7 19.9-.4.4-4.1-4.2-8.2-10.2zM56 170c0-1.1-4.5-2-10-2s-10 .9-10 2 4.5 2 10 2 10-.9 10-2zm-3.2-8.5c3.2-5.1-.3-9.4-10.3-12.8-7.6-2.5-9-2.5-13.5.5-5.3 3.5-5.3 3.6 2.8 13.4 3.9 4.7 17.8 4 21-1.1zm-3.3-14.9c-2-.5-4.7-.5-6 .1-1.4.5.2 1 3.5.9 3.3 0 4.4-.5 2.5-1zm-7.5-3.7c0-.5-2.5-.8-5.5-.8-4.8.2-5 .4-1.5 1.8 3.7 1.5 7 1 7-1zm106-5.7c0-1.7-8.1-2.7-9.1-1-.6 1 1.2 1.8 4 1.8s5.1-.3 5.1-.8zm3.5-6.8l4.6-3.5-5.6-6.6c-4.8-5.7-6.5-6.5-13.3-6-14.4 1.3-15.1 11.7-1.1 16.7 9.4 3.4 10.3 3.4 15.4-.6zm-16 2.2c-2-.5-4.7-.5-6 .1-1.4.5.2 1 3.5.9 3.3 0 4.4-.5 2.5-1zm27.7-9.5c1.6-4.2-5.7-18.9-13.9-28.1l-7.1-8-.1 8.3c-.2 15.6 17.1 38.4 21.1 27.8zm-12.1-14.6c-3.9-5.2-7-10.3-7.1-11.3 0-1 .3-1.5.6-1 6.8 9.1 15.2 21.8 14.4 21.8-.5 0-4.1-4.3-7.9-9.5zM144 110c0-1.1-4.5-2-10-2s-10 .9-10 2 4.5 2 10 2 10-.9 10-2zm-12-27c0-14 .8-23 2-23s2 9 2 23 .8 23 2 23 2-8.6 2-21.8c0-16.9-.7-22.3-3-24.2-2.4-2-3.6-2-6 0-2.3 1.9-3 7.3-3 24.2 0 13.2.8 21.8 2 21.8s2-9 2-23zm-31.8-4.4c3.2-1.9 5.9-3.9 5.9-4.5.8-5.7 1-33.7.4-35.6-.6-1.7-5.5-2.5-15-2.5-11 0-14.6.8-16.7 3.5-3.7 4.8-3.5 17.6.4 23.5 3 4.6 3 5.1 0 6.2-4.8 1.8-3.9 5.4 2.3 9.3 7.1 4.4 15.4 4.4 22.7.1zm-16.9-1.9c-.7-.8-1.3-3.5-1.3-6 0-3.9 1-4.7 6-4.7s6 .8 6 4.8c0 5.6-7 9.5-10.7 5.9zM78 44c0-1.1.9-2 2-2s2 .9 2 2-.9 2-2 2-2-.9-2-2zm16 0c0-1.1.9-2 2-2s2 .9 2 2-.9 2-2 2-2-.9-2-2zM33.3 225c.6-1.6 2.3-3 3.7-3s3.1 1.4 3.7 3c.7 1.7.3 3-.8 3-1 0-2-1.1-2.1-2.5-.1-2-.3-2-1.1 0-.6 1.4-1.8 2.5-2.8 2.5s-1.3-1.3-.6-3zm106 0c.6-1.6 2.3-3 3.7-3s3.1 1.4 3.7 3c.7 1.7.3 3-.8 3-1 0-2-1.1-2.1-2.5-.1-2-.3-2-1.1 0-.6 1.4-1.8 2.5-2.8 2.5s-1.3-1.3-.6-3zM122 199.9c0-1.2 1.4-3.5 3-5.2 3.1-3.1 3.9-1.3 1.8 4.1-1.4 3.6-4.8 4.3-4.8 1.1zm15.1-.8c2.2-1.7 4.7-3 5.8-3 1-.1.1 1.2-2 2.8-2.2 1.7-4.7 3-5.8 3-1 .1-.1-1.2 2-2.8zM56 194.9c0-1.7.9-2.6 2-1.9 2.6 1.6 2.6 5 0 5-1.1 0-2-1.4-2-3.1zm.5-7.3c.4-1.3 1.8-2.7 3.1-3.1 1.5-.5 1.9.4 1.2 2.3-1.4 3.7-5.5 4.4-4.3.8zm63.9.1c1.1-3.1 5.4-3.6 6.1-.7.3 1.1-1.2 2.3-3.2 2.7-2.5.4-3.4-.3-2.9-2zM88 178.8c0-1.7-1.8-3.6-4-4.2-4.8-1.3-5.4-8.6-.8-8.6 1.7 0 3.6-1.8 4.2-4s2.7-4 4.6-4 4 1.8 4.6 4 2.5 4 4.2 4c1.9 0 3.2 1.7 3.2 4s-1.3 4-3.2 4c-1.7 0-3.6 1.8-4.2 4-1.3 4.8-8.6 5.4-8.6.8zm8-6.8c2.7-1.8 2.7-2.2 0-4-1.6-1.1-3.4-1.9-4-1.9-.5 0-2.3.8-4 1.9-2.7 1.8-2.7 2.2 0 4 1.7 1.1 3.5 1.9 4 1.9.6 0 2.4-.8 4-1.9zm-39.5 6.8c.7-.7 2.4-.7 3.9-.2 1.6.7 1.1 1.1-1.2 1.2-2.1.1-3.3-.3-2.7-1zM120 177c0-1.6.4-3 .8-3s1.3 1.4 1.9 3c.7 1.7.3 3-.8 3-1 0-1.9-1.3-1.9-3zm-58-5.8c0-1.6.9-3.5 2-4.2s2 .1 2 1.8c0 1.6-.9 3.5-2 4.2s-2-.1-2-1.8zm58.4-1.3c.5-1.5 2-3 3.5-3.5s2.2.2 1.7 1.7-2 3-3.5 3.5-2.2-.2-1.7-1.7zm-1.2-9c-.6-1.7.1-2.9 1.7-2.9 4 0 5.6 3.4 2.3 4.7-1.6.6-3.4-.2-4-1.8zm-59.2-2c0-1.7.9-2.6 2-1.9 2.6 1.6 2.6 5 0 5-1.1 0-2-1.4-2-3.1zm1.3-6.2c-2.4-2.5-1.3-4.6 1.7-3.4 1.7.6 3 1.9 3 2.9 0 2.1-2.8 2.4-4.7.5zm60.7-.5c0-1 1.4-2.3 3-2.9 1.8-.7 3 0 3 1.8 0 1.6-1.3 2.9-3 2.9-1.6 0-3-.8-3-1.8zm-70-23.3c0-1.6 1.4-2.9 3-2.9 3.9 0 3.9 3.2 0 4.7-1.8.7-3 0-3-1.8zm64 1.1c-1.6-1-2.2-2.4-1.4-3.3.8-.8 2.5-.4 3.8.9 3 3 1.3 4.7-2.4 2.4zm1.2-7.7c-.9-1.4-1.1-3.1-.4-3.8 1.8-1.8 3.7.9 2.8 3.8-.7 2-1.2 2-2.4 0zm-62.1-2.1c-.6-1 .2-2.3 1.7-2.9 1.6-.6 3.4.2 4 1.8 1.2 3.1-3.8 4.1-5.7 1.1zm28.9-1.4c0-1.7-1.8-3.6-4-4.2-4.8-1.3-5.4-8.6-.8-8.6 1.7 0 3.6-1.8 4.2-4s2.7-4 4.6-4 4 1.8 4.6 4 2.5 4 4.2 4c1.9 0 3.2 1.7 3.2 4s-1.3 4-3.2 4c-1.7 0-3.6 1.8-4.2 4-1.3 4.8-8.6 5.4-8.6.8zm8-6.8c2.7-1.8 2.7-2.2 0-4-1.6-1.1-3.4-1.9-4-1.9-.5 0-2.3.8-4 1.9-2.7 1.8-2.7 2.2 0 4 1.7 1.1 3.5 1.9 4 1.9.6 0 2.4-.8 4-1.9zm-37.6-.1c.5-1.5 2-3 3.5-3.5s2.2.2 1.7 1.7-2 3-3.5 3.5-2.2-.2-1.7-1.7zm59.6-.7c0-1.6.9-3.5 2-4.2s2 .1 2 1.8c0 1.6-.9 3.5-2 4.2s-2-.1-2-1.8zM57.3 103c-.7-1.6-.3-3 .8-3 1 0 1.9 1.4 1.9 3 0 1.7-.4 3-.8 3s-1.3-1.3-1.9-3zm61.2-2.2c.7-.7 2.4-.7 3.9-.2 1.6.7 1.1 1.1-1.2 1.2-2.1.1-3.3-.3-2.7-1zM53 94c-.7-1.1.2-2.6 2-3.3 3.8-1.4 5.9.2 4.1 3.2-1.7 2.7-4.5 2.7-6.1.1zm66.2-.8c.7-1.8 2.1-3.2 3.2-3.2 2.6 0 1 4.5-2 5.5-1.5.5-1.9-.4-1.2-2.3zM52 86.3c0-3.6 2.4-8.3 4.2-8.3 2.8 0 2.1 4-1.2 7.3-1.6 1.6-3 2.1-3 1zm69.2 0c-.9-1.4-1.1-3.1-.4-3.8 1.8-1.8 3.7.9 2.8 3.8-.7 2-1.2 2-2.4 0zm-82.1-5.2c2.2-1.7 4.7-3 5.8-3 1-.1.1 1.2-2 2.8-2.2 1.7-4.7 3-5.8 3-1 .1-.1-1.2 2-2.8zM33.3 55c-.7-1.6-.3-3 .8-3 1 0 2 1.1 2.1 2.5.1 2 .3 2 1.1 0 .6-1.4 1.8-2.5 2.8-2.5s1.3 1.4.6 3c-.6 1.7-2.3 3-3.7 3s-3.1-1.3-3.7-3zm106 0c-.7-1.6-.3-3 .8-3 1 0 2 1.1 2.1 2.5.1 2 .3 2 1.1 0 .6-1.4 1.8-2.5 2.8-2.5s1.3 1.4.6 3c-.6 1.7-2.3 3-3.7 3s-3.1-1.3-3.7-3zM23.8 45.2c-3.2-5.3-3.3-6.4-.7-11.5 1.6-3.1 5.4-6.9 8.4-8.5 4.7-2.4 6.2-2.4 10.9 0 3.1 1.6 6.8 5.4 8.4 8.5 2.6 5 2.6 6.2-.5 11.3-3 5-4.7 5.8-13.2 5.9-8.7.2-10.1-.4-13.3-5.7zm26.7-4.6c2.9-1.7-.4-4.1-7.1-5.1-8-1.3-20.4.9-20.3 3.6.2 3.9 21.2 5.1 27.4 1.5zM40.2 26.2c-1.6-1-4-1.4-5.5-.8-4.2 1.6-3.2 2.6 2.8 2.6 4-.1 4.7-.5 2.7-1.8zm89.6 19c-3.2-5.3-3.3-6.4-.7-11.5 1.6-3.1 5.4-6.9 8.4-8.5 4.7-2.4 6.2-2.4 10.9 0 3.1 1.6 6.8 5.4 8.4 8.5 2.6 5 2.6 6.2-.5 11.3-3 5-4.7 5.8-13.2 5.9-8.7.2-10.1-.4-13.3-5.7zm26.7-4.6c2.9-1.7-.4-4.1-7.1-5.1-8-1.3-20.4.9-20.3 3.6.2 3.9 21.2 5.1 27.4 1.5zm-10.3-14.4c-1.6-1-4-1.4-5.5-.8-4.2 1.6-3.2 2.6 2.8 2.6 4-.1 4.7-.5 2.7-1.8z" fill="#00989b"/><path d="M31.5 254.8c-3-1.6-6.8-5.4-8.4-8.5-2.5-5-2.5-6.2.6-11.3 3-5 4.7-5.8 13.2-5.9 8.7-.2 10.1.4 13.3 5.7s3.3 6.4.6 11.5c-1.6 3.1-5.3 6.9-8.4 8.5-4.7 2.4-6.2 2.4-10.9 0zm10.5-2c0-.4-2.5-.8-5.5-.8-4 .1-4.7.5-2.7 1.8 2.6 1.7 8.2.9 8.2-1zm8.5-10.2c2.9-1.7-.4-4.1-7.1-5.1-8-1.3-20.4.9-20.3 3.6.2 3.9 21.2 5.1 27.4 1.5zm87 12.2c-3-1.6-6.8-5.4-8.4-8.5-2.5-5-2.5-6.2.6-11.3 3-5 4.7-5.8 13.2-5.9 8.7-.2 10.1.4 13.3 5.7s3.3 6.4.6 11.5c-1.6 3.1-5.3 6.9-8.4 8.5-4.7 2.4-6.2 2.4-10.9 0zm10.5-2c0-.4-2.5-.8-5.5-.8-4 .1-4.7.5-2.7 1.8 2.6 1.7 8.2.9 8.2-1zm8.5-10.2c2.9-1.7-.4-4.1-7.1-5.1-8-1.3-20.4.9-20.3 3.6.2 3.9 21.2 5.1 27.4 1.5zm-95.2 2.1c-.7-.8-1.3-4.8-1.3-9s-.9-7.7-2-7.7-2-1.8-2-4c0-4.9-5.1-5.3-7.7-.6-1.8 3.2-2.3 3-6.1-1.5-2.9-3.5-4.1-7.8-4.1-15.1-.1-9.1-1.1-11.4-9.9-22.4-9.9-12.3-15.6-24.5-13.2-28.4 2.1-3.4-1.1-14-4.2-14-1.5 0-2.8-.9-2.8-2s1.3-2 2.8-2 3.3-1.4 4-3.1c.9-2.5 3.7-3 13-2.6 9.3.5 11.5 1.2 9.8 3.1-1.6 2 .6 2.4 10.4 2 8.2-.3 13.2-1.5 14.7-3.5 3.4-4.5 48-4 48.9.5.4 2.3 3.3 3.1 11 3.1 5.7 0 8.9-.4 7-.9-3.9-1-6.7-12-4.7-18.4 1-3 .5-4.2-1.8-4.2-4 0-4-5.2 0-6.8 2.6-.9 3-4.5 2.7-19.9-.4-16.8-.8-18.7-4-17.8-2 .5-4.1 3.4-4.8 6.4-1.5 7.1-22 27.6-23.6 23.5-.6-1.7 3.1-7 9.8-13.6C114.5 74.7 116 72 111 72c-1.6 0-3 .8-3 1.8C108 77 94.8 84 89 84s-19-7-19-10.2c0-1-2.5-1.8-5.7-1.8-5.2 0-5.5-.5-4.7-6.4.6-3.6 2.2-7.7 3.7-9.2s2.7-5.8 2.7-9.5c0-3.8.9-6.9 2-6.9s2-1.4 2-3.1c0-2.6 3.6-2.9 24.5-2.5l24.5.6.6 8.5c.4 4.7 1.5 8.5 2.5 8.5 1.1 0 1.9 1.8 1.9 4 0 4.9 5.1 5.3 7.7.6 1.8-3.2 2.3-3 6.1 1.5 2.9 3.5 4.1 7.8 4.1 15.1.1 9.1 1.1 11.4 9.9 22.4 9.9 12.3 15.6 24.5 13.2 28.4-2.1 3.4 1.1 14 4.2 14 1.5 0 2.8.9 2.8 2s-1.3 2-2.8 2-3.3 1.4-4 3.1c-.9 2.5-3.7 3-13 2.6-9.3-.5-11.5-1.2-9.8-3.1 1.6-2-.6-2.4-10.4-2-8.2.3-13.2 1.5-14.7 3.5-3.4 4.5-48 4-48.9-.5-.4-2.3-3.3-3.1-11-3.1-5.7 0-8.9.4-7 .9 3.9 1 6.7 12 4.7 18.4-1 3-.5 4.2 1.8 4.2 4 0 4 5.2 0 6.8-2.6.9-3 4.5-2.7 19.9.4 16.8.8 18.7 4 17.8 2-.5 4.1-3.4 4.8-6.4 1.5-7.1 22-27.6 23.6-23.5.6 1.7-3.1 7-9.8 13.6C65.5 205.3 64 208 69 208c1.7 0 3-.8 3-1.8C72 203 85.2 196 91 196s19 7 19 10.2c0 1 2.5 1.8 5.7 1.8 5.2 0 5.5.5 4.7 6.4-.6 3.6-2.2 7.7-3.7 9.2s-2.7 5.8-2.7 9.5c0 3.8-.9 6.9-2 6.9s-2 1.4-2 3c0 2.5-4 3-23.7 3-13 0-24.2-.6-25-1.3zm43.9-4.2c3.7-4.8 3.5-17.6-.4-23.5-3-4.6-3-5.1 0-6.2 1.8-.7 3.2-2.3 3.2-3.6 0-3.4-10.7-9.2-17-9.2-5 0-16.8 5.5-17.1 7.9-.8 5.7-1 33.7-.4 35.6.6 1.7 5.5 2.5 15 2.5 11 0 14.6-.8 16.7-3.5zM82 236c0-1.1.9-2 2-2s2 .9 2 2-.9 2-2 2-2-.9-2-2zm16 0c0-1.1.9-2 2-2s2 .9 2 2-.9 2-2 2-2-.9-2-2zm-12-26.9c0-3.1 1.4-5.3 4-6.1 5.4-1.7 8 .3 8 6.1 0 4.1-1 4.9-6 4.9s-6-.8-6-4.9zm-36.4 10.5c3-3 3.4-45.6.4-45.6-1.2 0-2 9-2 23s-.8 23-2 23-2-9-2-23-.8-23-2-23c-3 0-2.6 42.6.4 45.6 1.3 1.3 2.9 2.4 3.6 2.4s2.3-1.1 3.6-2.4zm-13.9-47.5C31.5 164 23.2 154 20.6 154c-7.6 0-3.8 13.6 8.1 28.5L37 193l.6-7.9c.4-4.3-.5-10.1-1.9-13zm-8.2.6c-4.1-6-6.6-10.4-5.5-9.7 2.5 1.6 14.6 19.1 13.7 19.9-.4.4-4.1-4.2-8.2-10.2zM56 170c0-1.1-4.5-2-10-2s-10 .9-10 2 4.5 2 10 2 10-.9 10-2zm-3.2-8.5c3.2-5.1-.3-9.4-10.3-12.8-7.6-2.5-9-2.5-13.5.5-5.3 3.5-5.3 3.6 2.8 13.4 3.9 4.7 17.8 4 21-1.1zm-3.3-14.9c-2-.5-4.7-.5-6 .1-1.4.5.2 1 3.5.9 3.3 0 4.4-.5 2.5-1zm-7.5-3.7c0-.5-2.5-.8-5.5-.8-4.8.2-5 .4-1.5 1.8 3.7 1.5 7 1 7-1zm106-5.7c0-1.7-8.1-2.7-9.1-1-.6 1 1.2 1.8 4 1.8s5.1-.3 5.1-.8zm3.5-6.8l4.6-3.5-5.6-6.6c-4.8-5.7-6.5-6.5-13.3-6-14.4 1.3-15.1 11.7-1.1 16.7 9.4 3.4 10.3 3.4 15.4-.6zm-16 2.2c-2-.5-4.7-.5-6 .1-1.4.5.2 1 3.5.9 3.3 0 4.4-.5 2.5-1zm27.7-9.5c1.6-4.2-5.7-18.9-13.9-28.1l-7.1-8-.1 8.3c-.2 15.6 17.1 38.4 21.1 27.8zm-12.1-14.6c-3.9-5.2-7-10.3-7.1-11.3 0-1 .3-1.5.6-1 6.8 9.1 15.2 21.8 14.4 21.8-.5 0-4.1-4.3-7.9-9.5zM144 110c0-1.1-4.5-2-10-2s-10 .9-10 2 4.5 2 10 2 10-.9 10-2zm-12-27c0-14 .8-23 2-23s2 9 2 23 .8 23 2 23 2-8.6 2-21.8c0-16.9-.7-22.3-3-24.2-2.4-2-3.6-2-6 0-2.3 1.9-3 7.3-3 24.2 0 13.2.8 21.8 2 21.8s2-9 2-23zm-31.8-4.4c3.2-1.9 5.9-3.9 5.9-4.5.8-5.7 1-33.7.4-35.6-.6-1.7-5.5-2.5-15-2.5-11 0-14.6.8-16.7 3.5-3.7 4.8-3.5 17.6.4 23.5 3 4.6 3 5.1 0 6.2-4.8 1.8-3.9 5.4 2.3 9.3 7.1 4.4 15.4 4.4 22.7.1zm-16.9-1.9c-.7-.8-1.3-3.5-1.3-6 0-3.9 1-4.7 6-4.7s6 .8 6 4.8c0 5.6-7 9.5-10.7 5.9zM78 44c0-1.1.9-2 2-2s2 .9 2 2-.9 2-2 2-2-.9-2-2zm16 0c0-1.1.9-2 2-2s2 .9 2 2-.9 2-2 2-2-.9-2-2zM33.3 225c.6-1.6 2.3-3 3.7-3s3.1 1.4 3.7 3c.7 1.7.3 3-.8 3-1 0-2-1.1-2.1-2.5-.1-2-.3-2-1.1 0-.6 1.4-1.8 2.5-2.8 2.5s-1.3-1.3-.6-3zm106 0c.6-1.6 2.3-3 3.7-3s3.1 1.4 3.7 3c.7 1.7.3 3-.8 3-1 0-2-1.1-2.1-2.5-.1-2-.3-2-1.1 0-.6 1.4-1.8 2.5-2.8 2.5s-1.3-1.3-.6-3zm-32.7-30.7c-6.1-6.9-9.7-12.5-8.8-13.9 2-3.3 17.3 13 19 20.1.7 3 1 5.4.7 5.4-.3-.1-5.2-5.3-10.9-11.6zm15.4 5.6c0-1.2 1.4-3.5 3-5.2 3.1-3.1 3.9-1.3 1.8 4.1-1.4 3.6-4.8 4.3-4.8 1.1zm15.1-.8c2.2-1.7 4.7-3 5.8-3 1-.1.1 1.2-2 2.8-2.2 1.7-4.7 3-5.8 3-1 .1-.1-1.2 2-2.8zM56 194.9c0-1.7.9-2.6 2-1.9 2.6 1.6 2.6 5 0 5-1.1 0-2-1.4-2-3.1zm.5-7.3c.4-1.3 1.8-2.7 3.1-3.1 1.5-.5 1.9.4 1.2 2.3-1.4 3.7-5.5 4.4-4.3.8zm63.9.1c1.1-3.1 5.4-3.6 6.1-.7.3 1.1-1.2 2.3-3.2 2.7-2.5.4-3.4-.3-2.9-2zM88 178.8c0-1.7-1.8-3.6-4-4.2-4.8-1.3-5.4-8.6-.8-8.6 1.7 0 3.6-1.8 4.2-4s2.7-4 4.6-4 4 1.8 4.6 4 2.5 4 4.2 4c1.9 0 3.2 1.7 3.2 4s-1.3 4-3.2 4c-1.7 0-3.6 1.8-4.2 4-1.3 4.8-8.6 5.4-8.6.8zm8-6.8c2.7-1.8 2.7-2.2 0-4-1.6-1.1-3.4-1.9-4-1.9-.5 0-2.3.8-4 1.9-2.7 1.8-2.7 2.2 0 4 1.7 1.1 3.5 1.9 4 1.9.6 0 2.4-.8 4-1.9zm-39.5 6.8c.7-.7 2.4-.7 3.9-.2 1.6.7 1.1 1.1-1.2 1.2-2.1.1-3.3-.3-2.7-1zM120 177c0-1.6.4-3 .8-3s1.3 1.4 1.9 3c.7 1.7.3 3-.8 3-1 0-1.9-1.3-1.9-3zm-58-5.8c0-1.6.9-3.5 2-4.2s2 .1 2 1.8c0 1.6-.9 3.5-2 4.2s-2-.1-2-1.8zm58.4-1.3c.5-1.5 2-3 3.5-3.5s2.2.2 1.7 1.7-2 3-3.5 3.5-2.2-.2-1.7-1.7zm-1.2-9c-.6-1.7.1-2.9 1.7-2.9 4 0 5.6 3.4 2.3 4.7-1.6.6-3.4-.2-4-1.8zm-59.2-2c0-1.7.9-2.6 2-1.9 2.6 1.6 2.6 5 0 5-1.1 0-2-1.4-2-3.1zm1.3-6.2c-2.4-2.5-1.3-4.6 1.7-3.4 1.7.6 3 1.9 3 2.9 0 2.1-2.8 2.4-4.7.5zm60.7-.5c0-1 1.4-2.3 3-2.9 1.8-.7 3 0 3 1.8 0 1.6-1.3 2.9-3 2.9-1.6 0-3-.8-3-1.8zm-70-23.3c0-1.6 1.4-2.9 3-2.9 3.9 0 3.9 3.2 0 4.7-1.8.7-3 0-3-1.8zm64 1.1c-1.6-1-2.2-2.4-1.4-3.3.8-.8 2.5-.4 3.8.9 3 3 1.3 4.7-2.4 2.4zm1.2-7.7c-.9-1.4-1.1-3.1-.4-3.8 1.8-1.8 3.7.9 2.8 3.8-.7 2-1.2 2-2.4 0zm-62.1-2.1c-.6-1 .2-2.3 1.7-2.9 1.6-.6 3.4.2 4 1.8 1.2 3.1-3.8 4.1-5.7 1.1zm28.9-1.4c0-1.7-1.8-3.6-4-4.2-4.8-1.3-5.4-8.6-.8-8.6 1.7 0 3.6-1.8 4.2-4s2.7-4 4.6-4 4 1.8 4.6 4 2.5 4 4.2 4c1.9 0 3.2 1.7 3.2 4s-1.3 4-3.2 4c-1.7 0-3.6 1.8-4.2 4-1.3 4.8-8.6 5.4-8.6.8zm8-6.8c2.7-1.8 2.7-2.2 0-4-1.6-1.1-3.4-1.9-4-1.9-.5 0-2.3.8-4 1.9-2.7 1.8-2.7 2.2 0 4 1.7 1.1 3.5 1.9 4 1.9.6 0 2.4-.8 4-1.9zm-37.6-.1c.5-1.5 2-3 3.5-3.5s2.2.2 1.7 1.7-2 3-3.5 3.5-2.2-.2-1.7-1.7zm59.6-.7c0-1.6.9-3.5 2-4.2s2 .1 2 1.8c0 1.6-.9 3.5-2 4.2s-2-.1-2-1.8zM57.3 103c-.7-1.6-.3-3 .8-3 1 0 1.9 1.4 1.9 3 0 1.7-.4 3-.8 3s-1.3-1.3-1.9-3zm15.3-9.5c-4.4-4.7-8.7-11.2-9.5-14.5s-1.1-5.5-.6-5c.4.6 5.4 6 11 12.1 6.3 6.8 9.7 12 8.8 13.4-1 1.7-4.1-.2-9.7-6zm45.9 7.3c.7-.7 2.4-.7 3.9-.2 1.6.7 1.1 1.1-1.2 1.2-2.1.1-3.3-.3-2.7-1zM53 94c-.7-1.1.2-2.6 2-3.3 3.8-1.4 5.9.2 4.1 3.2-1.7 2.7-4.5 2.7-6.1.1zm66.2-.8c.7-1.8 2.1-3.2 3.2-3.2 2.6 0 1 4.5-2 5.5-1.5.5-1.9-.4-1.2-2.3zM52 86.3c0-3.6 2.4-8.3 4.2-8.3 2.8 0 2.1 4-1.2 7.3-1.6 1.6-3 2.1-3 1zm69.2 0c-.9-1.4-1.1-3.1-.4-3.8 1.8-1.8 3.7.9 2.8 3.8-.7 2-1.2 2-2.4 0zm-82.1-5.2c2.2-1.7 4.7-3 5.8-3 1-.1.1 1.2-2 2.8-2.2 1.7-4.7 3-5.8 3-1 .1-.1-1.2 2-2.8zM33.3 55c-.7-1.6-.3-3 .8-3 1 0 2 1.1 2.1 2.5.1 2 .3 2 1.1 0 .6-1.4 1.8-2.5 2.8-2.5s1.3 1.4.6 3c-.6 1.7-2.3 3-3.7 3s-3.1-1.3-3.7-3zm106 0c-.7-1.6-.3-3 .8-3 1 0 2 1.1 2.1 2.5.1 2 .3 2 1.1 0 .6-1.4 1.8-2.5 2.8-2.5s1.3 1.4.6 3c-.6 1.7-2.3 3-3.7 3s-3.1-1.3-3.7-3zM23.8 45.2c-3.2-5.3-3.3-6.4-.7-11.5 1.6-3.1 5.4-6.9 8.4-8.5 4.7-2.4 6.2-2.4 10.9 0 3.1 1.6 6.8 5.4 8.4 8.5 2.6 5 2.6 6.2-.5 11.3-3 5-4.7 5.8-13.2 5.9-8.7.2-10.1-.4-13.3-5.7zm26.7-4.6c2.9-1.7-.4-4.1-7.1-5.1-8-1.3-20.4.9-20.3 3.6.2 3.9 21.2 5.1 27.4 1.5zM40.2 26.2c-1.6-1-4-1.4-5.5-.8-4.2 1.6-3.2 2.6 2.8 2.6 4-.1 4.7-.5 2.7-1.8zm89.6 19c-3.2-5.3-3.3-6.4-.7-11.5 1.6-3.1 5.4-6.9 8.4-8.5 4.7-2.4 6.2-2.4 10.9 0 3.1 1.6 6.8 5.4 8.4 8.5 2.6 5 2.6 6.2-.5 11.3-3 5-4.7 5.8-13.2 5.9-8.7.2-10.1-.4-13.3-5.7zm26.7-4.6c2.9-1.7-.4-4.1-7.1-5.1-8-1.3-20.4.9-20.3 3.6.2 3.9 21.2 5.1 27.4 1.5zm-10.3-14.4c-1.6-1-4-1.4-5.5-.8-4.2 1.6-3.2 2.6 2.8 2.6 4-.1 4.7-.5 2.7-1.8z" fill="#fe0000"/><path d="M25.8 247.7c-2.1-3.9-1.9-4.2 2.5-2.8 2.6.9 6.5 1.6 8.7 1.6s6.1-.7 8.7-1.6c4.4-1.4 4.6-1.1 2.5 2.8-1.9 3.4-4.2 4.3-11.2 4.3s-9.3-.9-11.2-4.3zm106 0c-2.1-3.9-1.9-4.2 2.5-2.8 2.6.9 6.5 1.6 8.7 1.6s6.1-.7 8.7-1.6c4.4-1.4 4.6-1.1 2.5 2.8-1.9 3.4-4.2 4.3-11.2 4.3s-9.3-.9-11.2-4.3zm-70.5-3c-.7-.8-1.3-4.8-1.3-9s-.9-7.7-2-7.7-2-1.8-2-4c0-4.9-5.1-5.3-7.7-.6-1.8 3.2-2.3 3-6.1-1.5-2.9-3.5-4.1-7.8-4.1-15.1-.1-9.1-1.1-11.4-9.9-22.4-9.9-12.3-15.6-24.5-13.2-28.4 2.1-3.4-1.1-14-4.2-14-1.5 0-2.8-.9-2.8-2s1.3-2 2.8-2 3.3-1.4 4-3.1c.9-2.5 3.7-3 13-2.6 8.9.5 11.4 1.2 10 3-1.5 1.8 9.6 2.3 46.6 2.3 26.7-.1 47.1-.5 45.2-1-3.9-1-6.7-12-4.7-18.4 1-3 .5-4.2-1.8-4.2-4 0-4-5.2 0-6.8 2.6-.9 3-4.5 2.7-19.9-.4-16.8-.8-18.7-4-17.8-2 .5-4.1 3.4-4.8 6.4-1.5 7.1-22 27.6-23.6 23.5-.6-1.7 3.1-7 9.8-13.6C114.5 74.7 116 72 111 72c-1.6 0-3 .8-3 1.8C108 77 94.8 84 89 84s-19-7-19-10.2c0-1-2.5-1.8-5.7-1.8-5.2 0-5.5-.5-4.7-6.4.6-3.6 2.2-7.7 3.7-9.2s2.7-5.8 2.7-9.5c0-3.8.9-6.9 2-6.9s2-1.4 2-3.1c0-2.6 3.6-2.9 24.5-2.5l24.5.6.6 8.5c.4 4.7 1.5 8.5 2.5 8.5 1.1 0 1.9 1.8 1.9 4 0 4.9 5.1 5.3 7.7.6 1.8-3.2 2.3-3 6.1 1.5 2.9 3.5 4.1 7.8 4.1 15.1.1 9.1 1.1 11.4 9.9 22.4 9.9 12.3 15.6 24.5 13.2 28.4-2.1 3.4 1.1 14 4.2 14 1.5 0 2.8.9 2.8 2s-1.3 2-2.8 2-3.3 1.4-4 3.1c-.9 2.5-3.7 3-13 2.6-8.9-.5-11.4-1.2-10-3 1.5-1.8-9.6-2.3-46.6-2.3-26.7.1-47.1.5-45.2 1 3.9 1 6.7 12 4.7 18.4-1 3-.5 4.2 1.8 4.2 4 0 4 5.2 0 6.8-2.6.9-3 4.5-2.7 19.9.4 16.8.8 18.7 4 17.8 2-.5 4.1-3.4 4.8-6.4 1.5-7.1 22-27.6 23.6-23.5.6 1.7-3.1 7-9.8 13.6C65.5 205.3 64 208 69 208c1.7 0 3-.8 3-1.8C72 203 85.2 196 91 196s19 7 19 10.2c0 1 2.5 1.8 5.7 1.8 5.2 0 5.5.5 4.7 6.4-.6 3.6-2.2 7.7-3.7 9.2s-2.7 5.8-2.7 9.5c0 3.8-.9 6.9-2 6.9s-2 1.4-2 3c0 2.5-4 3-23.7 3-13 0-24.2-.6-25-1.3zm43.9-4.2c3.7-4.8 3.5-17.6-.4-23.5-3-4.6-3-5.1 0-6.2 1.8-.7 3.2-2.3 3.2-3.6 0-3.4-10.7-9.2-17-9.2-5 0-16.8 5.5-17.1 7.9-.8 5.7-1 33.7-.4 35.6.6 1.7 5.5 2.5 15 2.5 11 0 14.6-.8 16.7-3.5zM82 236c0-1.1.9-2 2-2s2 .9 2 2-.9 2-2 2-2-.9-2-2zm16 0c0-1.1.9-2 2-2s2 .9 2 2-.9 2-2 2-2-.9-2-2zm-12-26.9c0-3.1 1.4-5.3 4-6.1 5.4-1.7 8 .3 8 6.1 0 4.1-1 4.9-6 4.9s-6-.8-6-4.9zm-36.4 10.5c3-3 3.4-45.6.4-45.6-1.2 0-2 9-2 23s-.8 23-2 23-2-9-2-23-.8-23-2-23c-3 0-2.6 42.6.4 45.6 1.3 1.3 2.9 2.4 3.6 2.4s2.3-1.1 3.6-2.4zm-13.9-47.5C31.5 164 23.2 154 20.6 154c-7.6 0-3.8 13.6 8.1 28.5L37 193l.6-7.9c.4-4.3-.5-10.1-1.9-13zm-8.2.6c-4.1-6-6.6-10.4-5.5-9.7 2.5 1.6 14.6 19.1 13.7 19.9-.4.4-4.1-4.2-8.2-10.2zM56 170c0-1.1-4.5-2-10-2s-10 .9-10 2 4.5 2 10 2 10-.9 10-2zm-3.2-8.5c3.2-5.1-.3-9.4-10.3-12.8-7.6-2.5-9-2.5-13.5.5-5.3 3.5-5.3 3.6 2.8 13.4 3.9 4.7 17.8 4 21-1.1zm-3.3-14.9c-2-.5-4.7-.5-6 .1-1.4.5.2 1 3.5.9 3.3 0 4.4-.5 2.5-1zm-7.5-3.7c0-.5-2.5-.8-5.5-.8-4.8.2-5 .4-1.5 1.8 3.7 1.5 7 1 7-1zm106-5.7c0-1.7-8.1-2.7-9.1-1-.6 1 1.2 1.8 4 1.8s5.1-.3 5.1-.8zm3.5-6.8l4.6-3.5-5.6-6.6c-4.8-5.7-6.5-6.5-13.3-6-14.4 1.3-15.1 11.7-1.1 16.7 9.4 3.4 10.3 3.4 15.4-.6zm-16 2.2c-2-.5-4.7-.5-6 .1-1.4.5.2 1 3.5.9 3.3 0 4.4-.5 2.5-1zm27.7-9.5c1.6-4.2-5.7-18.9-13.9-28.1l-7.1-8-.1 8.3c-.2 15.6 17.1 38.4 21.1 27.8zm-12.1-14.6c-3.9-5.2-7-10.3-7.1-11.3 0-1 .3-1.5.6-1 6.8 9.1 15.2 21.8 14.4 21.8-.5 0-4.1-4.3-7.9-9.5zM144 110c0-1.1-4.5-2-10-2s-10 .9-10 2 4.5 2 10 2 10-.9 10-2zm-12-27c0-14 .8-23 2-23s2 9 2 23 .8 23 2 23 2-8.6 2-21.8c0-16.9-.7-22.3-3-24.2-2.4-2-3.6-2-6 0-2.3 1.9-3 7.3-3 24.2 0 13.2.8 21.8 2 21.8s2-9 2-23zm-31.8-4.4c3.2-1.9 5.9-3.9 5.9-4.5.8-5.7 1-33.7.4-35.6-.6-1.7-5.5-2.5-15-2.5-11 0-14.6.8-16.7 3.5-3.7 4.8-3.5 17.6.4 23.5 3 4.6 3 5.1 0 6.2-4.8 1.8-3.9 5.4 2.3 9.3 7.1 4.4 15.4 4.4 22.7.1zm-16.9-1.9c-.7-.8-1.3-3.5-1.3-6 0-3.9 1-4.7 6-4.7s6 .8 6 4.8c0 5.6-7 9.5-10.7 5.9zM78 44c0-1.1.9-2 2-2s2 .9 2 2-.9 2-2 2-2-.9-2-2zm16 0c0-1.1.9-2 2-2s2 .9 2 2-.9 2-2 2-2-.9-2-2zM25.8 234.3c1.9-3.4 4.2-4.3 11.2-4.3s9.3.9 11.2 4.3c2.1 3.9 1.9 4.2-2.5 2.8-2.6-.9-6.5-1.6-8.7-1.6s-6.1.7-8.7 1.6c-4.4 1.4-4.6 1.1-2.5-2.8zm106 0c1.9-3.4 4.2-4.3 11.2-4.3s9.3.9 11.2 4.3c2.1 3.9 1.9 4.2-2.5 2.8-2.6-.9-6.5-1.6-8.7-1.6s-6.1.7-8.7 1.6c-4.4 1.4-4.6 1.1-2.5-2.8zm-25.2-40c-6.1-6.9-9.7-12.5-8.8-13.9 2-3.3 17.3 13 19 20.1.7 3 1 5.4.7 5.4-.3-.1-5.2-5.3-10.9-11.6zm15.4 5.6c0-1.2 1.4-3.5 3-5.2 3.1-3.1 3.9-1.3 1.8 4.1-1.4 3.6-4.8 4.3-4.8 1.1zm15.1-.8c2.2-1.7 4.7-3 5.8-3 1-.1.1 1.2-2 2.8-2.2 1.7-4.7 3-5.8 3-1 .1-.1-1.2 2-2.8zM56 194.9c0-1.7.9-2.6 2-1.9 2.6 1.6 2.6 5 0 5-1.1 0-2-1.4-2-3.1zm.5-7.3c.4-1.3 1.8-2.7 3.1-3.1 1.5-.5 1.9.4 1.2 2.3-1.4 3.7-5.5 4.4-4.3.8zm63.9.1c1.1-3.1 5.4-3.6 6.1-.7.3 1.1-1.2 2.3-3.2 2.7-2.5.4-3.4-.3-2.9-2zM88 178.8c0-1.7-1.8-3.6-4-4.2-4.8-1.3-5.4-8.6-.8-8.6 1.7 0 3.6-1.8 4.2-4s2.7-4 4.6-4 4 1.8 4.6 4 2.5 4 4.2 4c1.9 0 3.2 1.7 3.2 4s-1.3 4-3.2 4c-1.7 0-3.6 1.8-4.2 4-1.3 4.8-8.6 5.4-8.6.8zm8-6.8c2.7-1.8 2.7-2.2 0-4-1.6-1.1-3.4-1.9-4-1.9-.5 0-2.3.8-4 1.9-2.7 1.8-2.7 2.2 0 4 1.7 1.1 3.5 1.9 4 1.9.6 0 2.4-.8 4-1.9zm-39.5 6.8c.7-.7 2.4-.7 3.9-.2 1.6.7 1.1 1.1-1.2 1.2-2.1.1-3.3-.3-2.7-1zM120 177c0-1.6.4-3 .8-3s1.3 1.4 1.9 3c.7 1.7.3 3-.8 3-1 0-1.9-1.3-1.9-3zm-58-5.8c0-1.6.9-3.5 2-4.2s2 .1 2 1.8c0 1.6-.9 3.5-2 4.2s-2-.1-2-1.8zm58.4-1.3c.5-1.5 2-3 3.5-3.5s2.2.2 1.7 1.7-2 3-3.5 3.5-2.2-.2-1.7-1.7zm-1.2-9c-.6-1.7.1-2.9 1.7-2.9 4 0 5.6 3.4 2.3 4.7-1.6.6-3.4-.2-4-1.8zm-59.2-2c0-1.7.9-2.6 2-1.9 2.6 1.6 2.6 5 0 5-1.1 0-2-1.4-2-3.1zm1.3-6.2c-2.4-2.5-1.3-4.6 1.7-3.4 1.7.6 3 1.9 3 2.9 0 2.1-2.8 2.4-4.7.5zm60.7-.5c0-1 1.4-2.3 3-2.9 1.8-.7 3 0 3 1.8 0 1.6-1.3 2.9-3 2.9-1.6 0-3-.8-3-1.8zm-47.6-4.5c5.8-1.7 26.7-1.6 34.5 0 3.3.7-4.2 1.3-16.6 1.3s-20.4-.6-17.9-1.3zm-3.3-15.4c-3.3-.7 4.2-1.3 16.6-1.3s20.4.6 17.9 1.3c-5.8 1.7-26.7 1.6-34.5 0zM52 128.9c0-1.6 1.4-2.9 3-2.9 3.9 0 3.9 3.2 0 4.7-1.8.7-3 0-3-1.8zm64 1.1c-1.6-1-2.2-2.4-1.4-3.3.8-.8 2.5-.4 3.8.9 3 3 1.3 4.7-2.4 2.4zm1.2-7.7c-.9-1.4-1.1-3.1-.4-3.8 1.8-1.8 3.7.9 2.8 3.8-.7 2-1.2 2-2.4 0zm-62.1-2.1c-.6-1 .2-2.3 1.7-2.9 1.6-.6 3.4.2 4 1.8 1.2 3.1-3.8 4.1-5.7 1.1zm28.9-1.4c0-1.7-1.8-3.6-4-4.2-4.8-1.3-5.4-8.6-.8-8.6 1.7 0 3.6-1.8 4.2-4s2.7-4 4.6-4 4 1.8 4.6 4 2.5 4 4.2 4c1.9 0 3.2 1.7 3.2 4s-1.3 4-3.2 4c-1.7 0-3.6 1.8-4.2 4-1.3 4.8-8.6 5.4-8.6.8zm8-6.8c2.7-1.8 2.7-2.2 0-4-1.6-1.1-3.4-1.9-4-1.9-.5 0-2.3.8-4 1.9-2.7 1.8-2.7 2.2 0 4 1.7 1.1 3.5 1.9 4 1.9.6 0 2.4-.8 4-1.9zm-37.6-.1c.5-1.5 2-3 3.5-3.5s2.2.2 1.7 1.7-2 3-3.5 3.5-2.2-.2-1.7-1.7zm59.6-.7c0-1.6.9-3.5 2-4.2s2 .1 2 1.8c0 1.6-.9 3.5-2 4.2s-2-.1-2-1.8zM57.3 103c-.7-1.6-.3-3 .8-3 1 0 1.9 1.4 1.9 3 0 1.7-.4 3-.8 3s-1.3-1.3-1.9-3zm15.3-9.5c-4.4-4.7-8.7-11.2-9.5-14.5s-1.1-5.5-.6-5c.4.6 5.4 6 11 12.1 6.3 6.8 9.7 12 8.8 13.4-1 1.7-4.1-.2-9.7-6zm45.9 7.3c.7-.7 2.4-.7 3.9-.2 1.6.7 1.1 1.1-1.2 1.2-2.1.1-3.3-.3-2.7-1zM53 94c-.7-1.1.2-2.6 2-3.3 3.8-1.4 5.9.2 4.1 3.2-1.7 2.7-4.5 2.7-6.1.1zm66.2-.8c.7-1.8 2.1-3.2 3.2-3.2 2.6 0 1 4.5-2 5.5-1.5.5-1.9-.4-1.2-2.3zM52 86.3c0-3.6 2.4-8.3 4.2-8.3 2.8 0 2.1 4-1.2 7.3-1.6 1.6-3 2.1-3 1zm69.2 0c-.9-1.4-1.1-3.1-.4-3.8 1.8-1.8 3.7.9 2.8 3.8-.7 2-1.2 2-2.4 0zm-82.1-5.2c2.2-1.7 4.7-3 5.8-3 1-.1.1 1.2-2 2.8-2.2 1.7-4.7 3-5.8 3-1 .1-.1-1.2 2-2.8zM25.8 45.7c-2.1-3.9-1.9-4.2 2.5-2.8 2.6.9 6.5 1.6 8.7 1.6s6.1-.7 8.7-1.6c4.4-1.4 4.6-1.1 2.5 2.8C46.3 49.1 44 50 37 50s-9.3-.9-11.2-4.3zm106 0c-2.1-3.9-1.9-4.2 2.5-2.8 2.6.9 6.5 1.6 8.7 1.6s6.1-.7 8.7-1.6c4.4-1.4 4.6-1.1 2.5 2.8-1.9 3.4-4.2 4.3-11.2 4.3s-9.3-.9-11.2-4.3zm-106-13.4c3.4-6.2 19-6.2 22.4 0 2.1 3.9 1.9 4.2-2.5 2.8-6-2-11.4-2-17.4 0-4.4 1.4-4.6 1.1-2.5-2.8zm106 0c3.4-6.2 19-6.2 22.4 0 2.1 3.9 1.9 4.2-2.5 2.8-6-2-11.4-2-17.4 0-4.4 1.4-4.6 1.1-2.5-2.8z" fill="#0000fe"/><path d="M61.3 244.7c-.7-.8-1.3-4.8-1.3-9s-.9-7.7-2-7.7-2-1.8-2-4c0-4.9-5.1-5.3-7.7-.6-1.8 3.2-2.3 3-6.1-1.5-2.9-3.5-4.1-7.8-4.1-15.1-.1-9.1-1.1-11.4-9.9-22.4-9.9-12.3-15.6-24.5-13.2-28.4 2.1-3.4-1.1-14-4.2-14-1.5 0-2.8-.9-2.8-2s1.3-2 2.8-2 3.3-1.4 4-3.1c.9-2.5 3.7-3 13-2.6 8.9.5 11.4 1.2 10 3-1.5 1.8 9.6 2.3 46.6 2.3 26.7-.1 47.1-.5 45.2-1-3.9-1-6.7-12-4.7-18.4 1-3 .5-4.2-1.8-4.2-4 0-4-5.2 0-6.8 2.6-.9 3-4.5 2.7-19.7l-.5-18.6-8.6 2c-4.8 1.1-8.7 2.6-8.7 3.4C108 77 94.4 84 89 84c-5.8 0-19-7-19-10.2 0-1-2.5-1.8-5.7-1.8-5.2 0-5.5-.5-4.7-6.4.6-3.6 2.2-7.7 3.7-9.2s2.7-5.8 2.7-9.5c0-3.8.9-6.9 2-6.9s2-1.4 2-3.1c0-2.6 3.6-2.9 24.5-2.5l24.5.6.6 8.5c.4 4.7 1.5 8.5 2.5 8.5 1.1 0 1.9 1.8 1.9 4 0 4.9 5.1 5.3 7.7.6 1.8-3.2 2.3-3 6.1 1.5 2.9 3.5 4.1 7.8 4.1 15.1.1 9.1 1.1 11.4 9.9 22.4 9.9 12.3 15.6 24.5 13.2 28.4-2.1 3.4 1.1 14 4.2 14 1.5 0 2.8.9 2.8 2s-1.3 2-2.8 2-3.3 1.4-4 3.1c-.9 2.5-3.7 3-13 2.6-8.9-.5-11.4-1.2-10-3 1.5-1.8-9.6-2.3-46.6-2.3-26.7.1-47.1.5-45.2 1 3.9 1 6.7 12 4.7 18.4-1 3-.5 4.2 1.8 4.2 4 0 4 5.2 0 6.8-2.6.9-3 4.5-2.7 19.7l.5 18.6 8.6-2c4.8-1.1 8.7-2.6 8.7-3.4 0-2.7 13.6-9.7 19-9.7 5.8 0 19 7 19 10.2 0 1 2.5 1.8 5.7 1.8 5.2 0 5.5.5 4.7 6.4-.6 3.6-2.2 7.7-3.7 9.2s-2.7 5.8-2.7 9.5c0 3.8-.9 6.9-2 6.9s-2 1.4-2 3c0 2.5-4 3-23.7 3-13 0-24.2-.6-25-1.3zm43.9-4.2c3.7-4.8 3.5-17.6-.4-23.5-3-4.6-3-5.1 0-6.2 1.8-.7 3.2-2.3 3.2-3.6 0-3.4-10.7-9.2-17-9.2-5 0-16.8 5.5-17.1 7.9-.8 5.7-1 33.7-.4 35.6.6 1.7 5.5 2.5 15 2.5 11 0 14.6-.8 16.7-3.5zM82 236c0-1.1.9-2 2-2s2 .9 2 2-.9 2-2 2-2-.9-2-2zm16 0c0-1.1.9-2 2-2s2 .9 2 2-.9 2-2 2-2-.9-2-2zm-12-26.9c0-3.1 1.4-5.3 4-6.1 5.4-1.7 8 .3 8 6.1 0 4.1-1 4.9-6 4.9s-6-.8-6-4.9zm-36.4 10.5c3-3 3.4-45.6.4-45.6-1.2 0-2 9-2 23s-.8 23-2 23-2-9-2-23-.8-23-2-23c-3 0-2.6 42.6.4 45.6 1.3 1.3 2.9 2.4 3.6 2.4s2.3-1.1 3.6-2.4zm-13.9-47.5C31.5 164 23.2 154 20.6 154c-7.6 0-3.8 13.6 8.1 28.5L37 193l.6-7.9c.4-4.3-.5-10.1-1.9-13zm-8.2.6c-4.1-6-6.6-10.4-5.5-9.7 2.5 1.6 14.6 19.1 13.7 19.9-.4.4-4.1-4.2-8.2-10.2zM56 170c0-1.1-4.5-2-10-2s-10 .9-10 2 4.5 2 10 2 10-.9 10-2zm-3.2-8.5c3.2-5.1-.3-9.4-10.3-12.8-7.6-2.5-9-2.5-13.5.5-5.3 3.5-5.3 3.6 2.8 13.4 3.9 4.7 17.8 4 21-1.1zm-3.3-14.9c-2-.5-4.7-.5-6 .1-1.4.5.2 1 3.5.9 3.3 0 4.4-.5 2.5-1zm-7.5-3.7c0-.5-2.5-.8-5.5-.8-4.8.2-5 .4-1.5 1.8 3.7 1.5 7 1 7-1zm106-5.7c0-1.7-8.1-2.7-9.1-1-.6 1 1.2 1.8 4 1.8s5.1-.3 5.1-.8zm3.5-6.8l4.6-3.5-5.6-6.6c-4.8-5.7-6.5-6.5-13.3-6-14.4 1.3-15.1 11.7-1.1 16.7 9.4 3.4 10.3 3.4 15.4-.6zm-16 2.2c-2-.5-4.7-.5-6 .1-1.4.5.2 1 3.5.9 3.3 0 4.4-.5 2.5-1zm27.7-9.5c1.6-4.2-5.7-18.9-13.9-28.1l-7.1-8-.1 8.3c-.2 15.6 17.1 38.4 21.1 27.8zm-12.1-14.6c-3.9-5.2-7-10.3-7.1-11.3 0-1 .3-1.5.6-1 6.8 9.1 15.2 21.8 14.4 21.8-.5 0-4.1-4.3-7.9-9.5zM144 110c0-1.1-4.5-2-10-2s-10 .9-10 2 4.5 2 10 2 10-.9 10-2zm-12-27c0-14 .8-23 2-23s2 9 2 23 .8 23 2 23 2-8.6 2-21.8c0-16.9-.7-22.3-3-24.2-2.4-2-3.6-2-6 0-2.3 1.9-3 7.3-3 24.2 0 13.2.8 21.8 2 21.8s2-9 2-23zm-31.8-4.4c3.2-1.9 5.9-3.9 5.9-4.5.8-5.7 1-33.7.4-35.6-.6-1.7-5.5-2.5-15-2.5-11 0-14.6.8-16.7 3.5-3.7 4.8-3.5 17.6.4 23.5 3 4.6 3 5.1 0 6.2-4.8 1.8-3.9 5.4 2.3 9.3 7.1 4.4 15.4 4.4 22.7.1zm-16.9-1.9c-.7-.8-1.3-3.5-1.3-6 0-3.9 1-4.7 6-4.7s6 .8 6 4.8c0 5.6-7 9.5-10.7 5.9zM78 44c0-1.1.9-2 2-2s2 .9 2 2-.9 2-2 2-2-.9-2-2zm16 0c0-1.1.9-2 2-2s2 .9 2 2-.9 2-2 2-2-.9-2-2zm28 155.9c0-1.2 1.4-3.5 3-5.2 3.1-3.1 3.9-1.3 1.8 4.1-1.4 3.6-4.8 4.3-4.8 1.1zm15.1-.8c2.2-1.7 4.7-3 5.8-3 1-.1.1 1.2-2 2.8-2.2 1.7-4.7 3-5.8 3-1 .1-.1-1.2 2-2.8zM56 194.9c0-1.7.9-2.6 2-1.9 2.6 1.6 2.6 5 0 5-1.1 0-2-1.4-2-3.1zm.5-7.3c.4-1.3 1.8-2.7 3.1-3.1 1.5-.5 1.9.4 1.2 2.3-1.4 3.7-5.5 4.4-4.3.8zm63.9.1c1.1-3.1 5.4-3.6 6.1-.7.3 1.1-1.2 2.3-3.2 2.7-2.5.4-3.4-.3-2.9-2zM88 178.8c0-1.7-1.8-3.6-4-4.2-4.8-1.3-5.4-8.6-.8-8.6 1.7 0 3.6-1.8 4.2-4s2.7-4 4.6-4 4 1.8 4.6 4 2.5 4 4.2 4c1.9 0 3.2 1.7 3.2 4s-1.3 4-3.2 4c-1.7 0-3.6 1.8-4.2 4-1.3 4.8-8.6 5.4-8.6.8zm8-6.8c2.7-1.8 2.7-2.2 0-4-1.6-1.1-3.4-1.9-4-1.9-.5 0-2.3.8-4 1.9-2.7 1.8-2.7 2.2 0 4 1.7 1.1 3.5 1.9 4 1.9.6 0 2.4-.8 4-1.9zm-39.5 6.8c.7-.7 2.4-.7 3.9-.2 1.6.7 1.1 1.1-1.2 1.2-2.1.1-3.3-.3-2.7-1zM120 177c0-1.6.4-3 .8-3s1.3 1.4 1.9 3c.7 1.7.3 3-.8 3-1 0-1.9-1.3-1.9-3zm-58-5.8c0-1.6.9-3.5 2-4.2s2 .1 2 1.8c0 1.6-.9 3.5-2 4.2s-2-.1-2-1.8zm58.4-1.3c.5-1.5 2-3 3.5-3.5s2.2.2 1.7 1.7-2 3-3.5 3.5-2.2-.2-1.7-1.7zm-1.2-9c-.6-1.7.1-2.9 1.7-2.9 4 0 5.6 3.4 2.3 4.7-1.6.6-3.4-.2-4-1.8zm-59.2-2c0-1.7.9-2.6 2-1.9 2.6 1.6 2.6 5 0 5-1.1 0-2-1.4-2-3.1zm1.3-6.2c-2.4-2.5-1.3-4.6 1.7-3.4 1.7.6 3 1.9 3 2.9 0 2.1-2.8 2.4-4.7.5zm60.7-.5c0-1 1.4-2.3 3-2.9 1.8-.7 3 0 3 1.8 0 1.6-1.3 2.9-3 2.9-1.6 0-3-.8-3-1.8zm-47.6-4.5c5.8-1.7 26.7-1.6 34.5 0 3.3.7-4.2 1.3-16.6 1.3s-20.4-.6-17.9-1.3zm-3.3-15.4c-3.3-.7 4.2-1.3 16.6-1.3s20.4.6 17.9 1.3c-5.8 1.7-26.7 1.6-34.5 0zM52 128.9c0-1.6 1.4-2.9 3-2.9 3.9 0 3.9 3.2 0 4.7-1.8.7-3 0-3-1.8zm64 1.1c-1.6-1-2.2-2.4-1.4-3.3.8-.8 2.5-.4 3.8.9 3 3 1.3 4.7-2.4 2.4zm1.2-7.7c-.9-1.4-1.1-3.1-.4-3.8 1.8-1.8 3.7.9 2.8 3.8-.7 2-1.2 2-2.4 0zm-62.1-2.1c-.6-1 .2-2.3 1.7-2.9 1.6-.6 3.4.2 4 1.8 1.2 3.1-3.8 4.1-5.7 1.1zm28.9-1.4c0-1.7-1.8-3.6-4-4.2-4.8-1.3-5.4-8.6-.8-8.6 1.7 0 3.6-1.8 4.2-4s2.7-4 4.6-4 4 1.8 4.6 4 2.5 4 4.2 4c1.9 0 3.2 1.7 3.2 4s-1.3 4-3.2 4c-1.7 0-3.6 1.8-4.2 4-1.3 4.8-8.6 5.4-8.6.8zm8-6.8c2.7-1.8 2.7-2.2 0-4-1.6-1.1-3.4-1.9-4-1.9-.5 0-2.3.8-4 1.9-2.7 1.8-2.7 2.2 0 4 1.7 1.1 3.5 1.9 4 1.9.6 0 2.4-.8 4-1.9zm-37.6-.1c.5-1.5 2-3 3.5-3.5s2.2.2 1.7 1.7-2 3-3.5 3.5-2.2-.2-1.7-1.7zm59.6-.7c0-1.6.9-3.5 2-4.2s2 .1 2 1.8c0 1.6-.9 3.5-2 4.2s-2-.1-2-1.8zM57.3 103c-.7-1.6-.3-3 .8-3 1 0 1.9 1.4 1.9 3 0 1.7-.4 3-.8 3s-1.3-1.3-1.9-3zm61.2-2.2c.7-.7 2.4-.7 3.9-.2 1.6.7 1.1 1.1-1.2 1.2-2.1.1-3.3-.3-2.7-1zM53 94c-.7-1.1.2-2.6 2-3.3 3.8-1.4 5.9.2 4.1 3.2-1.7 2.7-4.5 2.7-6.1.1zm66.2-.8c.7-1.8 2.1-3.2 3.2-3.2 2.6 0 1 4.5-2 5.5-1.5.5-1.9-.4-1.2-2.3zM52 86.3c0-3.6 2.4-8.3 4.2-8.3 2.8 0 2.1 4-1.2 7.3-1.6 1.6-3 2.1-3 1zm69.2 0c-.9-1.4-1.1-3.1-.4-3.8 1.8-1.8 3.7.9 2.8 3.8-.7 2-1.2 2-2.4 0zm-82.1-5.2c2.2-1.7 4.7-3 5.8-3 1-.1.1 1.2-2 2.8-2.2 1.7-4.7 3-5.8 3-1 .1-.1-1.2 2-2.8z" fill="#009d00"/><path d="M61.3 244.7c-.7-.8-1.3-4.8-1.3-9s-.9-7.7-2-7.7-2-1.8-2-4c0-4.9-5.1-5.3-7.7-.6-1.8 3.2-2.3 3-6.1-1.5-2.9-3.5-4.1-7.8-4.1-15.1-.1-9.1-1.1-11.4-9.9-22.4-9.9-12.3-15.6-24.5-13.2-28.4 2.1-3.4-1.1-14-4.2-14-1.5 0-2.8-.9-2.8-2s1.3-2 2.8-2 3.3-1.4 4-3.1c.9-2.5 3.7-3 13-2.6 8.9.5 11.4 1.2 10 3-1.5 1.8 9.6 2.3 46.6 2.3 26.7-.1 47.1-.5 45.2-1-3.9-1-6.7-12-4.7-18.4 1-3 .5-4.2-1.8-4.2-4 0-4-5.2 0-6.8 2.6-.9 3-4.5 2.7-19.7l-.5-18.6-8.6 2c-4.8 1.1-8.7 2.6-8.7 3.4C108 77 94.4 84 89 84c-5.8 0-19-7-19-10.2 0-1-2.5-1.8-5.7-1.8-5.2 0-5.5-.5-4.7-6.4.6-3.6 2.2-7.7 3.7-9.2s2.7-5.8 2.7-9.5c0-3.8.9-6.9 2-6.9s2-1.4 2-3.1c0-2.6 3.6-2.9 24.5-2.5l24.5.6.6 8.5c.4 4.7 1.5 8.5 2.5 8.5 1.1 0 1.9 1.8 1.9 4 0 4.9 5.1 5.3 7.7.6 1.8-3.2 2.3-3 6.1 1.5 2.9 3.5 4.1 7.8 4.1 15.1.1 9.1 1.1 11.4 9.9 22.4 9.9 12.3 15.6 24.5 13.2 28.4-2.1 3.4 1.1 14 4.2 14 1.5 0 2.8.9 2.8 2s-1.3 2-2.8 2-3.3 1.4-4 3.1c-.9 2.5-3.7 3-13 2.6-8.9-.5-11.4-1.2-10-3 1.5-1.8-9.6-2.3-46.6-2.3-26.7.1-47.1.5-45.2 1 3.9 1 6.7 12 4.7 18.4-1 3-.5 4.2 1.8 4.2 4 0 4 5.2 0 6.8-2.6.9-3 4.5-2.7 19.7l.5 18.6 8.6-2c4.8-1.1 8.7-2.6 8.7-3.4 0-2.7 13.6-9.7 19-9.7 5.8 0 19 7 19 10.2 0 1 2.5 1.8 5.7 1.8 5.2 0 5.5.5 4.7 6.4-.6 3.6-2.2 7.7-3.7 9.2s-2.7 5.8-2.7 9.5c0 3.8-.9 6.9-2 6.9s-2 1.4-2 3c0 2.5-4 3-23.7 3-13 0-24.2-.6-25-1.3zm43.9-4.2c3.7-4.8 3.5-17.6-.4-23.5-3-4.6-3-5.1 0-6.2 1.8-.7 3.2-2.3 3.2-3.6 0-3.4-10.7-9.2-17-9.2-5 0-16.8 5.5-17.1 7.9-.8 5.7-1 33.7-.4 35.6.6 1.7 5.5 2.5 15 2.5 11 0 14.6-.8 16.7-3.5zM82 236c0-1.1.9-2 2-2s2 .9 2 2-.9 2-2 2-2-.9-2-2zm16 0c0-1.1.9-2 2-2s2 .9 2 2-.9 2-2 2-2-.9-2-2zm-12-26.9c0-3.1 1.4-5.3 4-6.1 5.4-1.7 8 .3 8 6.1 0 4.1-1 4.9-6 4.9s-6-.8-6-4.9zm-36.4 10.5c3-3 3.4-45.6.4-45.6-1.2 0-2 9-2 23s-.8 23-2 23-2-9-2-23-.8-23-2-23c-3 0-2.6 42.6.4 45.6 1.3 1.3 2.9 2.4 3.6 2.4s2.3-1.1 3.6-2.4zm-13.9-47.5C31.5 164 23.2 154 20.6 154c-7.6 0-3.8 13.6 8.1 28.5L37 193l.6-7.9c.4-4.3-.5-10.1-1.9-13zm-8.2.6c-4.1-6-6.6-10.4-5.5-9.7 2.5 1.6 14.6 19.1 13.7 19.9-.4.4-4.1-4.2-8.2-10.2zM56 170c0-1.1-4.5-2-10-2s-10 .9-10 2 4.5 2 10 2 10-.9 10-2zm-3.2-8.5c3.2-5.1-.3-9.4-10.3-12.8-7.6-2.5-9-2.5-13.5.5-5.3 3.5-5.3 3.6 2.8 13.4 3.9 4.7 17.8 4 21-1.1zm-3.3-14.9c-2-.5-4.7-.5-6 .1-1.4.5.2 1 3.5.9 3.3 0 4.4-.5 2.5-1zm-7.5-3.7c0-.5-2.5-.8-5.5-.8-4.8.2-5 .4-1.5 1.8 3.7 1.5 7 1 7-1zm106-5.7c0-1.7-8.1-2.7-9.1-1-.6 1 1.2 1.8 4 1.8s5.1-.3 5.1-.8zm3.5-6.8l4.6-3.5-5.6-6.6c-4.8-5.7-6.5-6.5-13.3-6-14.4 1.3-15.1 11.7-1.1 16.7 9.4 3.4 10.3 3.4 15.4-.6zm-16 2.2c-2-.5-4.7-.5-6 .1-1.4.5.2 1 3.5.9 3.3 0 4.4-.5 2.5-1zm27.7-9.5c1.6-4.2-5.7-18.9-13.9-28.1l-7.1-8-.1 8.3c-.2 15.6 17.1 38.4 21.1 27.8zm-12.1-14.6c-3.9-5.2-7-10.3-7.1-11.3 0-1 .3-1.5.6-1 6.8 9.1 15.2 21.8 14.4 21.8-.5 0-4.1-4.3-7.9-9.5zM144 110c0-1.1-4.5-2-10-2s-10 .9-10 2 4.5 2 10 2 10-.9 10-2zm-12-27c0-14 .8-23 2-23s2 9 2 23 .8 23 2 23 2-8.6 2-21.8c0-16.9-.7-22.3-3-24.2-2.4-2-3.6-2-6 0-2.3 1.9-3 7.3-3 24.2 0 13.2.8 21.8 2 21.8s2-9 2-23zm-31.8-4.4c3.2-1.9 5.9-3.9 5.9-4.5.8-5.7 1-33.7.4-35.6-.6-1.7-5.5-2.5-15-2.5-11 0-14.6.8-16.7 3.5-3.7 4.8-3.5 17.6.4 23.5 3 4.6 3 5.1 0 6.2-4.8 1.8-3.9 5.4 2.3 9.3 7.1 4.4 15.4 4.4 22.7.1zm-16.9-1.9c-.7-.8-1.3-3.5-1.3-6 0-3.9 1-4.7 6-4.7s6 .8 6 4.8c0 5.6-7 9.5-10.7 5.9zM78 44c0-1.1.9-2 2-2s2 .9 2 2-.9 2-2 2-2-.9-2-2zm16 0c0-1.1.9-2 2-2s2 .9 2 2-.9 2-2 2-2-.9-2-2zm28 155.9c0-1.2 1.4-3.5 3-5.2 3.1-3.1 3.9-1.3 1.8 4.1-1.4 3.6-4.8 4.3-4.8 1.1zm15.1-.8c2.2-1.7 4.7-3 5.8-3 1-.1.1 1.2-2 2.8-2.2 1.7-4.7 3-5.8 3-1 .1-.1-1.2 2-2.8zM56 194.9c0-1.7.9-2.6 2-1.9 2.6 1.6 2.6 5 0 5-1.1 0-2-1.4-2-3.1zm.5-7.3c.4-1.3 1.8-2.7 3.1-3.1 1.5-.5 1.9.4 1.2 2.3-1.4 3.7-5.5 4.4-4.3.8zm63.9.1c1.1-3.1 5.4-3.6 6.1-.7.3 1.1-1.2 2.3-3.2 2.7-2.5.4-3.4-.3-2.9-2zm-63.9-8.9c.7-.7 2.4-.7 3.9-.2 1.6.7 1.1 1.1-1.2 1.2-2.1.1-3.3-.3-2.7-1zM120 177c0-1.6.4-3 .8-3s1.3 1.4 1.9 3c.7 1.7.3 3-.8 3-1 0-1.9-1.3-1.9-3zm-58-5.8c0-1.6.9-3.5 2-4.2s2 .1 2 1.8c0 1.6-.9 3.5-2 4.2s-2-.1-2-1.8zm58.4-1.3c.5-1.5 2-3 3.5-3.5s2.2.2 1.7 1.7-2 3-3.5 3.5-2.2-.2-1.7-1.7zm-1.2-9c-.6-1.7.1-2.9 1.7-2.9 4 0 5.6 3.4 2.3 4.7-1.6.6-3.4-.2-4-1.8zm-59.2-2c0-1.7.9-2.6 2-1.9 2.6 1.6 2.6 5 0 5-1.1 0-2-1.4-2-3.1zm1.3-6.2c-2.4-2.5-1.3-4.6 1.7-3.4 1.7.6 3 1.9 3 2.9 0 2.1-2.8 2.4-4.7.5zm60.7-.5c0-1 1.4-2.3 3-2.9 1.8-.7 3 0 3 1.8 0 1.6-1.3 2.9-3 2.9-1.6 0-3-.8-3-1.8zm-47.6-4.5c5.8-1.7 26.7-1.6 34.5 0 3.3.7-4.2 1.3-16.6 1.3s-20.4-.6-17.9-1.3zm-3.3-15.4c-3.3-.7 4.2-1.3 16.6-1.3s20.4.6 17.9 1.3c-5.8 1.7-26.7 1.6-34.5 0zM52 128.9c0-1.6 1.4-2.9 3-2.9 3.9 0 3.9 3.2 0 4.7-1.8.7-3 0-3-1.8zm64 1.1c-1.6-1-2.2-2.4-1.4-3.3.8-.8 2.5-.4 3.8.9 3 3 1.3 4.7-2.4 2.4zm1.2-7.7c-.9-1.4-1.1-3.1-.4-3.8 1.8-1.8 3.7.9 2.8 3.8-.7 2-1.2 2-2.4 0zm-62.1-2.1c-.6-1 .2-2.3 1.7-2.9 1.6-.6 3.4.2 4 1.8 1.2 3.1-3.8 4.1-5.7 1.1zm-.7-8.3c.5-1.5 2-3 3.5-3.5s2.2.2 1.7 1.7-2 3-3.5 3.5-2.2-.2-1.7-1.7zm59.6-.7c0-1.6.9-3.5 2-4.2s2 .1 2 1.8c0 1.6-.9 3.5-2 4.2s-2-.1-2-1.8zM57.3 103c-.7-1.6-.3-3 .8-3 1 0 1.9 1.4 1.9 3 0 1.7-.4 3-.8 3s-1.3-1.3-1.9-3zm61.2-2.2c.7-.7 2.4-.7 3.9-.2 1.6.7 1.1 1.1-1.2 1.2-2.1.1-3.3-.3-2.7-1zM53 94c-.7-1.1.2-2.6 2-3.3 3.8-1.4 5.9.2 4.1 3.2-1.7 2.7-4.5 2.7-6.1.1zm66.2-.8c.7-1.8 2.1-3.2 3.2-3.2 2.6 0 1 4.5-2 5.5-1.5.5-1.9-.4-1.2-2.3zM52 86.3c0-3.6 2.4-8.3 4.2-8.3 2.8 0 2.1 4-1.2 7.3-1.6 1.6-3 2.1-3 1zm69.2 0c-.9-1.4-1.1-3.1-.4-3.8 1.8-1.8 3.7.9 2.8 3.8-.7 2-1.2 2-2.4 0zm-82.1-5.2c2.2-1.7 4.7-3 5.8-3 1-.1.1 1.2-2 2.8-2.2 1.7-4.7 3-5.8 3-1 .1-.1-1.2 2-2.8z" fill="#9b0000"/><path d="M82 236c0-1.1.9-2 2-2s2 .9 2 2-.9 2-2 2-2-.9-2-2zm16 0c0-1.1.9-2 2-2s2 .9 2 2-.9 2-2 2-2-.9-2-2zm-56.5-14.9c-2.2-3.1-3.5-8.5-3.5-14.6 0-8.8-1.1-11.2-9.8-22.1-9.9-12.3-15.6-24.5-13.2-28.4 2.1-3.4-1.1-14-4.2-14-1.5 0-2.8-.9-2.8-2s1.3-2 2.8-2 3.3-1.4 4-3.1c.9-2.5 3.7-3 13-2.6 8.9.5 11.4 1.2 10 3-1.5 1.8 9.6 2.3 46.6 2.3 26.7-.1 47.1-.5 45.2-1-3.9-1-6.7-12-4.7-18.4 1-3 .5-4.2-1.8-4.2-4.1 0-4-5.2.1-6.8 2.6-1 3.1-4.3 2.8-17.7-.6-23.9-.3-26 4.1-31.2l3.9-4.7 3.9 4.7c2.8 3.3 4 7.8 4 14.9.1 9.1 1.1 11.4 9.9 22.4 9.9 12.3 15.6 24.5 13.2 28.4-2.1 3.4 1.1 14 4.2 14 1.5 0 2.8.9 2.8 2s-1.3 2-2.8 2-3.3 1.4-4 3.1c-.9 2.5-3.7 3-13 2.6-8.9-.5-11.4-1.2-10-3 1.5-1.8-9.6-2.3-46.6-2.3-26.7.1-47.1.5-45.2 1 3.9 1 6.7 12 4.7 18.4-1 3-.5 4.2 1.8 4.2 4 0 4.1 5.2 0 6.7-2.4 1-2.9 5-2.7 22 .3 17.6-.2 21.6-3.4 26-4.6 6.3-4.9 6.4-9.3.4zm8.1-1.5c3-3 3.4-45.6.4-45.6-1.2 0-2 9-2 23s-.8 23-2 23-2-9-2-23-.8-23-2-23c-3 0-2.6 42.6.4 45.6 1.3 1.3 2.9 2.4 3.6 2.4s2.3-1.1 3.6-2.4zm-13.9-47.5C31.5 164 23.2 154 20.6 154c-7.6 0-3.8 13.6 8.1 28.5L37 193l.6-7.9c.4-4.3-.5-10.1-1.9-13zm-8.2.6c-4.1-6-6.6-10.4-5.5-9.7 2.5 1.6 14.6 19.1 13.7 19.9-.4.4-4.1-4.2-8.2-10.2zM56 170c0-1.1-4.5-2-10-2s-10 .9-10 2 4.5 2 10 2 10-.9 10-2zm-3.2-8.5c3.2-5.1-.3-9.4-10.3-12.8-7.6-2.5-9-2.5-13.5.5-5.3 3.5-5.3 3.6 2.8 13.4 3.9 4.7 17.8 4 21-1.1zm-27.9-11.8c7.5-3.5 6.5-7.7-1.9-7.7-7.1 0-8 1.1-5.8 6.8 1.5 3.8 1.3 3.8 7.7.9zm24.6-3.1c-2-.5-4.7-.5-6 .1-1.4.5.2 1 3.5.9 3.3 0 4.4-.5 2.5-1zm-7.5-3.7c0-.5-2.5-.8-5.5-.8-4.8.2-5 .4-1.5 1.8 3.7 1.5 7 1 7-1zm122 1.1c0-1.1-4-2-9-2-4.9 0-9 .9-9 2s4.1 2 9 2c5 0 9-.9 9-2zm-130-8c0-1.1-4-2-9-2-4.9 0-9 .9-9 2s4.1 2 9 2c5 0 9-.9 9-2zm114 1.2c0-1.7-8.1-2.7-9.1-1-.6 1 1.2 1.8 4 1.8s5.1-.3 5.1-.8zm16-1.7c-.1-5.9-3.2-7.8-8.7-5.3-7.7 3.5-6.8 7.8 1.7 7.8 4.3 0 7-1 7-2.5zm-12.5-5.1l4.6-3.5-5.6-6.6c-4.8-5.7-6.5-6.5-13.3-6-14.4 1.3-15.1 11.7-1.1 16.7 9.4 3.4 10.3 3.4 15.4-.6zm-16 2.2c-2-.5-4.7-.5-6 .1-1.4.5.2 1 3.5.9 3.3 0 4.4-.5 2.5-1zm27.7-9.5c1.6-4.2-5.7-18.9-13.9-28.1l-7.1-8-.1 8.3c-.2 15.6 17.1 38.4 21.1 27.8zm-12.1-14.6c-3.9-5.2-7-10.3-7.1-11.3 0-1 .3-1.5.6-1 6.8 9.1 15.2 21.8 14.4 21.8-.5 0-4.1-4.3-7.9-9.5zM144 110c0-1.1-4.5-2-10-2s-10 .9-10 2 4.5 2 10 2 10-.9 10-2zm-12-27c0-14 .8-23 2-23s2 9 2 23 .8 23 2 23 2-8.6 2-21.8c0-16.9-.7-22.3-3-24.2-2.4-2-3.6-2-6 0-2.3 1.9-3 7.3-3 24.2 0 13.2.8 21.8 2 21.8s2-9 2-23zM71.2 207.5C72.9 202.7 84.4 196 91 196c6.3 0 18 6.6 19.7 11 .7 1.7.3 3-.8 3-1 0-1.9-1.2-1.9-2.6 0-3.6-10.6-9.4-17.4-9.4-5.8 0-13.5 4.2-18.1 9.9-2.2 2.7-2.4 2.7-1.3-.4zm50.8-7.6c0-1.2 1.4-3.5 3-5.2 3.1-3.1 3.9-1.3 1.8 4.1-1.4 3.6-4.8 4.3-4.8 1.1zm15.1-.8c2.2-1.7 4.7-3 5.8-3 1-.1.1 1.2-2 2.8-2.2 1.7-4.7 3-5.8 3-1 .1-.1-1.2 2-2.8zM56 194.9c0-1.7.9-2.6 2-1.9 2.6 1.6 2.6 5 0 5-1.1 0-2-1.4-2-3.1zm.5-7.3c.4-1.3 1.8-2.7 3.1-3.1 1.5-.5 1.9.4 1.2 2.3-1.4 3.7-5.5 4.4-4.3.8zm63.9.1c1.1-3.1 5.4-3.6 6.1-.7.3 1.1-1.2 2.3-3.2 2.7-2.5.4-3.4-.3-2.9-2zm-63.9-8.9c.7-.7 2.4-.7 3.9-.2 1.6.7 1.1 1.1-1.2 1.2-2.1.1-3.3-.3-2.7-1zM120 177c0-1.6.4-3 .8-3s1.3 1.4 1.9 3c.7 1.7.3 3-.8 3-1 0-1.9-1.3-1.9-3zm-58-5.8c0-1.6.9-3.5 2-4.2s2 .1 2 1.8c0 1.6-.9 3.5-2 4.2s-2-.1-2-1.8zm58.4-1.3c.5-1.5 2-3 3.5-3.5s2.2.2 1.7 1.7-2 3-3.5 3.5-2.2-.2-1.7-1.7zm-1.2-9c-.6-1.7.1-2.9 1.7-2.9 4 0 5.6 3.4 2.3 4.7-1.6.6-3.4-.2-4-1.8zm-59.2-2c0-1.7.9-2.6 2-1.9 2.6 1.6 2.6 5 0 5-1.1 0-2-1.4-2-3.1zm1.3-6.2c-2.4-2.5-1.3-4.6 1.7-3.4 1.7.6 3 1.9 3 2.9 0 2.1-2.8 2.4-4.7.5zm60.7-.5c0-1 1.4-2.3 3-2.9 1.8-.7 3 0 3 1.8 0 1.6-1.3 2.9-3 2.9-1.6 0-3-.8-3-1.8zm-47.6-4.5c5.8-1.7 26.7-1.6 34.5 0 3.3.7-4.2 1.3-16.6 1.3s-20.4-.6-17.9-1.3zm-3.3-15.4c-3.3-.7 4.2-1.3 16.6-1.3s20.4.6 17.9 1.3c-5.8 1.7-26.7 1.6-34.5 0zM52 128.9c0-1.6 1.4-2.9 3-2.9 3.9 0 3.9 3.2 0 4.7-1.8.7-3 0-3-1.8zm64 1.1c-1.6-1-2.2-2.4-1.4-3.3.8-.8 2.5-.4 3.8.9 3 3 1.3 4.7-2.4 2.4zm1.2-7.7c-.9-1.4-1.1-3.1-.4-3.8 1.8-1.8 3.7.9 2.8 3.8-.7 2-1.2 2-2.4 0zm-62.1-2.1c-.6-1 .2-2.3 1.7-2.9 1.6-.6 3.4.2 4 1.8 1.2 3.1-3.8 4.1-5.7 1.1zm-.7-8.3c.5-1.5 2-3 3.5-3.5s2.2.2 1.7 1.7-2 3-3.5 3.5-2.2-.2-1.7-1.7zm59.6-.7c0-1.6.9-3.5 2-4.2s2 .1 2 1.8c0 1.6-.9 3.5-2 4.2s-2-.1-2-1.8zM57.3 103c-.7-1.6-.3-3 .8-3 1 0 1.9 1.4 1.9 3 0 1.7-.4 3-.8 3s-1.3-1.3-1.9-3zm61.2-2.2c.7-.7 2.4-.7 3.9-.2 1.6.7 1.1 1.1-1.2 1.2-2.1.1-3.3-.3-2.7-1zM53 94c-.7-1.1.2-2.6 2-3.3 3.8-1.4 5.9.2 4.1 3.2-1.7 2.7-4.5 2.7-6.1.1zm66.2-.8c.7-1.8 2.1-3.2 3.2-3.2 2.6 0 1 4.5-2 5.5-1.5.5-1.9-.4-1.2-2.3zM52 86.3c0-3.6 2.4-8.3 4.2-8.3 2.8 0 2.1 4-1.2 7.3-1.6 1.6-3 2.1-3 1zm69.2 0c-.9-1.4-1.1-3.1-.4-3.8 1.8-1.8 3.7.9 2.8 3.8-.7 2-1.2 2-2.4 0zm-82.1-5.2c2.2-1.7 4.7-3 5.8-3 1-.1.1 1.2-2 2.8-2.2 1.7-4.7 3-5.8 3-1 .1-.1-1.2 2-2.8zm38.1-1C70.7 75.9 66.5 70 69.9 70c1.2 0 2.1 1.2 2.1 2.6 0 3.6 10.6 9.4 17.4 9.4 5.8 0 13.5-4.2 18.1-9.9 2.2-2.7 2.4-2.7 1.3.4-1.7 4.9-13.2 11.5-20 11.5-3.2 0-8.4-1.8-11.6-3.9zM78 44c0-1.1.9-2 2-2s2 .9 2 2-.9 2-2 2-2-.9-2-2zm16 0c0-1.1.9-2 2-2s2 .9 2 2-.9 2-2 2-2-.9-2-2z"/><g id="A" stroke="#000"><path stroke-linejoin="round" fill="#f6ff00" d="M22.079 18.914h28.053v28.053L36.106 60.994 22.079 46.967V18.914" stroke-linecap="round" paint-order="stroke fill markers" stroke-width="4.02"/><g stroke-width=".205"><path d="M28.113 42.431c1.168.956 1.77 2.32 1.882 3.626-1.305-.112-2.669-.715-3.625-1.882v4.728c.956-1.168 2.32-1.77 3.625-1.882-.112 1.305-.715 2.669-1.882 3.625h4.728c-1.168-.956-1.77-2.32-1.882-3.625 1.305.112 2.669.715 3.625 1.882v-4.728c-.956 1.167-2.32 1.77-3.625 1.882.112-1.305.715-2.669 1.882-3.626z" fill="red"/><path d="M40.224 22.385c1.168.956 1.77 2.32 1.882 3.626-1.305-.112-2.669-.715-3.625-1.882v4.728c.956-1.168 2.32-1.77 3.625-1.882-.112 1.305-.715 2.669-1.882 3.625h4.728c-1.168-.956-1.77-2.32-1.882-3.625 1.305.112 2.669.715 3.625 1.882v-4.728c-.956 1.168-2.32 1.77-3.625 1.882.112-1.305.715-2.669 1.882-3.626z" fill="#00f"/></g><g stroke-linejoin="round" stroke-width=".21"><path d="M22.079 24.47v4.333l23.109 23.109 2.166-2.166z" fill="#00f"/><path d="M22.079 20.042v4.331l25.322 25.325 2.165-2.165-27.488-27.49z"/><path d="M22.079 18.914v1.028L49.62 47.48l.513-.513v-3.303L25.382 18.913h-3.303z" fill="red"/></g></g><use xlink:href="#A" id="B" transform="rotate(180 89.106 140.954)"/><use xlink:href="#B" x="-106"/><use xlink:href="#A" x="108" y="-2"/></svg>