<svg xmlns="http://www.w3.org/2000/svg" xmlns:xlink="http://www.w3.org/1999/xlink" width="158" height="246" xmlns:v="https://vecta.io/nano"><path d="M52.7 167.5c0-12.6.8-20.1 2.4-23.3 3.2-6.1 10.9-13.2 18.4-17 7-3.5 13-1.7 22.6 6.7 9.5 8.4 11 12.9 11 33.6V186H79.9 52.7zm20.2-52.9c-7.1-3.7-14.7-10.9-17.8-16.8-1.6-3.2-2.4-10.7-2.4-23.2V56h27.2 27.2v18.6c0 20.1-1.4 24.7-9.9 32.6-5 4.6-15 10.4-17.7 10.3-.7-.1-3.7-1.4-6.6-2.9z" fill="#ccc9cc"/><path fill-rule="evenodd" d="M54.4 168.6c0-19.4 1.7-24.7 10.3-31.9 9-7.6 14.8-9.1 21.6-5.7 15.5 7.8 19 14.8 19 37.6v17.7H54.4zm47.4-2.2c0-19.2-2.8-25.4-14.2-31.2-7.1-3.6-7.5-3.7-14-.8-12.9 5.9-14.7 9.4-15.4 30l-.6 18.3h44.2v-16.3zm-28.9-51.6c-15-7.9-18.5-14.9-18.5-37.4V59.7h50.9v17.7c0 22.7-3.5 29.7-18.8 37.4-6.7 3.5-7 3.5-13.6 0zm14.5-4c12.1-6.1 13.5-8.9 14.1-29.3l.6-18.3H57.9v16.3c0 19 2.8 25.3 13.6 31 8.2 4.4 8 4.4 15.9.3z" fill="#9b989b"/><g id="A" transform="matrix(1.4641 0 0 1.4641 -1.202478 4.384368)" fill-rule="evenodd"><g fill="#f8e700"><g stroke="#000" stroke-width=".8"><path d="M54.264 55.702c-.117-.152-4.858.207-8.096-.146-6.752.603-1.867-11.432 2.205-8.673 1.819 1.886 5.211 6.307 5.891 8.819z"/><path d="M54.428 55.836c-.19.025-2.25 4.311-4.175 6.938-2.853 6.149-10.834-4.099-6.409-6.246 2.543-.632 8.068-1.359 10.583-.692zm.197-.914c.117.152 4.858-.207 8.096.146 6.752-.603 1.867 11.432-2.205 8.673-1.819-1.886-5.211-6.307-5.891-8.819z"/><path d="M54.848 55.486c-.074.177 2.609 4.104 3.921 7.084 3.898 5.546-8.967 7.333-8.613 2.427.724-2.519 2.857-7.667 4.692-9.511zm-.739-.639c.19-.025 2.25-4.311 4.175-6.938 2.853-6.149 10.834 4.099 6.409 6.246-2.543.632-8.068 1.359-10.583.692z"/><path d="M53.865 54.903c.074-.177-2.609-4.104-3.921-7.084-3.898-5.546 8.967-7.333 8.613-2.428-.724 2.519-2.857 7.667-4.692 9.511z"/></g><path d="M53.443 55.291c-.117-.152-4.037.618-7.274.265-6.648.655-1.395-11.197 2.205-8.673 1.819 1.886 4.389 5.896 5.069 8.408zm.422-.858c.074-.177-2.609-3.634-3.921-6.614-3.742-5.337 9.27-6.93 8.613-2.428-.724 2.519-2.857 7.197-4.692 9.042zm.714.061c.19-.025 2.001-3.787 3.529-6.644 3.067-5.735 10.729 4.44 6.585 6.305-2.543.632-7.598 1.007-10.114.34zm.926.956c.117.152 3.978-.736 7.215-.382 6.583-.688 1.435 11.216-2.205 8.673-1.819-1.886-4.33-5.779-5.01-8.291zm-.775.682c-.074.177 2.726 3.458 4.038 6.438 3.97 5.402-8.743 6.885-8.613 2.427.724-2.519 2.74-7.021 4.575-8.866zm-1.007-.12c-.19.025-1.545 4.135-3.47 6.762-2.626 5.997-10.592-4.26-6.409-6.246 2.543-.632 7.363-1.183 9.879-.516z"/></g><path fill="#b15d23" d="M57.845 55.731c0 2.188-1.59 3.963-3.552 3.963s-3.552-1.774-3.552-3.963 1.59-3.963 3.552-3.963 3.552 1.774 3.552 3.963z"/><path fill="#e45b36" d="M54.294 59.055c-1.717 0-3.108-1.51-3.108-3.373s1.391-3.666 3.108-3.666 3.343 1.745 3.342 3.608c-.039 2.023-1.882 3.597-3.342 3.432z"/></g><use xlink:href="#A" id="B" y="74"/><use xlink:href="#B"/><use xlink:href="#A" transform="rotate(330 -33.997 131.103)"/><use xlink:href="#A" transform="rotate(30 191.605 134.835)"/><use xlink:href="#A" transform="rotate(210 75.917 152.285)"/><use xlink:href="#A" transform="rotate(150 80.423 153.285)"/></svg>