<svg xmlns="http://www.w3.org/2000/svg" xmlns:xlink="http://www.w3.org/1999/xlink" width="158" height="246" xmlns:v="https://vecta.io/nano"><path d="M52.7 167.5c0-12.6.8-20.1 2.4-23.3 3.2-6.1 10.9-13.2 18.4-17 7-3.5 13-1.7 22.6 6.7 9.5 8.4 11 12.9 11 33.6V186H79.9 52.7zm20.2-52.9c-7.1-3.7-14.7-10.9-17.8-16.8-1.6-3.2-2.4-10.7-2.4-23.2V56h27.2 27.2v18.6c0 20.1-1.4 24.7-9.9 32.6-5 4.6-15 10.4-17.7 10.3-.7-.1-3.7-1.4-6.6-2.9z" fill="#ccc9cc"/><path fill-rule="evenodd" d="M54.4 168.6c0-19.4 1.7-24.7 10.3-31.9 9-7.6 14.8-9.1 21.6-5.7 15.5 7.8 19 14.8 19 37.6v17.7H54.4zm47.4-2.2c0-19.2-2.8-25.4-14.2-31.2-7.1-3.6-7.5-3.7-14-.8-12.9 5.9-14.7 9.4-15.4 30l-.6 18.3h44.2v-16.3zm-28.9-51.6c-15-7.9-18.5-14.9-18.5-37.4V59.7h50.9v17.7c0 22.7-3.5 29.7-18.8 37.4-6.7 3.5-7 3.5-13.6 0zm14.5-4c12.1-6.1 13.5-8.9 14.1-29.3l.6-18.3H57.9v16.3c0 19 2.8 25.3 13.6 31 8.2 4.4 8 4.4 15.9.3z" fill="#9b989b"/><g stroke="#000" transform="matrix(3.779499 0 0 3.779499 68.03358 70.55345)" id="A"><path stroke-linejoin="round" fill="#f6ff00" d="M.396.397h5.539v5.539L3.166 8.705.396 5.936V.397" stroke-linecap="round" paint-order="stroke fill markers" stroke-width=".794"/><g stroke-width=".04"><use xlink:href="#C" fill="red"/><use xlink:href="#C" x="2.391" y="-3.957" fill="#00f"/></g><g stroke-linejoin="round" stroke-width=".042"><path d="M.396 1.494v.855l4.563 4.563.428-.428z" fill="#00f"/><path d="M.396.62v.855l5 5 .428-.428z"/><path d="M.396.397V.6l5.438 5.437.101-.101v-.652L1.048.397z" fill="red"/></g></g><use xlink:href="#A" transform="rotate(150 83.921 153.113)"/><use xlink:href="#A" transform="rotate(330 -37.036 136.395)"/><use xlink:href="#A" transform="rotate(30 196.031 132.663)"/><use xlink:href="#A" transform="rotate(210 76.075 153.113)"/><use xlink:href="#A" transform="rotate(180 79.998 123.754)"/><defs ><path id="C" d="M1.588 5.04a1.04 1.04 0 0 1 .372.716 1.04 1.04 0 0 1-.716-.372v.933a1.04 1.04 0 0 1 .716-.372 1.04 1.04 0 0 1-.372.716h.933a1.04 1.04 0 0 1-.372-.716 1.04 1.04 0 0 1 .716.372v-.933a1.04 1.04 0 0 1-.716.372 1.04 1.04 0 0 1 .372-.716z"/></defs></svg>