<svg xmlns="http://www.w3.org/2000/svg" xmlns:xlink="http://www.w3.org/1999/xlink" width="180" height="280" xmlns:v="https://vecta.io/nano"><style><![CDATA[.E{fill-rule:evenodd}.F{stroke:#000}.G{fill:#9b0000}.H{fill:#009800}.I{fill:#f8e700}.J{stroke-width:1.065}.K{fill:#b15d23}.L{fill:#e45b36}.M{stroke-width:.4}]]></style><g class="F M"><path d="M86.2 50.6c-.6 3.9-1.4 4.1-6.5 1.5-3.1-1.6-11.3-3-18.3-3H48.9v2.3h11.8c15.5 0 23.2 3.1 24.9 9.9 2 6.5-1.3 10.4 4.2 10.4 3.2 0 3.5-.2 3.6-3 0-12.6 4.3-15.9 22-16.9l15.7-.9v-1.8h-12.5c-7 0-15.5 1.5-18.9 3.3-6.2 3.2-6.3 3.2-6.3-4.2.3-4.7.3-9.9-3.6-9.9-5.4 0-2.9 8.1-3.6 12.3z" class="G"/><path d="M48.9 49.1v1.8l15.7.9c12.2.7 16.4 1.8 19.1 5.3 2 2.7 3 3.1 2.4 1.1-1.7-5.5-11.2-9.1-24.7-9.1zm69.7 0c-13.5 0-23 3.6-24.7 9.1-.6 2 .4 1.6 2.5-1.1 2.6-3.5 6.8-4.6 19.1-5.3l15.6-.9v-1.8z" class="H"/></g><path d="M88.9 40.8l-4.7-4.3c-3.4-3-9.3-4.5-20.3-5.1l-14.8-.9v2.7h11.6c15.5 0 23.2 3.1 24.9 10 1.5 9-1.1 10.7 4.1 10.7 4.3 0 3.7-.3 3.7-3.3 0-12.6 4.3-15.9 22-16.9l15.2-.9v-2.3l-14.5.9c-11 .6-16.9 2.1-20.3 5.1l-4.7 4.3c-.6.6-1.3.9-2.2 0z" class="G"/><path d="M49.1 31v1.8l15.5.9c12.2.6 16.4 1.8 19.1 5.3 2 2.7 3 3.1 2.4 1.1-1.7-5.6-11.2-9.1-24.9-9.1zm69.7 0c-13.8 0-23.3 3.5-25 9.1-.6 2 .4 1.6 2.5-1.1 2.6-3.5 6.8-4.7 19.1-5.3l15.1-.9V31z" class="H"/><g class="F M"><path d="M93.8 211.1c.6-3.8 1.4-4 6.5-1.4 3.1 1.6 11.3 3 18.3 3h12.5v-2.3h-11.8c-15.5 0-23.2-3.1-24.9-9.9-2-6.6 1.3-10.4-4.2-10.4-3.2 0-3.5.2-3.6 3 0 12.6-4.3 15.9-22 16.9l-15.7.9v1.8h12.5c7 0 15.5-1.5 18.9-3.3 6.2-3.2 6.3-3.2 6.3 4.2-.3 4.7-.3 9.9 3.6 9.9 5.4 0 2.9-8.2 3.6-12.4z" class="G"/><path d="M131.1 212.7v-1.8l-15.7-.9c-12.2-.7-16.4-1.9-19.1-5.3-2-2.7-3-3.2-2.4-1.1 1.7 5.5 11.2 9.1 24.7 9.1zm-69.7 0c13.5 0 23-3.6 24.7-9.1.6-2.1-.4-1.6-2.5 1.1-2.6 3.4-6.8 4.6-19.1 5.3l-15.6.9v1.8z" class="H"/><path d="M93.8 229.4c.6-3.9 1.4-4.1 6.5-1.5 3.1 1.6 11.3 3 18.3 3h12.5v-2.3h-11.8c-15.5 0-23.2-3.1-24.9-9.9-2-6.5 1.3-10.4-4.2-10.4-3.2 0-3.5.2-3.6 3 0 12.6-4.3 15.9-22 16.9l-15.7.9v1.8h12.5c7 0 15.5-1.5 18.9-3.3 6.2-3.2 6.3-3.2 6.3 4.2-.3 4.7-.3 9.9 3.6 9.9 5.4 0 2.9-8.1 3.6-12.3z" class="G"/><path d="M131.1 230.9v-1.8l-15.7-.9c-12.2-.7-16.4-1.8-19.1-5.3-2-2.7-3-3.1-2.4-1.1 1.7 5.5 11.2 9.1 24.7 9.1zm-69.7 0c13.5 0 23-3.6 24.7-9.1.6-2-.4-1.6-2.5 1.1-2.6 3.5-6.8 4.6-19.1 5.3l-15.6.9v1.8z" class="H"/></g><path d="M91.1 239.2l4.7 4.3c3.4 3 9.3 4.5 20.3 5.1l14.8.9v-2.7h-11.6c-15.5 0-23.2-3.1-24.9-10-1.5-9 1.1-10.7-4.1-10.7-4.3 0-3.7.3-3.7 3.3 0 12.6-4.3 15.9-22 16.9l-15.2.9v2.3l14.5-.9c11-.6 16.9-2.1 20.3-5.1l4.7-4.3c.6-.6 1.3-.9 2.2 0z" class="G"/><path d="M130.9 249v-1.8l-15.5-.9c-12.2-.6-16.4-1.8-19.1-5.3-2-2.7-3-3.1-2.4-1.1 1.7 5.6 11.2 9.1 24.9 9.1zm-69.7 0c13.8 0 23.3-3.5 25-9.1.6-2-.4-1.6-2.5 1.1-2.6 3.5-6.8 4.7-19.1 5.3l-15.1.9v1.8z" class="H"/><g transform="matrix(.9 0 0 .9 4.014475 -8.429916)"><g id="A" class="E"><g class="I"><g class="F J"><use xlink:href="#J"/><use xlink:href="#K"/><use xlink:href="#L"/><use xlink:href="#M"/></g><use xlink:href="#N"/><use xlink:href="#O"/></g><use xlink:href="#P" class="K"/><use xlink:href="#Q" class="L"/></g><use xlink:href="#A" id="B" x=".338" y="19.59"/><use xlink:href="#B" y="19.928"/></g><g transform="matrix(.9 0 0 .9 104.35464 -8.485405)"><g id="C" class="E"><g class="I"><g class="F J"><use xlink:href="#J"/><use xlink:href="#K"/><use xlink:href="#L"/><use xlink:href="#M"/></g><use xlink:href="#N"/><use xlink:href="#O"/></g><use xlink:href="#P" class="K"/><use xlink:href="#Q" class="L"/></g><use xlink:href="#C" id="D" x=".338" y="19.59"/><use xlink:href="#D" y="19.928"/></g><g transform="matrix(.9 0 0 .9 103.462 150.61472)"><g id="E" class="E"><g class="I"><g class="F J"><use xlink:href="#J" x="0.338" y="19.59"/><use xlink:href="#K" x="0.337" y="19.589"/><use xlink:href="#L" x="0.337" y="19.59"/><use xlink:href="#M" x="0.337" y="19.59"/></g><use xlink:href="#N" x="0.338" y="19.59"/><use xlink:href="#O" x="0.338" y="19.59"/></g><use xlink:href="#P" x="0.337" y="19.59" class="K"/><use xlink:href="#Q" x="0.338" y="19.589" class="L"/></g><use xlink:href="#E" id="F" y="19.928"/><use xlink:href="#F" x="-.338" y="18.914"/></g><g transform="matrix(.9 0 0 .9 .685162 152.24318)"><g id="G" class="E"><g class="I"><g class="F J"><use xlink:href="#J" x="0.338" y="19.59"/><use xlink:href="#K" x="0.337" y="19.589"/><use xlink:href="#L" x="0.337" y="19.59"/><use xlink:href="#M" x="0.337" y="19.59"/></g><use xlink:href="#N" x="0.338" y="19.59"/><use xlink:href="#O" x="0.338" y="19.59"/></g><use xlink:href="#P" x="0.337" y="19.59" class="K"/><use xlink:href="#Q" x="0.338" y="19.589" class="L"/></g><use xlink:href="#G" id="H" y="19.928"/><use xlink:href="#H" x="-.338" y="18.914"/></g><defs ><path id="J" d="M39.923 47.161c-.155-.203-6.467.276-10.775-.195-8.987.803-2.485-15.216 2.934-11.544 2.421 2.511 6.936 8.395 7.841 11.739z"/><path id="K" d="M40.141 47.339c-.253.033-2.994 5.738-5.556 9.234-3.798 8.184-14.42-5.456-8.53-8.313 3.385-.841 10.738-1.809 14.086-.921zm.262-1.217c.155.203 6.467-.276 10.775.195 8.987-.803 2.485 15.216-2.934 11.544-2.421-2.511-6.936-8.395-7.841-11.739z"/><path id="L" d="M40.7 46.873c-.098.236 3.472 5.462 5.219 9.429 5.189 7.381-11.935 9.76-11.464 3.231.964-3.352 3.803-10.204 6.246-12.659zm-.983-.851c.253-.033 2.994-5.738 5.556-9.234 3.798-8.184 14.42 5.456 8.53 8.313-3.385.841-10.738 1.809-14.086.921z"/><path id="M" d="M39.392 46.097c.098-.236-3.472-5.462-5.219-9.429-5.189-7.381 11.935-9.76 11.464-3.231-.964 3.352-3.803 10.204-6.246 12.659z"/><path id="N" d="M38.829 46.614c-.155-.203-5.373.823-9.681.352-8.848.872-1.857-14.902 2.934-11.544 2.421 2.511 5.842 7.848 6.747 11.192zm.562-1.142c.098-.236-3.472-4.837-5.219-8.804-4.98-7.103 12.338-9.223 11.464-3.231-.964 3.352-3.803 9.579-6.246 12.034zm.95.081c.253-.033 2.663-5.04 4.697-8.843 4.082-7.633 14.28 5.909 8.764 8.391-3.385.841-10.113 1.34-13.461.452zm1.233 1.272c.155.203 5.295-.979 9.603-.508 8.762-.915 1.911 14.929-2.934 11.544-2.421-2.511-5.764-7.692-6.669-11.035zm-1.031.907c-.098.236 3.629 4.603 5.375 8.569 5.284 7.19-11.637 9.164-11.464 3.231.964-3.352 3.646-9.345 6.089-11.8z"/><path id="O" d="M39.203 47.573c-.253.033-2.057 5.504-4.619 9-3.495 7.982-14.098-5.671-8.53-8.313 3.385-.841 9.801-1.575 13.149-.687z"/><path id="P" d="M44.69 47.2c0 2.913-2.116 5.274-4.727 5.274s-4.727-2.361-4.727-5.274 2.116-5.274 4.727-5.274 4.727 2.361 4.727 5.274z"/><path id="Q" d="M39.962 51.624c-2.285 0-4.137-2.01-4.136-4.489s1.851-4.88 4.136-4.88 4.45 2.323 4.449 4.802c-.052 2.693-2.505 4.787-4.449 4.568z"/></defs></svg>