<svg xmlns="http://www.w3.org/2000/svg" xmlns:xlink="http://www.w3.org/1999/xlink" width="180" height="280" xmlns:v="https://vecta.io/nano"><style><![CDATA[.E{fill-rule:evenodd}.F{fill:#f8e700}.G{stroke:#000}.H{fill:#9b0000}.I{fill:#009800}.J{stroke-width:1.065}.K{fill:#b15d23}.L{fill:#e45b36}.M{stroke-width:.4}]]></style><g class="G M"><path d="M86.2 87.1c-.6 3.8-1.4 4-6.5 1.4-3.1-1.6-11.3-3-18.3-3H48.9v2.3h11.8c15.5 0 23.2 3.1 24.9 9.9 2 6.6-1.3 10.4 4.2 10.4 3.2 0 3.5-.2 3.6-3 0-12.6 4.3-15.9 22-16.9l15.7-.8v-1.9h-12.5c-7 0-15.5 1.5-18.9 3.3-6.2 3.2-6.3 3.2-6.3-4.1.3-4.8.3-10-3.6-10-5.4 0-2.9 8.2-3.6 12.4z" class="H"/><path d="M48.9 85.5v1.9l15.7.8c12.2.7 16.4 1.9 19.1 5.3 2 2.7 3 3.2 2.4 1.1-1.7-5.5-11.2-9.1-24.7-9.1zm69.7 0c-13.5 0-23 3.6-24.7 9.1-.6 2.1.4 1.6 2.5-1.1 2.6-3.4 6.8-4.6 19.1-5.3l15.6-.8v-1.9z" class="I"/><path d="M86.2 66.6c-.6 3.8-1.4 4-6.5 1.4-3.1-1.6-11.3-3-18.3-3H48.9v2.3h11.8c15.5 0 23.2 3.1 24.9 10 2 6.5-1.3 10.3 4.2 10.3 3.2 0 3.5-.2 3.6-2.9 0-12.7 4.3-16 22-17l15.7-.8V65h-12.5c-7 0-15.5 1.5-18.9 3.3-6.2 3.2-6.3 3.2-6.3-4.1.3-4.8.3-10-3.6-10-5.4 0-2.9 8.2-3.6 12.4z" class="H"/><path d="M48.9 65v1.9l15.7.8c12.2.7 16.4 1.9 19.1 5.4 2 2.6 3 3.1 2.4 1-1.7-5.5-11.2-9-24.7-9.1zm69.7 0c-13.5.1-23 3.6-24.7 9.1-.6 2.1.4 1.6 2.5-1 2.6-3.5 6.8-4.7 19.1-5.4l15.6-.8V65z" class="I"/></g><g class="I"><path d="M88.9 30.1v11.7 12.6l-4.7-4.2c-3.4-3.1-9.3-4.5-20.3-5.2l-14.8-.8v2.7h11.6c15.5 0 23.2 3.1 24.9 9.9 1.5 8-1.7 10.4 4.1 10.7 4.5.3 3.7-.3 3.7-3.3 0-12.6 4.3-15.9 22-16.9l15.2-.8v-2.3l-14.5.8c-11 .7-16.9 2.1-20.3 5.2l-4.7 4.2V41.8 30.1z" class="H"/><path d="M88.9 30.1v4.1l.4 6.6.4 11.8.8-11.8.6-6.4v-4.3zM49.2 44.6v1.9l15.5.8c12.2.7 16.4 1.9 19 5.4 2.1 2.6 3.1 3.1 2.5 1-1.7-5.5-11.2-9.1-25-9.1zm69.7 0c-13.7 0-23.2 3.6-24.9 9.1-.6 2.1.4 1.6 2.4-1 2.7-3.5 6.9-4.7 19.1-5.4l15.2-.8v-1.9z"/></g><g class="G M"><path d="M93.8 192.9c.6-3.8 1.4-4 6.5-1.4 3.1 1.6 11.3 3 18.3 3h12.5v-2.3h-11.8c-15.5 0-23.2-3.1-24.9-9.9-2-6.6 1.3-10.4-4.2-10.4-3.2 0-3.5.2-3.6 3 0 12.6-4.3 15.9-22 16.9l-15.7.8v1.9h12.5c7 0 15.5-1.5 18.9-3.3 6.2-3.2 6.3-3.2 6.3 4.1-.3 4.8-.3 10 3.6 10 5.4 0 2.9-8.2 3.6-12.4z" class="H"/><path d="M131.1 194.5v-1.9l-15.7-.8c-12.2-.7-16.4-1.9-19.1-5.3-2-2.7-3-3.2-2.4-1.1 1.7 5.5 11.2 9.1 24.7 9.1zm-69.7 0c13.5 0 23-3.6 24.7-9.1.6-2.1-.4-1.6-2.5 1.1-2.6 3.4-6.8 4.6-19.1 5.3l-15.6.8v1.9z" class="I"/><path d="M93.8 213.4c.6-3.8 1.4-4 6.5-1.4 3.1 1.6 11.3 3 18.3 3h12.5v-2.3h-11.8c-15.5 0-23.2-3.1-24.9-10-2-6.5 1.3-10.3-4.2-10.3-3.2 0-3.5.2-3.6 2.9 0 12.7-4.3 16-22 17l-15.7.8v1.9h12.5c7 0 15.5-1.5 18.9-3.3 6.2-3.2 6.3-3.2 6.3 4.1-.3 4.8-.3 10 3.6 10 5.4 0 2.9-8.2 3.6-12.4z" class="H"/><use xlink:href="#A" y="38.7" class="I"/></g><g class="I"><path d="M91.1 249.9v-11.7-12.6l4.7 4.2c3.4 3.1 9.3 4.5 20.3 5.2l14.8.8v-2.7h-11.6c-15.5 0-23.2-3.1-24.9-9.9-1.5-8 1.7-10.4-4.1-10.7-4.5-.3-3.7.3-3.7 3.3 0 12.6-4.3 15.9-22 16.9l-15.2.8v2.3l14.5-.8c11-.7 16.9-2.1 20.3-5.2l4.7-4.2v12.6 11.7z" class="H"/><path d="M91.1 249.9v-4.1l-.4-6.6-.4-11.8-.8 11.8-.6 6.4v4.3zm39.7-14.5v-1.9l-15.5-.8c-12.2-.7-16.4-1.9-19-5.4-2.1-2.6-3.1-3.1-2.5-1 1.7 5.5 11.2 9.1 25 9.1zm-69.7 0c13.7 0 23.2-3.6 24.9-9.1.6-2.1-.4-1.6-2.4 1-2.7 3.5-6.9 4.7-19.1 5.4l-15.2.8v1.9z"/></g><g class="E F G J"><use xlink:href="#B"/><use xlink:href="#C"/><use xlink:href="#D"/><use xlink:href="#E"/></g><use xlink:href="#F" class="E F"/><use xlink:href="#G" class="E F"/><use xlink:href="#H" class="E K"/><use xlink:href="#I" class="E L"/><defs><path id="A" d="M131.1 176.3v-1.9l-15.7-.8c-12.2-.7-16.4-1.9-19.1-5.4-2-2.6-3-3.1-2.4-1 1.7 5.5 11.2 9 24.7 9.1zm-69.7 0c13.5-.1 23-3.6 24.7-9.1.6-2.1-.4-1.6-2.5 1-2.6 3.5-6.8 4.7-19.1 5.4l-15.6.8v1.9z"/><path id="B" d="M90.587 28.246c-.155-.203-6.467.276-10.775-.195-8.987.803-2.485-15.216 2.934-11.544 2.421 2.511 6.936 8.395 7.841 11.739z"/><path id="C" d="M90.804 28.424c-.253.033-2.994 5.738-5.556 9.234-3.798 8.184-14.42-5.456-8.53-8.313 3.385-.841 10.738-1.809 14.086-.921zm.262-1.217c.155.203 6.467-.276 10.775.195 8.987-.803 2.485 15.216-2.934 11.544-2.421-2.511-6.936-8.395-7.841-11.739z"/><path id="D" d="M91.363 27.959c-.098.236 3.472 5.462 5.219 9.429 5.189 7.381-11.935 9.76-11.464 3.231.964-3.352 3.803-10.204 6.246-12.659zm-.983-.851c.253-.033 2.994-5.738 5.556-9.234 3.798-8.184 14.42 5.456 8.53 8.313-3.385.841-10.738 1.809-14.086.921z"/><path id="E" d="M90.055 27.183c.098-.236-3.472-5.462-5.219-9.429-5.189-7.381 11.935-9.76 11.464-3.231-.964 3.352-3.803 10.204-6.246 12.659z"/><path id="F" d="M89.493 27.699c-.155-.203-5.373.823-9.681.352-8.848.872-1.857-14.902 2.934-11.544 2.421 2.511 5.842 7.848 6.747 11.192zm.562-1.142c.098-.236-3.472-4.837-5.219-8.804-4.98-7.103 12.338-9.223 11.464-3.231-.964 3.352-3.803 9.579-6.246 12.034zm.95.081c.253-.033 2.663-5.04 4.697-8.843 4.082-7.633 14.28 5.909 8.764 8.391-3.385.841-10.113 1.34-13.461.452zm1.233 1.272c.155.203 5.295-.979 9.603-.508 8.762-.915 1.911 14.929-2.934 11.544-2.421-2.511-5.764-7.692-6.669-11.035zm-1.031.907c-.098.236 3.629 4.603 5.375 8.569 5.284 7.19-11.637 9.164-11.464 3.231.964-3.352 3.646-9.345 6.089-11.8z"/><path id="G" d="M89.866 28.659c-.253.033-2.057 5.504-4.619 9-3.495 7.982-14.098-5.671-8.53-8.313 3.385-.841 9.801-1.575 13.149-.687z"/><path id="H" d="M95.353 28.285c0 2.913-2.116 5.274-4.727 5.274s-4.727-2.361-4.727-5.274 2.116-5.274 4.727-5.274 4.727 2.361 4.727 5.274z"/><path id="I" d="M90.626 32.709c-2.285 0-4.137-2.01-4.136-4.489s1.851-4.88 4.136-4.88 4.45 2.323 4.449 4.802c-.052 2.693-2.505 4.787-4.449 4.568z"/></defs><g id="J" class="E"><g class="F"><g class="G J"><use xlink:href="#B" x="-0.676" y="230.35"/><use xlink:href="#C" x="-0.675" y="230.35"/><use xlink:href="#D" x="-0.675" y="230.349"/><use xlink:href="#E" x="-0.676" y="230.349"/></g><use xlink:href="#F" x="-0.676" y="230.35"/><use xlink:href="#G" x="-0.675" y="230.349"/></g><use xlink:href="#H" x="-0.675" y="230.35" class="K"/><use xlink:href="#I" x="-0.676" y="230.35" class="L"/></g><use xlink:href="#J" id="K" x="50.637" y="-213.462"/><use xlink:href="#K" id="L" x="-.338" y="20.265"/><use xlink:href="#L" id="M" x=".338" y="20.603"/><g id="N" class="E"><g class="F"><g class="G J"><use xlink:href="#B" x="-50.664" y="18.915"/><use xlink:href="#C" x="-50.663" y="18.915"/><use xlink:href="#D" x="-50.663" y="18.914"/><use xlink:href="#E" x="-50.663" y="18.914"/></g><use xlink:href="#F" x="-50.664" y="18.915"/><use xlink:href="#G" x="-50.663" y="18.914"/></g><use xlink:href="#H" x="-50.663" y="18.915" class="K"/><use xlink:href="#I" x="-50.664" y="18.915" class="L"/></g><use xlink:href="#N" id="O" x=".338" y="19.59"/><use xlink:href="#O" id="P" y="19.928"/><use xlink:href="#O" y="130"/><use xlink:href="#P" y="130"/><g class="E F G J"><use xlink:href="#B" x="-50.664" y="207.347"/><use xlink:href="#C" x="-50.663" y="207.346"/><use xlink:href="#D" x="-50.663" y="207.346"/><use xlink:href="#E" x="-50.663" y="207.346"/></g><use xlink:href="#F" x="-50.664" y="207.347" class="E F"/><use xlink:href="#G" x="-50.663" y="207.346" class="E F"/><use xlink:href="#H" x="-50.663" y="207.347" class="E K"/><use xlink:href="#I" x="-50.664" y="207.346" class="E L"/><use xlink:href="#L" y="130"/><use xlink:href="#M" y="130"/><g class="E F G J"><use xlink:href="#B" x="50.299" y="206.333"/><use xlink:href="#C" x="50.299" y="206.333"/><use xlink:href="#D" x="50.299" y="206.332"/><use xlink:href="#E" x="50.299" y="206.333"/></g><use xlink:href="#F" x="50.299" y="206.333" class="E F"/><use xlink:href="#G" x="50.3" y="206.333" class="E F"/><use xlink:href="#H" x="50.299" y="206.333" class="E K"/><use xlink:href="#I" x="50.299" y="206.333" class="E L"/></svg>