<svg xmlns="http://www.w3.org/2000/svg" xmlns:xlink="http://www.w3.org/1999/xlink" width="180" height="280" xmlns:v="https://vecta.io/nano"><style><![CDATA[.B{stroke-linejoin:round}.C{fill:red}.D{fill:#00f}.E{stroke:#000}.F{fill:#f6ff00}.G{stroke-linecap:round}.H{stroke-width:3}.I{stroke-width:.153}.J{stroke-width:.157}]]></style><g id="A" class="E"><use xlink:href="#D" paint-order="stroke fill markers" class="B F G H"/><g class="I"><use xlink:href="#E" class="C"/><use xlink:href="#F" class="D"/></g><g class="B J"><use xlink:href="#G" class="D"/><use xlink:href="#H"/><use xlink:href="#I" class="C"/></g></g><use xlink:href="#A" id="B" y="32"/><use xlink:href="#B" y="32"/><g class="E"><path d="M77.895 21.257h20.934v20.934L88.362 52.658 77.895 42.191V21.257" paint-order="stroke fill markers" class="B F G H"/><g class="I"><use xlink:href="#E" x="48" y="-18" class="C"/><use xlink:href="#F" x="48" y="-18" class="D"/></g><g class="B J"><path d="M77.895 25.403v3.233L95.14 45.881l1.616-1.616z" class="D"/><use xlink:href="#H" x="48" y="-18"/><path d="M77.895 21.257v.767l20.551 20.55.383-.383v-2.465L80.36 21.257h-2.464z" class="C"/></g></g><g transform="translate(96)"><g class="E"><use xlink:href="#D" paint-order="stroke fill markers" class="B F G H"/><g class="I"><use xlink:href="#E" class="C"/><use xlink:href="#F" class="D"/></g><g class="B J"><use xlink:href="#G" class="D"/><use xlink:href="#H"/><use xlink:href="#I" class="C"/></g></g><use xlink:href="#A" y="32"/><use xlink:href="#B" y="32"/></g><g transform="rotate(180 40.362 141.931)"><g class="E"><use xlink:href="#D" paint-order="stroke fill markers" class="B F G H"/><g class="I"><use xlink:href="#E" class="C"/><use xlink:href="#F" class="D"/></g><g class="B J"><use xlink:href="#G" class="D"/><use xlink:href="#H"/><use xlink:href="#I" class="C"/></g></g><use xlink:href="#A" y="32"/><use xlink:href="#B" y="32"/></g><g transform="matrix(-.81 0 0 -.81 101.323543 369.061655)" class="E"><path d="M3.079 136.367h25.844v25.844l-12.922 12.922-12.922-12.922v-25.844" paint-order="stroke fill markers" stroke-width="3.703" class="B F G"/><g stroke-width=".189"><use xlink:href="#J" class="C"/><use xlink:href="#J" x="11.158" y="-18.468" class="D"/></g><g stroke-width=".194" class="B"><path d="M3.079 141.485v3.992l21.289 21.289 1.995-1.995z" class="D"/><path d="M3.079 137.406v3.99l23.328 23.33 1.995-1.995-25.324-25.326z"/><path d="M3.079 136.367v.947l25.372 25.37.472-.472v-3.043L6.122 136.366H3.08z" class="C"/></g></g><g transform="rotate(180 88.362 141.931)"><g class="E"><use xlink:href="#D" paint-order="stroke fill markers" class="B F G H"/><g class="I"><use xlink:href="#E" class="C"/><use xlink:href="#F" class="D"/></g><g class="B J"><use xlink:href="#G" class="D"/><use xlink:href="#H"/><use xlink:href="#I" class="C"/></g></g><use xlink:href="#A" y="32"/><use xlink:href="#B" y="32"/></g><defs ><path id="D" d="M29.895 39.257h20.934v20.934L40.362 70.658 29.895 60.191V39.257"/><path id="E" d="M34.398 56.806c.871.714 1.321 1.732 1.405 2.706-.974-.084-1.992-.533-2.705-1.404v3.528c.714-.871 1.731-1.321 2.705-1.405-.084.974-.533 1.992-1.405 2.705h3.528c-.871-.714-1.321-1.731-1.405-2.705.974.084 1.992.533 2.705 1.405v-3.528c-.714.871-1.731 1.321-2.705 1.404.084-.974.533-1.992 1.405-2.706z"/><path id="F" d="M43.435 41.847c.871.714 1.321 1.732 1.405 2.706-.974-.084-1.992-.533-2.705-1.404v3.528c.714-.871 1.731-1.321 2.705-1.404-.084.974-.533 1.992-1.405 2.705h3.528c-.871-.714-1.321-1.731-1.405-2.705.974.084 1.992.533 2.705 1.404v-3.528c-.714.871-1.731 1.321-2.705 1.404.084-.974.533-1.992 1.405-2.706z"/><path id="G" d="M29.895 43.403v3.233L47.14 63.881l1.616-1.616z"/><path id="H" d="M29.895 40.099v3.232l18.896 18.898 1.616-1.616-20.512-20.514z"/><path id="I" d="M29.895 39.257v.767l20.551 20.55.383-.383v-2.465L32.36 39.257h-2.464z"/><path id="J" d="M8.638 158.032c1.076.881 1.63 2.138 1.734 3.34-1.202-.104-2.459-.658-3.34-1.734v4.356c.881-1.076 2.137-1.63 3.34-1.734-.104 1.202-.658 2.459-1.734 3.34h4.356c-1.076-.881-1.63-2.137-1.734-3.34 1.202.104 2.459.658 3.34 1.734v-4.356c-.881 1.076-2.137 1.63-3.34 1.734.104-1.202.658-2.459 1.734-3.34z"/></defs></svg>