<svg xmlns="http://www.w3.org/2000/svg" xmlns:xlink="http://www.w3.org/1999/xlink" width="180" height="280" xmlns:v="https://vecta.io/nano"><style><![CDATA[.B{stroke-linejoin:round}.C{fill:red}.D{fill:#00f}.E{stroke:#000}.F{fill:#f6ff00}.G{stroke-linecap:round}.H{stroke-width:3}.I{stroke-width:.153}.J{stroke-width:.157}]]></style><g id="A" class="E"><use xlink:href="#D" paint-order="stroke fill markers" class="B F G H"/><g class="I"><use xlink:href="#E" class="C"/><use xlink:href="#F" class="D"/></g><g class="B J"><use xlink:href="#G" class="D"/><use xlink:href="#H"/><use xlink:href="#I" class="C"/></g></g><use xlink:href="#A" id="B" y="32"/><use xlink:href="#B" y="32"/><g transform="translate(48 -18)"><g class="E"><use xlink:href="#D" paint-order="stroke fill markers" class="B F G H"/><g class="I"><use xlink:href="#E" class="C"/><use xlink:href="#F" class="D"/></g><g class="B J"><use xlink:href="#G" class="D"/><use xlink:href="#H"/><use xlink:href="#I" class="C"/></g></g><use xlink:href="#A" y="32"/><use xlink:href="#B" y="32"/></g><g transform="translate(96)"><g class="E"><use xlink:href="#D" paint-order="stroke fill markers" class="B F G H"/><g class="I"><use xlink:href="#E" class="C"/><use xlink:href="#F" class="D"/></g><g class="B J"><use xlink:href="#G" class="D"/><use xlink:href="#H"/><use xlink:href="#I" class="C"/></g></g><use xlink:href="#A" y="32"/><use xlink:href="#B" y="32"/></g><g transform="rotate(180 40.362 141.931)"><g class="E"><use xlink:href="#D" paint-order="stroke fill markers" class="B F G H"/><g class="I"><use xlink:href="#E" class="C"/><use xlink:href="#F" class="D"/></g><g class="B J"><use xlink:href="#G" class="D"/><use xlink:href="#H"/><use xlink:href="#I" class="C"/></g></g><use xlink:href="#A" y="32"/><use xlink:href="#B" y="32"/></g><g transform="rotate(180 64.362 148.931)"><g class="E"><use xlink:href="#D" paint-order="stroke fill markers" class="B F G H"/><g class="I"><use xlink:href="#E" class="C"/><use xlink:href="#F" class="D"/></g><g class="B J"><use xlink:href="#G" class="D"/><use xlink:href="#H"/><use xlink:href="#I" class="C"/></g></g><use xlink:href="#A" y="32"/><use xlink:href="#B" y="32"/></g><g transform="rotate(180 88.362 141.931)"><g class="E"><use xlink:href="#D" paint-order="stroke fill markers" class="B F G H"/><g class="I"><use xlink:href="#E" class="C"/><use xlink:href="#F" class="D"/></g><g class="B J"><use xlink:href="#G" class="D"/><use xlink:href="#H"/><use xlink:href="#I" class="C"/></g></g><use xlink:href="#A" y="32"/><use xlink:href="#B" y="32"/></g><defs ><path id="D" d="M29.895 39.257h20.934v20.934L40.362 70.658 29.895 60.191V39.257"/><path id="E" d="M34.398 56.806c.871.714 1.321 1.732 1.405 2.706-.974-.084-1.992-.533-2.705-1.404v3.528c.714-.871 1.731-1.321 2.705-1.405-.084.974-.533 1.992-1.405 2.705h3.528c-.871-.714-1.321-1.731-1.405-2.705.974.084 1.992.533 2.705 1.405v-3.528c-.714.871-1.731 1.321-2.705 1.404.084-.974.533-1.992 1.405-2.706z"/><path id="F" d="M43.435 41.847c.871.714 1.321 1.732 1.405 2.706-.974-.084-1.992-.533-2.705-1.404v3.528c.714-.871 1.731-1.321 2.705-1.404-.084.974-.533 1.992-1.405 2.705h3.528c-.871-.714-1.321-1.731-1.405-2.705.974.084 1.992.533 2.705 1.404v-3.528c-.714.871-1.731 1.321-2.705 1.404.084-.974.533-1.992 1.405-2.706z"/><path id="G" d="M29.895 43.403v3.233L47.14 63.881l1.616-1.616z"/><path id="H" d="M29.895 40.099v3.232l18.896 18.898 1.616-1.616-20.512-20.514z"/><path id="I" d="M29.895 39.257v.767l20.551 20.55.383-.383v-2.465L32.36 39.257h-2.464z"/></defs></svg>