<svg xmlns="http://www.w3.org/2000/svg" width="29" height="29" xmlns:v="https://vecta.io/nano"><g fill="#f8e700" fill-rule="evenodd"><g stroke="#000" stroke-width=".8"><path d="M14.03 14.911c-.117-.152-4.858.207-8.096-.146-6.752.603-1.867-11.432 2.205-8.673 1.819 1.886 5.211 6.307 5.891 8.819z"/><path d="M14.194 15.045c-.19.025-2.25 4.311-4.175 6.938-2.853 6.149-10.834-4.099-6.409-6.246 2.543-.632 8.068-1.359 10.583-.692zm.197-.914c.117.152 4.858-.207 8.096.146 6.752-.603 1.867 11.432-2.205 8.673-1.819-1.886-5.211-6.307-5.891-8.819z"/><path d="M14.614 14.695c-.074.177 2.609 4.104 3.921 7.084 3.898 5.546-8.967 7.333-8.613 2.427.724-2.519 2.857-7.667 4.692-9.511zm-.739-.639c.19-.025 2.25-4.311 4.175-6.938 2.853-6.149 10.834 4.099 6.409 6.246-2.543.632-8.068 1.359-10.583.692z"/><path d="M13.631 14.112c.074-.177-2.609-4.104-3.921-7.084C5.812 1.482 18.677-.305 18.323 4.6c-.724 2.519-2.857 7.667-4.692 9.511z"/></g><path d="M13.209 14.5c-.117-.152-4.037.618-7.274.265C-.713 15.42 4.54 3.568 8.14 6.092c1.819 1.886 4.389 5.896 5.069 8.408zm.422-.858c.074-.177-2.609-3.634-3.921-6.614C5.968 1.691 18.98.098 18.323 4.6c-.724 2.519-2.857 7.197-4.692 9.042zm.714.061c.19-.025 2.001-3.787 3.529-6.644 3.067-5.735 10.729 4.44 6.585 6.305-2.543.632-7.598 1.007-10.114.34zm.926.956c.117.152 3.978-.736 7.215-.382 6.583-.688 1.435 11.216-2.205 8.673-1.819-1.886-4.33-5.779-5.01-8.291zm-.775.682c-.074.177 2.726 3.458 4.038 6.438 3.97 5.402-8.743 6.885-8.613 2.427.724-2.519 2.74-7.021 4.575-8.866zm-1.007-.12c-.19.025-1.545 4.135-3.47 6.762-2.626 5.997-10.592-4.26-6.409-6.246 2.543-.632 7.363-1.183 9.879-.516z"/></g><path fill="#b15d23" fill-rule="evenodd" d="M17.611 14.94c0 2.188-1.59 3.963-3.552 3.963s-3.552-1.774-3.552-3.963 1.59-3.963 3.552-3.963 3.552 1.774 3.552 3.963z"/><path fill="#e45b36" fill-rule="evenodd" d="M14.06 18.264c-1.717 0-3.108-1.51-3.108-3.373s1.391-3.666 3.108-3.666 3.343 1.745 3.342 3.608c-.039 2.023-1.882 3.597-3.342 3.432z"/></svg>