<svg xmlns="http://www.w3.org/2000/svg" xmlns:xlink="http://www.w3.org/1999/xlink" width="23.936" height="34.401" viewBox="0 0 6.333 9.102" xmlns:v="https://vecta.io/nano"><g stroke="#000"><path stroke-linejoin="round" fill="#f6ff00" d="M.396.397h5.539v5.539L3.166 8.705.396 5.936V.397" stroke-linecap="round" paint-order="stroke fill markers" stroke-width=".794"/><g stroke-width=".04"><use xlink:href="#B" fill="red"/><use xlink:href="#B" x="2.391" y="-3.957" fill="#00f"/></g><g stroke-linejoin="round" stroke-width=".042"><path d="M.396 1.494v.855l4.563 4.563.428-.428z" fill="#00f"/><path d="M.396.62v.855l5 5 .428-.428L.396.62z"/><path d="M.396.397V.6l5.438 5.437.101-.101v-.652L1.048.397H.396z" fill="red"/></g></g><defs ><path id="B" d="M1.588 5.04a1.04 1.04 0 0 1 .372.716 1.04 1.04 0 0 1-.716-.372v.933a1.04 1.04 0 0 1 .716-.372 1.04 1.04 0 0 1-.372.716h.933a1.04 1.04 0 0 1-.372-.716 1.04 1.04 0 0 1 .716.372v-.933a1.04 1.04 0 0 1-.716.372 1.04 1.04 0 0 1 .372-.716z"/></defs></svg>