<?xml version="1.0" encoding="UTF-8" standalone="no"?>
<svg
   xmlns:dc="http://purl.org/dc/elements/1.1/"
   xmlns:cc="http://creativecommons.org/ns#"
   xmlns:rdf="http://www.w3.org/1999/02/22-rdf-syntax-ns#"
   xmlns:svg="http://www.w3.org/2000/svg"
   xmlns="http://www.w3.org/2000/svg"
   xmlns:sodipodi="http://sodipodi.sourceforge.net/DTD/sodipodi-0.dtd"
   xmlns:inkscape="http://www.inkscape.org/namespaces/inkscape"
   inkscape:version="1.0 (4035a4fb49, 2020-05-01)"
   sodipodi:docname="1J.svg"
   id="svg24"
   version="1.1"
   width="2.25in"
   viewBox="-106 -164.5 212 329"
   preserveAspectRatio="none"
   height="3.5in"
   face="1J"
   class="card">
  <metadata
     id="metadata30">
    <rdf:RDF>
      <cc:Work
         rdf:about="">
        <dc:format>image/svg+xml</dc:format>
        <dc:type
           rdf:resource="http://purl.org/dc/dcmitype/StillImage" />
      </cc:Work>
    </rdf:RDF>
  </metadata>
  <defs
     id="defs28" />
  <sodipodi:namedview
     inkscape:current-layer="cardBJ"
     inkscape:window-maximized="1"
     inkscape:window-y="-12"
     inkscape:window-x="-12"
     inkscape:cy="168"
     inkscape:cx="108"
     inkscape:zoom="2.2410714"
     showgrid="false"
     id="namedview26"
     inkscape:window-height="2050"
     inkscape:window-width="3240"
     inkscape:pageshadow="2"
     inkscape:pageopacity="0"
     guidetolerance="10"
     gridtolerance="10"
     objecttolerance="10"
     borderopacity="1"
     bordercolor="#666666"
     pagecolor="#ffffff" />
  <symbol
     viewBox="0 0 1300 2000"
     preserveAspectRatio="none"
     id="J11">
    <path
       id="path2"
       d="M1095,1000A445,445 0 0 1 650,1445 445,445 0 0 1 205,1000 445,445 0 0 1 650,555 445,445 0 0 1 1095,1000Z"
       fill="#FC4" />
  </symbol>
  <symbol
     viewBox="0 0 1300 2000"
     preserveAspectRatio="none"
     id="J12">
    <path
       id="path5"
       d="M317.05664,1294.416 100,1620l220,-60 40,240 140,-200 160,200 40,-200 180,180 60,-220 260,60 -236.67969,-304.3027A445,445 0 0 1 650,1445 445,445 0 0 1 317.05664,1294.416ZM831.71484,249.10742C687.94378,262.65874 542.4812,256.33752 420,520 369.08062,331.38331 278.61481,370.61289 187.77148,412.01367a75,75 0 0 1 2.52344,19.12695 75,75 0 0 1 -16.78515,47.19532c66.827,55.25537 117.57478,127.8247 155.77539,213.90429A445,445 0 0 1 650,555 445,445 0 0 1 924.33984,650.26562c42.39917,-50.4556 91.60026,-93.34711 167.51176,-106.5332a75,75 0 0 1 -0.6524,-9.14258 75,75 0 0 1 14.6172,-44.3457C1026.3517,437.47479 931.12146,446.83238 840,440 761.98041,388.07638 804.10248,338.17898 853.51758,288.4043a75,75 0 0 1 -21.80274,-39.29688z"
       fill="red" />
  </symbol>
  <symbol
     viewBox="0 0 1300 2000"
     preserveAspectRatio="none"
     id="J13">
    <path
       id="path8"
       d="M879.65521,937.6026a40,40 0 0 1 -40,40 40,40 0 0 1 -40,-40 40,40 0 0 1 40,-40 40,40 0 0 1 40,40zm-379.31039,0a40,40 0 0 1 -40,40 40,40 0 0 1 -40,-40 40,40 0 0 1 40,-40 40,40 0 0 1 40,40z"
       fill="#44F" />
  </symbol>
  <symbol
     viewBox="0 0 1300 2000"
     preserveAspectRatio="none"
     id="J14">
    <path
       id="path11"
       d="M317.05664,1294.416 100,1620l220,-60 40,240 140,-200 160,200 40,-200 180,180 60,-220 260,60 -236.67969,-304.3027M1241.1987,534.58948a75,75 0 0 1 -75,75 75,75 0 0 1 -75,-75 75,75 0 0 1 75,-75 75,75 0 0 1 75,75zM980.11493,234.09686a75,75 0 0 1 -75,75 75,75 0 0 1 -75,-75 75,75 0 0 1 75,-75 75,75 0 0 1 75,75zM190.29556,431.1412a75,75 0 0 1 -75,75 75,75 0 0 1 -74.999997,-75 75,75 0 0 1 74.999997,-75 75,75 0 0 1 75,75zM924.3457,650.27148c42.40088,-50.45397 91.5936,-93.35356 167.5059,-106.53906 -0.4037,-3.03138 -0.6215,-6.0846 -0.6524,-9.14258 0.03,-15.96068 5.1503,-31.4957 14.6172,-44.3457C1026.3517,437.47479 931.12146,446.83238 840,440 761.98041,388.07638 804.10248,338.17898 853.51758,288.4043 842.40414,277.84182 834.79487,264.12701 831.71484,249.10742 687.94378,262.65874 542.4812,256.33752 420,520 369.08062,331.38331 278.61481,370.61289 187.77148,412.01367c1.66108,6.24042 2.50924,12.66925 2.52344,19.12695 -0.0209,17.1896 -5.94587,33.85038 -16.7832,47.19336 66.82714,55.25532 117.5686,127.8306 155.76953,213.91016M384.88867,1140c51.89013,98.343 153.91815,159.9189 265.11133,160 111.19809,-0.076 213.23257,-61.6527 265.125,-160M1095,1000A445,445 0 0 1 650,1445 445,445 0 0 1 205,1000 445,445 0 0 1 650,555 445,445 0 0 1 1095,1000Z"
       fill="none"
       stroke-width="6"
       stroke-linejoin="round"
       stroke-linecap="round"
       stroke="#44F" />
  </symbol>
  <rect
     id="rect14"
     stroke="black"
     fill="white"
     ry="12"
     rx="12"
     y="-164"
     x="-105.5"
     height="328"
     width="211" />
  <g
     id="cardBJ"
     transform="matrix(2.1926689,0,0,2.1874975,-54.938946,-1863.5913)"
     inkscape:label="#JR">
    <g
       transform="translate(-120.63257,14.880205)"
       id="g902">
      <path
         inkscape:connector-curvature="0"
         id="polygon11585"
         d="m 145.68831,832.0482 3.4,-9.7 -1.2,10.2 1.7,1.3 9.6,-3.3 -8.6,5.4 v 2.2 l 8.6,5.4 -9.6,-3.4 -1.7,1.4 1.2,10.1 -3.4,-9.6 -2.2,-0.5 -7.1,7.2 5.4,-8.6 -1,-2 -10.1,-1.1 10.1,-1.1 1,-2.1 -5.4,-8.6 7.1,7.3 z" />
      <path
         inkscape:connector-curvature="0"
         id="circle11587"
         d="m 153.18832,837.04821 c 0,4.14214 -3.35787,7.5 -7.5,7.5 -4.14214,0 -7.5,-3.35786 -7.5,-7.5 0,-4.14213 3.35786,-7.5 7.5,-7.5 4.14213,0 7.5,3.35787 7.5,7.5 z"
         style="fill:none;stroke:#000000" />
      <path
         inkscape:connector-curvature="0"
         id="circle11589"
         d="m 163.18832,837.04821 c 0,9.66499 -7.83502,17.5 -17.5,17.5 -9.66499,0 -17.5,-7.83501 -17.5,-17.5 0,-9.66498 7.83501,-17.5 17.5,-17.5 9.66498,0 17.5,7.83502 17.5,17.5 z"
         style="fill:none;stroke:#000000" />
      <path
         inkscape:connector-curvature="0"
         id="path24939"
         style="font-style:normal;font-variant:normal;font-weight:normal;font-stretch:normal;font-size:48px;line-height:0%;font-family:Comfortaa;-inkscape-font-specification:Comfortaa;letter-spacing:0.950001px;word-spacing:0px;fill:#000000;fill-opacity:1;stroke:none"
         d="m 102.32068,787.09091 c 0,0.54873 0.1023,1.06025 0.30691,1.53457 0.20461,0.47433 0.48129,0.88587 0.83007,1.23464 0.34876,0.34877 0.7603,0.62546 1.23463,0.83006 0.47432,0.20462 0.98585,0.30692 1.53458,0.30692 0.53942,0 1.04629,-0.1023 1.52062,-0.30692 0.47432,-0.2046 0.88586,-0.48362 1.23464,-0.83704 0.34876,-0.35341 0.62545,-0.76728 0.83006,-1.24161 0.2046,-0.47432 0.30691,-0.98119 0.30692,-1.52062 v -13.97859 c -1e-5,-0.40919 0.14414,-0.75796 0.43247,-1.0463 0.2883,-0.28829 0.63707,-0.43244 1.0463,-0.43247 0.40921,3e-5 0.75798,0.14418 1.0463,0.43247 0.2883,0.28834 0.43246,0.63711 0.43247,1.0463 v 13.97859 c -1e-5,0.93935 -0.18137,1.82521 -0.54407,2.6576 -0.36273,0.8324 -0.85333,1.56015 -1.47179,2.18328 -0.6185,0.62314 -1.34393,1.11606 -2.17631,1.47878 -0.8324,0.36271 -1.71827,0.54407 -2.65761,0.54407 -0.94865,0 -1.83917,-0.18136 -2.67155,-0.54407 -0.8324,-0.36272 -1.55783,-0.85797 -2.17631,-1.48575 -0.61848,-0.62778 -1.10908,-1.35554 -1.47179,-2.18329 -0.36272,-0.82773 -0.54408,-1.71127 -0.54408,-2.65062 0,-0.40922 0.14416,-0.75799 0.43247,-1.0463 0.28831,-0.28831 0.63708,-0.43247 1.0463,-0.43248 0.40922,10e-6 0.75798,0.14417 1.0463,0.43248 0.28831,0.28832 0.43247,0.63708 0.43247,1.0463 z" />
      <path
         inkscape:connector-curvature="0"
         id="path24941"
         style="font-style:normal;font-variant:normal;font-weight:bold;font-stretch:normal;font-size:40px;line-height:0%;font-family:Comfortaa;-inkscape-font-specification:Comfortaa;letter-spacing:3.56px;word-spacing:0px;fill:#000000;fill-opacity:1;stroke:none"
         d="m 115.17067,797.58275 c -1e-5,1.81359 -0.63554,3.34817 -1.9066,4.60373 -1.28657,1.27105 -2.82114,1.90659 -4.60372,1.90659 -1.79809,0 -3.33267,-0.63554 -4.60373,-1.90659 -1.27106,-1.27107 -1.90659,-2.80564 -1.90659,-4.60373 0,-1.79808 0.63553,-3.33265 1.90659,-4.60372 1.27106,-1.27106 2.80564,-1.90659 4.60373,-1.9066 1.78258,10e-6 3.31715,0.63554 4.60372,1.9066 0.63552,0.63553 1.11024,1.33695 1.42414,2.10422 0.31387,0.7673 0.47469,1.60046 0.48246,2.4995 z m -6.51032,-4.08058 c -0.57353,10e-6 -1.10831,0.10852 -1.60432,0.32552 -0.49604,0.21702 -0.92618,0.5096 -1.29044,0.87773 -0.36428,0.36815 -0.65298,0.80023 -0.86611,1.29625 -0.21314,0.49603 -0.31971,1.02306 -0.3197,1.58108 -1e-5,0.55803 0.10656,1.08506 0.3197,1.58108 0.21313,0.49602 0.50183,0.92811 0.86611,1.29624 0.36426,0.36815 0.7944,0.66073 1.29044,0.87773 0.49601,0.21702 1.03079,0.32552 1.60432,0.32552 0.56577,0 1.09667,-0.1085 1.5927,-0.32552 0.49602,-0.217 0.9281,-0.51152 1.29625,-0.88354 0.36814,-0.37201 0.65878,-0.80409 0.87192,-1.29624 0.21313,-0.49215 0.3197,-1.01724 0.31971,-1.57527 -1e-5,-0.55802 -0.10658,-1.08311 -0.31971,-1.57526 -0.21314,-0.49215 -0.50378,-0.92423 -0.87192,-1.29626 -0.36815,-0.372 -0.80023,-0.66652 -1.29625,-0.88354 -0.49603,-0.217 -1.02693,-0.32551 -1.5927,-0.32552 z" />
      <path
         inkscape:connector-curvature="0"
         id="path24943"
         style="font-style:normal;font-variant:normal;font-weight:normal;font-stretch:normal;font-size:40px;line-height:0%;font-family:Comfortaa;-inkscape-font-specification:Comfortaa;letter-spacing:0.24px;word-spacing:0px;fill:#000000;fill-opacity:1;stroke:none"
         d="m 99.53358,813.96391 v -16.15954 c -1e-5,-0.341 0.11819,-0.6297 0.35458,-0.86611 0.23638,-0.23636 0.52509,-0.35456 0.8661,-0.35457 0.33327,10e-6 0.61809,0.11821 0.85448,0.35457 0.23638,0.23641 0.35458,0.52511 0.35458,0.86611 v 9.06794 l 6.95209,-4.52234 c 0.19375,-0.12399 0.41076,-0.186 0.65104,-0.18601 0.17049,10e-6 0.32937,0.031 0.47664,0.093 0.14725,0.062 0.27513,0.14921 0.38365,0.26158 0.10849,0.11239 0.19568,0.24221 0.26157,0.38945 0.0659,0.14727 0.0988,0.30228 0.0988,0.46503 -1e-5,0.43403 -0.15502,0.75567 -0.46502,0.96492 l -4.87112,3.16215 4.999,5.62678 c 0.22474,0.24801 0.33713,0.5309 0.33714,0.84866 -1e-5,0.16276 -0.033,0.31777 -0.0988,0.46503 -0.0659,0.14726 -0.15308,0.27707 -0.26157,0.38946 -0.10852,0.11238 -0.2364,0.19956 -0.38365,0.26157 -0.14727,0.062 -0.30615,0.093 -0.47665,0.093 -0.32552,0 -0.59679,-0.10463 -0.81379,-0.31389 l -5.37101,-6.03366 -1.41832,0.93004 v 4.19683 c 0,0.33326 -0.1182,0.62003 -0.35458,0.86029 -0.23639,0.24026 -0.52121,0.36039 -0.85448,0.36039 -0.34101,0 -0.62972,-0.12013 -0.8661,-0.36039 -0.23639,-0.24026 -0.35459,-0.52703 -0.35458,-0.86029 z" />
      <path
         inkscape:connector-curvature="0"
         id="path24945"
         style="font-style:normal;font-variant:normal;font-weight:normal;font-stretch:normal;font-size:40px;line-height:0%;font-family:Comfortaa;-inkscape-font-specification:Comfortaa;letter-spacing:-1.2px;word-spacing:0px;fill:#000000;fill-opacity:1;stroke:none"
         d="m 110.82816,817.70782 c -0.13176,-0.42626 -0.32746,-0.81572 -0.58709,-1.16837 -0.25964,-0.35263 -0.56191,-0.6549 -0.90679,-0.9068 -0.3449,-0.25187 -0.72467,-0.44757 -1.13931,-0.58709 -0.41465,-0.13949 -0.84286,-0.20925 -1.28462,-0.20926 -0.44178,10e-6 -0.87193,0.0698 -1.29044,0.20926 -0.41852,0.13952 -0.80217,0.33522 -1.15093,0.58709 -0.34877,0.2519 -0.65104,0.55417 -0.90679,0.9068 -0.25577,0.35265 -0.44566,0.74211 -0.56966,1.16837 z m -0.52315,4.05732 c 0.34876,0 0.63746,0.11432 0.86611,0.34296 0.22863,0.22864 0.34294,0.51733 0.34295,0.8661 -1e-5,0.34102 -0.11626,0.63166 -0.34876,0.87192 -1.20132,1.05405 -2.61964,1.58107 -4.25496,1.58107 -1.79809,0 -3.33267,-0.63553 -4.60373,-1.90659 -1.27106,-1.27106 -1.90659,-2.80563 -1.90659,-4.60372 0,-1.79808 0.63553,-3.33266 1.90659,-4.60373 1.27106,-1.27105 2.80564,-1.90658 4.60373,-1.90659 1.78258,10e-6 3.31715,0.63554 4.60372,1.90659 0.63552,0.62779 1.11217,1.32726 1.42995,2.09842 0.31775,0.77117 0.47664,1.60627 0.47665,2.50531 -1e-5,0.34877 -0.11821,0.63747 -0.35458,0.8661 -0.2364,0.22864 -0.52511,0.34296 -0.86611,0.34296 h -9.20745 c 0.13176,0.42627 0.32552,0.81573 0.58128,1.16836 0.25576,0.35265 0.55609,0.65492 0.90098,0.9068 0.34489,0.25189 0.72466,0.44759 1.13931,0.58709 0.41464,0.13951 0.84672,0.20926 1.29625,0.20926 0.51152,0 0.98041,-0.0775 1.40669,-0.23251 0.42626,-0.15501 0.82153,-0.38751 1.18581,-0.69753 0.2325,-0.19376 0.49989,-0.29452 0.80216,-0.30227 z" />
      <path
         inkscape:connector-curvature="0"
         id="path24947"
         style="font-style:normal;font-variant:normal;font-weight:bold;font-stretch:normal;font-size:40px;line-height:0%;font-family:Comfortaa;-inkscape-font-specification:Comfortaa;letter-spacing:3.56px;word-spacing:0px;fill:#000000;fill-opacity:1;stroke:none"
         d="m 110.67248,821.61117 v 0.23251 c 0.58127,-0.46501 1.21293,-0.82153 1.89497,-1.06955 0.68202,-0.248 1.41056,-0.37201 2.1856,-0.37202 0.34101,10e-6 0.70722,0.0233 1.09862,0.0697 0.39138,0.0466 0.75178,0.12983 1.08118,0.24995 0.32938,0.12014 0.60258,0.28484 0.8196,0.49409 0.217,0.20927 0.3255,0.48053 0.32552,0.81379 -2e-5,0.17052 -0.033,0.3294 -0.0988,0.47664 -0.0659,0.14728 -0.15308,0.27709 -0.26158,0.38946 -0.10851,0.11239 -0.23639,0.19958 -0.38364,0.26158 -0.14727,0.062 -0.30615,0.093 -0.47665,0.093 -0.14726,10e-6 -0.31777,-0.0426 -0.51152,-0.12788 -0.48828,-0.19375 -1.01919,-0.29063 -1.59271,-0.29064 -0.56578,10e-6 -1.09668,0.10658 -1.5927,0.31971 -0.49603,0.21314 -0.92811,0.50378 -1.29625,0.87191 -0.36815,0.36815 -0.65879,0.80024 -0.87192,1.29625 -0.21313,0.49603 -0.3197,1.02694 -0.3197,1.59271 v 5.30126 c 0,0.33326 -0.1182,0.61809 -0.35458,0.85447 -0.23639,0.23639 -0.52121,0.35459 -0.85448,0.35459 -0.34101,0 -0.62972,-0.1182 -0.8661,-0.35459 -0.23639,-0.23638 -0.35459,-0.52121 -0.35459,-0.85447 v -10.60252 c 0,-0.33326 0.1182,-0.61809 0.35459,-0.85448 0.23638,-0.23638 0.52509,-0.35457 0.8661,-0.35458 0.33327,10e-6 0.61809,0.1182 0.85448,0.35458 0.23638,0.23639 0.35458,0.52122 0.35458,0.85448 z" />
      <path
         d="m 189.05595,887.00553 c 0,-0.54873 -0.1023,-1.06025 -0.30691,-1.53457 -0.20461,-0.47433 -0.48129,-0.88587 -0.83007,-1.23464 -0.34876,-0.34877 -0.7603,-0.62546 -1.23463,-0.83006 -0.47432,-0.20462 -0.98585,-0.30692 -1.53458,-0.30692 -0.53942,0 -1.04629,0.1023 -1.52062,0.30692 -0.47432,0.2046 -0.88586,0.48362 -1.23464,0.83704 -0.34876,0.35341 -0.62545,0.76728 -0.83006,1.24161 -0.2046,0.47432 -0.30691,0.98119 -0.30692,1.52062 v 13.97859 c 1e-5,0.40919 -0.14414,0.75796 -0.43247,1.0463 -0.2883,0.28829 -0.63707,0.43244 -1.0463,0.43247 -0.40921,-3e-5 -0.75798,-0.14418 -1.0463,-0.43247 -0.2883,-0.28834 -0.43246,-0.63711 -0.43247,-1.0463 v -13.97859 c 1e-5,-0.93935 0.18137,-1.82521 0.54407,-2.6576 0.36273,-0.8324 0.85333,-1.56015 1.47179,-2.18328 0.6185,-0.62314 1.34393,-1.11606 2.17631,-1.47878 0.8324,-0.36271 1.71827,-0.54407 2.65761,-0.54407 0.94865,0 1.83917,0.18136 2.67155,0.54407 0.8324,0.36272 1.55783,0.85797 2.17631,1.48575 0.61848,0.62778 1.10908,1.35554 1.47179,2.18329 0.36272,0.82773 0.54408,1.71127 0.54408,2.65062 0,0.40922 -0.14416,0.75799 -0.43247,1.0463 -0.28831,0.28831 -0.63708,0.43247 -1.0463,0.43248 -0.40922,-1e-5 -0.75798,-0.14417 -1.0463,-0.43248 -0.28831,-0.28832 -0.43247,-0.63708 -0.43247,-1.0463 z"
         style="font-style:normal;font-variant:normal;font-weight:normal;font-stretch:normal;font-size:48px;line-height:0%;font-family:Comfortaa;-inkscape-font-specification:Comfortaa;letter-spacing:0.950001px;word-spacing:0px;fill:#000000;fill-opacity:1;stroke:none"
         id="path25025"
         inkscape:connector-curvature="0" />
      <path
         d="m 176.20596,876.51369 c 1e-5,-1.81359 0.63554,-3.34817 1.9066,-4.60373 1.28657,-1.27105 2.82114,-1.90659 4.60372,-1.90659 1.79809,0 3.33267,0.63554 4.60373,1.90659 1.27106,1.27107 1.90659,2.80564 1.90659,4.60373 0,1.79808 -0.63553,3.33265 -1.90659,4.60372 -1.27106,1.27106 -2.80564,1.90659 -4.60373,1.9066 -1.78258,-10e-6 -3.31715,-0.63554 -4.60372,-1.9066 -0.63552,-0.63553 -1.11024,-1.33695 -1.42414,-2.10422 -0.31387,-0.7673 -0.47469,-1.60046 -0.48246,-2.4995 z m 6.51032,4.08058 c 0.57353,-1e-5 1.10831,-0.10852 1.60432,-0.32552 0.49604,-0.21702 0.92618,-0.5096 1.29044,-0.87773 0.36428,-0.36815 0.65298,-0.80023 0.86611,-1.29625 0.21314,-0.49603 0.31971,-1.02306 0.3197,-1.58108 1e-5,-0.55803 -0.10656,-1.08506 -0.3197,-1.58108 -0.21313,-0.49602 -0.50183,-0.92811 -0.86611,-1.29624 -0.36426,-0.36815 -0.7944,-0.66073 -1.29044,-0.87773 -0.49601,-0.21702 -1.03079,-0.32552 -1.60432,-0.32552 -0.56577,0 -1.09667,0.1085 -1.5927,0.32552 -0.49602,0.217 -0.9281,0.51152 -1.29625,0.88354 -0.36814,0.37201 -0.65878,0.80409 -0.87192,1.29624 -0.21313,0.49215 -0.3197,1.01724 -0.31971,1.57527 10e-6,0.55802 0.10658,1.08311 0.31971,1.57526 0.21314,0.49215 0.50378,0.92423 0.87192,1.29626 0.36815,0.372 0.80023,0.66652 1.29625,0.88354 0.49603,0.217 1.02693,0.32551 1.5927,0.32552 z"
         style="font-style:normal;font-variant:normal;font-weight:bold;font-stretch:normal;font-size:40px;line-height:0%;font-family:Comfortaa;-inkscape-font-specification:Comfortaa;letter-spacing:3.56px;word-spacing:0px;fill:#000000;fill-opacity:1;stroke:none"
         id="path25027"
         inkscape:connector-curvature="0" />
      <path
         d="m 191.84305,860.13253 v 16.15954 c 1e-5,0.341 -0.11819,0.6297 -0.35458,0.86611 -0.23638,0.23636 -0.52509,0.35456 -0.8661,0.35457 -0.33327,-10e-6 -0.61809,-0.11821 -0.85448,-0.35457 -0.23638,-0.23641 -0.35458,-0.52511 -0.35458,-0.86611 v -9.06794 l -6.95209,4.52234 c -0.19375,0.12399 -0.41076,0.186 -0.65104,0.18601 -0.17049,-1e-5 -0.32937,-0.031 -0.47664,-0.093 -0.14725,-0.062 -0.27513,-0.14921 -0.38365,-0.26158 -0.10849,-0.11239 -0.19568,-0.24221 -0.26157,-0.38945 -0.0659,-0.14727 -0.0988,-0.30228 -0.0988,-0.46503 1e-5,-0.43403 0.15502,-0.75567 0.46502,-0.96492 l 4.87112,-3.16215 -4.999,-5.62678 c -0.22474,-0.24801 -0.33713,-0.5309 -0.33714,-0.84866 1e-5,-0.16276 0.033,-0.31777 0.0988,-0.46503 0.0659,-0.14726 0.15308,-0.27707 0.26157,-0.38946 0.10852,-0.11238 0.2364,-0.19956 0.38365,-0.26157 0.14727,-0.062 0.30615,-0.093 0.47665,-0.093 0.32552,0 0.59679,0.10463 0.81379,0.31389 l 5.37101,6.03366 1.41832,-0.93004 v -4.19683 c 0,-0.33326 0.1182,-0.62003 0.35458,-0.86029 0.23639,-0.24026 0.52121,-0.36039 0.85448,-0.36039 0.34101,0 0.62972,0.12013 0.8661,0.36039 0.23639,0.24026 0.35459,0.52703 0.35458,0.86029 z"
         style="font-style:normal;font-variant:normal;font-weight:normal;font-stretch:normal;font-size:40px;line-height:0%;font-family:Comfortaa;-inkscape-font-specification:Comfortaa;letter-spacing:0.24px;word-spacing:0px;fill:#000000;fill-opacity:1;stroke:none"
         id="path25029"
         inkscape:connector-curvature="0" />
      <path
         d="m 180.54847,856.38862 c 0.13176,0.42626 0.32746,0.81572 0.58709,1.16837 0.25964,0.35263 0.56191,0.6549 0.90679,0.9068 0.3449,0.25187 0.72467,0.44757 1.13931,0.58709 0.41465,0.13949 0.84286,0.20925 1.28462,0.20926 0.44178,-10e-6 0.87193,-0.0698 1.29044,-0.20926 0.41852,-0.13952 0.80217,-0.33522 1.15093,-0.58709 0.34877,-0.2519 0.65104,-0.55417 0.90679,-0.9068 0.25577,-0.35265 0.44566,-0.74211 0.56966,-1.16837 z m 0.52315,-4.05732 c -0.34876,0 -0.63746,-0.11432 -0.86611,-0.34296 -0.22863,-0.22864 -0.34294,-0.51733 -0.34295,-0.8661 1e-5,-0.34102 0.11626,-0.63166 0.34876,-0.87192 1.20132,-1.05405 2.61964,-1.58107 4.25496,-1.58107 1.79809,0 3.33267,0.63553 4.60373,1.90659 1.27106,1.27106 1.90659,2.80563 1.90659,4.60372 0,1.79808 -0.63553,3.33266 -1.90659,4.60373 -1.27106,1.27105 -2.80564,1.90658 -4.60373,1.90659 -1.78258,-10e-6 -3.31715,-0.63554 -4.60372,-1.90659 -0.63552,-0.62779 -1.11217,-1.32726 -1.42995,-2.09842 -0.31775,-0.77117 -0.47664,-1.60627 -0.47665,-2.50531 1e-5,-0.34877 0.11821,-0.63747 0.35458,-0.8661 0.2364,-0.22864 0.52511,-0.34296 0.86611,-0.34296 h 9.20745 c -0.13176,-0.42627 -0.32552,-0.81573 -0.58128,-1.16836 -0.25576,-0.35265 -0.55609,-0.65492 -0.90098,-0.9068 -0.34489,-0.25189 -0.72466,-0.44759 -1.13931,-0.58709 -0.41464,-0.13951 -0.84672,-0.20926 -1.29625,-0.20926 -0.51152,0 -0.98041,0.0775 -1.40669,0.23251 -0.42626,0.15501 -0.82153,0.38751 -1.18581,0.69753 -0.2325,0.19376 -0.49989,0.29452 -0.80216,0.30227 z"
         style="font-style:normal;font-variant:normal;font-weight:normal;font-stretch:normal;font-size:40px;line-height:0%;font-family:Comfortaa;-inkscape-font-specification:Comfortaa;letter-spacing:-1.2px;word-spacing:0px;fill:#000000;fill-opacity:1;stroke:none"
         id="path25031"
         inkscape:connector-curvature="0" />
      <path
         d="m 180.70415,852.48527 v -0.23251 c -0.58127,0.46501 -1.21293,0.82153 -1.89497,1.06955 -0.68202,0.248 -1.41056,0.37201 -2.1856,0.37202 -0.34101,-1e-5 -0.70722,-0.0233 -1.09862,-0.0697 -0.39138,-0.0466 -0.75178,-0.12983 -1.08118,-0.24995 -0.32938,-0.12014 -0.60258,-0.28484 -0.8196,-0.49409 -0.217,-0.20927 -0.3255,-0.48053 -0.32552,-0.81379 2e-5,-0.17052 0.033,-0.3294 0.0988,-0.47664 0.0659,-0.14728 0.15308,-0.27709 0.26158,-0.38946 0.10851,-0.11239 0.23639,-0.19958 0.38364,-0.26158 0.14727,-0.062 0.30615,-0.093 0.47665,-0.093 0.14726,-1e-5 0.31777,0.0426 0.51152,0.12788 0.48828,0.19375 1.01919,0.29063 1.59271,0.29064 0.56578,-10e-6 1.09668,-0.10658 1.5927,-0.31971 0.49603,-0.21314 0.92811,-0.50378 1.29625,-0.87191 0.36815,-0.36815 0.65879,-0.80024 0.87192,-1.29625 0.21313,-0.49603 0.3197,-1.02694 0.3197,-1.59271 v -5.30126 c 0,-0.33326 0.1182,-0.61809 0.35458,-0.85447 0.23639,-0.23639 0.52121,-0.35459 0.85448,-0.35459 0.34101,0 0.62972,0.1182 0.8661,0.35459 0.23639,0.23638 0.35459,0.52121 0.35459,0.85447 v 10.60252 c 0,0.33326 -0.1182,0.61809 -0.35459,0.85448 -0.23638,0.23638 -0.52509,0.35457 -0.8661,0.35458 -0.33327,-10e-6 -0.61809,-0.1182 -0.85448,-0.35458 -0.23638,-0.23639 -0.35458,-0.52122 -0.35458,-0.85448 z"
         style="font-style:normal;font-variant:normal;font-weight:bold;font-stretch:normal;font-size:40px;line-height:0%;font-family:Comfortaa;-inkscape-font-specification:Comfortaa;letter-spacing:3.56px;word-spacing:0px;fill:#000000;fill-opacity:1;stroke:none"
         id="path25033"
         inkscape:connector-curvature="0" />
    </g>
  </g>
</svg>
