<?xml version="1.0" encoding="UTF-8" standalone="no"?>
<svg
   xmlns:dc="http://purl.org/dc/elements/1.1/"
   xmlns:cc="http://creativecommons.org/ns#"
   xmlns:rdf="http://www.w3.org/1999/02/22-rdf-syntax-ns#"
   xmlns:svg="http://www.w3.org/2000/svg"
   xmlns="http://www.w3.org/2000/svg"
   xmlns:sodipodi="http://sodipodi.sourceforge.net/DTD/sodipodi-0.dtd"
   xmlns:inkscape="http://www.inkscape.org/namespaces/inkscape"
   inkscape:version="1.0 (4035a4fb49, 2020-05-01)"
   sodipodi:docname="2C.svg"
   id="svg24"
   version="1.1"
   width="2.25in"
   viewBox="-106 -164.5 212 329"
   preserveAspectRatio="none"
   height="3.5in"
   face="2C"
   class="card">
  <metadata
     id="metadata30">
    <rdf:RDF>
      <cc:Work
         rdf:about="">
        <dc:format>image/svg+xml</dc:format>
        <dc:type
           rdf:resource="http://purl.org/dc/dcmitype/StillImage" />
      </cc:Work>
    </rdf:RDF>
  </metadata>
  <defs
     id="defs28" />
  <sodipodi:namedview
     inkscape:current-layer="svg24"
     inkscape:window-maximized="1"
     inkscape:window-y="-12"
     inkscape:window-x="-12"
     inkscape:cy="168"
     inkscape:cx="108"
     inkscape:zoom="2.2410714"
     showgrid="false"
     id="namedview26"
     inkscape:window-height="2050"
     inkscape:window-width="3240"
     inkscape:pageshadow="2"
     inkscape:pageopacity="0"
     guidetolerance="10"
     gridtolerance="10"
     objecttolerance="10"
     borderopacity="1"
     bordercolor="#666666"
     pagecolor="#ffffff" />
  <symbol
     preserveAspectRatio="xMinYMid"
     viewBox="-600 -600 1200 1200"
     id="SC2">
    <path
       id="path2"
       fill="black"
       d="M30 150C35 385 85 400 130 500L-130 500C-85 400 -35 385 -30 150A10 10 0 0 0 -50 150A210 210 0 1 1 -124 -51A10 10 0 0 0 -110 -65A230 230 0 1 1 110 -65A10 10 0 0 0 124 -51A210 210 0 1 1 50 150A10 10 0 0 0 30 150Z" />
  </symbol>
  <symbol
     preserveAspectRatio="xMinYMid"
     viewBox="-500 -500 1000 1000"
     id="VC2">
    <path
       id="path5"
       fill="none"
       stroke-miterlimit="1.5"
       stroke-linecap="square"
       stroke-width="80"
       stroke="black"
       d="M-225 -225C-245 -265 -200 -460 0 -460C 200 -460 225 -325 225 -225C225 -25 -225 160 -225 460L225 460L225 300" />
  </symbol>
  <rect
     id="rect8"
     stroke="black"
     fill="white"
     ry="12"
     rx="12"
     y="-164"
     x="-105.5"
     height="328"
     width="211" />
  <g
     transform="translate(-308.74043,67.940904)"
     id="g879">
    <path
       inkscape:connector-curvature="0"
       id="path7438-3-6-8-4-4"
       d="m 308.74019,-185.30017 c -7.5819,0 -13.71598,6.14077 -13.71598,13.70504 0,2.96901 0.92928,5.71559 2.53833,7.95913 -5.285,0.63 -9.38579,4.92825 -9.38579,10.17236 0,5.6775 4.79438,10.27879 10.70838,10.27879 3.84677,0 7.19906,-1.9496 9.08732,-4.87337 -0.34138,6.7238 -1.8027,13.2743 -7.14621,14.0881 -0.11709,0.0175 -0.24021,0.0519 -0.36241,0.0639 h -0.70409 v 0.34048 h 8.98045 8.98073 v -0.34048 h -0.70409 c -0.123,-0.0109 -0.24319,-0.0455 -0.36268,-0.0639 -5.33784,-0.81296 -6.80274,-7.35034 -7.14593,-14.06684 1.89007,2.91528 5.24714,4.85211 9.08734,4.85211 5.91399,0 10.70835,-4.60129 10.70835,-10.27879 0,-5.25065 -4.09147,-9.57209 -9.38606,-10.19363 1.60301,-2.24098 2.55992,-4.97498 2.55992,-7.93786 0,-7.56427 -6.15539,-13.70504 -13.73758,-13.70504 z"
       style="fill:#000000;fill-opacity:1;stroke:none;stroke-width:2.19008" />
    <path
       inkscape:connector-curvature="0"
       id="path7438-3-6-8-4-0"
       d="m 308.74067,49.418402 c 7.5819,0 13.71598,-6.14077 13.71598,-13.705026 0,-2.96902 -0.92928,-5.715602 -2.53832,-7.959118 5.28499,-0.629995 9.38578,-4.928253 9.38578,-10.172366 0,-5.677492 -4.79438,-10.2788125 -10.70838,-10.2788125 -3.84678,0 -7.19905,1.949628 -9.08732,4.8733715 0.34138,-6.7237715 1.80271,-13.2742785 7.14622,-14.0880745 0.11709,-0.01753 0.24021,-0.0518 0.3624,-0.06384 h 0.70409 v -0.340487 h -8.98045 -8.98073 v 0.340486 h 0.70408 c 0.12301,0.01097 0.24319,0.04553 0.3627,0.06384 5.33782,0.812963 6.80272,7.35034 7.14593,14.0668165 -1.89009,-2.9152825 -5.24715,-4.8521135 -9.08734,-4.8521135 -5.91401,0 -10.70836,4.6013195 -10.70836,10.2788125 0,5.250624 4.09147,9.572069 9.38607,10.193624 -1.60302,2.24099 -2.55992,4.974989 -2.55992,7.93786 0,7.564257 6.15539,13.705027 13.73757,13.705027 z"
       style="fill:#000000;fill-opacity:1;stroke:none;stroke-width:2.19008" />
    <path
       inkscape:connector-curvature="0"
       id="path26246"
       style="font-style:normal;font-variant:normal;font-weight:bold;font-stretch:normal;font-size:22.4px;line-height:125%;font-family:Comfortaa;-inkscape-font-specification:'Comfortaa Bold';letter-spacing:0px;word-spacing:0px;fill:#000000;fill-opacity:1;stroke:none;stroke-width:2.19008"
       d="m 213.70981,-199.35338 c 0,-1.59501 0.30776,-3.09436 0.92331,-4.49804 0.61555,-1.4036 1.45093,-2.6318 2.50615,-3.68457 1.05523,-1.05269 2.28632,-1.88213 3.69329,-2.48828 1.40695,-0.60607 2.90185,-0.90913 4.48469,-0.90917 1.58282,4e-5 3.07772,0.31106 4.48469,0.9331 1.40695,0.6221 2.63804,1.45952 3.69329,2.51221 1.0552,1.05275 1.89058,2.28095 2.50615,3.68455 0.61551,1.40368 0.92329,2.88709 0.92331,4.4502 -2e-5,1.59508 -0.29182,3.07847 -0.87536,4.45018 -0.5836,1.37178 -1.42696,2.61592 -2.53014,3.73242 l -11.65539,13.49413 h 12.54274 c 0.70346,2e-5 1.29903,0.24725 1.7867,0.74171 0.48761,0.49446 0.73143,1.08463 0.73145,1.7705 -2e-5,0.68586 -0.24384,1.27205 -0.73145,1.75855 -0.48767,0.48648 -1.08324,0.72973 -1.7867,0.72973 h -18.20257 c -0.35175,0 -0.67951,-0.0639 -0.98328,-0.19141 -0.30377,-0.12753 -0.56757,-0.30704 -0.79142,-0.53832 -0.22383,-0.23129 -0.3997,-0.49847 -0.5276,-0.80152 -0.12784,-0.30306 -0.19186,-0.62206 -0.19186,-0.95703 0,-0.71776 0.23183,-1.30793 0.69549,-1.7705 L 229.94584,-194.64 c 1.311,-1.30792 1.96652,-2.87905 1.96654,-4.71338 -2e-5,-0.89319 -0.17585,-1.73857 -0.5276,-2.53614 -0.35177,-0.79749 -0.82742,-1.49533 -1.42694,-2.0935 -0.59959,-0.5981 -1.29907,-1.07264 -2.09847,-1.42358 -0.79943,-0.35087 -1.64679,-0.52633 -2.54212,-0.52635 -0.91134,2e-5 -1.76672,0.1715 -2.5661,0.51439 -0.79943,0.34298 -1.49891,0.80953 -2.09845,1.39967 -0.59959,0.59019 -1.07123,1.28404 -1.41498,2.08153 -0.34374,0.79757 -0.51562,1.65889 -0.5156,2.58398 -2e-5,0.6859 -0.24383,1.27208 -0.73148,1.75856 -0.48765,0.4865 -1.0832,0.72975 -1.78667,0.72972 -0.68749,3e-5 -1.27506,-0.24322 -1.76271,-0.72972 -0.48763,-0.48648 -0.73145,-1.07266 -0.73145,-1.75856 z" />
    <path
       style="fill:none;stroke:#000000;stroke-width:2.49172;stroke-opacity:1"
       d="m 225.31719,-161.16466 c -6.29954,0 -11.39616,5.10217 -11.39616,11.38707 0,2.46686 0.7721,4.7489 2.10899,6.61298 -4.3911,0.52342 -7.79831,4.09471 -7.79831,8.45188 0,4.71725 3.98347,8.54031 8.89721,8.54031 3.19617,0 5.98148,-1.61988 7.55037,-4.04914 -0.28364,5.58658 -1.49779,11.02918 -5.93755,11.70535 -0.0974,0.0153 -0.19953,0.0431 -0.30112,0.053 h -0.585 v 0.28289 h 7.46157 7.46178 v -0.28289 h -0.58498 c -0.10218,-0.011 -0.20217,-0.0379 -0.30136,-0.053 -4.43503,-0.67548 -5.65218,-6.10717 -5.93731,-11.68768 1.57039,2.42222 4.35968,4.03147 7.55034,4.03147 4.91375,0 8.89724,-3.82306 8.89724,-8.54031 0,-4.3626 -3.39947,-7.95313 -7.79858,-8.46956 1.33192,-1.86195 2.12696,-4.13354 2.12696,-6.5953 0,-6.2849 -5.11432,-11.38707 -11.41409,-11.38707 z"
       id="path7438-9-3"
       inkscape:connector-curvature="0" />
    <path
       inkscape:connector-curvature="0"
       id="path26234"
       style="font-style:normal;font-variant:normal;font-weight:bold;font-stretch:normal;font-size:22.4px;line-height:125%;font-family:Comfortaa;-inkscape-font-specification:'Comfortaa Bold';letter-spacing:0px;word-spacing:0px;fill:#000000;fill-opacity:1;stroke:none;stroke-width:2.19008"
       d="m 403.77109,63.471562 c 0,1.59502 -0.30776,3.09437 -0.92331,4.49804 -0.61554,1.40362 -1.45093,2.63181 -2.50615,3.68459 -1.05522,1.05268 -2.28632,1.88211 -3.69329,2.48827 -1.40695,0.60607 -2.90185,0.90912 -4.48469,0.90917 -1.58282,-5e-5 -3.07771,-0.31106 -4.48468,-0.9331 -1.40695,-0.6221 -2.63805,-1.45952 -3.69329,-2.51222 -1.0552,-1.05275 -1.89059,-2.28094 -2.50615,-3.68455 -0.61551,-1.40367 -0.92329,-2.88707 -0.92332,-4.4502 3e-5,-1.59508 0.29182,-3.07847 0.87536,-4.45018 0.5836,-1.37177 1.42697,-2.61591 2.53014,-3.73242 l 11.6554,-13.494119 h -12.54274 c -0.70346,-2e-5 -1.29903,-0.24725 -1.7867,-0.741719 -0.48761,-0.49446 -0.73143,-1.084623 -0.73146,-1.77049 3e-5,-0.685867 0.24385,-1.272055 0.73146,-1.758554 0.48767,-0.486479 1.08324,-0.729724 1.7867,-0.729724 h 18.20256 c 0.35175,0 0.67951,0.06384 0.98329,0.191407 0.30377,0.127527 0.56757,0.307038 0.79142,0.538317 0.22382,0.231289 0.39969,0.498464 0.52759,0.801526 0.12784,0.303052 0.19186,0.622055 0.19186,0.957028 0,0.717758 -0.23182,1.307922 -0.69549,1.77049 l -15.54054,17.705058 c -1.31099,1.30793 -1.96651,2.87905 -1.96653,4.71338 2e-5,0.8932 0.17585,1.73858 0.52759,2.53614 0.35177,0.7975 0.82743,1.49533 1.42695,2.0935 0.59958,0.59811 1.29907,1.07264 2.09847,1.42358 0.7994,0.35088 1.64678,0.52633 2.54211,0.52636 0.91134,-3e-5 1.76673,-0.1715 2.5661,-0.51439 0.79943,-0.34298 1.49891,-0.80953 2.09846,-1.39967 0.59959,-0.59019 1.07123,-1.28404 1.41497,-2.08153 0.34375,-0.79757 0.51562,-1.6589 0.5156,-2.58399 2e-5,-0.68588 0.24383,-1.27207 0.73148,-1.75855 0.48765,-0.4865 1.0832,-0.72974 1.78667,-0.72972 0.68749,-2e-5 1.27506,0.24322 1.76271,0.72972 0.48763,0.48648 0.73145,1.07267 0.73145,1.75855 z" />
    <path
       style="fill:none;stroke:#000000;stroke-width:2.49172;stroke-opacity:1"
       d="m 392.16368,25.282842 c 6.29953,0 11.39615,-5.102164 11.39615,-11.387062 0,-2.466864 -0.7721,-4.7489005 -2.109,-6.6129795 4.39111,-0.523423 7.79832,-4.094708 7.79832,-8.451873 0,-4.717252 -3.98347,-8.540321 -8.89722,-8.540321 -3.19616,0 -5.98147,1.619885 -7.55037,4.049148 0.28365,-5.5865855 1.49779,-11.0291855 5.93755,-11.7053495 0.0974,-0.01528 0.19954,-0.04308 0.30112,-0.05297 h 0.58501 v -0.282891 h -7.46156 -7.46179 v 0.282891 h 0.58498 c 0.10218,0.01097 0.20217,0.0378 0.30136,0.05297 4.43502,0.675478 5.65218,6.107171 5.93731,11.6876755 -1.57039,-2.422223 -4.35968,-4.031474 -7.55034,-4.031474 -4.91375,0 -8.89724,3.823069 -8.89724,8.540321 0,4.362589 3.39947,7.953125 7.79858,8.469547 -1.33191,1.861954 -2.12696,4.1335435 -2.12696,6.5953055 0,6.284898 5.11431,11.387062 11.4141,11.387062 z"
       id="path7438-9-4"
       inkscape:connector-curvature="0" />
  </g>
</svg>
