<?xml version="1.0" encoding="UTF-8" standalone="no"?>
<svg
   xmlns:dc="http://purl.org/dc/elements/1.1/"
   xmlns:cc="http://creativecommons.org/ns#"
   xmlns:rdf="http://www.w3.org/1999/02/22-rdf-syntax-ns#"
   xmlns:svg="http://www.w3.org/2000/svg"
   xmlns="http://www.w3.org/2000/svg"
   xmlns:sodipodi="http://sodipodi.sourceforge.net/DTD/sodipodi-0.dtd"
   xmlns:inkscape="http://www.inkscape.org/namespaces/inkscape"
   inkscape:version="1.0 (4035a4fb49, 2020-05-01)"
   sodipodi:docname="2D.svg"
   id="svg24"
   version="1.1"
   width="2.25in"
   viewBox="-106 -164.5 212 329"
   preserveAspectRatio="none"
   height="3.5in"
   face="2D"
   class="card">
  <metadata
     id="metadata30">
    <rdf:RDF>
      <cc:Work
         rdf:about="">
        <dc:format>image/svg+xml</dc:format>
        <dc:type
           rdf:resource="http://purl.org/dc/dcmitype/StillImage" />
      </cc:Work>
    </rdf:RDF>
  </metadata>
  <defs
     id="defs28" />
  <sodipodi:namedview
     inkscape:current-layer="svg24"
     inkscape:window-maximized="1"
     inkscape:window-y="-12"
     inkscape:window-x="-12"
     inkscape:cy="221.54582"
     inkscape:cx="108"
     inkscape:zoom="2.2410714"
     showgrid="false"
     id="namedview26"
     inkscape:window-height="2050"
     inkscape:window-width="3240"
     inkscape:pageshadow="2"
     inkscape:pageopacity="0"
     guidetolerance="10"
     gridtolerance="10"
     objecttolerance="10"
     borderopacity="1"
     bordercolor="#666666"
     pagecolor="#ffffff" />
  <symbol
     preserveAspectRatio="xMinYMid"
     viewBox="-600 -600 1200 1200"
     id="SD2">
    <path
       id="path2"
       fill="red"
       d="M-400 0C-350 0 0 -450 0 -500C0 -450 350 0 400 0C350 0 0 450 0 500C0 450 -350 0 -400 0Z" />
  </symbol>
  <symbol
     preserveAspectRatio="xMinYMid"
     viewBox="-500 -500 1000 1000"
     id="VD2">
    <path
       id="path5"
       fill="none"
       stroke-miterlimit="1.5"
       stroke-linecap="square"
       stroke-width="80"
       stroke="red"
       d="M-225 -225C-245 -265 -200 -460 0 -460C 200 -460 225 -325 225 -225C225 -25 -225 160 -225 460L225 460L225 300" />
  </symbol>
  <rect
     id="rect8"
     stroke="black"
     fill="white"
     ry="12"
     rx="12"
     y="-164"
     x="-105.5"
     height="328"
     width="211" />
  <g
     transform="translate(-310.0543,90.660653)"
     id="g879">
    <path
       sodipodi:nodetypes="ccccc"
       inkscape:connector-curvature="0"
       id="path7442-14-8"
       d="m 290.80695,-183.59495 19.24748,-24.07735 19.24723,24.07733 -19.24748,28.18439 z"
       style="fill:#ff0000;fill-opacity:1;stroke:none;stroke-width:2.19008" />
    <path
       sodipodi:nodetypes="ccccc"
       inkscape:connector-curvature="0"
       id="path7442-14-0"
       d="M 329.30166,2.0549055 310.05418,26.132255 290.80695,2.0549255 310.05443,-26.129476 Z"
       style="fill:#ff0000;fill-opacity:1;stroke:none;stroke-width:2.19008" />
    <path
       d="m 215.02366,-222.07301 c 0,-1.59502 0.30777,-3.09437 0.92331,-4.49804 0.61555,-1.40361 1.45094,-2.6318 2.50616,-3.68456 1.05522,-1.05271 2.28629,-1.88212 3.69326,-2.48828 1.40695,-0.60609 2.90185,-0.90914 4.48471,-0.90919 1.5828,5e-5 3.0777,0.31109 4.48469,0.9331 1.40695,0.62213 2.63802,1.45952 3.69327,2.51221 1.0552,1.05278 1.89058,2.28095 2.50615,3.68458 0.61553,1.40367 0.92329,2.88706 0.92333,4.45018 -4e-5,1.59508 -0.29182,3.07846 -0.87535,4.4502 -0.5836,1.37176 -1.42699,2.6159 -2.53014,3.73242 l -11.6554,13.49412 h 12.54275 c 0.70345,0 1.29902,0.24723 1.78667,0.7417 0.48763,0.49446 0.73143,1.08462 0.73147,1.77049 -4e-5,0.68589 -0.24384,1.27205 -0.73147,1.75855 -0.48765,0.4865 -1.08322,0.72973 -1.78667,0.72973 h -18.20258 c -0.35174,0 -0.6795,-0.0639 -0.98328,-0.19141 -0.30379,-0.12753 -0.56759,-0.30703 -0.79142,-0.53832 -0.22383,-0.23128 -0.3997,-0.49844 -0.5276,-0.80152 -0.12783,-0.30306 -0.19186,-0.62206 -0.19186,-0.95703 0,-0.71776 0.23181,-1.30793 0.69547,-1.77049 l 15.54054,-17.70506 c 1.31102,-1.30793 1.96654,-2.87906 1.96657,-4.71338 -3e-5,-0.8932 -0.17586,-1.73858 -0.52763,-2.53612 -0.35174,-0.7975 -0.8274,-1.49533 -1.42694,-2.09352 -0.59957,-0.59811 -1.29905,-1.07264 -2.09845,-1.42358 -0.79943,-0.35088 -1.64681,-0.52634 -2.54212,-0.52636 -0.91133,2e-5 -1.76672,0.1715 -2.56612,0.51439 -0.7994,0.34298 -1.49889,0.80953 -2.09845,1.39967 -0.59956,0.59019 -1.07121,1.28404 -1.41495,2.08154 -0.34377,0.79756 -0.51563,1.65889 -0.51563,2.58398 0,0.68589 -0.24382,1.27207 -0.73145,1.75855 -0.48765,0.4865 -1.0832,0.72975 -1.78668,0.72973 -0.68751,2e-5 -1.27508,-0.24323 -1.7627,-0.72973 -0.48765,-0.48648 -0.73146,-1.07266 -0.73146,-1.75855 z"
       style="font-style:normal;font-variant:normal;font-weight:bold;font-stretch:normal;font-size:22.4px;line-height:125%;font-family:Comfortaa;-inkscape-font-specification:'Comfortaa Bold';letter-spacing:0px;word-spacing:0px;fill:#ff0000;fill-opacity:1;stroke:none;stroke-width:2.19008"
       id="path26240"
       inkscape:connector-curvature="0" />
    <path
       style="fill:none;stroke:#ff0000;stroke-width:2.19008;stroke-opacity:1"
       d="m 210.12465,-166.32914 16.50663,-20.64873 16.50641,20.6487 -16.50663,24.17094 z"
       id="path11630-3"
       inkscape:connector-curvature="0"
       sodipodi:nodetypes="ccccc" />
    <path
       d="m 405.08495,40.751715 c 3e-5,1.59501 -0.30777,3.09437 -0.92331,4.49804 -0.61555,1.40361 -1.45094,2.6318 -2.50616,3.68456 -1.05522,1.05271 -2.28629,1.88211 -3.69326,2.48828 -1.40698,0.60608 -2.90187,0.90914 -4.48472,0.90918 -1.58279,-4e-5 -3.07769,-0.31108 -4.48468,-0.9331 -1.40694,-0.62212 -2.63802,-1.45952 -3.69326,-2.5122 -1.0552,-1.05279 -1.89059,-2.28095 -2.50616,-3.68458 -0.61552,-1.40367 -0.92329,-2.88706 -0.92334,-4.45018 5e-5,-1.59509 0.29183,-3.07847 0.87537,-4.4502 0.5836,-1.37176 1.42696,-2.6159 2.53014,-3.73243 l 11.6554,-13.494117 h -12.54275 c -0.70346,0 -1.29901,-0.24723 -1.78668,-0.74169 -0.48763,-0.494469 -0.73143,-1.084633 -0.73148,-1.7705 5e-5,-0.685887 0.24385,-1.272046 0.73148,-1.758555 0.48767,-0.486499 1.08322,-0.729724 1.78668,-0.729724 h 18.20257 c 0.35175,0 0.67951,0.06384 0.98328,0.191408 0.30379,0.127527 0.56759,0.307037 0.79142,0.538316 0.22383,0.231289 0.3997,0.498445 0.5276,0.801527 0.12783,0.303052 0.19186,0.622054 0.19186,0.957028 3e-5,0.717759 -0.23181,1.307932 -0.69547,1.7705 l -15.54054,17.705057 c -1.31102,1.30792 -1.96654,2.87905 -1.96656,4.71338 2e-5,0.89319 0.17585,1.73857 0.52762,2.53612 0.35175,0.79749 0.8274,1.49533 1.42694,2.09352 0.59957,0.59811 1.29905,1.07264 2.09846,1.42357 0.79942,0.35088 1.6468,0.52634 2.5421,0.52636 0.91135,-2e-5 1.76673,-0.1715 2.56614,-0.51439 0.79941,-0.34297 1.49891,-0.80953 2.09844,-1.39967 0.59957,-0.59018 1.07121,-1.28403 1.41496,-2.08153 0.34374,-0.79756 0.51562,-1.65889 0.51562,-2.58398 0,-0.68589 0.24383,-1.27208 0.73146,-1.75856 0.48765,-0.4865 1.0832,-0.72974 1.78667,-0.72972 0.68751,-2e-5 1.27508,0.24322 1.76271,0.72972 0.48765,0.48648 0.73148,1.07267 0.73145,1.75856 z"
       style="font-style:normal;font-variant:normal;font-weight:bold;font-stretch:normal;font-size:22.4px;line-height:125%;font-family:Comfortaa;-inkscape-font-specification:'Comfortaa Bold';letter-spacing:0px;word-spacing:0px;fill:#ff0000;fill-opacity:1;stroke:none;stroke-width:2.19008"
       id="path26228"
       inkscape:connector-curvature="0" />
    <path
       style="fill:none;stroke:#ff0000;stroke-width:2.19008;stroke-opacity:1"
       d="M 409.98396,-14.99216 393.47734,5.6565744 376.97092,-14.992131 393.47755,-39.163065 Z"
       id="path11630-6"
       inkscape:connector-curvature="0"
       sodipodi:nodetypes="ccccc" />
  </g>
</svg>
