<?xml version="1.0" encoding="UTF-8" standalone="no"?>
<svg
   xmlns:dc="http://purl.org/dc/elements/1.1/"
   xmlns:cc="http://creativecommons.org/ns#"
   xmlns:rdf="http://www.w3.org/1999/02/22-rdf-syntax-ns#"
   xmlns:svg="http://www.w3.org/2000/svg"
   xmlns="http://www.w3.org/2000/svg"
   xmlns:sodipodi="http://sodipodi.sourceforge.net/DTD/sodipodi-0.dtd"
   xmlns:inkscape="http://www.inkscape.org/namespaces/inkscape"
   inkscape:version="1.0 (4035a4fb49, 2020-05-01)"
   sodipodi:docname="2H.svg"
   id="svg24"
   version="1.1"
   width="2.25in"
   viewBox="-106 -164.5 212 329"
   preserveAspectRatio="none"
   height="3.5in"
   face="2H"
   class="card">
  <metadata
     id="metadata30">
    <rdf:RDF>
      <cc:Work
         rdf:about="">
        <dc:format>image/svg+xml</dc:format>
        <dc:type
           rdf:resource="http://purl.org/dc/dcmitype/StillImage" />
      </cc:Work>
    </rdf:RDF>
  </metadata>
  <defs
     id="defs28" />
  <sodipodi:namedview
     inkscape:current-layer="svg24"
     inkscape:window-maximized="1"
     inkscape:window-y="-12"
     inkscape:window-x="-12"
     inkscape:cy="168"
     inkscape:cx="108"
     inkscape:zoom="2.2410714"
     showgrid="false"
     id="namedview26"
     inkscape:window-height="2050"
     inkscape:window-width="3240"
     inkscape:pageshadow="2"
     inkscape:pageopacity="0"
     guidetolerance="10"
     gridtolerance="10"
     objecttolerance="10"
     borderopacity="1"
     bordercolor="#666666"
     pagecolor="#ffffff" />
  <symbol
     preserveAspectRatio="xMinYMid"
     viewBox="-600 -600 1200 1200"
     id="SH2">
    <path
       id="path2"
       fill="red"
       d="M0 -300C0 -400 100 -500 200 -500C300 -500 400 -400 400 -250C400 0 0 400 0 500C0 400 -400 0 -400 -250C-400 -400 -300 -500 -200 -500C-100 -500 0 -400 -0 -300Z" />
  </symbol>
  <symbol
     preserveAspectRatio="xMinYMid"
     viewBox="-500 -500 1000 1000"
     id="VH2">
    <path
       id="path5"
       fill="none"
       stroke-miterlimit="1.5"
       stroke-linecap="square"
       stroke-width="80"
       stroke="red"
       d="M-225 -225C-245 -265 -200 -460 0 -460C 200 -460 225 -325 225 -225C225 -25 -225 160 -225 460L225 460L225 300" />
  </symbol>
  <rect
     id="rect8"
     stroke="black"
     fill="white"
     ry="12"
     rx="12"
     y="-164"
     x="-105.5"
     height="328"
     width="211" />
  <g
     transform="translate(-264.06935,135.6633)"
     id="g888">
    <path
       sodipodi:nodetypes="csscccssccccc"
       inkscape:connector-curvature="0"
       id="path7440-26-5"
       d="m 251.45087,-253.32188 c -1.82314,0.061 -3.67483,0.52961 -5.44436,1.62194 -8.08941,4.99344 -12.99612,14.51899 -4.08329,24.78144 5.00757,5.76585 18.51391,8.40482 21.05911,16.50206 1.05529,3.58724 0.61939,10.24167 1.07757,10.22185 0.45816,0.0219 0.041,-6.63461 1.09642,-10.22185 2.54525,-8.09724 16.05161,-10.73621 21.05918,-16.50206 8.91276,-10.26245 4.0061,-19.788 -4.08327,-24.78144 -8.08948,-4.9934 -18.03453,3.09295 -18.03453,3.09295 l -0.0568,0.0752 v -0.0752 c 0,0 -6.07891,-4.93237 -12.59006,-4.71489 z"
       style="fill:#ff0000;fill-opacity:1;stroke:none;stroke-width:2.19008" />
    <path
       sodipodi:nodetypes="csscccssccccc"
       inkscape:connector-curvature="0"
       id="path7440-26-8"
       d="m 276.68783,-17.786064 c 1.82314,-0.06103 3.67482,-0.529615 5.44435,-1.621942 8.08942,-4.993444 12.99613,-14.51899 4.0833,-24.781437 -5.00757,-5.76585 -18.51391,-8.404825 -21.05912,-16.502066 -1.05528,-3.587233 -0.61938,-10.241666 -1.07756,-10.221847 -0.45816,-0.02188 -0.041,6.634614 -1.09642,10.221847 -2.54525,8.097241 -16.05161,10.736216 -21.05918,16.502066 -8.91277,10.262447 -4.0061,19.787993 4.08327,24.781437 8.08948,4.993401 18.03453,-3.092946 18.03453,-3.092946 l 0.0568,-0.07525 v 0.07525 c 0,0 6.07891,4.932369 12.59006,4.714888 z"
       style="fill:#ff0000;fill-opacity:1;stroke:none;stroke-width:2.19008" />
    <path
       inkscape:connector-curvature="0"
       id="path26243"
       style="font-style:normal;font-variant:normal;font-weight:bold;font-stretch:normal;font-size:22.4px;line-height:125%;font-family:Comfortaa;-inkscape-font-specification:'Comfortaa Bold';letter-spacing:0px;word-spacing:0px;fill:#ff0000;fill-opacity:1;stroke:none;stroke-width:2.19008"
       d="m 169.03871,-267.07575 c 0,-1.59504 0.30776,-3.09437 0.92331,-4.49804 0.61554,-1.40363 1.45093,-2.6318 2.50615,-3.68458 1.05522,-1.05269 2.2863,-1.88212 3.69327,-2.48828 1.40697,-0.60609 2.90186,-0.90914 4.48471,-0.90917 1.58282,3e-5 3.07771,0.31107 4.48468,0.9331 1.40695,0.62211 2.63805,1.4595 3.69327,2.51221 1.0552,1.05276 1.89058,2.28095 2.50615,3.68456 0.61553,1.40367 0.92332,2.88706 0.92334,4.4502 -2e-5,1.59506 -0.29182,3.07846 -0.87536,4.45018 -0.5836,1.37176 -1.42697,2.6159 -2.53014,3.73242 l -11.6554,13.49412 h 12.54275 c 0.70345,0 1.29902,0.24723 1.78667,0.74169 0.48763,0.49449 0.73146,1.08465 0.73148,1.77052 -2e-5,0.68587 -0.24385,1.27205 -0.73148,1.75853 -0.48765,0.4865 -1.08322,0.72975 -1.78667,0.72975 h -18.20257 c -0.35175,0 -0.67951,-0.0639 -0.98328,-0.19141 -0.30378,-0.12753 -0.5676,-0.30706 -0.79143,-0.53834 -0.22382,-0.23128 -0.3997,-0.49844 -0.5276,-0.8015 -0.12783,-0.30306 -0.19185,-0.62208 -0.19185,-0.95703 0,-0.71778 0.23183,-1.30795 0.69547,-1.77052 l 15.54054,-17.70505 c 1.31102,-1.30791 1.96654,-2.87904 1.96656,-4.71336 -2e-5,-0.89322 -0.17585,-1.73858 -0.52762,-2.53614 -0.35175,-0.7975 -0.82741,-1.49533 -1.42695,-2.0935 -0.59956,-0.59811 -1.29905,-1.07264 -2.09845,-1.42358 -0.79942,-0.35088 -1.6468,-0.52634 -2.54211,-0.52638 -0.91134,4e-5 -1.76672,0.1715 -2.56613,0.51441 -0.7994,0.34296 -1.49888,0.80953 -2.09845,1.39965 -0.59956,0.59021 -1.0712,1.28406 -1.41495,2.08156 -0.34374,0.79754 -0.51563,1.65886 -0.51563,2.58398 0,0.68589 -0.24382,1.27207 -0.73145,1.75853 -0.48765,0.48652 -1.0832,0.72977 -1.78667,0.72975 -0.68751,2e-5 -1.27506,-0.24323 -1.76271,-0.72975 -0.48765,-0.48646 -0.73145,-1.07264 -0.73145,-1.75853 z" />
    <path
       sodipodi:nodetypes="csscccssccccc"
       inkscape:connector-curvature="0"
       id="path7440-6-0"
       d="m 171.40446,-224.50692 c -1.33527,0.0446 -2.69145,0.38789 -3.98745,1.1879 -5.92468,3.65721 -9.51836,10.63371 -2.99061,18.14993 3.66755,4.22292 13.5596,6.1557 15.4237,12.08612 0.77289,2.62729 0.45364,7.50099 0.78921,7.48649 0.33556,0.0153 0.03,-4.8592 0.80302,-7.48649 1.86414,-5.93042 11.75621,-7.8632 15.42376,-12.08612 6.5277,-7.51622 2.93405,-14.49272 -2.99061,-18.14993 -5.92472,-3.65717 -13.20848,2.26529 -13.20848,2.26529 l -0.0417,0.0551 v -0.0551 c 0,0 -4.45219,-3.61248 -9.22096,-3.45319 z"
       style="fill:#ff0000;fill-opacity:1;stroke:none;stroke-width:2.19008" />
    <path
       inkscape:connector-curvature="0"
       id="path26231"
       style="font-style:normal;font-variant:normal;font-weight:bold;font-stretch:normal;font-size:22.4px;line-height:125%;font-family:Comfortaa;-inkscape-font-specification:'Comfortaa Bold';letter-spacing:0px;word-spacing:0px;fill:#ff0000;fill-opacity:1;stroke:none;stroke-width:2.19008"
       d="m 359.09999,-4.2508358 c 0,1.5950357 -0.30776,3.0943683 -0.92331,4.49804173 -0.61555,1.40362967 -1.45093,2.63180007 -2.50615,3.68457707 -1.05523,1.0526894 -2.2863,1.8821228 -3.69329,2.4882784 -1.40695,0.6060899 -2.90185,0.9091458 -4.48469,0.9091677 -1.58282,-2.19e-5 -3.07772,-0.3110622 -4.48469,-0.9330989 -1.40695,-0.6221025 -2.63804,-1.4594984 -3.69326,-2.5122097 -1.0552,-1.052755 -1.89059,-2.2809474 -2.50616,-3.68455514 -0.61552,-1.40367336 -0.92331,-2.88705916 -0.92333,-4.45020116 2e-5,-1.5950576 0.29182,-3.0784652 0.87536,-4.4501793 0.5836,-1.3717579 1.42696,-2.6158969 2.53014,-3.7324179 L 350.946,-25.927558 h -12.54274 c -0.70345,0 -1.29903,-0.247231 -1.78668,-0.741693 -0.48762,-0.494484 -0.73145,-1.084649 -0.73147,-1.770517 2e-5,-0.685868 0.24385,-1.272051 0.73147,-1.758529 0.48765,-0.486499 1.08323,-0.729749 1.78668,-0.729749 h 18.20257 c 0.35175,0 0.67951,0.06387 0.98328,0.191406 0.30377,0.127531 0.5676,0.307059 0.79142,0.538343 0.22383,0.231284 0.3997,0.498443 0.5276,0.801499 0.12784,0.303056 0.19186,0.622081 0.19186,0.95703 0,0.717784 -0.23183,1.307949 -0.69547,1.770517 l -15.54056,17.7050581 c -1.311,1.3079047 -1.96652,2.8790311 -1.96654,4.7133571 2e-5,0.8932208 0.17585,1.7385793 0.5276,2.5361408 0.35177,0.79749601 0.82742,1.49532959 1.42697,2.09350078 0.59956,0.59810556 1.29904,1.07263942 2.09845,1.42357962 0.79942,0.3508746 1.64678,0.5263338 2.54211,0.5263775 0.91134,-4.37e-5 1.76672,-0.1714998 2.5661,-0.5144119 0.79943,-0.3429558 1.49891,-0.8095272 2.09847,-1.39964839 0.59957,-0.5902087 1.07121,-1.28406103 1.41496,-2.08155701 0.34374,-0.7975397 0.51562,-1.6588668 0.51562,-2.5839814 0,-0.6858898 0.24383,-1.2720736 0.73146,-1.7585292 0.48765,-0.4865214 1.0832,-0.7297711 1.78667,-0.7297492 0.68751,-2.19e-5 1.27506,0.2432278 1.76271,0.7297492 0.48765,0.4864556 0.73145,1.0726394 0.73145,1.7585292 z" />
    <path
       sodipodi:nodetypes="csscccssccccc"
       inkscape:connector-curvature="0"
       id="path7440-6-3"
       d="m 356.73423,-46.819668 c 1.33527,-0.04463 2.69146,-0.387887 3.98746,-1.187899 5.92468,-3.657211 9.51835,-10.63371 2.9906,-18.149929 -3.66754,-4.22292 -13.55959,-6.155706 -15.42369,-12.086121 -0.77289,-2.627294 -0.45364,-7.500994 -0.78921,-7.486491 -0.33556,-0.01531 -0.03,4.859197 -0.80302,7.486491 -1.86414,5.930415 -11.75621,7.863201 -15.42376,12.086121 -6.52771,7.516219 -2.93405,14.492718 2.9906,18.149929 5.92473,3.657168 13.20849,-2.265285 13.20849,-2.265285 l 0.0417,-0.05512 v 0.05512 c 0,0 4.45219,3.612477 9.22096,3.453184 z"
       style="fill:#ff0000;fill-opacity:1;stroke:none;stroke-width:2.19008" />
  </g>
</svg>
