<?xml version="1.0" encoding="UTF-8" standalone="no"?>
<svg
   xmlns:dc="http://purl.org/dc/elements/1.1/"
   xmlns:cc="http://creativecommons.org/ns#"
   xmlns:rdf="http://www.w3.org/1999/02/22-rdf-syntax-ns#"
   xmlns:svg="http://www.w3.org/2000/svg"
   xmlns="http://www.w3.org/2000/svg"
   xmlns:sodipodi="http://sodipodi.sourceforge.net/DTD/sodipodi-0.dtd"
   xmlns:inkscape="http://www.inkscape.org/namespaces/inkscape"
   inkscape:version="1.0 (4035a4fb49, 2020-05-01)"
   sodipodi:docname="2J.svg"
   id="svg14"
   version="1.1"
   width="2.25in"
   viewBox="-106 -164.5 212 329"
   preserveAspectRatio="none"
   height="3.5in"
   face="2J"
   class="card">
  <metadata
     id="metadata20">
    <rdf:RDF>
      <cc:Work
         rdf:about="">
        <dc:format>image/svg+xml</dc:format>
        <dc:type
           rdf:resource="http://purl.org/dc/dcmitype/StillImage" />
      </cc:Work>
    </rdf:RDF>
  </metadata>
  <defs
     id="defs18" />
  <sodipodi:namedview
     inkscape:current-layer="svg14"
     inkscape:window-maximized="1"
     inkscape:window-y="-12"
     inkscape:window-x="-12"
     inkscape:cy="168"
     inkscape:cx="108"
     inkscape:zoom="2.2410714"
     showgrid="false"
     id="namedview16"
     inkscape:window-height="2050"
     inkscape:window-width="3240"
     inkscape:pageshadow="2"
     inkscape:pageopacity="0"
     guidetolerance="10"
     gridtolerance="10"
     objecttolerance="10"
     borderopacity="1"
     bordercolor="#666666"
     pagecolor="#ffffff" />
  <symbol
     viewBox="0 0 1300 2000"
     preserveAspectRatio="none"
     id="J21">
    <path
       id="path2"
       d="M879.65521,937.6026a40,40 0 0 1 -40,40 40,40 0 0 1 -40,-40 40,40 0 0 1 40,-40 40,40 0 0 1 40,40zm-379.31039,0a40,40 0 0 1 -40,40 40,40 0 0 1 -40,-40 40,40 0 0 1 40,-40 40,40 0 0 1 40,40z"
       fill="black" />
  </symbol>
  <symbol
     viewBox="0 0 1300 2000"
     preserveAspectRatio="none"
     id="J22">
    <path
       id="path5"
       d="M317.05664,1294.416 100,1620l220,-60 40,240 140,-200 160,200 40,-200 180,180 60,-220 260,60 -236.67969,-304.3027M1241.1987,534.58948a75,75 0 0 1 -75,75 75,75 0 0 1 -75,-75 75,75 0 0 1 75,-75 75,75 0 0 1 75,75zM980.11493,234.09686a75,75 0 0 1 -75,75 75,75 0 0 1 -75,-75 75,75 0 0 1 75,-75 75,75 0 0 1 75,75zM190.29556,431.1412a75,75 0 0 1 -75,75 75,75 0 0 1 -74.999997,-75 75,75 0 0 1 74.999997,-75 75,75 0 0 1 75,75zM924.3457,650.27148c42.40088,-50.45397 91.5936,-93.35356 167.5059,-106.53906 -0.4037,-3.03138 -0.6215,-6.0846 -0.6524,-9.14258 0.03,-15.96068 5.1503,-31.4957 14.6172,-44.3457C1026.3517,437.47479 931.12146,446.83238 840,440 761.98041,388.07638 804.10248,338.17898 853.51758,288.4043 842.40414,277.84182 834.79487,264.12701 831.71484,249.10742 687.94378,262.65874 542.4812,256.33752 420,520 369.08062,331.38331 278.61481,370.61289 187.77148,412.01367c1.66108,6.24042 2.50924,12.66925 2.52344,19.12695 -0.0209,17.1896 -5.94587,33.85038 -16.7832,47.19336 66.82714,55.25532 117.5686,127.8306 155.76953,213.91016M384.88867,1140c51.89013,98.343 153.91815,159.9189 265.11133,160 111.19809,-0.076 213.23257,-61.6527 265.125,-160M1095,1000A445,445 0 0 1 650,1445 445,445 0 0 1 205,1000 445,445 0 0 1 650,555 445,445 0 0 1 1095,1000Z"
       fill="none"
       stroke-width="6"
       stroke-linejoin="round"
       stroke-linecap="round"
       stroke="black" />
  </symbol>
  <rect
     id="rect8"
     stroke="black"
     fill="white"
     ry="12"
     rx="12"
     y="-164"
     x="-105.5"
     height="328"
     width="211" />
  <g
     transform="translate(-248.30307,98.088291)"
     id="g906">
    <path
       style="fill:#ff0000;stroke-width:2.19008"
       d="m 256.85447,-105.08834 21.04962,-7.21874 -18.85695,11.81249 v 4.812492 l 18.85695,11.812487 -21.04962,-7.437492 -3.72754,3.062497 2.6312,22.093724 -7.45507,-20.999976 -4.82387,-1.093748 -15.56795,15.749982 11.84041,-18.812479 -2.19267,-4.374995 -22.14595,-2.406247 22.14595,-2.406245 2.19267,-4.59375 -11.84041,-18.81248 15.56795,15.96874 4.82387,-1.09375 7.45507,-21.21873 -2.6312,22.31248 z"
       id="polygon25092"
       inkscape:connector-curvature="0" />
    <path
       style="fill:none;stroke:#ff0000;stroke-width:2.19008;stroke-opacity:1"
       d="m 264.7481,-98.088323 c 0,9.060921 -7.3627,16.406209 -16.44502,16.406209 -9.08234,0 -16.44502,-7.345288 -16.44502,-16.406209 0,-9.060897 7.36268,-16.406227 16.44502,-16.406227 9.08232,0 16.44502,7.34533 16.44502,16.406227 z"
       id="circle25094"
       inkscape:connector-curvature="0" />
    <path
       style="fill:none;stroke:#ff0000;stroke-width:2.19008;stroke-opacity:1"
       d="m 286.67479,-98.088323 c 0,21.142141 -17.17961,38.281184 -38.37171,38.281184 -21.19212,0 -38.3717,-17.139043 -38.3717,-38.281184 0,-21.142117 17.17958,-38.281207 38.3717,-38.281207 21.1921,0 38.37171,17.13909 38.37171,38.281207 z"
       id="circle25096"
       inkscape:connector-curvature="0" />
    <path
       inkscape:connector-curvature="0"
       id="path25100"
       style="font-style:normal;font-variant:normal;font-weight:normal;font-stretch:normal;font-size:48px;line-height:0%;font-family:Comfortaa;-inkscape-font-specification:Comfortaa;letter-spacing:0.950001px;word-spacing:0px;fill:#ff0000;fill-opacity:1;stroke:none;stroke-width:2.19008"
       d="m 153.21223,-207.36981 c 0,1.20036 0.22431,2.31931 0.67295,3.35689 0.44864,1.03759 1.05531,1.93783 1.82005,2.70075 0.76473,0.76295 1.6671,1.36819 2.70715,1.81577 1.04001,0.44759 2.16165,0.67139 3.36483,0.67139 1.18277,0 2.29417,-0.2238 3.33422,-0.67139 1.04,-0.44758 1.94239,-1.05792 2.70715,-1.83102 0.76472,-0.77308 1.37138,-1.67842 1.82005,-2.71602 0.44862,-1.03757 0.67293,-2.14635 0.67297,-3.32637 v -30.57811 c -4e-5,-0.89513 0.31605,-1.65806 0.94827,-2.28878 0.63212,-0.63064 1.39686,-0.94598 2.29419,-0.94603 0.89724,5e-5 1.66197,0.31539 2.29419,0.94603 0.63214,0.63072 0.94824,1.39365 0.94826,2.28878 v 30.57811 c -2e-5,2.05482 -0.39769,3.99266 -1.19297,5.81351 -0.79537,1.82087 -1.87107,3.41283 -3.22717,4.77592 -1.35614,1.3631 -2.94677,2.44136 -4.7719,3.23481 -1.8252,0.79345 -3.76762,1.19017 -5.82726,1.19017 -2.08008,0 -4.03271,-0.39672 -5.85785,-1.19017 -1.82515,-0.79345 -3.41578,-1.87679 -4.7719,-3.25008 -1.35612,-1.37324 -2.43185,-2.96522 -3.22717,-4.77592 -0.79532,-1.81065 -1.19299,-3.74342 -1.19299,-5.79824 0,-0.89515 0.3161,-1.65808 0.94828,-2.28876 0.63217,-0.63068 1.39691,-0.94603 2.29419,-0.94605 0.89727,2e-5 1.662,0.31537 2.29419,0.94605 0.63217,0.6307 0.94827,1.39361 0.94827,2.28876 z" />
    <path
       inkscape:connector-curvature="0"
       id="path25102"
       style="font-style:normal;font-variant:normal;font-weight:bold;font-stretch:normal;font-size:40px;line-height:0%;font-family:Comfortaa;-inkscape-font-specification:Comfortaa;letter-spacing:3.56px;word-spacing:0px;fill:#ff0000;fill-opacity:1;stroke:none;stroke-width:2.19008"
       d="m 181.388,-184.41892 c -4e-5,3.96723 -1.39355,7.32409 -4.18054,10.07063 -2.82102,2.78044 -6.18585,4.17066 -10.09443,4.17066 -3.94262,0 -7.30745,-1.39022 -10.09446,-4.17066 -2.78701,-2.78044 -4.18052,-6.13731 -4.18052,-10.07063 0,-3.93329 1.39351,-7.29018 4.18052,-10.07065 2.78701,-2.78041 6.15184,-4.17064 10.09446,-4.17066 3.9086,2e-5 7.27341,1.39025 10.09443,4.17066 1.39348,1.39025 2.43437,2.92458 3.12264,4.603 0.68824,1.67847 1.04086,3.501 1.0579,5.46765 z m -14.27497,-8.92626 c -1.25757,2e-5 -2.43016,0.23739 -3.51777,0.71208 -1.08763,0.47473 -2.03081,1.11472 -2.82951,1.92003 -0.79872,0.80533 -1.43174,1.7505 -1.89907,2.83554 -0.46734,1.08507 -0.70102,2.23792 -0.70102,3.45861 0,1.22069 0.23368,2.37357 0.70102,3.45859 0.46733,1.08506 1.10035,2.03024 1.89907,2.83554 0.7987,0.80533 1.74188,1.44535 2.82951,1.92003 1.08761,0.47473 2.2602,0.71208 3.51777,0.71208 1.24054,0 2.40463,-0.23735 3.49226,-0.71208 1.08761,-0.47468 2.03501,-1.11894 2.84225,-1.93274 0.8072,-0.81377 1.44446,-1.75894 1.91183,-2.83554 0.4673,-1.07656 0.70097,-2.22519 0.70099,-3.44588 -2e-5,-1.22069 -0.23369,-2.3693 -0.70099,-3.4459 -0.46737,-1.07655 -1.10463,-2.02173 -1.91183,-2.83554 -0.80724,-0.81377 -1.75464,-1.45801 -2.84225,-1.93274 -1.08763,-0.47469 -2.25172,-0.71206 -3.49226,-0.71208 z" />
    <path
       inkscape:connector-curvature="0"
       id="path25104"
       style="font-style:normal;font-variant:normal;font-weight:normal;font-stretch:normal;font-size:40px;line-height:0%;font-family:Comfortaa;-inkscape-font-specification:Comfortaa;letter-spacing:0.24px;word-spacing:0px;fill:#ff0000;fill-opacity:1;stroke:none;stroke-width:2.19008"
       d="m 147.10103,-148.58517 v -35.34896 c -1e-5,-0.74593 0.25915,-1.37746 0.77747,-1.89461 0.51832,-0.51704 1.15134,-0.7756 1.89909,-0.77564 0.73073,4e-5 1.35526,0.2586 1.87359,0.77564 0.5183,0.51715 0.77745,1.14868 0.77748,1.89461 v 19.8361 l 15.24363,-9.89263 c 0.42483,-0.27123 0.90066,-0.40685 1.42749,-0.40687 0.37383,2e-5 0.72222,0.0678 1.04514,0.20343 0.32284,0.13563 0.60327,0.3264 0.84119,0.57219 0.23788,0.24585 0.42906,0.52983 0.57356,0.85194 0.1445,0.32215 0.21664,0.66124 0.21664,1.01723 -5e-5,0.94944 -0.33993,1.65305 -1.01966,2.11076 l -10.68073,6.91722 10.96113,12.30857 c 0.4928,0.54252 0.73921,1.16134 0.73926,1.85644 -5e-5,0.35603 -0.0724,0.69512 -0.21664,1.01725 -0.1445,0.32211 -0.33568,0.60609 -0.57356,0.85192 -0.23792,0.24583 -0.51835,0.43656 -0.84119,0.57221 -0.32292,0.13562 -0.67131,0.20343 -1.04514,0.20343 -0.71378,0 -1.30856,-0.22888 -1.78437,-0.68663 l -11.77685,-13.19864 -3.1099,2.03448 v 9.18056 c -3e-5,0.729 -0.25918,1.35629 -0.77748,1.88188 -0.51833,0.52557 -1.14286,0.78835 -1.87359,0.78835 -0.74775,0 -1.38077,-0.26278 -1.89909,-0.78835 -0.51832,-0.52559 -0.77748,-1.15288 -0.77747,-1.88188 z" />
    <path
       inkscape:connector-curvature="0"
       id="path25106"
       style="font-style:normal;font-variant:normal;font-weight:normal;font-stretch:normal;font-size:40px;line-height:0%;font-family:Comfortaa;-inkscape-font-specification:Comfortaa;letter-spacing:-1.2px;word-spacing:0px;fill:#ff0000;fill-opacity:1;stroke:none;stroke-width:2.19008"
       d="m 171.86631,-140.3954 c -0.28892,-0.93244 -0.71801,-1.78436 -1.28729,-2.55578 -0.56933,-0.7714 -1.2321,-1.4326 -1.98831,-1.98363 -0.75625,-0.55098 -1.58896,-0.97906 -2.49811,-1.28426 -0.90921,-0.30513 -1.84811,-0.45773 -2.81675,-0.45775 -0.96867,2e-5 -1.91185,0.15269 -2.8295,0.45775 -0.9177,0.3052 -1.75892,0.73328 -2.52361,1.28426 -0.76476,0.55103 -1.42752,1.21223 -1.98831,1.98363 -0.56082,0.77142 -0.97717,1.62334 -1.24906,2.55578 z m -1.14709,8.8754 c 0.76469,0 1.39774,0.25007 1.89907,0.7502 0.50131,0.50015 0.75195,1.13168 0.752,1.89462 -5e-5,0.74598 -0.25494,1.38175 -0.76474,1.9073 -2.6341,2.30573 -5.74398,3.4586 -9.3297,3.4586 -3.94263,0 -7.30744,-1.39022 -10.09445,-4.17066 -2.78704,-2.78044 -4.18052,-6.1373 -4.18052,-10.07064 0,-3.9333 1.39348,-7.29017 4.18052,-10.07063 2.78701,-2.78042 6.15182,-4.17064 10.09445,-4.17066 3.90861,2e-5 7.27342,1.39024 10.09444,4.17066 1.39348,1.37329 2.4386,2.90338 3.13541,4.59029 0.69672,1.68691 1.04509,3.51371 1.04511,5.48034 -2e-5,0.76295 -0.25917,1.39448 -0.77748,1.89461 -0.51834,0.50015 -1.15137,0.75022 -1.89907,0.7502 h -20.18889 c 0.28889,0.93249 0.71374,1.78441 1.27456,2.55581 0.56077,0.77142 1.2193,1.43261 1.97555,1.98362 0.75621,0.55101 1.58892,0.9791 2.49811,1.28426 0.90916,0.30518 1.85659,0.45775 2.84226,0.45775 1.12158,0 2.14972,-0.16953 3.08441,-0.50863 0.93465,-0.33906 1.80134,-0.84768 2.60009,-1.52585 0.50979,-0.42385 1.09607,-0.64424 1.75887,-0.66119 z" />
    <path
       inkscape:connector-curvature="0"
       id="path25108"
       style="font-style:normal;font-variant:normal;font-weight:bold;font-stretch:normal;font-size:40px;line-height:0%;font-family:Comfortaa;-inkscape-font-specification:Comfortaa;letter-spacing:3.56px;word-spacing:0px;fill:#ff0000;fill-opacity:1;stroke:none;stroke-width:2.19008"
       d="m 171.52496,-131.85681 v 0.50859 c 1.27453,-1.0172 2.65955,-1.79707 4.15502,-2.33961 1.49547,-0.54252 3.09291,-0.81377 4.79232,-0.8138 0.74772,3e-5 1.55068,0.051 2.40891,0.15247 0.85817,0.10172 1.64838,0.28401 2.37065,0.54675 0.72222,0.26282 1.32128,0.6231 1.79713,1.08082 0.47581,0.4578 0.71371,1.05118 0.71374,1.78016 -3e-5,0.37303 -0.0724,0.72056 -0.21664,1.04267 -0.1445,0.32215 -0.33565,0.60613 -0.57356,0.85194 -0.23795,0.24586 -0.51835,0.43658 -0.84122,0.57219 -0.32289,0.13562 -0.67128,0.20343 -1.04511,0.20343 -0.32291,3e-5 -0.69679,-0.0932 -1.12159,-0.27973 -1.07066,-0.42383 -2.23475,-0.63575 -3.49229,-0.63578 -1.24059,3e-5 -2.40466,0.23315 -3.49226,0.69935 -1.08763,0.46626 -2.03506,1.10204 -2.84225,1.90732 -0.80723,0.80533 -1.44451,1.75052 -1.91183,2.83554 -0.46735,1.08507 -0.70102,2.24641 -0.70102,3.48405 v 11.59647 c 0,0.72903 -0.25915,1.3521 -0.77748,1.86918 -0.5183,0.5171 -1.14284,0.77564 -1.87359,0.77564 -0.74772,0 -1.38074,-0.25854 -1.89907,-0.77564 -0.51832,-0.51708 -0.77748,-1.14015 -0.77748,-1.86918 v -23.19296 c 0,-0.72901 0.25916,-1.35207 0.77748,-1.86917 0.51833,-0.51708 1.15135,-0.77562 1.89909,-0.77565 0.73073,3e-5 1.35527,0.25857 1.87357,0.77565 0.51833,0.5171 0.77748,1.14016 0.7775,1.86917 z" />
    <path
       d="m 343.39393,11.193124 c 0,-1.2002801 -0.22431,-2.3191851 -0.67295,-3.3567152 -0.44864,-1.0377488 -1.05531,-1.937904 -1.82007,-2.7009031 -0.76471,-0.7627804 -1.66708,-1.368061 -2.70713,-1.815623 -1.04003,-0.4477807 -2.16164,-0.6715617 -3.36483,-0.6715617 -1.18277,0 -2.29416,0.223781 -3.33421,0.6715617 -1.04003,0.447562 -1.9424,1.0578738 -2.70716,1.8309354 -0.76471,0.7730617 -1.3714,1.6784669 -1.82005,2.7159969 -0.44862,1.0375301 -0.67295,2.146373 -0.67297,3.326309 v 30.578152 c 2e-5,0.895124 -0.31605,1.658123 -0.94826,2.288779 -0.63215,0.630655 -1.39689,0.946093 -2.29419,0.946093 -0.89727,0 -1.662,-0.315438 -2.29419,-0.946093 -0.63215,-0.630656 -0.94824,-1.393655 -0.94827,-2.288779 V 11.193124 c 3e-5,-2.0547167 0.39769,-3.9926207 1.19297,-5.8134936 0.79535,-1.8208729 1.87107,-3.4127149 3.22715,-4.77596331 1.35616,-1.36302969 2.94679,-2.44124719 4.77192,-3.23465259 1.82518,-0.7934053 3.7676,-1.1902174 5.82726,-1.1902174 2.08008,0 4.03269,0.3968121 5.85783,1.1902174 1.82518,0.7934054 3.4158,1.87665414 4.77193,3.24996507 1.35612,1.37331093 2.43184,2.96537163 3.22714,4.77596333 0.79533,1.8105916 1.19299,3.7434644 1.19299,5.7981811 0,0.895124 -0.31609,1.658123 -0.94826,2.288778 -0.63217,0.630656 -1.39691,0.946093 -2.29419,0.946093 -0.89729,0 -1.662,-0.315437 -2.29419,-0.946093 -0.63217,-0.630655 -0.94827,-1.393654 -0.94827,-2.288778 z"
       style="font-style:normal;font-variant:normal;font-weight:normal;font-stretch:normal;font-size:48px;line-height:0%;font-family:Comfortaa;-inkscape-font-specification:Comfortaa;letter-spacing:0.950001px;word-spacing:0px;fill:#ff0000;fill-opacity:1;stroke:none;stroke-width:2.19008"
       id="path25114"
       inkscape:connector-curvature="0" />
    <path
       d="m 315.21816,-11.757663 c 2e-5,-3.967245 1.39353,-7.324179 4.18054,-10.070582 2.82103,-2.780528 6.18583,-4.170683 10.09444,-4.170683 3.94261,0 7.30744,1.390155 10.09445,4.170683 2.78702,2.78031 4.18052,6.137243 4.18052,10.070582 0,3.9333397 -1.3935,7.2900546 -4.18052,10.0705827 -2.78701,2.7805281 -6.15184,4.1706827 -10.09445,4.1706827 -3.90861,0 -7.27341,-1.3901546 -10.09444,-4.1706827 -1.39348,-1.3901547 -2.43438,-2.9244654 -3.12266,-4.6029322 -0.68822,-1.6784669 -1.04084,-3.5010898 -1.05788,-5.4676505 z m 14.27498,8.9263028 c 1.25756,0 2.43015,-0.2373435 3.51774,-0.7122492 1.08765,-0.474687 2.03081,-1.11453 2.82951,-1.9199666 0.79874,-0.8052178 1.43177,-1.7504355 1.89909,-2.8354342 0.46735,-1.0852175 0.70102,-2.2380288 0.701,-3.4586528 2e-5,-1.220623 -0.23365,-2.373653 -0.701,-3.458652 -0.46732,-1.084999 -1.10035,-2.030216 -1.89909,-2.835434 -0.7987,-0.805437 -1.74186,-1.445498 -2.82951,-1.920185 -1.08759,-0.474687 -2.26018,-0.712031 -3.51774,-0.712031 -1.24055,0 -2.40464,0.237344 -3.49227,0.712031 -1.0876,0.474687 -2.03501,1.119123 -2.84224,1.932872 -0.80721,0.813749 -1.44449,1.758967 -1.91184,2.835435 -0.46732,1.076686 -0.70099,2.225341 -0.70101,3.445964 2e-5,1.220624 0.23369,2.369279 0.70101,3.4459653 0.46735,1.0764675 1.10463,2.0216852 1.91184,2.8354342 0.80723,0.8137491 1.75464,1.4579671 2.84224,1.9326541 1.08763,0.4749057 2.25172,0.7122492 3.49227,0.7122492 z"
       style="font-style:normal;font-variant:normal;font-weight:bold;font-stretch:normal;font-size:40px;line-height:0%;font-family:Comfortaa;-inkscape-font-specification:Comfortaa;letter-spacing:3.56px;word-spacing:0px;fill:#ff0000;fill-opacity:1;stroke:none;stroke-width:2.19008"
       id="path25116"
       inkscape:connector-curvature="0" />
    <path
       d="m 349.50512,-47.591497 v 35.349085 c 2e-5,0.745937 -0.25915,1.377467 -0.77747,1.894592 -0.51831,0.5169053 -1.15135,0.7754675 -1.89907,0.7756862 -0.73076,-2.187e-4 -1.35527,-0.2587809 -1.8736,-0.7756862 -0.5183,-0.517125 -0.77747,-1.148655 -0.77747,-1.894592 v -19.836227 l -15.24363,9.892738 c -0.42483,0.27125 -0.90067,0.406875 -1.42752,0.406875 -0.37383,0 -0.7222,-0.06781 -1.04511,-0.203437 -0.32287,-0.135625 -0.60327,-0.326375 -0.84122,-0.57225 -0.23788,-0.245874 -0.42906,-0.529812 -0.57354,-0.85203 -0.14449,-0.322 -0.21663,-0.661062 -0.21663,-1.017186 2e-5,-0.949374 0.3399,-1.653092 1.01963,-2.110717 l 10.68076,-6.917304 -10.96116,-12.308392 c -0.49278,-0.5425 -0.73921,-1.161343 -0.73923,-1.85653 2e-5,-0.356124 0.0724,-0.695186 0.21663,-1.017186 0.1445,-0.322218 0.33566,-0.606155 0.57354,-0.85203 0.23795,-0.245875 0.51835,-0.436406 0.84122,-0.572031 0.32291,-0.135625 0.67128,-0.203437 1.04513,-0.203437 0.71376,0 1.30857,0.229031 1.78437,0.686655 l 11.77685,13.198704 3.10991,-2.034373 v -9.180708 c 0,-0.728874 0.25917,-1.356248 0.77747,-1.881904 0.51833,-0.525437 1.14284,-0.788374 1.8736,-0.788374 0.74772,0 1.38076,0.262937 1.89907,0.788374 0.51832,0.525656 0.77749,1.15303 0.77747,1.881904 z"
       style="font-style:normal;font-variant:normal;font-weight:normal;font-stretch:normal;font-size:40px;line-height:0%;font-family:Comfortaa;-inkscape-font-specification:Comfortaa;letter-spacing:0.24px;word-spacing:0px;fill:#ff0000;fill-opacity:1;stroke:none;stroke-width:2.19008"
       id="path25118"
       inkscape:connector-curvature="0" />
    <path
       d="m 324.73985,-55.781268 c 0.2889,0.93253 0.71801,1.784341 1.28729,2.555872 0.56931,0.771311 1.23208,1.432592 1.98829,1.983622 0.75625,0.551031 1.58896,0.979124 2.49813,1.28428 0.90919,0.305156 1.84811,0.457625 2.81675,0.457625 0.96868,0 1.91185,-0.153125 2.82951,-0.457625 0.91767,-0.305156 1.75889,-0.733249 2.5236,-1.28428 0.76474,-0.55103 1.42752,-1.212311 1.98829,-1.983622 0.56082,-0.771531 0.97719,-1.623342 1.24908,-2.555872 z m 1.14709,-8.875334 c -0.76471,0 -1.39774,-0.250031 -1.89909,-0.750312 -0.50131,-0.500062 -0.75195,-1.131592 -0.75198,-1.894591 3e-5,-0.745937 0.25492,-1.381624 0.76472,-1.907279 2.6341,-2.305623 5.744,-3.458653 9.32972,-3.458653 3.94261,0 7.30744,1.390374 10.09445,4.170683 2.78702,2.780528 4.18052,6.137462 4.18052,10.070801 0,3.933121 -1.3935,7.290054 -4.18052,10.070582 -2.78701,2.78031 -6.15184,4.170683 -10.09445,4.170683 -3.90861,0 -7.27341,-1.390373 -10.09444,-4.170683 -1.39348,-1.373311 -2.43862,-2.903465 -3.1354,-4.590244 -0.69672,-1.686999 -1.04512,-3.513778 -1.04514,-5.480338 2e-5,-0.762999 0.2592,-1.39453 0.77748,-1.894592 0.51835,-0.50028 1.15139,-0.750311 1.89909,-0.750311 h 20.18889 c -0.28891,-0.93253 -0.71376,-1.784342 -1.27455,-2.555872 -0.5608,-0.771312 -1.21933,-1.432592 -1.97556,-1.983623 -0.75622,-0.550812 -1.58893,-0.978905 -2.49812,-1.28428 -0.90917,-0.305156 -1.85658,-0.457624 -2.84225,-0.457624 -1.1216,0 -2.14972,0.168437 -3.08441,0.508593 -0.93464,0.339062 -1.80134,0.847655 -2.60009,1.525779 -0.50979,0.423937 -1.09609,0.644218 -1.75887,0.661281 z"
       style="font-style:normal;font-variant:normal;font-weight:normal;font-stretch:normal;font-size:40px;line-height:0%;font-family:Comfortaa;-inkscape-font-specification:Comfortaa;letter-spacing:-1.2px;word-spacing:0px;fill:#ff0000;fill-opacity:1;stroke:none;stroke-width:2.19008"
       id="path25120"
       inkscape:connector-curvature="0" />
    <path
       d="m 325.0812,-64.319727 v -0.508594 c -1.27453,1.017187 -2.65955,1.79703 -4.15504,2.339529 -1.49544,0.542499 -3.09289,0.813749 -4.7923,0.813749 -0.74772,0 -1.5507,-0.05031 -2.40891,-0.153125 -0.85816,-0.102812 -1.6484,-0.284156 -2.37067,-0.546874 -0.72222,-0.262719 -1.32125,-0.622999 -1.79711,-1.080843 -0.47581,-0.457624 -0.71371,-1.051092 -0.71375,-1.779966 4e-5,-0.373187 0.0724,-0.720562 0.21663,-1.04278 0.1445,-0.322219 0.33565,-0.606156 0.57356,-0.852031 0.23793,-0.245656 0.51832,-0.436406 0.84119,-0.57203 0.32292,-0.135625 0.67129,-0.203438 1.04514,-0.203438 0.32289,0 0.69676,0.09406 1.12159,0.279563 1.07064,0.423937 2.23475,0.635905 3.49229,0.635905 1.24057,0 2.40466,-0.233187 3.49226,-0.699343 1.08763,-0.466374 2.03504,-1.102061 2.84225,-1.907279 0.80723,-0.805437 1.44451,-1.750654 1.91183,-2.835653 0.46733,-1.084999 0.701,-2.246341 0.701,-3.484027 v -11.596471 c 0,-0.729006 0.25917,-1.352071 0.77748,-1.869151 0.51832,-0.517103 1.14284,-0.775665 1.87359,-0.775665 0.74772,0 1.38076,0.258562 1.89907,0.775665 0.51832,0.51708 0.7775,1.140145 0.7775,1.869151 v 23.193051 c 0,0.728874 -0.25918,1.352092 -0.7775,1.869217 -0.51831,0.516906 -1.15135,0.775468 -1.89907,0.775468 -0.73075,0 -1.35527,-0.258562 -1.87359,-0.775468 -0.51831,-0.517125 -0.77748,-1.140343 -0.77748,-1.869217 z"
       style="font-style:normal;font-variant:normal;font-weight:bold;font-stretch:normal;font-size:40px;line-height:0%;font-family:Comfortaa;-inkscape-font-specification:Comfortaa;letter-spacing:3.56px;word-spacing:0px;fill:#ff0000;fill-opacity:1;stroke:none;stroke-width:2.19008"
       id="path25122"
       inkscape:connector-curvature="0" />
  </g>
</svg>
