<?xml version="1.0" encoding="UTF-8" standalone="no"?>
<svg
   xmlns:dc="http://purl.org/dc/elements/1.1/"
   xmlns:cc="http://creativecommons.org/ns#"
   xmlns:rdf="http://www.w3.org/1999/02/22-rdf-syntax-ns#"
   xmlns:svg="http://www.w3.org/2000/svg"
   xmlns="http://www.w3.org/2000/svg"
   xmlns:sodipodi="http://sodipodi.sourceforge.net/DTD/sodipodi-0.dtd"
   xmlns:inkscape="http://www.inkscape.org/namespaces/inkscape"
   inkscape:version="1.0 (4035a4fb49, 2020-05-01)"
   sodipodi:docname="2S.svg"
   id="svg24"
   version="1.1"
   width="2.25in"
   viewBox="-106 -164.5 212 329"
   preserveAspectRatio="none"
   height="3.5in"
   face="2S"
   class="card">
  <metadata
     id="metadata30">
    <rdf:RDF>
      <cc:Work
         rdf:about="">
        <dc:format>image/svg+xml</dc:format>
        <dc:type
           rdf:resource="http://purl.org/dc/dcmitype/StillImage" />
      </cc:Work>
    </rdf:RDF>
  </metadata>
  <defs
     id="defs28" />
  <sodipodi:namedview
     inkscape:current-layer="svg24"
     inkscape:window-maximized="1"
     inkscape:window-y="-12"
     inkscape:window-x="-12"
     inkscape:cy="168"
     inkscape:cx="108"
     inkscape:zoom="2.2410714"
     showgrid="false"
     id="namedview26"
     inkscape:window-height="2050"
     inkscape:window-width="3240"
     inkscape:pageshadow="2"
     inkscape:pageopacity="0"
     guidetolerance="10"
     gridtolerance="10"
     objecttolerance="10"
     borderopacity="1"
     bordercolor="#666666"
     pagecolor="#ffffff" />
  <symbol
     preserveAspectRatio="xMinYMid"
     viewBox="-600 -600 1200 1200"
     id="SS2">
    <path
       id="path2"
       fill="black"
       d="M0 -500C100 -250 355 -100 355 185A150 150 0 0 1 55 185A10 10 0 0 0 35 185C35 385 85 400 130 500L-130 500C-85 400 -35 385 -35 185A10 10 0 0 0 -55 185A150 150 0 0 1 -355 185C-355 -100 -100 -250 0 -500Z" />
  </symbol>
  <symbol
     preserveAspectRatio="xMinYMid"
     viewBox="-500 -500 1000 1000"
     id="VS2">
    <path
       id="path5"
       fill="none"
       stroke-miterlimit="1.5"
       stroke-linecap="square"
       stroke-width="80"
       stroke="black"
       d="M-225 -225C-245 -265 -200 -460 0 -460C 200 -460 225 -325 225 -225C225 -25 -225 160 -225 460L225 460L225 300" />
  </symbol>
  <rect
     id="rect8"
     stroke="black"
     fill="white"
     ry="12"
     rx="12"
     y="-164"
     x="-105.5"
     height="328"
     width="211" />
  <g
     transform="translate(-271.95249,167.12152)"
     id="g888">
    <path
       id="path20813-8-4-0-8-9"
       d="m 271.95275,-284.27966 c -0.39183,-0.0256 -0.0285,5.68152 -0.93057,8.74778 -2.17556,6.92151 -13.71119,9.18318 -17.99194,14.11199 -7.61865,8.77228 -3.44052,16.89946 3.4745,21.16793 6.56573,4.05301 14.49201,-1.89818 15.28268,-2.51705 0,0.16035 -0.0285,0.31557 -0.0417,0.47454 0,0.035 -0.0263,0.0685 -0.0263,0.10303 -0.97859,6.18548 -8.75204,8.73844 -12.036,9.55241 h -1.50965 v 0.33009 h 2.17162 11.35342 0.0263 0.45476 0.0263 11.35342 2.17162 v -0.33009 h -1.50965 c -3.28374,-0.81397 -11.05741,-3.36693 -12.036,-9.55241 0,-0.0348 -0.0263,-0.0683 -0.0263,-0.10303 0,-0.1656 -0.0307,-0.32741 -0.0417,-0.49519 0.38745,0.30722 5.28411,4.11913 10.62984,3.94065 1.55855,-0.051 3.14056,-0.46926 4.65284,-1.40295 6.91502,-4.26847 11.09293,-12.39565 3.47451,-21.16793 -4.28075,-4.92881 -15.81616,-7.19048 -17.99195,-14.11199 -0.90184,-3.06626 -0.53874,-8.76462 -0.93057,-8.74778 z"
       style="fill:#000000;fill-opacity:1;stroke:none;stroke-width:2.19008"
       inkscape:connector-curvature="0" />
    <path
       id="path20813-8-4-0-8-5"
       d="m 271.95223,-49.963371 c 0.39183,0.02559 0.0285,-5.681522 0.93056,-8.747781 2.17557,-6.921504 13.7112,-9.18318 17.99195,-14.111983 7.61865,-8.772281 3.44052,-16.899469 -3.4745,-21.167932 -6.56573,-4.053018 -14.49201,1.898179 -15.28269,2.517044 0,-0.160344 0.0285,-0.315569 0.0417,-0.474534 0,-0.035 0.0263,-0.06847 0.0263,-0.103031 0.97858,-6.185478 8.75203,-8.738442 12.03599,-9.552412 h 1.50966 v -0.33009 h -2.17162 -11.35342 -0.0263 -0.45475 -0.0263 -11.35342 -2.17162 v 0.33009 h 1.50966 c 3.28374,0.81397 11.05741,3.366934 12.03599,9.552412 0,0.03478 0.0263,0.06825 0.0263,0.103031 0,0.165593 0.0307,0.327402 0.0417,0.495184 -0.38745,-0.307213 -5.28412,-4.119124 -10.62984,-3.940646 -1.55855,0.05097 -3.14056,0.469262 -4.65285,1.402952 -6.91502,4.268463 -11.09293,12.395651 -3.4745,21.167932 4.28075,4.928803 15.81616,7.190479 17.99195,14.111983 0.90184,3.066259 0.53873,8.764625 0.93056,8.747781 z"
       style="fill:#000000;fill-opacity:1;stroke:none;stroke-width:2.19008"
       inkscape:connector-curvature="0" />
    <path
       inkscape:connector-curvature="0"
       id="path26237"
       style="font-style:normal;font-variant:normal;font-weight:bold;font-stretch:normal;font-size:22.4px;line-height:125%;font-family:Comfortaa;-inkscape-font-specification:'Comfortaa Bold';letter-spacing:0px;word-spacing:0px;fill:#000000;fill-opacity:1;stroke:none;stroke-width:2.19008"
       d="m 176.92187,-298.53394 c 0,-1.59501 0.30776,-3.09437 0.92331,-4.49804 0.61555,-1.40361 1.45093,-2.6318 2.50615,-3.68456 1.05523,-1.05269 2.28632,-1.88212 3.69329,-2.48828 1.40695,-0.60609 2.90184,-0.90914 4.48469,-0.90918 1.58282,4e-5 3.07772,0.31108 4.48469,0.93312 1.40694,0.6221 2.63804,1.45949 3.69328,2.51218 1.0552,1.05278 1.89059,2.28097 2.50616,3.68458 0.6155,1.40367 0.92329,2.88706 0.92331,4.45018 -2e-5,1.59508 -0.2918,3.07849 -0.87536,4.4502 -0.58358,1.37176 -1.42696,2.6159 -2.53012,3.73242 l -11.65541,13.49412 h 12.54274 c 0.70347,0 1.29903,0.24724 1.7867,0.7417 0.4876,0.49446 0.73143,1.08465 0.73145,1.77051 -2e-5,0.68587 -0.24385,1.27206 -0.73145,1.75853 -0.48767,0.4865 -1.08323,0.72975 -1.7867,0.72975 h -18.20257 c -0.35175,0 -0.67951,-0.0639 -0.98328,-0.1914 -0.30377,-0.12754 -0.56757,-0.30706 -0.7914,-0.53835 -0.22385,-0.23128 -0.39973,-0.49844 -0.52762,-0.8015 -0.12784,-0.30305 -0.19186,-0.62208 -0.19186,-0.95703 0,-0.71778 0.23183,-1.30794 0.69549,-1.77051 l 15.54054,-17.70506 c 1.31102,-1.30791 1.96652,-2.87903 1.96654,-4.71338 -2e-5,-0.8932 -0.17585,-1.73856 -0.5276,-2.53612 -0.35177,-0.79749 -0.8274,-1.49533 -1.42694,-2.0935 -0.59959,-0.59813 -1.29907,-1.07264 -2.09845,-1.42358 -0.79943,-0.35087 -1.64681,-0.52633 -2.54214,-0.52638 -0.91134,5e-5 -1.7667,0.1715 -2.5661,0.51442 -0.79943,0.34295 -1.49891,0.8095 -2.09845,1.39964 -0.59957,0.59021 -1.07123,1.28404 -1.41498,2.08154 -0.34374,0.79756 -0.5156,1.65889 -0.5156,2.58398 0,0.68591 -0.24383,1.2721 -0.73148,1.75855 -0.48762,0.48652 -1.0832,0.72977 -1.78667,0.72973 -0.68749,4e-5 -1.27506,-0.24321 -1.76271,-0.72973 -0.48763,-0.48645 -0.73145,-1.07264 -0.73145,-1.75855 z" />
    <path
       id="path20813-8-4-0-6-3"
       d="m 188.52944,-269.0951 c -0.33568,-0.0219 -0.025,4.86889 -0.79752,7.49657 -1.86453,5.93151 -11.75012,7.8697 -15.41845,12.09354 -6.529,7.51758 -2.94846,14.48233 2.97734,18.14026 5.62667,3.47331 12.41938,-1.62667 13.09685,-2.15702 -0.009,0.13737 -0.0239,0.27044 -0.0355,0.40665 -0.002,0.03 -0.0153,0.0586 -0.0175,0.0884 -0.83874,5.30076 -7.50018,7.48857 -10.31442,8.18611 h -1.29374 v 0.28289 h 1.86085 9.72959 0.0175 0.38988 0.0175 9.7296 1.86085 v -0.28289 h -1.29374 c -2.81409,-0.69754 -9.47573,-2.88535 -10.31444,-8.18611 -0.004,-0.0297 -0.0153,-0.0584 -0.0175,-0.0884 -0.011,-0.14197 -0.0263,-0.28057 -0.0355,-0.42435 0.33195,0.26326 4.52819,3.52996 9.10934,3.37701 1.3357,-0.0437 2.6913,-0.40215 3.98752,-1.20229 5.92582,-3.65793 9.50634,-10.62268 2.97736,-18.14026 -3.66836,-4.22384 -13.55392,-6.16203 -15.41848,-12.09354 -0.77287,-2.62768 -0.46182,-7.51101 -0.79749,-7.49657 z"
       style="fill:#000000;fill-opacity:1;stroke:none;stroke-width:2.19008"
       inkscape:connector-curvature="0" />
    <path
       inkscape:connector-curvature="0"
       id="path26225"
       style="font-style:normal;font-variant:normal;font-weight:bold;font-stretch:normal;font-size:22.4px;line-height:125%;font-family:Comfortaa;-inkscape-font-specification:'Comfortaa Bold';letter-spacing:0px;word-spacing:0px;fill:#000000;fill-opacity:1;stroke:none;stroke-width:2.19008"
       d="m 366.98311,-35.709112 c 0,1.595014 -0.30776,3.094368 -0.92331,4.498042 -0.61555,1.403607 -1.45093,2.6318 -2.50616,3.684555 -1.05522,1.052689 -2.28631,1.882123 -3.69328,2.488278 -1.40695,0.60609 -2.90185,0.909146 -4.48469,0.90919 -1.58282,-4.4e-5 -3.07772,-0.311084 -4.48469,-0.933121 -1.40695,-0.622103 -2.63804,-1.459498 -3.69329,-2.512188 -1.0552,-1.052777 -1.89058,-2.280969 -2.50615,-3.684577 -0.61551,-1.403673 -0.92329,-2.887059 -0.92331,-4.450179 2e-5,-1.59508 0.2918,-3.078487 0.87535,-4.450201 0.58358,-1.371758 1.42697,-2.615897 2.53013,-3.732418 l 11.65541,-13.494125 h -12.54274 c -0.70348,0 -1.29903,-0.247231 -1.7867,-0.741693 -0.48761,-0.494462 -0.73143,-1.084649 -0.73145,-1.770517 2e-5,-0.685868 0.24384,-1.272051 0.73145,-1.758529 0.48767,-0.486499 1.08322,-0.729749 1.7867,-0.729749 h 18.20257 c 0.35175,0 0.67951,0.06388 0.98328,0.191406 0.30377,0.127531 0.56757,0.307059 0.7914,0.538343 0.22385,0.231284 0.39972,0.498443 0.52762,0.801499 0.12783,0.303056 0.19186,0.622081 0.19186,0.95703 0,0.717784 -0.23183,1.307949 -0.69549,1.770517 l -15.54054,17.705058 c -1.31102,1.307905 -1.96652,2.879031 -1.96654,4.713379 2e-5,0.893199 0.17585,1.738557 0.5276,2.536119 0.35177,0.797496 0.8274,1.495329 1.42694,2.093501 0.59959,0.598127 1.29907,1.072639 2.09845,1.423579 0.79943,0.350875 1.64681,0.526334 2.54214,0.526378 0.91134,-4.4e-5 1.7667,-0.1715 2.5661,-0.514412 0.79943,-0.342956 1.49891,-0.809506 2.09845,-1.399649 0.59956,-0.590208 1.07123,-1.284039 1.41495,-2.081535 0.34377,-0.797561 0.51563,-1.658888 0.51563,-2.583981 0,-0.685912 0.24382,-1.272096 0.73147,-1.758551 0.48763,-0.486522 1.0832,-0.729771 1.78668,-0.729728 0.68749,-4.3e-5 1.27506,0.243206 1.76271,0.729728 0.48762,0.486455 0.73145,1.072639 0.73145,1.758551 z" />
    <path
       id="path20813-8-4-0-6-8"
       d="m 355.37554,-65.14795 c 0.33567,0.02187 0.025,-4.868889 0.79751,-7.496576 1.86454,-5.931509 11.75012,-7.869697 15.41846,-12.093536 6.529,-7.517576 2.94846,-14.482328 -2.97734,-18.140258 -5.62667,-3.47331 -12.41939,1.62666 -13.09685,2.15702 0.009,-0.13737 0.0239,-0.27044 0.0355,-0.40665 0.002,-0.03 0.0153,-0.0586 0.0175,-0.0884 0.83874,-5.30076 7.50018,-7.48857 10.31442,-8.18612 h 1.29374 v -0.28288 h -1.86085 -9.7296 -0.0175 -0.38988 -0.0175 -9.72959 -1.86085 v 0.28288 h 1.29374 c 2.81409,0.69755 9.47572,2.88536 10.31444,8.18612 0.004,0.0297 0.0153,0.0584 0.0175,0.0884 0.011,0.14197 0.0263,0.28057 0.0355,0.42435 -0.33194,-0.26327 -4.52819,-3.52997 -9.10933,-3.37702 -1.33571,0.0438 -2.6913,0.40215 -3.98752,1.2023 -5.92582,3.65793 -9.50634,10.622682 -2.97736,18.140258 3.66836,4.223839 13.55392,6.162027 15.41847,12.093536 0.77288,2.627687 0.46182,7.511013 0.7975,7.496576 z"
       style="fill:#000000;fill-opacity:1;stroke:none;stroke-width:2.19008"
       inkscape:connector-curvature="0" />
  </g>
</svg>
