<?xml version="1.0" encoding="UTF-8" standalone="no"?>
<svg
   xmlns:dc="http://purl.org/dc/elements/1.1/"
   xmlns:cc="http://creativecommons.org/ns#"
   xmlns:rdf="http://www.w3.org/1999/02/22-rdf-syntax-ns#"
   xmlns:svg="http://www.w3.org/2000/svg"
   xmlns="http://www.w3.org/2000/svg"
   xmlns:sodipodi="http://sodipodi.sourceforge.net/DTD/sodipodi-0.dtd"
   xmlns:inkscape="http://www.inkscape.org/namespaces/inkscape"
   inkscape:version="1.0 (4035a4fb49, 2020-05-01)"
   sodipodi:docname="3C.svg"
   id="svg26"
   version="1.1"
   width="2.25in"
   viewBox="-106 -164.5 212 329"
   preserveAspectRatio="none"
   height="3.5in"
   face="3C"
   class="card">
  <metadata
     id="metadata32">
    <rdf:RDF>
      <cc:Work
         rdf:about="">
        <dc:format>image/svg+xml</dc:format>
        <dc:type
           rdf:resource="http://purl.org/dc/dcmitype/StillImage" />
      </cc:Work>
    </rdf:RDF>
  </metadata>
  <defs
     id="defs30" />
  <sodipodi:namedview
     inkscape:current-layer="svg26"
     inkscape:window-maximized="1"
     inkscape:window-y="-12"
     inkscape:window-x="-12"
     inkscape:cy="168"
     inkscape:cx="108"
     inkscape:zoom="2.2410714"
     showgrid="false"
     id="namedview28"
     inkscape:window-height="2050"
     inkscape:window-width="3240"
     inkscape:pageshadow="2"
     inkscape:pageopacity="0"
     guidetolerance="10"
     gridtolerance="10"
     objecttolerance="10"
     borderopacity="1"
     bordercolor="#666666"
     pagecolor="#ffffff" />
  <symbol
     preserveAspectRatio="xMinYMid"
     viewBox="-600 -600 1200 1200"
     id="SC3">
    <path
       id="path2"
       fill="black"
       d="M30 150C35 385 85 400 130 500L-130 500C-85 400 -35 385 -30 150A10 10 0 0 0 -50 150A210 210 0 1 1 -124 -51A10 10 0 0 0 -110 -65A230 230 0 1 1 110 -65A10 10 0 0 0 124 -51A210 210 0 1 1 50 150A10 10 0 0 0 30 150Z" />
  </symbol>
  <symbol
     preserveAspectRatio="xMinYMid"
     viewBox="-500 -500 1000 1000"
     id="VC3">
    <path
       id="path5"
       fill="none"
       stroke-miterlimit="1.5"
       stroke-linecap="square"
       stroke-width="80"
       stroke="black"
       d="M-250 -320L-250 -460L200 -460L-110 -80C-100 -90 -50 -120 0 -120C200 -120 250 0 250 150C250 350 170 460 -30 460C-230 460 -260 300 -260 300" />
  </symbol>
  <rect
     id="rect8"
     stroke="black"
     fill="white"
     ry="12"
     rx="12"
     y="-164"
     x="-105.5"
     height="328"
     width="211" />
  <g
     transform="translate(-325.38249,145.71248)"
     id="g894">
    <path
       d="m 232.17463,-278.82361 c -2e-5,-1.38766 0.25979,-2.68364 0.77943,-3.88792 0.5196,-1.20424 1.22309,-2.25698 2.11044,-3.1582 0.88733,-0.90119 1.92256,-1.61099 3.1057,-2.1294 1.18312,-0.51835 2.44618,-0.77755 3.78922,-0.77759 1.34298,4e-5 2.60605,0.26322 3.78919,0.78955 1.18312,0.5264 2.21835,1.24417 3.10572,2.15331 0.88733,0.90921 1.5908,1.96195 2.11044,3.1582 0.5196,1.19632 0.77941,2.48034 0.77943,3.85205 -2e-5,2.64782 -0.9833,5.00051 -2.94984,7.0581 3.18163,2.53616 4.77247,5.71827 4.7725,9.54637 -3e-5,1.61102 -0.30382,3.1303 -0.91134,4.55787 -0.60757,1.42758 -1.43896,2.6757 -2.49416,3.74438 -1.05525,1.06868 -2.28634,1.91406 -3.69327,2.53612 -1.40699,0.62208 -2.90987,0.9331 -4.50867,0.9331 -1.59885,0 -3.10173,-0.30704 -4.50868,-0.92114 -1.40697,-0.61409 -2.63807,-1.45547 -3.69329,-2.52417 -1.05522,-1.06868 -1.88661,-2.3168 -2.49416,-3.74436 -0.60754,-1.42756 -0.91132,-2.95483 -0.91132,-4.5818 0,-0.73371 0.23583,-1.33982 0.70747,-1.81836 0.47166,-0.47849 1.06722,-0.71774 1.7867,-0.71776 0.70347,2e-5 1.29902,0.23927 1.78667,0.71776 0.48763,0.47854 0.73145,1.08465 0.73145,1.81836 0,0.9411 0.17191,1.81837 0.51563,2.63184 0.34375,0.81349 0.8114,1.51928 1.40296,2.11743 0.59156,0.59815 1.28705,1.07268 2.08648,1.42358 0.79938,0.35092 1.66274,0.52638 2.59009,0.52636 0.91129,2e-5 1.77066,-0.17938 2.57809,-0.53832 0.80739,-0.35889 1.50687,-0.84138 2.09845,-1.44752 0.59154,-0.60611 1.05919,-1.31591 1.40296,-2.12939 0.34372,-0.81347 0.51561,-1.67479 0.51563,-2.58398 -2e-5,-0.90915 -0.17191,-1.77048 -0.51563,-2.58399 -0.34377,-0.81344 -0.81142,-1.52324 -1.40296,-2.12937 -0.59158,-0.60611 -1.29106,-1.08861 -2.09845,-1.44751 -0.80743,-0.35888 -1.6668,-0.53832 -2.57809,-0.53835 -0.71948,3e-5 -1.31905,-0.2432 -1.79869,-0.72972 -0.47965,-0.48648 -0.71948,-1.08861 -0.71946,-1.80639 -2e-5,-0.73371 0.23981,-1.33982 0.71946,-1.81836 0.47964,-0.4785 1.07921,-0.71774 1.79869,-0.71779 0.63951,5e-5 1.25105,-0.12753 1.83465,-0.38281 0.58353,-0.25517 1.09116,-0.60208 1.52287,-1.04077 0.43165,-0.43861 0.77539,-0.953 1.03123,-1.54321 0.2558,-0.59012 0.3837,-1.2122 0.38372,-1.8662 -2e-5,-0.6699 -0.12783,-1.29994 -0.38372,-1.89013 -0.25584,-0.59014 -0.60357,-1.10455 -1.04322,-1.54321 -0.4397,-0.43861 -0.94732,-0.78951 -1.52288,-1.05273 -0.5756,-0.26316 -1.18314,-0.39476 -1.82265,-0.39478 -0.65555,2e-5 -1.27508,0.13169 -1.85864,0.39478 -0.58358,0.26322 -1.09121,0.61412 -1.52288,1.05273 -0.43169,0.43866 -0.77543,0.95307 -1.03123,1.54321 -0.25582,0.59019 -0.37574,1.22023 -0.35975,1.89013 0,0.68589 -0.24383,1.27608 -0.73145,1.7705 -0.48765,0.4945 -1.0832,0.74173 -1.78668,0.74171 -0.68751,2e-5 -1.27508,-0.24721 -1.76271,-0.74171 -0.48765,-0.49442 -0.73147,-1.08461 -0.73145,-1.7705 z"
       style="font-style:normal;font-variant:normal;font-weight:bold;font-stretch:normal;font-size:22.4px;line-height:125%;font-family:Comfortaa;-inkscape-font-specification:'Comfortaa Bold';letter-spacing:0px;word-spacing:0px;fill:#000000;fill-opacity:1;stroke:none;stroke-width:2.19008"
       id="path26222"
       inkscape:connector-curvature="0" />
    <path
       style="fill:none;stroke:#000000;stroke-width:2.49172;stroke-opacity:1"
       d="m 241.95913,-238.93616 c -6.29954,0 -11.39615,5.10216 -11.39615,11.38706 0,2.46684 0.7721,4.74888 2.10899,6.61296 -4.3911,0.52344 -7.79831,4.09473 -7.79831,8.45189 0,4.71723 3.98346,8.5403 8.89721,8.5403 3.19617,0 5.98147,-1.61986 7.55037,-4.04912 -0.28364,5.58658 -1.49779,11.02916 -5.93755,11.70532 -0.0974,0.0153 -0.19953,0.0431 -0.30112,0.0529 h -0.585 v 0.28291 h 7.46156 7.46178 v -0.28291 h -0.58498 c -0.10218,-0.0109 -0.20216,-0.0378 -0.30136,-0.0529 -4.43502,-0.67546 -5.65217,-6.10714 -5.93731,-11.68765 1.57039,2.42222 4.35969,4.03145 7.55035,4.03145 4.91375,0 8.89724,-3.82307 8.89724,-8.5403 0,-4.36259 -3.39947,-7.95315 -7.79858,-8.46955 1.33191,-1.86197 2.12695,-4.13356 2.12695,-6.5953 0,-6.2849 -5.11431,-11.38706 -11.41409,-11.38706 z"
       id="path11522-8"
       inkscape:connector-curvature="0" />
    <path
       d="m 418.5906,-12.601355 c 3e-5,1.387683 -0.25978,2.6836441 -0.77942,3.8879489 -0.5196,1.2042174 -1.2231,2.2569506 -2.11045,3.1581995 -0.88733,0.9011615 -1.92255,1.6109607 -3.10569,2.1293976 -1.18312,0.5183494 -2.44619,0.777546 -3.78922,0.7775679 -1.34299,-2.19e-5 -2.60605,-0.2632216 -3.7892,-0.7895335 -1.18312,-0.5263994 -2.21834,-1.2441829 -3.10571,-2.1533288 -0.88733,-0.9092114 -1.59081,-1.9619446 -2.11045,-3.1581995 -0.51959,-1.1963205 -0.7794,-2.4803381 -0.77943,-3.8520521 3e-5,-2.64779 0.98331,-5.000488 2.94985,-7.058092 -3.18163,-2.536141 -4.77248,-5.718271 -4.7725,-9.54637 2e-5,-1.611004 0.30381,-3.130287 0.91134,-4.557848 0.60756,-1.427583 1.43896,-2.675703 2.49416,-3.744383 1.05524,-1.068702 2.28634,-1.91406 3.69326,-2.536141 1.407,-0.622059 2.90987,-0.933099 4.50868,-0.933099 1.59885,0 3.10173,0.307037 4.50868,0.921133 1.40696,0.614097 2.63806,1.455496 3.69328,2.524176 1.05522,1.06868 1.88662,2.3168 2.49416,3.744383 0.60755,1.427561 0.91132,2.954828 0.91132,4.581779 0,0.733709 -0.23582,1.33982 -0.70746,1.818357 -0.47167,0.478493 -1.06722,0.717762 -1.7867,0.717762 -0.70347,0 -1.29903,-0.239269 -1.78667,-0.717762 -0.48763,-0.478537 -0.73146,-1.084648 -0.73146,-1.818357 0,-0.941083 -0.1719,-1.818357 -0.51563,-2.631844 -0.34374,-0.813465 -0.81139,-1.519283 -1.40295,-2.11741 -0.59156,-0.598149 -1.28706,-1.072683 -2.08648,-1.423601 -0.79938,-0.350897 -1.66274,-0.526356 -2.59009,-0.526356 -0.9113,0 -1.77067,0.179375 -2.5781,0.538321 -0.80738,0.358881 -1.50686,0.841399 -2.09845,1.447511 -0.59153,0.606112 -1.05919,1.315911 -1.40295,2.129398 -0.34373,0.813464 -0.51561,1.674791 -0.51563,2.583981 2e-5,0.909168 0.1719,1.770495 0.51563,2.583981 0.34376,0.813465 0.81142,1.523264 1.40295,2.129398 0.59159,0.60609 1.29107,1.088608 2.09845,1.447511 0.80743,0.358859 1.6668,0.538299 2.5781,0.538321 0.71948,-2.2e-5 1.31904,0.243228 1.79869,0.729727 0.47965,0.486478 0.71948,1.088608 0.71946,1.806392 2e-5,0.733709 -0.23981,1.33982 -0.71946,1.818357 -0.47965,0.478494 -1.07921,0.717762 -1.79869,0.717784 -0.63951,-2.2e-5 -1.25105,0.127531 -1.83465,0.382812 -0.58354,0.255193 -1.09116,0.602109 -1.52287,1.040768 -0.43165,0.438615 -0.7754,0.953027 -1.03124,1.543213 -0.2558,0.590143 -0.38369,1.212202 -0.38372,1.866198 3e-5,0.669899 0.12784,1.299943 0.38372,1.890151 0.25584,0.590121 0.60358,1.1045333 1.04323,1.5432141 0.4397,0.4385932 0.94732,0.7895116 1.52287,1.0527332 0.5756,0.263134 1.18315,0.3947339 1.82266,0.3947557 0.65554,-2.18e-5 1.27508,-0.1316873 1.85864,-0.3947557 0.58358,-0.2632216 1.0912,-0.61414 1.52287,-1.0527332 0.43169,-0.4386808 0.77544,-0.9530931 1.03124,-1.5432141 0.25581,-0.590208 0.37573,-1.220252 0.35975,-1.890151 0,-0.68589 0.24382,-1.276055 0.73145,-1.770495 0.48765,-0.494483 1.0832,-0.741714 1.78667,-0.741693 0.68752,-2.1e-5 1.27508,0.24721 1.76271,0.741693 0.48765,0.49444 0.73148,1.084605 0.73145,1.770495 z"
       style="font-style:normal;font-variant:normal;font-weight:bold;font-stretch:normal;font-size:22.4px;line-height:125%;font-family:Comfortaa;-inkscape-font-specification:'Comfortaa Bold';letter-spacing:0px;word-spacing:0px;fill:#000000;fill-opacity:1;stroke:none;stroke-width:2.19008"
       id="path26210"
       inkscape:connector-curvature="0" />
    <path
       style="fill:none;stroke:#000000;stroke-width:2.49172;stroke-opacity:1"
       d="m 408.80584,-52.488797 c 6.29954,0 11.39616,-5.102163 11.39616,-11.387062 0,-2.466862 -0.77211,-4.748904 -2.109,-6.61298 4.3911,-0.523424 7.79831,-4.094711 7.79831,-8.451877 0,-4.717251 -3.98346,-8.540319 -8.89721,-8.540319 -3.19617,0 -5.98147,1.619886 -7.55037,4.049146 0.28365,-5.586585 1.49779,-11.029188 5.93755,-11.705343 0.0974,-0.01531 0.19954,-0.04309 0.30112,-0.05294 h 0.58501 v -0.282887 h -7.46157 -7.46178 v 0.282887 h 0.58498 c 0.10218,0.01094 0.20216,0.03784 0.30136,0.05294 4.43502,0.675477 5.65217,6.107165 5.93731,11.687668 -1.57039,-2.422216 -4.35968,-4.031471 -7.55035,-4.031471 -4.91375,0 -8.89723,3.823068 -8.89723,8.540319 0,4.362591 3.39947,7.953128 7.79857,8.469552 -1.33191,1.861955 -2.12695,4.133539 -2.12695,6.595305 0,6.284899 5.11431,11.387062 11.41409,11.387062 z"
       id="path11522-5"
       inkscape:connector-curvature="0" />
    <path
       style="fill:#000000;fill-opacity:1;stroke:none;stroke-width:2.19008"
       d="m 325.38235,-263.07177 c -7.58189,0 -13.71597,6.14077 -13.71597,13.70505 0,2.969 0.92927,5.71558 2.53832,7.95912 -5.28499,0.63 -9.38579,4.92826 -9.38579,10.17237 0,5.67749 4.79438,10.27879 10.70838,10.27879 3.84678,0 7.19906,-1.94961 9.08732,-4.87338 -0.34137,6.7238 -1.8027,13.27431 -7.14621,14.0881 -0.11709,0.0175 -0.24021,0.0518 -0.36241,0.0639 h -0.70408 v 0.34049 h 8.98044 8.98074 v -0.34049 H 333.659 c -0.12301,-0.0109 -0.24319,-0.0455 -0.36269,-0.0639 -5.33783,-0.81296 -6.80273,-7.35034 -7.14593,-14.06683 1.89008,2.91527 5.24715,4.85211 9.08734,4.85211 5.914,0 10.70836,-4.6013 10.70836,-10.27879 0,-5.25065 -4.09148,-9.5721 -9.38607,-10.19363 1.60302,-2.24098 2.55992,-4.97498 2.55992,-7.93786 0,-7.56428 -6.15539,-13.70505 -13.73758,-13.70505 z"
       id="path7438-3-6-8-4-4-4"
       inkscape:connector-curvature="0" />
    <path
       style="fill:#000000;fill-opacity:1;stroke:none;stroke-width:2.19008"
       d="m 325.38235,-171.19687 c -7.58189,0 -13.71597,6.14076 -13.71597,13.70504 0,2.96901 0.92927,5.71558 2.53832,7.95913 -5.28499,0.62999 -9.38579,4.92825 -9.38579,10.17236 0,5.6775 4.79438,10.27879 10.70838,10.27879 3.84678,0 7.19906,-1.94961 9.08732,-4.87337 -0.34137,6.7238 -1.8027,13.2743 -7.14621,14.08809 -0.11709,0.0175 -0.24021,0.0518 -0.36241,0.0639 h -0.70408 v 0.34048 h 8.98044 8.98074 v -0.34048 H 333.659 c -0.12301,-0.0109 -0.24319,-0.0455 -0.36269,-0.0639 -5.33783,-0.81296 -6.80273,-7.35034 -7.14593,-14.06683 1.89008,2.91528 5.24715,4.85211 9.08734,4.85211 5.914,0 10.70836,-4.60129 10.70836,-10.27879 0,-5.25065 -4.09148,-9.57209 -9.38607,-10.19363 1.60302,-2.24098 2.55992,-4.97498 2.55992,-7.93786 0,-7.56428 -6.15539,-13.70504 -13.73758,-13.70504 z"
       id="path7438-3-6-8-4-4-7"
       inkscape:connector-curvature="0" />
    <path
       style="fill:#000000;fill-opacity:1;stroke:none;stroke-width:2.19008"
       d="m 325.38284,-28.353262 c 7.5819,0 13.71597,-6.140765 13.71597,-13.705022 0,-2.969024 -0.92927,-5.715602 -2.53832,-7.959122 5.28499,-0.629999 9.38579,-4.928257 9.38579,-10.172366 0,-5.677497 -4.79438,-10.27881 -10.70838,-10.27881 -3.84678,0 -7.19906,1.949629 -9.08732,4.873372 0.34137,-6.723776 1.8027,-13.274282 7.14621,-14.088074 0.11709,-0.0175 0.24021,-0.05184 0.36241,-0.06387 h 0.70409 v -0.340484 h -8.98045 -8.98074 v 0.340484 h 0.70409 c 0.12301,0.01094 0.24319,0.0455 0.36269,0.06387 5.33783,0.812961 6.80273,7.350341 7.14593,14.066812 -1.89008,-2.915278 -5.24714,-4.85211 -9.08734,-4.85211 -5.914,0 -10.70836,4.601313 -10.70836,10.27881 0,5.250628 4.09148,9.572073 9.38607,10.193629 -1.60302,2.240982 -2.55992,4.974982 -2.55992,7.937859 0,7.564257 6.15539,13.705022 13.73758,13.705022 z"
       id="path7438-3-6-8-4-4-3"
       inkscape:connector-curvature="0" />
  </g>
</svg>
