<?xml version="1.0" encoding="UTF-8" standalone="no"?>
<svg
   xmlns:dc="http://purl.org/dc/elements/1.1/"
   xmlns:cc="http://creativecommons.org/ns#"
   xmlns:rdf="http://www.w3.org/1999/02/22-rdf-syntax-ns#"
   xmlns:svg="http://www.w3.org/2000/svg"
   xmlns="http://www.w3.org/2000/svg"
   xmlns:sodipodi="http://sodipodi.sourceforge.net/DTD/sodipodi-0.dtd"
   xmlns:inkscape="http://www.inkscape.org/namespaces/inkscape"
   inkscape:version="1.0 (4035a4fb49, 2020-05-01)"
   sodipodi:docname="3D.svg"
   id="svg26"
   version="1.1"
   width="2.25in"
   viewBox="-106 -164.5 212 329"
   preserveAspectRatio="none"
   height="3.5in"
   face="3D"
   class="card">
  <metadata
     id="metadata32">
    <rdf:RDF>
      <cc:Work
         rdf:about="">
        <dc:format>image/svg+xml</dc:format>
        <dc:type
           rdf:resource="http://purl.org/dc/dcmitype/StillImage" />
      </cc:Work>
    </rdf:RDF>
  </metadata>
  <defs
     id="defs30" />
  <sodipodi:namedview
     inkscape:current-layer="svg26"
     inkscape:window-maximized="1"
     inkscape:window-y="-12"
     inkscape:window-x="-12"
     inkscape:cy="168"
     inkscape:cx="108"
     inkscape:zoom="2.2410714"
     showgrid="false"
     id="namedview28"
     inkscape:window-height="2050"
     inkscape:window-width="3240"
     inkscape:pageshadow="2"
     inkscape:pageopacity="0"
     guidetolerance="10"
     gridtolerance="10"
     objecttolerance="10"
     borderopacity="1"
     bordercolor="#666666"
     pagecolor="#ffffff" />
  <symbol
     preserveAspectRatio="xMinYMid"
     viewBox="-600 -600 1200 1200"
     id="SD3">
    <path
       id="path2"
       fill="red"
       d="M-400 0C-350 0 0 -450 0 -500C0 -450 350 0 400 0C350 0 0 450 0 500C0 450 -350 0 -400 0Z" />
  </symbol>
  <symbol
     preserveAspectRatio="xMinYMid"
     viewBox="-500 -500 1000 1000"
     id="VD3">
    <path
       id="path5"
       fill="none"
       stroke-miterlimit="1.5"
       stroke-linecap="square"
       stroke-width="80"
       stroke="red"
       d="M-250 -320L-250 -460L200 -460L-110 -80C-100 -90 -50 -120 0 -120C200 -120 250 0 250 150C250 350 170 460 -30 460C-230 460 -260 300 -260 300" />
  </symbol>
  <rect
     id="rect8"
     stroke="black"
     fill="white"
     ry="12"
     rx="12"
     y="-164"
     x="-105.5"
     height="328"
     width="211" />
  <g
     transform="translate(-253.12055,51.337962)"
     id="g894">
    <path
       d="m 159.91257,-184.44916 c -2e-5,-1.38766 0.25979,-2.68365 0.77943,-3.88793 0.5196,-1.20424 1.22309,-2.25697 2.11044,-3.1582 0.88733,-0.90116 1.92256,-1.61096 3.1057,-2.1294 1.18312,-0.51835 2.44618,-0.77754 3.78922,-0.77759 1.34298,5e-5 2.60605,0.26323 3.78919,0.78956 1.18312,0.5264 2.21835,1.24418 3.10572,2.15333 0.88733,0.90921 1.5908,1.96194 2.11044,3.1582 0.5196,1.1963 0.77941,2.48031 0.77943,3.85203 -2e-5,2.64781 -0.9833,5.00051 -2.94984,7.05809 3.18163,2.53616 4.77247,5.71827 4.7725,9.54639 -3e-5,1.61101 -0.30382,3.13029 -0.91134,4.55785 -0.60757,1.42758 -1.43896,2.6757 -2.49416,3.74438 -1.05525,1.06868 -2.28634,1.91406 -3.69327,2.53612 -1.40699,0.62208 -2.90987,0.93312 -4.50867,0.93312 -1.59885,0 -3.10173,-0.30706 -4.50868,-0.92115 -1.40697,-0.61408 -2.63807,-1.45548 -3.69329,-2.52416 -1.05522,-1.06868 -1.88661,-2.3168 -2.49416,-3.74438 -0.60754,-1.42756 -0.91132,-2.95483 -0.91132,-4.58178 0,-0.73371 0.23583,-1.33984 0.70747,-1.81836 0.47166,-0.47851 1.06722,-0.71776 1.7867,-0.71778 0.70347,2e-5 1.29902,0.23927 1.78667,0.71778 0.48763,0.47852 0.73145,1.08465 0.73145,1.81836 0,0.94109 0.17191,1.81836 0.51563,2.63182 0.34375,0.81349 0.8114,1.51931 1.40296,2.11744 0.59156,0.59815 1.28705,1.07268 2.08648,1.42358 0.79938,0.35091 1.66274,0.52637 2.59009,0.52637 0.91129,0 1.77066,-0.17937 2.57809,-0.53834 0.80739,-0.35888 1.50687,-0.84138 2.09845,-1.44751 0.59154,-0.60611 1.05919,-1.31589 1.40296,-2.12938 0.34372,-0.81346 0.51561,-1.67479 0.51563,-2.58398 -2e-5,-0.90917 -0.17191,-1.77049 -0.51563,-2.58398 -0.34377,-0.81346 -0.81142,-1.52326 -1.40296,-2.1294 -0.59158,-0.60611 -1.29106,-1.08861 -2.09845,-1.44751 -0.80743,-0.35886 -1.6668,-0.5383 -2.57809,-0.53832 -0.71948,2e-5 -1.31905,-0.24323 -1.79869,-0.72975 -0.47965,-0.48645 -0.71948,-1.08858 -0.71946,-1.80639 -2e-5,-0.73369 0.23981,-1.33982 0.71946,-1.81836 0.47964,-0.47849 1.07921,-0.71774 1.79869,-0.71776 0.63951,2e-5 1.25105,-0.12753 1.83465,-0.38281 0.58353,-0.25519 1.09116,-0.60211 1.52287,-1.04077 0.43165,-0.43861 0.77539,-0.95303 1.03123,-1.54321 0.2558,-0.59015 0.3837,-1.21223 0.38372,-1.86622 -2e-5,-0.66988 -0.12783,-1.29992 -0.38372,-1.89013 -0.25584,-0.59014 -0.60357,-1.10453 -1.04322,-1.54322 -0.4397,-0.43859 -0.94732,-0.78951 -1.52288,-1.05273 -0.5756,-0.26315 -1.18314,-0.39473 -1.82265,-0.39478 -0.65555,5e-5 -1.27508,0.13169 -1.85864,0.39478 -0.58358,0.26322 -1.09121,0.61414 -1.52288,1.05273 -0.43169,0.43869 -0.77543,0.95308 -1.03123,1.54322 -0.25582,0.59021 -0.37574,1.22025 -0.35975,1.89013 0,0.68591 -0.24383,1.27607 -0.73145,1.77051 -0.48765,0.49449 -1.0832,0.74172 -1.78668,0.7417 -0.68751,2e-5 -1.27508,-0.24721 -1.76271,-0.7417 -0.48765,-0.49444 -0.73147,-1.0846 -0.73145,-1.77051 z"
       style="font-style:normal;font-variant:normal;font-weight:bold;font-stretch:normal;font-size:22.4px;line-height:125%;font-family:Comfortaa;-inkscape-font-specification:'Comfortaa Bold';letter-spacing:0px;word-spacing:0px;fill:#ff0000;fill-opacity:1;stroke:none;stroke-width:2.19008"
       id="path26216"
       inkscape:connector-curvature="0" />
    <path
       sodipodi:nodetypes="ccccc"
       inkscape:connector-curvature="0"
       id="path11632-5"
       d="m 153.19083,-127.00653 16.50664,-20.64873 16.50641,20.64871 -16.50663,24.17093 z"
       style="fill:none;stroke:#ff0000;stroke-width:2.19008;stroke-opacity:1" />
    <path
       d="m 346.32854,81.773243 c 3e-5,1.387661 -0.25978,2.683644 -0.77942,3.887927 -0.5196,1.204239 -1.2231,2.256972 -2.11045,3.158199 -0.88733,0.901162 -1.92255,1.610961 -3.10569,2.129398 -1.18312,0.518349 -2.44619,0.777546 -3.78922,0.77759 -1.34299,-4.4e-5 -2.60605,-0.263222 -3.7892,-0.789556 -1.18312,-0.526399 -2.21834,-1.244183 -3.10571,-2.153307 -0.88733,-0.909211 -1.59081,-1.961944 -2.11045,-3.158199 -0.51959,-1.196321 -0.7794,-2.480338 -0.77943,-3.852052 3e-5,-2.647813 0.98331,-5.00051 2.94985,-7.058092 -3.18163,-2.536163 -4.77248,-5.718272 -4.7725,-9.546392 2e-5,-1.611005 0.30381,-3.130287 0.91134,-4.557848 0.60756,-1.427583 1.43896,-2.675703 2.49416,-3.744383 1.05524,-1.06868 2.28634,-1.914061 3.69326,-2.536119 1.407,-0.622081 2.90987,-0.933121 4.50868,-0.933121 1.59885,0 3.10173,0.307059 4.50868,0.921155 1.40696,0.614096 2.63806,1.455473 3.69328,2.524153 1.05522,1.068681 1.88662,2.316823 2.49416,3.744384 0.60755,1.427561 0.91132,2.954828 0.91132,4.581779 0,0.733708 -0.23582,1.339842 -0.70746,1.818357 -0.47167,0.478515 -1.06722,0.717762 -1.7867,0.717784 -0.70347,-2.2e-5 -1.29903,-0.239269 -1.78667,-0.717784 -0.48763,-0.478515 -0.73146,-1.084649 -0.73146,-1.818357 0,-0.941083 -0.1719,-1.818357 -0.51563,-2.631822 -0.34374,-0.813487 -0.81139,-1.519305 -1.40295,-2.117432 -0.59156,-0.598149 -1.28706,-1.072683 -2.08648,-1.42358 -0.79938,-0.350918 -1.66274,-0.526377 -2.59009,-0.526377 -0.9113,0 -1.77067,0.179375 -2.5781,0.538343 -0.80738,0.358881 -1.50686,0.841377 -2.09845,1.447511 -0.59153,0.606112 -1.05919,1.315911 -1.40295,2.129375 -0.34373,0.813465 -0.51561,1.674792 -0.51563,2.583982 2e-5,0.909168 0.1719,1.770495 0.51563,2.583981 0.34376,0.813465 0.81142,1.523264 1.40295,2.129398 0.59159,0.606112 1.29107,1.088608 2.09845,1.447511 0.80743,0.358859 1.6668,0.538321 2.5781,0.538321 0.71948,0 1.31904,0.243228 1.79869,0.729749 0.47965,0.486456 0.71948,1.088586 0.71946,1.806392 2e-5,0.733708 -0.23981,1.33982 -0.71946,1.818357 -0.47965,0.478493 -1.07921,0.71774 -1.79869,0.717762 -0.63951,-2.2e-5 -1.25105,0.127531 -1.83465,0.382812 -0.58354,0.255193 -1.09116,0.602109 -1.52287,1.040767 -0.43165,0.438616 -0.7754,0.953027 -1.03124,1.543214 -0.2558,0.590143 -0.38369,1.212224 -0.38372,1.86622 3e-5,0.669899 0.12784,1.299942 0.38372,1.890129 0.25584,0.590143 0.60358,1.104533 1.04323,1.543214 0.4397,0.438615 0.94732,0.789512 1.52287,1.052733 0.5756,0.263156 1.18315,0.394734 1.82266,0.394778 0.65554,-4.4e-5 1.27508,-0.131688 1.85864,-0.394778 0.58358,-0.263221 1.0912,-0.614118 1.52287,-1.052733 0.43169,-0.438681 0.77544,-0.953071 1.03124,-1.543214 0.25581,-0.590187 0.37573,-1.22023 0.35975,-1.890129 0,-0.685912 0.24382,-1.276077 0.73145,-1.770517 0.48765,-0.494484 1.0832,-0.741715 1.78667,-0.741693 0.68752,-2.2e-5 1.27508,0.247209 1.76271,0.741693 0.48765,0.49444 0.73148,1.084605 0.73145,1.770517 z"
       style="font-style:normal;font-variant:normal;font-weight:bold;font-stretch:normal;font-size:22.4px;line-height:125%;font-family:Comfortaa;-inkscape-font-specification:'Comfortaa Bold';letter-spacing:0px;word-spacing:0px;fill:#ff0000;fill-opacity:1;stroke:none;stroke-width:2.19008"
       id="path26204"
       inkscape:connector-curvature="0" />
    <path
       sodipodi:nodetypes="ccccc"
       inkscape:connector-curvature="0"
       id="path11632-3"
       d="M 353.05028,24.330587 336.54365,44.979316 320.03724,24.330609 336.54387,0.15968003 Z"
       style="fill:none;stroke:#ff0000;stroke-width:2.19008;stroke-opacity:1" />
    <path
       style="fill:#ff0000;fill-opacity:1;stroke:none;stroke-width:2.19008"
       d="m 233.8732,-144.2722 19.24749,-24.07735 19.24722,24.07732 -19.24748,28.1844 z"
       id="path7442-14-5"
       inkscape:connector-curvature="0"
       sodipodi:nodetypes="ccccc" />
    <path
       style="fill:#ff0000;fill-opacity:1;stroke:none;stroke-width:2.19008"
       d="m 233.8732,-54.584807 19.24749,-24.077348 19.24722,24.077326 -19.24748,28.184396 z"
       id="path7442-14-02"
       inkscape:connector-curvature="0"
       sodipodi:nodetypes="ccccc" />
    <path
       style="fill:#ff0000;fill-opacity:1;stroke:none;stroke-width:2.19008"
       d="M 272.36791,41.377645 253.12043,65.454993 233.8732,41.377667 253.12069,13.193271 Z"
       id="path7442-14-86"
       inkscape:connector-curvature="0"
       sodipodi:nodetypes="ccccc" />
  </g>
</svg>
