<?xml version="1.0" encoding="UTF-8" standalone="no"?>
<svg
   xmlns:dc="http://purl.org/dc/elements/1.1/"
   xmlns:cc="http://creativecommons.org/ns#"
   xmlns:rdf="http://www.w3.org/1999/02/22-rdf-syntax-ns#"
   xmlns:svg="http://www.w3.org/2000/svg"
   xmlns="http://www.w3.org/2000/svg"
   xmlns:sodipodi="http://sodipodi.sourceforge.net/DTD/sodipodi-0.dtd"
   xmlns:inkscape="http://www.inkscape.org/namespaces/inkscape"
   inkscape:version="1.0 (4035a4fb49, 2020-05-01)"
   sodipodi:docname="3H.svg"
   id="svg26"
   version="1.1"
   width="2.25in"
   viewBox="-106 -164.5 212 329"
   preserveAspectRatio="none"
   height="3.5in"
   face="3H"
   class="card">
  <metadata
     id="metadata32">
    <rdf:RDF>
      <cc:Work
         rdf:about="">
        <dc:format>image/svg+xml</dc:format>
        <dc:type
           rdf:resource="http://purl.org/dc/dcmitype/StillImage" />
      </cc:Work>
    </rdf:RDF>
  </metadata>
  <defs
     id="defs30" />
  <sodipodi:namedview
     inkscape:current-layer="svg26"
     inkscape:window-maximized="1"
     inkscape:window-y="-12"
     inkscape:window-x="-12"
     inkscape:cy="168"
     inkscape:cx="108"
     inkscape:zoom="2.2410714"
     showgrid="false"
     id="namedview28"
     inkscape:window-height="2050"
     inkscape:window-width="3240"
     inkscape:pageshadow="2"
     inkscape:pageopacity="0"
     guidetolerance="10"
     gridtolerance="10"
     objecttolerance="10"
     borderopacity="1"
     bordercolor="#666666"
     pagecolor="#ffffff" />
  <symbol
     preserveAspectRatio="xMinYMid"
     viewBox="-600 -600 1200 1200"
     id="SH3">
    <path
       id="path2"
       fill="red"
       d="M0 -300C0 -400 100 -500 200 -500C300 -500 400 -400 400 -250C400 0 0 400 0 500C0 400 -400 0 -400 -250C-400 -400 -300 -500 -200 -500C-100 -500 0 -400 -0 -300Z" />
  </symbol>
  <symbol
     preserveAspectRatio="xMinYMid"
     viewBox="-500 -500 1000 1000"
     id="VH3">
    <path
       id="path5"
       fill="none"
       stroke-miterlimit="1.5"
       stroke-linecap="square"
       stroke-width="80"
       stroke="red"
       d="M-250 -320L-250 -460L200 -460L-110 -80C-100 -90 -50 -120 0 -120C200 -120 250 0 250 150C250 350 170 460 -30 460C-230 460 -260 300 -260 300" />
  </symbol>
  <rect
     id="rect8"
     stroke="black"
     fill="white"
     ry="12"
     rx="12"
     y="-164"
     x="-105.5"
     height="328"
     width="211" />
  <g
     transform="translate(-240.8579,105.07893)"
     id="g894">
    <path
       d="m 147.64991,-238.19006 c -2e-5,-1.38767 0.25979,-2.68365 0.77943,-3.88793 0.5196,-1.20424 1.22309,-2.25697 2.11044,-3.1582 0.88733,-0.90116 1.92256,-1.61096 3.1057,-2.1294 1.18312,-0.51835 2.44618,-0.77754 3.78922,-0.77759 1.34298,5e-5 2.60605,0.26322 3.78919,0.78956 1.18312,0.5264 2.21835,1.24418 3.10572,2.1533 0.88733,0.90924 1.5908,1.96197 2.11044,3.1582 0.5196,1.19632 0.77941,2.48034 0.77943,3.85206 -2e-5,2.64781 -0.9833,5.00051 -2.94984,7.05809 3.18163,2.53616 4.77247,5.71827 4.7725,9.54639 -3e-5,1.611 -0.30382,3.13029 -0.91134,4.55785 -0.60757,1.42758 -1.43896,2.6757 -2.49416,3.74438 -1.05525,1.06868 -2.28634,1.91406 -3.69327,2.53612 -1.40699,0.62208 -2.90987,0.93312 -4.50867,0.93312 -1.59885,0 -3.10173,-0.30706 -4.50868,-0.92115 -1.40697,-0.6141 -2.63807,-1.45548 -3.69329,-2.52416 -1.05522,-1.06868 -1.88661,-2.3168 -2.49416,-3.74438 -0.60754,-1.42756 -0.91132,-2.95483 -0.91132,-4.58178 0,-0.73371 0.23583,-1.33984 0.70747,-1.81836 0.47166,-0.47851 1.06722,-0.71776 1.7867,-0.71778 0.70347,2e-5 1.29902,0.23927 1.78667,0.71778 0.48763,0.47852 0.73145,1.08465 0.73145,1.81836 0,0.94108 0.17191,1.81836 0.51563,2.63182 0.34375,0.81349 0.8114,1.51931 1.40296,2.11743 0.59156,0.59815 1.28705,1.07269 2.08648,1.42358 0.79938,0.35092 1.66274,0.52638 2.59009,0.52638 0.91129,0 1.77066,-0.17937 2.57809,-0.53834 0.80739,-0.35888 1.50687,-0.84138 2.09845,-1.44751 0.59154,-0.60612 1.05919,-1.31589 1.40296,-2.12938 0.34372,-0.81346 0.51561,-1.67479 0.51563,-2.58398 -2e-5,-0.90917 -0.17191,-1.7705 -0.51563,-2.58398 -0.34377,-0.81347 -0.81142,-1.52327 -1.40296,-2.1294 -0.59158,-0.60611 -1.29106,-1.08861 -2.09845,-1.44751 -0.80743,-0.35886 -1.6668,-0.5383 -2.57809,-0.53832 -0.71948,2e-5 -1.31905,-0.24323 -1.79869,-0.72975 -0.47965,-0.48646 -0.71948,-1.08859 -0.71946,-1.80639 -2e-5,-0.73369 0.23981,-1.33982 0.71946,-1.81836 0.47964,-0.47849 1.07921,-0.71774 1.79869,-0.71776 0.63951,2e-5 1.25105,-0.12753 1.83465,-0.38281 0.58353,-0.2552 1.09116,-0.60211 1.52287,-1.04077 0.43165,-0.43862 0.77539,-0.95303 1.03123,-1.54322 0.2558,-0.59014 0.3837,-1.21222 0.38372,-1.86621 -2e-5,-0.66988 -0.12783,-1.29993 -0.38372,-1.89013 -0.25584,-0.59015 -0.60357,-1.10454 -1.04322,-1.54322 -0.4397,-0.43859 -0.94732,-0.78951 -1.52288,-1.05273 -0.5756,-0.26316 -1.18314,-0.39473 -1.82265,-0.39478 -0.65555,5e-5 -1.27508,0.13169 -1.85864,0.39478 -0.58358,0.26322 -1.09121,0.61414 -1.52288,1.05273 -0.43169,0.43868 -0.77543,0.95307 -1.03123,1.54322 -0.25582,0.5902 -0.37574,1.22025 -0.35975,1.89013 0,0.68591 -0.24383,1.27607 -0.73145,1.77051 -0.48765,0.49449 -1.0832,0.74172 -1.78668,0.74169 -0.68751,3e-5 -1.27508,-0.2472 -1.76271,-0.74169 -0.48765,-0.49444 -0.73147,-1.0846 -0.73145,-1.77051 z"
       style="font-style:normal;font-variant:normal;font-weight:bold;font-stretch:normal;font-size:22.4px;line-height:125%;font-family:Comfortaa;-inkscape-font-specification:'Comfortaa Bold';letter-spacing:0px;word-spacing:0px;fill:#ff0000;fill-opacity:1;stroke:none;stroke-width:2.19008"
       id="path26219"
       inkscape:connector-curvature="0" />
    <path
       style="fill:#ff0000;fill-opacity:1;stroke:none;stroke-width:2.19008"
       d="m 148.19301,-193.92255 c -1.33527,0.0446 -2.69145,0.38788 -3.98745,1.1879 -5.92468,3.65721 -9.51836,10.63371 -2.99061,18.14993 3.66755,4.22292 13.5596,6.1557 15.4237,12.08612 0.77289,2.62729 0.45364,7.50099 0.7892,7.48649 0.33557,0.0153 0.03,-4.8592 0.80303,-7.48649 1.86414,-5.93042 11.75621,-7.8632 15.42376,-12.08612 6.5277,-7.51622 2.93405,-14.49272 -2.99061,-18.14993 -5.92472,-3.65717 -13.20848,2.26528 -13.20848,2.26528 l -0.0417,0.0551 v -0.0551 c 0,0 -4.45219,-3.61248 -9.22096,-3.45318 z"
       id="path11610-5"
       inkscape:connector-curvature="0"
       sodipodi:nodetypes="csscccssccccc" />
    <path
       d="m 334.06588,28.032209 c 3e-5,1.387661 -0.25978,2.683644 -0.77942,3.887927 -0.5196,1.204239 -1.2231,2.256972 -2.11045,3.158199 -0.88733,0.901162 -1.92255,1.610961 -3.10569,2.129398 -1.18312,0.518349 -2.44619,0.777546 -3.78922,0.77759 -1.34299,-4.4e-5 -2.60605,-0.263222 -3.7892,-0.789556 -1.18312,-0.526399 -2.21834,-1.244183 -3.10571,-2.153328 -0.88733,-0.909212 -1.59081,-1.961945 -2.11045,-3.1582 -0.51959,-1.196299 -0.7794,-2.480316 -0.77943,-3.85203 3e-5,-2.647812 0.98331,-5.00051 2.94985,-7.058092 -3.18163,-2.536163 -4.77248,-5.718271 -4.7725,-9.546392 2e-5,-1.6110044 0.30381,-3.1302871 0.91134,-4.5578479 0.60756,-1.4275828 1.43896,-2.6757032 2.49416,-3.7443833 1.05524,-1.06868 2.28634,-1.9140603 3.69326,-2.53611893 1.407,-0.62208054 2.90987,-0.93312081 4.50868,-0.93312081 1.59885,0 3.10173,0.30705902 4.50868,0.92115519 1.40696,0.61407435 2.63806,1.45547335 3.69328,2.52415335 1.05522,1.06868 1.88662,2.3168005 2.49416,3.7443832 0.60755,1.4275609 0.91132,2.9548279 0.91132,4.5817792 0,0.733709 -0.23582,1.339842 -0.70746,1.818357 -0.47167,0.478515 -1.06722,0.717762 -1.7867,0.717784 -0.70347,-2.2e-5 -1.29903,-0.239269 -1.78667,-0.717784 -0.48763,-0.478515 -0.73146,-1.084648 -0.73146,-1.818357 0,-0.941083 -0.1719,-1.8183573 -0.51563,-2.631822 -0.34374,-0.8134866 -0.81139,-1.5193045 -1.40295,-2.117432 -0.59156,-0.5981493 -1.28706,-1.0726831 -2.08648,-1.4235796 -0.79938,-0.3509183 -1.66274,-0.5263775 -2.59009,-0.5263775 -0.9113,0 -1.77067,0.1793748 -2.5781,0.5383431 -0.80738,0.3588809 -1.50686,0.8413772 -2.09845,1.4475109 -0.59153,0.6061118 -1.05919,1.3158891 -1.40295,2.1293757 -0.34373,0.8134647 -0.51561,1.6747914 -0.51563,2.5839814 2e-5,0.909168 0.1719,1.770495 0.51563,2.583981 0.34376,0.813465 0.81142,1.523264 1.40295,2.129398 0.59159,0.606112 1.29107,1.088608 2.09845,1.447511 0.80743,0.358859 1.6668,0.538299 2.5781,0.538321 0.71948,-2.2e-5 1.31904,0.243228 1.79869,0.729749 0.47965,0.486456 0.71948,1.088586 0.71946,1.806392 2e-5,0.733687 -0.23981,1.33982 -0.71946,1.818357 -0.47965,0.478493 -1.07921,0.71774 -1.79869,0.717762 -0.63951,-2.2e-5 -1.25105,0.127531 -1.83465,0.382812 -0.58354,0.255193 -1.09116,0.602109 -1.52287,1.040768 -0.43165,0.438615 -0.7754,0.953027 -1.03124,1.543213 -0.2558,0.590143 -0.38369,1.212224 -0.38372,1.86622 3e-5,0.669877 0.12784,1.299921 0.38372,1.890129 0.25584,0.590143 0.60358,1.104533 1.04323,1.543214 0.4397,0.438593 0.94732,0.789512 1.52287,1.052733 0.5756,0.263156 1.18315,0.394734 1.82266,0.394778 0.65554,-4.4e-5 1.27508,-0.131687 1.85864,-0.394778 0.58358,-0.263221 1.0912,-0.61414 1.52287,-1.052733 0.43169,-0.438681 0.77544,-0.953071 1.03124,-1.543214 0.25581,-0.590208 0.37573,-1.220252 0.35975,-1.890129 0,-0.685912 0.24382,-1.276077 0.73145,-1.770517 0.48765,-0.494483 1.0832,-0.741714 1.78667,-0.741693 0.68752,-2.1e-5 1.27508,0.24721 1.76271,0.741693 0.48765,0.49444 0.73148,1.084605 0.73145,1.770517 z"
       style="font-style:normal;font-variant:normal;font-weight:bold;font-stretch:normal;font-size:22.4px;line-height:125%;font-family:Comfortaa;-inkscape-font-specification:'Comfortaa Bold';letter-spacing:0px;word-spacing:0px;fill:#ff0000;fill-opacity:1;stroke:none;stroke-width:2.19008"
       id="path26207"
       inkscape:connector-curvature="0" />
    <path
       style="fill:#ff0000;fill-opacity:1;stroke:none;stroke-width:2.19008"
       d="m 333.52278,-16.235434 c 1.33527,-0.04462 2.69146,-0.387887 3.98746,-1.187899 5.92468,-3.657211 9.51835,-10.633709 2.9906,-18.149929 -3.66754,-4.22292 -13.55959,-6.155705 -15.42369,-12.08612 -0.7729,-2.627294 -0.45364,-7.500995 -0.78921,-7.486492 -0.33557,-0.01531 -0.03,4.859198 -0.80302,7.486492 -1.86414,5.930415 -11.75621,7.8632 -15.42376,12.08612 -6.52771,7.51622 -2.93405,14.492718 2.9906,18.149929 5.92473,3.657168 13.20849,-2.265285 13.20849,-2.265285 l 0.0417,-0.05512 v 0.05512 c 0,0 4.45219,3.612478 9.22096,3.453184 z"
       id="path11610-9"
       inkscape:connector-curvature="0"
       sodipodi:nodetypes="csscccssccccc" />
    <path
       sodipodi:nodetypes="csscccssccccc"
       inkscape:connector-curvature="0"
       id="path7440-26-1"
       d="m 228.23942,-222.73756 c -1.82314,0.061 -3.67483,0.52961 -5.44436,1.62194 -8.08941,4.99345 -12.99612,14.51899 -4.08329,24.78144 5.00757,5.76585 18.51391,8.40482 21.05911,16.50206 1.05529,3.58724 0.61939,10.24167 1.07757,10.22185 0.45816,0.0219 0.041,-6.63461 1.09642,-10.22185 2.54525,-8.09724 16.05161,-10.73621 21.05918,-16.50206 8.91276,-10.26245 4.00609,-19.78799 -4.08327,-24.78144 -8.08948,-4.9934 -18.03453,3.09295 -18.03453,3.09295 l -0.0568,0.0753 v -0.0753 c 0,0 -6.07891,-4.93237 -12.59006,-4.71489 z"
       style="fill:#ff0000;fill-opacity:1;stroke:none;stroke-width:2.19008" />
    <path
       sodipodi:nodetypes="csscccssccccc"
       inkscape:connector-curvature="0"
       id="path7440-26-9"
       d="m 228.23942,-130.86267 c -1.82314,0.061 -3.67483,0.52962 -5.44436,1.62195 -8.08941,4.99344 -12.99612,14.51899 -4.08329,24.78143 5.00757,5.765853 18.51391,8.404828 21.05911,16.502069 1.05529,3.587234 0.61939,10.241667 1.07757,10.221848 0.45816,0.02187 0.041,-6.634614 1.09642,-10.221848 2.54525,-8.097241 16.05161,-10.736216 21.05918,-16.502069 8.91276,-10.26244 4.00609,-19.78799 -4.08327,-24.78143 -8.08948,-4.9934 -18.03453,3.09294 -18.03453,3.09294 l -0.0568,0.0752 v -0.0752 c 0,0 -6.07891,-4.93237 -12.59006,-4.71489 z"
       style="fill:#ff0000;fill-opacity:1;stroke:none;stroke-width:2.19008" />
    <path
       sodipodi:nodetypes="csscccssccccc"
       inkscape:connector-curvature="0"
       id="path7440-26-86"
       d="m 253.47638,12.798214 c 1.82314,-0.06103 3.67482,-0.529615 5.44435,-1.621942 8.08941,-4.9934442 12.99613,-14.5189895 4.0833,-24.781437 -5.00757,-5.76585 -18.51391,-8.404825 -21.05912,-16.502066 -1.05528,-3.587233 -0.61938,-10.241666 -1.07756,-10.221847 -0.45816,-0.02187 -0.041,6.634614 -1.09642,10.221847 -2.54525,8.097241 -16.05161,10.736216 -21.05919,16.502066 -8.91276,10.2624475 -4.00609,19.7879928 4.08328,24.781437 8.08948,4.993401 18.03453,-3.0929463 18.03453,-3.0929463 l 0.0568,-0.07525 v 0.07525 c 0,0 6.07891,4.9323693 12.59006,4.7148883 z"
       style="fill:#ff0000;fill-opacity:1;stroke:none;stroke-width:2.19008" />
  </g>
</svg>
