<?xml version="1.0" encoding="UTF-8" standalone="no"?>
<svg
   xmlns:dc="http://purl.org/dc/elements/1.1/"
   xmlns:cc="http://creativecommons.org/ns#"
   xmlns:rdf="http://www.w3.org/1999/02/22-rdf-syntax-ns#"
   xmlns:svg="http://www.w3.org/2000/svg"
   xmlns="http://www.w3.org/2000/svg"
   xmlns:sodipodi="http://sodipodi.sourceforge.net/DTD/sodipodi-0.dtd"
   xmlns:inkscape="http://www.inkscape.org/namespaces/inkscape"
   inkscape:version="1.0 (4035a4fb49, 2020-05-01)"
   sodipodi:docname="3S.svg"
   id="svg26"
   version="1.1"
   width="2.25in"
   viewBox="-106 -164.5 212 329"
   preserveAspectRatio="none"
   height="3.5in"
   face="3S"
   class="card">
  <metadata
     id="metadata32">
    <rdf:RDF>
      <cc:Work
         rdf:about="">
        <dc:format>image/svg+xml</dc:format>
        <dc:type
           rdf:resource="http://purl.org/dc/dcmitype/StillImage" />
      </cc:Work>
    </rdf:RDF>
  </metadata>
  <defs
     id="defs30" />
  <sodipodi:namedview
     inkscape:current-layer="svg26"
     inkscape:window-maximized="1"
     inkscape:window-y="-12"
     inkscape:window-x="-12"
     inkscape:cy="168"
     inkscape:cx="108"
     inkscape:zoom="2.2410714"
     showgrid="false"
     id="namedview28"
     inkscape:window-height="2050"
     inkscape:window-width="3240"
     inkscape:pageshadow="2"
     inkscape:pageopacity="0"
     guidetolerance="10"
     gridtolerance="10"
     objecttolerance="10"
     borderopacity="1"
     bordercolor="#666666"
     pagecolor="#ffffff" />
  <symbol
     preserveAspectRatio="xMinYMid"
     viewBox="-600 -600 1200 1200"
     id="SS3">
    <path
       id="path2"
       fill="black"
       d="M0 -500C100 -250 355 -100 355 185A150 150 0 0 1 55 185A10 10 0 0 0 35 185C35 385 85 400 130 500L-130 500C-85 400 -35 385 -35 185A10 10 0 0 0 -55 185A150 150 0 0 1 -355 185C-355 -100 -100 -250 0 -500Z" />
  </symbol>
  <symbol
     preserveAspectRatio="xMinYMid"
     viewBox="-500 -500 1000 1000"
     id="VS3">
    <path
       id="path5"
       fill="none"
       stroke-miterlimit="1.5"
       stroke-linecap="square"
       stroke-width="80"
       stroke="black"
       d="M-250 -320L-250 -460L200 -460L-110 -80C-100 -90 -50 -120 0 -120C200 -120 250 0 250 150C250 350 170 460 -30 460C-230 460 -260 300 -260 300" />
  </symbol>
  <rect
     id="rect8"
     stroke="black"
     fill="white"
     ry="12"
     rx="12"
     y="-164"
     x="-105.5"
     height="328"
     width="211" />
  <g
     transform="translate(-304.79887,124.30346)"
     id="g894">
    <path
       d="m 211.59089,-257.41458 c -2e-5,-1.38766 0.25979,-2.68365 0.77943,-3.88795 0.5196,-1.20422 1.22309,-2.25695 2.11044,-3.1582 0.88733,-0.90116 1.92256,-1.61096 3.1057,-2.12938 1.18312,-0.51837 2.44618,-0.77754 3.78922,-0.77759 1.34298,5e-5 2.60605,0.26323 3.78919,0.78954 1.18312,0.52642 2.21835,1.24418 3.10572,2.15333 0.88733,0.90921 1.5908,1.96194 2.11044,3.1582 0.5196,1.19632 0.77941,2.48033 0.77943,3.85205 -2e-5,2.64781 -0.9833,5.00051 -2.94984,7.05809 3.18163,2.53614 4.77247,5.71827 4.7725,9.54637 -3e-5,1.61103 -0.30382,3.13031 -0.91134,4.55787 -0.60757,1.42756 -1.43896,2.6757 -2.49416,3.74436 -1.05525,1.0687 -2.28634,1.91408 -3.69327,2.53614 -1.40699,0.62206 -2.90987,0.9331 -4.50867,0.9331 -1.59885,0 -3.10173,-0.30704 -4.50868,-0.92113 -1.40697,-0.6141 -2.63807,-1.4555 -3.69329,-2.52418 -1.05522,-1.06868 -1.88661,-2.3168 -2.49416,-3.74438 -0.60754,-1.42756 -0.91132,-2.95481 -0.91132,-4.58178 0,-0.73371 0.23583,-1.33982 0.70747,-1.81836 0.47166,-0.47849 1.06722,-0.71776 1.7867,-0.71776 0.70347,0 1.29902,0.23927 1.78667,0.71776 0.48763,0.47854 0.73145,1.08465 0.73145,1.81836 0,0.94111 0.17191,1.81838 0.51563,2.63184 0.34375,0.81349 0.8114,1.51929 1.40296,2.11744 0.59156,0.59815 1.28705,1.07266 2.08648,1.42358 0.79938,0.35091 1.66274,0.52635 2.59009,0.52635 0.91129,0 1.77066,-0.17937 2.57809,-0.53832 0.80739,-0.35888 1.50687,-0.84138 2.09845,-1.44751 0.59154,-0.60611 1.05919,-1.31591 1.40296,-2.1294 0.34372,-0.81346 0.51561,-1.67479 0.51563,-2.58398 -2e-5,-0.90917 -0.17191,-1.77049 -0.51563,-2.58398 -0.34377,-0.81347 -0.81142,-1.52324 -1.40296,-2.1294 -0.59158,-0.60609 -1.29106,-1.08858 -2.09845,-1.44749 -0.80743,-0.35888 -1.6668,-0.53832 -2.57809,-0.53834 -0.71948,2e-5 -1.31905,-0.24323 -1.79869,-0.72973 -0.47965,-0.48648 -0.71948,-1.08861 -0.71946,-1.80639 -2e-5,-0.73371 0.23981,-1.33982 0.71946,-1.81836 0.47964,-0.47849 1.07921,-0.71776 1.79869,-0.71778 0.63951,2e-5 1.25105,-0.12753 1.83465,-0.38281 0.58353,-0.25517 1.09116,-0.60211 1.52287,-1.04077 0.43165,-0.43862 0.77539,-0.95301 1.03123,-1.54321 0.2558,-0.59015 0.3837,-1.21221 0.38372,-1.8662 -2e-5,-0.6699 -0.12783,-1.29994 -0.38372,-1.89015 -0.25584,-0.59012 -0.60357,-1.10454 -1.04322,-1.54319 -0.4397,-0.43862 -0.94732,-0.78954 -1.52288,-1.05274 -0.5756,-0.26315 -1.18314,-0.39475 -1.82265,-0.39478 -0.65555,3e-5 -1.27508,0.13169 -1.85864,0.39478 -0.58358,0.2632 -1.09121,0.61412 -1.52288,1.05274 -0.43169,0.43865 -0.77543,0.95307 -1.03123,1.54319 -0.25582,0.59021 -0.37574,1.22025 -0.35975,1.89015 0,0.68589 -0.24383,1.27605 -0.73145,1.77049 -0.48765,0.49451 -1.0832,0.74174 -1.78668,0.7417 -0.68751,4e-5 -1.27508,-0.24719 -1.76271,-0.7417 -0.48765,-0.49444 -0.73147,-1.0846 -0.73145,-1.77049 z"
       style="font-style:normal;font-variant:normal;font-weight:bold;font-stretch:normal;font-size:22.4px;line-height:125%;font-family:Comfortaa;-inkscape-font-specification:'Comfortaa Bold';letter-spacing:0px;word-spacing:0px;fill:#000000;fill-opacity:1;stroke:none;stroke-width:2.19008"
       id="path26213"
       inkscape:connector-curvature="0" />
    <path
       inkscape:connector-curvature="0"
       style="fill:#000000;fill-opacity:1;stroke:none;stroke-width:2.19008"
       d="m 221.37585,-226.27702 c -0.3357,-0.0219 -0.025,4.86889 -0.79752,7.49658 -1.86453,5.9315 -11.75011,7.86969 -15.41845,12.09353 -6.52902,7.51758 -2.94846,14.48233 2.97732,18.14026 5.62669,3.47331 12.4194,-1.62666 13.09687,-2.15702 -0.009,0.13737 -0.0239,0.27044 -0.0355,0.40665 -0.002,0.03 -0.0154,0.0586 -0.0175,0.0884 -0.83874,5.30076 -7.50018,7.48857 -10.31442,8.18612 h -1.29377 v 0.28288 h 1.86088 9.72957 0.0175 0.38986 0.0175 9.72962 1.86083 v -0.28288 h -1.29372 c -2.81409,-0.69755 -9.47573,-2.88536 -10.31447,-8.18612 -0.004,-0.0298 -0.0154,-0.0584 -0.0175,-0.0884 -0.011,-0.14197 -0.0263,-0.28057 -0.0355,-0.42435 0.33195,0.26326 4.52821,3.52996 9.10933,3.37701 1.33571,-0.0438 2.69133,-0.40215 3.98755,-1.20229 5.92582,-3.65793 9.50634,-10.62268 2.97736,-18.14026 -3.66836,-4.22384 -13.55392,-6.16203 -15.4185,-12.09353 -0.77285,-2.62769 -0.46182,-7.51102 -0.79747,-7.49658 z"
       id="path26478-2" />
    <path
       d="m 398.00686,8.8076701 c 3e-5,1.3876609 -0.25978,2.6836439 -0.77942,3.8879489 -0.5196,1.204217 -1.2231,2.25695 -2.11045,3.158199 -0.88733,0.901162 -1.92255,1.610961 -3.10569,2.129376 -1.18312,0.518371 -2.44619,0.777546 -3.78922,0.77759 -1.34299,-4.4e-5 -2.60605,-0.263222 -3.7892,-0.789534 -1.18312,-0.526421 -2.21834,-1.244183 -3.10571,-2.153329 -0.88733,-0.909211 -1.59081,-1.961944 -2.11045,-3.158199 -0.51959,-1.196321 -0.7794,-2.480338 -0.77943,-3.8520519 3e-5,-2.6478126 0.98331,-5.0005099 2.94985,-7.0580919 -3.18163,-2.53614086 -4.77248,-5.7182716 -4.7725,-9.5463703 2e-5,-1.6110263 0.30381,-3.1303089 0.91134,-4.5578699 0.60756,-1.427561 1.43896,-2.675703 2.49416,-3.744361 1.05524,-1.068702 2.28634,-1.914082 3.69326,-2.536141 1.407,-0.622059 2.90987,-0.933099 4.50868,-0.933099 1.59885,0 3.10173,0.307037 4.50868,0.921133 1.40696,0.614096 2.63806,1.455495 3.69328,2.524175 1.05522,1.068681 1.88662,2.316801 2.49416,3.744384 0.60755,1.427561 0.91132,2.9548057 0.91132,4.5817789 0,0.7337085 -0.23582,1.3398203 -0.70746,1.8183573 -0.47167,0.4784932 -1.06722,0.7177616 -1.7867,0.7177616 -0.70347,0 -1.29903,-0.2392684 -1.78667,-0.7177616 -0.48763,-0.478537 -0.73146,-1.0846488 -0.73146,-1.8183573 0,-0.9411052 -0.1719,-1.8183792 -0.51563,-2.6318439 -0.34374,-0.813487 -0.81139,-1.519283 -1.40295,-2.117432 -0.59156,-0.598149 -1.28706,-1.072661 -2.08648,-1.42358 -0.79938,-0.350918 -1.66274,-0.526355 -2.59009,-0.526355 -0.9113,0 -1.77067,0.179375 -2.5781,0.538321 -0.80738,0.358881 -1.50686,0.841377 -2.09845,1.447511 -0.59153,0.606112 -1.05919,1.315911 -1.40295,2.129397 -0.34373,0.8134651 -0.51561,1.6747923 -0.51563,2.5839819 2e-5,0.9091677 0.1719,1.7704948 0.51563,2.5839814 0.34376,0.8134647 0.81142,1.523242 1.40295,2.1293975 0.59159,0.60609 1.29107,1.0885863 2.09845,1.447489 0.80743,0.3588809 1.6668,0.5383213 2.5781,0.5383431 0.71948,-2.18e-5 1.31904,0.24322789 1.79869,0.72972734 0.47965,0.48647757 0.71948,1.08860813 0.71946,1.80639166 2e-5,0.7337086 -0.23981,1.3398204 -0.71946,1.8183573 -0.47965,0.4784932 -1.07921,0.7177617 -1.79869,0.7177836 -0.63951,-2.19e-5 -1.25105,0.1275311 -1.83465,0.382812 -0.58354,0.2551716 -1.09116,0.6021087 -1.52287,1.0407676 -0.43165,0.4386151 -0.7754,0.9530052 -1.03124,1.5432139 -0.2558,0.590143 -0.38369,1.2122017 -0.38372,1.8661978 3e-5,0.6698993 0.12784,1.2999419 0.38372,1.8901509 0.25584,0.590121 0.60358,1.104533 1.04323,1.543192 0.4397,0.438615 0.94732,0.789534 1.52287,1.052733 0.5756,0.263156 1.18315,0.394756 1.82266,0.394778 0.65554,-2.2e-5 1.27508,-0.131687 1.85864,-0.394778 0.58358,-0.263199 1.0912,-0.614118 1.52287,-1.052733 0.43169,-0.438659 0.77544,-0.953071 1.03124,-1.543192 0.25581,-0.590209 0.37573,-1.2202516 0.35975,-1.8901509 0,-0.6858898 0.24382,-1.2760548 0.73145,-1.7704948 0.48765,-0.4945057 1.0832,-0.7417367 1.78667,-0.7416929 0.68752,-4.38e-5 1.27508,0.2471872 1.76271,0.7416929 0.48765,0.49444 0.73148,1.084605 0.73145,1.7704948 z"
       style="font-style:normal;font-variant:normal;font-weight:bold;font-stretch:normal;font-size:22.4px;line-height:125%;font-family:Comfortaa;-inkscape-font-specification:'Comfortaa Bold';letter-spacing:0px;word-spacing:0px;fill:#000000;fill-opacity:1;stroke:none;stroke-width:2.19008"
       id="path26201"
       inkscape:connector-curvature="0" />
    <path
       inkscape:connector-curvature="0"
       style="fill:#000000;fill-opacity:1;stroke:none;stroke-width:2.19008"
       d="m 388.2219,-22.329891 c 0.33568,0.02188 0.025,-4.868888 0.79752,-7.496576 1.86454,-5.931509 11.75012,-7.869697 15.41845,-12.093536 6.52901,-7.517576 2.94846,-14.482327 -2.97733,-18.140261 -5.62668,-3.473308 -12.41939,1.626667 -13.09686,2.157026 0.009,-0.137375 0.0239,-0.27044 0.0355,-0.406656 0.002,-0.02997 0.0154,-0.05862 0.0175,-0.08837 0.83874,-5.300766 7.50018,-7.488569 10.31443,-8.186118 h 1.29374 v -0.282888 h -1.86085 -9.7296 -0.0175 -0.38988 -0.0175 -9.7296 -1.86085 v 0.282888 h 1.29374 c 2.8141,0.697549 9.47573,2.885352 10.31445,8.186118 0.004,0.02975 0.0154,0.05841 0.0175,0.08837 0.011,0.141969 0.0263,0.280569 0.0355,0.424353 -0.33195,-0.263265 -4.52819,-3.529965 -9.10933,-3.377015 -1.33571,0.04375 -2.69131,0.402149 -3.98752,1.202292 -5.92582,3.657934 -9.50634,10.622685 -2.97736,18.140261 3.66835,4.223839 13.55391,6.162027 15.41847,12.093536 0.77287,2.627688 0.46182,7.511013 0.7975,7.496576 z"
       id="path26478-4" />
    <path
       id="path20813-8-4-0-8-9-1"
       d="m 304.79914,-241.46158 c -0.39183,-0.0256 -0.0285,5.68152 -0.93057,8.74778 -2.17556,6.92151 -13.71119,9.18318 -17.99194,14.11199 -7.61865,8.77228 -3.44052,16.89946 3.4745,21.16793 6.56573,4.05302 14.49201,-1.89818 15.28268,-2.51705 0,0.16035 -0.0285,0.31557 -0.0417,0.47454 0,0.035 -0.0263,0.0685 -0.0263,0.10303 -0.97859,6.18548 -8.75204,8.73844 -12.036,9.55241 h -1.50965 v 0.33009 h 2.17162 11.35342 0.0263 0.45476 0.0263 11.35342 2.17162 v -0.33009 h -1.5096 c -3.28374,-0.81397 -11.05741,-3.36693 -12.036,-9.55241 0,-0.0348 -0.0263,-0.0683 -0.0263,-0.10303 0,-0.1656 -0.0307,-0.3274 -0.0417,-0.49519 0.38744,0.30722 5.28411,4.11913 10.62984,3.94065 1.55855,-0.051 3.14056,-0.46926 4.65284,-1.40295 6.91502,-4.26847 11.09293,-12.39565 3.47451,-21.16793 -4.28075,-4.92881 -15.81616,-7.19048 -17.99195,-14.11199 -0.90184,-3.06626 -0.53874,-8.76462 -0.93057,-8.74778 z"
       style="fill:#000000;fill-opacity:1;stroke:none;stroke-width:2.19008"
       inkscape:connector-curvature="0" />
    <path
       id="path20813-8-4-0-8-9-13"
       d="m 304.79914,-153.9617 c -0.39183,-0.0256 -0.0285,5.68152 -0.93057,8.74778 -2.17556,6.92151 -13.71119,9.18318 -17.99194,14.11198 -7.61865,8.77228 -3.44052,16.89947 3.4745,21.16794 6.56573,4.05301 14.49201,-1.89818 15.28268,-2.51705 0,0.16035 -0.0285,0.31557 -0.0417,0.47454 0,0.035 -0.0263,0.0685 -0.0263,0.10303 -0.97859,6.18547 -8.75204,8.73844 -12.036,9.55241 h -1.50965 v 0.33009 h 2.17162 11.35342 0.0263 0.45476 0.0263 11.35342 2.17162 v -0.33009 h -1.5096 c -3.28374,-0.81397 -11.05741,-3.36694 -12.036,-9.55241 0,-0.0348 -0.0263,-0.0683 -0.0263,-0.10303 0,-0.1656 -0.0307,-0.32741 -0.0417,-0.49519 0.38744,0.30721 5.28411,4.11913 10.62984,3.94065 1.55855,-0.051 3.14056,-0.46926 4.65284,-1.40295 6.91502,-4.26847 11.09293,-12.39566 3.47451,-21.16794 -4.28075,-4.9288 -15.81616,-7.19047 -17.99195,-14.11198 -0.90184,-3.06626 -0.53874,-8.76462 -0.93057,-8.74778 z"
       style="fill:#000000;fill-opacity:1;stroke:none;stroke-width:2.19008"
       inkscape:connector-curvature="0" />
    <path
       id="path20813-8-4-0-8-9-8"
       d="m 304.79861,-6.9265619 c 0.39183,0.025594 0.0285,-5.6815221 0.93057,-8.7477811 2.17557,-6.921504 13.7112,-9.18318 17.99195,-14.111983 7.61865,-8.772281 3.44051,-16.899469 -3.47451,-21.167932 -6.56572,-4.053018 -14.492,1.898179 -15.28268,2.517044 0,-0.160344 0.0285,-0.315569 0.0417,-0.474534 0,-0.035 0.0263,-0.06847 0.0263,-0.103031 0.97859,-6.185478 8.75204,-8.73844 12.036,-9.552408 h 1.50966 v -0.330094 h -2.17162 -11.35342 -0.0263 -0.45476 -0.0263 -11.35342 -2.17162 v 0.330094 h 1.50966 c 3.28374,0.813968 11.05741,3.36693 12.03599,9.552408 0,0.03478 0.0263,0.06825 0.0263,0.103031 0,0.165593 0.0307,0.327402 0.0417,0.495184 -0.38745,-0.307213 -5.28412,-4.119124 -10.62984,-3.940646 -1.55855,0.05097 -3.14056,0.469262 -4.65285,1.402952 -6.91502,4.268463 -11.09293,12.395651 -3.4745,21.167932 4.28075,4.928803 15.81616,7.190479 17.99194,14.111983 0.90185,3.066259 0.53874,8.7646248 0.93057,8.7477811 z"
       style="fill:#000000;fill-opacity:1;stroke:none;stroke-width:2.19008"
       inkscape:connector-curvature="0" />
  </g>
</svg>
