<?xml version="1.0" encoding="UTF-8" standalone="no"?>
<svg
   xmlns:dc="http://purl.org/dc/elements/1.1/"
   xmlns:cc="http://creativecommons.org/ns#"
   xmlns:rdf="http://www.w3.org/1999/02/22-rdf-syntax-ns#"
   xmlns:svg="http://www.w3.org/2000/svg"
   xmlns="http://www.w3.org/2000/svg"
   xmlns:sodipodi="http://sodipodi.sourceforge.net/DTD/sodipodi-0.dtd"
   xmlns:inkscape="http://www.inkscape.org/namespaces/inkscape"
   inkscape:version="1.0 (4035a4fb49, 2020-05-01)"
   sodipodi:docname="4C.svg"
   id="svg28"
   version="1.1"
   width="2.25in"
   viewBox="-106 -164.5 212 329"
   preserveAspectRatio="none"
   height="3.5in"
   face="4C"
   class="card">
  <metadata
     id="metadata34">
    <rdf:RDF>
      <cc:Work
         rdf:about="">
        <dc:format>image/svg+xml</dc:format>
        <dc:type
           rdf:resource="http://purl.org/dc/dcmitype/StillImage" />
      </cc:Work>
    </rdf:RDF>
  </metadata>
  <defs
     id="defs32" />
  <sodipodi:namedview
     inkscape:current-layer="svg28"
     inkscape:window-maximized="1"
     inkscape:window-y="-12"
     inkscape:window-x="-12"
     inkscape:cy="168"
     inkscape:cx="108"
     inkscape:zoom="2.2410714"
     showgrid="false"
     id="namedview30"
     inkscape:window-height="2050"
     inkscape:window-width="3240"
     inkscape:pageshadow="2"
     inkscape:pageopacity="0"
     guidetolerance="10"
     gridtolerance="10"
     objecttolerance="10"
     borderopacity="1"
     bordercolor="#666666"
     pagecolor="#ffffff" />
  <symbol
     preserveAspectRatio="xMinYMid"
     viewBox="-600 -600 1200 1200"
     id="SC4">
    <path
       id="path2"
       fill="black"
       d="M30 150C35 385 85 400 130 500L-130 500C-85 400 -35 385 -30 150A10 10 0 0 0 -50 150A210 210 0 1 1 -124 -51A10 10 0 0 0 -110 -65A230 230 0 1 1 110 -65A10 10 0 0 0 124 -51A210 210 0 1 1 50 150A10 10 0 0 0 30 150Z" />
  </symbol>
  <symbol
     preserveAspectRatio="xMinYMid"
     viewBox="-500 -500 1000 1000"
     id="VC4">
    <path
       id="path5"
       fill="none"
       stroke-miterlimit="1.5"
       stroke-linecap="square"
       stroke-width="80"
       stroke="black"
       d="M50 460L250 460M150 460L150 -460L-300 175L-300 200L270 200" />
  </symbol>
  <rect
     id="rect8"
     stroke="black"
     fill="white"
     ry="12"
     rx="12"
     y="-164"
     x="-105.5"
     height="328"
     width="211" />
  <g
     transform="translate(-260.12767,129.54648)"
     id="g900">
    <path
       d="m 179.65442,-248.9003 v -13.13525 l -9.08929,13.13525 z m 0,12.13035 v -7.1538 h -13.88576 c -0.71948,2e-5 -1.31503,-0.23526 -1.78669,-0.70579 -0.47164,-0.47053 -0.70747,-1.0647 -0.70747,-1.78249 0,-0.55824 0.15985,-1.04474 0.47965,-1.45947 l 16.35593,-23.61472 c 0.22383,-0.31895 0.5156,-0.57417 0.87536,-0.76562 0.3597,-0.19141 0.75541,-0.28706 1.18713,-0.28711 0.33572,5e-5 0.6555,0.0678 0.95929,0.20344 0.30375,0.13562 0.57154,0.31506 0.8034,0.53832 0.2318,0.22337 0.41167,0.48654 0.53961,0.78956 0.12783,0.30309 0.19186,0.63008 0.19186,0.98096 v 21.12643 h 2.94982 c 0.70345,2e-5 1.299,0.23529 1.78667,0.70582 0.48763,0.47055 0.73143,1.0647 0.73148,1.78246 -5e-5,0.71778 -0.24385,1.31195 -0.73148,1.78248 -0.48767,0.47053 -1.08322,0.70582 -1.78667,0.7058 h -2.94982 v 7.15379 c -2e-5,0.68589 -0.24385,1.27208 -0.73147,1.75855 -0.48765,0.4865 -1.08323,0.72973 -1.78668,0.72973 -0.68751,0 -1.27508,-0.24323 -1.76271,-0.72973 -0.48765,-0.48647 -0.73147,-1.07266 -0.73145,-1.75855 z"
       style="font-style:normal;font-variant:normal;font-weight:bold;font-stretch:normal;font-size:22.4px;line-height:125%;font-family:Comfortaa;-inkscape-font-specification:'Comfortaa Bold';letter-spacing:0px;word-spacing:0px;fill:#000000;fill-opacity:1;stroke:none;stroke-width:2.19008"
       id="path26198"
       inkscape:connector-curvature="0" />
    <path
       inkscape:connector-curvature="0"
       id="path11526-9"
       d="m 176.70432,-222.77016 c -6.29954,0 -11.39616,5.10216 -11.39616,11.38706 0,2.46684 0.7721,4.74888 2.109,6.61296 -4.39111,0.52344 -7.79832,4.09473 -7.79832,8.45189 0,4.71723 3.98347,8.5403 8.89722,8.5403 3.19616,0 5.98147,-1.61986 7.55036,-4.04912 -0.28364,5.58658 -1.49779,11.02916 -5.93755,11.70532 -0.0974,0.0153 -0.19953,0.0431 -0.30111,0.0529 h -0.58501 v 0.28291 h 7.46157 7.46178 v -0.28291 h -0.58498 c -0.10218,-0.0109 -0.20217,-0.0378 -0.30136,-0.0529 -4.43503,-0.67546 -5.65218,-6.10714 -5.93731,-11.68765 1.57039,2.42222 4.35968,4.03145 7.55034,4.03145 4.91375,0 8.89724,-3.82307 8.89724,-8.5403 0,-4.36259 -3.39947,-7.95315 -7.79858,-8.46955 1.33192,-1.86197 2.12696,-4.13356 2.12696,-6.5953 0,-6.2849 -5.11432,-11.38706 -11.41409,-11.38706 z"
       style="fill:none;stroke:#000000;stroke-width:2.49172;stroke-opacity:1" />
    <path
       d="M 340.60116,-10.192658 V 2.9425867 l 9.08929,-13.1352447 z m 0,-12.130352 v 7.153795 h 13.88576 c 0.71948,0 1.31503,0.235266 1.78667,0.705818 0.47167,0.470531 0.70749,1.064677 0.70749,1.782461 0,0.558249 -0.15985,1.044749 -0.47965,1.459476 L 340.1455,12.393254 c -0.22383,0.318981 -0.5156,0.574174 -0.87536,0.765624 -0.35972,0.191406 -0.75541,0.287065 -1.18713,0.287109 -0.33572,-4.4e-5 -0.6555,-0.06781 -0.95929,-0.203437 -0.30375,-0.135625 -0.57156,-0.315044 -0.80339,-0.538322 -0.23181,-0.223343 -0.41168,-0.486521 -0.53962,-0.789555 -0.12783,-0.3031 -0.19186,-0.630087 -0.19186,-0.980961 v -21.126435 h -2.94982 c -0.70345,0 -1.29902,-0.235288 -1.78667,-0.705796 -0.48763,-0.470553 -0.73146,-1.064721 -0.73148,-1.782483 2e-5,-0.717783 0.24385,-1.31193 0.73148,-1.78246 0.48765,-0.470553 1.08322,-0.705818 1.78667,-0.705818 h 2.94982 v -7.153795 c 2e-5,-0.685868 0.24385,-1.272052 0.73148,-1.758551 0.48764,-0.486478 1.08322,-0.729728 1.78667,-0.729728 0.68751,0 1.27508,0.24325 1.76271,0.729728 0.48765,0.486499 0.73147,1.072683 0.73145,1.758551 z"
       style="font-style:normal;font-variant:normal;font-weight:bold;font-stretch:normal;font-size:22.4px;line-height:125%;font-family:Comfortaa;-inkscape-font-specification:'Comfortaa Bold';letter-spacing:0px;word-spacing:0px;fill:#000000;fill-opacity:1;stroke:none;stroke-width:2.19008"
       id="path26186"
       inkscape:connector-curvature="0" />
    <path
       style="fill:none;stroke:#000000;stroke-width:2.49172;stroke-opacity:1"
       d="m 343.55102,-36.322797 c 6.29954,0 11.39616,-5.102163 11.39616,-11.387062 0,-2.466862 -0.77211,-4.748904 -2.109,-6.61298 4.39111,-0.523424 7.79832,-4.094711 7.79832,-8.451877 0,-4.717251 -3.98347,-8.540319 -8.89722,-8.540319 -3.19616,0 -5.98147,1.619886 -7.55036,4.049146 0.28364,-5.586585 1.49779,-11.029188 5.93755,-11.705343 0.0974,-0.01531 0.19953,-0.04309 0.30111,-0.05294 h 0.58501 v -0.282887 h -7.46157 -7.46178 v 0.282887 h 0.58498 c 0.10218,0.01094 0.20217,0.03784 0.30136,0.05294 4.43503,0.675477 5.65218,6.107165 5.93731,11.687668 -1.57039,-2.422216 -4.35968,-4.031471 -7.55034,-4.031471 -4.91375,0 -8.89724,3.823068 -8.89724,8.540319 0,4.362591 3.39947,7.953128 7.79858,8.469552 -1.33192,1.861955 -2.12696,4.133539 -2.12696,6.595305 0,6.284899 5.11431,11.387062 11.41409,11.387062 z"
       id="path7852"
       inkscape:connector-curvature="0" />
    <path
       style="fill:#000000;fill-opacity:1;stroke:none;stroke-width:2.19008"
       d="m 225.15447,-247.56201 c -7.5819,0 -13.71598,6.14076 -13.71598,13.70504 0,2.969 0.92928,5.71558 2.53832,7.95912 -5.28499,0.63 -9.38578,4.92826 -9.38578,10.17237 0,5.67749 4.79438,10.27879 10.70838,10.27879 3.84677,0 7.19906,-1.94961 9.08732,-4.87338 -0.34138,6.7238 -1.80271,13.27431 -7.14622,14.0881 -0.11709,0.0175 -0.24021,0.0518 -0.3624,0.0639 h -0.70409 v 0.34049 h 8.98045 8.98073 v -0.34049 h -0.70409 c -0.12301,-0.0109 -0.24319,-0.0455 -0.36269,-0.0639 -5.33783,-0.81296 -6.80273,-7.35034 -7.14593,-14.06683 1.89008,2.91527 5.24715,4.85211 9.08734,4.85211 5.91401,0 10.70836,-4.6013 10.70836,-10.27879 0,-5.25065 -4.09147,-9.5721 -9.38607,-10.19363 1.60302,-2.24098 2.55992,-4.97498 2.55992,-7.93786 0,-7.56428 -6.15539,-13.70504 -13.73757,-13.70504 z"
       id="path7438-3-6-8-4-8"
       inkscape:connector-curvature="0" />
    <path
       style="fill:#000000;fill-opacity:1;stroke:none;stroke-width:2.19008"
       d="m 295.31987,-247.56201 c -7.5819,0 -13.71597,6.14076 -13.71597,13.70504 0,2.969 0.92927,5.71558 2.53832,7.95912 -5.28499,0.63 -9.38579,4.92826 -9.38579,10.17237 0,5.67749 4.79438,10.27879 10.70838,10.27879 3.84678,0 7.19906,-1.94961 9.08732,-4.87338 -0.34138,6.7238 -1.8027,13.27431 -7.14621,14.0881 -0.11709,0.0175 -0.24021,0.0518 -0.36241,0.0639 h -0.70409 v 0.34049 h 8.98045 8.98074 v -0.34049 h -0.70409 c -0.12301,-0.0109 -0.24319,-0.0455 -0.36269,-0.0639 -5.33783,-0.81296 -6.80273,-7.35034 -7.14593,-14.06683 1.89008,2.91527 5.24714,4.85211 9.08734,4.85211 5.914,0 10.70836,-4.6013 10.70836,-10.27879 0,-5.25065 -4.09148,-9.5721 -9.38607,-10.19363 1.60302,-2.24098 2.55992,-4.97498 2.55992,-7.93786 0,-7.56428 -6.15539,-13.70504 -13.73758,-13.70504 z"
       id="path7438-3-6-8-4-2"
       inkscape:connector-curvature="0" />
    <path
       style="fill:#000000;fill-opacity:1;stroke:none;stroke-width:2.19008"
       d="m 224.93568,-8.4685163 c 7.5819,0 13.71598,-6.1407647 13.71598,-13.7050217 0,-2.969025 -0.92927,-5.715603 -2.53832,-7.959122 5.28499,-0.629999 9.38578,-4.928257 9.38578,-10.172366 0,-5.677497 -4.79438,-10.278811 -10.70838,-10.278811 -3.84677,0 -7.19905,1.949629 -9.08732,4.873373 0.34138,-6.723777 1.80271,-13.274282 7.14622,-14.088075 0.11709,-0.0175 0.24021,-0.05184 0.3624,-0.06387 h 0.70409 v -0.340483 h -8.98045 -8.98073 v 0.340483 h 0.70409 c 0.12301,0.01094 0.24319,0.0455 0.36269,0.06387 5.33783,0.812962 6.80273,7.350342 7.14593,14.066812 -1.89008,-2.915277 -5.24715,-4.85211 -9.08734,-4.85211 -5.914,0 -10.70836,4.601314 -10.70836,10.278811 0,5.250628 4.09147,9.572073 9.38607,10.193628 -1.60302,2.240982 -2.55992,4.974982 -2.55992,7.93786 0,7.564257 6.15539,13.7050217 13.73757,13.7050217 z"
       id="path7438-3-6-8-4-3"
       inkscape:connector-curvature="0" />
    <path
       style="fill:#000000;fill-opacity:1;stroke:none;stroke-width:2.19008"
       d="m 295.10109,-8.4685163 c 7.5819,0 13.71598,-6.1407647 13.71598,-13.7050217 0,-2.969025 -0.92928,-5.715603 -2.53833,-7.959122 5.28499,-0.629999 9.38579,-4.928257 9.38579,-10.172366 0,-5.677497 -4.79438,-10.278811 -10.70838,-10.278811 -3.84678,0 -7.19906,1.949629 -9.08732,4.873373 0.34138,-6.723777 1.8027,-13.274282 7.14621,-14.088075 0.11709,-0.0175 0.24021,-0.05184 0.36241,-0.06387 h 0.70409 v -0.340483 h -8.98045 -8.98074 v 0.340483 h 0.70409 c 0.12301,0.01094 0.24319,0.0455 0.36269,0.06387 5.33784,0.812962 6.80274,7.350342 7.14593,14.066812 -1.89008,-2.915277 -5.24714,-4.85211 -9.08734,-4.85211 -5.914,0 -10.70836,4.601314 -10.70836,10.278811 0,5.250628 4.09148,9.572073 9.38607,10.193628 -1.60301,2.240982 -2.55992,4.974982 -2.55992,7.93786 0,7.564257 6.15539,13.7050217 13.73758,13.7050217 z"
       id="path7438-3-6-8-4-84"
       inkscape:connector-curvature="0" />
  </g>
</svg>
