<?xml version="1.0" encoding="UTF-8" standalone="no"?>
<svg
   xmlns:dc="http://purl.org/dc/elements/1.1/"
   xmlns:cc="http://creativecommons.org/ns#"
   xmlns:rdf="http://www.w3.org/1999/02/22-rdf-syntax-ns#"
   xmlns:svg="http://www.w3.org/2000/svg"
   xmlns="http://www.w3.org/2000/svg"
   xmlns:sodipodi="http://sodipodi.sourceforge.net/DTD/sodipodi-0.dtd"
   xmlns:inkscape="http://www.inkscape.org/namespaces/inkscape"
   inkscape:version="1.0 (4035a4fb49, 2020-05-01)"
   sodipodi:docname="4D.svg"
   id="svg28"
   version="1.1"
   width="2.25in"
   viewBox="-106 -164.5 212 329"
   preserveAspectRatio="none"
   height="3.5in"
   face="4D"
   class="card">
  <metadata
     id="metadata34">
    <rdf:RDF>
      <cc:Work
         rdf:about="">
        <dc:format>image/svg+xml</dc:format>
        <dc:type
           rdf:resource="http://purl.org/dc/dcmitype/StillImage" />
      </cc:Work>
    </rdf:RDF>
  </metadata>
  <defs
     id="defs32" />
  <sodipodi:namedview
     inkscape:current-layer="svg28"
     inkscape:window-maximized="1"
     inkscape:window-y="-12"
     inkscape:window-x="-12"
     inkscape:cy="168"
     inkscape:cx="108"
     inkscape:zoom="2.2410714"
     showgrid="false"
     id="namedview30"
     inkscape:window-height="2050"
     inkscape:window-width="3240"
     inkscape:pageshadow="2"
     inkscape:pageopacity="0"
     guidetolerance="10"
     gridtolerance="10"
     objecttolerance="10"
     borderopacity="1"
     bordercolor="#666666"
     pagecolor="#ffffff" />
  <symbol
     preserveAspectRatio="xMinYMid"
     viewBox="-600 -600 1200 1200"
     id="SD4">
    <path
       id="path2"
       fill="red"
       d="M-400 0C-350 0 0 -450 0 -500C0 -450 350 0 400 0C350 0 0 450 0 500C0 450 -350 0 -400 0Z" />
  </symbol>
  <symbol
     preserveAspectRatio="xMinYMid"
     viewBox="-500 -500 1000 1000"
     id="VD4">
    <path
       id="path5"
       fill="none"
       stroke-miterlimit="1.5"
       stroke-linecap="square"
       stroke-width="80"
       stroke="red"
       d="M50 460L250 460M150 460L150 -460L-300 175L-300 200L270 200" />
  </symbol>
  <rect
     id="rect8"
     stroke="black"
     fill="white"
     ry="12"
     rx="12"
     y="-164"
     x="-105.5"
     height="328"
     width="211" />
  <g
     transform="translate(326.28982,103.76825)"
     id="g900">
    <path
       inkscape:connector-curvature="0"
       id="path26192"
       style="font-style:normal;font-variant:normal;font-weight:bold;font-stretch:normal;font-size:22.4px;line-height:125%;font-family:Comfortaa;-inkscape-font-specification:'Comfortaa Bold';letter-spacing:0px;word-spacing:0px;fill:#ff0000;fill-opacity:1;stroke:none;stroke-width:2.19008"
       d="m -406.76319,-223.12216 v -13.13522 l -9.08929,13.13522 z m 0,12.13037 v -7.15381 h -13.88576 c -0.71948,2e-5 -1.31503,-0.23525 -1.78669,-0.7058 -0.47165,-0.47053 -0.70747,-1.06468 -0.70747,-1.78248 0,-0.55825 0.15985,-1.04473 0.47965,-1.45946 l 16.35593,-23.61471 c 0.22382,-0.31898 0.5156,-0.5742 0.87535,-0.76562 0.35971,-0.19141 0.75542,-0.28709 1.18714,-0.28711 0.33572,2e-5 0.65549,0.0678 0.95929,0.20344 0.30375,0.13562 0.57154,0.31506 0.80339,0.53834 0.23181,0.22334 0.41168,0.48652 0.53962,0.78955 0.12783,0.30308 0.19186,0.63007 0.19186,0.98094 v 21.12644 h 2.94982 c 0.70345,2e-5 1.299,0.23529 1.78667,0.70582 0.48763,0.47055 0.73143,1.06472 0.73148,1.78246 -5e-5,0.7178 -0.24385,1.31195 -0.73148,1.78248 -0.48767,0.47055 -1.08322,0.70582 -1.78667,0.7058 h -2.94982 v 7.15381 c -2e-5,0.68587 -0.24385,1.27205 -0.73148,1.75853 -0.48765,0.4865 -1.08322,0.72975 -1.78667,0.72975 -0.68751,0 -1.27508,-0.24325 -1.76271,-0.72975 -0.48765,-0.48648 -0.73147,-1.07266 -0.73145,-1.75853 z" />
    <path
       sodipodi:nodetypes="ccccc"
       inkscape:connector-curvature="0"
       id="path11634-4"
       d="m -426.21949,-179.43683 16.50663,-20.64873 16.50641,20.64871 -16.50663,24.17093 z"
       style="fill:none;stroke:#ff0000;stroke-width:2.19008;stroke-opacity:1" />
    <path
       inkscape:connector-curvature="0"
       id="path26180"
       style="font-style:normal;font-variant:normal;font-weight:bold;font-stretch:normal;font-size:22.4px;line-height:125%;font-family:Comfortaa;-inkscape-font-specification:'Comfortaa Bold';letter-spacing:0px;word-spacing:0px;fill:#ff0000;fill-opacity:1;stroke:none;stroke-width:2.19008"
       d="m -245.81645,15.58564 v 13.135222 l 9.08929,-13.135222 z m 0,-12.1303737 v 7.1538167 h 13.88576 c 0.71948,-2.2e-5 1.31503,0.235244 1.78667,0.705796 0.47167,0.470531 0.70749,1.064699 0.70749,1.782483 0,0.558249 -0.15985,1.044726 -0.47965,1.459454 l -16.35593,23.614736 c -0.22383,0.318959 -0.5156,0.574174 -0.87536,0.765624 -0.35972,0.191406 -0.75541,0.287065 -1.18713,0.287109 -0.33572,-4.4e-5 -0.6555,-0.06781 -0.95929,-0.203437 -0.30375,-0.135625 -0.57156,-0.315066 -0.80339,-0.538344 -0.23181,-0.223343 -0.41168,-0.486521 -0.53962,-0.789533 -0.12783,-0.3031 -0.19186,-0.630087 -0.19186,-0.980961 V 15.585574 h -2.94982 c -0.70345,-2.2e-5 -1.29902,-0.235287 -1.78667,-0.705818 -0.48763,-0.470552 -0.73146,-1.064698 -0.73148,-1.78246 2e-5,-0.717784 0.24385,-1.311952 0.73148,-1.782482 0.48765,-0.470553 1.08322,-0.705818 1.78667,-0.705796 h 2.94982 V 3.4552007 c 2e-5,-0.685868 0.24385,-1.2720517 0.73148,-1.7585292 0.48764,-0.4864995 1.08322,-0.72974919 1.78667,-0.72974919 0.68751,0 1.27508,0.24324969 1.76271,0.72974919 0.48765,0.4864775 0.73147,1.0726612 0.73145,1.7585292 z" />
    <path
       style="fill:none;stroke:#ff0000;stroke-width:2.19008;stroke-opacity:1"
       d="m -226.36015,-28.099713 -16.50663,20.6487293 -16.50642,-20.6487073 16.50664,-24.170929 z"
       id="path7875"
       inkscape:connector-curvature="0"
       sodipodi:nodetypes="ccccc" />
    <path
       sodipodi:nodetypes="ccccc"
       inkscape:connector-curvature="0"
       id="path7442-14-6"
       d="m -380.51024,-195.82751 19.24749,-24.07734 19.24723,24.07732 -19.24749,28.1844 z"
       style="fill:#ff0000;fill-opacity:1;stroke:none;stroke-width:2.19008" />
    <path
       sodipodi:nodetypes="ccccc"
       inkscape:connector-curvature="0"
       id="path7442-14-1"
       d="m -310.34483,-195.82751 19.24749,-24.07734 19.24722,24.07732 -19.24749,28.1844 z"
       style="fill:#ff0000;fill-opacity:1;stroke:none;stroke-width:2.19008" />
    <path
       sodipodi:nodetypes="ccccc"
       inkscape:connector-curvature="0"
       id="path7442-14-54"
       d="m -342.23479,-10.396405 -19.24749,24.077347 -19.24722,-24.077325 19.24749,-28.184396 z"
       style="fill:#ff0000;fill-opacity:1;stroke:none;stroke-width:2.19008" />
    <path
       sodipodi:nodetypes="ccccc"
       inkscape:connector-curvature="0"
       id="path7442-14-2"
       d="m -272.06938,-10.396405 -19.24749,24.077347 -19.24723,-24.077325 19.24749,-28.184396 z"
       style="fill:#ff0000;fill-opacity:1;stroke:none;stroke-width:2.19008" />
  </g>
</svg>
