<?xml version="1.0" encoding="UTF-8" standalone="no"?>
<svg
   xmlns:dc="http://purl.org/dc/elements/1.1/"
   xmlns:cc="http://creativecommons.org/ns#"
   xmlns:rdf="http://www.w3.org/1999/02/22-rdf-syntax-ns#"
   xmlns:svg="http://www.w3.org/2000/svg"
   xmlns="http://www.w3.org/2000/svg"
   xmlns:sodipodi="http://sodipodi.sourceforge.net/DTD/sodipodi-0.dtd"
   xmlns:inkscape="http://www.inkscape.org/namespaces/inkscape"
   inkscape:version="1.0 (4035a4fb49, 2020-05-01)"
   sodipodi:docname="4H.svg"
   id="svg28"
   version="1.1"
   width="2.25in"
   viewBox="-106 -164.5 212 329"
   preserveAspectRatio="none"
   height="3.5in"
   face="4H"
   class="card">
  <metadata
     id="metadata34">
    <rdf:RDF>
      <cc:Work
         rdf:about="">
        <dc:format>image/svg+xml</dc:format>
        <dc:type
           rdf:resource="http://purl.org/dc/dcmitype/StillImage" />
      </cc:Work>
    </rdf:RDF>
  </metadata>
  <defs
     id="defs32" />
  <sodipodi:namedview
     inkscape:current-layer="svg28"
     inkscape:window-maximized="1"
     inkscape:window-y="-12"
     inkscape:window-x="-12"
     inkscape:cy="168"
     inkscape:cx="108"
     inkscape:zoom="2.2410714"
     showgrid="false"
     id="namedview30"
     inkscape:window-height="2050"
     inkscape:window-width="3240"
     inkscape:pageshadow="2"
     inkscape:pageopacity="0"
     guidetolerance="10"
     gridtolerance="10"
     objecttolerance="10"
     borderopacity="1"
     bordercolor="#666666"
     pagecolor="#ffffff" />
  <symbol
     preserveAspectRatio="xMinYMid"
     viewBox="-600 -600 1200 1200"
     id="SH4">
    <path
       id="path2"
       fill="red"
       d="M0 -300C0 -400 100 -500 200 -500C300 -500 400 -400 400 -250C400 0 0 400 0 500C0 400 -400 0 -400 -250C-400 -400 -300 -500 -200 -500C-100 -500 0 -400 -0 -300Z" />
  </symbol>
  <symbol
     preserveAspectRatio="xMinYMid"
     viewBox="-500 -500 1000 1000"
     id="VH4">
    <path
       id="path5"
       fill="none"
       stroke-miterlimit="1.5"
       stroke-linecap="square"
       stroke-width="80"
       stroke="red"
       d="M50 460L250 460M150 460L150 -460L-300 175L-300 200L270 200" />
  </symbol>
  <rect
     id="rect8"
     stroke="black"
     fill="white"
     ry="12"
     rx="12"
     y="-164"
     x="-105.5"
     height="328"
     width="211" />
  <g
     transform="translate(-225.09164,172.36444)"
     id="g900">
    <path
       inkscape:connector-curvature="0"
       id="path26195"
       style="font-style:normal;font-variant:normal;font-weight:bold;font-stretch:normal;font-size:22.4px;line-height:125%;font-family:Comfortaa;-inkscape-font-specification:'Comfortaa Bold';letter-spacing:0px;word-spacing:0px;fill:#ff0000;fill-opacity:1;stroke:none;stroke-width:2.19008"
       d="m 144.61828,-291.71826 v -13.13522 l -9.08929,13.13522 z m 0,12.13037 v -7.15381 h -13.88576 c -0.71948,2e-5 -1.31503,-0.23525 -1.78669,-0.7058 -0.47165,-0.47053 -0.70747,-1.0647 -0.70747,-1.78248 0,-0.55825 0.15985,-1.04473 0.47965,-1.45946 l 16.35593,-23.61473 c 0.22382,-0.31896 0.5156,-0.57418 0.87535,-0.76563 0.35971,-0.1914 0.75542,-0.28706 1.18714,-0.28711 0.33572,5e-5 0.65549,0.0678 0.95929,0.20344 0.30375,0.13563 0.57154,0.31507 0.80339,0.53834 0.23181,0.22335 0.41168,0.48653 0.53962,0.78954 0.12783,0.3031 0.19186,0.63008 0.19186,0.98096 v 21.12643 h 2.94982 c 0.70345,3e-5 1.299,0.23529 1.78667,0.70582 0.48763,0.47055 0.73143,1.06472 0.73148,1.78246 -5e-5,0.71779 -0.24385,1.31195 -0.73148,1.78248 -0.48767,0.47056 -1.08322,0.70582 -1.78667,0.7058 h -2.94982 v 7.15382 c -2e-5,0.68587 -0.24385,1.27205 -0.73148,1.75853 -0.48765,0.4865 -1.08322,0.72975 -1.78667,0.72975 -0.68751,0 -1.27508,-0.24325 -1.76271,-0.72975 -0.48765,-0.48648 -0.73147,-1.07266 -0.73145,-1.75853 z" />
    <path
       sodipodi:nodetypes="csscccssccccc"
       inkscape:connector-curvature="0"
       id="path11589-3"
       d="m 132.42671,-261.20805 c -1.33527,0.0446 -2.69146,0.38788 -3.98746,1.1879 -5.92465,3.65721 -9.51835,10.63371 -2.9906,18.14993 3.66755,4.22292 13.5596,6.1557 15.42369,12.08612 0.7729,2.62729 0.45367,7.50099 0.78923,7.48649 0.33555,0.0153 0.03,-4.8592 0.80302,-7.48649 1.86415,-5.93042 11.7562,-7.8632 15.42374,-12.08612 6.52773,-7.51622 2.93406,-14.49272 -2.99058,-18.14993 -5.92474,-3.65717 -13.20851,2.26528 -13.20851,2.26528 l -0.0417,0.0551 v -0.0551 c 0,0 -4.45217,-3.61248 -9.22096,-3.45318 z"
       style="fill:#ff0000;fill-opacity:1;stroke:none;stroke-width:2.19008" />
    <path
       inkscape:connector-curvature="0"
       id="path26183"
       style="font-style:normal;font-variant:normal;font-weight:bold;font-stretch:normal;font-size:22.4px;line-height:125%;font-family:Comfortaa;-inkscape-font-specification:'Comfortaa Bold';letter-spacing:0px;word-spacing:0px;fill:#ff0000;fill-opacity:1;stroke:none;stroke-width:2.19008"
       d="m 305.56502,-53.010594 v 13.135223 l 9.08929,-13.135223 z m 0,-12.130374 v 7.153817 h 13.88576 c 0.71948,-2.2e-5 1.31503,0.235244 1.78667,0.705796 0.47167,0.470531 0.70749,1.064677 0.70749,1.782483 0,0.558249 -0.15985,1.044727 -0.47965,1.459454 l -16.35593,23.614714 c -0.22383,0.318981 -0.5156,0.574196 -0.87536,0.765624 -0.35972,0.191406 -0.75541,0.287087 -1.18713,0.287109 -0.33572,-2.2e-5 -0.6555,-0.06781 -0.95929,-0.203437 -0.30375,-0.135625 -0.57156,-0.315065 -0.80339,-0.538343 -0.23181,-0.223344 -0.41168,-0.486522 -0.53962,-0.789556 -0.12783,-0.303077 -0.19186,-0.630065 -0.19186,-0.980939 v -21.126435 h -2.94982 c -0.70345,-2.2e-5 -1.29902,-0.235288 -1.78667,-0.705818 -0.48763,-0.470553 -0.73146,-1.064721 -0.73148,-1.782461 2e-5,-0.717805 0.24385,-1.311951 0.73148,-1.782482 0.48765,-0.470553 1.08322,-0.705818 1.78667,-0.705796 h 2.94982 v -7.153817 c 2e-5,-0.685868 0.24385,-1.272052 0.73148,-1.758529 0.48764,-0.4865 1.08322,-0.729749 1.78667,-0.729749 0.68751,0 1.27508,0.243249 1.76271,0.729749 0.48765,0.486477 0.73147,1.072661 0.73145,1.758529 z" />
    <path
       style="fill:#ff0000;fill-opacity:1;stroke:none;stroke-width:2.19008"
       d="m 317.75657,-83.520934 c 1.33527,-0.04462 2.69148,-0.387887 3.98745,-1.187899 5.92468,-3.657211 9.51836,-10.633709 2.99063,-18.149927 -3.66755,-4.22292 -13.55962,-6.15571 -15.42372,-12.08612 -0.77289,-2.6273 -0.45364,-7.501 -0.78921,-7.48649 -0.33556,-0.0153 -0.03,4.85919 -0.80302,7.48649 -1.86414,5.93041 -11.75621,7.8632 -15.42376,12.08612 -6.5277,7.516218 -2.93405,14.492716 2.99061,18.149927 5.92472,3.657168 13.20848,-2.265285 13.20848,-2.265285 l 0.0417,-0.05512 v 0.05512 c 0,0 4.45219,3.612478 9.22099,3.453184 z"
       id="path7865"
       inkscape:connector-curvature="0"
       sodipodi:nodetypes="csscccssccccc" />
    <path
       style="fill:#ff0000;fill-opacity:1;stroke:none;stroke-width:2.19008"
       d="m 182.98178,-290.67931 c -1.82314,0.061 -3.67482,0.52962 -5.44435,1.62194 -8.08941,4.99345 -12.99612,14.51899 -4.0833,24.78144 5.00758,5.76585 18.51391,8.40482 21.05912,16.50206 1.05529,3.58724 0.61938,10.24167 1.07756,10.22185 0.45816,0.0219 0.041,-6.63461 1.09642,-10.22185 2.54526,-8.09724 16.05161,-10.73621 21.05919,-16.50206 8.91276,-10.26245 4.00609,-19.78799 -4.08328,-24.78144 -8.08948,-4.9934 -18.03453,3.09295 -18.03453,3.09295 l -0.0568,0.0753 v -0.0753 c 0,0 -6.07891,-4.93237 -12.59006,-4.71489 z"
       id="path7440-26-0"
       inkscape:connector-curvature="0"
       sodipodi:nodetypes="csscccssccccc" />
    <path
       style="fill:#ff0000;fill-opacity:1;stroke:none;stroke-width:2.19008"
       d="m 241.63568,-290.67931 c -1.82314,0.061 -3.67483,0.52962 -5.44436,1.62194 -8.08941,4.99345 -12.99612,14.51899 -4.08329,24.78144 5.00757,5.76585 18.5139,8.40482 21.05911,16.50206 1.05529,3.58724 0.61939,10.24167 1.07757,10.22185 0.45815,0.0219 0.041,-6.63461 1.09642,-10.22185 2.54525,-8.09724 16.05161,-10.73621 21.05918,-16.50206 8.91276,-10.26245 4.00609,-19.78799 -4.08328,-24.78144 -8.08948,-4.9934 -18.03452,3.09295 -18.03452,3.09295 l -0.0568,0.0753 v -0.0753 c 0,0 -6.07891,-4.93237 -12.59007,-4.71489 z"
       id="path7440-26-7"
       inkscape:connector-curvature="0"
       sodipodi:nodetypes="csscccssccccc" />
    <path
       style="fill:#ff0000;fill-opacity:1;stroke:none;stroke-width:2.19008"
       d="m 207.99948,-61.924777 c 1.82314,-0.06103 3.67482,-0.529615 5.44435,-1.621942 8.08941,-4.993445 12.99612,-14.51899 4.0833,-24.781438 -5.00758,-5.765849 -18.51391,-8.404824 -21.05912,-16.502063 -1.05529,-3.58724 -0.61938,-10.24167 -1.07756,-10.22185 -0.45816,-0.0219 -0.041,6.63461 -1.09643,10.22185 -2.54525,8.097239 -16.0516,10.736214 -21.05918,16.502063 -8.91276,10.262448 -4.00609,19.787993 4.08328,24.781438 8.08948,4.9934 18.03453,-3.092947 18.03453,-3.092947 l 0.0568,-0.07525 v 0.07525 c 0,0 6.07891,4.93237 12.59006,4.714889 z"
       id="path7440-26-6"
       inkscape:connector-curvature="0"
       sodipodi:nodetypes="csscccssccccc" />
    <path
       style="fill:#ff0000;fill-opacity:1;stroke:none;stroke-width:2.19008"
       d="m 266.65337,-61.924777 c 1.82314,-0.06103 3.67483,-0.529615 5.44435,-1.621942 8.08942,-4.993445 12.99613,-14.51899 4.0833,-24.781438 -5.00757,-5.765849 -18.51393,-8.404824 -21.05914,-16.502063 -1.05528,-3.58724 -0.61938,-10.24167 -1.07756,-10.22185 -0.45816,-0.0219 -0.041,6.63461 -1.09642,10.22185 -2.54525,8.097239 -16.05161,10.736214 -21.05919,16.502063 -8.91276,10.262448 -4.00609,19.787993 4.08328,24.781438 8.08948,4.9934 18.03453,-3.092947 18.03453,-3.092947 l 0.0568,-0.07525 v 0.07525 c 0,0 6.07893,4.93237 12.59008,4.714889 z"
       id="path7440-26-3"
       inkscape:connector-curvature="0"
       sodipodi:nodetypes="csscccssccccc" />
  </g>
</svg>
