<?xml version="1.0" encoding="UTF-8" standalone="no"?>
<svg
   xmlns:dc="http://purl.org/dc/elements/1.1/"
   xmlns:cc="http://creativecommons.org/ns#"
   xmlns:rdf="http://www.w3.org/1999/02/22-rdf-syntax-ns#"
   xmlns:svg="http://www.w3.org/2000/svg"
   xmlns="http://www.w3.org/2000/svg"
   xmlns:sodipodi="http://sodipodi.sourceforge.net/DTD/sodipodi-0.dtd"
   xmlns:inkscape="http://www.inkscape.org/namespaces/inkscape"
   inkscape:version="1.0 (4035a4fb49, 2020-05-01)"
   sodipodi:docname="4S.svg"
   id="svg28"
   version="1.1"
   width="2.25in"
   viewBox="-106 -164.5 212 329"
   preserveAspectRatio="none"
   height="3.5in"
   face="4S"
   class="card">
  <metadata
     id="metadata34">
    <rdf:RDF>
      <cc:Work
         rdf:about="">
        <dc:format>image/svg+xml</dc:format>
        <dc:type
           rdf:resource="http://purl.org/dc/dcmitype/StillImage" />
      </cc:Work>
    </rdf:RDF>
  </metadata>
  <defs
     id="defs32" />
  <sodipodi:namedview
     inkscape:current-layer="svg28"
     inkscape:window-maximized="1"
     inkscape:window-y="-12"
     inkscape:window-x="-12"
     inkscape:cy="132.30279"
     inkscape:cx="108"
     inkscape:zoom="2.2410714"
     showgrid="false"
     id="namedview30"
     inkscape:window-height="2050"
     inkscape:window-width="3240"
     inkscape:pageshadow="2"
     inkscape:pageopacity="0"
     guidetolerance="10"
     gridtolerance="10"
     objecttolerance="10"
     borderopacity="1"
     bordercolor="#666666"
     pagecolor="#ffffff" />
  <symbol
     preserveAspectRatio="xMinYMid"
     viewBox="-600 -600 1200 1200"
     id="SS4">
    <path
       id="path2"
       fill="black"
       d="M0 -500C100 -250 355 -100 355 185A150 150 0 0 1 55 185A10 10 0 0 0 35 185C35 385 85 400 130 500L-130 500C-85 400 -35 385 -35 185A10 10 0 0 0 -55 185A150 150 0 0 1 -355 185C-355 -100 -100 -250 0 -500Z" />
  </symbol>
  <symbol
     preserveAspectRatio="xMinYMid"
     viewBox="-500 -500 1000 1000"
     id="VS4">
    <path
       id="path5"
       fill="none"
       stroke-miterlimit="1.5"
       stroke-linecap="square"
       stroke-width="80"
       stroke="black"
       d="M50 460L250 460M150 460L150 -460L-300 175L-300 200L270 200" />
  </symbol>
  <rect
     id="rect8"
     stroke="black"
     fill="white"
     ry="12"
     rx="12"
     y="-164"
     x="-105.5"
     height="328"
     width="211" />
  <g
     transform="translate(315.34103,12.88911)"
     id="g900">
    <path
       inkscape:connector-curvature="0"
       id="path26189"
       style="font-style:normal;font-variant:normal;font-weight:bold;font-stretch:normal;font-size:22.4px;line-height:125%;font-family:Comfortaa;-inkscape-font-specification:'Comfortaa Bold';letter-spacing:0px;word-spacing:0px;fill:#000000;fill-opacity:1;stroke:none;stroke-width:2.19008"
       d="m -395.81439,-132.24293 v -13.13523 l -9.08929,13.13523 z m 0,12.13037 v -7.15382 h -13.88576 c -0.71948,3e-5 -1.31503,-0.23524 -1.78669,-0.70579 -0.47165,-0.47053 -0.70747,-1.0647 -0.70747,-1.78248 0,-0.55825 0.15985,-1.04473 0.47965,-1.45946 l 16.35593,-23.61473 c 0.22382,-0.31896 0.5156,-0.57418 0.87535,-0.76563 0.35971,-0.1914 0.75542,-0.28706 1.18714,-0.28711 0.33572,5e-5 0.65549,0.0678 0.95929,0.20344 0.30375,0.13562 0.57154,0.31506 0.80339,0.53834 0.23181,0.22335 0.41168,0.48652 0.53962,0.78954 0.12783,0.3031 0.19186,0.63008 0.19186,0.98096 v 21.12643 h 2.94982 c 0.70345,2e-5 1.299,0.23529 1.78667,0.70582 0.48763,0.47055 0.73143,1.0647 0.73148,1.78246 -5e-5,0.71778 -0.24385,1.31195 -0.73148,1.78248 -0.48767,0.47056 -1.08322,0.70582 -1.78667,0.7058 h -2.94982 v 7.15382 c -2e-5,0.68586 -0.24385,1.27205 -0.73148,1.75853 -0.48765,0.48649 -1.08322,0.72974 -1.78667,0.72974 -0.68751,0 -1.27508,-0.24325 -1.76271,-0.72974 -0.48765,-0.48648 -0.73147,-1.07267 -0.73145,-1.75853 z" />
    <path
       id="path26458-1"
       d="m -398.76404,-114.86267 c -0.33565,-0.0219 -0.025,4.86888 -0.79749,7.49657 -1.86456,5.93151 -11.75014,7.869698 -15.41848,12.093537 -6.52898,7.517576 -2.94844,14.482327 2.97736,18.140261 5.62665,3.473308 12.41939,-1.626667 13.09686,-2.157026 -0.009,0.137375 -0.0239,0.27044 -0.0355,0.406656 -0.002,0.02997 -0.0154,0.05863 -0.0176,0.08837 -0.83873,5.300766 -7.50017,7.488569 -10.31442,8.186119 h -1.29374 v 0.282887 h 1.86083 9.72962 0.0175 0.3899 0.0175 9.7296 1.86083 v -0.282887 h -1.29372 c -2.81409,-0.69755 -9.47573,-2.885353 -10.31445,-8.186119 -0.004,-0.02975 -0.0154,-0.05841 -0.0175,-0.08837 -0.011,-0.141969 -0.0263,-0.280569 -0.0355,-0.424353 0.33195,0.263266 4.52819,3.529965 9.10933,3.377015 1.33571,-0.04375 2.69131,-0.402149 3.9875,-1.202292 5.92584,-3.657934 9.50636,-10.622685 2.97738,-18.140261 -3.66835,-4.223839 -13.55391,-6.162027 -15.41849,-12.093537 -0.77287,-2.62769 -0.4618,-7.51101 -0.79748,-7.49657 z"
       style="fill:#000000;fill-opacity:1;stroke:none;stroke-width:2.19008"
       inkscape:connector-curvature="0" />
    <path
       inkscape:connector-curvature="0"
       id="path26177"
       style="font-style:normal;font-variant:normal;font-weight:bold;font-stretch:normal;font-size:22.4px;line-height:125%;font-family:Comfortaa;-inkscape-font-specification:'Comfortaa Bold';letter-spacing:0px;word-spacing:0px;fill:#000000;fill-opacity:1;stroke:none;stroke-width:2.19008"
       d="m -234.86765,106.46471 v 13.13525 l 9.08929,-13.13525 z m 0,-12.130349 v 7.153799 h 13.88576 c 0.71948,0 1.31503,0.23526 1.78667,0.70581 0.47167,0.47053 0.70749,1.06468 0.70749,1.78246 0,0.55828 -0.15985,1.04475 -0.47965,1.45948 l -16.35593,23.61471 c -0.22383,0.31899 -0.5156,0.5742 -0.87536,0.76563 -0.35972,0.1914 -0.75541,0.28709 -1.18713,0.28711 -0.33572,-2e-5 -0.6555,-0.0678 -0.95929,-0.20344 -0.30375,-0.13562 -0.57156,-0.31506 -0.80339,-0.53834 -0.23181,-0.22335 -0.41168,-0.48652 -0.53962,-0.78956 -0.12783,-0.30308 -0.19186,-0.63006 -0.19186,-0.98094 v -21.12645 h -2.94982 c -0.70345,0 -1.29902,-0.23527 -1.78667,-0.7058 -0.48763,-0.47055 -0.73146,-1.06472 -0.73148,-1.78248 2e-5,-0.71779 0.24385,-1.31193 0.73148,-1.78246 0.48765,-0.47056 1.08322,-0.70582 1.78667,-0.70582 h 2.94982 v -7.153796 c 2e-5,-0.685868 0.24385,-1.272052 0.73148,-1.75853 0.48764,-0.486499 1.08322,-0.729749 1.78667,-0.729749 0.68751,0 1.27508,0.24325 1.76271,0.729749 0.48765,0.486478 0.73147,1.072662 0.73145,1.75853 z" />
    <path
       inkscape:connector-curvature="0"
       style="fill:#000000;fill-opacity:1;stroke:none;stroke-width:2.19008"
       d="m -231.91803,89.084477 c 0.33568,0.02187 0.025,-4.868889 0.79752,-7.496576 1.86454,-5.931509 11.75012,-7.869697 15.41845,-12.093536 6.529,-7.517576 2.94846,-14.482328 -2.97733,-18.140261 -5.62668,-3.473308 -12.41939,1.626667 -13.09686,2.157026 0.009,-0.137375 0.0239,-0.270441 0.0355,-0.406656 0.002,-0.02997 0.0154,-0.05863 0.0175,-0.08838 0.83874,-5.300766 7.50018,-7.48857 10.31443,-8.186119 h 1.29374 v -0.282887 h -1.86085 -9.7296 -0.0175 -0.38988 -0.0175 -9.7296 -1.86085 v 0.282887 h 1.29374 c 2.81409,0.697549 9.47573,2.885353 10.31445,8.186119 0.004,0.02975 0.0153,0.05841 0.0175,0.08838 0.011,0.141969 0.0263,0.280568 0.0355,0.424353 -0.33195,-0.263266 -4.52819,-3.529965 -9.10933,-3.377015 -1.33571,0.04375 -2.69131,0.402149 -3.98753,1.202292 -5.92581,3.657933 -9.50633,10.622685 -2.97735,18.140261 3.66835,4.223839 13.55391,6.162027 15.41847,12.093536 0.77287,2.627687 0.46182,7.511013 0.7975,7.496576 z"
       id="path7885" />
    <path
       inkscape:connector-curvature="0"
       style="fill:#000000;fill-opacity:1;stroke:none;stroke-width:2.19008"
       d="m -348.77895,-130.70348 c -0.39183,-0.0256 -0.0285,5.68152 -0.93057,8.74778 -2.17556,6.9215 -13.71119,9.18318 -17.99194,14.11198 -7.61865,8.772283 -3.44052,16.899471 3.4745,21.167935 6.56573,4.053017 14.49201,-1.898179 15.28269,-2.517044 0,0.160344 -0.0285,0.315568 -0.0417,0.474534 0,0.035 -0.0263,0.06847 -0.0263,0.103031 -0.97859,6.185477 -8.75204,8.73844 -12.036,9.552408 h -1.50965 v 0.330093 h 2.17162 11.35342 0.0263 0.45476 0.0263 11.35343 2.17161 v -0.330093 h -1.50965 c -3.28374,-0.813968 -11.05741,-3.366931 -12.036,-9.552408 0,-0.03478 -0.0263,-0.06825 -0.0263,-0.103031 0,-0.165594 -0.0307,-0.327403 -0.0417,-0.495184 0.38745,0.307212 5.28411,4.119123 10.62984,3.940645 1.55855,-0.05097 3.14056,-0.469261 4.65284,-1.402951 6.91502,-4.268464 11.09294,-12.395652 3.47451,-21.167935 -4.28075,-4.9288 -15.81616,-7.19048 -17.99195,-14.11198 -0.90184,-3.06626 -0.53874,-8.76463 -0.93057,-8.74778 z"
       id="path20813-8-4-0-8-8" />
    <path
       inkscape:connector-curvature="0"
       style="fill:#000000;fill-opacity:1;stroke:none;stroke-width:2.19008"
       d="m -281.90255,-130.70348 c -0.39183,-0.0256 -0.0285,5.68152 -0.93056,8.74778 -2.17557,6.9215 -13.7112,9.18318 -17.99195,14.11198 -7.61865,8.772283 -3.44052,16.899471 3.4745,21.167935 6.56573,4.053017 14.49201,-1.898179 15.28269,-2.517044 0,0.160344 -0.0285,0.315568 -0.0417,0.474534 0,0.035 -0.0263,0.06847 -0.0263,0.103031 -0.97858,6.185477 -8.75203,8.73844 -12.03599,9.552408 h -1.50966 v 0.330093 h 2.17162 11.35342 0.0263 0.45476 0.0263 11.35342 2.17162 v -0.330093 h -1.50966 c -3.28374,-0.813968 -11.05741,-3.366931 -12.03599,-9.552408 0,-0.03478 -0.0263,-0.06825 -0.0263,-0.103031 0,-0.165594 -0.0307,-0.327403 -0.0417,-0.495184 0.38745,0.307212 5.28412,4.119123 10.62984,3.940645 1.55855,-0.05097 3.14056,-0.469261 4.65285,-1.402951 6.91502,-4.268464 11.09293,-12.395652 3.4745,-21.167935 -4.28075,-4.9288 -15.81616,-7.19048 -17.99195,-14.11198 -0.90184,-3.06626 -0.53873,-8.76463 -0.93056,-8.74778 z"
       id="path20813-8-4-0-8-4" />
    <path
       inkscape:connector-curvature="0"
       style="fill:#000000;fill-opacity:1;stroke:none;stroke-width:2.19008"
       d="m -348.77947,108.20655 c 0.39183,0.0256 0.0285,-5.68152 0.93056,-8.747779 2.17557,-6.921505 13.7112,-9.18318 17.99195,-14.111984 7.61865,-8.77228 3.44052,-16.899468 -3.4745,-21.167932 -6.56573,-4.053017 -14.49201,1.898179 -15.28269,2.517044 0,-0.160344 0.0285,-0.315568 0.0417,-0.474534 0,-0.035 0.0263,-0.06847 0.0263,-0.103031 0.97858,-6.185477 8.75203,-8.73844 12.03599,-9.552408 h 1.50966 v -0.330093 h -2.17162 -11.35342 -0.0263 -0.45476 -0.0263 -11.35342 -2.17162 v 0.330093 h 1.50966 c 3.28374,0.813968 11.05741,3.366931 12.03599,9.552408 0,0.03478 0.0263,0.06825 0.0263,0.103031 0,0.165594 0.0307,0.327403 0.0417,0.495184 -0.38745,-0.307212 -5.28412,-4.119123 -10.62984,-3.940645 -1.55855,0.05097 -3.14056,0.469261 -4.65285,1.402951 -6.91502,4.268464 -11.09293,12.395652 -3.4745,21.167932 4.28075,4.928804 15.81616,7.190479 17.99195,14.111984 0.90184,3.066259 0.53873,8.764629 0.93056,8.747779 z"
       id="path20813-8-4-0-8-96" />
    <path
       inkscape:connector-curvature="0"
       style="fill:#000000;fill-opacity:1;stroke:none;stroke-width:2.19008"
       d="m -281.90307,108.20655 c 0.39183,0.0256 0.0285,-5.68152 0.93057,-8.747779 2.17556,-6.921505 13.71119,-9.18318 17.99194,-14.111984 7.61865,-8.77228 3.44052,-16.899468 -3.4745,-21.167932 -6.56573,-4.053017 -14.49201,1.898179 -15.28269,2.517044 0,-0.160344 0.0285,-0.315568 0.0417,-0.474534 0,-0.035 0.0263,-0.06847 0.0263,-0.103031 0.97859,-6.185477 8.75204,-8.73844 12.036,-9.552408 h 1.50965 v -0.330093 h -2.17162 -11.35342 -0.0263 -0.45476 -0.0263 -11.35343 -2.17161 v 0.330093 h 1.50965 c 3.28374,0.813968 11.05741,3.366931 12.036,9.552408 0,0.03478 0.0263,0.06825 0.0263,0.103031 0,0.165594 0.0307,0.327403 0.0417,0.495184 -0.38745,-0.307212 -5.28411,-4.119123 -10.62984,-3.940645 -1.55855,0.05097 -3.14056,0.469261 -4.65284,1.402951 -6.91502,4.268464 -11.09294,12.395652 -3.47451,21.167932 4.28075,4.928804 15.81616,7.190479 17.99195,14.111984 0.90184,3.066259 0.53874,8.764629 0.93057,8.747779 z"
       id="path20813-8-4-0-8-3" />
  </g>
</svg>
