<?xml version="1.0" encoding="UTF-8" standalone="no"?>
<svg
   xmlns:dc="http://purl.org/dc/elements/1.1/"
   xmlns:cc="http://creativecommons.org/ns#"
   xmlns:rdf="http://www.w3.org/1999/02/22-rdf-syntax-ns#"
   xmlns:svg="http://www.w3.org/2000/svg"
   xmlns="http://www.w3.org/2000/svg"
   xmlns:sodipodi="http://sodipodi.sourceforge.net/DTD/sodipodi-0.dtd"
   xmlns:inkscape="http://www.inkscape.org/namespaces/inkscape"
   inkscape:version="1.0 (4035a4fb49, 2020-05-01)"
   sodipodi:docname="5C.svg"
   id="svg30"
   version="1.1"
   width="2.25in"
   viewBox="-106 -164.5 212 329"
   preserveAspectRatio="none"
   height="3.5in"
   face="5C"
   class="card">
  <metadata
     id="metadata36">
    <rdf:RDF>
      <cc:Work
         rdf:about="">
        <dc:format>image/svg+xml</dc:format>
        <dc:type
           rdf:resource="http://purl.org/dc/dcmitype/StillImage" />
      </cc:Work>
    </rdf:RDF>
  </metadata>
  <defs
     id="defs34" />
  <sodipodi:namedview
     inkscape:current-layer="svg30"
     inkscape:window-maximized="1"
     inkscape:window-y="-12"
     inkscape:window-x="-12"
     inkscape:cy="168"
     inkscape:cx="108"
     inkscape:zoom="2.2410714"
     showgrid="false"
     id="namedview32"
     inkscape:window-height="2050"
     inkscape:window-width="3240"
     inkscape:pageshadow="2"
     inkscape:pageopacity="0"
     guidetolerance="10"
     gridtolerance="10"
     objecttolerance="10"
     borderopacity="1"
     bordercolor="#666666"
     pagecolor="#ffffff" />
  <symbol
     preserveAspectRatio="xMinYMid"
     viewBox="-600 -600 1200 1200"
     id="SC5">
    <path
       id="path2"
       fill="black"
       d="M30 150C35 385 85 400 130 500L-130 500C-85 400 -35 385 -30 150A10 10 0 0 0 -50 150A210 210 0 1 1 -124 -51A10 10 0 0 0 -110 -65A230 230 0 1 1 110 -65A10 10 0 0 0 124 -51A210 210 0 1 1 50 150A10 10 0 0 0 30 150Z" />
  </symbol>
  <symbol
     preserveAspectRatio="xMinYMid"
     viewBox="-500 -500 1000 1000"
     id="VC5">
    <path
       id="path5"
       fill="none"
       stroke-miterlimit="1.5"
       stroke-linecap="square"
       stroke-width="80"
       stroke="black"
       d="M170 -460L-175 -460L-210 -115C-210 -115 -200 -200 0 -200C100 -200 255 -80 255 120C255 320 180 460 -20 460C-220 460 -255 285 -255 285" />
  </symbol>
  <rect
     id="rect8"
     stroke="black"
     fill="white"
     ry="12"
     rx="12"
     y="-164"
     x="-105.5"
     height="328"
     width="211" />
  <g
     transform="translate(-227.2814,218.67795)"
     id="g906">
    <path
       inkscape:connector-curvature="0"
       id="path26174"
       style="font-style:normal;font-variant:normal;font-weight:bold;font-stretch:normal;font-size:22.4px;line-height:125%;font-family:Comfortaa;-inkscape-font-specification:'Comfortaa Bold';letter-spacing:0px;word-spacing:0px;fill:#000000;fill-opacity:1;stroke:none;stroke-width:2.19008"
       d="m 152.03626,-356.66993 h -13.88575 v 8.2783 h 5.70778 c 1.67875,4e-5 3.27356,0.32703 4.78447,0.98096 1.51088,0.654 2.84189,1.54324 3.99306,2.66772 1.15113,1.12455 2.06245,2.44842 2.73398,3.97169 0.67148,1.52328 1.00724,3.14625 1.00727,4.86888 -3e-5,1.70671 -0.3318,3.31772 -0.99528,4.833 -0.66352,1.51532 -1.56287,2.83919 -2.69801,3.97168 -1.13519,1.13249 -2.46219,2.02969 -3.98106,2.69165 -1.5189,0.66194 -3.13371,0.99291 -4.84443,0.99291 -1.71075,0 -3.32556,-0.33097 -4.84442,-0.99291 -1.51888,-0.66196 -2.84591,-1.55916 -3.98108,-2.69165 -1.13516,-1.13249 -2.03449,-2.45636 -2.69801,-3.97168 -0.6635,-1.51528 -0.99525,-3.12629 -0.99525,-4.833 0,-0.71776 0.23582,-1.3119 0.70746,-1.78246 0.47167,-0.47053 1.06722,-0.70579 1.7867,-0.70581 0.70347,2e-5 1.29902,0.23528 1.78667,0.70581 0.48763,0.47056 0.73146,1.0647 0.73148,1.78246 -2e-5,1.03679 0.1958,2.00977 0.58755,2.91893 0.39172,0.90919 0.92732,1.70273 1.60683,2.38064 0.67948,0.67788 1.4749,1.21224 2.38623,1.60302 0.91132,0.39079 1.8866,0.58618 2.92584,0.58618 1.02323,0 1.99052,-0.19534 2.90186,-0.58618 0.91132,-0.39078 1.71072,-0.92912 2.39823,-1.61499 0.68747,-0.68587 1.22709,-1.4794 1.61881,-2.38061 0.3917,-0.9012 0.58754,-1.8702 0.58757,-2.90699 -3e-5,-1.02081 -0.19997,-1.98583 -0.59957,-2.89502 -0.39972,-0.90917 -0.93931,-1.7027 -1.6188,-2.38061 -0.67951,-0.67788 -1.47492,-1.2162 -2.38624,-1.61498 -0.91134,-0.39874 -1.87863,-0.59813 -2.90186,-0.59815 h -8.20195 c -0.71948,2e-5 -1.31503,-0.23923 -1.78669,-0.71776 -0.47164,-0.4785 -0.70747,-1.07665 -0.70747,-1.79445 v -13.25486 c 0,-0.70179 0.23583,-1.29594 0.70747,-1.78246 0.47166,-0.48646 1.06721,-0.7297 1.78669,-0.72975 h 16.37992 c 0.70345,5e-5 1.29903,0.24728 1.78668,0.74169 0.48762,0.49451 0.73145,1.08467 0.73147,1.77052 -2e-5,0.68591 -0.24385,1.2721 -0.73147,1.75855 -0.48765,0.48652 -1.08323,0.72975 -1.78668,0.72973 z" />
    <path
       inkscape:connector-curvature="0"
       id="path11530-6"
       d="m 143.85794,-311.90163 c -6.29954,0 -11.39616,5.10216 -11.39616,11.38706 0,2.46684 0.7721,4.74888 2.109,6.61296 -4.39111,0.52344 -7.79832,4.09473 -7.79832,8.45189 0,4.71723 3.98347,8.5403 8.89722,8.5403 3.19616,0 5.98147,-1.61986 7.55036,-4.04912 -0.28364,5.58658 -1.49779,11.02916 -5.93755,11.70532 -0.0974,0.0153 -0.19953,0.0431 -0.30112,0.0529 h -0.585 v 0.28291 h 7.46157 7.46178 v -0.28291 h -0.58498 c -0.10218,-0.0109 -0.20217,-0.0378 -0.30136,-0.0529 -4.43503,-0.67546 -5.65218,-6.10714 -5.93731,-11.68765 1.57039,2.42222 4.35968,4.03145 7.55034,4.03145 4.91375,0 8.89724,-3.82307 8.89724,-8.5403 0,-4.36259 -3.39947,-7.95315 -7.79858,-8.46955 1.33192,-1.86197 2.12696,-4.13356 2.12696,-6.5953 0,-6.2849 -5.11432,-11.38706 -11.41409,-11.38706 z"
       style="fill:none;stroke:#000000;stroke-width:2.49172;stroke-opacity:1" />
    <path
       inkscape:connector-curvature="0"
       id="path26162"
       style="font-style:normal;font-variant:normal;font-weight:bold;font-stretch:normal;font-size:22.4px;line-height:125%;font-family:Comfortaa;-inkscape-font-specification:'Comfortaa Bold';letter-spacing:0px;word-spacing:0px;fill:#000000;fill-opacity:1;stroke:none;stroke-width:2.19008"
       d="m 302.52667,-80.685971 h 13.88576 v -8.2783 h -5.70781 c -1.67873,-2.2e-5 -3.27356,-0.327009 -4.78447,-0.980961 -1.51085,-0.653996 -2.84187,-1.543236 -3.99304,-2.667719 -1.15113,-1.124527 -2.06245,-2.448422 -2.734,-3.971664 -0.67146,-1.523308 -1.00722,-3.146256 -1.00724,-4.868915 2e-5,-1.7067 0.33177,-3.31771 0.99525,-4.83299 0.66354,-1.5153 1.56289,-2.83919 2.69801,-3.97168 1.13519,-1.13247 2.46222,-2.02969 3.98108,-2.69163 1.51888,-0.66196 3.13369,-0.99293 4.84441,-0.99293 1.71077,0 3.32558,0.33097 4.84444,0.99293 1.51889,0.66194 2.84591,1.55916 3.98106,2.69163 1.13516,1.13249 2.03451,2.45638 2.69801,3.97168 0.66352,1.51528 0.99527,3.12629 0.99527,4.83299 0,0.71777 -0.23582,1.31193 -0.70748,1.782487 -0.47165,0.470531 -1.0672,0.705796 -1.78668,0.705796 -0.70347,0 -1.29904,-0.235265 -1.78669,-0.705796 -0.48763,-0.470557 -0.73146,-1.064717 -0.73146,-1.782487 0,-1.03678 -0.1958,-2.00976 -0.58757,-2.91893 -0.39169,-0.90919 -0.9273,-1.70272 -1.6068,-2.38061 -0.67949,-0.6779 -1.4749,-1.21224 -2.38624,-1.60302 -0.91132,-0.39079 -1.8866,-0.58618 -2.92586,-0.58618 -1.02323,0 -1.9905,0.19534 -2.90184,0.58618 -0.91132,0.39078 -1.71072,0.9291 -2.39823,1.61499 -0.68749,0.68587 -1.22708,1.4794 -1.61883,2.38061 -0.39167,0.90118 -0.58752,1.87018 -0.58754,2.90696 2e-5,1.02084 0.19975,1.985837 0.59954,2.895026 0.39972,0.909168 0.93934,1.702705 1.6188,2.38061 0.67953,0.677884 1.47494,1.216205 2.38626,1.614986 0.91134,0.398759 1.87861,0.598127 2.90184,0.598149 h 8.20197 c 0.71948,-2.2e-5 1.31503,0.239247 1.78667,0.717784 0.47167,0.478493 0.70749,1.07662 0.70749,1.794426 v 13.254856 c 0,0.701793 -0.23582,1.295961 -0.70749,1.782483 -0.47164,0.486455 -1.06719,0.729683 -1.78667,0.729727 h -16.37992 c -0.70347,-4.4e-5 -1.29902,-0.247275 -1.7867,-0.741693 -0.4876,-0.494506 -0.73143,-1.08467 -0.73145,-1.770517 2e-5,-0.685889 0.24385,-1.272073 0.73145,-1.758529 0.48768,-0.486521 1.08323,-0.729771 1.7867,-0.729749 z" />
    <path
       inkscape:connector-curvature="0"
       id="path11530-5"
       d="m 310.70487,-125.45427 c 6.29953,0 11.39615,-5.10216 11.39615,-11.38706 0,-2.46686 -0.7721,-4.7489 -2.109,-6.61298 4.39111,-0.52342 7.79832,-4.09471 7.79832,-8.45188 0,-4.71725 -3.98347,-8.54031 -8.89722,-8.54031 -3.19616,0 -5.98147,1.61988 -7.55036,4.04914 0.28364,-5.58658 1.49779,-11.02919 5.93755,-11.70534 0.0974,-0.0153 0.19953,-0.0431 0.30112,-0.0529 h 0.585 v -0.28289 h -7.46156 -7.46179 v 0.28289 h 0.58498 c 0.10218,0.0109 0.20217,0.0378 0.30136,0.0529 4.43503,0.67548 5.65218,6.10716 5.93731,11.68767 -1.57039,-2.42222 -4.35968,-4.03147 -7.55034,-4.03147 -4.91375,0 -8.89724,3.82306 -8.89724,8.54031 0,4.3626 3.39947,7.95313 7.79858,8.46956 -1.33192,1.86195 -2.12696,4.13354 -2.12696,6.5953 0,6.2849 5.11432,11.38706 11.4141,11.38706 z"
       style="fill:none;stroke:#000000;stroke-width:2.49172;stroke-opacity:1" />
    <path
       style="fill:#000000;fill-opacity:1;stroke:none;stroke-width:2.19008"
       d="m 192.39909,-336.69348 c -7.5819,0 -13.71598,6.14076 -13.71598,13.70504 0,2.969 0.92927,5.71558 2.53832,7.95912 -5.28499,0.63 -9.38579,4.92826 -9.38579,10.17237 0,5.67749 4.79439,10.27879 10.70839,10.27879 3.84677,0 7.19905,-1.94961 9.08731,-4.87338 -0.34137,6.7238 -1.8027,13.27431 -7.14621,14.0881 -0.11709,0.0175 -0.24021,0.0518 -0.3624,0.0639 h -0.70409 v 0.34049 h 8.98045 8.98073 v -0.34049 h -0.70409 c -0.12301,-0.0109 -0.24319,-0.0455 -0.36269,-0.0639 -5.33783,-0.81296 -6.80273,-7.35034 -7.14593,-14.06683 1.89008,2.91527 5.24715,4.85211 9.08734,4.85211 5.914,0 10.70836,-4.6013 10.70836,-10.27879 0,-5.25065 -4.09147,-9.5721 -9.38607,-10.19363 1.60302,-2.24098 2.55992,-4.97498 2.55992,-7.93786 0,-7.56428 -6.15539,-13.70504 -13.73757,-13.70504 z"
       id="path8249"
       inkscape:connector-curvature="0" />
    <path
       style="fill:#000000;fill-opacity:1;stroke:none;stroke-width:2.19008"
       d="m 262.56449,-336.69348 c -7.5819,0 -13.71598,6.14076 -13.71598,13.70504 0,2.969 0.92928,5.71558 2.53832,7.95912 -5.28499,0.63 -9.38578,4.92826 -9.38578,10.17237 0,5.67749 4.79438,10.27879 10.70838,10.27879 3.84678,0 7.19906,-1.94961 9.08732,-4.87338 -0.34138,6.7238 -1.8027,13.27431 -7.14622,14.0881 -0.11708,0.0175 -0.2402,0.0518 -0.3624,0.0639 h -0.70409 v 0.34049 h 8.98045 8.98073 v -0.34049 h -0.70408 c -0.12301,-0.0109 -0.24319,-0.0455 -0.36269,-0.0639 -5.33784,-0.81296 -6.80274,-7.35034 -7.14593,-14.06683 1.89008,2.91527 5.24714,4.85211 9.08734,4.85211 5.914,0 10.70836,-4.6013 10.70836,-10.27879 0,-5.25065 -4.09148,-9.5721 -9.38607,-10.19363 1.60301,-2.24098 2.55992,-4.97498 2.55992,-7.93786 0,-7.56428 -6.1554,-13.70504 -13.73758,-13.70504 z"
       id="path8253"
       inkscape:connector-curvature="0" />
    <path
       style="fill:#000000;fill-opacity:1;stroke:none;stroke-width:2.19008"
       d="m 192.1803,-97.599986 c 7.5819,0 13.71598,-6.140764 13.71598,-13.705024 0,-2.96902 -0.92928,-5.7156 -2.53832,-7.95912 5.28499,-0.63 9.38578,-4.92826 9.38578,-10.17237 0,-5.67749 -4.79438,-10.27881 -10.70838,-10.27881 -3.84677,0 -7.19906,1.94963 -9.08732,4.87338 0.34138,-6.72378 1.80271,-13.27429 7.14622,-14.08808 0.11709,-0.0175 0.2402,-0.0518 0.3624,-0.0639 h 0.70409 v -0.34049 h -8.98045 -8.98073 v 0.34049 h 0.70409 c 0.123,0.0109 0.24318,0.0455 0.36269,0.0639 5.33783,0.81296 6.80273,7.35034 7.14593,14.06681 -1.89009,-2.91527 -5.24715,-4.85211 -9.08735,-4.85211 -5.914,0 -10.70835,4.60132 -10.70835,10.27881 0,5.25063 4.09147,9.57208 9.38607,10.19363 -1.60302,2.24098 -2.55992,4.97498 -2.55992,7.93786 0,7.56426 6.15539,13.705024 13.73757,13.705024 z"
       id="path8257"
       inkscape:connector-curvature="0" />
    <path
       style="fill:#000000;fill-opacity:1;stroke:none;stroke-width:2.19008"
       d="m 262.34571,-97.599986 c 7.58189,0 13.71597,-6.140764 13.71597,-13.705024 0,-2.96902 -0.92927,-5.7156 -2.53832,-7.95912 5.28499,-0.63 9.38579,-4.92826 9.38579,-10.17237 0,-5.67749 -4.79438,-10.27881 -10.70838,-10.27881 -3.84678,0 -7.19906,1.94963 -9.08732,4.87338 0.34137,-6.72378 1.8027,-13.27429 7.14621,-14.08808 0.11709,-0.0175 0.24021,-0.0518 0.36241,-0.0639 h 0.70408 v -0.34049 h -8.98044 -8.98074 v 0.34049 h 0.70409 c 0.12301,0.0109 0.24319,0.0455 0.36269,0.0639 5.33783,0.81296 6.80273,7.35034 7.14593,14.06681 -1.89008,-2.91527 -5.24714,-4.85211 -9.08734,-4.85211 -5.914,0 -10.70836,4.60132 -10.70836,10.27881 0,5.25063 4.09148,9.57208 9.38607,10.19363 -1.60302,2.24098 -2.55992,4.97498 -2.55992,7.93786 0,7.56426 6.15539,13.705024 13.73758,13.705024 z"
       id="path8261"
       inkscape:connector-curvature="0" />
    <path
       style="fill:#000000;fill-opacity:1;stroke:none;stroke-width:2.19008"
       d="m 227.28116,-244.16234 c -7.5819,0 -13.71598,6.14076 -13.71598,13.70504 0,2.96901 0.92928,5.71558 2.53832,7.95913 -5.28499,0.62999 -9.38578,4.92825 -9.38578,10.17236 0,5.6775 4.79438,10.27879 10.70838,10.27879 3.84677,0 7.19906,-1.94961 9.08732,-4.87337 -0.34138,6.7238 -1.8027,13.2743 -7.14622,14.08809 -0.11709,0.0175 -0.2402,0.0519 -0.3624,0.0639 h -0.70409 v 0.34048 h 8.98045 8.98073 v -0.34048 h -0.70409 c -0.123,-0.0109 -0.24318,-0.0455 -0.36268,-0.0639 -5.33784,-0.81296 -6.80274,-7.35034 -7.14593,-14.06683 1.89008,2.91528 5.24714,4.85211 9.08734,4.85211 5.914,0 10.70836,-4.60129 10.70836,-10.27879 0,-5.25065 -4.09148,-9.57209 -9.38608,-10.19363 1.60302,-2.24098 2.55992,-4.97498 2.55992,-7.93786 0,-7.56428 -6.15539,-13.70504 -13.73757,-13.70504 z"
       id="path8338"
       inkscape:connector-curvature="0" />
  </g>
</svg>
