<?xml version="1.0" encoding="UTF-8" standalone="no"?>
<svg
   xmlns:dc="http://purl.org/dc/elements/1.1/"
   xmlns:cc="http://creativecommons.org/ns#"
   xmlns:rdf="http://www.w3.org/1999/02/22-rdf-syntax-ns#"
   xmlns:svg="http://www.w3.org/2000/svg"
   xmlns="http://www.w3.org/2000/svg"
   xmlns:sodipodi="http://sodipodi.sourceforge.net/DTD/sodipodi-0.dtd"
   xmlns:inkscape="http://www.inkscape.org/namespaces/inkscape"
   inkscape:version="1.0 (4035a4fb49, 2020-05-01)"
   sodipodi:docname="5D.svg"
   id="svg30"
   version="1.1"
   width="2.25in"
   viewBox="-106 -164.5 212 329"
   preserveAspectRatio="none"
   height="3.5in"
   face="5D"
   class="card">
  <metadata
     id="metadata36">
    <rdf:RDF>
      <cc:Work
         rdf:about="">
        <dc:format>image/svg+xml</dc:format>
        <dc:type
           rdf:resource="http://purl.org/dc/dcmitype/StillImage" />
      </cc:Work>
    </rdf:RDF>
  </metadata>
  <defs
     id="defs34" />
  <sodipodi:namedview
     inkscape:current-layer="svg30"
     inkscape:window-maximized="1"
     inkscape:window-y="-12"
     inkscape:window-x="-12"
     inkscape:cy="168"
     inkscape:cx="108"
     inkscape:zoom="2.2410714"
     showgrid="false"
     id="namedview32"
     inkscape:window-height="2050"
     inkscape:window-width="3240"
     inkscape:pageshadow="2"
     inkscape:pageopacity="0"
     guidetolerance="10"
     gridtolerance="10"
     objecttolerance="10"
     borderopacity="1"
     bordercolor="#666666"
     pagecolor="#ffffff" />
  <symbol
     preserveAspectRatio="xMinYMid"
     viewBox="-600 -600 1200 1200"
     id="SD5">
    <path
       id="path2"
       fill="red"
       d="M-400 0C-350 0 0 -450 0 -500C0 -450 350 0 400 0C350 0 0 450 0 500C0 450 -350 0 -400 0Z" />
  </symbol>
  <symbol
     preserveAspectRatio="xMinYMid"
     viewBox="-500 -500 1000 1000"
     id="VD5">
    <path
       id="path5"
       fill="none"
       stroke-miterlimit="1.5"
       stroke-linecap="square"
       stroke-width="80"
       stroke="red"
       d="M170 -460L-175 -460L-210 -115C-210 -115 -200 -200 0 -200C100 -200 255 -80 255 120C255 320 180 460 -20 460C-220 460 -255 285 -255 285" />
  </symbol>
  <rect
     id="rect8"
     stroke="black"
     fill="white"
     ry="12"
     rx="12"
     y="-164"
     x="-105.5"
     height="328"
     width="211" />
  <g
     transform="translate(353.4428,-66.630149)"
     id="g906">
    <path
       inkscape:connector-curvature="0"
       id="path26168"
       style="font-style:normal;font-variant:normal;font-weight:bold;font-stretch:normal;font-size:22.4px;line-height:125%;font-family:Comfortaa;-inkscape-font-specification:'Comfortaa Bold';letter-spacing:0px;word-spacing:0px;fill:#ff0000;fill-opacity:1;stroke:none;stroke-width:2.19008"
       d="m -428.68794,-71.361916 h -13.88575 v 8.278322 h 5.70778 c 1.67875,2.2e-5 3.27356,0.327009 4.78447,0.980939 1.51088,0.653997 2.84189,1.543236 3.99306,2.667741 1.15113,1.124527 2.06245,2.448422 2.73398,3.971664 0.67148,1.523286 1.00724,3.146256 1.00727,4.868888 -3e-5,1.70673 -0.3318,3.317712 -0.99528,4.833014 -0.66352,1.515301 -1.56287,2.839196 -2.69801,3.971664 -1.13519,1.132489 -2.46219,2.029713 -3.98106,2.69165 -1.5189,0.661959 -3.13371,0.992927 -4.84443,0.992927 -1.71075,0 -3.32556,-0.330968 -4.84442,-0.992927 -1.51888,-0.661937 -2.84591,-1.559161 -3.98108,-2.69165 -1.13516,-1.132468 -2.03449,-2.456363 -2.69801,-3.971664 -0.6635,-1.515302 -0.99525,-3.126284 -0.99525,-4.833014 0,-0.717761 0.23582,-1.311907 0.70746,-1.78246 0.47167,-0.470531 1.06722,-0.705796 1.7867,-0.705818 0.70347,2.2e-5 1.29902,0.235287 1.78667,0.705818 0.48763,0.470553 0.73146,1.064699 0.73148,1.78246 -2e-5,1.036809 0.1958,2.009786 0.58755,2.918953 0.39172,0.90919 0.92732,1.702727 1.60683,2.38061 0.67948,0.677906 1.4749,1.212246 2.38623,1.60302 0.91132,0.390797 1.8866,0.586184 2.92584,0.586184 1.02323,0 1.99052,-0.195344 2.90186,-0.586184 0.91132,-0.390774 1.71072,-0.929117 2.39823,-1.614985 0.68747,-0.685868 1.22709,-1.479405 1.61881,-2.38061 0.3917,-0.901205 0.58754,-1.870179 0.58757,-2.906988 -3e-5,-1.020817 -0.19997,-1.98581 -0.59957,-2.895021 -0.39972,-0.909146 -0.93931,-1.702683 -1.6188,-2.38061 -0.67951,-0.677862 -1.47492,-1.216205 -2.38624,-1.614986 -0.91134,-0.398737 -1.87863,-0.598127 -2.90186,-0.598149 h -8.20195 c -0.71948,2.2e-5 -1.31503,-0.239225 -1.78669,-0.717762 -0.47164,-0.478493 -0.70747,-1.076642 -0.70747,-1.794426 v -13.254878 c 0,-0.701771 0.23583,-1.295939 0.70747,-1.782461 0.47166,-0.486455 1.06721,-0.729705 1.78669,-0.729727 h 16.37992 c 0.70345,2.2e-5 1.29903,0.247253 1.78668,0.741693 0.48762,0.494506 0.73145,1.08467 0.73147,1.770495 -2e-5,0.685911 -0.24385,1.272095 -0.73147,1.758551 -0.48765,0.486521 -1.08323,0.729771 -1.78668,0.729727 z" />
    <path
       style="fill:none;stroke:#ff0000;stroke-width:2.19008;stroke-opacity:1"
       d="m -453.3725,-9.0384278 16.50663,-20.6487292 16.50641,20.6487074 -16.50663,24.1709286 z"
       id="path11636-0"
       inkscape:connector-curvature="0"
       sodipodi:nodetypes="ccccc" />
    <path
       inkscape:connector-curvature="0"
       id="path26156"
       style="font-style:normal;font-variant:normal;font-weight:bold;font-stretch:normal;font-size:22.4px;line-height:125%;font-family:Comfortaa;-inkscape-font-specification:'Comfortaa Bold';letter-spacing:0px;word-spacing:0px;fill:#ff0000;fill-opacity:1;stroke:none;stroke-width:2.19008"
       d="m -278.19753,204.6222 h 13.88576 v -8.27832 h -5.70781 c -1.67873,-3e-5 -3.27356,-0.32701 -4.78447,-0.98094 -1.51085,-0.654 -2.84187,-1.54324 -3.99304,-2.66775 -1.15113,-1.12452 -2.06245,-2.4484 -2.734,-3.97166 -0.67146,-1.52329 -1.00722,-3.14626 -1.00724,-4.86889 2e-5,-1.70671 0.33177,-3.31771 0.99525,-4.83301 0.66354,-1.5153 1.56289,-2.8392 2.69801,-3.97167 1.13519,-1.13248 2.46222,-2.02971 3.98108,-2.69165 1.51888,-0.66193 3.13369,-0.99292 4.84441,-0.99292 1.71077,0 3.32558,0.33099 4.84444,0.99292 1.51889,0.66194 2.84591,1.55917 3.98106,2.69165 1.13516,1.13247 2.03451,2.45637 2.69801,3.97167 0.66352,1.5153 0.99527,3.1263 0.99527,4.83301 0,0.71776 -0.23582,1.31191 -0.70748,1.78246 -0.47165,0.47053 -1.0672,0.7058 -1.78668,0.70582 -0.70347,-2e-5 -1.29904,-0.23529 -1.78669,-0.70582 -0.48763,-0.47055 -0.73146,-1.0647 -0.73146,-1.78246 0,-1.03678 -0.1958,-2.00978 -0.58757,-2.91895 -0.39169,-0.90919 -0.9273,-1.70273 -1.6068,-2.38061 -0.67949,-0.67791 -1.4749,-1.21225 -2.38624,-1.60302 -0.91132,-0.3908 -1.8866,-0.58618 -2.92586,-0.58618 -1.02323,0 -1.9905,0.19534 -2.90184,0.58618 -0.91132,0.39077 -1.71072,0.92912 -2.39823,1.61499 -0.68749,0.68586 -1.22708,1.4794 -1.61883,2.38061 -0.39167,0.9012 -0.58752,1.8702 -0.58754,2.90698 2e-5,1.02082 0.19975,1.98581 0.59954,2.89502 0.39972,0.90915 0.93934,1.70269 1.6188,2.38061 0.67953,0.67787 1.47494,1.21621 2.38626,1.61499 0.91134,0.39874 1.87861,0.59813 2.90184,0.59815 h 8.20197 c 0.71948,-2e-5 1.31503,0.23922 1.78667,0.71776 0.47167,0.47849 0.70749,1.07664 0.70749,1.79443 v 13.25488 c 0,0.70179 -0.23582,1.29593 -0.70749,1.78246 -0.47164,0.48645 -1.06719,0.7297 -1.78667,0.72974 h -16.37992 c -0.70347,-4e-5 -1.29902,-0.24727 -1.7867,-0.74171 -0.4876,-0.49448 -0.73143,-1.08467 -0.73145,-1.77049 2e-5,-0.68592 0.24385,-1.2721 0.73145,-1.75856 0.48768,-0.48652 1.08323,-0.72977 1.7867,-0.72972 z" />
    <path
       style="fill:none;stroke:#ff0000;stroke-width:2.19008;stroke-opacity:1"
       d="m -253.5131,142.29869 -16.50663,20.64873 -16.50641,-20.64871 16.50663,-24.17093 z"
       id="path11636-3"
       inkscape:connector-curvature="0"
       sodipodi:nodetypes="ccccc" />
    <path
       style="fill:#ff0000;fill-opacity:1;stroke:none;stroke-width:2.19008"
       d="m -407.57221,-25.429106 19.24749,-24.077347 19.24723,24.077325 -19.24749,28.1843961 z"
       id="path8271"
       inkscape:connector-curvature="0"
       sodipodi:nodetypes="ccccc" />
    <path
       style="fill:#ff0000;fill-opacity:1;stroke:none;stroke-width:2.19008"
       d="m -337.4068,-25.429106 19.24749,-24.077347 19.24722,24.077325 -19.24749,28.1843961 z"
       id="path8273"
       inkscape:connector-curvature="0"
       sodipodi:nodetypes="ccccc" />
    <path
       style="fill:#ff0000;fill-opacity:1;stroke:none;stroke-width:2.19008"
       d="m -369.29676,160.00199 -19.24749,24.07735 -19.24723,-24.07732 19.24749,-28.1844 z"
       id="path8275"
       inkscape:connector-curvature="0"
       sodipodi:nodetypes="ccccc" />
    <path
       style="fill:#ff0000;fill-opacity:1;stroke:none;stroke-width:2.19008"
       d="m -299.13136,160.00199 -19.24748,24.07735 -19.24723,-24.07732 19.24749,-28.1844 z"
       id="path8277"
       inkscape:connector-curvature="0"
       sodipodi:nodetypes="ccccc" />
    <path
       style="fill:#ff0000;fill-opacity:1;stroke:none;stroke-width:2.19008"
       d="m -372.69016,63.383293 19.24749,-24.077348 19.24723,24.077326 -19.24749,28.184396 z"
       id="path8342"
       inkscape:connector-curvature="0"
       sodipodi:nodetypes="ccccc" />
  </g>
</svg>
