<?xml version="1.0" encoding="UTF-8" standalone="no"?>
<svg
   xmlns:dc="http://purl.org/dc/elements/1.1/"
   xmlns:cc="http://creativecommons.org/ns#"
   xmlns:rdf="http://www.w3.org/1999/02/22-rdf-syntax-ns#"
   xmlns:svg="http://www.w3.org/2000/svg"
   xmlns="http://www.w3.org/2000/svg"
   xmlns:sodipodi="http://sodipodi.sourceforge.net/DTD/sodipodi-0.dtd"
   xmlns:inkscape="http://www.inkscape.org/namespaces/inkscape"
   inkscape:version="1.0 (4035a4fb49, 2020-05-01)"
   sodipodi:docname="5H.svg"
   id="svg30"
   version="1.1"
   width="2.25in"
   viewBox="-106 -164.5 212 329"
   preserveAspectRatio="none"
   height="3.5in"
   face="5H"
   class="card">
  <metadata
     id="metadata36">
    <rdf:RDF>
      <cc:Work
         rdf:about="">
        <dc:format>image/svg+xml</dc:format>
        <dc:type
           rdf:resource="http://purl.org/dc/dcmitype/StillImage" />
      </cc:Work>
    </rdf:RDF>
  </metadata>
  <defs
     id="defs34" />
  <sodipodi:namedview
     inkscape:current-layer="svg30"
     inkscape:window-maximized="1"
     inkscape:window-y="-12"
     inkscape:window-x="-12"
     inkscape:cy="168"
     inkscape:cx="108"
     inkscape:zoom="2.2410714"
     showgrid="false"
     id="namedview32"
     inkscape:window-height="2050"
     inkscape:window-width="3240"
     inkscape:pageshadow="2"
     inkscape:pageopacity="0"
     guidetolerance="10"
     gridtolerance="10"
     objecttolerance="10"
     borderopacity="1"
     bordercolor="#666666"
     pagecolor="#ffffff" />
  <symbol
     preserveAspectRatio="xMinYMid"
     viewBox="-600 -600 1200 1200"
     id="SH5">
    <path
       id="path2"
       fill="red"
       d="M0 -300C0 -400 100 -500 200 -500C300 -500 400 -400 400 -250C400 0 0 400 0 500C0 400 -400 0 -400 -250C-400 -400 -300 -500 -200 -500C-100 -500 0 -400 -0 -300Z" />
  </symbol>
  <symbol
     preserveAspectRatio="xMinYMid"
     viewBox="-500 -500 1000 1000"
     id="VH5">
    <path
       id="path5"
       fill="none"
       stroke-miterlimit="1.5"
       stroke-linecap="square"
       stroke-width="80"
       stroke="red"
       d="M170 -460L-175 -460L-210 -115C-210 -115 -200 -200 0 -200C100 -200 255 -80 255 120C255 320 180 460 -20 460C-220 460 -255 285 -255 285" />
  </symbol>
  <rect
     id="rect8"
     stroke="black"
     fill="white"
     ry="12"
     rx="12"
     y="-164"
     x="-105.5"
     height="328"
     width="211" />
  <g
     transform="translate(326.7277,-15.94756)"
     id="g906">
    <path
       inkscape:connector-curvature="0"
       id="path26171"
       style="font-style:normal;font-variant:normal;font-weight:bold;font-stretch:normal;font-size:22.4px;line-height:125%;font-family:Comfortaa;-inkscape-font-specification:'Comfortaa Bold';letter-spacing:0px;word-spacing:0px;fill:#ff0000;fill-opacity:1;stroke:none;stroke-width:2.19008"
       d="m -401.97284,-122.04442 h -13.88575 v 8.27832 h 5.70778 c 1.67875,3e-5 3.27356,0.32701 4.78447,0.98094 1.51088,0.654 2.84189,1.54324 3.99306,2.66774 1.15113,1.12453 2.06245,2.44843 2.73398,3.97167 0.67148,1.52328 1.00724,3.14625 1.00727,4.86889 -3e-5,1.706725 -0.3318,3.317708 -0.99528,4.833009 -0.66352,1.515301 -1.56287,2.839197 -2.69801,3.971664 -1.13519,1.13249 -2.46219,2.029714 -3.98106,2.69165 -1.5189,0.661959 -3.13371,0.992927 -4.84443,0.992927 -1.71075,0 -3.32556,-0.330968 -4.84442,-0.992927 -1.51888,-0.661936 -2.84591,-1.55916 -3.98108,-2.69165 -1.13516,-1.132467 -2.03449,-2.456363 -2.69801,-3.971664 -0.6635,-1.515301 -0.99525,-3.126284 -0.99525,-4.833009 0,-0.71777 0.23582,-1.31191 0.70746,-1.78246 0.47167,-0.47054 1.06722,-0.7058 1.7867,-0.70582 0.70347,2e-5 1.29902,0.23528 1.78667,0.70582 0.48763,0.47055 0.73146,1.06469 0.73148,1.78246 -2e-5,1.0368 0.1958,2.009781 0.58755,2.918949 0.39172,0.909189 0.92732,1.702726 1.60683,2.38061 0.67948,0.677905 1.4749,1.212245 2.38623,1.60302 0.91132,0.390796 1.8866,0.586183 2.92584,0.586183 1.02323,0 1.99052,-0.195343 2.90186,-0.586183 0.91132,-0.390775 1.71072,-0.929118 2.39823,-1.614986 0.68747,-0.685868 1.22709,-1.479405 1.61881,-2.38061 0.3917,-0.901205 0.58754,-1.870183 0.58757,-2.906983 -3e-5,-1.02082 -0.19997,-1.98581 -0.59957,-2.89503 -0.39972,-0.90914 -0.93931,-1.70268 -1.6188,-2.38061 -0.67951,-0.67786 -1.47492,-1.2162 -2.38624,-1.61498 -0.91134,-0.39874 -1.87863,-0.59813 -2.90186,-0.59815 h -8.20195 c -0.71948,2e-5 -1.31503,-0.23923 -1.78669,-0.71776 -0.47164,-0.4785 -0.70747,-1.07664 -0.70747,-1.79443 v -13.25488 c 0,-0.70177 0.23583,-1.29594 0.70747,-1.78246 0.47166,-0.48645 1.06721,-0.7297 1.78669,-0.72975 h 16.37992 c 0.70345,5e-5 1.29903,0.24728 1.78668,0.74172 0.48762,0.4945 0.73145,1.08467 0.73147,1.77049 -2e-5,0.68591 -0.24385,1.2721 -0.73147,1.75855 -0.48765,0.48653 -1.08323,0.72978 -1.78668,0.72973 z" />
    <path
       style="fill:#ff0000;fill-opacity:1;stroke:none;stroke-width:2.19008"
       d="m -419.39265,-72.896053 c -1.33527,0.04462 -2.69146,0.387887 -3.98746,1.187899 -5.92468,3.657211 -9.51835,10.63371 -2.9906,18.149929 3.66755,4.22292 13.5596,6.155706 15.42369,12.086121 0.7729,2.627293 0.45365,7.500994 0.78921,7.486491 0.33557,0.01531 0.03,-4.859198 0.80302,-7.486491 1.86414,-5.930415 11.75622,-7.863201 15.42376,-12.086121 6.52771,-7.516219 2.93406,-14.492718 -2.9906,-18.149929 -5.92472,-3.657168 -13.20849,2.265285 -13.20849,2.265285 l -0.0417,0.05513 v -0.05513 c 0,0 -4.45219,-3.612477 -9.22096,-3.453184 z"
       id="path11591-7"
       inkscape:connector-curvature="0"
       sodipodi:nodetypes="csscccssccccc" />
    <path
       inkscape:connector-curvature="0"
       id="path26159"
       style="font-style:normal;font-variant:normal;font-weight:bold;font-stretch:normal;font-size:22.4px;line-height:125%;font-family:Comfortaa;-inkscape-font-specification:'Comfortaa Bold';letter-spacing:0px;word-spacing:0px;fill:#ff0000;fill-opacity:1;stroke:none;stroke-width:2.19008"
       d="m -251.48243,153.93956 h 13.88576 v -8.27832 h -5.70781 c -1.67873,-2e-5 -3.27356,-0.32701 -4.78447,-0.98094 -1.51085,-0.65399 -2.84187,-1.54323 -3.99304,-2.66774 -1.15113,-1.12453 -2.06245,-2.44842 -2.734,-3.97166 -0.67146,-1.52329 -1.00722,-3.14626 -1.00724,-4.86889 2e-5,-1.70673 0.33177,-3.31771 0.99525,-4.83301 0.66354,-1.51531 1.56289,-2.8392 2.69801,-3.97167 1.13519,-1.13249 2.46222,-2.02971 3.98108,-2.69165 1.51888,-0.66196 3.13369,-0.99293 4.84441,-0.99293 1.71077,0 3.32558,0.33097 4.84444,0.99293 1.51889,0.66194 2.84591,1.55916 3.98106,2.69165 1.13516,1.13247 2.03451,2.45636 2.69801,3.97167 0.66352,1.5153 0.99527,3.12628 0.99527,4.83301 0,0.71776 -0.23582,1.31191 -0.70748,1.78246 -0.47165,0.47053 -1.0672,0.7058 -1.78668,0.70582 -0.70347,-2e-5 -1.29904,-0.23529 -1.78669,-0.70582 -0.48763,-0.47055 -0.73146,-1.0647 -0.73146,-1.78246 0,-1.03681 -0.1958,-2.00979 -0.58757,-2.91895 -0.39169,-0.90919 -0.9273,-1.70273 -1.6068,-2.38061 -0.67949,-0.67791 -1.4749,-1.21225 -2.38624,-1.60302 -0.91132,-0.3908 -1.8866,-0.58619 -2.92586,-0.58619 -1.02323,0 -1.9905,0.19535 -2.90184,0.58619 -0.91132,0.39077 -1.71072,0.92911 -2.39823,1.61498 -0.68749,0.68587 -1.22708,1.47941 -1.61883,2.38061 -0.39167,0.90121 -0.58752,1.87018 -0.58754,2.90699 2e-5,1.02082 0.19975,1.98581 0.59954,2.89502 0.39972,0.90915 0.93934,1.70268 1.6188,2.38061 0.67953,0.67786 1.47494,1.2162 2.38626,1.61499 0.91134,0.39873 1.87861,0.59812 2.90184,0.59814 h 8.20197 c 0.71948,-2e-5 1.31503,0.23923 1.78667,0.71777 0.47167,0.47849 0.70749,1.07664 0.70749,1.79442 v 13.25488 c 0,0.70177 -0.23582,1.29594 -0.70749,1.78246 -0.47164,0.48646 -1.06719,0.72971 -1.78667,0.72973 h -16.37992 c -0.70347,-2e-5 -1.29902,-0.24725 -1.7867,-0.74169 -0.4876,-0.49451 -0.73143,-1.08467 -0.73145,-1.7705 2e-5,-0.68591 0.24385,-1.27209 0.73145,-1.75855 0.48768,-0.48652 1.08323,-0.72977 1.7867,-0.72973 z" />
    <path
       style="fill:#ff0000;fill-opacity:1;stroke:none;stroke-width:2.19008"
       d="m -234.06275,104.79107 c 1.33527,-0.0446 2.69146,-0.38789 3.98746,-1.1879 5.92468,-3.657214 9.51835,-10.633712 2.9906,-18.149932 -3.66755,-4.22292 -13.5596,-6.155705 -15.42369,-12.08612 -0.7729,-2.627294 -0.45364,-7.500995 -0.78921,-7.486492 -0.33557,-0.01531 -0.03,4.859198 -0.80302,7.486492 -1.86414,5.930415 -11.75622,7.8632 -15.42376,12.08612 -6.52771,7.51622 -2.93406,14.492718 2.9906,18.149932 5.92472,3.65717 13.20849,-2.26529 13.20849,-2.26529 l 0.0417,-0.0551 v 0.0551 c 0,0 4.45219,3.61248 9.22096,3.45319 z"
       id="path11591-8"
       inkscape:connector-curvature="0"
       sodipodi:nodetypes="csscccssccccc" />
    <path
       sodipodi:nodetypes="csscccssccccc"
       inkscape:connector-curvature="0"
       id="path8263"
       d="m -368.74656,-102.36731 c -1.82314,0.061 -3.67482,0.52962 -5.44435,1.62194 -8.08942,4.993446 -12.99613,14.518992 -4.0833,24.781439 5.00757,5.76585 18.51391,8.404825 21.05912,16.502066 1.05528,3.587233 0.61938,10.241666 1.07756,10.221848 0.45816,0.02188 0.041,-6.634615 1.09642,-10.221848 2.54525,-8.097241 16.05161,-10.736216 21.05918,-16.502066 8.91276,-10.262447 4.0061,-19.787993 -4.08327,-24.781439 -8.08948,-4.9934 -18.03453,3.092949 -18.03453,3.092949 l -0.0568,0.07525 v -0.07525 c 0,0 -6.07891,-4.932369 -12.59006,-4.714889 z"
       style="fill:#ff0000;fill-opacity:1;stroke:none;stroke-width:2.19008" />
    <path
       sodipodi:nodetypes="csscccssccccc"
       inkscape:connector-curvature="0"
       id="path8265"
       d="m -310.09267,-102.36731 c -1.82313,0.061 -3.67482,0.52962 -5.44435,1.62194 -8.08941,4.993446 -12.99612,14.518992 -4.0833,24.781439 5.00758,5.76585 18.51391,8.404825 21.05912,16.502066 1.05529,3.587233 0.61938,10.241666 1.07756,10.221848 0.45816,0.02188 0.041,-6.634615 1.09643,-10.221848 2.54525,-8.097241 16.0516,-10.736216 21.05918,-16.502066 8.91276,-10.262447 4.00609,-19.787993 -4.08328,-24.781439 -8.08948,-4.9934 -18.03452,3.092949 -18.03452,3.092949 l -0.0568,0.07525 v -0.07525 c 0,0 -6.07892,-4.932369 -12.59007,-4.714889 z"
       style="fill:#ff0000;fill-opacity:1;stroke:none;stroke-width:2.19008" />
    <path
       sodipodi:nodetypes="csscccssccccc"
       inkscape:connector-curvature="0"
       id="path8267"
       d="m -343.72887,126.38722 c 1.82314,-0.061 3.67483,-0.52961 5.44436,-1.62194 8.08941,-4.99344 12.99612,-14.51899 4.0833,-24.781437 -5.00758,-5.765849 -18.51391,-8.404824 -21.05912,-16.502065 -1.05529,-3.587234 -0.61939,-10.241667 -1.07757,-10.221848 -0.45815,-0.02187 -0.041,6.634614 -1.09642,10.221848 -2.54525,8.097241 -16.05161,10.736216 -21.05918,16.502065 -8.91276,10.262447 -4.00609,19.787997 4.08328,24.781437 8.08948,4.9934 18.03452,-3.09295 18.03452,-3.09295 l 0.0568,-0.0752 v 0.0752 c 0,0 6.07891,4.93237 12.59007,4.71489 z"
       style="fill:#ff0000;fill-opacity:1;stroke:none;stroke-width:2.19008" />
    <path
       sodipodi:nodetypes="csscccssccccc"
       inkscape:connector-curvature="0"
       id="path8269"
       d="m -285.07497,126.38722 c 1.82314,-0.061 3.67482,-0.52961 5.44435,-1.62194 8.08941,-4.99344 12.99613,-14.51899 4.0833,-24.781437 -5.00757,-5.765849 -18.51393,-8.404824 -21.05914,-16.502065 -1.05529,-3.587234 -0.61938,-10.241667 -1.07756,-10.221848 -0.45816,-0.02187 -0.041,6.634614 -1.09643,10.221848 -2.54525,8.097241 -16.0516,10.736216 -21.05918,16.502065 -8.91276,10.262447 -4.00609,19.787997 4.08328,24.781437 8.08948,4.9934 18.03452,-3.09295 18.03452,-3.09295 l 0.0568,-0.0752 v 0.0752 c 0,0 6.07894,4.93237 12.59009,4.71489 z"
       style="fill:#ff0000;fill-opacity:1;stroke:none;stroke-width:2.19008" />
    <path
       sodipodi:nodetypes="csscccssccccc"
       inkscape:connector-curvature="0"
       id="path8340"
       d="m -339.34618,-9.8361655 c -1.82314,0.061031 -3.67483,0.529615 -5.44435,1.6219419 -8.08942,4.9934443 -12.99613,14.5189896 -4.0833,24.7814376 5.00757,5.765849 18.51391,8.404824 21.05911,16.502065 1.05529,3.587234 0.61939,10.241667 1.07757,10.221848 0.45816,0.02187 0.041,-6.634614 1.09642,-10.221848 2.54525,-8.097241 16.05161,-10.736216 21.05918,-16.502065 8.91276,-10.262448 4.0061,-19.7879933 -4.08327,-24.7814376 -8.08948,-4.9934004 -18.03453,3.0929464 -18.03453,3.0929464 l -0.0568,0.07525 v -0.07525 c 0,0 -6.07891,-4.9323698 -12.59006,-4.7148883 z"
       style="fill:#ff0000;fill-opacity:1;stroke:none;stroke-width:2.19008" />
  </g>
</svg>
