<?xml version="1.0" encoding="UTF-8" standalone="no"?>
<svg
   xmlns:dc="http://purl.org/dc/elements/1.1/"
   xmlns:cc="http://creativecommons.org/ns#"
   xmlns:rdf="http://www.w3.org/1999/02/22-rdf-syntax-ns#"
   xmlns:svg="http://www.w3.org/2000/svg"
   xmlns="http://www.w3.org/2000/svg"
   xmlns:sodipodi="http://sodipodi.sourceforge.net/DTD/sodipodi-0.dtd"
   xmlns:inkscape="http://www.inkscape.org/namespaces/inkscape"
   inkscape:version="1.0 (4035a4fb49, 2020-05-01)"
   sodipodi:docname="5S.svg"
   id="svg30"
   version="1.1"
   width="2.25in"
   viewBox="-106 -164.5 212 329"
   preserveAspectRatio="none"
   height="3.5in"
   face="5S"
   class="card">
  <metadata
     id="metadata36">
    <rdf:RDF>
      <cc:Work
         rdf:about="">
        <dc:format>image/svg+xml</dc:format>
        <dc:type
           rdf:resource="http://purl.org/dc/dcmitype/StillImage" />
      </cc:Work>
    </rdf:RDF>
  </metadata>
  <defs
     id="defs34" />
  <sodipodi:namedview
     inkscape:current-layer="svg30"
     inkscape:window-maximized="1"
     inkscape:window-y="-12"
     inkscape:window-x="-12"
     inkscape:cy="168"
     inkscape:cx="108"
     inkscape:zoom="2.2410714"
     showgrid="false"
     id="namedview32"
     inkscape:window-height="2050"
     inkscape:window-width="3240"
     inkscape:pageshadow="2"
     inkscape:pageopacity="0"
     guidetolerance="10"
     gridtolerance="10"
     objecttolerance="10"
     borderopacity="1"
     bordercolor="#666666"
     pagecolor="#ffffff" />
  <symbol
     preserveAspectRatio="xMinYMid"
     viewBox="-600 -600 1200 1200"
     id="SS5">
    <path
       id="path2"
       fill="black"
       d="M0 -500C100 -250 355 -100 355 185A150 150 0 0 1 55 185A10 10 0 0 0 35 185C35 385 85 400 130 500L-130 500C-85 400 -35 385 -35 185A10 10 0 0 0 -55 185A150 150 0 0 1 -355 185C-355 -100 -100 -250 0 -500Z" />
  </symbol>
  <symbol
     preserveAspectRatio="xMinYMid"
     viewBox="-500 -500 1000 1000"
     id="VS5">
    <path
       id="path5"
       fill="none"
       stroke-miterlimit="1.5"
       stroke-linecap="square"
       stroke-width="80"
       stroke="black"
       d="M170 -460L-175 -460L-210 -115C-210 -115 -200 -200 0 -200C100 -200 255 -80 255 120C255 320 180 460 -20 460C-220 460 -255 285 -255 285" />
  </symbol>
  <rect
     id="rect8"
     stroke="black"
     fill="white"
     ry="12"
     rx="12"
     y="-164"
     x="-105.5"
     height="328"
     width="211" />
  <g
     transform="translate(293.0055,-33.86124)"
     id="g906">
    <path
       inkscape:connector-curvature="0"
       id="path26165"
       style="font-style:normal;font-variant:normal;font-weight:bold;font-stretch:normal;font-size:22.4px;line-height:125%;font-family:Comfortaa;-inkscape-font-specification:'Comfortaa Bold';letter-spacing:0px;word-spacing:0px;fill:#000000;fill-opacity:1;stroke:none;stroke-width:2.19008"
       d="m -368.25064,-104.13076 h -13.88575 v 8.278324 h 5.70778 c 1.67875,2.2e-5 3.27356,0.327009 4.78447,0.98094 1.51088,0.653996 2.84189,1.543235 3.99306,2.667718 1.15113,1.124549 2.06245,2.448423 2.73398,3.971687 0.67148,1.523285 1.00724,3.146255 1.00727,4.868888 -3e-5,1.706707 -0.3318,3.317712 -0.99528,4.833013 -0.66352,1.515301 -1.56287,2.839175 -2.69801,3.971664 -1.13519,1.132489 -2.46219,2.029713 -3.98106,2.69165 -1.5189,0.661937 -3.13371,0.992927 -4.84443,0.992927 -1.71075,0 -3.32556,-0.33099 -4.84442,-0.992927 -1.51888,-0.661937 -2.84591,-1.559161 -3.98108,-2.69165 -1.13516,-1.132489 -2.03449,-2.456363 -2.69801,-3.971664 -0.6635,-1.515301 -0.99525,-3.126306 -0.99525,-4.833013 0,-0.717762 0.23582,-1.311908 0.70746,-1.782461 0.47167,-0.47053 1.06722,-0.705796 1.7867,-0.705818 0.70347,2.2e-5 1.29902,0.235288 1.78667,0.705818 0.48763,0.470553 0.73146,1.064699 0.73148,1.782461 -2e-5,1.036786 0.1958,2.009785 0.58755,2.918953 0.39172,0.909167 0.92732,1.702704 1.60683,2.380609 0.67948,0.677906 1.4749,1.212246 2.38623,1.60302 0.91132,0.390797 1.8866,0.586184 2.92584,0.586184 1.02323,0 1.99052,-0.195343 2.90186,-0.586184 0.91132,-0.390774 1.71072,-0.929117 2.39823,-1.614985 0.68747,-0.685868 1.22709,-1.479405 1.61881,-2.38061 0.3917,-0.901205 0.58754,-1.870201 0.58757,-2.906987 -3e-5,-1.020818 -0.19997,-1.985832 -0.59957,-2.895022 -0.39972,-0.909146 -0.93931,-1.702682 -1.6188,-2.38061 -0.67951,-0.677883 -1.47492,-1.216205 -2.38624,-1.614985 -0.91134,-0.398737 -1.87863,-0.598128 -2.90186,-0.59815 h -8.20195 c -0.71948,2.2e-5 -1.31503,-0.239224 -1.78669,-0.717761 -0.47164,-0.478494 -0.70747,-1.076643 -0.70747,-1.794426 v -13.254883 c 0,-0.70179 0.23583,-1.29594 0.70747,-1.78246 0.47166,-0.48645 1.06721,-0.7297 1.78669,-0.72975 h 16.37992 c 0.70345,5e-5 1.29903,0.24728 1.78668,0.74172 0.48762,0.49448 0.73145,1.08467 0.73147,1.77049 -2e-5,0.68592 -0.24385,1.2721 -0.73147,1.75856 -0.48765,0.48652 -1.08323,0.72977 -1.78668,0.72972 z" />
    <path
       inkscape:connector-curvature="0"
       style="fill:#000000;fill-opacity:1;stroke:none;stroke-width:2.19008"
       d="m -376.42853,-68.112343 c -0.33567,-0.02188 -0.025,4.868889 -0.79751,7.496576 -1.86454,5.931509 -11.75012,7.869697 -15.41846,12.093536 -6.529,7.517576 -2.94846,14.482328 2.97734,18.140261 5.62667,3.473308 12.41939,-1.626667 13.09686,-2.157026 -0.009,0.137375 -0.0239,0.270441 -0.0355,0.406656 -0.002,0.02997 -0.0153,0.05862 -0.0175,0.08837 -0.83874,5.300766 -7.50017,7.48857 -10.31442,8.186119 h -1.29374 v 0.282887 h 1.86085 9.7296 0.0175 0.38988 0.0175 9.72959 1.86086 v -0.282887 h -1.29375 c -2.81409,-0.697549 -9.47572,-2.885353 -10.31444,-8.186119 -0.004,-0.02975 -0.0154,-0.05841 -0.0175,-0.08837 -0.011,-0.141969 -0.0263,-0.280568 -0.0355,-0.424353 0.33194,0.263266 4.52819,3.529965 9.10933,3.377015 1.33571,-0.04375 2.6913,-0.402149 3.98752,-1.202292 5.92582,-3.657933 9.50634,-10.622685 2.97736,-18.140261 -3.66836,-4.223839 -13.55392,-6.162027 -15.41847,-12.093536 -0.77288,-2.627687 -0.46182,-7.511013 -0.7975,-7.496576 z"
       id="path26460-0" />
    <path
       inkscape:connector-curvature="0"
       id="path26153"
       style="font-style:normal;font-variant:normal;font-weight:bold;font-stretch:normal;font-size:22.4px;line-height:125%;font-family:Comfortaa;-inkscape-font-specification:'Comfortaa Bold';letter-spacing:0px;word-spacing:0px;fill:#000000;fill-opacity:1;stroke:none;stroke-width:2.19008"
       d="m -217.76023,171.85325 h 13.88576 v -8.2783 h -5.70781 c -1.67873,-5e-5 -3.27356,-0.32701 -4.78447,-0.98097 -1.51085,-0.65399 -2.84187,-1.54323 -3.99304,-2.66771 -1.15113,-1.12453 -2.06245,-2.44843 -2.734,-3.97169 -0.67146,-1.52329 -1.00722,-3.14626 -1.00724,-4.86889 2e-5,-1.70671 0.33177,-3.31771 0.99525,-4.83299 0.66354,-1.51532 1.56289,-2.8392 2.69801,-3.97169 1.13519,-1.13249 2.46222,-2.02969 3.98108,-2.69165 1.51888,-0.66193 3.13369,-0.9929 4.84441,-0.9929 1.71077,0 3.32558,0.33097 4.84444,0.9929 1.51889,0.66196 2.84591,1.55916 3.98106,2.69165 1.13516,1.13249 2.03451,2.45637 2.69801,3.97169 0.66352,1.51528 0.99527,3.12628 0.99527,4.83299 0,0.71776 -0.23582,1.31191 -0.70748,1.78246 -0.47165,0.47053 -1.0672,0.7058 -1.78668,0.70582 -0.70347,-2e-5 -1.29904,-0.23529 -1.78669,-0.70582 -0.48763,-0.47055 -0.73146,-1.0647 -0.73146,-1.78246 0,-1.03679 -0.1958,-2.00976 -0.58757,-2.91893 -0.39169,-0.90919 -0.9273,-1.70273 -1.6068,-2.38063 -0.67949,-0.67789 -1.4749,-1.21223 -2.38624,-1.60302 -0.91132,-0.3908 -1.8866,-0.58619 -2.92586,-0.58619 -1.02323,0 -1.9905,0.19535 -2.90184,0.58619 -0.91132,0.39079 -1.71072,0.92912 -2.39823,1.61498 -0.68749,0.68587 -1.22708,1.47941 -1.61883,2.38061 -0.39167,0.90121 -0.58752,1.8702 -0.58754,2.90699 2e-5,1.02082 0.19975,1.98583 0.59954,2.89502 0.39972,0.90917 0.93934,1.70271 1.6188,2.38061 0.67953,0.67789 1.47494,1.21621 2.38626,1.61499 0.91134,0.39874 1.87861,0.59813 2.90184,0.59815 h 8.20197 c 0.71948,-2e-5 1.31503,0.23922 1.78667,0.71776 0.47167,0.47849 0.70749,1.07664 0.70749,1.79445 v 13.25485 c 0,0.7018 -0.23582,1.29594 -0.70749,1.78246 -0.47164,0.48646 -1.06719,0.72971 -1.78667,0.72975 h -16.37992 c -0.70347,-4e-5 -1.29902,-0.24727 -1.7867,-0.74169 -0.4876,-0.4945 -0.73143,-1.08467 -0.73145,-1.77052 2e-5,-0.68591 0.24385,-1.27209 0.73145,-1.75855 0.48768,-0.48652 1.08323,-0.72975 1.7867,-0.72972 z" />
    <path
       inkscape:connector-curvature="0"
       style="fill:#000000;fill-opacity:1;stroke:none;stroke-width:2.19008"
       d="m -209.58247,135.83481 c 0.33567,0.0219 0.025,-4.86889 0.79751,-7.49658 1.86454,-5.93151 11.75012,-7.86969 15.41846,-12.09353 6.529,-7.51758 2.94846,-14.48233 -2.97734,-18.140264 -5.62667,-3.473308 -12.41939,1.626667 -13.09686,2.157024 0.009,-0.13737 0.0239,-0.270438 0.0355,-0.406654 0.002,-0.02997 0.0153,-0.05862 0.0175,-0.08837 0.83874,-5.300766 7.50017,-7.488569 10.31442,-8.186119 h 1.29374 V 91.29743 h -1.86085 -9.7296 -0.0175 -0.38988 -0.0175 -9.72959 -1.86085 v 0.282887 h 1.29374 c 2.81409,0.69755 9.47572,2.885353 10.31444,8.186119 0.004,0.02975 0.0154,0.05841 0.0175,0.08837 0.011,0.141969 0.0263,0.280564 0.0355,0.424354 -0.33194,-0.26327 -4.52819,-3.529966 -9.10933,-3.377016 -1.33571,0.04375 -2.6913,0.402149 -3.98752,1.202292 -5.92582,3.657934 -9.50634,10.622684 -2.97736,18.140264 3.66836,4.22384 13.55392,6.16202 15.41847,12.09353 0.77288,2.62769 0.46182,7.51102 0.7975,7.49658 z"
       id="path26460-5" />
    <path
       id="path8239"
       d="m -326.35242,-83.734422 c -0.39183,-0.02559 -0.0285,5.681522 -0.93057,8.747781 -2.17556,6.921505 -13.7112,9.18318 -17.99194,14.111984 -7.61865,8.77228 -3.44052,16.899468 3.4745,21.167932 6.56573,4.053017 14.49201,-1.898179 15.28268,-2.517044 0,0.160344 -0.0285,0.315568 -0.0417,0.474534 0,0.035 -0.0263,0.06847 -0.0263,0.103031 -0.97859,6.185477 -8.75204,8.73844 -12.036,9.552408 h -1.50965 v 0.330093 h 2.17162 11.35342 0.0263 0.45476 0.0263 11.35342 2.17162 v -0.330093 h -1.50965 c -3.28374,-0.813968 -11.05741,-3.366931 -12.036,-9.552408 0,-0.03478 -0.0263,-0.06825 -0.0263,-0.103031 0,-0.165594 -0.0307,-0.327403 -0.0417,-0.495184 0.38744,0.307212 5.28411,4.119123 10.62984,3.940645 1.55855,-0.05097 3.14056,-0.469261 4.65284,-1.402951 6.91502,-4.268464 11.09293,-12.395652 3.47451,-21.167932 -4.28075,-4.928804 -15.81616,-7.190479 -17.99195,-14.111984 -0.90184,-3.066259 -0.53874,-8.764624 -0.93057,-8.747781 z"
       style="fill:#000000;fill-opacity:1;stroke:none;stroke-width:2.19008"
       inkscape:connector-curvature="0" />
    <path
       id="path8241"
       d="m -259.47602,-83.734422 c -0.39183,-0.02559 -0.0285,5.681522 -0.93057,8.747781 -2.17556,6.921505 -13.71119,9.18318 -17.99194,14.111984 -7.61865,8.77228 -3.44052,16.899468 3.4745,21.167932 6.56573,4.053017 14.49201,-1.898179 15.28268,-2.517044 0,0.160344 -0.0285,0.315568 -0.0417,0.474534 0,0.035 -0.0263,0.06847 -0.0263,0.103031 -0.97859,6.185477 -8.75204,8.73844 -12.036,9.552408 h -1.50965 v 0.330093 h 2.17162 11.35342 0.0263 0.45476 0.0263 11.35342 2.17162 v -0.330093 h -1.50965 c -3.28374,-0.813968 -11.05741,-3.366931 -12.036,-9.552408 0,-0.03478 -0.0263,-0.06825 -0.0263,-0.103031 0,-0.165594 -0.0307,-0.327403 -0.0417,-0.495184 0.38745,0.307212 5.28411,4.119123 10.62984,3.940645 1.55855,-0.05097 3.14056,-0.469261 4.65284,-1.402951 6.91502,-4.268464 11.09293,-12.395652 3.47451,-21.167932 -4.28075,-4.928804 -15.81616,-7.190479 -17.99195,-14.111984 -0.90184,-3.066259 -0.53874,-8.764624 -0.93057,-8.747781 z"
       style="fill:#000000;fill-opacity:1;stroke:none;stroke-width:2.19008"
       inkscape:connector-curvature="0" />
    <path
       id="path8243"
       d="m -326.35295,155.17561 c 0.39183,0.0256 0.0285,-5.68152 0.93057,-8.74778 2.17557,-6.9215 13.7112,-9.18318 17.99195,-14.11198 7.61864,-8.77228 3.44051,-16.89947 -3.47451,-21.16793 -6.56572,-4.05302 -14.492,1.89817 -15.28268,2.51704 0,-0.16034 0.0285,-0.31557 0.0417,-0.47453 0,-0.035 0.0263,-0.0685 0.0263,-0.10304 0.97859,-6.18547 8.75204,-8.73844 12.036,-9.5524 h 1.50965 v -0.3301 h -2.17161 -11.35342 -0.0263 -0.45476 -0.0263 -11.35342 -2.17162 v 0.3301 h 1.50965 c 3.28375,0.81396 11.05741,3.36693 12.036,9.5524 0,0.0348 0.0263,0.0683 0.0263,0.10304 0,0.16559 0.0307,0.3274 0.0417,0.49518 -0.38745,-0.30721 -5.28412,-4.11912 -10.62984,-3.94065 -1.55855,0.051 -3.14056,0.46927 -4.65285,1.40296 -6.91502,4.26846 -11.09293,12.39565 -3.4745,21.16793 4.28075,4.9288 15.81616,7.19048 17.99194,14.11198 0.90185,3.06626 0.53874,8.76463 0.93057,8.74778 z"
       style="fill:#000000;fill-opacity:1;stroke:none;stroke-width:2.19008"
       inkscape:connector-curvature="0" />
    <path
       id="path8245"
       d="m -259.47654,155.17561 c 0.39183,0.0256 0.0285,-5.68152 0.93056,-8.74778 2.17557,-6.9215 13.7112,-9.18318 17.99195,-14.11198 7.61865,-8.77228 3.44052,-16.89947 -3.4745,-21.16793 -6.56573,-4.05302 -14.49201,1.89817 -15.28269,2.51704 0,-0.16034 0.0285,-0.31557 0.0417,-0.47453 0,-0.035 0.0263,-0.0685 0.0263,-0.10304 0.97858,-6.18547 8.75203,-8.73844 12.03599,-9.5524 h 1.50966 v -0.3301 h -2.17162 -11.35342 -0.0263 -0.45475 -0.0263 -11.35342 -2.17162 v 0.3301 h 1.50966 c 3.28374,0.81396 11.05741,3.36693 12.03599,9.5524 0,0.0348 0.0263,0.0683 0.0263,0.10304 0,0.16559 0.0307,0.3274 0.0417,0.49518 -0.38745,-0.30721 -5.28412,-4.11912 -10.62984,-3.94065 -1.55855,0.051 -3.14056,0.46927 -4.65285,1.40296 -6.91502,4.26846 -11.09293,12.39565 -3.4745,21.16793 4.28075,4.9288 15.81616,7.19048 17.99195,14.11198 0.90184,3.06626 0.53873,8.76463 0.93056,8.74778 z"
       style="fill:#000000;fill-opacity:1;stroke:none;stroke-width:2.19008"
       inkscape:connector-curvature="0" />
    <path
       id="path8334"
       d="m -293.00524,4.6404774 c -0.39183,-0.025594 -0.0285,5.6815216 -0.93057,8.7477806 -2.17556,6.921505 -13.71119,9.18318 -17.99194,14.111984 -7.61865,8.77228 -3.44052,16.899468 3.4745,21.167932 6.56573,4.053017 14.49201,-1.898179 15.28269,-2.517044 0,0.160344 -0.0285,0.315568 -0.0417,0.474534 0,0.035 -0.0263,0.06847 -0.0263,0.103031 -0.97858,6.185477 -8.75203,8.73844 -12.03599,9.552408 h -1.50966 v 0.330093 h 2.17162 11.35342 0.0263 0.45476 0.0263 11.35342 2.17162 v -0.330093 h -1.50966 c -3.28374,-0.813968 -11.05741,-3.366931 -12.036,-9.552408 0,-0.03478 -0.0263,-0.06825 -0.0263,-0.103031 0,-0.165594 -0.0307,-0.327403 -0.0417,-0.495184 0.38745,0.307212 5.28411,4.119123 10.62984,3.940645 1.55855,-0.05097 3.14056,-0.469261 4.65285,-1.402951 6.91501,-4.268464 11.09293,-12.395652 3.4745,-21.167932 -4.28075,-4.928804 -15.81616,-7.190479 -17.99195,-14.111984 -0.90184,-3.066259 -0.53874,-8.7646243 -0.93057,-8.7477806 z"
       style="fill:#000000;fill-opacity:1;stroke:none;stroke-width:2.19008"
       inkscape:connector-curvature="0" />
  </g>
</svg>
