<?xml version="1.0" encoding="UTF-8" standalone="no"?>
<svg
   xmlns:dc="http://purl.org/dc/elements/1.1/"
   xmlns:cc="http://creativecommons.org/ns#"
   xmlns:rdf="http://www.w3.org/1999/02/22-rdf-syntax-ns#"
   xmlns:svg="http://www.w3.org/2000/svg"
   xmlns="http://www.w3.org/2000/svg"
   xmlns:sodipodi="http://sodipodi.sourceforge.net/DTD/sodipodi-0.dtd"
   xmlns:inkscape="http://www.inkscape.org/namespaces/inkscape"
   inkscape:version="1.0 (4035a4fb49, 2020-05-01)"
   sodipodi:docname="6C.svg"
   id="svg32"
   version="1.1"
   width="2.25in"
   viewBox="-106 -164.5 212 329"
   preserveAspectRatio="none"
   height="3.5in"
   face="6C"
   class="card">
  <metadata
     id="metadata38">
    <rdf:RDF>
      <cc:Work
         rdf:about="">
        <dc:format>image/svg+xml</dc:format>
        <dc:type
           rdf:resource="http://purl.org/dc/dcmitype/StillImage" />
      </cc:Work>
    </rdf:RDF>
  </metadata>
  <defs
     id="defs36" />
  <sodipodi:namedview
     inkscape:current-layer="svg32"
     inkscape:window-maximized="1"
     inkscape:window-y="-12"
     inkscape:window-x="-12"
     inkscape:cy="168"
     inkscape:cx="108"
     inkscape:zoom="2.2410714"
     showgrid="false"
     id="namedview34"
     inkscape:window-height="2050"
     inkscape:window-width="3240"
     inkscape:pageshadow="2"
     inkscape:pageopacity="0"
     guidetolerance="10"
     gridtolerance="10"
     objecttolerance="10"
     borderopacity="1"
     bordercolor="#666666"
     pagecolor="#ffffff" />
  <symbol
     preserveAspectRatio="xMinYMid"
     viewBox="-600 -600 1200 1200"
     id="SC6">
    <path
       id="path2"
       fill="black"
       d="M30 150C35 385 85 400 130 500L-130 500C-85 400 -35 385 -30 150A10 10 0 0 0 -50 150A210 210 0 1 1 -124 -51A10 10 0 0 0 -110 -65A230 230 0 1 1 110 -65A10 10 0 0 0 124 -51A210 210 0 1 1 50 150A10 10 0 0 0 30 150Z" />
  </symbol>
  <symbol
     preserveAspectRatio="xMinYMid"
     viewBox="-500 -500 1000 1000"
     id="VC6">
    <path
       id="path5"
       fill="none"
       stroke-miterlimit="1.5"
       stroke-linecap="square"
       stroke-width="80"
       stroke="black"
       d="M-250 100A250 250 0 0 1 250 100L250 210A250 250 0 0 1 -250 210L-250 -210A250 250 0 0 1 0 -460C150 -460 180 -400 200 -375" />
  </symbol>
  <rect
     id="rect8"
     stroke="black"
     fill="white"
     ry="12"
     rx="12"
     y="-164"
     x="-105.5"
     height="328"
     width="211" />
  <g
     transform="translate(305.70602,12.01526)"
     id="g912">
    <path
       inkscape:connector-curvature="0"
       id="path26150"
       style="font-style:normal;font-variant:normal;font-weight:bold;font-stretch:normal;font-size:22.4px;line-height:125%;font-family:Comfortaa;-inkscape-font-specification:'Comfortaa Bold';letter-spacing:0px;word-spacing:0px;fill:#000000;fill-opacity:1;stroke:none;stroke-width:2.19008"
       d="m -389.82472,-139.91059 h 0.69549 c 1.59881,4e-5 3.10169,0.30708 4.50868,0.92115 1.40695,0.61412 2.63802,1.44753 3.69327,2.50025 1.0552,1.05275 1.88659,2.28092 2.49416,3.68455 0.60754,1.40367 0.91131,2.89504 0.91134,4.47411 -3e-5,1.57911 -0.3038,3.07048 -0.91134,4.47413 -0.60757,1.40366 -1.43896,2.63183 -2.49416,3.68456 -1.05525,1.05273 -2.28632,1.88615 -3.69327,2.50024 -1.40699,0.6141 -2.90987,0.92114 -4.50868,0.92114 -1.59882,0 -3.10172,-0.30306 -4.50867,-0.90917 -1.40697,-0.60611 -2.63807,-1.43555 -3.69329,-2.48828 -1.05522,-1.05273 -1.88659,-2.28093 -2.49416,-3.68458 -0.60754,-1.40363 -0.91132,-2.90296 -0.91132,-4.49804 0,-2.36066 0.62353,-4.47409 1.87061,-6.34031 l -0.0239,0.0479 11.51151,-19.06883 c 0.2398,-0.39872 0.55157,-0.72172 0.93531,-0.96898 0.38369,-0.2472 0.81539,-0.37082 1.29503,-0.37086 0.71946,4e-5 1.31501,0.24329 1.7867,0.72974 0.47162,0.48653 0.70744,1.08069 0.70746,1.78247 -2e-5,0.3988 -0.11204,0.82149 -0.33574,1.26807 z m 7.29063,11.58006 c -3e-5,-0.8932 -0.17191,-1.73858 -0.51563,-2.53612 -0.34375,-0.79752 -0.81142,-1.49535 -1.40296,-2.0935 -0.59158,-0.59813 -1.29106,-1.07266 -2.09845,-1.42358 -0.80743,-0.35089 -1.66678,-0.52635 -2.5781,-0.52638 -0.92732,3e-5 -1.79068,0.1715 -2.59009,0.51442 -0.79942,0.34295 -1.49491,0.8095 -2.08645,1.39965 -0.59158,0.59018 -1.05924,1.28802 -1.40298,2.0935 -0.34375,0.80552 -0.51563,1.66287 -0.51561,2.57201 -2e-5,0.92516 0.17191,1.78649 0.51561,2.58398 0.34374,0.79754 0.8114,1.4914 1.40298,2.08156 0.59154,0.59016 1.28703,1.05671 2.08645,1.39965 0.79941,0.34293 1.66277,0.51441 2.59009,0.51441 0.91132,0 1.77067,-0.17544 2.5781,-0.52638 0.80739,-0.35089 1.50687,-0.82543 2.09845,-1.42358 0.59154,-0.59812 1.05921,-1.29596 1.40296,-2.0935 0.34374,-0.79752 0.5156,-1.6429 0.51563,-2.53614 z" />
    <path
       style="fill:none;stroke:#000000;stroke-width:2.49172;stroke-opacity:1"
       d="m -389.12942,-105.23895 c -6.29954,0 -11.39616,5.10216 -11.39616,11.387057 0,2.466841 0.77211,4.748882 2.109,6.612958 -4.39111,0.523447 -7.79832,4.094733 -7.79832,8.4519 0,4.717229 3.98347,8.540296 8.89722,8.540296 3.19616,0 5.98147,-1.619863 7.55037,-4.049123 -0.28365,5.586584 -1.49779,11.029165 -5.93755,11.705321 -0.0974,0.01531 -0.19954,0.04309 -0.30112,0.05294 h -0.58501 v 0.282909 h 7.46157 7.46178 v -0.282909 h -0.58498 c -0.10218,-0.01094 -0.20217,-0.03784 -0.30136,-0.05294 -4.43503,-0.675456 -5.65218,-6.107143 -5.93731,-11.687646 1.57039,2.422216 4.35968,4.031448 7.55035,4.031448 4.91374,0 8.89723,-3.823067 8.89723,-8.540296 0,-4.362592 -3.39947,-7.95315 -7.79858,-8.469553 1.33192,-1.861976 2.12696,-4.133561 2.12696,-6.595305 0,-6.284897 -5.11431,-11.387057 -11.41409,-11.387057 z"
       id="path11534-5"
       inkscape:connector-curvature="0" />
    <path
       inkscape:connector-curvature="0"
       id="path26138"
       style="font-style:normal;font-variant:normal;font-weight:bold;font-stretch:normal;font-size:22.4px;line-height:125%;font-family:Comfortaa;-inkscape-font-specification:'Comfortaa Bold';letter-spacing:0px;word-spacing:0px;fill:#000000;fill-opacity:1;stroke:none;stroke-width:2.19008"
       d="m -221.58733,115.88005 h -0.69547 c -1.59881,-2e-5 -3.10171,-0.30708 -4.50868,-0.92113 -1.40694,-0.61412 -2.63804,-1.44753 -3.69328,-2.50025 -1.0552,-1.05275 -1.8866,-2.28094 -2.49416,-3.68457 -0.60753,-1.40365 -0.9113,-2.89502 -0.91132,-4.47411 2e-5,-1.57911 0.30379,-3.07048 0.91132,-4.474114 0.60756,-1.403651 1.43896,-2.631843 2.49416,-3.684577 1.05524,-1.052733 2.28634,-1.886147 3.69328,-2.500244 1.40697,-0.614096 2.90987,-0.921133 4.50868,-0.921133 1.59883,0 3.10171,0.303056 4.50868,0.90919 1.40697,0.606111 2.63804,1.435523 3.69326,2.488256 1.05522,1.052733 1.88662,2.280926 2.49416,3.684577 0.60755,1.403625 0.91134,2.902985 0.91134,4.498045 0,2.36066 -0.62355,4.47411 -1.87063,6.34033 l 0.0239,-0.0479 -11.51151,19.06883 c -0.23981,0.39872 -0.55159,0.72172 -0.93531,0.969 -0.38371,0.24719 -0.81538,0.3708 -1.29505,0.37084 -0.71946,-4e-5 -1.31501,-0.24329 -1.78668,-0.72972 -0.47164,-0.48655 -0.70746,-1.08069 -0.70748,-1.78249 2e-5,-0.3988 0.11204,-0.82147 0.33576,-1.26807 z m -7.29062,-11.58006 c 2e-5,0.89322 0.1719,1.7386 0.51562,2.53612 0.34377,0.79751 0.81142,1.49535 1.40296,2.09352 0.59158,0.59813 1.29107,1.07264 2.09845,1.42358 0.80743,0.35089 1.6668,0.52633 2.57812,0.52635 0.92732,-2e-5 1.79069,-0.1715 2.59009,-0.51439 0.7994,-0.34295 1.4949,-0.8095 2.08646,-1.39967 0.59156,-0.59018 1.05921,-1.28802 1.40295,-2.0935 0.34377,-0.8055 0.51563,-1.66285 0.51563,-2.57201 0,-0.92514 -0.1719,-1.78647 -0.51563,-2.58398 -0.34374,-0.79754 -0.81139,-1.49137 -1.40295,-2.08154 -0.59156,-0.590186 -1.28706,-1.056736 -2.08646,-1.39967 -0.7994,-0.342934 -1.66277,-0.51439 -2.59009,-0.51439 -0.91132,0 -1.77069,0.175437 -2.57812,0.526356 -0.80738,0.350918 -1.50687,0.82543 -2.09845,1.423579 -0.59154,0.598145 -1.05919,1.295985 -1.40296,2.093505 -0.34372,0.79751 -0.5156,1.64289 -0.51562,2.53614 z" />
    <path
       inkscape:connector-curvature="0"
       id="path8475"
       d="m -222.2826,81.208413 c 6.29954,0 11.39615,-5.102163 11.39615,-11.387062 0,-2.466862 -0.7721,-4.748904 -2.10899,-6.61298 4.3911,-0.523424 7.79831,-4.094711 7.79831,-8.451877 0,-4.717251 -3.98346,-8.540319 -8.89721,-8.540319 -3.19617,0 -5.98147,1.619886 -7.55037,4.049146 0.28364,-5.586585 1.49779,-11.029188 5.93755,-11.705343 0.0973,-0.01531 0.19953,-0.04309 0.30112,-0.05294 h 0.585 v -0.282887 h -7.46156 -7.46179 v 0.282887 h 0.58499 c 0.10217,0.01094 0.20216,0.03784 0.30136,0.05294 4.43502,0.675477 5.65217,6.107165 5.93731,11.687668 -1.57039,-2.422216 -4.35969,-4.031471 -7.55035,-4.031471 -4.91375,0 -8.89724,3.823068 -8.89724,8.540319 0,4.362591 3.39947,7.953128 7.79858,8.469552 -1.33191,1.861955 -2.12695,4.133539 -2.12695,6.595305 0,6.284899 5.11431,11.387062 11.41409,11.387062 z"
       style="fill:none;stroke:#000000;stroke-width:2.49172;stroke-opacity:1" />
    <path
       style="fill:#000000;fill-opacity:1;stroke:none;stroke-width:2.19008"
       d="m -340.58838,-130.0308 c -7.5819,0 -13.71598,6.14076 -13.71598,13.70504 0,2.969 0.92928,5.71558 2.53832,7.95912 -5.28499,0.63 -9.38578,4.92826 -9.38578,10.172368 0,5.677496 4.79438,10.278788 10.70838,10.278788 3.84677,0 7.19906,-1.949607 9.08732,-4.873373 -0.34138,6.723799 -1.80271,13.274304 -7.14622,14.088097 -0.11709,0.0175 -0.2402,0.05184 -0.3624,0.06387 h -0.70409 v 0.340484 h 8.98045 8.98073 v -0.340484 h -0.70409 c -0.12301,-0.01094 -0.24319,-0.0455 -0.36269,-0.06387 -5.33783,-0.812962 -6.80273,-7.350342 -7.14593,-14.066834 1.89008,2.915278 5.24715,4.85211 9.08735,4.85211 5.914,0 10.70835,-4.601292 10.70835,-10.278788 0,-5.250648 -4.09147,-9.572098 -9.38607,-10.193628 1.60302,-2.24098 2.55992,-4.97498 2.55992,-7.93786 0,-7.56428 -6.15539,-13.70504 -13.73757,-13.70504 z"
       id="path8517"
       inkscape:connector-curvature="0" />
    <path
       style="fill:#000000;fill-opacity:1;stroke:none;stroke-width:2.19008"
       d="m -270.42298,-130.0308 c -7.5819,0 -13.71597,6.14076 -13.71597,13.70504 0,2.969 0.92927,5.71558 2.53832,7.95912 -5.28499,0.63 -9.38579,4.92826 -9.38579,10.172368 0,5.677496 4.79438,10.278788 10.70838,10.278788 3.84678,0 7.19906,-1.949607 9.08732,-4.873373 -0.34137,6.723799 -1.8027,13.274304 -7.14621,14.088097 -0.11709,0.0175 -0.24021,0.05184 -0.36241,0.06387 h -0.70409 v 0.340484 h 8.98045 8.98074 v -0.340484 h -0.70409 c -0.12301,-0.01094 -0.24319,-0.0455 -0.36269,-0.06387 -5.33783,-0.812962 -6.80273,-7.350342 -7.14593,-14.066834 1.89008,2.915278 5.24714,4.85211 9.08734,4.85211 5.914,0 10.70836,-4.601292 10.70836,-10.278788 0,-5.250648 -4.09148,-9.572098 -9.38607,-10.193628 1.60302,-2.24098 2.55992,-4.97498 2.55992,-7.93786 0,-7.56428 -6.15539,-13.70504 -13.73758,-13.70504 z"
       id="path8521"
       inkscape:connector-curvature="0" />
    <path
       style="fill:#000000;fill-opacity:1;stroke:none;stroke-width:2.19008"
       d="m -340.80717,109.06269 c 7.5819,0 13.71598,-6.14076 13.71598,-13.705018 0,-2.969025 -0.92927,-5.715603 -2.53832,-7.959122 5.28499,-0.629999 9.38578,-4.928257 9.38578,-10.172366 0,-5.677497 -4.79438,-10.278811 -10.70838,-10.278811 -3.84677,0 -7.19905,1.949629 -9.08732,4.873373 0.34138,-6.723777 1.80271,-13.274282 7.14622,-14.088075 0.11709,-0.0175 0.24021,-0.05184 0.3624,-0.06388 h 0.70409 v -0.340483 h -8.98045 -8.98073 v 0.340483 h 0.70409 c 0.12301,0.01094 0.24319,0.0455 0.36269,0.06388 5.33783,0.812962 6.80273,7.350342 7.14593,14.066812 -1.89008,-2.915277 -5.24715,-4.85211 -9.08734,-4.85211 -5.914,0 -10.70836,4.601314 -10.70836,10.278811 0,5.250628 4.09147,9.572073 9.38607,10.193628 -1.60302,2.240982 -2.55992,4.974982 -2.55992,7.93786 0,7.564258 6.15539,13.705018 13.73757,13.705018 z"
       id="path8525"
       inkscape:connector-curvature="0" />
    <path
       style="fill:#000000;fill-opacity:1;stroke:none;stroke-width:2.19008"
       d="m -270.64176,109.06269 c 7.5819,0 13.71598,-6.14076 13.71598,-13.705018 0,-2.969025 -0.92928,-5.715603 -2.53833,-7.959122 5.28499,-0.629999 9.38579,-4.928257 9.38579,-10.172366 0,-5.677497 -4.79438,-10.278811 -10.70838,-10.278811 -3.84678,0 -7.19906,1.949629 -9.08732,4.873373 0.34138,-6.723777 1.8027,-13.274282 7.14621,-14.088075 0.11709,-0.0175 0.24021,-0.05184 0.36241,-0.06388 h 0.70409 v -0.340483 h -8.98045 -8.98073 v 0.340483 h 0.70408 c 0.12301,0.01094 0.24319,0.0455 0.36269,0.06388 5.33784,0.812962 6.80274,7.350342 7.14593,14.066812 -1.89008,-2.915277 -5.24714,-4.85211 -9.08734,-4.85211 -5.914,0 -10.70836,4.601314 -10.70836,10.278811 0,5.250628 4.09148,9.572073 9.38607,10.193628 -1.60301,2.240982 -2.55992,4.974982 -2.55992,7.93786 0,7.564258 6.1554,13.705018 13.73758,13.705018 z"
       id="path8529"
       inkscape:connector-curvature="0" />
    <path
       style="fill:#000000;fill-opacity:1;stroke:none;stroke-width:2.19008"
       d="m -340.58836,-37.499638 c -7.5819,0 -13.71598,6.140764 -13.71598,13.705021 0,2.969025 0.92928,5.715603 2.53832,7.959122 -5.28499,0.63 -9.38578,4.928257 -9.38578,10.172367 0,5.67749663 4.79438,10.2788101 10.70838,10.2788101 3.84677,0 7.19906,-1.949629 9.08732,-4.87337253 -0.34138,6.72377673 -1.8027,13.27428143 -7.14622,14.08807443 -0.11708,0.0175 -0.2402,0.05184 -0.3624,0.06387 h -0.70409 v 0.340484 h 8.98045 8.98073 v -0.340484 h -0.70408 c -0.12301,-0.01094 -0.24319,-0.0455 -0.36269,-0.06387 -5.33784,-0.812961 -6.80274,-7.3503415 -7.14593,-14.06681196 1.89008,2.91527796 5.24714,4.85211006 9.08734,4.85211006 5.914,0 10.70836,-4.60131347 10.70836,-10.2788101 0,-5.250628 -4.09148,-9.572073 -9.38607,-10.193629 1.60301,-2.240982 2.55991,-4.974982 2.55991,-7.93786 0,-7.564257 -6.15539,-13.705021 -13.73757,-13.705021 z"
       id="path8591"
       inkscape:connector-curvature="0" />
    <path
       inkscape:connector-curvature="0"
       id="path8608"
       d="m -270.42296,-37.499638 c -7.58189,0 -13.71597,6.140764 -13.71597,13.705021 0,2.969025 0.92927,5.715603 2.53832,7.959122 -5.28499,0.63 -9.38579,4.928257 -9.38579,10.172367 0,5.67749663 4.79438,10.2788101 10.70838,10.2788101 3.84678,0 7.19906,-1.949629 9.08732,-4.87337253 -0.34137,6.72377673 -1.8027,13.27428143 -7.14621,14.08807443 -0.11709,0.0175 -0.24021,0.05184 -0.36241,0.06387 h -0.70408 v 0.340484 h 8.98044 8.98074 v -0.340484 h -0.70409 c -0.12301,-0.01094 -0.24319,-0.0455 -0.36269,-0.06387 -5.33783,-0.812961 -6.80273,-7.3503415 -7.14593,-14.06681196 1.89008,2.91527796 5.24715,4.85211006 9.08734,4.85211006 5.914,0 10.70836,-4.60131347 10.70836,-10.2788101 0,-5.250628 -4.09148,-9.572073 -9.38607,-10.193629 1.60302,-2.240982 2.55992,-4.974982 2.55992,-7.93786 0,-7.564257 -6.15539,-13.705021 -13.73758,-13.705021 z"
       style="fill:#000000;fill-opacity:1;stroke:none;stroke-width:2.19008" />
  </g>
</svg>
