<?xml version="1.0" encoding="UTF-8" standalone="no"?>
<svg
   xmlns:dc="http://purl.org/dc/elements/1.1/"
   xmlns:cc="http://creativecommons.org/ns#"
   xmlns:rdf="http://www.w3.org/1999/02/22-rdf-syntax-ns#"
   xmlns:svg="http://www.w3.org/2000/svg"
   xmlns="http://www.w3.org/2000/svg"
   xmlns:sodipodi="http://sodipodi.sourceforge.net/DTD/sodipodi-0.dtd"
   xmlns:inkscape="http://www.inkscape.org/namespaces/inkscape"
   inkscape:version="1.0 (4035a4fb49, 2020-05-01)"
   sodipodi:docname="6H.svg"
   id="svg32"
   version="1.1"
   width="2.25in"
   viewBox="-106 -164.5 212 329"
   preserveAspectRatio="none"
   height="3.5in"
   face="6H"
   class="card">
  <metadata
     id="metadata38">
    <rdf:RDF>
      <cc:Work
         rdf:about="">
        <dc:format>image/svg+xml</dc:format>
        <dc:type
           rdf:resource="http://purl.org/dc/dcmitype/StillImage" />
      </cc:Work>
    </rdf:RDF>
  </metadata>
  <defs
     id="defs36" />
  <sodipodi:namedview
     inkscape:current-layer="svg32"
     inkscape:window-maximized="1"
     inkscape:window-y="-12"
     inkscape:window-x="-12"
     inkscape:cy="168"
     inkscape:cx="108"
     inkscape:zoom="2.2410714"
     showgrid="false"
     id="namedview34"
     inkscape:window-height="2050"
     inkscape:window-width="3240"
     inkscape:pageshadow="2"
     inkscape:pageopacity="0"
     guidetolerance="10"
     gridtolerance="10"
     objecttolerance="10"
     borderopacity="1"
     bordercolor="#666666"
     pagecolor="#ffffff" />
  <symbol
     preserveAspectRatio="xMinYMid"
     viewBox="-600 -600 1200 1200"
     id="SH6">
    <path
       id="path2"
       fill="red"
       d="M0 -300C0 -400 100 -500 200 -500C300 -500 400 -400 400 -250C400 0 0 400 0 500C0 400 -400 0 -400 -250C-400 -400 -300 -500 -200 -500C-100 -500 0 -400 -0 -300Z" />
  </symbol>
  <symbol
     preserveAspectRatio="xMinYMid"
     viewBox="-500 -500 1000 1000"
     id="VH6">
    <path
       id="path5"
       fill="none"
       stroke-miterlimit="1.5"
       stroke-linecap="square"
       stroke-width="80"
       stroke="red"
       d="M-250 100A250 250 0 0 1 250 100L250 210A250 250 0 0 1 -250 210L-250 -210A250 250 0 0 1 0 -460C150 -460 180 -400 200 -375" />
  </symbol>
  <rect
     id="rect8"
     stroke="black"
     fill="white"
     ry="12"
     rx="12"
     y="-164"
     x="-105.5"
     height="328"
     width="211" />
  <g
     transform="translate(302.64041,-38.230475)"
     id="g912">
    <path
       inkscape:connector-curvature="0"
       id="path26147"
       style="font-style:normal;font-variant:normal;font-weight:bold;font-stretch:normal;font-size:22.4px;line-height:125%;font-family:Comfortaa;-inkscape-font-specification:'Comfortaa Bold';letter-spacing:0px;word-spacing:0px;fill:#ff0000;fill-opacity:1;stroke:none;stroke-width:2.19008"
       d="m -386.75912,-89.664839 h 0.69549 c 1.59881,2.1e-5 3.10169,0.307059 4.50868,0.921133 1.40695,0.614118 2.63802,1.447533 3.69327,2.500244 1.0552,1.052755 1.88659,2.280947 2.49416,3.684555 0.60754,1.403673 0.91131,2.895044 0.91134,4.474132 -3e-5,1.579111 -0.3038,3.070481 -0.91134,4.474111 -0.60757,1.403651 -1.43896,2.631844 -2.49416,3.684555 -1.05525,1.052755 -2.28632,1.886148 -3.69327,2.500244 -1.40699,0.614096 -2.90987,0.921155 -4.50868,0.921155 -1.59882,0 -3.10172,-0.303056 -4.50867,-0.909189 -1.40697,-0.606112 -2.63807,-1.435545 -3.69329,-2.488279 -1.05522,-1.052733 -1.88659,-2.280903 -2.49416,-3.684555 -0.60754,-1.403651 -0.91132,-2.902984 -0.91132,-4.498042 0,-2.360659 0.62353,-4.47411 1.87061,-6.34033 l -0.0239,0.04791 11.51151,-19.068815 c 0.2398,-0.39874 0.55157,-0.72172 0.93531,-0.96899 0.38369,-0.24719 0.81539,-0.37083 1.29503,-0.37085 0.71946,2e-5 1.31501,0.24327 1.7867,0.72973 0.47162,0.48652 0.70744,1.08069 0.70746,1.78246 -2e-5,0.3988 -0.11204,0.82149 -0.33574,1.26807 z m 7.29063,11.580064 c -3e-5,-0.89322 -0.17191,-1.738601 -0.51563,-2.53614 -0.34375,-0.797496 -0.81142,-1.49533 -1.40296,-2.093501 -0.59158,-0.598128 -1.29106,-1.072661 -2.09845,-1.42358 -0.80743,-0.350896 -1.66678,-0.526355 -2.5781,-0.526377 -0.92732,2.2e-5 -1.79068,0.1715 -2.59009,0.514412 -0.79942,0.342955 -1.49491,0.809505 -2.08645,1.399648 -0.59158,0.590187 -1.05924,1.28802 -1.40298,2.093523 -0.34375,0.805502 -0.51563,1.662848 -0.51561,2.572015 -2e-5,0.925137 0.17191,1.786464 0.51561,2.583982 0.34374,0.797518 0.8114,1.49137 1.40298,2.081535 0.59154,0.590165 1.28703,1.056736 2.08645,1.399648 0.79941,0.342956 1.66277,0.514412 2.59009,0.514412 0.91132,0 1.77067,-0.175437 2.5781,-0.526377 0.80739,-0.350897 1.50687,-0.825431 2.09845,-1.42358 0.59154,-0.598127 1.05921,-1.295961 1.40296,-2.093501 0.34374,-0.797517 0.5156,-1.642876 0.51563,-2.536119 z" />
    <path
       sodipodi:nodetypes="csscccssccccc"
       inkscape:connector-curvature="0"
       id="path11593-6"
       d="m -395.30535,-50.613153 c -1.33527,0.04462 -2.69146,0.387887 -3.98746,1.187899 -5.92468,3.657211 -9.51835,10.63371 -2.9906,18.149929 3.66754,4.22292 13.55959,6.155706 15.42369,12.086121 0.7729,2.627293 0.45364,7.500994 0.78921,7.486491 0.33557,0.01531 0.03,-4.859198 0.80302,-7.486491 1.86414,-5.930415 11.75621,-7.863201 15.42376,-12.086121 6.52771,-7.516219 2.93405,-14.492718 -2.9906,-18.149929 -5.92473,-3.657168 -13.20849,2.265285 -13.20849,2.265285 l -0.0417,0.05512 v -0.05512 c 0,0 -4.45219,-3.612477 -9.22096,-3.453184 z"
       style="fill:#ff0000;fill-opacity:1;stroke:none;stroke-width:2.19008" />
    <path
       inkscape:connector-curvature="0"
       id="path26135"
       style="font-style:normal;font-variant:normal;font-weight:bold;font-stretch:normal;font-size:22.4px;line-height:125%;font-family:Comfortaa;-inkscape-font-specification:'Comfortaa Bold';letter-spacing:0px;word-spacing:0px;fill:#ff0000;fill-opacity:1;stroke:none;stroke-width:2.19008"
       d="m -218.52173,166.12578 h -0.69547 c -1.59881,-2e-5 -3.10171,-0.30706 -4.50868,-0.92113 -1.40694,-0.61412 -2.63804,-1.44753 -3.69328,-2.50024 -1.0552,-1.05276 -1.8866,-2.28095 -2.49416,-3.68456 -0.60753,-1.40367 -0.9113,-2.89504 -0.91132,-4.47413 2e-5,-1.57911 0.30379,-3.07048 0.91132,-4.47411 0.60756,-1.40365 1.43896,-2.63185 2.49416,-3.68456 1.05524,-1.05275 2.28634,-1.88617 3.69328,-2.50024 1.40697,-0.6141 2.90987,-0.92116 4.50868,-0.92116 1.59883,0 3.10171,0.30306 4.50868,0.90919 1.40697,0.60612 2.63804,1.43555 3.69326,2.48828 1.05522,1.05274 1.88662,2.28091 2.49416,3.68456 0.60755,1.40365 0.91134,2.90298 0.91134,4.49804 0,2.36066 -0.62355,4.47411 -1.87063,6.34033 l 0.0239,-0.0479 -11.51151,19.06881 c -0.23981,0.39874 -0.55159,0.72172 -0.93531,0.969 -0.38371,0.24719 -0.81538,0.3708 -1.29505,0.37084 -0.71946,-4e-5 -1.31501,-0.24327 -1.78668,-0.72972 -0.47164,-0.48652 -0.70746,-1.08069 -0.70748,-1.78248 2e-5,-0.39879 0.11204,-0.82148 0.33576,-1.26805 z m -7.29062,-11.58006 c 2e-5,0.89322 0.1719,1.7386 0.51562,2.53614 0.34377,0.7975 0.81142,1.49533 1.40296,2.0935 0.59158,0.59813 1.29107,1.07266 2.09845,1.42358 0.80743,0.3509 1.6668,0.52636 2.57812,0.52638 0.92732,-2e-5 1.79069,-0.1715 2.59009,-0.51441 0.7994,-0.34296 1.4949,-0.80951 2.08646,-1.39965 0.59156,-0.59019 1.05921,-1.28802 1.40295,-2.09353 0.34377,-0.8055 0.51563,-1.66284 0.51563,-2.57201 0,-0.92514 -0.1719,-1.78646 -0.51563,-2.58398 -0.34374,-0.79752 -0.81139,-1.49137 -1.40295,-2.08154 -0.59156,-0.59016 -1.28706,-1.05673 -2.08646,-1.39965 -0.7994,-0.34295 -1.66277,-0.51441 -2.59009,-0.51441 -0.91132,0 -1.77069,0.17544 -2.57812,0.52638 -0.80738,0.3509 -1.50687,0.82543 -2.09845,1.42358 -0.59154,0.59813 -1.05919,1.29596 -1.40296,2.0935 -0.34372,0.79752 -0.5156,1.64288 -0.51562,2.53612 z" />
    <path
       style="fill:#ff0000;fill-opacity:1;stroke:none;stroke-width:2.19008"
       d="m -209.97547,127.07397 c 1.33527,-0.0446 2.69145,-0.38789 3.98745,-1.1879 5.92468,-3.65721 9.51836,-10.63371 2.99061,-18.14993 -3.66755,-4.22292 -13.5596,-6.15571 -15.4237,-12.086122 -0.77289,-2.627294 -0.45364,-7.500995 -0.7892,-7.486492 -0.33557,-0.01531 -0.03,4.859198 -0.80303,7.486492 -1.86414,5.930412 -11.75621,7.863202 -15.42376,12.086122 -6.5277,7.51622 -2.93405,14.49272 2.99061,18.14993 5.92472,3.65717 13.20848,-2.26529 13.20848,-2.26529 l 0.0417,-0.0551 v 0.0551 c 0,0 4.45219,3.61248 9.22096,3.45319 z"
       id="path8485"
       inkscape:connector-curvature="0"
       sodipodi:nodetypes="csscccssccccc" />
    <path
       sodipodi:nodetypes="csscccssccccc"
       inkscape:connector-curvature="0"
       id="path8531"
       d="m -344.65926,-80.08441 c -1.82314,0.06103 -3.67483,0.529615 -5.44435,1.621942 -8.08942,4.993444 -12.99613,14.51899 -4.0833,24.781437 5.00757,5.76585 18.51391,8.404825 21.05911,16.502066 1.05529,3.587233 0.61939,10.241666 1.07757,10.221848 0.45816,0.02188 0.041,-6.634615 1.09642,-10.221848 2.54525,-8.097241 16.05161,-10.736216 21.05918,-16.502066 8.91276,-10.262447 4.0061,-19.787993 -4.08327,-24.781437 -8.08948,-4.9934 -18.03453,3.092947 -18.03453,3.092947 l -0.0568,0.07525 v -0.07525 c 0,0 -6.07891,-4.93237 -12.59006,-4.714889 z"
       style="fill:#ff0000;fill-opacity:1;stroke:none;stroke-width:2.19008" />
    <path
       sodipodi:nodetypes="csscccssccccc"
       inkscape:connector-curvature="0"
       id="path8533"
       d="m -286.00537,-80.08441 c -1.82314,0.06103 -3.67482,0.529615 -5.44435,1.621942 -8.08941,4.993444 -12.99613,14.51899 -4.0833,24.781437 5.00757,5.76585 18.51391,8.404825 21.05912,16.502066 1.05528,3.587233 0.61938,10.241666 1.07756,10.221848 0.45816,0.02188 0.041,-6.634615 1.09642,-10.221848 2.54525,-8.097241 16.05161,-10.736216 21.05919,-16.502066 8.91276,-10.262447 4.00609,-19.787993 -4.08328,-24.781437 -8.08948,-4.9934 -18.03453,3.092947 -18.03453,3.092947 l -0.0568,0.07525 v -0.07525 c 0,0 -6.07891,-4.93237 -12.59006,-4.714889 z"
       style="fill:#ff0000;fill-opacity:1;stroke:none;stroke-width:2.19008" />
    <path
       sodipodi:nodetypes="csscccssccccc"
       inkscape:connector-curvature="0"
       id="path8535"
       d="m -319.64157,148.67012 c 1.82314,-0.061 3.67483,-0.52961 5.44436,-1.62194 8.08941,-4.99344 12.99612,-14.51899 4.08329,-24.78144 -5.00757,-5.76585 -18.51391,-8.40482 -21.05911,-16.50206 -1.05529,-3.58724 -0.61939,-10.241669 -1.07757,-10.22185 -0.45816,-0.02187 -0.041,6.63461 -1.09642,10.22185 -2.54525,8.09724 -16.05161,10.73621 -21.05918,16.50206 -8.91276,10.26245 -4.00609,19.788 4.08327,24.78144 8.08948,4.9934 18.03453,-3.09295 18.03453,-3.09295 l 0.0568,-0.0753 v 0.0753 c 0,0 6.07891,4.93237 12.59006,4.71489 z"
       style="fill:#ff0000;fill-opacity:1;stroke:none;stroke-width:2.19008" />
    <path
       sodipodi:nodetypes="csscccssccccc"
       inkscape:connector-curvature="0"
       id="path8537"
       d="m -260.98767,148.67012 c 1.82313,-0.061 3.67482,-0.52961 5.44435,-1.62194 8.08941,-4.99344 12.99612,-14.51899 4.0833,-24.78144 -5.00758,-5.76585 -18.51393,-8.40482 -21.05914,-16.50206 -1.05529,-3.58724 -0.61939,-10.241669 -1.07757,-10.22185 -0.45815,-0.02187 -0.041,6.63461 -1.09642,10.22185 -2.54525,8.09724 -16.05161,10.73621 -21.05918,16.50206 -8.91276,10.26245 -4.00609,19.788 4.08328,24.78144 8.08948,4.9934 18.03452,-3.09295 18.03452,-3.09295 l 0.0568,-0.0753 v 0.0753 c 0,0 6.07894,4.93237 12.59009,4.71489 z"
       style="fill:#ff0000;fill-opacity:1;stroke:none;stroke-width:2.19008" />
    <path
       style="fill:#ff0000;fill-opacity:1;stroke:none;stroke-width:2.19008"
       d="m -344.65926,12.446734 c -1.82314,0.06103 -3.67483,0.529615 -5.44435,1.621942 -8.08942,4.993445 -12.99613,14.51899 -4.0833,24.781438 5.00757,5.765849 18.51391,8.404824 21.05911,16.502065 1.05529,3.587234 0.61939,10.241667 1.07757,10.221848 0.45816,0.02187 0.041,-6.634614 1.09642,-10.221848 2.54525,-8.097241 16.05161,-10.736216 21.05918,-16.502065 8.91276,-10.262448 4.0061,-19.787993 -4.08327,-24.781438 -8.08948,-4.9934002 -18.03453,3.092947 -18.03453,3.092947 l -0.0568,0.07525 v -0.07525 c 0,0 -6.07891,-4.93237 -12.59006,-4.714889 z"
       id="path8593"
       inkscape:connector-curvature="0"
       sodipodi:nodetypes="csscccssccccc" />
    <path
       sodipodi:nodetypes="csscccssccccc"
       inkscape:connector-curvature="0"
       id="path8612"
       d="m -286.00537,12.446734 c -1.82314,0.06103 -3.67482,0.529615 -5.44435,1.621942 -8.08941,4.993445 -12.99613,14.51899 -4.0833,24.781438 5.00757,5.765849 18.51391,8.404824 21.05912,16.502065 1.05528,3.587234 0.61938,10.241667 1.07756,10.221848 0.45816,0.02187 0.041,-6.634614 1.09642,-10.221848 2.54525,-8.097241 16.05161,-10.736216 21.05919,-16.502065 8.91276,-10.262448 4.00609,-19.787993 -4.08328,-24.781438 -8.08948,-4.9934002 -18.03453,3.092947 -18.03453,3.092947 l -0.0568,0.07525 v -0.07525 c 0,0 -6.07891,-4.93237 -12.59006,-4.714889 z"
       style="fill:#ff0000;fill-opacity:1;stroke:none;stroke-width:2.19008" />
  </g>
</svg>
