<?xml version="1.0" encoding="UTF-8" standalone="no"?>
<svg
   xmlns:dc="http://purl.org/dc/elements/1.1/"
   xmlns:cc="http://creativecommons.org/ns#"
   xmlns:rdf="http://www.w3.org/1999/02/22-rdf-syntax-ns#"
   xmlns:svg="http://www.w3.org/2000/svg"
   xmlns="http://www.w3.org/2000/svg"
   xmlns:sodipodi="http://sodipodi.sourceforge.net/DTD/sodipodi-0.dtd"
   xmlns:inkscape="http://www.inkscape.org/namespaces/inkscape"
   inkscape:version="1.0 (4035a4fb49, 2020-05-01)"
   sodipodi:docname="6S.svg"
   id="svg32"
   version="1.1"
   width="2.25in"
   viewBox="-106 -164.5 212 329"
   preserveAspectRatio="none"
   height="3.5in"
   face="6S"
   class="card">
  <metadata
     id="metadata38">
    <rdf:RDF>
      <cc:Work
         rdf:about="">
        <dc:format>image/svg+xml</dc:format>
        <dc:type
           rdf:resource="http://purl.org/dc/dcmitype/StillImage" />
      </cc:Work>
    </rdf:RDF>
  </metadata>
  <defs
     id="defs36" />
  <sodipodi:namedview
     inkscape:current-layer="svg32"
     inkscape:window-maximized="1"
     inkscape:window-y="-12"
     inkscape:window-x="-12"
     inkscape:cy="168"
     inkscape:cx="108"
     inkscape:zoom="2.2410714"
     showgrid="false"
     id="namedview34"
     inkscape:window-height="2050"
     inkscape:window-width="3240"
     inkscape:pageshadow="2"
     inkscape:pageopacity="0"
     guidetolerance="10"
     gridtolerance="10"
     objecttolerance="10"
     borderopacity="1"
     bordercolor="#666666"
     pagecolor="#ffffff" />
  <symbol
     preserveAspectRatio="xMinYMid"
     viewBox="-600 -600 1200 1200"
     id="SS6">
    <path
       id="path2"
       fill="black"
       d="M0 -500C100 -250 355 -100 355 185A150 150 0 0 1 55 185A10 10 0 0 0 35 185C35 385 85 400 130 500L-130 500C-85 400 -35 385 -35 185A10 10 0 0 0 -55 185A150 150 0 0 1 -355 185C-355 -100 -100 -250 0 -500Z" />
  </symbol>
  <symbol
     preserveAspectRatio="xMinYMid"
     viewBox="-500 -500 1000 1000"
     id="VS6">
    <path
       id="path5"
       fill="none"
       stroke-miterlimit="1.5"
       stroke-linecap="square"
       stroke-width="80"
       stroke="black"
       d="M-250 100A250 250 0 0 1 250 100L250 210A250 250 0 0 1 -250 210L-250 -210A250 250 0 0 1 0 -460C150 -460 180 -400 200 -375" />
  </symbol>
  <rect
     id="rect8"
     stroke="black"
     fill="white"
     ry="12"
     rx="12"
     y="-164"
     x="-105.5"
     height="328"
     width="211" />
  <g
     transform="translate(319.72051,-31.67661)"
     id="g916">
    <path
       inkscape:connector-curvature="0"
       id="path26141"
       style="font-style:normal;font-variant:normal;font-weight:bold;font-stretch:normal;font-size:22.4px;line-height:125%;font-family:Comfortaa;-inkscape-font-specification:'Comfortaa Bold';letter-spacing:0px;word-spacing:0px;fill:#000000;fill-opacity:1;stroke:none;stroke-width:2.19008"
       d="m -403.83922,-96.218698 h 0.69549 c 1.59881,2.2e-5 3.10169,0.307059 4.50868,0.921133 1.40695,0.614118 2.63802,1.447533 3.69327,2.500244 1.0552,1.052755 1.88659,2.280948 2.49416,3.684577 0.60754,1.403652 0.91131,2.895022 0.91134,4.474111 -3e-5,1.579111 -0.3038,3.070481 -0.91134,4.47411 -0.60757,1.403652 -1.43896,2.631844 -2.49416,3.684577 -1.05525,1.052734 -2.28632,1.886148 -3.69327,2.500223 -1.40699,0.614096 -2.90987,0.921155 -4.50868,0.921155 -1.59882,0 -3.10172,-0.303056 -4.50867,-0.90919 -1.40697,-0.606112 -2.63807,-1.435545 -3.69329,-2.488278 -1.05522,-1.052712 -1.88659,-2.280904 -2.49416,-3.684555 -0.60754,-1.40363 -0.91132,-2.902985 -0.91132,-4.498042 0,-2.36066 0.62353,-4.474111 1.87061,-6.34033 l -0.0239,0.04791 11.51151,-19.068837 c 0.2398,-0.39874 0.55157,-0.72172 0.93531,-0.96899 0.38369,-0.24719 0.81539,-0.37081 1.29503,-0.37085 0.71946,4e-5 1.31501,0.24327 1.7867,0.72973 0.47162,0.48654 0.70744,1.08069 0.70746,1.78248 -2e-5,0.39878 -0.11204,0.82147 -0.33574,1.26805 z m 7.29063,11.580065 c -3e-5,-0.893221 -0.17191,-1.738601 -0.51563,-2.536141 -0.34375,-0.797496 -0.81142,-1.49533 -1.40296,-2.093501 -0.59158,-0.598127 -1.29106,-1.072639 -2.09845,-1.423579 -0.80743,-0.350897 -1.66678,-0.526356 -2.5781,-0.526356 -0.92732,0 -1.79068,0.1715 -2.59009,0.51439 -0.79942,0.342956 -1.49491,0.809505 -2.08645,1.39967 -0.59158,0.590165 -1.05924,1.287999 -1.40298,2.093501 -0.34375,0.805502 -0.51563,1.662848 -0.51561,2.572016 -2e-5,0.925136 0.17191,1.786463 0.51561,2.583981 0.34374,0.79754 0.8114,1.49137 1.40298,2.081535 0.59154,0.590187 1.28703,1.056737 2.08645,1.399649 0.79941,0.342956 1.66277,0.514412 2.59009,0.514412 0.91132,0 1.77067,-0.175438 2.5781,-0.526356 0.80739,-0.350918 1.50687,-0.82543 2.09845,-1.423601 0.59154,-0.598128 1.05921,-1.295961 1.40296,-2.093501 0.34374,-0.797518 0.5156,-1.642876 0.51563,-2.536119 z" />
    <path
       id="path26462-3"
       d="m -403.14353,-70.296962 c -0.33567,-0.02188 -0.025,4.868888 -0.79752,7.496576 -1.86453,5.931509 -11.75011,7.869697 -15.41845,12.093536 -6.529,7.517576 -2.94846,14.482327 2.97734,18.14026 5.62667,3.473309 12.41938,-1.626666 13.09685,-2.157025 -0.009,0.137375 -0.0239,0.27044 -0.0355,0.406656 -0.002,0.02997 -0.0154,0.05862 -0.0175,0.08837 -0.83874,5.300766 -7.50018,7.48857 -10.31442,8.186119 h -1.29374 v 0.282887 h 1.86085 9.72959 0.0175 0.38987 0.0175 9.72959 1.86085 v -0.282887 h -1.29374 c -2.81409,-0.697549 -9.47573,-2.885353 -10.31444,-8.186119 -0.004,-0.02975 -0.0153,-0.05841 -0.0175,-0.08837 -0.011,-0.141969 -0.0263,-0.280569 -0.0355,-0.424353 0.33195,0.263265 4.52819,3.529965 9.10934,3.377015 1.33571,-0.04375 2.6913,-0.40215 3.98752,-1.202293 5.92582,-3.657933 9.50634,-10.622684 2.97736,-18.14026 -3.66836,-4.223839 -13.55392,-6.162027 -15.41848,-12.093536 -0.77287,-2.627688 -0.46182,-7.511014 -0.79749,-7.496576 z"
       style="fill:#000000;fill-opacity:1;stroke:none;stroke-width:2.19008"
       inkscape:connector-curvature="0" />
    <path
       inkscape:connector-curvature="0"
       id="path26129"
       style="font-style:normal;font-variant:normal;font-weight:bold;font-stretch:normal;font-size:22.4px;line-height:125%;font-family:Comfortaa;-inkscape-font-specification:'Comfortaa Bold';letter-spacing:0px;word-spacing:0px;fill:#000000;fill-opacity:1;stroke:none;stroke-width:2.19008"
       d="m -235.60183,159.57193 h -0.69547 c -1.59881,-3e-5 -3.10171,-0.30706 -4.50868,-0.92114 -1.40694,-0.61412 -2.63804,-1.44753 -3.69328,-2.50024 -1.0552,-1.05276 -1.8866,-2.28095 -2.49416,-3.68456 -0.60753,-1.40367 -0.9113,-2.89504 -0.91132,-4.47413 2e-5,-1.57911 0.30379,-3.07048 0.91132,-4.47411 0.60756,-1.40365 1.43896,-2.63184 2.49416,-3.68456 1.05524,-1.05273 2.28634,-1.88614 3.69328,-2.50024 1.40697,-0.6141 2.90987,-0.92115 4.50868,-0.92115 1.59883,0 3.10171,0.30307 4.50868,0.90919 1.40697,0.60611 2.63804,1.43554 3.69326,2.48827 1.05522,1.05274 1.88662,2.28091 2.49416,3.68456 0.60755,1.40365 0.91134,2.90298 0.91134,4.49804 0,2.36066 -0.62355,4.47411 -1.87063,6.34033 l 0.0239,-0.0479 -11.51151,19.06881 c -0.23981,0.39874 -0.55159,0.72172 -0.93531,0.969 -0.38371,0.24721 -0.81538,0.37082 -1.29505,0.37085 -0.71946,-3e-5 -1.31501,-0.24328 -1.78668,-0.72973 -0.47164,-0.48652 -0.70746,-1.08069 -0.70748,-1.78246 2e-5,-0.3988 0.11204,-0.82149 0.33576,-1.26807 z m -7.29062,-11.58007 c 2e-5,0.89322 0.1719,1.7386 0.51562,2.53614 0.34377,0.79752 0.81142,1.49535 1.40296,2.0935 0.59158,0.59813 1.29107,1.07266 2.09845,1.42358 0.80743,0.3509 1.6668,0.52636 2.57812,0.52638 0.92732,-2e-5 1.79069,-0.1715 2.59009,-0.51441 0.7994,-0.34296 1.4949,-0.80951 2.08646,-1.39965 0.59156,-0.59019 1.05921,-1.28802 1.40295,-2.0935 0.34377,-0.80553 0.51563,-1.66287 0.51563,-2.57204 0,-0.92514 -0.1719,-1.78646 -0.51563,-2.58398 -0.34374,-0.79752 -0.81139,-1.49137 -1.40295,-2.08154 -0.59156,-0.59016 -1.28706,-1.05671 -2.08646,-1.39964 -0.7994,-0.34296 -1.66277,-0.51442 -2.59009,-0.51442 -0.91132,0 -1.77069,0.17544 -2.57812,0.52638 -0.80738,0.3509 -1.50687,0.82543 -2.09845,1.42358 -0.59154,0.59813 -1.05919,1.29596 -1.40296,2.0935 -0.34372,0.79752 -0.5156,1.6429 -0.51562,2.53612 z" />
    <path
       inkscape:connector-curvature="0"
       style="fill:#000000;fill-opacity:1;stroke:none;stroke-width:2.19008"
       d="m -236.2975,133.65019 c 0.33568,0.0219 0.025,-4.86889 0.79752,-7.49658 1.86454,-5.93151 11.75012,-7.86969 15.41845,-12.09353 6.529,-7.51758 2.94846,-14.48233 -2.97733,-18.140263 -5.62668,-3.473309 -12.41939,1.626667 -13.09686,2.157025 0.009,-0.137374 0.0239,-0.27044 0.0355,-0.406655 0.002,-0.02997 0.0154,-0.05862 0.0175,-0.08837 0.83874,-5.300766 7.50018,-7.48857 10.31443,-8.186119 h 1.29374 v -0.282887 h -1.86085 -9.7296 -0.0175 -0.38988 -0.0175 -9.7296 -1.86085 v 0.282887 h 1.29374 c 2.81409,0.697549 9.47573,2.885353 10.31445,8.186119 0.004,0.02975 0.0154,0.05841 0.0175,0.08837 0.011,0.141968 0.0263,0.280568 0.0355,0.424352 -0.33195,-0.263265 -4.52819,-3.529964 -9.10933,-3.377015 -1.33571,0.04375 -2.69131,0.40215 -3.98752,1.202293 -5.92582,3.657933 -9.50634,10.622683 -2.97736,18.140263 3.66835,4.22384 13.55391,6.16202 15.41847,12.09353 0.77287,2.62769 0.46182,7.51102 0.7975,7.49658 z"
       id="path8505" />
    <path
       id="path8507"
       d="m -353.06742,-85.481542 c -0.39183,-0.02559 -0.0285,5.681522 -0.93057,8.747781 -2.17557,6.921505 -13.7112,9.18318 -17.99195,14.111984 -7.61864,8.77228 -3.44051,16.899468 3.47451,21.167932 6.56573,4.053017 14.492,-1.898179 15.28268,-2.517044 0,0.160344 -0.0285,0.315568 -0.0417,0.474534 0,0.035 -0.0263,0.06847 -0.0263,0.103031 -0.97859,6.185477 -8.75204,8.73844 -12.036,9.552408 h -1.50965 v 0.330093 h 2.17162 11.35342 0.0263 0.45476 0.0263 11.35342 2.17162 v -0.330093 h -1.50965 c -3.28374,-0.813968 -11.05741,-3.366931 -12.036,-9.552408 0,-0.03478 -0.0263,-0.06825 -0.0263,-0.103031 0,-0.165594 -0.0307,-0.327403 -0.0417,-0.495184 0.38744,0.307212 5.28411,4.119123 10.62984,3.940645 1.55855,-0.05097 3.14056,-0.469261 4.65284,-1.402951 6.91502,-4.268464 11.09293,-12.395652 3.4745,-21.167932 -4.28074,-4.928804 -15.81616,-7.190479 -17.99194,-14.111984 -0.90185,-3.066259 -0.53874,-8.764624 -0.93057,-8.747781 z"
       style="fill:#000000;fill-opacity:1;stroke:none;stroke-width:2.19008"
       inkscape:connector-curvature="0" />
    <path
       id="path8509"
       d="m -286.19102,-85.481542 c -0.39183,-0.02559 -0.0285,5.681522 -0.93057,8.747781 -2.17557,6.921505 -13.7112,9.18318 -17.99194,14.111984 -7.61865,8.77228 -3.44052,16.899468 3.4745,21.167932 6.56573,4.053017 14.49201,-1.898179 15.28268,-2.517044 0,0.160344 -0.0285,0.315568 -0.0417,0.474534 0,0.035 -0.0263,0.06847 -0.0263,0.103031 -0.97859,6.185477 -8.75204,8.73844 -12.036,9.552408 H -299.97 v 0.330093 h 2.17162 11.35342 0.0263 0.45476 0.0263 11.35342 2.17162 v -0.330093 h -1.50965 c -3.28374,-0.813968 -11.05741,-3.366931 -12.036,-9.552408 0,-0.03478 -0.0263,-0.06825 -0.0263,-0.103031 0,-0.165594 -0.0307,-0.327403 -0.0417,-0.495184 0.38744,0.307212 5.28411,4.119123 10.62984,3.940645 1.55855,-0.05097 3.14056,-0.469261 4.65284,-1.402951 6.91502,-4.268464 11.09293,-12.395652 3.4745,-21.167932 -4.28074,-4.928804 -15.81615,-7.190479 -17.99194,-14.111984 -0.90184,-3.066259 -0.53874,-8.764624 -0.93057,-8.747781 z"
       style="fill:#000000;fill-opacity:1;stroke:none;stroke-width:2.19008"
       inkscape:connector-curvature="0" />
    <path
       id="path8511"
       d="m -353.06795,153.42849 c 0.39183,0.0256 0.0285,-5.68152 0.93057,-8.74778 2.17557,-6.9215 13.7112,-9.18318 17.99195,-14.11198 7.61864,-8.77228 3.44051,-16.89947 -3.47451,-21.16793 -6.56573,-4.05302 -14.492,1.89817 -15.28268,2.51704 0,-0.16034 0.0285,-0.31557 0.0417,-0.47453 0,-0.035 0.0263,-0.0685 0.0263,-0.10304 0.97859,-6.18547 8.75204,-8.73844 12.036,-9.5524 h 1.50965 v -0.3301 h -2.17162 -11.35342 -0.0263 -0.45476 -0.0263 -11.35342 -2.17162 v 0.3301 h 1.50965 c 3.28374,0.81396 11.05741,3.36693 12.036,9.5524 0,0.0348 0.0263,0.0682 0.0263,0.10304 0,0.16559 0.0307,0.3274 0.0417,0.49518 -0.38744,-0.30721 -5.28411,-4.11912 -10.62984,-3.94065 -1.55855,0.051 -3.14056,0.46927 -4.65284,1.40296 -6.91502,4.26846 -11.09293,12.39565 -3.4745,21.16793 4.28074,4.9288 15.81616,7.19048 17.99194,14.11198 0.90185,3.06626 0.53874,8.76463 0.93057,8.74778 z"
       style="fill:#000000;fill-opacity:1;stroke:none;stroke-width:2.19008"
       inkscape:connector-curvature="0" />
    <path
       id="path8513"
       d="m -286.19155,153.42849 c 0.39183,0.0256 0.0285,-5.68152 0.93057,-8.74778 2.17557,-6.9215 13.7112,-9.18318 17.99195,-14.11198 7.61864,-8.77228 3.44051,-16.89947 -3.47451,-21.16793 -6.56572,-4.05302 -14.492,1.89817 -15.28268,2.51704 0,-0.16034 0.0285,-0.31557 0.0417,-0.47453 0,-0.035 0.0263,-0.0685 0.0263,-0.10304 0.97859,-6.18547 8.75204,-8.73844 12.036,-9.5524 h 1.50965 v -0.3301 h -2.17162 -11.35342 -0.0263 -0.45476 -0.0263 -11.35342 -2.17162 v 0.3301 h 1.50965 c 3.28374,0.81396 11.05741,3.36693 12.036,9.5524 0,0.0348 0.0263,0.0682 0.0263,0.10304 0,0.16559 0.0307,0.3274 0.0417,0.49518 -0.38744,-0.30721 -5.28411,-4.11912 -10.62983,-3.94065 -1.55855,0.051 -3.14056,0.46927 -4.65285,1.40296 -6.91502,4.26846 -11.09293,12.39565 -3.4745,21.16793 4.28075,4.9288 15.81616,7.19048 17.99194,14.11198 0.90185,3.06626 0.53874,8.76463 0.93057,8.74778 z"
       style="fill:#000000;fill-opacity:1;stroke:none;stroke-width:2.19008"
       inkscape:connector-curvature="0" />
    <path
       inkscape:connector-curvature="0"
       style="fill:#000000;fill-opacity:1;stroke:none;stroke-width:2.19008"
       d="m -353.06742,2.8933574 c -0.39183,-0.025594 -0.0285,5.6815216 -0.93057,8.7477806 -2.17557,6.921505 -13.7112,9.18318 -17.99195,14.111984 -7.61864,8.77228 -3.44051,16.899468 3.47451,21.167932 6.56573,4.053017 14.492,-1.898179 15.28268,-2.517044 0,0.160344 -0.0285,0.315568 -0.0417,0.474534 0,0.035 -0.0263,0.06847 -0.0263,0.103031 -0.97859,6.185477 -8.75204,8.73844 -12.036,9.552408 h -1.50965 v 0.330093 h 2.17162 11.35342 0.0263 0.45476 0.0263 11.35342 2.17162 v -0.330093 h -1.50965 c -3.28374,-0.813968 -11.05741,-3.366931 -12.036,-9.552408 0,-0.03478 -0.0263,-0.06825 -0.0263,-0.103031 0,-0.165594 -0.0307,-0.327403 -0.0417,-0.495184 0.38744,0.307212 5.28411,4.119123 10.62984,3.940645 1.55855,-0.05097 3.14056,-0.469261 4.65284,-1.402951 6.91502,-4.268464 11.09293,-12.395652 3.4745,-21.167932 -4.28074,-4.928804 -15.81616,-7.190479 -17.99194,-14.111984 -0.90185,-3.066259 -0.53874,-8.7646243 -0.93057,-8.7477806 z"
       id="path8589" />
    <path
       inkscape:connector-curvature="0"
       style="fill:#000000;fill-opacity:1;stroke:none;stroke-width:2.19008"
       d="m -353.06742,-85.481542 c -0.39183,-0.02559 -0.0285,5.681522 -0.93057,8.747781 -2.17557,6.921505 -13.7112,9.18318 -17.99195,14.111984 -7.61864,8.77228 -3.44051,16.899468 3.47451,21.167932 6.56573,4.053017 14.492,-1.898179 15.28268,-2.517044 0,0.160344 -0.0285,0.315568 -0.0417,0.474534 0,0.035 -0.0263,0.06847 -0.0263,0.103031 -0.97859,6.185477 -8.75204,8.73844 -12.036,9.552408 h -1.50965 v 0.330093 h 2.17162 11.35342 0.0263 0.45476 0.0263 11.35342 2.17162 v -0.330093 h -1.50965 c -3.28374,-0.813968 -11.05741,-3.366931 -12.036,-9.552408 0,-0.03478 -0.0263,-0.06825 -0.0263,-0.103031 0,-0.165594 -0.0307,-0.327403 -0.0417,-0.495184 0.38744,0.307212 5.28411,4.119123 10.62984,3.940645 1.55855,-0.05097 3.14056,-0.469261 4.65284,-1.402951 6.91502,-4.268464 11.09293,-12.395652 3.4745,-21.167932 -4.28074,-4.928804 -15.81616,-7.190479 -17.99194,-14.111984 -0.90185,-3.066259 -0.53874,-8.764624 -0.93057,-8.747781 z"
       id="path8604" />
    <path
       id="path8610"
       d="m -286.19102,2.8933574 c -0.39183,-0.025594 -0.0285,5.6815216 -0.93057,8.7477806 -2.17557,6.921505 -13.7112,9.18318 -17.99194,14.111984 -7.61865,8.77228 -3.44052,16.899468 3.4745,21.167932 6.56573,4.053017 14.49201,-1.898179 15.28268,-2.517044 0,0.160344 -0.0285,0.315568 -0.0417,0.474534 0,0.035 -0.0263,0.06847 -0.0263,0.103031 -0.97859,6.185477 -8.75204,8.73844 -12.036,9.552408 H -299.97 v 0.330093 h 2.17162 11.35342 0.0263 0.45476 0.0263 11.35342 2.17162 v -0.330093 h -1.50965 c -3.28374,-0.813968 -11.05741,-3.366931 -12.036,-9.552408 0,-0.03478 -0.0263,-0.06825 -0.0263,-0.103031 0,-0.165594 -0.0307,-0.327403 -0.0417,-0.495184 0.38744,0.307212 5.28411,4.119123 10.62984,3.940645 1.55855,-0.05097 3.14056,-0.469261 4.65284,-1.402951 6.91502,-4.268464 11.09293,-12.395652 3.4745,-21.167932 -4.28074,-4.928804 -15.81615,-7.190479 -17.99194,-14.111984 -0.90184,-3.066259 -0.53874,-8.7646243 -0.93057,-8.7477806 z"
       style="fill:#000000;fill-opacity:1;stroke:none;stroke-width:2.19008"
       inkscape:connector-curvature="0" />
  </g>
</svg>
