<?xml version="1.0" encoding="UTF-8" standalone="no"?>
<svg
   xmlns:dc="http://purl.org/dc/elements/1.1/"
   xmlns:cc="http://creativecommons.org/ns#"
   xmlns:rdf="http://www.w3.org/1999/02/22-rdf-syntax-ns#"
   xmlns:svg="http://www.w3.org/2000/svg"
   xmlns="http://www.w3.org/2000/svg"
   xmlns:sodipodi="http://sodipodi.sourceforge.net/DTD/sodipodi-0.dtd"
   xmlns:inkscape="http://www.inkscape.org/namespaces/inkscape"
   inkscape:version="1.0 (4035a4fb49, 2020-05-01)"
   sodipodi:docname="7C.svg"
   id="svg34"
   version="1.1"
   width="2.25in"
   viewBox="-106 -164.5 212 329"
   preserveAspectRatio="none"
   height="3.5in"
   face="7C"
   class="card">
  <metadata
     id="metadata40">
    <rdf:RDF>
      <cc:Work
         rdf:about="">
        <dc:format>image/svg+xml</dc:format>
        <dc:type
           rdf:resource="http://purl.org/dc/dcmitype/StillImage" />
      </cc:Work>
    </rdf:RDF>
  </metadata>
  <defs
     id="defs38" />
  <sodipodi:namedview
     inkscape:current-layer="svg34"
     inkscape:window-maximized="1"
     inkscape:window-y="-12"
     inkscape:window-x="-12"
     inkscape:cy="168"
     inkscape:cx="108"
     inkscape:zoom="2.2410714"
     showgrid="false"
     id="namedview36"
     inkscape:window-height="2050"
     inkscape:window-width="3240"
     inkscape:pageshadow="2"
     inkscape:pageopacity="0"
     guidetolerance="10"
     gridtolerance="10"
     objecttolerance="10"
     borderopacity="1"
     bordercolor="#666666"
     pagecolor="#ffffff" />
  <symbol
     preserveAspectRatio="xMinYMid"
     viewBox="-600 -600 1200 1200"
     id="SC7">
    <path
       id="path2"
       fill="black"
       d="M30 150C35 385 85 400 130 500L-130 500C-85 400 -35 385 -30 150A10 10 0 0 0 -50 150A210 210 0 1 1 -124 -51A10 10 0 0 0 -110 -65A230 230 0 1 1 110 -65A10 10 0 0 0 124 -51A210 210 0 1 1 50 150A10 10 0 0 0 30 150Z" />
  </symbol>
  <symbol
     preserveAspectRatio="xMinYMid"
     viewBox="-500 -500 1000 1000"
     id="VC7">
    <path
       id="path5"
       fill="none"
       stroke-miterlimit="1.5"
       stroke-linecap="square"
       stroke-width="80"
       stroke="black"
       d="M-265 -320L-265 -460L265 -460C135 -200 -90 100 -90 460" />
  </symbol>
  <rect
     id="rect8"
     stroke="black"
     fill="white"
     ry="12"
     rx="12"
     y="-164"
     x="-105.5"
     height="328"
     width="211" />
  <g
     transform="translate(-267.57294,189.40438)"
     id="g918">
    <path
       inkscape:connector-curvature="0"
       id="path26126"
       style="font-style:normal;font-variant:normal;font-weight:bold;font-stretch:normal;font-size:22.4px;line-height:125%;font-family:Comfortaa;-inkscape-font-specification:'Comfortaa Bold';letter-spacing:0px;word-spacing:0px;fill:#000000;fill-opacity:1;stroke:none;stroke-width:2.19008"
       d="m 172.83014,-298.18301 16.35595,-29.23728 h -13.9817 c -0.71946,4e-5 -1.31504,-0.23522 -1.78668,-0.7058 -0.47166,-0.47051 -0.70748,-1.06467 -0.70748,-1.78248 0,-0.70177 0.23582,-1.29594 0.70748,-1.78246 0.47164,-0.48646 1.06722,-0.72971 1.78668,-0.72975 h 18.20259 c 0.3517,4e-5 0.67946,0.0678 0.98326,0.20344 0.30375,0.13562 0.56757,0.31506 0.79142,0.53834 0.22381,0.22334 0.40367,0.48652 0.53959,0.78953 0.13595,0.3031 0.20392,0.63009 0.20392,0.98097 -2e-5,0.43069 -0.11994,0.87731 -0.35973,1.33984 l -18.41842,33.04147 c -0.12783,0.23925 -0.28778,0.45458 -0.47964,0.64599 -0.49563,0.49446 -1.0952,0.74169 -1.79867,0.74169 -0.68749,0 -1.27506,-0.24323 -1.76271,-0.72973 -0.48763,-0.48647 -0.73145,-1.07266 -0.73145,-1.75855 0,-0.51041 0.15195,-1.0288 0.45566,-1.55515 z" />
    <path
       inkscape:connector-curvature="0"
       id="path11538-7"
       d="m 184.14949,-282.62806 c -6.29954,0 -11.39616,5.10216 -11.39616,11.38706 0,2.46684 0.77211,4.74888 2.109,6.61296 -4.3911,0.52344 -7.79831,4.09473 -7.79831,8.45189 0,4.71723 3.98346,8.5403 8.89721,8.5403 3.19617,0 5.98147,-1.61986 7.55037,-4.04912 -0.28365,5.58658 -1.49779,11.02916 -5.93755,11.70532 -0.0974,0.0153 -0.19954,0.0431 -0.30112,0.0529 h -0.58501 v 0.28291 h 7.46157 7.46178 v -0.28291 h -0.58498 c -0.10218,-0.0109 -0.20216,-0.0378 -0.30136,-0.0529 -4.43502,-0.67546 -5.65217,-6.10714 -5.93731,-11.68765 1.57039,2.42222 4.35968,4.03145 7.55035,4.03145 4.91375,0 8.89723,-3.82307 8.89723,-8.5403 0,-4.36259 -3.39947,-7.95315 -7.79857,-8.46955 1.33191,-1.86197 2.12695,-4.13356 2.12695,-6.5953 0,-6.2849 -5.11431,-11.38706 -11.41409,-11.38706 z"
       style="fill:none;stroke:#000000;stroke-width:2.49172;stroke-opacity:1" />
    <path
       inkscape:connector-curvature="0"
       id="path26114"
       style="font-style:normal;font-variant:normal;font-weight:bold;font-stretch:normal;font-size:22.4px;line-height:125%;font-family:Comfortaa;-inkscape-font-specification:'Comfortaa Bold';letter-spacing:0px;word-spacing:0px;fill:#000000;fill-opacity:1;stroke:none;stroke-width:2.19008"
       d="m 362.31581,-80.62573 -16.35593,29.23726 h 13.98168 c 0.71949,-2.2e-5 1.31504,0.235244 1.78668,0.705818 0.47166,0.470509 0.70749,1.064655 0.70749,1.782461 0,0.701793 -0.23583,1.295939 -0.70749,1.782482 -0.47164,0.486434 -1.06719,0.729684 -1.78668,0.729727 h -18.20257 c -0.35172,-4.3e-5 -0.67948,-0.06781 -0.98328,-0.203437 -0.30375,-0.135625 -0.56755,-0.315065 -0.79142,-0.538321 -0.22381,-0.223344 -0.40367,-0.486543 -0.53959,-0.789556 -0.13595,-0.303099 -0.20392,-0.630086 -0.20392,-0.980961 2e-5,-0.430696 0.11994,-0.877318 0.35973,-1.339842 l 18.41842,-33.041472 c 0.12783,-0.239246 0.28781,-0.454584 0.47964,-0.64599 0.49566,-0.494462 1.0952,-0.741693 1.79869,-0.741693 0.68749,0 1.27506,0.24325 1.76269,0.729728 0.48765,0.486499 0.73147,1.072683 0.73147,1.758551 0,0.510409 -0.15195,1.028802 -0.45568,1.555179 z" />
    <path
       inkscape:connector-curvature="0"
       id="path11538-9"
       d="m 350.9964,-96.180697 c 6.29953,0 11.39615,-5.102163 11.39615,-11.387063 0,-2.46686 -0.7721,-4.7489 -2.10899,-6.61298 4.3911,-0.52342 7.79831,-4.09471 7.79831,-8.45188 0,-4.71725 -3.98347,-8.54031 -8.89721,-8.54031 -3.19617,0 -5.98147,1.61988 -7.55037,4.04914 0.28364,-5.58658 1.49779,-11.02919 5.93755,-11.70534 0.0974,-0.0153 0.19953,-0.0431 0.30112,-0.0529 h 0.585 v -0.28289 h -7.46156 -7.46179 v 0.28289 h 0.58498 c 0.10218,0.0109 0.20217,0.0378 0.30137,0.0529 4.43502,0.67548 5.65217,6.10716 5.9373,11.68767 -1.57039,-2.42222 -4.35968,-4.03147 -7.55034,-4.03147 -4.91375,0 -8.89724,3.82306 -8.89724,8.54031 0,4.3626 3.39947,7.95313 7.79858,8.46956 -1.33192,1.86195 -2.12695,4.13354 -2.12695,6.5953 0,6.2849 5.11431,11.387063 11.41409,11.387063 z"
       style="fill:none;stroke:#000000;stroke-width:2.49172;stroke-opacity:1" />
    <path
       inkscape:connector-curvature="0"
       id="path8790"
       d="m 232.59962,-307.41991 c -7.5819,0 -13.71598,6.14076 -13.71598,13.70504 0,2.969 0.92928,5.71558 2.53833,7.95912 -5.28499,0.63 -9.38579,4.92826 -9.38579,10.17237 0,5.67749 4.79438,10.27879 10.70838,10.27879 3.84678,0 7.19906,-1.94961 9.08732,-4.87338 -0.34138,6.7238 -1.8027,13.27431 -7.14621,14.0881 -0.11709,0.0175 -0.24021,0.0518 -0.36241,0.0639 h -0.70409 v 0.34049 h 8.98045 8.98073 v -0.34049 h -0.70408 c -0.12301,-0.0109 -0.24319,-0.0455 -0.36269,-0.0639 -5.33784,-0.81296 -6.80274,-7.35034 -7.14593,-14.06683 1.89008,2.91527 5.24714,4.85211 9.08734,4.85211 5.914,0 10.70836,-4.6013 10.70836,-10.27879 0,-5.25065 -4.09148,-9.5721 -9.38607,-10.19363 1.60301,-2.24098 2.55992,-4.97498 2.55992,-7.93786 0,-7.56428 -6.1554,-13.70504 -13.73758,-13.70504 z"
       style="fill:#000000;fill-opacity:1;stroke:none;stroke-width:2.19008" />
    <path
       inkscape:connector-curvature="0"
       id="path8794"
       d="m 302.76503,-307.41991 c -7.5819,0 -13.71598,6.14076 -13.71598,13.70504 0,2.969 0.92927,5.71558 2.53832,7.95912 -5.28499,0.63 -9.38578,4.92826 -9.38578,10.17237 0,5.67749 4.79438,10.27879 10.70838,10.27879 3.84677,0 7.19905,-1.94961 9.08732,-4.87338 -0.34138,6.7238 -1.80271,13.27431 -7.14622,14.0881 -0.11709,0.0175 -0.24021,0.0518 -0.3624,0.0639 h -0.70409 v 0.34049 h 8.98045 8.98073 v -0.34049 h -0.70409 c -0.12301,-0.0109 -0.24319,-0.0455 -0.36269,-0.0639 -5.33783,-0.81296 -6.80273,-7.35034 -7.14593,-14.06683 1.89008,2.91527 5.24715,4.85211 9.08734,4.85211 5.914,0 10.70836,-4.6013 10.70836,-10.27879 0,-5.25065 -4.09147,-9.5721 -9.38607,-10.19363 1.60302,-2.24098 2.55992,-4.97498 2.55992,-7.93786 0,-7.56428 -6.15539,-13.70504 -13.73757,-13.70504 z"
       style="fill:#000000;fill-opacity:1;stroke:none;stroke-width:2.19008" />
    <path
       inkscape:connector-curvature="0"
       id="path8798"
       d="m 232.38084,-68.326416 c 7.5819,0 13.71597,-6.140765 13.71597,-13.705022 0,-2.969025 -0.92927,-5.715603 -2.53832,-7.959122 5.28499,-0.629999 9.38579,-4.928257 9.38579,-10.17237 0,-5.67749 -4.79438,-10.27881 -10.70838,-10.27881 -3.84678,0 -7.19906,1.94963 -9.08732,4.87338 0.34137,-6.72378 1.8027,-13.27429 7.14621,-14.08808 0.11709,-0.0175 0.24021,-0.0518 0.36241,-0.0639 h 0.70409 v -0.34049 h -8.98045 -8.98074 v 0.34049 h 0.70409 c 0.12301,0.0109 0.24319,0.0455 0.36269,0.0639 5.33783,0.81296 6.80273,7.35034 7.14593,14.06681 -1.89008,-2.91527 -5.24714,-4.85211 -9.08734,-4.85211 -5.914,0 -10.70836,4.60132 -10.70836,10.27881 0,5.250632 4.09148,9.572077 9.38607,10.193632 -1.60302,2.240982 -2.55992,4.974982 -2.55992,7.93786 0,7.564257 6.15539,13.705022 13.73758,13.705022 z"
       style="fill:#000000;fill-opacity:1;stroke:none;stroke-width:2.19008" />
    <path
       inkscape:connector-curvature="0"
       id="path8802"
       d="m 302.54624,-68.326416 c 7.5819,0 13.71598,-6.140765 13.71598,-13.705022 0,-2.969025 -0.92928,-5.715603 -2.53832,-7.959122 5.28499,-0.629999 9.38578,-4.928257 9.38578,-10.17237 0,-5.67749 -4.79438,-10.27881 -10.70838,-10.27881 -3.84677,0 -7.19906,1.94963 -9.08732,4.87338 0.34138,-6.72378 1.80271,-13.27429 7.14622,-14.08808 0.11709,-0.0175 0.2402,-0.0518 0.3624,-0.0639 h 0.70409 v -0.34049 h -8.98045 -8.98073 v 0.34049 h 0.70409 c 0.12301,0.0109 0.24319,0.0455 0.36269,0.0639 5.33783,0.81296 6.80273,7.35034 7.14593,14.06681 -1.89009,-2.91527 -5.24715,-4.85211 -9.08735,-4.85211 -5.914,0 -10.70835,4.60132 -10.70835,10.27881 0,5.250632 4.09147,9.572077 9.38607,10.193632 -1.60302,2.240982 -2.55992,4.974982 -2.55992,7.93786 0,7.564257 6.15539,13.705022 13.73757,13.705022 z"
       style="fill:#000000;fill-opacity:1;stroke:none;stroke-width:2.19008" />
    <path
       inkscape:connector-curvature="0"
       id="path8820"
       d="m 232.59964,-201.76376 c -7.58189,0 -13.71597,6.14076 -13.71597,13.70502 0,2.96902 0.92927,5.7156 2.53832,7.95912 -5.28499,0.63 -9.38579,4.92826 -9.38579,10.17237 0,5.67749 4.79438,10.27881 10.70838,10.27881 3.84678,0 7.19906,-1.94963 9.08732,-4.87338 -0.34137,6.72378 -1.8027,13.27429 -7.14621,14.08808 -0.11709,0.0175 -0.24021,0.0518 -0.36241,0.0639 h -0.70408 v 0.34049 h 8.98044 8.98074 v -0.34049 h -0.70409 c -0.12301,-0.0109 -0.24319,-0.0455 -0.36269,-0.0639 -5.33783,-0.81296 -6.80273,-7.35034 -7.14593,-14.06681 1.89008,2.91527 5.24714,4.85211 9.08734,4.85211 5.914,0 10.70836,-4.60132 10.70836,-10.27881 0,-5.25063 -4.09148,-9.57208 -9.38607,-10.19363 1.60302,-2.24098 2.55992,-4.97498 2.55992,-7.93786 0,-7.56426 -6.15539,-13.70502 -13.73758,-13.70502 z"
       style="fill:#000000;fill-opacity:1;stroke:none;stroke-width:2.19008" />
    <path
       style="fill:#000000;fill-opacity:1;stroke:none;stroke-width:2.19008"
       d="m 302.76505,-201.76376 c -7.5819,0 -13.71598,6.14076 -13.71598,13.70502 0,2.96902 0.92928,5.7156 2.53832,7.95912 -5.28499,0.63 -9.38578,4.92826 -9.38578,10.17237 0,5.67749 4.79438,10.27881 10.70838,10.27881 3.84677,0 7.19906,-1.94963 9.08732,-4.87338 -0.34138,6.72378 -1.80271,13.27429 -7.14622,14.08808 -0.11709,0.0175 -0.2402,0.0518 -0.3624,0.0639 h -0.70409 v 0.34049 h 8.98045 8.98073 v -0.34049 h -0.70409 c -0.12301,-0.0109 -0.24319,-0.0455 -0.36269,-0.0639 -5.33783,-0.81296 -6.80273,-7.35034 -7.14593,-14.06681 1.89008,2.91527 5.24715,4.85211 9.08735,4.85211 5.914,0 10.70835,-4.60132 10.70835,-10.27881 0,-5.25063 -4.09147,-9.57208 -9.38607,-10.19363 1.60302,-2.24098 2.55992,-4.97498 2.55992,-7.93786 0,-7.56426 -6.15539,-13.70502 -13.73757,-13.70502 z"
       id="path8831"
       inkscape:connector-curvature="0" />
    <path
       inkscape:connector-curvature="0"
       id="path8794-9"
       d="m 267.68232,-249.88873 c -7.58189,0 -13.71597,6.14076 -13.71597,13.70504 0,2.96901 0.92927,5.71558 2.53832,7.95913 -5.28499,0.62999 -9.38579,4.92825 -9.38579,10.17236 0,5.6775 4.79438,10.27879 10.70838,10.27879 3.84678,0 7.19906,-1.94961 9.08732,-4.87337 -0.34137,6.7238 -1.8027,13.2743 -7.14621,14.08809 -0.11709,0.0175 -0.24021,0.0519 -0.36241,0.0639 h -0.70408 v 0.34048 h 8.98044 8.98074 v -0.34048 h -0.70409 c -0.12301,-0.0109 -0.24319,-0.0455 -0.36269,-0.0639 -5.33783,-0.81296 -6.80273,-7.35034 -7.14593,-14.06683 1.89008,2.91528 5.24714,4.85211 9.08734,4.85211 5.914,0 10.70836,-4.60129 10.70836,-10.27879 0,-5.25065 -4.09148,-9.57209 -9.38607,-10.19363 1.60302,-2.24098 2.55992,-4.97498 2.55992,-7.93786 0,-7.56428 -6.15539,-13.70504 -13.73758,-13.70504 z"
       style="fill:#000000;fill-opacity:1;stroke:none;stroke-width:2.19008" />
  </g>
</svg>
