<?xml version="1.0" encoding="UTF-8" standalone="no"?>
<svg
   xmlns:dc="http://purl.org/dc/elements/1.1/"
   xmlns:cc="http://creativecommons.org/ns#"
   xmlns:rdf="http://www.w3.org/1999/02/22-rdf-syntax-ns#"
   xmlns:svg="http://www.w3.org/2000/svg"
   xmlns="http://www.w3.org/2000/svg"
   xmlns:sodipodi="http://sodipodi.sourceforge.net/DTD/sodipodi-0.dtd"
   xmlns:inkscape="http://www.inkscape.org/namespaces/inkscape"
   inkscape:version="1.0 (4035a4fb49, 2020-05-01)"
   sodipodi:docname="7D.svg"
   id="svg34"
   version="1.1"
   width="2.25in"
   viewBox="-106 -164.5 212 329"
   preserveAspectRatio="none"
   height="3.5in"
   face="7D"
   class="card">
  <metadata
     id="metadata40">
    <rdf:RDF>
      <cc:Work
         rdf:about="">
        <dc:format>image/svg+xml</dc:format>
        <dc:type
           rdf:resource="http://purl.org/dc/dcmitype/StillImage" />
      </cc:Work>
    </rdf:RDF>
  </metadata>
  <defs
     id="defs38" />
  <sodipodi:namedview
     inkscape:current-layer="svg34"
     inkscape:window-maximized="1"
     inkscape:window-y="-12"
     inkscape:window-x="-12"
     inkscape:cy="168"
     inkscape:cx="108"
     inkscape:zoom="2.2410714"
     showgrid="false"
     id="namedview36"
     inkscape:window-height="2050"
     inkscape:window-width="3240"
     inkscape:pageshadow="2"
     inkscape:pageopacity="0"
     guidetolerance="10"
     gridtolerance="10"
     objecttolerance="10"
     borderopacity="1"
     bordercolor="#666666"
     pagecolor="#ffffff" />
  <symbol
     preserveAspectRatio="xMinYMid"
     viewBox="-600 -600 1200 1200"
     id="SD7">
    <path
       id="path2"
       fill="red"
       d="M-400 0C-350 0 0 -450 0 -500C0 -450 350 0 400 0C350 0 0 450 0 500C0 450 -350 0 -400 0Z" />
  </symbol>
  <symbol
     preserveAspectRatio="xMinYMid"
     viewBox="-500 -500 1000 1000"
     id="VD7">
    <path
       id="path5"
       fill="none"
       stroke-miterlimit="1.5"
       stroke-linecap="square"
       stroke-width="80"
       stroke="red"
       d="M-265 -320L-265 -460L265 -460C135 -200 -90 100 -90 460" />
  </symbol>
  <rect
     id="rect8"
     stroke="black"
     fill="white"
     ry="12"
     rx="12"
     y="-164"
     x="-105.5"
     height="328"
     width="211" />
  <g
     transform="translate(-328.01036,70.562458)"
     id="g918">
    <path
       inkscape:connector-curvature="0"
       id="path26120"
       style="font-style:normal;font-variant:normal;font-weight:bold;font-stretch:normal;font-size:22.4px;line-height:125%;font-family:Comfortaa;-inkscape-font-specification:'Comfortaa Bold';letter-spacing:0px;word-spacing:0px;fill:#ff0000;fill-opacity:1;stroke:none;stroke-width:2.19008"
       d="m 233.26754,-179.34116 16.35595,-29.23727 h -13.9817 c -0.71946,3e-5 -1.31504,-0.23524 -1.78668,-0.70581 -0.47166,-0.47051 -0.70748,-1.06466 -0.70748,-1.78246 0,-0.7018 0.23582,-1.29596 0.70748,-1.78249 0.47164,-0.48645 1.06722,-0.72968 1.78668,-0.72972 h 18.20259 c 0.3517,4e-5 0.67946,0.0678 0.98326,0.20343 0.30375,0.13563 0.56757,0.31505 0.79142,0.53833 0.22381,0.22334 0.40367,0.48652 0.53959,0.78955 0.13595,0.3031 0.20392,0.63007 0.20392,0.98096 -2e-5,0.4307 -0.11994,0.8773 -0.35973,1.33984 l -18.41842,33.04145 c -0.12783,0.23927 -0.28778,0.45461 -0.47964,0.64599 -0.49563,0.49449 -1.0952,0.74172 -1.79867,0.74172 -0.68749,0 -1.27506,-0.24325 -1.76271,-0.72975 -0.48763,-0.48648 -0.73145,-1.07266 -0.73145,-1.75853 0,-0.51041 0.15195,-1.0288 0.45566,-1.55518 z" />
    <path
       style="fill:none;stroke:#ff0000;stroke-width:2.19008;stroke-opacity:1"
       d="m 228.08063,-146.23103 16.50663,-20.64873 16.50641,20.64871 -16.50663,24.17093 z"
       id="path11640-4"
       inkscape:connector-curvature="0"
       sodipodi:nodetypes="ccccc" />
    <path
       inkscape:connector-curvature="0"
       id="path26108"
       style="font-style:normal;font-variant:normal;font-weight:bold;font-stretch:normal;font-size:22.4px;line-height:125%;font-family:Comfortaa;-inkscape-font-specification:'Comfortaa Bold';letter-spacing:0px;word-spacing:0px;fill:#ff0000;fill-opacity:1;stroke:none;stroke-width:2.19008"
       d="m 422.75321,38.216246 -16.35593,29.237282 h 13.98168 c 0.71949,-4.4e-5 1.31504,0.235222 1.78668,0.705796 0.47166,0.470509 0.70749,1.064677 0.70749,1.782482 0,0.701772 -0.23583,1.29594 -0.70749,1.782461 -0.47164,0.486456 -1.06719,0.729705 -1.78668,0.729727 h -18.20257 c -0.35172,-2.2e-5 -0.67948,-0.06781 -0.98328,-0.203437 -0.30375,-0.135625 -0.56755,-0.315043 -0.79142,-0.538321 -0.22381,-0.223344 -0.40367,-0.486522 -0.53959,-0.789556 -0.13595,-0.303077 -0.20392,-0.630065 -0.20392,-0.980939 2e-5,-0.430718 0.11994,-0.877318 0.35973,-1.339842 l 18.41842,-33.041472 c 0.12783,-0.239269 0.28781,-0.454584 0.47964,-0.64599 0.49566,-0.494484 1.0952,-0.741715 1.79869,-0.741715 0.68749,0 1.27506,0.24325 1.76269,0.729749 0.48765,0.486478 0.73147,1.072662 0.73147,1.75853 0,0.51043 -0.15195,1.028802 -0.45568,1.555179 z" />
    <path
       style="fill:none;stroke:#ff0000;stroke-width:2.19008;stroke-opacity:1"
       d="M 427.94008,5.1060868 411.43345,25.754816 394.92703,5.1061087 411.43366,-19.06482 Z"
       id="path11640-0"
       inkscape:connector-curvature="0"
       sodipodi:nodetypes="ccccc" />
    <path
       sodipodi:nodetypes="ccccc"
       inkscape:connector-curvature="0"
       id="path8812"
       d="m 273.78995,-162.62171 19.24749,-24.07734 19.24722,24.07732 -19.24749,28.1844 z"
       style="fill:#ff0000;fill-opacity:1;stroke:none;stroke-width:2.19008" />
    <path
       sodipodi:nodetypes="ccccc"
       inkscape:connector-curvature="0"
       id="path8814"
       d="m 343.95535,-162.62171 19.24749,-24.07734 19.24723,24.07732 -19.24749,28.1844 z"
       style="fill:#ff0000;fill-opacity:1;stroke:none;stroke-width:2.19008" />
    <path
       sodipodi:nodetypes="ccccc"
       inkscape:connector-curvature="0"
       id="path8816"
       d="M 312.0654,22.809395 292.81791,46.886742 273.57068,22.809417 292.81817,-5.3749794 Z"
       style="fill:#ff0000;fill-opacity:1;stroke:none;stroke-width:2.19008" />
    <path
       sodipodi:nodetypes="ccccc"
       inkscape:connector-curvature="0"
       id="path8818"
       d="M 382.2308,22.809395 362.98331,46.886742 343.73609,22.809417 362.98358,-5.3749794 Z"
       style="fill:#ff0000;fill-opacity:1;stroke:none;stroke-width:2.19008" />
    <path
       style="fill:#ff0000;fill-opacity:1;stroke:none;stroke-width:2.19008"
       d="m 273.78995,-65.059317 19.24749,-24.077348 19.24722,24.077326 -19.24749,28.184396 z"
       id="path8826"
       inkscape:connector-curvature="0"
       sodipodi:nodetypes="ccccc" />
    <path
       sodipodi:nodetypes="ccccc"
       inkscape:connector-curvature="0"
       id="path8837"
       d="m 343.95535,-65.059317 19.24749,-24.077348 19.24723,24.077326 -19.24749,28.184396 z"
       style="fill:#ff0000;fill-opacity:1;stroke:none;stroke-width:2.19008" />
    <path
       sodipodi:nodetypes="ccccc"
       inkscape:connector-curvature="0"
       id="path8814-2"
       d="m 308.65336,-113.18426 19.24747,-24.07735 19.24725,24.07733 -19.24769,28.184392 z"
       style="fill:#ff0000;fill-opacity:1;stroke:none;stroke-width:2.19008" />
  </g>
</svg>
