<?xml version="1.0" encoding="UTF-8" standalone="no"?>
<svg
   xmlns:dc="http://purl.org/dc/elements/1.1/"
   xmlns:cc="http://creativecommons.org/ns#"
   xmlns:rdf="http://www.w3.org/1999/02/22-rdf-syntax-ns#"
   xmlns:svg="http://www.w3.org/2000/svg"
   xmlns="http://www.w3.org/2000/svg"
   xmlns:sodipodi="http://sodipodi.sourceforge.net/DTD/sodipodi-0.dtd"
   xmlns:inkscape="http://www.inkscape.org/namespaces/inkscape"
   inkscape:version="1.0 (4035a4fb49, 2020-05-01)"
   sodipodi:docname="7H.svg"
   id="svg992"
   version="1.1"
   width="2.25in"
   viewBox="-106 -164.5 212 329"
   preserveAspectRatio="none"
   height="3.5in"
   face="7H"
   class="card">
  <metadata
     id="metadata998">
    <rdf:RDF>
      <cc:Work
         rdf:about="">
        <dc:format>image/svg+xml</dc:format>
        <dc:type
           rdf:resource="http://purl.org/dc/dcmitype/StillImage" />
      </cc:Work>
    </rdf:RDF>
  </metadata>
  <defs
     id="defs996" />
  <sodipodi:namedview
     inkscape:current-layer="svg992"
     inkscape:window-maximized="1"
     inkscape:window-y="-12"
     inkscape:window-x="-12"
     inkscape:cy="168"
     inkscape:cx="108"
     inkscape:zoom="2.2410714"
     showgrid="false"
     id="namedview994"
     inkscape:window-height="2050"
     inkscape:window-width="3240"
     inkscape:pageshadow="2"
     inkscape:pageopacity="0"
     guidetolerance="10"
     gridtolerance="10"
     objecttolerance="10"
     borderopacity="1"
     bordercolor="#666666"
     pagecolor="#ffffff" />
  <symbol
     preserveAspectRatio="xMinYMid"
     viewBox="-600 -600 1200 1200"
     id="SH7">
    <path
       id="path960"
       fill="red"
       d="M0 -300C0 -400 100 -500 200 -500C300 -500 400 -400 400 -250C400 0 0 400 0 500C0 400 -400 0 -400 -250C-400 -400 -300 -500 -200 -500C-100 -500 0 -400 -0 -300Z" />
  </symbol>
  <symbol
     preserveAspectRatio="xMinYMid"
     viewBox="-500 -500 1000 1000"
     id="VH7">
    <path
       id="path963"
       fill="none"
       stroke-miterlimit="1.5"
       stroke-linecap="square"
       stroke-width="80"
       stroke="red"
       d="M-265 -320L-265 -460L265 -460C135 -200 -90 100 -90 460" />
  </symbol>
  <rect
     id="rect966"
     stroke="black"
     fill="white"
     ry="12"
     rx="12"
     y="-164"
     x="-105.5"
     height="328"
     width="211" />
  <g
     transform="translate(-289.47055,154.01383)"
     id="g1614">
    <path
       inkscape:connector-curvature="0"
       id="path26123"
       style="font-style:normal;font-variant:normal;font-weight:bold;font-stretch:normal;font-size:22.4px;line-height:125%;font-family:Comfortaa;-inkscape-font-specification:'Comfortaa Bold';letter-spacing:0px;word-spacing:0px;fill:#ff0000;fill-opacity:1;stroke:none;stroke-width:2.19008"
       d="m 194.72774,-262.79247 16.35595,-29.23728 h -13.9817 c -0.71946,4e-5 -1.31504,-0.23522 -1.78668,-0.7058 -0.47166,-0.4705 -0.70748,-1.06465 -0.70748,-1.78248 0,-0.70177 0.23582,-1.29594 0.70748,-1.78246 0.47164,-0.48645 1.06722,-0.7297 1.78668,-0.72973 h 18.20259 c 0.3517,3e-5 0.67946,0.0678 0.98326,0.20344 0.30375,0.13563 0.56757,0.31504 0.79142,0.53832 0.22381,0.22335 0.40367,0.48652 0.53959,0.78956 0.13595,0.3031 0.20392,0.63006 0.20392,0.98094 -2e-5,0.43072 -0.11994,0.87732 -0.35973,1.33984 l -18.41842,33.04147 c -0.12783,0.23927 -0.28778,0.45461 -0.47964,0.64599 -0.49563,0.49448 -1.0952,0.74172 -1.79867,0.74172 -0.68749,0 -1.27506,-0.24325 -1.76271,-0.72975 -0.48763,-0.48648 -0.73145,-1.07266 -0.73145,-1.75853 0,-0.51041 0.15195,-1.0288 0.45566,-1.55518 z" />
    <path
       style="fill:#ff0000;fill-opacity:1;stroke:none;stroke-width:2.19008"
       d="m 196.80558,-242.85745 c -1.33527,0.0446 -2.69146,0.38788 -3.98746,1.1879 -5.92467,3.65721 -9.51835,10.63371 -2.9906,18.14993 3.66755,4.22292 13.5596,6.1557 15.4237,12.08612 0.77289,2.62729 0.45364,7.50099 0.7892,7.48649 0.33557,0.0153 0.03,-4.8592 0.80302,-7.48649 1.86415,-5.93042 11.75622,-7.8632 15.42376,-12.08612 6.52771,-7.51622 2.93406,-14.49272 -2.9906,-18.14993 -5.92472,-3.65717 -13.20848,2.26528 -13.20848,2.26528 l -0.0417,0.0551 v -0.0551 c 0,0 -4.4522,-3.61248 -9.22097,-3.45318 z"
       id="path11595-7"
       inkscape:connector-curvature="0"
       sodipodi:nodetypes="csscccssccccc" />
    <path
       inkscape:connector-curvature="0"
       id="path26111"
       style="font-style:normal;font-variant:normal;font-weight:bold;font-stretch:normal;font-size:22.4px;line-height:125%;font-family:Comfortaa;-inkscape-font-specification:'Comfortaa Bold';letter-spacing:0px;word-spacing:0px;fill:#ff0000;fill-opacity:1;stroke:none;stroke-width:2.19008"
       d="m 384.21341,-45.235188 -16.35593,29.23726 h 13.98168 c 0.71949,-2.2e-5 1.31504,0.235244 1.78668,0.705818 0.47166,0.470509 0.70749,1.064655 0.70749,1.782461 0,0.701793 -0.23583,1.295961 -0.70749,1.782482 -0.47164,0.486456 -1.06719,0.729684 -1.78668,0.729727 h -18.20257 c -0.35172,-4.3e-5 -0.67948,-0.06781 -0.98328,-0.203437 -0.30375,-0.135625 -0.56755,-0.315043 -0.79142,-0.538321 -0.22381,-0.223344 -0.40367,-0.486522 -0.53959,-0.789556 -0.13595,-0.303099 -0.20392,-0.630064 -0.20392,-0.980961 2e-5,-0.430696 0.11994,-0.877296 0.35973,-1.339842 l 18.41842,-33.04145 c 0.12783,-0.239268 0.28781,-0.454606 0.47964,-0.64599 0.49566,-0.494484 1.0952,-0.741715 1.79869,-0.741715 0.68749,0 1.27506,0.24325 1.76269,0.72975 0.48765,0.486477 0.73147,1.072661 0.73147,1.758529 0,0.510409 -0.15195,1.028802 -0.45568,1.555179 z" />
    <path
       style="fill:#ff0000;fill-opacity:1;stroke:none;stroke-width:2.19008"
       d="m 382.13553,-65.170334 c 1.33527,-0.04462 2.69145,-0.387887 3.98745,-1.187899 5.92468,-3.657211 9.51836,-10.633709 2.99061,-18.149929 -3.66755,-4.22292 -13.5596,-6.155705 -15.4237,-12.08612 -0.77289,-2.627294 -0.45364,-7.500998 -0.78921,-7.486488 -0.33556,-0.0153 -0.03,4.859194 -0.80302,7.486488 -1.86414,5.930415 -11.75621,7.8632 -15.42376,12.08612 -6.5277,7.51622 -2.93405,14.492718 2.99061,18.149929 5.92472,3.657168 13.20848,-2.265285 13.20848,-2.265285 l 0.0417,-0.05512 v 0.05512 c 0,0 4.45219,3.612478 9.22096,3.453184 z"
       id="path11595-3"
       inkscape:connector-curvature="0"
       sodipodi:nodetypes="csscccssccccc" />
    <path
       style="fill:#ff0000;fill-opacity:1;stroke:none;stroke-width:2.19008"
       d="m 247.3607,-272.32871 c -1.82314,0.061 -3.67483,0.52962 -5.44435,1.62194 -8.08942,4.99345 -12.99613,14.51899 -4.0833,24.78144 5.00757,5.76585 18.51391,8.40482 21.05911,16.50206 1.05529,3.58724 0.61939,10.24167 1.07757,10.22185 0.45816,0.0219 0.041,-6.63461 1.09642,-10.22185 2.54525,-8.09724 16.05161,-10.73621 21.05918,-16.50206 8.91276,-10.26245 4.0061,-19.78799 -4.08327,-24.78144 -8.08948,-4.9934 -18.03453,3.09295 -18.03453,3.09295 l -0.0568,0.0752 v -0.0752 c 0,0 -6.07891,-4.93237 -12.59006,-4.71489 z"
       id="path8804"
       inkscape:connector-curvature="0"
       sodipodi:nodetypes="csscccssccccc" />
    <path
       style="fill:#ff0000;fill-opacity:1;stroke:none;stroke-width:2.19008"
       d="m 306.01459,-272.32871 c -1.82314,0.061 -3.67482,0.52962 -5.44435,1.62194 -8.08942,4.99345 -12.99613,14.51899 -4.0833,24.78144 5.00757,5.76585 18.51391,8.40482 21.05912,16.50206 1.05528,3.58724 0.61938,10.24167 1.07756,10.22185 0.45816,0.0219 0.041,-6.63461 1.09642,-10.22185 2.54525,-8.09724 16.05161,-10.73621 21.05918,-16.50206 8.91277,-10.26245 4.0061,-19.78799 -4.08327,-24.78144 -8.08948,-4.9934 -18.03453,3.09295 -18.03453,3.09295 l -0.0568,0.0752 v -0.0752 c 0,0 -6.07891,-4.93237 -12.59006,-4.71489 z"
       id="path8806"
       inkscape:connector-curvature="0"
       sodipodi:nodetypes="csscccssccccc" />
    <path
       style="fill:#ff0000;fill-opacity:1;stroke:none;stroke-width:2.19008"
       d="m 272.37839,-43.574177 c 1.82314,-0.06103 3.67483,-0.529615 5.44436,-1.621942 8.08941,-4.993445 12.99612,-14.51899 4.08329,-24.781438 -5.00757,-5.765849 -18.51391,-8.404824 -21.05911,-16.502065 -1.05529,-3.587234 -0.61939,-10.241667 -1.07757,-10.221848 -0.45816,-0.02187 -0.041,6.634614 -1.09642,10.221848 -2.54525,8.097241 -16.05161,10.736216 -21.05918,16.502065 -8.91276,10.262448 -4.0061,19.787993 4.08327,24.781438 8.08948,4.9934 18.03453,-3.092947 18.03453,-3.092947 l 0.0568,-0.07525 v 0.07525 c 0,0 6.07891,4.93237 12.59006,4.714889 z"
       id="path8808"
       inkscape:connector-curvature="0"
       sodipodi:nodetypes="csscccssccccc" />
    <path
       style="fill:#ff0000;fill-opacity:1;stroke:none;stroke-width:2.19008"
       d="m 331.03229,-43.574177 c 1.82313,-0.06103 3.67482,-0.529615 5.44435,-1.621942 8.08941,-4.993445 12.99612,-14.51899 4.0833,-24.781438 -5.00758,-5.765849 -18.51394,-8.404824 -21.05914,-16.502065 -1.05529,-3.587234 -0.61939,-10.241667 -1.07757,-10.221848 -0.45815,-0.02187 -0.041,6.634614 -1.09642,10.221848 -2.54525,8.097241 -16.05161,10.736216 -21.05918,16.502065 -8.91276,10.262448 -4.00609,19.787993 4.08328,24.781438 8.08947,4.9934 18.03452,-3.092947 18.03452,-3.092947 l 0.0568,-0.07525 v 0.07525 c 0,0 6.07894,4.93237 12.59009,4.714889 z"
       id="path8810"
       inkscape:connector-curvature="0"
       sodipodi:nodetypes="csscccssccccc" />
    <path
       sodipodi:nodetypes="csscccssccccc"
       inkscape:connector-curvature="0"
       id="path8824"
       d="m 247.3607,-166.67258 c -1.82314,0.061 -3.67483,0.52961 -5.44435,1.62194 -8.08942,4.99345 -12.99613,14.51899 -4.0833,24.78144 5.00757,5.76585 18.51391,8.40482 21.05911,16.50206 1.05529,3.58724 0.61939,10.24167 1.07757,10.22185 0.45816,0.0219 0.041,-6.63461 1.09642,-10.22185 2.54525,-8.09724 16.05161,-10.73621 21.05918,-16.50206 8.91276,-10.26245 4.0061,-19.78799 -4.08327,-24.78144 -8.08948,-4.9934 -18.03453,3.09295 -18.03453,3.09295 l -0.0568,0.0753 v -0.0753 c 0,0 -6.07891,-4.93237 -12.59006,-4.71489 z"
       style="fill:#ff0000;fill-opacity:1;stroke:none;stroke-width:2.19008" />
    <path
       style="fill:#ff0000;fill-opacity:1;stroke:none;stroke-width:2.19008"
       d="m 306.01459,-166.67258 c -1.82314,0.061 -3.67482,0.52961 -5.44435,1.62194 -8.08942,4.99345 -12.99613,14.51899 -4.0833,24.78144 5.00757,5.76585 18.51391,8.40482 21.05912,16.50206 1.05528,3.58724 0.61938,10.24167 1.07756,10.22185 0.45816,0.0219 0.041,-6.63461 1.09642,-10.22185 2.54525,-8.09724 16.05161,-10.73621 21.05918,-16.50206 8.91277,-10.26245 4.0061,-19.78799 -4.08327,-24.78144 -8.08948,-4.9934 -18.03453,3.09295 -18.03453,3.09295 l -0.0568,0.0753 v -0.0753 c 0,0 -6.07891,-4.93237 -12.59006,-4.71489 z"
       id="path8835"
       inkscape:connector-curvature="0"
       sodipodi:nodetypes="csscccssccccc" />
    <path
       style="fill:#ff0000;fill-opacity:1;stroke:none;stroke-width:2.19008"
       d="m 276.96171,-216.98502 c -1.82314,0.061 -3.67483,0.52961 -5.44436,1.62194 -8.08941,4.99344 -12.99612,14.51899 -4.08329,24.78144 5.00757,5.76585 18.51391,8.40482 21.05911,16.50206 1.05529,3.58724 0.61939,10.24167 1.07757,10.22185 0.45815,0.0219 0.041,-6.63461 1.09642,-10.22185 2.54525,-8.09724 16.05161,-10.73621 21.05918,-16.50206 8.91278,-10.26245 4.00609,-19.788 -4.08328,-24.78144 -8.08947,-4.9934 -18.03452,3.09295 -18.03452,3.09295 l -0.0568,0.0752 v -0.0752 c 0,0 -6.07891,-4.93237 -12.59007,-4.71489 z"
       id="path8806-7"
       inkscape:connector-curvature="0"
       sodipodi:nodetypes="csscccssccccc" />
  </g>
</svg>
