<?xml version="1.0" encoding="UTF-8" standalone="no"?>
<svg
   xmlns:dc="http://purl.org/dc/elements/1.1/"
   xmlns:cc="http://creativecommons.org/ns#"
   xmlns:rdf="http://www.w3.org/1999/02/22-rdf-syntax-ns#"
   xmlns:svg="http://www.w3.org/2000/svg"
   xmlns="http://www.w3.org/2000/svg"
   xmlns:sodipodi="http://sodipodi.sourceforge.net/DTD/sodipodi-0.dtd"
   xmlns:inkscape="http://www.inkscape.org/namespaces/inkscape"
   inkscape:version="1.0 (4035a4fb49, 2020-05-01)"
   sodipodi:docname="7S.svg"
   id="svg34"
   version="1.1"
   width="2.25in"
   viewBox="-106 -164.5 212 329"
   preserveAspectRatio="none"
   height="3.5in"
   face="7S"
   class="card">
  <metadata
     id="metadata40">
    <rdf:RDF>
      <cc:Work
         rdf:about="">
        <dc:format>image/svg+xml</dc:format>
        <dc:type
           rdf:resource="http://purl.org/dc/dcmitype/StillImage" />
      </cc:Work>
    </rdf:RDF>
  </metadata>
  <defs
     id="defs38" />
  <sodipodi:namedview
     inkscape:current-layer="svg34"
     inkscape:window-maximized="1"
     inkscape:window-y="-12"
     inkscape:window-x="-12"
     inkscape:cy="168"
     inkscape:cx="108"
     inkscape:zoom="2.2410714"
     showgrid="false"
     id="namedview36"
     inkscape:window-height="2050"
     inkscape:window-width="3240"
     inkscape:pageshadow="2"
     inkscape:pageopacity="0"
     guidetolerance="10"
     gridtolerance="10"
     objecttolerance="10"
     borderopacity="1"
     bordercolor="#666666"
     pagecolor="#ffffff" />
  <symbol
     preserveAspectRatio="xMinYMid"
     viewBox="-600 -600 1200 1200"
     id="SS7">
    <path
       id="path2"
       fill="black"
       d="M0 -500C100 -250 355 -100 355 185A150 150 0 0 1 55 185A10 10 0 0 0 35 185C35 385 85 400 130 500L-130 500C-85 400 -35 385 -35 185A10 10 0 0 0 -55 185A150 150 0 0 1 -355 185C-355 -100 -100 -250 0 -500Z" />
  </symbol>
  <symbol
     preserveAspectRatio="xMinYMid"
     viewBox="-500 -500 1000 1000"
     id="VS7">
    <path
       id="path5"
       fill="none"
       stroke-miterlimit="1.5"
       stroke-linecap="square"
       stroke-width="80"
       stroke="black"
       d="M-265 -320L-265 -460L265 -460C135 -200 -90 100 -90 460" />
  </symbol>
  <rect
     id="rect8"
     stroke="black"
     fill="white"
     ry="12"
     rx="12"
     y="-164"
     x="-105.5"
     height="328"
     width="211" />
  <g
     transform="translate(-305.67475,37.7935)"
     id="g922">
    <path
       inkscape:connector-curvature="0"
       id="path26117"
       style="font-style:normal;font-variant:normal;font-weight:bold;font-stretch:normal;font-size:22.4px;line-height:125%;font-family:Comfortaa;-inkscape-font-specification:'Comfortaa Bold';letter-spacing:0px;word-spacing:0px;fill:#000000;fill-opacity:1;stroke:none;stroke-width:2.19008"
       d="m 210.93194,-146.57215 16.35595,-29.23726 h -13.9817 c -0.71946,5e-5 -1.31504,-0.23524 -1.78668,-0.70582 -0.47166,-0.47048 -0.70748,-1.06465 -0.70748,-1.78246 0,-0.70179 0.23582,-1.29594 0.70748,-1.78246 0.47164,-0.48645 1.06722,-0.7297 1.78668,-0.72975 h 18.20259 c 0.3517,5e-5 0.67946,0.0678 0.98326,0.20344 0.30375,0.13563 0.56757,0.31507 0.79142,0.53832 0.22381,0.22337 0.40367,0.48655 0.53959,0.78956 0.13595,0.3031 0.20392,0.63008 0.20392,0.98096 -2e-5,0.4307 -0.11994,0.87732 -0.35973,1.33984 l -18.41842,33.04147 c -0.12783,0.23925 -0.28778,0.45459 -0.47964,0.64599 -0.49563,0.49446 -1.0952,0.7417 -1.79867,0.7417 -0.68749,0 -1.27506,-0.24325 -1.76271,-0.72973 -0.48763,-0.4865 -0.73145,-1.07268 -0.73145,-1.75855 0,-0.51041 0.15195,-1.0288 0.45566,-1.55518 z" />
    <path
       inkscape:connector-curvature="0"
       style="fill:#000000;fill-opacity:1;stroke:none;stroke-width:2.19008"
       d="m 222.25171,-139.76706 c -0.33568,-0.0219 -0.025,4.86889 -0.79752,7.49657 -1.86454,5.93151 -11.75012,7.8697 -15.41846,12.09354 -6.529,7.51758 -2.94846,14.48233 2.97734,18.14026 5.62668,3.473309 12.41939,-1.62667 13.09686,-2.15702 -0.009,0.13737 -0.0239,0.27044 -0.0355,0.40665 -0.002,0.03 -0.0154,0.0586 -0.0175,0.0884 -0.83874,5.300762 -7.50017,7.488565 -10.31442,8.186114 h -1.29374 v 0.282888 h 1.86085 9.7296 0.0175 0.38988 0.0175 9.72959 1.86086 v -0.282888 h -1.29374 c -2.8141,-0.697549 -9.47573,-2.885352 -10.31445,-8.186114 -0.004,-0.0298 -0.0154,-0.0584 -0.0175,-0.0884 -0.011,-0.14197 -0.0263,-0.28057 -0.0355,-0.42435 0.33195,0.26326 4.52819,3.52996 9.10933,3.37701 1.33571,-0.0438 2.6913,-0.40215 3.98752,-1.20229 5.92582,-3.65793 9.50634,-10.62268 2.97736,-18.14026 -3.66835,-4.22384 -13.55391,-6.16203 -15.41847,-12.09354 -0.77287,-2.62768 -0.46182,-7.51101 -0.7975,-7.49657 z"
       id="path26464-6" />
    <path
       inkscape:connector-curvature="0"
       id="path26105"
       style="font-style:normal;font-variant:normal;font-weight:bold;font-stretch:normal;font-size:22.4px;line-height:125%;font-family:Comfortaa;-inkscape-font-specification:'Comfortaa Bold';letter-spacing:0px;word-spacing:0px;fill:#000000;fill-opacity:1;stroke:none;stroke-width:2.19008"
       d="m 400.41761,70.985154 -16.35593,29.237256 h 13.98168 c 0.71949,-4e-5 1.31504,0.23525 1.78668,0.70582 0.47166,0.47049 0.70749,1.06466 0.70749,1.78246 0,0.7018 -0.23583,1.29594 -0.70749,1.78246 -0.47164,0.48646 -1.06719,0.72971 -1.78668,0.72975 h -18.20257 c -0.35172,-4e-5 -0.67948,-0.0678 -0.98328,-0.20344 -0.30375,-0.13562 -0.56755,-0.31506 -0.79142,-0.53832 -0.22381,-0.22336 -0.40367,-0.48654 -0.53959,-0.78955 -0.13595,-0.3031 -0.20392,-0.63009 -0.20392,-0.98096 2e-5,-0.4307 0.11994,-0.87732 0.35973,-1.33985 l 18.41842,-33.041467 c 0.12783,-0.239247 0.28781,-0.454584 0.47964,-0.64599 0.49566,-0.494462 1.0952,-0.741693 1.79869,-0.741693 0.68749,0 1.27506,0.24325 1.76269,0.729727 0.48765,0.4865 0.73147,1.072683 0.73147,1.758551 0,0.510409 -0.15195,1.028802 -0.45568,1.55518 z" />
    <path
       inkscape:connector-curvature="0"
       style="fill:#000000;fill-opacity:1;stroke:none;stroke-width:2.19008"
       d="m 389.0978,64.180068 c 0.33568,0.02187 0.025,-4.868889 0.79752,-7.496576 1.86454,-5.931509 11.75012,-7.869697 15.41845,-12.093536 6.529,-7.517576 2.94846,-14.482328 -2.97733,-18.140261 -5.62668,-3.473308 -12.41939,1.626667 -13.09686,2.157026 0.009,-0.137375 0.0239,-0.270441 0.0355,-0.406656 0.002,-0.02997 0.0154,-0.05862 0.0175,-0.08837 0.83874,-5.300766 7.50018,-7.48857 10.31443,-8.186119 h 1.29374 v -0.282887 h -1.86086 -9.72959 -0.0175 -0.38988 -0.0175 -9.7296 -1.86085 v 0.282887 h 1.29374 c 2.81409,0.697549 9.47573,2.885353 10.31445,8.186119 0.004,0.02975 0.0154,0.05841 0.0175,0.08837 0.011,0.141969 0.0263,0.280568 0.0355,0.424353 -0.33195,-0.263266 -4.52819,-3.529965 -9.10933,-3.377015 -1.33571,0.04375 -2.69131,0.402149 -3.98753,1.202292 -5.92582,3.657933 -9.50633,10.622685 -2.97736,18.140261 3.66836,4.223839 13.55392,6.162027 15.41848,12.093536 0.77287,2.627687 0.46182,7.511013 0.7975,7.496576 z"
       id="path26464-1" />
    <path
       inkscape:connector-curvature="0"
       style="fill:#000000;fill-opacity:1;stroke:none;stroke-width:2.19008"
       d="m 272.23684,-154.73289 c -0.39183,-0.0256 -0.0285,5.68152 -0.93057,8.74778 -2.17557,6.9215 -13.7112,9.18318 -17.99195,14.11198 -7.61864,8.77228 -3.44051,16.89947 3.47451,21.16793 6.56573,4.05302 14.492,-1.89817 15.28268,-2.51704 0,0.16034 -0.0285,0.31557 -0.0417,0.47453 0,0.035 -0.0263,0.0685 -0.0263,0.10304 -0.97859,6.18547 -8.75204,8.73844 -12.036,9.5524 h -1.50965 v 0.3301 h 2.17162 11.35342 0.0263 0.45476 0.0263 11.35342 2.17162 v -0.3301 h -1.50965 c -3.28374,-0.81396 -11.05741,-3.36693 -12.036,-9.5524 0,-0.0348 -0.0263,-0.0682 -0.0263,-0.10304 0,-0.16559 -0.0307,-0.3274 -0.0417,-0.49518 0.38744,0.30721 5.28411,4.11912 10.62984,3.94065 1.55855,-0.051 3.14056,-0.46927 4.65284,-1.40296 6.91502,-4.26846 11.09293,-12.39565 3.4745,-21.16793 -4.28074,-4.9288 -15.81616,-7.19048 -17.99194,-14.11198 -0.90185,-3.06626 -0.53874,-8.76463 -0.93057,-8.74778 z"
       id="path8780" />
    <path
       inkscape:connector-curvature="0"
       style="fill:#000000;fill-opacity:1;stroke:none;stroke-width:2.19008"
       d="m 339.11324,-154.73289 c -0.39183,-0.0256 -0.0285,5.68152 -0.93057,8.74778 -2.17557,6.9215 -13.7112,9.18318 -17.99194,14.11198 -7.61865,8.77228 -3.44052,16.89947 3.4745,21.16793 6.56573,4.05302 14.49201,-1.89817 15.28268,-2.51704 0,0.16034 -0.0285,0.31557 -0.0417,0.47453 0,0.035 -0.0263,0.0685 -0.0263,0.10304 -0.97859,6.18547 -8.75204,8.73844 -12.036,9.5524 h -1.50965 v 0.3301 h 2.17162 11.35342 0.0263 0.45476 0.0263 11.35342 2.17162 v -0.3301 h -1.50965 c -3.28374,-0.81396 -11.05741,-3.36693 -12.036,-9.5524 0,-0.0348 -0.0263,-0.0682 -0.0263,-0.10304 0,-0.16559 -0.0307,-0.3274 -0.0417,-0.49518 0.38744,0.30721 5.28411,4.11912 10.62984,3.94065 1.55855,-0.051 3.14056,-0.46927 4.65284,-1.40296 6.91502,-4.26846 11.09293,-12.39565 3.4745,-21.16793 -4.28074,-4.9288 -15.81616,-7.19048 -17.99194,-14.11198 -0.90185,-3.06626 -0.53874,-8.76463 -0.93057,-8.74778 z"
       id="path8782" />
    <path
       inkscape:connector-curvature="0"
       style="fill:#000000;fill-opacity:1;stroke:none;stroke-width:2.19008"
       d="m 272.23631,84.177142 c 0.39183,0.02559 0.0285,-5.681522 0.93057,-8.747781 2.17557,-6.921505 13.7112,-9.18318 17.99194,-14.111984 7.61865,-8.77228 3.44052,-16.899468 -3.4745,-21.167932 -6.56573,-4.053017 -14.492,1.898179 -15.28268,2.517044 0,-0.160344 0.0285,-0.315568 0.0417,-0.474534 0,-0.035 0.0263,-0.06847 0.0263,-0.103031 0.97859,-6.185477 8.75204,-8.73844 12.036,-9.552408 h 1.50965 v -0.330093 h -2.17162 -11.35342 -0.0263 -0.45476 -0.0263 -11.35342 -2.17162 v 0.330093 h 1.50965 c 3.28374,0.813968 11.05741,3.366931 12.036,9.552408 0,0.03478 0.0263,0.06825 0.0263,0.103031 0,0.165594 0.0307,0.327403 0.0417,0.495184 -0.38744,-0.307212 -5.28411,-4.119123 -10.62984,-3.940645 -1.55855,0.05097 -3.14056,0.469261 -4.65284,1.402951 -6.91502,4.268464 -11.09293,12.395652 -3.4745,21.167932 4.28074,4.928804 15.81616,7.190479 17.99194,14.111984 0.90185,3.066259 0.53874,8.764624 0.93057,8.747781 z"
       id="path8784" />
    <path
       inkscape:connector-curvature="0"
       style="fill:#000000;fill-opacity:1;stroke:none;stroke-width:2.19008"
       d="m 339.11271,84.177142 c 0.39183,0.02559 0.0285,-5.681522 0.93057,-8.747781 2.17557,-6.921505 13.7112,-9.18318 17.99195,-14.111984 7.61864,-8.77228 3.44051,-16.899468 -3.47451,-21.167932 -6.56572,-4.053017 -14.492,1.898179 -15.28268,2.517044 0,-0.160344 0.0285,-0.315568 0.0417,-0.474534 0,-0.035 0.0263,-0.06847 0.0263,-0.103031 0.97859,-6.185477 8.75204,-8.73844 12.036,-9.552408 h 1.50965 v -0.330093 h -2.17162 -11.35342 -0.0263 -0.45476 -0.0263 -11.35342 -2.17162 v 0.330093 h 1.50965 c 3.28374,0.813968 11.05741,3.366931 12.036,9.552408 0,0.03478 0.0263,0.06825 0.0263,0.103031 0,0.165594 0.0307,0.327403 0.0417,0.495184 -0.38744,-0.307212 -5.28411,-4.119123 -10.62984,-3.940645 -1.55854,0.05097 -3.14055,0.469261 -4.65284,1.402951 -6.91502,4.268464 -11.09293,12.395652 -3.4745,21.167932 4.28075,4.928804 15.81616,7.190479 17.99194,14.111984 0.90185,3.066259 0.53874,8.764624 0.93057,8.747781 z"
       id="path8786" />
    <path
       id="path8822"
       d="m 272.23684,-53.233008 c -0.39183,-0.02559 -0.0285,5.681522 -0.93057,8.747781 -2.17557,6.921505 -13.7112,9.18318 -17.99195,14.111984 -7.61864,8.77228 -3.44051,16.899468 3.47451,21.167932 6.56573,4.0530172 14.492,-1.898179 15.28268,-2.517044 0,0.160344 -0.0285,0.315568 -0.0417,0.474534 0,0.035 -0.0263,0.06847 -0.0263,0.103031 -0.97859,6.1854772 -8.75204,8.7384399 -12.036,9.5524078 h -1.50965 v 0.3300933 h 2.17162 11.35342 0.0263 0.45476 0.0263 11.35342 2.17162 v -0.3300933 h -1.50965 c -3.28374,-0.8139679 -11.05741,-3.3669306 -12.036,-9.5524078 0,-0.03478 -0.0263,-0.06825 -0.0263,-0.103031 0,-0.165594 -0.0307,-0.327403 -0.0417,-0.495184 0.38744,0.307212 5.28411,4.1191234 10.62984,3.9406455 1.55855,-0.050969 3.14056,-0.469262 4.65284,-1.4029515 6.91502,-4.268464 11.09293,-12.395652 3.4745,-21.167932 -4.28074,-4.928804 -15.81616,-7.190479 -17.99194,-14.111984 -0.90185,-3.066259 -0.53874,-8.764624 -0.93057,-8.747781 z"
       style="fill:#000000;fill-opacity:1;stroke:none;stroke-width:2.19008"
       inkscape:connector-curvature="0" />
    <path
       id="path8829"
       d="m 272.23684,-154.73289 c -0.39183,-0.0256 -0.0285,5.68152 -0.93057,8.74778 -2.17557,6.9215 -13.7112,9.18318 -17.99195,14.11198 -7.61864,8.77228 -3.44051,16.89947 3.47451,21.16793 6.56573,4.05302 14.492,-1.89817 15.28268,-2.51704 0,0.16034 -0.0285,0.31557 -0.0417,0.47453 0,0.035 -0.0263,0.0685 -0.0263,0.10304 -0.97859,6.18547 -8.75204,8.73844 -12.036,9.5524 h -1.50965 v 0.3301 h 2.17162 11.35342 0.0263 0.45476 0.0263 11.35342 2.17162 v -0.3301 h -1.50965 c -3.28374,-0.81396 -11.05741,-3.36693 -12.036,-9.5524 0,-0.0348 -0.0263,-0.0682 -0.0263,-0.10304 0,-0.16559 -0.0307,-0.3274 -0.0417,-0.49518 0.38744,0.30721 5.28411,4.11912 10.62984,3.94065 1.55855,-0.051 3.14056,-0.46927 4.65284,-1.40296 6.91502,-4.26846 11.09293,-12.39565 3.4745,-21.16793 -4.28074,-4.9288 -15.81616,-7.19048 -17.99194,-14.11198 -0.90185,-3.06626 -0.53874,-8.76463 -0.93057,-8.74778 z"
       style="fill:#000000;fill-opacity:1;stroke:none;stroke-width:2.19008"
       inkscape:connector-curvature="0" />
    <path
       inkscape:connector-curvature="0"
       style="fill:#000000;fill-opacity:1;stroke:none;stroke-width:2.19008"
       d="m 339.11324,-53.233008 c -0.39183,-0.02559 -0.0285,5.681522 -0.93057,8.747781 -2.17557,6.921505 -13.7112,9.18318 -17.99194,14.111984 -7.61865,8.77228 -3.44052,16.899468 3.4745,21.167932 6.56573,4.0530172 14.49201,-1.898179 15.28268,-2.517044 0,0.160344 -0.0285,0.315568 -0.0417,0.474534 0,0.035 -0.0263,0.06847 -0.0263,0.103031 -0.97859,6.1854772 -8.75204,8.7384399 -12.036,9.5524078 h -1.50965 v 0.3300933 h 2.17162 11.35342 0.0263 0.45476 0.0263 11.35342 2.17162 v -0.3300933 h -1.50965 c -3.28374,-0.8139679 -11.05741,-3.3669306 -12.036,-9.5524078 0,-0.03478 -0.0263,-0.06825 -0.0263,-0.103031 0,-0.165594 -0.0307,-0.327403 -0.0417,-0.495184 0.38744,0.307212 5.28411,4.1191234 10.62984,3.9406455 1.55855,-0.050969 3.14056,-0.469262 4.65284,-1.4029515 6.91502,-4.268464 11.09293,-12.395652 3.4745,-21.167932 -4.28074,-4.928804 -15.81616,-7.190479 -17.99194,-14.111984 -0.90185,-3.066259 -0.53874,-8.764624 -0.93057,-8.747781 z"
       id="path8833" />
    <path
       id="path8829-9"
       d="m 305.67502,-100.2642 c -0.39183,-0.0256 -0.0285,5.681518 -0.93057,8.747777 -2.17557,6.921504 -13.7112,9.18318 -17.99195,14.111984 -7.61864,8.77228 -3.44051,16.899468 3.47451,21.167932 6.56572,4.053017 14.492,-1.898179 15.28268,-2.517044 0,0.160343 -0.0285,0.315568 -0.0417,0.474534 0,0.035 -0.0263,0.06847 -0.0263,0.103031 -0.97859,6.185477 -8.75204,8.73844 -12.036,9.552408 h -1.50965 v 0.330093 h 2.17162 11.35342 0.0263 0.45476 0.0263 11.35342 2.17162 v -0.330093 h -1.50965 c -3.28374,-0.813968 -11.05741,-3.366931 -12.036,-9.552408 0,-0.03478 -0.0263,-0.06825 -0.0263,-0.103031 0,-0.165594 -0.0307,-0.327403 -0.0417,-0.495184 0.38744,0.307212 5.28411,4.119123 10.62983,3.940645 1.55855,-0.05097 3.14056,-0.469262 4.65285,-1.402951 6.91502,-4.268464 11.09293,-12.395652 3.4745,-21.167932 -4.28075,-4.928804 -15.81616,-7.19048 -17.99194,-14.111984 -0.90185,-3.066259 -0.53874,-8.764627 -0.93057,-8.747777 z"
       style="fill:#000000;fill-opacity:1;stroke:none;stroke-width:2.19008"
       inkscape:connector-curvature="0" />
  </g>
</svg>
