<?xml version="1.0" encoding="UTF-8" standalone="no"?>
<svg
   xmlns:dc="http://purl.org/dc/elements/1.1/"
   xmlns:cc="http://creativecommons.org/ns#"
   xmlns:rdf="http://www.w3.org/1999/02/22-rdf-syntax-ns#"
   xmlns:svg="http://www.w3.org/2000/svg"
   xmlns="http://www.w3.org/2000/svg"
   xmlns:sodipodi="http://sodipodi.sourceforge.net/DTD/sodipodi-0.dtd"
   xmlns:inkscape="http://www.inkscape.org/namespaces/inkscape"
   inkscape:version="1.0 (4035a4fb49, 2020-05-01)"
   sodipodi:docname="8C.svg"
   id="svg36"
   version="1.1"
   width="2.25in"
   viewBox="-106 -164.5 212 329"
   preserveAspectRatio="none"
   height="3.5in"
   face="8C"
   class="card">
  <metadata
     id="metadata42">
    <rdf:RDF>
      <cc:Work
         rdf:about="">
        <dc:format>image/svg+xml</dc:format>
        <dc:type
           rdf:resource="http://purl.org/dc/dcmitype/StillImage" />
      </cc:Work>
    </rdf:RDF>
  </metadata>
  <defs
     id="defs40" />
  <sodipodi:namedview
     inkscape:current-layer="svg36"
     inkscape:window-maximized="1"
     inkscape:window-y="-12"
     inkscape:window-x="-12"
     inkscape:cy="168"
     inkscape:cx="108"
     inkscape:zoom="2.2410714"
     showgrid="false"
     id="namedview38"
     inkscape:window-height="2050"
     inkscape:window-width="3240"
     inkscape:pageshadow="2"
     inkscape:pageopacity="0"
     guidetolerance="10"
     gridtolerance="10"
     objecttolerance="10"
     borderopacity="1"
     bordercolor="#666666"
     pagecolor="#ffffff" />
  <symbol
     preserveAspectRatio="xMinYMid"
     viewBox="-600 -600 1200 1200"
     id="SC8">
    <path
       id="path2"
       fill="black"
       d="M30 150C35 385 85 400 130 500L-130 500C-85 400 -35 385 -30 150A10 10 0 0 0 -50 150A210 210 0 1 1 -124 -51A10 10 0 0 0 -110 -65A230 230 0 1 1 110 -65A10 10 0 0 0 124 -51A210 210 0 1 1 50 150A10 10 0 0 0 30 150Z" />
  </symbol>
  <symbol
     preserveAspectRatio="xMinYMid"
     viewBox="-500 -500 1000 1000"
     id="VC8">
    <path
       id="path5"
       fill="none"
       stroke-miterlimit="1.5"
       stroke-linecap="square"
       stroke-width="80"
       stroke="black"
       d="M-1 -50A205 205 0 1 1 1 -50L-1 -50A255 255 0 1 0 1 -50Z" />
  </symbol>
  <rect
     id="rect8"
     stroke="black"
     fill="white"
     ry="12"
     rx="12"
     y="-164"
     x="-105.5"
     height="328"
     width="211" />
  <g
     transform="translate(-291.23794,97.869852)"
     id="g924">
    <path
       inkscape:connector-curvature="0"
       id="path26102"
       style="font-style:normal;font-variant:normal;font-weight:bold;font-stretch:normal;font-size:22.4px;line-height:125%;font-family:Comfortaa;-inkscape-font-specification:'Comfortaa Bold';letter-spacing:0px;word-spacing:0px;fill:#000000;fill-opacity:1;stroke:none;stroke-width:2.19008"
       d="m 207.81478,-235.76613 c -0.67152,2e-5 -1.30306,0.12775 -1.89462,0.38281 -0.59156,0.25524 -1.10718,0.60216 -1.54684,1.04077 -0.43969,0.43868 -0.78743,0.95307 -1.04325,1.54322 -0.25581,0.59018 -0.38371,1.22025 -0.38371,1.89013 0,0.65399 0.12388,1.27607 0.37174,1.86621 0.2478,0.59019 0.59154,1.1046 1.03124,1.54322 0.43965,0.43866 0.95528,0.78159 1.54686,1.0288 0.59154,0.24725 1.23107,0.37087 1.91858,0.37085 0.63952,2e-5 1.25507,-0.12753 1.84663,-0.38282 0.59156,-0.25519 1.10716,-0.6021 1.54686,-1.04076 0.43967,-0.43862 0.7914,-0.94903 1.05522,-1.53125 0.2638,-0.58218 0.39569,-1.20026 0.39571,-1.85425 -2e-5,-0.66988 -0.132,-1.29995 -0.39571,-1.89013 -0.26382,-0.59015 -0.61956,-1.10454 -1.06722,-1.54322 -0.44767,-0.43861 -0.9633,-0.78553 -1.54684,-1.04077 -0.5836,-0.25517 -1.19513,-0.38279 -1.83465,-0.38281 z m 0,14.73827 c -0.94333,2e-5 -1.81868,0.17543 -2.62607,0.52635 -0.8074,0.35094 -1.5109,0.82548 -2.11044,1.4236 -0.59957,0.59815 -1.07522,1.30397 -1.42695,2.11741 -0.35174,0.81351 -0.52762,1.6828 -0.52762,2.60792 0,0.9411 0.17585,1.81437 0.52762,2.61988 0.35173,0.8055 0.82738,1.50731 1.42695,2.10546 0.59954,0.59815 1.30304,1.07268 2.11044,1.42358 0.80739,0.35092 1.68274,0.52638 2.62607,0.52636 0.92731,2e-5 1.79865,-0.17938 2.61406,-0.53832 0.81539,-0.35889 1.52287,-0.84138 2.12244,-1.44752 0.59954,-0.60611 1.07519,-1.3119 1.42694,-2.11743 0.35173,-0.80548 0.5276,-1.66282 0.52762,-2.57201 -2e-5,-0.90917 -0.17585,-1.76649 -0.52762,-2.57202 -0.35175,-0.80548 -0.8274,-1.5113 -1.42694,-2.11743 -0.59957,-0.60609 -1.30705,-1.08861 -2.12244,-1.44751 -0.81541,-0.35886 -1.68675,-0.5383 -2.61406,-0.53832 z m -6.95488,-2.82325 c -1.98254,-1.97783 -2.97381,-4.33053 -2.97381,-7.05809 0,-1.37172 0.2638,-2.6637 0.79143,-3.87597 0.5276,-1.2122 1.24306,-2.26493 2.14642,-3.1582 0.90332,-0.89319 1.95455,-1.59901 3.15367,-2.11743 1.19911,-0.51835 2.47816,-0.77754 3.83717,-0.77759 1.35898,5e-5 2.63803,0.26322 3.83717,0.78956 1.19909,0.5264 2.25032,1.24018 3.15368,2.14134 0.90331,0.90125 1.61479,1.95398 2.13443,3.1582 0.51957,1.2043 0.77938,2.48432 0.7794,3.84009 -2e-5,2.71162 -0.99128,5.06431 -2.9738,7.05809 3.2296,2.53616 4.84446,5.70232 4.84446,9.49853 0,1.611 -0.3118,3.1263 -0.93533,4.5459 -0.62357,1.4196 -1.46694,2.66374 -2.53014,3.73242 -1.06325,1.06868 -2.31031,1.91406 -3.74124,2.53612 -1.43096,0.62208 -2.95384,0.9331 -4.56863,0.9331 -1.63082,0 -3.15768,-0.30704 -4.58064,-0.92114 -1.42295,-0.61409 -2.67003,-1.45547 -3.74124,-2.52417 -1.0712,-1.06868 -1.91457,-2.3128 -2.53012,-3.73242 -0.61554,-1.41958 -0.92333,-2.94284 -0.92333,-4.56981 0,-3.81216 1.60683,-6.97832 4.82045,-9.49853 z" />
    <path
       style="fill:none;stroke:#000000;stroke-width:2.49172;stroke-opacity:1"
       d="m 207.81474,-191.09353 c -6.29954,0 -11.39616,5.10216 -11.39616,11.38706 0,2.46684 0.77211,4.74888 2.109,6.61296 -4.3911,0.52344 -7.79831,4.09473 -7.79831,8.45189 0,4.71723 3.98346,8.5403 8.89721,8.5403 3.19617,0 5.98147,-1.61986 7.55037,-4.04912 -0.28364,5.58658 -1.49779,11.02916 -5.93755,11.70532 -0.0974,0.0153 -0.19953,0.0431 -0.30112,0.0529 h -0.585 v 0.28291 h 7.46156 7.46178 v -0.28291 h -0.58498 c -0.10218,-0.0109 -0.20216,-0.0378 -0.30136,-0.0529 -4.43502,-0.67546 -5.65217,-6.10714 -5.93731,-11.68765 1.57039,2.42222 4.35969,4.03145 7.55035,4.03145 4.91375,0 8.89723,-3.82307 8.89723,-8.5403 0,-4.36259 -3.39947,-7.95315 -7.79857,-8.46955 1.33191,-1.86197 2.12695,-4.13356 2.12695,-6.5953 0,-6.2849 -5.11431,-11.38706 -11.41409,-11.38706 z"
       id="path11542-7"
       inkscape:connector-curvature="0" />
    <path
       inkscape:connector-curvature="0"
       id="path26090"
       style="font-style:normal;font-variant:normal;font-weight:bold;font-stretch:normal;font-size:22.4px;line-height:125%;font-family:Comfortaa;-inkscape-font-specification:'Comfortaa Bold';letter-spacing:0px;word-spacing:0px;fill:#000000;fill-opacity:1;stroke:none;stroke-width:2.19008"
       d="m 374.66112,40.026426 c 0.67162,-2.2e-5 1.3031,-0.127531 1.89469,-0.382812 0.59158,-0.255237 1.10729,-0.602152 1.54692,-1.040768 0.43964,-0.438658 0.78739,-0.95307 1.04306,-1.543213 0.25588,-0.590187 0.38393,-1.22023 0.38371,-1.89013 2.2e-4,-0.653996 -0.12498,-1.276054 -0.37165,-1.866197 -0.24777,-0.590209 -0.59158,-1.104599 -1.03122,-1.543214 -0.43963,-0.438659 -0.95534,-0.781593 -1.54692,-1.028802 -0.59158,-0.247275 -1.23097,-0.37089 -1.91859,-0.370869 -0.63938,-2.1e-5 -1.25508,0.127532 -1.84666,0.382813 -0.59137,0.255193 -1.10708,0.602108 -1.54671,1.040789 -0.43963,0.438615 -0.79134,0.949024 -1.05533,1.531248 -0.26378,0.582159 -0.39556,1.200236 -0.39556,1.854232 0,0.6699 0.13156,1.299943 0.39556,1.89013 0.26399,0.590143 0.61964,1.104555 1.06717,1.543213 0.44774,0.438616 0.96346,0.785531 1.54693,1.040768 0.58368,0.255193 1.19522,0.38279 1.8346,0.382812 z m 0,-14.738264 c 0.94329,0 1.81882,-0.175438 2.62616,-0.526356 0.80734,-0.350918 1.51097,-0.825452 2.11045,-1.42358 0.59947,-0.598171 1.07528,-1.303967 1.42698,-2.117432 0.35171,-0.813486 0.52756,-1.682798 0.52756,-2.607912 0,-0.941084 -0.17541,-1.814376 -0.52756,-2.619857 -0.3517,-0.805524 -0.82751,-1.507339 -1.42698,-2.105466 -0.59948,-0.598149 -1.30311,-1.072683 -2.11045,-1.423601 -0.80734,-0.350897 -1.68287,-0.526356 -2.62616,-0.526356 -0.92728,0 -1.79864,0.179375 -2.6141,0.538321 -0.81523,0.358881 -1.52281,0.841399 -2.12228,1.447511 -0.59948,0.606112 -1.07529,1.31193 -1.42699,2.117432 -0.35171,0.805502 -0.52756,1.662826 -0.52756,2.572016 0,0.909167 0.17542,1.766513 0.52756,2.572016 0.3517,0.805502 0.82751,1.511298 1.42699,2.117432 0.59947,0.606111 1.30705,1.088608 2.12228,1.44751 0.81546,0.358881 1.68682,0.538322 2.6141,0.538322 z m 6.95493,2.82325 c 1.98261,1.977847 2.97392,4.330545 2.97392,7.058091 0,1.371715 -0.264,2.663716 -0.79156,3.875984 -0.52755,1.212201 -1.24302,2.264934 -2.1464,3.158199 -0.90338,0.893177 -1.95455,1.598995 -3.15372,2.117432 -1.19895,0.518349 -2.47815,0.777546 -3.83717,0.777568 -1.3588,-2.2e-5 -2.638,-0.263222 -3.83717,-0.789534 -1.19895,-0.526399 -2.25033,-1.240201 -3.1535,-2.141363 -0.90337,-0.901227 -1.6149,-1.95396 -2.13456,-3.158199 -0.51966,-1.204283 -0.77927,-2.484319 -0.77949,-3.840087 2.2e-4,-2.7116 0.9913,-5.064297 2.97391,-7.058091 -3.22958,-2.536141 -4.84448,-5.702325 -4.84448,-9.49853 0,-1.611005 0.3118,-3.126306 0.93539,-4.545883 0.6236,-1.419598 1.4669,-2.663737 2.53013,-3.732417 1.06322,-1.0687021 2.31019,-1.9140605 3.74113,-2.536141 1.43115,-0.6220587 2.95396,-0.9330989 4.56864,-0.9330989 1.63091,0 3.15766,0.3070371 4.58071,0.9211333 1.42304,0.6140962 2.67001,1.4554952 3.74113,2.5241756 1.07134,1.06868 1.91464,2.312819 2.53034,3.732417 0.61548,1.419577 0.92311,2.942862 0.92311,4.569814 0,3.812152 -1.60679,6.978336 -4.82036,9.49853 z" />
    <path
       style="fill:none;stroke:#000000;stroke-width:2.49172;stroke-opacity:1"
       d="m 374.66112,-4.6461667 c 6.29954,0 11.39618,-5.1021629 11.39618,-11.3870623 0,-2.466862 -0.77204,-4.748904 -2.10891,-6.61298 4.39104,-0.523424 7.79823,-4.094711 7.79823,-8.451877 0,-4.717251 -3.98342,-8.540319 -8.8972,-8.540319 -3.19603,0 -5.98138,1.619886 -7.55023,4.049146 0.28351,-5.586585 1.49781,-11.029188 5.93753,-11.705343 0.0965,-0.01531 0.19953,-0.04309 0.30105,-0.05294 h 0.585 v -0.282887 h -7.46165 -7.46165 v 0.282887 h 0.585 c 0.10306,0.01094 0.20173,0.03784 0.30128,0.05294 4.43511,0.675477 5.65226,6.107165 5.93731,11.687668 -1.57039,-2.422216 -4.35969,-4.031471 -7.55024,-4.031471 -4.91377,0 -8.89741,3.823068 -8.89741,8.540319 0,4.362591 3.39951,7.953128 7.79866,8.469552 -1.33182,1.861955 -2.12689,4.133539 -2.12689,6.595305 0,6.2848994 5.11418,11.3870623 11.41394,11.3870623 z"
       id="path11542-2"
       inkscape:connector-curvature="0" />
    <path
       style="fill:#000000;fill-opacity:1;stroke:none;stroke-width:2.19008"
       d="m 256.35565,-215.88538 c -7.5819,0 -13.71598,6.14076 -13.71598,13.70504 0,2.969 0.92928,5.71558 2.53832,7.95912 -5.28499,0.63 -9.38578,4.92826 -9.38578,10.17237 0,5.67749 4.79438,10.27879 10.70838,10.27879 3.84677,0 7.19906,-1.94961 9.08732,-4.87338 -0.34138,6.7238 -1.8027,13.27431 -7.14622,14.0881 -0.11709,0.0175 -0.2402,0.0518 -0.3624,0.0639 h -0.70409 v 0.34049 h 8.98045 8.98073 v -0.34049 h -0.70409 c -0.123,-0.0109 -0.24318,-0.0455 -0.36268,-0.0639 -5.33784,-0.81296 -6.80274,-7.35034 -7.14593,-14.06683 1.89008,2.91527 5.24714,4.85211 9.08734,4.85211 5.914,0 10.70836,-4.6013 10.70836,-10.27879 0,-5.25065 -4.09148,-9.5721 -9.38607,-10.19363 1.60301,-2.24098 2.55991,-4.97498 2.55991,-7.93786 0,-7.56428 -6.15539,-13.70504 -13.73757,-13.70504 z"
       id="path9140"
       inkscape:connector-curvature="0" />
    <path
       style="fill:#000000;fill-opacity:1;stroke:none;stroke-width:2.19008"
       d="m 326.52105,-215.88538 c -7.58189,0 -13.71597,6.14076 -13.71597,13.70504 0,2.969 0.92927,5.71558 2.53832,7.95912 -5.28499,0.63 -9.38579,4.92826 -9.38579,10.17237 0,5.67749 4.79438,10.27879 10.70838,10.27879 3.84678,0 7.19906,-1.94961 9.08732,-4.87338 -0.34137,6.7238 -1.8027,13.27431 -7.14621,14.0881 -0.11709,0.0175 -0.24021,0.0518 -0.36241,0.0639 h -0.70408 v 0.34049 h 8.98044 8.98076 v -0.34049 h -0.70407 c -0.12301,-0.0109 -0.24323,-0.0455 -0.36273,-0.0639 -5.33783,-0.81296 -6.80273,-7.35034 -7.14593,-14.06683 1.89008,2.91527 5.24714,4.85211 9.08738,4.85211 5.91385,0 10.70834,-4.6013 10.70834,-10.27879 0,-5.25065 -4.09152,-9.5721 -9.38616,-10.19363 1.60306,-2.24098 2.55995,-4.97498 2.55995,-7.93786 0,-7.56428 -6.15535,-13.70504 -13.73754,-13.70504 z"
       id="path9144"
       inkscape:connector-curvature="0" />
    <path
       style="fill:#000000;fill-opacity:1;stroke:none;stroke-width:2.19008"
       d="m 256.13686,23.208114 c 7.5819,0 13.71598,-6.140765 13.71598,-13.7050218 0,-2.9690248 -0.92927,-5.7156029 -2.53832,-7.9591222 5.28499,-0.62999927 9.38579,-4.9282569 9.38579,-10.1723665 0,-5.6774965 -4.79438,-10.2788105 -10.70839,-10.2788105 -3.84677,0 -7.19905,1.949629 -9.08731,4.873373 0.34137,-6.723777 1.8027,-13.274282 7.14621,-14.088075 0.11709,-0.0175 0.24021,-0.05184 0.36241,-0.06388 h 0.70408 v -0.340483 h -8.98045 -8.98073 v 0.340483 h 0.70409 c 0.12301,0.01094 0.24319,0.0455 0.36269,0.06388 5.33783,0.812962 6.80273,7.350342 7.14593,14.066812 -1.89008,-2.915277 -5.24715,-4.85211 -9.08734,-4.85211 -5.914,0 -10.70836,4.601314 -10.70836,10.2788105 0,5.2506284 4.09148,9.57207345 9.38607,10.193629 -1.60302,2.2409818 -2.55992,4.9749818 -2.55992,7.9378597 0,7.5642568 6.15539,13.7050218 13.73757,13.7050218 z"
       id="path9148"
       inkscape:connector-curvature="0" />
    <path
       style="fill:#000000;fill-opacity:1;stroke:none;stroke-width:2.19008"
       d="m 326.30227,23.208114 c 7.58181,0 13.716,-6.140765 13.716,-13.7050218 0,-2.9690248 -0.92925,-5.7156029 -2.53823,-7.9591222 5.28477,-0.62999927 9.38571,-4.9282569 9.38571,-10.1723665 0,-5.6774965 -4.79449,-10.2788105 -10.70833,-10.2788105 -3.8468,0 -7.19917,1.949629 -9.08728,4.873373 0.34118,-6.723777 1.8026,-13.274282 7.14613,-14.088075 0.11621,-0.0175 0.2401,-0.05184 0.36245,-0.06388 h 0.70404 v -0.340483 h -8.98049 -8.98073 v 0.340483 h 0.70406 c 0.12279,0.01094 0.24317,0.0455 0.36267,0.06388 5.33783,0.812962 6.80276,7.350342 7.14591,14.066812 -1.89008,-2.915277 -5.24706,-4.85211 -9.0873,-4.85211 -5.91385,0 -10.70834,4.601314 -10.70834,10.2788105 0,5.2506284 4.09152,9.57207345 9.38616,10.193629 -1.60306,2.2409818 -2.55994,4.9749818 -2.55994,7.9378597 0,7.5642568 6.15526,13.7050218 13.73751,13.7050218 z"
       id="path9152"
       inkscape:connector-curvature="0" />
    <path
       style="fill:#000000;fill-opacity:1;stroke:none;stroke-width:2.19008"
       d="m 256.35569,-123.35422 c -7.58203,0 -13.71602,6.14077 -13.71602,13.70502 0,2.96903 0.92926,5.71561 2.53824,7.95913 -5.28499,0.62999 -9.38572,4.928252 -9.38572,10.172362 0,5.677497 4.79449,10.27881 10.70833,10.27881 3.84682,0 7.19919,-1.949629 9.0873,-4.873372 -0.3414,6.723776 -1.80259,13.274281 -7.14613,14.088074 -0.11621,0.0175 -0.24031,0.05184 -0.36244,0.06388 h -0.70407 v 0.340484 h 8.98051 8.98074 v -0.340484 h -0.70407 c -0.12279,-0.01094 -0.24317,-0.0455 -0.36267,-0.06388 -5.33783,-0.812961 -6.80275,-7.350342 -7.14612,-14.066812 1.89008,2.915278 5.24727,4.85211 9.08751,4.85211 5.91385,0 10.70834,-4.601313 10.70834,-10.27881 0,-5.250628 -4.09152,-9.572072 -9.38616,-10.193632 1.60306,-2.24098 2.55994,-4.97498 2.55994,-7.93786 0,-7.56425 -6.15548,-13.70502 -13.73751,-13.70502 z"
       id="path9170"
       inkscape:connector-curvature="0" />
    <path
       inkscape:connector-curvature="0"
       id="path9180"
       d="m 326.5211,-123.35422 c -7.58203,0 -13.71602,6.14077 -13.71602,13.70502 0,2.96903 0.92925,5.71561 2.53823,7.95913 -5.28499,0.62999 -9.38572,4.928252 -9.38572,10.172362 0,5.677497 4.79449,10.27881 10.70834,10.27881 3.84682,0 7.19919,-1.949629 9.0873,-4.873372 -0.3414,6.723776 -1.8026,13.274281 -7.14613,14.088074 -0.11621,0.0175 -0.24032,0.05184 -0.36245,0.06388 h -0.70407 v 0.340484 h 8.98052 8.98071 v -0.340484 h -0.70407 c -0.12279,-0.01094 -0.24314,-0.0455 -0.36264,-0.06388 -5.33784,-0.812961 -6.80276,-7.350342 -7.14613,-14.066812 1.89008,2.915278 5.24728,4.85211 9.08749,4.85211 5.91385,0 10.70834,-4.601313 10.70834,-10.27881 0,-5.250628 -4.09152,-9.572072 -9.38616,-10.193632 1.60306,-2.24098 2.55995,-4.97498 2.55995,-7.93786 0,-7.56425 -6.15546,-13.70502 -13.73749,-13.70502 z"
       style="fill:#000000;fill-opacity:1;stroke:none;stroke-width:2.19008" />
    <path
       style="fill:#000000;fill-opacity:1;stroke:none;stroke-width:2.19008"
       d="m 291.43835,-171.47919 c -7.5819,0 -13.71598,6.14077 -13.71598,13.70505 0,2.969 0.92928,5.71558 2.53833,7.95912 -5.28499,0.63 -9.38579,4.92826 -9.38579,10.17237 0,5.67749 4.79438,10.27879 10.70838,10.27879 3.84678,0 7.19906,-1.94961 9.08732,-4.87338 -0.34138,6.7238 -1.8027,13.27431 -7.14621,14.0881 -0.11709,0.0175 -0.24021,0.0518 -0.36241,0.0639 h -0.70409 v 0.34049 h 8.98045 8.98074 v -0.34049 H 299.715 c -0.12301,-0.0109 -0.24319,-0.0455 -0.36269,-0.0639 -5.33784,-0.81296 -6.80274,-7.35034 -7.14593,-14.06683 1.89008,2.91527 5.24714,4.85211 9.08734,4.85211 5.914,0 10.70836,-4.6013 10.70836,-10.27879 0,-5.25065 -4.09148,-9.5721 -9.38607,-10.19363 1.60301,-2.24098 2.55992,-4.97498 2.55992,-7.93786 0,-7.56428 -6.15539,-13.70505 -13.73758,-13.70505 z"
       id="path9192"
       inkscape:connector-curvature="0" />
    <path
       inkscape:connector-curvature="0"
       id="path13259"
       d="m 291.4384,-21.198085 c 7.58189,0 13.71597,-6.140765 13.71597,-13.705022 0,-2.969025 -0.92927,-5.715603 -2.53832,-7.959122 5.28499,-0.63 9.38579,-4.928257 9.38579,-10.172367 0,-5.677496 -4.79438,-10.27881 -10.70838,-10.27881 -3.84678,0 -7.19906,1.949629 -9.08732,4.873373 0.34137,-6.723777 1.8027,-13.274282 7.14621,-14.088075 0.11709,-0.0175 0.24021,-0.05184 0.36241,-0.06387 h 0.70408 v -0.340484 h -8.98044 -8.98074 v 0.340484 h 0.70409 c 0.12301,0.01094 0.24319,0.0455 0.36269,0.06387 5.33783,0.812962 6.80273,7.350342 7.14593,14.066812 -1.89008,-2.915278 -5.24714,-4.85211 -9.08734,-4.85211 -5.914,0 -10.70836,4.601314 -10.70836,10.27881 0,5.250629 4.09148,9.572074 9.38607,10.193629 -1.60302,2.240982 -2.55992,4.974982 -2.55992,7.93786 0,7.564257 6.15539,13.705022 13.73758,13.705022 z"
       style="fill:#000000;fill-opacity:1;stroke:none;stroke-width:2.19008" />
  </g>
</svg>
