<?xml version="1.0" encoding="UTF-8" standalone="no"?>
<svg
   xmlns:dc="http://purl.org/dc/elements/1.1/"
   xmlns:cc="http://creativecommons.org/ns#"
   xmlns:rdf="http://www.w3.org/1999/02/22-rdf-syntax-ns#"
   xmlns:svg="http://www.w3.org/2000/svg"
   xmlns="http://www.w3.org/2000/svg"
   xmlns:sodipodi="http://sodipodi.sourceforge.net/DTD/sodipodi-0.dtd"
   xmlns:inkscape="http://www.inkscape.org/namespaces/inkscape"
   inkscape:version="1.0 (4035a4fb49, 2020-05-01)"
   sodipodi:docname="8D.svg"
   id="svg36"
   version="1.1"
   width="2.25in"
   viewBox="-106 -164.5 212 329"
   preserveAspectRatio="none"
   height="3.5in"
   face="8D"
   class="card">
  <metadata
     id="metadata42">
    <rdf:RDF>
      <cc:Work
         rdf:about="">
        <dc:format>image/svg+xml</dc:format>
        <dc:type
           rdf:resource="http://purl.org/dc/dcmitype/StillImage" />
      </cc:Work>
    </rdf:RDF>
  </metadata>
  <defs
     id="defs40" />
  <sodipodi:namedview
     inkscape:current-layer="svg36"
     inkscape:window-maximized="1"
     inkscape:window-y="-12"
     inkscape:window-x="-12"
     inkscape:cy="168"
     inkscape:cx="108"
     inkscape:zoom="2.2410714"
     showgrid="false"
     id="namedview38"
     inkscape:window-height="2050"
     inkscape:window-width="3240"
     inkscape:pageshadow="2"
     inkscape:pageopacity="0"
     guidetolerance="10"
     gridtolerance="10"
     objecttolerance="10"
     borderopacity="1"
     bordercolor="#666666"
     pagecolor="#ffffff" />
  <symbol
     preserveAspectRatio="xMinYMid"
     viewBox="-600 -600 1200 1200"
     id="SD8">
    <path
       id="path2"
       fill="red"
       d="M-400 0C-350 0 0 -450 0 -500C0 -450 350 0 400 0C350 0 0 450 0 500C0 450 -350 0 -400 0Z" />
  </symbol>
  <symbol
     preserveAspectRatio="xMinYMid"
     viewBox="-500 -500 1000 1000"
     id="VD8">
    <path
       id="path5"
       fill="none"
       stroke-miterlimit="1.5"
       stroke-linecap="square"
       stroke-width="80"
       stroke="red"
       d="M-1 -50A205 205 0 1 1 1 -50L-1 -50A255 255 0 1 0 1 -50Z" />
  </symbol>
  <rect
     id="rect8"
     stroke="black"
     fill="white"
     ry="12"
     rx="12"
     y="-164"
     x="-105.5"
     height="328"
     width="211" />
  <g
     transform="translate(-229.9091,108.57436)"
     id="g924">
    <path
       inkscape:connector-curvature="0"
       id="path26096"
       style="font-style:normal;font-variant:normal;font-weight:bold;font-stretch:normal;font-size:22.4px;line-height:125%;font-family:Comfortaa;-inkscape-font-specification:'Comfortaa Bold';letter-spacing:0px;word-spacing:0px;fill:#ff0000;fill-opacity:1;stroke:none;stroke-width:2.19008"
       d="m 146.48598,-246.47071 c -0.67152,4e-5 -1.30306,0.12775 -1.89462,0.38281 -0.59156,0.25524 -1.10718,0.60217 -1.54684,1.04077 -0.43969,0.43868 -0.78743,0.95307 -1.04325,1.54321 -0.25581,0.59021 -0.38371,1.22025 -0.38371,1.89013 0,0.65402 0.12388,1.27608 0.37174,1.86622 0.2478,0.59019 0.59154,1.1046 1.03124,1.54321 0.43965,0.43866 0.95528,0.7816 1.54686,1.02881 0.59154,0.24725 1.23107,0.37086 1.91858,0.37084 0.63952,2e-5 1.25507,-0.12753 1.84663,-0.38281 0.59156,-0.25517 1.10716,-0.60211 1.54686,-1.04077 0.43967,-0.43861 0.7914,-0.94902 1.05522,-1.53125 0.2638,-0.58215 0.39569,-1.20023 0.39571,-1.85425 -2e-5,-0.66988 -0.132,-1.29992 -0.39571,-1.89013 -0.26382,-0.59014 -0.61956,-1.10453 -1.06722,-1.54321 -0.44767,-0.4386 -0.9633,-0.78553 -1.54684,-1.04077 -0.5836,-0.25517 -1.19513,-0.38277 -1.83465,-0.38281 z m 0,14.73826 c -0.94333,2e-5 -1.81868,0.17544 -2.62607,0.52638 -0.8074,0.35092 -1.5109,0.82545 -2.11044,1.42358 -0.59957,0.59815 -1.07522,1.30397 -1.42695,2.11743 -0.35174,0.81349 -0.52762,1.68278 -0.52762,2.60789 0,0.94111 0.17585,1.8144 0.52762,2.61988 0.35173,0.8055 0.82738,1.50734 1.42695,2.10547 0.59954,0.59815 1.30304,1.07268 2.11044,1.42358 0.80739,0.35091 1.68274,0.52637 2.62607,0.52637 0.92731,0 1.79865,-0.17937 2.61406,-0.53834 0.81539,-0.35888 1.52287,-0.84138 2.12244,-1.44751 0.59954,-0.60611 1.07519,-1.31191 1.42694,-2.11741 0.35173,-0.8055 0.5276,-1.66285 0.52762,-2.57204 -2e-5,-0.90914 -0.17585,-1.76649 -0.52762,-2.57201 -0.35175,-0.80548 -0.8274,-1.51128 -1.42694,-2.11744 -0.59957,-0.60609 -1.30705,-1.08858 -2.12244,-1.44749 -0.81541,-0.35888 -1.68675,-0.53832 -2.61406,-0.53834 z m -6.95488,-2.82323 c -1.98254,-1.97784 -2.97381,-4.33054 -2.97381,-7.05811 0,-1.37169 0.2638,-2.66369 0.79143,-3.87596 0.5276,-1.2122 1.24306,-2.26494 2.14642,-3.1582 0.90332,-0.8932 1.95455,-1.599 3.15367,-2.11743 1.19911,-0.51835 2.47816,-0.77755 3.83717,-0.77759 1.35898,4e-5 2.63803,0.26322 3.83717,0.78955 1.19909,0.5264 2.25032,1.24018 3.15368,2.14137 0.90331,0.90122 1.61479,1.95396 2.13443,3.1582 0.51957,1.20428 0.77938,2.48431 0.7794,3.84006 -2e-5,2.71162 -0.99128,5.06432 -2.9738,7.05811 3.2296,2.53614 4.84446,5.70233 4.84446,9.49851 0,1.61103 -0.3118,3.12633 -0.93533,4.54591 -0.62357,1.41959 -1.46694,2.66373 -2.53014,3.73241 -1.06325,1.06868 -2.31031,1.91406 -3.74124,2.53612 -1.43096,0.62208 -2.95384,0.93312 -4.56863,0.93312 -1.63082,0 -3.15768,-0.30706 -4.58064,-0.92115 -1.42295,-0.61408 -2.67003,-1.45548 -3.74124,-2.52416 -1.0712,-1.06868 -1.91457,-2.31281 -2.53012,-3.73241 -0.61554,-1.4196 -0.92333,-2.94287 -0.92333,-4.56984 0,-3.81215 1.60683,-6.97831 4.82045,-9.49851 z" />
    <path
       sodipodi:nodetypes="ccccc"
       inkscape:connector-curvature="0"
       id="path11642-5"
       d="m 129.97948,-184.24293 16.50664,-20.64873 16.50632,20.64871 -16.50654,24.17093 z"
       style="fill:none;stroke:#ff0000;stroke-width:2.19008;stroke-opacity:1" />
    <path
       inkscape:connector-curvature="0"
       id="path26084"
       style="font-style:normal;font-variant:normal;font-weight:bold;font-stretch:normal;font-size:22.4px;line-height:125%;font-family:Comfortaa;-inkscape-font-specification:'Comfortaa Bold';letter-spacing:0px;word-spacing:0px;fill:#ff0000;fill-opacity:1;stroke:none;stroke-width:2.19008"
       d="m 313.33232,29.321994 c 0.67162,-4.4e-5 1.3031,-0.12775 1.89469,-0.382812 0.59158,-0.255237 1.10729,-0.602175 1.54692,-1.040768 0.43964,-0.438681 0.78739,-0.953071 1.04306,-1.543214 0.25588,-0.590208 0.38393,-1.220251 0.38371,-1.890129 2.2e-4,-0.653996 -0.12498,-1.276076 -0.37165,-1.86622 -0.24777,-0.590186 -0.59158,-1.104598 -1.03122,-1.543213 -0.43963,-0.438659 -0.95534,-0.781593 -1.54692,-1.028802 -0.59158,-0.247253 -1.23097,-0.370869 -1.91859,-0.370847 -0.63938,-2.2e-5 -1.25508,0.127531 -1.84666,0.382812 -0.59137,0.255172 -1.10708,0.602109 -1.54671,1.040768 -0.43963,0.438615 -0.79134,0.949024 -1.05533,1.531248 -0.26378,0.582159 -0.39556,1.200258 -0.39556,1.854254 0,0.669878 0.13156,1.299921 0.39556,1.890129 0.26399,0.590143 0.61964,1.104533 1.06717,1.543214 0.44774,0.438593 0.96346,0.785531 1.54693,1.040768 0.58368,0.255171 1.19522,0.382768 1.8346,0.382812 z m 0,-14.738265 c 0.94329,-2.1e-5 1.81882,-0.175437 2.62616,-0.526377 0.80734,-0.350918 1.51097,-0.825452 2.11045,-1.42358 0.59947,-0.598149 1.07528,-1.303967 1.42698,-2.117432 0.35171,-0.8134863 0.52756,-1.6827759 0.52756,-2.6078905 0,-0.9411052 -0.17541,-1.8143979 -0.52756,-2.6198782 -0.3517,-0.8055023 -0.82751,-1.507339 -1.42698,-2.1054664 -0.59948,-0.5981493 -1.30311,-1.0726831 -2.11045,-1.4235796 -0.80734,-0.3509184 -1.68287,-0.5263775 -2.62616,-0.5263775 -0.92728,0 -1.79864,0.1793748 -2.6141,0.5383431 -0.81523,0.3588808 -1.52281,0.8413772 -2.12228,1.4475108 -0.59948,0.6061118 -1.07529,1.3119079 -1.42699,2.117432 -0.35171,0.8054803 -0.52756,1.6628262 -0.52756,2.5720158 0,0.9091677 0.17542,1.7664917 0.52756,2.5720155 0.3517,0.805481 0.82751,1.511299 1.42699,2.117432 0.59947,0.60609 1.30705,1.088587 2.12228,1.447511 0.81546,0.358859 1.68682,0.5383 2.6141,0.538321 z m 6.95493,2.823228 c 1.98261,1.977848 2.97392,4.330545 2.97392,7.058114 0,1.371714 -0.264,2.663694 -0.79156,3.875961 -0.52755,1.212202 -1.24302,2.264935 -2.1464,3.1582 -0.90338,0.893199 -1.95455,1.598995 -3.15372,2.117432 -1.19895,0.518349 -2.47815,0.777546 -3.83717,0.77759 -1.3588,-4.4e-5 -2.638,-0.263222 -3.83717,-0.789556 -1.19895,-0.526399 -2.25033,-1.24018 -3.1535,-2.141363 -0.90337,-0.901227 -1.6149,-1.95396 -2.13456,-3.158199 -0.51966,-1.204283 -0.77927,-2.484319 -0.77949,-3.840065 2.2e-4,-2.711622 0.9913,-5.064319 2.97391,-7.058114 -3.22958,-2.53614 -4.84448,-5.702302 -4.84448,-9.4985075 0,-1.6110263 0.3118,-3.1263058 0.93539,-4.5459042 0.6236,-1.4195984 1.4669,-2.66373755 2.53013,-3.73241758 1.06322,-1.06868002 2.31019,-1.91406032 3.74113,-2.53611902 1.43115,-0.6220805 2.95396,-0.9331208 4.56864,-0.9331208 1.63091,0 3.15766,0.3070591 4.58071,0.9211552 1.42304,0.6140962 2.67001,1.4554734 3.74113,2.52415339 1.07134,1.06868003 1.91464,2.31281921 2.53034,3.73241761 0.61548,1.4195984 0.92311,2.9428623 0.92311,4.5698354 0,3.8121515 -1.60679,6.9783135 -4.82036,9.4985075 z" />
    <path
       sodipodi:nodetypes="ccccc"
       inkscape:connector-curvature="0"
       id="path11642-0"
       d="M 329.83873,-32.905813 313.3321,-12.257084 296.82569,-32.905791 313.33232,-57.07672 Z"
       style="fill:none;stroke:#ff0000;stroke-width:2.19008;stroke-opacity:1" />
    <path
       style="fill:#ff0000;fill-opacity:1;stroke:none;stroke-width:2.19008"
       d="m 175.77965,-200.63361 19.24746,-24.07734 19.24725,24.07732 -19.24747,28.1844 z"
       id="path9162"
       inkscape:connector-curvature="0"
       sodipodi:nodetypes="ccccc" />
    <path
       style="fill:#ff0000;fill-opacity:1;stroke:none;stroke-width:2.19008"
       d="m 245.94505,-200.63361 19.24769,-24.07734 19.247,24.07732 -19.24744,28.1844 z"
       id="path9164"
       inkscape:connector-curvature="0"
       sodipodi:nodetypes="ccccc" />
    <path
       style="fill:#ff0000;fill-opacity:1;stroke:none;stroke-width:2.19008"
       d="M 214.05509,-15.202505 194.80763,8.8748422 175.56038,-15.202483 194.80785,-43.386879 Z"
       id="path9166"
       inkscape:connector-curvature="0"
       sodipodi:nodetypes="ccccc" />
    <path
       style="fill:#ff0000;fill-opacity:1;stroke:none;stroke-width:2.19008"
       d="M 284.22048,-15.202505 264.97303,8.8748422 245.72578,-15.202483 264.97325,-43.386879 Z"
       id="path9168"
       inkscape:connector-curvature="0"
       sodipodi:nodetypes="ccccc" />
    <path
       sodipodi:nodetypes="ccccc"
       inkscape:connector-curvature="0"
       id="path9176"
       d="m 175.77965,-111.82121 19.24746,-24.07734 19.24725,24.07732 -19.24747,28.184397 z"
       style="fill:#ff0000;fill-opacity:1;stroke:none;stroke-width:2.19008" />
    <path
       style="fill:#ff0000;fill-opacity:1;stroke:none;stroke-width:2.19008"
       d="m 245.94505,-111.82121 19.24769,-24.07734 19.247,24.07732 -19.24744,28.184397 z"
       id="path9186"
       inkscape:connector-curvature="0"
       sodipodi:nodetypes="ccccc" />
    <path
       style="fill:#ff0000;fill-opacity:1;stroke:none;stroke-width:2.19008"
       d="m 210.64308,-155.57116 19.24747,-24.07734 19.24725,24.07732 -19.24769,28.1844 z"
       id="path9196"
       inkscape:connector-curvature="0"
       sodipodi:nodetypes="ccccc" />
    <path
       sodipodi:nodetypes="ccccc"
       inkscape:connector-curvature="0"
       id="path13294"
       d="m 249.57633,-64.639949 -19.24747,24.077348 -19.24725,-24.077326 19.24769,-28.184396 z"
       style="fill:#ff0000;fill-opacity:1;stroke:none;stroke-width:2.19008" />
  </g>
</svg>
