<?xml version="1.0" encoding="UTF-8" standalone="no"?>
<svg
   xmlns:dc="http://purl.org/dc/elements/1.1/"
   xmlns:cc="http://creativecommons.org/ns#"
   xmlns:rdf="http://www.w3.org/1999/02/22-rdf-syntax-ns#"
   xmlns:svg="http://www.w3.org/2000/svg"
   xmlns="http://www.w3.org/2000/svg"
   xmlns:sodipodi="http://sodipodi.sourceforge.net/DTD/sodipodi-0.dtd"
   xmlns:inkscape="http://www.inkscape.org/namespaces/inkscape"
   inkscape:version="1.0 (4035a4fb49, 2020-05-01)"
   sodipodi:docname="8H.svg"
   id="svg36"
   version="1.1"
   width="2.25in"
   viewBox="-106 -164.5 212 329"
   preserveAspectRatio="none"
   height="3.5in"
   face="8H"
   class="card">
  <metadata
     id="metadata42">
    <rdf:RDF>
      <cc:Work
         rdf:about="">
        <dc:format>image/svg+xml</dc:format>
        <dc:type
           rdf:resource="http://purl.org/dc/dcmitype/StillImage" />
      </cc:Work>
    </rdf:RDF>
  </metadata>
  <defs
     id="defs40" />
  <sodipodi:namedview
     inkscape:current-layer="svg36"
     inkscape:window-maximized="1"
     inkscape:window-y="-12"
     inkscape:window-x="-12"
     inkscape:cy="168"
     inkscape:cx="108"
     inkscape:zoom="2.2410714"
     showgrid="false"
     id="namedview38"
     inkscape:window-height="2050"
     inkscape:window-width="3240"
     inkscape:pageshadow="2"
     inkscape:pageopacity="0"
     guidetolerance="10"
     gridtolerance="10"
     objecttolerance="10"
     borderopacity="1"
     bordercolor="#666666"
     pagecolor="#ffffff" />
  <symbol
     preserveAspectRatio="xMinYMid"
     viewBox="-600 -600 1200 1200"
     id="SH8">
    <path
       id="path2"
       fill="red"
       d="M0 -300C0 -400 100 -500 200 -500C300 -500 400 -400 400 -250C400 0 0 400 0 500C0 400 -400 0 -400 -250C-400 -400 -300 -500 -200 -500C-100 -500 0 -400 -0 -300Z" />
  </symbol>
  <symbol
     preserveAspectRatio="xMinYMid"
     viewBox="-500 -500 1000 1000"
     id="VH8">
    <path
       id="path5"
       fill="none"
       stroke-miterlimit="1.5"
       stroke-linecap="square"
       stroke-width="80"
       stroke="red"
       d="M-1 -50A205 205 0 1 1 1 -50L-1 -50A255 255 0 1 0 1 -50Z" />
  </symbol>
  <rect
     id="rect8"
     stroke="black"
     fill="white"
     ry="12"
     rx="12"
     y="-164"
     x="-105.5"
     height="328"
     width="211" />
  <g
     transform="translate(-338.52117,170.17983)"
     id="g924">
    <path
       inkscape:connector-curvature="0"
       id="path26099"
       style="font-style:normal;font-variant:normal;font-weight:bold;font-stretch:normal;font-size:22.4px;line-height:125%;font-family:Comfortaa;-inkscape-font-specification:'Comfortaa Bold';letter-spacing:0px;word-spacing:0px;fill:#ff0000;fill-opacity:1;stroke:none;stroke-width:2.19008"
       d="m 255.09798,-308.07612 c -0.67152,5e-5 -1.30306,0.12775 -1.89462,0.38282 -0.59156,0.25523 -1.10718,0.60217 -1.54684,1.04076 -0.43969,0.43868 -0.78743,0.95307 -1.04325,1.54322 -0.25581,0.59021 -0.38371,1.22025 -0.38371,1.89013 0,0.65402 0.12388,1.27607 0.37174,1.86622 0.2478,0.59018 0.59154,1.1046 1.03124,1.54321 0.43965,0.43866 0.95528,0.78159 1.54686,1.0288 0.59154,0.24726 1.23107,0.37087 1.91858,0.37085 0.63952,2e-5 1.25507,-0.12753 1.84663,-0.38281 0.59156,-0.25517 1.10716,-0.60211 1.54686,-1.04077 0.43967,-0.43862 0.7914,-0.94902 1.05522,-1.53125 0.2638,-0.58216 0.39569,-1.20023 0.39571,-1.85425 -2e-5,-0.66988 -0.132,-1.29992 -0.39571,-1.89013 -0.26382,-0.59015 -0.61956,-1.10454 -1.06722,-1.54322 -0.44767,-0.43859 -0.9633,-0.78553 -1.54684,-1.04076 -0.5836,-0.25518 -1.19513,-0.38277 -1.83465,-0.38282 z m 0,14.73827 c -0.94333,2e-5 -1.81868,0.17544 -2.62607,0.52638 -0.8074,0.35091 -1.5109,0.82545 -2.11044,1.42358 -0.59957,0.59815 -1.07522,1.30396 -1.42695,2.11743 -0.35174,0.81348 -0.52762,1.68277 -0.52762,2.60789 0,0.9411 0.17585,1.8144 0.52762,2.61988 0.35173,0.8055 0.82738,1.50734 1.42695,2.10546 0.59954,0.59815 1.30304,1.07269 2.11044,1.42358 0.80739,0.35092 1.68274,0.52638 2.62607,0.52638 0.92731,0 1.79865,-0.17937 2.61406,-0.53834 0.81539,-0.35888 1.52287,-0.84138 2.12244,-1.44751 0.59954,-0.60612 1.07519,-1.31191 1.42694,-2.11741 0.35173,-0.80551 0.5276,-1.66285 0.52762,-2.57204 -2e-5,-0.90915 -0.17585,-1.76649 -0.52762,-2.57202 -0.35175,-0.80548 -0.8274,-1.51127 -1.42694,-2.11743 -0.59957,-0.60609 -1.30705,-1.08859 -2.12244,-1.44749 -0.81541,-0.35888 -1.68675,-0.53832 -2.61406,-0.53834 z m -6.95488,-2.82323 c -1.98254,-1.97785 -2.97381,-4.33054 -2.97381,-7.05811 0,-1.3717 0.2638,-2.6637 0.79143,-3.87596 0.5276,-1.21221 1.24306,-2.26494 2.14642,-3.1582 0.90332,-0.8932 1.95455,-1.599 3.15367,-2.11744 1.19911,-0.51835 2.47816,-0.77754 3.83717,-0.77759 1.35898,5e-5 2.63803,0.26323 3.83717,0.78956 1.19909,0.5264 2.25032,1.24018 3.15368,2.14136 0.90331,0.90123 1.61479,1.95396 2.13443,3.1582 0.51957,1.20429 0.77938,2.48432 0.7794,3.84007 -2e-5,2.71162 -0.99128,5.06432 -2.9738,7.05811 3.2296,2.53614 4.84446,5.70233 4.84446,9.49851 0,1.61103 -0.3118,3.12633 -0.93533,4.5459 -0.62357,1.4196 -1.46694,2.66374 -2.53014,3.73242 -1.06325,1.06868 -2.31031,1.91406 -3.74124,2.53612 -1.43096,0.62208 -2.95384,0.93312 -4.56863,0.93312 -1.63082,0 -3.15768,-0.30706 -4.58064,-0.92115 -1.42295,-0.6141 -2.67003,-1.45548 -3.74124,-2.52416 -1.0712,-1.06868 -1.91457,-2.31282 -2.53012,-3.73242 -0.61554,-1.41959 -0.92333,-2.94286 -0.92333,-4.56983 0,-3.81215 1.60683,-6.97832 4.82045,-9.49851 z" />
    <path
       sodipodi:nodetypes="csscccssccccc"
       inkscape:connector-curvature="0"
       id="path11598-6"
       d="m 245.85624,-259.02345 c -1.33527,0.0446 -2.69146,0.38788 -3.98746,1.1879 -5.92468,3.65721 -9.51835,10.63371 -2.9906,18.14993 3.66754,4.22292 13.55959,6.1557 15.42369,12.08612 0.77289,2.62729 0.45364,7.50099 0.78921,7.48649 0.33556,0.0153 0.03,-4.8592 0.80302,-7.48649 1.86414,-5.93042 11.7563,-7.8632 15.42376,-12.08612 6.52779,-7.51622 2.93401,-14.49272 -2.99058,-18.14993 -5.92475,-3.65717 -13.20851,2.26528 -13.20851,2.26528 l -0.0417,0.0551 v -0.0551 c 0,0 -4.45219,-3.61248 -9.22096,-3.45318 z"
       style="fill:#ff0000;fill-opacity:1;stroke:none;stroke-width:2.19008" />
    <path
       inkscape:connector-curvature="0"
       id="path26087"
       style="font-style:normal;font-variant:normal;font-weight:bold;font-stretch:normal;font-size:22.4px;line-height:125%;font-family:Comfortaa;-inkscape-font-specification:'Comfortaa Bold';letter-spacing:0px;word-spacing:0px;fill:#ff0000;fill-opacity:1;stroke:none;stroke-width:2.19008"
       d="m 421.94432,-32.28354 c 0.67162,-4.4e-5 1.3031,-0.12775 1.89469,-0.382812 0.59158,-0.255237 1.10729,-0.602174 1.54692,-1.040768 0.43964,-0.43868 0.78739,-0.953071 1.04306,-1.543214 0.25588,-0.590208 0.38393,-1.220251 0.38371,-1.890129 2.2e-4,-0.654018 -0.12498,-1.276076 -0.37165,-1.866219 -0.24777,-0.590187 -0.59158,-1.104599 -1.03122,-1.543214 -0.43963,-0.438659 -0.95534,-0.781593 -1.54692,-1.028802 -0.59158,-0.247253 -1.23097,-0.370869 -1.91859,-0.370847 -0.63938,-2.2e-5 -1.25508,0.127531 -1.84666,0.382812 -0.59137,0.255172 -1.10708,0.602109 -1.54671,1.040768 -0.43963,0.438615 -0.79134,0.949024 -1.05533,1.531248 -0.26378,0.582159 -0.39556,1.200236 -0.39556,1.854254 0,0.669878 0.13156,1.299921 0.39556,1.890129 0.26399,0.590143 0.61964,1.104534 1.06717,1.543214 0.44774,0.438594 0.96346,0.785531 1.54693,1.040768 0.58368,0.255171 1.19522,0.382768 1.8346,0.382812 z m 0,-14.738264 c 0.94329,-2.2e-5 1.81882,-0.175438 2.62616,-0.526378 0.80734,-0.350918 1.51097,-0.825452 2.11045,-1.42358 0.59947,-0.598149 1.07528,-1.303967 1.42698,-2.117432 0.35171,-0.813486 0.52756,-1.682776 0.52756,-2.60789 0,-0.941106 -0.17541,-1.814398 -0.52756,-2.619879 -0.3517,-0.805502 -0.82751,-1.507339 -1.42698,-2.105466 -0.59948,-0.598149 -1.30311,-1.072683 -2.11045,-1.42358 -0.80734,-0.350918 -1.68287,-0.526377 -2.62616,-0.526377 -0.92728,0 -1.79864,0.179375 -2.6141,0.538343 -0.81523,0.358881 -1.52281,0.841377 -2.12228,1.447511 -0.59948,0.606112 -1.07529,1.311908 -1.42699,2.11741 -0.35171,0.805502 -0.52756,1.662848 -0.52756,2.572038 0,0.909145 0.17542,1.766491 0.52756,2.572015 0.3517,0.805481 0.82751,1.511277 1.42699,2.117432 0.59947,0.60609 1.30705,1.088587 2.12228,1.447489 0.81546,0.358881 1.68682,0.538322 2.6141,0.538344 z m 6.95493,2.823228 c 1.98261,1.977847 2.97392,4.330545 2.97392,7.058113 0,1.371693 -0.264,2.663694 -0.79156,3.875962 -0.52755,1.212201 -1.24302,2.264934 -2.1464,3.158199 -0.90338,0.893199 -1.95455,1.598995 -3.15372,2.117432 -1.19895,0.518349 -2.47815,0.777546 -3.83717,0.77759 -1.3588,-4.4e-5 -2.638,-0.263222 -3.83717,-0.789556 -1.19895,-0.526399 -2.25033,-1.240179 -3.1535,-2.141363 -0.90337,-0.901227 -1.6149,-1.95396 -2.13456,-3.158199 -0.51966,-1.204283 -0.77927,-2.484319 -0.77949,-3.840065 2.2e-4,-2.711622 0.9913,-5.064319 2.97391,-7.058113 -3.22958,-2.536141 -4.84448,-5.702325 -4.84448,-9.498508 0,-1.611027 0.3118,-3.126328 0.93539,-4.545905 0.6236,-1.419598 1.4669,-2.663737 2.53013,-3.732417 1.06322,-1.06868 2.31019,-1.91406 3.74113,-2.536119 1.43115,-0.622081 2.95396,-0.933121 4.56864,-0.933121 1.63091,0 3.15766,0.307059 4.58071,0.921155 1.42304,0.614075 2.67001,1.455474 3.74113,2.524154 1.07134,1.06868 1.91464,2.312819 2.53034,3.732417 0.61548,1.419599 0.92311,2.942862 0.92311,4.569836 0,3.812152 -1.60679,6.978314 -4.82036,9.498508 z" />
    <path
       sodipodi:nodetypes="csscccssccccc"
       inkscape:connector-curvature="0"
       id="path11598-2"
       d="m 431.18598,-81.336334 c 1.33534,-0.04463 2.6915,-0.387887 3.98759,-1.187899 5.92459,-3.657211 9.51838,-10.633709 2.99058,-18.149927 -3.66768,-4.22292 -13.55968,-6.15571 -15.42367,-12.08612 -0.77292,-2.6273 -0.45366,-7.501 -0.78936,-7.48649 -0.33548,-0.0153 -0.0307,4.85919 -0.80296,7.48649 -1.8642,5.93041 -11.75621,7.8632 -15.42367,12.08612 -6.52779,7.516218 -2.93401,14.492716 2.99058,18.149927 5.92459,3.657168 13.20842,-2.265285 13.20842,-2.265285 l 0.0417,-0.05513 v 0.05513 c 0,0 4.45222,3.612478 9.22105,3.453184 z"
       style="fill:#ff0000;fill-opacity:1;stroke:none;stroke-width:2.19008" />
    <path
       sodipodi:nodetypes="csscccssccccc"
       inkscape:connector-curvature="0"
       id="path9154"
       d="m 296.50219,-288.49471 c -1.82298,0.061 -3.67469,0.52962 -5.44417,1.62194 -8.08942,4.99345 -12.99617,14.51899 -4.08341,24.78144 5.00762,5.76585 18.51402,8.40482 21.05905,16.50206 1.05533,3.58724 0.61943,10.24167 1.0777,10.22185 0.45804,0.0219 0.0417,-6.63461 1.09633,-10.22185 2.54525,-8.09724 16.05165,-10.73621 21.05927,-16.50206 8.91276,-10.26245 4.00601,-19.78799 -4.08341,-24.78144 -8.08941,-4.9934 -18.03448,3.09295 -18.03448,3.09295 l -0.057,0.0752 v -0.0752 c 0,0 -6.07895,-4.93237 -12.59008,-4.71489 z"
       style="fill:#ff0000;fill-opacity:1;stroke:none;stroke-width:2.19008" />
    <path
       sodipodi:nodetypes="csscccssccccc"
       inkscape:connector-curvature="0"
       id="path9156"
       d="m 355.15609,-288.49471 c -1.82299,0.061 -3.6747,0.52962 -5.44418,1.62194 -8.08941,4.99345 -12.99617,14.51899 -4.08341,24.78144 5.00762,5.76585 18.51402,8.40482 21.05905,16.50206 1.05533,3.58724 0.61943,10.24167 1.0777,10.22185 0.45805,0.0219 0.0417,-6.63461 1.09633,-10.22185 2.54525,-8.09724 16.05163,-10.73621 21.05925,-16.50206 8.91276,-10.26245 4.00601,-19.78799 -4.08341,-24.78144 -8.08939,-4.9934 -18.03446,3.09295 -18.03446,3.09295 l -0.057,0.0752 v -0.0752 c 0,0 -6.07895,-4.93237 -12.59008,-4.71489 z"
       style="fill:#ff0000;fill-opacity:1;stroke:none;stroke-width:2.19008" />
    <path
       sodipodi:nodetypes="csscccssccccc"
       inkscape:connector-curvature="0"
       id="path9158"
       d="m 321.51989,-59.740177 c 1.8232,-0.06103 3.67491,-0.529615 5.4444,-1.621942 8.08941,-4.993445 12.99616,-14.51899 4.0834,-24.781438 -5.00761,-5.765849 -18.51402,-8.404824 -21.05927,-16.502063 -1.05511,-3.58724 -0.61921,-10.24167 -1.07747,-10.22185 -0.45827,-0.0219 -0.0417,6.63461 -1.09634,10.22185 -2.54525,8.097239 -16.05165,10.736214 -21.05927,16.502063 -8.91276,10.262448 -4.006,19.787993 4.08319,24.781438 8.08963,4.9934 18.0347,-3.092947 18.0347,-3.092947 l 0.057,-0.07525 v 0.07525 c 0,0 6.07874,4.93237 12.59009,4.714889 z"
       style="fill:#ff0000;fill-opacity:1;stroke:none;stroke-width:2.19008" />
    <path
       sodipodi:nodetypes="csscccssccccc"
       inkscape:connector-curvature="0"
       id="path9160"
       d="m 380.17378,-59.740177 c 1.82318,-0.06103 3.67489,-0.529615 5.44438,-1.621942 8.08941,-4.993445 12.99616,-14.51899 4.0834,-24.781438 -5.00761,-5.765849 -18.51399,-8.404824 -21.05924,-16.502063 -1.05512,-3.58724 -0.61921,-10.24167 -1.07748,-10.22185 -0.45827,-0.0219 -0.0417,6.63461 -1.09634,10.22185 -2.54525,8.097239 -16.05165,10.736214 -21.05926,16.502063 -8.91276,10.262448 -4.00601,19.787993 4.08318,24.781438 8.08964,4.9934 18.03471,-3.092947 18.03471,-3.092947 l 0.057,-0.07525 v 0.07525 c 0,0 6.07874,4.93237 12.59009,4.714889 z"
       style="fill:#ff0000;fill-opacity:1;stroke:none;stroke-width:2.19008" />
    <path
       style="fill:#ff0000;fill-opacity:1;stroke:none;stroke-width:2.19008"
       d="m 296.50219,-195.96357 c -1.82298,0.061 -3.67469,0.52962 -5.44417,1.62195 -8.08942,4.99344 -12.99617,14.51899 -4.08341,24.78143 5.00762,5.76585 18.51402,8.40483 21.05905,16.50207 1.05533,3.58723 0.61943,10.24167 1.0777,10.22185 0.45804,0.0219 0.0417,-6.63462 1.09633,-10.22185 2.54525,-8.09724 16.05165,-10.73622 21.05927,-16.50207 8.91276,-10.26244 4.00601,-19.78799 -4.08341,-24.78143 -8.08941,-4.9934 -18.03448,3.09294 -18.03448,3.09294 l -0.057,0.0753 v -0.0753 c 0,0 -6.07895,-4.93237 -12.59008,-4.71489 z"
       id="path9174"
       inkscape:connector-curvature="0"
       sodipodi:nodetypes="csscccssccccc" />
    <path
       sodipodi:nodetypes="csscccssccccc"
       inkscape:connector-curvature="0"
       id="path9184"
       d="m 355.15609,-195.96357 c -1.82299,0.061 -3.6747,0.52962 -5.44418,1.62195 -8.08941,4.99344 -12.99617,14.51899 -4.08341,24.78143 5.00762,5.76585 18.51402,8.40483 21.05905,16.50207 1.05533,3.58723 0.61943,10.24167 1.0777,10.22185 0.45805,0.0219 0.0417,-6.63462 1.09633,-10.22185 2.54525,-8.09724 16.05163,-10.73622 21.05925,-16.50207 8.91276,-10.26244 4.00601,-19.78799 -4.08341,-24.78143 -8.08939,-4.9934 -18.03446,3.09294 -18.03446,3.09294 l -0.057,0.0753 v -0.0753 c 0,0 -6.07895,-4.93237 -12.59008,-4.71489 z"
       style="fill:#ff0000;fill-opacity:1;stroke:none;stroke-width:2.19008" />
    <path
       sodipodi:nodetypes="csscccssccccc"
       inkscape:connector-curvature="0"
       id="path9194"
       d="m 326.10322,-241.90101 c -1.82298,0.061 -3.67469,0.52961 -5.44417,1.62194 -8.08964,4.99344 -12.99617,14.51899 -4.08341,24.78144 5.00762,5.76585 18.51402,8.40482 21.05905,16.50206 1.05533,3.58724 0.61943,10.24167 1.0777,10.22185 0.45804,0.0219 0.0417,-6.63461 1.09633,-10.22185 2.54525,-8.09724 16.05165,-10.73621 21.05927,-16.50206 8.91276,-10.26245 4.00601,-19.788 -4.08341,-24.78144 -8.08941,-4.9934 -18.03448,3.09295 -18.03448,3.09295 l -0.057,0.0752 v -0.0752 c 0,0 -6.07895,-4.93237 -12.59008,-4.71489 z"
       style="fill:#ff0000;fill-opacity:1;stroke:none;stroke-width:2.19008" />
    <path
       style="fill:#ff0000;fill-opacity:1;stroke:none;stroke-width:2.19008"
       d="m 350.79224,-106.33387 c 1.82298,-0.061 3.67469,-0.52962 5.44418,-1.62195 8.08963,-4.99344 12.99616,-14.51899 4.0834,-24.78143 -5.00761,-5.76585 -18.51402,-8.40483 -21.05905,-16.50207 -1.05533,-3.58723 -0.61943,-10.24167 -1.07769,-10.22185 -0.45805,-0.0219 -0.0417,6.63462 -1.09634,10.22185 -2.54525,8.09724 -16.05165,10.73622 -21.05927,16.50207 -8.91276,10.26244 -4.006,19.78799 4.08341,24.78143 8.08941,4.9934 18.03448,-3.09294 18.03448,-3.09294 l 0.057,-0.0752 v 0.0752 c 0,0 6.07896,4.93237 12.59009,4.71489 z"
       id="path13280"
       inkscape:connector-curvature="0"
       sodipodi:nodetypes="csscccssccccc" />
  </g>
</svg>
