<?xml version="1.0" encoding="UTF-8" standalone="no"?>
<svg
   xmlns:dc="http://purl.org/dc/elements/1.1/"
   xmlns:cc="http://creativecommons.org/ns#"
   xmlns:rdf="http://www.w3.org/1999/02/22-rdf-syntax-ns#"
   xmlns:svg="http://www.w3.org/2000/svg"
   xmlns="http://www.w3.org/2000/svg"
   xmlns:sodipodi="http://sodipodi.sourceforge.net/DTD/sodipodi-0.dtd"
   xmlns:inkscape="http://www.inkscape.org/namespaces/inkscape"
   inkscape:version="1.0 (4035a4fb49, 2020-05-01)"
   sodipodi:docname="8S.svg"
   id="svg36"
   version="1.1"
   width="2.25in"
   viewBox="-106 -164.5 212 329"
   preserveAspectRatio="none"
   height="3.5in"
   face="8S"
   class="card">
  <metadata
     id="metadata42">
    <rdf:RDF>
      <cc:Work
         rdf:about="">
        <dc:format>image/svg+xml</dc:format>
        <dc:type
           rdf:resource="http://purl.org/dc/dcmitype/StillImage" />
      </cc:Work>
    </rdf:RDF>
  </metadata>
  <defs
     id="defs40" />
  <sodipodi:namedview
     inkscape:current-layer="svg36"
     inkscape:window-maximized="1"
     inkscape:window-y="-12"
     inkscape:window-x="-12"
     inkscape:cy="168"
     inkscape:cx="108"
     inkscape:zoom="2.2410714"
     showgrid="false"
     id="namedview38"
     inkscape:window-height="2050"
     inkscape:window-width="3240"
     inkscape:pageshadow="2"
     inkscape:pageopacity="0"
     guidetolerance="10"
     gridtolerance="10"
     objecttolerance="10"
     borderopacity="1"
     bordercolor="#666666"
     pagecolor="#ffffff" />
  <symbol
     preserveAspectRatio="xMinYMid"
     viewBox="-600 -600 1200 1200"
     id="SS8">
    <path
       id="path2"
       fill="black"
       d="M0 -500C100 -250 355 -100 355 185A150 150 0 0 1 55 185A10 10 0 0 0 35 185C35 385 85 400 130 500L-130 500C-85 400 -35 385 -35 185A10 10 0 0 0 -55 185A150 150 0 0 1 -355 185C-355 -100 -100 -250 0 -500Z" />
  </symbol>
  <symbol
     preserveAspectRatio="xMinYMid"
     viewBox="-500 -500 1000 1000"
     id="VS8">
    <path
       id="path5"
       fill="none"
       stroke-miterlimit="1.5"
       stroke-linecap="square"
       stroke-width="80"
       stroke="black"
       d="M-1 -50A205 205 0 1 1 1 -50L-1 -50A255 255 0 1 0 1 -50Z" />
  </symbol>
  <rect
     id="rect8"
     stroke="black"
     fill="white"
     ry="12"
     rx="12"
     y="-164"
     x="-105.5"
     height="328"
     width="211" />
  <g
     transform="translate(-350.34585,143.96484)"
     id="g932">
    <path
       inkscape:connector-curvature="0"
       id="path26093"
       style="font-style:normal;font-variant:normal;font-weight:bold;font-stretch:normal;font-size:22.4px;line-height:125%;font-family:Comfortaa;-inkscape-font-specification:'Comfortaa Bold';letter-spacing:0px;word-spacing:0px;fill:#000000;fill-opacity:1;stroke:none;stroke-width:2.19008"
       d="m 266.92268,-281.86111 c -0.67152,5e-5 -1.30306,0.12754 -1.89462,0.38282 -0.59156,0.25526 -1.10718,0.60217 -1.54684,1.04079 -0.43969,0.43866 -0.78743,0.95307 -1.04325,1.54319 -0.25581,0.59021 -0.38371,1.22025 -0.38371,1.89015 0,0.654 0.12388,1.27605 0.37174,1.8662 0.2478,0.59021 0.59154,1.1046 1.03124,1.54321 0.43965,0.43866 0.95528,0.78159 1.54686,1.0288 0.59154,0.24726 1.23107,0.37089 1.91858,0.37085 0.63952,4e-5 1.25507,-0.12753 1.84663,-0.38281 0.59156,-0.25517 1.10716,-0.60209 1.54686,-1.04077 0.43967,-0.43862 0.7914,-0.94902 1.05522,-1.53125 0.2638,-0.58216 0.39569,-1.20023 0.39571,-1.85423 -2e-5,-0.6699 -0.132,-1.29994 -0.39571,-1.89015 -0.26382,-0.59012 -0.61956,-1.10453 -1.06722,-1.54319 -0.44767,-0.43862 -0.9633,-0.78553 -1.54684,-1.04079 -0.5836,-0.25517 -1.19513,-0.38277 -1.83465,-0.38282 z m 0,14.73827 c -0.94333,2e-5 -1.81868,0.17544 -2.62607,0.52638 -0.8074,0.35092 -1.5109,0.82545 -2.11044,1.42358 -0.59957,0.59817 -1.07522,1.30396 -1.42695,2.11743 -0.35174,0.81349 -0.52762,1.6828 -0.52762,2.60791 0,0.94108 0.17585,1.81438 0.52762,2.61986 0.35173,0.80552 0.82738,1.50734 1.42695,2.10546 0.59954,0.59815 1.30304,1.07269 2.11044,1.42358 0.80739,0.35092 1.68274,0.52638 2.62607,0.52638 0.92731,0 1.79865,-0.17937 2.61406,-0.53832 0.81539,-0.35888 1.52287,-0.8414 2.12244,-1.44751 0.59954,-0.60611 1.07519,-1.31193 1.42694,-2.11743 0.35173,-0.80551 0.5276,-1.66283 0.52762,-2.57202 -2e-5,-0.90917 -0.17585,-1.76651 -0.52762,-2.57201 -0.35175,-0.80551 -0.8274,-1.5113 -1.42694,-2.11744 -0.59957,-0.60611 -1.30705,-1.0886 -2.12244,-1.44751 -0.81541,-0.35888 -1.68675,-0.53832 -2.61406,-0.53834 z m -6.95488,-2.82323 c -1.98254,-1.97785 -2.97381,-4.33054 -2.97381,-7.05809 0,-1.37171 0.2638,-2.66372 0.79143,-3.87598 0.5276,-1.21221 1.24306,-2.26494 2.14642,-3.1582 0.90332,-0.89318 1.95455,-1.599 3.15367,-2.11744 1.19911,-0.51834 2.47816,-0.77754 3.83717,-0.77758 1.35898,4e-5 2.63803,0.26322 3.83717,0.78955 1.19909,0.5264 2.25032,1.2402 3.15368,2.14136 0.90331,0.90123 1.61479,1.95396 2.13443,3.1582 0.51957,1.20429 0.77938,2.48432 0.7794,3.84009 -2e-5,2.7116 -0.99128,5.0643 -2.9738,7.05809 3.2296,2.53614 4.84446,5.70233 4.84446,9.49853 0,1.61101 -0.3118,3.12631 -0.93533,4.54588 -0.62357,1.4196 -1.46694,2.66374 -2.53014,3.73242 -1.06325,1.06868 -2.31031,1.91406 -3.74124,2.53614 -1.43096,0.62206 -2.95384,0.9331 -4.56863,0.9331 -1.63082,0 -3.15768,-0.30706 -4.58064,-0.92113 -1.42295,-0.6141 -2.67003,-1.4555 -3.74124,-2.52418 -1.0712,-1.06868 -1.91457,-2.31282 -2.53012,-3.73242 -0.61554,-1.41959 -0.92333,-2.94286 -0.92333,-4.56981 0,-3.81215 1.60683,-6.97833 4.82045,-9.49853 z" />
    <path
       id="path26466-5"
       d="m 266.92286,-245.93839 c -0.33568,-0.0219 -0.025,4.86889 -0.79752,7.49657 -1.86453,5.93151 -11.75012,7.8697 -15.41845,12.09354 -6.529,7.51757 -2.94846,14.48233 2.97734,18.14026 5.62667,3.47331 12.41938,-1.62667 13.09685,-2.15703 -0.009,0.13738 -0.0239,0.27044 -0.0355,0.40666 -0.002,0.03 -0.0154,0.0586 -0.0175,0.0884 -0.83874,5.30077 -7.50018,7.48857 -10.31443,8.18612 h -1.29374 v 0.28289 h 1.86086 9.72959 0.0175 0.38988 0.0175 9.7296 1.86079 v -0.28289 h -1.29368 c -2.81409,-0.69755 -9.47573,-2.88535 -10.31445,-8.18612 -0.004,-0.0297 -0.0153,-0.0584 -0.0175,-0.0884 -0.011,-0.14197 -0.0263,-0.28057 -0.0355,-0.42435 0.33195,0.26326 4.52819,3.52996 9.10934,3.37701 1.3357,-0.0437 2.6913,-0.40215 3.9876,-1.20229 5.92569,-3.65793 9.50632,-10.62269 2.97721,-18.14026 -3.66833,-4.22384 -13.55385,-6.16203 -15.41841,-12.09354 -0.77287,-2.62768 -0.46182,-7.51101 -0.79749,-7.49657 z"
       style="fill:#000000;fill-opacity:1;stroke:none;stroke-width:2.19008"
       inkscape:connector-curvature="0" />
    <path
       inkscape:connector-curvature="0"
       id="path26081"
       style="font-style:normal;font-variant:normal;font-weight:bold;font-stretch:normal;font-size:22.4px;line-height:125%;font-family:Comfortaa;-inkscape-font-specification:'Comfortaa Bold';letter-spacing:0px;word-spacing:0px;fill:#000000;fill-opacity:1;stroke:none;stroke-width:2.19008"
       d="m 433.76902,-6.0685733 c 0.67162,-2.19e-5 1.3031,-0.1275311 1.89469,-0.3828121 0.59158,-0.2552372 1.10729,-0.6021524 1.54692,-1.0407676 0.43964,-0.4386588 0.78739,-0.9530708 1.04306,-1.5432138 0.25588,-0.5901869 0.38393,-1.2202302 0.38371,-1.8901292 2.2e-4,-0.653996 -0.12498,-1.276055 -0.37165,-1.866198 -0.24777,-0.590208 -0.59158,-1.104599 -1.03122,-1.543214 -0.43963,-0.438659 -0.95534,-0.781593 -1.54692,-1.028802 -0.59158,-0.247274 -1.23097,-0.37089 -1.91859,-0.370868 -0.63938,-2.2e-5 -1.25508,0.127531 -1.84666,0.382812 -0.59137,0.255194 -1.10708,0.602109 -1.54671,1.04079 -0.43963,0.438593 -0.79134,0.949023 -1.05533,1.531248 -0.26378,0.582159 -0.39556,1.200236 -0.39556,1.854232 0,0.669899 0.13156,1.2999423 0.39556,1.8901292 0.26399,0.590143 0.61964,1.104555 1.06717,1.5432138 0.44774,0.4386152 0.96346,0.7855304 1.54693,1.0407676 0.58368,0.2551935 1.19522,0.3827902 1.8346,0.3828121 z m 0,-14.7382647 c 0.94329,0 1.81882,-0.175437 2.62616,-0.526355 0.80734,-0.350941 1.51097,-0.825453 2.11045,-1.42358 0.59947,-0.598171 1.07528,-1.303967 1.42698,-2.117432 0.35171,-0.813487 0.52756,-1.682798 0.52756,-2.607913 0,-0.941083 -0.17541,-1.814376 -0.52756,-2.619856 -0.3517,-0.805524 -0.82751,-1.507339 -1.42698,-2.105466 -0.59948,-0.59815 -1.30311,-1.072683 -2.11045,-1.423602 -0.80734,-0.350896 -1.68287,-0.526355 -2.62616,-0.526355 -0.92728,0 -1.79864,0.179374 -2.6141,0.538321 -0.81523,0.358881 -1.52281,0.841399 -2.12228,1.447511 -0.59948,0.606111 -1.07529,1.311929 -1.42699,2.117432 -0.35171,0.805502 -0.52756,1.662826 -0.52756,2.572015 0,0.909168 0.17542,1.766514 0.52756,2.572016 0.3517,0.805502 0.82751,1.511298 1.42699,2.117432 0.59947,0.606112 1.30705,1.088608 2.12228,1.447511 0.81546,0.358859 1.68682,0.538321 2.6141,0.538321 z m 6.95493,2.82325 c 1.98261,1.977848 2.97392,4.330545 2.97392,7.058092 0,1.3717141 -0.264,2.6637158 -0.79156,3.8759832 -0.52755,1.2122017 -1.24302,2.2649349 -2.1464,3.1581995 -0.90338,0.8931771 -1.95455,1.598995 -3.15372,2.1174319 -1.19895,0.5183494 -2.47815,0.77754601 -3.83717,0.77756789 -1.3588,-2.188e-5 -2.638,-0.26322159 -3.83717,-0.78953349 -1.19895,-0.5264213 -2.25033,-1.2402017 -3.1535,-2.1413632 -0.90337,-0.9012271 -1.6149,-1.9539602 -2.13456,-3.1581995 -0.51966,-1.204283 -0.77927,-2.484319 -0.77949,-3.8400863 2.2e-4,-2.7116 0.9913,-5.064297 2.97391,-7.058092 -3.22958,-2.536141 -4.84448,-5.702325 -4.84448,-9.49853 0,-1.611004 0.3118,-3.126305 0.93539,-4.545882 0.6236,-1.419598 1.4669,-2.663738 2.53013,-3.732418 1.06322,-1.068701 2.31019,-1.91406 3.74113,-2.53614 1.43115,-0.622059 2.95396,-0.933099 4.56864,-0.933099 1.63091,0 3.15766,0.307037 4.58071,0.921133 1.42304,0.614096 2.67001,1.455495 3.74113,2.524175 1.07134,1.06868 1.91464,2.312819 2.53034,3.732418 0.61548,1.419576 0.92311,2.942862 0.92311,4.569813 0,3.812152 -1.60679,6.978336 -4.82036,9.49853 z" />
    <path
       id="path26466-1"
       d="m 433.7688,-41.991242 c 0.3357,0.02188 0.0241,-4.868888 0.79748,-7.496575 1.86464,-5.931509 11.75007,-7.869698 15.41862,-12.093537 6.5289,-7.517575 2.94827,-14.482327 -2.97742,-18.14026 -5.62661,-3.473309 -12.4195,1.626667 -13.09681,2.157025 0,-0.137374 0.0241,-0.27044 0.0351,-0.406655 0.002,-0.02997 0.0219,-0.05863 0.0219,-0.08837 0.83869,-5.300766 7.50002,-7.48857 10.31431,-8.186119 h 1.2939 v -0.282887 h -1.86092 -9.72953 -0.0219 -0.39007 -0.0219 -9.72953 -1.86092 v 0.282887 h 1.2939 c 2.81407,0.697549 9.47561,2.885353 10.31431,8.186119 0,0.02975 0.0219,0.05841 0.0219,0.08837 0.0219,0.141968 0.0263,0.280568 0.0351,0.424352 -0.33197,-0.263265 -4.52808,-3.529964 -9.10922,-3.377015 -1.33578,0.04375 -2.69129,0.40215 -3.98759,1.202293 -5.92569,3.657933 -9.50632,10.622685 -2.97743,18.14026 3.66856,4.223839 13.55399,6.162028 15.41863,12.093537 0.77292,2.627687 0.46178,7.511013 0.79747,7.496575 z"
       style="fill:#000000;fill-opacity:1;stroke:none;stroke-width:2.19008"
       inkscape:connector-curvature="0" />
    <path
       id="path9134"
       d="m 316.99846,-21.337918 c 0.39183,0.02559 0.0285,-5.681522 0.93057,-8.747781 2.17557,-6.921505 13.7112,-9.18318 17.99194,-14.111984 7.61865,-8.77228 3.44052,-16.899468 -3.4745,-21.167932 -6.56573,-4.053017 -14.492,1.898179 -15.28268,2.517044 0,-0.160344 0.0285,-0.315568 0.0417,-0.474534 0,-0.035 0.0263,-0.06847 0.0263,-0.103031 0.97859,-6.185477 8.75204,-8.73844 12.036,-9.552408 h 1.50965 v -0.330093 h -2.17162 -11.35342 -0.0263 -0.45476 -0.0263 -11.35342 -2.17162 v 0.330093 h 1.50965 c 3.28374,0.813968 11.05741,3.366931 12.036,9.552408 0,0.03478 0.0263,0.06825 0.0263,0.103031 0,0.165594 0.0307,0.327403 0.0417,0.495184 -0.38744,-0.307212 -5.28411,-4.119123 -10.62984,-3.940645 -1.55855,0.05097 -3.14056,0.469261 -4.65284,1.402951 -6.91502,4.268464 -11.09293,12.395652 -3.4745,21.167932 4.28074,4.928804 15.81616,7.190479 17.99194,14.111984 0.90185,3.066259 0.53874,8.764624 0.93057,8.747781 z"
       style="fill:#000000;fill-opacity:1;stroke:none;stroke-width:2.19008"
       inkscape:connector-curvature="0" />
    <path
       id="path9136"
       d="m 383.87486,-21.337918 c 0.39183,0.02559 0.0285,-5.681522 0.93057,-8.747781 2.17557,-6.921505 13.71118,-9.18318 17.99192,-14.111984 7.61865,-8.77228 3.44052,-16.899468 -3.4745,-21.167932 -6.5657,-4.053017 -14.49198,1.898179 -15.28266,2.517044 0,-0.160344 0.0285,-0.315568 0.0417,-0.474534 0,-0.035 0.0263,-0.06847 0.0263,-0.103031 0.97859,-6.185477 8.75204,-8.73844 12.03598,-9.552408 h 1.50965 v -0.330093 h -2.17162 -11.3534 -0.0263 -0.45476 -0.0263 -11.35342 -2.17162 v 0.330093 h 1.50965 c 3.28374,0.813968 11.05741,3.366931 12.036,9.552408 0,0.03478 0.0263,0.06825 0.0263,0.103031 0,0.165594 0.0307,0.327403 0.0417,0.495184 -0.38744,-0.307212 -5.28411,-4.119123 -10.62984,-3.940645 -1.55854,0.05097 -3.14056,0.469261 -4.65284,1.402951 -6.91502,4.268464 -11.09293,12.395652 -3.4745,21.167932 4.28075,4.928804 15.81616,7.190479 17.99194,14.111984 0.90185,3.066259 0.53874,8.764624 0.93057,8.747781 z"
       style="fill:#000000;fill-opacity:1;stroke:none;stroke-width:2.19008"
       inkscape:connector-curvature="0" />
    <path
       inkscape:connector-curvature="0"
       style="fill:#000000;fill-opacity:1;stroke:none;stroke-width:2.19008"
       d="m 316.9989,-171.87305 c -0.39183,-0.0256 -0.0285,5.68152 -0.93057,8.74778 -2.17556,6.9215 -13.7112,9.18318 -17.99194,14.11198 -7.61865,8.77228 -3.44052,16.89947 3.4745,21.16793 6.56573,4.05302 14.49201,-1.89818 15.28268,-2.51704 0,0.16034 -0.0285,0.31557 -0.0417,0.47453 0,0.035 -0.0263,0.0685 -0.0263,0.10303 -0.97859,6.18548 -8.75204,8.73844 -12.036,9.55241 h -1.50965 v 0.3301 h 2.17162 11.35342 0.0263 0.45476 0.0263 11.35342 2.17162 v -0.3301 h -1.50965 c -3.28374,-0.81397 -11.05741,-3.36693 -12.036,-9.55241 0,-0.0348 -0.0263,-0.0682 -0.0263,-0.10303 0,-0.16559 -0.0307,-0.3274 -0.0417,-0.49518 0.38744,0.30721 5.28411,4.11912 10.62984,3.94065 1.55855,-0.051 3.14056,-0.46927 4.65284,-1.40296 6.91502,-4.26846 11.09293,-12.39565 3.4745,-21.16793 -4.28074,-4.9288 -15.81615,-7.19048 -17.99194,-14.11198 -0.90184,-3.06626 -0.53874,-8.76463 -0.93057,-8.74778 z"
       id="path9172" />
    <path
       id="path9182"
       d="m 383.8753,-171.87305 c -0.39183,-0.0256 -0.0285,5.68152 -0.93057,8.74778 -2.17556,6.9215 -13.71119,9.18318 -17.99194,14.11198 -7.61865,8.77228 -3.44052,16.89947 3.4745,21.16793 6.56573,4.05302 14.49201,-1.89818 15.28268,-2.51704 0,0.16034 -0.0285,0.31557 -0.0417,0.47453 0,0.035 -0.0263,0.0685 -0.0263,0.10303 -0.97859,6.18548 -8.75204,8.73844 -12.036,9.55241 h -1.50965 v 0.3301 h 2.17162 11.35342 0.0263 0.45476 0.0263 11.3534 2.17162 v -0.3301 h -1.50965 c -3.28372,-0.81397 -11.05739,-3.36693 -12.03598,-9.55241 0,-0.0348 -0.0263,-0.0682 -0.0263,-0.10303 0,-0.16559 -0.0307,-0.3274 -0.0417,-0.49518 0.38744,0.30721 5.28411,4.11912 10.62982,3.94065 1.55855,-0.051 3.14056,-0.46927 4.65284,-1.40296 6.91502,-4.26846 11.09293,-12.39565 3.4745,-21.16793 -4.28074,-4.9288 -15.81613,-7.19048 -17.99192,-14.11198 -0.90184,-3.06626 -0.53874,-8.76463 -0.93057,-8.74778 z"
       style="fill:#000000;fill-opacity:1;stroke:none;stroke-width:2.19008"
       inkscape:connector-curvature="0" />
    <path
       id="path9130"
       d="m 316.9989,-260.24795 c -0.39183,-0.0256 -0.0285,5.68152 -0.93057,8.74778 -2.17556,6.9215 -13.7112,9.18318 -17.99194,14.11198 -7.61865,8.77228 -3.44052,16.89947 3.4745,21.16793 6.56573,4.05302 14.49201,-1.89817 15.28268,-2.51704 0,0.16034 -0.0285,0.31557 -0.0417,0.47453 0,0.035 -0.0263,0.0685 -0.0263,0.10304 -0.97859,6.18547 -8.75204,8.73844 -12.036,9.5524 h -1.50965 v 0.3301 h 2.17162 11.35342 0.0263 0.45476 0.0263 11.35342 2.17162 v -0.3301 h -1.50965 c -3.28374,-0.81396 -11.05741,-3.36693 -12.036,-9.5524 0,-0.0348 -0.0263,-0.0683 -0.0263,-0.10304 0,-0.16559 -0.0307,-0.3274 -0.0417,-0.49518 0.38744,0.30721 5.28411,4.11912 10.62984,3.94065 1.55855,-0.051 3.14056,-0.46927 4.65284,-1.40296 6.91502,-4.26846 11.09293,-12.39565 3.4745,-21.16793 -4.28074,-4.9288 -15.81615,-7.19048 -17.99194,-14.11198 -0.90184,-3.06626 -0.53874,-8.76463 -0.93057,-8.74778 z"
       style="fill:#000000;fill-opacity:1;stroke:none;stroke-width:2.19008"
       inkscape:connector-curvature="0" />
    <path
       id="path9132"
       d="m 383.8753,-260.24795 c -0.39183,-0.0256 -0.0285,5.68152 -0.93057,8.74778 -2.17556,6.9215 -13.71119,9.18318 -17.99194,14.11198 -7.61865,8.77228 -3.44052,16.89947 3.4745,21.16793 6.56573,4.05302 14.49201,-1.89817 15.28268,-2.51704 0,0.16034 -0.0285,0.31557 -0.0417,0.47453 0,0.035 -0.0263,0.0685 -0.0263,0.10304 -0.97859,6.18547 -8.75204,8.73844 -12.036,9.5524 h -1.50965 v 0.3301 h 2.17162 11.35342 0.0263 0.45476 0.0263 11.3534 2.17162 v -0.3301 h -1.50965 c -3.28372,-0.81396 -11.05739,-3.36693 -12.03598,-9.5524 0,-0.0348 -0.0263,-0.0683 -0.0263,-0.10304 0,-0.16559 -0.0307,-0.3274 -0.0417,-0.49518 0.38744,0.30721 5.28411,4.11912 10.62982,3.94065 1.55855,-0.051 3.14056,-0.46927 4.65284,-1.40296 6.91502,-4.26846 11.09293,-12.39565 3.4745,-21.16793 -4.28074,-4.9288 -15.81613,-7.19048 -17.99192,-14.11198 -0.90184,-3.06626 -0.53874,-8.76463 -0.93057,-8.74778 z"
       style="fill:#000000;fill-opacity:1;stroke:none;stroke-width:2.19008"
       inkscape:connector-curvature="0" />
    <path
       inkscape:connector-curvature="0"
       style="fill:#000000;fill-opacity:1;stroke:none;stroke-width:2.19008"
       d="m 316.9989,-260.24795 c -0.39183,-0.0256 -0.0285,5.68152 -0.93057,8.74778 -2.17556,6.9215 -13.7112,9.18318 -17.99194,14.11198 -7.61865,8.77228 -3.44052,16.89947 3.4745,21.16793 6.56573,4.05302 14.49201,-1.89817 15.28268,-2.51704 0,0.16034 -0.0285,0.31557 -0.0417,0.47453 0,0.035 -0.0263,0.0685 -0.0263,0.10304 -0.97859,6.18547 -8.75204,8.73844 -12.036,9.5524 h -1.50965 v 0.3301 h 2.17162 11.35342 0.0263 0.45476 0.0263 11.35342 2.17162 v -0.3301 h -1.50965 c -3.28374,-0.81396 -11.05741,-3.36693 -12.036,-9.5524 0,-0.0348 -0.0263,-0.0683 -0.0263,-0.10304 0,-0.16559 -0.0307,-0.3274 -0.0417,-0.49518 0.38744,0.30721 5.28411,4.11912 10.62984,3.94065 1.55855,-0.051 3.14056,-0.46927 4.65284,-1.40296 6.91502,-4.26846 11.09293,-12.39565 3.4745,-21.16793 -4.28074,-4.9288 -15.81615,-7.19048 -17.99194,-14.11198 -0.90184,-3.06626 -0.53874,-8.76463 -0.93057,-8.74778 z"
       id="path9178" />
    <path
       inkscape:connector-curvature="0"
       style="fill:#000000;fill-opacity:1;stroke:none;stroke-width:2.19008"
       d="m 350.4371,-214.52925 c -0.39183,-0.0256 -0.0285,5.68152 -0.93057,8.74778 -2.17556,6.9215 -13.7112,9.18318 -17.99194,14.11198 -7.61865,8.77228 -3.44052,16.89947 3.4745,21.16793 6.56573,4.05302 14.49201,-1.89818 15.28268,-2.51704 0,0.16034 -0.0285,0.31557 -0.0417,0.47453 0,0.035 -0.0263,0.0685 -0.0263,0.10303 -0.97859,6.18548 -8.75204,8.73844 -12.036,9.55241 h -1.50965 v 0.33009 h 2.17162 11.35342 0.0263 0.45476 0.0263 11.35342 2.17162 v -0.33009 h -1.50965 c -3.28374,-0.81397 -11.05741,-3.36693 -12.036,-9.55241 0,-0.0348 -0.0263,-0.0683 -0.0263,-0.10303 0,-0.16559 -0.0307,-0.3274 -0.0417,-0.49518 0.38744,0.30721 5.28411,4.11912 10.62984,3.94064 1.55855,-0.051 3.14056,-0.46926 4.65284,-1.40295 6.91502,-4.26846 11.09293,-12.39565 3.47451,-21.16793 -4.28075,-4.9288 -15.81616,-7.19048 -17.99195,-14.11198 -0.90184,-3.06626 -0.53874,-8.76463 -0.93057,-8.74778 z"
       id="path9188" />
    <path
       inkscape:connector-curvature="0"
       style="fill:#000000;fill-opacity:1;stroke:none;stroke-width:2.19008"
       d="m 383.87464,-21.337918 c 0.39183,0.02559 0.0285,-5.681522 0.93057,-8.747781 2.17557,-6.921505 13.71118,-9.18318 17.99193,-14.111984 7.61864,-8.77228 3.44051,-16.899468 -3.47451,-21.167932 -6.5657,-4.053017 -14.49198,1.898179 -15.28266,2.517044 0,-0.160344 0.0285,-0.315568 0.0417,-0.474534 0,-0.035 0.0263,-0.06847 0.0263,-0.103031 0.97859,-6.185477 8.75204,-8.73844 12.03598,-9.552408 h 1.50965 v -0.330093 h -2.17162 -11.3534 -0.0263 -0.45476 -0.0263 -11.35342 -2.17162 v 0.330093 h 1.50965 c 3.28375,0.813968 11.05741,3.366931 12.036,9.552408 0,0.03478 0.0263,0.06825 0.0263,0.103031 0,0.165594 0.0307,0.327403 0.0417,0.495184 -0.38744,-0.307212 -5.28411,-4.119123 -10.62983,-3.940645 -1.55855,0.05097 -3.14056,0.469261 -4.65285,1.402951 -6.91502,4.268464 -11.09293,12.395652 -3.4745,21.167932 4.28075,4.928804 15.81616,7.190479 17.99194,14.111984 0.90185,3.066259 0.53874,8.764624 0.93057,8.747781 z"
       id="path9278" />
    <path
       id="path9284"
       d="m 350.43644,-67.056616 c 0.39183,0.02559 0.0285,-5.681522 0.93057,-8.747781 2.17557,-6.921504 13.7112,-9.18318 17.99195,-14.111984 7.61864,-8.77228 3.44051,-16.899469 -3.47451,-21.167929 -6.56572,-4.05302 -14.492,1.89818 -15.28268,2.51704 0,-0.16034 0.0285,-0.31557 0.0417,-0.47453 0,-0.035 0.0263,-0.0685 0.0263,-0.10303 0.97859,-6.18548 8.75204,-8.73844 12.036,-9.55241 h 1.50965 v -0.33009 h -2.17162 -11.35342 -0.0263 -0.45476 -0.0263 -11.35342 -2.17162 v 0.33009 h 1.50965 c 3.28374,0.81397 11.05741,3.36693 12.036,9.55241 0,0.0348 0.0263,0.0682 0.0263,0.10303 0,0.16559 0.0307,0.3274 0.0417,0.49518 -0.38744,-0.30721 -5.28411,-4.11912 -10.62984,-3.94064 -1.55854,0.051 -3.14056,0.46926 -4.65284,1.40295 -6.91502,4.26846 -11.09293,12.395649 -3.4745,21.167929 4.28075,4.928804 15.81616,7.19048 17.99194,14.111984 0.90185,3.066259 0.53874,8.764625 0.93057,8.747781 z"
       style="fill:#000000;fill-opacity:1;stroke:none;stroke-width:2.19008"
       inkscape:connector-curvature="0" />
  </g>
</svg>
