<?xml version="1.0" encoding="UTF-8" standalone="no"?>
<svg
   xmlns:dc="http://purl.org/dc/elements/1.1/"
   xmlns:cc="http://creativecommons.org/ns#"
   xmlns:rdf="http://www.w3.org/1999/02/22-rdf-syntax-ns#"
   xmlns:svg="http://www.w3.org/2000/svg"
   xmlns="http://www.w3.org/2000/svg"
   xmlns:sodipodi="http://sodipodi.sourceforge.net/DTD/sodipodi-0.dtd"
   xmlns:inkscape="http://www.inkscape.org/namespaces/inkscape"
   inkscape:version="1.0 (4035a4fb49, 2020-05-01)"
   sodipodi:docname="9C.svg"
   id="svg38"
   version="1.1"
   width="2.25in"
   viewBox="-106 -164.5 212 329"
   preserveAspectRatio="none"
   height="3.5in"
   face="9C"
   class="card">
  <metadata
     id="metadata44">
    <rdf:RDF>
      <cc:Work
         rdf:about="">
        <dc:format>image/svg+xml</dc:format>
        <dc:type
           rdf:resource="http://purl.org/dc/dcmitype/StillImage" />
      </cc:Work>
    </rdf:RDF>
  </metadata>
  <defs
     id="defs42" />
  <sodipodi:namedview
     inkscape:current-layer="svg38"
     inkscape:window-maximized="1"
     inkscape:window-y="-12"
     inkscape:window-x="-12"
     inkscape:cy="168"
     inkscape:cx="108"
     inkscape:zoom="2.2410714"
     showgrid="false"
     id="namedview40"
     inkscape:window-height="2050"
     inkscape:window-width="3240"
     inkscape:pageshadow="2"
     inkscape:pageopacity="0"
     guidetolerance="10"
     gridtolerance="10"
     objecttolerance="10"
     borderopacity="1"
     bordercolor="#666666"
     pagecolor="#ffffff" />
  <symbol
     preserveAspectRatio="xMinYMid"
     viewBox="-600 -600 1200 1200"
     id="SC9">
    <path
       id="path2"
       fill="black"
       d="M30 150C35 385 85 400 130 500L-130 500C-85 400 -35 385 -30 150A10 10 0 0 0 -50 150A210 210 0 1 1 -124 -51A10 10 0 0 0 -110 -65A230 230 0 1 1 110 -65A10 10 0 0 0 124 -51A210 210 0 1 1 50 150A10 10 0 0 0 30 150Z" />
  </symbol>
  <symbol
     preserveAspectRatio="xMinYMid"
     viewBox="-500 -500 1000 1000"
     id="VC9">
    <path
       id="path5"
       fill="none"
       stroke-miterlimit="1.5"
       stroke-linecap="square"
       stroke-width="80"
       stroke="black"
       d="M250 -100A250 250 0 0 1 -250 -100L-250 -210A250 250 0 0 1 250 -210L250 210A250 250 0 0 1 0 460C-150 460 -180 400 -200 375" />
  </symbol>
  <rect
     id="rect8"
     stroke="black"
     fill="white"
     ry="12"
     rx="12"
     y="-164"
     x="-105.5"
     height="328"
     width="211" />
  <g
     transform="translate(-390.63749,171.92762)"
     id="g930">
    <path
       inkscape:connector-curvature="0"
       id="path26078"
       style="font-style:normal;font-variant:normal;font-weight:bold;font-stretch:normal;font-size:22.4px;line-height:125%;font-family:Comfortaa;-inkscape-font-specification:'Comfortaa Bold';letter-spacing:0px;word-spacing:0px;fill:#000000;fill-opacity:1;stroke:none;stroke-width:2.19008"
       d="m 307.88573,-291.37715 h -0.67161 c -1.61468,3e-5 -3.13354,-0.31102 -4.55659,-0.9331 -1.42282,-0.62205 -2.67001,-1.46343 -3.74113,-2.52417 -1.07134,-1.06067 -1.91858,-2.30481 -2.54218,-3.73242 -0.62359,-1.42754 -0.93539,-2.9548 -0.93539,-4.58178 0,-1.62693 0.3118,-3.15019 0.93539,-4.56981 0.6236,-1.41956 1.47084,-2.6637 2.54218,-3.73242 1.07112,-1.06866 2.31831,-1.91003 3.74113,-2.52417 1.42305,-0.61406 2.94191,-0.92109 4.55659,-0.92114 1.59889,5e-5 3.11381,0.31507 4.54474,0.94507 1.43094,0.63008 2.67791,1.47945 3.74114,2.54808 1.06322,1.06873 1.91069,2.31286 2.54218,3.73242 0.63148,1.41964 0.94723,2.92696 0.94745,4.52197 -2.2e-4,2.37665 -0.6396,4.51401 -1.91859,6.4121 l -11.29575,18.70995 c -0.57558,0.90917 -1.327,1.36376 -2.25428,1.36376 -0.36771,0 -0.70363,-0.0639 -1.00732,-0.19141 -0.3039,-0.12753 -0.57557,-0.31102 -0.81545,-0.55029 -0.23988,-0.23924 -0.42362,-0.51041 -0.55146,-0.81346 -0.12717,-0.30306 -0.19295,-0.62208 -0.19295,-0.95703 -2.2e-4,-0.46257 0.1206,-0.90121 0.3596,-1.31593 z m -7.36254,-11.77147 c 0,0.95705 0.1798,1.84231 0.53962,2.65576 0.35959,0.8135 0.8433,1.51932 1.45088,2.11743 0.60759,0.59817 1.31495,1.0687 2.12251,1.41163 0.80734,0.34296 1.66665,0.51442 2.57792,0.51439 0.92728,3e-5 1.7947,-0.17937 2.60226,-0.53832 0.80734,-0.35886 1.51469,-0.84137 2.12228,-1.44751 0.60759,-0.60609 1.08735,-1.31191 1.43905,-2.11743 0.35171,-0.80548 0.52756,-1.67079 0.52756,-2.59595 0,-0.90914 -0.1798,-1.76649 -0.53962,-2.57201 -0.35982,-0.80546 -0.8433,-1.51128 -1.45089,-2.11744 -0.60759,-0.60609 -1.31516,-1.08858 -2.1225,-1.44751 -0.80734,-0.35883 -1.66665,-0.5383 -2.57814,-0.53832 -0.92728,2e-5 -1.7947,0.17544 -2.60204,0.52636 -0.80734,0.35096 -1.51492,0.82547 -2.12229,1.4236 -0.60758,0.59817 -1.08734,1.29999 -1.43904,2.10547 -0.35171,0.80552 -0.52756,1.67881 -0.52756,2.61985 z" />
    <path
       inkscape:connector-curvature="0"
       id="path11546-5"
       d="m 307.21434,-265.1513 c -6.29954,0 -11.39618,5.10216 -11.39618,11.38706 0,2.46684 0.77204,4.74888 2.10891,6.61296 -4.39104,0.52344 -7.79823,4.09473 -7.79823,8.45189 0,4.71723 3.98342,8.5403 8.8972,8.5403 3.19625,0 5.98138,-1.61986 7.55023,-4.04912 -0.28351,5.58658 -1.49759,11.02916 -5.93753,11.70532 -0.0965,0.0153 -0.19953,0.0431 -0.30105,0.0529 h -0.585 v 0.28291 h 7.46165 7.46165 v -0.28291 h -0.585 c -0.10306,-0.0109 -0.20173,-0.0378 -0.30128,-0.0529 -4.43511,-0.67546 -5.65226,-6.10714 -5.93731,-11.68765 1.57039,2.42222 4.35969,4.03145 7.55046,4.03145 4.91355,0 8.89719,-3.82307 8.89719,-8.5403 0,-4.36259 -3.39951,-7.95315 -7.79866,-8.46955 1.33182,-1.86197 2.12689,-4.13356 2.12689,-6.5953 0,-6.2849 -5.11419,-11.38706 -11.41394,-11.38706 z"
       style="fill:none;stroke:#000000;stroke-width:2.49172;stroke-opacity:1" />
    <path
       inkscape:connector-curvature="0"
       id="path26066"
       style="font-style:normal;font-variant:normal;font-weight:bold;font-stretch:normal;font-size:22.4px;line-height:125%;font-family:Comfortaa;-inkscape-font-specification:'Comfortaa Bold';letter-spacing:0px;word-spacing:0px;fill:#000000;fill-opacity:1;stroke:none;stroke-width:2.19008"
       d="m 473.38926,-52.478095 h 0.67161 c 1.61468,0 3.13355,0.311019 4.55659,0.933099 1.42282,0.622059 2.67001,1.463458 3.74113,2.524175 1.07134,1.060696 1.91859,2.304835 2.54218,3.732418 0.6236,1.427539 0.93539,2.954806 0.93539,4.581779 0,1.62693 -0.31179,3.150193 -0.93539,4.569814 -0.62359,1.419576 -1.47084,2.663715 -2.54218,3.732417 -1.07112,1.068658 -2.31831,1.910057 -3.74113,2.524176 -1.42304,0.614052 -2.94191,0.921111 -4.55659,0.921133 -1.59889,-2.2e-5 -3.11381,-0.315044 -4.54474,-0.945065 -1.43094,-0.630065 -2.67791,-1.479426 -3.74113,-2.548084 -1.06323,-1.068724 -1.91069,-2.312863 -2.54218,-3.732418 -0.63149,-1.41962 -0.94724,-2.926937 -0.94746,-4.521973 2.2e-4,-2.37665 0.63961,-4.51401 1.91859,-6.412102 l 11.29575,-18.709929 c 0.57558,-0.909189 1.32701,-1.363773 2.25429,-1.363773 0.36771,0 0.70362,0.06388 1.00731,0.191406 0.3039,0.127531 0.57557,0.31104 0.81545,0.550287 0.23988,0.239268 0.42362,0.510431 0.55146,0.813487 0.12717,0.303055 0.19295,0.622058 0.19295,0.95703 2.2e-4,0.462546 -0.12059,0.901205 -0.3596,1.315911 z m 7.36254,11.771471 c 0,-0.957052 -0.1798,-1.84231 -0.53961,-2.655753 -0.3596,-0.813508 -0.8433,-1.519305 -1.45089,-2.117432 -0.60759,-0.598171 -1.31495,-1.068702 -2.12251,-1.411614 -0.80734,-0.342956 -1.66664,-0.514434 -2.57792,-0.514412 -0.92728,-2.2e-5 -1.7947,0.179375 -2.60226,0.538343 -0.80734,0.358859 -1.51469,0.841355 -2.12228,1.447489 -0.60759,0.606112 -1.08734,1.311908 -1.43905,2.117432 -0.3517,0.80548 -0.52756,1.670789 -0.52756,2.595947 0,0.909146 0.1798,1.766492 0.53962,2.572016 0.35982,0.80548 0.8433,1.511276 1.45089,2.117432 0.60759,0.60609 1.31516,1.088586 2.1225,1.447511 0.80734,0.358859 1.66665,0.538299 2.57814,0.538321 0.92728,-2.2e-5 1.7947,-0.175437 2.60204,-0.526356 0.80734,-0.35094 1.51492,-0.825474 2.12229,-1.423579 0.60759,-0.598171 1.08734,-1.300008 1.43905,-2.105467 0.3517,-0.805524 0.52755,-1.678816 0.52755,-2.619878 z" />
    <path
       style="fill:none;stroke:#000000;stroke-width:2.49172;stroke-opacity:1"
       d="m 474.06065,-78.703937 c 6.29954,0 11.39618,-5.102163 11.39618,-11.387062 0,-2.466862 -0.77204,-4.748904 -2.10891,-6.61298 4.39104,-0.523424 7.79823,-4.094711 7.79823,-8.451881 0,-4.71725 -3.98342,-8.54031 -8.89719,-8.54031 -3.19604,0 -5.98138,1.61988 -7.55024,4.04914 0.28351,-5.58658 1.49781,-11.02919 5.93753,-11.70534 0.0965,-0.0153 0.19953,-0.0431 0.30105,-0.0529 h 0.58501 v -0.28289 h -7.46166 -7.46165 v 0.28289 h 0.58501 c 0.10305,0.0109 0.20172,0.0378 0.30127,0.0529 4.43511,0.67548 5.65226,6.10716 5.93731,11.68767 -1.57039,-2.42222 -4.35969,-4.03147 -7.55024,-4.03147 -4.91377,0 -8.89741,3.82306 -8.89741,8.54031 0,4.3626 3.39951,7.953132 7.79866,8.469556 -1.33182,1.861955 -2.12688,4.133539 -2.12688,6.595305 0,6.284899 5.11418,11.387062 11.41393,11.387062 z"
       id="path13423"
       inkscape:connector-curvature="0" />
    <path
       inkscape:connector-curvature="0"
       id="path13495"
       d="m 355.55457,-289.94315 c -7.58181,0 -13.71602,6.14076 -13.71602,13.70504 0,2.969 0.92926,5.71558 2.53846,7.95912 -5.28499,0.63 -9.38594,4.92826 -9.38594,10.17237 0,5.67749 4.79449,10.27879 10.70855,10.27879 3.8466,0 7.19897,-1.94961 9.0873,-4.87338 -0.3414,6.7238 -1.80281,13.27431 -7.14635,14.0881 -0.11621,0.0175 -0.24009,0.0518 -0.36244,0.0639 h -0.70407 v 0.34049 h 8.98051 8.98074 v -0.34049 h -0.70407 c -0.12279,-0.0109 -0.24317,-0.0455 -0.36267,-0.0639 -5.33783,-0.81296 -6.80275,-7.35034 -7.1459,-14.06683 1.89008,2.91527 5.24705,4.85211 9.08729,4.85211 5.91407,0 10.70834,-4.6013 10.70834,-10.27879 0,-5.25065 -4.09152,-9.5721 -9.38616,-10.19363 1.60306,-2.24098 2.55994,-4.97498 2.55994,-7.93786 0,-7.56428 -6.15526,-13.70504 -13.73751,-13.70504 z"
       style="fill:#000000;fill-opacity:1;stroke:none;stroke-width:2.19008" />
    <path
       inkscape:connector-curvature="0"
       id="path13499"
       d="m 425.71998,-289.94315 c -7.58181,0 -13.71602,6.14076 -13.71602,13.70504 0,2.969 0.92925,5.71558 2.53823,7.95912 -5.28477,0.63 -9.38572,4.92826 -9.38572,10.17237 0,5.67749 4.79449,10.27879 10.70834,10.27879 3.84682,0 7.19919,-1.94961 9.0873,-4.87338 -0.34118,6.7238 -1.8026,13.27431 -7.14613,14.0881 -0.11621,0.0175 -0.2401,0.0518 -0.36245,0.0639 h -0.70406 v 0.34049 h 8.98051 8.98073 v -0.34049 h -0.70406 c -0.12279,-0.0109 -0.24317,-0.0455 -0.36267,-0.0639 -5.33783,-0.81296 -6.80276,-7.35034 -7.14591,-14.06683 1.89008,2.91527 5.24706,4.85211 9.0873,4.85211 5.91385,0 10.70834,-4.6013 10.70834,-10.27879 0,-5.25065 -4.09153,-9.5721 -9.38616,-10.19363 1.60306,-2.24098 2.55994,-4.97498 2.55994,-7.93786 0,-7.56428 -6.15526,-13.70504 -13.73751,-13.70504 z"
       style="fill:#000000;fill-opacity:1;stroke:none;stroke-width:2.19008" />
    <path
       inkscape:connector-curvature="0"
       id="path13509"
       d="m 355.55479,-50.849656 c 7.58181,0 13.71602,-6.140765 13.71602,-13.705022 0,-2.969025 -0.92925,-5.715603 -2.53823,-7.959122 5.28477,-0.629999 9.38572,-4.928257 9.38572,-10.172366 0,-5.677497 -4.79449,-10.278811 -10.70834,-10.278811 -3.84682,0 -7.19919,1.949629 -9.08729,4.873373 0.34118,-6.723777 1.80259,-13.274286 7.14612,-14.088076 0.11621,-0.0175 0.2401,-0.0518 0.36245,-0.0639 h 0.70407 v -0.34049 h -8.98052 -8.98073 v 0.34049 h 0.70407 c 0.12279,0.0109 0.24316,0.0455 0.36266,0.0639 5.33784,0.81296 6.80276,7.350343 7.14591,14.066813 -1.89008,-2.915277 -5.24706,-4.85211 -9.0873,-4.85211 -5.91384,0 -10.70833,4.601314 -10.70833,10.278811 0,5.250628 4.09152,9.572073 9.38616,10.193628 -1.60306,2.240982 -2.55995,4.974982 -2.55995,7.93786 0,7.564257 6.15526,13.705022 13.73751,13.705022 z"
       style="fill:#000000;fill-opacity:1;stroke:none;stroke-width:2.19008" />
    <path
       inkscape:connector-curvature="0"
       id="path13511"
       d="m 425.7202,-50.849656 c 7.58181,0 13.71602,-6.140765 13.71602,-13.705022 0,-2.969025 -0.92925,-5.715603 -2.53823,-7.959122 5.28477,-0.629999 9.38572,-4.928257 9.38572,-10.172366 0,-5.677497 -4.79449,-10.278811 -10.70834,-10.278811 -3.84682,0 -7.19919,1.949629 -9.0873,4.873373 0.34118,-6.723777 1.80259,-13.274286 7.14613,-14.088076 0.11621,-0.0175 0.2401,-0.0518 0.36245,-0.0639 h 0.70406 v -0.34049 h -8.98051 -8.98073 v 0.34049 h 0.70406 c 0.12279,0.0109 0.24317,0.0455 0.36267,0.0639 5.33783,0.81296 6.80275,7.350343 7.14591,14.066813 -1.89008,-2.915277 -5.24706,-4.85211 -9.0873,-4.85211 -5.91385,0 -10.70834,4.601314 -10.70834,10.278811 0,5.250628 4.09152,9.572073 9.38616,10.193628 -1.60306,2.240982 -2.55994,4.974982 -2.55994,7.93786 0,7.564257 6.15526,13.705022 13.73751,13.705022 z"
       style="fill:#000000;fill-opacity:1;stroke:none;stroke-width:2.19008" />
    <path
       style="fill:#000000;fill-opacity:1;stroke:none;stroke-width:2.19008"
       d="m 355.55457,-227.49012 c -7.58181,0 -13.71602,6.14076 -13.71602,13.70504 0,2.969 0.92926,5.71558 2.53846,7.95912 -5.28499,0.63 -9.38594,4.92826 -9.38594,10.17237 0,5.6775 4.79449,10.27879 10.70855,10.27879 3.8466,0 7.19897,-1.94961 9.0873,-4.87337 -0.3414,6.72379 -1.80281,13.2743 -7.14635,14.08809 -0.11621,0.0175 -0.24009,0.0519 -0.36244,0.0639 h -0.70407 v 0.34048 h 8.98051 8.98074 v -0.34048 h -0.70407 c -0.12279,-0.0109 -0.24317,-0.0455 -0.36267,-0.0639 -5.33783,-0.81296 -6.80275,-7.35034 -7.1459,-14.06683 1.89008,2.91528 5.24705,4.85211 9.08729,4.85211 5.91407,0 10.70834,-4.60129 10.70834,-10.27879 0,-5.25065 -4.09152,-9.5721 -9.38616,-10.19363 1.60306,-2.24098 2.55994,-4.97498 2.55994,-7.93786 0,-7.56428 -6.15526,-13.70504 -13.73751,-13.70504 z"
       id="path13522"
       inkscape:connector-curvature="0" />
    <path
       style="fill:#000000;fill-opacity:1;stroke:none;stroke-width:2.19008"
       d="m 425.71998,-227.49012 c -7.58181,0 -13.71602,6.14076 -13.71602,13.70504 0,2.969 0.92925,5.71558 2.53823,7.95912 -5.28477,0.63 -9.38572,4.92826 -9.38572,10.17237 0,5.6775 4.79449,10.27879 10.70834,10.27879 3.84682,0 7.19919,-1.94961 9.0873,-4.87337 -0.34118,6.72379 -1.8026,13.2743 -7.14613,14.08809 -0.11621,0.0175 -0.2401,0.0519 -0.36245,0.0639 h -0.70406 v 0.34048 h 8.98051 8.98073 v -0.34048 h -0.70406 c -0.12279,-0.0109 -0.24317,-0.0455 -0.36267,-0.0639 -5.33783,-0.81296 -6.80276,-7.35034 -7.14591,-14.06683 1.89008,2.91528 5.24706,4.85211 9.0873,4.85211 5.91385,0 10.70834,-4.60129 10.70834,-10.27879 0,-5.25065 -4.09153,-9.5721 -9.38616,-10.19363 1.60306,-2.24098 2.55994,-4.97498 2.55994,-7.93786 0,-7.56428 -6.15526,-13.70504 -13.73751,-13.70504 z"
       id="path13526"
       inkscape:connector-curvature="0" />
    <path
       style="fill:#000000;fill-opacity:1;stroke:none;stroke-width:2.19008"
       d="m 355.55479,-113.30269 c 7.58181,0 13.71602,-6.14076 13.71602,-13.70502 0,-2.96902 -0.92925,-5.7156 -2.53823,-7.95912 5.28477,-0.63 9.38572,-4.92826 9.38572,-10.17237 0,-5.67749 -4.79449,-10.27881 -10.70834,-10.27881 -3.84682,0 -7.19919,1.94963 -9.08729,4.87337 0.34118,-6.72377 1.80259,-13.27428 7.14612,-14.08807 0.11621,-0.0175 0.2401,-0.0518 0.36245,-0.0639 h 0.70407 v -0.34048 h -8.98052 -8.98073 v 0.34048 h 0.70407 c 0.12279,0.0109 0.24316,0.0455 0.36266,0.0639 5.33784,0.81296 6.80276,7.35034 7.14591,14.06681 -1.89008,-2.91528 -5.24706,-4.85211 -9.0873,-4.85211 -5.91384,0 -10.70833,4.60132 -10.70833,10.27881 0,5.25063 4.09152,9.57208 9.38616,10.19363 -1.60306,2.24098 -2.55995,4.97498 -2.55995,7.93786 0,7.56426 6.15526,13.70502 13.73751,13.70502 z"
       id="path13532"
       inkscape:connector-curvature="0" />
    <path
       style="fill:#000000;fill-opacity:1;stroke:none;stroke-width:2.19008"
       d="m 425.7202,-113.30269 c 7.58181,0 13.71602,-6.14076 13.71602,-13.70502 0,-2.96902 -0.92925,-5.7156 -2.53823,-7.95912 5.28477,-0.63 9.38572,-4.92826 9.38572,-10.17237 0,-5.67749 -4.79449,-10.27881 -10.70834,-10.27881 -3.84682,0 -7.19919,1.94963 -9.0873,4.87337 0.34118,-6.72377 1.80259,-13.27428 7.14613,-14.08807 0.11621,-0.0175 0.2401,-0.0518 0.36245,-0.0639 h 0.70406 v -0.34048 h -8.98051 -8.98073 v 0.34048 h 0.70406 c 0.12279,0.0109 0.24317,0.0455 0.36267,0.0639 5.33783,0.81296 6.80275,7.35034 7.14591,14.06681 -1.89008,-2.91528 -5.24706,-4.85211 -9.0873,-4.85211 -5.91385,0 -10.70834,4.60132 -10.70834,10.27881 0,5.25063 4.09152,9.57208 9.38616,10.19363 -1.60306,2.24098 -2.55994,4.97498 -2.55994,7.93786 0,7.56426 6.15526,13.70502 13.73751,13.70502 z"
       id="path13534"
       inkscape:connector-curvature="0" />
    <path
       style="fill:#000000;fill-opacity:1;stroke:none;stroke-width:2.19008"
       d="m 390.63728,-195.73997 c -7.58181,0 -13.71581,6.14076 -13.71581,13.70504 0,2.969 0.92926,5.71558 2.53824,7.95912 -5.28499,0.63 -9.38572,4.92826 -9.38572,10.17237 0,5.67749 4.79427,10.27879 10.70834,10.27879 3.84681,0 7.19897,-1.94961 9.08729,-4.87338 -0.3414,6.7238 -1.80259,13.27431 -7.14612,14.0881 -0.11622,0.0175 -0.24032,0.0518 -0.36245,0.0639 h -0.70407 v 0.34049 h 8.9803 8.98073 v -0.34049 h -0.70407 c -0.12279,-0.0109 -0.24316,-0.0455 -0.36266,-0.0639 -5.33784,-0.81296 -6.80276,-7.35034 -7.14591,-14.06683 1.89008,2.91527 5.24727,4.85211 9.0873,4.85211 5.91406,0 10.70833,-4.6013 10.70833,-10.27879 0,-5.25065 -4.0913,-9.5721 -9.38594,-10.19363 1.60306,-2.24098 2.55995,-4.97498 2.55995,-7.93786 0,-7.56428 -6.15548,-13.70504 -13.73773,-13.70504 z"
       id="path13552"
       inkscape:connector-curvature="0" />
  </g>
</svg>
