<?xml version="1.0" encoding="UTF-8" standalone="no"?>
<svg
   xmlns:dc="http://purl.org/dc/elements/1.1/"
   xmlns:cc="http://creativecommons.org/ns#"
   xmlns:rdf="http://www.w3.org/1999/02/22-rdf-syntax-ns#"
   xmlns:svg="http://www.w3.org/2000/svg"
   xmlns="http://www.w3.org/2000/svg"
   xmlns:sodipodi="http://sodipodi.sourceforge.net/DTD/sodipodi-0.dtd"
   xmlns:inkscape="http://www.inkscape.org/namespaces/inkscape"
   inkscape:version="1.0 (4035a4fb49, 2020-05-01)"
   sodipodi:docname="9D.svg"
   id="svg38"
   version="1.1"
   width="2.25in"
   viewBox="-106 -164.5 212 329"
   preserveAspectRatio="none"
   height="3.5in"
   face="9D"
   class="card">
  <metadata
     id="metadata44">
    <rdf:RDF>
      <cc:Work
         rdf:about="">
        <dc:format>image/svg+xml</dc:format>
        <dc:type
           rdf:resource="http://purl.org/dc/dcmitype/StillImage" />
      </cc:Work>
    </rdf:RDF>
  </metadata>
  <defs
     id="defs42" />
  <sodipodi:namedview
     inkscape:current-layer="svg38"
     inkscape:window-maximized="1"
     inkscape:window-y="-12"
     inkscape:window-x="-12"
     inkscape:cy="168"
     inkscape:cx="108"
     inkscape:zoom="2.2410714"
     showgrid="false"
     id="namedview40"
     inkscape:window-height="2050"
     inkscape:window-width="3240"
     inkscape:pageshadow="2"
     inkscape:pageopacity="0"
     guidetolerance="10"
     gridtolerance="10"
     objecttolerance="10"
     borderopacity="1"
     bordercolor="#666666"
     pagecolor="#ffffff" />
  <symbol
     preserveAspectRatio="xMinYMid"
     viewBox="-600 -600 1200 1200"
     id="SD9">
    <path
       id="path2"
       fill="red"
       d="M-400 0C-350 0 0 -450 0 -500C0 -450 350 0 400 0C350 0 0 450 0 500C0 450 -350 0 -400 0Z" />
  </symbol>
  <symbol
     preserveAspectRatio="xMinYMid"
     viewBox="-500 -500 1000 1000"
     id="VD9">
    <path
       id="path5"
       fill="none"
       stroke-miterlimit="1.5"
       stroke-linecap="square"
       stroke-width="80"
       stroke="red"
       d="M250 -100A250 250 0 0 1 -250 -100L-250 -210A250 250 0 0 1 250 -210L250 210A250 250 0 0 1 0 460C-150 460 -180 400 -200 375" />
  </symbol>
  <rect
     id="rect8"
     stroke="black"
     fill="white"
     ry="12"
     rx="12"
     y="-164"
     x="-105.5"
     height="328"
     width="211" />
  <g
     transform="translate(-239.10621,169.74306)"
     id="g930">
    <path
       inkscape:connector-curvature="0"
       id="path26072"
       style="font-style:normal;font-variant:normal;font-weight:bold;font-stretch:normal;font-size:22.4px;line-height:125%;font-family:Comfortaa;-inkscape-font-specification:'Comfortaa Bold';letter-spacing:0px;word-spacing:0px;fill:#ff0000;fill-opacity:1;stroke:none;stroke-width:2.19008"
       d="m 156.35433,-289.19266 h -0.67161 c -1.61468,2e-5 -3.13354,-0.31102 -4.55659,-0.9331 -1.42282,-0.62206 -2.67001,-1.46344 -3.74113,-2.52415 -1.07134,-1.0607 -1.91858,-2.30484 -2.54218,-3.73242 -0.62359,-1.42756 -0.93539,-2.95481 -0.93539,-4.5818 0,-1.62691 0.3118,-3.1502 0.93539,-4.56982 0.6236,-1.41955 1.47084,-2.66369 2.54218,-3.73241 1.07112,-1.06864 2.31831,-1.91004 3.74113,-2.52416 1.42305,-0.61407 2.94191,-0.92111 4.55659,-0.92115 1.59889,4e-5 3.11381,0.31506 4.54474,0.94506 1.43094,0.63009 2.67791,1.47945 3.74114,2.54811 1.06322,1.0687 1.91069,2.31284 2.54218,3.73242 0.63148,1.41962 0.94723,2.92693 0.94745,4.52195 -2.2e-4,2.37665 -0.6396,4.51403 -1.91859,6.4121 l -11.29575,18.70995 c -0.57558,0.90917 -1.327,1.36377 -2.25428,1.36377 -0.36771,0 -0.70363,-0.0639 -1.00732,-0.1914 -0.3039,-0.12753 -0.57557,-0.31104 -0.81545,-0.55031 -0.23988,-0.23925 -0.42362,-0.51041 -0.55146,-0.81347 -0.12717,-0.30305 -0.19295,-0.62206 -0.19295,-0.95703 -2.2e-4,-0.46256 0.1206,-0.9012 0.3596,-1.31591 z m -7.36254,-11.77147 c 0,0.95707 0.1798,1.84231 0.53962,2.65577 0.35959,0.81349 0.8433,1.51931 1.45088,2.11743 0.60759,0.59815 1.31495,1.06871 2.12251,1.41162 0.80734,0.34295 1.66665,0.51441 2.57792,0.51439 0.92728,2e-5 1.7947,-0.17938 2.60226,-0.53832 0.80734,-0.35886 1.51469,-0.84136 2.12228,-1.44751 0.60759,-0.60609 1.08735,-1.31191 1.43905,-2.11744 0.35171,-0.80545 0.52756,-1.67078 0.52756,-2.59594 0,-0.90915 -0.1798,-1.76647 -0.53962,-2.57202 -0.35982,-0.80546 -0.8433,-1.51128 -1.45089,-2.11741 -0.60759,-0.60609 -1.31516,-1.08861 -2.1225,-1.44751 -0.80734,-0.35886 -1.66665,-0.5383 -2.57814,-0.53834 -0.92728,4e-5 -1.7947,0.17543 -2.60204,0.52637 -0.80734,0.35094 -1.51492,0.82548 -2.12229,1.42358 -0.60758,0.59818 -1.08734,1.29999 -1.43904,2.10547 -0.35171,0.80552 -0.52756,1.67882 -0.52756,2.61986 z" />
    <path
       style="fill:none;stroke:#ff0000;stroke-width:2.19008;stroke-opacity:1"
       d="m 139.17653,-245.41163 16.50663,-20.64873 16.50641,20.64871 -16.50663,24.17093 z"
       id="path11644-9"
       inkscape:connector-curvature="0"
       sodipodi:nodetypes="ccccc" />
    <path
       inkscape:connector-curvature="0"
       id="path26060"
       style="font-style:normal;font-variant:normal;font-weight:bold;font-stretch:normal;font-size:22.4px;line-height:125%;font-family:Comfortaa;-inkscape-font-specification:'Comfortaa Bold';letter-spacing:0px;word-spacing:0px;fill:#ff0000;fill-opacity:1;stroke:none;stroke-width:2.19008"
       d="m 321.85786,-50.293457 h 0.67161 c 1.61468,-2.2e-5 3.13355,0.311018 4.55659,0.933099 1.42282,0.622059 2.67001,1.463436 3.74113,2.524175 1.07134,1.060674 1.91859,2.304813 2.54218,3.732396 0.6236,1.427561 0.93539,2.954806 0.93539,4.581801 0,1.626907 -0.31179,3.150193 -0.93539,4.569813 -0.62359,1.419555 -1.47084,2.663694 -2.54218,3.732418 -1.07112,1.068636 -2.31831,1.910035 -3.74113,2.524153 -1.42304,0.614075 -2.94191,0.921112 -4.55659,0.921156 -1.59889,-4.4e-5 -3.11381,-0.315066 -4.54474,-0.945065 -1.43094,-0.630087 -2.67791,-1.479448 -3.74113,-2.548106 -1.06323,-1.068702 -1.91069,-2.312842 -2.54218,-3.732418 -0.63149,-1.41962 -0.94724,-2.926937 -0.94746,-4.521951 2.2e-4,-2.37665 0.63961,-4.514032 1.91859,-6.412102 l 11.29575,-18.709951 c 0.57558,-0.909167 1.32701,-1.363773 2.25429,-1.363773 0.36771,0 0.70362,0.06387 1.00731,0.191406 0.3039,0.127531 0.57557,0.31104 0.81545,0.550309 0.23988,0.239246 0.42362,0.510409 0.55146,0.813464 0.12717,0.303056 0.19295,0.622081 0.19295,0.957031 2.2e-4,0.462568 -0.12059,0.901205 -0.3596,1.315911 z m 7.36254,11.771471 c 0,-0.957074 -0.1798,-1.84231 -0.53961,-2.655775 -0.3596,-0.813487 -0.8433,-1.519305 -1.45089,-2.117432 -0.60759,-0.598149 -1.31495,-1.068702 -2.12251,-1.411614 -0.80734,-0.342956 -1.66664,-0.514412 -2.57792,-0.51439 -0.92728,-2.2e-5 -1.7947,0.179375 -2.60226,0.538321 -0.80734,0.358859 -1.51469,0.841377 -2.12228,1.447511 -0.60759,0.60609 -1.08734,1.311908 -1.43905,2.117432 -0.3517,0.80548 -0.52756,1.670789 -0.52756,2.595947 0,0.909146 0.1798,1.766492 0.53962,2.572016 0.35982,0.805458 0.8433,1.511276 1.45089,2.117432 0.60759,0.606068 1.31516,1.088586 2.1225,1.447489 0.80734,0.358859 1.66665,0.538299 2.57814,0.538343 0.92728,-4.4e-5 1.7947,-0.175438 2.60204,-0.526378 0.80734,-0.35094 1.51492,-0.825452 2.12229,-1.423579 0.60759,-0.598172 1.08734,-1.299986 1.43905,-2.105467 0.3517,-0.805524 0.52755,-1.678817 0.52755,-2.619856 z" />
    <path
       sodipodi:nodetypes="ccccc"
       inkscape:connector-curvature="0"
       id="path13443"
       d="m 339.03588,-94.074513 -16.50663,20.648729 -16.50641,-20.648707 16.50663,-24.170929 z"
       style="fill:none;stroke:#ff0000;stroke-width:2.19008;stroke-opacity:1" />
    <path
       sodipodi:nodetypes="ccccc"
       inkscape:connector-curvature="0"
       id="path13592"
       d="m 184.77593,-261.80231 19.24746,-24.07734 19.24725,24.07732 -19.24747,28.1844 z"
       style="fill:#ff0000;fill-opacity:1;stroke:none;stroke-width:2.19008" />
    <path
       sodipodi:nodetypes="ccccc"
       inkscape:connector-curvature="0"
       id="path13594"
       d="m 254.94133,-261.80231 19.24769,-24.07734 19.24703,24.07732 -19.24747,28.1844 z"
       style="fill:#ff0000;fill-opacity:1;stroke:none;stroke-width:2.19008" />
    <path
       sodipodi:nodetypes="ccccc"
       inkscape:connector-curvature="0"
       id="path13600"
       d="m 223.27064,-76.371205 -19.24747,24.077347 -19.24724,-24.077325 19.24746,-28.184397 z"
       style="fill:#ff0000;fill-opacity:1;stroke:none;stroke-width:2.19008" />
    <path
       sodipodi:nodetypes="ccccc"
       inkscape:connector-curvature="0"
       id="path13602"
       d="m 293.43605,-76.371205 -19.24747,24.077347 -19.24725,-24.077325 19.24747,-28.184397 z"
       style="fill:#ff0000;fill-opacity:1;stroke:none;stroke-width:2.19008" />
    <path
       style="fill:#ff0000;fill-opacity:1;stroke:none;stroke-width:2.19008"
       d="m 184.77593,-201.36094 19.24746,-24.07735 19.24725,24.07733 -19.24747,28.18439 z"
       id="path13610"
       inkscape:connector-curvature="0"
       sodipodi:nodetypes="ccccc" />
    <path
       style="fill:#ff0000;fill-opacity:1;stroke:none;stroke-width:2.19008"
       d="m 254.94133,-201.36094 19.24769,-24.07735 19.24703,24.07733 -19.24747,28.18439 z"
       id="path13612"
       inkscape:connector-curvature="0"
       sodipodi:nodetypes="ccccc" />
    <path
       style="fill:#ff0000;fill-opacity:1;stroke:none;stroke-width:2.19008"
       d="m 223.27064,-136.81257 -19.24747,24.07735 -19.24724,-24.07733 19.24746,-28.18439 z"
       id="path13616"
       inkscape:connector-curvature="0"
       sodipodi:nodetypes="ccccc" />
    <path
       style="fill:#ff0000;fill-opacity:1;stroke:none;stroke-width:2.19008"
       d="m 293.43605,-136.81257 -19.24747,24.07735 -19.24725,-24.07733 19.24747,-28.18439 z"
       id="path13618"
       inkscape:connector-curvature="0"
       sodipodi:nodetypes="ccccc" />
    <path
       style="fill:#ff0000;fill-opacity:1;stroke:none;stroke-width:2.19008"
       d="m 219.85885,-171.79656 19.24747,-24.07735 19.24702,24.07733 -19.24724,28.18439 z"
       id="path13628"
       inkscape:connector-curvature="0"
       sodipodi:nodetypes="ccccc" />
  </g>
</svg>
