<?xml version="1.0" encoding="UTF-8" standalone="no"?>
<svg
   xmlns:dc="http://purl.org/dc/elements/1.1/"
   xmlns:cc="http://creativecommons.org/ns#"
   xmlns:rdf="http://www.w3.org/1999/02/22-rdf-syntax-ns#"
   xmlns:svg="http://www.w3.org/2000/svg"
   xmlns="http://www.w3.org/2000/svg"
   xmlns:sodipodi="http://sodipodi.sourceforge.net/DTD/sodipodi-0.dtd"
   xmlns:inkscape="http://www.inkscape.org/namespaces/inkscape"
   inkscape:version="1.0 (4035a4fb49, 2020-05-01)"
   sodipodi:docname="9H.svg"
   id="svg38"
   version="1.1"
   width="2.25in"
   viewBox="-106 -164.5 212 329"
   preserveAspectRatio="none"
   height="3.5in"
   face="9H"
   class="card">
  <metadata
     id="metadata44">
    <rdf:RDF>
      <cc:Work
         rdf:about="">
        <dc:format>image/svg+xml</dc:format>
        <dc:type
           rdf:resource="http://purl.org/dc/dcmitype/StillImage" />
      </cc:Work>
    </rdf:RDF>
  </metadata>
  <defs
     id="defs42" />
  <sodipodi:namedview
     inkscape:current-layer="svg38"
     inkscape:window-maximized="1"
     inkscape:window-y="-12"
     inkscape:window-x="-12"
     inkscape:cy="168"
     inkscape:cx="108"
     inkscape:zoom="2.2410714"
     showgrid="false"
     id="namedview40"
     inkscape:window-height="2050"
     inkscape:window-width="3240"
     inkscape:pageshadow="2"
     inkscape:pageopacity="0"
     guidetolerance="10"
     gridtolerance="10"
     objecttolerance="10"
     borderopacity="1"
     bordercolor="#666666"
     pagecolor="#ffffff" />
  <symbol
     preserveAspectRatio="xMinYMid"
     viewBox="-600 -600 1200 1200"
     id="SH9">
    <path
       id="path2"
       fill="red"
       d="M0 -300C0 -400 100 -500 200 -500C300 -500 400 -400 400 -250C400 0 0 400 0 500C0 400 -400 0 -400 -250C-400 -400 -300 -500 -200 -500C-100 -500 0 -400 -0 -300Z" />
  </symbol>
  <symbol
     preserveAspectRatio="xMinYMid"
     viewBox="-500 -500 1000 1000"
     id="VH9">
    <path
       id="path5"
       fill="none"
       stroke-miterlimit="1.5"
       stroke-linecap="square"
       stroke-width="80"
       stroke="red"
       d="M250 -100A250 250 0 0 1 -250 -100L-250 -210A250 250 0 0 1 250 -210L250 210A250 250 0 0 1 0 460C-150 460 -180 400 -200 375" />
  </symbol>
  <rect
     id="rect8"
     stroke="black"
     fill="white"
     ry="12"
     rx="12"
     y="-164"
     x="-105.5"
     height="328"
     width="211" />
  <g
     transform="translate(-256.6242,22.06433)"
     id="g930">
    <path
       inkscape:connector-curvature="0"
       id="path26075"
       style="font-style:normal;font-variant:normal;font-weight:bold;font-stretch:normal;font-size:22.4px;line-height:125%;font-family:Comfortaa;-inkscape-font-specification:'Comfortaa Bold';letter-spacing:0px;word-spacing:0px;fill:#ff0000;fill-opacity:1;stroke:none;stroke-width:2.19008"
       d="m 173.87243,-141.51386 h -0.67161 c -1.61468,2e-5 -3.13354,-0.31102 -4.55659,-0.9331 -1.42282,-0.62206 -2.67001,-1.46344 -3.74113,-2.52416 -1.07134,-1.06069 -1.91858,-2.30483 -2.54218,-3.73241 -0.62359,-1.42757 -0.93539,-2.95481 -0.93539,-4.58181 0,-1.6269 0.3118,-3.15019 0.93539,-4.56981 0.6236,-1.41955 1.47084,-2.66369 2.54218,-3.73242 1.07112,-1.06863 2.31831,-1.91003 3.74113,-2.52415 1.42305,-0.61407 2.94191,-0.92111 4.55659,-0.92116 1.59889,5e-5 3.11381,0.31507 4.54474,0.94507 1.43094,0.63009 2.67791,1.47945 3.74114,2.54811 1.06322,1.0687 1.91069,2.31284 2.54218,3.73241 0.63148,1.41962 0.94723,2.92694 0.94745,4.52195 -2.2e-4,2.37665 -0.6396,4.51404 -1.91859,6.41211 l -11.29575,18.70995 c -0.57558,0.90916 -1.327,1.36377 -2.25428,1.36377 -0.36771,0 -0.70363,-0.0639 -1.00732,-0.19141 -0.3039,-0.12753 -0.57557,-0.31104 -0.81545,-0.5503 -0.23988,-0.23925 -0.42362,-0.51041 -0.55146,-0.81347 -0.12717,-0.30306 -0.19295,-0.62206 -0.19295,-0.95703 -2.2e-4,-0.46257 0.1206,-0.9012 0.3596,-1.31591 z m -7.36254,-11.77148 c 0,0.95708 0.1798,1.84231 0.53962,2.65578 0.35959,0.81349 0.8433,1.5193 1.45088,2.11743 0.60759,0.59815 1.31495,1.0687 2.12251,1.41162 0.80734,0.34295 1.66665,0.51441 2.57792,0.51439 0.92728,2e-5 1.7947,-0.17938 2.60226,-0.53833 0.80734,-0.35885 1.51469,-0.84135 2.12228,-1.44751 0.60759,-0.60609 1.08735,-1.3119 1.43905,-2.11743 0.35171,-0.80546 0.52756,-1.67079 0.52756,-2.59595 0,-0.90914 -0.1798,-1.76647 -0.53962,-2.57201 -0.35982,-0.80546 -0.8433,-1.51128 -1.45089,-2.11743 -0.60759,-0.60607 -1.31516,-1.08859 -2.1225,-1.44749 -0.80734,-0.35886 -1.66665,-0.5383 -2.57814,-0.53835 -0.92728,5e-5 -1.7947,0.17544 -2.60204,0.52638 -0.80734,0.35094 -1.51492,0.82548 -2.12229,1.42358 -0.60758,0.59817 -1.08734,1.29999 -1.43904,2.10547 -0.35171,0.80552 -0.52756,1.67881 -0.52756,2.61985 z" />
    <path
       style="fill:#ff0000;fill-opacity:1;stroke:none;stroke-width:2.19008"
       d="m 163.95938,-110.90795 c -1.33534,0.0446 -2.6915,0.38788 -3.98759,1.1879 -5.92459,3.65721 -9.51838,10.633706 -2.99058,18.149925 3.66746,4.22292 13.55968,6.155706 15.42367,12.086121 0.77292,2.627293 0.45366,7.500994 0.78914,7.486491 0.3357,0.01531 0.0307,-4.859198 0.80318,-7.486491 1.86398,-5.930415 11.75621,-7.863201 15.42367,-12.086121 6.52779,-7.516219 2.93401,-14.492715 -2.99058,-18.149925 -5.92481,-3.65717 -13.20842,2.26528 -13.20842,2.26528 l -0.0417,0.0551 v -0.0551 c 0,0 -4.45222,-3.61248 -9.22105,-3.45318 z"
       id="path11600-2"
       inkscape:connector-curvature="0"
       sodipodi:nodetypes="csscccssccccc" />
    <path
       inkscape:connector-curvature="0"
       id="path26063"
       style="font-style:normal;font-variant:normal;font-weight:bold;font-stretch:normal;font-size:22.4px;line-height:125%;font-family:Comfortaa;-inkscape-font-specification:'Comfortaa Bold';letter-spacing:0px;word-spacing:0px;fill:#ff0000;fill-opacity:1;stroke:none;stroke-width:2.19008"
       d="m 339.37596,97.385209 h 0.67161 c 1.61468,-2.2e-5 3.13355,0.311019 4.55659,0.933099 1.42282,0.622059 2.67001,1.463436 3.74113,2.524152 1.07134,1.0607 1.91859,2.30484 2.54218,3.73242 0.6236,1.42756 0.93539,2.95481 0.93539,4.5818 0,1.62691 -0.31179,3.15019 -0.93539,4.56981 -0.62359,1.41956 -1.47084,2.6637 -2.54218,3.73242 -1.07112,1.06864 -2.31831,1.91004 -3.74113,2.52415 -1.42304,0.61408 -2.94191,0.92112 -4.55659,0.92116 -1.59889,-4e-5 -3.11381,-0.31507 -4.54474,-0.94506 -1.43094,-0.63009 -2.67791,-1.47945 -3.74113,-2.54811 -1.06323,-1.0687 -1.91069,-2.31284 -2.54218,-3.73242 -0.63149,-1.41962 -0.94724,-2.92694 -0.94746,-4.52195 2.2e-4,-2.37665 0.63961,-4.51403 1.91859,-6.4121 L 341.4864,84.034627 c 0.57558,-0.909167 1.32701,-1.363773 2.25429,-1.363773 0.36771,0 0.70362,0.06387 1.00731,0.191406 0.3039,0.127531 0.57557,0.31104 0.81545,0.550309 0.23988,0.239246 0.42362,0.510409 0.55146,0.813465 0.12717,0.303055 0.19295,0.622058 0.19295,0.95703 2.2e-4,0.462568 -0.12059,0.901205 -0.3596,1.315911 z m 7.36254,11.771471 c 0,-0.95707 -0.1798,-1.84231 -0.53961,-2.65578 -0.3596,-0.81348 -0.8433,-1.5193 -1.45089,-2.11743 -0.60759,-0.59815 -1.31495,-1.0687 -2.12251,-1.41161 -0.80734,-0.34296 -1.66664,-0.51441 -2.57792,-0.51439 -0.92728,-2e-5 -1.7947,0.17937 -2.60226,0.53832 -0.80734,0.35886 -1.51469,0.84136 -2.12228,1.44751 -0.60759,0.60609 -1.08734,1.31191 -1.43905,2.11743 -0.3517,0.80546 -0.52756,1.67079 -0.52756,2.59595 0,0.90915 0.1798,1.76647 0.53962,2.57202 0.35982,0.80545 0.8433,1.51127 1.45089,2.11741 0.60759,0.60609 1.31516,1.0886 2.1225,1.44751 0.80734,0.35886 1.66665,0.5383 2.57814,0.53834 0.92728,-4e-5 1.7947,-0.17544 2.60204,-0.52638 0.80734,-0.35094 1.51492,-0.82547 2.12229,-1.42358 0.60759,-0.59817 1.08734,-1.29998 1.43905,-2.10546 0.3517,-0.80553 0.52755,-1.67882 0.52755,-2.61986 z" />
    <path
       sodipodi:nodetypes="csscccssccccc"
       inkscape:connector-curvature="0"
       id="path13433"
       d="m 349.28923,66.779166 c 1.33512,-0.04463 2.69129,-0.387887 3.98737,-1.187899 5.92459,-3.657211 9.51838,-10.633709 2.99058,-18.149929 -3.66745,-4.22292 -13.55946,-6.155705 -15.42367,-12.08612 -0.77291,-2.627294 -0.45366,-7.500995 -0.78914,-7.486492 -0.3357,-0.01531 -0.0307,4.859198 -0.80317,7.486492 -1.86399,5.930415 -11.75622,7.8632 -15.42368,12.08612 -6.52779,7.51622 -2.93401,14.492718 2.99059,18.149929 5.92481,3.657168 13.20841,-2.265285 13.20841,-2.265285 l 0.0417,-0.05513 v 0.05513 c 0,0 4.45222,3.612478 9.22105,3.453184 z"
       style="fill:#ff0000;fill-opacity:1;stroke:none;stroke-width:2.19008" />
    <path
       style="fill:#ff0000;fill-opacity:1;stroke:none;stroke-width:2.19008"
       d="m 214.67866,-140.37921 c -1.82299,0.061 -3.67469,0.52962 -5.44418,1.62194 -8.08941,4.99345 -12.99617,14.51899 -4.08341,24.78144 5.00762,5.76585 18.5138,8.40482 21.05905,16.502065 1.05534,3.587233 0.61943,10.241666 1.07748,10.221848 0.45827,0.02188 0.0417,-6.634615 1.09634,-10.221848 2.54547,-8.097245 16.05165,-10.736215 21.05948,-16.502065 8.91277,-10.26245 4.00601,-19.78799 -4.0834,-24.78144 -8.08942,-4.9934 -18.03449,3.09295 -18.03449,3.09295 l -0.057,0.0753 v -0.0753 c 0,0 -6.07896,-4.93237 -12.59009,-4.71489 z"
       id="path13554"
       inkscape:connector-curvature="0"
       sodipodi:nodetypes="csscccssccccc" />
    <path
       style="fill:#ff0000;fill-opacity:1;stroke:none;stroke-width:2.19008"
       d="m 273.33255,-140.37921 c -1.82298,0.061 -3.67469,0.52962 -5.44418,1.62194 -8.08941,4.99345 -12.99616,14.51899 -4.0834,24.78144 5.00761,5.76585 18.51402,8.40482 21.05905,16.502065 1.05533,3.587233 0.61943,10.241666 1.07769,10.221848 0.45805,0.02188 0.0417,-6.634615 1.09634,-10.221848 2.54525,-8.097245 16.05165,-10.736215 21.05927,-16.502065 8.91276,-10.26245 4.006,-19.78799 -4.08341,-24.78144 -8.08941,-4.9934 -18.03448,3.09295 -18.03448,3.09295 l -0.057,0.0753 v -0.0753 c 0,0 -6.07896,-4.93237 -12.59009,-4.71489 z"
       id="path13556"
       inkscape:connector-curvature="0"
       sodipodi:nodetypes="csscccssccccc" />
    <path
       style="fill:#ff0000;fill-opacity:1;stroke:none;stroke-width:2.19008"
       d="m 239.9154,88.375323 c 1.82321,-0.06103 3.67491,-0.529615 5.4444,-1.621942 8.08941,-4.993445 12.99617,-14.51899 4.08341,-24.781438 -5.00762,-5.765849 -18.5138,-8.404824 -21.05927,-16.502065 -1.05512,-3.587234 -0.61921,-10.241667 -1.07748,-10.221848 -0.45827,-0.02188 -0.0417,6.634614 -1.09634,10.221848 -2.54525,8.097241 -16.05165,10.736216 -21.05926,16.502065 -8.91277,10.262448 -4.00601,19.787993 4.08318,24.781438 8.08964,4.9934 18.0347,-3.092947 18.0347,-3.092947 l 0.057,-0.07525 v 0.07525 c 0,0 6.07874,4.93237 12.59009,4.714889 z"
       id="path13562"
       inkscape:connector-curvature="0"
       sodipodi:nodetypes="csscccssccccc" />
    <path
       style="fill:#ff0000;fill-opacity:1;stroke:none;stroke-width:2.19008"
       d="m 298.56929,88.375323 c 1.82321,-0.06103 3.67492,-0.529615 5.4444,-1.621942 8.08941,-4.993445 12.99617,-14.51899 4.08341,-24.781438 -5.00762,-5.765849 -18.51402,-8.404824 -21.05927,-16.502065 -1.05511,-3.587234 -0.61921,-10.241667 -1.07748,-10.221848 -0.45827,-0.02188 -0.0417,6.634614 -1.09633,10.221848 -2.54525,8.097241 -16.05165,10.736216 -21.05927,16.502065 -8.91276,10.262448 -4.00601,19.787993 4.08319,24.781438 8.08963,4.9934 18.0347,-3.092947 18.0347,-3.092947 l 0.057,-0.07525 v 0.07525 c 0,0 6.07873,4.93237 12.59008,4.714889 z"
       id="path13564"
       inkscape:connector-curvature="0"
       sodipodi:nodetypes="csscccssccccc" />
    <path
       sodipodi:nodetypes="csscccssccccc"
       inkscape:connector-curvature="0"
       id="path13572"
       d="m 214.67866,-86.209509 c -1.82299,0.06103 -3.67469,0.529615 -5.44418,1.621942 -8.08941,4.993444 -12.99617,14.518989 -4.08341,24.781437 5.00762,5.76585 18.5138,8.404825 21.05905,16.502066 1.05534,3.587233 0.61943,10.241666 1.07748,10.221847 0.45827,0.02188 0.0417,-6.634614 1.09634,-10.221847 2.54547,-8.097241 16.05165,-10.736216 21.05948,-16.502066 8.91277,-10.262448 4.00601,-19.787993 -4.0834,-24.781437 -8.08942,-4.993401 -18.03449,3.092946 -18.03449,3.092946 l -0.057,0.07525 v -0.07525 c 0,0 -6.07896,-4.932369 -12.59009,-4.714888 z"
       style="fill:#ff0000;fill-opacity:1;stroke:none;stroke-width:2.19008" />
    <path
       sodipodi:nodetypes="csscccssccccc"
       inkscape:connector-curvature="0"
       id="path13574"
       d="m 273.33255,-86.209509 c -1.82298,0.06103 -3.67469,0.529615 -5.44418,1.621942 -8.08941,4.993444 -12.99616,14.518989 -4.0834,24.781437 5.00761,5.76585 18.51402,8.404825 21.05905,16.502066 1.05533,3.587233 0.61943,10.241666 1.07769,10.221847 0.45805,0.02188 0.0417,-6.634614 1.09634,-10.221847 2.54525,-8.097241 16.05165,-10.736216 21.05927,-16.502066 8.91276,-10.262448 4.006,-19.787993 -4.08341,-24.781437 -8.08941,-4.993401 -18.03448,3.092946 -18.03448,3.092946 l -0.057,0.07525 v -0.07525 c 0,0 -6.07896,-4.932369 -12.59009,-4.714888 z"
       style="fill:#ff0000;fill-opacity:1;stroke:none;stroke-width:2.19008" />
    <path
       sodipodi:nodetypes="csscccssccccc"
       inkscape:connector-curvature="0"
       id="path13578"
       d="m 239.9154,34.205556 c 1.82321,-0.06103 3.67491,-0.529615 5.4444,-1.62192 8.08941,-4.993466 12.99617,-14.518989 4.08341,-24.781437 -5.00762,-5.7658497 -18.5138,-8.40482477 -21.05927,-16.5020655 -1.05512,-3.5872335 -0.61921,-10.2416665 -1.07748,-10.2218475 -0.45827,-0.02187 -0.0417,6.634592 -1.09634,10.2218475 -2.54525,8.09724073 -16.05165,10.7362158 -21.05926,16.5020655 -8.91277,10.262448 -4.00601,19.787971 4.08318,24.781437 8.08964,4.993401 18.0347,-3.092946 18.0347,-3.092946 l 0.057,-0.07525 v 0.07525 c 0,0 6.07874,4.932369 12.59009,4.714888 z"
       style="fill:#ff0000;fill-opacity:1;stroke:none;stroke-width:2.19008" />
    <path
       sodipodi:nodetypes="csscccssccccc"
       inkscape:connector-curvature="0"
       id="path13580"
       d="m 298.56929,34.205556 c 1.82321,-0.06103 3.67492,-0.529615 5.4444,-1.62192 8.08941,-4.993466 12.99617,-14.518989 4.08341,-24.781437 -5.00762,-5.7658497 -18.51402,-8.40482477 -21.05927,-16.5020655 -1.05511,-3.5872335 -0.61921,-10.2416665 -1.07748,-10.2218475 -0.45827,-0.02187 -0.0417,6.634592 -1.09633,10.2218475 -2.54525,8.09724073 -16.05165,10.7362158 -21.05927,16.5020655 -8.91276,10.262448 -4.00601,19.787971 4.08319,24.781437 8.08963,4.993401 18.0347,-3.092946 18.0347,-3.092946 l 0.057,-0.07525 v 0.07525 c 0,0 6.07873,4.932369 12.59008,4.714888 z"
       style="fill:#ff0000;fill-opacity:1;stroke:none;stroke-width:2.19008" />
    <path
       sodipodi:nodetypes="csscccssccccc"
       inkscape:connector-curvature="0"
       id="path13590"
       d="m 244.00561,-44.890306 c -1.82299,0.06103 -3.6747,0.529615 -5.44418,1.621941 -8.08942,4.993445 -12.99617,14.51899 -4.08341,24.781438 5.00762,5.765849 18.51402,8.404825 21.05905,16.5020653 1.05533,3.5872334 0.61943,10.2416664 1.0777,10.2218477 0.45805,0.021875 0.0417,-6.6346143 1.09633,-10.2218477 2.54525,-8.0972403 16.05165,-10.7362163 21.05927,-16.5020653 8.91276,-10.262448 4.00601,-19.787993 -4.08341,-24.781438 -8.08941,-4.9934 -18.03448,3.092947 -18.03448,3.092947 l -0.057,0.07525 v -0.07525 c 0,0 -6.07895,-4.932369 -12.59008,-4.714888 z"
       style="fill:#ff0000;fill-opacity:1;stroke:none;stroke-width:2.19008" />
  </g>
</svg>
