<?xml version="1.0" encoding="UTF-8" standalone="no"?>
<svg
   xmlns:dc="http://purl.org/dc/elements/1.1/"
   xmlns:cc="http://creativecommons.org/ns#"
   xmlns:rdf="http://www.w3.org/1999/02/22-rdf-syntax-ns#"
   xmlns:svg="http://www.w3.org/2000/svg"
   xmlns="http://www.w3.org/2000/svg"
   xmlns:sodipodi="http://sodipodi.sourceforge.net/DTD/sodipodi-0.dtd"
   xmlns:inkscape="http://www.inkscape.org/namespaces/inkscape"
   inkscape:version="1.0 (4035a4fb49, 2020-05-01)"
   sodipodi:docname="9S.svg"
   id="svg38"
   version="1.1"
   width="2.25in"
   viewBox="-106 -164.5 212 329"
   preserveAspectRatio="none"
   height="3.5in"
   face="9S"
   class="card">
  <metadata
     id="metadata44">
    <rdf:RDF>
      <cc:Work
         rdf:about="">
        <dc:format>image/svg+xml</dc:format>
        <dc:type
           rdf:resource="http://purl.org/dc/dcmitype/StillImage" />
      </cc:Work>
    </rdf:RDF>
  </metadata>
  <defs
     id="defs42" />
  <sodipodi:namedview
     inkscape:current-layer="svg38"
     inkscape:window-maximized="1"
     inkscape:window-y="-12"
     inkscape:window-x="-12"
     inkscape:cy="168"
     inkscape:cx="108"
     inkscape:zoom="2.2410714"
     showgrid="false"
     id="namedview40"
     inkscape:window-height="2050"
     inkscape:window-width="3240"
     inkscape:pageshadow="2"
     inkscape:pageopacity="0"
     guidetolerance="10"
     gridtolerance="10"
     objecttolerance="10"
     borderopacity="1"
     bordercolor="#666666"
     pagecolor="#ffffff" />
  <symbol
     preserveAspectRatio="xMinYMid"
     viewBox="-600 -600 1200 1200"
     id="SS9">
    <path
       id="path2"
       fill="black"
       d="M0 -500C100 -250 355 -100 355 185A150 150 0 0 1 55 185A10 10 0 0 0 35 185C35 385 85 400 130 500L-130 500C-85 400 -35 385 -35 185A10 10 0 0 0 -55 185A150 150 0 0 1 -355 185C-355 -100 -100 -250 0 -500Z" />
  </symbol>
  <symbol
     preserveAspectRatio="xMinYMid"
     viewBox="-500 -500 1000 1000"
     id="VS9">
    <path
       id="path5"
       fill="none"
       stroke-miterlimit="1.5"
       stroke-linecap="square"
       stroke-width="80"
       stroke="black"
       d="M250 -100A250 250 0 0 1 -250 -100L-250 -210A250 250 0 0 1 250 -210L250 210A250 250 0 0 1 0 460C-150 460 -180 400 -200 375" />
  </symbol>
  <rect
     id="rect8"
     stroke="black"
     fill="white"
     ry="12"
     rx="12"
     y="-164"
     x="-105.5"
     height="328"
     width="211" />
  <g
     transform="translate(-243.0477,109.44824)"
     id="g930">
    <path
       inkscape:connector-curvature="0"
       id="path26069"
       style="font-style:normal;font-variant:normal;font-weight:bold;font-stretch:normal;font-size:22.4px;line-height:125%;font-family:Comfortaa;-inkscape-font-specification:'Comfortaa Bold';letter-spacing:0px;word-spacing:0px;fill:#000000;fill-opacity:1;stroke:none;stroke-width:2.19008"
       d="m 160.29593,-228.89773 h -0.67161 c -1.61468,0 -3.13354,-0.31102 -4.55659,-0.93312 -1.42282,-0.62204 -2.67001,-1.46344 -3.74113,-2.52416 -1.07134,-1.06069 -1.91858,-2.30483 -2.54218,-3.73242 -0.62359,-1.42756 -0.93539,-2.9548 -0.93539,-4.58177 0,-1.62693 0.3118,-3.1502 0.93539,-4.56984 0.6236,-1.41955 1.47084,-2.66369 2.54218,-3.73242 1.07112,-1.06863 2.31831,-1.91003 3.74113,-2.52415 1.42305,-0.61405 2.94191,-0.92111 4.55659,-0.92116 1.59889,5e-5 3.11381,0.31507 4.54474,0.94509 1.43094,0.63007 2.67791,1.47943 3.74114,2.54808 1.06322,1.06873 1.91069,2.31287 2.54218,3.73242 0.63148,1.41962 0.94723,2.92694 0.94745,4.52198 -2.2e-4,2.37665 -0.6396,4.51401 -1.91859,6.4121 l -11.29575,18.70993 c -0.57558,0.90919 -1.327,1.36377 -2.25428,1.36377 -0.36771,0 -0.70363,-0.0639 -1.00732,-0.19141 -0.3039,-0.12753 -0.57557,-0.31104 -0.81545,-0.55028 -0.23988,-0.23927 -0.42362,-0.51043 -0.55146,-0.81349 -0.12717,-0.30306 -0.19295,-0.62206 -0.19295,-0.95703 -2.2e-4,-0.46257 0.1206,-0.90121 0.3596,-1.31591 z m -7.36254,-11.77147 c 0,0.95705 0.1798,1.84231 0.53962,2.65575 0.35959,0.81349 0.8433,1.5193 1.45088,2.11743 0.60759,0.59817 1.31495,1.0687 2.12251,1.41161 0.80734,0.34296 1.66665,0.51444 2.57792,0.51442 0.92728,2e-5 1.7947,-0.17938 2.60226,-0.53835 0.80734,-0.35886 1.51469,-0.84135 2.12228,-1.44751 0.60759,-0.60609 1.08735,-1.31188 1.43905,-2.11741 0.35171,-0.80548 0.52756,-1.67079 0.52756,-2.59594 0,-0.90917 -0.1798,-1.7665 -0.53962,-2.57202 -0.35982,-0.80548 -0.8433,-1.5113 -1.45089,-2.11743 -0.60759,-0.60609 -1.31516,-1.08859 -2.1225,-1.44751 -0.80734,-0.35886 -1.66665,-0.5383 -2.57814,-0.53835 -0.92728,5e-5 -1.7947,0.17544 -2.60204,0.52638 -0.80734,0.35094 -1.51492,0.82548 -2.12229,1.42358 -0.60758,0.59817 -1.08734,1.30001 -1.43904,2.10547 -0.35171,0.80552 -0.52756,1.67881 -0.52756,2.61988 z" />
    <path
       inkscape:connector-curvature="0"
       style="fill:#000000;fill-opacity:1;stroke:none;stroke-width:2.19008"
       d="m 159.62476,-211.42179 c -0.3357,-0.0219 -0.0241,4.86888 -0.79748,7.49657 -1.86464,5.93151 -11.75029,7.8697 -15.41862,12.09354 -6.5289,7.51757 -2.94849,14.48232 2.97742,18.14026 5.62661,3.47331 12.41928,-1.62667 13.09681,-2.15703 0,0.13738 -0.0241,0.27044 -0.0351,0.40666 0,0.03 -0.0219,0.0586 -0.0219,0.0884 -0.83869,5.30077 -7.50024,7.48857 -10.31431,8.18612 h -1.2939 v 0.28289 h 1.86092 9.72953 0.0219 0.38985 0.0219 9.72975 1.8607 v -0.28289 h -1.29368 c -2.81407,-0.69755 -9.47561,-2.88535 -10.31431,-8.18612 0,-0.0298 -0.0219,-0.0584 -0.0219,-0.0884 0,-0.14197 -0.0263,-0.28057 -0.0351,-0.42435 0.33175,0.26326 4.52808,3.52996 9.10922,3.37701 1.33578,-0.0438 2.69129,-0.40215 3.98759,-1.20229 5.92569,-3.65794 9.50632,-10.62269 2.97721,-18.14026 -3.66834,-4.22384 -13.55377,-6.16203 -15.41841,-12.09354 -0.77292,-2.62769 -0.46178,-7.51101 -0.79748,-7.49657 z"
       id="path26468-5" />
    <path
       inkscape:connector-curvature="0"
       id="path26057"
       style="font-style:normal;font-variant:normal;font-weight:bold;font-stretch:normal;font-size:22.4px;line-height:125%;font-family:Comfortaa;-inkscape-font-specification:'Comfortaa Bold';letter-spacing:0px;word-spacing:0px;fill:#000000;fill-opacity:1;stroke:none;stroke-width:2.19008"
       d="m 325.79946,10.001275 h 0.67161 c 1.61468,0 3.13355,0.311018 4.55659,0.933099 1.42282,0.622058 2.67001,1.463457 3.74113,2.524175 1.07134,1.060695 1.91859,2.304835 2.54218,3.732417 0.6236,1.427539 0.93539,2.954806 0.93539,4.58178 0,1.626929 -0.31179,3.150193 -0.93539,4.569813 -0.62359,1.419577 -1.47084,2.663716 -2.54218,3.732418 -1.07112,1.068658 -2.31831,1.910035 -3.74113,2.524175 -1.42304,0.614052 -2.94191,0.921111 -4.55659,0.921133 -1.59889,-2.2e-5 -3.11381,-0.315043 -4.54474,-0.945064 -1.43094,-0.630065 -2.67791,-1.479449 -3.74113,-2.548085 -1.06323,-1.068724 -1.91069,-2.312863 -2.54218,-3.732418 -0.63149,-1.41962 -0.94724,-2.926937 -0.94746,-4.521972 2.2e-4,-2.376651 0.63961,-4.514011 1.91859,-6.412103 L 327.9099,-3.3492851 c 0.57558,-0.9091896 1.32701,-1.3637735 2.25429,-1.3637735 0.36771,0 0.70362,0.063875 1.00731,0.1914061 0.3039,0.1275311 0.57557,0.3110402 0.81545,0.5502868 0.23988,0.2392685 0.42362,0.5104088 0.55146,0.8134866 0.12717,0.3030559 0.19295,0.6220587 0.19295,0.9570302 2.2e-4,0.4625463 -0.12059,0.9011833 -0.3596,1.31591096 z m 7.36254,11.771471 c 0,-0.957052 -0.1798,-1.842311 -0.53961,-2.655754 -0.3596,-0.813508 -0.8433,-1.519304 -1.45089,-2.117432 -0.60759,-0.598171 -1.31495,-1.068702 -2.12251,-1.411614 -0.80734,-0.342956 -1.66664,-0.514433 -2.57792,-0.514412 -0.92728,-2.1e-5 -1.7947,0.179375 -2.60226,0.538344 -0.80734,0.358859 -1.51469,0.841355 -2.12228,1.447489 -0.60759,0.606111 -1.08734,1.311907 -1.43905,2.117432 -0.3517,0.80548 -0.52756,1.670788 -0.52756,2.595947 0,0.909145 0.1798,1.766491 0.53962,2.572015 0.35982,0.805481 0.8433,1.511277 1.45089,2.117432 0.60759,0.60609 1.31516,1.088587 2.1225,1.447511 0.80734,0.358859 1.66665,0.5383 2.57814,0.538321 0.92728,-2.1e-5 1.7947,-0.175437 2.60204,-0.526355 0.80734,-0.35094 1.51492,-0.825474 2.12229,-1.42358 0.60759,-0.598171 1.08734,-1.300008 1.43905,-2.105466 0.3517,-0.805524 0.52755,-1.678817 0.52755,-2.619878 z" />
    <path
       id="path13453"
       d="m 326.47063,-7.4746429 c 0.3357,0.021875 0.0241,-4.8688881 0.7977,-7.4965761 1.86442,-5.931509 11.75007,-7.869697 15.41841,-12.093536 6.52889,-7.517576 2.94848,-14.482327 -2.97743,-18.14026 -5.62661,-3.473309 -12.41927,1.626666 -13.09681,2.157025 0,-0.137375 0.0241,-0.27044 0.0351,-0.406656 0,-0.02997 0.0219,-0.05862 0.0219,-0.08837 0.8387,-5.300766 7.50024,-7.48857 10.31453,-8.186119 h 1.29368 v -0.282887 h -1.86092 -9.72953 -0.0219 -0.38985 -0.0219 -9.72975 -1.8607 v 0.282887 h 1.29368 c 2.81407,0.697549 9.47584,2.885353 10.31453,8.186119 0,0.02975 0.0219,0.05841 0.0219,0.08837 0.0219,0.141969 0.0263,0.280569 0.0351,0.424353 -0.33197,-0.263265 -4.5283,-3.529965 -9.10944,-3.377015 -1.33578,0.04375 -2.69128,0.40215 -3.98759,1.202293 -5.92569,3.657933 -9.50632,10.622684 -2.97721,18.14026 3.66834,4.223839 13.55377,6.162027 15.41841,12.093536 0.77292,2.627688 0.46178,7.5110136 0.79748,7.4965761 z"
       style="fill:#000000;fill-opacity:1;stroke:none;stroke-width:2.19008"
       inkscape:connector-curvature="0" />
    <path
       inkscape:connector-curvature="0"
       style="fill:#000000;fill-opacity:1;stroke:none;stroke-width:2.19008"
       d="m 276.48612,-226.8251 c -0.39183,-0.0256 -0.0285,5.68152 -0.93057,8.74778 -2.17557,6.9215 -13.7112,9.18318 -17.99195,14.11198 -7.61864,8.77228 -3.44051,16.89947 3.47451,21.16793 6.56572,4.05302 14.492,-1.89817 15.28268,-2.51704 0,0.16034 -0.0285,0.31557 -0.0417,0.47453 0,0.035 -0.0263,0.0685 -0.0263,0.10304 -0.97859,6.18547 -8.75204,8.73844 -12.036,9.5524 h -1.50965 v 0.3301 h 2.17161 11.35342 0.0263 0.45476 0.0263 11.35342 2.17162 v -0.3301 h -1.50965 c -3.28375,-0.81396 -11.05741,-3.36693 -12.036,-9.5524 0,-0.0348 -0.0263,-0.0682 -0.0263,-0.10304 0,-0.16559 -0.0307,-0.3274 -0.0417,-0.49518 0.38745,0.30721 5.28412,4.11912 10.62984,3.94065 1.55855,-0.051 3.14056,-0.46927 4.65285,-1.40296 6.91502,-4.26846 11.09293,-12.39565 3.4745,-21.16793 -4.28075,-4.9288 -15.81616,-7.19048 -17.99194,-14.11198 -0.90185,-3.06626 -0.53874,-8.76463 -0.93057,-8.74778 z"
       id="path13455" />
    <path
       id="path13457"
       d="m 209.60971,-226.8251 c -0.39183,-0.0256 -0.0285,5.68152 -0.93056,8.74778 -2.17557,6.9215 -13.7112,9.18318 -17.99195,14.11198 -7.61865,8.77228 -3.44052,16.89947 3.4745,21.16793 6.56573,4.05302 14.49201,-1.89817 15.28269,-2.51704 0,0.16034 -0.0285,0.31557 -0.0417,0.47453 0,0.035 -0.0263,0.0685 -0.0263,0.10304 -0.97858,6.18547 -8.75203,8.73844 -12.03599,9.5524 h -1.50966 v 0.3301 h 2.17162 11.35342 0.0263 0.45476 0.0263 11.35342 2.17162 v -0.3301 h -1.50966 c -3.28374,-0.81396 -11.05741,-3.36693 -12.03599,-9.5524 0,-0.0348 -0.0263,-0.0682 -0.0263,-0.10304 0,-0.16559 -0.0307,-0.3274 -0.0417,-0.49518 0.38745,0.30721 5.28412,4.11912 10.62984,3.94065 1.55855,-0.051 3.14056,-0.46927 4.65285,-1.40296 6.91502,-4.26846 11.09293,-12.39565 3.4745,-21.16793 -4.28075,-4.9288 -15.81616,-7.19048 -17.99195,-14.11198 -0.90184,-3.06626 -0.53873,-8.76463 -0.93056,-8.74778 z"
       style="fill:#000000;fill-opacity:1;stroke:none;stroke-width:2.19008"
       inkscape:connector-curvature="0" />
    <path
       inkscape:connector-curvature="0"
       style="fill:#000000;fill-opacity:1;stroke:none;stroke-width:2.19008"
       d="m 209.60928,12.084932 c 0.39183,0.02559 0.0285,-5.681522 0.93056,-8.747781 2.17557,-6.9215046 13.7112,-9.1831801 17.99195,-14.111984 7.61865,-8.77228 3.44052,-16.899468 -3.4745,-21.167932 -6.56573,-4.053017 -14.49201,1.898179 -15.28269,2.517044 0,-0.160344 0.0285,-0.315568 0.0417,-0.474534 0,-0.035 0.0263,-0.06847 0.0263,-0.103031 0.97858,-6.185477 8.75203,-8.73844 12.03599,-9.552408 h 1.50966 v -0.330093 h -2.17162 -11.35342 -0.0263 -0.45476 -0.0263 -11.35342 -2.17162 v 0.330093 h 1.50966 c 3.28374,0.813968 11.05741,3.366931 12.03599,9.552408 0,0.03478 0.0263,0.06825 0.0263,0.103031 0,0.165594 0.0307,0.327403 0.0417,0.495184 -0.38745,-0.307212 -5.28412,-4.119123 -10.62984,-3.940645 -1.55855,0.05097 -3.14056,0.469261 -4.65285,1.402951 -6.91502,4.268464 -11.09293,12.395652 -3.4745,21.167932 4.28075,4.9288039 15.81616,7.1904794 17.99195,14.111984 0.90184,3.066259 0.53873,8.764624 0.93056,8.747781 z"
       id="path13463" />
    <path
       id="path13465"
       d="m 276.48546,12.084932 c 0.39183,0.02559 0.0285,-5.681522 0.93057,-8.747781 2.17556,-6.9215046 13.71119,-9.1831801 17.99194,-14.111984 7.61865,-8.77228 3.44052,-16.899468 -3.4745,-21.167932 -6.56573,-4.053017 -14.49201,1.898179 -15.28268,2.517044 0,-0.160344 0.0285,-0.315568 0.0417,-0.474534 0,-0.035 0.0263,-0.06847 0.0263,-0.103031 0.97859,-6.185477 8.75204,-8.73844 12.036,-9.552408 h 1.50965 v -0.330093 h -2.17162 -11.35342 -0.0263 -0.45476 -0.0263 -11.35342 -2.17162 v 0.330093 h 1.50965 c 3.28374,0.813968 11.05741,3.366931 12.036,9.552408 0,0.03478 0.0263,0.06825 0.0263,0.103031 0,0.165594 0.0307,0.327403 0.0417,0.495184 -0.38745,-0.307212 -5.28411,-4.119123 -10.62984,-3.940645 -1.55855,0.05097 -3.14056,0.469261 -4.65284,1.402951 -6.91502,4.268464 -11.09293,12.395652 -3.47451,21.167932 4.28075,4.9288039 15.81616,7.1904794 17.99195,14.111984 0.90184,3.066259 0.53874,8.764624 0.93057,8.747781 z"
       style="fill:#000000;fill-opacity:1;stroke:none;stroke-width:2.19008"
       inkscape:connector-curvature="0" />
    <path
       id="path13473"
       d="m 276.48612,-168.88693 c -0.39183,-0.0256 -0.0285,5.68152 -0.93057,8.74778 -2.17557,6.9215 -13.7112,9.18318 -17.99195,14.11198 -7.61864,8.77228 -3.44051,16.89947 3.47451,21.16793 6.56572,4.05302 14.492,-1.89818 15.28268,-2.51704 0,0.16034 -0.0285,0.31557 -0.0417,0.47453 0,0.035 -0.0263,0.0685 -0.0263,0.10303 -0.97859,6.18548 -8.75204,8.73844 -12.036,9.55241 h -1.50965 v 0.3301 h 2.17161 11.35342 0.0263 0.45476 0.0263 11.35342 2.17162 v -0.3301 h -1.50965 c -3.28375,-0.81397 -11.05741,-3.36693 -12.036,-9.55241 0,-0.0348 -0.0263,-0.0682 -0.0263,-0.10303 0,-0.16559 -0.0307,-0.3274 -0.0417,-0.49518 0.38745,0.30721 5.28412,4.11912 10.62984,3.94064 1.55855,-0.051 3.14056,-0.46926 4.65285,-1.40295 6.91502,-4.26846 11.09293,-12.39565 3.4745,-21.16793 -4.28075,-4.9288 -15.81616,-7.19048 -17.99194,-14.11198 -0.90185,-3.06626 -0.53874,-8.76463 -0.93057,-8.74778 z"
       style="fill:#000000;fill-opacity:1;stroke:none;stroke-width:2.19008"
       inkscape:connector-curvature="0" />
    <path
       inkscape:connector-curvature="0"
       style="fill:#000000;fill-opacity:1;stroke:none;stroke-width:2.19008"
       d="m 209.60971,-168.88693 c -0.39183,-0.0256 -0.0285,5.68152 -0.93056,8.74778 -2.17557,6.9215 -13.7112,9.18318 -17.99195,14.11198 -7.61865,8.77228 -3.44052,16.89947 3.4745,21.16793 6.56573,4.05302 14.49201,-1.89818 15.28269,-2.51704 0,0.16034 -0.0285,0.31557 -0.0417,0.47453 0,0.035 -0.0263,0.0685 -0.0263,0.10303 -0.97858,6.18548 -8.75203,8.73844 -12.03599,9.55241 h -1.50966 v 0.3301 h 2.17162 11.35342 0.0263 0.45476 0.0263 11.35342 2.17162 v -0.3301 h -1.50966 c -3.28374,-0.81397 -11.05741,-3.36693 -12.03599,-9.55241 0,-0.0348 -0.0263,-0.0682 -0.0263,-0.10303 0,-0.16559 -0.0307,-0.3274 -0.0417,-0.49518 0.38745,0.30721 5.28412,4.11912 10.62984,3.94064 1.55855,-0.051 3.14056,-0.46926 4.65285,-1.40295 6.91502,-4.26846 11.09293,-12.39565 3.4745,-21.16793 -4.28075,-4.9288 -15.81616,-7.19048 -17.99195,-14.11198 -0.90184,-3.06626 -0.53873,-8.76463 -0.93056,-8.74778 z"
       id="path13475" />
    <path
       id="path13479"
       d="m 209.60928,-45.853193 c 0.39183,0.02559 0.0285,-5.681521 0.93056,-8.74778 2.17557,-6.921505 13.7112,-9.183181 17.99195,-14.111984 7.61865,-8.772281 3.44052,-16.899468 -3.4745,-21.167932 -6.56573,-4.053018 -14.49201,1.898179 -15.28269,2.517044 0,-0.160344 0.0285,-0.315569 0.0417,-0.474534 0,-0.035 0.0263,-0.06847 0.0263,-0.103031 0.97858,-6.185478 8.75203,-8.73844 12.03599,-9.552408 h 1.50966 v -0.330094 h -2.17162 -11.35342 -0.0263 -0.45476 -0.0263 -11.35342 -2.17162 v 0.330094 h 1.50966 c 3.28374,0.813968 11.05741,3.36693 12.03599,9.552408 0,0.03478 0.0263,0.06825 0.0263,0.103031 0,0.165593 0.0307,0.327403 0.0417,0.495184 -0.38745,-0.307213 -5.28412,-4.119124 -10.62984,-3.940646 -1.55855,0.05097 -3.14056,0.469262 -4.65285,1.402952 -6.91502,4.268464 -11.09293,12.395651 -3.4745,21.167932 4.28075,4.928803 15.81616,7.190479 17.99195,14.111984 0.90184,3.066259 0.53873,8.764624 0.93056,8.74778 z"
       style="fill:#000000;fill-opacity:1;stroke:none;stroke-width:2.19008"
       inkscape:connector-curvature="0" />
    <path
       inkscape:connector-curvature="0"
       style="fill:#000000;fill-opacity:1;stroke:none;stroke-width:2.19008"
       d="m 276.48546,-45.853193 c 0.39183,0.02559 0.0285,-5.681521 0.93057,-8.74778 2.17556,-6.921505 13.71119,-9.183181 17.99194,-14.111984 7.61865,-8.772281 3.44052,-16.899468 -3.4745,-21.167932 -6.56573,-4.053018 -14.49201,1.898179 -15.28268,2.517044 0,-0.160344 0.0285,-0.315569 0.0417,-0.474534 0,-0.035 0.0263,-0.06847 0.0263,-0.103031 0.97859,-6.185478 8.75204,-8.73844 12.036,-9.552408 h 1.50965 v -0.330094 h -2.17162 -11.35342 -0.0263 -0.45476 -0.0263 -11.35342 -2.17162 v 0.330094 h 1.50965 c 3.28374,0.813968 11.05741,3.36693 12.036,9.552408 0,0.03478 0.0263,0.06825 0.0263,0.103031 0,0.165593 0.0307,0.327403 0.0417,0.495184 -0.38745,-0.307213 -5.28411,-4.119124 -10.62984,-3.940646 -1.55855,0.05097 -3.14056,0.469262 -4.65284,1.402952 -6.91502,4.268464 -11.09293,12.395651 -3.47451,21.167932 4.28075,4.928803 15.81616,7.190479 17.99195,14.111984 0.90184,3.066259 0.53874,8.764624 0.93057,8.74778 z"
       id="path13481" />
    <path
       id="path13491"
       d="m 243.04792,-139.80853 c -0.39183,-0.0256 -0.0285,5.68152 -0.93057,8.74778 -2.17557,6.92151 -13.7112,9.18318 -17.99195,14.11199 -7.61865,8.77228 -3.44051,16.89946 3.47451,21.167927 6.56572,4.053018 14.492,-1.898179 15.28268,-2.517044 0,0.160344 -0.0285,0.315569 -0.0417,0.474534 0,0.035 -0.0263,0.06847 -0.0263,0.103031 -0.97859,6.185478 -8.75204,8.73844 -12.036,9.552408 h -1.50966 v 0.330094 h 2.17162 11.35342 0.0263 0.45476 0.0263 11.35342 2.17162 v -0.330094 h -1.50966 c -3.28374,-0.813968 -11.05741,-3.36693 -12.03599,-9.552408 0,-0.03478 -0.0263,-0.06825 -0.0263,-0.103031 0,-0.165593 -0.0307,-0.327403 -0.0417,-0.495184 0.38745,0.307213 5.28412,4.119124 10.62984,3.940646 1.55855,-0.05097 3.14056,-0.469262 4.65285,-1.402952 6.91502,-4.268467 11.09293,-12.395647 3.4745,-21.167927 -4.28075,-4.92881 -15.81616,-7.19048 -17.99194,-14.11199 -0.90185,-3.06626 -0.53874,-8.76462 -0.93057,-8.74778 z"
       style="fill:#000000;fill-opacity:1;stroke:none;stroke-width:2.19008"
       inkscape:connector-curvature="0" />
  </g>
</svg>
