<?xml version="1.0" encoding="UTF-8" standalone="no"?>
<svg
   xmlns:dc="http://purl.org/dc/elements/1.1/"
   xmlns:cc="http://creativecommons.org/ns#"
   xmlns:rdf="http://www.w3.org/1999/02/22-rdf-syntax-ns#"
   xmlns:svg="http://www.w3.org/2000/svg"
   xmlns="http://www.w3.org/2000/svg"
   xmlns:sodipodi="http://sodipodi.sourceforge.net/DTD/sodipodi-0.dtd"
   xmlns:inkscape="http://www.inkscape.org/namespaces/inkscape"
   inkscape:version="1.0 (4035a4fb49, 2020-05-01)"
   sodipodi:docname="AC.svg"
   id="svg22"
   version="1.1"
   width="2.25in"
   viewBox="-106 -164.5 212 329"
   preserveAspectRatio="none"
   height="3.5in"
   face="AC"
   class="card">
  <metadata
     id="metadata28">
    <rdf:RDF>
      <cc:Work
         rdf:about="">
        <dc:format>image/svg+xml</dc:format>
        <dc:type
           rdf:resource="http://purl.org/dc/dcmitype/StillImage" />
      </cc:Work>
    </rdf:RDF>
  </metadata>
  <defs
     id="defs26" />
  <sodipodi:namedview
     inkscape:current-layer="svg22"
     inkscape:window-maximized="1"
     inkscape:window-y="-12"
     inkscape:window-x="-12"
     inkscape:cy="168"
     inkscape:cx="108"
     inkscape:zoom="2.2410714"
     showgrid="false"
     id="namedview24"
     inkscape:window-height="2050"
     inkscape:window-width="3240"
     inkscape:pageshadow="2"
     inkscape:pageopacity="0"
     guidetolerance="10"
     gridtolerance="10"
     objecttolerance="10"
     borderopacity="1"
     bordercolor="#666666"
     pagecolor="#ffffff" />
  <symbol
     preserveAspectRatio="xMinYMid"
     viewBox="-500 -500 1000 1000"
     id="VCA">
    <path
       id="path2"
       fill="none"
       stroke-miterlimit="1.5"
       stroke-linecap="square"
       stroke-width="80"
       stroke="black"
       d="M-270 460L-110 460M-200 450L0 -460L200 450M110 460L270 460M-120 130L120 130" />
  </symbol>
  <symbol
     preserveAspectRatio="xMinYMid"
     viewBox="-600 -600 1200 1200"
     id="SCA">
    <path
       id="path5"
       fill="black"
       d="M30 150C35 385 85 400 130 500L-130 500C-85 400 -35 385 -30 150A10 10 0 0 0 -50 150A210 210 0 1 1 -124 -51A10 10 0 0 0 -110 -65A230 230 0 1 1 110 -65A10 10 0 0 0 124 -51A210 210 0 1 1 50 150A10 10 0 0 0 30 150Z" />
  </symbol>
  <rect
     id="rect8"
     stroke="black"
     fill="white"
     ry="12"
     rx="12"
     y="-164"
     x="-105.5"
     height="328"
     width="211" />
  <g
     transform="translate(-228.67071,90.223771)"
     id="g882">
    <path
       inkscape:connector-curvature="0"
       id="path7295-7"
       d="m 228.59468,-160.18941 c -20.50751,0 -37.09902,16.60958 -37.09902,37.06946 0,8.03061 2.5135,15.45957 6.86562,21.52789 -14.29484,1.703991 -25.3867,13.32995 -25.3867,27.514274 0,15.356517 12.96784,27.802131 28.96406,27.802131 10.40483,0 19.47209,-5.273335 24.57947,-13.181532 -0.92338,18.186548 -4.87593,35.904381 -19.32914,38.105528 -0.31671,0.04856 -0.64969,0.140219 -0.98022,0.172594 h -1.90442 v 0.920958 h 24.29035 24.29117 v -0.920958 h -1.90442 c -0.33296,-0.03237 -0.6578,-0.123156 -0.98102,-0.172594 -14.43778,-2.198872 -18.40009,-19.881224 -19.32833,-38.047997 5.11225,7.885272 14.19251,13.124001 24.57946,13.124001 15.9962,0 28.96406,-12.445614 28.96406,-27.802131 0,-14.201978 -11.06668,-25.890652 -25.38751,-27.571814 4.33588,-6.06142 6.92408,-13.45634 6.92408,-21.47035 0,-20.45988 -16.64915,-37.06946 -37.15749,-37.06946 z"
       style="fill:#000000;fill-opacity:1;stroke:none;stroke-width:2.19008" />
    <path
       d="m 149.35691,-212.95113 -4.17294,-10.74267 -4.17291,10.74267 z m -19.4017,14.30761 12.80654,-32.874 c 0.51162,-1.14839 1.31903,-1.72261 2.42222,-1.72265 1.13515,4e-5 1.94255,0.57426 2.42222,1.72265 l 12.85452,32.99361 c 0.12784,0.31903 0.19186,0.66196 0.19186,1.02883 -4e-5,0.70181 -0.24786,1.29996 -0.74344,1.79442 -0.49568,0.49447 -1.09524,0.7417 -1.79869,0.7417 -0.7035,0 -1.29506,-0.24723 -1.77468,-0.7417 -0.25585,-0.25521 -0.4477,-0.52637 -0.57558,-0.81348 l -4.43673,-11.36473 H 139.0445 l -4.4607,11.36473 c -0.12783,0.28711 -0.31978,0.55827 -0.57558,0.81348 -0.49565,0.49447 -1.09519,0.7417 -1.79869,0.7417 -0.70347,0 -1.29904,-0.24723 -1.78667,-0.7417 -0.48765,-0.49446 -0.73145,-1.09261 -0.73145,-1.79442 0,-0.38281 0.0879,-0.76563 0.2638,-1.14844 z"
       style="font-style:normal;font-variant:normal;font-weight:bold;font-stretch:normal;font-size:22.4px;line-height:125%;font-family:Comfortaa;-inkscape-font-specification:'Comfortaa Bold';letter-spacing:0px;word-spacing:0px;fill:#000000;fill-opacity:1;stroke:none;stroke-width:2.19008"
       id="path26264"
       inkscape:connector-curvature="0" />
    <path
       style="fill:none;stroke:#000000;stroke-width:2.19008;stroke-miterlimit:4;stroke-dasharray:none;stroke-opacity:1"
       d="m 145.17196,-183.44745 c -6.29954,0 -11.39616,5.10216 -11.39616,11.38706 0,2.46686 0.77211,4.7489 2.109,6.61298 -4.39111,0.52342 -7.79834,4.09471 -7.79834,8.45187 0,4.71726 3.98349,8.54032 8.89724,8.54032 3.19616,0 5.98147,-1.61988 7.55037,-4.04914 -0.28365,5.58658 -1.49779,11.02919 -5.93755,11.70534 -0.0974,0.0153 -0.19954,0.0431 -0.30112,0.0529 h -0.58501 v 0.28289 h 7.46157 7.46178 v -0.28289 h -0.58498 c -0.10218,-0.0109 -0.20217,-0.0378 -0.30136,-0.0529 -4.43503,-0.67548 -5.65218,-6.10716 -5.93731,-11.68767 1.57039,2.42222 4.35968,4.03147 7.55034,4.03147 4.91375,0 8.89724,-3.82306 8.89724,-8.54032 0,-4.36259 -3.39947,-7.95312 -7.79858,-8.46955 1.33192,-1.86195 2.12696,-4.13354 2.12696,-6.5953 0,-6.2849 -5.11431,-11.38706 -11.41409,-11.38706 z"
       id="path7438-3-6"
       inkscape:connector-curvature="0" />
    <path
       d="m 307.83359,32.503589 4.17293,10.742669 4.17291,-10.742669 z m 19.4017,-14.307612 -12.80655,32.873997 c -0.51162,1.148392 -1.31902,1.722611 -2.42222,1.722654 -1.13514,-4.3e-5 -1.94255,-0.574262 -2.42222,-1.722654 L 296.72978,18.076365 c -0.12783,-0.319025 -0.19186,-0.661959 -0.19186,-1.028824 4e-5,-0.701815 0.24786,-1.299964 0.74345,-1.794426 0.49567,-0.494462 1.09524,-0.741693 1.79869,-0.741693 0.70349,0 1.29505,0.247231 1.77468,0.741693 0.25584,0.255215 0.4477,0.526377 0.57557,0.813487 l 4.43674,11.364727 h 12.27894 l 4.4607,-11.364727 c 0.12784,-0.28711 0.31978,-0.558272 0.57558,-0.813487 0.49565,-0.494462 1.09519,-0.741693 1.79869,-0.741693 0.70347,0 1.29905,0.247231 1.78667,0.741693 0.48765,0.494462 0.73146,1.092611 0.73146,1.794426 0,0.382812 -0.0879,0.765624 -0.2638,1.148436 z"
       style="font-style:normal;font-variant:normal;font-weight:bold;font-stretch:normal;font-size:22.4px;line-height:125%;font-family:Comfortaa;-inkscape-font-specification:'Comfortaa Bold';letter-spacing:0px;word-spacing:0px;fill:#000000;fill-opacity:1;stroke:none;stroke-width:2.19008"
       id="path26261"
       inkscape:connector-curvature="0" />
    <path
       style="fill:none;stroke:#000000;stroke-width:2.49172;stroke-opacity:1"
       d="m 312.01867,2.9999133 c 6.29954,0 11.39615,-5.1021629 11.39615,-11.3870619 0,-2.4668624 -0.7721,-4.7489044 -2.10899,-6.6129804 4.3911,-0.523424 7.79831,-4.094711 7.79831,-8.451877 0,-4.717251 -3.98346,-8.540319 -8.89721,-8.540319 -3.19617,0 -5.98147,1.619886 -7.55037,4.049146 0.28364,-5.586585 1.49779,-11.029188 5.93755,-11.705343 0.0974,-0.01531 0.19953,-0.04309 0.30112,-0.05294 h 0.585 v -0.282887 h -7.46156 -7.46179 v 0.282887 h 0.58499 c 0.10217,0.01094 0.20216,0.03784 0.30136,0.05294 4.43502,0.675477 5.65217,6.107165 5.93731,11.687668 -1.57039,-2.422216 -4.35969,-4.031471 -7.55035,-4.031471 -4.91375,0 -8.89724,3.823068 -8.89724,8.540319 0,4.362591 3.39947,7.953128 7.79858,8.469552 -1.33191,1.861955 -2.12695,4.133539 -2.12695,6.5953054 0,6.284899 5.11431,11.3870619 11.41409,11.3870619 z"
       id="path7438-3-9"
       inkscape:connector-curvature="0" />
  </g>
</svg>
