<?xml version="1.0" encoding="UTF-8" standalone="no"?>
<svg
   xmlns:dc="http://purl.org/dc/elements/1.1/"
   xmlns:cc="http://creativecommons.org/ns#"
   xmlns:rdf="http://www.w3.org/1999/02/22-rdf-syntax-ns#"
   xmlns:svg="http://www.w3.org/2000/svg"
   xmlns="http://www.w3.org/2000/svg"
   xmlns:sodipodi="http://sodipodi.sourceforge.net/DTD/sodipodi-0.dtd"
   xmlns:inkscape="http://www.inkscape.org/namespaces/inkscape"
   inkscape:version="1.0 (4035a4fb49, 2020-05-01)"
   sodipodi:docname="AD.svg"
   id="svg22"
   version="1.1"
   width="2.25in"
   viewBox="-106 -164.5 212 329"
   preserveAspectRatio="none"
   height="3.5in"
   face="AD"
   class="card">
  <metadata
     id="metadata28">
    <rdf:RDF>
      <cc:Work
         rdf:about="">
        <dc:format>image/svg+xml</dc:format>
        <dc:type
           rdf:resource="http://purl.org/dc/dcmitype/StillImage" />
      </cc:Work>
    </rdf:RDF>
  </metadata>
  <defs
     id="defs26" />
  <sodipodi:namedview
     inkscape:current-layer="svg22"
     inkscape:window-maximized="1"
     inkscape:window-y="-12"
     inkscape:window-x="-12"
     inkscape:cy="168"
     inkscape:cx="108"
     inkscape:zoom="2.2410714"
     showgrid="false"
     id="namedview24"
     inkscape:window-height="2050"
     inkscape:window-width="3240"
     inkscape:pageshadow="2"
     inkscape:pageopacity="0"
     guidetolerance="10"
     gridtolerance="10"
     objecttolerance="10"
     borderopacity="1"
     bordercolor="#666666"
     pagecolor="#ffffff" />
  <symbol
     preserveAspectRatio="xMinYMid"
     viewBox="-500 -500 1000 1000"
     id="VDA">
    <path
       id="path2"
       fill="none"
       stroke-miterlimit="1.5"
       stroke-linecap="square"
       stroke-width="80"
       stroke="red"
       d="M-270 460L-110 460M-200 450L0 -460L200 450M110 460L270 460M-120 130L120 130" />
  </symbol>
  <symbol
     preserveAspectRatio="xMinYMid"
     viewBox="-600 -600 1200 1200"
     id="SDA">
    <path
       id="path5"
       fill="red"
       d="M-400 0C-350 0 0 -450 0 -500C0 -450 350 0 400 0C350 0 0 450 0 500C0 450 -350 0 -400 0Z" />
  </symbol>
  <rect
     id="rect8"
     stroke="black"
     fill="white"
     ry="12"
     rx="12"
     y="-164"
     x="-105.5"
     height="328"
     width="211" />
  <g
     transform="translate(-307.42659,156.19857)"
     id="g882">
    <path
       style="fill:#ff0000;fill-opacity:1;stroke:none;stroke-width:2.19008"
       d="m 252.06968,-162.10459 55.357,-69.24859 55.35682,69.2485 -55.357,81.060758 z"
       id="rect7372-8"
       inkscape:connector-curvature="0"
       sodipodi:nodetypes="ccccc" />
    <path
       d="m 228.18825,-278.92595 -4.17294,-10.74267 -4.17291,10.74267 z m -19.4017,14.30761 12.80654,-32.874 c 0.51162,-1.14839 1.31903,-1.72261 2.42222,-1.72265 1.13515,4e-5 1.94255,0.57426 2.42222,1.72265 l 12.85452,32.99361 c 0.12784,0.31903 0.19186,0.66196 0.19186,1.02883 -4e-5,0.70181 -0.24786,1.29996 -0.74344,1.79442 -0.49568,0.49446 -1.09524,0.74169 -1.79869,0.74169 -0.7035,0 -1.29506,-0.24723 -1.77468,-0.74169 -0.25584,-0.25521 -0.4477,-0.52635 -0.57558,-0.81348 l -4.43673,-11.36473 h -12.27895 l -4.4607,11.36473 c -0.12783,0.28713 -0.31978,0.55827 -0.57557,0.81348 -0.49566,0.49446 -1.0952,0.74169 -1.79869,0.74169 -0.70348,0 -1.29905,-0.24723 -1.78668,-0.74169 -0.48765,-0.49446 -0.73145,-1.09261 -0.73145,-1.79442 0,-0.38282 0.0879,-0.76563 0.2638,-1.14844 z"
       style="font-style:normal;font-variant:normal;font-weight:bold;font-stretch:normal;font-size:22.4px;line-height:125%;font-family:Comfortaa;-inkscape-font-specification:'Comfortaa Bold';letter-spacing:0px;word-spacing:0px;fill:#ff0000;fill-opacity:1;stroke:none;stroke-width:2.19008"
       id="path26258"
       inkscape:connector-curvature="0" />
    <path
       sodipodi:nodetypes="ccccc"
       inkscape:connector-curvature="0"
       id="path7442-5-9"
       d="m 207.49689,-231.86713 16.50663,-20.64873 16.50641,20.64871 -16.50663,24.17093 z"
       style="fill:none;stroke:#ff0000;stroke-width:2.19008;stroke-opacity:1" />
    <path
       d="m 386.66493,-33.471189 4.17293,10.742669 4.17291,-10.742669 z m 19.4017,-14.307612 -12.80655,32.873997 c -0.51161,1.148393 -1.31902,1.722611 -2.42222,1.722654 -1.13514,-4.3e-5 -1.94255,-0.574261 -2.42222,-1.722654 l -12.85452,-32.993609 c -0.12783,-0.319025 -0.19186,-0.661959 -0.19186,-1.028824 5e-5,-0.701815 0.24786,-1.299964 0.74345,-1.794426 0.49567,-0.494462 1.09524,-0.741693 1.79869,-0.741693 0.70349,0 1.29505,0.247231 1.77468,0.741693 0.25584,0.255215 0.4477,0.526356 0.57557,0.813487 l 4.43674,11.364727 h 12.27894 l 4.4607,-11.364727 c 0.12784,-0.287131 0.31978,-0.558272 0.57558,-0.813487 0.49565,-0.494462 1.09519,-0.741693 1.79869,-0.741693 0.70347,0 1.29905,0.247231 1.78667,0.741693 0.48765,0.494462 0.73146,1.092611 0.73146,1.794426 0,0.382812 -0.0879,0.765624 -0.2638,1.148436 z"
       style="font-style:normal;font-variant:normal;font-weight:bold;font-stretch:normal;font-size:22.4px;line-height:125%;font-family:Comfortaa;-inkscape-font-specification:'Comfortaa Bold';letter-spacing:0px;word-spacing:0px;fill:#ff0000;fill-opacity:1;stroke:none;stroke-width:2.19008"
       id="path26255"
       inkscape:connector-curvature="0" />
    <path
       sodipodi:nodetypes="ccccc"
       inkscape:connector-curvature="0"
       id="path7442-5-5"
       d="m 407.35629,-80.530013 -16.50663,20.648729 -16.50641,-20.648707 16.50663,-24.170929 z"
       style="fill:none;stroke:#ff0000;stroke-width:2.19008;stroke-opacity:1" />
  </g>
</svg>
