<?xml version="1.0" encoding="UTF-8" standalone="no"?>
<svg
   xmlns:dc="http://purl.org/dc/elements/1.1/"
   xmlns:cc="http://creativecommons.org/ns#"
   xmlns:rdf="http://www.w3.org/1999/02/22-rdf-syntax-ns#"
   xmlns:svg="http://www.w3.org/2000/svg"
   xmlns="http://www.w3.org/2000/svg"
   xmlns:sodipodi="http://sodipodi.sourceforge.net/DTD/sodipodi-0.dtd"
   xmlns:inkscape="http://www.inkscape.org/namespaces/inkscape"
   inkscape:version="1.0 (4035a4fb49, 2020-05-01)"
   sodipodi:docname="AS.svg"
   id="svg22"
   version="1.1"
   width="2.25in"
   viewBox="-106 -164.5 212 329"
   preserveAspectRatio="none"
   height="3.5in"
   face="AS"
   class="card">
  <metadata
     id="metadata28">
    <rdf:RDF>
      <cc:Work
         rdf:about="">
        <dc:format>image/svg+xml</dc:format>
        <dc:type
           rdf:resource="http://purl.org/dc/dcmitype/StillImage" />
      </cc:Work>
    </rdf:RDF>
  </metadata>
  <defs
     id="defs26" />
  <sodipodi:namedview
     inkscape:current-layer="svg22"
     inkscape:window-maximized="1"
     inkscape:window-y="-12"
     inkscape:window-x="-12"
     inkscape:cy="168"
     inkscape:cx="108"
     inkscape:zoom="2.2410714"
     showgrid="false"
     id="namedview24"
     inkscape:window-height="2050"
     inkscape:window-width="3240"
     inkscape:pageshadow="2"
     inkscape:pageopacity="0"
     guidetolerance="10"
     gridtolerance="10"
     objecttolerance="10"
     borderopacity="1"
     bordercolor="#666666"
     pagecolor="#ffffff" />
  <symbol
     preserveAspectRatio="xMinYMid"
     viewBox="-500 -500 1000 1000"
     id="VSA">
    <path
       id="path2"
       fill="none"
       stroke-miterlimit="1.5"
       stroke-linecap="square"
       stroke-width="80"
       stroke="black"
       d="M-270 460L-110 460M-200 450L0 -460L200 450M110 460L270 460M-120 130L120 130" />
  </symbol>
  <symbol
     preserveAspectRatio="xMinYMid"
     viewBox="-600 -600 1200 1200"
     id="SSA">
    <path
       id="path5"
       fill="black"
       d="M0 -500C100 -250 355 -100 355 185A150 150 0 0 1 55 185A10 10 0 0 0 35 185C35 385 85 400 130 500L-130 500C-85 400 -35 385 -35 185A10 10 0 0 0 -55 185A150 150 0 0 1 -355 185C-355 -100 -100 -250 0 -500Z" />
  </symbol>
  <rect
     id="rect8"
     stroke="black"
     fill="white"
     ry="12"
     rx="12"
     y="-164"
     x="-105.5"
     height="328"
     width="211" />
  <g
     transform="translate(-248.30308,12.452175)"
     id="g882">
    <path
       id="path20813-8-74"
       d="m 248.30295,-76.056236 c -0.95879,-0.06256 -0.0717,13.906534 -2.27785,21.411794 -5.32556,16.941665 -33.56084,22.4775 -44.03844,34.541658 -18.64815,21.471841 -8.42141,41.364593 8.50398,51.812497 16.07095,9.920476 35.47234,-4.646135 37.40735,-6.160934 -0.0241,0.391847 -0.0678,0.772428 -0.10131,1.161496 -0.009,0.08531 -0.0432,0.167781 -0.0507,0.252481 -2.39564,15.140108 -21.42209,21.388891 -29.46019,23.381286 h -3.69517 v 0.807974 h 5.31498 27.78978 0.0507 1.11361 0.0504 27.78976 5.31498 v -0.807974 h -3.69517 c -8.03762,-1.992395 -27.06466,-8.241157 -29.4602,-23.381286 -0.0131,-0.08488 -0.0382,-0.166906 -0.0506,-0.252481 -0.0346,-0.40589 -0.0756,-0.801324 -0.1013,-1.212005 0.948,0.75193 12.93339,10.082263 26.01812,9.64542 3.81505,-0.124906 7.68693,-1.148611 11.38925,-3.433977 16.92537,-10.447904 27.15211,-30.340656 8.50396,-51.812497 -10.4776,-12.064158 -38.71288,-17.599993 -44.03842,-34.541658 -2.20749,-7.50526 -1.31908,-21.453028 -2.27785,-21.411794 z"
       style="fill:#000000;fill-opacity:1;stroke:none;stroke-width:2.19008"
       inkscape:connector-curvature="0" />
    <path
       d="m 169.06474,-135.17952 -4.17293,-10.74267 -4.17291,10.74267 z m -19.4017,14.30759 12.80655,-32.87398 c 0.51161,-1.14841 1.31902,-1.72263 2.42222,-1.72265 1.13514,2e-5 1.94255,0.57424 2.42222,1.72265 l 12.85452,32.99361 c 0.12783,0.319 0.19186,0.66194 0.19186,1.0288 -5e-5,0.70184 -0.24786,1.29997 -0.74345,1.79443 -0.49567,0.49448 -1.09524,0.74171 -1.79869,0.74171 -0.7035,0 -1.29506,-0.24723 -1.77468,-0.74171 -0.25584,-0.2552 -0.4477,-0.52636 -0.57558,-0.81347 l -4.43673,-11.36472 h -12.27895 l -4.4607,11.36472 c -0.12783,0.28711 -0.31977,0.55827 -0.57557,0.81347 -0.49565,0.49448 -1.0952,0.74171 -1.79869,0.74171 -0.70347,0 -1.29905,-0.24723 -1.78668,-0.74171 -0.48764,-0.49446 -0.73145,-1.09259 -0.73145,-1.79443 0,-0.38281 0.0879,-0.76562 0.2638,-1.14843 z"
       style="font-style:normal;font-variant:normal;font-weight:bold;font-stretch:normal;font-size:22.4px;line-height:125%;font-family:Comfortaa;-inkscape-font-specification:'Comfortaa Bold';letter-spacing:0px;word-spacing:0px;fill:#000000;fill-opacity:1;stroke:none;stroke-width:2.19008"
       id="path25604"
       inkscape:connector-curvature="0" />
    <path
       inkscape:connector-curvature="0"
       style="fill:#000000;fill-opacity:1;stroke:none;stroke-width:2.19008"
       d="m 164.87999,-114.42575 c -0.33568,-0.0219 -0.025,4.86889 -0.79752,7.49657 -1.86453,5.93151 -11.75012,7.869702 -15.41845,12.093541 -6.529,7.517575 -2.94846,14.482327 2.97734,18.14026 5.62667,3.473309 12.41938,-1.626667 13.09685,-2.157025 -0.009,0.137374 -0.0239,0.27044 -0.0355,0.406655 -0.002,0.02997 -0.0153,0.05863 -0.0175,0.08838 -0.83874,5.300766 -7.50018,7.48857 -10.31443,8.186119 h -1.29374 v 0.282887 h 1.86086 9.72959 0.0175 0.38988 0.0175 9.7296 1.86085 v -0.282887 h -1.29374 c -2.81409,-0.697549 -9.47573,-2.885353 -10.31445,-8.186119 -0.004,-0.02975 -0.0153,-0.05841 -0.0175,-0.08838 -0.011,-0.141968 -0.0263,-0.280568 -0.0355,-0.424352 0.33195,0.263265 4.52819,3.529964 9.10933,3.377015 1.33571,-0.04375 2.69131,-0.40215 3.98753,-1.202293 5.92582,-3.657933 9.50633,-10.622685 2.97736,-18.14026 -3.66836,-4.223839 -13.55392,-6.162031 -15.41848,-12.093541 -0.77287,-2.62768 -0.46182,-7.51101 -0.79749,-7.49657 z"
       id="path20813-8-4-0-2-0" />
    <path
       d="m 327.54142,110.27517 4.17294,10.74267 4.17291,-10.74267 z m 19.4017,-14.307587 -12.80655,32.873977 c -0.51161,1.14841 -1.31902,1.72263 -2.42221,1.72265 -1.13515,-2e-5 -1.94256,-0.57424 -2.42222,-1.72265 L 316.43761,95.847949 c -0.12783,-0.319003 -0.19185,-0.661937 -0.19185,-1.028802 4e-5,-0.701837 0.24786,-1.299964 0.74344,-1.794426 0.49568,-0.494484 1.09524,-0.741715 1.79869,-0.741715 0.7035,0 1.29506,0.247231 1.77468,0.741715 0.25584,0.255193 0.4477,0.526356 0.57558,0.813465 l 4.43673,11.364724 h 12.27895 l 4.4607,-11.364724 c 0.12783,-0.287109 0.31978,-0.558272 0.57557,-0.813465 0.49566,-0.494484 1.0952,-0.741715 1.79869,-0.741715 0.70348,0 1.29905,0.247231 1.78668,0.741715 0.48765,0.494462 0.73145,1.092589 0.73145,1.794426 0,0.382812 -0.0879,0.765624 -0.2638,1.148436 z"
       style="font-style:normal;font-variant:normal;font-weight:bold;font-stretch:normal;font-size:22.4px;line-height:125%;font-family:Comfortaa;-inkscape-font-specification:'Comfortaa Bold';letter-spacing:0px;word-spacing:0px;fill:#000000;fill-opacity:1;stroke:none;stroke-width:2.19008"
       id="path25601"
       inkscape:connector-curvature="0" />
    <path
       inkscape:connector-curvature="0"
       style="fill:#000000;fill-opacity:1;stroke:none;stroke-width:2.19008"
       d="m 331.72617,89.5214 c 0.33568,0.02187 0.025,-4.868888 0.79752,-7.496576 1.86454,-5.931509 11.75012,-7.869697 15.41845,-12.093536 6.529,-7.517576 2.94846,-14.482327 -2.97733,-18.140261 -5.62668,-3.473308 -12.41939,1.626667 -13.09686,2.157026 0.009,-0.137375 0.0239,-0.27044 0.0355,-0.406656 0.002,-0.02997 0.0153,-0.05863 0.0175,-0.08838 0.83874,-5.300765 7.50018,-7.488569 10.31443,-8.186118 h 1.29374 v -0.282888 h -1.86085 -9.7296 -0.0175 -0.38988 -0.0175 -9.7296 -1.86085 v 0.282888 h 1.29374 c 2.8141,0.697549 9.47573,2.885353 10.31445,8.186118 0.004,0.02975 0.0153,0.05841 0.0175,0.08838 0.011,0.141969 0.0263,0.280569 0.0355,0.424353 -0.33195,-0.263265 -4.52819,-3.529965 -9.10933,-3.377015 -1.33571,0.04375 -2.69131,0.40215 -3.98752,1.202292 -5.92582,3.657934 -9.50634,10.622685 -2.97736,18.140261 3.66835,4.223839 13.55391,6.162027 15.41847,12.093536 0.77287,2.627688 0.46182,7.511013 0.7975,7.496576 z"
       id="path20813-8-4-0-2-07" />
  </g>
</svg>
