<?xml version="1.0" encoding="UTF-8" standalone="no"?>
<svg
   xmlns:dc="http://purl.org/dc/elements/1.1/"
   xmlns:cc="http://creativecommons.org/ns#"
   xmlns:rdf="http://www.w3.org/1999/02/22-rdf-syntax-ns#"
   xmlns:svg="http://www.w3.org/2000/svg"
   xmlns="http://www.w3.org/2000/svg"
   xmlns:xlink="http://www.w3.org/1999/xlink"
   xmlns:sodipodi="http://sodipodi.sourceforge.net/DTD/sodipodi-0.dtd"
   xmlns:inkscape="http://www.inkscape.org/namespaces/inkscape"
   inkscape:version="1.0 (4035a4fb49, 2020-05-01)"
   sodipodi:docname="JH.svg"
   id="svg89"
   version="1.1"
   width="2.25in"
   viewBox="-106 -164.5 212 329"
   preserveAspectRatio="none"
   height="3.5in"
   face="JH"
   class="card">
  <metadata
     id="metadata93">
    <rdf:RDF>
      <cc:Work
         rdf:about="">
        <dc:format>image/svg+xml</dc:format>
        <dc:type
           rdf:resource="http://purl.org/dc/dcmitype/StillImage" />
      </cc:Work>
    </rdf:RDF>
  </metadata>
  <sodipodi:namedview
     inkscape:current-layer="svg89"
     inkscape:window-maximized="1"
     inkscape:window-y="-12"
     inkscape:window-x="-12"
     inkscape:cy="168"
     inkscape:cx="108"
     inkscape:zoom="2.2410714"
     showgrid="false"
     id="namedview91"
     inkscape:window-height="2050"
     inkscape:window-width="3240"
     inkscape:pageshadow="2"
     inkscape:pageopacity="0"
     guidetolerance="10"
     gridtolerance="10"
     objecttolerance="10"
     borderopacity="1"
     bordercolor="#666666"
     pagecolor="#ffffff" />
  <defs
     id="defs3">
    <rect
       y="-112.5"
       x="-54"
       height="225"
       width="108"
       id="XHJ" />
    <clipPath
       id="SVGID_6_-1">
      <path
         inkscape:connector-curvature="0"
         id="use9297-2"
         d="m 1380.7,589.9 c 0,0 -15.5,10.3 -22,22.5 -6.5,12.2 -11.9,33.6 -2.3,42 9.6,8.4 25.7,11 25.2,11.1 -0.4,0.1 17.7,-7.2 17.7,-7.2 0,0 16.1,-10 22,-21.8 5.9,-11.8 11.6,-34.1 2,-42.1 -9.6,-8 -25.4,-10.6 -25.4,-10.6 z" />
    </clipPath>
    <clipPath
       id="clipPath3621">
      <path
         inkscape:connector-curvature="0"
         id="path3619"
         d="m 1380.7,589.9 c 0,0 -15.5,10.3 -22,22.5 -6.5,12.2 -11.9,33.6 -2.3,42 9.6,8.4 25.7,11 25.2,11.1 -0.4,0.1 17.7,-7.2 17.7,-7.2 0,0 16.1,-10 22,-21.8 5.9,-11.8 11.6,-34.1 2,-42.1 -9.6,-8 -25.4,-10.6 -25.4,-10.6 z" />
    </clipPath>
    <clipPath
       id="clipPath3625">
      <path
         inkscape:connector-curvature="0"
         id="path3623"
         d="m 1380.7,589.9 c 0,0 -15.5,10.3 -22,22.5 -6.5,12.2 -11.9,33.6 -2.3,42 9.6,8.4 25.7,11 25.2,11.1 -0.4,0.1 17.7,-7.2 17.7,-7.2 0,0 16.1,-10 22,-21.8 5.9,-11.8 11.6,-34.1 2,-42.1 -9.6,-8 -25.4,-10.6 -25.4,-10.6 z" />
    </clipPath>
    <clipPath
       id="clipPath3629">
      <path
         inkscape:connector-curvature="0"
         id="path3627"
         d="m 1380.7,589.9 c 0,0 -15.5,10.3 -22,22.5 -6.5,12.2 -11.9,33.6 -2.3,42 9.6,8.4 25.7,11 25.2,11.1 -0.4,0.1 17.7,-7.2 17.7,-7.2 0,0 16.1,-10 22,-21.8 5.9,-11.8 11.6,-34.1 2,-42.1 -9.6,-8 -25.4,-10.6 -25.4,-10.6 z" />
    </clipPath>
  </defs>
  <symbol
     preserveAspectRatio="xMinYMid"
     viewBox="-500 -500 1000 1000"
     id="VHJ">
    <path
       id="path5"
       fill="none"
       stroke-miterlimit="1.5"
       stroke-linecap="square"
       stroke-width="80"
       stroke="red"
       d="M50 -460L250 -460M150 -460L150 250A100 100 0 0 1 -250 250L-250 220" />
  </symbol>
  <symbol
     preserveAspectRatio="xMinYMid"
     viewBox="-600 -600 1200 1200"
     id="SHJ">
    <path
       id="path8"
       fill="red"
       d="M0 -300C0 -400 100 -500 200 -500C300 -500 400 -400 400 -250C400 0 0 400 0 500C0 400 -400 0 -400 -250C-400 -400 -300 -500 -200 -500C-100 -500 0 -400 -0 -300Z" />
  </symbol>
  <symbol
     viewBox="0 0 1300 2000"
     preserveAspectRatio="none"
     id="HJ1">
    <path
       id="path11"
       d="M0,27.173828V101.95703L60,175v479.35156l45,-31.19922V332.34375c47.54746,13.88505 57.73238,59.91066 59.79883,112.82227C207.18347,366.33183 172.25032,341.86946 155,305c22.43469,-6.79444 44.1013,-15.65172 60,-40 -19.52239,-21.33976 -39.81246,-27.13153 -60,-35 45.60008,-69.69913 20.41092,-97.0017 -2.07617,-126.05273 4.26215,33.89362 6.38364,68.40734 -47.38086,116.95312L105,280.75V155ZM616.34375,120.03906C526.3282,120.06041 439.18658,135.8115 366.16406,156.02734 314.55478,278.49343 383.86141,375.08483 320,480c20,-55 -81.65669,-74.73568 -75,5 1.6217,19.42514 15.24678,28.67574 31.95117,29.88281 -4.328,-0.20376 -8.26681,-0.74477 -11.52734,-1.72461l-45.06641,31.08594 -0.004,-0.006L0,696.20703v30L235.47266,563.8125 220.76172,544.76562 497.5,902.5 497.53711,920H802.5V902.5C831.04785,785.34524 874.97288,678.68575 947.42969,583.45898l-103.83594,-76.0625c-18.96493,21.00634 -35.78143,42.99322 -50.81836,65.79297L794.87695,570H410.2832L360,505h-21.81836c7.03111,-2.08932 14.31437,-4.3835 21.77539,-6.81055 3.81978,-0.61198 7.658,-1.20233 11.50391,-1.78515L360,505 371.69531,520H831.34375L843.54492,507.42188 820,490H412.90234c34.85939,-5.90774 68.5241,-14.10649 95.88282,-32.44922 7.35264,-4.9296 12.78884,-12.42658 20.59375,-17.13476 11.29317,-6.81241 22.21032,-13.53066 28.29687,-25.41602l-25.60156,9.58594 25.20703,-9.50977C566.256,412.36441 572.55459,404.89083 580,390 640.11875,269.76248 560.23698,260.02899 644.35938,120.55078c-9.361,-0.34689 -18.70368,-0.51393 -28.01563,-0.51172zM1163.4961,464.57422C1139.5891,464.36529 1111.0213,474.23404 1090,490c-40,30 -80,15 -75,-25 -70,30 -5,140 65,95 42.1963,-27.12621 105,-40 115,-5 31.7426,-65.24868 5.7911,-90.09986 -31.5039,-90.42578zm-868.3711,48.73242 -2.73633,1.02539c-2.76961,0.29378 -5.48373,0.48671 -8.11719,0.58203 3.5681,-0.21551 7.21015,-0.7583 10.85352,-1.60742zm497.4707,60.15625C727.4259,672.39827 695.72535,786.61685 667.43945,902.42188L413.45703,574.10156 422.63867,585H785Zm226.8516,63.70703c-52.41192,65.67627 -90.81922,136.71006 -119.543,212.91992l21.53125,23.41797C949.01815,793.98668 986.39464,719.93105 1038.2734,651.53516 1032.8619,678.34072 1030,706.28322 1030,735c0,136.63964 64.8075,255.72421 160.7383,318.2852l-2.5957,-1.5899c-45.7522,115.8302 -115.5438,225.8674 -185.6465,304.2617l13.8496,17.4961c72.4161,-75.901 146.448,-187.7806 195.8398,-307.0332l-6.2675,-3.8379c29.1072,16.6244 60.7557,28.1762 94.082,33.7012v-18.4707c-143.4769,-19.1618 -255,-163.61481 -255,-339.00781 0,-26.57032 2.5625,-52.4286 7.4043,-77.25196l-14.0156,-10.16992c0.1069,-0.14093 0.2113,-0.28295 0.3183,-0.42383zm88.4023,64.60547 17.75,13.19727c-0.4431,6.60844 -0.668,13.28715 -0.668,20.02734 0,122.96218 75.111,225.58935 175.0684,249.65625V953.91992C1214.4587,930.39872 1150.8223,841.31333 1150.8223,735c0,-0.68109 -6e-4,-1.36136 0.01,-2.04102zm-20.2754,13.24219c-11.0121,-0.22638 -20.789,7.22834 -14.3144,26.10547 -44.4117,-8.72127 -25.5373,58.64315 7.2949,29.09961 7.5142,43.32743 68.5693,-5.00655 20.6015,-20.62891 18.9176,-19.53068 1.5087,-34.26595 -13.582,-34.57617zm-254.97068,86.53711 -29.98633,105.49023c48.75509,35.02012 80.41992,91.60728 80.41992,155.45508 0,37.0158 -10.64204,71.592 -29.08789,100.9395l67.25586,87.8105C964.19332,1199.8956 990,1134.1564 990,1062.5 990,950.02267 926.41359,852.12447 832.60352,801.55469Zm276.73238,19.51758c-12.9859,-0.007 -25.2401,9.4417 -13.3515,29.02929 -45.2497,0.95904 -12.4319,62.74162 13.3379,26.8711 16.5889,40.72513 65.9214,-19.52679 15.7246,-24.55078 12.7656,-20.61915 -1.8873,-31.34208 -15.711,-31.34961zm59.8321,95.60742c-15.4147,0.1637 -32.1278,14.61347 -11.7266,32.82617 -42.995,14.13824 6.4427,63.63544 20.6074,21.80078 27.764,34.10106 57.3396,-37.93396 7.8653,-28.07226 5.0597,-19.18575 -5.4976,-26.67415 -16.7461,-26.55469zm92.3183,75.375c-17.1575,-0.3911 -37.5381,22.87351 -8.5742,35.95901 -36.7797,26.3764 25.2245,58.778 26.1973,14.6211 8.7819,5.7917 15.8372,5.7501 20.8906,2.6777v-35.2988c-5.0219,-2.2384 -12.2178,-1.7718 -21.8047,3.4804 -0.7188,-15.41561 -8.3297,-21.24841 -16.709,-21.43941z"
       fill="#FC4" />
  </symbol>
  <symbol
     viewBox="0 0 1300 2000"
     preserveAspectRatio="none"
     id="HJ2">
    <path
       id="path14"
       d="M199.64844,0 355.70312,158.85547C484.17465,122.11158 658.57478,97.858259 815,150L960.45508,0h-86.25586l-72.25586,88.408203 -2.95898,-0.603515C763.77679,80.62013 729.26591,75.896485 695.65039,72.996094L690.62109,72.5625 697.58008,0h-67.60352l-0.084,70.974609 -4.99805,-0.0059c-38.8849,-0.03567 -76.40043,2.698568 -112.47461,7.173828L507.77148,78.720703 492.76953,0h-77.47851l32.89257,88.25 -5.82812,1.101562C413.49068,94.811819 385.99663,101.17094 359.80859,107.875l-3.43554,0.88086L283.97852,0Zm96.34375,0 64.80078,97.351562c23.53388,-5.971783 48.18939,-11.615645 73.91601,-16.621093L404.61719,0Zm206.95703,0 12.90234,67.705078c33.44321,-3.997357 68.14902,-6.46984 104.05274,-6.654297L619.97656,0Zm204.67383,0 -6.0918,63.533203c31.42374,2.872145 63.62284,7.330913 96.45898,13.910156L861.2832,0ZM0,101.95703V696.48828L60,654.35156V175Zm434.89844,426.79688c-6.16001,0 -12.29166,3.64996 -5.28711,10.93554a7.5,7.5 0 0 1 5.28711,-2.18554 7.5,7.5 0 0 1 5.28711,2.1875c7.0062,-7.28629 0.8732,-10.9375 -5.28711,-10.9375zm5.28711,10.9375c-0.102,0.10608 -0.17948,0.20487 -0.28711,0.3125 0.10799,-0.10799 0.20802,-0.18478 0.31445,-0.28711a7.5,7.5 0 0 0 -0.0273,-0.0254zm0.0273,0.0254a7.5,7.5 0 0 1 2.18555,5.28711 7.5,7.5 0 0 1 -2.1875,5.28711c14.57223,14.01206 14.57341,-24.58368 0.002,-10.57422zm-0.002,10.57422c-0.10608,-0.102 -0.20487,-0.17948 -0.3125,-0.28711 0.10799,0.10799 0.18478,0.20802 0.28711,0.31445a7.5,7.5 0 0 0 0.0254,-0.0273zm-0.0254,0.0273a7.5,7.5 0 0 1 -5.28711,2.18555 7.5,7.5 0 0 1 -5.28711,-2.1875c-14.01206,14.57223 24.58368,14.57341 10.57422,0.002zm-10.57422,-0.002c0.102,-0.10608 0.17948,-0.20487 0.28711,-0.3125 -0.10799,0.10799 -0.20803,0.18478 -0.31446,0.28711a7.5,7.5 0 0 0 0.0274,0.0254zm-0.0274,-0.0254a7.5,7.5 0 0 1 -2.18554,-5.28711 7.5,7.5 0 0 1 2.1875,-5.28711c-14.57223,-14.01206 -14.57342,24.58368 -0.002,10.57422zm0.002,-10.57422c0.10608,0.102 0.20487,0.17948 0.3125,0.28711 -0.10799,-0.10799 -0.18478,-0.20803 -0.28711,-0.31446a7.5,7.5 0 0 0 -0.0254,0.0274zm71.8164,-10.96289c-6.16001,0 -12.29166,3.64996 -5.28711,10.93554a7.5,7.5 0 0 1 5.28711,-2.18554 7.5,7.5 0 0 1 5.28711,2.1875c7.0062,-7.28629 0.8732,-10.9375 -5.28711,-10.9375zm5.28711,10.9375c-0.102,0.10608 -0.17948,0.20487 -0.28711,0.3125 0.10799,-0.10799 0.20803,-0.18478 0.31446,-0.28711a7.5,7.5 0 0 0 -0.0273,-0.0254zm0.0273,0.0254a7.5,7.5 0 0 1 2.18554,5.28711 7.5,7.5 0 0 1 -2.1875,5.28711c14.57223,14.01206 14.57342,-24.58368 0.002,-10.57422zm-0.002,10.57422c-0.10608,-0.102 -0.20487,-0.17948 -0.3125,-0.28711 0.10799,0.10799 0.18478,0.20802 0.28711,0.31445a7.5,7.5 0 0 0 0.0254,-0.0273zm-0.0254,0.0273a7.5,7.5 0 0 1 -5.28711,2.18555 7.5,7.5 0 0 1 -5.28711,-2.1875c-14.01206,14.57223 24.58368,14.57341 10.57422,0.002zm-10.57422,-0.002c0.102,-0.10608 0.17948,-0.20487 0.28711,-0.3125 -0.10799,0.10799 -0.20802,0.18478 -0.31445,0.28711a7.5,7.5 0 0 0 0.0273,0.0254zm-0.0273,-0.0254a7.5,7.5 0 0 1 -2.18555,-5.28711 7.5,7.5 0 0 1 2.1875,-5.28711c-14.57223,-14.01206 -14.57341,24.58368 -0.002,10.57422zm0.002,-10.57422c0.10608,0.102 0.20487,0.17948 0.3125,0.28711 -0.10799,-0.10799 -0.18478,-0.20803 -0.28711,-0.31446a7.5,7.5 0 0 0 -0.0254,0.0274zm71.81641,-10.96289c-6.16001,0 -12.29166,3.64996 -5.28711,10.93554a7.5,7.5 0 0 1 5.28711,-2.18554 7.5,7.5 0 0 1 5.28711,2.1875c7.0062,-7.28629 0.8732,-10.9375 -5.28711,-10.9375zm5.28711,10.9375c-0.102,0.10608 -0.17948,0.20487 -0.28711,0.3125 0.10799,-0.10799 0.20802,-0.18478 0.31445,-0.28711a7.5,7.5 0 0 0 -0.0273,-0.0254zm0.0273,0.0254a7.5,7.5 0 0 1 2.18555,5.28711 7.5,7.5 0 0 1 -2.1875,5.28711c14.57223,14.01206 14.57341,-24.58368 0.002,-10.57422zm-0.002,10.57422c-0.10608,-0.102 -0.20487,-0.17948 -0.3125,-0.28711 0.10799,0.10799 0.18478,0.20802 0.28711,0.31445a7.5,7.5 0 0 0 0.0254,-0.0273zm-0.0254,0.0273a7.5,7.5 0 0 1 -5.28711,2.18555 7.5,7.5 0 0 1 -5.28711,-2.1875c-14.01206,14.57223 24.58368,14.57341 10.57422,0.002zm-10.57422,-0.002c0.102,-0.10608 0.17948,-0.20487 0.28711,-0.3125 -0.10799,0.10799 -0.20802,0.18478 -0.31445,0.28711a7.5,7.5 0 0 0 0.0273,0.0254zm-0.0273,-0.0254a7.5,7.5 0 0 1 -2.18555,-5.28711 7.5,7.5 0 0 1 2.1875,-5.28711c-14.57223,-14.01206 -14.57341,24.58368 -0.002,10.57422zm0.002,-10.57422c0.10608,0.102 0.20487,0.17948 0.3125,0.28711 -0.10799,-0.10799 -0.18478,-0.20803 -0.28711,-0.31446a7.5,7.5 0 0 0 -0.0254,0.0274zm71.81445,-10.96289c-6.16001,0 -12.29166,3.64996 -5.28711,10.93554a7.5,7.5 0 0 1 5.28711,-2.18554 7.5,7.5 0 0 1 5.28711,2.1875c7.0062,-7.28629 0.8732,-10.9375 -5.28711,-10.9375zm5.28711,10.9375c-0.102,0.10608 -0.17948,0.20487 -0.28711,0.3125 0.10799,-0.10799 0.20803,-0.18478 0.31446,-0.28711a7.5,7.5 0 0 0 -0.0274,-0.0254zm0.0274,0.0254a7.5,7.5 0 0 1 2.18554,5.28711 7.5,7.5 0 0 1 -2.1875,5.28711c14.57223,14.01206 14.57342,-24.58368 0.002,-10.57422zm-0.002,10.57422c-0.10608,-0.102 -0.20487,-0.17948 -0.3125,-0.28711 0.10799,0.10799 0.18478,0.20802 0.28711,0.31445a7.5,7.5 0 0 0 0.0254,-0.0273zm-0.0254,0.0273a7.5,7.5 0 0 1 -5.28711,2.18555 7.5,7.5 0 0 1 -5.28711,-2.1875c-14.01206,14.57223 24.58368,14.57341 10.57422,0.002zm-10.57422,-0.002c0.102,-0.10608 0.17948,-0.20487 0.28711,-0.3125 -0.10799,0.10799 -0.20802,0.18478 -0.31445,0.28711a7.5,7.5 0 0 0 0.0273,0.0254zm-0.0273,-0.0254a7.5,7.5 0 0 1 -2.18555,-5.28711 7.5,7.5 0 0 1 2.1875,-5.28711c-14.57223,-14.01206 -14.57341,24.58368 -0.002,10.57422zm0.002,-10.57422c0.10608,0.102 0.20487,0.17948 0.3125,0.28711 -0.10799,-0.10799 -0.18478,-0.20803 -0.28711,-0.31446a7.5,7.5 0 0 0 -0.0254,0.0274zm71.81641,-10.96289c-6.16001,0 -12.29166,3.64996 -5.28711,10.93554a7.5,7.5 0 0 1 5.28711,-2.18554 7.5,7.5 0 0 1 5.28711,2.1875c7.0062,-7.28629 0.8732,-10.9375 -5.28711,-10.9375zm5.28711,10.9375c-0.102,0.10608 -0.17948,0.20487 -0.28711,0.3125 0.10799,-0.10799 0.20802,-0.18478 0.31445,-0.28711a7.5,7.5 0 0 0 -0.0273,-0.0254zm0.0273,0.0254a7.5,7.5 0 0 1 2.18555,5.28711 7.5,7.5 0 0 1 -2.1875,5.28711c14.57223,14.01206 14.57341,-24.58368 0.002,-10.57422zm-0.002,10.57422c-0.10608,-0.102 -0.20487,-0.17948 -0.3125,-0.28711 0.10799,0.10799 0.18478,0.20802 0.28711,0.31445a7.5,7.5 0 0 0 0.0254,-0.0273zm-0.0254,0.0273a7.5,7.5 0 0 1 -5.28711,2.18555 7.5,7.5 0 0 1 -5.28711,-2.1875c-14.01206,14.57223 24.58368,14.57341 10.57422,0.002zm-10.57422,-0.002c0.102,-0.10608 0.17948,-0.20487 0.28711,-0.3125 -0.10799,0.10799 -0.20802,0.18478 -0.31445,0.28711a7.5,7.5 0 0 0 0.0273,0.0254zm-0.0273,-0.0254a7.5,7.5 0 0 1 -2.18555,-5.28711 7.5,7.5 0 0 1 2.1875,-5.28711c-14.57223,-14.01206 -14.57341,24.58368 -0.002,10.57422zm0.002,-10.57422c0.10608,0.102 0.20487,0.17948 0.3125,0.28711 -0.10799,-0.10799 -0.18478,-0.20803 -0.28711,-0.31446a7.5,7.5 0 0 0 -0.0254,0.0274zm71.81445,-10.96289c-6.16001,0 -12.29166,3.64996 -5.28711,10.93554a7.5,7.5 0 0 1 5.28711,-2.18554 7.5,7.5 0 0 1 5.28711,2.1875c7.0062,-7.28629 0.8732,-10.9375 -5.28711,-10.9375zm5.28711,10.9375c-0.102,0.10608 -0.17948,0.20487 -0.28711,0.3125 0.10799,-0.10799 0.20803,-0.18478 0.31446,-0.28711a7.5,7.5 0 0 0 -0.0273,-0.0254zm0.0273,0.0254a7.5,7.5 0 0 1 2.18554,5.28711 7.5,7.5 0 0 1 -2.1875,5.28711c14.57223,14.01206 14.57342,-24.58368 0.002,-10.57422zm-0.002,10.57422c-0.10608,-0.102 -0.20487,-0.17948 -0.3125,-0.28711 0.10799,0.10799 0.18478,0.20802 0.28711,0.31445a7.5,7.5 0 0 0 0.0254,-0.0273zm-0.0254,0.0273a7.5,7.5 0 0 1 -5.28711,2.18555 7.5,7.5 0 0 1 -5.28711,-2.1875c-14.01206,14.57223 24.58368,14.57341 10.57422,0.002zm-10.57422,-0.002c0.102,-0.10608 0.17948,-0.20487 0.28711,-0.3125 -0.10799,0.10799 -0.20802,0.18478 -0.31445,0.28711a7.5,7.5 0 0 0 0.0273,0.0254zm-0.0273,-0.0254a7.5,7.5 0 0 1 -2.18555,-5.28711 7.5,7.5 0 0 1 2.1875,-5.28711c-14.57223,-14.01206 -14.57341,24.58368 -0.002,10.57422zm0.002,-10.57422c0.10608,0.102 0.20487,0.17948 0.3125,0.28711 -0.10799,-0.10799 -0.18478,-0.20803 -0.28711,-0.31446a7.5,7.5 0 0 0 -0.0254,0.0274zM470,600 655,840c17.49896,-85.45089 45,-165 85,-240zm680.832,132.95898c-0.01,0.67966 -0.01,1.35993 -0.01,2.04102 0,106.31333 63.6364,195.39872 149.1777,218.91992v-62.3457c-46.1093,-17.78491 -81.7451,-62.13411 -93.3594,-117.39453zM855.3457,851.5957C850.22328,851.6864 844.88281,854.14062 840,860L820.82227,883.01367 855.4668,913.43945 875,890c11.48438,-13.78125 -2.92105,-38.70057 -19.6543,-38.4043zm48.60742,53.82422c-3.6587,0.0964 -7.67536,1.34387 -11.95117,4.0957l-25.88672,16.66016 24.73243,38.89649 25.5625,-16.45118c16.62434,-10.69914 7.29998,-43.72176 -12.45704,-43.20117zm-101.33593,1.625 -0.0879,11.30274A3.0003,3.0003 0 0 0 799.95508,916.95703 3.0003,3.0003 0 0 0 797,920v20a3.0003,3.0003 0 0 0 5.3457,1.91016L802,986.10156c42.30656,39.72244 28.55091,84.92134 15.5293,130.04884l36.41992,47.2891c18.44585,-29.3475 29.08789,-63.9237 29.08789,-100.9395 0,-63.8478 -31.66483,-120.43496 -80.41992,-155.45508zm-302.66211,9.91211A3.0003,3.0003 0 0 0 497,920v20a3.0003,3.0003 0 1 0 6,0v-20a3.0003,3.0003 0 0 0 -3.04492,-3.04297zm15,0A3.0003,3.0003 0 0 0 512,920v20a3.0003,3.0003 0 1 0 6,0v-20a3.0003,3.0003 0 0 0 -3.04492,-3.04297zm15,0A3.0003,3.0003 0 0 0 527,920v20a3.0003,3.0003 0 1 0 6,0v-20a3.0003,3.0003 0 0 0 -3.04492,-3.04297zm15,0A3.0003,3.0003 0 0 0 542,920v20a3.0003,3.0003 0 1 0 6,0v-20a3.0003,3.0003 0 0 0 -3.04492,-3.04297zm15,0A3.0003,3.0003 0 0 0 557,920v20a3.0003,3.0003 0 1 0 6,0v-20a3.0003,3.0003 0 0 0 -3.04492,-3.04297zm15,0A3.0003,3.0003 0 0 0 572,920v20a3.0003,3.0003 0 1 0 6,0v-20a3.0003,3.0003 0 0 0 -3.04492,-3.04297zm15,0A3.0003,3.0003 0 0 0 587,920v20a3.0003,3.0003 0 1 0 6,0v-20a3.0003,3.0003 0 0 0 -3.04492,-3.04297zm15,0A3.0003,3.0003 0 0 0 602,920v20a3.0003,3.0003 0 1 0 6,0v-20a3.0003,3.0003 0 0 0 -3.04492,-3.04297zm15,0A3.0003,3.0003 0 0 0 617,920v20a3.0003,3.0003 0 1 0 6,0v-20a3.0003,3.0003 0 0 0 -3.04492,-3.04297zm15,0A3.0003,3.0003 0 0 0 632,920v20a3.0003,3.0003 0 1 0 6,0v-20a3.0003,3.0003 0 0 0 -3.04492,-3.04297zm15,0A3.0003,3.0003 0 0 0 647,920v20a3.0003,3.0003 0 1 0 6,0v-20a3.0003,3.0003 0 0 0 -3.04492,-3.04297zm15,0A3.0003,3.0003 0 0 0 662,920v20a3.0003,3.0003 0 1 0 6,0v-20a3.0003,3.0003 0 0 0 -3.04492,-3.04297zm15,0A3.0003,3.0003 0 0 0 677,920v20a3.0003,3.0003 0 1 0 6,0v-20a3.0003,3.0003 0 0 0 -3.04492,-3.04297zm15,0A3.0003,3.0003 0 0 0 692,920v20a3.0003,3.0003 0 1 0 6,0v-20a3.0003,3.0003 0 0 0 -3.04492,-3.04297zm15,0A3.0003,3.0003 0 0 0 707,920v20a3.0003,3.0003 0 1 0 6,0v-20a3.0003,3.0003 0 0 0 -3.04492,-3.04297zm15,0A3.0003,3.0003 0 0 0 722,920v20a3.0003,3.0003 0 1 0 6,0v-20a3.0003,3.0003 0 0 0 -3.04492,-3.04297zm15,0A3.0003,3.0003 0 0 0 737,920v20a3.0003,3.0003 0 1 0 6,0v-20a3.0003,3.0003 0 0 0 -3.04492,-3.04297zm15,0A3.0003,3.0003 0 0 0 752,920v20a3.0003,3.0003 0 1 0 6,0v-20a3.0003,3.0003 0 0 0 -3.04492,-3.04297zm15,0A3.0003,3.0003 0 0 0 767,920v20a3.0003,3.0003 0 1 0 6,0v-20a3.0003,3.0003 0 0 0 -3.04492,-3.04297zm15,0A3.0003,3.0003 0 0 0 782,920v20a3.0003,3.0003 0 1 0 6,0v-20a3.0003,3.0003 0 0 0 -3.04492,-3.04297zm148.31836,54.35547c-2.10465,-0.01 -4.38863,0.26955 -6.85547,0.88477l-28.98047,7.22656 12.8457,44.30277 26.66797,-6.6504c20.95829,-5.227 21.1571,-45.6492 -3.67773,-45.7637zm-20.50196,71.0957 -0.70507,46.0918 25.52734,0.7383c23.42103,0.6763 34.49983,-45.1173 1.9707,-46.0567zm-4.39843,67.3281 -14.51758,43.9063 28.37695,6.9004c22.76702,5.5376 43.1364,-36.9437 11.51563,-44.6348zm-19.98243,55.2246 -14.91601,23.9707 25.91406,32.9922c16.52982,-3.8083 31.37867,-24.5517 12.15235,-39.2558z"
       fill="red" />
  </symbol>
  <symbol
     viewBox="0 0 1300 2000"
     preserveAspectRatio="none"
     id="HJ3">
    <path
       id="path17"
       d="M1011.2375,1309.3487l-48.70288,-63.3379C998.86267,1193.6214 1020,1130.4838 1020,1062.5 1020,987.1903 994.06177,917.82763 950.38033,862.18014 971.47043,806.53937 997.82593,754.00937 1031.0655,704.16801 1030.3772,714.25089 1030,724.5744 1030,735c0,123.54039 52.9686,232.74556 134.4214,299.0404 -37.0258,100.8237 -93.2943,198.0296 -153.1839,275.3083zM748,366c20.00463,-2.5693 42.80076,-23.89729 48,-29 4.09299,-4.017 14.92184,4.33969 14,10 -19.78153,10.29837 -48.04318,21.62838 -62,19M687,224c2.04677,3.4714 65.66773,-38.84566 77,-43 13.90454,-5.09732 26.59367,6.69159 26,6l2,11c0,0 -16.40931,-11.86356 -25,-9 -9,3 -78.94364,40.1459 -80,35zM787.99997,233.5a8.4999998,15.5 0 0 1 -8.5,15.5 8.4999998,15.5 0 0 1 -8.5,-15.5 8.4999998,15.5 0 0 1 8.5,-15.5 8.4999998,15.5 0 0 1 8.5,15.5z"
       fill="#44F" />
  </symbol>
  <symbol
     viewBox="0 0 1300 2000"
     preserveAspectRatio="none"
     id="HJ4">
    <path
       id="path20"
       d="M632.88086,93.753906C522.32033,93.230847 421.89438,114.26582 335.61914,138.32227l20.08398,20.5332C484.17465,122.11158 658.57478,97.858259 815,150l26.9668,-28.01758C769.20092,102.14267 699.21718,94.067742 632.88086,93.753906Zm-366.95703,418.851564 -3.6836,2.35547 -6.79882,22.09765 11.08007,12.82422 48.81446,-7.50976 -14.82227,44.46484 10.31641,13.12695 46.3457,-3.86132 -11.91992,51.64843 11.38867,12.11133 45.49805,-7.58203 -11.91992,55.62305 11.42187,11.95898 44.03906,-7.33984 -15.24218,49.53515 11.08007,12.82422 49.22657,-7.57422 -15.30664,49.75L485,830h50.72266L520.60156,871.58203 530,885h49.4707l-7.8164,17.19531 21.77734,0.41992 10.67188,-23.47656L595,865H544.27734L559.39844,823.41797 550,810h-51.45898l16.01757,-52.05859 -11.08007,-12.82422 -49.22657,7.57422 15.30664,-49.75 -11.20312,-12.80469 -45.49805,7.58203 11.91992,-55.62305 -11.42187,-11.95898 -45.25,7.54101 11.63867,-50.42968 -10.57422,-12.21289 -44.88867,3.74023 15.20508,-45.61328 -11.00781,-13.04492 -49.22657,7.57422 3.76953,-12.25zm627.30078,30.62695 -44.74609,6.88477 -8.22266,12.13086 12.75195,55.25586 -55.25586,12.75195 -6.98242,13.58984 21.1543,50.76953 -50.76953,21.1543 -5.38477,13.07617 21.67578,52.02539 -42.58984,25.55469 -3.59766,13.42969 20.89649,37.61523 -43.40039,34.72071c-3.1114,2.39843 -4.41618,6.26064 -3.70703,9.86132l22.80273,0.47266 43.39648,-34.7168 2.4961,-12.66406 -20.30274,-36.54687 41.70508,-25.02344 4.08594,-12.41992 -21.1543,-50.76953 50.76953,-21.1543 5.38477,-13.07617 -20.44727,-49.07227 53.46485,-12.33789 7.49609,-11.99219 -12.57812,-54.50586 52.48437,-8.07617zM350,550a7.5,7.5 0 0 0 -7.5,7.5 7.5,7.5 0 0 0 7.5,7.5 7.5,7.5 0 0 0 7.5,-7.5 7.5,7.5 0 0 0 -7.5,-7.5zm-62.5,7.5a7.5,7.5 0 0 0 -7.5,7.5 7.5,7.5 0 0 0 7.5,7.5 7.5,7.5 0 0 0 7.5,-7.5 7.5,7.5 0 0 0 -7.5,-7.5zm605,20a7.5,7.5 0 0 0 -7.5,7.5 7.5,7.5 0 0 0 7.5,7.5 7.5,7.5 0 0 0 7.5,-7.5 7.5,7.5 0 0 0 -7.5,-7.5zM440,585 660,870C684.37858,769.03229 716.85829,670.13127 765,585Zm387.5,7.5a7.5,7.5 0 0 0 -7.5,7.5 7.5,7.5 0 0 0 7.5,7.5 7.5,7.5 0 0 0 7.5,-7.5 7.5,7.5 0 0 0 -7.5,-7.5zM470,600h270c-40,75 -67.50104,154.54911 -85,240zm-137.5,7.5a7.5,7.5 0 0 0 -7.5,7.5 7.5,7.5 0 0 0 7.5,7.5 7.5,7.5 0 0 0 7.5,-7.5 7.5,7.5 0 0 0 -7.5,-7.5zm60,0a7.5,7.5 0 0 0 -7.5,7.5 7.5,7.5 0 0 0 7.5,7.5 7.5,7.5 0 0 0 7.5,-7.5 7.5,7.5 0 0 0 -7.5,-7.5zm646.0098,43.64453C986.59951,719.5142 949.09448,793.76486 921.19922,873.48633 964.09618,924.86002 990,990.71027 990,1062.5c0,71.6564 -25.80649,137.3957 -68.66602,188.7656l80.89842,104.3867c70.3681,-78.0894 140.1574,-188.1254 185.9356,-304.125 -8.0489,-5.3952 -15.8824,-11.065 -23.4278,-17.2265 -37.3456,100.5639 -93.6123,197.7701 -153.5019,275.0488l-48.70314,-63.3379C998.86321,1193.6223 1020,1130.4838 1020,1062.5c0,-4.8592 -0.1124,-9.6924 -0.3262,-14.5H1050a3.0003,3.0003 0 1 0 0,-6h-30.6504c-0.5096,-8.0838 -1.3301,-16.0845 -2.4277,-24H1062.5a3.0003,3.0003 0 1 0 0,-6h-46.4648c-1.2796,-8.0997 -2.8527,-16.10559 -4.7266,-24H1065a3.0003,3.0003 0 1 0 0,-6h-55.1816c-1.8291,-7.09289 -3.8888,-14.09687 -6.1817,-21H1080a6.0006,6.0006 0 0 0 4.3965,-1.83398c-2.1617,-3.34316 -4.2641,-6.73858 -6.3301,-10.16602h-78.67968c-2.29271,-6.0859 -4.76933,-12.08684 -7.41406,-18H1065a6.0006,6.0006 0 0 0 2.5684,-0.54492c-2,-3.77475 -3.9402,-7.59447 -5.8262,-11.45508h-75.43556c-3.03586,-6.10523 -6.25428,-12.10927 -9.6582,-18h76.84766c-1.6961,-3.96114 -3.3312,-7.96196 -4.9082,-12h-79.21876c-3.90463,-6.13736 -8.01894,-12.13545 -12.31641,-18h84.97847c-1.3369,-3.96504 -2.6,-7.97156 -3.8222,-12h-86.59962c2.31428,-6.03484 4.67959,-12.03815 7.12109,-18h74.45313c-1.0126,-3.97378 -1.9725,-7.97337 -2.8731,-12h-66.54683c2.58201,-6.0357 5.22352,-12.03903 7.94531,-18h54.99222c-0.7097,-3.97808 -1.3673,-7.97784 -1.9668,-12h-47.41604c2.87844,-6.03674 5.82351,-12.03979 8.85547,-18h36.26167c-0.4222,-3.98163 -0.7903,-7.98169 -1.1035,-12h-28.90427c11.72897,-22.08559 24.55627,-43.65045 38.62887,-64.70312 1.34,-18.05589 3.7721,-35.74585 7.4532,-53.15235zM842.5,652.5a7.5,7.5 0 0 0 -7.5,7.5 7.5,7.5 0 0 0 7.5,7.5 7.5,7.5 0 0 0 7.5,-7.5 7.5,7.5 0 0 0 -7.5,-7.5zm-465,15a7.5,7.5 0 0 0 -7.5,7.5 7.5,7.5 0 0 0 7.5,7.5 7.5,7.5 0 0 0 7.5,-7.5 7.5,7.5 0 0 0 -7.5,-7.5zm60,0a7.5,7.5 0 0 0 -7.5,7.5 7.5,7.5 0 0 0 7.5,7.5 7.5,7.5 0 0 0 7.5,-7.5 7.5,7.5 0 0 0 -7.5,-7.5zm345,10a7.5,7.5 0 0 0 -7.5,7.5 7.5,7.5 0 0 0 7.5,7.5 7.5,7.5 0 0 0 7.5,-7.5 7.5,7.5 0 0 0 -7.5,-7.5zm-300,45a7.5,7.5 0 0 0 -7.5,7.5 7.5,7.5 0 0 0 7.5,7.5 7.5,7.5 0 0 0 7.5,-7.5 7.5,7.5 0 0 0 -7.5,-7.5zm-65,5a7.5,7.5 0 0 0 -7.5,7.5 7.5,7.5 0 0 0 7.5,7.5 7.5,7.5 0 0 0 7.5,-7.5 7.5,7.5 0 0 0 -7.5,-7.5zM805,735a7.5,7.5 0 0 0 -7.5,7.5 7.5,7.5 0 0 0 7.5,7.5 7.5,7.5 0 0 0 7.5,-7.5 7.5,7.5 0 0 0 -7.5,-7.5zm-55,30a7.5,7.5 0 0 0 -7.5,7.5 7.5,7.5 0 0 0 7.5,7.5 7.5,7.5 0 0 0 7.5,-7.5 7.5,7.5 0 0 0 -7.5,-7.5zm456.8242,9.25586c11.4441,55.1896 47.0675,99.5319 93.1758,117.31641V842.6582c-31.005,-22.77868 -62.0072,-45.55561 -93.1758,-68.40234zM462.5,782.5a7.5,7.5 0 0 0 -7.5,7.5 7.5,7.5 0 0 0 7.5,7.5 7.5,7.5 0 0 0 7.5,-7.5 7.5,7.5 0 0 0 -7.5,-7.5zm65,0a7.5,7.5 0 0 0 -7.5,7.5 7.5,7.5 0 0 0 7.5,7.5 7.5,7.5 0 0 0 7.5,-7.5 7.5,7.5 0 0 0 -7.5,-7.5zm250,35a7.5,7.5 0 0 0 -7.5,7.5 7.5,7.5 0 0 0 7.5,7.5 7.5,7.5 0 0 0 7.5,-7.5 7.5,7.5 0 0 0 -7.5,-7.5zm-270,25a7.5,7.5 0 0 0 -7.5,7.5 7.5,7.5 0 0 0 7.5,7.5 7.5,7.5 0 0 0 7.5,-7.5 7.5,7.5 0 0 0 -7.5,-7.5zm65,0a7.5,7.5 0 0 0 -7.5,7.5 7.5,7.5 0 0 0 7.5,7.5 7.5,7.5 0 0 0 7.5,-7.5 7.5,7.5 0 0 0 -7.5,-7.5zM725,845a7.5,7.5 0 0 0 -7.5,7.5 7.5,7.5 0 0 0 7.5,7.5 7.5,7.5 0 0 0 7.5,-7.5 7.5,7.5 0 0 0 -7.5,-7.5z"
       fill="black" />
  </symbol>
  <symbol
     viewBox="0 0 1300 2000"
     preserveAspectRatio="none"
     id="HJ5">
    <path
       id="path23"
       d="M497.5,1097.5v-195h305M497.53695,920h304.5977M497.7422,940H802.54516M497.5,902.5 220.25073,544.1046M527.5,902.5 239.8832,530.70267M637.5,902.5 332.0425,507.6403M667.5,902.5 360,505M843.54523,507.42138C742.26363,619.63396 702.25643,759.86643 667.5,902.5M861.60228,521.11429C769.04953,630.9337 730.8566,765.61106 697.5,902.5M927.76658,569.28185C849.2527,668.40463 802.42708,779.68513 772.5,902.5M947.11176,583.06392C874.97254,678.68619 831.04785,785.34524 802.5,902.5M1019.4464,637.16898C967.03454,702.84525 928.62898,773.87944 899.9052,850.0893M1038.7061,650.95849C986.60024,719.51428 949.09489,793.76442 921.43496,873.50848M832.60383,801.55437C926.4139,852.12415 990,950.02267 990,1062.5c0,71.6564 -25.80726,137.3957 -68.7955,188.7501M809.46486,875.27936c62.6448,39.58869 104.13315,108.64851 104.13315,187.22064 0,47.0778 -14.89435,90.7407 -40.30962,126.6955M802.61707,907.04434c48.75509,35.02012 80.42015,91.60786 80.42015,155.45566 0,37.0158 -10.64298,71.5914 -29.08883,100.9389M410.44704,570H795.05972M371.6955,520H831.34393M380,490h440l479.9997,352.65281M266.06519,512.71366 -6.0121561e-5,696.20694M235.47171,563.81223 -1.1326293e-4,726.20659M950.47664,862.55118C994.06177,917.82763 1020,987.1903 1020,1062.5c0,67.9838 -21.13733,131.1214 -57.31256,183.4252M1299.9766,1096.2998C1147.3348,1070.9868 1030,918.87092 1030,735c0,-28.78989 2.8766,-56.80127 8.3149,-83.66927M1299.9975,984.66375C1200.0407,960.59622 1124.9315,857.96173 1124.9315,735c0,-6.74019 0.2257,-13.4193 0.6688,-20.02774M1299.9321,953.90857C1214.4234,930.36018 1150.8219,841.28651 1150.8219,735c0,-0.68109 0,-1.36148 0.01,-2.04114M1299.9857,891.58596c-46.1051,-17.78701 -81.7307,-62.14932 -93.3443,-117.40631M1212.1849,1066.4204c-49.3918,119.2526 -123.4237,231.1324 -195.8398,307.0334M1188.142,1051.6962c-45.7522,115.8302 -115.5424,225.8669 -185.6451,304.2612M1164.8169,1034.2942c-37.4213,100.5699 -93.6898,197.7758 -153.4812,274.922M962.38181,1246.0963l48.75749,63.3848M1031.0142,704.28923c-33.18827,49.72014 -59.54377,102.25014 -80.73019,157.51986M422.63854,585h362.2616M1299.9825,1077.8418C1156.5101,1058.6748 1045,914.19428 1045,738.80502c0,-26.88135 2.6195,-53.03664 7.572,-78.12596M1059.3988,741.1094c0,-0.7675 -0.01,-1.53563 -0.01,-2.30438 0,-23.56378 2.1189,-46.54024 6.1428,-68.67569M1077.9111,856.36385c-8.1994,-24.99069 -13.8614,-51.48648 -16.6107,-79.04168M1140.3179,969.09258c-20.1073,-23.63481 -37.1356,-50.95235 -50.3073,-81.02974M1241.484,1044.4857c-31.0325,-13.0137 -59.4912,-32.4944 -84.2264,-57.07775M1299.9607,1060.6434c-8.0784,-1.1381 -16.0486,-2.6948 -23.8949,-4.6511M1076.5153,718.27127c0.705,-12.56452 2.0523,-24.92048 4.0032,-37.02207M1093.7098,850.36695c-8.1545,-24.56307 -13.6959,-50.68734 -16.2177,-77.89045M1150.033,952.84535c-17.5756,-21.10073 -32.5713,-45.23454 -44.3795,-71.68049M1252.6715,1028.2529c-28.5847,-11.0962 -54.9586,-27.9901 -78.1352,-49.51054M1093.2595,715.83004c0.5275,-7.84278 1.3227,-15.59602 2.3747,-23.24684M1102.8983,822.03399c-2.8744,-11.18221 -5.1848,-22.65642 -6.8916,-34.37593M1150.8209,924.93938c-7.8627,-10.79917 -15.0532,-22.30675 -21.4945,-34.43117M1241.4527,1002.431c-13.8083,-6.72368 -26.9716,-14.93093 -39.3489,-24.45461M1109.1216,731.53526c0.2141,-9.44092 0.844,-18.75874 1.8687,-27.92864M1109.0703,734.34219c0.013,-0.93684 0.03,-1.87249 0.051,-2.80693M1109.364,753.22508c-0.2155,-4.77424 -0.3247,-9.58202 -0.3247,-14.42006 0,-1.49051 0.01,-2.97816 0.031,-4.46283M1120.8416,824.07536c-3.907,-13.6632 -6.9011,-27.82669 -8.8959,-42.38814M1131.024,853.6527c-1.0209,-2.51801 -2.0094,-5.05809 -2.9647,-7.61949M1166.911,916.88195c-8.7223,-11.4161 -16.6179,-23.73811 -23.5748,-36.83294M1189.8783,942.97133c-1.163,-1.14547 -2.316,-2.30466 -3.4589,-3.47737M1299.9752,1001.2117c-32.0129,-5.53997 -61.8239,-19.13493 -87.9255,-38.99596M1125.046,852.42232c24.7576,-39.98864 -53.6064,-42.7593 -29.0623,-2.32039 -45.2497,0.95904 -12.4313,62.74216 13.3385,26.87164 16.5889,40.72513 65.9206,-19.52725 15.7238,-24.55125v0M1101.1567,749.59303c32.7223,-33.7828 -43.2444,-53.21583 -27.8973,-8.47005 -44.4117,-8.72127 -25.5367,58.64294 7.2955,29.0994 7.5142,43.32743 68.5695,-5.00699 20.6018,-20.62935v0M1185.9135,943.23345c11.9934,-45.4773 -63.7606,-25.23078 -28.4721,6.27226 -42.995,14.13824 6.4431,63.63649 20.6078,21.80186 27.764,34.10103 57.3386,-37.9358 7.8643,-28.07412v0M1300.1346,1010.0689c-5.0274,-2.3059 -12.2681,-1.873 -21.9391,3.4253 -2.1906,-46.98115 -68.3917,-4.9574 -25.2826,14.5187 -36.7797,26.3764 25.2227,58.7787 26.1955,14.6218 8.8116,5.8113 15.8896,5.7573 20.9466,2.654M802.34549,1041.2843C814.63704,1035.196 839.54293,1023.4286 855,1020c31.90193,-7.0763 33.67529,38.5554 5,40 -14.79504,0.7454 -43.33343,3.1297 -57.13915,4.3161M802.25855,1053.1854 835,1045M803.00171,1017.2272c8.41639,-9.3606 23.833,-25.79263 34.75877,-33.27917C861.51045,967.67407 877.96428,1004.3905 855,1015c-15.99648,7.3905 -51.48716,25.4599 -51.48716,25.4599M802.64135,1030.5334l26.99137,-19.5741M802.80081,968.57226c3.87242,-6.98034 7.98425,-13.66987 11.74319,-18.33954 18.05323,-22.4273 44.38909,7.99058 25.456,24.76728 -9.83206,8.71234 -28.32887,26.2301 -37.10666,34.5821M802.56213,994.1675l11.98221,-15.72717M802.68055,916.23818c12.41066,0.87889 23.55886,16.50494 13.28335,30.12997 -3.49586,4.63547 -8.30966,11.29224 -13.19342,18.13512M803.20787,1067.8041c13.22136,-1.6585 41.62409,-4.7271 57.74749,-2.8041 32.44737,3.8698 19.03328,47.5214 -8.50686,39.4035 -12.40462,-3.6565 -35.10706,-9.5972 -49.6034,-13.3393M803.11653,1079.1488l30.69768,2.8324M802.82468,1091.4315c13.12209,3.4126 40.07008,10.9394 54.14009,18.5685 25.82865,14.0049 5.32659,44.2101 -15.49798,37.2863M811.19881,1108.5079l14.27286,7.2529M820.8225,883.013 840,860c20.83333,-25 50,12 35,30l-19.53316,23.43979M866.11475,926.17568l25.88781,-16.66095c27.36518,-17.61176 44.10978,26.42587 24.40685,39.10634l-25.56123,16.45076M897.43728,979.42445l28.98058,-7.22761c31.57555,-7.87478 33.26702,39.20846 10.53261,44.87836l-26.66754,6.6507M912.77209,1042.4082l26.79187,0.7737c32.52913,0.9394 21.45053,46.7319 -1.9705,46.0556l-25.52652,-0.7372M908.37226,1109.7355l25.37541,6.1722c31.62077,7.6911 11.25123,50.1737 -11.51579,44.6361l-28.3756,-6.9018M888.39003,1164.9612l23.15134,17.7061c19.22632,14.7041 4.37666,35.4488 -12.15316,39.2571M830.62097,805.88837c8.31077,11.1943 11.71243,25.64414 4.93257,37.82254 33.97969,-40.77564 81.55128,19.57231 57.0859,48.93077 44.63332,-28.72524 71.9442,43.10127 39.80821,63.78344 51.50053,-12.84397 54.25937,63.94998 17.17898,73.19768 53.05587,1.5321 34.98636,76.221 -3.21387,75.1178 51.5743,12.5445 18.35102,81.8348 -18.78247,72.8027 29.40202,22.4864 9.94438,53.6341 -14.82051,62.5533M-4.1946769e-5,27.173862 105,155v468.15271M-2.8273735e-4,101.95617 60,175v479.3514M105.54275,220.90029C171.88778,160.99512 153.13361,122.45876 150,80 301.15308,208.77386 259.82851,334.77263 165,460 164.26867,400.69123 156.82035,347.16077 104.53351,332.20266M153.06712,103.9937C175.41109,132.99927 200.60008,160.30087 155,230c20.18754,7.86847 40.47761,13.66024 60,35 -15.8987,24.34828 -37.56531,33.20556 -60,40 17.25032,36.86946 52.18325,61.33171 9.93938,139.94598M1086.0394,685.5545c1.7233,-14.74679 5.1887,-42.09582 8.9606,-45.5545 5.2413,-4.80604 44.3306,-54.33061 50,-60 5,-5 35,-10 40,-10 5,0 26.7295,9.53056 30,25 9.5798,45.31219 -10.2427,75.36551 -35,10 -10,10 -15,10 -30,10 42.7191,33.89473 28.8882,60.20895 -15,80M1189.8315,569.82955c3.7063,-4.79594 8.7183,-9.81274 15.1685,-14.82955 30.7488,-23.91573 77.0146,-7.61148 30,30 -6.8761,5.50082 -13.2793,9.58326 -19.0927,12.44235M1230.9668,588.23519c37.4032,-11.4695 66.8088,9.20148 8.4314,42.19727 -55.5965,31.42397 -78.104,13.09477 -54.4123,-13.08287M1238.0928,630.92036c34.2811,-2.65327 54.6718,18.51589 -2.5656,38.27169 -59.9763,20.70116 -76.9537,-1.87148 -43.8532,-22.36324M1237.4958,668.58075c34.1493,-2.05232 55.8945,22.6568 0.3302,36.41925 -57.1622,14.15822 -68.359,-12.30845 -31.5144,-28.41069M1177.8222,753.31072c22.2723,-6.8921 50.5575,-31.93645 53.3065,-46.62429M1168.572,672.59595C1173.4508,691.9311 1152.688,716.34327 1150,715M1015,465c-5,40 35,55 75,25 53.8145,-40.36087 157.0904,-42.07476 105,65 -10,-35 -72.8037,-22.12621 -115,5 -70,45 -135,-65 -65,-95v0M1015,465c-45.45331,52.65511 14.2155,101.95688 90,50 74.2723,-50.9201 112.5215,23.68817 90,40l-5,15M1173.8273,465.27755c8.6562,16.01934 15.1305,32.11284 16.2744,48.38751M1150.3512,465.31008c9.9197,11.14178 17.9456,22.90676 22.3083,35.87714M1109.8914,477.9655c9.1807,6.8231 17.7409,14.14097 24.6983,22.41128M1076.3529,498.61036c12.9644,2.47265 25.0837,6.15631 35.6306,12.09304M1049.0062,506.01786c9.8926,7.50188 18.5778,15.68412 25.1195,25.07438M1019.7988,491.34042c7.3907,15.13275 13.1172,30.23105 14.7384,45.24445M1165.0155,533.9652c5.593,-10.02146 4.31,-21.72479 0.053,-35.11M1141.9579,535.46523c4.6695,-10.0807 3.3875,-22.60148 0.018,-37.07727M1101.1435,548.3359c4.6469,-8.76053 5.254,-20.1225 4.4572,-33.29616M1052.2805,570.45609c7.1559,-8.40756 10.151,-21.05102 12.2908,-36.06985M1004.5272,552.51315c6.7414,-4.07742 12.7139,-10.69226 18.6459,-18.78401M807.13712,147.06767C812.8806,165.26885 820,189.03368 820,195c0,11.18034 -5,13.12816 -5,20 0,5 40,70 40,90 0,20 -20,20 -25,20 -5,0 0,20 0,25 0,5 -5,15 -5,15 0,0 5,7.92893 5,15 0,15 -30,15 -30,15 0,0 5,15 5,20 0,5 20,0 20,25 0,10 -30,35 -40,35 -10,0 -20,-10 -30,-10 -10,0 -25,10 -35,10 -10,0 -61.02633,-20.51317 -80,-30 -10,-5 -8.57698,-19.97248 -25.60017,-26.56822 -10.39523,-4.0277 -21.73865,-19.19489 -30.4987,-36.12401M800,295c-39.02114,3.50289 -15.75534,40.28179 20,15 8.16508,-5.77334 0,5 0,5 -9.08317,0 -18.01656,4.73102 -25,4M748,366c20.00463,-2.5693 42.80076,-23.89729 48,-29 4.09299,-4.017 14.92184,4.33969 14,10 -19.78153,10.29837 -48.04318,21.62838 -62,19M784,374c14.112,-2.18007 28.14848,-0.78183 41,-10M687,224c2.04677,3.4714 65.66773,-38.84566 77,-43 13.90454,-5.09732 26.59367,6.69159 26,6l2,11c0,0 -16.40931,-11.86356 -25,-9 -9,3 -78.94364,40.1459 -80,35v0M715,245c33.34705,-2.16778 60.22567,-31.5381 87,-30M744.95992,236.78803C732.52561,265.24338 785.72384,244.61524 803,254M820,490 795.10673,471.33005M366.44945,156.05442C314.55451,278.49268 383.86141,375.08483 320,480c-9.53236,15.66031 -50,25 -55,0 -8.82523,-44.12613 50.24631,-27.89151 35,-10M388.83082,150.20227C331.01917,274.73282 395.78822,368.42356 340,480c-20,40 -91.15891,51.00962 -95,5 -6.65669,-79.73568 95,-60 75,-5M411.71309,144.17621C348.90694,271.72703 416.68449,366.63102 360,480c-12.3444,24.6888 -44.17833,38.33341 -67.64358,34.34322M434.14583,139.28589C366.70555,269.31221 432.40655,365.18689 375,480c-8.54683,17.09367 -22.77226,24.41423 -38.50395,25.97628M456.34823,135.07731C385.29084,266.55627 453.01849,353.96301 395,470c-12.3444,24.6888 -36.53475,38.99019 -60,35M478.34759,131.42121C404.0323,264.67715 473.55298,347.89403 415,465c-11.86382,23.72764 -30.05092,33.24264 -52.279,30.40547M500.27899,128.00352C422.83812,263.2613 494.05195,346.89608 435,465c-12.3444,24.6888 -26.53475,28.99019 -50,25M521.68345,125.57289C441.98226,262.26286 514.40487,346.19024 455,465c-12.3444,24.6888 -31.53475,28.99019 -55,25M543.01541,123.30571C461.1798,261.18125 534.73234,335.53531 475,455c-12.3444,24.6888 -26.53475,33.99019 -50,30M563.98404,121.68268C480.60166,260.55951 554.96627,330.06746 495,450c-12.3444,24.6888 -26.53475,33.99019 -50,30M584.58074,120.69207C500.24771,260.21318 575.10867,324.78265 515,445c-10.35677,20.71354 -18.49341,27.07646 -34.70275,26.23205M605,120c-85,140 -9.79203,189.58405 -70,310 -9.21459,18.42919 -16.67175,28.28448 -29.62065,30.43761M625,120c-85,140 -9.79203,179.58405 -70,300 -6.15308,12.30616 -15.24933,18.30473 -25.73193,20.7321M644.62322,120.6215C560.2374,260.02865 640.11875,269.76248 580,390c-7.44541,14.89083 -13.74345,22.36514 -22.7182,25.07689M335.61818,138.23352C473.65944,99.832554 647.92533,69.076687 841.9261,121.81864M199.64831,1.2820655e-4 355.70312,158.85547C484.17465,122.11158 658.57478,97.858259 815,150L960.45465,-4.1127205e-4"
       fill="none"
       stroke-width="6"
       stroke-linejoin="round"
       stroke-linecap="round"
       stroke="#44F" />
  </symbol>
  <symbol
     viewBox="0 0 1300 2000"
     preserveAspectRatio="none"
     id="HJ6">
    <path
       id="path26"
       d="M115,211.83788V336.03517M125,201.16992V341.48437M135,188.60547V349.31836M145,171.89258V361.47461M155,90V382.19531M165,93.402342V455M175,103.03515V446.27931M185,113.46094v318.7246M195,124.76953V417.1758M205,137.23438V400.86523M215,151.24023V383.21681M225,167.81836V363.49804M1202,680c9.8093,8.78849 7.628,26.84045 4,27M1194,649c9.8093,8.78849 7.628,26.84045 4,27M1215,603c-9,5 -4,36 -4,36M1221,648c3.2158,4.71238 3.8261,10.28421 4,16M1231,682c3.2158,4.71238 3.8261,10.28421 4,16M804,254c-2.91484,-2.55137 -26.0397,5.37637 -27,11M803,214c-12,3 -23,-10 -37,-10 -4.12311,0 -22,8 -22,8M785.39658,217.99026c3.63476,2.7787 5.51372,8.26714 5.60342,14.50974 0,10.21727 -6.49187,18.5 -14.5,18.5 -8.00813,0 -14.5,-8.28273 -14.5,-18.5 0,-1.54497 0.14844,-3.0457 0.4281,-4.48025M594.21182,400H574.71264M608.16913,415H557.67652M627.87356,430h-79.844M639.77833,445H526.27258M670,460H510M645,475H474.75369"
       fill="none"
       stroke-width="3"
       stroke-linejoin="round"
       stroke-linecap="round"
       stroke="#44F" />
    <use
       id="use28"
       transform="translate(546,1000)scale(1,0.738)rotate(0)translate(-50,-50)"
       height="100"
       xlink:href="#SHJ" />
    <use
       id="use30"
       transform="translate(615,1000)scale(1,0.738)rotate(180)translate(-50,-50)"
       height="100"
       xlink:href="#SHJ" />
    <use
       id="use32"
       transform="translate(883,776)scale(1,0.738)rotate(30)translate(-37,-37)"
       height="75"
       xlink:href="#SHJ" />
    <use
       id="use34"
       transform="translate(915,711)scale(1,0.738)rotate(30)translate(-37,-37)"
       height="75"
       xlink:href="#SHJ" />
    <use
       id="use36"
       transform="translate(954,646)scale(1,0.738)rotate(30)translate(-37,-37)"
       height="75"
       xlink:href="#SHJ" />
    <use
       id="use38"
       transform="translate(220,633)scale(1,0.738)rotate(60)translate(-37,-37)"
       height="75"
       xlink:href="#SHJ" />
    <use
       id="use40"
       transform="translate(155,728)scale(1,0.738)rotate(60)translate(-37,-37)"
       height="75"
       xlink:href="#SHJ" />
    <use
       id="use42"
       transform="translate(52,728)scale(1,0.738)rotate(60)translate(-37,-37)"
       height="75"
       xlink:href="#SHJ" />
    <use
       id="use44"
       transform="translate(96,825)scale(1,0.738)rotate(60)translate(-37,-37)"
       height="75"
       xlink:href="#SHJ" />
  </symbol>
  <rect
     id="rect47"
     stroke="black"
     fill="white"
     ry="12"
     rx="12"
     y="-164"
     x="-105.5"
     height="328"
     width="211" />
  <g
     transform="translate(-301.73326,22.938295)"
     id="g1303">
    <path
       style="fill:#000000;fill-opacity:1;stroke:#000000;stroke-width:2.19008px;stroke-linecap:butt;stroke-linejoin:miter;stroke-opacity:1"
       d="m 327.56681,-111.34781 c 0,0 -0.94504,23.004115 -0.94504,33.9439 0.51177,26.11487 30.2437,37.244048 29.77118,36.772598 -0.47273,-0.471427 -8.0335,36.7725988 -8.0335,36.7725988 0,0 -14.1767,18.8577382 -17.01204,12.2575329 -2.83556,-6.600205 -53.87168,-41.4870277 -53.87168,-41.4870277 z"
       id="path15473"
       inkscape:connector-curvature="0"
       sodipodi:nodetypes="ccccscc" />
    <path
       sodipodi:nodetypes="ccccscc"
       inkscape:connector-curvature="0"
       id="path15475"
       d="m 275.89986,65.471329 c 0,0 0.94504,-23.003942 0.94504,-33.943836 -0.51177,-26.1147824 -30.2437,-37.2441134 -29.77118,-36.772489 0.47274,0.4714057 8.0335,-36.772708 8.0335,-36.772708 0,0 14.17692,-18.85776 17.01226,-12.257423 2.83534,6.600117 53.87146,41.486983 53.87146,41.486983 z"
       style="fill:#000000;fill-opacity:1;stroke:#000000;stroke-width:2.19008px;stroke-linecap:butt;stroke-linejoin:miter;stroke-opacity:1" />
    <path
       id="path15483"
       d="m 350.76722,-134.55863 c 0,0 -15.12941,0.875 -15.12941,10.93749 0,2.84375 -11.84041,-15.74998 0,-33.68746 0,0 1.9734,17.06248 5.70094,19.03123 4.16607,1.96875 6.578,-0.4375 9.42847,-3.9375"
       inkscape:connector-curvature="0"
       style="fill:#fff200;stroke:#000000;stroke-width:2.19008" />
    <path
       style="fill:#fcff00;fill-opacity:1;stroke:#000000;stroke-width:2.49678;stroke-linecap:round;stroke-miterlimit:4;stroke-dashoffset:0;stroke-opacity:1"
       d="m 347.39139,-162.34757 h 4.93592 V 7.5677456 h -4.93592 z"
       id="rect15485"
       inkscape:connector-curvature="0" />
    <path
       style="fill:#fff200;stroke:#000000;stroke-width:2.19008"
       inkscape:connector-curvature="0"
       d="m 252.69945,88.682231 c 0,0 15.12942,-0.874999 15.12942,-10.937487 0,-2.843747 11.84041,15.749982 0,33.687466 0,0 -1.97341,-17.062485 -5.70094,-19.031233 -4.16607,-1.968748 -6.57801,0.437499 -9.42848,3.937495"
       id="path15489" />
    <path
       style="fill:#fcff00;fill-opacity:1;stroke:#000000;stroke-width:2.49678;stroke-linecap:round;stroke-miterlimit:4;stroke-dashoffset:0;stroke-opacity:1"
       d="m 256.07528,116.47117 h -4.93591 V -53.444141 h 4.93591 z"
       id="rect15491"
       inkscape:connector-curvature="0" />
    <path
       transform="matrix(1.9024089,0,0,2.1246682,-2360.0059,-1351.0037)"
       style="fill:none;stroke:#000000;stroke-width:9;stroke-linecap:round"
       clip-path="url(#SVGID_6_-1)"
       d="m 1443.8,597.09998 c 0,14.41463 -11.6854,26.1 -26.1,26.1 -14.4147,0 -26.1,-11.68537 -26.1,-26.1 0,-14.41464 11.6853,-26.1 26.1,-26.1 14.4146,0 26.1,11.68536 26.1,26.1 z"
       id="circle15507"
       inkscape:connector-curvature="0" />
    <path
       transform="matrix(1.9024089,0,0,2.1246682,-2324.5285,-1349.2229)"
       style="fill:none;stroke:#000000;stroke-width:9;stroke-linecap:round"
       clip-path="url(#SVGID_6_-1)"
       d="m 1388.2,652.5 c 0,14.41463 -11.6854,26.1 -26.1,26.1 -14.4147,0 -26.1,-11.68537 -26.1,-26.1 0,-14.41463 11.6853,-26.1 26.1,-26.1 14.4146,0 26.1,11.68537 26.1,26.1 z"
       id="circle15509"
       inkscape:connector-curvature="0" />
    <path
       style="color:#000000;font-style:normal;font-variant:normal;font-weight:normal;font-stretch:normal;font-size:medium;line-height:normal;font-family:Sans;-inkscape-font-specification:Sans;text-indent:0;text-align:start;text-decoration:none;text-decoration-line:none;letter-spacing:normal;word-spacing:normal;text-transform:none;writing-mode:lr-tb;direction:ltr;baseline-shift:baseline;text-anchor:start;display:inline;overflow:visible;visibility:visible;fill:#fff200;fill-opacity:1;stroke:none;stroke-width:5;marker:none;enable-background:accumulate"
       d="m 1416.2812,568.34375 h -0.062 -0.063 l -1.3124,0.0937 h -0.063 l -0.062,0.0312 -1.3126,0.15625 h -0.062 -0.063 l -1.2812,0.25 h -0.062 l -0.062,0.0312 -0.1875,0.0312 -1.5937,1.1875 -0.25,1.96875 1.3124,1.53125 1.6563,0.1875 0.1875,-0.0312 v -0.0312 l 1.0312,-0.15625 0.125,-0.0312 1.0626,-0.125 1.1874,-0.125 v 0.0312 l 1.2188,-0.0312 h 0.062 0.062 l 1.2188,0.0312 0.375,0.0312 1.9062,-0.65625 0.7812,-1.84375 -0.7812,-1.8125 -1.5,-0.6875 -0.5312,-0.0312 h -0.063 -0.062 l -1.3438,-0.0312 h -0.062 -0.062 z m 9.3438,1.78125 -1.3125,1.53125 0.2187,1.96875 1.25,1.09375 1.1563,0.46875 0.9375,0.40625 0.062,0.0312 0.062,0.0312 0.9062,0.46875 0.094,0.0625 0.875,0.5 0.125,0.0625 0.9375,0.625 0.75,0.53125 1.9687,0.40625 1.625,-1.15625 0.2813,-1.96875 -0.9687,-1.34375 -0.8438,-0.625 -0.062,-0.0312 -0.031,-0.0312 -1.0624,-0.6875 -0.063,-0.0312 -0.062,-0.0312 -1.0938,-0.625 -0.031,-0.0312 -0.063,-0.0312 -1.125,-0.5625 -0.062,-0.0312 -0.063,-0.0312 -1.1562,-0.53125 h -0.031 l -0.063,-0.0312 -1.1562,-0.46875 z m -21.4062,1.53125 -0.094,0.0625 -0.062,0.0312 -0.062,0.0312 -1.0938,0.625 -0.031,0.0312 -0.062,0.0312 -1.0625,0.6875 -0.031,0.0312 -0.063,0.0312 -1.0312,0.71875 -0.031,0.0312 -0.063,0.0625 -0.9687,0.75 -0.062,0.0625 -0.031,0.0312 -0.9688,0.8125 -0.031,0.0312 -0.031,0.0625 -0.6875,0.625 -0.7812,1.84375 0.8124,1.8125 1.9063,0.65625 1.5,-0.6875 0.5937,-0.5625 0.094,-0.0937 0.7812,-0.65625 0.094,-0.0625 0.7812,-0.625 0.094,-0.0937 0.8438,-0.5625 0.9374,-0.625 0.094,-0.0625 0.9062,-0.5 0.094,-0.0625 1.2812,-1.5625 -0.2812,-1.96875 -1.625,-1.15625 z m 32.5,7.46875 -0.8438,1.8125 0.5312,1.59375 0.1563,0.1875 0.062,0.0937 0.031,0.0312 0.5938,0.8125 0.031,0.0625 0.031,0.0312 0.5313,0.875 0.062,0.0937 0.5626,1 h 0.031 l 0.4375,0.90625 0.062,0.0937 0.4688,1.0625 0.1874,0.5 1.4063,1.40625 2,-0.0937 1.3125,-1.5 -0.062,-1.65625 -0.25,-0.625 v -0.0312 l -0.031,-0.0625 -0.5312,-1.15625 -0.031,-0.0625 -0.031,-0.0625 -0.5625,-1.125 -0.031,-0.0625 -0.031,-0.0312 -0.625,-1.09375 -0.031,-0.0625 -0.031,-0.0312 -0.6875,-1.0625 -0.031,-0.0625 -0.031,-0.0625 -0.7188,-1 -0.031,-0.0625 -0.031,-0.0312 -0.25,-0.3125 -1.75,-0.9375 z m -43.875,3.65625 -0.25,0.4375 -0.031,0.0312 -0.031,0.0625 -0.5937,1.125 -0.031,0.0625 v 0.0625 l -0.5312,1.15625 -0.031,0.0625 -0.031,0.0312 -0.4687,1.1875 v 0.0625 l -0.031,0.0625 -0.4063,1.21875 -0.031,0.0625 v 0.0625 l -0.3438,1.21875 -0.031,0.0625 v 0.0625 l -0.125,0.46875 0.375,1.9375 1.6875,1.09375 1.9063,-0.5 0.9062,-1.4375 0.062,-0.3125 v -0.0625 l 0.031,-0.0625 0.3124,-1 0.031,-0.125 0.3125,-0.96875 0.062,-0.125 0.375,-0.9375 0.4687,-1.0625 0.031,-0.0937 0.4687,-0.90625 0.063,-0.125 0.1874,-0.3125 0.25,-2 -1.3124,-1.5 -2,-0.0937 z m 48.7812,10.28125 -0.4375,1.59375 0.094,0.96875 v 0.125 l 0.031,1.09375 v 0.0625 0.0625 l -0.031,1.09375 v 0.125 l -0.094,1.0625 v 0.125 l -0.1563,1.0625 -0.1874,1.15625 -0.031,0.125 -0.25,1.03125 v 0.0312 l -0.031,0.0937 -0.1562,0.59375 0.25,1.96875 1.625,1.15625 1.9688,-0.40625 0.9687,-1.34375 0.1875,-0.75 0.031,-0.0625 v -0.0312 l 0.3126,-1.28125 v -0.0625 -0.0625 l 0.25,-1.28125 v -0.0625 -0.0625 l 0.1874,-1.3125 v -0.0625 -0.0625 l 0.094,-1.3125 v -0.0625 -0.0625 l 0.062,-1.34375 -0.031,-0.0625 0.031,-0.0625 -0.062,-1.34375 v -0.0625 -0.0625 l -0.062,-1.09375 -0.9375,-1.75 -1.9386,-0.5312 z m -51.9688,3.53125 -0.5312,1.59375 v 0.125 0.0625 l 0.031,0.0625 0.094,1.3125 v 0.0625 0.0625 l 0.1562,1.3125 0.031,0.0625 v 0.0625 l 0.2187,1.28125 0.031,0.0625 v 0.0625 L 1390,604 v 0.0312 l 0.031,0.0625 0.3438,1.25 v 0.0625 l 0.031,0.0625 0.2188,0.625 1.3438,1.5 2,0.0312 1.375,-1.4375 0.031,-1.6875 -0.1875,-0.53125 v -0.0312 l -0.031,-0.0625 -0.3124,-1 -0.031,-0.0937 v -0.0312 l -0.2187,-1.03125 -0.031,-0.125 -0.1875,-1.15625 -0.1562,-1.0625 v -0.125 l -0.094,-1.0625 v -0.125 l -0.8438,-1.8125 -1.875,-0.625 z m 48,12.875 -0.3437,0.5625 -0.6563,0.9375 -0.094,0.0937 -0.625,0.8125 -0.062,0.0937 -0.6562,0.75 -0.094,0.0937 -0.6875,0.71875 -0.062,0.0312 -0.031,0.0625 -0.7188,0.71875 -0.094,0.0625 -0.125,0.0937 -0.875,1.8125 0.75,1.84375 1.8438,0.75 1.5625,-0.625 0.1875,-0.1875 0.062,-0.0312 0.031,-0.0312 0.9062,-0.875 0.062,-0.0312 0.031,-0.0312 0.875,-0.90625 0.031,-0.0625 0.031,-0.0312 0.8126,-0.96875 0.062,-0.0312 0.031,-0.0625 0.7813,-0.96875 0.031,-0.0625 0.031,-0.0312 0.7188,-1.03125 0.031,-0.0312 0.031,-0.0625 0.4375,-0.6875 0.3125,-1.9375 -1.2187,-1.59375 -1.9688,-0.1875 z m -42.9374,0.4375 -0.9063,1.78125 0.4375,1.59375 0.5,0.6875 0.031,0.0312 0.031,0.0625 0.7813,0.96875 0.031,0.0625 0.031,0.0312 0.8438,0.96875 0.031,0.0312 0.031,0.0625 0.875,0.90625 0.031,0.0312 0.062,0.0312 0.9063,0.875 0.031,0.0312 0.031,0.0312 0.9688,0.84375 0.031,0.0312 0.062,0.0312 0.1875,0.15625 1.9375,0.5 1.6563,-1.0625 0.375,-1.96875 -0.875,-1.40625 -0.094,-0.0625 -0.094,-0.0937 -0.7812,-0.65625 -0.094,-0.0625 -0.7187,-0.71875 -0.031,-0.0625 -0.062,-0.0312 -0.6876,-0.71875 -0.094,-0.0937 -0.6563,-0.75 -0.094,-0.0937 -0.625,-0.8125 -0.062,-0.0937 -0.4062,-0.59375 -1.7188,-1.03125 z m 33.1874,8.28125 -0.9687,0.4375 -0.094,0.0312 -0.9688,0.40625 -0.125,0.0312 -0.9688,0.3125 -1.125,0.34375 -0.094,0.0312 h -0.031 l -1,0.21875 -0.125,0.0312 -0.875,0.15625 -1.6562,1.09375 -0.3438,1.96875 1.2188,1.59375 1.6562,0.25 1,-0.15625 0.063,-0.0312 h 0.062 l 1.25,-0.28125 0.063,-0.0312 h 0.062 l 1.25,-0.375 h 0.063 l 0.031,-0.0312 1.2188,-0.40625 0.062,-0.0312 h 0.063 l 1.1874,-0.46875 0.063,-0.0312 0.031,-0.0312 1.0938,-0.46875 1.3437,-1.5 -0.1563,-1.96875 -1.5624,-1.25 z m -21.4062,0.5 -1.3125,1.53125 0.1875,1.96875 1.2812,1.09375 1.1563,0.46875 h 0.062 l 0.062,0.0312 1.1875,0.40625 0.062,0.0312 h 0.062 l 1.25,0.375 h 0.062 l 0.062,0.0312 1.25,0.28125 h 0.062 l 0.062,0.0312 1.2812,0.21875 h 0.063 l 0.062,0.0312 0.9376,0.0937 1.9062,-0.53125 0.875,-1.78125 -0.6875,-1.875 -1.4687,-0.75 -0.8126,-0.0937 -0.125,-0.0312 -1.0312,-0.1875 -0.125,-0.0312 -1,-0.21875 h -0.031 l -0.094,-0.0312 -1.125,-0.34375 -0.9688,-0.3125 -0.125,-0.0312 -1.0624,-0.4375 z"
       clip-path="url(#SVGID_6_-1)"
       id="circle15511"
       inkscape:connector-curvature="0"
       transform="matrix(1.9024089,0,0,2.1246682,-2360.0059,-1351.0037)" />
    <path
       style="color:#000000;font-style:normal;font-variant:normal;font-weight:normal;font-stretch:normal;font-size:medium;line-height:normal;font-family:Sans;-inkscape-font-specification:Sans;text-indent:0;text-align:start;text-decoration:none;text-decoration-line:none;letter-spacing:normal;word-spacing:normal;text-transform:none;writing-mode:lr-tb;direction:ltr;baseline-shift:baseline;text-anchor:start;display:inline;overflow:visible;visibility:visible;fill:#fff200;fill-opacity:1;stroke:none;stroke-width:5;marker:none;enable-background:accumulate"
       d="m 1360.6875,623.9375 h -0.062 -0.062 l -1.3125,0.0937 h -0.062 l -0.062,0.0312 -1.3125,0.15625 h -0.062 l -0.062,0.0312 -1.2813,0.21875 h -0.062 l -0.063,0.0312 -0.1874,0.0312 -1.625,1.1875 -0.2188,2 1.2812,1.5 1.6876,0.1875 h 0.062 l 0.125,-0.0312 1.0313,-0.1875 0.125,-0.0312 1.0625,-0.125 1.1875,-0.0937 h 0.125 l 1.0937,-0.0312 h 0.063 0.062 l 1.0938,0.0312 h 0.125 l 0.375,0.0312 1.875,-0.65625 0.8125,-1.8125 -0.7813,-1.84375 -1.5312,-0.6875 -0.5,-0.0312 h -0.062 -0.062 l -1.3438,-0.0312 h -0.062 -0.063 z m 9.3437,1.8125 -1.3124,1.5 0.2187,1.96875 1.25,1.09375 1.0313,0.40625 0.125,0.0625 0.9374,0.40625 0.094,0.0625 0.9062,0.46875 0.125,0.0625 0.875,0.5 0.094,0.0625 0.875,0.5625 0.031,0.0312 0.063,0.0312 0.75,0.53125 1.9687,0.40625 1.625,-1.125 0.2813,-1.96875 -0.9688,-1.375 -0.8438,-0.625 -0.062,-0.0312 -0.063,-0.0312 -1.0624,-0.6875 -0.031,-0.0312 -0.062,-0.0312 -1.0938,-0.625 -0.031,-0.0312 -0.062,-0.0312 -1.125,-0.5625 -0.062,-0.0312 -0.062,-0.0312 -1.1563,-0.5 -0.062,-0.0312 -0.031,-0.0312 -1.1563,-0.46875 z m -21.4062,1.53125 -0.094,0.0312 -0.062,0.0312 -0.063,0.0312 -1.0937,0.625 -0.031,0.0312 -0.062,0.0312 -1.0626,0.6875 -0.062,0.0312 -0.031,0.0312 -1.0313,0.75 -0.031,0.0312 -0.062,0.0312 -0.9687,0.78125 -0.063,0.0312 -0.031,0.0312 -0.9688,0.8125 -0.031,0.0625 -0.062,0.0312 -0.6563,0.65625 -0.7812,1.8125 0.8125,1.84375 1.875,0.625 1.5313,-0.6875 0.5937,-0.5625 0.094,-0.0625 0.75,-0.6875 0.094,-0.0625 0.8125,-0.625 0.094,-0.0625 0.8126,-0.59375 0.125,-0.0625 0.8437,-0.5625 0.094,-0.0625 0.9063,-0.5 0.094,-0.0625 1.2813,-1.53125 -0.2813,-2 -1.625,-1.15625 z m 32.4688,7.4375 -0.8126,1.84375 0.5313,1.5625 0.1563,0.21875 0.094,0.0937 0.5625,0.8125 0.625,0.96875 0.062,0.0937 0.5,0.875 0.062,0.125 0.4688,0.90625 0.062,0.0937 0.4063,0.9375 0.062,0.125 0.1875,0.5 1.4063,1.40625 2,-0.0625 1.3124,-1.5 -0.062,-1.6875 -0.25,-0.59375 -0.031,-0.0625 v -0.0625 l -0.5313,-1.15625 -0.031,-0.0625 -0.031,-0.0625 -0.5626,-1.125 -0.031,-0.0312 -0.031,-0.0625 -0.625,-1.09375 -0.031,-0.0625 -0.031,-0.0312 -0.6874,-1.0625 -0.031,-0.0625 -0.031,-0.0312 -0.7187,-1.03125 -0.031,-0.0625 -0.062,-0.0312 -0.2188,-0.3125 -1.75,-0.9375 z m -43.8438,3.65625 -0.2812,0.4375 -0.031,0.0625 v 0.0312 l -0.5937,1.125 -0.031,0.0625 -0.031,0.0625 -0.5,1.15625 -0.031,0.0625 -0.031,0.0625 -0.4688,1.15625 v 0.0625 l -0.031,0.0625 -0.4063,1.21875 -0.031,0.0625 v 0.0625 l -0.375,1.21875 v 0.0625 l -0.031,0.0625 -0.094,0.46875 0.375,1.9375 1.6563,1.09375 1.9375,-0.5 0.9062,-1.40625 0.063,-0.34375 0.031,-0.0625 v -0.0625 l 0.3438,-1.125 0.3124,-0.96875 0.031,-0.125 0.4063,-0.9375 0.4687,-1.0625 0.031,-0.0937 0.4687,-0.90625 0.062,-0.125 0.1875,-0.3125 0.2187,-2 -1.2812,-1.5 -2,-0.0937 z m 48.7812,10.28125 -0.4374,1.59375 0.094,0.96875 h -0.031 l 0.031,1.21875 v 0.0625 0.0625 l -0.031,1.21875 h 0.031 l -0.125,1.1875 -0.125,1.0625 -0.031,0.125 -0.1562,1.03125 h -0.031 l -0.25,1.15625 -0.031,0.0937 v 0.0312 l -0.1563,0.59375 0.25,1.96875 1.625,1.15625 1.9688,-0.40625 0.9375,-1.34375 0.2187,-0.71875 0.031,-0.0625 v -0.0625 l 0.2813,-1.28125 0.031,-0.0625 v -0.0625 l 0.25,-1.28125 v -0.0625 -0.0625 l 0.1562,-1.3125 0.031,-0.0625 v -0.0625 l 0.094,-1.3125 v -0.0625 -0.0625 l 0.031,-1.34375 -0.031,-0.0625 0.031,-0.0625 -0.031,-1.34375 v -0.0625 -0.0625 l -0.094,-1.09375 -0.9063,-1.75 -1.9374,-0.53125 z m -51.9687,3.53125 -0.5313,1.59375 v 0.125 0.0625 0.0625 l 0.125,1.3125 v 0.0625 0.0625 l 0.1563,1.3125 0.031,0.0625 v 0.0625 l 0.2187,1.28125 0.031,0.0625 v 0.0625 l 0.2812,1.28125 0.031,0.0625 v 0.0625 l 0.375,1.21875 V 661 l 0.031,0.0625 0.2187,0.65625 1.3438,1.46875 1.9688,0.0312 1.4062,-1.4375 v -1.6875 l -0.1562,-0.5 -0.3438,-1.125 -0.031,-0.0625 v -0.0625 l -0.2188,-1.03125 -0.031,-0.125 -0.1876,-1.03125 -0.031,-0.125 -0.125,-1.0625 v -0.125 l -0.094,-1.0625 v -0.125 l -0.8437,-1.8125 -1.9063,-0.625 z m 48,12.875 -0.4375,0.6875 -0.5625,0.8125 -0.094,0.0937 -0.625,0.8125 -0.063,0.0937 -0.6562,0.75 -0.094,0.0937 -0.7812,0.8125 -0.75,0.71875 -0.062,0.0625 -0.125,0.125 -0.875,1.78125 0.7187,1.875 1.875,0.71875 1.5313,-0.59375 0.2187,-0.1875 0.063,-0.0625 0.031,-0.0312 0.9062,-0.875 0.031,-0.0312 0.062,-0.0312 0.8438,-0.90625 0.062,-0.0625 0.031,-0.0312 0.8125,-0.9375 0.031,-0.0625 0.063,-0.0312 0.75,-1 0.062,-0.0312 0.031,-0.0625 0.7187,-1.03125 0.031,-0.0312 0.031,-0.0625 0.4374,-0.65625 0.3126,-1.96875 -1.2188,-1.59375 -2,-0.15625 z m -42.9375,0.4375 -0.9062,1.78125 0.4374,1.59375 0.5,0.6875 0.031,0.0625 0.031,0.0312 0.7812,1 0.031,0.0312 0.031,0.0625 0.8437,0.9375 0.031,0.0312 0.031,0.0625 0.875,0.90625 0.031,0.0312 0.031,0.0312 0.9063,0.875 0.062,0.0312 0.031,0.0625 0.9688,0.8125 0.031,0.0312 0.063,0.0312 0.1874,0.15625 1.9063,0.5 1.6875,-1.0625 0.375,-1.9375 -0.9062,-1.4375 -0.094,-0.0625 -0.094,-0.0625 -0.75,-0.6875 -0.094,-0.0625 -0.7187,-0.71875 -0.8126,-0.8125 -0.062,-0.0937 -0.6563,-0.75 -0.094,-0.0937 -0.625,-0.8125 -0.063,-0.0937 -0.4062,-0.5625 -1.7188,-1.03125 z m 33.1875,8.28125 -0.9687,0.4375 -0.125,0.0625 -0.9376,0.375 -0.125,0.0312 -0.9687,0.34375 -0.125,0.0312 -1,0.28125 h -0.062 l -0.062,0.0312 -1.0313,0.21875 -0.094,0.0312 -0.9063,0.15625 -1.6562,1.09375 -0.3125,1.96875 1.2187,1.59375 1.6563,0.28125 1,-0.1875 h 0.062 l 0.062,-0.0312 1.25,-0.28125 0.062,-0.0312 h 0.062 l 1.2187,-0.34375 0.063,-0.0312 0.062,-0.0312 1.2188,-0.40625 h 0.062 l 0.062,-0.0312 1.1875,-0.46875 0.031,-0.0312 0.062,-0.0312 1.0938,-0.46875 1.3438,-1.46875 -0.1876,-2 -1.5624,-1.25 z m -21.4375,0.53125 -1.2812,1.5 0.1874,1.96875 1.2813,1.09375 1.1563,0.46875 0.062,0.0312 h 0.031 l 1.2187,0.40625 0.063,0.0312 0.062,0.0312 1.25,0.34375 h 0.063 l 0.031,0.0312 1.2812,0.28125 0.063,0.0312 h 0.062 l 1.2813,0.21875 0.062,0.0312 h 0.062 l 0.9063,0.125 1.9374,-0.5625 0.875,-1.78125 -0.6874,-1.875 -1.5,-0.75 -0.7813,-0.0937 -0.125,-0.0312 -1.0313,-0.1875 -0.125,-0.0312 -1.0312,-0.21875 -0.062,-0.0312 h -0.062 l -1,-0.28125 -0.094,-0.0312 -1,-0.34375 -0.094,-0.0312 -1.0625,-0.4375 z"
       clip-path="url(#SVGID_6_-1)"
       id="circle15513"
       inkscape:connector-curvature="0"
       transform="matrix(1.9024089,0,0,2.1246682,-2324.5285,-1349.2229)" />
    <path
       id="path15519"
       d="m 270.66662,-97.073647 c -1.9734,5.687493 50.21212,-9.187493 50.21212,-9.187493 l -47.58092,74.593668 c -0.21927,0 1.75414,-77.656158 -2.6312,-65.406175 z"
       inkscape:connector-curvature="0"
       style="fill:#ed1c24;stroke:#000000;stroke-width:3.28512;stroke-linecap:round" />
    <path
       id="path15521"
       d="m 258.82621,-155.26108 c 0,0 24.99642,-10.71874 64.46446,7.65624 l 14.03308,-23.18747 h -87.92602 z"
       inkscape:connector-curvature="0"
       style="fill:#ed1c24;stroke:#000000;stroke-width:2.19008" />
    <path
       style="fill:none;stroke:#ffffff;stroke-width:2.19008;stroke-linecap:square"
       d="m 255.97574,-169.47979 5.04313,9.40621"
       id="line15523"
       inkscape:connector-curvature="0" />
    <path
       style="fill:none;stroke:#ffffff;stroke-width:2.19008"
       d="m 261.01887,-160.07358 9.64775,-1.09374"
       id="line15525"
       inkscape:connector-curvature="0" />
    <path
       style="fill:none;stroke:#ffffff;stroke-width:2.19008;stroke-linecap:square"
       d="m 270.66662,-161.16732 1.75413,-7.21872"
       id="line15527"
       inkscape:connector-curvature="0" />
    <path
       style="fill:none;stroke:#ffffff;stroke-width:2.19008;stroke-linecap:square"
       d="m 280.09509,-169.26109 3.28901,6.5625"
       id="line15529"
       inkscape:connector-curvature="0" />
    <path
       style="fill:none;stroke:#ffffff;stroke-width:2.19008"
       d="m 283.3841,-162.69859 13.37528,1.74997"
       id="line15531"
       inkscape:connector-curvature="0" />
    <path
       style="fill:none;stroke:#ffffff;stroke-width:2.19008;stroke-linecap:square"
       d="m 296.75938,-160.94862 4.6046,-8.53117"
       id="line15533"
       inkscape:connector-curvature="0" />
    <path
       style="fill:none;stroke:#ffffff;stroke-width:2.19008;stroke-linecap:square"
       d="m 309.69612,-169.26109 -2.41193,9.84374"
       id="line15535"
       inkscape:connector-curvature="0" />
    <path
       style="fill:none;stroke:#ffffff;stroke-width:2.19008"
       d="m 307.28419,-159.41735 11.62114,3.71877"
       id="line15537"
       inkscape:connector-curvature="0" />
    <path
       style="fill:none;stroke:#ffffff;stroke-width:2.19008;stroke-linecap:square"
       d="m 318.90533,-155.69858 13.15602,-13.78121"
       id="line15539"
       inkscape:connector-curvature="0" />
    <path
       style="fill:none;stroke:#000000;stroke-width:2.19008"
       d="m 249.39773,-170.57354 h 85.07555"
       id="line15541"
       inkscape:connector-curvature="0" />
    <path
       style="fill:none;stroke:#000000;stroke-width:8.76033;stroke-linecap:round"
       d="m 323.94847,-111.07359 -50.86992,79.40614"
       id="line15543"
       inkscape:connector-curvature="0" />
    <path
       id="path15557"
       d="m 260.36107,-106.26114 c 10.74408,29.968719 72.57734,5.6875 62.2718,-22.53122"
       inkscape:connector-curvature="0"
       style="fill:#ed1c24;stroke:#000000;stroke-width:2.19008" />
    <path
       id="path15559"
       d="m 264.52714,-107.79239 c 8.77068,24.281227 62.2718,3.28125 54.15893,-19.46872"
       inkscape:connector-curvature="0"
       style="fill:#fff200;stroke:#000000;stroke-width:4.38016" />
    <path
       id="path15561"
       d="m 268.25468,-109.10488 c 7.01654,19.249974 52.40479,1.31249 46.04605,-16.62498"
       inkscape:connector-curvature="0"
       style="fill:#ed1c24;stroke:#000000;stroke-width:2.19008" />
    <path
       style="fill:#ffffff;stroke:#000000;stroke-width:2.19008"
       inkscape:connector-curvature="0"
       d="m 306.84565,-118.51112 c -20.83035,5.03124 -26.31202,16.18748 -32.89003,13.56248 -12.05968,-4.81249 -14.03308,-25.59372 -14.03308,-25.59372 -4.38534,-4.81249 -3.72754,-1.53125 2.85047,-15.31248 1.53487,-3.5 -4.16607,-9.18749 -4.16607,-9.18749"
       id="path15565" />
    <path
       style="fill:#fff200;stroke:#000000;stroke-width:2.19008"
       inkscape:connector-curvature="0"
       d="m 294.34744,-155.26108 c 0,0 0.21927,0.65625 0.6578,1.75 0.43854,1.09375 0.87707,2.84374 1.53487,4.81249 5.92021,10.06249 1.53487,31.93747 19.29549,34.56246"
       id="path15567" />
    <path
       style="fill:#fff200;stroke:#000000;stroke-width:2.19008"
       inkscape:connector-curvature="0"
       d="m 299.39058,-155.26108 c 0,0 0.21927,0.65625 0.6578,1.75 2.41194,12.68748 2.41194,34.56246 21.04962,39.37495"
       id="path15569" />
    <path
       style="fill:#fff200;stroke:#000000;stroke-width:2.19008"
       inkscape:connector-curvature="0"
       d="m 305.96859,-152.63608 c -1.3156,16.18748 5.2624,38.06245 22.80375,40.4687"
       id="path15571" />
    <path
       style="fill:#fff200;stroke:#000000;stroke-width:2.19008"
       inkscape:connector-curvature="0"
       d="m 310.57319,-152.41733 c 0.43853,16.18748 4.82387,35.87495 23.24229,40.4687"
       id="path15573" />
    <path
       style="fill:#fff200;stroke:#000000;stroke-width:2.19008"
       inkscape:connector-curvature="0"
       d="m 337.10448,-116.76112 c 0.21927,-4.375 4.60461,-2.1875 4.60461,-2.1875 2.19267,4.37499 0,6.56249 -4.38534,6.56249 -15.34868,-6.56249 -19.73402,-21.87497 -21.04962,-36.96871"
       id="path15575" />
    <path
       style="fill:none;stroke:#000000;stroke-width:2.19008"
       inkscape:connector-curvature="0"
       d="m 321.97507,-147.16734 c 0.21927,10.71874 4.6046,23.84372 15.34868,30.40622"
       id="path15577" />
    <path
       inkscape:connector-curvature="0"
       id="circle15579"
       d="m 275.27122,-143.66734 c 0,1.20811 -0.98166,2.18749 -2.19267,2.18749 -1.21101,0 -2.19267,-0.97938 -2.19267,-2.18749 0,-1.20812 0.98166,-2.1875 2.19267,-2.1875 1.21101,0 2.19267,0.97938 2.19267,2.1875 z"
       style="stroke:#000000;stroke-width:2.19008;stroke-linecap:round" />
    <path
       style="fill:none;stroke:#000000;stroke-width:2.19008;stroke-linecap:round"
       inkscape:connector-curvature="0"
       d="m 262.33448,-129.66736 c 0,0 2.41193,-0.65625 5.70093,2.625"
       id="path15581" />
    <path
       inkscape:connector-curvature="0"
       id="line15583"
       d="m 267.59688,-126.82359 3.06974,1.09375"
       style="fill:none;stroke:#000000;stroke-width:1.64256" />
    <path
       style="fill:none;stroke:#ffffff;stroke-width:3.28512;stroke-linecap:round"
       d="m 323.94847,-111.07359 -50.86992,79.40614"
       id="line15585"
       inkscape:connector-curvature="0" />
    <path
       id="path15587"
       d="m 266.06201,-103.41739 c 0,0 16.00649,31.718714 5.48167,73.718666"
       inkscape:connector-curvature="0"
       style="fill:none;stroke:#000000;stroke-width:8.76033;stroke-linecap:round" />
    <path
       id="path15589"
       d="m 266.06201,-103.41739 c 0,0 16.00649,31.718714 5.48167,73.718666"
       inkscape:connector-curvature="0"
       style="fill:none;stroke:#ffffff;stroke-width:3.28512;stroke-linecap:round" />
    <path
       id="path15591"
       d="m 250.24213,-78.293631 c 0,0 4.06564,27.462653 17.62993,15.445154 4.90588,-4.272139 -15.62035,-12.678057 -17.62993,-15.445154 z"
       inkscape:connector-curvature="0"
       style="fill:#fff200;stroke:#000000;stroke-width:2.19008;stroke-linecap:round" />
    <path
       style="fill:#ffffff;stroke:#000000;stroke-width:1.86814;stroke-linecap:round"
       d="m 265.65242,-44.253042 c -2.38387,3.635861 -10.23165,5.286219 -15.05486,2.658269 -1.08603,-0.591784 0.31092,5.525969 -0.46923,4.730135 -2.68449,-2.738222 -3.0283,-12.79021 -2.27687,-16.07196 1.21452,-5.302669 8.56084,-5.286262 13.38405,-2.658225 4.82321,2.62795 6.801,7.70592 4.41691,11.341781 z"
       id="path15595"
       inkscape:connector-curvature="0"
       sodipodi:nodetypes="ssssss" />
    <path
       id="path15597"
       d="m 258.26532,-42.625588 c 0.0987,2.00132 -2.34594,4.887482 -1.23776,6.074418 1.07265,1.149005 5.67441,0.632078 7.22813,0.55569 3.15832,-0.155312 9.75234,-14.572364 -0.81348,-13.991846 -2.97019,0.267618 -5.3716,3.422952 -5.17689,7.361738 z"
       inkscape:connector-curvature="0"
       style="fill:#ffffff;stroke:#000000;stroke-width:2.19008;stroke-linecap:round"
       sodipodi:nodetypes="ssscs" />
    <path
       id="path15599"
       d="m 268.22113,-48.157113 -8.10169,-9.927913 c 0,0 -7.47875,2.676184 3.48284,13.799762"
       inkscape:connector-curvature="0"
       style="fill:#ffffff;stroke:#000000;stroke-width:2.19008;stroke-linecap:round" />
    <path
       style="fill:#ffffff;stroke:#000000;stroke-width:2.19008;stroke-linecap:round"
       inkscape:connector-curvature="0"
       d="m 251.47243,-56.869981 c 0,0 8.38082,-2.902787 8.24246,4.150317 l -8.19685,0.463991"
       id="path15603" />
    <path
       style="fill:#ffffff;stroke:#000000;stroke-width:2.19008;stroke-linecap:round"
       inkscape:connector-curvature="0"
       d="m 251.59149,-53.231188 c 0,0 8.38082,-2.902809 8.24225,4.150317 l -8.19686,0.46399"
       id="path15605" />
    <path
       style="fill:#ffffff;stroke:#000000;stroke-width:2.19008;stroke-linecap:round"
       inkscape:connector-curvature="0"
       d="m 251.89869,-49.480177 c 0,0 8.38082,-2.902809 8.24224,4.150317 l -8.19685,0.463991"
       id="path15607" />
    <path
       style="fill:#ffffff;stroke:#000000;stroke-width:2.19008;stroke-linecap:round"
       inkscape:connector-curvature="0"
       d="m 251.98091,-45.353638 c 0,0 8.38082,-2.902787 8.24224,4.150318 l -8.19685,0.46399"
       id="path15609" />
    <path
       id="path15611"
       d="M 270.66662,-97.073647"
       inkscape:connector-curvature="0"
       style="fill:none;stroke:#ffffff;stroke-width:3.28512;stroke-linecap:round" />
    <path
       style="fill:#ed1c24;stroke:#000000;stroke-width:3.28512;stroke-linecap:round"
       inkscape:connector-curvature="0"
       d="m 332.79984,51.197055 c 1.9734,-5.687493 -50.21212,9.18749 -50.21212,9.18749 l 47.58091,-74.593665 c 0.21927,0 -1.75413,77.656161 2.63121,65.406175 z"
       id="path15615" />
    <path
       style="fill:#ed1c24;stroke:#000000;stroke-width:2.19008"
       inkscape:connector-curvature="0"
       d="m 344.64025,109.38449 c 0,0 -24.99643,10.71874 -64.46447,-7.65624 l -14.03308,23.18747 h 87.92603 z"
       id="path15617" />
    <path
       style="fill:none;stroke:#ffffff;stroke-width:2.19008;stroke-linecap:square"
       d="m 347.49072,123.6032 -5.04314,-9.40622"
       id="line15619"
       inkscape:connector-curvature="0" />
    <path
       style="fill:none;stroke:#ffffff;stroke-width:2.19008"
       d="m 342.44758,114.19698 -9.64774,1.09375"
       id="line15621"
       inkscape:connector-curvature="0" />
    <path
       style="fill:none;stroke:#ffffff;stroke-width:2.19008;stroke-linecap:square"
       d="m 332.79984,115.29073 -1.75414,7.21872"
       id="line15623"
       inkscape:connector-curvature="0" />
    <path
       style="fill:none;stroke:#ffffff;stroke-width:2.19008;stroke-linecap:square"
       d="m 323.37136,123.38449 -3.289,-6.56249"
       id="line15625"
       inkscape:connector-curvature="0" />
    <path
       style="fill:none;stroke:#ffffff;stroke-width:2.19008"
       d="m 320.08236,116.822 -13.37528,-1.74997"
       id="line15627"
       inkscape:connector-curvature="0" />
    <path
       style="fill:none;stroke:#ffffff;stroke-width:2.19008;stroke-linecap:square"
       d="m 306.70708,115.07203 -4.60461,8.53117"
       id="line15629"
       inkscape:connector-curvature="0" />
    <path
       style="fill:none;stroke:#ffffff;stroke-width:2.19008;stroke-linecap:square"
       d="m 293.77033,123.38449 2.41194,-9.84373"
       id="line15631"
       inkscape:connector-curvature="0" />
    <path
       style="fill:none;stroke:#ffffff;stroke-width:2.19008"
       d="m 296.18227,113.54076 -11.62115,-3.71877"
       id="line15633"
       inkscape:connector-curvature="0" />
    <path
       style="fill:none;stroke:#ffffff;stroke-width:2.19008;stroke-linecap:square"
       d="M 284.56112,109.82199 271.40511,123.6032"
       id="line15635"
       inkscape:connector-curvature="0" />
    <path
       style="fill:none;stroke:#000000;stroke-width:2.19008"
       d="M 354.06873,124.69695 H 268.99317"
       id="line15637"
       inkscape:connector-curvature="0" />
    <path
       style="fill:none;stroke:#000000;stroke-width:8.76033;stroke-linecap:round"
       d="M 279.51798,65.196995 330.3879,-14.209142"
       id="line15639"
       inkscape:connector-curvature="0" />
    <path
       style="fill:#ed1c24;stroke:#000000;stroke-width:2.19008"
       inkscape:connector-curvature="0"
       d="M 343.10538,60.384545 C 332.3613,30.415829 270.52804,54.697051 280.83358,82.915769"
       id="path15653" />
    <path
       style="fill:#fff200;stroke:#000000;stroke-width:4.38016"
       inkscape:connector-curvature="0"
       d="m 338.93931,61.915793 c -8.77068,-24.281222 -62.2718,-3.281246 -54.15892,19.468728"
       id="path15655" />
    <path
       style="fill:#ed1c24;stroke:#000000;stroke-width:2.19008"
       inkscape:connector-curvature="0"
       d="M 335.21177,63.228291 C 328.19523,43.978313 282.80699,61.915793 289.16573,79.853272"
       id="path15657" />
    <path
       id="path15661"
       d="m 296.6208,72.634531 c 20.83036,-5.031245 26.31203,-16.187482 32.89003,-13.562485 12.05968,4.812495 14.03308,25.593721 14.03308,25.593721 4.38534,4.812494 3.72754,1.531248 -2.85046,15.312482 -1.53487,3.500001 4.16607,9.187491 4.16607,9.187491"
       inkscape:connector-curvature="0"
       style="fill:#ffffff;stroke:#000000;stroke-width:2.19008" />
    <path
       id="path15663"
       d="m 309.11901,109.38449 c 0,0 -0.21926,-0.65625 -0.6578,-1.75 -0.43853,-1.09375 -0.87707,-2.84375 -1.53487,-4.81249 -5.9202,-10.062492 -1.53486,-31.937467 -19.29548,-34.562464"
       inkscape:connector-curvature="0"
       style="fill:#fff200;stroke:#000000;stroke-width:2.19008" />
    <path
       id="path15665"
       d="m 304.07587,109.38449 c 0,0 -0.21926,-0.65625 -0.6578,-1.75 -2.41193,-12.687485 -2.41193,-34.56246 -21.04962,-39.374954"
       inkscape:connector-curvature="0"
       style="fill:#fff200;stroke:#000000;stroke-width:2.19008" />
    <path
       id="path15667"
       d="m 297.49787,106.75949 c 1.3156,-16.18748 -5.26241,-38.062455 -22.80376,-40.468702"
       inkscape:connector-curvature="0"
       style="fill:#fff200;stroke:#000000;stroke-width:2.19008" />
    <path
       id="path15669"
       d="M 292.89326,106.54074 C 292.45473,90.35326 288.06939,70.665783 269.65097,66.072038"
       inkscape:connector-curvature="0"
       style="fill:#fff200;stroke:#000000;stroke-width:2.19008" />
    <path
       id="path15671"
       d="m 266.36197,70.884533 c -0.21927,4.374995 -4.60461,2.187497 -4.60461,2.187497 -2.19266,-4.374995 0,-6.562492 4.38534,-6.562492 15.34869,6.562492 19.73402,21.874975 21.04962,36.968712"
       inkscape:connector-curvature="0"
       style="fill:#fff200;stroke:#000000;stroke-width:2.19008" />
    <path
       id="path15673"
       d="M 281.49139,101.29075 C 281.27212,90.57201 276.88678,77.447025 266.1427,70.884533"
       inkscape:connector-curvature="0"
       style="fill:none;stroke:#000000;stroke-width:2.19008" />
    <path
       inkscape:connector-curvature="0"
       id="circle15675"
       d="m 328.19523,97.790752 c 0,-1.208111 0.98166,-2.187498 2.19267,-2.187498 1.21101,0 2.19267,0.979387 2.19267,2.187498 0,1.208111 -0.98166,2.187497 -2.19267,2.187497 -1.21101,0 -2.19267,-0.979386 -2.19267,-2.187497 z"
       style="stroke:#000000;stroke-width:2.19008;stroke-linecap:round" />
    <path
       id="path15677"
       d="m 341.13198,83.790768 c 0,0 -2.41194,0.656249 -5.70094,-2.624997"
       inkscape:connector-curvature="0"
       style="fill:none;stroke:#000000;stroke-width:2.19008;stroke-linecap:round" />
    <path
       inkscape:connector-curvature="0"
       id="line15679"
       d="m 335.86957,80.946999 -3.06973,-1.093748"
       style="fill:none;stroke:#000000;stroke-width:1.64256" />
    <path
       style="fill:none;stroke:#ffffff;stroke-width:3.28512;stroke-linecap:round"
       d="M 279.51798,65.196995 330.3879,-14.209142"
       id="line15681"
       inkscape:connector-curvature="0" />
    <path
       style="fill:none;stroke:#000000;stroke-width:8.76033;stroke-linecap:round"
       inkscape:connector-curvature="0"
       d="m 337.40444,57.540798 c 0,0 -16.00648,-31.718714 -5.48167,-73.718666"
       id="path15683" />
    <path
       style="fill:none;stroke:#ffffff;stroke-width:3.28512;stroke-linecap:round"
       inkscape:connector-curvature="0"
       d="m 337.40444,57.540798 c 0,0 -16.00648,-31.718714 -5.48167,-73.718666"
       id="path15685" />
    <path
       style="fill:#fff200;stroke:#000000;stroke-width:2.19008;stroke-linecap:round"
       inkscape:connector-curvature="0"
       d="m 353.22433,32.417039 c 0,0 -4.06565,-27.4626529 -17.62994,-15.445154 -4.90587,4.272139 15.62036,12.678057 17.62994,15.445154 z"
       id="path15687" />
    <path
       sodipodi:nodetypes="ssssss"
       inkscape:connector-curvature="0"
       id="path15691"
       d="m 337.81403,-1.6235064 c 2.38387,-3.6358614 10.23165,-5.2862189 15.05465,-2.6582688 1.08625,0.5917837 -0.31092,-5.5259687 0.46945,-4.7301352 2.68448,2.7382219 3.02829,12.7902104 2.27687,16.0719597 -1.21452,5.3026687 -8.56084,5.2862627 -13.38427,2.6582251 -4.82322,-2.6279501 -6.80079,-7.7059193 -4.4167,-11.3417808 z"
       style="fill:#ffffff;stroke:#000000;stroke-width:1.86814;stroke-linecap:round" />
    <path
       sodipodi:nodetypes="ssscs"
       style="fill:#ffffff;stroke:#000000;stroke-width:2.19008;stroke-linecap:round"
       inkscape:connector-curvature="0"
       d="m 345.20113,-3.2509389 c -0.0987,-2.0013196 2.34594,-4.8874819 1.23777,-6.074418 -1.07266,-1.1490051 -5.67441,-0.6320774 -7.22814,-0.55569 -3.15832,0.1553123 -9.75233,14.5723646 0.81348,13.9918465 2.97019,-0.2676185 5.3716,-3.42295235 5.17689,-7.3617385 z"
       id="path15693" />
    <path
       style="fill:#ffffff;stroke:#000000;stroke-width:2.19008;stroke-linecap:round"
       inkscape:connector-curvature="0"
       d="m 335.24532,2.2805861 8.10169,9.9279139 c 0,0 7.47876,-2.6761847 -3.48283,-13.7997626"
       id="path15695" />
    <path
       id="path15699"
       d="m 351.99402,10.993454 c 0,0 -8.38082,2.902788 -8.24224,-4.1503169 l 8.19685,-0.4639901"
       inkscape:connector-curvature="0"
       style="fill:#ffffff;stroke:#000000;stroke-width:2.19008;stroke-linecap:round" />
    <path
       id="path15701"
       d="m 351.87518,7.3546615 c 0,0 -8.38082,2.9028095 -8.24246,-4.1503171 l 8.19685,-0.4639901"
       inkscape:connector-curvature="0"
       style="fill:#ffffff;stroke:#000000;stroke-width:2.19008;stroke-linecap:round" />
    <path
       id="path15703"
       d="m 351.56799,3.6036502 c 0,0 -8.38082,2.9028092 -8.24246,-4.15031716 l 8.19685,-0.46399014"
       inkscape:connector-curvature="0"
       style="fill:#ffffff;stroke:#000000;stroke-width:2.19008;stroke-linecap:round" />
    <path
       id="path15705"
       d="m 351.48576,-0.52288886 c 0,0 -8.38082,2.90278726 -8.24246,-4.15031714 l 8.19707,-0.4639901"
       inkscape:connector-curvature="0"
       style="fill:#ffffff;stroke:#000000;stroke-width:2.19008;stroke-linecap:round" />
    <path
       style="fill:none;stroke:#ffffff;stroke-width:3.28512;stroke-linecap:round"
       inkscape:connector-curvature="0"
       d="M 332.79984,51.197055"
       id="path15707" />
    <path
       inkscape:connector-curvature="0"
       id="path25672"
       style="font-style:normal;font-variant:normal;font-weight:bold;font-stretch:normal;font-size:22.4px;line-height:125%;font-family:Comfortaa;-inkscape-font-specification:'Comfortaa Bold';letter-spacing:0px;word-spacing:0px;fill:#ff0000;fill-opacity:1;stroke:none;stroke-width:2.19008"
       d="m 211.60708,-139.44484 c 0,0.94108 0.17541,1.81836 0.52756,2.63182 0.3517,0.81349 0.82729,1.51931 1.42699,2.11743 0.59947,0.59815 1.30705,1.07269 2.1225,1.42358 0.81523,0.35092 1.69471,0.52638 2.638,0.52638 0.92728,0 1.79865,-0.17544 2.6141,-0.52638 0.81523,-0.35089 1.52281,-0.82941 2.12228,-1.43554 0.5997,-0.60611 1.07529,-1.31591 1.42699,-2.1294 0.35171,-0.81346 0.52756,-1.68275 0.52756,-2.60789 v -23.97362 c 0,-0.70177 0.24799,-1.29992 0.74353,-1.79442 0.49555,-0.49442 1.09524,-0.74167 1.79865,-0.74169 0.70341,2e-5 1.3031,0.24727 1.79864,0.74169 0.49577,0.4945 0.74354,1.09265 0.74354,1.79442 v 23.97362 c 0,1.611 -0.3118,3.13029 -0.93539,4.55785 -0.6236,1.42758 -1.4669,2.6757 -2.53012,3.74438 -1.06323,1.06868 -2.3102,1.91406 -3.74114,2.53612 -1.43093,0.62208 -2.95396,0.93312 -4.56864,0.93312 -1.63091,0 -3.16161,-0.31104 -4.59255,-0.93312 -1.43115,-0.62206 -2.67812,-1.47142 -3.74135,-2.54808 -1.06322,-1.07665 -1.90652,-2.32479 -2.53012,-3.74439 -0.62359,-1.41957 -0.93539,-2.93488 -0.93539,-4.54588 0,-0.70181 0.24799,-1.29996 0.74353,-1.79445 0.49555,-0.49444 1.09524,-0.74167 1.79865,-0.74169 0.70341,2e-5 1.3031,0.24725 1.79865,0.74169 0.49576,0.49449 0.74353,1.09264 0.74353,1.79445 z" />
    <path
       style="fill:#ff0000;fill-opacity:1;stroke:none;stroke-width:2.19008"
       d="m 209.06841,-111.78181 c -1.33534,0.0446 -2.6915,0.38789 -3.98759,1.1879 -5.92459,3.65721 -9.51837,10.633707 -2.99058,18.149926 3.66768,4.22292 13.55968,6.155706 15.42367,12.086121 0.77292,2.627294 0.45366,7.500994 0.78936,7.486491 0.33548,0.01531 0.0307,-4.859197 0.80296,-7.486491 1.8642,-5.930415 11.75621,-7.863201 15.42367,-12.086121 6.52779,-7.516219 2.93423,-14.492716 -2.99058,-18.149926 -5.92459,-3.65717 -13.20842,2.26528 -13.20842,2.26528 l -0.0417,0.0551 v -0.0551 c 0,0 -4.45222,-3.61248 -9.22105,-3.45318 z"
       id="path11604-4"
       inkscape:connector-curvature="0"
       sodipodi:nodetypes="csscccssccccc" />
    <path
       inkscape:connector-curvature="0"
       id="path25636"
       style="font-style:normal;font-variant:normal;font-weight:bold;font-stretch:normal;font-size:22.4px;line-height:125%;font-family:Comfortaa;-inkscape-font-specification:'Comfortaa Bold';letter-spacing:0px;word-spacing:0px;fill:#ff0000;fill-opacity:1;stroke:none;stroke-width:2.19008"
       d="m 391.85959,93.568466 c 0,-0.941083 -0.17541,-1.818357 -0.52777,-2.631822 -0.35171,-0.813486 -0.8273,-1.519304 -1.42677,-2.117432 -0.5997,-0.598149 -1.30705,-1.072683 -2.12251,-1.423579 -0.81545,-0.350919 -1.69471,-0.526378 -2.638,-0.526378 -0.92727,0 -1.79864,0.175437 -2.61409,0.526378 -0.81546,0.350896 -1.52281,0.829411 -2.12251,1.435545 -0.59947,0.606112 -1.07506,1.315911 -1.42699,2.129397 -0.3517,0.813465 -0.52755,1.682755 -0.52755,2.607891 v 23.973614 c 0,0.70177 -0.24778,1.29992 -0.74354,1.79443 -0.49554,0.49442 -1.09502,0.74165 -1.79864,0.74169 -0.70341,-4e-5 -1.30289,-0.24727 -1.79865,-0.74169 -0.49554,-0.49451 -0.74331,-1.09266 -0.74331,-1.79443 V 93.568466 c 0,-1.611004 0.31179,-3.130287 0.93517,-4.557848 0.62359,-1.427583 1.46689,-2.675703 2.53012,-3.744383 1.06322,-1.06868 2.31041,-1.91406 3.74135,-2.536119 1.43094,-0.622081 2.95374,-0.933121 4.56864,-0.933121 1.63069,0 3.16161,0.31104 4.59255,0.933121 1.43094,0.622059 2.67813,1.47142 3.74113,2.548085 1.06323,1.076642 1.90675,2.324784 2.53034,3.744383 0.62338,1.419576 0.93517,2.934878 0.93517,4.545882 0,0.701815 -0.24777,1.299964 -0.74331,1.794426 -0.49576,0.494462 -1.09524,0.741693 -1.79887,0.741715 -0.7034,-2.2e-5 -1.30288,-0.247253 -1.79864,-0.741715 -0.49555,-0.494462 -0.74332,-1.092611 -0.74332,-1.794426 z" />
    <path
       sodipodi:nodetypes="csscccssccccc"
       inkscape:connector-curvature="0"
       id="path24506"
       d="m 394.39827,65.905307 c 1.33533,-0.04462 2.6915,-0.387887 3.98736,-1.187899 5.92481,-3.657211 9.51838,-10.633709 2.99058,-18.149929 -3.66745,-4.22292 -13.55946,-6.155705 -15.42367,-12.08612 -0.77291,-2.627294 -0.45366,-7.500995 -0.78914,-7.486492 -0.33548,-0.01531 -0.0307,4.859198 -0.80295,7.486492 -1.86421,5.930415 -11.75622,7.8632 -15.42389,12.08612 -6.52758,7.51622 -2.93401,14.492718 2.99058,18.149929 5.92481,3.657168 13.20863,-2.265284 13.20863,-2.265284 l 0.0417,-0.05512 v 0.05512 c 0,0 4.452,3.612477 9.22084,3.453183 z"
       style="fill:#ff0000;fill-opacity:1;stroke:none;stroke-width:2.19008" />
  </g>
</svg>
