<?xml version="1.0" encoding="UTF-8" standalone="no"?>
<svg
   xmlns:dc="http://purl.org/dc/elements/1.1/"
   xmlns:cc="http://creativecommons.org/ns#"
   xmlns:rdf="http://www.w3.org/1999/02/22-rdf-syntax-ns#"
   xmlns:svg="http://www.w3.org/2000/svg"
   xmlns="http://www.w3.org/2000/svg"
   xmlns:xlink="http://www.w3.org/1999/xlink"
   xmlns:sodipodi="http://sodipodi.sourceforge.net/DTD/sodipodi-0.dtd"
   xmlns:inkscape="http://www.inkscape.org/namespaces/inkscape"
   inkscape:version="1.0 (4035a4fb49, 2020-05-01)"
   sodipodi:docname="QC.svg"
   id="svg77"
   version="1.1"
   width="2.25in"
   viewBox="-106 -164.5 212 329"
   preserveAspectRatio="none"
   height="3.5in"
   face="QC"
   class="card">
  <metadata
     id="metadata81">
    <rdf:RDF>
      <cc:Work
         rdf:about="">
        <dc:format>image/svg+xml</dc:format>
        <dc:type
           rdf:resource="http://purl.org/dc/dcmitype/StillImage" />
      </cc:Work>
    </rdf:RDF>
  </metadata>
  <sodipodi:namedview
     inkscape:current-layer="svg77"
     inkscape:window-maximized="1"
     inkscape:window-y="-12"
     inkscape:window-x="-12"
     inkscape:cy="168"
     inkscape:cx="108"
     inkscape:zoom="2.2410714"
     showgrid="false"
     id="namedview79"
     inkscape:window-height="2050"
     inkscape:window-width="3240"
     inkscape:pageshadow="2"
     inkscape:pageopacity="0"
     guidetolerance="10"
     gridtolerance="10"
     objecttolerance="10"
     borderopacity="1"
     bordercolor="#666666"
     pagecolor="#ffffff" />
  <defs
     id="defs3">
    <rect
       y="-112.5"
       x="-54"
       height="225"
       width="108"
       id="XCQ" />
  </defs>
  <symbol
     preserveAspectRatio="xMinYMid"
     viewBox="-500 -500 1000 1000"
     id="VCQ">
    <path
       id="path5"
       fill="none"
       stroke-miterlimit="1.5"
       stroke-linecap="square"
       stroke-width="80"
       stroke="black"
       d="M-260 100C40 100 -40 460 260 460M-175 0L-175 -285A175 175 0 0 1 175 -285L175 285A175 175 0 0 1 -175 285Z" />
  </symbol>
  <symbol
     preserveAspectRatio="xMinYMid"
     viewBox="-600 -600 1200 1200"
     id="SCQ">
    <path
       id="path8"
       fill="black"
       d="M30 150C35 385 85 400 130 500L-130 500C-85 400 -35 385 -30 150A10 10 0 0 0 -50 150A210 210 0 1 1 -124 -51A10 10 0 0 0 -110 -65A230 230 0 1 1 110 -65A10 10 0 0 0 124 -51A210 210 0 1 1 50 150A10 10 0 0 0 30 150Z" />
  </symbol>
  <symbol
     viewBox="0 0 1300 2000"
     preserveAspectRatio="none"
     id="CQ1">
    <path
       id="path11"
       d="M126.24414,0C106.11225,115.72778 110.67729,243.29239 30,330c33.588601,-7.97875 66.99363,-12.3598 99.98438,-9.60742L333.64258,0Zm668.94141,480 -510.76172,0.11719c-33.0656,50.76994 -73.70793,92.45737 -125.19727,119.67969l697.92578,0.79296C833.68994,557.41173 813.17202,517.2236 795.18555,480ZM1117.5,537.5c-16.9366,0 -33.8723,21.07719 -28.1465,63.22656A42.5,42.5 0 0 1 1117.5,590a42.5,42.5 0 0 1 28.1484,10.71094C1151.3679,558.57215 1134.4345,537.5 1117.5,537.5Zm-260.09766,63.12695c-9.57018,10.81484 -18.21104,22.7571 -25.72265,35.76758 -37.3705,64.72761 -37.81401,140.44856 -7.79688,202.08008C796.01881,884.23362 779.99999,937.77653 780,995c3e-5,168.4469 138.79167,305 310,305 80.4322,0 153.7089,-30.1384 208.8027,-79.5625l-0.6914,-0.5156 1.8887,-2.541v-27.1192L923.94922,910.625 1003.9746,795.94727 1300,1015.9297V984.7793L996.05859,758.73633 890.79102,909.49609l-0.44727,-0.47656 10.6582,-15.36914c-74.41013,-55.38615 -96.53703,-160.12087 -47.67187,-244.75781 6.03761,-10.45744 12.88262,-20.12836 20.4043,-28.98047zm213.15236,2.59375c-68.7826,-0.53957 -63.724,68.14353 15.1719,57.42578A42.5,42.5 0 0 1 1075,632.5a42.5,42.5 0 0 1 10.7109,-28.14844c-5.3969,-0.73252 -10.4505,-1.09394 -15.1562,-1.13086zm93.8906,0c-4.7103,0.037 -9.769,0.39885 -15.1719,1.13282A42.5,42.5 0 0 1 1160,632.5a42.5,42.5 0 0 1 -10.7109,28.14844c78.8806,10.70638 83.9342,-57.96728 15.1562,-57.42774zm-754.27733,26.49805c5.6329,161.81494 151.46984,195.79309 164.08398,310.25781l20.43164,-0.0117C587.11551,821.02094 445.84892,791.57126 440.17578,630.09961Zm129.95703,0.38867c4.04087,161.3986 104.66253,181.69013 109.68164,309.83789l25.02539,-0.002C670.49081,811.95939 583.501,796.17748 580.10156,630.11523Zm119.98633,0.18164c2.78583,128.34474 57.35739,162.20307 59.80469,309.39453h20.01367C737.89028,792.4921 692.41333,758.63381 690.0918,630.28906ZM1235,640c-13.0699,39.20973 -55.1393,75.1502 -53.707,109.75195 -4.3709,-18.95086 -8.081,-37.98407 -13.5254,-55.88867l-21.6778,-2.06055c7.3497,19.99955 11.6358,41.87638 16.5821,63.75977L1185,765c63.5797,-18.95057 58.4422,-71.17521 50,-125zm-89.3535,24.27344A42.5,42.5 0 0 1 1117.5,675 42.5,42.5 0 0 1 1089.3516,664.28906c-4.562,33.6109 5.2916,53.80337 18.0586,60.60547l-1.6817,-0.10547c-21.832,2.07681 -44.951,12.78869 -70.7285,10.21094 17.4168,28.2717 67.4679,31.43686 130,25 -12.9341,-21.01788 -25.8685,-30.53416 -39.1406,-33.95898l-0.6387,-0.0391c13.8828,-5.47891 25.2723,-26.05222 20.4258,-61.72851zM914.78516,935.0625 1194.9297,1143.3105C1165.3242,1163.298 1129.6656,1175 1090,1175c-105.02376,0 -184.99997,-80.0466 -185,-180 -10e-6,-21.15738 3.58279,-40.96522 10.25195,-59.44141zm-259.40821,29.9668 -137.86328,0.0312C519.10705,978.17283 520,991.48378 520,1005c0,9.8559 -0.47481,19.6025 -1.41016,29.6094L654.9668,1035l0.0156,-2.6992c-6.28899,2.1562 -15.5948,-0.074 -15.58203,-6.711 -7.07028,7.0974 -22.08757,-7.9199 -14.99023,-14.9902 -10.01815,0.019 -10.01815,-21.21848 0,-21.19921 -7.09733,-7.07028 7.91996,-22.08758 14.99023,-14.99023 -0.013,-6.76823 9.67486,-8.96679 15.96094,-6.58985zm325.16797,18.98632C980.18298,987.56828 980,991.22378 980,995c0,58.8827 44.6449,105 110,105 13.8716,0 26.5846,-2.2203 38.1777,-6.2949z"
       fill="#FC4" />
  </symbol>
  <symbol
     viewBox="0 0 1300 2000"
     preserveAspectRatio="none"
     id="CQ2">
    <path
       id="path14"
       d="M333.65039,0l-201,316.52344 15.65625,-25.00782C127.45648,294.20938 106.73948,298.58959 85,290 73.403334,305.0616 57.687928,315.96713 42.552734,326.91797 72.358649,320.99815 101.33841,318.041 130.0332,320.70508l0.18164,-0.28906c17.62689,1.97777 34.91645,5.695 51.92383,12.10742L393.63867,0Zm308.79492,0c34.3528,141.47899 46.36321,258.03143 152.86719,480 17.86047,37.2236 38.37821,77.41127 62.10547,121.17969l16.31641,18.73242C988.88499,461.53402 744.76529,342.29886 642.92188,0ZM260,55c-13.22762,10.598963 -26.50441,11.205789 -35,10 5.28739,8.603845 6.50399,20.651227 5,35 9.78292,8.14559 15.71746,18.85611 20.77734,30.15039L292.67188,64.386719C280.59674,63.627517 268.99052,61.92841 260,55Zm857.5,565a12.5,12.5 0 0 0 -12.5,12.5 12.5,12.5 0 0 0 12.5,12.5 12.5,12.5 0 0 0 12.5,-12.5 12.5,12.5 0 0 0 -12.5,-12.5zm-707.17773,9.85938 -231.3125,0.18945 39.63085,70.18164c144.49113,3.71858 264.40119,105.00269 294.22657,239.41601l61.38476,0.33008C561.63781,825.51184 415.80122,791.53354 410.32227,629.85938Zm425.5039,0.0215 -145.88867,0.26367c2.47621,128.48956 47.95308,162.34779 50.02148,309.69727l44.73438,0.0547c7.15793,-36.61573 20.54892,-70.85645 39.24219,-101.47851 -30.08113,-61.53498 -29.63497,-137.28097 7.74414,-202.02344 1.29469,-2.24246 2.62288,-4.45402 4.14648,-6.51367zM873.63086,665 861.96289,690h74.24609l-22.62695,-25zm-19.0918,55 -2.12109,25h131.875l-21.91992,-25zm0.70703,55 7.07032,25h103.94531l18.03125,-25zm20.85938,55 19.0918,25h33.9414l17.67774,-25zm-31.45899,122.68555a12.5,12.5 0 0 0 -12.55468,11.52148 12.5,12.5 0 0 0 11.48242,13.43945 12.5,12.5 0 0 0 13.43945,-11.48437 12.5,12.5 0 0 0 -11.48242,-13.43945 12.5,12.5 0 0 0 -0.88477,-0.0371zM650,987.5A12.5,12.500006 0 0 0 637.5,1000 12.5,12.500006 0 0 0 650,1012.5 12.5,12.500006 0 0 0 662.5,1000 12.5,12.500006 0 0 0 650,987.5Zm355.3027,14.9492c3.4169,41.5121 35.468,72.5508 84.6973,72.5508 4.1768,0 8.1929,-0.2454 12.0586,-0.7227zm-156.13473,36.377a12.5,12.5 0 0 0 -2.48828,0.1933 12.5,12.5 0 0 0 -10.09375,14.5117 12.5,12.5 0 0 0 14.51172,10.0938 12.5,12.5 0 0 0 10.09375,-14.5117 12.5,12.5 0 0 0 -12.02344,-10.2871zm34.36523,78.1816a12.5,12.5 0 0 0 -4.86328,1.0078 12.5,12.5 0 0 0 -6.57226,16.4102 12.5,12.5 0 0 0 16.41015,6.5742 12.5,12.5 0 0 0 6.57227,-16.4102 12.5,12.5 0 0 0 -11.54688,-7.582zm58.16992,60.0332a12.5,12.5 0 0 0 -8.88671,3.9746 12.5,12.5 0 0 0 0.62109,17.666 12.5,12.5 0 0 0 17.66602,-0.6211 12.5,12.5 0 0 0 -0.6211,-17.666 12.5,12.5 0 0 0 -8.7793,-3.3535zm252.17778,25.9199a12.5,12.5 0 0 0 -4.8692,0.9746 12.5,12.5 0 0 0 -6.6816,16.3672 12.5,12.5 0 0 0 16.3672,6.6817 12.5,12.5 0 0 0 6.6797,-16.3672 12.5,12.5 0 0 0 -11.4961,-7.6563zm-177.2149,11.2168a12.5,12.5 0 0 0 -12.2129,8.9317 12.5,12.5 0 0 0 8.4141,15.5468 12.5,12.5 0 0 0 15.5469,-8.414 12.5,12.5 0 0 0 -8.4141,-15.5469 12.5,12.5 0 0 0 -3.334,-0.5176zm90.916,10.5391a12.5,12.5 0 0 0 -12.0781,12.9082 12.5,12.5 0 0 0 12.9082,12.0781 12.5,12.5 0 0 0 12.0781,-12.9082 12.5,12.5 0 0 0 -12.9082,-12.0781z"
       fill="red" />
  </symbol>
  <symbol
     viewBox="0 0 1300 2000"
     preserveAspectRatio="none"
     id="CQ3">
    <path
       id="path17"
       d="M636.56836,188.83789A13.43236,21.162058 0 0 0 623.13477,210 13.43236,21.162058 0 0 0 636.56836,231.16211 13.43236,21.162058 0 0 0 650,210 13.43236,21.162058 0 0 0 636.56836,188.83789Zm-140,1.20899a13.43236,21.162058 0 0 0 -13.43359,21.1621 13.43236,21.162058 0 0 0 13.43359,21.16211A13.43236,21.162058 0 0 0 510,211.20898 13.43236,21.162058 0 0 0 496.56836,190.04688ZM263.24414,509.83789c-3.3273,4.334 -6.73821,8.58272 -10.23047,12.75l3.87695,-4.21094c2.03686,-0.0686 4.0758,-0.0931 6.11719,-0.084 1.93242,0.009 3.86729,0.0526 5.80274,0.11328 0.73332,0.023 1.4675,0.0572 2.20117,0.0859 1.13522,0.0445 2.27039,0.0871 3.40625,0.14258 3.83934,0.18758 7.68179,0.42136 11.52344,0.64843 0.69671,0.0412 1.3932,0.0812 2.08984,0.1211 1.31629,0.0754 2.63148,0.14228 3.94727,0.20898 0.76628,0.0389 1.53279,0.0788 2.29882,0.11328 1.25497,0.0565 2.50961,0.0977 3.76368,0.13867 0.77477,0.0253 1.54987,0.0582 2.32421,0.0762 0.2019,0.005 0.40361,0.008 0.60547,0.0117 1.66604,0.0341 3.33063,0.0542 4.99414,0.0449 -0.13638,0.29077 -0.27846,0.57706 -0.42968,0.86133 -0.15092,0.28372 -0.30958,0.56397 -0.47657,0.84179 -0.0474,0.0789 -0.10157,0.15587 -0.15039,0.23438 -0.29463,0.47386 -0.60904,0.94102 -0.95703,1.40039 -10e-4,0.002 -0.002,0.004 -0.004,0.006 -0.20167,0.26593 -0.4135,0.52914 -0.63477,0.79101 -0.002,0.003 -0.004,0.005 -0.006,0.008 -0.22093,0.26122 -0.45168,0.52154 -0.69336,0.7793l-0.008,0.008c-0.24168,0.2575 -0.49417,0.51295 -0.75781,0.76758 -0.003,0.003 -0.006,0.007 -0.01,0.01 -0.26338,0.25407 -0.53773,0.50601 -0.82422,0.75781 -0.58,0.50994 -1.20828,1.01535 -1.89062,1.51953 -0.68216,0.50405 -1.42025,1.00672 -2.21485,1.50977 -0.7908,0.50064 -1.64053,1.0015 -2.55273,1.50586 -0.004,0.002 -0.007,0.005 -0.0117,0.008 -0.91733,0.50688 -1.89909,1.01584 -2.94922,1.53125 -1.04373,0.51227 -2.15687,1.03127 -3.3418,1.55664 -0.008,0.003 -0.0139,0.008 -0.0215,0.0117 -5.964,2.64272 -13.78251,5.48115 -24.08008,8.8125 -4.1184,1.33233 -8.63619,2.74485 -13.58984,4.25391 6.55243,3.58776 9.91434,7.01585 11.83984,11.12109 -3.62586,-0.0202 -7.2584,0.0752 -10.89453,0.23047 -10.9084,0.46585 -21.84884,1.46801 -32.73047,1.47656l11.78711,-12.80273c-7.98149,7.88224 -16.34758,15.37861 -25.13867,22.44726l635.58789,0.32617c-1.63926,-3.07957 -3.22215,-6.1007 -4.82422,-9.14258 -0.14916,-2.2e-4 -0.29813,-0.007 -0.44726,-0.008 -0.92322,-0.004 -1.84719,-0.01 -2.76954,-0.0293 -0.008,-1.8e-4 -0.0169,1.9e-4 -0.0254,0 -0.0834,-0.002 -0.16663,-0.008 -0.25,-0.01 -0.98967,-0.023 -1.97818,-0.0537 -2.96679,-0.0977 -0.007,-3.1e-4 -0.0143,3.2e-4 -0.0215,0 -0.18052,-0.008 -0.36053,-0.0226 -0.54101,-0.0312 -0.84881,-0.0414 -1.69696,-0.0857 -2.54492,-0.14453 -14.04973,-0.96289 -27.9559,-4.37621 -41.52344,-13.57422l0.71289,0.19336c-0.31313,-0.211 -0.62654,-0.40385 -0.93945,-0.62109 -2.21866,0.20945 -4.30769,0.83712 -6.47266,1.49609 6.55409,3.58836 9.90628,7.01534 11.83203,11.1211 -31.86695,-0.17702 -64.25756,8.59859 -94.92578,-12.05469 -2.16088,0.67506 -4.42102,1.3687 -6.77539,2.08594 6.55557,3.5887 9.90997,7.01682 11.83594,11.12304 -31.86649,-0.17702 -64.25797,8.59939 -94.92579,-12.05273 -1.84487,0.57384 -3.72249,1.15579 -5.70507,1.75977 6.55551,3.58866 9.90803,7.01489 11.83398,11.12109 -28.75048,-0.15971 -57.92718,6.96182 -85.88086,-6.80859 1.4404,1.54633 2.50011,3.15129 3.3086,4.875 -31.8665,-0.17703 -64.25797,8.59938 -94.92579,-12.05274 -1.84531,0.57397 -3.72199,1.15369 -5.70507,1.75781 6.55557,3.58871 9.90802,7.01683 11.83398,11.12305 -31.93868,-0.17742 -64.40335,8.64527 -95.13281,-12.1875l20.21093,-7.74023c-7.12569,2.59424 -15.91133,5.45343 -26.9121,8.80468 6.55557,3.58871 9.90802,7.01683 11.83398,11.12305 -31.93868,-0.17742 -64.40335,8.64527 -95.13281,-12.1875l39.30859,-15.05469c2.69592,0.82067 5.2395,1.60717 7.6836,2.37305l-3.22852,-1.23633c30.72946,-20.83277 63.19611,-12.01008 95.13476,-12.1875 -2.69781,5.75185 -8.19691,10.17152 -21.39257,15.57031l11.80273,-4.51953c2.69592,0.82067 5.23952,1.60717 7.6836,2.37305l-3.22852,-1.23633c30.72946,-20.83277 63.1961,-12.01008 95.13476,-12.1875 -1.7828,3.80104 -4.8256,7.02027 -10.46093,10.32422 2.56969,0.7831 5.01235,1.53845 7.35156,2.27148l-3.22852,-1.23632c16.32503,-11.06741 33.1398,-13.76648 50.10547,-13.89063 14.96972,-0.10954 30.05609,1.78434 45.02735,1.70117 -2.30371,4.91158 -6.68522,8.85618 -16.11719,13.26367 2.37023,0.72371 4.64854,1.4287 6.82031,2.10938L560,535c30.72946,-20.83277 63.19413,-12.01008 95.13281,-12.1875 -1.7829,3.80122 -4.82512,7.02011 -10.46093,10.32422 2.57479,0.78466 5.01984,1.54099 7.36328,2.27539l-3.23828,-1.24023c30.72946,-20.83277 63.19413,-12.01009 95.13281,-12.1875 -1.708,3.64148 -4.56492,6.74867 -9.75391,9.9082l0.0312,-0.0117c2.70649,0.82389 5.25828,1.61413 7.71094,2.38281l-3.25586,-1.24805c0.94181,-0.63849 1.88703,-1.23837 2.83203,-1.82226 0.29742,-0.18376 0.59485,-0.36253 0.89258,-0.54102 0.71004,-0.4257 1.42106,-0.83599 2.13281,-1.23242 0.27154,-0.15124 0.54267,-0.308 0.81445,-0.45508 0.93271,-0.50473 1.86724,-0.98826 2.80274,-1.44531 0.22046,-0.1077 0.4415,-0.20542 0.66211,-0.31055 0.75573,-0.36014 1.51207,-0.7065 2.26953,-1.0371 0.3058,-0.13347 0.61189,-0.2638 0.91797,-0.39258 0.74649,-0.31414 1.4941,-0.61532 2.24219,-0.90235 0.22782,-0.0874 0.45562,-0.18067 0.68359,-0.26562 0.94711,-0.35299 1.89424,-0.68211 2.84375,-0.99414 0.2707,-0.089 0.54161,-0.17209 0.8125,-0.25781 0.73082,-0.23133 1.46315,-0.45158 2.19531,-0.66016 0.28381,-0.0808 0.56756,-0.16271 0.85156,-0.24024 0.94441,-0.25784 1.88947,-0.50402 2.83594,-0.72656 0.0514,-0.0121 0.10293,-0.0232 0.1543,-0.0352 0.94963,-0.2214 1.89998,-0.42129 2.85156,-0.60938 0.28824,-0.057 0.57683,-0.11003 0.86524,-0.16406 0.76453,-0.14327 1.52922,-0.27696 2.29492,-0.40039 0.23179,-0.0374 0.46342,-0.0777 0.69531,-0.11328 0.97768,-0.15015 1.95613,-0.28584 2.93555,-0.40625 0.19251,-0.0237 0.38554,-0.0419 0.57812,-0.0645 0.8028,-0.0941 1.60629,-0.18003 2.41016,-0.25586 0.30136,-0.0284 0.60282,-0.0561 0.90429,-0.082 0.78274,-0.0674 1.56598,-0.12598 2.34961,-0.17773 0.21494,-0.0142 0.42954,-0.0319 0.64454,-0.0449 0.17757,-0.0108 0.35558,-0.0154 0.5332,-0.0254 1.25272,-0.0708 2.50697,-0.12216 3.76172,-0.15821 0.4387,-0.0126 0.87747,-0.0245 1.3164,-0.0332 1.38664,-0.0276 2.77347,-0.0438 4.16211,-0.0371 1.87017,0.009 3.74222,0.0515 5.61524,0.10938 0.57468,0.0177 1.14971,0.0411 1.72461,0.0625 1.30492,0.0485 2.61021,0.10248 3.91601,0.16601 0.59174,0.0288 1.18352,0.0588 1.77539,0.0898 3.71392,0.19508 7.4294,0.42483 11.14453,0.64063 -1.71491,-3.41529 -3.43493,-6.83608 -5.10546,-10.20313zm261.74219,35.72852c-2.54802,0.80059 -5.19799,1.62167 -8.02344,2.48242 0.21503,0.11771 0.41097,0.23612 0.61914,0.35351zM1055,570c0,11.18682 2.7816,25.15279 6.2695,33.60547 6.9777,-0.64368 14.9005,-0.48882 23.7598,0.66601l-22.1504,-22.15039c-1.9321,-1.87691 -0.6039,-5.15173 2.0899,-5.15234 0.8108,5e-5 1.5874,0.32837 2.1523,0.91016l22.1504,22.15039c-1.1548,-8.85932 -1.3097,-16.78206 -0.666,-23.75977C1080.1528,572.78158 1066.1868,570 1055,570Zm125,0c-11.1868,0 -25.1528,2.78158 -33.6055,6.26953 0.644,6.98076 0.4902,14.90745 -0.666,23.77149l22.1621,-22.16211c0.565,-0.58182 1.3414,-0.91014 2.1524,-0.91016 2.6936,7e-4 4.0219,3.27546 2.0898,5.15234l-22.1484,22.14844c8.8537,-1.15318 16.772,-1.3074 23.7461,-0.66406C1177.2184,595.15279 1180,581.18682 1180,570ZM121.35938,618.9082C83.230625,651.68801 42.699188,669.21937 0,664.04883v108.75976l1.1972656,6.75391C46.845463,738.61196 104.97665,710.9006 169.53516,702.95898Zm963.68162,41.82032c-8.864,1.15622 -16.7907,1.30997 -23.7715,0.66601C1057.7816,669.84721 1055,683.81318 1055,695c11.1868,0 25.1528,-2.78158 33.6055,-6.26953 -0.6434,-6.97408 -0.4891,-14.89238 0.664,-23.74609l-22.1367,22.13671c-2.8275,2.94478 -7.187,-1.41464 -4.2422,-4.24218zm64.9297,0 22.1504,22.15039c2.9448,2.82754 -1.4147,7.18696 -4.2422,4.24218l-22.1504,-22.15039c1.1548,8.85932 1.3097,16.78206 0.666,23.75977 8.4527,3.48795 22.4187,6.26953 33.6055,6.26953 0,-11.18682 -2.7816,-25.15279 -6.2695,-33.60547 -6.9777,0.64368 -14.9005,0.48882 -23.7598,-0.66601zM1003.9746,795.94727 923.94922,910.625 1300,1190.2617v-174.332z"
       fill="#44F" />
  </symbol>
  <symbol
     viewBox="0 0 1300 2000"
     preserveAspectRatio="none"
     id="CQ4">
    <path
       id="path20"
       d="M393.63672,0 0,618.57227v45.48632C197.24087,687.92397 347.4479,226.47737 407.34961,0ZM646.2168,316.48438C639.93633,347.24647 632.34209,374.56541 625,380c-17.901,13.25025 -60.72692,84.76409 -70,90 -5.43308,3.06771 -11.62034,4.19251 -18.0625,4.00781L538.17773,480 711.87891,479.90039C684.22785,418.67442 662.99573,364.85847 646.2168,316.48438ZM158.99609,599.91797c-10.55119,5.53757 -21.68781,10.51777 -33.30859,14.80664l-4.00977,4.46289 47.60352,83.80469C182.28627,700.90852 196.03523,700 210,700c2.94923,0 5.88793,0.0411 8.79297,0.23438l-39.7832,-70.18555 656.8789,-0.26758c6.40212,-10.60441 13.64316,-20.25929 21.25586,-29.4668zm714.73829,19.99414c-7.52168,8.85211 -14.36669,18.52303 -20.4043,28.98047 -48.86516,84.63694 -26.73826,189.37166 47.67187,244.75781l15.14649,-19.73242c-64.20513,-47.79019 -83.71512,-138.13036 -40.94922,-212.20313 4.7128,-8.16282 9.9724,-15.75321 15.70117,-22.76757zM512.9668,939.85547C517.54267,960.74537 520,982.59059 520,1005c0,9.9356 -0.48293,19.7606 -1.42188,29.7266l66.41016,0.2734 -0.20508,-70 196.67383,-0.0762c0.87045,-8.40795 2.04126,-16.64159 3.20117,-24.84375z"
       fill="black" />
  </symbol>
  <symbol
     viewBox="0 0 1300 2000"
     preserveAspectRatio="none"
     id="CQ5">
    <path
       id="path23"
       d="M1300.0003,984.77893 996.277,759.00237M1.1963,779.5619C56.2901,730.1378 129.5678,700 210,700c171.20833,0 309.99997,136.5532 310,305.0001 10e-6,57.2908 -16.05489,110.8923 -43.9796,156.6868M1.9313,780.0198l410.83085,305.3963M513.05419,940h271.2654M1300.0001,1190.2654 923.9347,910.71176M995.83942,758.46912 887.23785,914.58387M1003.7481,795.85042l-79.78277,114.6877M857.1988,600.85861 995.81708,758.50123M886.75005,914.1998C801.7885,851.42792 776.52078,731.9306 831.67897,636.39381c7.51161,-13.01048 16.15383,-24.95142 25.72401,-35.76626M901.00159,893.65121c-74.41013,-55.38615 -96.53685,-160.1208 -47.67169,-244.75774 6.03761,-10.45744 12.8828,-20.12969 20.40448,-28.9818M1004.1996,796.04277l295.8005,219.88713M916.14844,873.91859C851.94331,826.1284 832.43332,735.78824 875.19922,661.71547c4.7128,-8.16282 9.97234,-15.75352 15.70111,-22.76788M995.05831,760H853.11446M948.90479,705H857.46857M957.03246,815H867.91842M856.88802,600H158.867M840.92297,570H204.84401M810,510H262.99672M795.05972,480H284.48276M642.49491,0.15936669C676.82077,141.57323 688.844,258.10701 795.31171,480c17.86047,37.2236 38.37876,77.41219 62.10602,121.18061M835.98831,630H179.39245M690.09204,630.28961c2.32153,128.34475 47.79782,162.20291 49.83723,309.3944M660.11045,630.28962c2.78583,128.34474 57.35737,162.2029 59.80467,309.39436M580.10233,630.11457c3.39944,166.06225 90.38833,181.84555 94.72955,309.82962M540.12509,630.10687c4.04087,161.3986 104.66152,181.69067 109.68063,309.83843M440.17563,630.09992c5.67314,161.47165 146.94086,190.92129 154.50894,309.86515M410.16758,629.71845c5.6329,161.81494 151.46926,195.79261 164.0834,310.25733M517.65189,965H781.41685M509.15039,925l62.51562,-10e-6M504.58201,909.99997l62.91602,1e-5M499.1328,894.99997l62.15625,1e-5M499.8379,880.00001 553.1582,880M500.80665,865.00002 543.34375,865M501.77343,849.99999l30.05273,-10e-6M502.74219,835l16.2422,2e-5M739.44336,925h48.92969M738.81054,910h53.46485M737.70899,894.99999 797.11719,895M736.21484,880H794.7832M734.38281,865h53.87891M732.03124,850h49.70704M729.19728,835H775.2168M725.96289,820h42.73242M503.709,820.00002l1.68946,1e-5M1278.4832,1205.0263C1228.2674,1248.5655 1162.4304,1275 1090,1275 932.08475,1275 805.00003,1149.7144 805,995c-10e-6,-47.53208 11.99174,-92.12981 33.19998,-131.28704M1215.9344,1159.0813C1180.9846,1184.7753 1137.8588,1200 1090,1200c-118.24663,0 -209.99997,-91.3563 -210,-205 -10e-6,-26.72812 5.0737,-51.77751 14.40068,-74.88377M1102.059,1074.2764c-3.8657,0.4773 -7.8822,0.7236 -12.059,0.7236 -49.2293,0 -81.2797,-31.039 -84.6966,-72.5511M1128.1779,1093.7045C1116.5848,1097.7791 1103.8716,1100 1090,1100c-65.3551,0 -110,-46.1173 -110,-105 0,-3.77622 0.18355,-7.43173 0.54549,-10.98439M1195.0882,1143.2048C1165.4517,1163.2571 1129.7359,1175 1090,1175c-105.02376,0 -184.99997,-80.0466 -185,-180 -10e-6,-21.15738 3.5819,-40.96609 10.25106,-59.44228M657.5,981.8934c3.53553,-24.74874 35.35533,7.0711 10.60659,10.6066 20,-14.99999 20,30 0,15 24.74874,3.5355 -7.0711,35.3554 -10.60659,10.6066 14.99999,20 -30,20 -15,0 -3.53553,24.7488 -35.35533,-7.0711 -10.60659,-10.6066 -20,15 -20,-30 0,-15 -24.74874,-3.5355 7.0711,-35.3554 10.60659,-10.6066 -15,-20 30,-20 15,0v0M662.5,1000A12.5,12.500006 0 0 1 650,1012.5 12.5,12.500006 0 0 1 637.5,1000 12.5,12.500006 0 0 1 650,987.5 12.5,12.500006 0 0 1 662.5,1000v0M585,965v70M218.76948,700.34659 178.62802,630.09903M169.7518,703.31565 121.67803,619.18656M393.63647,-1.6083941e-4 -3.6588575e-4,618.572M182.28518,332.46053C132.42021,314.0023 81.42449,317.78446 30,330 110.6798,243.2897 106.09703,115.71197 126.23109,-0.01867369M333.63645,-1.381201e-4 129.94861,320.08075M407.50382,-0.49545038C347.65726,225.87038 197.33235,687.94151 0.00206512,664.06655M437.91982,-0.37666728C389.73727,223.71342 339.24042,535.9088 125.68689,614.72474M140.37083,303.70387l48.88889,17.46032M149.07448,290.0266l48.88828,17.4601M158.7033,274.89404l48.8889,17.46032M168.33386,259.7621l48.88888,17.46031M191.50017,249.46435l35.35139,12.62549M217.49974,240.17848l18.98064,6.7788M41.885001,326.7843C57.688093,315.96727 73.403334,305.0616 85,290c21.73948,8.58959 42.45674,4.20983 63.3069,1.51608M72.987181,266.42563c27.732269,5.56448 57.992509,4.79169 88.322099,3.84502M105.35109,153.76681C131.23763,176.18397 102.29045,226.14522 140,245c36.05551,18.02776 59.08319,-37.95841 35,-50 -20,-10 -45,25 -20,35 14.13121,5.65248 20.13123,-28.64043 10,-20M105.15401,153.34515c33.41826,11.49182 60.15541,-41.41332 96.81198,-19.50492 34.60222,20.68059 -0.18311,70.22557 -23.29557,56.41202 -19.19386,-11.47152 -3.15612,-51.3813 18.72936,-35.69609 12.37072,8.86604 -13.29926,32.38318 -11.47153,19.19386M232.95311,158.42108C229.17241,137.65259 224.09273,117.96985 205,110c4.18475,-27.894153 1.42286,-52.338855 -15,-70 17.35593,-1.618739 34.46629,-1.969225 55,-20 27.97027,9.930681 52.53096,3.19865 77.42332,-1.912511M250.77788,130.15069C245.718,118.85641 239.78292,108.14559 230,100c1.50399,-14.348773 0.28739,-26.396155 -5,-35 8.49559,1.205789 21.77238,0.598963 35,-10 8.99052,6.92841 20.59602,8.626865 32.67114,9.386067M394.49527,46.885245c13.93365,-4.563036 26.21015,-13.092687 38.20341,-22.30031M387.56029,71.239882C402.28421,66.860204 415.12921,57.983089 427.6634,48.362015M380.89166,93.912874c15.63871,-5.458827 29.2156,-15.852853 42.7198,-26.420899M372.92166,119.95214c16.64085,-3.74772 30.81227,-13.40628 44.60061,-23.981835M365.91537,142.95812c17.68607,-4.80796 32.63024,-16.17901 47.47339,-27.79188M357.52708,168.44115c18.78494,-2.66017 34.35591,-13.01341 49.43568,-24.54239M349.33646,193.21091c19.367,-5.35306 37.9228,-20.22752 54.05489,-33.01174M340.81015,217.82594c20.31202,-4.33973 39.84656,-19.81957 56.76971,-33.2336M332.49528,241.19018c21.75349,-5.30906 42.55282,-23.03043 60.13045,-36.83542M324.41519,263.52088c21.96163,-8.65984 47.28758,-25.8287 63.01313,-37.79459M314.76803,288.9904c22.17792,-7.63776 48.95667,-25.45125 65.93641,-38.21062M304.75646,314.31031c22.09045,-6.18523 50.2661,-24.47055 68.66151,-38.07603M295.01573,337.98724c23.37907,-6.63165 53.47577,-26.68526 71.60333,-40.39701M284.23504,363.1207c22.64257,-4.32 53.99057,-24.47348 73.9688,-39.22817M273.57578,386.99243c23.43079,-4.18072 56.53916,-25.80123 76.56622,-40.79085M264.80269,405.87451c24.05713,-6.30788 56.52787,-20.97976 74.83945,-33.27671M252.97166,430.09242c24.15918,-6.00875 57.73196,-21.0619 76.53795,-33.65575M239.7916,455.58322c21.06407,-3.60661 53.83935,-17.13586 75.83202,-29.88639M226.99663,478.92807c22.27819,-4.35961 55.94045,-18.66256 77.11176,-31.5504M212.37932,503.85243c22.42737,-4.47677 56.12253,-18.84963 77.14663,-31.72975M199.12404,524.8008c26.14445,-6.72759 62.61496,-23.58819 79.84987,-36.51796M182.5621,548.94363c24.04441,-5.90412 57.63349,-20.91222 76.60911,-33.53114M163.80517,573.55779c19.15576,-4.08974 45.85146,-14.94308 66.05599,-25.88477M661.87727,194.54556c20.5265,78.55849 49.88913,167.38917 105.54344,285.03835M668.15348,113.28826C665.26389,149.95478 660,217.74474 660,225c0,15 -18.16405,142.53809 -35,155 -17.901,13.25025 -60.72692,84.76409 -70,90 -25.80557,14.57074 -68.6191,-14.67641 -75,-20 -40.5246,11.38791 -131.54175,-97.08126 -100,-115l-23.23325,-9.95711M655.86515,264.81789c19.06258,61.80681 45.05174,131.47702 84.19598,215.32649M646.26705,316.04882c16.7291,48.80885 37.96135,102.62519 66.07972,163.75114M735.42383,470H707.98047M728.56638,454.99999 701.29491,455M721.89649,440H694.60938M715.33787,424.99999 688.22851,425M708.97854,410.00001 681.98438,410M702.72071,395.00001 675.74024,395M696.69727,380H669.89063M690.74416,365.00001 664.0918,365M685.21875,350H658.39844M679.71875,335H653.03906M674.21876,320H647.67969M669.0215,305.00001 649.01478,305M663.856,290H651.06732M403.08147,403.56906C384.6593,385.28032 367.24505,364.97287 351.20283,341.91738M499.64727,480.08503C480.80013,467.68607 462.29504,454.60204 444.40521,440.2857M474.76437,480.08943C427.46465,447.6217 382.83087,409.81444 345.32226,357.73624M450.50059,480.06604C410.10721,450.97908 372.04422,417.22458 339.19452,373.02847M427.07509,480.15071C393.1775,454.4537 361.19997,424.911 332.91856,387.96542M404.06383,480.0123C376.3936,457.83518 350.20072,432.69912 326.49747,402.57659M382.14097,480.1872C360.12791,461.5259 339.17682,440.73761 319.82302,416.75013M360.49654,480.01977c-16.62548,-14.95952 -32.56655,-31.28983 -47.57973,-49.4786M339.91583,480.21924C328.14399,468.99017 316.7553,456.99369 305.84112,444.04682M319.53764,480.0131C312.35,472.72304 305.32161,465.114 298.47458,457.14172M299.98295,480.02743c-3.08763,-3.32614 -6.14273,-6.71744 -9.16344,-10.17763M373.4263,348.62739c-5.55891,-7.23324 -10.97587,-14.75078 -16.23747,-22.57951M525,480c-11.00706,-6.98712 -21.92423,-14.15428 -32.69848,-21.60769M400,550c-11.50755,0.0844 -22.75786,-3.17005 -33.79654,-9.17139M344.86631,547.81207C375.59577,568.64484 408.06132,559.82258 440,560c-4.36429,-9.30483 -15.99851,-15.11828 -55.82434,-27.24176M443.76497,531.70617c-11.50755,-0.0844 -22.75786,3.17005 -33.79654,9.17139M388.63128,533.8941c30.72946,-20.83277 63.19501,-12.01051 95.13369,-12.18793 -4.36429,9.30483 -15.99851,15.11828 -55.82434,27.24176M488.79654,549.17139C477.28899,549.25579 466.03868,546.00134 455,540M433.66285,546.98346c30.72946,20.83277 63.19501,12.01051 95.13369,12.18793 -4.36429,-9.30483 -15.99851,-15.11828 -55.82434,-27.24176M532.56151,530.87756c-11.50755,-0.0844 -22.75786,3.17005 -33.79654,9.17139M477.42782,533.06549c30.72946,-20.83277 63.19501,-12.01051 95.13369,-12.18793 -4.36429,9.30483 -15.99851,15.11828 -55.82434,27.24176M571.36872,551.1059c-11.50755,0.0844 -22.75786,-3.17005 -33.79654,-9.17139M516.23503,548.91797c30.72946,20.83277 63.19501,12.01051 95.13369,12.18793 -4.36429,-9.30483 -15.99851,-15.11828 -55.82434,-27.24176M615.13369,532.81207c-11.50755,-0.0844 -22.75786,3.17005 -33.79654,9.17139M560,535c30.72946,-20.83277 63.19501,-12.01051 95.13369,-12.18793 -4.36429,9.30483 -15.99851,15.11828 -55.82434,27.24176M660.16526,550.27729c-11.50755,0.0844 -22.75786,-3.17005 -33.79654,-9.17139M605.03157,548.08936c30.72946,20.83277 63.19501,12.01051 95.13369,12.18793 -4.36429,-9.30483 -15.99851,-15.11828 -55.82434,-27.24176M703.93023,531.98346c-11.50755,-0.0844 -22.75786,3.17005 -33.79654,9.17139M648.79654,534.17139c30.72946,-20.83277 63.19501,-12.01051 95.13369,-12.18793 -4.36429,9.30483 -15.99851,15.11828 -55.82434,27.24176M750.03157,549.12244c-11.50755,0.0844 -22.75786,-3.17005 -33.79654,-9.17139M694.89788,546.93451c30.72946,20.83277 63.19501,12.01051 95.13369,12.18793 -4.36429,-9.30483 -15.99851,-15.11828 -55.82434,-27.24176M793.79654,530.82861C782.28899,530.74421 771.03868,533.99866 760,540M738.66285,533.01654c24.74329,-16.7745 50.61215,-14.32236 76.42524,-12.82305M821.53048,532.18984c-8.33272,4.47301 -21.69899,9.22629 -43.55828,15.88053M309.99999,550c-11.50755,0.0844 -22.75786,-3.17005 -33.79654,-9.17139M254.8663,547.81207c30.72946,20.83277 63.19501,12.01051 95.13369,12.18793 -4.36429,-9.30483 -15.99851,-15.11828 -55.82434,-27.24176M353.76496,531.70617c-11.50755,-0.0844 -22.75786,3.17005 -33.79654,9.17139M298.63127,533.8941c30.72946,-20.83277 63.19501,-12.01051 95.13369,-12.18793 -4.36429,9.30483 -15.99851,15.11828 -55.82434,27.24176M256.89003,518.37721c16.29475,-0.5488 32.75391,1.7108 49.07548,1.62013 -4.36429,9.30483 -15.99851,15.11828 -55.82434,27.24176M265.96551,529.99734c-7.81305,-0.0573 -15.50752,1.42451 -23.09768,4.26018M218.57615,559.99729c14.50884,-0.0114 29.12094,-1.78669 43.62439,-1.70612 -2.95524,-6.30067 -9.24387,-11.00048 -25.36169,-17.14258M829.56345,548.28313c-7.88848,-1.31925 -15.65952,-4.16277 -23.32842,-8.33208M784.89788,546.93451c16.73389,11.3446 33.9826,13.89527 51.38071,13.8941M981.42736,1012.1588 930,1020c-2.19654,12.5369 1.91412,18.2109 5,25l50.34564,-16.2083M990.04602,1040.577l-46.35793,21.5748c1.12964,12.6776 6.57106,17.0916 11.31191,22.8482l43.32934,-29.8936M1006.6042,1065.3753l-38.48637,35.0208c5.78046,11.3395 12.47625,13.4032 19.0233,16.9739l31.67807,-40.5556M1034.2797,1086.7887l-23.0094,43.8892c9.3547,8.6306 16.3506,8.2438 23.7297,9.3221l15.4243,-46.379M1065.1247,1097.582 1055,1150c11.46,5.5378 18.0412,3.1337 25.415,2.0199l2.6268,-52.3279M1102.6799,1099.2815l5.6421,55.0945c12.5356,2.2042 18.2122,-1.9029 25.0032,-4.9846l-12.301,-53.5162M978.18975,982.09388l-50.63953,-7.46111C921.77418,985.97455 924.04044,992.60448 925,1000h55.23828M857.01423,966.16275a12.5,12.5 0 0 1 -13.4397,11.48366 12.5,12.5 0 0 1 -11.48366,-13.4397 12.5,12.5 0 0 1 13.4397,-11.48366 12.5,12.5 0 0 1 11.48366,13.4397v0M831.11285,976.66839c-26.09699,12.99797 -21.7937,-41.83342 1.95604,-24.92336 -12.99798,-26.09699 41.83342,-21.7937 24.92336,1.95604 26.09699,-12.99798 21.7937,41.83349 -1.95604,24.92336 12.99797,26.09707 -41.83342,21.79377 -24.92336,-1.95604v0M861.19189,1049.1128a12.5,12.5 0 0 1 -10.09379,14.5126 12.5,12.5 0 0 1 -14.51259,-10.0938 12.5,12.5 0 0 1 10.09379,-14.5126 12.5,12.5 0 0 1 14.51259,10.0938v0M838.79492,1065.8348c-21.95511,19.1826 -31.67648,-34.9514 -4.41881,-24.6064 -19.18264,-21.9551 34.95141,-31.6764 24.60637,-4.4188 21.95511,-19.1826 31.67648,34.9514 4.41881,24.6064 19.18264,21.9551 -34.95141,31.6764 -24.60637,4.4188v0M895.08052,1124.5892a12.5,12.5 0 0 1 -6.57293,16.4102 12.5,12.5 0 0 1 -16.41027,-6.573 12.5,12.5 0 0 1 6.57293,-16.4102 12.5,12.5 0 0 1 16.41027,6.573v0M877.01598,1145.918c-17.08079,23.6272 -38.7229,-26.9358 -9.83732,-22.9831 -23.62725,-17.0809 26.93579,-38.7229 22.9832,-9.8373 17.08079,-23.6272 38.7229,26.9358 9.83732,22.9831 23.62725,17.0809 -26.93579,38.7229 -22.9832,9.8373v0M950.48314,1180.3944a12.5,12.5 0 0 1 0.62058,17.6666 12.5,12.5 0 0 1 -17.66682,0.6206 12.5,12.5 0 0 1 -0.62058,-17.6666 12.5,12.5 0 0 1 17.66682,-0.6206v0M942.58061,1207.2047c-6.07371,28.5151 -46.30596,-8.9864 -18.28736,-17.0461 -28.51512,-6.0738 8.98649,-46.3059 17.04618,-18.2873 6.07371,-28.5151 46.30596,8.9864 18.28736,17.0461 28.51512,6.0738 -8.98649,46.3059 -17.04618,18.2873v0M1020,1214.6959a12.5,12.5 0 0 1 8.4134,15.547 12.5,12.5 0 0 1 -15.5471,8.4136 12.5,12.5 0 0 1 -8.4134,-15.547 12.5,12.5 0 0 1 15.5471,-8.4136v0M1024.8467,1242.2233c7.2427,28.2407 -45.47057,12.5469 -23.9606,-7.1335 -28.24085,7.2427 -12.54697,-45.4707 7.1335,-23.9607 -7.2427,-28.2407 45.4707,-12.5469 23.9606,7.1335 28.2409,-7.2428 12.5469,45.4707 -7.1335,23.9607v0M1107.5816,1224.7166a12.5,12.5 0 0 1 12.9085,12.0775 12.5,12.5 0 0 1 -12.0776,12.9087 12.5,12.5 0 0 1 -12.9085,-12.0775 12.5,12.5 0 0 1 12.0776,-12.9087v0M1120.9057,1249.2872c15.8228,24.4875 -39.1468,26.316 -24.9862,0.8312 -24.4876,15.8228 -26.316,-39.1468 -0.8311,-24.9862 -15.8229,-24.4875 39.1468,-26.316 24.9862,-0.8312 24.4876,-15.8228 26.3159,39.1468 0.8311,24.9862v0M1189.0113,1203.9362a12.5,12.5 0 0 1 16.3664,6.681 12.5,12.5 0 0 1 -6.6809,16.3666 12.5,12.5 0 0 1 -16.3664,-6.681 12.5,12.5 0 0 1 6.6809,-16.3666v0M1210.2207,1222.1409c23.5141,17.2361 -27.1904,38.5446 -23.0476,9.6858 -17.2362,23.5141 -38.5446,-27.1904 -9.6857,-23.0476 -23.5142,-17.2361 27.1904,-38.5446 23.0476,-9.6858 17.2362,-23.5141 38.5445,27.1905 9.6857,23.0476v0M1141.1758,1103.578 1160,1140c9.2047,-1.8746 13.6738,-5.5798 17.4703,-9.5451M642.95844,0.14240602C744.82604,342.33689 988.86975,461.55455 873.73438,619.91167M1090,605c-15,-90 70,-90 55,0 90,-15 90,70 0,55 15,90 -70,90 -55,0 -90,15 -90,-70 0,-55v0M1117.5,567.5c0,60 5,65 65,65 -60,0 -65,5 -65,65 0,-60 -5,-65 -65,-65 60,0 65,-5 65,-65v0M1130,632.5a12.5,12.5 0 0 1 -12.5,12.5 12.5,12.5 0 0 1 -12.5,-12.5 12.5,12.5 0 0 1 12.5,-12.5 12.5,12.5 0 0 1 12.5,12.5v0M1061.2823,603.63949C1057.7881,595.19012 1055,581.20103 1055,570c11.201,0 25.1901,2.78807 33.6395,6.28225M1146.3605,576.28225C1154.8099,572.78807 1168.799,570 1180,570c0,11.20103 -2.7881,25.19012 -6.2823,33.63949M1061.2823,661.36051C1057.7881,669.80988 1055,683.79897 1055,695c11.201,0 25.1901,-2.78807 33.6395,-6.28225M1146.3605,688.71775C1154.8099,692.21193 1168.799,695 1180,695c0,-11.20103 -2.7881,-25.19012 -6.2823,-33.63949M1080.7188,821.78347c1.01,-6.68637 3.4391,-15.94141 9.2812,-21.78347 10,-10 70,-40 80,-40 10,0 20,15 30,15 10,0 15,25 -5,25 -20,0 -35,-10 -35,-10 1.7416,21.62065 -12.8503,27.10394 -25,35M1153.1141,812.22896c4.683,23.139 1.3128,41.74292 -5.9466,58.15667M1200,805c75,-25 81.8472,11.93006 10,25 -54.9991,10.00505 -59.5227,-8.49242 -10,-25v0M1198.1996,831.71632c70.6358,-18.93063 77.5535,15.29192 8.5521,25.39 -52.8219,7.73027 -56.8037,-12.45839 -8.5521,-25.39v0M1199.2964,860.31125c71.8813,-9.68317 74.7144,25.17125 5.475,26.29953 -53.0039,0.86373 -54.5775,-19.68491 -5.475,-26.29953v0M1199.8966,775.22546c3.3162,-3.58714 7.7743,-7.17013 13.4058,-10.44447 45.029,-26.1812 52.1405,14.27733 7.5923,31.66559 -9.1445,3.56932 -16.1424,4.23351 -20.8944,2.94912M1185,765c-18.2067,-39.30607 35,-80 50,-125 8.4422,53.82479 13.5797,106.04943 -50,125v0M1185,765c17.8217,-26.38725 30.2366,-56.50346 45,-85M1125.8597,726.04064c13.2721,3.42482 26.2062,12.94148 39.1403,33.95936 -62.5321,6.43686 -112.5832,3.2717 -130,-25 25.7775,2.57775 48.897,-8.13407 70.729,-10.21088M1165,760c-24.0208,-10.25115 -51.5986,-16.77162 -85,-17.18391M666.51799,134.31629C647.63916,127.7536 630.73151,118.15368 616.42969,102.82227 597.24087,82.252048 582.22255,50.735859 575.1042,0.06124568M667.2849,123.98879C650.63574,117.89753 636.1367,109.2868 623.74219,96 606.4372,77.449229 592.21416,48.551291 585.21383,0.12048405M668.08396,113.62281C653.74644,108.05677 641.58078,100.46355 631.05469,89.179688 615.60971,72.622827 602.19619,46.310923 595.32889,0.17490977M662.52507,88.967327C656.22983,85.322588 650.73151,80.952614 645.67969,75.537109 633.87358,62.881076 622.1231,41.640008 615.57304,0.25498578M665.30962,101.62083C654.95654,96.853143 646.1727,90.724857 638.36719,82.357422 624.75603,67.766395 612.167,44.00903 605.44929,0.22085813M659.45114,74.771162c-2.26642,-1.843828 -4.40308,-3.852451 -6.45895,-6.056318C642.95915,57.959527 632.06545,39.195858 625.70343,0.27029128M511.87064,0.15549444C502.75924,53.100256 484.29999,93.966358 456.90274,123.33594c-16.30996,17.48412 -34.98933,29.93091 -54.08708,38.91237M501.7249,0.14488464C492.76497,50.874438 475.11449,89.151925 449.59024,116.51367c-13.33653,14.29664 -28.34179,25.03255 -43.92363,33.18505M491.57172,0.12234368C482.77783,48.600661 465.94933,84.317654 442.27774,109.69336c-10.32841,11.07195 -21.71388,19.87854 -33.64602,26.94069M481.41373,0.08113826C472.8015,46.272696 456.80671,79.45726 434.96524,102.8711c-7.22871,7.7491 -15.00591,14.31697 -23.16062,19.91052M423.17631,69.886044C434.98298,53.127828 444.58576,30.716835 450.84467,0.14281566M471.25091,0.01882955C462.83714,43.887699 447.68824,74.572929 427.65274,96.05078c-4.03872,4.32947 -8.2594,8.26476 -12.63438,11.8482M461.06104,0.0448775C452.60518,42.780925 437.68501,71.417254 418.62701,91.028292M655.23674,55.686328C648.14799,45.764246 640.75659,29.539631 635.81561,0.1413185M401.71209,21.586924C414.79536,16.883085 426.44492,8.747495 437.83885,0M420,180c37.87027,-22.79789 75.44691,-48.04956 120,-15v5c-60,-35 -70,-10 -120,10v0M590,170l-0.003,5.47231C610,155 635.34432,158.68595 660,165c-37.17139,-18.90386 -54.46613,-8.26071 -70,5v0M590,170c0,0 -5,15 -5,45 0,25 20,85 20,95 0,13.0316 -12.27699,22.12343 -20,20 -4.82109,-1.32555 -20,20 -20,20M535,295c-10,0 -30,35 -5,35 40,-15 60,-5 0,0M505,365l-5,10 10,-5 -5,-5v0M600,365l-5,10 -5,-5 10,-5v0M510,370c10,0 20,-5 30,-5 10,0 15,5 20,5 5,0 10,-5 15,-5 5,0 10,5 15,5M530,395c13.51049,3.75389 21.86548,20.50077 45,0M530,195c-52.19659,-18.0824 -74.35954,28.53125 -100,30 40,0 35.05384,8.73029 50,10 38.30364,3.25399 50.90808,-26.42651 42.66785,-42.34242M660,200c-35,-30 -55,20 -75,15 29.23919,6.59168 50,30 75,-5M1162.6727,755.56315c-4.9463,-21.88339 -9.234,-43.76126 -16.5837,-63.76081M1185,765c-6.2271,-23.87671 -10.324,-48.41835 -17.2325,-71.13757M1205.8484,886.95342c-6.1481,4.44126 -17.9535,6.43119 -27.2982,7.32279M582.35937,664.99999l56.46682,2e-5M587.83202,699.99997l55.96093,-10e-6M597.33202,734.99998l54.64647,-1e-5M611.74023,769.99999h51.08984M630.27343,804.99999l43.85155,-2e-5M649.18161,839.99997l34.96097,4e-5M663.68554,875h27.43164M671.88282,910.00001l23.13083,-3e-5M584.55078,682.5h54.27539c9.76178,0.13806 17.74924,-7.73725 17.74924,-17.5 0,-9.76275 -7.98746,-17.63806 -17.74924,-17.5h-56.46679M592.02538,717.49998l51.76759,2e-5c9.76178,0.13806 17.74924,-7.73725 17.74924,-17.5 0,-9.76275 -7.98746,-17.63806 -17.74924,-17.5h-55.96094M603.89845,752.50001l48.08007,-10e-6c9.76178,0.13806 17.74924,-7.73725 17.74924,-17.5 0,-9.76275 -7.98746,-17.63806 -17.74924,-17.5h-54.64649M620.68165,787.50001l42.14843,-10e-6c9.76178,0.13806 17.74924,-7.73725 17.74924,-17.5 0,-9.76275 -7.98746,-17.63806 -17.74924,-17.5h-51.08985M639.98634,822.50001 674.125,822.5c9.76178,0.13806 17.74924,-7.73725 17.74924,-17.5 0,-9.76275 -7.98746,-17.63806 -17.74924,-17.5h-43.85156M657.18749,857.49999l26.95509,10e-6c9.76178,0.13806 17.74924,-7.73725 17.74924,-17.5 0,-9.76275 -7.98746,-17.63806 -17.74924,-17.5h-34.96094M668.55468,892.49999l22.56251,10e-6c9.76178,0.13806 17.74924,-7.73725 17.74924,-17.5 0,-9.76275 -7.98746,-17.63806 -17.74924,-17.5h-27.43164M674.11134,927.50001l20.90233,-10e-6c9.76178,0.13806 17.74924,-7.73725 17.74924,-17.5 0,-9.76275 -7.98746,-17.63806 -17.74924,-17.5h-23.13086M467.5996,664.99999l75.16015,-10e-6M477.54099,699.99996l71.76955,2e-5M495.43555,735h65.54102M521.16211,770h56.8418M551.42383,805.00001 599.33789,805M579.85742,840.00001 620.76952,840M601.25,875h35.86718M613.79491,910h32.81055M541.00782,647.50001 467.59961,647.5c-9.76178,-0.13806 -17.74924,7.73725 -17.74924,17.5 0,9.76275 7.98746,17.63806 17.74924,17.5h75.16016M545.44922,682.5h-67.9082c-9.76178,-0.13806 -17.74924,7.73725 -17.74924,17.5 0,9.76275 7.98746,17.63806 17.74924,17.5h71.76953M554.58397,717.49999l-59.14842,10e-6c-9.76178,-0.13806 -17.74924,7.73725 -17.74924,17.5 0,9.76275 7.98746,17.63806 17.74924,17.5h65.54101M568.79299,752.50002l-47.63088,-2e-5c-9.76178,-0.13806 -17.74924,7.73725 -17.74924,17.5 0,9.76275 7.98746,17.63806 17.74924,17.5h56.8418M588.3672,787.50001 551.42383,787.5c-9.76178,-0.13806 -17.74924,7.73725 -17.74924,17.5 0,9.76275 7.98746,17.63806 17.74924,17.5h47.91406M610.39064,822.50002l-30.53322,-2e-5c-9.76178,-0.13806 -17.74924,7.73725 -17.74924,17.5 0,9.76275 7.98746,17.63806 17.74924,17.5h40.91211M629.78905,857.49999 601.25,857.5c-9.76178,-0.13806 -17.74924,7.73725 -17.74924,17.5 0,9.76275 7.98746,17.63806 17.74924,17.5h35.86719M642.63283,892.50002l-28.83791,-2e-5c-9.76178,-0.13806 -17.74924,7.73725 -17.74924,17.5 0,9.76275 7.98746,17.63806 17.74924,17.5h32.81055"
       fill="none"
       stroke-width="6"
       stroke-linejoin="round"
       stroke-linecap="round"
       stroke="#44F" />
  </symbol>
  <symbol
     viewBox="0 0 1300 2000"
     preserveAspectRatio="none"
     id="CQ6">
    <path
       id="path26"
       d="M1184.4736,767.20394c0.3509,15.4152 12.0418,16.45132 23.9065,17.26701M1181.4514,811.74164c3.6242,9.31769 6.2464,17.20598 2.0451,21.08607M1180.7986,836.88817c3.6242,9.31769 6.2464,17.20598 2.0451,21.08607M1180.7986,864.63037c3.6242,9.31769 6.2464,17.20598 2.0451,21.08607M1213.7173,810.27588c1.8738,2.94828 2.8329,6.14216 2.5931,9.65794M1220,837.40497c1.4567,3.17515 1.9738,6.4696 1.2594,9.92038M1218.4885,868.18549c1.4826,3.1631 2.0267,6.4532 1.3407,9.90972M1220,775c1.8738,2.94828 2.8329,6.14216 2.5931,9.65794M435,205c29.85384,-29.75984 89.91544,-20.21994 87.7664,-12.14944M480,250c21.57504,13.39089 40,-25 45,-40M590,215c17.56125,-51.28024 55,-40 60,-25M507.38903,190.37282C512.02489,194.95132 515,202.04136 515,210c0,13.80712 -8.95431,25 -20,25 -11.04569,0 -20,-11.19288 -20,-25 0,-4.32854 0.88005,-8.40015 2.4287,-11.95051M653.48582,195.44065C654.46154,198.38556 655,201.61418 655,205c0,13.80712 -8.95431,25 -20,25 -11.04569,0 -20,-11.19288 -20,-25 0,-2.24818 0.2374,-4.42706 0.68259,-6.49959"
       fill="none"
       stroke-width="3"
       stroke-linejoin="round"
       stroke-linecap="round"
       stroke="#44F" />
    <use
       id="use28"
       transform="translate(1017,901)scale(1,0.738)rotate(-45)translate(-45,-45)"
       height="90"
       xlink:href="#SCQ" />
    <use
       id="use30"
       transform="translate(1125,978)scale(1,0.738)rotate(-45)translate(-45,-45)"
       height="90"
       xlink:href="#SCQ" />
    <use
       id="use32"
       transform="translate(1229,1060)scale(1,0.738)rotate(-45)translate(-45,-45)"
       height="90"
       xlink:href="#SCQ" />
  </symbol>
  <rect
     id="rect35"
     stroke="black"
     fill="white"
     ry="12"
     rx="12"
     y="-164"
     x="-105.5"
     height="328"
     width="211" />
  <g
     transform="matrix(2.1926689,0,0,2.1874975,-3187.8958,-769.66734)"
     id="cardQC">
    <path
       style="fill:#ff0000;stroke:none"
       d="m 1469.9741,326.36038 c 0,0 -9.7532,8.22926 -8.8388,15.84894 0.9143,7.61969 -0.9144,35.35534 -0.9144,35.35534 l -12.8011,-17.67767 5.4862,-35.05055 z"
       id="path16743"
       inkscape:connector-curvature="0" />
    <path
       inkscape:connector-curvature="0"
       id="path16745"
       d="m 1437.6651,377.52448 c 0,0 9.7532,-8.2292 8.8389,-15.8489 -0.9144,-7.6197 0.9143,-35.3554 0.9143,-35.3554 l 12.8011,17.6777 -5.4862,35.0506 z"
       style="fill:#ff0000;stroke:none" />
    <path
       style="stroke:#000000;stroke-width:2.66051"
       d="m 1441.4384,348.71631 h 29.5243 v 6.23949 h -29.5243 z"
       id="rect16749"
       inkscape:connector-curvature="0" />
    <path
       id="path16753"
       d="m 1433.6981,322.78606 9.2,-30.9 16.2,19 c 0,0 -14.3,11.9 -19.9,11.9 -5.6,0 -5.5,0 -5.5,0 z"
       inkscape:connector-curvature="0"
       style="stroke:#000000" />
    <path
       style="fill:#ed1c24"
       inkscape:connector-curvature="0"
       d="m 1433.4981,322.18606 c -1.4,-0.4 -1.9,-1.6 -2.1,-2.6 -0.5,-2.5 0.9,-6.4 3.7,-8.3 3.9,-2.7 6.6,-16.8 7.3,-21.1 6.6,10.5 -7,29.6 -8.9,32 z"
       id="path16757" />
    <path
       style="fill:#ed1c24"
       inkscape:connector-curvature="0"
       d="m 1442.6981,291.68606 c 4.6,10.1 -6.9,26.7 -9.3,29.9 -0.8,-0.4 -1.3,-1 -1.5,-2.1 -0.5,-2.3 0.8,-6 3.5,-7.8 3.7,-2.5 6.3,-14.5 7.3,-20 m -0.6,-2.8 c 0,0 -2.9,19 -7.3,22 -4.4,3 -5.7,10.9 -1.1,11.9 0,0 17.5,-22.5 8.4,-33.9 z"
       id="path16759" />
    <path
       id="path16765"
       d="m 1442.5981,290.68606 c 0,0 0.6,7 0,8.5 -2.9,7.3 7.8,29.3 21.5,6.4"
       inkscape:connector-curvature="0"
       style="fill:#ffffff;stroke:#000000" />
    <path
       id="path16767"
       d="m 1447.2981,288.18606 c 2.7,5.3 6.8,11.9 9.6,11.2"
       inkscape:connector-curvature="0"
       style="fill:#ffffff;stroke:#000000" />
    <path
       id="path16769"
       d="m 1450.0981,288.98606 c 2.7,5 6.4,10.8 9,10.2"
       inkscape:connector-curvature="0"
       style="fill:#ffffff;stroke:#000000" />
    <path
       id="path16771"
       d="m 1452.9981,289.28606 c 2.7,5.2 6.6,11.3 9.3,10.6"
       inkscape:connector-curvature="0"
       style="fill:#ffffff;stroke:#000000" />
    <path
       id="path16773"
       d="m 1454.9981,288.78606 c 2.7,5.2 6.7,11.7 9.4,11"
       inkscape:connector-curvature="0"
       style="fill:#ffffff;stroke:#000000" />
    <path
       id="path16775"
       d="m 1465.6981,297.48606 c -0.8,-4 5.5,1 0.2,1.7 -3.2,0.4 -6.6,-5.5 -8.7,-10.2"
       inkscape:connector-curvature="0"
       style="fill:#ffffff;stroke:#000000" />
    <path
       id="path16777"
       d="m 1459.5981,289.08606 c 1.8,3.9 4.3,8.6 6.1,8.4"
       inkscape:connector-curvature="0"
       style="fill:#ffffff;stroke:#000000" />
    <path
       inkscape:connector-curvature="0"
       id="circle16779"
       d="m 1448.1981,303.18607 c 0,0.55228 -0.4478,1 -1,1 -0.5523,0 -1,-0.44772 -1,-1 0,-0.55229 0.4477,-1 1,-1 0.5522,0 1,0.44771 1,1 z"
       style="stroke:#000000;stroke-linecap:round" />
    <path
       inkscape:connector-curvature="0"
       id="circle16781"
       d="m 1455.3981,303.18607 c 0,0.55228 -0.4477,1 -1,1 -0.5523,0 -1,-0.44772 -1,-1 0,-0.55229 0.4477,-1 1,-1 0.5523,0 1,0.44771 1,1 z"
       style="stroke:#000000;stroke-linecap:round" />
    <path
       id="path16783"
       d="m 1447.1981,288.88606 c 0,0 0.6,6.3 -4.6,7.9 -0.5,0.2 1.5,0.2 1,0.5 -3.1,1.9 8.3,-2.7 5.6,-8.1"
       inkscape:connector-curvature="0"
       style="fill:#ffffff;stroke:#000000" />
    <path
       id="path16785"
       d="m 1444.7981,289.98606 c 0,0 0.3,4.3 -2.8,6.4 -0.4,0.3 -0.2,0.9 -0.6,1.2 -1,0.6 -0.4,0.5 0.7,-0.1 2.1,-1.1 6.2,-4.1 4.6,-7.3"
       inkscape:connector-curvature="0"
       style="fill:#ffffff;stroke:#000000" />
    <path
       id="path16787"
       d="m 1443.1981,288.58606 c 0,0 0.2,3.1 -1.6,5.3 -0.6,0.8 -1.6,2.6 0.1,1.4 2.1,-1.4 4.6,-3.9 3.3,-6.4"
       inkscape:connector-curvature="0"
       style="fill:#ffffff;stroke:#000000" />
    <path
       style="fill:#ffffff;stroke:#ffffff"
       d="m 1440.8981,285.48605 h 22.5 v 3.6 h -22.5 z"
       id="rect16789"
       inkscape:connector-curvature="0" />
    <path
       id="path16791"
       d="m 1467.0981,308.08606 -12.4,-19.4 h 17.3 c 0,0 -4.5,11.2 5.1,14.4 0,0 -11.2,-5.4 -10,5 z"
       inkscape:connector-curvature="0"
       style="fill:#fff200;stroke:#000000" />
    <path
       inkscape:connector-curvature="0"
       d="m 1461.4981,296.68606 -2.3,-3.4 0.2,-0.1 c 0.4,0.4 0.7,0.6 0.9,0.7 0.3,0.1 0.6,0.2 1,0.1 0.4,0 0.7,-0.2 1,-0.4 0,0 0.1,-0.1 0.2,-0.1 -0.4,0.1 -0.8,0 -1.1,-0.1 -0.3,-0.1 -0.6,-0.3 -0.7,-0.6 -0.2,-0.3 -0.3,-0.7 -0.2,-1 0.1,-0.4 0.3,-0.7 0.6,-0.9 0.3,-0.2 0.6,-0.3 1,-0.2 0.3,0.1 0.6,0.2 0.8,0.5 0.1,0.2 0.2,0.4 0.2,0.8 0.1,-0.2 0.2,-0.4 0.3,-0.5 0.1,-0.1 0.2,-0.2 0.3,-0.3 0.3,-0.2 0.6,-0.3 1,-0.2 0.4,0.1 0.6,0.3 0.9,0.6 0.2,0.3 0.3,0.7 0.2,1 -0.1,0.4 -0.2,0.6 -0.5,0.8 -0.2,0.2 -0.6,0.2 -0.9,0.2 0.3,0.2 0.4,0.2 0.5,0.3 0.1,0.1 0.1,0.1 0.2,0.2 0.2,0.3 0.2,0.6 0.2,0.9 -0.1,0.3 -0.3,0.6 -0.6,0.8 -0.3,0.2 -0.7,0.3 -1,0.2 -0.4,-0.1 -0.7,-0.3 -0.9,-0.6 -0.1,-0.2 -0.2,-0.4 -0.2,-0.6 0,-0.2 0,-0.5 0,-0.7 0,-0.2 0.1,-0.4 0.3,-0.7 -0.4,0.3 -0.7,0.6 -0.9,0.9 -0.2,0.3 -0.3,0.6 -0.2,1 0,0.2 0.1,0.6 0.3,1.1 z"
       id="path16795" />
    <path
       inkscape:connector-curvature="0"
       d="m 1465.1981,302.08606 -2.3,-3.4 0.2,-0.1 c 0.4,0.4 0.7,0.6 0.9,0.7 0.3,0.1 0.6,0.2 1,0.1 0.4,0 0.7,-0.2 1,-0.4 0,0 0.1,-0.1 0.2,-0.1 -0.4,0.1 -0.8,0 -1.1,-0.1 -0.3,-0.1 -0.6,-0.3 -0.7,-0.6 -0.2,-0.3 -0.3,-0.7 -0.2,-1 0.1,-0.4 0.3,-0.7 0.6,-0.9 0.3,-0.2 0.6,-0.3 1,-0.2 0.3,0.1 0.6,0.2 0.8,0.5 0.1,0.2 0.2,0.4 0.2,0.8 0.1,-0.2 0.2,-0.4 0.3,-0.5 0.1,-0.1 0.2,-0.2 0.3,-0.3 0.3,-0.2 0.6,-0.3 1,-0.2 0.4,0.1 0.6,0.3 0.9,0.6 0.2,0.3 0.3,0.7 0.2,1 -0.1,0.4 -0.2,0.6 -0.5,0.8 -0.2,0.2 -0.6,0.2 -0.9,0.2 0.3,0.2 0.4,0.3 0.5,0.3 0.1,0.1 0.1,0.1 0.2,0.2 0.2,0.3 0.2,0.6 0.2,0.9 -0.1,0.3 -0.3,0.6 -0.6,0.8 -0.3,0.2 -0.7,0.3 -1,0.2 -0.4,-0.1 -0.7,-0.3 -0.9,-0.6 -0.1,-0.2 -0.2,-0.4 -0.2,-0.6 0,-0.2 0,-0.5 0,-0.7 0,-0.2 0.1,-0.4 0.3,-0.7 -0.4,0.3 -0.7,0.6 -0.9,0.9 -0.2,0.3 -0.3,0.6 -0.2,1 0,0.2 0.1,0.6 0.3,1.1 z"
       id="path16797" />
    <path
       id="path16799"
       d="m 1448.313,320.78127 c 0,0 -18.1,39 -12.7,45.4 0,0 7.9,-3.4 10.5,-2.3 5,2.3 5.7,-40 9.6,-43.9 4.1,-4 -7.4,0.8 -7.4,0.8 z"
       inkscape:connector-curvature="0"
       style="stroke:#000000" />
    <path
       style="fill:none;stroke:#fff200;stroke-width:12"
       d="m 1439.9981,320.38605 h 30"
       id="line16803"
       inkscape:connector-curvature="0" />
    <path
       style="color:#000000;font-style:normal;font-variant:normal;font-weight:normal;font-stretch:normal;font-size:medium;line-height:normal;font-family:Sans;-inkscape-font-specification:Sans;text-indent:0;text-align:start;text-decoration:none;text-decoration-line:none;letter-spacing:normal;word-spacing:normal;text-transform:none;writing-mode:lr-tb;direction:ltr;baseline-shift:baseline;text-anchor:start;display:inline;overflow:visible;visibility:visible;fill:#000000;fill-opacity:1;fill-rule:nonzero;stroke:none;stroke-width:6;marker:none;enable-background:accumulate"
       d="m 1440,320.28125 h 4 v -6 h -4 z m 8,0 h 4 v -6 h -4 z m 8,0 h 4 v -6 h -4 z m 8,0 h 4 v -6 h -4 z"
       id="line16805"
       inkscape:connector-curvature="0" />
    <path
       style="color:#000000;font-style:normal;font-variant:normal;font-weight:normal;font-stretch:normal;font-size:medium;line-height:normal;font-family:Sans;-inkscape-font-specification:Sans;text-indent:0;text-align:start;text-decoration:none;text-decoration-line:none;letter-spacing:normal;word-spacing:normal;text-transform:none;writing-mode:lr-tb;direction:ltr;baseline-shift:baseline;text-anchor:start;display:inline;overflow:visible;visibility:visible;fill:#000000;fill-opacity:1;fill-rule:nonzero;stroke:none;stroke-width:6;marker:none;enable-background:accumulate"
       d="m 1444,325.875 h 4 v -6 h -4 z m 8,0 h 4 v -6 h -4 z m 8,0 h 4 v -6 h -4 z m 8,0 h 2 v -6 h -2 z"
       id="line16807"
       inkscape:connector-curvature="0" />
    <path
       inkscape:connector-curvature="0"
       id="line16809"
       d="m 1452.9981,289.28607 25.1,34.5"
       style="fill:none;stroke:#000000;stroke-width:3" />
    <path
       inkscape:connector-curvature="0"
       id="ellipse16815"
       d="m 1433.4184,350.60569 c -0.1123,-2.37221 2.1223,-4.40531 4.991,-4.54106 2.8688,-0.13575 5.2853,1.67727 5.3975,4.04948 0.1123,2.37221 -2.1222,4.40531 -4.991,4.54106 -2.8687,0.13575 -5.2853,-1.67726 -5.3975,-4.04948 z"
       style="fill:#ffffff;stroke:#000000;stroke-width:1.00002;stroke-linecap:round" />
    <path
       style="fill:#ffffff;stroke:#000000;stroke-linecap:round"
       inkscape:connector-curvature="0"
       d="m 1440.0518,350.99935 c 1,1.4 2.8,1.9 4,1 1.2,-0.9 0,-8 -3.8,-5.1 -1.1,0.8 -1.2,2.7 -0.2,4.1 z"
       id="path16817" />
    <path
       style="fill:#ffffff;stroke:#000000;stroke-linecap:round"
       inkscape:connector-curvature="0"
       d="m 1442.4518,346.39935 -5.6,-1.7 c 0,0 -2.2,2.9 4.8,4.4"
       id="path16819" />
    <path
       id="path16823"
       d="m 1433.8518,347.29935 c 0,0 2.5,-3.2 4.2,-0.5 l -3,2.2"
       inkscape:connector-curvature="0"
       style="fill:#ffffff;stroke:#000000;stroke-linecap:round" />
    <path
       id="path16825"
       d="m 1434.8518,348.59935 c 0,0 2.5,-3.2 4.2,-0.5 l -3,2.2"
       inkscape:connector-curvature="0"
       style="fill:#ffffff;stroke:#000000;stroke-linecap:round" />
    <path
       id="path16827"
       d="m 1435.8518,349.99935 c 0,0 2.5,-3.2 4.2,-0.5 l -3,2.2"
       inkscape:connector-curvature="0"
       style="fill:#ffffff;stroke:#000000;stroke-linecap:round" />
    <path
       id="path16829"
       d="m 1436.9518,351.49935 c 0,0 2.5,-3.2 4.2,-0.5 l -3,2.2"
       inkscape:connector-curvature="0"
       style="fill:#ffffff;stroke:#000000;stroke-linecap:round" />
    <path
       style="stroke:#000000;stroke-linecap:round"
       d="m 1436.1518,341.69935 1.3,3.7 -3.8,-0.9 -3.6,1.4 0.8,-3.8 -1.3,-3.7 3.8,0.9 3.6,-1.4 z"
       id="polygon16831"
       inkscape:connector-curvature="0" />
    <path
       id="path16833"
       d="m 1433.4518,338.29935 c 5,0 1.3,2.4 1.3,2.4 0,0 2.4,-3.7 2.4,1.3 0,5 -2.4,1.3 -2.4,1.3 0,0 3.7,2.4 -1.3,2.4 -5,0 -1.3,-2.4 -1.3,-2.4 0,0 -2.4,3.7 -2.4,-1.3 0,-5 2.4,-1.3 2.4,-1.3 0,0 -3.7,-2.4 1.3,-2.4 z"
       inkscape:connector-curvature="0"
       style="fill:#fff200;stroke:#000000;stroke-linecap:round" />
    <path
       style="stroke:#000000"
       inkscape:connector-curvature="0"
       d="m 1474.0786,380.9106 -9.2,30.9 -16.2,-19 c 0,0 14.3,-11.9 19.9,-11.9 5.6,0 5.5,0 5.5,0 z"
       id="path16839" />
    <path
       id="path16843"
       d="m 1474.2786,381.5106 c 1.4,0.4 1.9,1.6 2.1,2.6 0.5,2.5 -0.9,6.4 -3.7,8.3 -3.9,2.7 -6.6,16.8 -7.3,21.1 -6.6,-10.5 7,-29.6 8.9,-32 z"
       inkscape:connector-curvature="0"
       style="fill:#ed1c24" />
    <path
       id="path16845"
       d="m 1465.0786,412.0106 c -4.6,-10.1 6.9,-26.7 9.3,-29.9 0.8,0.4 1.3,1 1.5,2.1 0.5,2.3 -0.8,6 -3.5,7.8 -3.7,2.5 -6.3,14.5 -7.3,20 m 0.6,2.8 c 0,0 2.9,-19 7.3,-22 4.4,-3 5.7,-10.9 1.1,-11.9 0,0 -17.5,22.5 -8.4,33.9 z"
       inkscape:connector-curvature="0"
       style="fill:#ed1c24" />
    <path
       style="fill:#ffffff;stroke:#000000"
       inkscape:connector-curvature="0"
       d="m 1465.1786,413.0106 c 0,0 -0.6,-7 0,-8.5 2.9,-7.3 -7.8,-29.3 -21.5,-6.4"
       id="path16851" />
    <path
       style="fill:#ffffff;stroke:#000000"
       inkscape:connector-curvature="0"
       d="m 1460.4786,415.5106 c -2.7,-5.3 -6.8,-11.9 -9.6,-11.2"
       id="path16853" />
    <path
       style="fill:#ffffff;stroke:#000000"
       inkscape:connector-curvature="0"
       d="m 1457.6786,414.7106 c -2.7,-5 -6.4,-10.8 -9,-10.2"
       id="path16855" />
    <path
       style="fill:#ffffff;stroke:#000000"
       inkscape:connector-curvature="0"
       d="m 1454.7786,414.4106 c -2.7,-5.2 -6.6,-11.3 -9.3,-10.6"
       id="path16857" />
    <path
       style="fill:#ffffff;stroke:#000000"
       inkscape:connector-curvature="0"
       d="m 1452.7786,414.9106 c -2.7,-5.2 -6.7,-11.7 -9.4,-11"
       id="path16859" />
    <path
       style="fill:#ffffff;stroke:#000000"
       inkscape:connector-curvature="0"
       d="m 1442.0786,406.2106 c 0.8,4 -5.5,-1 -0.2,-1.7 3.2,-0.4 6.6,5.5 8.7,10.2"
       id="path16861" />
    <path
       style="fill:#ffffff;stroke:#000000"
       inkscape:connector-curvature="0"
       d="m 1448.1786,414.6106 c -1.8,-3.9 -4.3,-8.6 -6.1,-8.4"
       id="path16863" />
    <path
       inkscape:connector-curvature="0"
       id="circle16865"
       d="m 1459.5786,400.51059 c 0,-0.55228 0.4478,-1 1,-1 0.5523,0 1,0.44772 1,1 0,0.55229 -0.4477,1 -1,1 -0.5522,0 -1,-0.44771 -1,-1 z"
       style="stroke:#000000;stroke-linecap:round" />
    <path
       inkscape:connector-curvature="0"
       id="circle16867"
       d="m 1452.3786,400.51059 c 0,-0.55228 0.4477,-1 1,-1 0.5523,0 1,0.44772 1,1 0,0.55229 -0.4477,1 -1,1 -0.5523,0 -1,-0.44771 -1,-1 z"
       style="stroke:#000000;stroke-linecap:round" />
    <path
       style="fill:#ffffff;stroke:#000000"
       inkscape:connector-curvature="0"
       d="m 1460.5786,414.8106 c 0,0 -0.6,-6.3 4.6,-7.9 0.5,-0.2 -1.5,-0.2 -1,-0.5 3.1,-1.9 -8.3,2.7 -5.6,8.1"
       id="path16869" />
    <path
       style="fill:#ffffff;stroke:#000000"
       inkscape:connector-curvature="0"
       d="m 1462.9786,413.7106 c 0,0 -0.3,-4.3 2.8,-6.4 0.4,-0.3 0.2,-0.9 0.6,-1.2 1,-0.6 0.4,-0.5 -0.7,0.1 -2.1,1.1 -6.2,4.1 -4.6,7.3"
       id="path16871" />
    <path
       style="fill:#ffffff;stroke:#000000"
       inkscape:connector-curvature="0"
       d="m 1464.5786,415.1106 c 0,0 -0.2,-3.1 1.6,-5.3 0.6,-0.8 1.6,-2.6 -0.1,-1.4 -2.1,1.4 -4.6,3.9 -3.3,6.4"
       id="path16873" />
    <path
       style="fill:#ffffff;stroke:#ffffff"
       d="m 1466.8786,418.21061 h -22.5 v -3.6 h 22.5 z"
       id="rect16875"
       inkscape:connector-curvature="0" />
    <path
       style="fill:#fff200;stroke:#000000"
       inkscape:connector-curvature="0"
       d="m 1440.6786,395.6106 12.4,19.4 h -17.3 c 0,0 4.5,-11.2 -5.1,-14.4 0,0 11.2,5.4 10,-5 z"
       id="path16877" />
    <path
       id="path16881"
       d="m 1446.2786,407.0106 2.3,3.4 -0.2,0.1 c -0.4,-0.4 -0.7,-0.6 -0.9,-0.7 -0.3,-0.1 -0.6,-0.2 -1,-0.1 -0.4,0 -0.7,0.2 -1,0.4 0,0 -0.1,0.1 -0.2,0.1 0.4,-0.1 0.8,0 1.1,0.1 0.3,0.1 0.6,0.3 0.7,0.6 0.2,0.3 0.3,0.7 0.2,1 -0.1,0.4 -0.3,0.7 -0.6,0.9 -0.3,0.2 -0.6,0.3 -1,0.2 -0.3,-0.1 -0.6,-0.2 -0.8,-0.5 -0.1,-0.2 -0.2,-0.4 -0.2,-0.8 -0.1,0.2 -0.2,0.4 -0.3,0.5 -0.1,0.1 -0.2,0.2 -0.3,0.3 -0.3,0.2 -0.6,0.3 -1,0.2 -0.4,-0.1 -0.6,-0.3 -0.9,-0.6 -0.2,-0.3 -0.3,-0.7 -0.2,-1 0.1,-0.4 0.2,-0.6 0.5,-0.8 0.2,-0.2 0.6,-0.2 0.9,-0.2 -0.3,-0.2 -0.4,-0.2 -0.5,-0.3 -0.1,-0.1 -0.1,-0.1 -0.2,-0.2 -0.2,-0.3 -0.2,-0.6 -0.2,-0.9 0.1,-0.3 0.3,-0.6 0.6,-0.8 0.3,-0.2 0.7,-0.3 1,-0.2 0.4,0.1 0.7,0.3 0.9,0.6 0.1,0.2 0.2,0.4 0.2,0.6 0,0.2 0,0.5 0,0.7 0,0.2 -0.1,0.4 -0.3,0.7 0.4,-0.3 0.7,-0.6 0.9,-0.9 0.2,-0.3 0.3,-0.6 0.2,-1 0,-0.2 -0.1,-0.6 -0.3,-1.1 z"
       inkscape:connector-curvature="0" />
    <path
       id="path16883"
       d="m 1442.5786,401.6106 2.3,3.4 -0.2,0.1 c -0.4,-0.4 -0.7,-0.6 -0.9,-0.7 -0.3,-0.1 -0.6,-0.2 -1,-0.1 -0.4,0 -0.7,0.2 -1,0.4 0,0 -0.1,0.1 -0.2,0.1 0.4,-0.1 0.8,0 1.1,0.1 0.3,0.1 0.6,0.3 0.7,0.6 0.2,0.3 0.3,0.7 0.2,1 -0.1,0.4 -0.3,0.7 -0.6,0.9 -0.3,0.2 -0.6,0.3 -1,0.2 -0.3,-0.1 -0.6,-0.2 -0.8,-0.5 -0.1,-0.2 -0.2,-0.4 -0.2,-0.8 -0.1,0.2 -0.2,0.4 -0.3,0.5 -0.1,0.1 -0.2,0.2 -0.3,0.3 -0.3,0.2 -0.6,0.3 -1,0.2 -0.4,-0.1 -0.6,-0.3 -0.9,-0.6 -0.2,-0.3 -0.3,-0.7 -0.2,-1 0.1,-0.4 0.2,-0.6 0.5,-0.8 0.2,-0.2 0.6,-0.2 0.9,-0.2 -0.3,-0.2 -0.4,-0.3 -0.5,-0.3 -0.1,-0.1 -0.1,-0.1 -0.2,-0.2 -0.2,-0.3 -0.2,-0.6 -0.2,-0.9 0.1,-0.3 0.3,-0.6 0.6,-0.8 0.3,-0.2 0.7,-0.3 1,-0.2 0.4,0.1 0.7,0.3 0.9,0.6 0.1,0.2 0.2,0.4 0.2,0.6 0,0.2 0,0.5 0,0.7 0,0.2 -0.1,0.4 -0.3,0.7 0.4,-0.3 0.7,-0.6 0.9,-0.9 0.2,-0.3 0.3,-0.6 0.2,-1 0,-0.2 -0.1,-0.6 -0.3,-1.1 z"
       inkscape:connector-curvature="0" />
    <path
       style="stroke:#000000"
       inkscape:connector-curvature="0"
       d="m 1459.4637,382.91539 c 0,0 18.1,-39 12.7,-45.4 0,0 -7.9,3.4 -10.5,2.3 -5,-2.3 -5.7,40 -9.6,43.9 -4.1,4 7.4,-0.8 7.4,-0.8 z"
       id="path16885" />
    <path
       style="fill:none;stroke:#fff200;stroke-width:12"
       d="m 1467.7786,383.31061 h -30"
       id="line16889"
       inkscape:connector-curvature="0" />
    <path
       style="color:#000000;font-style:normal;font-variant:normal;font-weight:normal;font-stretch:normal;font-size:medium;line-height:normal;font-family:Sans;-inkscape-font-specification:Sans;text-indent:0;text-align:start;text-decoration:none;text-decoration-line:none;letter-spacing:normal;word-spacing:normal;text-transform:none;writing-mode:lr-tb;direction:ltr;baseline-shift:baseline;text-anchor:start;display:inline;overflow:visible;visibility:visible;fill:#000000;fill-opacity:1;fill-rule:nonzero;stroke:none;stroke-width:6;marker:none;enable-background:accumulate"
       d="m 1439.7812,389.40625 h 4 v -6 h -4 z m 8,0 h 4 v -6 h -4 z m 8,0 h 4 v -6 h -4 z m 8,0 h 4 v -6 h -4 z"
       id="line16891"
       inkscape:connector-curvature="0" />
    <path
       style="color:#000000;font-style:normal;font-variant:normal;font-weight:normal;font-stretch:normal;font-size:medium;line-height:normal;font-family:Sans;-inkscape-font-specification:Sans;text-indent:0;text-align:start;text-decoration:none;text-decoration-line:none;letter-spacing:normal;word-spacing:normal;text-transform:none;writing-mode:lr-tb;direction:ltr;baseline-shift:baseline;text-anchor:start;display:inline;overflow:visible;visibility:visible;fill:#000000;fill-opacity:1;fill-rule:nonzero;stroke:none;stroke-width:6;marker:none;enable-background:accumulate"
       d="m 1437.7812,383.8125 h 2 v -6 h -2 z m 6,0 h 4 v -6 h -4 z m 8,0 h 4 v -6 h -4 z m 8,0 h 4 v -6 h -4 z"
       id="line16893"
       inkscape:connector-curvature="0" />
    <path
       inkscape:connector-curvature="0"
       id="line16895"
       d="m 1454.7786,414.41059 -25.1,-34.5"
       style="fill:none;stroke:#000000;stroke-width:3" />
    <path
       inkscape:connector-curvature="0"
       id="ellipse16901"
       d="m 1474.3583,353.09097 c 0.1123,2.37221 -2.1223,4.40531 -4.991,4.54106 -2.8688,0.13575 -5.2853,-1.67727 -5.3975,-4.04948 -0.1123,-2.37221 2.1222,-4.40531 4.991,-4.54106 2.8687,-0.13575 5.2853,1.67726 5.3975,4.04948 z"
       style="fill:#ffffff;stroke:#000000;stroke-width:1.00002;stroke-linecap:round" />
    <path
       id="path16903"
       d="m 1467.7249,352.69731 c -1,-1.4 -2.8,-1.9 -4,-1 -1.2,0.9 0,8 3.8,5.1 1.1,-0.8 1.2,-2.7 0.2,-4.1 z"
       inkscape:connector-curvature="0"
       style="fill:#ffffff;stroke:#000000;stroke-linecap:round" />
    <path
       id="path16905"
       d="m 1465.3249,357.29731 5.6,1.7 c 0,0 2.2,-2.9 -4.8,-4.4"
       inkscape:connector-curvature="0"
       style="fill:#ffffff;stroke:#000000;stroke-linecap:round" />
    <path
       style="fill:#ffffff;stroke:#000000;stroke-linecap:round"
       inkscape:connector-curvature="0"
       d="m 1473.9249,356.39731 c 0,0 -2.5,3.2 -4.2,0.5 l 3,-2.2"
       id="path16909" />
    <path
       style="fill:#ffffff;stroke:#000000;stroke-linecap:round"
       inkscape:connector-curvature="0"
       d="m 1472.9249,355.09731 c 0,0 -2.5,3.2 -4.2,0.5 l 3,-2.2"
       id="path16911" />
    <path
       style="fill:#ffffff;stroke:#000000;stroke-linecap:round"
       inkscape:connector-curvature="0"
       d="m 1471.9249,353.69731 c 0,0 -2.5,3.2 -4.2,0.5 l 3,-2.2"
       id="path16913" />
    <path
       style="fill:#ffffff;stroke:#000000;stroke-linecap:round"
       inkscape:connector-curvature="0"
       d="m 1470.8249,352.19731 c 0,0 -2.5,3.2 -4.2,0.5 l 3,-2.2"
       id="path16915" />
    <path
       style="stroke:#000000;stroke-linecap:round"
       d="m 1477.7249,357.79731 -0.8,3.8 1.3,3.7 -3.8,-0.9 -3.6,1.4 0.8,-3.8 -1.3,-3.7 3.8,0.9 z"
       id="polygon16917"
       inkscape:connector-curvature="0" />
    <path
       style="fill:#fff200;stroke:#000000;stroke-linecap:round"
       inkscape:connector-curvature="0"
       d="m 1474.3249,365.39731 c -5,0 -1.3,-2.4 -1.3,-2.4 0,0 -2.4,3.7 -2.4,-1.3 0,-5 2.4,-1.3 2.4,-1.3 0,0 -3.7,-2.4 1.3,-2.4 5,0 1.3,2.4 1.3,2.4 0,0 2.4,-3.7 2.4,1.3 0,5 -2.4,1.3 -2.4,1.3 0,0 3.7,2.4 -1.3,2.4 z"
       id="path16919" />
    <path
       inkscape:connector-curvature="0"
       id="path25678"
       style="font-style:normal;font-variant:normal;font-weight:bold;font-stretch:normal;font-size:22.4px;line-height:125%;font-family:Comfortaa;-inkscape-font-specification:'Comfortaa Bold';letter-spacing:0px;word-spacing:0px;fill:#000000;fill-opacity:1;stroke:none"
       d="m 1421.1575,302.17557 c -0.773,0.61251 -1.5969,1.06459 -2.4719,1.35625 -0.875,0.29167 -1.8229,0.4375 -2.8438,0.4375 -2.4208,0 -4.4843,-0.85312 -6.1906,-2.55937 -1.7062,-1.70625 -2.5594,-3.76979 -2.5594,-6.19063 0,-2.41353 0.8532,-4.47342 2.5594,-6.17968 1.7136,-1.71353 3.7771,-2.5703 6.1906,-2.57032 2.4063,2e-5 4.4662,0.85679 6.1797,2.57032 0.8604,0.86043 1.5039,1.79923 1.9305,2.8164 0.4265,1.0172 0.6398,2.13829 0.6398,3.36328 0,1.02085 -0.1458,1.96876 -0.4375,2.84375 -0.2916,0.87501 -0.7437,1.69897 -1.3562,2.47188 l 1.4656,1.46562 c 0.2187,0.24063 0.3281,0.51042 0.3281,0.80938 0,0.16771 -0.029,0.32083 -0.088,0.45937 -0.058,0.13855 -0.1403,0.26068 -0.2461,0.36641 -0.1057,0.10573 -0.2297,0.18776 -0.3718,0.24609 -0.1422,0.0583 -0.2935,0.0875 -0.4539,0.0875 -0.3355,0 -0.6126,-0.11302 -0.8313,-0.33906 z m -3.1938,-3.18281 c -0.2187,-0.2552 -0.3281,-0.52864 -0.3281,-0.82031 0,-0.16041 0.029,-0.31171 0.088,-0.45391 0.058,-0.14218 0.1403,-0.26614 0.2461,-0.37187 0.1057,-0.10572 0.2278,-0.18776 0.3664,-0.2461 0.1385,-0.0583 0.2916,-0.0875 0.4594,-0.0875 0.3208,10e-6 0.5942,0.11303 0.8203,0.33907 l 1.5312,1.52031 c 0.7511,-1.05729 1.1266,-2.27499 1.1266,-3.65313 0,-1.77186 -0.6271,-3.28488 -1.8813,-4.53906 -1.2614,-1.26144 -2.7781,-1.89217 -4.55,-1.89219 -0.9041,2e-5 -1.7299,0.15679 -2.4773,0.47032 -0.7474,0.31355 -1.4383,0.78751 -2.0727,1.42187 -0.6343,0.63439 -1.1065,1.32345 -1.4164,2.06719 -0.3099,0.74376 -0.4648,1.56772 -0.4648,2.47187 0,1.77918 0.6271,3.29584 1.8812,4.55 1.2542,1.25417 2.7709,1.88126 4.55,1.88125 1.3782,10e-6 2.5995,-0.37551 3.6641,-1.12656 z" />
    <path
       style="fill:none;stroke:#000000;stroke-width:1.13773;stroke-opacity:1"
       d="m 1415.8419,309.23173 c -2.873,0 -5.1974,2.33242 -5.1974,5.20552 0,1.1277 0.3521,2.17092 0.9618,3.02307 -2.0026,0.23929 -3.5565,1.87188 -3.5565,3.86373 0,2.15645 1.8167,3.90414 4.0577,3.90414 1.4577,0 2.7279,-0.74051 3.4434,-1.85103 -0.1293,2.55387 -0.683,5.04191 -2.7079,5.35101 -0.044,0.007 -0.091,0.0197 -0.1373,0.0242 h -0.2668 v 0.12933 h 3.403 3.403 v -0.12933 h -0.2668 c -0.047,-0.005 -0.092,-0.0173 -0.1374,-0.0242 -2.0227,-0.30878 -2.5778,-2.79184 -2.7078,-5.34293 0.7162,1.1073 1.9883,1.84295 3.4435,1.84295 2.2409,0 4.0577,-1.74769 4.0577,-3.90414 0,-1.99433 -1.5504,-3.63573 -3.5567,-3.8718 0.6074,-0.85119 0.97,-1.88963 0.97,-3.015 0,-2.8731 -2.3324,-5.20552 -5.2055,-5.20552 z"
       id="path11558-3"
       inkscape:connector-curvature="0" />
    <path
       inkscape:connector-curvature="0"
       id="path25642"
       style="font-style:normal;font-variant:normal;font-weight:bold;font-stretch:normal;font-size:22.4px;line-height:125%;font-family:Comfortaa;-inkscape-font-specification:'Comfortaa Bold';letter-spacing:0px;word-spacing:0px;fill:#000000;fill-opacity:1;stroke:none"
       d="m 1486.6192,401.52107 c 0.773,-0.6125 1.5969,-1.06458 2.4719,-1.35625 0.875,-0.29167 1.8229,-0.4375 2.8438,-0.4375 2.4208,0 4.4843,0.85312 6.1906,2.55937 1.7062,1.70625 2.5594,3.76979 2.5594,6.19063 0,2.41353 -0.8532,4.47342 -2.5594,6.17969 -1.7136,1.71352 -3.7771,2.57029 -6.1906,2.57031 -2.4063,-2e-5 -4.4662,-0.85679 -6.1797,-2.57031 -0.8604,-0.86043 -1.5039,-1.79923 -1.9305,-2.81641 -0.4265,-1.0172 -0.6398,-2.13829 -0.6398,-3.36328 0,-1.02084 0.1458,-1.96876 0.4375,-2.84375 0.2916,-0.87501 0.7437,-1.69896 1.3562,-2.47188 l -1.4656,-1.46562 c -0.2187,-0.24063 -0.3281,-0.51042 -0.3281,-0.80938 0,-0.1677 0.029,-0.32083 0.087,-0.45937 0.058,-0.13854 0.1403,-0.26068 0.2461,-0.36641 0.1057,-0.10573 0.2297,-0.18776 0.3718,-0.24609 0.1422,-0.0583 0.2935,-0.0875 0.4539,-0.0875 0.3355,0 0.6125,0.11302 0.8313,0.33906 z m 3.1938,3.18281 c 0.2187,0.25521 0.3281,0.52864 0.3281,0.82031 0,0.16042 -0.029,0.31172 -0.087,0.45391 -0.058,0.14218 -0.1403,0.26614 -0.2461,0.37188 -0.1057,0.10572 -0.2278,0.18775 -0.3664,0.24609 -0.1385,0.0583 -0.2916,0.0875 -0.4594,0.0875 -0.3208,-10e-6 -0.5942,-0.11303 -0.8203,-0.33906 l -1.5312,-1.52032 c -0.7511,1.05729 -1.1266,2.275 -1.1266,3.65313 0,1.77186 0.6271,3.28488 1.8813,4.53906 1.2614,1.26145 2.7781,1.89217 4.55,1.89219 0.9041,-2e-5 1.7299,-0.15679 2.4773,-0.47031 0.7474,-0.31356 1.4383,-0.78752 2.0727,-1.42188 0.6343,-0.63439 1.1065,-1.32345 1.4164,-2.06719 0.3099,-0.74376 0.4648,-1.56771 0.4648,-2.47187 0,-1.77917 -0.6271,-3.29584 -1.8812,-4.55 -1.2542,-1.25417 -2.7709,-1.88125 -4.55,-1.88125 -1.3782,0 -2.5995,0.37552 -3.6641,1.12656 z" />
    <path
       inkscape:connector-curvature="0"
       id="path24482"
       d="m 1491.9348,394.46491 c 2.873,0 5.1974,-2.33242 5.1974,-5.20552 0,-1.12771 -0.3521,-2.17093 -0.9618,-3.02308 2.0026,-0.23928 3.5565,-1.87187 3.5565,-3.86372 0,-2.15646 -1.8167,-3.90415 -4.0577,-3.90415 -1.4576,0 -2.7279,0.74052 -3.4434,1.85104 0.1293,-2.55387 0.6831,-5.04192 2.7079,-5.35102 0.044,-0.007 0.091,-0.0197 0.1373,-0.0242 h 0.2668 v -0.12932 h -3.403 -3.403 v 0.12932 h 0.2668 c 0.047,0.005 0.092,0.0173 0.1374,0.0242 2.0227,0.30879 2.5778,2.79185 2.7078,5.34294 -0.7162,-1.1073 -1.9883,-1.84296 -3.4434,-1.84296 -2.241,0 -4.0578,1.74769 -4.0578,3.90415 0,1.99433 1.5504,3.63572 3.5567,3.8718 -0.6074,0.85118 -0.97,1.88962 -0.97,3.015 0,2.8731 2.3324,5.20552 5.2055,5.20552 z"
       style="fill:none;stroke:#000000;stroke-width:1.13773;stroke-opacity:1" />
  </g>
</svg>
