<?xml version="1.0" encoding="UTF-8" standalone="no"?>
<svg
   xmlns:dc="http://purl.org/dc/elements/1.1/"
   xmlns:cc="http://creativecommons.org/ns#"
   xmlns:rdf="http://www.w3.org/1999/02/22-rdf-syntax-ns#"
   xmlns:svg="http://www.w3.org/2000/svg"
   xmlns="http://www.w3.org/2000/svg"
   xmlns:xlink="http://www.w3.org/1999/xlink"
   xmlns:sodipodi="http://sodipodi.sourceforge.net/DTD/sodipodi-0.dtd"
   xmlns:inkscape="http://www.inkscape.org/namespaces/inkscape"
   inkscape:version="1.0 (4035a4fb49, 2020-05-01)"
   sodipodi:docname="QS.svg"
   id="svg83"
   version="1.1"
   width="2.25in"
   viewBox="-106 -164.5 212 329"
   preserveAspectRatio="none"
   height="3.5in"
   face="QS"
   class="card">
  <metadata
     id="metadata87">
    <rdf:RDF>
      <cc:Work
         rdf:about="">
        <dc:format>image/svg+xml</dc:format>
        <dc:type
           rdf:resource="http://purl.org/dc/dcmitype/StillImage" />
      </cc:Work>
    </rdf:RDF>
  </metadata>
  <sodipodi:namedview
     inkscape:current-layer="svg83"
     inkscape:window-maximized="1"
     inkscape:window-y="-12"
     inkscape:window-x="-12"
     inkscape:cy="168"
     inkscape:cx="108"
     inkscape:zoom="2.2410714"
     showgrid="false"
     id="namedview85"
     inkscape:window-height="2050"
     inkscape:window-width="3240"
     inkscape:pageshadow="2"
     inkscape:pageopacity="0"
     guidetolerance="10"
     gridtolerance="10"
     objecttolerance="10"
     borderopacity="1"
     bordercolor="#666666"
     pagecolor="#ffffff" />
  <defs
     id="defs3">
    <rect
       y="-112.5"
       x="-54"
       height="225"
       width="108"
       id="XSQ" />
  </defs>
  <symbol
     preserveAspectRatio="xMinYMid"
     viewBox="-500 -500 1000 1000"
     id="VSQ">
    <path
       id="path5"
       fill="none"
       stroke-miterlimit="1.5"
       stroke-linecap="square"
       stroke-width="80"
       stroke="black"
       d="M-260 100C40 100 -40 460 260 460M-175 0L-175 -285A175 175 0 0 1 175 -285L175 285A175 175 0 0 1 -175 285Z" />
  </symbol>
  <symbol
     preserveAspectRatio="xMinYMid"
     viewBox="-600 -600 1200 1200"
     id="SSQ">
    <path
       id="path8"
       fill="black"
       d="M0 -500C100 -250 355 -100 355 185A150 150 0 0 1 55 185A10 10 0 0 0 35 185C35 385 85 400 130 500L-130 500C-85 400 -35 385 -35 185A10 10 0 0 0 -55 185A150 150 0 0 1 -355 185C-355 -100 -100 -250 0 -500Z" />
  </symbol>
  <symbol
     viewBox="0 0 1300 2000"
     preserveAspectRatio="none"
     id="SQ1">
    <path
       id="path11"
       d="M635.39648,0 851.86719,312.33789C895.10685,299.11869 938.83136,290.34833 975,285 924.90197,188.22401 899.89439,94.153799 874.11133,0ZM295.52539,27.285156C246.27551,180.9799 142.75435,335.54042 209.25195,483.08398l-17.43359,13.44922c1.76531,151.10099 30.08527,286.57163 74.54102,398.60938 18.12594,21.287 38.56227,42.11564 61.47851,64.11523 3.61128,3.46683 7.28461,6.96262 11.33789,10.61914L901.47852,970l-0.41407,-0.51953c-0.12219,-0.138 -0.23745,-0.27418 -0.35937,-0.41211 15.27725,17.28278 32.6506,35.12574 52.3164,53.54294C1030.1434,1094.8366 1080,1150 1130,1250c52.9819,-70.6425 98.186,-110.0972 170,-152.7871v-37.6016c-68.6196,39.3343 -116.9422,76.6549 -164.5547,131.9668 -44.9491,-77.8482 -93.9175,-130.6069 -160.20897,-192.68943 -76.05982,-71.23062 -114.27421,-131.59148 -129.3711,-180.42578 -15.09688,-48.8343 -8.90849,-86.60287 7.94922,-120.96875 28.31708,-57.72677 91.51367,-102.35489 139.07032,-133.86328l-26.7793,-21.49024C896.53697,588.11019 793.22595,665.67487 806.10938,786.48828L699.86133,787.5 568.0625,939.89258 429.48438,939.86328C578.06034,763.29892 745.82856,594.02803 899.1875,455.09961l-9.56836,-10.99023c-28.86687,-3.02061 -55.64392,-10.37642 -80.51758,-21.42774 -1.77605,4.17261 -4.43372,8.02096 -7.94336,11.23438C665.11643,558.39566 525.46983,665.166 419.78906,829.43164L392.45703,811.84766C501.69344,642.05529 644.58723,533.12674 779.21875,409.9375l17.51367,6.86328c-17.74437,-8.98707 -34.48695,-19.8921 -50.29101,-32.48437 -124.71285,29.03155 -208.27492,36.48099 -267.26758,31.98242 0,0 -19.31641,14.60547 -29.31641,14.60547 -15,0 -25.58008,-5.64453 -30.58008,-5.64453 -5,0 -10,5 -25,5 -15,0 -30,-25 -40,-50 -1.51422,-2.01895 -3.01443,-4.07919 -4.23242,-5.79297l-39.21875,30.25586 10.50977,-0.54493c7.17244,138.45299 -1.25836,281.23598 43.02929,408.13477l-27.41796,17.66602c-1.32891,-2.13106 -2.43311,-4.45616 -3.26758,-6.95704C288.22851,692.7888 295.29422,552.70428 289.59766,421.09961l-69.70313,53.77344 20.20508,-16.59375C187.08454,297.85994 265.54029,182.85491 300.0957,58.960938ZM85,80c-55.000004,50 -100.000004,145 -35,145 9.343263,0 15.215964,-5.70961 19.599609,-15.58984l-0.05469,54.80664C63.116922,255.80043 55.218717,250 45,250c-34.999996,0 -39.999996,70 -5,70 24.46345,0 22.957588,-43.08208 10.8125,-44.93164 53.48157,5.0855 -15.809214,250.16385 -15.302734,296.2207 0.268193,24.38822 6.628431,48.73678 31.46289,56.20899C48.176742,632.49354 35,645.1697 35,660 35,674.30844 47.265656,686.61054 65.384766,692.25586 41.674751,699.57565 35,720.74035 35,740 35,776.24391 48.1356,836.13212 55.517578,866.33008 82.604368,846.54619 106.08392,825.42866 128.83984,800.21875 132.14826,778.91478 135,756.88968 135,740 135,720.60063 128.2285,699.26867 104.15234,691.95898 118.02756,686.75065 129.28173,676.58841 135,660c0,-14.83344 -13.18185,-27.51102 -30.78711,-32.89844 24.05654,-8.65812 30.01787,-32.21714 30.27734,-55.8125C134.99671,525.23221 65.705931,280.15386 119.1875,275.06836 107.04241,276.91792 105.53655,320 130,320c35,0 30,-70 -5,-70 -10.83425,0 -19.06007,6.52154 -25.074219,15.02148L100.25195,209.2793C104.49041,218.99863 110.42097,225 120,225 185,225 140,130 85,80Zm641.48047,287.83789c-86.62544,19.83455 -151.78802,28.17022 -200.80469,29.24219 -14.2248,6.27415 -30.07191,11.92239 -45.7793,18.95898 58.99266,4.49857 142.55438,-2.95118 267.19727,-32.03711 -7.7527,-5.20716 -14.38853,-10.76914 -20.61328,-16.16406zm-370.49024,88.29102c29.62693,11.74538 64.9141,21.55877 110.0293,25.15039 51.3028,4.08421 115.55629,0.48608 200.56445,-14.4043C568.01187,553.99998 468.15967,644.25595 384.25,765.71289 359.23837,670.90747 359.53927,564.67648 355.99023,456.12891ZM1182.5,473.75c-24.0403,0 -48.0562,17.34722 -29.8594,52.02344A45,42.5 0 0 1 1182.5,515a45,42.5 0 0 1 29.8652,10.76367C1230.552,491.09427 1206.538,473.75 1182.5,473.75Zm-54.6914,47.48047c-45.2477,0.77462 -37.6424,97.7377 22.793,66.2168A45,42.5 0 0 1 1137.5,557.5a45,42.5 0 0 1 13.1113,-29.94336c-8.6891,-4.53343 -16.2978,-6.43753 -22.8027,-6.32617zm109.3828,0c-6.5027,-0.11132 -14.1076,1.79222 -22.793,6.32226A45,42.5 0 0 1 1227.5,557.5a45,42.5 0 0 1 -13.1094,29.94336c60.4429,31.53409 68.0505,-65.43824 22.8008,-66.21289zm-24.8301,67.99414A45,42.5 0 0 1 1182.5,600 45,42.5 0 0 1 1152.6348,589.23633c-11.9875,22.85174 -5.6311,38.16959 6.9726,45.95898 -23.6821,34.46419 -48.941,66.02584 -74.9492,96.20703C1079.1653,675.69528 1058.4509,645.45798 1005,670c37.225,16.12754 38.5709,70.31699 75.9492,65.69727 -5.8664,6.76063 -11.768,13.45662 -17.6972,20.10156l15.207,1.88672c7.2551,-8.19076 14.4623,-16.46748 21.6113,-24.85352 5.1929,39.08146 35.0698,-7.57452 67.2129,-5.5 -16.4802,-41.743 -32.0495,-10.50502 -66.4785,4.63672 24.5708,-28.86629 48.4073,-59.08334 70.8027,-91.95508 26.5679,6.12811 61.7407,-10.79807 40.7539,-50.78906zM1255,655c-32.9633,38.74398 -63.8666,77.97963 -125,110 16.8191,30.21345 26.6544,60.2083 30,90 47.2312,18.32372 82.8871,51.83723 115,90 2.3419,-37.0436 -4.2974,-71.38724 -30,-100 23.3498,-4.99857 40.0029,-20.01884 50,-45 -14.5281,-24.40208 -35.9759,-32.69918 -60,-35 44.8752,-32.16719 30.2665,-71.33926 20,-110zM811.88477,817.78516c10.86486,41.66548 35.34229,88.00659 78.58593,139.42382 -4.92291,-5.82285 -9.66276,-11.58316 -14.2207,-17.2539l-286.46289,-0.0586 64.60547,-0.45703 75.1914,-86.93945 93.88282,-0.33984c-4.9028,-11.9067 -8.74345,-23.39087 -11.58203,-34.375zM377.5,842.5c4.42321,0 9.31831,2.00257 14.86719,9.24023C397.91606,858.97789 402.5,871.0223 402.5,885c0,13.9777 -4.58394,26.0221 -10.13281,33.25977C386.81831,925.49743 381.92321,927.5 377.5,927.5c-4.42321,0 -9.31831,-2.00257 -14.86719,-9.24023C357.08394,911.0221 352.5,898.9777 352.5,885c0,-13.9777 4.58394,-26.02211 10.13281,-33.25977C368.18169,844.50257 373.07679,842.5 377.5,842.5Z"
       fill="#FC4" />
  </symbol>
  <symbol
     viewBox="0 0 1300 2000"
     preserveAspectRatio="none"
     id="SQ2">
    <path
       id="path14"
       d="M557.51758,0 805.9668,330.45703 851.01367,311.99805 635.36719,0Zm78.02148,0 63.76563,90.75C709.99966,65.000167 725,65 725,65 716.50651,26.779299 728.31462,17.104416 733.20117,0ZM820,265 851.86719,312.33789C877.5079,304.49903 903.31958,298.22492 927.6543,293.26562 907.75762,290.72138 885.5191,284.6565 865,270c-10,5 -30,10 -45,-5zm99.12695,216.28711C764.14521,621.01648 595.55342,787.07572 470.35547,940.01172L525,940 685,755h120.41797l-0.0547,-0.41211c6.37431,-102.76161 97.50088,-170.65811 160.41211,-212.22851zm-727.41992,15.5625 -59.86133,46.34766 -0.39648,0.30468c1.93099,12.0459 3.10803,21.69313 3.04101,27.78711 -0.25947,23.59536 -6.2208,47.15438 -30.27734,55.8125C121.81815,632.48898 135,645.16656 135,660 129.28173,676.58841 118.02756,686.75065 104.15234,691.95898 128.2285,699.26867 135,720.60063 135,740c0,16.88968 -2.85174,38.91478 -6.16016,60.21875 -1.95154,2.162 -3.90854,4.29257 -5.87304,6.39453C138.56664,789.96704 153.92711,771.43051 170,750 200.25102,810.50205 230.44886,854.59181 266.85742,895.71484 221.90196,783.10482 193.58426,647.63449 191.70703,496.84961ZM44.53125,610.36133 0,644.61523V902.7832C30.797744,884.46615 56.707359,866.73637 80.427734,846.89844 72.427991,853.57027 64.158102,860.01913 55.517578,866.33008 48.1356,836.13212 35,776.24391 35,740 35,720.74035 41.674751,699.57565 65.384766,692.25586 47.265656,686.61054 35,674.30844 35,660 35,645.1697 48.176742,632.49354 66.972656,627.49805 56.528563,624.35562 49.361734,618.22105 44.53125,610.36133Zm1190.09765,68.79687 -1.1211,1.04688c-20.0542,23.0427 -41.8711,45.665 -71.7441,65.72265 27.117,39.37142 36.6532,80.37363 27.7441,123.12891 25.4392,14.76465 47.2329,33.87001 67.875,55.8418 -10.0896,-28.95393 -26.9566,-68.05217 -64.6191,-89.36328C1229.865,829.72137 1245.3631,819.51581 1260,800c-28.5778,-21.24841 -50.4759,-15.94491 -77.3027,-15.66992 39.149,-21.89578 49.9371,-64.78262 51.9316,-105.17188zM110.74609,819.23828c-0.7889,0.78628 -1.58065,1.56702 -2.37304,2.3457 0.792,-0.77791 1.58362,-1.55961 2.37304,-2.3457zm-5.15234,5.05078c-0.76819,0.74251 -1.53476,1.48679 -2.30664,2.22266 0.77112,-0.73534 1.53841,-1.48017 2.30664,-2.22266zm-5.26172,5.00586c-2.077449,1.94603 -4.165139,3.87648 -6.273436,5.7793 2.104356,-1.90192 4.194747,-3.83083 6.273436,-5.7793zm-6.539061,6.02149c-1.467973,1.32281 -2.945132,2.63598 -4.429688,3.93945 1.482456,-1.30407 2.961518,-2.61456 4.429688,-3.93945zM377.5,862.5a11,22.5 0 0 0 -11,22.5 11,22.5 0 0 0 11,22.5 11,22.5 0 0 0 11,-22.5 11,22.5 0 0 0 -11,-22.5zm225.17578,127.46484a10,10 0 0 0 -10,10 10,10 0 0 0 10,9.99996 10,10 0 0 0 10,-9.99996 10,10 0 0 0 -10,-10zM420,990a10,10 0 0 0 -10,10 10,10 0 0 0 10,10 10,10 0 0 0 10,-10 10,10 0 0 0 -10,-10zm91.13281,0.41016a10,10 0 0 0 -10,10.00004 10,10 0 0 0 10,10 10,10 0 0 0 10,-10 10,10 0 0 0 -10,-10.00004z"
       fill="red" />
  </symbol>
  <symbol
     viewBox="0 0 1300 2000"
     preserveAspectRatio="none"
     id="SQ3">
    <path
       id="path17"
       d="M472.5,150a12.5,20 0 0 0 -12.5,20 12.5,20 0 0 0 12.5,20 12.5,20 0 0 0 12.5,-20 12.5,20 0 0 0 -12.5,-20zm-140,5a12.5,20 0 0 0 -12.5,20 12.5,20 0 0 0 12.5,20 12.5,20 0 0 0 12.5,-20 12.5,20 0 0 0 -12.5,-20zm23.49023,301.12891c3.54904,108.54757 3.24814,214.77856 28.25977,309.58398 83.90967,-121.45694 183.76187,-211.71291 282.33398,-298.83789 -85.00816,14.89038 -149.26165,18.48851 -200.56445,14.4043 -45.1152,-3.59162 -80.40237,-13.40501 -110.0293,-25.15039zm42.92579,22.92187c22.57573,0.10326 52.52779,2.34383 83.49804,6.2461 65.74558,8.28415 118.15335,21.65893 117.05469,29.87304 -1.09829,8.2139 -56.30922,5.07893 -122.05273,-3.20508 -65.73948,-8.28354 -117.1185,-18.57868 -116.02735,-26.79296 0.53448,-4.02047 14.07178,-6.22853 37.52735,-6.1211zM1117.5,492.5c2.4011,8.40385 4.2266,18.24941 5.4746,28.84375v0.36133c7.3876,-1.36391 16.4655,0.0837 27.2324,5.62304l-21.2675,-21.26757a1.50015,1.50015 0 0 1 1.0449,-2.57617 1.50015,1.50015 0 0 1 1.0761,0.45507l21.2676,21.26758c-5.5291,-10.74776 -6.9807,-19.81297 -5.6289,-27.19336 -10.7286,-1.24895 -20.7021,-3.08593 -29.1992,-5.51367zm130,0c-8.4251,2.40718 -18.2988,4.23414 -28.9238,5.48242h-0.2793c1.3613,7.38557 -0.087,16.46062 -5.6231,27.22266l21.2657,-21.26563a1.50015,1.50015 0 0 1 1.0312,-0.45312 1.50015,1.50015 0 0 1 1.0898,2.57422l-21.2675,21.26757c10.7565,-5.53399 19.8272,-6.98416 27.2109,-5.62695v-0.17187c1.2486,-10.6649 3.081,-20.57644 5.4961,-29.0293zm-853.59961,15.25781c20.38428,0.10329 47.42876,2.34386 75.39258,6.2461 59.36368,8.28422 106.68388,21.65899 105.69141,29.87304 -0.99271,8.21355 -49.91699,8.15671 -109.27735,-0.12695 -59.36371,-8.28422 -106.68391,-21.659 -105.69141,-29.87305 0.48636,-4.01928 12.70935,-6.22659 33.88477,-6.11914zm7.69531,34.67969c15.09367,-0.0753 32.61454,0.81411 50.47852,2.5625 51.50146,5.04084 94.00823,14.75226 93.67578,23.00391 -0.32891,8.2521 -42.34749,10.85536 -93.84961,5.81445C400.39893,568.77752 358.91755,558.00165 359.25,549.75c0.20345,-5.08688 15.52034,-7.17888 42.3457,-7.3125zm590.81446,21.09375c-26.28817,17.83124 -58.00395,39.71623 -85.84375,65.82227L1063.252,755.79883c5.9292,-6.64494 11.8308,-13.34093 17.6972,-20.10156C1043.5709,740.31699 1042.225,686.12754 1005,670c53.4509,-24.54202 74.1653,5.69528 79.6582,61.40234 18.288,-21.22222 36.2025,-43.13214 53.4609,-66.25 -50.4965,-31.89003 -99.3677,-65.63189 -145.70894,-101.62109zm92.24804,167.87109c-1.2353,1.43353 -2.4703,2.86748 -3.709,4.29493 1.3064,-0.16146 2.6533,-0.388 4.0508,-0.69727 -0.1038,-1.21628 -0.2241,-2.40447 -0.3418,-3.59766zm-21.4062,24.39649 1.3242,1.02344C1092.8236,758.22045 1130,765 1130,765c33.2353,-17.40792 57.5278,-36.95014 78.082,-57.38477 -19.9562,-11.65548 -39.7017,-23.55345 -59.2109,-35.71875 -15.5528,20.88792 -31.6462,40.7815 -48.0664,60.07227 34.429,-15.14174 49.9983,-46.37972 66.4785,-4.63672 -32.1431,-2.07452 -62.02,44.58146 -67.2129,5.5 -7.149,8.38604 -14.3562,16.66276 -21.6113,24.85352zM399.88477,574.98828c12.13924,-0.0753 26.23048,0.81416 40.59765,2.5625 41.42116,5.04089 74.78321,15.81675 74.51563,24.06836 -0.26463,8.25206 -34.05885,10.85531 -75.48047,5.81445 -41.42116,-5.04089 -74.78321,-15.81675 -74.51563,-24.06836 0.16364,-5.08693 13.30756,-8.24338 34.88282,-8.37695zm814.90823,12.6836 21.2675,21.26757a1.50015,1.50015 0 1 1 -2.121,2.1211l-21.2657,-21.26563c5.5369,10.76367 6.9837,19.84044 5.6211,27.22656h0.3223c10.6094,1.24816 20.4685,3.07443 28.8828,5.47852 -2.4278,-8.49731 -4.2627,-18.47029 -5.5117,-29.19922 -7.3807,1.35234 -16.4468,-0.0994 -27.1953,-5.6289zm-64.5879,0.002c-10.7501,5.53028 -19.8161,6.98044 -27.1973,5.62695v0.0723c-1.2488,10.70195 -3.0853,20.64836 -5.5078,29.12695 8.4975,-2.42785 18.4701,-4.26471 29.1992,-5.51367 -1.3518,-7.38039 0.1,-16.44561 5.6289,-27.19336l-21.2676,21.26758a1.50015,1.50015 0 1 1 -2.121,-2.1211zM399.95117,608.2207c7.75591,-0.014 16.33902,0.59569 25.04883,1.7793 30.51033,4.14665 55.19775,16.74619 55.24414,25 0.0491,8.25469 -24.64792,11.5847 -55.16016,7.4375 -30.51033,-4.14665 -55.28173,-14.19933 -55.32812,-22.45312 -0.0324,-5.62262 11.68692,-11.73096 30.19531,-11.76368zm2.94141,36.28321c3.92832,-0.0157 8.00124,0.15115 12.10742,0.49609 25.08573,2.10744 44.77796,7.02839 45.42188,14.97852 0.64298,7.94981 -19.17087,12.68576 -44.25586,10.57812 -25.08573,-2.10744 -45.94398,-10.26081 -46.5879,-18.21094 -0.52278,-6.4668 13.79255,-7.76393 33.31446,-7.84179zm-6.3711,30.78125c1.53788,10e-4 3.10151,0.0612 4.67383,0.17968 15.24356,1.1523 28.12847,7.43255 28.7793,14.02735 0.6519,6.59512 -11.17778,11.00764 -26.42188,9.85547 -15.24356,-1.1523 -28.12847,-7.43255 -28.77929,-14.02735 -0.57317,-5.81151 8.60794,-10.04793 21.74804,-10.03515zm-2.7207,30.4707c0.97501,0.002 1.96625,0.0499 2.96289,0.14453 9.66123,0.91446 17.82809,5.89851 18.24219,11.13281 0.4126,5.23472 -7.08576,8.73687 -16.74805,7.82227 -9.66123,-0.91446 -17.82809,-5.89851 -18.24219,-11.13281 -0.3645,-4.61356 5.45528,-7.97697 13.78516,-7.9668zm906.19922,0.0781 -34.2773,2.85547c0.2249,20.00253 -6.7832,39.15319 -30.7188,56.31055 24.0241,2.30082 45.4719,10.59792 60,35 -9.9971,24.98116 -26.6502,40.00143 -50,45 19.6816,21.91005 28.1768,47.18324 30.0293,74.45312l0.01,0.008 24.957,11.09375zm-167.2656,64.20508c0.2372,0.44647 0.4708,0.89347 0.7051,1.33985 -0.2343,-0.44637 -0.4679,-0.89339 -0.7051,-1.33985zm3.041,5.88282c0.083,0.16606 0.171,0.33199 0.2539,0.49804 -0.083,-0.16604 -0.1705,-0.33202 -0.2539,-0.49804zm2.6758,5.48437c0.2147,0.45253 0.425,0.90499 0.6367,1.35742 -0.2117,-0.45239 -0.4219,-0.90493 -0.6367,-1.35742zm2.455,5.32422c0.1795,0.40036 0.3641,0.80089 0.5411,1.20117 -0.177,-0.40029 -0.3615,-0.80081 -0.5411,-1.20117zm2.5958,5.98437c0.2099,0.50184 0.413,1.00415 0.6191,1.50586 -0.2062,-0.5018 -0.4092,-1.00393 -0.6191,-1.50586zm2.0703,5.11719c0.1975,0.50277 0.4,1.00516 0.5937,1.50781 -0.1937,-0.50252 -0.3962,-1.00516 -0.5937,-1.50781zm2.3418,6.1875c0.1922,0.53072 0.3764,1.06121 0.5644,1.5918 -0.188,-0.53055 -0.3722,-1.06112 -0.5644,-1.5918zm1.7324,4.96485c0.2042,0.60477 0.4106,1.20984 0.6094,1.81445 -0.1988,-0.60461 -0.4051,-1.20971 -0.6094,-1.81445zm2.0273,6.26562c0.1846,0.60177 0.3579,1.20308 0.5371,1.80469 -0.1792,-0.60139 -0.3525,-1.20313 -0.5371,-1.80469zm1.4688,5.00977c0.1799,0.63781 0.3593,1.27644 0.5332,1.91406 -0.174,-0.63786 -0.3532,-1.27602 -0.5332,-1.91406zM377.5,842.5c-4.42321,0 -9.31831,2.00257 -14.86719,9.24023C357.08394,858.97789 352.5,871.0223 352.5,885c0,13.9777 4.58394,26.0221 10.13281,33.25977 5.54888,7.23766 10.44398,9.24023 14.86719,9.24023 4.42321,0 9.31831,-2.00257 14.86719,-9.24023C397.91606,911.0221 402.5,898.9777 402.5,885c0,-13.9777 -4.58394,-26.02211 -10.13281,-33.25977C386.81831,844.50257 381.92321,842.5 377.5,842.5Zm-0.27344,4.79492c2.95574,0.0879 5.94922,5.08008 5.94922,10.70508 10.93128,-0.11104 14.67749,3.31056 5.67578,13 13.69744,3.7436 10.6454,8.69968 2.83789,14 7.80751,5.30032 10.85955,10.2564 -2.83789,14 9.00171,9.68944 5.2555,13.11104 -5.67578,13 0,10 -9.4596,18 -11.35156,0 -10.93128,0.11104 -14.67748,-3.31056 -5.67578,-13 -13.69744,-3.7436 -10.6454,-8.69968 -2.83789,-14 -7.80751,-5.30032 -10.85955,-10.2564 2.83789,-14 -9.0017,-9.68944 -5.2555,-13.11104 5.67578,-13 0.82773,-7.875 3.10344,-10.77344 5.40234,-10.70508zm352.35742,5.20508 -75.1914,86.93945 43.0039,-0.041L744.44531,885H840l-15,-32.5zm29.72266,65 -19.23047,22.23633L876.25,939.95508 860,917.5Zm-104.13476,52.41992 -315.75977,0.17969c2.43984,2.47881 4.98787,4.87423 7.56641,7.28906 15.37025,14.39437 29.32058,28.43253 41.91015,42.12693 1.06974,-4.4442 6.04965,-11.1309 16.11133,-19.5156 -30,-25 -15,-34.99999 15,-15 30,-19.99999 45,-10 15,15 30,25 15,35 -15,15 -11.06914,7.3794 -20.08451,10.6644 -25.5625,10.6289 1.31057,1.4627 2.62767,2.9262 3.90625,4.3809l256.41797,-0.1328zm-170.01172,4.44531C490.60938,974.21875 499.75,977.5 511,985c30,-19.99999 45,-10 15,15 30,25 15,35 -15,15 -30,20 -45,10 -15,-15 -18.75,-15.625 -19.92188,-25.39063 -10.83984,-25.63477zm91,0C581.60938,974.21875 590.75,977.5 602,985c30,-19.99999 45,-10 15,15 30,25 15,35 -15,15 -30,20 -45,10 -15,-15 -18.75,-15.625 -19.92188,-25.39063 -10.83984,-25.63477z"
       fill="#44F" />
  </symbol>
  <symbol
     viewBox="0 0 1300 2000"
     preserveAspectRatio="none"
     id="SQ4">
    <path
       id="path20"
       d="M499.67383,0C598.83088,212.42554 698.5156,423.78371 891.07812,444.24805L557.50781,0ZM299.89844,59.855469C265.54099,182.85387 187.08454,297.85994 240.09961,458.2793L349.875,372.94531C322.20549,333.64118 300,282.28964 300,255c0,-20 5.00324,-149.9992 5,-155 -10e-4,-2.004308 -2.41143,-19.27436 -5.10156,-40.144531zM899.91016,454.8418C746.55122,593.77022 578.78424,763.04072 429.50781,939.46875l40.84766,0.54297C595.55342,787.07576 764.14431,621.01748 918.95508,481.37891Zm65.79101,87.45703c-28.87179,19.18723 -64.12524,44.12835 -93.97851,75.52344l25.55078,20.04296c30.22964,-29.84438 65.96002,-54.59002 95.59961,-73.97851 -9.28135,-6.87909 -18.47109,-14.10656 -27.17188,-21.58789zM685,755 525.10156,939.88281 570,940 699.86133,787.5H806.65039L805,755Z"
       fill="black" />
  </symbol>
  <symbol
     viewBox="0 0 1300 2000"
     preserveAspectRatio="none"
     id="SQ5">
    <path
       id="path23"
       d="M435,885A57.5,75.000002 0 0 1 377.5,960.00001 57.5,75.000002 0 0 1 320,885 57.5,75.000002 0 0 1 377.5,810 57.5,75.000002 0 0 1 435,885v0M417.07718,940H876.02627M308.27069,940h28.75722M339.49097,970H901.47783M131.84482,543.19629 351.03451,374.58883M6.9310566e-5,644.61533 44.832165,610.1291M1138.1663,665.18229C1077.9926,627.18313 1020.1253,586.55302 965.29601,542.45758M1208.5796,707.90733c-20.1878,-11.78458 -40.1599,-23.81534 -59.8906,-36.12132M557.51806,-3.5577172e-4 965.44559,542.57786M1299.7291,1059.765c-68.4773,39.2778 -116.7334,76.5733 -164.2838,131.8131 -44.9491,-77.8482 -93.9175,-130.6069 -160.20897,-192.68943 -76.05982,-71.23062 -114.27421,-131.59148 -129.3711,-180.42578 -15.09688,-48.8343 -8.90849,-86.60287 7.94922,-120.96875 28.31708,-57.72677 91.51285,-102.35515 139.0695,-133.86354M499.68528,0.03748108C598.83742,212.45251 698.51437,423.77834 890.34164,443.851M364.36489,812.31243C320.07724,685.41364 328.50886,542.63024 321.33642,404.17725c76.71711,39.85219 163.35704,77.44074 457.8821,5.76082C644.587,533.12731 501.69292,642.05444 392.45651,811.84681M355.97656,456.125c29.62956,11.74764 64.92126,21.56216 110.04297,25.1543 51.30556,4.08443 115.56309,0.48617 200.57813,-14.40625 -98.57798,87.12824 -198.39177,177.48156 -282.2461,298.86133 -24.96545,-94.92731 -24.7974,-201.06283 -28.375,-309.60938v0M867.34252,440.4065C719.62961,574.07588 560.4386,730.57461 436.09373,879.43791M223.89186,472.86906c-0.82324,183.16931 37.98603,343.48203 98.11552,466.27071M191.49798,496.71315c2.08648,150.92196 30.40471,286.39171 75.55251,398.73891M429.507,939.46794C578.78343,763.03991 746.55158,593.76963 899.91052,454.84121M470.35494,940.01166C595.55289,787.0757 764.14488,621.01728 918.95565,481.37871M525,940 685,755h120.41872M567.92551,940.0502 699.86133,787.5h106.78892M611.46541,939.39021 714.72266,820h97.2642M654.39213,939.43943 729.58398,852.5h93.89714M697.39662,939.39902 744.44531,885h95.04566M740.07521,939.73575 759.30664,917.5H860M906.39152,629.42293 1063.7852,756.67736M871.92369,617.813 1043.2441,757.01082M459.61865,481.34795C414.86903,573.51288 406.45192,669.62669 385,765M303.65592,-0.00221915C259.09343,162.78907 138.61386,327.07777 209.42337,483.4732M240.09997,458.27954C187.0849,297.86018 265.54056,182.85405 300.09597,58.960082M805.81085,330.134c14.88787,-6.44544 30.42237,-12.16006 46.14865,-17.2138M0.09725143,902.73906C71.866196,860.06685 117.03718,820.61709 170,750c50,100 99.8567,155.1639 176.97865,227.3892 281.56105,263.6842 94.15072,409.6105 -13.08443,480.4695M377.5,842.5c4.42321,0 9.31831,2.00257 14.86719,9.24023C397.91606,858.97789 402.5,871.0223 402.5,885c0,13.9777 -4.58394,26.0221 -10.13281,33.25977C386.81831,925.49743 381.92321,927.5 377.5,927.5c-4.42321,0 -9.31831,-2.00257 -14.86719,-9.24023C357.08394,911.0221 352.5,898.9777 352.5,885c0,-13.9777 4.58394,-26.02211 10.13281,-33.25977C368.18169,844.50257 373.07679,842.5 377.5,842.5v0M1130,765c16.8191,30.21345 26.6544,60.2083 30,90 47.2312,18.32372 82.8871,51.83723 115,90 2.3419,-37.0436 -4.2974,-71.38724 -30,-100 23.3498,-4.99857 40.0029,-20.01884 50,-45 -14.5281,-24.40208 -35.9759,-32.69918 -60,-35 44.8752,-32.16719 30.2665,-71.33926 20,-110 -32.9633,38.74398 -63.8666,77.97963 -125,110v0M1300,705.83334l-34.3239,2.86032M1299.9997,930.55544l-26.1711,-11.63161M1192.7269,836.42558c37.6985,20.41997 54.5672,59.51932 65.2796,89.01033M1182.9686,784.9233c26.555,-0.86899 48.4536,-6.17171 77.0314,15.0767 -14.6369,19.51581 -30.1358,29.72065 -67.2011,34.6433M1234.6287,679.15791c-1.9945,40.38926 -12.7829,83.27561 -52.2037,104.5774M1162.3431,745.42454c26.5383,39.87481 36.0743,80.87688 26.979,123.43436M1130,765c0,0 -82.1675,-15 -95,-5 -12.8325,10 -32.9691,31.30714 -40,40 -31.97044,39.52731 3.64509,49.72935 20,30M1050,800c-59.31161,25.45028 -64.22618,120.61499 20,25M1041.1933,853.52948c-14.9444,32.29436 0.7581,60.30105 58.5,-5.24847M1062.1853,882.59071C1040.9944,921.29246 1103.755,918.14402 1160,855M1063.2524,755.79961c33.572,-37.62441 66.2866,-76.82735 96.4461,-120.73492M1078.4582,757.6865c32.4929,-36.68328 64.0954,-75.00591 93.2554,-117.82589M1085,735c-4.9523,-58.0017 -25.4042,-90.06768 -80,-65 38.526,16.69119 38.6175,74.15849 80,65v0M1005,670c37.8073,-6.25375 56.1399,40.79694 80,65M1100,732.33169c35,-15 50.6726,-47.07119 67.2824,-5 -32.2824,-2.08351 -62.2824,45 -67.2824,5v0M1100.0662,732.84533c26.3257,8.26747 52.4616,-23.9051 67.2162,-5.51364M1155.0001,585.00001C1080.0001,630 1080,484.99999 1155,530c-45,-75 100,-75 55,0 75,-45 75,100 10e-5,55 45,75.00001 -100.0001,74.99999 -55,10e-6v0M1242.5,557.5c-60,0 -60,0 -60,-60 0,60 0,60 -60,60 60,0 60,0 60,60 0,-60 0,-60 60,-60v0M1122.9743,521.34338c-1.248,-10.59434 -3.0726,-20.43952 -5.4737,-28.84337 8.5766,2.45046 18.6544,4.30045 29.4977,5.54996M1146.7554,616.97813c-10.7509,1.24908 -20.7424,3.08971 -29.255,5.52188 2.4225,-8.47859 4.2581,-18.42426 5.5069,-29.12621M1241.9485,592.9857c1.2496,10.84959 3.1002,20.93331 5.5519,29.5143 -8.4143,-2.40409 -18.2735,-4.23021 -28.8829,-5.47837M1218.5761,497.98319c10.625,-1.24828 20.4988,-3.07601 28.9239,-5.48319 -2.4151,8.45286 -4.2469,18.3639 -5.4955,29.0288M357.95908,386.26136c-4.7848,-2.30618 -9.52375,-4.6875 -14.28345,-7.12611M748.06895,383.93902C622.45119,413.08814 538.88863,420.5377 479.79194,417.07826M355.99023,456.12891c29.62693,11.74538 64.9141,21.55877 110.0293,25.15039 51.3028,4.08421 115.55629,0.48608 200.56445,-14.4043C568.01187,553.99998 468.15967,644.25595 384.25,765.71289 359.23837,670.90747 359.53927,564.67648 355.99023,456.12891v0M85,135c10.787262,31.12992 5,90 35,90 65,0 20,-95 -35,-145 -55.000004,50 -100.000004,145 -35,145 30,0 24.21273,-58.87008 35,-90v0M40,285c0,0 0,-10 10,-10 12.88094,0 15,45 -10,45 -34.999996,0 -29.999996,-70 5,-70 30,0 40,50 40,50 0,0 10,-50 40,-50 35,0 40,70 5,70 -25,0 -22.88094,-45 -10,-45 10,0 10,10 10,10M120,275c-55,2.66831 15,250 14.49097,296.289C134.16784,600.67311 125,630 85,630 45,630 35.832163,600.67311 35.509031,571.289 35,525 105,277.66831 50,275M70,264.98358V208.33333M100,265.18883V208.74384M103.20611,627.39263C121.81764,632.48836 135,645.16656 135,660c0,19.32997 -22.38576,35 -50,35 -27.614237,0 -50,-15.67003 -50,-35 0,-14.8303 13.176786,-27.50627 31.782083,-32.60414M65.931232,692.4756C41.674852,699.57662 35,720.74035 35,740c0,36.24391 13.136211,96.133 20.364326,126.34321M128.36935,800.67704C132.14739,778.91407 135,756.88968 135,740c0,-19.39937 -6.77205,-40.73054 -31.46191,-47.67672M256.89224,885h6.38602M1.1417102e-4,884.99999 28.737098,885M245.57157,870h11.90122M2.5229169e-5,870.00002 51.088175,870M233.67034,855h18.57752M4.1609595e-5,854.99999 52.539543,855M222.93022,840h24.09272M7.6084636e-5,840.00001 49.346532,840M212.77064,825h29.89819M4.2336546e-5,825.00002 46.443795,825M203.1916,810h34.54258M4.0905762e-6,810.00002 43.541058,810M194.48339,795h38.89668M129.46208,795h5.22493M-3.8457096e-5,795.00001 40.638321,795M186.06545,780h42.96051M131.78427,780h14.51368M-3.1733115e-5,780.00001 38.316131,780M178.22806,765h46.73407M133.81618,765h24.67327M10,765H36.284215M134.68701,750h86.50156M10,750H34.542573M134.97728,735h83.01828M15,735H35.12312M132.65509,720H205M15,720H37.844594M155,705h45M325,510c-11.82334,-17.57111 -24.45521,-31.94743 -45.42097,-47.16261 -21.67788,-15.73198 -32.01525,9.6364 -23.86278,22.70472M325,540c-13.68399,-15.7169 -40.72661,-39.31758 -62.25684,-51.80699 -20.39713,-11.83211 -26.52283,15.09906 -9.53546,27.99468M326.64903,572.53873c-13.68399,-15.7169 -40.42328,-39.85576 -62.25684,-51.80699 -33.04187,-18.08643 -43.83934,14.15892 -2.74316,31.80699M329.68204,632.14459c-13.68399,-15.7169 -40.42328,-39.85576 -62.25684,-51.80699 -30.81157,-16.86561 -37.65608,16.8659 -5.11631,35.80661M328.06764,597.68777c-13.86078,-13.59047 -33.31597,-27.70524 -50.77313,-39.51278 -22.07438,-14.9305 -34.10496,4.47364 -22.83565,17.22609M332.19576,659.38835c-13.77031,-13.23256 -32.62008,-26.88451 -49.58329,-38.35795 -24.04479,-16.26322 -36.17268,12.27173 -19.25152,25.31598M335.48063,686.60634C319.24375,673.64242 295.51352,659.7442 277.4252,650.3376c-31.2697,-16.26141 -36.88691,20.47944 -3.29829,37.12122M339.44241,709.94356C293.812,671.34406 241.20364,684.64228 285,715M345.57813,743.85785c-49.78299,-42.23381 -140.14002,-42.27022 -51.45386,5.50004M359.15379,797.42734C296.30783,757.35598 217.41506,767.9862 315.25691,808.08817M356.15219,815.71589c-43.41581,-18.1629 -92.79129,0.20988 -43.97099,13.65755M335.79649,833.55074c-36.46249,-11.38361 -55.92576,9.42664 -11.42381,20.21059M323.63736,467.38673c-7.1925,-7.58612 -15.51039,-14.89158 -25.85855,-22.4014 -17.52111,-12.71535 -26.71907,0.32727 -25.12324,12.4885M322.15877,428.22708c-1.31784,-1.00168 -2.67007,-2.00587 -4.05887,-3.01374 -19.41173,-14.0874 -28.60717,3.4419 -24.22651,16.36102M351.5017,769.34668c-41.8286,-32.62324 -87.13007,-22.98664 -57.82646,2.59886M396.50984,805.03398c97.55186,1.04019 65.93584,25.61549 21.19412,25.63392M410.20409,785.71584c31.87867,-11.92022 60.58013,-9.17207 74.95842,-1.62887 16.81695,8.82258 14.04006,24.2047 -26.16419,30.34906M430.54986,757.7319c58.57662,-11.0001 103.69453,13.94896 55.48459,26.1888M451.62343,729.60393c67.42086,-18.09697 125.45489,10.74224 49.42624,33.66324M469.15226,707.61747c69.25339,-23.47062 135.42699,4.47512 67.15155,28.14525M497.03474,675.73394c50.50234,-8.00778 88.6752,9.66559 55.551,28.0217M514.06286,656.56715c77.25396,-19.94453 157.95502,17.262 48.7626,27.75334M550.91529,618.31036c57.1762,-5.00205 100.00874,18.02731 40.2256,35.03407M568.89077,600.93936c75.24789,-19.79781 151.84194,14.60918 51.22446,34.33609M596.84001,574.15634c55.64482,-7.64299 102.46778,11.7471 64.24628,28.76475M620.73761,552.10789c71.56974,-16.51587 140.66537,14.62009 53.45997,34.06378M660.73433,515.56983c57.1151,-4.52529 99.00079,18.87447 36.45506,35.78648M684.38719,494.58861c73.88041,-16.89549 144.8643,16.89901 43.68109,36.08147M722.79564,460.82624c57.76542,-5.50387 101.75016,17.65976 42.02455,34.7974M748.43052,437.7647c68.01755,-11.92015 127.59071,17.4385 43.80212,36.02686M645.55164,273.86211C640.4516,285.47932 635.59316,297.26013 610,295c-14.37233,81.30224 -73.77303,98.38804 -130,120 0,0 -19.41945,15.64589 -29.41945,15.64589C435.58055,430.64589 425,425 420,425c-5,0 -10,5 -25,5 -15,0 -30,-25 -40,-50 -30,-40 -55,-96.04455 -55,-125 0,-20 5.003,-149.9992 5,-155 -0.002,-3.089335 -5.72781,-42.445846 -10.1037,-72.07356M622.93321,240.32144C616.61632,250.552 609.19352,264.74236 615,265c2.73428,0.12132 6.96971,-10.37759 10.24354,-19.90618M904.16018,494.81448l50.56379,54.17549M889.99031,508.2039l48.73454,52.21558M875.34795,521.08709l48.01937,51.44933M861.63691,534.96812l46.15447,49.45122M847.01655,547.87487l45.96336,49.24646M832.83302,561.24966l35.28817,37.80876M818.66315,574.63908l24.02599,25.74214M803.86532,587.3557l17.84203,19.11646M790.06402,601.14003l8.92784,9.56554M482.75862,925h55.41872M495.89491,910h55.00821M508.21018,895h55.82923M521.34647,880h55.41872M534.48276,865h55.41872M552.95566,845H585M790,820v32.5M765,820v32.5M740,820v32.5M703.26765,833.26765l22.578,22.578M684.08867,854.08867l23.39901,23.39901M665.93596,875.93596l22.78325,22.78325M648.19376,898.19376l22.578,22.578M629.22003,919.22003l20.73071,20.73071M791.29599,310.75526c15.62961,-6.29692 31.83381,-11.83473 48.11454,-16.69002M776.15664,290.35133c15.84539,-6.35519 32.2728,-11.93292 48.76488,-16.81275M760.82223,270.4856c16.18061,-6.50419 32.97255,-12.19625 49.8241,-17.16102M746.54814,252.22866c16.42632,-6.7965 33.54246,-12.73644 50.75899,-17.91046M739.12096,229.17409c11.71799,-4.608 23.73402,-8.79725 35.84163,-12.5995M726.54679,208.22774c8.46394,-3.2756 17.07495,-6.33535 25.75602,-9.1911M711.68624,188.33917c5.39484,-2.00758 10.85695,-3.94932 16.37032,-5.82515M900.40882,94.431781C848.5463,114.25376 796.72828,69.769511 761.4322,93.621964 715,125.00001 755,185 789.33498,165.18883 821.13528,146.84017 790,105 775,115c-9.30261,6.20174 -14.88842,18.30946 -10,25 6.18042,8.45885 10.48873,9.62814 20,5M901.46652,97.13303C861.76115,135.4564 879.34663,201.01228 842.74068,222.52055 794.42332,250.91 757.5027,188.96753 790.17065,166.51363c30.25635,-20.79631 54.6061,25.32412 39.1205,34.55428 -9.60379,5.72429 -22.93675,5.55043 -26.86936,-1.74304 -4.972,-9.22111 -4.17161,-13.61293 4.10189,-20.20332M765,180l90,-60M845,160c-10,-10 -45.467,-11.35662 -55,5 22.00764,-11.03808 34.76336,-24.75676 25,-45M795,230c25,30 50,20 75,10 24.05541,32.7653 64.66095,38.66637 105,45M725,130C715,110 740,85 755,75 749.14905,51.948962 757.70702,26.00987 766.59362,0.00490542M700,90c10,-25 25,-25 25,-25 -8.48271,-38.172217 3.28893,-47.867055 8.18679,-64.93099617M427.96416,0.01822477C445.06535,51.748024 483.31343,78.400493 539.31946,83.994433M446.67053,0.04362022C462.63103,38.843647 492.03631,61.699978 533.14043,70.683071M461.24526,0.01603427C475.22521,27.447203 496.92922,45.718691 525.58366,55.74792M476.99588,0.10806452C487.38028,16.453559 500.99836,28.964352 517.63646,37.893813M371.26432,0.04443925C356.34418,40.196712 340.91798,80.075485 304.69652,100.28589M355.60874,0.04353776C343.34293,31.804187 329.13875,61.845937 302.67098,80.298673M339.57059,0.02060224C329.73362,23.196287 317.89132,44.53011 299.71459,59.883794M325.15652,0.08430598C317.46458,14.722402 308.27692,27.964826 296.26758,38.544057M305,120c41.1016,-25.066138 61.56092,-14.28714 80,0 20,55 -15,110 -14.41945,151.6763 0.21559,15.47674 11.72696,13.44856 19.41945,13.3237 4.99934,-0.0811 15,10 15,10M305,125c29.58587,-20.97635 55.47603,-17.50669 80,-5M430,245c20,0 20,30 5,30 -40,5 -40,-10 -5,0M365,315v10l5,-5 -5,-5v0M455,320l5,-5v10l-5,-5v0M370,320c0,0 5,5 10,5 5,0 5.24415,-4.00984 12.32219,-4.4848C400,320 400,325 405,325c5,0 15,-10 20,-10 5,0 15,5 20,5h10M390,340c3.06957,28.45212 45.6136,8.68856 45,5 -5,5 -44.77199,31.85105 -45,-5v0M430,135c51.53607,-36.718861 85.86501,-16.18211 120,5 -35.40475,-25.98218 -85,-45 -120,-5v0M540,160C525,160 503.52953,134.61544 483.61398,136.45137 453.79885,139.1999 445,175 430,180 447.93464,158.59181 463.7944,151.78059 478.07024,151.93493 507.27438,152.25068 515,185 550,175M430,180c15,-10 32.80939,10.04302 45.17423,9.94542C504.08195,189.71723 519.49385,175 530,175M380,175c-20,0 -30.87367,-19.1648 -47.03192,-20.29027 -12.3413,-0.85961 -29.19452,12.61246 -29.19452,17.61246 0,7.07107 11.23734,20.70784 22.74316,23.25836C342.90794,199.21402 362.81244,175.3491 380,175v0M305,165c22.64276,-42.75014 64.95345,-9.49214 65,-5M820,265c15,15 35,10 45,5 20.5191,14.6565 42.75671,20.72048 62.68286,23.22939M851.86653 312.33707C895.10619 299.11787 938.83136 290.34833 975 285C924.90149 188.22308 899.90057 94.152754 874.11725 -0.0019513659 M851.86653,312.33707C895.10619,299.11787 938.83136,290.34833 975,285 924.90149,188.22308 899.90057,94.152754 874.11725,-0.00195137M851.01315,311.99775 635.36748,-2.4089679e-4M927.65339,293.26472C907.75671,290.72048 885.5191,284.6565 865,270c-10,5 -30,10 -45,-5"
       fill="none"
       stroke-width="6"
       stroke-linejoin="round"
       stroke-linecap="round"
       stroke="#44F" />
  </symbol>
  <symbol
     viewBox="0 0 1300 2000"
     preserveAspectRatio="none"
     id="SQ6">
    <path
       id="path26"
       d="M986.60333,811.20184l17.52527,26.83701m3.5763,5.47663 14.2883,21.88014M993.49031,800.86775c12.59499,20.81314 26.36539,39.79428 40.67199,57.93996m3.6811,4.63683c6.0574,7.57938 12.2001,15.02588 18.3803,22.41378m3.5795,4.26824c4.9357,5.87225 9.8895,11.71638 14.8372,17.56998M1002.2895,791.27746c25.6547,42.89167 56.3312,77.95704 86.5273,113.77117M1011.3206,782.24417c26.5981,44.89853 58.7236,81.18275 90.1523,118.55299M1018.2105,775.40469C1045.4382,820.51985 1078.1971,857.01507 1110,895M91.990234,409.08984c5.346491,34.39969 12.364566,69.89746 17.978516,99.54297 5.61395,29.64551 9.60751,54.84672 9.52344,62.49219 -0.14502,13.18721 -2.60383,25.09508 -7.35157,32.2207C107.39289,610.47133 101.33414,615 85,615 68.665861,615 62.607113,610.47133 57.859375,603.3457M95.230469,511.42383c2.783382,14.69817 5.162021,28.28252 6.812501,38.99023 1.65048,10.70771 2.46055,19.51658 2.44922,20.54688 -0.12561,11.42229 -3.03694,21.37127 -4.833987,24.06836 -1.554361,2.33286 -1.96098,2.67133 -3.316406,3.33203C94.986371,599.02203 91.780811,600 85,600M99.244141,641.85938C113.48363,645.75807 120,654.05348 120,660c0,3.87456 -2.13436,8.18273 -8.24609,12.46094C105.64218,676.73915 95.96981,680 85,680 74.030191,680 64.357824,676.73915 58.246094,672.46094M99.476562,706.76367c8.835718,2.48582 12.847888,6.43575 15.929688,11.99805C118.48805,724.32402 120,732.04575 120,740c0,15.20071 -2.70618,36.77501 -6.41016,58.11133M102.94922,660.2832C99.903483,662.33803 92.860098,665 85,665c-7.997241,0 -15.198086,-2.76015 -18.152344,-4.82812M102.28516,726.03125C103.52282,728.2651 105,733.94656 105,740c0,13.42041 -2.56634,34.6744 -6.189453,55.54492M726.75998,368.27894C639.85431,387.67178 574.6926,396.00751 524.83867,397.57475M715.61309,356.58894C649.94086,370.7787 597.12268,378.4618 554.16847,381.63062M703.03893,344.25945c-49.76763,10.38288 -91.8849,16.91189 -127.75629,20.52287M690.7875,331.76901c-38.30305,7.6982 -71.90839,13.04175 -101.50758,16.49148M680.13806,318.87243c-30.03631,5.82677 -57.08899,10.16495 -81.51547,13.25269M670.20516,305.76564c-23.347,4.36958 -44.8345,7.81564 -64.64196,10.45774M659.57286,292.71511c-18.04772,3.23925 -34.94556,5.91034 -50.78275,8.07274M390,380c11.94547,-13.95601 27.22073,-12.69836 45,0M440,195c10,15 30,15 45,15M310,205c50,25 60,-30 70,-30M350.01995,162.05531c1.14299,3.17833 1.7863,6.76631 1.7863,10.56373 0,13.03628 -7.58139,23.60427 -16.9335,23.60427 -9.35211,0 -16.93349,-10.568 -16.93349,-23.60427 0,-5.79795 1.49965,-11.10766 3.98776,-15.21654M488.55832,153.60687c1.90775,3.81995 3.02626,8.46304 3.02626,13.4703 0,13.03628 -7.58139,23.60427 -16.9335,23.60427 -9.35211,0 -16.93349,-10.568 -16.93349,-23.60427 0,-4.03258 0.72545,-7.82898 2.00436,-11.14943"
       fill="none"
       stroke-width="3"
       stroke-linejoin="round"
       stroke-linecap="round"
       stroke="#44F" />
    <use
       id="use28"
       transform="translate(1188,935)scale(1,0.738)rotate(-40)translate(-45,-45)"
       height="90"
       xlink:href="#SSQ" />
    <use
       id="use30"
       transform="translate(1194,1043)scale(1,0.738)rotate(-40)translate(-45,-45)"
       height="90"
       xlink:href="#SSQ" />
    <use
       id="use32"
       transform="translate(1096,1033)scale(1,0.738)rotate(-40)translate(-45,-45)"
       height="90"
       xlink:href="#SSQ" />
    <use
       id="use34"
       transform="translate(1022,947)scale(1,0.738)rotate(-40)translate(-45,-45)"
       height="90"
       xlink:href="#SSQ" />
    <use
       id="use36"
       transform="translate(918,851)scale(1,0.738)rotate(-40)translate(-45,-45)"
       height="90"
       xlink:href="#SSQ" />
    <use
       id="use38"
       transform="translate(897,726)scale(1,0.738)rotate(-40)translate(-45,-45)"
       height="90"
       xlink:href="#SSQ" />
  </symbol>
  <rect
     id="rect41"
     stroke="black"
     fill="white"
     ry="12"
     rx="12"
     y="-164"
     x="-105.5"
     height="328"
     width="211" />
  <g
     transform="matrix(2.1926689,0,0,2.1874975,-3187.8958,-414.63646)"
     id="cardQS">
    <path
       id="path16535"
       d="m 1474.228,201.80766 c 0,0 -0.2127,-27.51269 2.6693,-22.79962 2.882,4.6128 -13.3986,-28.30026 -13.3986,-28.30026 l -14.3444,-7.76708 -12.9491,34.09827 c 0,0 5.7608,-9.50786 20.9776,-4.60537 13.1323,4.23094 17.0452,29.37406 17.0452,29.37406 z"
       inkscape:connector-curvature="0"
       style="fill:#ed1c24;stroke:#000000;stroke-width:0.829519"
       sodipodi:nodetypes="cccccsc" />
    <path
       style="fill:none;stroke:#000000;stroke-width:2.07241;stroke-linecap:round;stroke-linejoin:round;stroke-miterlimit:4"
       d="m 1461.3872,160.41522 12.9936,24.08713"
       id="line16537"
       inkscape:connector-curvature="0" />
    <path
       style="fill:#ed1c24;stroke:#000000"
       d="m 1474.0904,151.32242 -20,-0.5 13.4,15.8 z"
       id="polygon16539"
       inkscape:connector-curvature="0" />
    <path
       style="fill:none;stroke:#000000;stroke-width:1.98363;stroke-linecap:round;stroke-linejoin:round;stroke-miterlimit:4"
       d="m 1461.7365,155.30216 13.4315,24.87832"
       id="line16541"
       inkscape:connector-curvature="0" />
    <path
       inkscape:connector-curvature="0"
       id="ellipse16545"
       d="m 1475.284,150.12241 c 0,7.36275 -4.5437,13.33144 -10.1485,13.33144 -5.6049,0 -10.1486,-5.96869 -10.1486,-13.33144 0,-7.36275 4.5437,-13.33143 10.1486,-13.33143 5.6048,0 10.1485,5.96868 10.1485,13.33143 z"
       style="stroke:#000000;stroke-width:3.93713" />
    <path
       style="fill:#ffffff;stroke:#000000"
       inkscape:connector-curvature="0"
       d="m 1472.9904,125.42242 c 0,0 0,6.9 0,8.5 -0.3,7.8 -3.5,28.4 -21.5,6.4"
       id="path16551" />
    <path
       style="fill:#ffffff;stroke:#000000"
       inkscape:connector-curvature="0"
       d="m 1466.7904,122.52242 c -2.1,5.5 -5.4,12.6 -8.3,12.1"
       id="path16553" />
    <path
       style="fill:#ffffff;stroke:#000000"
       inkscape:connector-curvature="0"
       d="m 1464.0904,123.62242 c -2.1,5.3 -5.2,11.4 -7.9,11.1"
       id="path16555" />
    <path
       style="fill:#ffffff;stroke:#000000"
       inkscape:connector-curvature="0"
       d="m 1461.2904,124.22242 c -2.1,5.4 -5.3,12 -8.1,11.6"
       id="path16557" />
    <path
       style="fill:#ffffff;stroke:#000000"
       inkscape:connector-curvature="0"
       d="m 1459.1904,123.92242 c -2.1,5.5 -5.4,12.3 -8.2,11.9"
       id="path16559" />
    <path
       style="fill:#ffffff;stroke:#000000"
       inkscape:connector-curvature="0"
       d="m 1449.3904,133.72242 c 0.3,-4.1 -5.3,1.6 0,1.7 3.3,0.1 6,-6.2 7.6,-11.1"
       id="path16561" />
    <path
       style="fill:#ffffff;stroke:#000000"
       inkscape:connector-curvature="0"
       d="m 1454.5904,124.72242 c -1.3,4 -3.4,9 -5.2,9"
       id="path16563" />
    <path
       inkscape:connector-curvature="0"
       id="circle16565"
       d="m 1469.4904,137.92243 c 0,0.55228 -0.4477,1 -1,1 -0.5523,0 -1,-0.44772 -1,-1 0,-0.55229 0.4477,-1 1,-1 0.5523,0 1,0.44771 1,1 z"
       style="stroke:#000000;stroke-linecap:round" />
    <path
       inkscape:connector-curvature="0"
       id="circle16567"
       d="m 1462.2904,137.92243 c 0,0.55228 -0.4477,1 -1,1 -0.5523,0 -1,-0.44772 -1,-1 0,-0.55229 0.4477,-1 1,-1 0.5523,0 1,0.44771 1,1 z"
       style="stroke:#000000;stroke-linecap:round" />
    <path
       style="fill:#ffffff;stroke:#000000"
       inkscape:connector-curvature="0"
       d="m 1466.9904,123.22242 c 0,0 0.1,6.3 5.5,7.3 0.5,0.1 -1.5,0.4 -1,0.6 3.3,1.6 -8.5,-1.8 -6.4,-7.4"
       id="path16569" />
    <path
       style="fill:#ffffff;stroke:#000000"
       inkscape:connector-curvature="0"
       d="m 1469.4904,124.02242 c 0,0 0.1,4.3 3.5,6.1 0.5,0.2 0.3,0.9 0.7,1.1 1,0.5 0.5,0.4 -0.7,0 -2.2,-0.9 -6.6,-3.4 -5.4,-6.7"
       id="path16571" />
    <path
       style="fill:#ffffff;stroke:#000000"
       inkscape:connector-curvature="0"
       d="m 1470.8904,122.52242 c 0,0 0.1,3.1 2.2,5.1 0.7,0.7 1.9,2.4 0,1.4 -2.2,-1.2 -5,-3.4 -3.9,-6.1"
       id="path16573" />
    <path
       style="fill:#ffffff;stroke:#ffffff"
       d="m 1450.6904,120.72241 h 26.4 v 3.6 h -26.4 z"
       id="rect16575"
       inkscape:connector-curvature="0" />
    <path
       inkscape:connector-curvature="0"
       id="line16577"
       d="m 1457.7904,125.02242 -16.8,34.8"
       style="fill:none;stroke:#000000;stroke-width:3" />
    <path
       style="fill:#fff200;stroke:#000000"
       inkscape:connector-curvature="0"
       d="m 1448.1904,143.92242 12.4,-19.4 h -17.3 c 0,0 4.5,11.2 -5.1,14.4 0.1,0.1 11.2,-5.3 10,5 z"
       id="path16579" />
    <path
       style="fill:none;stroke:#fff200;stroke-width:1.12814;stroke-linecap:butt"
       d="m 1463.7279,169.45926 10.5565,19.85648"
       id="line16581"
       inkscape:connector-curvature="0" />
    <path
       sodipodi:nodetypes="cccccsc"
       style="fill:none;stroke:#000000;stroke-width:1.2;stroke-miterlimit:4;stroke-dasharray:none"
       inkscape:connector-curvature="0"
       d="m 1474.228,201.80766 c 0,0 -0.2127,-27.51269 2.6693,-22.79962 2.882,4.6128 -13.3986,-28.30026 -13.3986,-28.30026 l -13.885,-8.83912 -13.4085,35.17031 c 0,0 5.7608,-9.50786 20.9776,-4.60537 13.1323,4.23094 17.0452,29.37406 17.0452,29.37406 z"
       id="path16583" />
    <path
       style="fill:#fff200;stroke:#000000;stroke-width:0.972174"
       d="m 1466.9754,177.83633 -20.299,-26.72782 h 6.1369 24.4532 z"
       id="polygon16585"
       inkscape:connector-curvature="0" />
    <path
       style="fill:none;stroke:#000000;stroke-width:4.67209;stroke-linejoin:round"
       d="m 1467.9264,174.18637 8.4434,-24.7279"
       id="line16587"
       inkscape:connector-curvature="0" />
    <path
       style="fill:none;stroke:#000000;stroke-width:5;stroke-linecap:round"
       d="m 1467.4904,175.72241 -19.3,-24.6"
       id="line16589"
       inkscape:connector-curvature="0" />
    <path
       style="fill:#ed1c24"
       d="m 1470.3904,158.12242 -3.8,9.3 -7.6,-9.3 h 2.3 z"
       id="polygon16591"
       inkscape:connector-curvature="0" />
    <path
       style="fill:none;stroke:#000000"
       d="m 1454.0904,156.22241 h 21.3"
       id="line16593"
       inkscape:connector-curvature="0" />
    <path
       id="path16597"
       d="m 1445.7858,132.34838 c 0.4116,5.36074 3.074,5.21046 3.5756,4.77161 0.6162,-0.53914 0.828,-1.87018 0.828,-1.87018 l 0.019,0.0124 c 0.9611,0.72592 -0.1689,3.01818 -0.1689,3.01818 l 1.4257,-2.18424 0.037,-0.057 1.4258,-2.18424 c 0,0 -1.6437,1.95699 -2.695,1.36929 -0.01,-0.004 -0.013,-0.009 -0.019,-0.0124 0,0 1.1332,-0.72955 1.3788,-1.51065 0.1998,-0.63579 -0.7341,-3.13352 -5.8072,-1.3528 z"
       style="fill:#000000;fill-opacity:1;stroke:none"
       inkscape:connector-curvature="0" />
    <path
       inkscape:connector-curvature="0"
       style="fill:#000000;fill-opacity:1;stroke:none"
       d="m 1449.3248,126.92638 c 0.4116,5.36074 3.074,5.21046 3.5756,4.77161 0.6162,-0.53914 0.828,-1.87018 0.828,-1.87018 l 0.019,0.0124 c 0.9611,0.72592 -0.1689,3.01818 -0.1689,3.01818 l 1.4257,-2.18424 0.037,-0.057 1.4258,-2.18424 c 0,0 -1.6437,1.95699 -2.695,1.36929 -0.01,-0.004 -0.013,-0.009 -0.019,-0.0124 0,0 1.1332,-0.72955 1.3788,-1.51065 0.1998,-0.63579 -0.7341,-3.13352 -5.8072,-1.3528 z"
       id="path16601" />
    <path
       sodipodi:nodetypes="cccccsc"
       style="fill:#ed1c24;stroke:#000000;stroke-width:0.829519"
       inkscape:connector-curvature="0"
       d="m 1433.5488,177.73091 c 0,0 0.2127,27.51269 -2.6693,22.79962 -2.882,-4.6128 13.3986,28.30026 13.3986,28.30026 l 14.3444,7.76708 12.9491,-34.09827 c 0,0 -5.7608,9.50786 -20.9776,4.60537 -13.1323,-4.23094 -17.0452,-29.37406 -17.0452,-29.37406 z"
       id="path16605" />
    <path
       style="fill:none;stroke:#000000;stroke-width:2.07241;stroke-linecap:round;stroke-linejoin:round;stroke-miterlimit:4"
       d="M 1446.3896,219.12335 1433.396,195.03622"
       id="line16607"
       inkscape:connector-curvature="0" />
    <path
       style="fill:#ffffff;stroke:#000000;stroke-width:0.999961;stroke-linecap:round"
       d="m 1458.3553,190.18738 c -0.6581,-2.28173 1.0453,-4.77656 3.8046,-5.57236 2.7594,-0.7958 5.5297,0.40879 6.1877,2.69052 0.6581,2.28173 -1.0453,4.77656 -3.8046,5.57236 -2.7593,0.7958 -5.5296,-0.40879 -6.1877,-2.69052 z"
       id="ellipse16613"
       inkscape:connector-curvature="0" />
    <path
       id="path16615"
       d="m 1464.4864,187.61615 c 0.5,-1.7 2.1,-2.7 3.4,-2.3 1.4,0.4 2.6,7.6 -1.9,6.1 -1.4,-0.4 -2.1,-2.1 -1.5,-3.8 z"
       inkscape:connector-curvature="0"
       style="fill:#ffffff;stroke:#000000;stroke-linecap:round" />
    <path
       id="path16617"
       d="m 1468.1864,191.21615 -4.8,3.4 c 0,0 -3,-2.1 3.1,-5.7"
       inkscape:connector-curvature="0"
       style="fill:#ffffff;stroke:#000000;stroke-linecap:round" />
    <path
       style="fill:#ffffff;stroke:#000000;stroke-linecap:round"
       inkscape:connector-curvature="0"
       d="m 1459.7864,193.11615 c 0,0 3.4,2.2 4.1,-0.8 l -3.5,-1.1"
       id="path16621" />
    <path
       style="fill:#ffffff;stroke:#000000;stroke-linecap:round"
       inkscape:connector-curvature="0"
       d="m 1460.2864,191.51615 c 0,0 3.4,2.2 4.1,-0.8 l -3.5,-1.1"
       id="path16623" />
    <path
       style="fill:#ffffff;stroke:#000000;stroke-linecap:round"
       inkscape:connector-curvature="0"
       d="m 1460.7864,189.91615 c 0,0 3.4,2.2 4.1,-0.8 l -3.5,-1.1"
       id="path16625" />
    <path
       style="fill:#ffffff;stroke:#000000;stroke-linecap:round"
       inkscape:connector-curvature="0"
       d="m 1461.3864,188.11615 c 0,0 3.4,2.2 4.1,-0.8 l -3.5,-1.1"
       id="path16627" />
    <path
       style="fill:#ed1c24;stroke:#ed1c24"
       d="m 1463.7864,195.61615 -1.1,5 1.8,4.8 -5,-1.1 -4.8,1.8 1.1,-5 -1.8,-4.8 5,1.1 z"
       id="polygon16631"
       inkscape:connector-curvature="0" />
    <path
       id="path16633"
       d="m 1459.2864,205.71615 c -6.6,0 -1.7,-3.1 -1.7,-3.1 0,0 -3.1,4.9 -3.1,-1.7 0,-6.6 3.1,-1.7 3.1,-1.7 0,0 -4.9,-3.1 1.7,-3.1 6.6,0 1.7,3.1 1.7,3.1 0,0 3.1,-4.9 3.1,1.7 0,6.6 -3.1,1.7 -3.1,1.7 0,0 4.8,3 -1.7,3.1 z"
       inkscape:connector-curvature="0"
       style="fill:#fff200;stroke:#000000;stroke-linecap:round" />
    <path
       style="fill:#ed1c24;stroke:#000000"
       d="m 1453.6864,228.71615 -13.4,-15.8 -6.6,15.3 z"
       id="polygon16635"
       inkscape:connector-curvature="0" />
    <path
       style="fill:none;stroke:#000000;stroke-width:1.98363;stroke-linecap:round;stroke-linejoin:round;stroke-miterlimit:4"
       d="m 1446.0403,224.23641 -13.4315,-24.87832"
       id="line16637"
       inkscape:connector-curvature="0" />
    <path
       inkscape:connector-curvature="0"
       id="ellipse16641"
       d="m 1432.4927,229.41616 c 0,-7.36275 4.5438,-13.33144 10.1486,-13.33144 5.6049,0 10.1486,5.96869 10.1486,13.33144 0,7.36275 -4.5437,13.33143 -10.1486,13.33143 -5.6048,0 -10.1486,-5.96868 -10.1486,-13.33143 z"
       style="stroke:#000000;stroke-width:3.93713" />
    <path
       id="path16647"
       d="m 1434.7864,254.11615 c 0,0 0,-6.9 0,-8.5 0.3,-7.8 3.5,-28.4 21.5,-6.4"
       inkscape:connector-curvature="0"
       style="fill:#ffffff;stroke:#000000" />
    <path
       id="path16649"
       d="m 1440.9864,257.01615 c 2.1,-5.5 5.4,-12.6 8.3,-12.1"
       inkscape:connector-curvature="0"
       style="fill:#ffffff;stroke:#000000" />
    <path
       id="path16651"
       d="m 1443.6864,255.91615 c 2.1,-5.3 5.2,-11.4 7.9,-11.1"
       inkscape:connector-curvature="0"
       style="fill:#ffffff;stroke:#000000" />
    <path
       id="path16653"
       d="m 1446.4864,255.31615 c 2.1,-5.4 5.3,-12 8.1,-11.6"
       inkscape:connector-curvature="0"
       style="fill:#ffffff;stroke:#000000" />
    <path
       id="path16655"
       d="m 1448.5864,255.61615 c 2.1,-5.5 5.4,-12.3 8.2,-11.9"
       inkscape:connector-curvature="0"
       style="fill:#ffffff;stroke:#000000" />
    <path
       id="path16657"
       d="m 1458.3864,245.81615 c -0.3,4.1 5.3,-1.6 0,-1.7 -3.3,-0.1 -6,6.2 -7.6,11.1"
       inkscape:connector-curvature="0"
       style="fill:#ffffff;stroke:#000000" />
    <path
       id="path16659"
       d="m 1453.1864,254.81615 c 1.3,-4 3.4,-9 5.2,-9"
       inkscape:connector-curvature="0"
       style="fill:#ffffff;stroke:#000000" />
    <path
       inkscape:connector-curvature="0"
       id="circle16661"
       d="m 1438.2864,241.61614 c 0,-0.55228 0.4477,-1 1,-1 0.5523,0 1,0.44772 1,1 0,0.55229 -0.4477,1 -1,1 -0.5523,0 -1,-0.44771 -1,-1 z"
       style="stroke:#000000;stroke-linecap:round" />
    <path
       inkscape:connector-curvature="0"
       id="circle16663"
       d="m 1445.4864,241.61614 c 0,-0.55228 0.4477,-1 1,-1 0.5523,0 1,0.44772 1,1 0,0.55229 -0.4477,1 -1,1 -0.5523,0 -1,-0.44771 -1,-1 z"
       style="stroke:#000000;stroke-linecap:round" />
    <path
       id="path16665"
       d="m 1440.7864,256.31615 c 0,0 -0.1,-6.3 -5.5,-7.3 -0.5,-0.1 1.5,-0.4 1,-0.6 -3.3,-1.6 8.5,1.8 6.4,7.4"
       inkscape:connector-curvature="0"
       style="fill:#ffffff;stroke:#000000" />
    <path
       id="path16667"
       d="m 1438.2864,255.51615 c 0,0 -0.1,-4.3 -3.5,-6.1 -0.5,-0.2 -0.3,-0.9 -0.7,-1.1 -1,-0.5 -0.5,-0.4 0.7,0 2.2,0.9 6.6,3.4 5.4,6.7"
       inkscape:connector-curvature="0"
       style="fill:#ffffff;stroke:#000000" />
    <path
       id="path16669"
       d="m 1436.8864,257.01615 c 0,0 -0.1,-3.1 -2.2,-5.1 -0.7,-0.7 -1.9,-2.4 0,-1.4 2.2,1.2 5,3.4 3.9,6.1"
       inkscape:connector-curvature="0"
       style="fill:#ffffff;stroke:#000000" />
    <path
       style="fill:#ffffff;stroke:#ffffff;stroke-width:0.945613"
       d="m 1457.1136,258.40141 h -26.4544 v -3.21245 h 26.4544 z"
       id="rect16671"
       inkscape:connector-curvature="0" />
    <path
       inkscape:connector-curvature="0"
       id="line16673"
       d="m 1449.9864,254.51615 16.8,-34.8"
       style="fill:none;stroke:#000000;stroke-width:3" />
    <path
       id="path16675"
       d="m 1459.5864,235.61615 -12.4,19.4 h 17.3 c 0,0 -4.5,-11.2 5.1,-14.4 -0.1,-0.1 -11.2,5.3 -10,-5 z"
       inkscape:connector-curvature="0"
       style="fill:#fff200;stroke:#000000" />
    <path
       style="fill:none;stroke:#fff200;stroke-width:1.12814;stroke-linecap:butt"
       d="m 1444.0489,210.07931 -10.5565,-19.85648"
       id="line16677"
       inkscape:connector-curvature="0" />
    <path
       id="path16679"
       d="m 1433.5488,177.73091 c 0,0 0.2127,27.51269 -2.6693,22.79962 -2.882,-4.6128 13.3986,28.30026 13.3986,28.30026 l 13.885,8.83912 13.4085,-35.17031 c 0,0 -5.7608,9.50786 -20.9776,4.60537 -13.1323,-4.23094 -17.0452,-29.37406 -17.0452,-29.37406 z"
       inkscape:connector-curvature="0"
       style="fill:none;stroke:#000000;stroke-width:1.2;stroke-miterlimit:4;stroke-dasharray:none"
       sodipodi:nodetypes="cccccsc" />
    <path
       style="fill:#fff200;stroke:#000000;stroke-width:0.972174"
       d="m 1430.5103,228.43006 10.2911,-26.72782 20.2989,26.72782 h -6.1368 z"
       id="polygon16681"
       inkscape:connector-curvature="0" />
    <path
       style="fill:none;stroke:#000000;stroke-width:4.67209;stroke-linejoin:round"
       d="m 1439.8504,205.3522 -8.4434,24.7279"
       id="line16683"
       inkscape:connector-curvature="0" />
    <path
       style="fill:none;stroke:#000000;stroke-width:5;stroke-linecap:round"
       d="m 1440.2864,203.81616 19.3,24.6"
       id="line16685"
       inkscape:connector-curvature="0" />
    <path
       style="fill:#ed1c24"
       d="m 1446.4864,221.41615 h -9.1 l 3.8,-9.3 7.6,9.3 z"
       id="polygon16687"
       inkscape:connector-curvature="0" />
    <path
       style="fill:none;stroke:#000000"
       d="m 1453.6864,223.31616 h -21.3"
       id="line16689"
       inkscape:connector-curvature="0" />
    <path
       style="fill:#ffffff;stroke:#000000;stroke-width:0.999961;stroke-linecap:round"
       d="m 1449.338,189.35155 c 0.6581,2.28174 -1.0453,4.77656 -3.8046,5.57236 -2.7593,0.7958 -5.5296,-0.40878 -6.1877,-2.69052 -0.6581,-2.28173 1.0453,-4.77656 3.8046,-5.57236 2.7593,-0.7958 5.5297,0.40879 6.1877,2.69052 z"
       id="ellipse16695"
       inkscape:connector-curvature="0" />
    <path
       id="path16697"
       d="m 1443.2864,191.91615 c -0.5,1.7 -2.1,2.7 -3.4,2.3 -1.4,-0.4 -2.6,-7.6 1.9,-6.1 1.4,0.4 2.1,2.1 1.5,3.8 z"
       inkscape:connector-curvature="0"
       style="fill:#ffffff;stroke:#000000;stroke-linecap:round" />
    <path
       id="path16699"
       d="m 1439.5864,188.31615 4.8,-3.4 c 0,0 3,2.1 -3.1,5.7"
       inkscape:connector-curvature="0"
       style="fill:#ffffff;stroke:#000000;stroke-linecap:round" />
    <path
       style="fill:#ffffff;stroke:#000000;stroke-linecap:round"
       inkscape:connector-curvature="0"
       d="m 1447.9864,186.31615 c 0,0 -3.4,-2.2 -4.1,0.8 l 3.5,1.1"
       id="path16703" />
    <path
       style="fill:#ffffff;stroke:#000000;stroke-linecap:round"
       inkscape:connector-curvature="0"
       d="m 1447.4864,188.01615 c 0,0 -3.4,-2.2 -4.1,0.8 l 3.5,1.1"
       id="path16705" />
    <path
       style="fill:#ffffff;stroke:#000000;stroke-linecap:round"
       inkscape:connector-curvature="0"
       d="m 1446.9864,189.61615 c 0,0 -3.4,-2.2 -4.1,0.8 l 3.5,1.1"
       id="path16707" />
    <path
       style="fill:#ffffff;stroke:#000000;stroke-linecap:round"
       inkscape:connector-curvature="0"
       d="m 1446.3864,191.41615 c 0,0 -3.4,-2.2 -4.1,0.8 l 3.5,1.1"
       id="path16709" />
    <path
       style="fill:#ed1c24;stroke:#ed1c24"
       d="m 1443.9864,183.91615 1.1,-5 -1.8,-4.8 5,1.1 4.8,-1.8 -1.1,5 1.8,4.8 -5,-1.1 z"
       id="polygon16713"
       inkscape:connector-curvature="0" />
    <path
       id="path16715"
       d="m 1448.4864,173.81615 c 6.6,0 1.7,3.1 1.7,3.1 0,0 3.1,-4.9 3.1,1.7 0,6.6 -3.1,1.7 -3.1,1.7 0,0 4.9,3.1 -1.7,3.1 -6.6,0 -1.7,-3.1 -1.7,-3.1 0,0 -3.1,4.9 -3.1,-1.7 0,-6.6 3.1,-1.7 3.1,-1.7 0,0 -4.8,-3 1.7,-3.1 z"
       inkscape:connector-curvature="0"
       style="fill:#fff200;stroke:#000000;stroke-linecap:round" />
    <path
       inkscape:connector-curvature="0"
       style="fill:#000000;fill-opacity:1;stroke:none"
       d="m 1461.991,247.19019 c -0.4116,-5.36074 -3.074,-5.21045 -3.5756,-4.77161 -0.6162,0.53914 -0.828,1.87018 -0.828,1.87018 l -0.019,-0.0124 c -0.9611,-0.72592 0.1689,-3.01818 0.1689,-3.01818 l -1.4257,2.18424 -0.037,0.057 -1.4258,2.18424 c 0,0 1.6437,-1.95699 2.695,-1.36929 0.01,0.004 0.013,0.009 0.019,0.0124 0,0 -1.1332,0.72954 -1.3788,1.51064 -0.1998,0.63579 0.7341,3.13352 5.8072,1.3528 z"
       id="path16719" />
    <path
       id="path16723"
       d="m 1458.452,252.61219 c -0.4116,-5.36074 -3.074,-5.21045 -3.5756,-4.77161 -0.6162,0.53914 -0.828,1.87018 -0.828,1.87018 l -0.019,-0.0124 c -0.9611,-0.72592 0.1689,-3.01818 0.1689,-3.01818 l -1.4257,2.18424 -0.037,0.057 -1.4258,2.18424 c 0,0 1.6437,-1.95699 2.695,-1.36929 0.01,0.004 0.013,0.009 0.019,0.0124 0,0 -1.1332,0.72954 -1.3788,1.51064 -0.1998,0.63579 0.7341,3.13352 5.8072,1.3528 z"
       style="fill:#000000;fill-opacity:1;stroke:none"
       inkscape:connector-curvature="0" />
    <path
       inkscape:connector-curvature="0"
       id="path25651"
       style="font-style:normal;font-variant:normal;font-weight:bold;font-stretch:normal;font-size:22.4px;line-height:125%;font-family:Comfortaa;-inkscape-font-specification:'Comfortaa Bold';letter-spacing:0px;word-spacing:0px;fill:#000000;fill-opacity:1;stroke:none"
       d="m 1421.1575,139.87557 c -0.773,0.6125 -1.5969,1.06459 -2.4719,1.35625 -0.875,0.29167 -1.8229,0.4375 -2.8438,0.4375 -2.4208,0 -4.4843,-0.85312 -6.1906,-2.55937 -1.7062,-1.70625 -2.5594,-3.76979 -2.5594,-6.19063 0,-2.41353 0.8532,-4.47342 2.5594,-6.17969 1.7136,-1.71352 3.7771,-2.57029 6.1906,-2.57031 2.4063,2e-5 4.4662,0.85679 6.1797,2.57031 0.8604,0.86043 1.5039,1.79924 1.9305,2.81641 0.4265,1.0172 0.6398,2.13829 0.6398,3.36328 0,1.02084 -0.1458,1.96876 -0.4375,2.84375 -0.2916,0.87501 -0.7437,1.69896 -1.3562,2.47188 l 1.4656,1.46562 c 0.2187,0.24063 0.3281,0.51042 0.3281,0.80938 0,0.16771 -0.029,0.32083 -0.088,0.45937 -0.058,0.13854 -0.1403,0.26068 -0.2461,0.36641 -0.1057,0.10573 -0.2297,0.18776 -0.3718,0.24609 -0.1422,0.0583 -0.2935,0.0875 -0.4539,0.0875 -0.3355,0 -0.6126,-0.11302 -0.8313,-0.33906 z m -3.1938,-3.18281 c -0.2187,-0.2552 -0.3281,-0.52864 -0.3281,-0.82031 0,-0.16041 0.029,-0.31172 0.088,-0.45391 0.058,-0.14218 0.1403,-0.26614 0.2461,-0.37187 0.1057,-0.10573 0.2278,-0.18776 0.3664,-0.2461 0.1385,-0.0583 0.2916,-0.0875 0.4594,-0.0875 0.3208,1e-5 0.5942,0.11303 0.8203,0.33906 l 1.5312,1.52032 c 0.7511,-1.05729 1.1266,-2.275 1.1266,-3.65313 0,-1.77186 -0.6271,-3.28488 -1.8813,-4.53906 -1.2614,-1.26144 -2.7781,-1.89217 -4.55,-1.89219 -0.9041,2e-5 -1.7299,0.15679 -2.4773,0.47031 -0.7474,0.31356 -1.4383,0.78752 -2.0727,1.42188 -0.6343,0.63439 -1.1065,1.32345 -1.4164,2.06719 -0.3099,0.74376 -0.4648,1.56771 -0.4648,2.47187 0,1.77917 0.6271,3.29584 1.8812,4.55 1.2542,1.25417 2.7709,1.88125 4.55,1.88125 1.3782,0 2.5995,-0.37552 3.6641,-1.12656 z" />
    <path
       id="path26474-4"
       d="m 1415.842,142.93177 c -0.1531,-0.01 -0.011,2.22578 -0.3637,3.42701 -0.8504,2.71155 -5.3588,3.59758 -7.0318,5.52848 -2.9777,3.43661 -1.3447,6.6205 1.3578,8.2927 2.5662,1.5878 5.6641,-0.74362 5.973,-0.98607 0,0.0628 -0.011,0.12363 -0.016,0.1859 -10e-4,0.0137 -0.01,0.0268 -0.01,0.0404 -0.3825,2.42321 -3.4205,3.42335 -4.704,3.74223 h -0.59 v 0.12932 h 0.8486 4.4374 0.01 0.1778 0.01 4.4373 0.8487 v -0.12932 h -0.5901 c -1.2834,-0.31888 -4.3215,-1.31902 -4.704,-3.74223 0,-0.0136 -0.01,-0.0267 -0.01,-0.0404 0,-0.0649 -0.012,-0.12826 -0.016,-0.19399 0.1514,0.12035 2.0651,1.6137 4.1544,1.54378 0.6092,-0.02 1.2274,-0.18384 1.8186,-0.54962 2.7026,-1.6722 4.3355,-4.85609 1.3579,-8.2927 -1.673,-1.9309 -6.1815,-2.81693 -7.0319,-5.52848 -0.3524,-1.20123 -0.2106,-3.43361 -0.3637,-3.42701 z"
       style="fill:#000000;fill-opacity:1;stroke:none"
       inkscape:connector-curvature="0" />
    <path
       inkscape:connector-curvature="0"
       id="path25615"
       style="font-style:normal;font-variant:normal;font-weight:bold;font-stretch:normal;font-size:22.4px;line-height:125%;font-family:Comfortaa;-inkscape-font-specification:'Comfortaa Bold';letter-spacing:0px;word-spacing:0px;fill:#000000;fill-opacity:1;stroke:none"
       d="m 1486.6192,239.22105 c 0.773,-0.6125 1.5969,-1.06458 2.4719,-1.35625 0.875,-0.29167 1.8229,-0.4375 2.8438,-0.4375 2.4208,0 4.4843,0.85313 6.1906,2.55938 1.7062,1.70624 2.5594,3.76978 2.5594,6.19062 0,2.41353 -0.8532,4.47343 -2.5594,6.17969 -1.7136,1.71352 -3.7771,2.57029 -6.1906,2.57031 -2.4063,-2e-5 -4.4662,-0.85679 -6.1797,-2.57031 -0.8604,-0.86043 -1.5039,-1.79923 -1.9305,-2.81641 -0.4265,-1.0172 -0.6398,-2.13829 -0.6398,-3.36328 0,-1.02084 0.1458,-1.96876 0.4375,-2.84375 0.2916,-0.875 0.7437,-1.69896 1.3562,-2.47187 l -1.4656,-1.46563 c -0.2187,-0.24063 -0.3281,-0.51042 -0.3281,-0.80937 0,-0.16771 0.029,-0.32084 0.087,-0.45938 0.058,-0.13854 0.1403,-0.26068 0.2461,-0.3664 0.1057,-0.10573 0.2297,-0.18777 0.3718,-0.2461 0.1422,-0.0583 0.2935,-0.0875 0.4539,-0.0875 0.3355,0 0.6125,0.11302 0.8313,0.33906 z m 3.1938,3.18281 c 0.2187,0.25521 0.3281,0.52864 0.3281,0.82032 0,0.16041 -0.029,0.31171 -0.087,0.4539 -0.058,0.14218 -0.1403,0.26614 -0.2461,0.37188 -0.1057,0.10572 -0.2278,0.18775 -0.3664,0.24609 -0.1385,0.0583 -0.2916,0.0875 -0.4594,0.0875 -0.3208,-1e-5 -0.5942,-0.11303 -0.8203,-0.33906 l -1.5312,-1.52031 c -0.7511,1.05728 -1.1266,2.27499 -1.1266,3.65312 0,1.77187 0.6271,3.28489 1.8813,4.53906 1.2614,1.26145 2.7781,1.89218 4.55,1.89219 0.9041,-1e-5 1.7299,-0.15678 2.4773,-0.47031 0.7474,-0.31356 1.4383,-0.78752 2.0727,-1.42188 0.6343,-0.63438 1.1065,-1.32345 1.4164,-2.06718 0.3099,-0.74376 0.4648,-1.56772 0.4648,-2.47188 0,-1.77917 -0.6271,-3.29584 -1.8812,-4.55 -1.2542,-1.25417 -2.7709,-1.88125 -4.55,-1.88125 -1.3782,0 -2.5995,0.37552 -3.6641,1.12656 z" />
    <path
       inkscape:connector-curvature="0"
       style="fill:#000000;fill-opacity:1;stroke:none"
       d="m 1491.9347,236.16486 c 0.1531,0.01 0.011,-2.22578 0.3637,-3.42701 0.8504,-2.71155 5.3588,-3.59758 7.0318,-5.52848 2.9777,-3.43661 1.3447,-6.6205 -1.3578,-8.2927 -2.5662,-1.5878 -5.6641,0.74362 -5.973,0.98607 0,-0.0628 0.011,-0.12363 0.016,-0.1859 10e-4,-0.0137 0.01,-0.0268 0.01,-0.0404 0.3825,-2.42321 3.4205,-3.42335 4.704,-3.74223 h 0.59 v -0.12932 h -0.8486 -4.4374 -0.01 -0.1778 -0.01 -4.4373 -0.8487 v 0.12932 h 0.5901 c 1.2834,0.31888 4.3215,1.31902 4.704,3.74223 0,0.0136 0.01,0.0267 0.01,0.0404 0.01,0.0649 0.012,0.12826 0.016,0.19399 -0.1514,-0.12035 -2.0651,-1.6137 -4.1544,-1.54378 -0.6092,0.02 -1.2274,0.18384 -1.8186,0.54962 -2.7026,1.6722 -4.3355,4.85609 -1.3579,8.2927 1.673,1.9309 6.1815,2.81693 7.0319,5.52848 0.3524,1.20123 0.2106,3.43361 0.3637,3.42701 z"
       id="path24576" />
  </g>
</svg>
