<?xml version="1.0" encoding="UTF-8" standalone="no"?>
<svg
   xmlns:dc="http://purl.org/dc/elements/1.1/"
   xmlns:cc="http://creativecommons.org/ns#"
   xmlns:rdf="http://www.w3.org/1999/02/22-rdf-syntax-ns#"
   xmlns:svg="http://www.w3.org/2000/svg"
   xmlns="http://www.w3.org/2000/svg"
   xmlns:sodipodi="http://sodipodi.sourceforge.net/DTD/sodipodi-0.dtd"
   xmlns:inkscape="http://www.inkscape.org/namespaces/inkscape"
   inkscape:version="1.0 (4035a4fb49, 2020-05-01)"
   sodipodi:docname="TC.svg"
   id="svg40"
   version="1.1"
   width="2.25in"
   viewBox="-106 -164.5 212 329"
   preserveAspectRatio="none"
   height="3.5in"
   face="TC"
   class="card">
  <metadata
     id="metadata46">
    <rdf:RDF>
      <cc:Work
         rdf:about="">
        <dc:format>image/svg+xml</dc:format>
        <dc:type
           rdf:resource="http://purl.org/dc/dcmitype/StillImage" />
      </cc:Work>
    </rdf:RDF>
  </metadata>
  <defs
     id="defs44" />
  <sodipodi:namedview
     inkscape:current-layer="svg40"
     inkscape:window-maximized="1"
     inkscape:window-y="-12"
     inkscape:window-x="-12"
     inkscape:cy="168"
     inkscape:cx="108"
     inkscape:zoom="2.2410714"
     showgrid="false"
     id="namedview42"
     inkscape:window-height="2050"
     inkscape:window-width="3240"
     inkscape:pageshadow="2"
     inkscape:pageopacity="0"
     guidetolerance="10"
     gridtolerance="10"
     objecttolerance="10"
     borderopacity="1"
     bordercolor="#666666"
     pagecolor="#ffffff" />
  <symbol
     preserveAspectRatio="xMinYMid"
     viewBox="-600 -600 1200 1200"
     id="SCT">
    <path
       id="path2"
       fill="black"
       d="M30 150C35 385 85 400 130 500L-130 500C-85 400 -35 385 -30 150A10 10 0 0 0 -50 150A210 210 0 1 1 -124 -51A10 10 0 0 0 -110 -65A230 230 0 1 1 110 -65A10 10 0 0 0 124 -51A210 210 0 1 1 50 150A10 10 0 0 0 30 150Z" />
  </symbol>
  <symbol
     preserveAspectRatio="xMinYMid"
     viewBox="-500 -500 1000 1000"
     id="VCT">
    <path
       id="path5"
       fill="none"
       stroke-miterlimit="1.5"
       stroke-linecap="square"
       stroke-width="80"
       stroke="black"
       d="M-260 430L-260 -430M-50 0L-50 -310A150 150 0 0 1 250 -310L250 310A150 150 0 0 1 -50 310Z" />
  </symbol>
  <rect
     id="rect8"
     stroke="black"
     fill="white"
     ry="12"
     rx="12"
     y="-164"
     x="-105.5"
     height="328"
     width="211" />
  <g
     transform="matrix(2.1926689,0,0,2.1874975,-2666.2598,-770.10458)"
     id="cardTC">
    <path
       inkscape:connector-curvature="0"
       id="path26052"
       style="font-style:normal;font-variant:normal;font-weight:bold;font-stretch:normal;font-size:22.4px;line-height:125%;font-family:Comfortaa;-inkscape-font-specification:'Comfortaa Bold';letter-spacing:0px;word-spacing:0px;fill:#000000;fill-opacity:1;stroke:none"
       d="m 1171.9208,303.03171 v -13.61718 c -0.2188,0.0729 -0.4484,0.15496 -0.6891,0.24609 -0.2406,0.0912 -0.4593,0.13673 -0.6562,0.13672 -0.3281,10e-6 -0.5998,-0.10754 -0.8149,-0.32266 -0.2151,-0.21509 -0.3226,-0.4867 -0.3226,-0.81484 0,-0.23332 0.06,-0.44113 0.1805,-0.62344 0.1203,-0.18227 0.3044,-0.33175 0.5523,-0.44844 l 2.5047,-0.83125 c 0.1312,-0.051 0.2625,-0.0765 0.3937,-0.0766 0.3282,2e-5 0.5998,0.11122 0.8149,0.3336 0.2151,0.22241 0.3226,0.49402 0.3226,0.81484 v 15.20312 c 0,0.31355 -0.1112,0.58152 -0.3336,0.80391 -0.2224,0.2224 -0.494,0.33359 -0.8148,0.33359 -0.3136,0 -0.5815,-0.11119 -0.8039,-0.33359 -0.2224,-0.22239 -0.3336,-0.49036 -0.3336,-0.80391 z" />
    <path
       inkscape:connector-curvature="0"
       id="path26054"
       style="font-style:normal;font-variant:normal;font-weight:bold;font-stretch:normal;font-size:22.4px;line-height:125%;font-family:Comfortaa;-inkscape-font-specification:'Comfortaa Bold';letter-spacing:0px;word-spacing:0px;fill:#000000;fill-opacity:1;stroke:none"
       d="m 1175.7489,295.40828 c 0,-1.37812 0.1203,-2.60859 0.361,-3.69141 0.2406,-1.0828 0.5869,-1.99972 1.039,-2.75078 0.4521,-0.75103 1.0099,-1.32524 1.6735,-1.72266 0.6635,-0.39738 1.4218,-0.59607 2.275,-0.59609 0.8531,2e-5 1.6114,0.20236 2.275,0.60703 0.6635,0.4047 1.2231,0.98439 1.6789,1.73906 0.4557,0.75471 0.802,1.67345 1.039,2.75625 0.237,1.08283 0.3555,2.30236 0.3555,3.6586 0,1.35625 -0.1185,2.57578 -0.3555,3.65859 -0.237,1.08282 -0.5833,2.00157 -1.039,2.75625 -0.4558,0.75469 -1.0154,1.33438 -1.6789,1.73906 -0.6636,0.40469 -1.4219,0.60703 -2.275,0.60703 -0.8532,0 -1.6115,-0.19869 -2.275,-0.59609 -0.6636,-0.39739 -1.2214,-0.96979 -1.6735,-1.71719 -0.4521,-0.74739 -0.7984,-1.66432 -1.039,-2.75078 -0.2407,-1.08645 -0.361,-2.31874 -0.361,-3.69687 z m 5.3485,-6.44219 c -0.5105,10e-6 -0.9571,0.16408 -1.3399,0.49219 -0.3828,0.32814 -0.7,0.77657 -0.9515,1.34531 -0.2516,0.56876 -0.4394,1.24871 -0.5633,2.03984 -0.124,0.79116 -0.186,1.64611 -0.186,2.56485 0,0.93334 0.062,1.79558 0.186,2.58672 0.1239,0.79115 0.3135,1.47109 0.5687,2.03984 0.2552,0.56875 0.5724,1.01354 0.9516,1.33437 0.3791,0.32084 0.8239,0.48126 1.3344,0.48125 0.5177,10e-6 0.9679,-0.16406 1.3507,-0.49218 0.3828,-0.32812 0.6982,-0.77838 0.9461,-1.35078 0.2479,-0.5724 0.4339,-1.25234 0.5578,-2.03985 0.124,-0.78749 0.186,-1.64062 0.186,-2.55937 0,-0.91145 -0.064,-1.76093 -0.1914,-2.54844 -0.1276,-0.78749 -0.3154,-1.46926 -0.5633,-2.04531 -0.2479,-0.57603 -0.5633,-1.02811 -0.9461,-1.35625 -0.3828,-0.32811 -0.8294,-0.49218 -1.3398,-0.49219 z" />
    <path
       style="fill:none;stroke:#000000;stroke-width:1.13773;stroke-opacity:1"
       d="m 1177.9419,309.43162 c -2.873,0 -5.1974,2.33242 -5.1974,5.20552 0,1.1277 0.3521,2.17092 0.9618,3.02307 -2.0026,0.23929 -3.5565,1.87188 -3.5565,3.86373 0,2.15645 1.8167,3.90414 4.0577,3.90414 1.4577,0 2.7279,-0.74051 3.4434,-1.85103 -0.1293,2.55387 -0.683,5.04191 -2.7079,5.35101 -0.044,0.007 -0.091,0.0197 -0.1373,0.0242 h -0.2668 v 0.12933 h 3.403 3.403 v -0.12933 h -0.2668 c -0.047,-0.005 -0.092,-0.0173 -0.1374,-0.0242 -2.0227,-0.30878 -2.5778,-2.79184 -2.7078,-5.34293 0.7162,1.1073 1.9883,1.84295 3.4435,1.84295 2.2409,0 4.0577,-1.74769 4.0577,-3.90414 0,-1.99433 -1.5504,-3.63573 -3.5567,-3.8718 0.6074,-0.85119 0.97,-1.88963 0.97,-3.015 0,-2.8731 -2.3324,-5.20552 -5.2055,-5.20552 z"
       id="path11550-8"
       inkscape:connector-curvature="0" />
    <path
       inkscape:connector-curvature="0"
       id="path26032"
       style="font-style:normal;font-variant:normal;font-weight:bold;font-stretch:normal;font-size:22.4px;line-height:125%;font-family:Comfortaa;-inkscape-font-specification:'Comfortaa Bold';letter-spacing:0px;word-spacing:0px;fill:#000000;fill-opacity:1;stroke:none"
       d="m 1260.0559,401.06471 v 13.61719 c 0.2187,-0.0729 0.4484,-0.15497 0.689,-0.2461 0.2406,-0.0912 0.4594,-0.13673 0.6563,-0.13672 0.3281,-1e-5 0.5997,0.10754 0.8148,0.32266 0.2151,0.21509 0.3227,0.4867 0.3227,0.81484 0,0.23332 -0.06,0.44113 -0.1805,0.62344 -0.1203,0.18228 -0.3044,0.33176 -0.5523,0.44844 l -2.5047,0.83125 c -0.1313,0.051 -0.2625,0.0765 -0.3938,0.0766 -0.3281,-2e-5 -0.5997,-0.11121 -0.8148,-0.33359 -0.2151,-0.22241 -0.3227,-0.49403 -0.3227,-0.81485 v -15.20312 c 0,-0.31354 0.1112,-0.58151 0.3336,-0.80391 0.2224,-0.22239 0.494,-0.33359 0.8149,-0.33359 0.3135,0 0.5815,0.1112 0.8039,0.33359 0.2224,0.2224 0.3336,0.49037 0.3336,0.80391 z" />
    <path
       inkscape:connector-curvature="0"
       id="path26034"
       style="font-style:normal;font-variant:normal;font-weight:bold;font-stretch:normal;font-size:22.4px;line-height:125%;font-family:Comfortaa;-inkscape-font-specification:'Comfortaa Bold';letter-spacing:0px;word-spacing:0px;fill:#000000;fill-opacity:1;stroke:none"
       d="m 1256.2277,408.68815 c 0,1.37811 -0.1203,2.60858 -0.3609,3.6914 -0.2406,1.0828 -0.587,1.99973 -1.0391,2.75078 -0.4521,0.75103 -1.0099,1.32525 -1.6734,1.72266 -0.6635,0.39738 -1.4219,0.59608 -2.275,0.59609 -0.8531,-10e-6 -1.6115,-0.20236 -2.275,-0.60703 -0.6635,-0.4047 -1.2232,-0.98439 -1.6789,-1.73906 -0.4557,-0.7547 -0.8021,-1.67345 -1.0391,-2.75625 -0.2369,-1.08282 -0.3554,-2.30235 -0.3554,-3.65859 0,-1.35626 0.1185,-2.57579 0.3554,-3.6586 0.237,-1.08281 0.5834,-2.00156 1.0391,-2.75625 0.4557,-0.75469 1.0154,-1.33437 1.6789,-1.73906 0.6635,-0.40469 1.4219,-0.60703 2.275,-0.60703 0.8531,0 1.6115,0.1987 2.275,0.59609 0.6635,0.3974 1.2213,0.96979 1.6734,1.71719 0.4521,0.74739 0.7985,1.66432 1.0391,2.75078 0.2406,1.08645 0.3609,2.31875 0.3609,3.69688 z m -5.3484,6.44218 c 0.5104,-1e-5 0.957,-0.16407 1.3398,-0.49218 0.3829,-0.32814 0.7,-0.77658 0.9516,-1.34532 0.2516,-0.56876 0.4393,-1.24871 0.5633,-2.03984 0.1239,-0.79116 0.1859,-1.6461 0.1859,-2.56484 0,-0.93334 -0.062,-1.79558 -0.1859,-2.58672 -0.124,-0.79115 -0.3136,-1.4711 -0.5688,-2.03985 -0.2552,-0.56875 -0.5724,-1.01354 -0.9515,-1.33437 -0.3792,-0.32084 -0.824,-0.48125 -1.3344,-0.48125 -0.5177,0 -0.968,0.16406 -1.3508,0.49219 -0.3828,0.32812 -0.6982,0.77838 -0.9461,1.35078 -0.2479,0.57239 -0.4338,1.25234 -0.5578,2.03984 -0.1239,0.7875 -0.1859,1.64062 -0.1859,2.55938 0,0.91145 0.064,1.76092 0.1914,2.54843 0.1276,0.78749 0.3153,1.46926 0.5633,2.04532 0.2479,0.57603 0.5632,1.02811 0.946,1.35625 0.3829,0.32811 0.8295,0.49217 1.3399,0.49218 z" />
    <path
       inkscape:connector-curvature="0"
       id="path13749"
       d="m 1254.0347,394.6648 c 2.873,0 5.1974,-2.33242 5.1974,-5.20552 0,-1.12771 -0.3521,-2.17093 -0.9618,-3.02308 2.0026,-0.23928 3.5565,-1.87187 3.5565,-3.86372 0,-2.15646 -1.8167,-3.90415 -4.0577,-3.90415 -1.4576,0 -2.7279,0.74052 -3.4434,1.85104 0.1293,-2.55387 0.6831,-5.04192 2.7079,-5.35102 0.044,-0.007 0.091,-0.0197 0.1373,-0.0242 h 0.2668 v -0.12932 h -3.403 -3.403 v 0.12932 h 0.2668 c 0.047,0.005 0.092,0.0173 0.1374,0.0242 2.0227,0.30879 2.5778,2.79185 2.7078,5.34294 -0.7162,-1.1073 -1.9883,-1.84296 -3.4434,-1.84296 -2.241,0 -4.0578,1.74769 -4.0578,3.90415 0,1.99433 1.5504,3.63572 3.5567,3.8718 -0.6074,0.85118 -0.97,1.88962 -0.97,3.015 0,2.8731 2.3324,5.20552 5.2055,5.20552 z"
       style="fill:none;stroke:#000000;stroke-width:1.13773;stroke-opacity:1" />
    <path
       style="fill:#000000;fill-opacity:1;stroke:none"
       d="m 1199.9883,298.09819 c -3.4578,0 -6.2554,2.80721 -6.2554,6.26517 0,1.35726 0.4238,2.61284 1.1577,3.63846 -2.4103,0.288 -4.2806,2.25292 -4.2806,4.65023 0,2.59543 2.1866,4.69888 4.8838,4.69888 1.7543,0 3.2832,-0.89125 4.1444,-2.22783 -0.1557,3.07374 -0.8222,6.06826 -3.2592,6.44028 -0.053,0.008 -0.1095,0.0237 -0.1653,0.0292 h -0.3211 v 0.15565 h 4.0957 4.0958 v -0.15565 h -0.3211 c -0.056,-0.005 -0.1109,-0.0208 -0.1654,-0.0292 -2.4344,-0.37164 -3.1025,-3.36016 -3.259,-6.43056 0.862,1.3327 2.393,2.21811 4.1444,2.21811 2.6972,0 4.8837,-2.10345 4.8837,-4.69888 0,-2.4003 -1.866,-4.37582 -4.2807,-4.65995 0.7311,-1.02445 1.1675,-2.27428 1.1675,-3.62874 0,-3.45796 -2.8072,-6.26517 -6.2652,-6.26517 z"
       id="path13799"
       inkscape:connector-curvature="0" />
    <path
       style="fill:#000000;fill-opacity:1;stroke:none"
       d="m 1231.9883,298.09819 c -3.4578,0 -6.2554,2.80721 -6.2554,6.26517 0,1.35726 0.4238,2.61284 1.1576,3.63846 -2.4102,0.288 -4.2805,2.25292 -4.2805,4.65023 0,2.59543 2.1866,4.69888 4.8837,4.69888 1.7544,0 3.2833,-0.89125 4.1444,-2.22783 -0.1556,3.07374 -0.8221,6.06826 -3.2591,6.44028 -0.053,0.008 -0.1095,0.0237 -0.1653,0.0292 h -0.3211 v 0.15565 h 4.0957 4.0958 v -0.15565 h -0.3211 c -0.056,-0.005 -0.1109,-0.0208 -0.1654,-0.0292 -2.4344,-0.37164 -3.1025,-3.36016 -3.259,-6.43056 0.862,1.3327 2.393,2.21811 4.1444,2.21811 2.6971,0 4.8837,-2.10345 4.8837,-4.69888 0,-2.4003 -1.866,-4.37582 -4.2807,-4.65995 0.7311,-1.02445 1.1675,-2.27428 1.1675,-3.62874 0,-3.45796 -2.8072,-6.26517 -6.2652,-6.26517 z"
       id="path13803"
       inkscape:connector-curvature="0" />
    <path
       style="fill:#000000;fill-opacity:1;stroke:none"
       d="m 1199.9884,407.3982 c 3.4578,0 6.2554,-2.80721 6.2554,-6.26516 0,-1.35727 -0.4238,-2.61285 -1.1576,-3.63846 2.4102,-0.288 4.2805,-2.25292 4.2805,-4.65023 0,-2.59543 -2.1866,-4.69889 -4.8837,-4.69889 -1.7544,0 -3.2833,0.89126 -4.1444,2.22783 0.1556,-3.07373 0.8221,-6.06825 3.2591,-6.44027 0.053,-0.008 0.1095,-0.0237 0.1653,-0.0292 h 0.3211 v -0.15565 h -4.0957 -4.0958 v 0.15565 h 0.3211 c 0.056,0.005 0.1109,0.0208 0.1654,0.0292 2.4344,0.37164 3.1025,3.36016 3.259,6.43055 -0.862,-1.3327 -2.393,-2.21811 -4.1444,-2.21811 -2.6971,0 -4.8837,2.10346 -4.8837,4.69889 0,2.40029 1.866,4.37581 4.2807,4.65995 -0.7311,1.02445 -1.1675,2.27428 -1.1675,3.62874 0,3.45795 2.8072,6.26516 6.2652,6.26516 z"
       id="path13813"
       inkscape:connector-curvature="0" />
    <path
       style="fill:#000000;fill-opacity:1;stroke:none"
       d="m 1231.9884,407.3982 c 3.4578,0 6.2554,-2.80721 6.2554,-6.26516 0,-1.35727 -0.4238,-2.61285 -1.1576,-3.63846 2.4102,-0.288 4.2805,-2.25292 4.2805,-4.65023 0,-2.59543 -2.1866,-4.69889 -4.8837,-4.69889 -1.7544,0 -3.2833,0.89126 -4.1444,2.22783 0.1556,-3.07373 0.8221,-6.06825 3.2591,-6.44027 0.053,-0.008 0.1095,-0.0237 0.1653,-0.0292 h 0.3211 v -0.15565 h -4.0957 -4.0958 v 0.15565 h 0.3211 c 0.056,0.005 0.1109,0.0208 0.1654,0.0292 2.4344,0.37164 3.1025,3.36016 3.259,6.43055 -0.862,-1.3327 -2.393,-2.21811 -4.1444,-2.21811 -2.6971,0 -4.8837,2.10346 -4.8837,4.69889 0,2.40029 1.866,4.37581 4.2807,4.65995 -0.7311,1.02445 -1.1675,2.27428 -1.1675,3.62874 0,3.45795 2.8072,6.26516 6.2652,6.26516 z"
       id="path13815"
       inkscape:connector-curvature="0" />
    <path
       inkscape:connector-curvature="0"
       id="path13882"
       d="m 1199.9883,326.64818 c -3.4578,0 -6.2554,2.80721 -6.2554,6.26517 0,1.35726 0.4238,2.61284 1.1577,3.63846 -2.4103,0.288 -4.2806,2.25292 -4.2806,4.65023 0,2.59543 2.1866,4.69888 4.8838,4.69888 1.7543,0 3.2832,-0.89125 4.1444,-2.22783 -0.1557,3.07374 -0.8222,6.06826 -3.2592,6.44028 -0.053,0.008 -0.1095,0.0237 -0.1653,0.0292 h -0.3211 v 0.15565 h 4.0957 4.0958 v -0.15565 h -0.3211 c -0.056,-0.005 -0.1109,-0.0208 -0.1654,-0.0292 -2.4344,-0.37164 -3.1025,-3.36016 -3.259,-6.43056 0.862,1.3327 2.393,2.21811 4.1444,2.21811 2.6972,0 4.8837,-2.10345 4.8837,-4.69888 0,-2.4003 -1.866,-4.37582 -4.2807,-4.65995 0.7311,-1.02445 1.1675,-2.27428 1.1675,-3.62874 0,-3.45796 -2.8072,-6.26517 -6.2652,-6.26517 z"
       style="fill:#000000;fill-opacity:1;stroke:none" />
    <path
       inkscape:connector-curvature="0"
       id="path13886"
       d="m 1231.9883,326.64818 c -3.4578,0 -6.2554,2.80721 -6.2554,6.26517 0,1.35726 0.4238,2.61284 1.1576,3.63846 -2.4102,0.288 -4.2805,2.25292 -4.2805,4.65023 0,2.59543 2.1866,4.69888 4.8837,4.69888 1.7544,0 3.2833,-0.89125 4.1444,-2.22783 -0.1556,3.07374 -0.8221,6.06826 -3.2591,6.44028 -0.053,0.008 -0.1095,0.0237 -0.1653,0.0292 h -0.3211 v 0.15565 h 4.0957 4.0958 v -0.15565 h -0.3211 c -0.056,-0.005 -0.1109,-0.0208 -0.1654,-0.0292 -2.4344,-0.37164 -3.1025,-3.36016 -3.259,-6.43056 0.862,1.3327 2.393,2.21811 4.1444,2.21811 2.6971,0 4.8837,-2.10345 4.8837,-4.69888 0,-2.4003 -1.866,-4.37582 -4.2807,-4.65995 0.7311,-1.02445 1.1675,-2.27428 1.1675,-3.62874 0,-3.45796 -2.8072,-6.26517 -6.2652,-6.26517 z"
       style="fill:#000000;fill-opacity:1;stroke:none" />
    <path
       inkscape:connector-curvature="0"
       id="path13892"
       d="m 1199.9884,378.84821 c 3.4578,0 6.2554,-2.80721 6.2554,-6.26516 0,-1.35727 -0.4238,-2.61285 -1.1576,-3.63846 2.4102,-0.288 4.2805,-2.25292 4.2805,-4.65023 0,-2.59543 -2.1866,-4.69889 -4.8837,-4.69889 -1.7544,0 -3.2833,0.89126 -4.1444,2.22783 0.1556,-3.07373 0.8221,-6.06825 3.2591,-6.44027 0.053,-0.008 0.1095,-0.0237 0.1653,-0.0292 h 0.3211 v -0.15565 h -4.0957 -4.0958 v 0.15565 h 0.3211 c 0.056,0.005 0.1109,0.0208 0.1654,0.0292 2.4344,0.37164 3.1025,3.36016 3.259,6.43055 -0.862,-1.3327 -2.393,-2.21811 -4.1444,-2.21811 -2.6971,0 -4.8837,2.10346 -4.8837,4.69889 0,2.40029 1.866,4.37581 4.2807,4.65995 -0.7311,1.02445 -1.1675,2.27428 -1.1675,3.62874 0,3.45795 2.8072,6.26516 6.2652,6.26516 z"
       style="fill:#000000;fill-opacity:1;stroke:none" />
    <path
       inkscape:connector-curvature="0"
       id="path13894"
       d="m 1231.9884,378.84821 c 3.4578,0 6.2554,-2.80721 6.2554,-6.26516 0,-1.35727 -0.4238,-2.61285 -1.1576,-3.63846 2.4102,-0.288 4.2805,-2.25292 4.2805,-4.65023 0,-2.59543 -2.1866,-4.69889 -4.8837,-4.69889 -1.7544,0 -3.2833,0.89126 -4.1444,2.22783 0.1556,-3.07373 0.8221,-6.06825 3.2591,-6.44027 0.053,-0.008 0.1095,-0.0237 0.1653,-0.0292 h 0.3211 v -0.15565 h -4.0957 -4.0958 v 0.15565 h 0.3211 c 0.056,0.005 0.1109,0.0208 0.1654,0.0292 2.4344,0.37164 3.1025,3.36016 3.259,6.43055 -0.862,-1.3327 -2.393,-2.21811 -4.1444,-2.21811 -2.6971,0 -4.8837,2.10346 -4.8837,4.69889 0,2.40029 1.866,4.37581 4.2807,4.65995 -0.7311,1.02445 -1.1675,2.27428 -1.1675,3.62874 0,3.45795 2.8072,6.26516 6.2652,6.26516 z"
       style="fill:#000000;fill-opacity:1;stroke:none" />
    <path
       inkscape:connector-curvature="0"
       id="path13952"
       d="m 1215.9883,313.34819 c -3.4579,0 -6.2554,2.80721 -6.2554,6.26517 0,1.35726 0.4238,2.61284 1.1576,3.63846 -2.4103,0.288 -4.2805,2.25292 -4.2805,4.65023 0,2.59543 2.1865,4.69888 4.8837,4.69888 1.7544,0 3.2833,-0.89125 4.1444,-2.22783 -0.1557,3.07374 -0.8221,6.06826 -3.2591,6.44028 -0.053,0.008 -0.1096,0.0237 -0.1653,0.0292 h -0.3211 v 0.15565 h 4.0957 4.0958 v -0.15565 h -0.3211 c -0.056,-0.005 -0.111,-0.0208 -0.1655,-0.0292 -2.4343,-0.37164 -3.1024,-3.36016 -3.259,-6.43056 0.862,1.3327 2.3931,2.21811 4.1445,2.21811 2.6971,0 4.8837,-2.10345 4.8837,-4.69888 0,-2.4003 -1.866,-4.37582 -4.2807,-4.65995 0.7311,-1.02445 1.1675,-2.27428 1.1675,-3.62874 0,-3.45796 -2.8073,-6.26517 -6.2652,-6.26517 z"
       style="fill:#000000;fill-opacity:1;stroke:none" />
    <path
       inkscape:connector-curvature="0"
       id="path13954"
       d="m 1215.9884,392.8982 c 3.4578,0 6.2554,-2.80721 6.2554,-6.26516 0,-1.35727 -0.4238,-2.61285 -1.1576,-3.63846 2.4102,-0.288 4.2805,-2.25292 4.2805,-4.65023 0,-2.59543 -2.1866,-4.69889 -4.8837,-4.69889 -1.7544,0 -3.2833,0.89126 -4.1444,2.22783 0.1556,-3.07373 0.8221,-6.06825 3.2591,-6.44027 0.053,-0.008 0.1095,-0.0237 0.1653,-0.0292 h 0.3211 v -0.15565 h -4.0957 -4.0958 v 0.15565 h 0.3211 c 0.056,0.005 0.1109,0.0208 0.1654,0.0292 2.4344,0.37164 3.1025,3.36016 3.259,6.43055 -0.862,-1.3327 -2.393,-2.21811 -4.1444,-2.21811 -2.6971,0 -4.8837,2.10346 -4.8837,4.69889 0,2.40029 1.866,4.37581 4.2807,4.65995 -0.7311,1.02445 -1.1675,2.27428 -1.1675,3.62874 0,3.45795 2.8072,6.26516 6.2652,6.26516 z"
       style="fill:#000000;fill-opacity:1;stroke:none" />
  </g>
</svg>
