<?xml version="1.0" encoding="UTF-8" standalone="no"?>
<svg
   xmlns:dc="http://purl.org/dc/elements/1.1/"
   xmlns:cc="http://creativecommons.org/ns#"
   xmlns:rdf="http://www.w3.org/1999/02/22-rdf-syntax-ns#"
   xmlns:svg="http://www.w3.org/2000/svg"
   xmlns="http://www.w3.org/2000/svg"
   xmlns:sodipodi="http://sodipodi.sourceforge.net/DTD/sodipodi-0.dtd"
   xmlns:inkscape="http://www.inkscape.org/namespaces/inkscape"
   inkscape:version="1.0 (4035a4fb49, 2020-05-01)"
   sodipodi:docname="TH.svg"
   id="svg40"
   version="1.1"
   width="2.25in"
   viewBox="-106 -164.5 212 329"
   preserveAspectRatio="none"
   height="3.5in"
   face="TH"
   class="card">
  <metadata
     id="metadata46">
    <rdf:RDF>
      <cc:Work
         rdf:about="">
        <dc:format>image/svg+xml</dc:format>
        <dc:type
           rdf:resource="http://purl.org/dc/dcmitype/StillImage" />
      </cc:Work>
    </rdf:RDF>
  </metadata>
  <defs
     id="defs44" />
  <sodipodi:namedview
     inkscape:current-layer="svg40"
     inkscape:window-maximized="1"
     inkscape:window-y="-12"
     inkscape:window-x="-12"
     inkscape:cy="168"
     inkscape:cx="108"
     inkscape:zoom="2.2410714"
     showgrid="false"
     id="namedview42"
     inkscape:window-height="2050"
     inkscape:window-width="3240"
     inkscape:pageshadow="2"
     inkscape:pageopacity="0"
     guidetolerance="10"
     gridtolerance="10"
     objecttolerance="10"
     borderopacity="1"
     bordercolor="#666666"
     pagecolor="#ffffff" />
  <symbol
     preserveAspectRatio="xMinYMid"
     viewBox="-600 -600 1200 1200"
     id="SHT">
    <path
       id="path2"
       fill="red"
       d="M0 -300C0 -400 100 -500 200 -500C300 -500 400 -400 400 -250C400 0 0 400 0 500C0 400 -400 0 -400 -250C-400 -400 -300 -500 -200 -500C-100 -500 0 -400 -0 -300Z" />
  </symbol>
  <symbol
     preserveAspectRatio="xMinYMid"
     viewBox="-500 -500 1000 1000"
     id="VHT">
    <path
       id="path5"
       fill="none"
       stroke-miterlimit="1.5"
       stroke-linecap="square"
       stroke-width="80"
       stroke="red"
       d="M-260 430L-260 -430M-50 0L-50 -310A150 150 0 0 1 250 -310L250 310A150 150 0 0 1 -50 310Z" />
  </symbol>
  <rect
     id="rect8"
     stroke="black"
     fill="white"
     ry="12"
     rx="12"
     y="-164"
     x="-105.5"
     height="328"
     width="211" />
  <g
     transform="matrix(2.1926689,0,0,2.1874975,-2666.2598,-1124.9168)"
     id="cardTH">
    <path
       inkscape:connector-curvature="0"
       id="path26047"
       style="font-style:normal;font-variant:normal;font-weight:bold;font-stretch:normal;font-size:22.4px;line-height:125%;font-family:Comfortaa;-inkscape-font-specification:'Comfortaa Bold';letter-spacing:0px;word-spacing:0px;fill:#ff0000;fill-opacity:1;stroke:none"
       d="m 1171.9208,465.23176 v -13.61719 c -0.2188,0.0729 -0.4484,0.15496 -0.6891,0.24609 -0.2406,0.0912 -0.4593,0.13674 -0.6562,0.13672 -0.3281,2e-5 -0.5998,-0.10754 -0.8149,-0.32265 -0.2151,-0.21509 -0.3226,-0.48671 -0.3226,-0.81485 0,-0.23332 0.06,-0.44113 0.1805,-0.62344 0.1203,-0.18227 0.3044,-0.33175 0.5523,-0.44843 l 2.5047,-0.83125 c 0.1312,-0.051 0.2625,-0.0765 0.3937,-0.0766 0.3282,2e-5 0.5998,0.11122 0.8149,0.3336 0.2151,0.22241 0.3226,0.49403 0.3226,0.81484 v 15.20313 c 0,0.31354 -0.1112,0.58151 -0.3336,0.8039 -0.2224,0.2224 -0.494,0.3336 -0.8148,0.3336 -0.3136,0 -0.5815,-0.1112 -0.8039,-0.3336 -0.2224,-0.22239 -0.3336,-0.49036 -0.3336,-0.8039 z" />
    <path
       inkscape:connector-curvature="0"
       id="path26049"
       style="font-style:normal;font-variant:normal;font-weight:bold;font-stretch:normal;font-size:22.4px;line-height:125%;font-family:Comfortaa;-inkscape-font-specification:'Comfortaa Bold';letter-spacing:0px;word-spacing:0px;fill:#ff0000;fill-opacity:1;stroke:none"
       d="m 1175.7489,457.60832 c 0,-1.37812 0.1203,-2.60858 0.361,-3.69141 0.2406,-1.0828 0.5869,-1.99972 1.039,-2.75078 0.4521,-0.75102 1.0099,-1.32524 1.6735,-1.72265 0.6635,-0.39738 1.4218,-0.59608 2.275,-0.5961 0.8531,2e-5 1.6114,0.20236 2.275,0.60703 0.6635,0.40471 1.2231,0.98439 1.6789,1.73907 0.4557,0.7547 0.802,1.67345 1.039,2.75625 0.237,1.08282 0.3555,2.30235 0.3555,3.65859 0,1.35626 -0.1185,2.57579 -0.3555,3.65859 -0.237,1.08282 -0.5833,2.00157 -1.039,2.75625 -0.4558,0.75469 -1.0154,1.33438 -1.6789,1.73907 -0.6636,0.40468 -1.4219,0.60703 -2.275,0.60703 -0.8532,0 -1.6115,-0.1987 -2.275,-0.5961 -0.6636,-0.39739 -1.2214,-0.96979 -1.6735,-1.71718 -0.4521,-0.7474 -0.7984,-1.66432 -1.039,-2.75079 -0.2407,-1.08645 -0.361,-2.31874 -0.361,-3.69687 z m 5.3485,-6.44219 c -0.5105,2e-5 -0.9571,0.16408 -1.3399,0.49219 -0.3828,0.32814 -0.7,0.77658 -0.9515,1.34531 -0.2516,0.56877 -0.4394,1.24871 -0.5633,2.03985 -0.124,0.79115 -0.186,1.6461 -0.186,2.56484 0,0.93334 0.062,1.79558 0.186,2.58672 0.1239,0.79115 0.3135,1.4711 0.5687,2.03984 0.2552,0.56876 0.5724,1.01355 0.9516,1.33438 0.3791,0.32083 0.8239,0.48125 1.3344,0.48125 0.5177,0 0.9679,-0.16406 1.3507,-0.49219 0.3828,-0.32812 0.6982,-0.77838 0.9461,-1.35078 0.2479,-0.57239 0.4339,-1.25234 0.5578,-2.03985 0.124,-0.78749 0.186,-1.64061 0.186,-2.55937 0,-0.91145 -0.064,-1.76093 -0.1914,-2.54844 -0.1276,-0.78749 -0.3154,-1.46926 -0.5633,-2.04531 -0.2479,-0.57603 -0.5633,-1.02811 -0.9461,-1.35625 -0.3828,-0.32811 -0.8294,-0.49217 -1.3398,-0.49219 z" />
    <path
       sodipodi:nodetypes="csscccssccccc"
       inkscape:connector-curvature="0"
       id="path11602-6"
       d="m 1173.7271,473.63398 c -0.609,0.0204 -1.2275,0.17732 -1.8186,0.54304 -2.702,1.67187 -4.341,4.86113 -1.3639,8.29712 1.6727,1.93048 6.1841,2.81404 7.0342,5.52509 0.3525,1.20105 0.2069,3.42903 0.36,3.4224 0.153,0.007 0.014,-2.22135 0.3662,-3.4224 0.8502,-2.71105 5.3616,-3.59461 7.0342,-5.52509 2.9771,-3.43599 1.3381,-6.62525 -1.3639,-8.29712 -2.7021,-1.67185 -6.0239,1.03556 -6.0239,1.03556 l -0.019,0.0252 v -0.0252 c 0,0 -2.0305,-1.65142 -4.2054,-1.5786 z"
       style="fill:#ff0000;fill-opacity:1;stroke:none" />
    <path
       inkscape:connector-curvature="0"
       id="path26027"
       style="font-style:normal;font-variant:normal;font-weight:bold;font-stretch:normal;font-size:22.4px;line-height:125%;font-family:Comfortaa;-inkscape-font-specification:'Comfortaa Bold';letter-spacing:0px;word-spacing:0px;fill:#ff0000;fill-opacity:1;stroke:none"
       d="m 1260.0559,563.26475 v 13.61719 c 0.2187,-0.0729 0.4484,-0.15496 0.689,-0.24609 0.2406,-0.0912 0.4594,-0.13674 0.6563,-0.13672 0.3281,-2e-5 0.5997,0.10754 0.8148,0.32265 0.2151,0.21509 0.3227,0.48671 0.3227,0.81485 0,0.23332 -0.06,0.44113 -0.1805,0.62343 -0.1203,0.18228 -0.3044,0.33176 -0.5523,0.44844 l -2.5047,0.83125 c -0.1313,0.051 -0.2625,0.0765 -0.3938,0.0766 -0.3281,-10e-6 -0.5997,-0.11121 -0.8148,-0.33359 -0.2151,-0.22241 -0.3227,-0.49403 -0.3227,-0.81484 v -15.20313 c 0,-0.31354 0.1112,-0.58151 0.3336,-0.8039 0.2224,-0.2224 0.494,-0.3336 0.8149,-0.3336 0.3135,0 0.5815,0.1112 0.8039,0.3336 0.2224,0.22239 0.3336,0.49036 0.3336,0.8039 z" />
    <path
       inkscape:connector-curvature="0"
       id="path26029"
       style="font-style:normal;font-variant:normal;font-weight:bold;font-stretch:normal;font-size:22.4px;line-height:125%;font-family:Comfortaa;-inkscape-font-specification:'Comfortaa Bold';letter-spacing:0px;word-spacing:0px;fill:#ff0000;fill-opacity:1;stroke:none"
       d="m 1256.2277,570.88819 c 0,1.37811 -0.1203,2.60858 -0.3609,3.69141 -0.2406,1.0828 -0.587,1.99972 -1.0391,2.75078 -0.4521,0.75102 -1.0099,1.32524 -1.6734,1.72265 -0.6635,0.39738 -1.4219,0.59608 -2.275,0.5961 -0.8531,-2e-5 -1.6115,-0.20236 -2.275,-0.60703 -0.6635,-0.40471 -1.2232,-0.98439 -1.6789,-1.73907 -0.4557,-0.7547 -0.8021,-1.67345 -1.0391,-2.75625 -0.2369,-1.08282 -0.3554,-2.30235 -0.3554,-3.65859 0,-1.35626 0.1185,-2.57579 0.3554,-3.65859 0.237,-1.08282 0.5834,-2.00157 1.0391,-2.75625 0.4557,-0.75469 1.0154,-1.33438 1.6789,-1.73907 0.6635,-0.40468 1.4219,-0.60703 2.275,-0.60703 0.8531,0 1.6115,0.1987 2.275,0.5961 0.6635,0.39739 1.2213,0.96979 1.6734,1.71718 0.4521,0.7474 0.7985,1.66432 1.0391,2.75079 0.2406,1.08645 0.3609,2.31874 0.3609,3.69687 z m -5.3484,6.44219 c 0.5104,-2e-5 0.957,-0.16408 1.3398,-0.49219 0.3829,-0.32814 0.7,-0.77658 0.9516,-1.34531 0.2516,-0.56877 0.4393,-1.24871 0.5633,-2.03985 0.1239,-0.79115 0.1859,-1.6461 0.1859,-2.56484 0,-0.93334 -0.062,-1.79558 -0.1859,-2.58672 -0.124,-0.79115 -0.3136,-1.4711 -0.5688,-2.03984 -0.2552,-0.56876 -0.5724,-1.01355 -0.9515,-1.33438 -0.3792,-0.32083 -0.824,-0.48125 -1.3344,-0.48125 -0.5177,0 -0.968,0.16406 -1.3508,0.49219 -0.3828,0.32812 -0.6982,0.77838 -0.9461,1.35078 -0.2479,0.57239 -0.4338,1.25234 -0.5578,2.03985 -0.1239,0.78749 -0.1859,1.64061 -0.1859,2.55937 0,0.91145 0.064,1.76093 0.1914,2.54844 0.1276,0.78749 0.3153,1.46926 0.5633,2.04531 0.2479,0.57603 0.5632,1.02811 0.946,1.35625 0.3829,0.32811 0.8295,0.49217 1.3399,0.49219 z" />
    <path
       style="fill:#ff0000;fill-opacity:1;stroke:none"
       d="m 1258.2496,554.86247 c 0.6089,-0.0204 1.2275,-0.17732 1.8185,-0.54304 2.7021,-1.67187 4.341,-4.86113 1.3639,-8.29712 -1.6726,-1.93048 -6.184,-2.81404 -7.0342,-5.52509 -0.3525,-1.20105 -0.2069,-3.42903 -0.3599,-3.4224 -0.1531,-0.007 -0.014,2.22135 -0.3663,3.4224 -0.8501,2.71105 -5.3615,3.59461 -7.0342,5.52509 -2.977,3.43599 -1.3381,6.62525 1.3639,8.29712 2.7021,1.67185 6.0239,-1.03556 6.0239,-1.03556 l 0.019,-0.0252 v 0.0252 c 0,0 2.0304,1.65142 4.2053,1.5786 z"
       id="path13759"
       inkscape:connector-curvature="0"
       sodipodi:nodetypes="csscccssccccc" />
    <path
       sodipodi:nodetypes="csscccssccccc"
       inkscape:connector-curvature="0"
       id="path13822"
       d="m 1196.8585,460.16139 c -0.8314,0.0279 -1.6759,0.24211 -2.4829,0.74146 -3.6893,2.28272 -5.9271,6.63726 -1.8623,11.32867 2.2838,2.63582 8.4435,3.84221 9.6043,7.54381 0.4813,1.63988 0.2825,4.68191 0.4914,4.67285 0.209,0.01 0.019,-3.03297 0.5,-4.67285 1.1609,-3.7016 7.3206,-4.90799 9.6045,-7.54381 4.0648,-4.69141 1.827,-9.04595 -1.8623,-11.32867 -3.6893,-2.2827 -8.2249,1.41392 -8.2249,1.41392 l -0.026,0.0344 v -0.0344 c 0,0 -2.7724,-2.2548 -5.7419,-2.15538 z"
       style="fill:#ff0000;fill-opacity:1;stroke:none" />
    <path
       sodipodi:nodetypes="csscccssccccc"
       inkscape:connector-curvature="0"
       id="path13824"
       d="m 1223.6085,460.16139 c -0.8314,0.0279 -1.6759,0.24211 -2.4829,0.74146 -3.6893,2.28272 -5.9271,6.63726 -1.8623,11.32867 2.2838,2.63582 8.4436,3.84221 9.6043,7.54381 0.4813,1.63988 0.2825,4.68191 0.4915,4.67285 0.2089,0.01 0.019,-3.03297 0.5,-4.67285 1.1608,-3.7016 7.3206,-4.90799 9.6044,-7.54381 4.0648,-4.69141 1.827,-9.04595 -1.8623,-11.32867 -3.6893,-2.2827 -8.2249,1.41392 -8.2249,1.41392 l -0.026,0.0344 v -0.0344 c 0,0 -2.7724,-2.2548 -5.7419,-2.15538 z"
       style="fill:#ff0000;fill-opacity:1;stroke:none" />
    <path
       sodipodi:nodetypes="csscccssccccc"
       inkscape:connector-curvature="0"
       id="path13830"
       d="m 1208.3681,564.73501 c 0.8316,-0.0279 1.676,-0.24211 2.483,-0.74146 3.6893,-2.28272 5.9272,-6.63726 1.8623,-11.32867 -2.2837,-2.63582 -8.4435,-3.84221 -9.6043,-7.54381 -0.4812,-1.63988 -0.2825,-4.68191 -0.4915,-4.67285 -0.209,-0.01 -0.019,3.03297 -0.5,4.67285 -1.1608,3.7016 -7.3206,4.90799 -9.6044,7.54381 -4.0648,4.69141 -1.827,9.04595 1.8622,11.32867 3.6894,2.2827 8.225,-1.41392 8.225,-1.41392 l 0.026,-0.0344 v 0.0344 c 0,0 2.7724,2.2548 5.7419,2.15538 z"
       style="fill:#ff0000;fill-opacity:1;stroke:none" />
    <path
       sodipodi:nodetypes="csscccssccccc"
       inkscape:connector-curvature="0"
       id="path13832"
       d="m 1235.1181,564.73501 c 0.8316,-0.0279 1.676,-0.24211 2.483,-0.74146 3.6893,-2.28272 5.9272,-6.63726 1.8623,-11.32867 -2.2837,-2.63582 -8.4436,-3.84221 -9.6043,-7.54381 -0.4812,-1.63988 -0.2825,-4.68191 -0.4915,-4.67285 -0.209,-0.01 -0.019,3.03297 -0.5,4.67285 -1.1608,3.7016 -7.3206,4.90799 -9.6044,7.54381 -4.0648,4.69141 -1.827,9.04595 1.8622,11.32867 3.6894,2.2827 8.225,-1.41392 8.225,-1.41392 l 0.026,-0.0344 v 0.0344 c 0,0 2.7724,2.2548 5.7419,2.15538 z"
       style="fill:#ff0000;fill-opacity:1;stroke:none" />
    <path
       style="fill:#ff0000;fill-opacity:1;stroke:none"
       d="m 1196.8585,492.92471 c -0.8314,0.0279 -1.6759,0.24211 -2.4829,0.74146 -3.6893,2.28272 -5.9271,6.63726 -1.8623,11.32867 2.2838,2.63582 8.4435,1.84221 9.6043,5.54381 0.4813,1.63988 0.2825,4.68191 0.4914,4.67285 0.209,0.01 0.019,-3.03297 0.5,-4.67285 1.1609,-3.7016 7.3206,-2.90799 9.6045,-5.54381 4.0648,-4.69141 1.827,-9.04595 -1.8623,-11.32867 -3.6893,-2.2827 -8.2249,1.41392 -8.2249,1.41392 l -0.026,0.0344 v -0.0344 c 0,0 -2.7724,-2.2548 -5.7419,-2.15538 z"
       id="path13868"
       inkscape:connector-curvature="0"
       sodipodi:nodetypes="csscccssccccc" />
    <path
       style="fill:#ff0000;fill-opacity:1;stroke:none"
       d="m 1223.6085,492.92471 c -0.8314,0.0279 -1.6759,0.24211 -2.4829,0.74146 -3.6893,2.28272 -5.9271,6.63726 -1.8623,11.32867 2.2838,2.63582 8.4436,1.84221 9.6043,5.54381 0.4813,1.63988 0.2825,4.68191 0.4915,4.67285 0.2089,0.01 0.019,-3.03297 0.5,-4.67285 1.1608,-3.7016 7.3206,-2.90799 9.6044,-5.54381 4.0648,-4.69141 1.827,-9.04595 -1.8623,-11.32867 -3.6893,-2.2827 -8.2249,1.41392 -8.2249,1.41392 l -0.026,0.0344 v -0.0344 c 0,0 -2.7724,-2.2548 -5.7419,-2.15538 z"
       id="path13870"
       inkscape:connector-curvature="0"
       sodipodi:nodetypes="csscccssccccc" />
    <path
       style="fill:#ff0000;fill-opacity:1;stroke:none"
       d="m 1208.3681,532.41103 c 0.8316,-0.0279 1.676,-0.24211 2.483,-0.74146 3.6893,-2.28272 5.9272,-6.63726 1.8623,-11.32867 -2.2837,-2.63582 -8.4435,-1.84221 -9.6043,-5.54381 -0.4812,-1.63988 -0.2825,-4.68191 -0.4915,-4.67285 -0.209,-0.01 -0.019,3.03297 -0.5,4.67285 -1.1608,3.7016 -7.3206,2.90799 -9.6044,5.54381 -4.0648,4.69141 -1.827,9.04595 1.8622,11.32867 3.6894,2.2827 8.225,-1.41392 8.225,-1.41392 l 0.026,-0.0344 v 0.0344 c 0,0 2.7724,2.2548 5.7419,2.15538 z"
       id="path13874"
       inkscape:connector-curvature="0"
       sodipodi:nodetypes="csscccssccccc" />
    <path
       style="fill:#ff0000;fill-opacity:1;stroke:none"
       d="m 1235.1181,532.41103 c 0.8316,-0.0279 1.676,-0.24211 2.483,-0.74146 3.6893,-2.28272 5.9272,-6.63726 1.8623,-11.32867 -2.2837,-2.63582 -8.4436,-1.84221 -9.6043,-5.54381 -0.4812,-1.63988 -0.2825,-4.68191 -0.4915,-4.67285 -0.209,-0.01 -0.019,3.03297 -0.5,4.67285 -1.1608,3.7016 -7.3206,2.90799 -9.6044,5.54381 -4.0648,4.69141 -1.827,9.04595 1.8622,11.32867 3.6894,2.2827 8.225,-1.41392 8.225,-1.41392 l 0.026,-0.0344 v 0.0344 c 0,0 2.7724,2.2548 5.7419,2.15538 z"
       id="path13876"
       inkscape:connector-curvature="0"
       sodipodi:nodetypes="csscccssccccc" />
    <path
       style="fill:#ff0000;fill-opacity:1;stroke:none"
       d="m 1210.2334,476.86849 c -0.8314,0.0279 -1.6759,0.24211 -2.4829,0.74146 -3.6893,2.28272 -5.9271,6.63726 -1.8623,11.32867 2.2838,2.63582 8.4436,3.84221 9.6043,7.54381 0.4813,1.63988 0.2825,4.68191 0.4915,4.67285 0.2089,0.01 0.019,-3.03297 0.5,-4.67285 1.1608,-3.7016 7.3206,-4.90799 9.6044,-7.54381 4.0648,-4.69141 1.827,-9.04595 -1.8623,-11.32867 -3.6893,-2.2827 -8.2249,1.41392 -8.2249,1.41392 l -0.026,0.0344 v -0.0344 c 0,0 -2.7724,-2.2548 -5.7419,-2.15538 z"
       id="path13956"
       inkscape:connector-curvature="0"
       sodipodi:nodetypes="csscccssccccc" />
    <path
       style="fill:#ff0000;fill-opacity:1;stroke:none"
       d="m 1221.7431,548.73501 c 0.8316,-0.0279 1.676,-0.24211 2.483,-0.74146 3.6893,-2.28272 5.9272,-6.63726 1.8623,-11.32867 -2.2837,-2.63582 -8.4436,-3.84221 -9.6043,-7.54381 -0.4812,-1.63988 -0.2825,-4.68191 -0.4915,-4.67285 -0.209,-0.01 -0.019,3.03297 -0.5,4.67285 -1.1608,3.7016 -7.3206,4.90799 -9.6044,7.54381 -4.0648,4.69141 -1.827,9.04595 1.8622,11.32867 3.6894,2.2827 8.225,-1.41392 8.225,-1.41392 l 0.026,-0.0344 v 0.0344 c 0,0 2.7724,2.2548 5.7419,2.15538 z"
       id="path13958"
       inkscape:connector-curvature="0"
       sodipodi:nodetypes="csscccssccccc" />
    <path
       style="fill:#ffffff;stroke:#ffffff;stroke-width:2;stroke-linecap:butt;stroke-linejoin:miter;stroke-miterlimit:4;stroke-dasharray:none;stroke-opacity:1"
       d="m 1189.7133,513.37322 h 55.25"
       id="path13960"
       inkscape:connector-curvature="0" />
  </g>
</svg>
