<?xml version="1.0" encoding="UTF-8" standalone="no"?>
<svg
   xmlns:dc="http://purl.org/dc/elements/1.1/"
   xmlns:cc="http://creativecommons.org/ns#"
   xmlns:rdf="http://www.w3.org/1999/02/22-rdf-syntax-ns#"
   xmlns:svg="http://www.w3.org/2000/svg"
   xmlns="http://www.w3.org/2000/svg"
   xmlns:sodipodi="http://sodipodi.sourceforge.net/DTD/sodipodi-0.dtd"
   xmlns:inkscape="http://www.inkscape.org/namespaces/inkscape"
   inkscape:version="1.0 (4035a4fb49, 2020-05-01)"
   sodipodi:docname="TS.svg"
   id="svg40"
   version="1.1"
   width="2.25in"
   viewBox="-106 -164.5 212 329"
   preserveAspectRatio="none"
   height="3.5in"
   face="TS"
   class="card">
  <metadata
     id="metadata46">
    <rdf:RDF>
      <cc:Work
         rdf:about="">
        <dc:format>image/svg+xml</dc:format>
        <dc:type
           rdf:resource="http://purl.org/dc/dcmitype/StillImage" />
      </cc:Work>
    </rdf:RDF>
  </metadata>
  <defs
     id="defs44" />
  <sodipodi:namedview
     inkscape:current-layer="svg40"
     inkscape:window-maximized="1"
     inkscape:window-y="-12"
     inkscape:window-x="-12"
     inkscape:cy="168"
     inkscape:cx="108"
     inkscape:zoom="2.2410714"
     showgrid="false"
     id="namedview42"
     inkscape:window-height="2050"
     inkscape:window-width="3240"
     inkscape:pageshadow="2"
     inkscape:pageopacity="0"
     guidetolerance="10"
     gridtolerance="10"
     objecttolerance="10"
     borderopacity="1"
     bordercolor="#666666"
     pagecolor="#ffffff" />
  <symbol
     preserveAspectRatio="xMinYMid"
     viewBox="-600 -600 1200 1200"
     id="SST">
    <path
       id="path2"
       fill="black"
       d="M0 -500C100 -250 355 -100 355 185A150 150 0 0 1 55 185A10 10 0 0 0 35 185C35 385 85 400 130 500L-130 500C-85 400 -35 385 -35 185A10 10 0 0 0 -55 185A150 150 0 0 1 -355 185C-355 -100 -100 -250 0 -500Z" />
  </symbol>
  <symbol
     preserveAspectRatio="xMinYMid"
     viewBox="-500 -500 1000 1000"
     id="VST">
    <path
       id="path5"
       fill="none"
       stroke-miterlimit="1.5"
       stroke-linecap="square"
       stroke-width="80"
       stroke="black"
       d="M-260 430L-260 -430M-50 0L-50 -310A150 150 0 0 1 250 -310L250 310A150 150 0 0 1 -50 310Z" />
  </symbol>
  <rect
     id="rect8"
     stroke="black"
     fill="white"
     ry="12"
     rx="12"
     y="-164"
     x="-105.5"
     height="328"
     width="211" />
  <g
     transform="matrix(2.1926689,0,0,2.1874975,-2666.2597,-413.76124)"
     id="cardTS">
    <path
       inkscape:connector-curvature="0"
       id="path26037"
       style="font-style:normal;font-variant:normal;font-weight:bold;font-stretch:normal;font-size:22.4px;line-height:125%;font-family:Comfortaa;-inkscape-font-specification:'Comfortaa Bold';letter-spacing:0px;word-spacing:0px;fill:#000000;fill-opacity:1;stroke:none"
       d="m 1171.9208,140.13171 v -13.61719 c -0.2188,0.0729 -0.4484,0.15496 -0.6891,0.24609 -0.2406,0.0912 -0.4593,0.13673 -0.6562,0.13672 -0.3281,1e-5 -0.5998,-0.10754 -0.8149,-0.32266 -0.2151,-0.21509 -0.3226,-0.4867 -0.3226,-0.81484 0,-0.23332 0.06,-0.44113 0.1805,-0.62344 0.1203,-0.18227 0.3044,-0.33175 0.5523,-0.44843 l 2.5047,-0.83125 c 0.1312,-0.051 0.2625,-0.0765 0.3937,-0.0766 0.3282,2e-5 0.5998,0.11122 0.8149,0.3336 0.2151,0.22241 0.3226,0.49402 0.3226,0.81484 v 15.20313 c 0,0.31354 -0.1112,0.58151 -0.3336,0.8039 -0.2224,0.2224 -0.494,0.3336 -0.8148,0.3336 -0.3136,0 -0.5815,-0.1112 -0.8039,-0.3336 -0.2224,-0.22239 -0.3336,-0.49036 -0.3336,-0.8039 z" />
    <path
       inkscape:connector-curvature="0"
       id="path26039"
       style="font-style:normal;font-variant:normal;font-weight:bold;font-stretch:normal;font-size:22.4px;line-height:125%;font-family:Comfortaa;-inkscape-font-specification:'Comfortaa Bold';letter-spacing:0px;word-spacing:0px;fill:#000000;fill-opacity:1;stroke:none"
       d="m 1175.7489,132.50827 c 0,-1.37812 0.1203,-2.60858 0.361,-3.69141 0.2406,-1.0828 0.5869,-1.99972 1.039,-2.75078 0.4521,-0.75103 1.0099,-1.32524 1.6735,-1.72266 0.6635,-0.39737 1.4218,-0.59607 2.275,-0.59609 0.8531,2e-5 1.6114,0.20236 2.275,0.60703 0.6635,0.40471 1.2231,0.98439 1.6789,1.73906 0.4557,0.75471 0.802,1.67346 1.039,2.75625 0.237,1.08283 0.3555,2.30236 0.3555,3.6586 0,1.35626 -0.1185,2.57579 -0.3555,3.65859 -0.237,1.08282 -0.5833,2.00157 -1.039,2.75625 -0.4558,0.75469 -1.0154,1.33438 -1.6789,1.73906 -0.6636,0.40469 -1.4219,0.60704 -2.275,0.60704 -0.8532,0 -1.6115,-0.1987 -2.275,-0.5961 -0.6636,-0.39739 -1.2214,-0.96979 -1.6735,-1.71719 -0.4521,-0.74739 -0.7984,-1.66431 -1.039,-2.75078 -0.2407,-1.08645 -0.361,-2.31874 -0.361,-3.69687 z m 5.3485,-6.44219 c -0.5105,2e-5 -0.9571,0.16408 -1.3399,0.49219 -0.3828,0.32814 -0.7,0.77657 -0.9515,1.34531 -0.2516,0.56876 -0.4394,1.24871 -0.5633,2.03984 -0.124,0.79116 -0.186,1.64611 -0.186,2.56485 0,0.93334 0.062,1.79558 0.186,2.58672 0.1239,0.79115 0.3135,1.4711 0.5687,2.03984 0.2552,0.56875 0.5724,1.01355 0.9516,1.33438 0.3791,0.32083 0.8239,0.48125 1.3344,0.48125 0.5177,0 0.9679,-0.16406 1.3507,-0.49219 0.3828,-0.32812 0.6982,-0.77838 0.9461,-1.35078 0.2479,-0.57239 0.4339,-1.25234 0.5578,-2.03985 0.124,-0.78749 0.186,-1.64061 0.186,-2.55937 0,-0.91145 -0.064,-1.76093 -0.1914,-2.54844 -0.1276,-0.78749 -0.3154,-1.46926 -0.5633,-2.04531 -0.2479,-0.57603 -0.5633,-1.02811 -0.9461,-1.35625 -0.3828,-0.32811 -0.8294,-0.49217 -1.3398,-0.49219 z" />
    <path
       id="path26470-6"
       d="m 1177.942,142.53166 c -0.1531,-0.01 -0.011,2.22578 -0.3637,3.42701 -0.8504,2.71155 -5.3589,3.59758 -7.0319,5.52848 -2.9776,3.43661 -1.3447,6.6205 1.3579,8.2927 2.5661,1.5878 5.664,-0.74362 5.973,-0.98607 0,0.0628 -0.011,0.12363 -0.016,0.1859 -10e-4,0.0137 -0.01,0.0268 -0.01,0.0404 -0.3825,2.42321 -3.4205,3.42335 -4.704,3.74223 h -0.5901 v 0.12932 h 0.8487 4.4373 0.01 0.1779 0.01 4.4373 0.8487 v -0.12932 h -0.5901 c -1.2834,-0.31888 -4.3215,-1.31902 -4.704,-3.74223 0,-0.0136 -0.01,-0.0267 -0.01,-0.0404 -0.01,-0.0649 -0.012,-0.12826 -0.016,-0.19399 0.1514,0.12035 2.0651,1.6137 4.1544,1.54378 0.6092,-0.02 1.2274,-0.18384 1.8186,-0.54962 2.7025,-1.6722 4.3355,-4.85609 1.3578,-8.2927 -1.673,-1.9309 -6.1814,-2.81693 -7.0318,-5.52848 -0.3525,-1.20123 -0.2106,-3.43361 -0.3637,-3.42701 z"
       style="fill:#000000;fill-opacity:1;stroke:none"
       inkscape:connector-curvature="0" />
    <path
       inkscape:connector-curvature="0"
       id="path26017"
       style="font-style:normal;font-variant:normal;font-weight:bold;font-stretch:normal;font-size:22.4px;line-height:125%;font-family:Comfortaa;-inkscape-font-specification:'Comfortaa Bold';letter-spacing:0px;word-spacing:0px;fill:#000000;fill-opacity:1;stroke:none"
       d="m 1260.0559,238.16472 v 13.61718 c 0.2187,-0.0729 0.4484,-0.15496 0.689,-0.24609 0.2406,-0.0912 0.4594,-0.13673 0.6563,-0.13672 0.3281,-1e-5 0.5997,0.10754 0.8148,0.32266 0.2151,0.21509 0.3227,0.4867 0.3227,0.81484 0,0.23332 -0.06,0.44113 -0.1805,0.62344 -0.1203,0.18227 -0.3044,0.33175 -0.5523,0.44844 l -2.5047,0.83125 c -0.1313,0.051 -0.2625,0.0765 -0.3938,0.0766 -0.3281,-2e-5 -0.5997,-0.11122 -0.8148,-0.3336 -0.2151,-0.22241 -0.3227,-0.49402 -0.3227,-0.81484 v -15.20312 c 0,-0.31355 0.1112,-0.58151 0.3336,-0.80391 0.2224,-0.2224 0.494,-0.33359 0.8149,-0.33359 0.3135,0 0.5815,0.11119 0.8039,0.33359 0.2224,0.2224 0.3336,0.49036 0.3336,0.80391 z" />
    <path
       inkscape:connector-curvature="0"
       id="path26019"
       style="font-style:normal;font-variant:normal;font-weight:bold;font-stretch:normal;font-size:22.4px;line-height:125%;font-family:Comfortaa;-inkscape-font-specification:'Comfortaa Bold';letter-spacing:0px;word-spacing:0px;fill:#000000;fill-opacity:1;stroke:none"
       d="m 1256.2277,245.78815 c 0,1.37812 -0.1203,2.60859 -0.3609,3.69141 -0.2406,1.0828 -0.587,1.99972 -1.0391,2.75078 -0.4521,0.75103 -1.0099,1.32524 -1.6734,1.72266 -0.6635,0.39738 -1.4219,0.59607 -2.275,0.59609 -0.8531,-2e-5 -1.6115,-0.20236 -2.275,-0.60703 -0.6635,-0.4047 -1.2232,-0.98439 -1.6789,-1.73906 -0.4557,-0.7547 -0.8021,-1.67345 -1.0391,-2.75625 -0.2369,-1.08283 -0.3554,-2.30236 -0.3554,-3.6586 0,-1.35625 0.1185,-2.57578 0.3554,-3.65859 0.237,-1.08282 0.5834,-2.00157 1.0391,-2.75625 0.4557,-0.75469 1.0154,-1.33438 1.6789,-1.73906 0.6635,-0.40469 1.4219,-0.60703 2.275,-0.60703 0.8531,0 1.6115,0.19869 2.275,0.59609 0.6635,0.39739 1.2213,0.96979 1.6734,1.71719 0.4521,0.74739 0.7985,1.66432 1.0391,2.75078 0.2406,1.08645 0.3609,2.31874 0.3609,3.69687 z m -5.3484,6.44219 c 0.5104,-1e-5 0.957,-0.16408 1.3398,-0.49219 0.3829,-0.32814 0.7,-0.77657 0.9516,-1.34531 0.2516,-0.56876 0.4393,-1.24871 0.5633,-2.03984 0.1239,-0.79116 0.1859,-1.64611 0.1859,-2.56485 0,-0.93334 -0.062,-1.79558 -0.1859,-2.58672 -0.124,-0.79115 -0.3136,-1.47109 -0.5688,-2.03984 -0.2552,-0.56875 -0.5724,-1.01354 -0.9515,-1.33437 -0.3792,-0.32084 -0.824,-0.48126 -1.3344,-0.48125 -0.5177,-1e-5 -0.968,0.16406 -1.3508,0.49218 -0.3828,0.32813 -0.6982,0.77839 -0.9461,1.35078 -0.2479,0.5724 -0.4338,1.25234 -0.5578,2.03985 -0.1239,0.78749 -0.1859,1.64062 -0.1859,2.55937 0,0.91145 0.064,1.76093 0.1914,2.54844 0.1276,0.78749 0.3153,1.46926 0.5633,2.04531 0.2479,0.57603 0.5632,1.02811 0.946,1.35625 0.3829,0.32811 0.8295,0.49218 1.3399,0.49219 z" />
    <path
       inkscape:connector-curvature="0"
       style="fill:#000000;fill-opacity:1;stroke:none"
       d="m 1254.0347,235.76475 c 0.153,0.01 0.011,-2.22578 0.3637,-3.42701 0.8503,-2.71155 5.3588,-3.59758 7.0318,-5.52848 2.9776,-3.43661 1.3447,-6.6205 -1.3579,-8.2927 -2.5661,-1.5878 -5.664,0.74362 -5.973,0.98607 0,-0.0628 0.011,-0.12363 0.016,-0.1859 10e-4,-0.0137 0.01,-0.0268 0.01,-0.0404 0.3825,-2.42321 3.4206,-3.42335 4.7041,-3.74223 h 0.59 v -0.12932 h -0.8487 -4.4373 -0.01 -0.1778 -0.01 -4.4374 -0.8486 v 0.12932 h 0.59 c 1.2834,0.31888 4.3216,1.31902 4.7041,3.74223 0,0.0136 0.01,0.0267 0.01,0.0404 0,0.0649 0.012,0.12826 0.016,0.19399 -0.1514,-0.12035 -2.0652,-1.6137 -4.1545,-1.54378 -0.6091,0.02 -1.2274,0.18384 -1.8185,0.54962 -2.7026,1.6722 -4.3356,4.85609 -1.3579,8.2927 1.673,1.9309 6.1815,2.81693 7.0318,5.52848 0.3525,1.20123 0.2106,3.43361 0.3637,3.42701 z"
       id="path13779" />
    <path
       id="path13781"
       d="m 1231.2385,136.39013 c -0.1787,-0.0117 -0.013,2.59727 -0.4244,3.99899 -0.9922,3.16412 -6.2532,4.19803 -8.2055,6.4512 -3.4746,4.01019 -1.5691,7.72548 1.5846,9.67678 2.9944,1.85281 6.6093,-0.86774 6.9699,-1.15065 0,0.0733 -0.013,0.14426 -0.019,0.21693 0,0.016 -0.012,0.0313 -0.012,0.0471 -0.4463,2.82765 -3.9915,3.99472 -5.4892,4.36682 h -0.6885 v 0.1509 h 0.9904 5.1779 0.012 0.2074 0.012 5.1779 0.9904 v -0.1509 h -0.6885 c -1.4976,-0.3721 -5.0429,-1.53917 -5.4892,-4.36682 0,-0.0159 -0.012,-0.0312 -0.012,-0.0471 0,-0.0757 -0.014,-0.14967 -0.019,-0.22637 0.1767,0.14044 2.4099,1.88303 4.8479,1.80144 0.7108,-0.0233 1.4323,-0.21452 2.122,-0.64135 3.1537,-1.9513 5.0591,-5.66659 1.5846,-9.67678 -1.9523,-2.25317 -7.2132,-3.28708 -8.2055,-6.4512 -0.4113,-1.40172 -0.2457,-4.00669 -0.4244,-3.99899 z"
       style="fill:#000000;fill-opacity:1;stroke:none"
       inkscape:connector-curvature="0" />
    <path
       inkscape:connector-curvature="0"
       style="fill:#000000;fill-opacity:1;stroke:none"
       d="m 1200.7385,136.39013 c -0.1787,-0.0117 -0.013,2.59727 -0.4244,3.99899 -0.9922,3.16412 -6.2532,4.19803 -8.2055,6.4512 -3.4746,4.01019 -1.5691,7.72548 1.5846,9.67678 2.9944,1.85281 6.6093,-0.86774 6.9699,-1.15065 0,0.0733 -0.013,0.14426 -0.019,0.21693 0,0.016 -0.012,0.0313 -0.012,0.0471 -0.4463,2.82765 -3.9915,3.99472 -5.4892,4.36682 h -0.6885 v 0.1509 h 0.9904 5.1779 0.012 0.2074 0.012 5.1779 0.9904 v -0.1509 h -0.6885 c -1.4976,-0.3721 -5.0429,-1.53917 -5.4892,-4.36682 0,-0.0159 -0.012,-0.0312 -0.012,-0.0471 0,-0.0757 -0.014,-0.14967 -0.019,-0.22637 0.1767,0.14044 2.4099,1.88303 4.8479,1.80144 0.7108,-0.0233 1.4323,-0.21452 2.122,-0.64135 3.1537,-1.9513 5.0591,-5.66659 1.5846,-9.67678 -1.9523,-2.25317 -7.2132,-3.28708 -8.2055,-6.4512 -0.4113,-1.40172 -0.2457,-4.00669 -0.4244,-3.99899 z"
       id="path13783" />
    <path
       id="path13789"
       d="m 1200.7383,245.60627 c 0.1787,0.0117 0.013,-2.59727 0.4244,-3.99899 0.9922,-3.16412 6.2532,-4.19803 8.2055,-6.4512 3.4746,-4.01019 1.5691,-7.72548 -1.5846,-9.67678 -2.9944,-1.85281 -6.6093,0.86774 -6.9699,1.15065 0,-0.0733 0.013,-0.14426 0.019,-0.21693 0,-0.016 0.012,-0.0313 0.012,-0.0471 0.4463,-2.82765 3.9915,-3.99472 5.4892,-4.36682 h 0.6885 v -0.1509 h -0.9904 -5.1779 -0.012 -0.2074 -0.012 -5.1779 -0.9904 v 0.1509 h 0.6885 c 1.4976,0.3721 5.0429,1.53917 5.4892,4.36682 0,0.0159 0.012,0.0312 0.012,0.0471 0,0.0757 0.014,0.14967 0.019,0.22637 -0.1767,-0.14044 -2.4099,-1.88303 -4.8479,-1.80144 -0.7108,0.0233 -1.4323,0.21452 -2.122,0.64135 -3.1537,1.9513 -5.0591,5.66659 -1.5846,9.67678 1.9523,2.25317 7.2132,3.28708 8.2055,6.4512 0.4113,1.40172 0.2457,4.00669 0.4244,3.99899 z"
       style="fill:#000000;fill-opacity:1;stroke:none"
       inkscape:connector-curvature="0" />
    <path
       inkscape:connector-curvature="0"
       style="fill:#000000;fill-opacity:1;stroke:none"
       d="m 1231.2382,245.60627 c 0.1787,0.0117 0.013,-2.59727 0.4244,-3.99899 0.9922,-3.16412 6.2532,-4.19803 8.2055,-6.4512 3.4746,-4.01019 1.5691,-7.72548 -1.5846,-9.67678 -2.9944,-1.85281 -6.6093,0.86774 -6.9699,1.15065 0,-0.0733 0.013,-0.14426 0.019,-0.21693 0,-0.016 0.012,-0.0313 0.012,-0.0471 0.4463,-2.82765 3.9915,-3.99472 5.4892,-4.36682 h 0.6885 v -0.1509 h -0.9904 -5.1779 -0.012 -0.2074 -0.012 -5.1779 -0.9904 v 0.1509 h 0.6885 c 1.4976,0.3721 5.0429,1.53917 5.4892,4.36682 0,0.0159 0.012,0.0312 0.012,0.0471 0,0.0757 0.014,0.14967 0.019,0.22637 -0.1767,-0.14044 -2.4099,-1.88303 -4.8479,-1.80144 -0.7108,0.0233 -1.4323,0.21452 -2.122,0.64135 -3.1537,1.9513 -5.0591,5.66659 -1.5846,9.67678 1.9523,2.25317 7.2132,3.28708 8.2055,6.4512 0.4113,1.40172 0.2457,4.00669 0.4244,3.99899 z"
       id="path13791" />
    <path
       inkscape:connector-curvature="0"
       style="fill:#000000;fill-opacity:1;stroke:none"
       d="m 1231.2385,164.87615 c -0.1787,-0.0117 -0.013,2.59727 -0.4244,3.99899 -0.9922,3.16412 -6.2532,4.19803 -8.2055,6.4512 -3.4746,4.01019 -1.5691,7.72548 1.5846,9.67678 2.9944,1.85281 6.6093,-0.86774 6.9699,-1.15065 0,0.0733 -0.013,0.14426 -0.019,0.21693 0,0.016 -0.012,0.0313 -0.012,0.0471 -0.4463,2.82765 -3.9915,3.99472 -5.4892,4.36682 h -0.6885 v 0.1509 h 0.9904 5.1779 0.012 0.2074 0.012 5.1779 0.9904 v -0.1509 h -0.6885 c -1.4976,-0.3721 -5.0429,-1.53917 -5.4892,-4.36682 0,-0.0159 -0.012,-0.0312 -0.012,-0.0471 0,-0.0757 -0.014,-0.14967 -0.019,-0.22637 0.1767,0.14044 2.4099,1.88303 4.8479,1.80144 0.7108,-0.0233 1.4323,-0.21452 2.122,-0.64135 3.1537,-1.9513 5.0591,-5.66659 1.5846,-9.67678 -1.9523,-2.25317 -7.2132,-3.28708 -8.2055,-6.4512 -0.4113,-1.40172 -0.2457,-4.00669 -0.4244,-3.99899 z"
       id="path13898" />
    <path
       id="path13900"
       d="m 1200.7385,164.87615 c -0.1787,-0.0117 -0.013,2.59727 -0.4244,3.99899 -0.9922,3.16412 -6.2532,4.19803 -8.2055,6.4512 -3.4746,4.01019 -1.5691,7.72548 1.5846,9.67678 2.9944,1.85281 6.6093,-0.86774 6.9699,-1.15065 0,0.0733 -0.013,0.14426 -0.019,0.21693 0,0.016 -0.012,0.0313 -0.012,0.0471 -0.4463,2.82765 -3.9915,3.99472 -5.4892,4.36682 h -0.6885 v 0.1509 h 0.9904 5.1779 0.012 0.2074 0.012 5.1779 0.9904 v -0.1509 h -0.6885 c -1.4976,-0.3721 -5.0429,-1.53917 -5.4892,-4.36682 0,-0.0159 -0.012,-0.0312 -0.012,-0.0471 0,-0.0757 -0.014,-0.14967 -0.019,-0.22637 0.1767,0.14044 2.4099,1.88303 4.8479,1.80144 0.7108,-0.0233 1.4323,-0.21452 2.122,-0.64135 3.1537,-1.9513 5.0591,-5.66659 1.5846,-9.67678 -1.9523,-2.25317 -7.2132,-3.28708 -8.2055,-6.4512 -0.4113,-1.40172 -0.2457,-4.00669 -0.4244,-3.99899 z"
       style="fill:#000000;fill-opacity:1;stroke:none"
       inkscape:connector-curvature="0" />
    <path
       inkscape:connector-curvature="0"
       style="fill:#000000;fill-opacity:1;stroke:none"
       d="m 1200.7383,217.12025 c 0.1787,0.0117 0.013,-2.59727 0.4244,-3.99899 0.9922,-3.16412 6.2532,-4.19803 8.2055,-6.4512 3.4746,-4.01019 1.5691,-7.72548 -1.5846,-9.67678 -2.9944,-1.85281 -6.6093,0.86774 -6.9699,1.15065 0,-0.0733 0.013,-0.14426 0.019,-0.21693 0,-0.016 0.012,-0.0313 0.012,-0.0471 0.4463,-2.82765 3.9915,-3.99472 5.4892,-4.36682 h 0.6885 v -0.1509 h -0.9904 -5.1779 -0.012 -0.2074 -0.012 -5.1779 -0.9904 v 0.1509 h 0.6885 c 1.4976,0.3721 5.0429,1.53917 5.4892,4.36682 0,0.0159 0.012,0.0312 0.012,0.0471 0,0.0757 0.014,0.14967 0.019,0.22637 -0.1767,-0.14044 -2.4099,-1.88303 -4.8479,-1.80144 -0.7108,0.0233 -1.4323,0.21452 -2.122,0.64135 -3.1537,1.9513 -5.0591,5.66659 -1.5846,9.67678 1.9523,2.25317 7.2132,3.28708 8.2055,6.4512 0.4113,1.40172 0.2457,4.00669 0.4244,3.99899 z"
       id="path13904" />
    <path
       id="path13906"
       d="m 1231.2382,217.12025 c 0.1787,0.0117 0.013,-2.59727 0.4244,-3.99899 0.9922,-3.16412 6.2532,-4.19803 8.2055,-6.4512 3.4746,-4.01019 1.5691,-7.72548 -1.5846,-9.67678 -2.9944,-1.85281 -6.6093,0.86774 -6.9699,1.15065 0,-0.0733 0.013,-0.14426 0.019,-0.21693 0,-0.016 0.012,-0.0313 0.012,-0.0471 0.4463,-2.82765 3.9915,-3.99472 5.4892,-4.36682 h 0.6885 v -0.1509 h -0.9904 -5.1779 -0.012 -0.2074 -0.012 -5.1779 -0.9904 v 0.1509 h 0.6885 c 1.4976,0.3721 5.0429,1.53917 5.4892,4.36682 0,0.0159 0.012,0.0312 0.012,0.0471 0,0.0757 0.014,0.14967 0.019,0.22637 -0.1767,-0.14044 -2.4099,-1.88303 -4.8479,-1.80144 -0.7108,0.0233 -1.4323,0.21452 -2.122,0.64135 -3.1537,1.9513 -5.0591,5.66659 -1.5846,9.67678 1.9523,2.25317 7.2132,3.28708 8.2055,6.4512 0.4113,1.40172 0.2457,4.00669 0.4244,3.99899 z"
       style="fill:#000000;fill-opacity:1;stroke:none"
       inkscape:connector-curvature="0" />
    <path
       inkscape:connector-curvature="0"
       style="fill:#000000;fill-opacity:1;stroke:none"
       d="m 1215.9884,150.89013 c -0.1787,-0.0117 -0.013,2.59727 -0.4244,3.99899 -0.9922,3.16412 -6.2532,4.19803 -8.2055,6.4512 -3.4746,4.01019 -1.5691,7.72548 1.5846,9.67678 2.9944,1.85281 6.6093,-0.86774 6.9699,-1.15065 0,0.0733 -0.013,0.14426 -0.019,0.21693 0,0.016 -0.012,0.0313 -0.012,0.0471 -0.4463,2.82765 -3.9915,3.99472 -5.4892,4.36682 h -0.6885 v 0.1509 h 0.9904 5.1779 0.012 0.2074 0.012 5.1779 0.9904 v -0.1509 h -0.6885 c -1.4976,-0.3721 -5.0429,-1.53917 -5.4892,-4.36682 0,-0.0159 -0.012,-0.0312 -0.012,-0.0471 0,-0.0757 -0.014,-0.14967 -0.019,-0.22637 0.1767,0.14044 2.4099,1.88303 4.8479,1.80144 0.7108,-0.0233 1.4323,-0.21452 2.122,-0.64135 3.1537,-1.9513 5.0591,-5.66659 1.5846,-9.67678 -1.9523,-2.25317 -7.2132,-3.28708 -8.2055,-6.4512 -0.4113,-1.40172 -0.2457,-4.00669 -0.4244,-3.99899 z"
       id="path13946" />
    <path
       id="path13948"
       d="m 1215.9882,231.60627 c 0.1787,0.0117 0.013,-2.59727 0.4244,-3.99899 0.9922,-3.16412 6.2532,-4.19803 8.2055,-6.4512 3.4746,-4.01019 1.5691,-7.72548 -1.5846,-9.67678 -2.9944,-1.85281 -6.6093,0.86774 -6.9699,1.15065 0,-0.0733 0.013,-0.14426 0.019,-0.21693 0,-0.016 0.012,-0.0313 0.012,-0.0471 0.4463,-2.82765 3.9915,-3.99472 5.4892,-4.36682 h 0.6885 v -0.1509 h -0.9904 -5.1779 -0.012 -0.2074 -0.012 -5.1779 -0.9904 v 0.1509 h 0.6885 c 1.4976,0.3721 5.0429,1.53917 5.4892,4.36682 0,0.0159 0.012,0.0312 0.012,0.0471 0,0.0757 0.014,0.14967 0.019,0.22637 -0.1767,-0.14044 -2.4099,-1.88303 -4.8479,-1.80144 -0.7108,0.0233 -1.4323,0.21452 -2.122,0.64135 -3.1537,1.9513 -5.0591,5.66659 -1.5846,9.67678 1.9523,2.25317 7.2132,3.28708 8.2055,6.4512 0.4113,1.40172 0.2457,4.00669 0.4244,3.99899 z"
       style="fill:#000000;fill-opacity:1;stroke:none"
       inkscape:connector-curvature="0" />
  </g>
</svg>
