<svg xmlns="http://www.w3.org/2000/svg" viewBox="0 0 410 410" width="410" height="410">
	<style>
		tspan { white-space:pre }
		.shp1 { fill: leftColor }
		.shp2 { fill: rightColor }
		.shp3 { fill: topColor }
		.shp4 { fill: pipColor }
	</style>
	<path id="faceleft" fill-rule="evenodd" class="shp1" d="M25.75 316.73L205 406.35L205 182.27L25.75 92.65L25.75 316.73Z" />
	<path id="faceright" fill-rule="evenodd" class="shp2" d="M205 406.35L384.25 316.73L384.25 92.65L205 182.27L205 406.35Z" />
	<path id="facetop" fill-rule="evenodd" class="shp3" d="M25.75 92.65L205 182.27L384.25 92.65L205 3.03L25.75 92.65Z" />
	<path id="piptop1" class="shp4" d="M211.21 46.91C228.3 44.79 239.26 37.81 235.68 31.3C232.1 24.8 215.35 21.24 198.26 23.36C181.18 25.47 170.23 32.45 173.8 38.96C177.38 45.47 194.13 49.02 211.21 46.91Z" />
	<path id="piptop5" class="shp4" d="M211.52 100.56C229.47 98.33 240.97 91 237.22 84.17C233.46 77.34 215.86 73.61 197.93 75.83C179.99 78.05 168.49 85.38 172.24 92.21C176 99.04 193.59 102.77 211.52 100.56Z" />
	<path id="piptop9" class="shp4" d="M211.83 157.1C230.63 154.77 242.68 147.09 238.75 139.93C234.81 132.78 216.38 128.87 197.59 131.2C178.8 133.52 166.75 141.2 170.68 148.36C174.62 155.52 193.05 159.42 211.83 157.1Z" />
	<path id="pipleft1" class="shp4" d="M43.37 166.52C50.15 181.69 60.8 189.32 67.15 183.56C73.5 177.81 73.14 160.84 66.35 145.68C59.56 130.5 48.92 122.87 42.57 128.63C36.22 134.38 36.58 151.35 43.37 166.52Z" />
	<path id="pipleft3" class="shp4" d="M42.37 305.52C49.15 320.69 59.8 328.32 66.15 322.56C72.5 316.81 72.14 299.84 65.35 284.68C58.56 269.5 47.92 261.87 41.57 267.63C35.22 273.38 35.58 290.35 42.37 305.52Z" />
	<path id="pipleft5" class="shp4" d="M98.79 267.05C105.91 282.97 117.09 290.99 123.76 284.94C130.42 278.9 130.05 261.08 122.92 245.16C115.79 229.22 104.62 221.21 97.95 227.26C91.28 233.3 91.66 251.12 98.79 267.05Z" />
	<path id="pipleft7" class="shp4" d="M152.21 223.57C159.66 240.26 171.38 248.65 178.36 242.32C185.35 235.99 184.95 217.32 177.48 200.65C170.02 183.95 158.31 175.56 151.33 181.89C144.34 188.22 144.74 206.88 152.21 223.57Z" />
	<path id="pipleft9" class="shp4" d="M154.21 361.57C161.66 378.26 173.38 386.65 180.36 380.32C187.35 373.99 186.95 355.32 179.48 338.65C172.02 321.95 160.31 313.56 153.33 319.89C146.34 326.22 146.74 344.88 154.21 361.57Z" />
	<path id="pipright5" class="shp4" d="M281.55 255.18C275.33 271.47 277.57 285.05 286.56 285.48C295.54 285.93 307.87 273.06 314.09 256.76C320.32 240.45 318.08 226.89 309.09 226.45C300.11 226 287.78 238.87 281.55 255.18Z" />
</svg>
