<svg xmlns="http://www.w3.org/2000/svg" viewBox="0 0 410 410" width="410" height="410">
	<style>
		tspan { white-space:pre }
		.shp1 { fill: leftColor }
		.shp2 { fill: rightColor }
		.shp3 { fill: topColor }
		.shp4 { fill: pipColor }
	</style>
	<path id="faceleft" fill-rule="evenodd" class="shp1" d="M25.75 316.73L205 406.35L205 182.27L25.75 92.65L25.75 316.73Z" />
	<path id="faceright" fill-rule="evenodd" class="shp2" d="M205 406.35L384.25 316.73L384.25 92.65L205 182.27L205 406.35Z" />
	<path id="facetop" fill-rule="evenodd" class="shp3" d="M25.75 92.65L205 182.27L384.25 92.65L205 3.03L25.75 92.65Z" />
	<path id="piptop1" class="shp4" d="M211.21 46.91C228.3 44.79 239.26 37.81 235.68 31.3C232.1 24.8 215.35 21.24 198.26 23.36C181.18 25.47 170.23 32.45 173.8 38.96C177.38 45.47 194.13 49.02 211.21 46.91Z" />
	<path id="piptop9" class="shp4" d="M211.83 157.1C230.63 154.77 242.68 147.09 238.75 139.93C234.81 132.78 216.38 128.87 197.59 131.2C178.8 133.52 166.75 141.2 170.68 148.36C174.62 155.52 193.05 159.42 211.83 157.1Z" />
	<path id="pipleft5" class="shp4" d="M98.79 267.05C105.91 282.97 117.09 290.99 123.76 284.94C130.42 278.9 130.05 261.08 122.92 245.16C115.79 229.22 104.62 221.21 97.95 227.26C91.28 233.3 91.66 251.12 98.79 267.05Z" />
	<path id="pipright1" class="shp4" d="M220.77 210.14C214.25 227.21 216.59 241.43 226.01 241.89C235.43 242.35 248.34 228.87 254.86 211.8C261.38 194.71 259.04 180.5 249.62 180.04C240.21 179.58 227.29 193.06 220.77 210.14Z" />
	<path id="pipright3" class="shp4" d="M219.77 351.14C213.25 368.21 215.59 382.43 225.01 382.89C234.43 383.35 247.34 369.87 253.86 352.8C260.38 335.71 258.04 321.5 248.62 321.04C239.21 320.58 226.29 334.06 219.77 351.14Z" />
	<path id="pipright7" class="shp4" d="M334.84 156.22C328.9 171.74 331.04 184.66 339.6 185.08C348.16 185.5 359.9 173.25 365.82 157.73C371.76 142.19 369.63 129.27 361.06 128.86C352.51 128.43 340.76 140.69 334.84 156.22Z" />
	<path id="pipright9" class="shp4" d="M340.84 298.22C334.9 313.74 337.04 326.66 345.6 327.08C354.16 327.5 365.9 315.25 371.82 299.73C377.76 284.19 375.63 271.27 367.06 270.86C358.51 270.43 346.76 282.69 340.84 298.22Z" />
</svg>
