<?xml version="1.0" encoding="utf-8"?>
<!-- Generator: Adobe Illustrator 26.0.1, SVG Export Plug-In . SVG Version: 6.00 Build 0)  -->
<svg version="1.1" id="Layer_1" xmlns="http://www.w3.org/2000/svg" xmlns:xlink="http://www.w3.org/1999/xlink" x="0px" y="0px"
	 viewBox="0 0 256 293" style="enable-background:new 0 0 256 293;" xml:space="preserve">
<style type="text/css">
	.st0{fill:#7289DA;}
	.st1{fill:#FFFFFF;}
</style>
<g>
	<path class="st0" d="M226,0H30C13.5,0,0,13.5,0,30.1v197.8C0,244.6,13.5,258,30,258h165.9l-7.8-27.1l18.7,17.4l17.7,16.4l31.5,27.8
		V30.1C256,13.5,242.5,0,226,0z M101.5,122.7c-8.3,0-14.9,7.3-14.9,16.2c0,8.9,6.7,16.2,14.9,16.2c8.3,0,14.9-7.3,14.9-16.2
		C116.6,130,109.9,122.7,101.5,122.7 M154.9,122.7c-8.3,0-14.9,7.3-14.9,16.2c0,8.9,6.7,16.2,14.9,16.2c8.3,0,14.9-7.3,14.9-16.2
		C169.8,130,163.3,122.7,154.9,122.7"/>
</g>
<g>
	<path class="st1" d="M169.5,191c0,0-5.3-6.3-9.7-11.8c19.2-5.4,26.5-17.4,26.5-17.4c-6,3.9-11.7,6.7-16.8,8.6
		c-7.3,3.1-14.3,5.1-21.2,6.3c-14,2.6-26.9,1.9-37.9-0.1c-8.3-1.6-15.5-3.9-21.5-6.3c-3.4-1.3-7-2.9-10.7-5
		c-0.4-0.3-0.9-0.4-1.3-0.7c-0.3-0.1-0.4-0.3-0.6-0.4c-2.6-1.5-4.1-2.5-4.1-2.5s7,11.7,25.6,17.3c-4.4,5.6-9.8,12.1-9.8,12.1
		c-32.3-1-44.6-22.2-44.6-22.2c0-47.1,21.1-85.3,21.1-85.3c21.1-15.8,41.1-15.4,41.1-15.4l1.5,1.8c-26.3,7.6-38.5,19.2-38.5,19.2
		s3.2-1.8,8.6-4.2c15.7-6.9,28.1-8.8,33.2-9.2c0.9-0.1,1.6-0.3,2.5-0.3c8.9-1.2,19-1.5,29.5-0.3c13.9,1.6,28.8,5.7,44,14
		c0,0-11.6-11-36.4-18.6l2-2.3c0,0,20-0.4,41.1,15.4c0,0,21.1,38.2,21.1,85.3C214.3,168.8,201.9,190,169.5,191z M101.5,122.7
		c-8.3,0-14.9,7.3-14.9,16.2c0,8.9,6.7,16.2,14.9,16.2c8.3,0,14.9-7.3,14.9-16.2C116.6,130,109.9,122.7,101.5,122.7 M154.9,122.7
		c-8.3,0-14.9,7.3-14.9,16.2c0,8.9,6.7,16.2,14.9,16.2c8.3,0,14.9-7.3,14.9-16.2C169.8,130,163.3,122.7,154.9,122.7"/>
</g>
</svg>
