<?xml version="1.0" encoding="utf-8"?>
<!-- Generator: Adobe Illustrator 26.0.1, SVG Export Plug-In . SVG Version: 6.00 Build 0)  -->
<svg version="1.1" id="Layer_1" xmlns="http://www.w3.org/2000/svg" xmlns:xlink="http://www.w3.org/1999/xlink" x="0px" y="0px"
	 viewBox="0 0 64 64" style="enable-background:new 0 0 64 64;" xml:space="preserve">
<style type="text/css">

.person{fill:#2d73c4;}
	.frame{fill:#2d73c4;}
	@media (prefers-color-scheme: dark) {
      .person{fill:#ffffff;}
	  .frame{fill:#ffffff;}
    }
</style>
<g>
	<g>
		<path class="person" d="M44,27.1c-0.5-2.4-1.3-4.4-2.4-5.9c-1.1-1.4-2.4-2.3-4.2-2.6c0,0,0,0-0.1,0l-2.4-0.4v0l0,0h0l1.6-1.9
			c1.3-1.6,2.1-3.8,2.1-6.4c0-5-3.1-8.7-6.5-8.7l-0.6,0c-3.1,0.4-5.9,4-5.9,8.7c0,2.6,0.9,4.9,2.2,6.5l1.6,1.9v0h0l-2.4,0.5
			c-1.7,0.3-3,1.2-4,2.7c-1.1,1.5-1.9,3.5-2.5,5.9c-1,4.3-1.3,9.5-1.3,14.1h5.7l0.1,0.7l14.7,2.1l0.2-2.7H45
			C45,36.7,44.9,31.4,44,27.1z"/>
		<path class="person" d="M26.2,62.2c4,0.9,8,0.9,12,0l0.4-6.3l-13.1-2.3L26.2,62.2z"/>
	</g>
	<path class="frame" d="M63.9,13.8c0-0.2-0.1-0.4-0.2-0.6l-0.6-1.7c-0.2-0.5-0.5-1-0.9-1.4c-0.5-0.5-1.1-0.8-1.8-1
		C59.7,8.9,59,8.9,58.3,9L40.4,11c-0.2,1.9-0.7,3.6-1.7,5.2l18.5-1.9L46,46c0,0.1-0.1,0.2-0.2,0.3c-0.1,0.1-0.2,0.2-0.3,0.3
		c-0.1,0.1-0.2,0.1-0.3,0.2c-0.1,0-0.1,0-0.2,0L5.7,41.2l13.3-22.5c0-0.1,0.1-0.1,0.1-0.2c0.1-0.1,0.1-0.1,0.2-0.2
		c0,0,0.1-0.1,0.1-0.1l4.3-0.5c0.6-0.4,1.3-0.7,2-0.9c-0.9-1.2-1.5-2.6-1.8-4.1l-4.3,0.5c-0.5,0.1-1,0.2-1.5,0.4
		c-0.5,0.2-0.9,0.5-1.3,0.8c-0.4,0.3-0.8,0.6-1.1,1c-0.4,0.4-0.7,0.8-1,1.3L1,40c-0.3,0.5-0.6,1.1-0.7,1.6C0.1,42.2,0,42.8,0,43.4
		c0,0.3,0.1,0.7,0.2,1l0.4,1.1c0.1,0.4,0.3,0.7,0.5,1c0.5,0.6,1.1,1,1.8,1.1l20.6,3.7l0,0l17.1,3.1l0,0l3.9,0.7h0
		c0.3,0.1,0.7,0.1,1,0.1c0.5,0,1.1-0.1,1.6-0.2c0.8-0.2,1.6-0.6,2.3-1s1.4-1.1,1.9-1.7c0.6-0.7,1-1.5,1.3-2.3c0,0,0,0,0,0l11-33.8
		C64,15.3,64.1,14.5,63.9,13.8z M57.6,13.1L57.6,13.1L57.6,13.1z"/>
</g>
</svg>
