<svg xmlns="http://www.w3.org/2000/svg" xmlns:osb="http://www.openswatchbook.org/uri/2009/osb" id="svg43" version="1.1" viewBox="0 0 512 512"><defs/><defs id="defs30"><radialGradient id="grd3" cx="32.522" cy="5.129" r="263.66901" gradientUnits="userSpaceOnUse"><stop id="stop20" offset="0" stop-color="#000" stop-opacity="0"/><stop id="stop22" offset="1" stop-color="#000"/></radialGradient><radialGradient id="grd4" cx="117.53" cy="258.888" r="148.01801" gradientUnits="userSpaceOnUse"><stop id="stop25" offset="0" stop-color="#000"/><stop id="stop27" offset="1" stop-color="#000" stop-opacity="0"/></radialGradient><radialGradient id="grd3-1" cx="32.522" cy="5.129" r="263.66901" gradientUnits="userSpaceOnUse"><stop id="stop20-2" offset="0" stop-color="#000" stop-opacity="0"/><stop id="stop22-8" offset="1" stop-color="#000"/></radialGradient><linearGradient id="linearGradient4777" osb:paint="solid"><stop id="stop4775" offset="0" stop-color="#1f5ca6" stop-opacity="1"/></linearGradient><linearGradient id="grd1" x1="314.936" x2="79.861" y1="73.132" y2="203.437" gradientUnits="userSpaceOnUse"><stop id="stop2" offset="0" stop-color="#000"/><stop id="stop4" offset=".5" stop-color="#000" stop-opacity="0"/><stop id="stop6" offset=".5" stop-color="#000" stop-opacity="0"/><stop id="stop8" offset="1" stop-color="#000"/></linearGradient><linearGradient id="grd2" x1="550.17297" x2="-13.762" y1="374.569" y2="315.297" gradientUnits="userSpaceOnUse"><stop id="stop11" offset="0" stop-color="#000" stop-opacity="0"/><stop id="stop13" offset=".5" stop-color="#000"/><stop id="stop15" offset=".5" stop-color="#000"/><stop id="stop17" offset="1" stop-color="#000" stop-opacity="0"/></linearGradient></defs><style id="style32">.shp1{opacity:.361;fill:#fff}</style><g id="g4552" transform="matrix(1.09778 0 0 1.09778 128.26347 .21958)"><g id="g40" fill="#3fa4db" fill-opacity="1"><path id="Layer" fill="#3fa4db" fill-opacity="1" d="M92.88-.2C69.52 2.84 48.33 30.25 48.33 65.74c0 19.55 6.77 36.85 16.69 48.81l11.84 14.26-18.21 3.43c-12.9 2.42-22.36 9.24-30.45 20.33-8.08 11.1-14.26 26.56-18.59 44.38C1.76 229.23.04 268.64-.24 303.39h42.87L54.4 461.22c29.9 6.75 61.81 6.51 90.6.03l10.42-157.86h40.82c-.03-35.17-.48-75.13-7.59-107.65-3.92-17.94-9.86-33.38-18.04-44.35-8.18-10.97-18.08-17.74-32.56-19.99l-18.59-2.88 11.73-14.7c9.5-11.9 15.93-29 15.93-48.08 0-37.84-23.65-65.85-49.39-65.85z"/></g><g id="g4541"><path id="Forma 2 copy" fill="#fff" d="M85.72 29.98c-24.64 0-32.77 70.37-32.77 37.02S72.86 6.7 97.5 6.7c24.64 0 12.86 23.28-11.78 23.28z" class="shp1" opacity=".361"/><path id="Layer copy 4" fill="url(#grd1)" d="M155.42 303.39h40.82c-.03-35.17-.48-75.13-7.59-107.65-3.92-17.94-9.86-33.38-18.04-44.35-8.18-10.97-18.08-17.74-32.56-19.99 15.2 3.4 17.37 171.99 17.37 171.99z" opacity=".302"/><path id="Layer copy" fill="url(#grd2)" d="M92.88-.2C69.52 2.84 48.33 30.25 48.33 65.74c0 19.55 6.77 36.85 16.69 48.81l11.84 14.26-18.21 3.43c-12.9 2.42-16.02 171.15-16.02 171.15L54.4 461.22c29.9 6.75 61.81 6.51 90.6.03l10.42-157.86s-2.89-169.74-17.37-171.99l-18.59-2.88 11.73-14.7c9.5-11.9 15.93-29 15.93-48.08 0-37.84-23.65-65.85-49.39-65.85z" opacity=".302"/><path id="Layer copy 3" fill="url(#grd3)" d="M92.88-.2C69.52 2.84 48.33 30.25 48.33 65.74c0 19.55 6.77 36.85 16.69 48.81l11.84 14.26c17.81 5.59 30.14 5.59 42.6-.29l11.73-14.7c9.5-11.9 15.93-29 15.93-48.08 0-37.84-23.65-65.85-49.39-65.85z" opacity=".188"/><path id="Layer copy 2" fill="url(#grd4)" fill-opacity=".98" d="M58.65 132.24c-12.9 2.42-22.36 9.24-30.45 20.33-8.08 11.1-14.26 26.56-18.59 44.38C1.76 229.23.04 268.64-.24 303.39h42.87s3.12-166.59 16.02-171.15z" opacity=".302"/><path id="Forma 2" fill="#fff" d="M48 143.51c-30 27.33-25.33 40-37.33 63.66 10-49.5 22.33-57.66 36-69 17.33-8 7 2.34 1.33 5.34z" class="shp1" opacity=".361"/></g></g><path id="path4793" fill="#1f5ca6" fill-opacity="1" stroke="#7f7fff" stroke-dasharray="none" stroke-miterlimit="4" stroke-opacity="1" stroke-width="0" d="M489.31055 24.00195a15.74595 15.74595 0 00-1.55274.0957l-201.5664 22.46876c2.29521 7.93257 3.57812 16.60886 3.57812 25.8203 0 4.0366-.2677 7.99002-.76562 11.83985l124.50781-13.8789c.40928-.0456.81405-.07169 1.21289-.07813 12.36395-.2006 19.63821 18.06881 17.53906 33.58789l-26.16601 193.44727-13.36328 98.79687c-2.16686 16.01967-20.11337 30.60804-32.40821 26.13672L54.95313 311.18359c-12.29484-4.4713-21.42663-13.7401-19.25977-29.75976l2.34375-17.32617 12.9746-95.92969 4.95118-36.60352c2.16686-16.01969 7.80523-22.22953 20.90234-23.68945L184.4082 95.88672c-1.978-7.33953-3.08984-15.2338-3.08984-23.5 0-4.90304.37119-9.66356 1.06641-14.25L56.54687 72.16406c-16.7643 1.86872-23.71632 10.0877-26.60546 31.44727l-7.33594 54.22656L7.77734 267.4707.44141 321.69727c-2.88915 21.35959 8.7587 33.52477 24.49609 39.24804l390.59375 142.04883c15.73739 5.72326 39.13819-13.92167 42.02734-35.28125l19.55664-144.58203L511.5 68.91796c2.79884-20.69206-6.37223-45.10902-22.18945-44.916z"/></svg>