<svg version="1.2" baseProfile="tiny-ps" xmlns="http://www.w3.org/2000/svg" viewBox="0 0 362 354" width="362" height="354">
	<title>GitHub-Mark-ai</title>
	<style>
		tspan { white-space:pre }
		.shp0 { fill: #ffffff } 
	</style>
	<g id="Layer 1">
		<g id="&lt;Group&gt;">
			<path id="&lt;Path&gt;" class="shp0" d="M361.99 181.5C361.99 261.51 310.15 329.4 238.2 353.38C229.02 355.16 225.76 349.51 225.76 344.69C225.76 338.72 225.97 319.21 225.97 294.97C225.97 278.07 220.18 267.05 213.68 261.42C254.02 256.94 296.4 241.62 296.4 172.04C296.4 152.26 289.37 136.1 277.76 123.41C279.64 118.84 285.84 100.42 275.98 75.46C265.85 72.22 249.26 78.41 226.21 94.04C211.73 90.02 196.22 88.01 180.83 87.94C165.43 88.01 149.93 90.02 135.48 94.04C112.4 78.41 95.79 72.22 85.65 75.46C75.81 100.42 82.01 118.84 83.89 123.41C72.31 136.1 65.23 152.26 65.23 172.04C65.23 241.45 107.53 256.99 147.77 261.57C142.59 266.09 137.89 274.09 136.27 285.79C125.93 290.42 99.7 298.43 83.55 270.73C77.16 259.14 67.9 252.92 55.78 252.06C43.99 251.91 43.58 255.58 54.54 263.08C62.45 266.79 69.16 275.63 74.65 289.58C81.74 311.14 102.09 318.27 135.69 310.96C135.76 326.1 135.93 340.37 135.93 344.69C135.93 349.47 132.61 355.08 123.55 353.4C51.57 329.45 -0.34 261.54 -0.34 181.5C-0.34 81.44 80.79 0.34 180.83 0.34C280.88 0.34 361.99 81.44 361.99 181.5Z" />
			<path id="&lt;Compound Path&gt;" class="shp0" d="M68.28 260.45C67.88 261.35 66.46 261.62 65.17 261C63.86 260.41 63.12 259.18 63.55 258.28C63.94 257.35 65.36 257.09 66.67 257.71C67.98 258.3 68.73 259.54 68.28 260.45Z" />
			<path id="&lt;Compound Path&gt;" class="shp0" d="M75.62 268.63C74.75 269.43 73.06 269.06 71.92 267.79C70.73 266.53 70.51 264.84 71.39 264.03C72.28 263.23 73.92 263.6 75.1 264.87C76.29 266.14 76.52 267.82 75.62 268.63Z" />
			<path id="&lt;Compound Path&gt;" class="shp0" d="M82.76 279.06C81.65 279.84 79.83 279.11 78.71 277.5C77.6 275.89 77.6 273.96 78.74 273.18C79.86 272.41 81.65 273.11 82.79 274.7C83.89 276.34 83.89 278.28 82.76 279.06Z" />
			<path id="&lt;Compound Path&gt;" class="shp0" d="M92.55 289.14C91.55 290.24 89.44 289.94 87.89 288.45C86.31 286.99 85.87 284.92 86.86 283.82C87.87 282.73 89.99 283.03 91.55 284.52C93.13 285.97 93.6 288.06 92.55 289.14Z" />
			<path id="&lt;Compound Path&gt;" class="shp0" d="M106.05 295C105.61 296.42 103.57 297.06 101.52 296.46C99.47 295.84 98.13 294.17 98.54 292.74C98.97 291.31 101.02 290.64 103.08 291.29C105.13 291.9 106.47 293.55 106.05 295Z" />
			<path id="&lt;Compound Path&gt;" class="shp0" d="M120.87 296.08C120.92 297.58 119.18 298.82 117.03 298.84C114.86 298.89 113.11 297.68 113.09 296.21C113.09 294.7 114.79 293.48 116.95 293.44C119.11 293.4 120.87 294.6 120.87 296.08Z" />
			<path id="&lt;Compound Path&gt;" class="shp0" d="M134.67 293.74C134.93 295.19 133.43 296.69 131.29 297.09C129.19 297.47 127.24 296.57 126.97 295.13C126.71 293.63 128.24 292.14 130.34 291.75C132.48 291.38 134.4 292.25 134.67 293.74Z" />
		</g>
		<g id="&lt;Group&gt;">
			<g id="&lt;Group&gt;">
			</g>
		</g>
		<g id="&lt;Group&gt;">
		</g>
		<g id="&lt;Group&gt;">
		</g>
	</g>
</svg>