<?xml version="1.0" encoding="utf-8"?>
<!-- Generator: Adobe Illustrator 26.0.1, SVG Export Plug-In . SVG Version: 6.00 Build 0)  -->
<svg version="1.1" xmlns="http://www.w3.org/2000/svg" xmlns:xlink="http://www.w3.org/1999/xlink" x="0px" y="0px"
	 viewBox="0 0 520 512" style="enable-background:new 0 0 520 512;" xml:space="preserve">
<style type="text/css">
	.st0{fill:#21B0F4;}
</style>
<g id="github_x5F_black">
	<g>
		<path class="st0" d="M520,262.4c0-143.6-116.4-260-260-260S0,118.8,0,262.4c0,114,73.3,210.8,175.4,245.9
			c6.2-4.5,13.4-10,13.4-19.4c0-14.3-0.3-51.1-0.3-51.1s-11.3,1.9-27.4,1.9c-40.6,0-53.4-25.8-59.5-40.2
			C93.6,380.8,83.3,372,72.4,365c-6.7-4.3-8.3-9.4-0.5-10.9c35.9-6.7,45.1,40.5,69.1,48c17.1,5.4,39.1,3,50.1-4
			c1.4-14.4,11.9-26.9,20.6-33.5c-61-5.8-97.2-26.9-116-60.8l-2-3.8L89,289.3l-1.4-3.9c-5.9-17.2-8.5-36.9-8.5-58.9
			c0-39.1,12.2-53.8,28.7-74.6c-12.6-44.5,4.5-75,4.5-75s26.4-5.4,76.3,30.1c27.1-11.5,99.2-12.5,133.3-2.6
			c20.9-13.8,59.3-33.3,74.7-27.8c4.2,6.7,13.2,26.2,5.5,69.2c5.2,9.4,32.5,29.5,32.6,86.2c-0.4,20.9-2.6,38.6-6.7,53.5l-2.3,7.6
			c0,0-1.3,3.6-2.7,7l-1.6,3.8c-18.1,39.5-55.2,54.3-115.2,60.4c19.4,12.2,25,27.4,25,68.8s-0.6,46.9-0.4,56.4
			c0.1,8.4,6.8,14.4,12.9,19C446.3,473.7,520,376.7,520,262.4z"/>
	</g>
</g>
<g id="github_x5F_white">
</g>
<g id="github_x5F_blue_1_">
</g>
</svg>
