<svg xmlns="http://www.w3.org/2000/svg" xmlns:xlink="http://www.w3.org/1999/xlink" width="1058.3" height="340" viewBox="0 0 793.7 255"><defs><filter  x="0" y="0" width="1" height="1"><feColorMatrix in="SourceGraphic" values="0 0 0 0 1 0 0 0 0 1 0 0 0 0 1 0 0 0 1 0"/></filter><clipPath ><path d="M0 .5h1320v3H0zm0 0"/></clipPath><clipPath ><path d="M0 0h1320v4H0z"/></clipPath><clipPath ><path d="M0 0h423v27H0z"/></clipPath><path id="E" d="M733.7 66c0 3.7-3 6.7-6.7 6.7s-6.7-3-6.7-6.7 3-6.7 6.7-6.7 6.7 3 6.7 6.7"/></defs><path d="M600 145.4a34 34 0 0 1-16.4-4L555 215.2a18 18 0 0 1-3.3 5.3c-1.4 1.6-3 3-5 4a21 21 0 0 1-5.8 2.4c-2 .5-4 .7-6 .4l-271-34.7c-1-.1-1.8-.5-2.3-1-.5-.6-.8-1.4-1-2.3s.1-2 .4-3.2 1-2.4 1.8-3.8l34-52.6a32 32 0 0 1-1.7-7.9L256 181.6c-1.7 2.5-3 5-3.6 7.3-.8 2.3-1 4.5-1 6.3.1 1 .3 2 .7 3h0l2.6 6.7c.3 1 .7 1.7 1.3 2.4 1 1.2 2.5 2 4.4 2.3l275 45a32 32 0 0 0 12-.6 45 45 0 0 0 11.6-4.7 45 45 0 0 0 9.8-8 35 35 0 0 0 6.5-10.6L606 145c-2 .4-4.2.6-6.5.6m50-125.5c-.1-.6-.3-1.2-.5-1.7h0L644.8 8h0c-.6-1.6-1.6-3-3-4.2-1.7-1.4-4-2.5-6.6-3.2-2.7-.6-5.8-.8-9.2-.4L371 27c-2 .2-4 .8-6 1.7a37 37 0 0 0-6.3 3.4l-5.8 4.7a34 34 0 0 0-4.7 5.6l-20.2 31h6.5L355 42c.7-1 1.5-2 2.4-3a21 21 0 0 1 3-2.4c1-.7 2.2-1.3 3.3-1.8s2.2-.7 3-.8l256-24.6a14 14 0 0 1 4.7.3c1.4.3 2.5 1 3.3 1.7s1.4 1.7 1.6 2.8c.2 1 .1 2.3-.4 3.7L610 73.2a33 33 0 0 1 17.4 13.2l21.2-59.2c1-2.6 1.2-5 .8-7.3" fill="#fff"/><g fill="#fff"><path d="M0 81.3h8.8L26 125h.2l17-43.6H52L29.4 137h-7zm61.7 0h8.6V137h-8.6zm22 0H92v6h.2c2.4-4.7 7.4-7 11.6-7 2.8 0 4.8 1 4.8 1L107 90s-1.6-.8-4.4-.8c-7.2 0-10.2 4.4-10.2 14.8v33h-8.6zm39.6 7.7h-7.8v-7.7h8V67.6h8.2v13.7h13.8V89H132v30.8c0 6.2 1.2 9 6.8 9h4.2v8.3h-4.6c-10.8 0-15-5.8-15-16.2zm32.3-7.7h8.6v35c0 10.4 3.7 14.3 13 14.3 8.4 0 13-5.5 13-14.7V81.3h8.5V137h-8.4v-5.4h-.2s-4.7 7-14.8 7c-12 0-19.7-6.6-19.7-21zm63.3 41c0 5 2.7 8.7 11 8.7 10.6 0 15.8-5.6 15.8-11.8v-14h-.2c-.7 1.6-2.8 3.5-14.3 6.6-10 2.7-12.3 5.7-12.3 10.3m27.7 8.7h-.2c-1.6 2.7-7 7.7-17 7.7-13 0-18.8-7.4-18.8-16 0-9.3 5.2-14 18.7-17.5 10-2.5 16-4 16-9.6 0-4.4-3.3-8.3-11.7-8.3-8.7 0-12.2 4.8-13.6 11l-7.8-2.2c1.7-9.4 9-16.5 21-16.5 12.2 0 21 5.6 21 19.8v38h-7.6zm22-70.4h8.7V137h-8.7zM303 93h-8.6V81.3h9V67.6h13v13.7h14V93h-14v23c0 5.6 1.2 8 7.5 8h4.5v13h-5.8c-15.6 0-19.7-6.6-19.7-20zm45.7 28.2c0 4.2 3.4 5.7 8.2 5.7 9 0 12.4-4 12.4-8.2V109h-.2c-.6 1.2-1 2.5-12 5.3-7.8 2-8.5 4.6-8.5 7m22.3 10.5h-.2s-4 7-15 7c-14.4 0-20-8-20-16.5 0-10 5.6-14 19-17.4 13.3-3.3 14.4-4.4 14.4-7.6s-2.8-6-9.5-6c-8.3 0-10.4 4.8-11.8 9.2l-11.4-4.7c2.4-8.5 9.6-16 23-16 12.5 0 23.2 6 23.2 22V137H371zm37-17.6c0 6.4 4.3 12 12 12 7.8 0 12.6-5.7 12.6-17 0-11.6-4.8-17-12.6-17-7.7 0-12 5.6-12 12zm-13.7-54H408v26.4h.2s4.4-7 14.2-7c13.5 0 24 11.6 24 29.4s-9.5 29.4-24.2 29.4c-10.2 0-14.7-7-14.7-7h-.2v5.4h-12.8zm61.4.1H470V137h-14.2zm61.6 42.7c-.6-7-5-11.4-12.3-11.4-7 0-11.4 5.2-12 11.4zm11.4 23c-4.6 6.7-11.5 12.4-23 12.4-15.4 0-26.4-11.4-26.4-29.4s11.3-29.4 25.8-29.4S530.7 91 530.7 109v4H493c.4 8.6 4.8 13.3 12.3 13.3 7.2 0 11-4.8 13.7-8.7zm14-33H534V81.3h9V67.6h13v13.7h14V93h-14v23c0 5.6 1.2 8 7.5 8h4.5v13h-5.8c-15.6 0-19.7-6.6-19.7-20zm70 16.2c0-11-5-17-12.6-17s-12.6 5.8-12.6 17 5 17 12.6 17 12.6-6 12.6-17m-38.7 0c0-19 12.2-29.4 26-29.4s26 10.4 26 29.4-11.5 29.4-26 29.4-26-10.4-26-29.4m75.2 5.8c0 6.2 4.5 11.5 12 11.5 7.7 0 13.7-5.7 13.7-17 0-11.6-6-17-13.7-17-7.5 0-12 5.3-12 11.4zm-13.7-33.6h13v5.4h.2s4-7 15-7c12.3 0 24.7 10.4 24.7 29.4S677 138.6 664 138.6c-10.7 0-14.6-7-14.6-7h-.2v29h-13.7zm87.2-.1h8.6V137h-8.6zm62.5 28c0-14-7-21.7-16.4-21.7-9.5 0-16.8 7.4-16.8 21.7 0 14.4 7.5 21.7 16.8 21.7 9 0 16.4-7.6 16.4-21.7m-41.7 0c0-19 12-29.4 25.3-29.4s25 10.4 25 29.4-11 29.4-25 29.4c-14.2 0-25.3-10.4-25.3-29.4"/><use xlink:href="#E"/><path d="M711.3 129.3c0 4.4-3.5 8-8 8s-8-3.5-8-8 3.5-8 8-8 8 3.5 8 8"/><use xlink:href="#E" x="-661"/></g></svg>
