<svg id="Layer_1" data-name="Layer 1" xmlns="http://www.w3.org/2000/svg" viewBox="0 0 180 180"><path d="M156.72,51.88a7.57,7.57,0,0,0-.35-1.21L155,47.14a7.39,7.39,0,0,0-1.93-3,8.61,8.61,0,0,0-3.83-2,12.18,12.18,0,0,0-4.34-.24l-37.46,4.3a25.87,25.87,0,0,1-3.5,11l38.58-4.07-23.26,66.1a2.67,2.67,0,0,1-.4.71,3.47,3.47,0,0,1-.66.61,2.32,2.32,0,0,1-.67.31,1,1,0,0,1-.32,0L35.11,109.27l27.81-47a1.65,1.65,0,0,1,.25-.32,2.79,2.79,0,0,1,.4-.37,2.29,2.29,0,0,1,.28-.17l8.95-.94A16,16,0,0,1,77,58.59a24.85,24.85,0,0,1-3.84-8.49l-8.94,1A10.51,10.51,0,0,0,61.1,52a15.65,15.65,0,0,0-2.72,1.61A18.57,18.57,0,0,0,56,55.78a15.9,15.9,0,0,0-2,2.61L25.15,106.76a15.11,15.11,0,0,0-1.54,3.41,10.22,10.22,0,0,0-.46,3.59,7.33,7.33,0,0,0,.43,2.1l.77,2.2a6.23,6.23,0,0,0,1,2,6,6,0,0,0,3.85,2.29l43.05,7.76h0L108,136.57h0l8.18,1.47h0a12.82,12.82,0,0,0,2.06.17,13.31,13.31,0,0,0,3.34-.43,16,16,0,0,0,4.89-2.17,17.64,17.64,0,0,0,4-3.65,16.17,16.17,0,0,0,2.71-4.85l0-.08,23.05-70.62A8.58,8.58,0,0,0,156.72,51.88Zm-13.27-1.36h0Z"/><path d="M115.06,79.7c-1.08-5-2.73-9.23-5-12.26a13.1,13.1,0,0,0-9-5.53l-5.14-.79H96l3.24-4.07a21.45,21.45,0,0,0,4.4-13.29c0-10.46-6.53-18.2-13.65-18.2l-1.34,0C82.2,26.37,76.34,34,76.34,43.76A21.24,21.24,0,0,0,81,57.25l3.27,4h-.07l-5,.94h0a13,13,0,0,0-8.42,5.63A35.42,35.42,0,0,0,65.56,80c-2.17,8.93-2.64,19.82-2.72,29.43H74.69l.11,1.41,30.7,4.32.37-5.73h11.29C117.15,99.74,117,88.69,115.06,79.7Z"/><path d="M78,153.09a57.79,57.79,0,0,0,25,0l.88-13.27-27.28-4.92Z"/></svg>