<svg xmlns="http://www.w3.org/2000/svg" width="24" height="24" viewBox="0 0 24 24">
  <path d="M17.41,6.59,15,5.5l2.41-1.09L18.5,2l1.09,2.41L22,5.5,19.59,6.59,18.5,9Zm3.87,6.13L20.5,11l-.78,1.72L18,13.5l1.72.78L20.5,16l.78-1.72L23,13.5Zm-5.04,1.65,1.94,1.47-2.5,4.33-2.24-.94a6.671,6.671,0,0,1-.64.37L12.5,22h-5l-.3-2.41a5.886,5.886,0,0,1-.64-.37l-2.24.94-2.5-4.33,1.94-1.47c-.01-.11-.01-.24-.01-.36s0-.25.01-.37L1.82,12.16l2.5-4.33,2.24.94A6.671,6.671,0,0,1,7.2,8.4L7.5,6h5l.3,2.41a5.886,5.886,0,0,1,.64.37l2.24-.94,2.5,4.33-1.94,1.47c.01.12.01.24.01.37S16.25,14.25,16.24,14.37ZM13,14a3,3,0,1,0-3,3A3,3,0,0,0,13,14Z" fill="currentColor"/>
  <rect width="24" height="24" fill="none"/>
</svg>
