<svg xmlns="http://www.w3.org/2000/svg" viewBox="0 0 24 24"><g id="Layer_1" data-name="Layer 1"><path d="M16,4H8A2,2,0,0,0,6,6V18a2,2,0,0,0,2,2h8a2,2,0,0,0,2-2V6A2,2,0,0,0,16,4ZM8,9l3-3h5v9l-3,3H8Z" style="fill:currentColor"/><path d="M13.23,15a2,2,0,0,0,.77-.79,2.36,2.36,0,0,0,.27-1.13,2.38,2.38,0,0,0-.5-1.57,1.61,1.61,0,0,0-1.32-.6,1.72,1.72,0,0,0-1.29.52,1.81,1.81,0,0,1,.63-1.21,2.16,2.16,0,0,1,1.39-.45h.12v-1h-.21a3.3,3.3,0,0,0-1.71.44,2.87,2.87,0,0,0-1.13,1.23,4.15,4.15,0,0,0-.39,1.84v.46a2.67,2.67,0,0,0,.62,1.87,2.07,2.07,0,0,0,1.63.71A2.3,2.3,0,0,0,13.23,15Zm-1.85-1.1a1.78,1.78,0,0,1-.25-1v-.38a1,1,0,0,1,.37-.43,1.08,1.08,0,0,1,.56-.16.85.85,0,0,1,.69.32,1.34,1.34,0,0,1,.25.85,1.28,1.28,0,0,1-.25.83.79.79,0,0,1-.66.32A.83.83,0,0,1,11.38,13.91Z" style="fill:currentColor"/></g><g id="Layer_2" data-name="Layer 2"><rect width="24" height="24" style="fill:none"/></g></svg>