<svg xmlns="http://www.w3.org/2000/svg" width="24" height="24" viewBox="0 0 24 24">
  <g>
    <path d="M16,4H8A2,2,0,0,0,6,6V18a2,2,0,0,0,2,2h8a2,2,0,0,0,2-2V6A2,2,0,0,0,16,4ZM8,9l3-3h5v9l-3,3H8Z" fill="currentColor"/>
    <path d="M11.031,14.2l-.281.005v1.059l.312,0a3,3,0,0,0,2.254-.976,3.7,3.7,0,0,0,.8-2.513V11.3a3.263,3.263,0,0,0-.277-1.358,2.088,2.088,0,0,0-.765-.91,2.033,2.033,0,0,0-1.125-.316,2.134,2.134,0,0,0-1.107.292,2.022,2.022,0,0,0-.767.817A2.461,2.461,0,0,0,9.8,10.977a2.3,2.3,0,0,0,.51,1.57,1.714,1.714,0,0,0,1.358.583,1.6,1.6,0,0,0,1.16-.488A1.623,1.623,0,0,1,11.031,14.2ZM12.505,12a.89.89,0,0,1-.529.158.782.782,0,0,1-.675-.336,1.449,1.449,0,0,1-.239-.859,1.486,1.486,0,0,1,.246-.877.744.744,0,0,1,.629-.349.762.762,0,0,1,.659.356,1.746,1.746,0,0,1,.246,1v.523A1.048,1.048,0,0,1,12.505,12Z" fill="currentColor"/>
  </g>
  <rect width="24" height="24" fill="none"/>
</svg>
