<svg xmlns="http://www.w3.org/2000/svg" width="24" height="24" viewBox="0 0 24 24">
  <g>
    <path d="M16,4H8A2,2,0,0,0,6,6V18a2,2,0,0,0,2,2h8a2,2,0,0,0,2-2V6A2,2,0,0,0,16,4ZM8,9l3-3h5v9l-3,3H8Z" fill="currentColor"/>
    <path d="M13.888,14.694a2.265,2.265,0,0,0,.762-1.626H13.332a1.259,1.259,0,0,1-.346.864,1.3,1.3,0,0,1-.912.279,1.1,1.1,0,0,1-.99-.48,2.825,2.825,0,0,1-.314-1.515v-.484a2.642,2.642,0,0,1,.335-1.465,1.121,1.121,0,0,1,.987-.473,1.281,1.281,0,0,1,.9.279,1.332,1.332,0,0,1,.345.9h1.318a2.429,2.429,0,0,0-.781-1.665,2.609,2.609,0,0,0-1.785-.594,2.6,2.6,0,0,0-1.4.376,2.433,2.433,0,0,0-.929,1.079,3.834,3.834,0,0,0-.325,1.626v.391a3.4,3.4,0,0,0,.705,2.274,2.4,2.4,0,0,0,1.935.828A2.679,2.679,0,0,0,13.888,14.694Z" fill="currentColor"/>
  </g>
  <rect width="24" height="24" fill="none"/>
</svg>
