<svg xmlns="http://www.w3.org/2000/svg" width="24" height="24" viewBox="0 0 24 24">
  <g>
    <path d="M16,4H8A2,2,0,0,0,6,6V18a2,2,0,0,0,2,2h8a2,2,0,0,0,2-2V6A2,2,0,0,0,16,4ZM8,9l3-3h5v9l-3,3H8Z" fill="currentColor"/>
    <polygon points="12.803 13.784 13.019 7.38 11.063 7.38 11.279 13.784 12.803 13.784" fill="currentColor"/>
    <path d="M13.069,15.759a.927.927,0,0,0-.282-.7,1.141,1.141,0,0,0-1.486,0,.934.934,0,0,0-.281.7.918.918,0,0,0,.281.691,1.144,1.144,0,0,0,1.486,0A.919.919,0,0,0,13.069,15.759Z" fill="currentColor"/>
  </g>
  <rect width="24" height="24" fill="none"/>
</svg>
