<svg id="Layer_1" data-name="Layer 1" xmlns="http://www.w3.org/2000/svg" viewBox="0 0 24 24"><path d="M16,4H8A2,2,0,0,0,6,6V18a2,2,0,0,0,2,2h8a2,2,0,0,0,2-2V6A2,2,0,0,0,16,4ZM8,9l3-3h5v9l-3,3H8Z" style="fill:currentColor"/><path d="M13.18,13.82A11.85,11.85,0,0,0,14.4,12.5,2.71,2.71,0,0,0,15,10.8a1.66,1.66,0,0,0-.46-1.3,1.48,1.48,0,0,0-1-.42,1.38,1.38,0,0,0-.91.28A2.17,2.17,0,0,0,12,10h0a2.4,2.4,0,0,0-.55-.61,1.42,1.42,0,0,0-.9-.27,1.5,1.5,0,0,0-1,.42A1.72,1.72,0,0,0,9,10.8a2.71,2.71,0,0,0,.56,1.7,11.85,11.85,0,0,0,1.22,1.32l.63.56c.2.19.38.36.53.53h0c.15-.17.32-.34.52-.53Z" style="fill:currentColor"/></svg>