<svg xmlns="http://www.w3.org/2000/svg" width="24" height="24" viewBox="0 0 24 24">
  <g>
    <path d="M16,4H8A2,2,0,0,0,6,6V18a2,2,0,0,0,2,2h8a2,2,0,0,0,2-2V6A2,2,0,0,0,16,4ZM8,9l3-3h5v9l-3,3H8Z" fill="currentColor"/>
    <path d="M13.137,14.812a2.631,2.631,0,0,0,1.035-1.076,3.353,3.353,0,0,0,.366-1.587v-.294a3.324,3.324,0,0,0-.374-1.593,2.654,2.654,0,0,0-1.039-1.081,2.992,2.992,0,0,0-1.51-.38H9.646v6.4h1.983A3.018,3.018,0,0,0,13.137,14.812Zm-2.172-.671V9.869h.65a1.428,1.428,0,0,1,1.183.5,2.324,2.324,0,0,1,.4,1.479v.338a2.288,2.288,0,0,1-.417,1.446,1.433,1.433,0,0,1-1.182.506Z" fill="currentColor"/>
  </g>
  <rect width="24" height="24" fill="none"/>
</svg>
