<svg xmlns="http://www.w3.org/2000/svg" viewBox="0 0 24 24"><g id="Layer_1" data-name="Layer 1"><path d="M16,4H8A2,2,0,0,0,6,6V18a2,2,0,0,0,2,2h8a2,2,0,0,0,2-2V6A2,2,0,0,0,16,4ZM8,9l3-3h5v9l-3,3H8Z" style="fill:currentColor"/><path d="M13.2,15a2,2,0,0,0,.75-.76,2.39,2.39,0,0,0,.26-1.11,2.26,2.26,0,0,0-.52-1.59A1.84,1.84,0,0,0,12.26,11a2,2,0,0,0-1,.25l.16-1.38H14V8.8H10.41L10,12.05l1,.25.13-.11a1.07,1.07,0,0,1,.73-.24,1,1,0,0,1,.76.29,1.19,1.19,0,0,1,.27.84,1.43,1.43,0,0,1-.23.87.79.79,0,0,1-.67.31.86.86,0,0,1-.62-.22.9.9,0,0,1-.28-.62H9.88a1.72,1.72,0,0,0,.31,1,1.87,1.87,0,0,0,.78.66,2.44,2.44,0,0,0,1.08.24A2.35,2.35,0,0,0,13.2,15Z" style="fill:currentColor"/></g><g id="Layer_2" data-name="Layer 2"><rect width="24" height="24" style="fill:none"/></g></svg>