<svg xmlns="http://www.w3.org/2000/svg" width="24" height="24" viewBox="0 0 24 24">
  <g>
    <path d="M16,4H8A2,2,0,0,0,6,6V18a2,2,0,0,0,2,2h8a2,2,0,0,0,2-2V6A2,2,0,0,0,16,4Zm0,11-3,3H8V9l3-3h5Z" fill="currentColor"/>
    <path d="M10.521,7.563a.528.528,0,0,0-.528.528V12H9.57V9.359a.528.528,0,0,0-1.056,0v4.226a3.486,3.486,0,0,0,6.972,0V10.838a.528.528,0,0,0-1.056,0v2.43h-.212a1.271,1.271,0,0,0-1.267,1.267h-.423a1.693,1.693,0,0,1,1.479-1.677V8.3a.528.528,0,1,0-1.056,0v3.274h-.423V7.457a.528.528,0,0,0-1.056,0v4.12h-.423V8.091A.528.528,0,0,0,10.521,7.563Z" fill="currentColor"/>
  </g>
  <rect width="24" height="24" fill="none"/>
</svg>
