<svg xmlns="http://www.w3.org/2000/svg" viewBox="0 0 24 24"><g id="Layer_1" data-name="Layer 1"><path d="M16,4H8A2,2,0,0,0,6,6V18a2,2,0,0,0,2,2h8a2,2,0,0,0,2-2V6A2,2,0,0,0,16,4ZM8,9l3-3h5v9l-3,3H8Z" style="fill:currentColor"/><path d="M13.58,14.79a1.66,1.66,0,0,0,.58-1.34,1.59,1.59,0,0,0-.27-.93,1.88,1.88,0,0,0-.74-.62,1.61,1.61,0,0,0,.64-.57A1.46,1.46,0,0,0,14,10.5a1.67,1.67,0,0,0-.54-1.31A2.18,2.18,0,0,0,12,8.71a2.15,2.15,0,0,0-1.48.49A1.64,1.64,0,0,0,10,10.5a1.54,1.54,0,0,0,.23.83,1.68,1.68,0,0,0,.64.57,1.77,1.77,0,0,0-.73.62,1.59,1.59,0,0,0-.27.93,1.66,1.66,0,0,0,.58,1.34,2.37,2.37,0,0,0,1.58.5A2.36,2.36,0,0,0,13.58,14.79ZM11.44,10a.82.82,0,0,1,1.12,0,.88.88,0,0,1,.19.6.94.94,0,0,1-.19.62.71.71,0,0,1-.56.23.72.72,0,0,1-.56-.23.94.94,0,0,1-.19-.62A.86.86,0,0,1,11.44,10Zm-.33,3.39a.93.93,0,0,1,.24-.67.86.86,0,0,1,.64-.24.84.84,0,0,1,.65.25.87.87,0,0,1,.25.66.9.9,0,0,1-.24.67,1,1,0,0,1-1.31,0A.93.93,0,0,1,11.11,13.35Z" style="fill:currentColor"/></g><g id="Layer_2" data-name="Layer 2"><rect width="24" height="24" style="fill:none"/></g></svg>