<svg xmlns="http://www.w3.org/2000/svg" viewBox="0 0 24 24"><g id="Layer_1" data-name="Layer 1"><path d="M16,4H8A2,2,0,0,0,6,6V18a2,2,0,0,0,2,2h8a2,2,0,0,0,2-2V6A2,2,0,0,0,16,4Zm0,11-3,3H8V9l3-3h5Z" style="fill:currentColor"/><path d="M10.52,7.56a.53.53,0,0,0-.53.53V12H9.57V9.36a.53.53,0,1,0-1.06,0v4.22a3.49,3.49,0,0,0,7,0V10.84a.53.53,0,0,0-1.06,0v2.43h-.21A1.27,1.27,0,0,0,13,14.54h-.42A1.68,1.68,0,0,1,14,12.86V8.3A.53.53,0,0,0,13,8.3v3.28h-.42V7.46a.53.53,0,1,0-1.06,0v4.12h-.42V8.09A.53.53,0,0,0,10.52,7.56Z" style="fill:currentColor"/></g><g id="Layer_2" data-name="Layer 2"><rect width="24" height="24" style="fill:none"/></g></svg>