<svg xmlns="http://www.w3.org/2000/svg" viewBox="0 0 24 24"><g id="Layer_1" data-name="Layer 1"><path d="M16,4H8A2,2,0,0,0,6,6V18a2,2,0,0,0,2,2h8a2,2,0,0,0,2-2V6A2,2,0,0,0,16,4ZM8,9l3-3h5v9l-3,3H8Z" style="fill:currentColor"/><path d="M11,14.2h-.28v1.06h.31a3,3,0,0,0,2.26-1,3.7,3.7,0,0,0,.79-2.51V11.3a3.09,3.09,0,0,0-.28-1.36A2,2,0,0,0,12,8.71,2.19,2.19,0,0,0,10.84,9a2,2,0,0,0-.77.82A2.51,2.51,0,0,0,9.8,11a2.3,2.3,0,0,0,.51,1.57,1.7,1.7,0,0,0,1.35.58,1.57,1.57,0,0,0,1.16-.49A1.62,1.62,0,0,1,11,14.2ZM12.51,12a.88.88,0,0,1-.53.16.78.78,0,0,1-.68-.34,1.43,1.43,0,0,1-.24-.86,1.42,1.42,0,0,1,.25-.87.72.72,0,0,1,.63-.35.79.79,0,0,1,.66.35,1.78,1.78,0,0,1,.24,1v.53A1.08,1.08,0,0,1,12.51,12Z" style="fill:currentColor"/></g><g id="Layer_2" data-name="Layer 2"><rect width="24" height="24" style="fill:none"/></g></svg>