<svg id="Layer_1" data-name="Layer 1" xmlns="http://www.w3.org/2000/svg" viewBox="0 0 24 24"><path d="M16,4H8A2,2,0,0,0,6,6V18a2,2,0,0,0,2,2h8a2,2,0,0,0,2-2V6A2,2,0,0,0,16,4ZM8,9l3-3h5v9l-3,3H8Z" style="fill:currentColor"/><path d="M13.69,14.31A2.11,2.11,0,0,0,14,13.23V8.8H12.64v4.43a1.09,1.09,0,0,1-.23.74.76.76,0,0,1-.6.26.79.79,0,0,1-.62-.23,1,1,0,0,1-.2-.69H9.66a1.86,1.86,0,0,0,.57,1.46,2.23,2.23,0,0,0,1.58.52A2.39,2.39,0,0,0,12.92,15,1.91,1.91,0,0,0,13.69,14.31Z" style="fill:currentColor"/></svg>