<svg xmlns="http://www.w3.org/2000/svg" width="24" height="24" viewBox="0 0 24 24">
  <g>
    <path d="M16,4H8A2,2,0,0,0,6,6V18a2,2,0,0,0,2,2h8a2,2,0,0,0,2-2V6A2,2,0,0,0,16,4ZM8,9l3-3h5v9l-3,3H8Z" fill="currentColor"/>
    <path d="M13.562,15.052a2.272,2.272,0,0,0,1.006-.661V11.838H12.051v.971h1.2v1.1a1.46,1.46,0,0,1-1.059.317,1.312,1.312,0,0,1-1.121-.515,2.538,2.538,0,0,1-.382-1.521v-.408a2.661,2.661,0,0,1,.357-1.5,1.168,1.168,0,0,1,1.023-.506,1.24,1.24,0,0,1,.828.255,1.269,1.269,0,0,1,.389.8h1.283a2.318,2.318,0,0,0-.759-1.58,2.679,2.679,0,0,0-1.78-.543,2.68,2.68,0,0,0-1.425.371,2.384,2.384,0,0,0-.932,1.072,3.913,3.913,0,0,0-.324,1.659v.436A3.719,3.719,0,0,0,9.7,13.872a2.418,2.418,0,0,0,.967,1.053,2.864,2.864,0,0,0,1.457.362A4.2,4.2,0,0,0,13.562,15.052Z" fill="currentColor"/>
  </g>
  <rect width="24" height="24" fill="none"/>
</svg>
