<svg xmlns="http://www.w3.org/2000/svg" width="24" height="24" viewBox="0 0 24 24">
  <g>
    <path d="M16,4H8A2,2,0,0,0,6,6V18a2,2,0,0,0,2,2h8a2,2,0,0,0,2-2V6A2,2,0,0,0,16,4ZM8,9l3-3h5v9l-3,3H8Z" fill="currentColor"/>
    <path d="M11.438,13.342a2.449,2.449,0,0,1-.229,1.116,2.091,2.091,0,0,1-.5.676V15.5h2.588v-.366a1.964,1.964,0,0,1-.508-.676,2.491,2.491,0,0,1-.224-1.116,1.82,1.82,0,0,0,.375.2,1.4,1.4,0,0,0,.494.073,1.566,1.566,0,0,0,1.079-.407,1.433,1.433,0,0,0,.454-1.121,1.506,1.506,0,0,0-.425-1.079,1.485,1.485,0,0,0-1.1-.454A1.737,1.737,0,0,0,13.5,10.3a1.8,1.8,0,0,0,.02-.264A1.55,1.55,0,0,0,13.1,8.955a1.562,1.562,0,0,0-2.208,0,1.55,1.55,0,0,0-.415,1.076,1.8,1.8,0,0,0,.02.264,1.737,1.737,0,0,0,.059.259,1.475,1.475,0,0,0-1.1.459,1.518,1.518,0,0,0-.42,1.074A1.442,1.442,0,0,0,9.485,13.2a1.547,1.547,0,0,0,1.084.412,1.386,1.386,0,0,0,.493-.073A1.8,1.8,0,0,0,11.438,13.342Z" fill="currentColor"/>
  </g>
  <rect width="24" height="24" fill="none"/>
</svg>
