<svg xmlns="http://www.w3.org/2000/svg" viewBox="0 0 24 24"><g id="Layer_1" data-name="Layer 1"><path d="M16,4H8A2,2,0,0,0,6,6V18a2,2,0,0,0,2,2h8a2,2,0,0,0,2-2V6A2,2,0,0,0,16,4ZM8,9l3-3h5v9l-3,3H8Z" style="fill:currentColor"/><path d="M11.44,13.34a2.48,2.48,0,0,1-.23,1.12,2.05,2.05,0,0,1-.5.67v.37h2.58v-.37a1.92,1.92,0,0,1-.5-.67,2.48,2.48,0,0,1-.23-1.12,1.74,1.74,0,0,0,.38.2,1.32,1.32,0,0,0,.49.08,1.56,1.56,0,0,0,1.08-.41A1.44,1.44,0,0,0,15,12.09a1.5,1.5,0,0,0-1.52-1.54,1.1,1.1,0,0,0,.06-.26,2.11,2.11,0,0,0,0-.26A1.52,1.52,0,0,0,13.1,9,1.38,1.38,0,0,0,12,8.5,1.38,1.38,0,0,0,10.9,9,1.52,1.52,0,0,0,10.48,10a2.11,2.11,0,0,0,0,.26,1.1,1.1,0,0,0,.06.26,1.47,1.47,0,0,0-1.1.46A1.53,1.53,0,0,0,9,12.09a1.42,1.42,0,0,0,.45,1.11,1.51,1.51,0,0,0,1.08.42,1.32,1.32,0,0,0,.49-.08A1.74,1.74,0,0,0,11.44,13.34Z" style="fill:currentColor"/></g><g id="Layer_2" data-name="Layer 2"><rect width="24" height="24" style="fill:none"/></g></svg>