<svg xmlns="http://www.w3.org/2000/svg" viewBox="0 0 24 24"><g id="Layer_1" data-name="Layer 1"><path d="M16,4H8A2,2,0,0,0,6,6V18a2,2,0,0,0,2,2h8a2,2,0,0,0,2-2V6A2,2,0,0,0,16,4ZM8,9l3-3h5v9l-3,3H8Z" style="fill:currentColor"/><path d="M13.52,14.77a1.66,1.66,0,0,0,.62-1.36,1.63,1.63,0,0,0-.26-.92,1.61,1.61,0,0,0-.81-.58,1.76,1.76,0,0,0,.7-.56,1.36,1.36,0,0,0,.27-.81,1.66,1.66,0,0,0-.57-1.34,2.44,2.44,0,0,0-1.59-.49,2.5,2.5,0,0,0-1.07.23,1.74,1.74,0,0,0-.76.62,1.54,1.54,0,0,0-.27.9h1.27a.63.63,0,0,1,.24-.52.92.92,0,0,1,.62-.2.89.89,0,0,1,.63.21.81.81,0,0,1,.23.6.92.92,0,0,1-.23.65,1,1,0,0,1-.72.24h-.67v1h.67q1,0,1,1a.82.82,0,0,1-.25.63,1,1,0,0,1-.71.24,1,1,0,0,1-.67-.22.75.75,0,0,1-.27-.59H9.7a1.62,1.62,0,0,0,.61,1.33,2.35,2.35,0,0,0,1.57.51A2.44,2.44,0,0,0,13.52,14.77Z" style="fill:currentColor"/></g><g id="Layer_2" data-name="Layer 2"><rect width="24" height="24" style="fill:none"/></g></svg>