<svg xmlns="http://www.w3.org/2000/svg" width="24" height="24" viewBox="0 0 24 24">
  <g>
    <path d="M16,4H8A2,2,0,0,0,6,6V18a2,2,0,0,0,2,2h8a2,2,0,0,0,2-2V6A2,2,0,0,0,16,4ZM8,9l3-3h5v9l-3,3H8Z" fill="currentColor"/>
    <polygon points="10.881 12.988 10.881 8.005 10.774 8.005 8.713 8.743 8.713 9.547 9.893 9.181 9.893 12.988 10.881 12.988" fill="currentColor"/>
    <path d="M13.608,13.057a1.489,1.489,0,0,0,1.251-.547,2.512,2.512,0,0,0,.428-1.579v-.916a2.446,2.446,0,0,0-.441-1.536A1.5,1.5,0,0,0,13.6,7.943a1.509,1.509,0,0,0-1.247.54,2.493,2.493,0,0,0-.431,1.583v.916a2.449,2.449,0,0,0,.44,1.539A1.5,1.5,0,0,0,13.608,13.057Zm-.7-3.208a1.713,1.713,0,0,1,.176-.84A.56.56,0,0,1,13.6,8.74a.572.572,0,0,1,.528.282,1.833,1.833,0,0,1,.169.9v1.183a1.864,1.864,0,0,1-.168.87.555.555,0,0,1-.523.284.564.564,0,0,1-.531-.3,1.918,1.918,0,0,1-.166-.9Z" fill="currentColor"/>
    <polygon points="13.706 15.095 13.706 14.203 12.471 14.203 12.471 12.866 11.532 12.866 11.532 14.203 10.294 14.203 10.294 15.095 11.532 15.095 11.532 16.489 12.471 16.489 12.471 15.095 13.706 15.095" fill="currentColor"/>
  </g>
  <rect width="24" height="24" fill="none"/>
</svg>
