<svg xmlns="http://www.w3.org/2000/svg" width="24" height="24" viewBox="0 0 24 24">
  <g>
    <path d="M16,4H8A2,2,0,0,0,6,6V18a2,2,0,0,0,2,2h8a2,2,0,0,0,2-2V6A2,2,0,0,0,16,4ZM8,9l3-3h5v9l-3,3H8Z" fill="currentColor"/>
    <path d="M13.924,12.4a1.833,1.833,0,0,0,.644-1.483,2.1,2.1,0,0,0-.294-1.106,1.947,1.947,0,0,0-.842-.749A2.894,2.894,0,0,0,12.165,8.8h-2.5v6.4h1.319V12.945h1.156A2.673,2.673,0,0,0,13.924,12.4ZM10.987,9.869H12.2a1.036,1.036,0,0,1,.765.3,1.052,1.052,0,0,1,.277.76.9.9,0,0,1-.275.7,1.158,1.158,0,0,1-.8.246H10.987Z" fill="currentColor"/>
  </g>
  <rect width="24" height="24" fill="none"/>
</svg>
