<svg xmlns="http://www.w3.org/2000/svg" viewBox="0 0 24 24"><g id="Layer_1" data-name="Layer 1"><path d="M16,4H8A2,2,0,0,0,6,6V18a2,2,0,0,0,2,2h8a2,2,0,0,0,2-2V6A2,2,0,0,0,16,4ZM8,9l3-3h5v9l-3,3H8Z" style="fill:currentColor"/><path d="M13.27,15.2h1.41v-.06L13.3,12.52a1.94,1.94,0,0,0,.86-.69,2,2,0,0,0,.28-1.1,1.72,1.72,0,0,0-.61-1.42,2.68,2.68,0,0,0-1.75-.51H9.7v6.4H11V12.86h1.05ZM11,9.87h1.06a1.11,1.11,0,0,1,.79.26,1,1,0,0,1,.25.71.91.91,0,0,1-.27.7,1.08,1.08,0,0,1-.77.25H11Z" style="fill:currentColor"/></g><g id="Layer_2" data-name="Layer 2"><rect width="24" height="24" style="fill:none"/></g></svg>