<svg xmlns="http://www.w3.org/2000/svg" width="24" height="24" viewBox="0 0 24 24">
  <g>
    <path d="M16,4H8A2,2,0,0,0,6,6V18a2,2,0,0,0,2,2h8a2,2,0,0,0,2-2V6A2,2,0,0,0,16,4Zm0,11-3,3H8V9l3-3h5Z" fill="currentColor"/>
    <path d="M9.607,10.732a2.516,2.516,0,0,0-.571,1.628A1.575,1.575,0,0,0,9.5,13.584a1.477,1.477,0,0,0,1.018.422,1.886,1.886,0,0,0,.51-.068,1.175,1.175,0,0,0,.432-.225,2.516,2.516,0,0,1-.215.725,1.926,1.926,0,0,1-.537.7V15.5h2.588v-.366a1.926,1.926,0,0,1-.537-.7,2.516,2.516,0,0,1-.215-.725,1.175,1.175,0,0,0,.432.225,1.886,1.886,0,0,0,.51.068,1.489,1.489,0,0,0,1.016-.417,1.569,1.569,0,0,0,.464-1.229,2.511,2.511,0,0,0-.574-1.632,10.694,10.694,0,0,0-1.228-1.283c-.218-.191-.427-.375-.627-.549a4.628,4.628,0,0,1-.515-.515h-.04a5.2,5.2,0,0,1-.515.513l-.627.551A10.663,10.663,0,0,0,9.607,10.732Z" fill="currentColor"/>
  </g>
  <rect width="24" height="24" fill="none"/>
</svg>
