<svg id="Layer_1" data-name="Layer 1" xmlns="http://www.w3.org/2000/svg" viewBox="0 0 24 24"><path d="M16,4H8A2,2,0,0,0,6,6V18a2,2,0,0,0,2,2h8a2,2,0,0,0,2-2V6A2,2,0,0,0,16,4ZM8,9l3-3h5v9l-3,3H8Z" style="fill:currentColor"/><path d="M13.82,14.81a1.52,1.52,0,0,0,.63-1.3,1.7,1.7,0,0,0-.52-1.25,4.09,4.09,0,0,0-1.64-.84,3.56,3.56,0,0,1-.92-.39.62.62,0,0,1,0-1.06,1.19,1.19,0,0,1,.75-.21,1.09,1.09,0,0,1,.78.25.84.84,0,0,1,.28.68h1.32a1.83,1.83,0,0,0-.3-1,2,2,0,0,0-.83-.7,3,3,0,0,0-1.23-.25,3.16,3.16,0,0,0-1.22.23,1.85,1.85,0,0,0-.84.64,1.51,1.51,0,0,0-.3.92,1.78,1.78,0,0,0,1.09,1.59,7.36,7.36,0,0,0,1.09.44,3.09,3.09,0,0,1,.95.42.65.65,0,0,1,.26.57.59.59,0,0,1-.26.53,1.22,1.22,0,0,1-.73.2c-.85,0-1.27-.36-1.27-1.06H9.54a1.86,1.86,0,0,0,.32,1.09,2.15,2.15,0,0,0,.92.74,3.29,3.29,0,0,0,1.35.27A2.73,2.73,0,0,0,13.82,14.81Z" style="fill:currentColor"/></svg>