<svg id="Layer_1" data-name="Layer 1" xmlns="http://www.w3.org/2000/svg" viewBox="0 0 24 24"><path d="M16,4H8A2,2,0,0,0,6,6V18a2,2,0,0,0,2,2h8a2,2,0,0,0,2-2V6A2,2,0,0,0,16,4ZM8,9l3-3h5v9l-3,3H8Z" style="fill:currentColor"/><path d="M13.14,14.81a2.59,2.59,0,0,0,1-1.07,3.33,3.33,0,0,0,.37-1.59v-.29a3.35,3.35,0,0,0-.38-1.6,2.52,2.52,0,0,0-1-1.08,3,3,0,0,0-1.5-.38h-2v6.4h2A3,3,0,0,0,13.14,14.81ZM11,14.14V9.87h.66a1.45,1.45,0,0,1,1.18.5,2.33,2.33,0,0,1,.4,1.48v.34a2.23,2.23,0,0,1-.41,1.44,1.45,1.45,0,0,1-1.19.51Z" style="fill:currentColor"/></svg>