<svg xmlns="http://www.w3.org/2000/svg" width="24" height="24" viewBox="0 0 24 24">
  <g>
    <path d="M16,4H8A2,2,0,0,0,6,6V18a2,2,0,0,0,2,2h8a2,2,0,0,0,2-2V6A2,2,0,0,0,16,4ZM8,9l3-3h5v9l-3,3H8Z" fill="currentColor"/>
    <path d="M13.2,15.017a1.847,1.847,0,0,0,.749-.76,2.32,2.32,0,0,0,.261-1.11,2.261,2.261,0,0,0-.518-1.586,1.844,1.844,0,0,0-1.433-.567,2.013,2.013,0,0,0-.962.241l.158-1.375H14V8.8H10.412l-.37,3.252,1.011.251.123-.115a1.1,1.1,0,0,1,.734-.237.984.984,0,0,1,.76.29,1.187,1.187,0,0,1,.268.835,1.434,1.434,0,0,1-.232.876.782.782,0,0,1-.664.311.883.883,0,0,1-.626-.223.93.93,0,0,1-.279-.621H9.88a1.806,1.806,0,0,0,.3.971,1.907,1.907,0,0,0,.785.661,2.479,2.479,0,0,0,1.076.235A2.341,2.341,0,0,0,13.2,15.017Z" fill="currentColor"/>
  </g>
  <rect width="24" height="24" fill="none"/>
</svg>
