<svg xmlns="http://www.w3.org/2000/svg" width="24" height="24" viewBox="0 0 24 24">
  <g>
    <path d="M16,4H8A2,2,0,0,0,6,6V18a2,2,0,0,0,2,2h8a2,2,0,0,0,2-2V6A2,2,0,0,0,16,4ZM8,9l3-3h5v9l-3,3H8Z" fill="currentColor"/>
    <path d="M13.521,14.773a1.685,1.685,0,0,0,.622-1.367,1.495,1.495,0,0,0-1.073-1.494,1.737,1.737,0,0,0,.7-.566,1.346,1.346,0,0,0,.269-.809A1.659,1.659,0,0,0,13.466,9.2a2.4,2.4,0,0,0-1.591-.485,2.51,2.51,0,0,0-1.07.225,1.8,1.8,0,0,0-.756.621,1.564,1.564,0,0,0-.27.9h1.27a.639.639,0,0,1,.246-.521.94.94,0,0,1,.611-.2.9.9,0,0,1,.635.215.785.785,0,0,1,.23.6.886.886,0,0,1-.232.641.956.956,0,0,1-.717.242h-.676v.993h.672q1.055,0,1.055.958a.826.826,0,0,1-.257.634,1.124,1.124,0,0,1-1.376.012.735.735,0,0,1-.27-.589H9.7a1.649,1.649,0,0,0,.608,1.336,2.371,2.371,0,0,0,1.567.505A2.5,2.5,0,0,0,13.521,14.773Z" fill="currentColor"/>
  </g>
  <rect width="24" height="24" fill="none"/>
</svg>
