<svg xmlns="http://www.w3.org/2000/svg" width="24" height="24" viewBox="0 0 24 24">
  <g>
    <path d="M16,4H8A2,2,0,0,0,6,6V18a2,2,0,0,0,2,2h8a2,2,0,0,0,2-2V6A2,2,0,0,0,16,4ZM8,9l3-3h5v9l-3,3H8Z" fill="currentColor"/>
    <path d="M13.686,14.31a2.135,2.135,0,0,0,.27-1.08V8.8H12.637V13.23a1.1,1.1,0,0,1-.224.739.755.755,0,0,1-.6.26A.793.793,0,0,1,11.187,14a1.029,1.029,0,0,1-.2-.694H9.662a1.876,1.876,0,0,0,.567,1.461,2.264,2.264,0,0,0,1.582.516,2.382,2.382,0,0,0,1.112-.255A1.846,1.846,0,0,0,13.686,14.31Z" fill="currentColor"/>
  </g>
  <rect width="24" height="24" fill="none"/>
</svg>
