<svg xmlns="http://www.w3.org/2000/svg" width="24" height="24" viewBox="0 0 24 24">
  <g>
    <path d="M16,4H8A2,2,0,0,0,6,6V18a2,2,0,0,0,2,2h8a2,2,0,0,0,2-2V6A2,2,0,0,0,16,4ZM8,9l3-3h5v9l-3,3H8Z" fill="currentColor"/>
    <path d="M13.841,16.342l.84-.742-1.064-.835a2.666,2.666,0,0,0,.8-1.062,3.839,3.839,0,0,0,.29-1.557v-.287a3.835,3.835,0,0,0-.34-1.659,2.539,2.539,0,0,0-.962-1.1,2.819,2.819,0,0,0-2.844,0A2.533,2.533,0,0,0,9.6,10.2a3.834,3.834,0,0,0-.341,1.664v.317a3.75,3.75,0,0,0,.347,1.631,2.542,2.542,0,0,0,.967,1.093,2.661,2.661,0,0,0,1.42.382,2.916,2.916,0,0,0,.483-.039Zm-2.883-2.676a2.726,2.726,0,0,1-.36-1.52v-.313a2.666,2.666,0,0,1,.365-1.514,1.273,1.273,0,0,1,2.052.007,2.7,2.7,0,0,1,.36,1.529v.312a2.71,2.71,0,0,1-.36,1.519,1.263,1.263,0,0,1-2.057-.02Z" fill="currentColor"/>
  </g>
  <rect width="24" height="24" fill="none"/>
</svg>
