<svg xmlns="http://www.w3.org/2000/svg" width="24" height="24" viewBox="0 0 24 24">
  <g>
    <path d="M16,4H8A2,2,0,0,0,6,6V18a2,2,0,0,0,2,2h8a2,2,0,0,0,2-2V6A2,2,0,0,0,16,4ZM8,9l3-3h5v9l-3,3H8Z" fill="currentColor"/>
    <polygon points="14.818 14.635 14.818 13.137 12.107 13.137 12.787 11.887 14.818 11.887 14.818 10.389 13.594 10.389 14.107 9.437 13.352 9.036 12.622 10.389 9.144 10.389 9.144 11.887 11.816 11.887 11.143 13.137 9.144 13.137 9.144 14.635 10.337 14.635 9.811 15.612 10.565 16.006 11.302 14.635 14.818 14.635" fill="currentColor"/>
  </g>
  <rect width="24" height="24" fill="none"/>
</svg>
