<svg xmlns="http://www.w3.org/2000/svg" width="24" height="24" viewBox="0 0 24 24">
  <g>
    <path d="M16,4H8A2,2,0,0,0,6,6V18a2,2,0,0,0,2,2h8a2,2,0,0,0,2-2V6A2,2,0,0,0,16,4ZM8,9l3-3h5v9l-3,3H8Z" fill="currentColor"/>
    <path d="M13.865,14.716a1.689,1.689,0,0,0,.59-1.4,1.481,1.481,0,0,0-.283-.914,1.355,1.355,0,0,0-.776-.5,1.4,1.4,0,0,0,.672-.525,1.445,1.445,0,0,0,.242-.828,1.525,1.525,0,0,0-.6-1.308A2.941,2.941,0,0,0,11.941,8.8H9.7v6.4h2.488A2.65,2.65,0,0,0,13.865,14.716ZM11.018,9.869h.923a1.328,1.328,0,0,1,.8.191.738.738,0,0,1,.253.627q0,.777-1,.794h-.976Zm0,4.272V12.413h1.209a.8.8,0,0,1,.91.893.76.76,0,0,1-.262.612,1.092,1.092,0,0,1-.728.223Z" fill="currentColor"/>
  </g>
  <rect width="24" height="24" fill="none"/>
</svg>
