<svg xmlns="http://www.w3.org/2000/svg" width="24" height="24" viewBox="0 0 24 24">
  <g>
    <path d="M8,20.5A2.5,2.5,0,0,1,5.5,18V14.929L4.289,10.41,5.5,8.313V6a2.468,2.468,0,0,1,.306-1.173L3,5.58A2,2,0,0,0,1.581,8.03L4.687,19.621A2,2,0,0,0,6.617,21.1a1.975,1.975,0,0,0,.519-.069l2-.535Z" fill="currentColor"/>
    <path d="M21.005,5.58l-2.811-.753A2.468,2.468,0,0,1,18.5,6v.98l1.987.532L18.5,14.928V18A2.5,2.5,0,0,1,16,20.5H14.866l2,.535a1.975,1.975,0,0,0,.519.069,2,2,0,0,0,1.93-1.483L22.419,8.03A2,2,0,0,0,21.005,5.58Z" fill="currentColor"/>
    <path d="M16,4H8A2,2,0,0,0,6,6V18a2,2,0,0,0,2,2h8a2,2,0,0,0,2-2V6A2,2,0,0,0,16,4ZM8,9l3-3h5v9l-3,3H8Z" fill="currentColor"/>
  </g>
  <rect width="24" height="24" fill="none"/>
</svg>
