<svg xmlns="http://www.w3.org/2000/svg" viewBox="0 0 24 24"><g id="Layer_1" data-name="Layer 1"><polygon points="8.22 9.74 8.22 10.77 9.74 10.3 9.74 15.2 11.01 15.2 11.01 8.79 10.87 8.79 8.22 9.74" style="fill:currentColor"/><path d="M13.62,15.29a1.93,1.93,0,0,0,1.61-.71,3.25,3.25,0,0,0,.55-2V11.38a3.15,3.15,0,0,0-.57-2,1.93,1.93,0,0,0-1.6-.69,1.94,1.94,0,0,0-1.6.7,3.19,3.19,0,0,0-.56,2v1.18a3.15,3.15,0,0,0,.57,2A1.93,1.93,0,0,0,13.62,15.29Zm-.9-4.13A2.22,2.22,0,0,1,13,10.08a.71.71,0,0,1,.66-.34.74.74,0,0,1,.68.36,2.4,2.4,0,0,1,.22,1.16v1.52a2.42,2.42,0,0,1-.22,1.12.71.71,0,0,1-.67.36.73.73,0,0,1-.69-.38,2.47,2.47,0,0,1-.21-1.16Z" style="fill:currentColor"/><path d="M16,4H8A2,2,0,0,0,6,6V18a2,2,0,0,0,2,2h8a2,2,0,0,0,2-2V6A2,2,0,0,0,16,4ZM8,9l3-3h5v9l-3,3H8Z" style="fill:currentColor"/></g><g id="Layer_2" data-name="Layer 2"><rect width="24" height="24" style="fill:none"/></g></svg>