<svg xmlns="http://www.w3.org/2000/svg" width="24" height="24" viewBox="0 0 24 24">
  <g>
    <path d="M16,4H8A2,2,0,0,0,6,6V18a2,2,0,0,0,2,2h8a2,2,0,0,0,2-2V6A2,2,0,0,0,16,4ZM8,9l3-3h5v9l-3,3H8Z" fill="currentColor"/>
    <polygon points="13.362 15.199 14.931 15.199 12.593 11.645 14.865 8.801 13.244 8.801 11.613 10.906 11.033 11.701 11.033 8.801 9.715 8.801 9.715 15.199 11.033 15.199 11.033 13.371 11.719 12.633 13.362 15.199" fill="currentColor"/>
  </g>
  <rect width="24" height="24" fill="none"/>
</svg>
