<svg xmlns="http://www.w3.org/2000/svg" viewBox="0 0 24 24"><g id="Layer_1" data-name="Layer 1"><path d="M16,4H8A2,2,0,0,0,6,6V18a2,2,0,0,0,2,2h8a2,2,0,0,0,2-2V6A2,2,0,0,0,16,4ZM8,9l3-3h5v9l-3,3H8Z" style="fill:currentColor"/><polygon points="10.88 12.99 10.88 8.01 10.77 8.01 8.71 8.74 8.71 9.55 9.89 9.18 9.89 12.99 10.88 12.99" style="fill:currentColor"/><path d="M13.61,13.06a1.48,1.48,0,0,0,1.25-.55,2.54,2.54,0,0,0,.43-1.58V10a2.49,2.49,0,0,0-.44-1.53,1.52,1.52,0,0,0-1.25-.54,1.48,1.48,0,0,0-1.24.54,2.49,2.49,0,0,0-.44,1.59V11a2.52,2.52,0,0,0,.44,1.54A1.52,1.52,0,0,0,13.61,13.06Zm-.7-3.21A1.75,1.75,0,0,1,13.09,9a.56.56,0,0,1,.51-.27.57.57,0,0,1,.53.28,1.86,1.86,0,0,1,.17.9v1.19a1.9,1.9,0,0,1-.17.87.55.55,0,0,1-.52.28.56.56,0,0,1-.53-.3,1.86,1.86,0,0,1-.17-.9Z" style="fill:currentColor"/><polygon points="13.71 15.1 13.71 14.2 12.47 14.2 12.47 12.87 11.53 12.87 11.53 14.2 10.29 14.2 10.29 15.1 11.53 15.1 11.53 16.49 12.47 16.49 12.47 15.1 13.71 15.1" style="fill:currentColor"/></g><g id="Layer_2" data-name="Layer 2"><rect width="24" height="24" style="fill:none"/></g></svg>