<svg xmlns="http://www.w3.org/2000/svg" width="24" height="24" viewBox="0 0 24 24">
  <g>
    <path d="M16,4H8A2,2,0,0,0,6,6V18a2,2,0,0,0,2,2h8a2,2,0,0,0,2-2V6A2,2,0,0,0,16,4ZM8,9l3-3h5v9l-3,3H8Z" fill="currentColor"/>
    <path d="M13.268,15.2h1.415v-.061L13.3,12.523a1.924,1.924,0,0,0,.859-.7,1.966,1.966,0,0,0,.283-1.092,1.742,1.742,0,0,0-.615-1.427A2.686,2.686,0,0,0,12.077,8.8H9.7v6.4h1.318V12.857h1.05Zm-2.25-5.33h1.059a1.067,1.067,0,0,1,.789.259.964.964,0,0,1,.257.712.9.9,0,0,1-.272.7,1.087,1.087,0,0,1-.769.253H11.018Z" fill="currentColor"/>
  </g>
  <rect width="24" height="24" fill="none"/>
</svg>
