<svg xmlns="http://www.w3.org/2000/svg" viewBox="0 0 24 24"><g id="Layer_1" data-name="Layer 1"><path d="M16,4H8A2,2,0,0,0,6,6V18a2,2,0,0,0,2,2h8a2,2,0,0,0,2-2V6A2,2,0,0,0,16,4ZM8,9l3-3h5v9l-3,3H8Z" style="fill:currentColor"/><polygon points="12.8 13.78 13.02 7.38 11.06 7.38 11.28 13.78 12.8 13.78" style="fill:currentColor"/><path d="M13.07,15.76a1,1,0,0,0-.28-.7,1.16,1.16,0,0,0-1.49,0,.94.94,0,0,0-.28.7.9.9,0,0,0,.28.69,1.16,1.16,0,0,0,1.49,0A.94.94,0,0,0,13.07,15.76Z" style="fill:currentColor"/></g><g id="Layer_2" data-name="Layer 2"><rect width="24" height="24" style="fill:none"/></g></svg>