<svg xmlns="http://www.w3.org/2000/svg" viewBox="0 0 24 24"><g id="Layer_1" data-name="Layer 1"><path d="M16,4H8A2,2,0,0,0,6,6V18a2,2,0,0,0,2,2h8a2,2,0,0,0,2-2V6A2,2,0,0,0,16,4ZM8,9l3-3h5v9l-3,3H8Z" style="fill:currentColor"/><path d="M13.89,14.69a2.23,2.23,0,0,0,.76-1.62H13.33a1.24,1.24,0,0,1-.34.86,1.3,1.3,0,0,1-.92.28,1.1,1.1,0,0,1-1-.48,2.81,2.81,0,0,1-.31-1.51v-.49a2.64,2.64,0,0,1,.34-1.46,1.09,1.09,0,0,1,1-.48,1.32,1.32,0,0,1,.91.28,1.38,1.38,0,0,1,.34.9h1.32a2.42,2.42,0,0,0-.78-1.66,2.6,2.6,0,0,0-1.79-.6,2.6,2.6,0,0,0-1.4.38,2.47,2.47,0,0,0-.93,1.08,3.78,3.78,0,0,0-.33,1.62v.39a3.4,3.4,0,0,0,.71,2.28,2.4,2.4,0,0,0,1.93.83A2.68,2.68,0,0,0,13.89,14.69Z" style="fill:currentColor"/></g><g id="Layer_2" data-name="Layer 2"><rect width="24" height="24" style="fill:none"/></g></svg>