<svg xmlns="http://www.w3.org/2000/svg" viewBox="0 0 24 24"><g id="Layer_1" data-name="Layer 1"><path d="M16,4H8A2,2,0,0,0,6,6V18a2,2,0,0,0,2,2h8a2,2,0,0,0,2-2V6A2,2,0,0,0,16,4ZM8,9l3-3h5v9l-3,3H8Z" style="fill:currentColor"/><path d="M13.87,14.72a1.71,1.71,0,0,0,.59-1.4,1.49,1.49,0,0,0-.29-.92,1.39,1.39,0,0,0-.77-.49,1.41,1.41,0,0,0,.67-.53,1.45,1.45,0,0,0,.24-.83,1.51,1.51,0,0,0-.6-1.3,2.92,2.92,0,0,0-1.77-.45H9.7v6.4h2.49A2.75,2.75,0,0,0,13.87,14.72ZM11,9.87h.92a1.33,1.33,0,0,1,.8.19.74.74,0,0,1,.25.63c0,.52-.33.78-1,.79H11Zm0,4.27V12.41h1.21a.81.81,0,0,1,.91.9.77.77,0,0,1-.26.61,1.1,1.1,0,0,1-.73.22Z" style="fill:currentColor"/></g><g id="Layer_2" data-name="Layer 2"><rect width="24" height="24" style="fill:none"/></g></svg>