<svg xmlns="http://www.w3.org/2000/svg" width="24" height="24" viewBox="0 0 24 24">
  <g>
    <path d="M16,4H8A2,2,0,0,0,6,6V18a2,2,0,0,0,2,2h8a2,2,0,0,0,2-2V6A2,2,0,0,0,16,4ZM8,9l3-3h5v9l-3,3H8Z" fill="currentColor"/>
    <path d="M13.817,14.814a1.538,1.538,0,0,0,.629-1.3,1.674,1.674,0,0,0-.514-1.248,4,4,0,0,0-1.64-.839,3.521,3.521,0,0,1-.924-.4.616.616,0,0,1-.315-.523.645.645,0,0,1,.268-.538,1.212,1.212,0,0,1,.752-.2,1.142,1.142,0,0,1,.778.243.864.864,0,0,1,.276.683h1.319a1.834,1.834,0,0,0-.3-1.028,1.94,1.94,0,0,0-.833-.7A2.879,2.879,0,0,0,12.1,8.713a3.162,3.162,0,0,0-1.228.228,1.914,1.914,0,0,0-.84.635,1.548,1.548,0,0,0-.292.926,1.773,1.773,0,0,0,1.09,1.586,6.666,6.666,0,0,0,1.085.437,3.486,3.486,0,0,1,.949.422.677.677,0,0,1,.264.574.623.623,0,0,1-.264.534,1.232,1.232,0,0,1-.734.191q-1.264,0-1.265-1.059H9.537a1.889,1.889,0,0,0,.319,1.089,2.117,2.117,0,0,0,.925.741,3.266,3.266,0,0,0,1.344.27A2.745,2.745,0,0,0,13.817,14.814Z" fill="currentColor"/>
  </g>
  <rect width="24" height="24" fill="none"/>
</svg>
