<svg id="Layer_1" data-name="Layer 1" xmlns="http://www.w3.org/2000/svg" viewBox="0 0 24 24"><path d="M16,4H8A2,2,0,0,0,6,6V18a2,2,0,0,0,2,2h8a2,2,0,0,0,2-2V6A2,2,0,0,0,16,4ZM8,9l3-3h5v9l-3,3H8Z" style="fill:currentColor"/><path d="M11.25,10a.85.85,0,0,1,.68-.29.78.78,0,0,1,.61.24,1,1,0,0,1,.22.67,1.27,1.27,0,0,1-.21.66,4.5,4.5,0,0,1-.63.81L9.85,14.33v.87h4.39v-1H11.49l1.45-1.54a5.62,5.62,0,0,0,.85-1.14,2.24,2.24,0,0,0,.24-1,1.68,1.68,0,0,0-.54-1.34A2.27,2.27,0,0,0,12,8.71,2.34,2.34,0,0,0,10.79,9a1.85,1.85,0,0,0-.78.76,2,2,0,0,0-.28,1.06H11A1.16,1.16,0,0,1,11.25,10Z" style="fill:currentColor"/></svg>