<svg xmlns="http://www.w3.org/2000/svg" viewBox="0 0 24 24"><g id="Layer_1" data-name="Layer 1"><path d="M16,4H8A2,2,0,0,0,6,6V18a2,2,0,0,0,2,2h8a2,2,0,0,0,2-2V6A2,2,0,0,0,16,4ZM8,9l3-3h5v9l-3,3H8Z" style="fill:currentColor"/><path d="M13.61,14.58a3.19,3.19,0,0,0,.55-2V11.38a3.15,3.15,0,0,0-.57-2A1.93,1.93,0,0,0,12,8.71a1.92,1.92,0,0,0-1.6.7,3.19,3.19,0,0,0-.55,2v1.18a3.09,3.09,0,0,0,.56,2,1.94,1.94,0,0,0,1.6.69A1.92,1.92,0,0,0,13.61,14.58Zm-2.29-.7a2.47,2.47,0,0,1-.21-1.16V11.16a2.13,2.13,0,0,1,.22-1.08A.71.71,0,0,1,12,9.74a.73.73,0,0,1,.68.36,2.29,2.29,0,0,1,.22,1.16v1.52a2.42,2.42,0,0,1-.22,1.12.8.8,0,0,1-1.35,0Z" style="fill:currentColor"/></g><g id="Layer_2" data-name="Layer 2"><rect width="24" height="24" style="fill:none"/></g></svg>