<svg id="Layer_1" data-name="Layer 1" xmlns="http://www.w3.org/2000/svg" viewBox="0 0 24 24"><path d="M16,4H8A2,2,0,0,0,6,6V18a2,2,0,0,0,2,2h8a2,2,0,0,0,2-2V6A2,2,0,0,0,16,4ZM8,9l3-3h5v9l-3,3H8Z" style="fill:currentColor"/><path d="M13.92,12.4a1.83,1.83,0,0,0,.65-1.48,2.1,2.1,0,0,0-.3-1.11,1.93,1.93,0,0,0-.84-.75,2.94,2.94,0,0,0-1.27-.26H9.67v6.4H11V13h1.15A2.67,2.67,0,0,0,13.92,12.4ZM11,9.87H12.2a1,1,0,0,1,.76.3,1.06,1.06,0,0,1,.28.76.87.87,0,0,1-.28.7,1.18,1.18,0,0,1-.8.25H11Z" style="fill:currentColor"/></svg>