<svg xmlns="http://www.w3.org/2000/svg" viewBox="0 0 24 24"><g id="Layer_1" data-name="Layer 1"><path d="M16,4H8A2,2,0,0,0,6,6V18a2,2,0,0,0,2,2h8a2,2,0,0,0,2-2V6A2,2,0,0,0,16,4ZM8,9l3-3h5v9l-3,3H8Z" style="fill:currentColor"/><polygon points="14.82 14.63 14.82 13.14 12.11 13.14 12.79 11.89 14.82 11.89 14.82 10.39 13.59 10.39 14.11 9.44 13.35 9.04 12.62 10.39 9.14 10.39 9.14 11.89 11.82 11.89 11.14 13.14 9.14 13.14 9.14 14.63 10.34 14.63 9.81 15.61 10.56 16.01 11.3 14.63 14.82 14.63" style="fill:currentColor"/></g><g id="Layer_2" data-name="Layer 2"><rect width="24" height="24" style="fill:none"/></g></svg>