<svg xmlns="http://www.w3.org/2000/svg" width="24" height="24" viewBox="0 0 24 24">
  <g>
    <path d="M16,4H8A2,2,0,0,0,6,6V18a2,2,0,0,0,2,2h8a2,2,0,0,0,2-2V6A2,2,0,0,0,16,4ZM8,9l3-3h5v9l-3,3H8Z" fill="currentColor"/>
    <path d="M13.58,14.793a1.676,1.676,0,0,0,.58-1.347,1.589,1.589,0,0,0-.272-.925,1.865,1.865,0,0,0-.739-.618,1.668,1.668,0,0,0,.642-.575,1.491,1.491,0,0,0,.233-.826,1.656,1.656,0,0,0-.547-1.308A2.16,2.16,0,0,0,12,8.713a2.148,2.148,0,0,0-1.481.485,1.662,1.662,0,0,0-.545,1.3,1.5,1.5,0,0,0,.231.826,1.659,1.659,0,0,0,.639.575,1.832,1.832,0,0,0-.734.616,1.6,1.6,0,0,0-.272.927,1.674,1.674,0,0,0,.584,1.345,2.364,2.364,0,0,0,1.582.5A2.358,2.358,0,0,0,13.58,14.793ZM11.444,9.957A.71.71,0,0,1,12,9.737a.7.7,0,0,1,.558.226.879.879,0,0,1,.2.6.93.93,0,0,1-.2.616.684.684,0,0,1-.556.232.693.693,0,0,1-.558-.232.92.92,0,0,1-.2-.616A.874.874,0,0,1,11.444,9.957Zm-.338,3.4a.92.92,0,0,1,.242-.67.968.968,0,0,1,1.3,0,1.053,1.053,0,0,1,.007,1.335.989.989,0,0,1-1.308-.008A.92.92,0,0,1,11.106,13.354Z" fill="currentColor"/>
  </g>
  <rect width="24" height="24" fill="none"/>
</svg>
