<svg xmlns="http://www.w3.org/2000/svg" width="24" height="24" viewBox="0 0 24 24">
  <g>
    <path d="M16,4H8A2,2,0,0,0,6,6V18a2,2,0,0,0,2,2h8a2,2,0,0,0,2-2V6A2,2,0,0,0,16,4ZM8,9l3-3h5v9l-3,3H8Z" fill="currentColor"/>
    <path d="M11.249,10.033a.84.84,0,0,1,.679-.3.78.78,0,0,1,.615.243.98.98,0,0,1,.215.671,1.312,1.312,0,0,1-.2.66,5.149,5.149,0,0,1-.631.812L9.854,14.329v.87h4.385V14.176H11.488l1.455-1.534a5.4,5.4,0,0,0,.844-1.147,2.151,2.151,0,0,0,.246-.967,1.68,1.68,0,0,0-.547-1.34,2.268,2.268,0,0,0-1.536-.475,2.41,2.41,0,0,0-1.156.274,1.976,1.976,0,0,0-.789.759,2.1,2.1,0,0,0-.279,1.067H11A1.174,1.174,0,0,1,11.249,10.033Z" fill="currentColor"/>
  </g>
  <rect width="24" height="24" fill="none"/>
</svg>
