<svg xmlns="http://www.w3.org/2000/svg" viewBox="0 0 24 24"><g id="Layer_1" data-name="Layer 1"><path d="M16,4H8A2,2,0,0,0,6,6V18a2,2,0,0,0,2,2h8a2,2,0,0,0,2-2V6A2,2,0,0,0,16,4ZM8,9l3-3h5v9l-3,3H8Z" style="fill:currentColor"/><polygon points="13.36 15.2 14.93 15.2 12.59 11.64 14.87 8.8 13.24 8.8 11.61 10.91 11.03 11.7 11.03 8.8 9.71 8.8 9.71 15.2 11.03 15.2 11.03 13.37 11.72 12.63 13.36 15.2" style="fill:currentColor"/></g><g id="Layer_2" data-name="Layer 2"><rect width="24" height="24" style="fill:none"/></g></svg>