<svg xmlns="http://www.w3.org/2000/svg" viewBox="0 0 24 24"><g id="Layer_1" data-name="Layer 1"><path d="M16,4H8A2,2,0,0,0,6,6V18a2,2,0,0,0,2,2h8a2,2,0,0,0,2-2V6A2,2,0,0,0,16,4ZM8,9l3-3h5v9l-3,3H8Z" style="fill:currentColor"/><path d="M13.56,15.05a2.26,2.26,0,0,0,1-.66V11.84H12.05v1h1.2v1.1a1.46,1.46,0,0,1-1.06.32,1.3,1.3,0,0,1-1.12-.52,2.56,2.56,0,0,1-.38-1.52v-.4A2.69,2.69,0,0,1,11,10.28a1.2,1.2,0,0,1,1-.5,1.25,1.25,0,0,1,.83.25,1.29,1.29,0,0,1,.39.81h1.28a2.29,2.29,0,0,0-.76-1.58A2.63,2.63,0,0,0,12,8.71a2.77,2.77,0,0,0-1.43.37,2.47,2.47,0,0,0-.93,1.08,4,4,0,0,0-.32,1.66v.43a3.58,3.58,0,0,0,.35,1.62,2.39,2.39,0,0,0,1,1.05,2.81,2.81,0,0,0,1.46.37A4.1,4.1,0,0,0,13.56,15.05Z" style="fill:currentColor"/></g><g id="Layer_2" data-name="Layer 2"><rect width="24" height="24" style="fill:none"/></g></svg>