<svg xmlns="http://www.w3.org/2000/svg" width="24" height="24" viewBox="0 0 24 24">
  <g>
    <polygon points="8.224 9.742 8.224 10.774 9.74 10.305 9.74 15.2 11.01 15.2 11.01 8.793 10.874 8.793 8.224 9.742" fill="currentColor"/>
    <path d="M13.618,15.288a1.916,1.916,0,0,0,1.608-.7,3.237,3.237,0,0,0,.55-2.03V11.377A3.143,3.143,0,0,0,15.209,9.4a1.935,1.935,0,0,0-1.6-.687,1.929,1.929,0,0,0-1.6.694,3.189,3.189,0,0,0-.557,2.034V12.62a3.149,3.149,0,0,0,.567,1.978A1.932,1.932,0,0,0,13.618,15.288Zm-.9-4.125a2.183,2.183,0,0,1,.227-1.08.722.722,0,0,1,.661-.346.734.734,0,0,1,.679.364,2.342,2.342,0,0,1,.218,1.159v1.521A2.393,2.393,0,0,1,14.29,13.9a.71.71,0,0,1-.672.366.727.727,0,0,1-.684-.38,2.464,2.464,0,0,1-.213-1.164Z" fill="currentColor"/>
    <path d="M16,4H8A2,2,0,0,0,6,6V18a2,2,0,0,0,2,2h8a2,2,0,0,0,2-2V6A2,2,0,0,0,16,4ZM8,9l3-3h5v9l-3,3H8Z" fill="currentColor"/>
  </g>
  <rect width="24" height="24" fill="none"/>
</svg>
