<svg xmlns="http://www.w3.org/2000/svg" width="24" height="24" viewBox="0 0 24 24">
  <g>
    <path d="M16,4H8A2,2,0,0,0,6,6V18a2,2,0,0,0,2,2h8a2,2,0,0,0,2-2V6A2,2,0,0,0,16,4ZM8,9l3-3h5v9l-3,3H8Z" fill="currentColor"/>
    <path d="M13.611,14.584a3.244,3.244,0,0,0,.549-2.03V11.376A3.143,3.143,0,0,0,13.593,9.4a1.933,1.933,0,0,0-1.6-.687,1.93,1.93,0,0,0-1.6.694,3.2,3.2,0,0,0-.556,2.035V12.62A3.149,3.149,0,0,0,10.4,14.6a1.929,1.929,0,0,0,1.6.689A1.918,1.918,0,0,0,13.611,14.584Zm-2.292-.7a2.462,2.462,0,0,1-.213-1.163V11.162a2.186,2.186,0,0,1,.227-1.08.722.722,0,0,1,.661-.345.733.733,0,0,1,.678.363,2.333,2.333,0,0,1,.218,1.159v1.522a2.411,2.411,0,0,1-.215,1.117.714.714,0,0,1-.673.366A.725.725,0,0,1,11.319,13.883Z" fill="currentColor"/>
  </g>
  <rect width="24" height="24" fill="none"/>
</svg>
