<svg xmlns="http://www.w3.org/2000/svg" width="24" height="24" viewBox="0 0 24 24">
  <g>
    <path d="M16,4H8A2,2,0,0,0,6,6V18a2,2,0,0,0,2,2h8a2,2,0,0,0,2-2V6A2,2,0,0,0,16,4ZM8,9l3-3h5v9l-3,3H8Z" fill="currentColor"/>
    <path d="M13.177,13.815A10.285,10.285,0,0,0,14.4,12.5a2.682,2.682,0,0,0,.567-1.7,1.678,1.678,0,0,0-.459-1.3,1.5,1.5,0,0,0-1.035-.42,1.414,1.414,0,0,0-.911.276,2.275,2.275,0,0,0-.539.6h-.044a2.186,2.186,0,0,0-.545-.605,1.42,1.42,0,0,0-.9-.274A1.482,1.482,0,0,0,9.493,9.5,1.684,1.684,0,0,0,9.036,10.8,2.682,2.682,0,0,0,9.6,12.5a10.285,10.285,0,0,0,1.22,1.315c.219.2.428.389.63.57a5.5,5.5,0,0,1,.523.529h.044a5.3,5.3,0,0,1,.524-.529C12.748,14.2,12.958,14.015,13.177,13.815Z" fill="currentColor"/>
  </g>
  <rect width="24" height="24" fill="none"/>
</svg>
