<svg xmlns="http://www.w3.org/2000/svg" width="24" height="24" viewBox="0 0 24 24">
  <g>
    <path d="M16,4H8A2,2,0,0,0,6,6V18a2,2,0,0,0,2,2h8a2,2,0,0,0,2-2V6A2,2,0,0,0,16,4ZM8,9l3-3h5v9l-3,3H8Z" fill="currentColor"/>
    <polygon points="13.049 15.199 14.375 15.199 15.795 8.801 14.48 8.801 13.619 13.354 12.569 8.801 11.453 8.801 10.398 13.345 9.533 8.801 8.219 8.801 9.639 15.199 10.965 15.199 12.007 10.919 13.049 15.199" fill="currentColor"/>
  </g>
  <rect width="24" height="24" fill="none"/>
</svg>
