<svg xmlns="http://www.w3.org/2000/svg" width="24" height="24" viewBox="0 0 24 24">
  <g>
    <path d="M16,4H8A2,2,0,0,0,6,6V18a2,2,0,0,0,2,2h8a2,2,0,0,0,2-2V6A2,2,0,0,0,16,4ZM8,9l3-3h5v9l-3,3H8Z" fill="currentColor"/>
    <path d="M13.8,14.677a2.161,2.161,0,0,0,.657-1.661V8.8H13.129V13.06Q13.111,14.229,12,14.229a1.152,1.152,0,0,1-.833-.289,1.22,1.22,0,0,1-.3-.916V8.8H9.548v4.262a2.12,2.12,0,0,0,.673,1.631A2.556,2.556,0,0,0,12,15.287,2.533,2.533,0,0,0,13.8,14.677Z" fill="currentColor"/>
  </g>
  <rect width="24" height="24" fill="none"/>
</svg>
