<svg id="Layer_1" data-name="Layer 1" xmlns="http://www.w3.org/2000/svg" viewBox="0 0 24 24"><path d="M8,20.5A2.5,2.5,0,0,1,5.5,18V14.93L4.29,10.41,5.5,8.31V6a2.43,2.43,0,0,1,.31-1.17L3,5.58A2,2,0,0,0,1.58,8L4.69,19.62A2,2,0,0,0,6.62,21.1,2.37,2.37,0,0,0,7.14,21l2-.54Z" style="fill:currentColor"/><path d="M21,5.58l-2.81-.75A2.43,2.43,0,0,1,18.5,6V7l2,.53-2,7.42V18A2.5,2.5,0,0,1,16,20.5H14.87l2,.54a2.37,2.37,0,0,0,.52.06,2,2,0,0,0,1.93-1.48L22.42,8A2,2,0,0,0,21,5.58Z" style="fill:currentColor"/><path d="M16,4H8A2,2,0,0,0,6,6V18a2,2,0,0,0,2,2h8a2,2,0,0,0,2-2V6A2,2,0,0,0,16,4ZM8,9l3-3h5v9l-3,3H8Z" style="fill:currentColor"/></svg>