<svg xmlns="http://www.w3.org/2000/svg" viewBox="0 0 24 24"><g id="Layer_1" data-name="Layer 1"><path d="M16,4H8A2,2,0,0,0,6,6V18a2,2,0,0,0,2,2h8a2,2,0,0,0,2-2V6A2,2,0,0,0,16,4ZM8,9l3-3h5v9l-3,3H8Z" style="fill:currentColor"/><path d="M13.43,14.9a2.59,2.59,0,0,0,1-1.1,3.86,3.86,0,0,0,.33-1.65v-.29a3.79,3.79,0,0,0-.34-1.66,2.53,2.53,0,0,0-1-1.1,2.8,2.8,0,0,0-2.85,0,2.53,2.53,0,0,0-1,1.1,3.79,3.79,0,0,0-.34,1.66v.32a3.66,3.66,0,0,0,.35,1.63,2.59,2.59,0,0,0,1,1.1,2.72,2.72,0,0,0,1.42.38A2.62,2.62,0,0,0,13.43,14.9ZM11,13.67a2.73,2.73,0,0,1-.36-1.52v-.32A2.63,2.63,0,0,1,11,10.32a1.19,1.19,0,0,1,1-.52,1.17,1.17,0,0,1,1,.53,2.66,2.66,0,0,1,.36,1.53v.31A2.69,2.69,0,0,1,13,13.69a1.26,1.26,0,0,1-2,0Z" style="fill:currentColor"/></g><g id="Layer_2" data-name="Layer 2"><rect width="24" height="24" style="fill:none"/></g></svg>