<svg xmlns="http://www.w3.org/2000/svg" viewBox="0 0 24 24"><g id="Layer_1" data-name="Layer 1"><path d="M16.5,11.45a1,1,0,0,0-1,1v2h-7v-2a1,1,0,0,0-2,0V16a.5.5,0,0,0,.5.5H17a.5.5,0,0,0,.5-.5v-3.5A1,1,0,0,0,16.5,11.45Z" style="fill:currentColor"/><path d="M10,12.45V13h4v-.5A2.48,2.48,0,0,1,16.25,10V9a1.5,1.5,0,0,0-1.5-1.5H9.25A1.5,1.5,0,0,0,7.75,9v1A2.48,2.48,0,0,1,10,12.45Z" style="fill:currentColor"/><path d="M20,2H4A2,2,0,0,0,2,4V20a2,2,0,0,0,2,2H20a2,2,0,0,0,2-2V4A2,2,0,0,0,20,2ZM19,16a2,2,0,0,1-2,2H7a2,2,0,0,1-2-2v-3.5A2.49,2.49,0,0,1,6.25,10.3V9a3,3,0,0,1,3-3h5.5a3,3,0,0,1,3,3V10.3A2.49,2.49,0,0,1,19,12.45Z" style="fill:currentColor"/></g><g id="Layer_2" data-name="Layer 2"><rect width="24" height="24" style="fill:none"/></g></svg>