<svg xmlns="http://www.w3.org/2000/svg" width="24" height="24" viewBox="0 0 24 24">
  <g>
    <path d="M16.5,11.45a1,1,0,0,0-1,1v2h-7v-2a1,1,0,0,0-2,0v3.5a.5.5,0,0,0,.5.5H17a.5.5,0,0,0,.5-.5v-3.5A1,1,0,0,0,16.5,11.45Z" fill="currentColor"/>
    <path d="M10,12.45v.5h4v-.5a2.479,2.479,0,0,1,2.25-2.47V8.95a1.5,1.5,0,0,0-1.5-1.5H9.25a1.5,1.5,0,0,0-1.5,1.5V9.98A2.479,2.479,0,0,1,10,12.45Z" fill="currentColor"/>
    <path d="M20,1.95H4a2.006,2.006,0,0,0-2,2v16a2.006,2.006,0,0,0,2,2H20a2.006,2.006,0,0,0,2-2v-16A2.006,2.006,0,0,0,20,1.95Zm-1,14a2.006,2.006,0,0,1-2,2H7a2.006,2.006,0,0,1-2-2v-3.5A2.493,2.493,0,0,1,6.25,10.3V8.95a3,3,0,0,1,3-3h5.5a3,3,0,0,1,3,3V10.3A2.493,2.493,0,0,1,19,12.45Z" fill="currentColor"/>
  </g>
  <rect width="24" height="24" fill="none"/>
</svg>
