<?xml version="1.0" encoding="UTF-8"?>
<svg id="Layer_1" xmlns="http://www.w3.org/2000/svg" version="1.1" viewBox="0 0 24 24">
  <!-- Generator: Adobe Illustrator 29.8.3, SVG Export Plug-In . SVG Version: 2.1.1 Build 3)  -->
  <defs>
    <style>
      .st0 {
        fill: none;
      }
    </style>
  </defs>
  <path d="M13.0261,12.9551c.0435.1379.1123.2664.2031.379.1107-.0921.2041-.2032.2758-.3282-.0435-.1379-.1123-.2664-.2031-.379-.1107.0921-.2041.2033-.2758.3282Z"/>
  <path d="M9.617,13.1564c.0605.0939.134.1788.2182.2521.0254-.1109.0345-.2249.0271-.3384-.06-.0938-.1329-.1786-.2166-.2521-.0251.1109-.0348.2248-.0287.3384Z"/>
  <path d="M10.4933,13.0058c.0717.125.1651.2361.2758.3282.0907-.1125.1595-.2411.203-.379-.0717-.1249-.165-.2361-.2758-.3282-.0908.1125-.1596.2411-.2031.379Z"/>
  <path d="M11.7048,12.8975c.0726.1492.1724.2834.2944.3959.1219-.1125.2218-.2468.2944-.3959-.0721-.1494-.172-.2838-.2944-.3959-.1224.1121-.2222.2465-.2944.3959Z"/>
  <path d="M14.136,13.0701c-.0074.1135.0017.2275.0271.3384.0839-.0737.1573-.1586.2183-.2521.006-.1136-.0037-.2275-.0287-.3384-.0837.0734-.1566.1583-.2166.2521Z"/>
  <rect class="st0" width="24" height="24"/>
  <path d="M12,4c-4.4,0-8,3.6-8,8s3.6,8,8,8,8-3.6,8-8-3.6-8-8-8ZM12,18.7246c-3.7075,0-6.7241-3.0166-6.7241-6.7246s3.0166-6.7241,6.7241-6.7241,6.7246,3.0166,6.7246,6.7241-3.0166,6.7246-6.7246,6.7246Z"/>
  <path d="M12,6.2759c-3.1562,0-5.7241,2.5679-5.7241,5.7241s2.5679,5.7246,5.7241,5.7246,5.7246-2.5684,5.7246-5.7246-2.5684-5.7241-5.7246-5.7241ZM14.1664,14.4016c-1.4419-.1302-2.8926-.1302-4.3346,0l-.0626-.5617c1.4831-.1454,2.9768-.1454,4.4598,0l-.0626.5617ZM15.3762,11.3816l-.0305.0694-.0474.0592-.0778.0457-.0694.0237c-.0568.0201-.103.0621-.1285.1167l-.1946.4111v.0102l-.2081.4974v.0085l-.1438.3875-.1929.587c.0007.0034.0007.0068,0,.0102l-.0051.0693c-1.5114-.1438-3.033-.1438-4.5444,0l-.0186-.0693c-.0034.0007-.0068.0007-.0101,0l-.1979-.6006-.1438-.3875v-.0084l-.2081-.4974v-.0101l-.1946-.4111c-.0255-.0546-.0718-.0966-.1286-.1168l-.0693-.0237-.0609-.044-.0474-.0592-.0305-.0693-.0101-.0745.0118-.0761.0321-.0677.0474-.0576.0643-.0423.071-.0237h.0761l.0728.0169.066.0372.0542.0541.0355.066.0186.0745c-.0019.0833.0424.1606.1151.2014l.1945.1066c.0331.0186.0704.0284.1083.0287.0484.0002.0955-.0159.1337-.0457.0714-.0546.1028-.1467.0795-.2335l-.0795-.3587c-.0118-.0588-.0472-.1102-.0981-.1422l-.0626-.0389-.0508-.0558-.0338-.0677-.0135-.0744.0085-.0762.027-.071.0457-.0592.0609-.0457.071-.027h.0744l.0745.0135.0677.0338.0558.0508.0406.0643.0203.0728v.0728c-.0206.0807.0056.1661.0676.2216l.2285.2132c.0409.0365.094.0565.1489.0558.0271.0005.0541-.004.0795-.0135.0789-.0304.1343-.1021.1438-.1861.0305-.2301.0305-.3841.0305-.472,0-.0714-.0339-.1386-.0914-.181l-.0389-.0305-.0457-.0592-.0287-.0694v-.0761l.0135-.0745.0321-.0677.0508-.0558.0643-.0389.0728-.022h.0745l.0728.0203.0643.0389.0525.0558.0338.066.0135.0744v.0762c-.0235.0676-.0135.1423.027.2013l.2707.3688c.0421.0604.1109.0964.1844.0964.0135.0016.0271.0016.0406,0,.0846-.0185.1507-.0845.1692-.1692l.0964-.3959c.0138-.0576.0047-.1182-.0254-.1692l-.0389-.066-.0186-.0728v-.0762l.022-.0727.0406-.0626.0576-.0508.0677-.0321.0728-.0118.0728.0118.0676.0321.0576.0508.0406.0626.022.0727v.0762l-.0186.0728-.0389.066c-.03.051-.0391.1116-.0254.1692l.0964.3959c.0185.0847.0846.1507.1692.1692.0135.0016.0272.0016.0406,0,.0735,0,.1424-.0361.1844-.0964l.2538-.3688c.0405-.059.0506-.1337.0271-.2013v-.0762l.0135-.0744.0339-.066.0524-.0558.0643-.0389.0728-.0203h.0745l.0609.022.0643.0389.0508.0558.0322.0677.0135.0745v.0761l-.0287.0694-.0457.0592-.0406.0305c-.0564.0431-.0895.11-.0897.181,0,.088.0068.2419.0305.472.0095.084.0649.1557.1438.1861.0255.0095.0524.0141.0795.0135.0549.0006.108-.0193.1489-.0558l.2487-.2064c.0621-.0555.0883-.1409.0677-.2216v-.0762l.0203-.0728.0406-.0643.0558-.0508.0677-.0338.0744-.0135h.0745l.071.0271.0609.0457.0457.0592.027.0711v.0761l-.0135.0745-.0338.0677-.0508.0558-.0626.0389c-.0508.0319-.0864.0833-.0981.1421l-.0846.3604c-.0199.0862.0134.176.0846.2284.0388.0342.0886.0535.1404.0541.0379-.0003.0752-.0102.1083-.0287l.1946-.1066c.0726-.0406.1169-.1181.1151-.2013l.0186-.0745.0355-.066.0541-.0541.066-.0372.0728-.0169h.0761l.071.0237.0626.0355.0491.0643.0322.0694.0067.0677-.0101.0744Z"/>
</svg>