<svg version="1.2" xmlns="http://www.w3.org/2000/svg" viewBox="0 0 24 24" width="24" height="24">
	<title>clubs</title>
	<path id="Layer" d="m10.3 16q0 0.5 0 0.9 0 0.4-0.1 0.8-0.1 0.5-0.3 0.9-0.1 0.4-0.3 0.8-0.1 0.3-0.3 0.5-0.1 0.3-0.3 0.6-0.2 0.2-0.4 0.5-0.2 0.2-0.5 0.4v1.1h7.8v-1.1q-0.3-0.2-0.5-0.4-0.2-0.3-0.4-0.5-0.2-0.3-0.3-0.6-0.2-0.2-0.3-0.5-0.2-0.4-0.3-0.8-0.2-0.4-0.3-0.9 0-0.4-0.1-0.8 0-0.4 0-0.9 0.1 0.1 0.3 0.2 0.1 0.1 0.2 0.2 0.2 0 0.3 0.1 0.2 0.1 0.3 0.1 0.2 0.1 0.4 0.1 0.2 0.1 0.4 0.1 0.1 0 0.3 0 0.2 0.1 0.4 0 0.4 0.1 0.9 0 0.4-0.1 0.8-0.3 0.5-0.1 0.8-0.3 0.4-0.3 0.7-0.6 0.4-0.3 0.6-0.7 0.3-0.4 0.5-0.8 0.2-0.4 0.2-0.9 0.1-0.5 0.1-0.9 0-0.5-0.1-0.9 0-0.5-0.2-0.9-0.2-0.4-0.4-0.8-0.3-0.4-0.6-0.7-0.3-0.3-0.7-0.6-0.4-0.2-0.8-0.4-0.4-0.2-0.9-0.3-0.4 0-0.9 0 0.1-0.1 0.1-0.2 0-0.1 0-0.2 0-0.1 0.1-0.2 0-0.1 0-0.2 0-0.1 0-0.2 0-0.1 0-0.2 0.1-0.1 0.1-0.2 0-0.1 0-0.2 0-0.4-0.1-0.9-0.1-0.4-0.3-0.8-0.1-0.5-0.4-0.8-0.2-0.4-0.5-0.7-0.7-0.7-1.5-1-0.9-0.4-1.8-0.4-0.9 0-1.8 0.4-0.9 0.3-1.5 1-0.3 0.3-0.6 0.7-0.2 0.3-0.4 0.8-0.1 0.4-0.2 0.8-0.1 0.4-0.1 0.9 0 0.1 0 0.2 0 0.1 0 0.2 0.1 0.1 0.1 0.2 0 0.1 0 0.2 0 0.1 0 0.2 0 0.1 0.1 0.2 0 0.1 0 0.2 0 0.1 0.1 0.2-0.5 0-0.9 0-0.5 0.1-0.9 0.3-0.5 0.2-0.8 0.4-0.4 0.3-0.7 0.6-0.3 0.4-0.6 0.7-0.2 0.4-0.4 0.8-0.1 0.4-0.2 0.9-0.1 0.4-0.1 0.9 0 0.4 0.1 0.9 0 0.4 0.2 0.9 0.2 0.4 0.5 0.8 0.2 0.4 0.6 0.7 0.3 0.3 0.7 0.5 0.3 0.3 0.8 0.4 0.4 0.2 0.8 0.3 0.5 0 0.9 0 0.2 0 0.4 0 0.2 0 0.4 0 0.1 0 0.3-0.1 0.2 0 0.4-0.1 0.1 0 0.3-0.1 0.1-0.1 0.3-0.1 0.1-0.1 0.2-0.2 0.2-0.1 0.3-0.2z" fill="currentColor"/>
</svg>
