<svg xmlns="http://www.w3.org/2000/svg" width="24" height="24" viewBox="0 0 24 24">
  <path d="M12,2a10,10,0,0,0,0,20,2.5,2.5,0,0,0,2.5-2.5,2.544,2.544,0,0,0-.64-1.67.528.528,0,0,1-.13-.33.5.5,0,0,1,.5-.5H16a6,6,0,0,0,6-6C22,6.04,17.51,2,12,2Zm5.5,11A1.5,1.5,0,1,1,19,11.5,1.5,1.5,0,0,1,17.5,13Zm-3-4A1.5,1.5,0,1,1,16,7.5,1.5,1.5,0,0,1,14.5,9ZM5,11.5A1.5,1.5,0,1,1,6.5,13,1.5,1.5,0,0,1,5,11.5Zm6-4A1.5,1.5,0,1,1,9.5,6,1.5,1.5,0,0,1,11,7.5Z" fill="currentColor"/>
  <rect width="24" height="24" fill="none"/>
</svg>
