<?xml version="1.0" encoding="UTF-8"?>
<svg id="Layer_1" xmlns="http://www.w3.org/2000/svg" version="1.1" viewBox="0 0 24 24">
  <!-- Generator: Adobe Illustrator 29.8.3, SVG Export Plug-In . SVG Version: 2.1.1 Build 3)  -->
  <defs>
    <style>
      .st0 {
        fill: none;
      }

      .st1 {
        fill: #040404;
      }
    </style>
  </defs>
  <rect class="st0" width="24" height="24"/>
  <path class="st1" d="M12,22c-1.3833,0-2.6833-.2625-3.9-.7875s-2.275-1.2375-3.175-2.1375-1.6125-1.9583-2.1375-3.175-.7875-2.5167-.7875-3.9.2625-2.6833.7875-3.9,1.2375-2.275,2.1375-3.175,1.9583-1.6125,3.175-2.1375,2.5167-.7875,3.9-.7875,2.6833.2625,3.9.7875,2.275,1.2375,3.175,2.1375,1.6125,1.9583,2.1375,3.175.7875,2.5167.7875,3.9-.2625,2.6833-.7875,3.9-1.2375,2.275-2.1375,3.175-1.9583,1.6125-3.175,2.1375-2.5167.7875-3.9.7875ZM12,20c2.2333,0,4.125-.775,5.675-2.325s2.325-3.4417,2.325-5.675-.775-4.125-2.325-5.675-3.4417-2.325-5.675-2.325-4.125.775-5.675,2.325-2.325,3.4417-2.325,5.675.775,4.125,2.325,5.675,3.4417,2.325,5.675,2.325ZM9,17h6v-2h-4v-2h2c.55,0,1.0208-.1958,1.4125-.5875s.5875-.8625.5875-1.4125v-2c0-.55-.1958-1.0208-.5875-1.4125s-.8625-.5875-1.4125-.5875h-4v2h4v2h-2c-.55,0-1.0208.1958-1.4125.5875-.3917.3917-.5875.8625-.5875,1.4125v4Z"/>
</svg>