<svg xmlns="http://www.w3.org/2000/svg" width="24" height="24" viewBox="0 0 24 24">
  <g>
    <path d="M12,11c-3.09,0-5.66-.89-7-2.26V17.5C5,19.433,8.134,21,12,21s7-1.567,7-3.5V8.74C17.66,10.11,15.09,11,12,11Z" fill="currentColor"/>
    <path d="M12,10c3.866,0,7-1.567,7-3.5a1.814,1.814,0,0,0-.08-.5h0a3.458,3.458,0,0,0-1.855-1.911l-.029-.016c-.112-.059-.231-.114-.352-.169l-.121-.055c-.106-.046-.217-.089-.329-.132-.062-.023-.123-.047-.187-.069-.1-.037-.209-.072-.316-.106L15.5,3.47c-.1-.029-.205-.057-.31-.084l-.277-.067c-.1-.023-.2-.045-.3-.066s-.212-.04-.319-.058-.194-.035-.294-.049c-.12-.018-.242-.033-.364-.047-.092-.011-.183-.023-.277-.033-.142-.013-.287-.023-.432-.032-.078-.006-.154-.013-.233-.017C12.46,3.006,12.231,3,12,3s-.46.006-.685.017c-.079,0-.155.011-.233.017-.145.009-.29.019-.432.032-.094.01-.185.022-.277.033-.122.014-.244.029-.364.047-.1.014-.2.032-.294.049s-.214.037-.319.058-.2.043-.3.066l-.277.067c-.1.027-.208.055-.31.084l-.236.072c-.107.034-.213.069-.316.106-.064.022-.125.046-.187.069-.112.043-.222.086-.329.132l-.122.056c-.12.054-.239.109-.351.168l-.031.016A3.46,3.46,0,0,0,5.08,6h0A1.814,1.814,0,0,0,5,6.5C5,8.433,8.134,10,12,10Z" fill="currentColor"/>
  </g>
  <rect width="24" height="24" fill="none"/>
</svg>
