<svg xmlns="http://www.w3.org/2000/svg" viewBox="0 0 24 24"><g id="Layer_1" data-name="Layer 1"><path d="M12,11c-3.09,0-5.66-.89-7-2.26V17.5C5,19.43,8.13,21,12,21s7-1.57,7-3.5V8.74C17.66,10.11,15.09,11,12,11Z" style="fill:currentColor"/><path d="M12,10c3.87,0,7-1.57,7-3.5a1.69,1.69,0,0,0-.08-.5h0a3.44,3.44,0,0,0-1.85-1.91l0,0-.36-.17-.12,0a2.52,2.52,0,0,0-.33-.13l-.18-.07-.32-.11-.24-.07-.3-.08-.28-.07-.31-.07-.31-.06-.3,0-.36,0-.28,0-.43,0h-.23L12,3l-.69,0h-.23l-.43,0-.28,0-.36,0-.3,0-.31.06-.31.07-.28.07-.3.08-.24.07L8,3.65l-.18.07a2.52,2.52,0,0,0-.33.13l-.12,0L7,4.07l0,0A3.44,3.44,0,0,0,5.08,6h0A1.69,1.69,0,0,0,5,6.5C5,8.43,8.13,10,12,10Z" style="fill:currentColor"/></g><g id="Layer_2" data-name="Layer 2"><rect width="24" height="24" style="fill:none"/></g></svg>