<?xml version="1.0" encoding="UTF-8"?>
<svg id="Layer_1" xmlns="http://www.w3.org/2000/svg" version="1.1" viewBox="0 0 24 24">
  <!-- Generator: Adobe Illustrator 29.8.3, SVG Export Plug-In . SVG Version: 2.1.1 Build 3)  -->
  <defs>
    <style>
      .st0 {
        fill: none;
      }
    </style>
  </defs>
  <path d="M20,13.5v-3c0-3.038-3.582-5.5-8-5.5s-8,2.462-8,5.5v3c0,3.038,3.582,5.5,8,5.5s8-2.462,8-5.5ZM12,7c3.536,0,6,1.845,6,3.5s-2.464,3.5-6,3.5-6-1.845-6-3.5,2.464-3.5,6-3.5ZM6.172,14.26c1.7134,1.1742,3.7513,1.7827,5.828,1.74,2.0767.0427,4.1146-.5658,5.828-1.74-.607,1.413-2.828,2.74-5.828,2.74s-5.221-1.327-5.828-2.74Z"/>
  <rect class="st0" width="24" height="24"/>
  <path d="M9.7904,7.5744h2.1589c.4869,0,.8581.0373,1.1136.1118.3433.1011.6373.2807.8821.5388s.4311.5741.5588.9479.1916.8348.1916,1.383c0,.4816-.0599.8967-.1796,1.2453-.1463.4257-.3552.7703-.6266,1.0337-.2049.1996-.4816.3552-.8302.467-.2608.0825-.6093.1237-1.0457.1237h-2.2228v-5.8512ZM10.9718,8.5642v3.8755h.8821c.3296,0,.5678-.0186.7141-.0559.1916-.0479.3506-.1291.477-.2435s.2295-.3027.3093-.5648.1197-.6193.1197-1.0717-.0399-.7996-.1197-1.0417-.1916-.4311-.3353-.5668-.326-.2275-.5468-.2754c-.165-.0373-.4883-.0559-.9695-.0559h-.5308Z"/>
</svg>