<svg xmlns="http://www.w3.org/2000/svg" viewBox="0 0 24 24"><g id="Layer_1" data-name="Layer 1"><path d="M13.5,7l-3-3V6a6.07,6.07,0,0,0-5.87,5H2v2H4.59a6.07,6.07,0,0,0,5.87,5V20l3-3-3-3v2a4,4,0,0,1,0-8v2Z" style="fill:currentColor"/><path d="M20,13H17a2,2,0,0,0-2,2v5a2,2,0,0,0,2,2h3a2,2,0,0,0,2-2V15A2,2,0,0,0,20,13Zm0,5.5L18.5,20H17V16.5L18.5,15H20Z" style="fill:currentColor"/><path d="M20,2H17a2,2,0,0,0-2,2V9a2,2,0,0,0,2,2h3a2,2,0,0,0,2-2V4A2,2,0,0,0,20,2Zm0,5.5L18.5,9H17V5.5L18.5,4H20Z" style="fill:currentColor"/></g><g id="Layer_2" data-name="Layer 2"><rect width="24" height="24" style="fill:none"/></g></svg>