<svg xmlns="http://www.w3.org/2000/svg" width="24" height="24" viewBox="0 0 24 24">
  <g>
    <path d="M13.5,7,10.463,3.963V6.006A6.064,6.064,0,0,0,4.591,11H2v2h2.59a6.064,6.064,0,0,0,5.872,4.994v2.043L13.5,17l-3.036-3.037v2.025a3.988,3.988,0,0,1,0-7.976v2.025Z" fill="currentColor"/>
    <path d="M20,13H17a2,2,0,0,0-2,2v5a2,2,0,0,0,2,2h3a2,2,0,0,0,2-2V15A2,2,0,0,0,20,13Z" fill="currentColor"/>
    <path d="M20,2H17a2,2,0,0,0-2,2V9a2,2,0,0,0,2,2h3a2,2,0,0,0,2-2V4A2,2,0,0,0,20,2Z" fill="currentColor"/>
  </g>
  <rect width="24" height="24" fill="none"/>
</svg>
