<?xml version="1.0" encoding="UTF-8"?>
<svg id="Layer_1" xmlns="http://www.w3.org/2000/svg" version="1.1" viewBox="0 0 24 24">
  <!-- Generator: Adobe Illustrator 29.8.3, SVG Export Plug-In . SVG Version: 2.1.1 Build 3)  -->
  <defs>
    <style>
      .st0 {
        fill: none;
      }
    </style>
  </defs>
  <rect class="st0" width="24" height="24"/>
  <path d="M12,4c-4.4,0-8,3.6-8,8s3.6,8,8,8,8-3.6,8-8-3.6-8-8-8ZM12,18.7246c-3.7075,0-6.7241-3.0166-6.7241-6.7246s3.0166-6.7241,6.7241-6.7241,6.7246,3.0166,6.7246,6.7241-3.0166,6.7246-6.7246,6.7246Z"/>
  <path d="M9.5475,9.0744h2.1589c.4869,0,.8581.0373,1.1136.1118.3433.1011.6373.2807.8821.5388s.4311.5741.5588.9479.1916.8348.1916,1.383c0,.4816-.0599.8967-.1796,1.2453-.1463.4257-.3552.7703-.6266,1.0337-.2049.1996-.4816.3552-.8302.467-.2608.0825-.6093.1237-1.0457.1237h-2.2228v-5.8512ZM10.7289,10.0642v3.8755h.8821c.3296,0,.5678-.0186.7141-.0559.1916-.0479.3506-.1291.477-.2435s.2295-.3027.3093-.5648.1197-.6193.1197-1.0717-.0399-.7996-.1197-1.0417-.1916-.4311-.3353-.5668-.326-.2275-.5468-.2754c-.165-.0373-.4883-.0559-.9695-.0559h-.5308Z"/>
</svg>