<svg id="Layer_1" data-name="Layer 1" xmlns="http://www.w3.org/2000/svg" viewBox="0 0 24 24"><path d="M18,4H6A2,2,0,0,0,4,6V18a2,2,0,0,0,2,2H18a2,2,0,0,0,2-2V6A2,2,0,0,0,18,4Zm0,14H6V6H18Z" style="fill:currentColor"/><path d="M8.81,10.4a1.6,1.6,0,0,0,0-3.19,1.6,1.6,0,1,0,0,3.19Z" style="fill:currentColor"/><path d="M8.81,16.79a1.6,1.6,0,1,0-1.6-1.6A1.6,1.6,0,0,0,8.81,16.79Z" style="fill:currentColor"/><circle cx="12" cy="12" r="1.6" style="fill:currentColor"/><path d="M15.19,10.4A1.6,1.6,0,1,0,13.6,8.81,1.6,1.6,0,0,0,15.19,10.4Z" style="fill:currentColor"/><path d="M15.19,13.6a1.6,1.6,0,0,0,0,3.19,1.6,1.6,0,1,0,0-3.19Z" style="fill:currentColor"/></svg>