<svg xmlns="http://www.w3.org/2000/svg" viewBox="0 0 24 24"><g id="Layer_1" data-name="Layer 1"><path d="M8.81,10.4a1.6,1.6,0,0,0,0-3.19,1.6,1.6,0,1,0,0,3.19Z" style="fill:currentColor"/><path d="M8.81,16.79a1.6,1.6,0,1,0-1.6-1.6A1.6,1.6,0,0,0,8.81,16.79Z" style="fill:currentColor"/><circle cx="12" cy="12" r="1.6" style="fill:currentColor"/><path d="M15.19,10.4A1.6,1.6,0,1,0,13.6,8.81,1.6,1.6,0,0,0,15.19,10.4Z" style="fill:currentColor"/><path d="M15.19,13.6a1.6,1.6,0,0,0,0,3.19,1.6,1.6,0,1,0,0-3.19Z" style="fill:currentColor"/><path d="M18,8.86V18H6V6h9.14A4.09,4.09,0,0,1,15,5a4.09,4.09,0,0,1,.14-1H6A2,2,0,0,0,4,6V18a2,2,0,0,0,2,2H18a2,2,0,0,0,2-2V8.86a3.64,3.64,0,0,1-2,0Z" style="fill:currentColor"/><path d="M19,2a3,3,0,1,0,3,3A3,3,0,0,0,19,2Zm2,3.5H17v-1h4Z" style="fill:currentColor"/></g><g id="Layer_2" data-name="Layer 2"><rect width="24" height="24" style="fill:none"/></g></svg>