<svg xmlns="http://www.w3.org/2000/svg" width="24" height="24" viewBox="0 0 24 24">
  <g>
    <g>
      <path d="M8.809,10.405a1.6,1.6,0,1,0-1.595-1.6A1.6,1.6,0,0,0,8.809,10.405Z" fill="currentColor"/>
      <path d="M8.809,16.786a1.6,1.6,0,1,0-1.595-1.6A1.6,1.6,0,0,0,8.809,16.786Z" fill="currentColor"/>
      <circle cx="12" cy="12" r="1.595" fill="currentColor"/>
      <path d="M15.191,10.405a1.6,1.6,0,1,0-1.6-1.6A1.6,1.6,0,0,0,15.191,10.405Z" fill="currentColor"/>
      <path d="M15.191,13.6a1.6,1.6,0,1,0,1.6,1.6A1.6,1.6,0,0,0,15.191,13.6Z" fill="currentColor"/>
    </g>
    <path d="M18,8.857V18H6V6h9.143A3.949,3.949,0,0,1,15,5a3.961,3.961,0,0,1,.141-1H6A2,2,0,0,0,4,6V18a2,2,0,0,0,2,2H18a2,2,0,0,0,2-2V8.857a3.592,3.592,0,0,1-2,0Z" fill="currentColor"/>
    <path d="M19,2a3,3,0,1,0,3,3A3,3,0,0,0,19,2Zm2,3.5H19.5V7h-1V5.5H17v-1h1.5V3h1V4.5H21Z" fill="currentColor"/>
  </g>
  <rect width="24" height="24" fill="none"/>
</svg>
