<svg xmlns="http://www.w3.org/2000/svg" width="24" height="24" viewBox="0 0 24 24">
  <g>
    <path d="M12,14.5A2.5,2.5,0,1,0,9.5,12,2.5,2.5,0,0,0,12,14.5Z" fill="currentColor"/>
    <path d="M19,14.5A2.5,2.5,0,1,0,16.5,12,2.5,2.5,0,0,0,19,14.5Z" fill="currentColor"/>
    <path d="M5,14.5A2.5,2.5,0,1,0,2.5,12,2.5,2.5,0,0,0,5,14.5Z" fill="currentColor"/>
    <path d="M12,7.5A2.5,2.5,0,1,0,9.5,5,2.5,2.5,0,0,0,12,7.5Z" fill="currentColor"/>
    <path d="M19,7.5A2.5,2.5,0,1,0,16.5,5,2.5,2.5,0,0,0,19,7.5Z" fill="currentColor"/>
    <path d="M5,7.5A2.5,2.5,0,1,0,2.5,5,2.5,2.5,0,0,0,5,7.5Z" fill="currentColor"/>
    <path d="M12,21.5A2.5,2.5,0,1,0,9.5,19,2.5,2.5,0,0,0,12,21.5Z" fill="currentColor"/>
    <path d="M19,21.5A2.5,2.5,0,1,0,16.5,19,2.5,2.5,0,0,0,19,21.5Z" fill="currentColor"/>
    <path d="M5,21.5A2.5,2.5,0,1,0,2.5,19,2.5,2.5,0,0,0,5,21.5Z" fill="currentColor"/>
  </g>
  <rect width="24" height="24" fill="none"/>
</svg>
