<svg xmlns="http://www.w3.org/2000/svg" width="24" height="24" viewBox="0 0 24 24">
  <g>
    <rect x="16.341" y="12.979" width="3" height="8.48" transform="translate(-6.95 17.659) rotate(-45)" fill="currentColor"/>
    <path d="M17.5,10.11A3.5,3.5,0,0,0,21,6.61a3.455,3.455,0,0,0-.41-1.6l-2.7,2.7L16.4,6.22l2.7-2.7a3.455,3.455,0,0,0-1.6-.41A3.5,3.5,0,0,0,14,6.61a3.41,3.41,0,0,0,.21,1.16L12.36,9.62,10.58,7.84l.71-.71L9.88,5.72,12,3.6a3,3,0,0,0-4.24,0L4.22,7.14,5.63,8.55H2.81l-.71.71L5.64,12.8l.71-.71V9.26l1.41,1.41.71-.71,1.78,1.78L2.84,19.15l2.12,2.12L16.34,9.9A3.41,3.41,0,0,0,17.5,10.11Z" fill="currentColor"/>
  </g>
  <rect width="24" height="24" fill="none"/>
</svg>
