<svg id="Layer_1" data-name="Layer 1" xmlns="http://www.w3.org/2000/svg" viewBox="0 0 24 24"><rect x="16.34" y="12.98" width="3" height="8.48" transform="translate(-6.95 17.66) rotate(-45)" style="fill:currentColor"/><path d="M17.5,10.11A3.5,3.5,0,0,0,21,6.61,3.46,3.46,0,0,0,20.59,5l-2.7,2.7L16.4,6.22l2.7-2.7a3.46,3.46,0,0,0-1.6-.41A3.5,3.5,0,0,0,14,6.61a3.41,3.41,0,0,0,.21,1.16L12.36,9.62,10.58,7.84l.71-.71L9.88,5.72,12,3.6a3,3,0,0,0-4.24,0L4.22,7.14,5.63,8.55H2.81l-.71.71L5.64,12.8l.71-.71V9.26l1.41,1.41L8.47,10l1.78,1.78L2.84,19.15,5,21.27,16.34,9.9A3.41,3.41,0,0,0,17.5,10.11Z" style="fill:currentColor"/></svg>