<svg id="Layer_1" data-name="Layer 1" xmlns="http://www.w3.org/2000/svg" viewBox="0 0 24 24"><path d="M12,12.75a10.61,10.61,0,0,1,4.24.9A3,3,0,0,1,18,16.38V18H6V16.39a3,3,0,0,1,1.76-2.73A10.44,10.44,0,0,1,12,12.75ZM4,13a2,2,0,1,0-2-2A2,2,0,0,0,4,13Zm1.13,1.1A7,7,0,0,0,4,14a7,7,0,0,0-2.78.58A2,2,0,0,0,0,16.43V18H4.5V16.39A4.5,4.5,0,0,1,5.13,14.1ZM20,13a2,2,0,1,0-2-2A2,2,0,0,0,20,13Zm4,3.43a2,2,0,0,0-1.22-1.85,6.8,6.8,0,0,0-3.91-.48,4.5,4.5,0,0,1,.63,2.29V18H24ZM12,6A3,3,0,1,1,9,9,3,3,0,0,1,12,6Z" style="fill:currentColor"/></svg>