<svg xmlns="http://www.w3.org/2000/svg" width="24" height="24" viewBox="0 0 24 24">
  <path d="M19,3H5A2.006,2.006,0,0,0,3,5V19a2.006,2.006,0,0,0,2,2H19a2.006,2.006,0,0,0,2-2V5A2.006,2.006,0,0,0,19,3ZM12.01,18a1.255,1.255,0,0,1-1.26-1.26,1.24,1.24,0,0,1,1.26-1.25,1.226,1.226,0,0,1,1.25,1.25A1.253,1.253,0,0,1,12.01,18Zm3.01-7.4c-.76,1.11-1.48,1.46-1.87,2.17-.16.29-.22.48-.22,1.41H11.11a3.811,3.811,0,0,1,.31-1.98c.49-.87,1.42-1.39,1.96-2.16a1.485,1.485,0,0,0-1.37-2.33,1.9,1.9,0,0,0-1.8,1.48l-1.65-.7A3.562,3.562,0,0,1,11.99,6,3.374,3.374,0,0,1,15,7.52,3.018,3.018,0,0,1,15.02,10.6Z" fill="currentColor"/>
  <rect width="24" height="24" fill="none"/>
</svg>
