<svg xmlns="http://www.w3.org/2000/svg" viewBox="0 0 24 24"><g id="Layer_1" data-name="Layer 1"><path d="M19,3H5A2,2,0,0,0,3,5V19a2,2,0,0,0,2,2H19a2,2,0,0,0,2-2V5A2,2,0,0,0,19,3ZM12,18a1.25,1.25,0,0,1-1.26-1.26A1.24,1.24,0,0,1,12,15.49a1.23,1.23,0,0,1,1.25,1.25A1.25,1.25,0,0,1,12,18Zm3-7.4c-.76,1.11-1.48,1.46-1.87,2.17-.16.29-.22.48-.22,1.41H11.11a3.81,3.81,0,0,1,.31-2c.49-.87,1.42-1.39,2-2.16A1.48,1.48,0,0,0,12,7.71a1.9,1.9,0,0,0-1.8,1.48l-1.65-.7A3.56,3.56,0,0,1,12,6a3.37,3.37,0,0,1,3,1.52A3,3,0,0,1,15,10.6Z" style="fill:currentColor"/></g><g id="Layer_2" data-name="Layer 2"><rect width="24" height="24" style="fill:none"/></g></svg>