<svg xmlns="http://www.w3.org/2000/svg" width="24" height="24" viewBox="0 0 24 24">
  <path d="M22.851,9.2l-3-1.731v-3.4a1,1,0,0,0-.5-.866L16,1.265a1,1,0,0,0-1,0L12,3,9,1.265a1,1,0,0,0-1,0L4.649,3.2a1,1,0,0,0-.5.866v3.4l-3,1.731a1,1,0,0,0-.5.866v3.87a1,1,0,0,0,.5.866l3,1.731v3.4a1,1,0,0,0,.5.866L8,22.735a1,1,0,0,0,1,0L12,21l3,1.732a1,1,0,0,0,1,0L19.351,20.8a1,1,0,0,0,.5-.866v-3.4l3-1.731a1,1,0,0,0,.5-.866v-3.87A1,1,0,0,0,22.851,9.2Zm-8.5,1.444v2.714L12,14.714,9.649,13.357V10.643L12,9.286Zm-1.2-6L15.5,3.286l2.351,1.357V7.357L15.5,8.714,13.149,7.357Zm-7,0L8.5,3.286l2.351,1.357V7.357L8.5,8.714,6.149,7.357Zm-3.5,6L5,9.286l2.351,1.357v2.714L5,14.714,2.649,13.357Zm8.2,8.714L8.5,20.714,6.149,19.357V16.643L8.5,15.286l2.351,1.357Zm7,0L15.5,20.714l-2.351-1.357V16.643L15.5,15.286l2.351,1.357Zm3.5-6L19,14.714l-2.351-1.357V10.643L19,9.286l2.351,1.357Z" fill="currentColor"/>
  <rect width="24" height="24" fill="none"/>
</svg>
