<svg xmlns="http://www.w3.org/2000/svg" width="24" height="24" viewBox="0 0 24 24">
  <path d="M9.2,1.149l-1.731,3h-3.4a1,1,0,0,0-.867.5L1.265,8a1,1,0,0,0,0,1L3,12,1.265,15a1,1,0,0,0,0,1L3.2,19.351a1,1,0,0,0,.867.5h3.4l1.731,3a1,1,0,0,0,.867.5h3.869a1,1,0,0,0,.866-.5l1.732-3h3.4a1,1,0,0,0,.866-.5L22.735,16a1,1,0,0,0,0-1L21,12l1.732-3a1,1,0,0,0,0-1L20.8,4.649a1,1,0,0,0-.866-.5h-3.4l-1.732-3a1,1,0,0,0-.866-.5H10.066A1,1,0,0,0,9.2,1.149Zm1.444,8.5h2.714L14.714,12l-1.357,2.351H10.643L9.286,12Zm-6,1.2L3.286,8.5,4.643,6.149H7.357L8.714,8.5,7.357,10.851Zm0,7L3.286,15.5l1.357-2.351H7.357L8.714,15.5,7.357,17.851Zm6,3.5L9.286,19l1.357-2.351h2.714L14.714,19l-1.357,2.351Zm8.714-8.2L20.714,15.5l-1.357,2.351H16.643L15.286,15.5l1.357-2.351Zm0-7L20.714,8.5l-1.357,2.351H16.643L15.286,8.5l1.357-2.351Zm-6-3.5L14.714,5,13.357,7.351H10.643L9.286,5l1.357-2.351Z" fill="currentColor"/>
  <rect width="24" height="24" fill="none"/>
</svg>
