<svg xmlns="http://www.w3.org/2000/svg" viewBox="0 0 24 24"><g id="Layer_1" data-name="Layer 1"><path d="M22.85,9.2l-3-1.73V4.07a1,1,0,0,0-.5-.87L16,1.27a1,1,0,0,0-1,0L12,3,9,1.27a1,1,0,0,0-1,0L4.65,3.2a1,1,0,0,0-.5.87v3.4l-3,1.73a1,1,0,0,0-.5.87v3.86a1,1,0,0,0,.5.87l3,1.73v3.4a1,1,0,0,0,.5.87L8,22.73a1,1,0,0,0,1,0L12,21l3,1.73a1,1,0,0,0,1,0l3.35-1.93a1,1,0,0,0,.5-.87v-3.4l3-1.73a1,1,0,0,0,.5-.87V10.07A1,1,0,0,0,22.85,9.2Zm-8.5,1.44v2.72L12,14.71,9.65,13.36V10.64L12,9.29Zm-1.2-6L15.5,3.29l2.35,1.35V7.36L15.5,8.71,13.15,7.36Zm-7,0L8.5,3.29l2.35,1.35V7.36L8.5,8.71,6.15,7.36Zm-3.5,6L5,9.29l2.35,1.35v2.72L5,14.71,2.65,13.36Zm8.2,8.72L8.5,20.71,6.15,19.36V16.64L8.5,15.29l2.35,1.35Zm7,0L15.5,20.71l-2.35-1.35V16.64l2.35-1.35,2.35,1.35Zm3.5-6L19,14.71l-2.35-1.35V10.64L19,9.29l2.35,1.35Z" style="fill:currentColor"/></g><g id="Layer_2" data-name="Layer 2"><rect width="24" height="24" style="fill:none"/></g></svg>