<svg id="Layer_1" data-name="Layer 1" xmlns="http://www.w3.org/2000/svg" viewBox="0 0 24 24"><path d="M9.2,1.15l-1.73,3H4.07a1,1,0,0,0-.87.5L1.27,8a1,1,0,0,0,0,1L3,12,1.27,15a1,1,0,0,0,0,1L3.2,19.35a1,1,0,0,0,.87.5h3.4l1.73,3a1,1,0,0,0,.87.5h3.86a1,1,0,0,0,.87-.5l1.73-3h3.4a1,1,0,0,0,.87-.5L22.73,16a1,1,0,0,0,0-1L21,12l1.73-3a1,1,0,0,0,0-1L20.8,4.65a1,1,0,0,0-.87-.5h-3.4l-1.73-3a1,1,0,0,0-.87-.5H10.07A1,1,0,0,0,9.2,1.15Zm1.44,8.5h2.72L14.71,12l-1.35,2.35H10.64L9.29,12Zm-6,1.2L3.29,8.5,4.64,6.15H7.36L8.71,8.5,7.36,10.85Zm0,7L3.29,15.5l1.35-2.35H7.36L8.71,15.5,7.36,17.85Zm6,3.5L9.29,19l1.35-2.35h2.72L14.71,19l-1.35,2.35Zm8.72-8.2,1.35,2.35-1.35,2.35H16.64L15.29,15.5l1.35-2.35Zm0-7L20.71,8.5l-1.35,2.35H16.64L15.29,8.5l1.35-2.35Zm-6-3.5L14.71,5,13.36,7.35H10.64L9.29,5l1.35-2.35Z" style="fill:currentColor"/></svg>