<svg xmlns="http://www.w3.org/2000/svg" width="24" height="24" viewBox="0 0 24 24">
  <g>
    <rect x="15" y="9" width="2" height="2" fill="currentColor"/>
    <rect x="15" y="6" width="2" height="2" fill="currentColor"/>
    <rect x="15" y="16" width="2" height="2" fill="currentColor"/>
    <path d="M21,5V3H14a2.006,2.006,0,0,0-2,2V6.4a6.365,6.365,0,0,1,2,2V5h4V19H14V15.6a7.606,7.606,0,0,1-2,2V19a2.006,2.006,0,0,0,2,2h7V19H20V5Z" fill="currentColor"/>
    <path d="M8.5,6.5a5.5,5.5,0,0,0,0,11,5.5,5.5,0,0,0,0-11Zm3,6.5h-6V11h6Z" fill="currentColor"/>
  </g>
  <rect width="24" height="24" fill="none"/>
</svg>
