<svg id="Layer_1" data-name="Layer 1" xmlns="http://www.w3.org/2000/svg" viewBox="0 0 24 24"><rect x="15" y="9" width="2" height="2" style="fill:currentColor"/><rect x="15" y="6" width="2" height="2" style="fill:currentColor"/><rect x="15" y="16" width="2" height="2" style="fill:currentColor"/><path d="M21,5V3H14a2,2,0,0,0-2,2V6.4a6.36,6.36,0,0,1,2,2V5h4V19H14V15.6a7.61,7.61,0,0,1-2,2V19a2,2,0,0,0,2,2h7V19H20V5Z" style="fill:currentColor"/><path d="M8.5,6.5a5.5,5.5,0,0,0,0,11,5.5,5.5,0,0,0,0-11Zm3,6.5h-6V11h6Z" style="fill:currentColor"/></svg>