<svg xmlns="http://www.w3.org/2000/svg" viewBox="0 0 24 24"><g id="Layer_1" data-name="Layer 1"><path d="M15,10.31a.53.53,0,0,0-.53.53v2.43h-.21A1.27,1.27,0,0,0,13,14.54h-.42A1.68,1.68,0,0,1,14,12.86V8.3A.53.53,0,0,0,13,8.3v3.28h-.42V7.46a.53.53,0,1,0-1.06,0v4.12h-.42V8.09a.53.53,0,0,0-1.06,0V12H9.57V9.36a.53.53,0,1,0-1.06,0v4.22a3.49,3.49,0,0,0,7,0V10.84A.53.53,0,0,0,15,10.31Z" style="fill:currentColor"/><rect x="20" y="8" width="2" height="2.5" style="fill:currentColor"/><path d="M4,4H5V2H4A2,2,0,0,0,2,4V5H4Z" style="fill:currentColor"/><rect x="2" y="13.5" width="2" height="2.5" style="fill:currentColor"/><path d="M20,20H19v2h1a2,2,0,0,0,2-2V19H20Z" style="fill:currentColor"/><rect x="8" y="20" width="2.5" height="2" style="fill:currentColor"/><rect x="2" y="8" width="2" height="2.5" style="fill:currentColor"/><path d="M4,20V19H2v1a2,2,0,0,0,2,2H5V20Z" style="fill:currentColor"/><rect x="13.5" y="20" width="2.5" height="2" style="fill:currentColor"/><rect x="20" y="13.5" width="2" height="2.5" style="fill:currentColor"/><rect x="8" y="2" width="2.5" height="2" style="fill:currentColor"/><path d="M20,4V5h2V4a2,2,0,0,0-2-2H19V4Z" style="fill:currentColor"/><rect x="13.5" y="2" width="2.5" height="2" style="fill:currentColor"/></g><g id="Layer_2" data-name="Layer 2"><rect width="24" height="24" style="fill:none"/></g></svg>