<svg xmlns="http://www.w3.org/2000/svg" width="24" height="24" viewBox="0 0 24 24">
  <g>
    <path d="M10.667,15.167v2.666h1.666l1-1V14.167H11.667Zm2.29.833L12,16.957,11.043,16,12,15.043Z" fill="currentColor"/>
    <path d="M20,5.5H12l-2-2H4a2.006,2.006,0,0,0-2,2v13a2.006,2.006,0,0,0,2,2H20a2.006,2.006,0,0,0,2-2V7.5A2.006,2.006,0,0,0,20,5.5ZM4,9.167,6.5,7.5,9,9.167V12.5H4ZM7.95,18.5H5.05L3.65,16l1.4-2.5h2.9L9.35,16ZM14,17.833a.666.666,0,0,1-.667.667H10.667A.666.666,0,0,1,10,17.833V14.167a.666.666,0,0,1,.667-.667h2.666a.666.666,0,0,1,.667.667Zm.223-7.768a.987.987,0,0,1-.269.047,3.168,3.168,0,0,0-.424.029c-.129.027-.157.077-.117.2a2.428,2.428,0,0,0,.2.411,11.154,11.154,0,0,1,.529,1.011,1.468,1.468,0,0,1,.14.54c.006.129-.047.183-.176.194h-.649c-.2,0-.4,0-.6,0a.3.3,0,0,1-.271-.137c-.063-.091-.117-.19-.176-.285A4.3,4.3,0,0,0,12.1,11.6c-.072-.087-.123-.085-.2,0a2.322,2.322,0,0,0-.157.225c-.114.176-.214.367-.334.543a.3.3,0,0,1-.261.135H9.955c-.2,0-.267-.077-.235-.277a.034.034,0,0,0,0-.017,2.349,2.349,0,0,1,.224-.636c.158-.322.343-.626.511-.941a1.683,1.683,0,0,0,.135-.307c.03-.1.007-.141-.092-.173a.51.51,0,0,0-.16-.025,3.434,3.434,0,0,1-.418-.023.474.474,0,0,1-.329-.16A.5.5,0,0,1,9.64,9.3a1.967,1.967,0,0,1,.714-.45,7.305,7.305,0,0,1,.72-.252c.114-.035.117-.043.123-.16a1.556,1.556,0,0,1,.065-.4.707.707,0,0,1,.428-.485.946.946,0,0,1,.412-.045.67.67,0,0,1,.581.387,1.371,1.371,0,0,1,.123.553c.005.105.01.113.109.147l.033.01a7.031,7.031,0,0,1,.783.283,1.8,1.8,0,0,1,.62.4.5.5,0,0,1,.146.41A.389.389,0,0,1,14.223,10.065ZM20,17.667a.833.833,0,0,1-.833.833H15.833A.833.833,0,0,1,15,17.667V14.333a.833.833,0,0,1,.833-.833h3.334a.833.833,0,0,1,.833.833ZM17.5,12.5C16.21,11.085,15,10.33,15,9.1a1.491,1.491,0,0,1,1.371-1.6,1.257,1.257,0,0,1,1.129.66,1.257,1.257,0,0,1,1.129-.66A1.491,1.491,0,0,1,20,9.1C20,10.33,18.79,11.085,17.5,12.5Z" fill="currentColor"/>
    <path d="M16.333,15.417a.584.584,0,1,0-.583-.584A.583.583,0,0,0,16.333,15.417Z" fill="currentColor"/>
    <path d="M16.333,16.583a.584.584,0,1,0,.584.584A.583.583,0,0,0,16.333,16.583Z" fill="currentColor"/>
    <path d="M17.5,15.417a.583.583,0,1,0,.583.583A.583.583,0,0,0,17.5,15.417Z" fill="currentColor"/>
    <path d="M18.667,14.25a.584.584,0,1,0,.583.583A.583.583,0,0,0,18.667,14.25Z" fill="currentColor"/>
    <path d="M18.667,16.583a.584.584,0,1,0,.583.584A.583.583,0,0,0,18.667,16.583Z" fill="currentColor"/>
  </g>
  <rect width="24" height="24" fill="none"/>
</svg>
