<svg id="Layer_1" data-name="Layer 1" xmlns="http://www.w3.org/2000/svg" viewBox="0 0 24 24"><path d="M10.67,15.17v2.66h1.66l1-1V14.17H11.67ZM13,16l-1,1-1-1,1-1Z" style="fill:currentColor"/><path d="M20,5.5H12l-2-2H4a2,2,0,0,0-2,2v13a2,2,0,0,0,2,2H20a2,2,0,0,0,2-2V7.5A2,2,0,0,0,20,5.5ZM4,9.17,6.5,7.5,9,9.17V12.5H4ZM8,18.5H5.05L3.65,16l1.4-2.5H8L9.35,16ZM14,17.83a.67.67,0,0,1-.67.67H10.67a.67.67,0,0,1-.67-.67V14.17a.67.67,0,0,1,.67-.67h2.66a.67.67,0,0,1,.67.67Zm.22-7.76a1.1,1.1,0,0,1-.27,0,3,3,0,0,0-.42,0c-.13,0-.16.08-.12.2a3.11,3.11,0,0,0,.2.41c.18.34.38.66.53,1a1.49,1.49,0,0,1,.14.54c0,.13,0,.19-.18.2H12.86a.32.32,0,0,1-.27-.14c-.07-.09-.12-.19-.18-.28a3.94,3.94,0,0,0-.31-.48c-.08-.09-.13-.09-.2,0a1.77,1.77,0,0,0-.16.22c-.11.18-.21.37-.33.55a.33.33,0,0,1-.26.13H10c-.21,0-.27-.08-.24-.28h0a2.33,2.33,0,0,1,.23-.64c.15-.32.34-.63.51-.94a1.69,1.69,0,0,0,.13-.31c0-.1,0-.14-.09-.17a.41.41,0,0,0-.16,0,3,3,0,0,1-.42,0,.49.49,0,0,1-.33-.16.5.5,0,0,1,.05-.64,1.91,1.91,0,0,1,.71-.45,6.84,6.84,0,0,1,.72-.25c.12,0,.12,0,.13-.16a1.34,1.34,0,0,1,.06-.4.71.71,0,0,1,.43-.49.94.94,0,0,1,.41,0,.67.67,0,0,1,.58.38,1.53,1.53,0,0,1,.13.56c0,.1,0,.11.11.14h0a7.31,7.31,0,0,1,.78.29,1.7,1.7,0,0,1,.62.4.53.53,0,0,1,.15.41A.4.4,0,0,1,14.22,10.07ZM20,17.67a.83.83,0,0,1-.83.83H15.83a.83.83,0,0,1-.83-.83V14.33a.83.83,0,0,1,.83-.83h3.34a.83.83,0,0,1,.83.83ZM17.5,12.5C16.21,11.08,15,10.33,15,9.1a1.48,1.48,0,0,1,1.37-1.6,1.24,1.24,0,0,1,1.13.66,1.24,1.24,0,0,1,1.13-.66A1.48,1.48,0,0,1,20,9.1C20,10.33,18.79,11.08,17.5,12.5Z" style="fill:currentColor"/><path d="M16.33,15.42a.59.59,0,1,0-.58-.59A.58.58,0,0,0,16.33,15.42Z" style="fill:currentColor"/><path d="M16.33,16.58a.59.59,0,1,0,.59.59A.58.58,0,0,0,16.33,16.58Z" style="fill:currentColor"/><path d="M17.5,15.42a.58.58,0,1,0,.58.58A.58.58,0,0,0,17.5,15.42Z" style="fill:currentColor"/><path d="M18.67,14.25a.59.59,0,1,0,.58.58A.58.58,0,0,0,18.67,14.25Z" style="fill:currentColor"/><path d="M18.67,16.58a.59.59,0,1,0,.58.59A.58.58,0,0,0,18.67,16.58Z" style="fill:currentColor"/></svg>