<?xml version="1.0" encoding="UTF-8"?>
<svg id="Layer_1" xmlns="http://www.w3.org/2000/svg" version="1.1" viewBox="0 0 24 24">
  <!-- Generator: Adobe Illustrator 29.8.3, SVG Export Plug-In . SVG Version: 2.1.1 Build 3)  -->
  <defs>
    <style>
      .st0 {
        fill: none;
      }
    </style>
  </defs>
  <rect class="st0" width="24" height="24"/>
  <path d="M12,4c-4.4,0-8,3.6-8,8s3.6,8,8,8,8-3.6,8-8-3.6-8-8-8ZM12,6.8c-2.9,0-5.2,2.3-5.2,5.2s-.2.5-.5.5-.5-.2-.5-.5c0-3.4,2.8-6.2,6.2-6.2s.5.2.5.5-.2.5-.5.5ZM16.9,9.1c-.3.4-1.1.4-1.7,0s-.8-1.2-.5-1.6,1.1-.4,1.7,0,.8,1.2.5,1.6Z"/>
</svg>