<svg xmlns="http://www.w3.org/2000/svg" width="24" height="24" viewBox="0 0 24 24">
  <path d="M16.654,19.99h2.079c.414-.034.581-.209.564-.621a4.713,4.713,0,0,0-.449-1.727,35.747,35.747,0,0,0-1.693-3.235,7.86,7.86,0,0,1-.634-1.317c-.128-.391-.038-.553.376-.64a10.26,10.26,0,0,1,1.356-.09,3.222,3.222,0,0,0,.86-.151,1.251,1.251,0,0,0,.879-1.17,1.619,1.619,0,0,0-.469-1.311,5.767,5.767,0,0,0-1.982-1.292,22.588,22.588,0,0,0-2.508-.905l-.1-.032c-.317-.109-.332-.137-.349-.472a4.4,4.4,0,0,0-.394-1.77,2.144,2.144,0,0,0-1.86-1.238,3.006,3.006,0,0,0-1.317.145,2.258,2.258,0,0,0-1.371,1.55A5.053,5.053,0,0,0,9.429,7c-.019.376-.028.4-.393.511a24.361,24.361,0,0,0-2.3.807A6.339,6.339,0,0,0,4.448,9.76,1.61,1.61,0,0,0,4.3,11.811a1.5,1.5,0,0,0,1.052.511,10.884,10.884,0,0,0,1.339.076,1.649,1.649,0,0,1,.512.079c.316.1.389.237.293.555a5.3,5.3,0,0,1-.433.981c-.538,1.007-1.128,1.981-1.632,3.01a7.448,7.448,0,0,0-.717,2.038.093.093,0,0,1-.011.052c-.1.64.1.886.752.886H9.273a.951.951,0,0,0,.835-.431c.386-.564.706-1.173,1.071-1.738a6.46,6.46,0,0,1,.5-.718c.233-.275.4-.279.626,0a13.194,13.194,0,0,1,1.008,1.533c.189.3.362.619.565.91a.977.977,0,0,0,.867.439C15.385,19.982,16.022,19.99,16.654,19.99Z" fill="currentColor"/>
  <rect width="24" height="24" fill="none"/>
</svg>
