<svg xmlns="http://www.w3.org/2000/svg" viewBox="0 0 24 24"><g id="Layer_1" data-name="Layer 1"><path d="M17.05,7.82a1.9,1.9,0,0,1,0,.25c.24,0,.47.1.71.15Z" style="fill:currentColor"/><path d="M17,8.13a.38.38,0,0,0-.12-.1l0,.51Z" style="fill:currentColor"/><path d="M15,19.71a11.32,11.32,0,0,0-.71-1.09,4.94,4.94,0,0,0-.32.55.41.41,0,0,0-.05.09l1.2.66Z" style="fill:currentColor"/><path d="M10.33,16c-.18.39-.37.79-.57,1.18-.3.63-.61,1.25-.88,1.9a7.82,7.82,0,0,0-.62,2,.69.69,0,0,0,0,.18h.13l3.42-.48a.51.51,0,0,0,.35-.27c.19-.32.36-.65.53-1s.28-.55.43-.82a7.14,7.14,0,0,1,.47-.79.94.94,0,0,1,.62-.45.78.78,0,0,1,.73.34,11,11,0,0,1,.95,1.42l.14.23a5.69,5.69,0,0,0,.33.52.24.24,0,0,0,.25.12l3.59-.51.07,0a.55.55,0,0,0,0-.12A3.9,3.9,0,0,0,19.91,18a21.87,21.87,0,0,0-1.13-2.21l-.36-.67a6.57,6.57,0,0,1-.6-1.25.94.94,0,0,1,.64-1.3,9.53,9.53,0,0,1,1.31-.28,2,2,0,0,0,.61-.21.91.91,0,0,0,.51-.83.94.94,0,0,0-.26-.78,3.68,3.68,0,0,0-1.58-.89,15.5,15.5,0,0,0-2.16-.54l-.11,0c-.56-.12-.68-.39-.7-.88a3.7,3.7,0,0,0-.31-1.46A1.12,1.12,0,0,0,14.62,6l-.27,0a2.63,2.63,0,0,0-.72.23,2,2,0,0,0-1,1.36,5.41,5.41,0,0,0-.18,1.15.89.89,0,0,1-.63,1c-.7.33-1.38.68-2,1A6.54,6.54,0,0,0,8,12.33a1.19,1.19,0,0,0-.12,1.39.64.64,0,0,0,.49.16,10.11,10.11,0,0,0,1.16-.1l.26,0a2.21,2.21,0,0,1,.37,0,.85.85,0,0,1,.57.36.92.92,0,0,1,.07.75A7.93,7.93,0,0,1,10.33,16Z" style="fill:currentColor"/><path d="M7.27,20.91A9.91,9.91,0,0,1,8,18.67c.28-.64.59-1.29.9-1.93l.57-1.16a6.94,6.94,0,0,0,.32-.82H9.62a9.92,9.92,0,0,1-1.26.11,1.62,1.62,0,0,1-1.21-.44l-1.9-1c-.47,1-1,1.94-1.39,2.94-.09.19-.17.39-.25.59s0,.19-.09.28a2.58,2.58,0,0,1-.08.26,9.18,9.18,0,0,0-.23,1c-.06.38,0,.62.17.72l3.87,2.1A1.79,1.79,0,0,1,7.27,20.91Z" style="fill:currentColor"/><path d="M7.61,6.18l3.92,2.15a7.87,7.87,0,0,1,.17-1,3.11,3.11,0,0,1,1.46-2,3.23,3.23,0,0,1,1.05-.34h.09L11,3.23l-.06,0a1.54,1.54,0,0,0-.3-.11h0A1.63,1.63,0,0,0,10,3a2.58,2.58,0,0,0-.29,0,3,3,0,0,0-.43.09l-.14.06a2.34,2.34,0,0,0-.24.09l-.07,0-.21.12-.22.18h0c-.07.06-.12.12-.18.18a1.56,1.56,0,0,0-.16.2h0a2.33,2.33,0,0,0-.17.26l-.05.12a.87.87,0,0,0-.07.17l-.06.12c0,.1-.07.19-.09.29a5.34,5.34,0,0,0-.18,1.12A.49.49,0,0,1,7.61,6.18Z" style="fill:currentColor"/><path d="M2.65,11l.08,0,3.93,2a2.33,2.33,0,0,1,.51-1.35A7.3,7.3,0,0,1,9.33,9.93c.5-.29,1-.55,1.56-.81L7.13,7.06A.47.47,0,0,1,7,6.87l0,0c-.63.3-1.26.63-1.88,1-.21.13-.43.26-.64.41l-.09.06-.1.07a5.19,5.19,0,0,0-.46.36l-.13.1L3.53,9a1.37,1.37,0,0,0-.17.17l-.16.15L3,9.54a.61.61,0,0,0-.07.1l-.12.19a1.42,1.42,0,0,0-.08.18l0,0v0a1.71,1.71,0,0,0-.09.45.48.48,0,0,0,0,.12,1,1,0,0,0,0,.35Z" style="fill:currentColor"/></g><g id="Layer_2" data-name="Layer 2"><rect width="24" height="24" style="fill:none"/></g></svg>