<svg xmlns="http://www.w3.org/2000/svg" width="24" height="24" viewBox="0 0 24 24">
  <g>
    <path d="M17.049,7.816c.007.084.029.166.031.25.236.043.473.1.71.153Z" fill="currentColor"/>
    <path d="M17.033,8.133a.312.312,0,0,0-.128-.1l-.013.512Z" fill="currentColor"/>
    <path d="M15.005,19.713a10.062,10.062,0,0,0-.71-1.1c-.115.179-.219.364-.318.555-.018.031-.032.062-.049.093l1.2.652Z" fill="currentColor"/>
    <path d="M10.332,16c-.185.4-.377.79-.569,1.183-.306.627-.612,1.253-.887,1.894a8.567,8.567,0,0,0-.621,1.99,1.277,1.277,0,0,0-.013.188,1.054,1.054,0,0,0,.123-.012l3.421-.48a.527.527,0,0,0,.358-.272c.188-.322.355-.65.522-.976.141-.277.281-.551.431-.82a7.214,7.214,0,0,1,.477-.8.931.931,0,0,1,.62-.449.8.8,0,0,1,.726.338,11.075,11.075,0,0,1,.948,1.421l.142.235c.1.177.209.353.327.515a.239.239,0,0,0,.248.123l3.595-.506a.292.292,0,0,0,.074-.032s.006-.042,0-.121a3.735,3.735,0,0,0-.35-1.408A21,21,0,0,0,18.785,15.8l-.366-.662a6.9,6.9,0,0,1-.6-1.251.934.934,0,0,1,.633-1.3A8.9,8.9,0,0,1,19.77,12.3a2.39,2.39,0,0,0,.611-.208.927.927,0,0,0,.509-.837.945.945,0,0,0-.259-.779,3.75,3.75,0,0,0-1.578-.888,16.316,16.316,0,0,0-2.16-.54l-.108-.018c-.566-.124-.681-.393-.7-.88a3.726,3.726,0,0,0-.307-1.465,1.131,1.131,0,0,0-1.152-.665,2.562,2.562,0,0,0-.269.022,2.291,2.291,0,0,0-.72.228,2.066,2.066,0,0,0-.966,1.357,5.164,5.164,0,0,0-.177,1.148.9.9,0,0,1-.634.966c-.7.323-1.375.675-2.011,1.045a6.475,6.475,0,0,0-1.891,1.541,1.18,1.18,0,0,0-.128,1.388.617.617,0,0,0,.493.161,8.8,8.8,0,0,0,1.157-.1,1.978,1.978,0,0,1,.265-.018,1.657,1.657,0,0,1,.367.039.852.852,0,0,1,.576.356.946.946,0,0,1,.066.753A7.681,7.681,0,0,1,10.332,16Z" fill="currentColor"/>
    <path d="M7.269,20.905a9.565,9.565,0,0,1,.692-2.233c.278-.647.59-1.287.9-1.929.189-.388.379-.775.561-1.168a6.976,6.976,0,0,0,.324-.81.66.66,0,0,0-.135.007,9.807,9.807,0,0,1-1.257.1,1.6,1.6,0,0,1-1.207-.44l-1.906-.973c-.462.981-.96,1.941-1.387,2.936-.088.194-.169.391-.243.593-.034.092-.06.189-.091.283s-.056.17-.081.256a9.006,9.006,0,0,0-.238.965c-.055.389-.006.619.178.719l3.867,2.1A2.28,2.28,0,0,1,7.269,20.905Z" fill="currentColor"/>
    <path d="M7.613,6.183,11.53,8.328a6.158,6.158,0,0,1,.173-.967,3.082,3.082,0,0,1,1.461-1.972,3.3,3.3,0,0,1,1.05-.336h0c.028,0,.055,0,.083-.007L10.962,3.232A.636.636,0,0,0,10.9,3.2a1.536,1.536,0,0,0-.306-.113c-.012,0-.027,0-.039,0a1.709,1.709,0,0,0-.542-.042,2.9,2.9,0,0,0-.292.025,2.8,2.8,0,0,0-.425.1c-.046.015-.091.036-.137.053-.08.029-.162.055-.241.092l-.075.037a2.372,2.372,0,0,0-.2.125,2.178,2.178,0,0,0-.229.182l0,0-.005,0a2.461,2.461,0,0,0-.176.178,2.181,2.181,0,0,0-.158.2l-.005.006,0,0a2.865,2.865,0,0,0-.163.266c-.019.036-.032.076-.05.113-.027.055-.052.112-.076.17-.018.042-.039.08-.055.123-.035.095-.066.192-.094.292a5.655,5.655,0,0,0-.181,1.118A.464.464,0,0,1,7.613,6.183Z" fill="currentColor"/>
    <path d="M2.648,11.033a.477.477,0,0,1,.08.022l3.935,2.008a2.29,2.29,0,0,1,.5-1.35A7.3,7.3,0,0,1,9.335,9.928c.5-.29,1.027-.55,1.556-.81L7.132,7.06a.494.494,0,0,1-.182-.187l-.035.016c-.639.3-1.27.631-1.88.986q-.327.2-.643.411c-.031.021-.063.038-.093.059s-.063.052-.1.076c-.158.113-.31.233-.459.359-.043.036-.09.066-.131.1s-.055.057-.083.083c-.059.056-.115.115-.172.173s-.1.1-.152.153c-.072.081-.141.165-.208.252q-.036.046-.069.093a1.942,1.942,0,0,0-.116.188,1.988,1.988,0,0,0-.085.189l-.013.029-.01.023a1.781,1.781,0,0,0-.1.451c0,.043,0,.083,0,.126a1.577,1.577,0,0,0,.033.351Z" fill="currentColor"/>
  </g>
  <rect width="24" height="24" fill="none"/>
</svg>
