<svg id="Layer_1" data-name="Layer 1" xmlns="http://www.w3.org/2000/svg" viewBox="0 0 24 24"><path d="M16.65,20h2.08c.42,0,.58-.21.57-.62a4.71,4.71,0,0,0-.45-1.73,35.47,35.47,0,0,0-1.7-3.23,8,8,0,0,1-.63-1.32c-.13-.39,0-.55.38-.64a10.2,10.2,0,0,1,1.35-.09,3.1,3.1,0,0,0,.86-.15A1.25,1.25,0,0,0,20,11a1.59,1.59,0,0,0-.47-1.31,5.65,5.65,0,0,0-2-1.29A20.32,20.32,0,0,0,15,7.53l-.1,0c-.32-.11-.33-.14-.35-.47a4.47,4.47,0,0,0-.39-1.77A2.15,2.15,0,0,0,12.33,4,3.09,3.09,0,0,0,11,4.16,2.29,2.29,0,0,0,9.64,5.71,4.7,4.7,0,0,0,9.43,7c0,.38,0,.4-.39.51a23.4,23.4,0,0,0-2.31.81A6.27,6.27,0,0,0,4.45,9.76a1.61,1.61,0,0,0-.15,2.05,1.49,1.49,0,0,0,1,.51,12,12,0,0,0,1.34.08,1.44,1.44,0,0,1,.51.08c.32.1.39.23.3.55a5.07,5.07,0,0,1-.44,1c-.53,1-1.12,2-1.63,3a7.4,7.4,0,0,0-.72,2,.09.09,0,0,1,0,.05c-.1.64.11.89.76.89H9.27a1,1,0,0,0,.84-.43c.38-.57.7-1.18,1.07-1.74a7.11,7.11,0,0,1,.5-.72c.23-.27.4-.28.63,0a13.94,13.94,0,0,1,1,1.53c.18.31.36.62.56.92a1,1,0,0,0,.87.43Z" style="fill:currentColor"/></svg>