<svg xmlns="http://www.w3.org/2000/svg" width="24" height="24" viewBox="0 0 24 24">
  <g>
    <circle cx="4.5" cy="9.5" r="2.5" fill="currentColor"/>
    <circle cx="9" cy="5.5" r="2.5" fill="currentColor"/>
    <circle cx="15" cy="5.5" r="2.5" fill="currentColor"/>
    <circle cx="19.5" cy="9.5" r="2.5" fill="currentColor"/>
    <path d="M17.34,14.86c-.87-1.02-1.6-1.89-2.48-2.91a4.243,4.243,0,0,0-1.75-1.32,2.025,2.025,0,0,0-.33-.09A5.033,5.033,0,0,0,12,10.5a4.2,4.2,0,0,0-.79.05,2.025,2.025,0,0,0-.33.09,4.308,4.308,0,0,0-1.75,1.32c-.87,1.02-1.6,1.89-2.48,2.91-1.31,1.31-2.92,2.76-2.62,4.79a3.14,3.14,0,0,0,2.33,2.32c.73.15,3.06-.44,5.54-.44h.18c2.48,0,4.81.58,5.54.44a3.155,3.155,0,0,0,2.33-2.32C20.26,17.62,18.65,16.17,17.34,14.86Z" fill="currentColor"/>
  </g>
  <rect width="24" height="24" fill="none"/>
</svg>
