<svg id="Layer_1" data-name="Layer 1" xmlns="http://www.w3.org/2000/svg" viewBox="0 0 24 24"><path d="M4,20m0,0M4,6A2,2,0,0,0,2,8V20a2,2,0,0,0,2,2H16a2,2,0,0,0,2-2H4Z" style="fill:currentColor"/><path d="M20,1a3,3,0,1,1-3,3,3,3,0,0,1,3-3" style="fill:currentColor"/><path d="M20,8a4.09,4.09,0,0,1-1-.14V17H7V5h9.14A4.09,4.09,0,0,1,16,4a4.09,4.09,0,0,1,.14-1H7A2,2,0,0,0,5,5V17a2,2,0,0,0,2,2H19a2,2,0,0,0,2-2V7.86A4.09,4.09,0,0,1,20,8Z" style="fill:currentColor"/><path d="M16.44,11.45a3.19,3.19,0,0,0,0-.45,3.29,3.29,0,0,0,0-.45l1-.76a.23.23,0,0,0,.06-.3l-.92-1.6a.24.24,0,0,0-.29-.1l-1.15.46a3.37,3.37,0,0,0-.78-.45l-.17-1.23a.24.24,0,0,0-.23-.2H12.07a.23.23,0,0,0-.22.2L11.67,7.8a3.37,3.37,0,0,0-.78.45L9.74,7.79a.23.23,0,0,0-.28.1l-.92,1.6a.22.22,0,0,0,.06.3l1,.76a2.91,2.91,0,0,0,0,.9l-1,.76a.23.23,0,0,0-.06.3l.92,1.6a.24.24,0,0,0,.29.1l1.15-.46a3.37,3.37,0,0,0,.78.45l.17,1.23a.25.25,0,0,0,.23.2h1.86a.23.23,0,0,0,.22-.2l.18-1.23a3.37,3.37,0,0,0,.78-.45l1.15.46a.23.23,0,0,0,.28-.1l.93-1.6a.23.23,0,0,0-.06-.3ZM13,12.73A1.73,1.73,0,1,1,14.73,11,1.74,1.74,0,0,1,13,12.73Z" style="fill:currentColor"/></svg>