<svg xmlns="http://www.w3.org/2000/svg" width="24" height="24" viewBox="0 0 24 24">
  <g>
    <path d="M4,20m0,0M4,6A2,2,0,0,0,2,8V20a2,2,0,0,0,2,2H16a2,2,0,0,0,2-2H4Z" fill="currentColor"/>
    <path d="M20,1a3,3,0,1,1-3,3,3,3,0,0,1,3-3" fill="currentColor"/>
    <path d="M20,8a3.939,3.939,0,0,1-1-.142V17H7V5h9.142A3.939,3.939,0,0,1,16,4a3.939,3.939,0,0,1,.142-1H7A2,2,0,0,0,5,5V17a2,2,0,0,0,2,2H19a2,2,0,0,0,2-2V7.858A3.939,3.939,0,0,1,20,8Z" fill="currentColor"/>
    <path d="M13.5,11.5v4h4v-4Zm-5,4h4v-4h-4Zm0-9v4h4v-4Zm6.83-.655L12.5,8.67l2.83,2.83,2.83-2.83Z" fill="currentColor"/>
  </g>
  <rect width="24" height="24" fill="none"/>
</svg>
