<svg xmlns="http://www.w3.org/2000/svg" width="24" height="24" viewBox="0 0 24 24">
  <g>
    <path d="M3.867,20.11m0,0,0-14a2,2,0,0,0-2,2v12a2,2,0,0,0,2,2h12a2,2,0,0,0,2-2h-14Z" fill="currentColor"/>
    <path d="M19.867,1.11a3,3,0,1,1-3,3,3,3,0,0,1,3-3" fill="currentColor"/>
    <path d="M19.867,8.11a3.978,3.978,0,0,1-1-.142V17.11h-12v-12h9.142a3.939,3.939,0,0,1-.142-1,3.926,3.926,0,0,1,.142-1H6.867a2,2,0,0,0-2,2v12a2,2,0,0,0,2,2h12a2,2,0,0,0,2-2V7.968A3.984,3.984,0,0,1,19.867,8.11Z" fill="currentColor"/>
  </g>
  <rect width="24" height="24" fill="none"/>
</svg>
