<svg id="Layer_1" data-name="Layer 1" xmlns="http://www.w3.org/2000/svg" viewBox="0 0 24 24"><path d="M13.48,19.86l.34-.07.35-.1.38-.11.25-.09.44-.18,0,0a8,8,0,0,0,4-4l0,0c.07-.15.12-.29.18-.44l.09-.25c0-.13.08-.25.11-.38s.07-.24.1-.35.05-.23.07-.34.05-.3.07-.46l0-.27a7.05,7.05,0,0,0,0-1.5l0-.27c0-.16,0-.31-.07-.46s-.05-.22-.07-.34-.06-.23-.1-.35-.07-.25-.11-.38l-.09-.25c-.06-.15-.11-.29-.18-.44l0,0a7.89,7.89,0,0,0-2.39-3h0a8.28,8.28,0,0,0-1.62-1l0,0-.44-.18-.25-.09-.38-.11-.35-.1-.34-.07L13,4.07l-.27,0a7.05,7.05,0,0,0-1.5,0l-.27,0-.46.07-.34.07-.35.1-.38.11-.25.09-.44.18,0,0a8.28,8.28,0,0,0-1.62,1h0a7.89,7.89,0,0,0-2.39,3l0,0c-.07.15-.12.29-.18.44l-.09.25c0,.13-.08.25-.11.38s-.07.24-.1.35,0,.23-.07.34,0,.3-.07.46,0,.17,0,.27a7.05,7.05,0,0,0,0,1.5c0,.1,0,.18,0,.27s0,.31.07.46.05.22.07.34.06.23.1.35.07.25.11.38l.09.25c.06.15.11.29.18.44l0,0a8,8,0,0,0,4,4l0,0,.44.18.25.09.38.11.35.1.34.07.46.07.27,0a7.05,7.05,0,0,0,1.5,0l.27,0Zm2.7-2.26-.71-.71a6,6,0,0,0,1.42-1.42l.71.71A6.83,6.83,0,0,1,16.18,17.6ZM12,7a5,5,0,1,1-5,5A5,5,0,0,1,12,7Zm5.6.82-.71.71a6,6,0,0,0-1.42-1.42l.71-.71A6.83,6.83,0,0,1,17.6,7.82ZM7.82,6.4l.71.71A6,6,0,0,0,7.11,8.53L6.4,7.82A6.83,6.83,0,0,1,7.82,6.4ZM6.4,16.18l.71-.71a6,6,0,0,0,1.42,1.42l-.71.71A6.83,6.83,0,0,1,6.4,16.18Z" style="fill:currentColor"/></svg>