<svg xmlns="http://www.w3.org/2000/svg" width="24" height="24" viewBox="0 0 24 24">
  <path d="M13.48,19.858c.113-.022.224-.047.335-.073s.237-.057.353-.09.254-.074.379-.116c.085-.029.169-.061.253-.093.147-.055.293-.11.435-.173l.043-.021a8.018,8.018,0,0,0,4.014-4.014l.021-.043c.063-.142.118-.287.173-.433.032-.085.064-.17.093-.256.042-.124.08-.25.115-.377s.063-.235.091-.354.051-.222.073-.335c.028-.15.049-.3.069-.456.012-.09.026-.178.035-.269.023-.249.038-.5.038-.755s-.015-.506-.038-.755c-.009-.091-.023-.179-.035-.269-.02-.153-.041-.306-.069-.456-.022-.113-.047-.224-.073-.335s-.057-.237-.091-.354-.073-.253-.115-.377c-.029-.086-.061-.171-.093-.256-.055-.146-.11-.291-.173-.433l-.021-.043A8.016,8.016,0,0,0,16.9,5.686h0a7.986,7.986,0,0,0-1.62-.977l-.044-.021c-.142-.063-.287-.118-.433-.173-.085-.032-.17-.064-.256-.093-.124-.042-.25-.08-.377-.115s-.235-.063-.354-.091-.222-.051-.335-.073c-.15-.028-.3-.049-.456-.069-.09-.012-.178-.026-.269-.035C12.506,4.015,12.255,4,12,4s-.506.015-.755.038c-.091.009-.179.023-.269.035-.153.02-.306.041-.456.069-.113.022-.224.047-.335.073s-.237.057-.354.091-.253.073-.377.115c-.086.029-.171.061-.256.093-.146.055-.291.11-.433.173l-.044.021a7.986,7.986,0,0,0-1.62.977h0A8.016,8.016,0,0,0,4.708,8.722l-.021.043c-.063.142-.118.288-.173.435-.032.084-.064.168-.093.253-.042.125-.08.251-.116.379s-.062.234-.09.353-.051.222-.073.335c-.028.15-.049.3-.069.456-.012.09-.026.178-.035.269-.023.249-.038.5-.038.755s.015.506.038.755c.009.091.023.179.035.269.02.153.041.306.069.456.022.113.047.224.073.335s.057.237.09.353.074.254.116.379c.029.085.061.169.093.253.055.147.11.293.173.435l.021.043a8.018,8.018,0,0,0,4.014,4.014l.043.021c.142.063.288.118.435.173.084.032.168.064.253.093.125.042.251.08.379.116s.234.062.353.09.222.051.335.073c.15.028.3.049.456.069.09.012.178.026.269.035.249.023.5.038.755.038s.506-.015.755-.038c.091-.009.179-.023.269-.035C13.177,19.907,13.33,19.886,13.48,19.858Zm2.7-2.26-.711-.711a6.007,6.007,0,0,0,1.414-1.414l.711.711A7.017,7.017,0,0,1,16.184,17.6ZM12,7a5,5,0,1,1-5,5A5.006,5.006,0,0,1,12,7Zm5.6.816-.711.711a6.007,6.007,0,0,0-1.414-1.414l.711-.711A7.017,7.017,0,0,1,17.6,7.816ZM7.816,6.4l.711.711A6.007,6.007,0,0,0,7.113,8.527L6.4,7.816A7.017,7.017,0,0,1,7.816,6.4ZM6.4,16.184l.711-.711a6.007,6.007,0,0,0,1.414,1.414l-.711.711A7.017,7.017,0,0,1,6.4,16.184Z" fill="currentColor"/>
  <rect width="24" height="24" fill="none"/>
</svg>
