<?xml version="1.0" encoding="UTF-8"?>
<svg id="Layer_1" xmlns="http://www.w3.org/2000/svg" version="1.1" viewBox="0 0 24 24">
  <!-- Generator: Adobe Illustrator 29.8.3, SVG Export Plug-In . SVG Version: 2.1.1 Build 3)  -->
  <defs>
    <style>
      .st0 {
        fill: none;
      }
    </style>
  </defs>
  <rect class="st0" width="24" height="24"/>
  <g>
    <path d="M13.48,18.358c.113-.022.224-.047.335-.073s.237-.057.353-.09.254-.074.379-.116c.085-.029.169-.061.253-.093.147-.055.293-.11.435-.173l.043-.021c1.7827-.8037,3.2103-2.2313,4.014-4.014l.021-.043c.063-.142.118-.287.173-.433.032-.085.064-.17.093-.256.042-.124.08-.25.115-.377s.063-.235.091-.354.051-.222.073-.335c.028-.15.049-.3.069-.456.012-.09.026-.178.035-.269.023-.249.038-.5.038-.755s-.015-.506-.038-.755c-.009-.091-.023-.179-.035-.269-.02-.153-.041-.306-.069-.456-.022-.113-.047-.224-.073-.335s-.057-.237-.091-.354-.073-.253-.115-.377c-.029-.086-.061-.171-.093-.256-.055-.146-.11-.291-.173-.433l-.021-.043c-.5378-1.192-1.359-2.2343-2.392-3.036h0c-.4994-.3887-1.0432-.7167-1.62-.977l-.044-.021c-.142-.063-.287-.118-.433-.173-.085-.032-.17-.064-.256-.093-.124-.042-.25-.08-.377-.115s-.235-.063-.354-.091-.222-.051-.335-.073c-.15-.028-.3-.049-.456-.069-.09-.012-.178-.026-.269-.035-.25-.024-.501-.039-.756-.039s-.506.015-.755.038c-.091.009-.179.023-.269.035-.153.02-.306.041-.456.069-.113.022-.224.047-.335.073s-.237.057-.354.091-.253.073-.377.115c-.086.029-.171.061-.256.093-.146.055-.291.11-.433.173l-.044.021c-.5768.2603-1.1206.5883-1.62.977h0c-1.0335.8019-1.8551,1.8446-2.393,3.037l-.021.043c-.063.142-.118.288-.173.435-.032.084-.064.168-.093.253-.042.125-.08.251-.116.379s-.062.234-.09.353-.051.222-.073.335c-.028.15-.049.3-.069.456-.012.09-.026.178-.035.269-.023.249-.038.5-.038.755s.015.506.038.755c.009.091.023.179.035.269.02.153.041.306.069.456.022.113.047.224.073.335s.057.237.09.353.074.254.116.379c.029.085.061.169.093.253.055.147.11.293.173.435l.021.043c.8037,1.7827,2.2313,3.2103,4.014,4.014l.043.021c.142.063.288.118.435.173.084.032.168.064.253.093.125.042.251.08.379.116s.234.062.353.09.222.051.335.073c.15.028.3.049.456.069.09.012.178.026.269.035.249.023.5.038.755.038s.506-.015.755-.038c.091-.009.179-.023.269-.035.153-.02.306-.041.456-.069ZM16.18,16.098l-.711-.711c.547-.389,1.025-.867,1.414-1.414l.711.711c-.4.5368-.8749,1.0137-1.41,1.416l-.004-.002ZM12,5.5c2.7614,0,5,2.2386,5,5s-2.2386,5-5,5-5-2.2386-5-5c.0033-2.7601,2.2399-4.9967,5-5ZM17.6,6.316l-.711.711c-.389-.547-.867-1.025-1.414-1.414l.711-.711c.5364.4014,1.0126.8776,1.414,1.414ZM7.816,4.9l.711.711c-.5472.3896-1.0252.8683-1.414,1.416l-.713-.711c.4019-.5373.8787-1.0141,1.416-1.416ZM6.4,14.684l.711-.711c.389.547.867,1.025,1.414,1.414l-.711.711c-.5364-.4014-1.0126-.8776-1.414-1.414Z"/>
    <path d="M17.1061,17.1961l.4879.4879c-.4.5368-.8749,1.0137-1.41,1.416l-.004-.002-.711-.711c.2119-.1507.4036-.3256.5937-.5019-1.2052.6644-2.5892,1.0445-4.0627,1.0445-1.4825,0-2.8738-.3855-4.0841-1.0575.1943.1815.3917.3603.6091.5149l-.711.711c-.5364-.4014-1.0126-.8776-1.414-1.414l.4905-.4905c-1.3208-1.0098-2.3334-2.3971-2.8748-4.0055-.0046.1042-.0157.2066-.0157.312,0,.255.015.506.038.755.009.091.0229.179.035.269.02.153.041.306.069.456.022.113.047.224.073.335s.0569.237.09.353c.033.116.074.254.116.379.029.085.061.169.093.253.0551.147.11.293.173.435l.021.043c.8037,1.7827,2.2313,3.2103,4.014,4.014l.043.021c.142.063.288.118.435.173.084.032.168.064.253.093.125.042.251.08.379.116.128.036.2339.062.353.09.119.028.222.051.335.073.15.028.3.049.456.069.09.012.178.026.269.035.249.023.5.038.755.038s.506-.015.755-.038c.091-.009.179-.0229.269-.035.153-.02.306-.041.456-.069.113-.022.224-.047.335-.073s.237-.0569.353-.09c.116-.033.254-.074.379-.116.085-.029.169-.061.253-.093.147-.0551.293-.11.435-.173l.043-.021c1.7827-.8037,3.2103-2.2313,4.014-4.014l.021-.043c.063-.142.118-.287.173-.433.032-.085.064-.17.093-.256.042-.124.08-.25.1151-.377.035-.127.063-.235.0909-.354.028-.119.051-.222.073-.335.028-.15.049-.3.069-.456.012-.09.026-.178.035-.269.023-.249.038-.5.038-.755,0-.1053-.011-.2078-.0157-.312-.5419,1.6097-1.5558,2.998-2.8782,4.0081Z"/>
  </g>
</svg>