<?xml version="1.0" encoding="UTF-8"?>
<svg id="Layer_1" xmlns="http://www.w3.org/2000/svg" version="1.1" viewBox="0 0 24 24">
  <!-- Generator: Adobe Illustrator 29.8.3, SVG Export Plug-In . SVG Version: 2.1.1 Build 3)  -->
  <defs>
    <style>
      .st0 {
        fill: none;
      }
    </style>
  </defs>
  <path d="M20,13.5v-3c0-3.038-3.582-5.5-8-5.5s-8,2.462-8,5.5v3c0,3.038,3.582,5.5,8,5.5s8-2.462,8-5.5ZM12,7c3.536,0,6,1.845,6,3.5s-2.464,3.5-6,3.5-6-1.845-6-3.5,2.464-3.5,6-3.5ZM6.172,14.26c1.7134,1.1742,3.7513,1.7827,5.828,1.74,2.0767.0427,4.1146-.5658,5.828-1.74-.607,1.413-2.828,2.74-5.828,2.74s-5.221-1.327-5.828-2.74Z"/>
  <rect class="st0" width="24" height="24"/>
  <path d="M13.3052,14.0443c.0997-.0102.1975-.0217.2954-.0338s.209-.0264.3113-.0416.224-.0342.3342-.0537c.075-.0134.149-.0282.2231-.043.1296-.0254.2584-.0509.3836-.08l.0379-.0097c1.5721-.3718,2.831-1.0323,3.5398-1.8571l.0185-.0199c.0556-.0657.1041-.1328.1526-.2003.0282-.0393.0564-.0787.082-.1184.037-.0574.0705-.1157.1014-.1744s.0556-.1087.0803-.1638.045-.1027.0644-.155c.0247-.0694.0432-.1388.0608-.211.0106-.0416.0229-.0824.0309-.1245.0203-.1152.0335-.2313.0335-.3493s-.0132-.2341-.0335-.3493c-.0079-.0421-.0203-.0828-.0309-.1245-.0176-.0708-.0362-.1416-.0608-.211-.0194-.0523-.0414-.1036-.0644-.155s-.0503-.1096-.0803-.1638-.0644-.1171-.1014-.1744c-.0256-.0398-.0538-.0791-.082-.1184-.0485-.0675-.097-.1346-.1526-.2003l-.0185-.0199c-.4742-.5515-1.1984-1.0337-2.1094-1.4046h0c-.4404-.1798-.92-.3316-1.4286-.452l-.0388-.0097c-.1252-.0291-.2531-.0546-.3819-.08-.075-.0148-.1499-.0296-.2258-.043-.1094-.0194-.2205-.037-.3325-.0532s-.2072-.0291-.3122-.0421-.1958-.0236-.2954-.0338c-.1323-.013-.2646-.0227-.4021-.0319-.0794-.0056-.157-.012-.2372-.0162-.2205-.0111-.4418-.018-.6667-.018s-.4462.0069-.6658.0176c-.0803.0042-.1579.0106-.2372.0162-.1349.0093-.2699.019-.4021.0319-.0997.0102-.1975.0217-.2954.0338s-.209.0264-.3122.0421-.2231.0338-.3325.0532c-.0758.0134-.1508.0282-.2258.043-.1288.0254-.2566.0509-.3819.08l-.0388.0097c-.5087.1204-.9882.2722-1.4286.452h0c-.9114.371-1.636.8534-2.1103,1.4051l-.0185.0199c-.0556.0657-.1041.1332-.1526.2013-.0282.0389-.0564.0777-.082.1171-.037.0578-.0705.1161-.1023.1753s-.0547.1083-.0794.1633-.045.1027-.0644.155c-.0247.0694-.0432.1388-.0608.211-.0106.0416-.0229.0824-.0309.1245-.0203.1152-.0335.2313-.0335.3493s.0132.2341.0335.3493c.0079.0421.0203.0828.0309.1245.0176.0708.0362.1416.0608.211.0194.0523.0414.1036.0644.155s.0503.1096.0794.1633.0653.1175.1023.1753c.0256.0393.0538.0782.082.1171.0485.068.097.1356.1526.2013l.0185.0199c.7088.8248,1.9677,1.4852,3.5398,1.8571l.0379.0097c.1252.0291.254.0546.3836.08.0741.0148.1482.0296.2231.043.1102.0194.2214.037.3342.0537s.2064.0287.3113.0416.1958.0236.2954.0338c.1323.013.2646.0227.4021.0319.0794.0056.157.012.2372.0162.2196.0106.4409.0176.6658.0176s.4462-.0069.6658-.0176c.0803-.0042.1579-.0106.2372-.0162.1349-.0093.2699-.019.4021-.0319ZM15.6862,12.9987l-.627-.3289c.4824-.18.9039-.4011,1.247-.6542l.627.3289c-.3528.2484-.7715.469-1.2434.6551l-.0035-.0009ZM12,8.0955c2.4352,0,4.4094,1.0357,4.4094,2.3132s-1.9741,2.3132-4.4094,2.3132-4.4094-1.0357-4.4094-2.3132c.0029-1.2769,1.9754-2.3117,4.4094-2.3132ZM16.9385,8.4731l-.627.3289c-.3431-.2531-.7646-.4742-1.247-.6542l.627-.3289c.4731.1857.893.406,1.247.6542ZM8.3102,7.818l.627.3289c-.4826.1803-.9041.4017-1.247.6551l-.6288-.3289c.3544-.2486.7749-.4692,1.2487-.6551ZM7.0615,12.3445l.627-.3289c.3431.2531.7646.4742,1.247.6542l-.627.3289c-.4731-.1857-.893-.406-1.247-.6542Z"/>
</svg>