<?xml version="1.0" encoding="UTF-8"?>
<svg id="Layer_1" xmlns="http://www.w3.org/2000/svg" version="1.1" viewBox="0 0 24 24">
  <!-- Generator: Adobe Illustrator 29.8.3, SVG Export Plug-In . SVG Version: 2.1.1 Build 3)  -->
  <defs>
    <style>
      .st0 {
        fill: none;
      }
    </style>
  </defs>
  <rect class="st0" width="24" height="24"/>
  <g>
    <path d="M20,10v-3c0-3.038-3.582-5.5-8-5.5S4,3.962,4,7v3c0,3.038,3.582,5.5,8,5.5s8-2.462,8-5.5ZM12,3.5c3.536,0,6,1.845,6,3.5s-2.464,3.5-6,3.5-6-1.845-6-3.5,2.464-3.5,6-3.5ZM6.172,10.76c1.7134,1.1742,3.7513,1.7827,5.828,1.74,2.0767.0427,4.1146-.5658,5.828-1.74-.607,1.413-2.828,2.74-5.828,2.74s-5.221-1.327-5.828-2.74Z"/>
    <path d="M13.3052,10.5443c.0997-.0102.1975-.0217.2954-.0338s.209-.0264.3113-.0416.224-.0342.3342-.0537c.075-.0134.149-.0282.2231-.043.1296-.0254.2584-.0509.3836-.08l.0379-.0097c1.5721-.3718,2.831-1.0323,3.5398-1.8571l.0185-.0199c.0556-.0657.1041-.1328.1526-.2003.0282-.0393.0564-.0787.082-.1184.037-.0574.0705-.1157.1014-.1744s.0556-.1087.0803-.1638.045-.1027.0644-.155c.0247-.0694.0432-.1388.0608-.211.0106-.0416.0229-.0824.0309-.1245.0203-.1152.0335-.2313.0335-.3493s-.0132-.2341-.0335-.3493c-.0079-.0421-.0203-.0828-.0309-.1245-.0176-.0708-.0362-.1416-.0608-.211-.0194-.0523-.0414-.1036-.0644-.155s-.0503-.1096-.0803-.1638-.0644-.1171-.1014-.1744c-.0256-.0398-.0538-.0791-.082-.1184-.0485-.0675-.097-.1346-.1526-.2003l-.0185-.0199c-.4742-.5515-1.1984-1.0337-2.1094-1.4046h0c-.4404-.1798-.92-.3316-1.4286-.452l-.0388-.0097c-.1252-.0291-.2531-.0546-.3819-.08-.075-.0148-.1499-.0296-.2258-.043-.1094-.0194-.2205-.037-.3325-.0532s-.2072-.0291-.3122-.0421-.1958-.0236-.2954-.0338c-.1323-.013-.2646-.0227-.4021-.0319-.0794-.0056-.157-.012-.2372-.0162-.2205-.0111-.4418-.018-.6667-.018s-.4462.0069-.6658.0176c-.0803.0042-.1579.0106-.2372.0162-.1349.0093-.2699.019-.4021.0319-.0997.0102-.1975.0217-.2954.0338s-.209.0264-.3122.0421-.2231.0338-.3325.0532c-.0758.0134-.1508.0282-.2258.043-.1288.0254-.2566.0509-.3819.08l-.0388.0097c-.5087.1204-.9882.2722-1.4286.452h0c-.9114.371-1.636.8534-2.1103,1.4051l-.0185.0199c-.0556.0657-.1041.1332-.1526.2013-.0282.0389-.0564.0777-.082.1171-.037.0578-.0705.1161-.1023.1753s-.0547.1083-.0794.1633-.045.1027-.0644.155c-.0247.0694-.0432.1388-.0608.211-.0106.0416-.0229.0824-.0309.1245-.0203.1152-.0335.2313-.0335.3493s.0132.2341.0335.3493c.0079.0421.0203.0828.0309.1245.0176.0708.0362.1416.0608.211.0194.0523.0414.1036.0644.155s.0503.1096.0794.1633.0653.1175.1023.1753c.0256.0393.0538.0782.082.1171.0485.068.097.1356.1526.2013l.0185.0199c.7088.8248,1.9677,1.4852,3.5398,1.8571l.0379.0097c.1252.0291.254.0546.3836.08.0741.0148.1482.0296.2231.043.1102.0194.2214.037.3342.0537s.2064.0287.3113.0416.1958.0236.2954.0338c.1323.013.2646.0227.4021.0319.0794.0056.157.012.2372.0162.2196.0106.4409.0176.6658.0176s.4462-.0069.6658-.0176c.0803-.0042.1579-.0106.2372-.0162.1349-.0093.2699-.019.4021-.0319l.0004-.0003ZM15.6862,9.4987l-.627-.3289c.4824-.18.9039-.4011,1.247-.6542l.627.3289c-.3528.2484-.7715.469-1.2434.6551l-.0035-.0009h-.0001ZM12,4.5955c2.4352,0,4.4094,1.0357,4.4094,2.3132s-1.9741,2.3132-4.4094,2.3132-4.4094-1.0357-4.4094-2.3132c.0029-1.2769,1.9754-2.3117,4.4094-2.3132ZM16.9385,4.9731l-.627.3289c-.3431-.2531-.7646-.4742-1.247-.6542l.627-.3289c.4731.1857.893.406,1.247.6542ZM8.3102,4.318l.627.3289c-.4826.1803-.9041.4017-1.247.6551l-.6288-.3289c.3544-.2486.7749-.4692,1.2487-.6551h.0001ZM7.0615,8.8445l.627-.3289c.3431.2531.7646.4742,1.247.6542l-.627.3289c-.4731-.1857-.893-.406-1.247-.6542Z"/>
  </g>
  <g>
    <path d="M8.2895,10.7673c.2636-.086.5353-.165.8187-.2321l.0388-.0097c.1253-.0291.2531-.0546.382-.08.075-.0148.15-.0296.2258-.043.1094-.0193.2293-.0375.3325-.0532s.2143-.03.3122-.0421.1957-.0236.2954-.0338c.1322-.0129.2672-.0226.4021-.0319.0793-.0056.1569-.012.2372-.0162.2046-.0099.4112-.0155.6203-.0164-.8037-.0035-1.6057-.0987-2.2933-.2905l-1.2925.6777-.4253-.1665c-.4304-.1691-.8129-.3714-1.1659-.5902-.032.019-.0624.0393-.094.0587l.0538.0369c.4915.3367,1.0154.6016,1.5522.8323Z"/>
    <path d="M16.0557,10.4302l-.3379.1328-.4951-.1787-.8867-.4648c-.6878.1912-1.4897.2861-2.2931.2894.2101.0009.4175.0065.6238.0168.0802.0042.1578.0106.2372.0162.1375.0092.2698.0189.4021.0319.0996.0102.1904.0208.2954.0338.105.013.2002.0259.3122.0421.112.0162.2231.0338.3325.0532.0759.0134.1508.0282.2258.043.1288.0254.2567.0509.3819.08l.0388.0097c.2817.0667.5518.1451.814.2305.5396-.2302,1.0654-.4946,1.5562-.831l.0538-.0369c-.0323-.0198-.0634-.0406-.0962-.0601-.3538.2201-.7365.4235-1.1647.5921Z"/>
    <path d="M19.0428,14.0353c-.0056.0745-.0084.1493-.0214.2228-.008.0421-.0203.0829-.0309.1245-.0176.0722-.0361.1416-.0608.2111-.0194.0522-.0397.0999-.0644.155s-.0494.1051-.0803.1638c-.0309.0587-.0644.117-.1014.1744-.0256.0397-.0538.0791-.082.1184-.0485.0675-.097.1346-.1526.2003l-.0185.0199c-.7088.8248-1.9677,1.4853-3.5398,1.8571l-.0379.0097c-.1252.0291-.254.0546-.3836.08-.0741.0148-.1481.0296-.2231.043-.1102.0195-.2319.0385-.3342.0536-.1024.0152-.2134.0295-.3113.0416s-.1957.0236-.2954.0338l-.0004.0003c-.1322.0129-.2672.0226-.4021.0319-.0793.0056-.1569.012-.2372.0162-.2196.0107-.4409.0176-.6658.0176s-.4462-.007-.6658-.0176c-.0802-.0042-.1578-.0106-.2372-.0162-.1375-.0092-.2698-.0189-.4021-.0319-.0995-.0102-.1905-.0209-.2953-.0338-.1049-.0129-.1985-.0249-.3113-.0416-.1128-.0167-.224-.0343-.3342-.0537-.0749-.0134-.149-.0282-.2231-.043-.1296-.0254-.2584-.0509-.3836-.08l-.0378-.0097c-1.5721-.3719-2.8311-1.0323-3.5399-1.8571l-.0185-.0199c-.0556-.0657-.1041-.1333-.1526-.2014-.0282-.0389-.0564-.0778-.082-.1171-.037-.0578-.0732-.1216-.1023-.1753-.0291-.0537-.0564-.1119-.0794-.1633s-.045-.1027-.0644-.155c-.0246-.0694-.0432-.1402-.0609-.211-.0106-.0417-.0229-.0824-.0309-.1245-.0129-.0737-.0159-.1487-.0214-.2234-.3148-.286-.6004-.5895-.8459-.9116-.0668.2862-.1111.5776-.1111.8768v3c0,3.038,3.582,5.5,8,5.5s8-2.462,8-5.5v-3c0-.2991-.0443-.5905-.1111-.8766-.2456.3223-.5312.6258-.8461.9119ZM12,20.5c-3,0-5.221-1.327-5.828-2.74,1.7134,1.1742,3.7513,1.7827,5.828,1.74,2.0767.0427,4.1146-.5658,5.828-1.74-.607,1.413-2.828,2.74-5.828,2.74Z"/>
  </g>
</svg>