<svg xmlns="http://www.w3.org/2000/svg" viewBox="0 0 24 24"><g id="Layer_1" data-name="Layer 1"><path d="M19.88,13H15.12A2.12,2.12,0,0,0,13,15.12v4.76A2.12,2.12,0,0,0,15.12,22h4.76A2.12,2.12,0,0,0,22,19.88V15.12A2.12,2.12,0,0,0,19.88,13Zm0,6.88H15.12V15.12h4.76Z" style="fill:currentColor"/><path d="M19.88,2H15.12A2.12,2.12,0,0,0,13,4.12V8.88A2.12,2.12,0,0,0,15.12,11h4.76A2.12,2.12,0,0,0,22,8.88V4.12A2.12,2.12,0,0,0,19.88,2Zm0,6.88H15.12V4.12h4.76Z" style="fill:currentColor"/><path d="M5.59,11H4.41V9l-3,3,3,3V13H5.59a6.08,6.08,0,0,0,6,5h.91V16h-.91a4,4,0,1,1,0-8h.91V6h-.91A6.08,6.08,0,0,0,5.59,11Z" style="fill:currentColor"/><path d="M17.5,7.44a.94.94,0,1,0-.94-.94A.94.94,0,0,0,17.5,7.44Z" style="fill:currentColor"/><path d="M16.52,17.46a.95.95,0,0,0,0-1.89.95.95,0,1,0,0,1.89Z" style="fill:currentColor"/><path d="M18.48,19.43a.95.95,0,1,0,0-1.89.95.95,0,0,0,0,1.89Z" style="fill:currentColor"/></g><g id="Layer_2" data-name="Layer 2"><rect width="24" height="24" style="fill:none"/></g></svg>