<?xml version="1.0" standalone="no"?>
<!DOCTYPE svg PUBLIC "-//W3C//DTD SVG 1.1//EN" "http://www.w3.org/Graphics/SVG/1.1/DTD/svg11.dtd" >
<svg xmlns="http://www.w3.org/2000/svg" xmlns:xlink="http://www.w3.org/1999/xlink" version="1.1" viewBox="-10 0 1034 1024">
   <path fill="currentColor"
d="M315 555h-128q-36 0 -61 25t-25 61v0v213q0 35 25 60t61 25v0h128q35 0 60 -25t25 -60v0v-213q0 -36 -25 -61t-60 -25v0v0zM187 705l64 -64h64v149l-64 64h-64v-149zM716 469h50v-87l130 130l-130 130v-87h-50q-9 45 -32 84q-23 40 -56.5 68.5t-76.5 44.5t-90 16h-0.5
h-0.5h-39v-85h39q71 0 121 -50t50 -121t-50 -121t-121 -50v0h-39v-85h39h0.5h0.5q47 0 90 16t76.5 44.5t56.5 67.5t31 84l1 1v0zM315 85h-128q-36 0 -61 25t-25 61v0v213q0 35 25 60t61 25v0h128q35 0 60 -25t25 -60v0v-213q0 -36 -25 -61t-60 -25v0v0zM187 235l64 -64h64
v149l-64 64h-64v-149z" />
</svg>
