<svg xmlns="http://www.w3.org/2000/svg" viewBox="0 0 24 24"><g id="Layer_1" data-name="Layer 1"><path d="M6.59,11H5.41V9l-3,3,3,3V13H6.59a6.08,6.08,0,0,0,6,5h.91V16h-.91a4,4,0,1,1,0-8h.91V6h-.91A6.08,6.08,0,0,0,6.59,11Z" style="fill:currentColor"/><path d="M19,13H16a2,2,0,0,0-2,2v5a2,2,0,0,0,2,2h3a2,2,0,0,0,2-2V15A2,2,0,0,0,19,13Zm-3,7V16.5L17.5,15H19v3.5L17.5,20Z" style="fill:currentColor"/><path d="M19,2H16a2,2,0,0,0-2,2V9a2,2,0,0,0,2,2h3a2,2,0,0,0,2-2V4A2,2,0,0,0,19,2ZM16,5.5,17.5,4H19V7.5L17.5,9H16Z" style="fill:currentColor"/></g><g id="Layer_2" data-name="Layer 2"><rect width="24" height="24" style="fill:none"/></g></svg>