<?xml version="1.0" encoding="UTF-8"?>
<svg width="24" height="24" version="1.1" viewBox="0 0 24 24" xmlns="http://www.w3.org/2000/svg">
 <g transform="matrix(-1,0,0,1,23.372,0)" fill="currentColor">
  <path d="m6.592 11h-1.183v-2.037l-3.037 3.037 3.037 3.037v-2.037h1.183a6.067 6.067 0 0 0 6 5h0.908v-2h-0.912a4 4 0 1 1 0-8h0.912v-2h-0.912a6.067 6.067 0 0 0-5.996 5z"/>
  <path d="m16 13h3a2 2 0 0 1 2 2v5a2 2 0 0 1-2 2h-3a2 2 0 0 1-2-2v-5a2 2 0 0 1 2-2zm3 7v-3.5l-1.5-1.5h-1.5v3.5l1.5 1.5z"/>
  <path d="m16 2h3a2 2 0 0 1 2 2v5a2 2 0 0 1-2 2h-3a2 2 0 0 1-2-2v-5a2 2 0 0 1 2-2zm3 3.5-1.5-1.5h-1.5v3.5l1.5 1.5h1.5z"/>
 </g>
 <rect width="24" height="24" fill="none"/>
</svg>
