<?xml version="1.0" standalone="no"?>
<!DOCTYPE svg PUBLIC "-//W3C//DTD SVG 1.1//EN" "http://www.w3.org/Graphics/SVG/1.1/DTD/svg11.dtd" >
<svg xmlns="http://www.w3.org/2000/svg" xmlns:xlink="http://www.w3.org/1999/xlink" version="1.1" viewBox="-10 0 1034 1024">
   <path fill="currentColor"
d="M150 555h203q37 0 63.5 26.5t26.5 63.5v203q0 38 -26.5 64.5t-63.5 26.5h-203q-38 0 -64.5 -26.5t-26.5 -64.5v-203q0 -37 26.5 -63.5t64.5 -26.5v0zM150 645v203h203v-203h-203zM150 85h203q37 0 63.5 26.5t26.5 64.5v203q0 37 -26.5 63.5t-63.5 26.5h-203
q-38 0 -64.5 -26.5t-26.5 -63.5v-203q0 -38 26.5 -64.5t64.5 -26.5v0zM150 379h203v-203h-203v203zM759 469h51v-87l129 130l-129 130v-87h-51q-8 45 -31 84q-23 40 -57 68.5t-76 44.5q-43 16 -90 16h-1h-1h-38v-85h39q70 0 120 -50t50 -121t-50 -121t-120 -50v0h-39v-85h39
v0h1q47 0 90 16q42 16 76 44.5t57 67.5t31 84v1v0zM251 318q-16 0 -28 -12t-12 -29q0 -16 12 -28t28 -12q17 0 29 12t12 28v0q0 17 -12 29t-29 12v0zM253 788v0v0q0 -17 12 -28.5t28 -11.5q17 0 29 11.5t12 28.5t-12 29t-29 12v0v0v0q-16 0 -28 -12t-12 -29v0v0zM169 704
q0 -16 12 -28t28 -12q17 0 29 12t12 28q0 17 -12 29t-29 12v0v0v0v0v0q-16 0 -28 -12t-12 -28v-1v0v0v0z" />
</svg>
