<?xml version="1.0" encoding="UTF-8"?>
<svg width="24" height="24" version="1.1" viewBox="0 0 24 24" xmlns="http://www.w3.org/2000/svg">
 <g transform="matrix(-1,0,0,1,23.372,0)" fill="currentColor">
  <path d="m15.121 13h4.758a2.122 2.122 0 0 1 2.121 2.121v4.758a2.122 2.122 0 0 1-2.121 2.121h-4.758a2.122 2.122 0 0 1-2.121-2.121v-4.758a2.122 2.122 0 0 1 2.121-2.121zm0 6.879h4.758v-4.758h-4.758z"/>
  <path d="m15.121 2h4.758a2.122 2.122 0 0 1 2.121 2.121v4.758a2.122 2.122 0 0 1-2.121 2.121h-4.758a2.122 2.122 0 0 1-2.121-2.121v-4.758a2.122 2.122 0 0 1 2.121-2.121zm0 6.879h4.758v-4.758h-4.758z"/>
  <path d="m5.591 11h-1.183v-2.037l-3.036 3.037 3.036 3.037v-2.037h1.183a6.068 6.068 0 0 0 6 5h0.909v-2h-0.911a4 4 0 1 1 0-8h0.911v-2h-0.911a6.068 6.068 0 0 0-5.998 5z"/>
  <path d="m17.5 7.445a0.945 0.945 0 1 0-0.945-0.945 0.945 0.945 0 0 0 0.945 0.945z"/>
  <path d="m18.483 17.463a0.945 0.945 0 1 1 0.944-0.945 0.945 0.945 0 0 1-0.944 0.945z"/>
  <path d="m16.519 19.426a0.945 0.945 0 1 1 0.945-0.944 0.943 0.943 0 0 1-0.945 0.944z"/>
 </g>
 <rect width="24" height="24" fill="none"/>
</svg>
