<svg xmlns="http://www.w3.org/2000/svg" width="24" height="24" viewBox="0 0 24 24">
  <path d="M17.91,11h2.02A7.922,7.922,0,0,0,18.3,7.11L16.89,8.53A5.935,5.935,0,0,1,17.91,11ZM16.9,15.47l1.41,1.42A7.906,7.906,0,0,0,19.93,13H17.91A6,6,0,0,1,16.9,15.47Zm-1.44,1.4A5.914,5.914,0,0,1,13,17.9v2.03a7.924,7.924,0,0,0,3.9-1.61ZM4,12a7.988,7.988,0,0,0,7,7.93V17.91A5.993,5.993,0,0,1,11,6.09V10l4.55-4.45L11,1V4.07A7.988,7.988,0,0,0,4,12Z" fill="currentColor"/>
  <rect width="24" height="24" fill="none"/>
</svg>
