<svg xmlns="http://www.w3.org/2000/svg" width="24" height="24" viewBox="0 0 24 24">
  <g>
    <path d="M20.884,8.508A3.952,3.952,0,0,1,19,9a4.037,4.037,0,0,1-.627-.063L16.33,9.89,14,7.7V6.3l1.033-.971C15.024,5.219,15,5.113,15,5a3.959,3.959,0,0,1,.818-2.4.991.991,0,0,0-.3.2L13.78,4.4A.975.975,0,0,0,13,4a1,1,0,0,0-1,1V6H8.82A2.931,2.931,0,0,0,5.4,4.07,3.126,3.126,0,0,0,3.04,6.5,3,3,0,0,0,4.52,9.58L7.08,18H4v3H17V18H13.38L8.41,8.77A3.163,3.163,0,0,0,8.82,8H12V9a1,1,0,0,0,1,1,.975.975,0,0,0,.78-.4l1.74,1.6a.993.993,0,0,0,1.13.2l3.92-1.83a.745.745,0,0,0,.36-1C20.918,8.546,20.9,8.531,20.884,8.508ZM6,8A1,1,0,1,1,7,7,1,1,0,0,1,6,8Z" fill="currentColor"/>
    <path d="M19,2a3,3,0,1,0,3,3A3,3,0,0,0,19,2Zm2,3.5H19.5V7h-1V5.5H17v-1h1.5V3h1V4.5H21Z" fill="currentColor"/>
  </g>
  <rect width="24" height="24" fill="none"/>
</svg>
