<svg id="Layer_1" data-name="Layer 1" xmlns="http://www.w3.org/2000/svg" viewBox="0 0 24 24"><path d="M20.88,8.51A4,4,0,0,1,19,9a4.48,4.48,0,0,1-.63-.06l-2,1L14,7.7V6.3l1-1c0-.11,0-.22,0-.33a4,4,0,0,1,.82-2.4,1,1,0,0,0-.3.2L13.78,4.4A1,1,0,0,0,13,4a1,1,0,0,0-1,1V6H8.82A2.93,2.93,0,0,0,5.4,4.07,3.13,3.13,0,0,0,3,6.5,3,3,0,0,0,4.52,9.58L7.08,18H4v3H17V18H13.38l-5-9.23A3.16,3.16,0,0,0,8.82,8H12V9a1,1,0,0,0,1,1,1,1,0,0,0,.78-.4l1.74,1.6a1,1,0,0,0,1.13.2l3.92-1.83a.74.74,0,0,0,.36-1ZM6,8A1,1,0,1,1,7,7,1,1,0,0,1,6,8Z" style="fill:currentColor"/><path d="M19,2a3,3,0,1,0,3,3A3,3,0,0,0,19,2Zm2,3.5H19.5V7h-1V5.5H17v-1h1.5V3h1V4.5H21Z" style="fill:currentColor"/></svg>