<svg xmlns="http://www.w3.org/2000/svg" viewBox="0 0 24 24"><g id="Layer_1" data-name="Layer 1"><path d="M19.93,8.21l-3.6,1.68L14,7.7V6.3l2.33-2.19,3.6,1.68a.75.75,0,0,0,.64-1.36L16.65,2.6a1,1,0,0,0-1.13.2L13.78,4.4A1,1,0,0,0,13,4a1,1,0,0,0-1,1V6H8.82A2.93,2.93,0,0,0,5.4,4.07,3.13,3.13,0,0,0,3,6.5,3,3,0,0,0,4.52,9.58L7.08,18H4v3H17V18H13.38l-5-9.23A3.16,3.16,0,0,0,8.82,8H12V9a1,1,0,0,0,1,1,1,1,0,0,0,.78-.4l1.74,1.6a1,1,0,0,0,1.13.2l3.92-1.83a.74.74,0,0,0,.36-1A.75.75,0,0,0,19.93,8.21ZM6,8A1,1,0,1,1,7,7,1,1,0,0,1,6,8Z" style="fill:currentColor"/></g><g id="Layer_2" data-name="Layer 2"><rect width="24" height="24" style="fill:none"/></g></svg>