<?xml version="1.0" encoding="UTF-8"?>
<svg id="Layer_1" xmlns="http://www.w3.org/2000/svg" version="1.1" viewBox="0 0 24 24">
  <!-- Generator: Adobe Illustrator 29.8.3, SVG Export Plug-In . SVG Version: 2.1.1 Build 3)  -->
  <defs>
    <style>
      .st0 {
        fill: none;
      }

      .st1 {
        fill: #040404;
      }
    </style>
  </defs>
  <rect class="st0" width="24" height="24"/>
  <path class="st1" d="M15.5,16c-.2833,0-.5208-.0958-.7125-.2875s-.2875-.4292-.2875-.7125v-4c0-.2833.0958-.5208.2875-.7125s.4292-.2875.7125-.2875h2.5c.2833,0,.5208.0958.7125.2875s.2875.4292.2875.7125v4c0,.2833-.0958.5208-.2875.7125s-.4292.2875-.7125.2875h-2.5ZM16,14.5h1.5v-3h-1.5v3ZM5,16v-2.5c0-.2833.0958-.5208.2875-.7125s.4292-.2875.7125-.2875h2v-1h-3v-1.5h3.5c.2833,0,.5208.0958.7125.2875s.2875.4292.2875.7125v1.5c0,.2833-.0958.5208-.2875.7125s-.4292.2875-.7125.2875h-2v1h3v1.5h-4.5ZM11.25,12v-1.5h1.5v1.5h-1.5ZM11.25,15.5v-1.5h1.5v1.5h-1.5ZM4,21c-.55,0-1.0208-.1958-1.4125-.5875s-.5875-.8625-.5875-1.4125V7c0-.55.1958-1.0208.5875-1.4125s.8625-.5875,1.4125-.5875h3v-2h2v2h6v-2h2v2h3c.55,0,1.0208.1958,1.4125.5875s.5875.8625.5875,1.4125v12c0,.55-.1958,1.0208-.5875,1.4125s-.8625.5875-1.4125.5875H4ZM4,19h7.25v-1.5h1.5v1.5h7.25V7h-7.25v1.5h-1.5v-1.5H4v12ZM4,19V7v12Z"/>
</svg>