<svg xmlns="http://www.w3.org/2000/svg" width="24" height="24" viewBox="0 0 24 24">
  <g>
    <path d="M6,8H7.9A2.079,2.079,0,0,1,9.84,9.32h0l.57,1.45.89-2.21a3.658,3.658,0,0,1,.19-.4A4,4,0,0,0,7.9,6H6V4L3,7l3,3Z" fill="currentColor"/>
    <path d="M18,16H16.07a2.081,2.081,0,0,1-1.93-1.29L13.07,12l1.08-2.71A2.07,2.07,0,0,1,16.08,8H18v2l3-3L18,4V6H16.08A4.059,4.059,0,0,0,12.3,8.56L9.85,14.69A2.07,2.07,0,0,1,7.92,16H6V14L3,17l3,3V18H7.92a4.059,4.059,0,0,0,3.78-2.56l.29-.73.3.75A4.071,4.071,0,0,0,16.07,18H18v2l3-3-3-3Z" fill="currentColor"/>
  </g>
  <rect width="24" height="24" fill="none"/>
</svg>
