<svg xmlns="http://www.w3.org/2000/svg" viewBox="0 0 24 24"><g id="Layer_1" data-name="Layer 1"><path d="M6,8H7.9A2.08,2.08,0,0,1,9.84,9.32h0l.57,1.45.89-2.21a3.62,3.62,0,0,1,.19-.4A4,4,0,0,0,7.9,6H6V4L3,7l3,3Z" style="fill:currentColor"/><path d="M18,16H16.07a2.08,2.08,0,0,1-1.93-1.29L13.07,12l1.08-2.71A2.07,2.07,0,0,1,16.08,8H18v2l3-3L18,4V6H16.08A4.06,4.06,0,0,0,12.3,8.56L9.85,14.69A2.07,2.07,0,0,1,7.92,16H6V14L3,17l3,3V18H7.92a4.06,4.06,0,0,0,3.78-2.56l.29-.73.3.75A4.07,4.07,0,0,0,16.07,18H18v2l3-3-3-3Z" style="fill:currentColor"/></g><g id="Layer_2" data-name="Layer 2"><rect width="24" height="24" style="fill:none"/></g></svg>