<svg xmlns="http://www.w3.org/2000/svg" width="24" height="24" viewBox="0 0 24 24">
  <g>
    <path d="M6.036,8H7.9A2.068,2.068,0,0,1,9.835,9.32h0l.58,1.448.882-2.2a3.987,3.987,0,0,1,.2-.4A4.047,4.047,0,0,0,7.9,6H6.036V3.963L3,7l3.036,3.037Z" fill="currentColor"/>
    <path d="M17.964,16H16.069a2.072,2.072,0,0,1-1.925-1.293L13.069,12.02l1.085-2.712A2.069,2.069,0,0,1,16.085,8h1.879v2.037L21,7,17.964,3.963V6H16.085A4.061,4.061,0,0,0,12.3,8.564L9.846,14.692A2.069,2.069,0,0,1,7.915,16H6.036V13.963L3,17l3.036,3.037V18H7.915A4.061,4.061,0,0,0,11.7,15.436l.289-.723.3.75A4.065,4.065,0,0,0,16.069,18h1.895v2.037L21,17l-3.036-3.037Z" fill="currentColor"/>
  </g>
  <rect width="24" height="24" fill="none"/>
</svg>
