<?xml version="1.0" encoding="UTF-8"?>
<svg id="Layer_1" xmlns="http://www.w3.org/2000/svg" version="1.1" viewBox="0 0 24 24">
  <!-- Generator: Adobe Illustrator 29.8.3, SVG Export Plug-In . SVG Version: 2.1.1 Build 3)  -->
  <defs>
    <style>
      .st0 {
        fill: none;
      }
    </style>
  </defs>
  <rect class="st0" width="24" height="24"/>
  <path d="M12,4c-4.4,0-8,3.6-8,8s3.6,8,8,8,8-3.6,8-8-3.6-8-8-8Z"/>
  <path d="M20.3439,3.6806l-3.8527,1.032,1.057,1.057-10.9896,10.9891.2448.2448c-.2617.2473-.569.4919-.9059.5477-.4434.0721-1.0787-.1436-1.4319-.425l-2.0254,2.0254c.5753.4791,1.3962.665,2.097.3354-.3174.725-.1378,1.4802.3356,2.0973l2.0254-2.0254c-.2755-.3356-.4794-.863-.4434-1.2823.0288-.4358.2809-.7579.5659-1.0555l.2449.2449,10.9896-10.9891,1.0566,1.0566,1.032-3.8527Z"/>
</svg>