<svg xmlns="http://www.w3.org/2000/svg" viewBox="0 0 24 24"><g id="Layer_1" data-name="Layer 1"><path d="M2.53,19.65l1.34.56v-9L1.44,17A2,2,0,0,0,2.53,19.65ZM22,16l-5-12a2,2,0,0,0-2.6-1.08L7.1,6a2,2,0,0,0-1.23,1.8,1.87,1.87,0,0,0,.15.8l5,12a2,2,0,0,0,1.83,1.23,2.07,2.07,0,0,0,.77-.15l7.36-3.05A2,2,0,0,0,22,16ZM7.88,8.75a1,1,0,1,1,1-1A1,1,0,0,1,7.88,8.75Zm-2,11a2,2,0,0,0,2,2H9.33L5.88,13.41Z" style="fill:currentColor"/></g><g id="Layer_2" data-name="Layer 2"><rect width="24" height="24" style="fill:none"/></g></svg>