<svg xmlns="http://www.w3.org/2000/svg" width="24" height="24" viewBox="0 0 24 24">
  <path d="M2.53,19.65l1.34.56V11.18L1.44,17.04A2.019,2.019,0,0,0,2.53,19.65Zm19.5-3.7L17.07,3.98a1.993,1.993,0,0,0-2.6-1.08L7.1,5.95a2,2,0,0,0-1.23,1.8,1.866,1.866,0,0,0,.15.8l4.96,11.97a2,2,0,0,0,1.83,1.23,2.069,2.069,0,0,0,.77-.15l7.36-3.05A1.994,1.994,0,0,0,22.03,15.95ZM7.88,8.75a1,1,0,1,1,1-1A1,1,0,0,1,7.88,8.75Zm-2,11a2.006,2.006,0,0,0,2,2H9.33L5.88,13.41Z" fill="currentColor"/>
  <rect width="24" height="24" fill="none"/>
</svg>
