<svg xmlns="http://www.w3.org/2000/svg" width="24" height="24" viewBox="0 0 24 24">
  <g>
    <circle cx="10.085" cy="7.5" r="4" fill="currentColor"/>
    <path d="M10.755,12.52c-.22-.01-.44-.02-.67-.02a12.876,12.876,0,0,0-6.61,1.82,2.922,2.922,0,0,0-1.39,2.53V19.5h9.26a6.963,6.963,0,0,1-1.26-4A7.072,7.072,0,0,1,10.755,12.52Z" fill="currentColor"/>
    <path d="M20.835,15.5a4.338,4.338,0,0,0-.06-.63l1.14-1.01-1-1.73-1.45.49a3.647,3.647,0,0,0-1.08-.63l-.3-1.49h-2l-.3,1.49a3.647,3.647,0,0,0-1.08.63l-1.45-.49-1,1.73,1.14,1.01a4.338,4.338,0,0,0-.06.63,4.338,4.338,0,0,0,.06.63l-1.14,1.01,1,1.73,1.45-.49a3.647,3.647,0,0,0,1.08.63l.3,1.49h2l.3-1.49a3.647,3.647,0,0,0,1.08-.63l1.45.49,1-1.73-1.14-1.01A4.338,4.338,0,0,0,20.835,15.5Zm-3.75,2a2,2,0,1,1,2-2A2.006,2.006,0,0,1,17.085,17.5Z" fill="currentColor"/>
  </g>
  <rect width="24" height="24" fill="none"/>
</svg>
