<svg xmlns="http://www.w3.org/2000/svg" viewBox="0 0 24 24"><g id="Layer_1" data-name="Layer 1"><circle cx="10.09" cy="7.5" r="4" style="fill:currentColor"/><path d="M10.76,12.52l-.67,0a12.91,12.91,0,0,0-6.62,1.82,2.94,2.94,0,0,0-1.38,2.53V19.5h9.26a7,7,0,0,1-1.26-4A7.07,7.07,0,0,1,10.76,12.52Z" style="fill:currentColor"/><path d="M20.84,15.5c0-.22,0-.42-.06-.63l1.13-1-1-1.73-1.45.49A3.65,3.65,0,0,0,18.38,12l-.29-1.49h-2L15.78,12a3.78,3.78,0,0,0-1.08.63l-1.44-.49-1,1.73,1.14,1a4.34,4.34,0,0,0-.06.63,3.28,3.28,0,0,0,.06.63l-1.14,1,1,1.73,1.44-.49a3.78,3.78,0,0,0,1.08.63l.31,1.49h2L18.38,19a3.65,3.65,0,0,0,1.08-.63l1.45.49,1-1.73-1.13-1C20.8,15.92,20.84,15.72,20.84,15.5Zm-3.75,2a2,2,0,1,1,2-2A2,2,0,0,1,17.09,17.5Z" style="fill:currentColor"/></g><g id="Layer_2" data-name="Layer 2"><rect width="24" height="24" style="fill:none"/></g></svg>