<svg xmlns="http://www.w3.org/2000/svg" width="24" height="24" viewBox="0 0 24 24">
  <path d="M12.005,6.5a5,5,0,0,1,5,5,4.853,4.853,0,0,1-.36,1.83l2.92,2.92A11.817,11.817,0,0,0,23,11.5,11.827,11.827,0,0,0,12,4a11.645,11.645,0,0,0-3.98.7l2.16,2.16A4.853,4.853,0,0,1,12.005,6.5Zm-10-2.73,2.28,2.28.46.46A11.8,11.8,0,0,0,1,11.5a11.822,11.822,0,0,0,15.38,6.66l.42.42,2.93,2.92,1.27-1.27L3.275,2.5ZM7.535,9.3l1.55,1.55a2.821,2.821,0,0,0-.08.65,3,3,0,0,0,3,3,2.821,2.821,0,0,0,.65-.08l1.55,1.55A4.967,4.967,0,0,1,7.535,9.3Zm4.31-.78L15,11.67l.02-.16a3,3,0,0,0-3-3Z" fill="currentColor"/>
  <rect width="24" height="24" fill="none"/>
</svg>
