<svg id="Layer_1" data-name="Layer 1" xmlns="http://www.w3.org/2000/svg" viewBox="0 0 24 24"><path d="M12,6.5a5,5,0,0,1,5,5,4.67,4.67,0,0,1-.37,1.83l2.92,2.92A11.72,11.72,0,0,0,23,11.5,11.82,11.82,0,0,0,12,4a11.63,11.63,0,0,0-4,.7l2.16,2.16A4.81,4.81,0,0,1,12,6.5ZM2,3.77,4.28,6.05l.46.46A11.86,11.86,0,0,0,1,11.5a11.82,11.82,0,0,0,15.38,6.66l.42.42,2.92,2.92L21,20.23,3.28,2.5ZM7.54,9.3l1.55,1.55A2.36,2.36,0,0,0,9,11.5a3,3,0,0,0,3,3,2.74,2.74,0,0,0,.64-.08L14.2,16A4.91,4.91,0,0,1,12,16.5a5,5,0,0,1-5-5A4.83,4.83,0,0,1,7.54,9.3Zm4.31-.78L15,11.67l0-.16a3,3,0,0,0-3-3Z" style="fill:currentColor"/></svg>