<svg id="Layer_1" data-name="Layer 1" xmlns="http://www.w3.org/2000/svg" viewBox="0 0 24 24"><path d="M16.13,10.3a5.4,5.4,0,0,0-.83-2,2.23,2.23,0,0,0-1.44-.89h0L13,7.24h0l.55-.65a3.5,3.5,0,0,0,.72-2.2c0-1.72-1.07-3-2.24-3h-.2a2.83,2.83,0,0,0-2,3,3.54,3.54,0,0,0,.76,2.23l.55.66h0l-.83.17a2,2,0,0,0-1.37.93,5.6,5.6,0,0,0-.86,2,22,22,0,0,0-.45,4.84h2l0,.24,5.06.73.07-.93h1.75A26.63,26.63,0,0,0,16.13,10.3Z" style="fill:currentColor"/><path d="M10,22.37a9.24,9.24,0,0,0,4.12,0l.14-2.17-4.5-.79Z" style="fill:currentColor"/><path d="M23,5.73a.58.58,0,0,0-.07-.21l-.21-.58a1.46,1.46,0,0,0-.31-.48,1.31,1.31,0,0,0-.62-.34,1.75,1.75,0,0,0-.72,0l-6.15.69a4,4,0,0,1-.59,1.79l6.36-.66L16.81,16.8a.15.15,0,0,1-.07.1l-.1.11s-.07,0-.1.06h-.07L3,15.15,7.53,7.42s0,0,0-.07l.06-.07,0,0,1.48-.17a2.33,2.33,0,0,1,.68-.31,3.5,3.5,0,0,1-.61-1.41l-1.48.17a3.34,3.34,0,0,0-.52.14,1.65,1.65,0,0,0-.44.28,1.54,1.54,0,0,0-.38.34,2.58,2.58,0,0,0-.35.45l-4.71,8a2.19,2.19,0,0,0-.24.55,1.87,1.87,0,0,0-.1.62,1,1,0,0,0,.07.34l.14.38a.91.91,0,0,0,.17.34,1,1,0,0,0,.62.38l7.08,1.27h0L15,19.69h0l1.34.24h0a1.31,1.31,0,0,0,.34,0,2.59,2.59,0,0,0,.55-.07,3.09,3.09,0,0,0,.79-.34,2.79,2.79,0,0,0,.65-.58,2.56,2.56,0,0,0,.45-.8h0L22.86,6.56A1.26,1.26,0,0,0,23,5.73ZM20.8,5.49Z" style="fill:currentColor"/></svg>