<svg id="Layer_1" data-name="Layer 1" xmlns="http://www.w3.org/2000/svg" viewBox="0 0 24 24"><path d="M18,8.86V18H6V6h9.14A4.09,4.09,0,0,1,15,5a4.09,4.09,0,0,1,.14-1H6A2,2,0,0,0,4,6V18a2,2,0,0,0,2,2H18a2,2,0,0,0,2-2V8.86a3.64,3.64,0,0,1-2,0Z" style="fill:currentColor"/><path d="M19,2a3,3,0,1,0,3,3A3,3,0,0,0,19,2Zm2,3.5H19.5V7h-1V5.5H17v-1h1.5V3h1V4.5H21Z" style="fill:currentColor"/><path d="M12.5,12.5v4h4v-4Zm-5,4h4v-4h-4Zm0-9v4h4v-4Zm6.83-.65L11.5,9.67l2.83,2.83,2.83-2.83Z" style="fill:currentColor"/></svg>