<svg id="Layer_1" data-name="Layer 1" xmlns="http://www.w3.org/2000/svg" viewBox="0 0 24 24"><path d="M18,6V18H6V6H18m0-2H6A2,2,0,0,0,4,6V18a2,2,0,0,0,2,2H18a2,2,0,0,0,2-2V6a2,2,0,0,0-2-2Z" style="fill:currentColor"/><path d="M15.44,12.45a3.19,3.19,0,0,0,0-.45,3.29,3.29,0,0,0,0-.45l1-.76a.23.23,0,0,0,.06-.3l-.92-1.6a.24.24,0,0,0-.29-.1l-1.15.46a3.37,3.37,0,0,0-.78-.45l-.17-1.23a.24.24,0,0,0-.23-.2H11.07a.23.23,0,0,0-.22.2L10.67,8.8a3.37,3.37,0,0,0-.78.45L8.74,8.79a.23.23,0,0,0-.28.1l-.92,1.6a.22.22,0,0,0,.06.3l1,.76a2.91,2.91,0,0,0,0,.9l-1,.76a.23.23,0,0,0-.06.3l.92,1.6a.24.24,0,0,0,.29.1l1.15-.46a3.37,3.37,0,0,0,.78.45l.17,1.23a.25.25,0,0,0,.23.2h1.86a.23.23,0,0,0,.22-.2l.18-1.23a3.37,3.37,0,0,0,.78-.45l1.15.46a.23.23,0,0,0,.28-.1l.93-1.6a.23.23,0,0,0-.06-.3ZM12,13.73A1.73,1.73,0,1,1,13.73,12,1.74,1.74,0,0,1,12,13.73Z" style="fill:currentColor"/></svg>